<svg id="Layer_1" data-name="Layer 1" xmlns="http://www.w3.org/2000/svg" viewBox="0 0 250 80"><defs><style>.cls-1{fill:#f47458;}.cls-2{fill:#009b72;}.cls-3{fill:#f7cc7f;}.cls-4{fill:#fff;}.cls-5{fill:none;}</style></defs><path class="cls-1" d="M46.2,35.9,33.52,10.53a9.18,9.18,0,0,0-16.42,0L4.41,35.9a9.17,9.17,0,0,0,0,8.2L17.1,69.47a9.18,9.18,0,0,0,16.42,0L46.2,44.1A9.17,9.17,0,0,0,46.2,35.9Z"/><path class="cls-2" d="M69.15,35.9,56.46,10.53a9.18,9.18,0,0,0-16.42,0L27.36,35.9a9.17,9.17,0,0,0,0,8.2L40,69.47a9.18,9.18,0,0,0,16.42,0L69.15,44.1A9.17,9.17,0,0,0,69.15,35.9Z"/><path class="cls-3" d="M92.1,35.9,79.41,10.53a9.18,9.18,0,0,0-16.42,0L50.31,35.9a9.17,9.17,0,0,0,0,8.2L63,69.47a9.18,9.18,0,0,0,16.42,0L92.1,44.1A9.17,9.17,0,0,0,92.1,35.9Z"/><path class="cls-4" d="M109.92,58.9q-5.64-4.86-6-14.11c-.05-1.27-.07-3.32-.07-6.17s0-5,.07-6.3q.34-9.12,6.09-14t15.55-4.94a28.22,28.22,0,0,1,11.07,2.07,18.22,18.22,0,0,1,7.74,5.88,14.91,14.91,0,0,1,2.91,8.93v.14a1.2,1.2,0,0,1-.45.95,1.55,1.55,0,0,1-1,.39h-9.46a2.22,2.22,0,0,1-1.4-.39,3,3,0,0,1-.84-1.44,8.45,8.45,0,0,0-3.08-5,9.62,9.62,0,0,0-5.53-1.44q-8.28,0-8.55,9.25c0,1.26-.07,3.2-.07,5.81s0,4.6.07,6q.27,9.26,8.55,9.25a9.67,9.67,0,0,0,5.6-1.5,8,8,0,0,0,3-4.94,2.69,2.69,0,0,1,.77-1.44,2.41,2.41,0,0,1,1.47-.38h9.46a1.57,1.57,0,0,1,1.09.42,1.17,1.17,0,0,1,.38,1,14.89,14.89,0,0,1-2.91,8.93,18.14,18.14,0,0,1-7.74,5.88,28.22,28.22,0,0,1-11.07,2.07Q115.57,63.77,109.92,58.9Z"/><path class="cls-4" d="M162.6,58.9q-5.64-4.86-6-14.11c-.05-1.27-.07-3.32-.07-6.17s0-5,.07-6.3q.34-9.12,6.09-14t15.55-4.94a28.22,28.22,0,0,1,11.07,2.07,18.22,18.22,0,0,1,7.74,5.88A15,15,0,0,1,200,30.21v.14a1.2,1.2,0,0,1-.45.95,1.55,1.55,0,0,1-1,.39H189a2.22,2.22,0,0,1-1.4-.39,3,3,0,0,1-.84-1.44,8.45,8.45,0,0,0-3.08-5,9.62,9.62,0,0,0-5.53-1.44q-8.28,0-8.55,9.25c0,1.26-.07,3.2-.07,5.81s0,4.6.07,6q.27,9.26,8.55,9.25a9.67,9.67,0,0,0,5.6-1.5,8,8,0,0,0,3-4.94,2.69,2.69,0,0,1,.77-1.44,2.41,2.41,0,0,1,1.47-.38h9.46a1.57,1.57,0,0,1,1.09.42,1.17,1.17,0,0,1,.38,1,15,15,0,0,1-2.91,8.93,18.14,18.14,0,0,1-7.74,5.88,28.22,28.22,0,0,1-11.07,2.07Q168.25,63.77,162.6,58.9Z"/><path class="cls-4" d="M211.36,62.54a1.63,1.63,0,0,1-.53-1.22V15.78a1.63,1.63,0,0,1,.53-1.26,1.73,1.73,0,0,1,1.22-.49H244.8a1.68,1.68,0,0,1,1.76,1.75v7.08a1.73,1.73,0,0,1-.49,1.22,1.67,1.67,0,0,1-1.27.53H223.16v10.3H243.4a1.62,1.62,0,0,1,1.26.52,1.83,1.83,0,0,1,.49,1.3v7a1.72,1.72,0,0,1-.49,1.22,1.63,1.63,0,0,1-1.26.53H223.16V61.32a1.74,1.74,0,0,1-.49,1.26,1.7,1.7,0,0,1-1.26.49h-8.83A1.65,1.65,0,0,1,211.36,62.54Z"/><rect class="cls-5" width="250" height="80"/></svg>