<svg preserveAspectRatio="none" data-bbox="177.705 197.719 3360.235 604.562" xmlns="http://www.w3.org/2000/svg" viewBox="177.705 197.719 3360.235 604.562" height="1000" width="3720" data-type="shape" role="presentation" aria-hidden="true">
    <g>
        <path d="M579.209 398.471c0 110.872-89.88 200.752-200.752 200.752-110.872 0-200.752-89.88-200.752-200.752 0-110.872 89.88-200.752 200.752-200.752 110.872 0 200.752 89.88 200.752 200.752z"></path>
        <path d="M907.795 738.825c0 35.046-28.41 63.456-63.456 63.456-35.046 0-63.456-28.41-63.456-63.456 0-35.046 28.41-63.456 63.456-63.456 35.046 0 63.456 28.41 63.456 63.456z"></path>
        <path d="M723.657 197.719v604.562h-98.299V197.719h98.299z"></path>
        <path d="m1335.29 720 41-36.5-39-43.5c28.5-33 44.5-78 44.5-130.5 0-111.5-73-189-177.5-189s-177 78-177 189c0 111.5 72 189 176.5 189 34.5 0 65.5-8.5 91.5-23.5l40 45zm-21-210.5c0 32-7.5 59.5-21 80.5l-48.5-54.5-40.5 36.5 48.5 54.5c-14.5 7-30.5 10.5-48.5 10.5-67 0-110-49.5-110-127.5s43-127.5 110-127.5 110 49.5 110 127.5zm285.57-64V575c0 47-18.5 69.5-57 69.5-34 0-52.5-19-52.5-66v-133h-61V600c0 60.5 33.5 99 90.5 99 33 0 65-16 80-39.5l4.5 33h56.5v-247h-61zM1829.48 699c64.5 0 109.5-32.5 120-86.5h-56.5c-7 23.5-29 36.5-62.5 36.5-40.5 0-63.5-22-68-65.5l186-.5v-18.5c0-77-47-126.5-121-126.5-72.5 0-123 53.5-123 131 0 76.5 51.5 130 125 130zm-1.5-211c36.5 0 60 22.5 60 56.5h-124c6-37 28-56.5 64-56.5zm150.32 129.5c0 48.5 39 81.5 100.5 81.5 61 0 103.5-31 103.5-81 0-38-21-57-62.5-66.5l-44.5-10.5c-21-5-32-14-32-28 0-18.5 14-29.5 38-29.5 23.5 0 37.5 13.5 38 34.5h58c-.5-48-38-80-93.5-80-57 0-98 29-98 77.5 0 39.5 21.5 60.5 66 70.5l44.5 10.5c22 5 28.5 14 28.5 26.5 0 18-15.5 29.5-44 29.5-28 0-44-13.5-44.5-35h-58zm334.45 75v-196h48v-51h-48v-77h-61v77h-47.5v51h47.5v196h61zm142.42 0 4-38.5c14.5 28.5 46 45 83 45 71 0 117.5-52.5 117.5-128.5 0-78-43-133-113.5-133-37.5 0-70.5 16.5-86.5 44v-161h-61v372h56.5zm5-124.5c0-44.5 27.5-75.5 69.5-75.5 43 0 68.5 31.5 68.5 75.5s-25.5 75-68.5 75c-42 0-69.5-30.5-69.5-75zm233.57.5c0 77 55.5 130 132 130s132-53 132-130-55.5-130-132-130-132 53-132 130zm61 0c0-45 29-75.5 71-75.5s71 30.5 71 75.5-29 75.5-71 75.5-71-30.5-71-75.5zm236.85 0c0 77 55.5 130 132 130s132-53 132-130-55.5-130-132-130-132 53-132 130zm61 0c0-45 29-75.5 71-75.5s71 30.5 71 75.5-29 75.5-71 75.5-71-30.5-71-75.5zm312.85 124V626l36-37.5 64.5 104h70l-92-149 94-98h-76.5l-96 103.5V320.5h-60.5v372h60.5z"></path>
    </g>
</svg>