<svg width="190" height="34" viewBox="0 0 190 34" fill="none" xmlns="http://www.w3.org/2000/svg">
<path d="M22.7025 11.2901C22.7025 17.5254 17.6204 22.5802 11.3513 22.5802C5.08214 22.5802 0 17.5254 0 11.2901C0 5.05477 5.08214 0 11.3513 0C17.6204 0 22.7025 5.05477 22.7025 11.2901V11.2901Z" fill="black"/>
<path d="M41.2819 30.4313C41.2819 32.4022 39.6755 34 37.6939 34C35.7122 34 34.1058 32.4022 34.1058 30.4313C34.1058 28.4603 35.7122 26.8625 37.6939 26.8625C39.6755 26.8625 41.2819 28.4603 41.2819 30.4313Z" fill="black"/>
<path d="M30.8701 0V34H25.3119V0H30.8701Z" fill="black"/>
<path d="M65.4542 29.3725L67.7724 27.3198L65.5672 24.8734C67.1787 23.0175 68.0834 20.4867 68.0834 17.5342C68.0834 11.2635 63.9557 6.90503 58.0469 6.90503C52.1381 6.90503 48.0387 11.2917 48.0387 17.5342C48.0387 23.8048 52.1098 28.1634 58.0187 28.1634C59.9694 28.1634 61.7223 27.6853 63.1924 26.8417L65.4542 29.3725ZM64.2667 17.5342C64.2667 19.3338 63.8427 20.8804 63.0793 22.0614L60.337 18.9964L58.0469 21.0491L60.7893 24.1142C59.9694 24.5078 59.0647 24.7047 58.0469 24.7047C54.2585 24.7047 51.8271 21.9208 51.8271 17.5342C51.8271 13.1476 54.2585 10.3637 58.0469 10.3637C61.8354 10.3637 64.2667 13.1476 64.2667 17.5342ZM80.4139 13.9349V21.2178C80.4139 23.8611 79.3679 25.1265 77.1909 25.1265C75.2684 25.1265 74.2224 24.0579 74.2224 21.4147V13.9349H70.7732V22.6238C70.7732 26.0263 72.6674 28.1915 75.8904 28.1915C77.7564 28.1915 79.5658 27.2917 80.4139 25.97L80.6684 27.8259H83.8631V13.9349H80.4139ZM93.3975 28.1915C97.0446 28.1915 99.589 26.3637 100.183 23.3268H96.988C96.5922 24.6484 95.3482 25.3795 93.454 25.3795C91.164 25.3795 89.8635 24.1423 89.6091 21.6959L100.126 21.6678V20.6273C100.126 16.2969 97.4686 13.5131 93.2844 13.5131C89.185 13.5131 86.3295 16.5219 86.3295 20.8804C86.3295 25.1827 89.2415 28.1915 93.3975 28.1915ZM93.3127 16.3251C95.3765 16.3251 96.7053 17.5904 96.7053 19.5026H89.6939C90.0331 17.4217 91.2771 16.3251 93.3127 16.3251ZM101.812 23.608C101.812 26.3356 104.018 28.1915 107.495 28.1915C110.944 28.1915 113.347 26.4481 113.347 23.6361C113.347 21.499 112.16 20.4305 109.813 19.8962L107.297 19.3057C106.11 19.0245 105.488 18.5184 105.488 17.731C105.488 16.6906 106.279 16.072 107.636 16.072C108.965 16.072 109.757 16.8312 109.785 18.0122H113.065C113.036 15.3128 110.916 13.5131 107.778 13.5131C104.555 13.5131 102.236 15.144 102.236 17.8716C102.236 20.0931 103.452 21.2741 105.968 21.8365L108.484 22.427C109.728 22.7082 110.096 23.2143 110.096 23.9173C110.096 24.9296 109.22 25.5764 107.608 25.5764C106.025 25.5764 105.12 24.8171 105.092 23.608H101.812V23.608ZM120.723 27.8259V16.8031H123.437V13.9349H120.723V9.6045H117.274V13.9349H114.588V16.8031H117.274V27.8259H120.723ZM128.776 27.8259L129.002 25.6607C129.822 27.2635 131.603 28.1915 133.696 28.1915C137.71 28.1915 140.34 25.2389 140.34 20.9648C140.34 16.5781 137.908 13.485 133.922 13.485C131.801 13.485 129.935 14.4129 129.031 15.9595V6.90503H125.582V27.8259H128.776ZM129.059 20.8242C129.059 18.3215 130.614 16.5781 132.989 16.5781C135.42 16.5781 136.862 18.3497 136.862 20.8242C136.862 23.2987 135.42 25.0421 132.989 25.0421C130.614 25.0421 129.059 23.3268 129.059 20.8242ZM142.266 20.8523C142.266 25.1827 145.404 28.1634 149.73 28.1634C154.055 28.1634 157.193 25.1827 157.193 20.8523C157.193 16.5219 154.055 13.5412 149.73 13.5412C145.404 13.5412 142.266 16.5219 142.266 20.8523ZM145.715 20.8523C145.715 18.3215 147.355 16.6063 149.73 16.6063C152.105 16.6063 153.744 18.3215 153.744 20.8523C153.744 23.383 152.105 25.0983 149.73 25.0983C147.355 25.0983 145.715 23.383 145.715 20.8523ZM159.107 20.8523C159.107 25.1827 162.246 28.1634 166.571 28.1634C170.897 28.1634 174.035 25.1827 174.035 20.8523C174.035 16.5219 170.897 13.5412 166.571 13.5412C162.246 13.5412 159.107 16.5219 159.107 20.8523ZM162.557 20.8523C162.557 18.3215 164.196 16.6063 166.571 16.6063C168.946 16.6063 170.586 18.3215 170.586 20.8523C170.586 23.383 168.946 25.0983 166.571 25.0983C164.196 25.0983 162.557 23.383 162.557 20.8523ZM180.246 27.8259V24.086L182.282 21.9771L185.929 27.8259H189.887L184.685 19.4463L190 13.9349H185.675L180.246 19.7556V6.90503H176.825V27.8259H180.246Z" fill="black"/>
</svg>
