<svg width="34" height="55" viewBox="0 0 34 55" fill="none" xmlns="http://www.w3.org/2000/svg">
<path d="M21.2945 40.0869L30.5251 25.2445C30.5552 25.1965 30.5805 25.146 30.6002 25.0937C32.1941 22.4944 33.0357 19.525 33.0357 16.4935C33.0357 7.399 25.6367 0 16.5422 0C7.44764 0 0.048021 7.399 0.048021 16.4935C0.048021 19.5257 0.890861 22.4962 2.48604 25.0974C2.50451 25.1429 2.52606 25.1873 2.55191 25.2304L11.4513 40.1238C4.54296 41.1002 0 43.9409 0 47.3867C0 51.6564 7.25556 55 16.5176 55C25.7795 55 33.0351 51.6557 33.0351 47.3867C33.0357 43.9249 28.281 41.0208 21.2945 40.0869ZM4.14401 24.2656C2.67258 21.9237 1.895 19.2363 1.895 16.4935C1.895 8.41731 8.46533 1.84698 16.5422 1.84698C24.6184 1.84698 31.1887 8.41731 31.1887 16.4935C31.1887 19.2375 30.4112 21.9249 28.9404 24.2656C28.9096 24.3149 28.8843 24.366 28.864 24.4189L19.1119 40.0979C18.9654 40.3227 18.9365 40.3738 18.7573 40.668L16.2947 44.628L4.22651 24.4319C4.20496 24.3746 4.17726 24.3186 4.14401 24.2656ZM16.5182 53.153C7.87245 53.153 1.8476 50.1135 1.8476 47.3867C1.8476 44.9118 6.38501 42.5797 12.4881 41.8575L15.4863 46.8758C15.6519 47.1522 15.9487 47.3227 16.2707 47.3252C16.2731 47.3252 16.2762 47.3252 16.2787 47.3252C16.5976 47.3252 16.8943 47.1602 17.063 46.8893L20.2152 41.8212C26.4155 42.4929 31.1881 44.8841 31.1881 47.3867C31.1887 50.1141 25.1639 53.153 16.5182 53.153Z" fill="white"/>
<path d="M22.5148 16.4933C22.5148 13.1865 19.8244 10.4961 16.5176 10.4961C13.2109 10.4961 10.5205 13.1865 10.5205 16.4933C10.5205 19.8 13.2109 22.4904 16.5176 22.4904C19.8244 22.4904 22.5148 19.8 22.5148 16.4933ZM12.3675 16.4933C12.3675 14.2048 14.2292 12.3431 16.5176 12.3431C18.8061 12.3431 20.6678 14.2048 20.6678 16.4933C20.6678 18.7817 18.8067 20.6434 16.5176 20.6434C14.2286 20.6434 12.3675 18.7817 12.3675 16.4933Z" fill="white"/>
</svg>
