<svg width="60" height="38" viewBox="0 0 60 38" fill="none" xmlns="http://www.w3.org/2000/svg">
<path d="M47.375 25.7111C46.1975 23.2562 41.985 19.8486 37.915 16.5561C35.645 14.7211 33.5 12.9861 32.1325 11.6186C31.79 11.2736 31.2775 11.1636 30.8251 11.3261C29.9826 11.6312 29.4625 11.8661 29.0526 12.0486C28.4276 12.3286 28.2176 12.4236 27.3751 12.5086C27.0025 12.5461 26.6676 12.7461 26.4601 13.0561C24.6925 15.6985 22.8625 15.4735 21.64 15.0636C21.25 14.9336 21.1801 14.7661 21.1426 14.6061C20.8801 13.5086 22.1976 10.9536 23.905 9.24605C27.9676 5.18105 30.0625 4.16351 34.4875 6.14105C39.5075 8.38601 44.5375 10.1436 44.5876 10.1611C45.2451 10.3885 45.9526 10.0435 46.18 9.39101C46.405 8.73851 46.0625 8.02601 45.41 7.79855C45.36 7.78109 40.43 6.05855 35.51 3.85601C29.7775 1.29347 26.6324 2.98097 22.1399 7.47605C20.4299 9.18605 18.1074 12.646 18.7074 15.1836C18.9649 16.2636 19.7249 17.0636 20.8549 17.4361C23.6874 18.3711 26.2723 17.476 28.1974 14.9211C28.9924 14.7986 29.4249 14.6186 30.0748 14.3261C30.3098 14.2211 30.5848 14.0987 30.9499 13.9511C32.3799 15.2936 34.3099 16.8561 36.3424 18.4986C40.0174 21.4711 44.1849 24.8411 45.1224 26.7911C45.585 27.7536 45.0874 28.3811 44.7499 28.6686C44.2549 29.0936 43.5774 29.2286 43.2099 28.9711C42.8049 28.6936 42.2775 28.6761 41.8599 28.9261C41.4399 29.176 41.205 29.6485 41.2575 30.1336C41.3424 30.9286 40.6149 31.3836 40.2999 31.5411C39.4999 31.9461 38.6649 31.8761 38.3524 31.5861C38.0023 31.2611 37.4998 31.1661 37.0549 31.3311C36.6099 31.4986 36.2998 31.9086 36.2548 32.3836C36.1798 33.2035 35.5723 33.991 34.7798 34.2985C34.3973 34.4435 33.8423 34.531 33.3448 34.076C33.0349 33.796 32.6048 33.6885 32.2024 33.786C31.7949 33.8859 31.4674 34.181 31.3249 34.5735C31.2774 34.6985 31.1698 34.9985 29.9998 34.9985C29.1673 34.9985 27.6698 34.436 26.9374 33.951C26.0599 33.3735 20.5573 29.2685 15.8049 25.2884C15.1374 24.7259 13.9824 23.5209 12.9624 22.4559C12.0573 21.5109 11.2299 20.6534 10.8048 20.2934C10.2723 19.8434 9.48485 19.9109 9.04235 20.441C8.59739 20.9684 8.66231 21.7585 9.18989 22.2035C9.57743 22.531 10.3274 23.3234 11.1549 24.1859C12.2699 25.3509 13.4224 26.5559 14.1974 27.206C18.8525 31.1035 24.4475 35.311 25.5624 36.0435C26.4824 36.6485 28.4649 37.4985 29.9999 37.4985C31.2324 37.4985 32.18 37.2159 32.8374 36.6635C33.7174 37.006 34.7174 37.0085 35.6799 36.6335C36.8174 36.1935 37.7524 35.306 38.2824 34.231C39.2674 34.441 40.395 34.2935 41.4199 33.7786C42.4224 33.2736 43.1473 32.5011 43.5073 31.5985C44.5024 31.651 45.5273 31.2985 46.3748 30.571C47.81 29.3436 48.2049 27.4337 47.375 25.7111Z" fill="white"/>
<path d="M25 4.99805H13.75C13.06 4.99805 12.5 5.55809 12.5 6.24809C12.5 6.93809 13.06 7.49813 13.75 7.49813H25C25.69 7.49813 26.2501 6.93809 26.2501 6.24809C26.2501 5.55809 25.69 4.99805 25 4.99805Z" fill="white"/>
<path d="M51.0372 23.0508C50.6497 22.4784 49.8747 22.3209 49.3023 22.7109L45.6473 25.1658C45.0748 25.5508 44.9223 26.3283 45.3073 26.9008C45.5498 27.2583 45.9448 27.4533 46.3474 27.4533C46.5849 27.4533 46.8274 27.3858 47.0424 27.2409L50.6974 24.7859C51.2697 24.4008 51.4222 23.6234 51.0372 23.0508Z" fill="white"/>
<path d="M43.2776 29.0171C42.3826 28.3121 38.3801 24.2146 35.9051 21.6346C35.4276 21.1346 34.6351 21.1171 34.1376 21.5971C33.6375 22.0746 33.6225 22.8671 34.1001 23.3646C34.7426 24.0346 40.41 29.9421 41.7276 30.9822C41.955 31.1622 42.2301 31.2497 42.5001 31.2497C42.8676 31.2497 43.2351 31.0847 43.485 30.7722C43.9126 30.2321 43.8202 29.4446 43.2776 29.0171Z" fill="white"/>
<path d="M38.2828 31.5242C36.7853 30.3267 33.0229 26.3291 32.1728 25.4042C31.7028 24.8942 30.9153 24.8642 30.4053 25.3292C29.8977 25.7966 29.8628 26.5892 30.3303 27.0967C30.3753 27.1442 34.8653 31.9918 36.7203 33.4768C36.9503 33.6592 37.2278 33.7492 37.5003 33.7492C37.8653 33.7492 38.2302 33.5867 38.4777 33.2818C38.9079 32.7417 38.8204 31.9542 38.2828 31.5242Z" fill="white"/>
<path d="M33.3073 34.0409C31.5248 32.5385 27.8773 28.6559 27.1648 27.8934C26.6923 27.3884 25.8998 27.3609 25.3973 27.8334C24.8923 28.3059 24.8673 29.0958 25.3373 29.6009C26.3623 30.6984 29.8523 34.3985 31.6948 35.9534C31.9298 36.1509 32.2148 36.2484 32.4998 36.2484C32.8548 36.2484 33.2098 36.0959 33.4573 35.8034C33.9023 35.2734 33.8348 34.4859 33.3073 34.0409Z" fill="white"/>
<path d="M14.61 2.84174C12.4675 0.8117 3.9 0.15416 1.32504 0.00169929C0.970079 -0.0157617 0.64254 0.101661 0.392578 0.3392C0.1425 0.574161 0 0.904162 0 1.24916V23.7492C0 24.4392 0.56004 24.9992 1.25004 24.9992H8.75005C9.29005 24.9992 9.77005 24.6518 9.93751 24.1367C10.12 23.5767 14.4276 10.3567 14.995 3.8567C15.0276 3.47666 14.8875 3.10166 14.61 2.84174ZM7.83751 22.4993H2.49996V2.5892C6.51751 2.90666 10.8525 3.59666 12.4275 4.36167C11.765 9.83667 8.76751 19.5642 7.83751 22.4993Z" fill="white"/>
<path d="M58.7504 2.5C48.9354 2.5 43.4904 5.0125 43.2629 5.1175C42.9379 5.26996 42.6953 5.5525 42.5954 5.89504C42.4954 6.23758 42.5453 6.60508 42.7328 6.91C44.2779 9.39755 49.1154 23.2126 50.0454 26.5825C50.1954 27.125 50.6879 27.5 51.2504 27.5H58.7504C59.4404 27.5 60.0004 26.9399 60.0004 26.2499V3.74992C60.0004 3.05746 59.4404 2.5 58.7504 2.5ZM57.5005 25H52.1854C51.0004 21.14 47.5004 11.075 45.5479 6.91504C47.4554 6.26758 51.553 5.155 57.5005 5.01508V25Z" fill="white"/>
</svg>
