<svg width="56" height="64" viewBox="0 0 56 64" fill="none" xmlns="http://www.w3.org/2000/svg">
<path d="M54.5 60H52V3C52 1.34312 50.6569 0 49 0H7C5.34312 0 4 1.34312 4 3V60H1.5C0.671625 60 0 60.6716 0 61.5V64H56V61.5C56 60.6716 55.3284 60 54.5 60ZM16 9.5C16 8.67163 16.6716 8 17.5 8H22.5C23.3284 8 24 8.67163 24 9.5V14.5C24 15.3284 23.3284 16 22.5 16H17.5C16.6716 16 16 15.3284 16 14.5V9.5ZM16 21.5C16 20.6716 16.6716 20 17.5 20H22.5C23.3284 20 24 20.6716 24 21.5V26.5C24 27.3284 23.3284 28 22.5 28H17.5C16.6716 28 16 27.3284 16 26.5V21.5ZM22.5 40H17.5C16.6716 40 16 39.3284 16 38.5V33.5C16 32.6716 16.6716 32 17.5 32H22.5C23.3284 32 24 32.6716 24 33.5V38.5C24 39.3284 23.3284 40 22.5 40ZM32 60H24V49.5C24 48.6716 24.6716 48 25.5 48H30.5C31.3284 48 32 48.6716 32 49.5V60ZM40 38.5C40 39.3284 39.3284 40 38.5 40H33.5C32.6716 40 32 39.3284 32 38.5V33.5C32 32.6716 32.6716 32 33.5 32H38.5C39.3284 32 40 32.6716 40 33.5V38.5ZM40 26.5C40 27.3284 39.3284 28 38.5 28H33.5C32.6716 28 32 27.3284 32 26.5V21.5C32 20.6716 32.6716 20 33.5 20H38.5C39.3284 20 40 20.6716 40 21.5V26.5ZM40 14.5C40 15.3284 39.3284 16 38.5 16H33.5C32.6716 16 32 15.3284 32 14.5V9.5C32 8.67163 32.6716 8 33.5 8H38.5C39.3284 8 40 8.67163 40 9.5V14.5Z" fill="white"/>
</svg>
