<svg width="60" height="43" viewBox="0 0 60 43" fill="none" xmlns="http://www.w3.org/2000/svg">
<path d="M59.391 11.6816L30.3593 0.068947C30.1286 -0.0229823 29.8714 -0.0229823 29.6407 0.068947L0.608983 11.6816C0.429242 11.7534 0.275141 11.8774 0.166583 12.0376C0.0580262 12.1978 0 12.3869 0 12.5804C0 12.774 0.0580262 12.963 0.166583 13.1233C0.275141 13.2835 0.429242 13.4075 0.608983 13.4792L10.6455 17.494V37.7413C10.6455 37.9317 10.7018 38.1179 10.8072 38.2765C10.9127 38.4351 11.0626 38.5591 11.2382 38.6328C17.4571 41.2517 23.7703 42.5799 30 42.5799C36.2297 42.5799 42.5429 41.2517 48.7618 38.6328C48.9374 38.5591 49.0873 38.4351 49.1928 38.2765C49.2982 38.1179 49.3545 37.9317 49.3545 37.7413V17.494L54.1931 15.5586V23.3476C53.2809 23.5831 52.4859 24.1433 51.9571 24.923C51.4283 25.7028 51.2021 26.6487 51.3208 27.5833C51.4395 28.5179 51.895 29.3772 52.602 30C53.3089 30.6228 54.2187 30.9665 55.1609 30.9665C56.103 30.9665 57.0128 30.6228 57.7197 30C58.4267 29.3772 58.8822 28.5179 59.0009 27.5833C59.1196 26.6487 58.8934 25.7028 58.3646 24.923C57.8358 24.1433 57.0408 23.5831 56.1286 23.3476V14.7844L59.391 13.4792C59.5708 13.4075 59.7249 13.2835 59.8334 13.1233C59.942 12.963 60 12.774 60 12.5804C60 12.3869 59.942 12.1978 59.8334 12.0376C59.7249 11.8774 59.5708 11.7534 59.391 11.6816ZM47.4191 37.0941C41.6308 39.4505 35.7737 40.6444 30 40.6444C24.2263 40.6444 18.3692 39.4505 12.581 37.0941V18.2682L29.6407 25.0919C29.8714 25.1838 30.1286 25.1838 30.3593 25.0919L47.4191 18.2682V37.0941ZM57.0963 27.0963C57.0963 27.4791 56.9828 27.8533 56.7701 28.1716C56.5574 28.4899 56.2552 28.7379 55.9015 28.8844C55.5479 29.0309 55.1587 29.0692 54.7833 28.9946C54.4078 28.9199 54.063 28.7355 53.7923 28.4649C53.5216 28.1942 53.3373 27.8493 53.2626 27.4739C53.1879 27.0984 53.2262 26.7093 53.3727 26.3556C53.5192 26.002 53.7673 25.6997 54.0856 25.487C54.4039 25.2744 54.7781 25.1608 55.1609 25.1608C55.674 25.1615 56.1659 25.3656 56.5287 25.7285C56.8915 26.0913 57.0956 26.5832 57.0963 27.0963ZM30 23.1504L3.57385 12.5804L30 2.01045L56.4262 12.5804L30 23.1504Z" fill="white"/>
</svg>
