<svg width="55" height="55" viewBox="0 0 55 55" fill="none" xmlns="http://www.w3.org/2000/svg">
<path d="M43.2768 21.5159C37.0356 21.5621 31.958 26.7374 31.958 33.0531L31.9585 34.6562L29.9469 37.4685C29.5787 37.9835 29.5295 38.6527 29.819 39.2156C30.3493 40.2477 31.3386 40.1279 32.0184 40.1279C32.3679 43.3959 34.1367 48.5254 36.8979 48.5254H38.8946C38.8909 48.6488 38.8918 53.3681 38.8918 53.4919C38.8918 54.3231 39.5679 54.999 40.3987 54.999H51.6463C52.8876 54.999 53.5968 53.5806 52.852 52.5877C51.3089 50.5298 50.0335 49.2423 50.0335 46.7592C50.0335 45.0788 51.6856 41.3807 53.323 38.4611C57.5708 30.8856 52.032 21.4525 43.2768 21.5159ZM51.8178 37.617C51.2314 38.6622 48.3076 44.0146 48.3076 46.7592C48.3076 49.7834 49.7949 51.3876 51.2088 53.2729H40.6177L40.6181 48.3067C40.6185 47.4748 39.9456 46.7991 39.111 46.7991H36.8979C35.7213 46.7991 33.7922 42.7435 33.6839 39.2378C33.6697 38.772 33.2876 38.4016 32.8214 38.4016H31.401C33.562 35.3802 33.6843 35.3584 33.6843 34.7259C33.6843 34.6927 33.6843 33.0856 33.683 33.0524H33.6839C33.6839 27.6817 37.993 23.2807 43.2893 23.2414C50.7031 23.1838 55.4236 31.1863 51.8178 37.617Z" fill="white"/>
<path d="M24.8345 37.4684L22.8228 34.6561L22.823 33.0528C22.823 26.7198 17.7122 21.5156 11.4166 21.5156C2.70371 21.5156 -2.77189 30.918 1.45826 38.4613C6.519 47.4866 4.91673 48.6034 1.92878 52.5876C1.18428 53.5807 1.8934 54.9989 3.13453 54.9989H14.3821C15.2132 54.9989 15.8893 54.3228 15.8893 53.4918C15.8893 53.3621 15.8906 48.6541 15.8865 48.5253H17.8831C20.6441 48.5253 22.4133 43.396 22.7628 40.1278H23.467C24.8337 40.1278 25.6298 38.5806 24.8345 37.4684ZM21.9601 38.4019C21.4939 38.4019 21.112 38.7721 21.0976 39.2381C20.9891 42.7438 19.0599 46.7994 17.8833 46.7994H15.6701C14.8354 46.7994 14.1627 47.4749 14.163 48.3068L14.1634 53.2733H3.57226C4.91241 51.4865 6.47369 49.8247 6.47369 46.7595C6.47369 44.0158 3.54982 38.6628 2.96367 37.6175C1.27122 34.5996 1.32019 31.0046 3.09462 28.0004C8.12947 19.4769 21.0971 23.155 21.0971 33.053H21.098C21.0965 33.0905 21.0969 34.6891 21.0969 34.7269C21.0969 35.3605 21.2225 35.3857 23.3803 38.4021H21.9601V38.4019Z" fill="white"/>
<path d="M32.3447 24.589C32.3447 19.1521 32.1199 18.0086 33.2956 16.3127C34.0816 15.1827 34.5141 13.8646 34.5642 12.4869H41.7898C42.5037 12.4869 43.0842 13.0674 43.0842 13.7813V18.096C43.0842 18.5726 43.4706 18.959 43.9472 18.959C44.4237 18.959 44.8101 18.5726 44.8101 18.096V13.7813C44.8101 12.1158 43.4553 10.761 41.7898 10.761H34.4226C34.1215 9.31923 33.3809 7.98555 32.2912 6.96814C28.1978 3.14681 21.4847 5.29273 20.3534 10.761H12.9891C11.3236 10.761 9.96875 12.1158 9.96875 13.7813V18.096C9.96875 18.5726 10.3551 18.959 10.8317 18.959C11.3083 18.959 11.6946 18.5726 11.6946 18.096V13.7813C11.6946 13.0674 12.2752 12.4869 12.9891 12.4869H20.2128C20.3318 15.7367 22.1218 16.1194 22.1218 18.9611C22.1218 25.0099 22.111 24.6274 22.1408 24.7681C22.3369 27.2113 24.373 29.1072 26.84 29.1072H27.6166C30.4015 29.107 32.3447 26.7248 32.3447 24.589ZM27.6166 27.3811H26.84C25.5658 27.3811 24.4712 26.5848 24.0412 25.4524H30.4175C29.9873 26.5846 28.8918 27.3811 27.6166 27.3811ZM30.6188 23.7261H23.8475V21.8326H30.6188V23.7261ZM28.096 20.1062V16.3885L30.3478 14.1366C30.685 13.7996 30.685 13.2532 30.3478 12.9164C30.0106 12.5792 29.4642 12.5792 29.1276 12.9164L28.0968 13.9472V12.4895C28.0968 12.0129 27.7107 11.6265 27.2339 11.6265C26.7573 11.6265 26.3709 12.0129 26.3709 12.4895V13.9468L25.3406 12.9164C25.0036 12.5794 24.4574 12.5794 24.1202 12.9164C23.783 13.2534 23.783 13.7999 24.1202 14.1366L26.3701 16.3867V20.1062H23.8475V18.9609C23.8475 15.4146 21.7637 14.964 21.9389 11.8962C22.2077 7.28268 27.7562 5.09663 31.1132 8.22955C33.161 10.1412 33.3731 13.1783 31.8778 15.3283C30.773 16.9218 30.6194 18.3612 30.6194 20.106H28.096V20.1062Z" fill="white"/>
<path d="M27.2223 4.04505C27.6989 4.04505 28.0853 3.65867 28.0853 3.18211V0.862944C28.0853 0.386383 27.6989 0 27.2223 0C26.7458 0 26.3594 0.386383 26.3594 0.862944V3.18211C26.3594 3.65867 26.7458 4.04505 27.2223 4.04505Z" fill="white"/>
<path d="M31.6549 5.29544C32.1196 5.29544 32.1468 5.16082 33.905 3.40279C34.2422 3.06581 34.2422 2.51935 33.905 2.18258C33.5683 1.84539 33.0214 1.84539 32.6848 2.18258L31.0448 3.82261C30.4994 4.36756 30.8931 5.29544 31.6549 5.29544Z" fill="white"/>
<path d="M23.4579 5.09448C24.2197 5.09448 24.6134 4.16639 24.0683 3.62144L22.4282 1.98141C22.091 1.64422 21.5448 1.64422 21.2078 1.98141C20.8708 2.31839 20.8708 2.86485 21.2078 3.20162C22.9639 4.95814 22.9922 5.09448 23.4579 5.09448Z" fill="white"/>
</svg>
