<svg width="22" height="22" viewBox="0 0 22 22" fill="none" xmlns="http://www.w3.org/2000/svg">
<path d="M19.5859 0.5H1.53906C0.742188 0.5 0.0859375 1.20312 0.0859375 2.04688V20C0.0859375 20.8438 0.742188 21.5 1.53906 21.5H19.5859C20.3828 21.5 21.0859 20.8438 21.0859 20V2.04688C21.0859 1.20312 20.3828 0.5 19.5859 0.5ZM6.41406 18.5H3.32031V8.51562H6.41406V18.5ZM4.86719 7.10938C3.83594 7.10938 3.03906 6.3125 3.03906 5.32812C3.03906 4.34375 3.83594 3.5 4.86719 3.5C5.85156 3.5 6.64844 4.34375 6.64844 5.32812C6.64844 6.3125 5.85156 7.10938 4.86719 7.10938ZM18.0859 18.5H14.9453V13.625C14.9453 12.5 14.9453 11 13.3516 11C11.7109 11 11.4766 12.2656 11.4766 13.5781V18.5H8.38281V8.51562H11.3359V9.875H11.3828C11.8047 9.07812 12.8359 8.23438 14.3359 8.23438C17.4766 8.23438 18.0859 10.3438 18.0859 13.0156V18.5Z" fill="url(#paint0_linear)"/>
<defs>
<linearGradient id="paint0_linear" x1="0.0859378" y1="4.77127" x2="21.896" y2="4.77127" gradientUnits="userSpaceOnUse">
<stop stop-color="#FF00B8"/>
<stop offset="0.508047" stop-color="#FF655B"/>
<stop offset="1" stop-color="#FFC700"/>
</linearGradient>
</defs>
</svg>
