<svg width="25" height="20" viewBox="0 0 25 20" fill="none" xmlns="http://www.w3.org/2000/svg">
<path d="M22.0586 5.125C22.9961 4.42188 23.8398 3.57812 24.4961 2.59375C23.6523 2.96875 22.668 3.25 21.6836 3.34375C22.7148 2.73438 23.4648 1.79688 23.8398 0.625C22.9023 1.1875 21.8242 1.60938 20.7461 1.84375C19.8086 0.859375 18.543 0.296875 17.1367 0.296875C14.418 0.296875 12.2148 2.5 12.2148 5.21875C12.2148 5.59375 12.2617 5.96875 12.3555 6.34375C8.27734 6.10938 4.62109 4.14062 2.18359 1.1875C1.76172 1.89062 1.52734 2.73438 1.52734 3.67188C1.52734 5.35938 2.37109 6.85938 3.73047 7.75C2.93359 7.70312 2.13672 7.51562 1.48047 7.14062V7.1875C1.48047 9.57812 3.16797 11.5469 5.41797 12.0156C5.04297 12.1094 4.57422 12.2031 4.15234 12.2031C3.82422 12.2031 3.54297 12.1562 3.21484 12.1094C3.82422 14.0781 5.65234 15.4844 7.80859 15.5312C6.12109 16.8438 4.01172 17.6406 1.71484 17.6406C1.29297 17.6406 0.917969 17.5938 0.542969 17.5469C2.69922 18.9531 5.27734 19.75 8.08984 19.75C17.1367 19.75 22.0586 12.2969 22.0586 5.78125C22.0586 5.54688 22.0586 5.35938 22.0586 5.125Z" fill="url(#paint0_linear)"/>
<defs>
<linearGradient id="paint0_linear" x1="0.542969" y1="3.77127" x2="25.4688" y2="3.77127" gradientUnits="userSpaceOnUse">
<stop stop-color="#FF00B8"/>
<stop offset="0.508047" stop-color="#FF655B"/>
<stop offset="1" stop-color="#FFC700"/>
</linearGradient>
</defs>
</svg>
