<svg width="40" height="53" viewBox="0 0 40 53" fill="none" xmlns="http://www.w3.org/2000/svg">
<path d="M35 18H32.5V13C32.5 6.1 26.9 0.5 20 0.5C13.1 0.5 7.5 6.1 7.5 13V18H5C2.25 18 0 20.25 0 23V48C0 50.75 2.25 53 5 53H35C37.75 53 40 50.75 40 48V23C40 20.25 37.75 18 35 18ZM12.5 13C12.5 8.85 15.85 5.5 20 5.5C24.15 5.5 27.5 8.85 27.5 13V18H12.5V13ZM35 48H5V23H35V48ZM20 40.5C22.75 40.5 25 38.25 25 35.5C25 32.75 22.75 30.5 20 30.5C17.25 30.5 15 32.75 15 35.5C15 38.25 17.25 40.5 20 40.5Z" fill="white"/>
</svg>
