<svg width="1236" height="388" viewBox="0 0 1236 388" fill="none" xmlns="http://www.w3.org/2000/svg">
<path d="M1.12402 112.549V1H115.026V91.1127C115.026 97.1996 113.008 102.228 109.097 106.33C105.187 110.432 100.142 112.549 94.0871 112.549H1.12402ZM59.1471 22.3042H56.8766V90.8481H58.138C58.7687 90.8481 59.1471 90.1865 59.1471 88.7309V22.3042Z" fill="white" stroke="black"/>
<path d="M230.191 112.549H117.172V1H230.191V64.1186H175.195V22.3042H172.924V66.3681H230.191V87.9369H172.924V90.3188H230.191V112.549Z" fill="white" stroke="black"/>
<path d="M288.214 105.007V112.549H232.461V1H345.48V81.1884H290.485V22.3042H288.214V83.4379H345.48V104.874H288.214V105.007Z" fill="white" stroke="black"/>
<path d="M347.626 1H408.046V10.395H347.626V1ZM347.626 112.549V12.6445H408.046V112.417H347.626V112.549Z" fill="white" stroke="black"/>
<path d="M61.0413 200.015V181.093C39.7241 182.019 18.6592 188.635 1 196.178V223.304H62.8072V223.833C62.8072 225.289 62.3026 225.951 61.4197 225.951H1V249.901H100.018C107.207 249.901 112.884 247.784 116.794 243.417C120.704 239.051 122.722 233.361 122.722 226.348V200.28H61.0413V200.015ZM63.4379 180.96V197.369H119.443C102.414 184.798 82.9891 180.431 63.4379 180.96Z" fill="#1FB1FD" stroke="black"/>
<path d="M122.722 129.487V197.502H119.443C102.414 184.799 82.863 180.564 63.4379 181.094V152.644H62.4288C61.5458 152.644 61.0413 153.57 61.0413 155.555V181.226C39.7241 182.152 18.6592 188.769 1 196.311V153.173C1 146.16 3.01819 140.47 7.18072 136.104C11.3432 131.737 17.0194 129.62 24.2092 129.62H122.722V129.487Z" fill="white" stroke="black"/>
<path d="M187.557 219.334V226.611H185.16V219.201C154.887 218.275 132.182 205.704 125.119 201.47V249.636H247.724V203.322C226.281 215.496 205.72 219.466 187.557 219.334Z" fill="#1FB1FD" stroke="black"/>
<path d="M247.598 129.487V203.324C226.155 215.498 205.594 219.468 187.557 219.335V129.487H247.598Z" fill="white" stroke="black"/>
<path d="M185.16 129.487V219.335C154.887 218.409 132.182 205.838 125.119 201.604V129.62H185.16V129.487Z" fill="white" stroke="black"/>
<path d="M354.436 184.535V249.638H406.656V196.709C387.357 190.622 369.95 186.785 354.436 184.535ZM304.864 183.212V249.638H352.039V184.138C333.623 181.889 317.982 181.889 304.864 183.212ZM250.12 249.638H302.341V183.477C269.167 187.314 252.769 199.62 250.12 201.87V249.638Z" fill="#1FB1FD" stroke="black"/>
<path d="M406.783 129.487V196.84C387.357 190.621 370.077 186.784 354.562 184.534V152.512H352.165V184.27C333.749 181.888 318.108 181.888 304.99 183.211V152.512H302.593V183.476C269.419 187.313 253.021 199.619 250.373 201.869V129.487H406.783Z" fill="white" stroke="black"/>
<path d="M1.12598 266.576H157.788V386.858H105.568V289.732H103.171V386.858H55.8695V289.732H53.4729V386.858H1.12598V266.576Z" fill="#1FB1FD" stroke="black"/>
<path d="M282.034 386.858H160.186V266.576H282.034V334.59H222.75V289.732H220.353V337.237H282.16V360.526H220.353V363.04H282.16V386.858H282.034Z" fill="#1FB1FD" stroke="black"/>
<path d="M347.121 350.203H344.598V374.286H284.557V266.706H407.162V319.239C407.162 327.311 404.261 333.265 398.458 337.367H407.288V374.286H347.121V350.203Z" fill="#1FB1FD" stroke="black"/>
<path d="M407.287 376.8H284.682V386.856H407.287V376.8Z" fill="white" stroke="black"/>
<path d="M344.598 326.914H345.985C346.742 326.914 346.994 326.12 346.994 324.665V289.731H344.598V326.914Z" fill="#1FB1FD" stroke="black"/>
<path d="M304.863 183.209C303.98 183.342 303.224 183.342 302.467 183.474" stroke="black"/>
<path d="M354.436 184.535C353.679 184.402 352.796 184.27 352.039 184.137" stroke="black"/>
<path d="M187.556 219.335C186.673 219.335 185.916 219.335 185.16 219.335" stroke="black"/>
<path d="M63.4376 180.96C62.6808 180.96 61.7978 180.96 61.041 181.093" stroke="black"/>
<mask id="path-21-outside-1" maskUnits="userSpaceOnUse" x="427.833" y="18.3672" width="809" height="367" fill="black">
<rect fill="white" x="427.833" y="18.3672" width="809" height="367"/>
<path d="M469.016 49.2488L470.894 43.2666H480.73L482.608 49.2488H490.009L480.396 20.7567H471.228L461.615 49.2488H469.016ZM472.536 38.0356L475.694 27.9354H475.916L479.088 38.0356H472.536ZM493.077 49.2488H511.817V43.6561H499.963V20.7567H493.077V49.2488ZM515.382 49.2488H534.121V43.6561H522.268V20.7567H515.382V49.2488ZM556.635 49.2488C565.316 49.2488 570.7 43.8926 570.7 34.9889C570.7 26.099 565.316 20.7567 556.621 20.7567H546.103V49.2488H556.635ZM552.99 43.3779V26.6277H556.273C561.17 26.6277 563.799 28.8536 563.799 34.9889C563.799 41.1519 561.17 43.3779 556.37 43.3779H552.99ZM574.72 49.2488H594.587V43.6561H581.607V37.7991H593.571V32.1925H581.607V26.3494H594.587V20.7567H574.72V49.2488ZM598.9 49.2488H605.786V37.7991H617.111V32.1925H605.786V26.3494H618.349V20.7567H598.9V49.2488ZM628.703 20.7567H621.816V49.2488H628.703V20.7567ZM645.269 49.6523C647.175 49.6523 648.858 48.0384 648.886 46.0351C648.858 44.0596 647.175 42.4597 645.269 42.4597C643.266 42.4597 641.624 44.0596 641.652 46.0351C641.624 48.0384 643.266 49.6523 645.269 49.6523ZM666.161 49.2488L668.04 43.2666H677.875L679.754 49.2488H687.155L677.542 20.7567H668.373L658.76 49.2488H666.161ZM669.681 38.0356L672.839 27.9354H673.062L676.234 38.0356H669.681ZM690.222 49.2488H708.962V43.6561H697.109V20.7567H690.222V49.2488ZM712.527 49.2488H731.267V43.6561H719.414V20.7567H712.527V49.2488ZM758.649 29.2988H765.244C765.188 23.9704 760.945 20.3672 754.323 20.3672C747.812 20.3672 743.123 23.9148 743.165 29.2153C743.151 33.542 746.184 35.9766 751.109 37.1035L754.086 37.7991C757.216 38.5225 758.622 39.3712 758.649 40.9711C758.622 42.7101 756.994 43.9205 754.225 43.9205C751.179 43.9205 749.175 42.5014 749.022 39.7607H742.428C742.511 46.4246 747.144 49.6105 754.309 49.6105C761.404 49.6105 765.605 46.3968 765.633 40.985C765.605 36.4357 762.531 33.6533 756.91 32.4151L754.462 31.8586C751.874 31.3021 750.233 30.4396 750.288 28.7423C750.302 27.1841 751.638 26.0573 754.309 26.0573C756.994 26.0573 758.469 27.2676 758.649 29.2988ZM786.348 20.7567V38.5364C786.348 41.4997 784.248 43.6283 781.173 43.6283C778.085 43.6283 775.998 41.4997 775.998 38.5364V20.7567H769.111V39.1347C769.111 45.5064 773.925 49.6105 781.173 49.6105C788.366 49.6105 793.221 45.5064 793.221 39.1347V20.7567H786.348ZM797.537 20.7567V49.2488H804.243V31.6499H804.479L811.324 49.0679H815.609L822.454 31.7473H822.69V49.2488H829.396V20.7567H820.868L813.634 38.3973H813.3L806.065 20.7567H797.537ZM833.691 20.7567V49.2488H840.397V31.6499H840.634L847.478 49.0679H851.763L858.608 31.7473H858.845V49.2488H865.55V20.7567H857.022L849.788 38.3973H849.454L842.22 20.7567H833.691ZM869.846 49.2488H889.712V43.6561H876.732V37.7991H888.697V32.1925H876.732V26.3494H889.712V20.7567H869.846V49.2488ZM894.025 49.2488H900.911V39.4964H904.445L909.648 49.2488H917.161L911.248 38.3973C914.378 36.9783 916.187 34.1819 916.187 30.2448C916.187 24.3878 912.194 20.7567 905.795 20.7567H894.025V49.2488ZM900.911 34.0707V26.3077H904.306C907.395 26.3077 909.05 27.6015 909.05 30.2448C909.05 32.8881 907.395 34.0707 904.306 34.0707H900.911ZM932.207 49.6523C934.113 49.6523 935.796 48.0384 935.824 46.0351C935.796 44.0596 934.113 42.4597 932.207 42.4597C930.203 42.4597 928.562 44.0596 928.59 46.0351C928.562 48.0384 930.203 49.6523 932.207 49.6523ZM953.099 49.2488L954.978 43.2666H964.813L966.692 49.2488H974.093L964.48 20.7567H955.311L945.698 49.2488H953.099ZM956.619 38.0356L959.777 27.9354H960L963.172 38.0356H956.619ZM977.16 49.2488H995.9V43.6561H984.047V20.7567H977.16V49.2488ZM999.465 49.2488H1018.2V43.6561H1006.35V20.7567H999.465V49.2488ZM1037.02 49.2488H1043.64L1048.77 31.9699H1049L1054.13 49.2488H1060.77L1069.04 20.7567H1061.45L1057.13 39.4686H1056.9L1051.99 20.7567H1045.78L1040.87 39.4268H1040.63L1036.34 20.7567H1028.73L1037.02 49.2488ZM1071.89 49.2488H1091.75V43.6561H1078.77V37.7991H1090.74V32.1925H1078.77V26.3494H1091.75V20.7567H1071.89V49.2488ZM1096.07 49.2488H1114.81V43.6561H1102.95V20.7567H1096.07V49.2488ZM1143.13 31.0795C1142.43 24.2626 1137.35 20.3672 1130.47 20.3672C1122.87 20.3672 1116.96 25.5842 1116.96 35.0028C1116.96 44.3796 1122.73 49.6383 1130.47 49.6383C1138.28 49.6383 1142.61 44.3239 1143.13 39.2738L1136.17 39.2321C1135.68 41.9727 1133.62 43.6005 1130.6 43.6005C1126.54 43.6005 1123.98 40.665 1123.98 35.0028C1123.98 29.5631 1126.49 26.4051 1130.65 26.4051C1133.78 26.4051 1135.82 28.2275 1136.17 31.0795H1143.13ZM1173.96 35.0028C1173.96 25.5842 1168 20.3672 1160.35 20.3672C1152.67 20.3672 1146.76 25.5842 1146.76 35.0028C1146.76 44.3796 1152.67 49.6383 1160.35 49.6383C1168 49.6383 1173.96 44.4213 1173.96 35.0028ZM1166.92 35.0028C1166.92 40.5815 1164.47 43.6005 1160.35 43.6005C1156.25 43.6005 1153.79 40.5815 1153.79 35.0028C1153.79 29.424 1156.25 26.4051 1160.35 26.4051C1164.47 26.4051 1166.92 29.424 1166.92 35.0028ZM1177.98 20.7567V49.2488H1184.68V31.6499H1184.92L1191.77 49.0679H1196.05L1202.9 31.7473H1203.13V49.2488H1209.84V20.7567H1201.31L1194.08 38.3973H1193.74L1186.51 20.7567H1177.98ZM1214.13 49.2488H1234V43.6561H1221.02V37.7991H1232.98V32.1925H1221.02V26.3494H1234V20.7567H1214.13V49.2488Z"/>
<path d="M466.218 96.8204L468.096 90.8382H477.932L479.81 96.8204H487.211L477.598 68.3283H468.43L458.816 96.8204H466.218ZM469.737 85.6072L472.895 75.507H473.118L476.29 85.6072H469.737ZM490.279 96.8204H509.018V91.2277H497.165V68.3283H490.279V96.8204ZM512.583 96.8204H531.323V91.2277H519.47V68.3283H512.583V96.8204ZM553.836 96.8204C562.517 96.8204 567.901 91.4642 567.901 82.5604C567.901 73.6706 562.517 68.3283 553.822 68.3283H543.305V96.8204H553.836ZM550.191 90.9495V74.1992H553.475C558.372 74.1992 561.001 76.4252 561.001 82.5604C561.001 88.7235 558.372 90.9495 553.572 90.9495H550.191ZM571.922 96.8204H591.789V91.2277H578.809V85.3707H590.773V79.7641H578.809V73.921H591.789V68.3283H571.922V96.8204ZM596.101 96.8204H602.988V85.3707H614.312V79.7641H602.988V73.921H615.551V68.3283H596.101V96.8204ZM625.905 68.3283H619.018V96.8204H625.905V68.3283ZM642.471 97.2238C644.376 97.2238 646.06 95.61 646.088 93.6067C646.06 91.6312 644.376 90.0313 642.471 90.0313C640.467 90.0313 638.826 91.6312 638.853 93.6067C638.826 95.61 640.467 97.2238 642.471 97.2238ZM663.363 96.8204L665.241 90.8382H675.077L676.955 96.8204H684.357L674.743 68.3283H665.575L655.962 96.8204H663.363ZM666.883 85.6072L670.041 75.507H670.264L673.435 85.6072H666.883ZM687.424 96.8204H706.164V91.2277H694.311V68.3283H687.424V96.8204ZM709.729 96.8204H728.468V91.2277H716.615V68.3283H709.729V96.8204ZM755.851 76.8704H762.445C762.39 71.542 758.147 67.9388 751.524 67.9388C745.013 67.9388 740.325 71.4864 740.367 76.7869C740.353 81.1136 743.386 83.5482 748.311 84.6751L751.288 85.3707C754.418 86.0941 755.823 86.9428 755.851 88.5427C755.823 90.2817 754.195 91.492 751.427 91.492C748.38 91.492 746.377 90.073 746.224 87.3323H739.629C739.713 93.9962 744.346 97.1821 751.51 97.1821C758.606 97.1821 762.807 93.9684 762.835 88.5566C762.807 84.0073 759.733 81.2249 754.112 79.9867L751.663 79.4302C749.076 78.8737 747.434 78.0112 747.49 76.3139C747.504 74.7557 748.839 73.6288 751.51 73.6288C754.195 73.6288 755.67 74.8392 755.851 76.8704ZM783.55 68.3283V86.108C783.55 89.0713 781.449 91.1999 778.375 91.1999C775.286 91.1999 773.199 89.0713 773.199 86.108V68.3283H766.313V86.7063C766.313 93.078 771.127 97.1821 778.375 97.1821C785.567 97.1821 790.423 93.078 790.423 86.7063V68.3283H783.55ZM794.739 68.3283V96.8204H801.445V79.2215H801.681L808.526 96.6395H812.811L819.656 79.3189H819.892V96.8204H826.598V68.3283H818.07L810.835 85.9689H810.501L803.267 68.3283H794.739ZM830.893 68.3283V96.8204H837.599V79.2215H837.835L844.68 96.6395H848.965L855.81 79.3189H856.046V96.8204H862.752V68.3283H854.224L846.989 85.9689H846.656L839.421 68.3283H830.893ZM867.047 96.8204H886.914V91.2277H873.934V85.3707H885.898V79.7641H873.934V73.921H886.914V68.3283H867.047V96.8204ZM891.227 96.8204H898.113V87.068H901.647L906.85 96.8204H914.363L908.45 85.9689C911.58 84.5499 913.389 81.7535 913.389 77.8164C913.389 71.9594 909.396 68.3283 902.996 68.3283H891.227V96.8204ZM898.113 81.6422V73.8793H901.508C904.596 73.8793 906.252 75.1731 906.252 77.8164C906.252 80.4597 904.596 81.6422 901.508 81.6422H898.113ZM929.409 97.2238C931.314 97.2238 932.998 95.61 933.026 93.6067C932.998 91.6312 931.314 90.0313 929.409 90.0313C927.405 90.0313 925.764 91.6312 925.791 93.6067C925.764 95.61 927.405 97.2238 929.409 97.2238ZM950.301 96.8204L952.179 90.8382H962.015L963.893 96.8204H971.294L961.681 68.3283H952.513L942.9 96.8204H950.301ZM953.821 85.6072L956.979 75.507H957.201L960.373 85.6072H953.821ZM974.362 96.8204H993.102V91.2277H981.249V68.3283H974.362V96.8204ZM996.667 96.8204H1015.41V91.2277H1003.55V68.3283H996.667V96.8204ZM1034.22 96.8204H1040.84L1045.97 79.5415H1046.2L1051.33 96.8204H1057.97L1066.24 68.3283H1058.65L1054.34 87.0402H1054.1L1049.19 68.3283H1042.98L1038.07 86.9984H1037.84L1033.54 68.3283H1025.93L1034.22 96.8204ZM1069.09 96.8204H1088.96V91.2277H1075.98V85.3707H1087.94V79.7641H1075.98V73.921H1088.96V68.3283H1069.09V96.8204ZM1093.27 96.8204H1112.01V91.2277H1100.16V68.3283H1093.27V96.8204ZM1140.33 78.6511C1139.63 71.8342 1134.55 67.9388 1127.67 67.9388C1120.07 67.9388 1114.16 73.1558 1114.16 82.5744C1114.16 91.9511 1119.93 97.2099 1127.67 97.2099C1135.49 97.2099 1139.81 91.8955 1140.33 86.8454L1133.37 86.8036C1132.88 89.5443 1130.83 91.1721 1127.81 91.1721C1123.74 91.1721 1121.18 88.2366 1121.18 82.5744C1121.18 77.1347 1123.69 73.9766 1127.85 73.9766C1130.98 73.9766 1133.02 75.7991 1133.37 78.6511H1140.33ZM1171.16 82.5744C1171.16 73.1558 1165.21 67.9388 1157.55 67.9388C1149.87 67.9388 1143.96 73.1558 1143.96 82.5744C1143.96 91.9511 1149.87 97.2099 1157.55 97.2099C1165.21 97.2099 1171.16 91.9929 1171.16 82.5744ZM1164.12 82.5744C1164.12 88.1531 1161.67 91.1721 1157.55 91.1721C1153.45 91.1721 1150.99 88.1531 1150.99 82.5744C1150.99 76.9956 1153.45 73.9766 1157.55 73.9766C1161.67 73.9766 1164.12 76.9956 1164.12 82.5744ZM1175.18 68.3283V96.8204H1181.89V79.2215H1182.12L1188.97 96.6395H1193.25L1200.1 79.3189H1200.33V96.8204H1207.04V68.3283H1198.51L1191.28 85.9689H1190.94L1183.71 68.3283H1175.18ZM1211.33 96.8204H1231.2V91.2277H1218.22V85.3707H1230.19V79.7641H1218.22V73.921H1231.2V68.3283H1211.33V96.8204Z"/>
<path d="M463.419 144.392L465.297 138.41H475.133L477.011 144.392H484.413L474.799 115.9H465.631L456.018 144.392H463.419ZM466.939 133.179L470.097 123.079H470.32L473.492 133.179H466.939ZM487.48 144.392H506.22V138.799H494.367V115.9H487.48V144.392ZM509.785 144.392H528.525V138.799H516.671V115.9H509.785V144.392ZM551.038 144.392C559.719 144.392 565.103 139.036 565.103 130.132C565.103 121.242 559.719 115.9 551.024 115.9H540.506V144.392H551.038ZM547.393 138.521V121.771H550.676C555.573 121.771 558.203 123.997 558.203 130.132C558.203 136.295 555.573 138.521 550.774 138.521H547.393ZM569.124 144.392H588.99V138.799H576.01V132.942H587.975V127.336H576.01V121.493H588.99V115.9H569.124V144.392ZM593.303 144.392H600.19V132.942H611.514V127.336H600.19V121.493H612.752V115.9H593.303V144.392ZM623.106 115.9H616.22V144.392H623.106V115.9ZM639.672 144.795C641.578 144.795 643.262 143.182 643.289 141.178C643.262 139.203 641.578 137.603 639.672 137.603C637.669 137.603 636.027 139.203 636.055 141.178C636.027 143.182 637.669 144.795 639.672 144.795ZM660.565 144.392L662.443 138.41H672.279L674.157 144.392H681.558L671.945 115.9H662.777L653.163 144.392H660.565ZM664.085 133.179L667.243 123.079H667.465L670.637 133.179H664.085ZM684.626 144.392H703.365V138.799H691.512V115.9H684.626V144.392ZM706.93 144.392H725.67V138.799H713.817V115.9H706.93V144.392ZM753.053 124.442H759.647C759.591 119.114 755.348 115.51 748.726 115.51C742.215 115.51 737.527 119.058 737.568 124.358C737.555 128.685 740.587 131.12 745.512 132.247L748.49 132.942C751.62 133.666 753.025 134.514 753.053 136.114C753.025 137.853 751.397 139.064 748.629 139.064C745.582 139.064 743.579 137.645 743.426 134.904H736.831C736.915 141.568 741.547 144.754 748.712 144.754C755.807 144.754 760.009 141.54 760.037 136.128C760.009 131.579 756.934 128.796 751.314 127.558L748.865 127.002C746.277 126.445 744.636 125.583 744.691 123.885C744.705 122.327 746.041 121.2 748.712 121.2C751.397 121.2 752.872 122.411 753.053 124.442ZM780.752 115.9V133.68C780.752 136.643 778.651 138.771 775.576 138.771C772.488 138.771 770.401 136.643 770.401 133.68V115.9H763.515V134.278C763.515 140.65 768.328 144.754 775.576 144.754C782.769 144.754 787.624 140.65 787.624 134.278V115.9H780.752ZM791.941 115.9V144.392H798.646V126.793H798.883L805.728 144.211H810.013L816.857 126.89H817.094V144.392H823.799V115.9H815.271L808.037 133.54H807.703L800.469 115.9H791.941ZM828.095 115.9V144.392H834.8V126.793H835.037L841.882 144.211H846.167L853.011 126.89H853.248V144.392H859.954V115.9H851.425L844.191 133.54H843.857L836.623 115.9H828.095ZM864.249 144.392H884.116V138.799H871.136V132.942H883.1V127.336H871.136V121.493H884.116V115.9H864.249V144.392ZM888.428 144.392H895.315V134.64H898.849L904.052 144.392H911.564L905.652 133.54C908.782 132.121 910.59 129.325 910.59 125.388C910.59 119.531 906.598 115.9 900.198 115.9H888.428V144.392ZM895.315 129.214V121.451H898.709C901.798 121.451 903.453 122.745 903.453 125.388C903.453 128.031 901.798 129.214 898.709 129.214H895.315ZM926.61 144.795C928.516 144.795 930.2 143.182 930.227 141.178C930.2 139.203 928.516 137.603 926.61 137.603C924.607 137.603 922.965 139.203 922.993 141.178C922.965 143.182 924.607 144.795 926.61 144.795ZM947.503 144.392L949.381 138.41H959.217L961.095 144.392H968.496L958.883 115.9H949.715L940.102 144.392H947.503ZM951.023 133.179L954.181 123.079H954.403L957.575 133.179H951.023ZM971.564 144.392H990.303V138.799H978.45V115.9H971.564V144.392ZM993.868 144.392H1012.61V138.799H1000.76V115.9H993.868V144.392ZM1031.42 144.392H1038.04L1043.18 127.113H1043.4L1048.53 144.392H1055.17L1063.45 115.9H1055.85L1051.54 134.612H1051.3L1046.39 115.9H1040.19L1035.27 134.57H1035.04L1030.74 115.9H1023.13L1031.42 144.392ZM1066.29 144.392H1086.16V138.799H1073.18V132.942H1085.14V127.336H1073.18V121.493H1086.16V115.9H1066.29V144.392ZM1090.47 144.392H1109.21V138.799H1097.36V115.9H1090.47V144.392ZM1137.53 126.223C1136.83 119.406 1131.76 115.51 1124.87 115.51C1117.27 115.51 1111.36 120.727 1111.36 130.146C1111.36 139.523 1117.13 144.782 1124.87 144.782C1132.69 144.782 1137.01 139.467 1137.53 134.417L1130.57 134.375C1130.09 137.116 1128.03 138.744 1125.01 138.744C1120.95 138.744 1118.39 135.808 1118.39 130.146C1118.39 124.706 1120.89 121.548 1125.05 121.548C1128.18 121.548 1130.22 123.371 1130.57 126.223H1137.53ZM1168.36 130.146C1168.36 120.727 1162.41 115.51 1154.76 115.51C1147.08 115.51 1141.16 120.727 1141.16 130.146C1141.16 139.523 1147.08 144.782 1154.76 144.782C1162.41 144.782 1168.36 139.564 1168.36 130.146ZM1161.32 130.146C1161.32 135.725 1158.87 138.744 1154.76 138.744C1150.65 138.744 1148.19 135.725 1148.19 130.146C1148.19 124.567 1150.65 121.548 1154.76 121.548C1158.87 121.548 1161.32 124.567 1161.32 130.146ZM1172.38 115.9V144.392H1179.09V126.793H1179.32L1186.17 144.211H1190.45L1197.3 126.89H1197.54V144.392H1204.24V115.9H1195.71L1188.48 133.54H1188.14L1180.91 115.9H1172.38ZM1208.54 144.392H1228.4V138.799H1215.42V132.942H1227.39V127.336H1215.42V121.493H1228.4V115.9H1208.54V144.392Z"/>
<path d="M460.621 191.964L462.499 185.981H472.335L474.213 191.964H481.614L472.001 163.471H462.833L453.22 191.964H460.621ZM464.141 180.75L467.299 170.65H467.521L470.693 180.75H464.141ZM484.682 191.964H503.422V186.371H491.568V163.471H484.682V191.964ZM506.987 191.964H525.726V186.371H513.873V163.471H506.987V191.964ZM548.24 191.964C556.921 191.964 562.305 186.607 562.305 177.704C562.305 168.814 556.921 163.471 548.226 163.471H537.708V191.964H548.24ZM544.595 186.093V169.342H547.878C552.775 169.342 555.404 171.568 555.404 177.704C555.404 183.867 552.775 186.093 547.975 186.093H544.595ZM566.325 191.964H586.192V186.371H573.212V180.514H585.176V174.907H573.212V169.064H586.192V163.471H566.325V191.964ZM590.505 191.964H597.391V180.514H608.716V174.907H597.391V169.064H609.954V163.471H590.505V191.964ZM620.308 163.471H613.421V191.964H620.308V163.471ZM636.874 192.367C638.78 192.367 640.463 190.753 640.491 188.75C640.463 186.774 638.78 185.174 636.874 185.174C634.871 185.174 633.229 186.774 633.257 188.75C633.229 190.753 634.871 192.367 636.874 192.367ZM657.766 191.964L659.645 185.981H669.48L671.359 191.964H678.76L669.147 163.471H659.978L650.365 191.964H657.766ZM661.286 180.75L664.444 170.65H664.667L667.839 180.75H661.286ZM681.827 191.964H700.567V186.371H688.714V163.471H681.827V191.964ZM704.132 191.964H722.872V186.371H711.019V163.471H704.132V191.964ZM750.254 172.014H756.849C756.793 166.685 752.55 163.082 745.928 163.082C739.417 163.082 734.728 166.63 734.77 171.93C734.756 176.257 737.789 178.691 742.714 179.818L745.691 180.514C748.821 181.237 750.227 182.086 750.254 183.686C750.227 185.425 748.599 186.635 745.83 186.635C742.784 186.635 740.78 185.216 740.627 182.475H734.033C734.116 189.139 738.749 192.325 745.914 192.325C753.009 192.325 757.21 189.112 757.238 183.7C757.21 179.15 754.136 176.368 748.515 175.13L746.067 174.573C743.479 174.017 741.838 173.154 741.893 171.457C741.907 169.899 743.243 168.772 745.914 168.772C748.599 168.772 750.074 169.982 750.254 172.014ZM777.953 163.471V181.251C777.953 184.214 775.853 186.343 772.778 186.343C769.69 186.343 767.603 184.214 767.603 181.251V163.471H760.716V181.849C760.716 188.221 765.53 192.325 772.778 192.325C779.971 192.325 784.826 188.221 784.826 181.849V163.471H777.953ZM789.142 163.471V191.964H795.848V174.365H796.084L802.929 191.783H807.214L814.059 174.462H814.295V191.964H821.001V163.471H812.473L805.239 181.112H804.905L797.67 163.471H789.142ZM825.296 163.471V191.964H832.002V174.365H832.239L839.083 191.783H843.368L850.213 174.462H850.45V191.964H857.155V163.471H848.627L841.393 181.112H841.059L833.825 163.471H825.296ZM861.451 191.964H881.317V186.371H868.337V180.514H880.302V174.907H868.337V169.064H881.317V163.471H861.451V191.964ZM885.63 191.964H892.517V182.211H896.05L901.253 191.964H908.766L902.853 181.112C905.983 179.693 907.792 176.897 907.792 172.96C907.792 167.103 903.799 163.471 897.4 163.471H885.63V191.964ZM892.517 176.785V169.022H895.911C899 169.022 900.655 170.316 900.655 172.96C900.655 175.603 899 176.785 895.911 176.785H892.517ZM923.812 192.367C925.718 192.367 927.401 190.753 927.429 188.75C927.401 186.774 925.718 185.174 923.812 185.174C921.809 185.174 920.167 186.774 920.195 188.75C920.167 190.753 921.809 192.367 923.812 192.367ZM944.704 191.964L946.583 185.981H956.418L958.297 191.964H965.698L956.085 163.471H946.916L937.303 191.964H944.704ZM948.224 180.75L951.382 170.65H951.605L954.777 180.75H948.224ZM968.766 191.964H987.505V186.371H975.652V163.471H968.766V191.964ZM991.07 191.964H1009.81V186.371H997.957V163.471H991.07V191.964ZM1028.62 191.964H1035.24L1040.38 174.685H1040.6L1045.73 191.964H1052.37L1060.65 163.471H1053.05L1048.74 182.183H1048.5L1043.59 163.471H1037.39L1032.48 182.142H1032.24L1027.94 163.471H1020.33L1028.62 191.964ZM1063.49 191.964H1083.36V186.371H1070.38V180.514H1082.34V174.907H1070.38V169.064H1083.36V163.471H1063.49V191.964ZM1087.67 191.964H1106.41V186.371H1094.56V163.471H1087.67V191.964ZM1134.73 173.794C1134.03 166.977 1128.96 163.082 1122.07 163.082C1114.47 163.082 1108.56 168.299 1108.56 177.718C1108.56 187.094 1114.34 192.353 1122.07 192.353C1129.89 192.353 1134.22 187.039 1134.73 181.989L1127.77 181.947C1127.29 184.688 1125.23 186.315 1122.21 186.315C1118.15 186.315 1115.59 183.38 1115.59 177.718C1115.59 172.278 1118.09 169.12 1122.25 169.12C1125.38 169.12 1127.43 170.942 1127.77 173.794H1134.73ZM1165.56 177.718C1165.56 168.299 1159.61 163.082 1151.96 163.082C1144.28 163.082 1138.36 168.299 1138.36 177.718C1138.36 187.094 1144.28 192.353 1151.96 192.353C1159.61 192.353 1165.56 187.136 1165.56 177.718ZM1158.52 177.718C1158.52 183.296 1156.08 186.315 1151.96 186.315C1147.85 186.315 1145.39 183.296 1145.39 177.718C1145.39 172.139 1147.85 169.12 1151.96 169.12C1156.08 169.12 1158.52 172.139 1158.52 177.718ZM1169.58 163.471V191.964H1176.29V174.365H1176.53L1183.37 191.783H1187.66L1194.5 174.462H1194.74V191.964H1201.44V163.471H1192.91L1185.68 181.112H1185.35L1178.11 163.471H1169.58ZM1205.74 191.964H1225.6V186.371H1212.62V180.514H1224.59V174.907H1212.62V169.064H1225.6V163.471H1205.74V191.964Z"/>
<path d="M457.823 239.535L459.701 233.553H469.537L471.415 239.535H478.816L469.203 211.043H460.035L450.421 239.535H457.823ZM461.342 228.322L464.5 218.222H464.723L467.895 228.322H461.342ZM481.884 239.535H500.623V233.942H488.77V211.043H481.884V239.535ZM504.188 239.535H522.928V233.942H511.075V211.043H504.188V239.535ZM545.441 239.535C554.122 239.535 559.506 234.179 559.506 225.275C559.506 216.385 554.122 211.043 545.427 211.043H534.91V239.535H545.441ZM541.796 233.664V216.914H545.08C549.977 216.914 552.606 219.14 552.606 225.275C552.606 231.438 549.977 233.664 545.177 233.664H541.796ZM563.527 239.535H583.394V233.942H570.414V228.085H582.378V222.479H570.414V216.636H583.394V211.043H563.527V239.535ZM587.706 239.535H594.593V228.085H605.917V222.479H594.593V216.636H607.156V211.043H587.706V239.535ZM617.51 211.043H610.623V239.535H617.51V211.043ZM634.076 239.939C635.982 239.939 637.665 238.325 637.693 236.321C637.665 234.346 635.982 232.746 634.076 232.746C632.072 232.746 630.431 234.346 630.458 236.321C630.431 238.325 632.072 239.939 634.076 239.939ZM654.968 239.535L656.846 233.553H666.682L668.56 239.535H675.962L666.348 211.043H657.18L647.567 239.535H654.968ZM658.488 228.322L661.646 218.222H661.869L665.04 228.322H658.488ZM679.029 239.535H697.769V233.942H685.916V211.043H679.029V239.535ZM701.334 239.535H720.073V233.942H708.22V211.043H701.334V239.535ZM747.456 219.585H754.05C753.995 214.257 749.752 210.654 743.129 210.654C736.618 210.654 731.93 214.201 731.972 219.502C731.958 223.828 734.991 226.263 739.916 227.39L742.893 228.085C746.023 228.809 747.428 229.658 747.456 231.257C747.428 232.996 745.801 234.207 743.032 234.207C739.985 234.207 737.982 232.788 737.829 230.047H731.234C731.318 236.711 735.951 239.897 743.115 239.897C750.211 239.897 754.412 236.683 754.44 231.271C754.412 226.722 751.338 223.94 745.717 222.701L743.268 222.145C740.681 221.588 739.039 220.726 739.095 219.029C739.109 217.47 740.444 216.344 743.115 216.344C745.801 216.344 747.275 217.554 747.456 219.585ZM775.155 211.043V228.823C775.155 231.786 773.054 233.915 769.98 233.915C766.891 233.915 764.805 231.786 764.805 228.823V211.043H757.918V229.421C757.918 235.793 762.732 239.897 769.98 239.897C777.172 239.897 782.028 235.793 782.028 229.421V211.043H775.155ZM786.344 211.043V239.535H793.05V221.936H793.286L800.131 239.354H804.416L811.261 222.034H811.497V239.535H818.203V211.043H809.675L802.44 228.684H802.106L794.872 211.043H786.344ZM822.498 211.043V239.535H829.204V221.936H829.44L836.285 239.354H840.57L847.415 222.034H847.651V239.535H854.357V211.043H845.829L838.594 228.684H838.261L831.026 211.043H822.498ZM858.652 239.535H878.519V233.942H865.539V228.085H877.503V222.479H865.539V216.636H878.519V211.043H858.652V239.535ZM882.832 239.535H889.718V229.783H893.252L898.455 239.535H905.968L900.055 228.684C903.185 227.265 904.994 224.468 904.994 220.531C904.994 214.674 901.001 211.043 894.601 211.043H882.832V239.535ZM889.718 224.357V216.594H893.113C896.201 216.594 897.857 217.888 897.857 220.531C897.857 223.174 896.201 224.357 893.113 224.357H889.718ZM921.014 239.939C922.919 239.939 924.603 238.325 924.631 236.321C924.603 234.346 922.919 232.746 921.014 232.746C919.01 232.746 917.369 234.346 917.396 236.321C917.369 238.325 919.01 239.939 921.014 239.939ZM941.906 239.535L943.784 233.553H953.62L955.498 239.535H962.9L953.286 211.043H944.118L934.505 239.535H941.906ZM945.426 228.322L948.584 218.222H948.807L951.979 228.322H945.426ZM965.967 239.535H984.707V233.942H972.854V211.043H965.967V239.535ZM988.272 239.535H1007.01V233.942H995.158V211.043H988.272V239.535ZM1025.82 239.535H1032.45L1037.58 222.256H1037.8L1042.94 239.535H1049.57L1057.85 211.043H1050.25L1045.94 229.755H1045.7L1040.79 211.043H1034.59L1029.68 229.713H1029.44L1025.14 211.043H1017.53L1025.82 239.535ZM1060.69 239.535H1080.56V233.942H1067.58V228.085H1079.55V222.479H1067.58V216.636H1080.56V211.043H1060.69V239.535ZM1084.87 239.535H1103.61V233.942H1091.76V211.043H1084.87V239.535ZM1131.93 221.366C1131.24 214.549 1126.16 210.654 1119.27 210.654C1111.68 210.654 1105.76 215.871 1105.76 225.289C1105.76 234.666 1111.54 239.925 1119.27 239.925C1127.09 239.925 1131.42 234.61 1131.93 229.56L1124.98 229.518C1124.49 232.259 1122.43 233.887 1119.41 233.887C1115.35 233.887 1112.79 230.951 1112.79 225.289C1112.79 219.849 1115.29 216.691 1119.45 216.691C1122.58 216.691 1124.63 218.514 1124.98 221.366H1131.93ZM1162.76 225.289C1162.76 215.871 1156.81 210.654 1149.16 210.654C1141.48 210.654 1135.57 215.871 1135.57 225.289C1135.57 234.666 1141.48 239.925 1149.16 239.925C1156.81 239.925 1162.76 234.708 1162.76 225.289ZM1155.73 225.289C1155.73 230.868 1153.28 233.887 1149.16 233.887C1145.05 233.887 1142.59 230.868 1142.59 225.289C1142.59 219.71 1145.05 216.691 1149.16 216.691C1153.28 216.691 1155.73 219.71 1155.73 225.289ZM1166.79 211.043V239.535H1173.49V221.936H1173.73L1180.57 239.354H1184.86L1191.7 222.034H1191.94V239.535H1198.64V211.043H1190.12L1182.88 228.684H1182.55L1175.31 211.043H1166.79ZM1202.94 239.535H1222.81V233.942H1209.83V228.085H1221.79V222.479H1209.83V216.636H1222.81V211.043H1202.94V239.535Z"/>
<path d="M455.024 287.107L456.902 281.125H466.738L468.616 287.107H476.018L466.404 258.615H457.236L447.623 287.107H455.024ZM458.544 275.894L461.702 265.793H461.925L465.097 275.894H458.544ZM479.085 287.107H497.825V281.514H485.972V258.615H479.085V287.107ZM501.39 287.107H520.13V281.514H508.276V258.615H501.39V287.107ZM542.643 287.107C551.324 287.107 556.708 281.751 556.708 272.847C556.708 263.957 551.324 258.615 542.629 258.615H532.111V287.107H542.643ZM538.998 281.236V264.486H542.281C547.178 264.486 549.808 266.712 549.808 272.847C549.808 279.01 547.178 281.236 542.379 281.236H538.998ZM560.729 287.107H580.595V281.514H567.615V275.657H579.58V270.05H567.615V264.207H580.595V258.615H560.729V287.107ZM584.908 287.107H591.795V275.657H603.119V270.05H591.795V264.207H604.357V258.615H584.908V287.107ZM614.711 258.615H607.825V287.107H614.711V258.615ZM631.277 287.51C633.183 287.51 634.867 285.896 634.894 283.893C634.867 281.918 633.183 280.318 631.277 280.318C629.274 280.318 627.632 281.918 627.66 283.893C627.632 285.896 629.274 287.51 631.277 287.51ZM652.17 287.107L654.048 281.125H663.884L665.762 287.107H673.163L663.55 258.615H654.382L644.769 287.107H652.17ZM655.69 275.894L658.848 265.793H659.07L662.242 275.894H655.69ZM676.231 287.107H694.97V281.514H683.117V258.615H676.231V287.107ZM698.535 287.107H717.275V281.514H705.422V258.615H698.535V287.107ZM744.658 267.157H751.252C751.196 261.828 746.953 258.225 740.331 258.225C733.82 258.225 729.132 261.773 729.173 267.073C729.16 271.4 732.192 273.835 737.117 274.961L740.095 275.657C743.225 276.38 744.63 277.229 744.658 278.829C744.63 280.568 743.002 281.778 740.234 281.778C737.187 281.778 735.184 280.359 735.031 277.619H728.436C728.52 284.283 733.152 287.468 740.317 287.468C747.412 287.468 751.614 284.255 751.642 278.843C751.614 274.294 748.539 271.511 742.919 270.273L740.47 269.717C737.883 269.16 736.241 268.298 736.297 266.6C736.31 265.042 737.646 263.915 740.317 263.915C743.002 263.915 744.477 265.126 744.658 267.157ZM772.357 258.615V276.394C772.357 279.358 770.256 281.486 767.181 281.486C764.093 281.486 762.006 279.358 762.006 276.394V258.615H755.12V276.993C755.12 283.364 759.933 287.468 767.181 287.468C774.374 287.468 779.229 283.364 779.229 276.993V258.615H772.357ZM783.546 258.615V287.107H790.251V269.508H790.488L797.333 286.926H801.618L808.462 269.605H808.699V287.107H815.404V258.615H806.876L799.642 276.255H799.308L792.074 258.615H783.546ZM819.7 258.615V287.107H826.405V269.508H826.642L833.487 286.926H837.772L844.616 269.605H844.853V287.107H851.559V258.615H843.03L835.796 276.255H835.462L828.228 258.615H819.7ZM855.854 287.107H875.721V281.514H862.741V275.657H874.705V270.05H862.741V264.207H875.721V258.615H855.854V287.107ZM880.033 287.107H886.92V277.354H890.454L895.657 287.107H903.169L897.257 276.255C900.387 274.836 902.195 272.04 902.195 268.103C902.195 262.246 898.203 258.615 891.803 258.615H880.033V287.107ZM886.92 271.929V264.166H890.314C893.403 264.166 895.058 265.459 895.058 268.103C895.058 270.746 893.403 271.929 890.314 271.929H886.92ZM918.215 287.51C920.121 287.51 921.805 285.896 921.832 283.893C921.805 281.918 920.121 280.318 918.215 280.318C916.212 280.318 914.57 281.918 914.598 283.893C914.57 285.896 916.212 287.51 918.215 287.51ZM939.108 287.107L940.986 281.125H950.822L952.7 287.107H960.101L950.488 258.615H941.32L931.707 287.107H939.108ZM942.628 275.894L945.786 265.793H946.008L949.18 275.894H942.628ZM963.169 287.107H981.909V281.514H970.055V258.615H963.169V287.107ZM985.473 287.107H1004.21V281.514H992.36V258.615H985.473V287.107ZM1023.03 287.107H1029.65L1034.78 269.828H1035L1040.14 287.107H1046.77L1055.05 258.615H1047.46L1043.14 277.327H1042.91L1038 258.615H1031.79L1026.88 277.285H1026.64L1022.34 258.615H1014.73L1023.03 287.107ZM1057.9 287.107H1077.76V281.514H1064.78V275.657H1076.75V270.05H1064.78V264.207H1077.76V258.615H1057.9V287.107ZM1082.08 287.107H1100.82V281.514H1088.96V258.615H1082.08V287.107ZM1129.13 268.937C1128.44 262.121 1123.36 258.225 1116.47 258.225C1108.88 258.225 1102.97 263.442 1102.97 272.861C1102.97 282.237 1108.74 287.496 1116.47 287.496C1124.29 287.496 1128.62 282.182 1129.13 277.132L1122.18 277.09C1121.69 279.831 1119.63 281.458 1116.61 281.458C1112.55 281.458 1109.99 278.523 1109.99 272.861C1109.99 267.421 1112.49 264.263 1116.65 264.263C1119.78 264.263 1121.83 266.085 1122.18 268.937H1129.13ZM1159.97 272.861C1159.97 263.442 1154.01 258.225 1146.36 258.225C1138.68 258.225 1132.77 263.442 1132.77 272.861C1132.77 282.237 1138.68 287.496 1146.36 287.496C1154.01 287.496 1159.97 282.279 1159.97 272.861ZM1152.93 272.861C1152.93 278.439 1150.48 281.458 1146.36 281.458C1142.26 281.458 1139.79 278.439 1139.79 272.861C1139.79 267.282 1142.26 264.263 1146.36 264.263C1150.48 264.263 1152.93 267.282 1152.93 272.861ZM1163.99 258.615V287.107H1170.69V269.508H1170.93L1177.77 286.926H1182.06L1188.9 269.605H1189.14V287.107H1195.85V258.615H1187.32L1180.08 276.255H1179.75L1172.52 258.615H1163.99ZM1200.14 287.107H1220.01V281.514H1207.03V275.657H1218.99V270.05H1207.03V264.207H1220.01V258.615H1200.14V287.107Z"/>
<path d="M452.226 334.678L454.104 328.696H463.94L465.818 334.678H473.219L463.606 306.186H454.438L444.825 334.678H452.226ZM455.746 323.465L458.904 313.365H459.126L462.298 323.465H455.746ZM476.287 334.678H495.027V329.086H483.173V306.186H476.287V334.678ZM498.592 334.678H517.331V329.086H505.478V306.186H498.592V334.678ZM539.845 334.678C548.526 334.678 553.91 329.322 553.91 320.418C553.91 311.529 548.526 306.186 539.831 306.186H529.313V334.678H539.845ZM536.2 328.807V312.057H539.483C544.38 312.057 547.009 314.283 547.009 320.418C547.009 326.581 544.38 328.807 539.58 328.807H536.2ZM557.93 334.678H577.797V329.086H564.817V323.229H576.781V317.622H564.817V311.779H577.797V306.186H557.93V334.678ZM582.11 334.678H588.996V323.229H600.321V317.622H588.996V311.779H601.559V306.186H582.11V334.678ZM611.913 306.186H605.026V334.678H611.913V306.186ZM628.479 335.082C630.385 335.082 632.068 333.468 632.096 331.465C632.068 329.489 630.385 327.889 628.479 327.889C626.476 327.889 624.834 329.489 624.862 331.465C624.834 333.468 626.476 335.082 628.479 335.082ZM649.371 334.678L651.25 328.696H661.085L662.964 334.678H670.365L660.752 306.186H651.583L641.97 334.678H649.371ZM652.891 323.465L656.049 313.365H656.272L659.444 323.465H652.891ZM673.433 334.678H692.172V329.086H680.319V306.186H673.433V334.678ZM695.737 334.678H714.477V329.086H702.624V306.186H695.737V334.678ZM741.859 314.728H748.454C748.398 309.4 744.155 305.797 737.533 305.797C731.022 305.797 726.333 309.344 726.375 314.645C726.361 318.972 729.394 321.406 734.319 322.533L737.296 323.229C740.426 323.952 741.832 324.801 741.859 326.401C741.832 328.14 740.204 329.35 737.435 329.35C734.389 329.35 732.385 327.931 732.232 325.19H725.638C725.721 331.854 730.354 335.04 737.519 335.04C744.614 335.04 748.815 331.826 748.843 326.415C748.815 321.865 745.741 319.083 740.12 317.845L737.672 317.288C735.084 316.732 733.443 315.869 733.498 314.172C733.512 312.614 734.848 311.487 737.519 311.487C740.204 311.487 741.679 312.697 741.859 314.728ZM769.558 306.186V323.966C769.558 326.929 767.458 329.058 764.383 329.058C761.295 329.058 759.208 326.929 759.208 323.966V306.186H752.321V324.564C752.321 330.936 757.135 335.04 764.383 335.04C771.576 335.04 776.431 330.936 776.431 324.564V306.186H769.558ZM780.747 306.186V334.678H787.453V317.079H787.689L794.534 334.497H798.819L805.664 317.177H805.9V334.678H812.606V306.186H804.078L796.844 323.827H796.51L789.275 306.186H780.747ZM816.902 306.186V334.678H823.607V317.079H823.844L830.688 334.497H834.973L841.818 317.177H842.055V334.678H848.76V306.186H840.232L832.998 323.827H832.664L825.43 306.186H816.902ZM853.056 334.678H872.922V329.086H859.942V323.229H871.907V317.622H859.942V311.779H872.922V306.186H853.056V334.678ZM877.235 334.678H884.122V324.926H887.655L892.858 334.678H900.371L894.458 323.827C897.588 322.408 899.397 319.611 899.397 315.674C899.397 309.817 895.404 306.186 889.005 306.186H877.235V334.678ZM884.122 319.5V311.737H887.516C890.605 311.737 892.26 313.031 892.26 315.674C892.26 318.318 890.605 319.5 887.516 319.5H884.122ZM915.417 335.082C917.323 335.082 919.006 333.468 919.034 331.465C919.006 329.489 917.323 327.889 915.417 327.889C913.414 327.889 911.772 329.489 911.8 331.465C911.772 333.468 913.414 335.082 915.417 335.082ZM936.309 334.678L938.188 328.696H948.023L949.902 334.678H957.303L947.69 306.186H938.521L928.908 334.678H936.309ZM939.829 323.465L942.987 313.365H943.21L946.382 323.465H939.829ZM960.37 334.678H979.11V329.086H967.257V306.186H960.37V334.678ZM982.675 334.678H1001.41V329.086H989.562V306.186H982.675V334.678ZM1020.23 334.678H1026.85L1031.98 317.399H1032.21L1037.34 334.678H1043.98L1052.25 306.186H1044.66L1040.34 324.898H1040.11L1035.2 306.186H1028.99L1024.08 324.856H1023.84L1019.55 306.186H1011.94L1020.23 334.678ZM1055.1 334.678H1074.96V329.086H1061.98V323.229H1073.95V317.622H1061.98V311.779H1074.96V306.186H1055.1V334.678ZM1079.28 334.678H1098.02V329.086H1086.16V306.186H1079.28V334.678ZM1126.34 316.509C1125.64 309.692 1120.56 305.797 1113.68 305.797C1106.08 305.797 1100.17 311.014 1100.17 320.432C1100.17 329.809 1105.94 335.068 1113.68 335.068C1121.49 335.068 1125.82 329.753 1126.34 324.703L1119.38 324.662C1118.89 327.402 1116.83 329.03 1113.81 329.03C1109.75 329.03 1107.19 326.095 1107.19 320.432C1107.19 314.993 1109.7 311.835 1113.86 311.835C1116.99 311.835 1119.03 313.657 1119.38 316.509H1126.34ZM1157.17 320.432C1157.17 311.014 1151.21 305.797 1143.56 305.797C1135.88 305.797 1129.97 311.014 1129.97 320.432C1129.97 329.809 1135.88 335.068 1143.56 335.068C1151.21 335.068 1157.17 329.851 1157.17 320.432ZM1150.13 320.432C1150.13 326.011 1147.68 329.03 1143.56 329.03C1139.46 329.03 1137 326.011 1137 320.432C1137 314.854 1139.46 311.835 1143.56 311.835C1147.68 311.835 1150.13 314.854 1150.13 320.432ZM1161.19 306.186V334.678H1167.89V317.079H1168.13L1174.98 334.497H1179.26L1186.11 317.177H1186.34V334.678H1193.05V306.186H1184.52L1177.29 323.827H1176.95L1169.72 306.186H1161.19ZM1197.34 334.678H1217.21V329.086H1204.23V323.229H1216.19V317.622H1204.23V311.779H1217.21V306.186H1197.34V334.678Z"/>
<path d="M438.234 382.25L440.112 376.268H449.948L451.826 382.25H459.228L449.614 353.758H440.446L430.833 382.25H438.234ZM441.754 371.037L444.912 360.936H445.135L448.307 371.037H441.754ZM462.295 382.25H481.035V376.657H469.182V353.758H462.295V382.25ZM484.6 382.25H503.34V376.657H491.486V353.758H484.6V382.25ZM525.853 382.25C534.534 382.25 539.918 376.894 539.918 367.99C539.918 359.1 534.534 353.758 525.839 353.758H515.321V382.25H525.853ZM522.208 376.379V359.629H525.491C530.388 359.629 533.018 361.855 533.018 367.99C533.018 374.153 530.388 376.379 525.589 376.379H522.208ZM543.939 382.25H563.805V376.657H550.825V370.8H562.79V365.194H550.825V359.351H563.805V353.758H543.939V382.25ZM568.118 382.25H575.005V370.8H586.329V365.194H575.005V359.351H587.567V353.758H568.118V382.25ZM597.921 353.758H591.035V382.25H597.921V353.758ZM614.487 382.653C616.393 382.653 618.077 381.04 618.104 379.036C618.077 377.061 616.393 375.461 614.487 375.461C612.484 375.461 610.842 377.061 610.87 379.036C610.842 381.04 612.484 382.653 614.487 382.653ZM635.38 382.25L637.258 376.268H647.094L648.972 382.25H656.373L646.76 353.758H637.592L627.979 382.25H635.38ZM638.9 371.037L642.058 360.936H642.28L645.452 371.037H638.9ZM659.441 382.25H678.181V376.657H666.327V353.758H659.441V382.25ZM681.746 382.25H700.485V376.657H688.632V353.758H681.746V382.25ZM727.868 362.3H734.462C734.406 356.972 730.163 353.368 723.541 353.368C717.03 353.368 712.342 356.916 712.384 362.216C712.37 366.543 715.402 368.978 720.327 370.105L723.305 370.8C726.435 371.524 727.84 372.372 727.868 373.972C727.84 375.711 726.212 376.922 723.444 376.922C720.397 376.922 718.394 375.503 718.241 372.762H711.646C711.73 379.426 716.362 382.612 723.527 382.612C730.622 382.612 734.824 379.398 734.852 373.986C734.824 369.437 731.749 366.654 726.129 365.416L723.68 364.86C721.093 364.303 719.451 363.441 719.507 361.743C719.52 360.185 720.856 359.058 723.527 359.058C726.212 359.058 727.687 360.269 727.868 362.3ZM755.567 353.758V371.538C755.567 374.501 753.466 376.629 750.392 376.629C747.303 376.629 745.216 374.501 745.216 371.538V353.758H738.33V372.136C738.33 378.508 743.143 382.612 750.392 382.612C757.584 382.612 762.439 378.508 762.439 372.136V353.758H755.567ZM766.756 353.758V382.25H773.461V364.651H773.698L780.543 382.069H784.828L791.672 364.748H791.909V382.25H798.614V353.758H790.086L782.852 371.398H782.518L775.284 353.758H766.756ZM802.91 353.758V382.25H809.616V364.651H809.852L816.697 382.069H820.982L827.827 364.748H828.063V382.25H834.769V353.758H826.241L819.006 371.398H818.672L811.438 353.758H802.91ZM839.064 382.25H858.931V376.657H845.951V370.8H857.915V365.194H845.951V359.351H858.931V353.758H839.064V382.25ZM863.243 382.25H870.13V372.497H873.664L878.867 382.25H886.379L880.467 371.398C883.597 369.979 885.405 367.183 885.405 363.246C885.405 357.389 881.413 353.758 875.013 353.758H863.243V382.25ZM870.13 367.072V359.309H873.524C876.613 359.309 878.268 360.603 878.268 363.246C878.268 365.889 876.613 367.072 873.524 367.072H870.13ZM901.425 382.653C903.331 382.653 905.015 381.04 905.042 379.036C905.015 377.061 903.331 375.461 901.425 375.461C899.422 375.461 897.78 377.061 897.808 379.036C897.78 381.04 899.422 382.653 901.425 382.653ZM922.318 382.25L924.196 376.268H934.032L935.91 382.25H943.311L933.698 353.758H924.53L914.917 382.25H922.318ZM925.838 371.037L928.996 360.936H929.218L932.39 371.037H925.838ZM946.379 382.25H965.119V376.657H953.265V353.758H946.379V382.25ZM968.684 382.25H987.423V376.657H975.57V353.758H968.684V382.25ZM1006.24 382.25H1012.86L1017.99 364.971H1018.21L1023.35 382.25H1029.98L1038.26 353.758H1030.67L1026.35 372.47H1026.12L1021.21 353.758H1015L1010.09 372.428H1009.85L1005.55 353.758H997.944L1006.24 382.25ZM1041.11 382.25H1060.97V376.657H1047.99V370.8H1059.96V365.194H1047.99V359.351H1060.97V353.758H1041.11V382.25ZM1065.29 382.25H1084.03V376.657H1072.17V353.758H1065.29V382.25ZM1112.34 364.081C1111.65 357.264 1106.57 353.368 1099.68 353.368C1092.09 353.368 1086.18 358.585 1086.18 368.004C1086.18 377.381 1091.95 382.639 1099.68 382.639C1107.5 382.639 1111.83 377.325 1112.34 372.275L1105.39 372.233C1104.9 374.974 1102.84 376.602 1099.82 376.602C1095.76 376.602 1093.2 373.666 1093.2 368.004C1093.2 362.564 1095.7 359.406 1099.86 359.406C1102.99 359.406 1105.04 361.229 1105.39 364.081H1112.34ZM1143.18 368.004C1143.18 358.585 1137.22 353.368 1129.57 353.368C1121.89 353.368 1115.98 358.585 1115.98 368.004C1115.98 377.381 1121.89 382.639 1129.57 382.639C1137.22 382.639 1143.18 377.422 1143.18 368.004ZM1136.14 368.004C1136.14 373.583 1133.69 376.602 1129.57 376.602C1125.47 376.602 1123 373.583 1123 368.004C1123 362.425 1125.47 359.406 1129.57 359.406C1133.69 359.406 1136.14 362.425 1136.14 368.004ZM1147.2 353.758V382.25H1153.9V364.651H1154.14L1160.98 382.069H1165.27L1172.11 364.748H1172.35V382.25H1179.06V353.758H1170.53L1163.29 371.398H1162.96L1155.73 353.758H1147.2ZM1183.35 382.25H1203.22V376.657H1190.24V370.8H1202.2V365.194H1190.24V359.351H1203.22V353.758H1183.35V382.25Z"/>
</mask>
<path d="M469.016 49.2488L470.894 43.2666H480.73L482.608 49.2488H490.009L480.396 20.7567H471.228L461.615 49.2488H469.016ZM472.536 38.0356L475.694 27.9354H475.916L479.088 38.0356H472.536ZM493.077 49.2488H511.817V43.6561H499.963V20.7567H493.077V49.2488ZM515.382 49.2488H534.121V43.6561H522.268V20.7567H515.382V49.2488ZM556.635 49.2488C565.316 49.2488 570.7 43.8926 570.7 34.9889C570.7 26.099 565.316 20.7567 556.621 20.7567H546.103V49.2488H556.635ZM552.99 43.3779V26.6277H556.273C561.17 26.6277 563.799 28.8536 563.799 34.9889C563.799 41.1519 561.17 43.3779 556.37 43.3779H552.99ZM574.72 49.2488H594.587V43.6561H581.607V37.7991H593.571V32.1925H581.607V26.3494H594.587V20.7567H574.72V49.2488ZM598.9 49.2488H605.786V37.7991H617.111V32.1925H605.786V26.3494H618.349V20.7567H598.9V49.2488ZM628.703 20.7567H621.816V49.2488H628.703V20.7567ZM645.269 49.6523C647.175 49.6523 648.858 48.0384 648.886 46.0351C648.858 44.0596 647.175 42.4597 645.269 42.4597C643.266 42.4597 641.624 44.0596 641.652 46.0351C641.624 48.0384 643.266 49.6523 645.269 49.6523ZM666.161 49.2488L668.04 43.2666H677.875L679.754 49.2488H687.155L677.542 20.7567H668.373L658.76 49.2488H666.161ZM669.681 38.0356L672.839 27.9354H673.062L676.234 38.0356H669.681ZM690.222 49.2488H708.962V43.6561H697.109V20.7567H690.222V49.2488ZM712.527 49.2488H731.267V43.6561H719.414V20.7567H712.527V49.2488ZM758.649 29.2988H765.244C765.188 23.9704 760.945 20.3672 754.323 20.3672C747.812 20.3672 743.123 23.9148 743.165 29.2153C743.151 33.542 746.184 35.9766 751.109 37.1035L754.086 37.7991C757.216 38.5225 758.622 39.3712 758.649 40.9711C758.622 42.7101 756.994 43.9205 754.225 43.9205C751.179 43.9205 749.175 42.5014 749.022 39.7607H742.428C742.511 46.4246 747.144 49.6105 754.309 49.6105C761.404 49.6105 765.605 46.3968 765.633 40.985C765.605 36.4357 762.531 33.6533 756.91 32.4151L754.462 31.8586C751.874 31.3021 750.233 30.4396 750.288 28.7423C750.302 27.1841 751.638 26.0573 754.309 26.0573C756.994 26.0573 758.469 27.2676 758.649 29.2988ZM786.348 20.7567V38.5364C786.348 41.4997 784.248 43.6283 781.173 43.6283C778.085 43.6283 775.998 41.4997 775.998 38.5364V20.7567H769.111V39.1347C769.111 45.5064 773.925 49.6105 781.173 49.6105C788.366 49.6105 793.221 45.5064 793.221 39.1347V20.7567H786.348ZM797.537 20.7567V49.2488H804.243V31.6499H804.479L811.324 49.0679H815.609L822.454 31.7473H822.69V49.2488H829.396V20.7567H820.868L813.634 38.3973H813.3L806.065 20.7567H797.537ZM833.691 20.7567V49.2488H840.397V31.6499H840.634L847.478 49.0679H851.763L858.608 31.7473H858.845V49.2488H865.55V20.7567H857.022L849.788 38.3973H849.454L842.22 20.7567H833.691ZM869.846 49.2488H889.712V43.6561H876.732V37.7991H888.697V32.1925H876.732V26.3494H889.712V20.7567H869.846V49.2488ZM894.025 49.2488H900.911V39.4964H904.445L909.648 49.2488H917.161L911.248 38.3973C914.378 36.9783 916.187 34.1819 916.187 30.2448C916.187 24.3878 912.194 20.7567 905.795 20.7567H894.025V49.2488ZM900.911 34.0707V26.3077H904.306C907.395 26.3077 909.05 27.6015 909.05 30.2448C909.05 32.8881 907.395 34.0707 904.306 34.0707H900.911ZM932.207 49.6523C934.113 49.6523 935.796 48.0384 935.824 46.0351C935.796 44.0596 934.113 42.4597 932.207 42.4597C930.203 42.4597 928.562 44.0596 928.59 46.0351C928.562 48.0384 930.203 49.6523 932.207 49.6523ZM953.099 49.2488L954.978 43.2666H964.813L966.692 49.2488H974.093L964.48 20.7567H955.311L945.698 49.2488H953.099ZM956.619 38.0356L959.777 27.9354H960L963.172 38.0356H956.619ZM977.16 49.2488H995.9V43.6561H984.047V20.7567H977.16V49.2488ZM999.465 49.2488H1018.2V43.6561H1006.35V20.7567H999.465V49.2488ZM1037.02 49.2488H1043.64L1048.77 31.9699H1049L1054.13 49.2488H1060.77L1069.04 20.7567H1061.45L1057.13 39.4686H1056.9L1051.99 20.7567H1045.78L1040.87 39.4268H1040.63L1036.34 20.7567H1028.73L1037.02 49.2488ZM1071.89 49.2488H1091.75V43.6561H1078.77V37.7991H1090.74V32.1925H1078.77V26.3494H1091.75V20.7567H1071.89V49.2488ZM1096.07 49.2488H1114.81V43.6561H1102.95V20.7567H1096.07V49.2488ZM1143.13 31.0795C1142.43 24.2626 1137.35 20.3672 1130.47 20.3672C1122.87 20.3672 1116.96 25.5842 1116.96 35.0028C1116.96 44.3796 1122.73 49.6383 1130.47 49.6383C1138.28 49.6383 1142.61 44.3239 1143.13 39.2738L1136.17 39.2321C1135.68 41.9727 1133.62 43.6005 1130.6 43.6005C1126.54 43.6005 1123.98 40.665 1123.98 35.0028C1123.98 29.5631 1126.49 26.4051 1130.65 26.4051C1133.78 26.4051 1135.82 28.2275 1136.17 31.0795H1143.13ZM1173.96 35.0028C1173.96 25.5842 1168 20.3672 1160.35 20.3672C1152.67 20.3672 1146.76 25.5842 1146.76 35.0028C1146.76 44.3796 1152.67 49.6383 1160.35 49.6383C1168 49.6383 1173.96 44.4213 1173.96 35.0028ZM1166.92 35.0028C1166.92 40.5815 1164.47 43.6005 1160.35 43.6005C1156.25 43.6005 1153.79 40.5815 1153.79 35.0028C1153.79 29.424 1156.25 26.4051 1160.35 26.4051C1164.47 26.4051 1166.92 29.424 1166.92 35.0028ZM1177.98 20.7567V49.2488H1184.68V31.6499H1184.92L1191.77 49.0679H1196.05L1202.9 31.7473H1203.13V49.2488H1209.84V20.7567H1201.31L1194.08 38.3973H1193.74L1186.51 20.7567H1177.98ZM1214.13 49.2488H1234V43.6561H1221.02V37.7991H1232.98V32.1925H1221.02V26.3494H1234V20.7567H1214.13V49.2488Z" stroke="#057BB8" stroke-width="4" mask="url(#path-21-outside-1)"/>
<path d="M466.218 96.8204L468.096 90.8382H477.932L479.81 96.8204H487.211L477.598 68.3283H468.43L458.816 96.8204H466.218ZM469.737 85.6072L472.895 75.507H473.118L476.29 85.6072H469.737ZM490.279 96.8204H509.018V91.2277H497.165V68.3283H490.279V96.8204ZM512.583 96.8204H531.323V91.2277H519.47V68.3283H512.583V96.8204ZM553.836 96.8204C562.517 96.8204 567.901 91.4642 567.901 82.5604C567.901 73.6706 562.517 68.3283 553.822 68.3283H543.305V96.8204H553.836ZM550.191 90.9495V74.1992H553.475C558.372 74.1992 561.001 76.4252 561.001 82.5604C561.001 88.7235 558.372 90.9495 553.572 90.9495H550.191ZM571.922 96.8204H591.789V91.2277H578.809V85.3707H590.773V79.7641H578.809V73.921H591.789V68.3283H571.922V96.8204ZM596.101 96.8204H602.988V85.3707H614.312V79.7641H602.988V73.921H615.551V68.3283H596.101V96.8204ZM625.905 68.3283H619.018V96.8204H625.905V68.3283ZM642.471 97.2238C644.376 97.2238 646.06 95.61 646.088 93.6067C646.06 91.6312 644.376 90.0313 642.471 90.0313C640.467 90.0313 638.826 91.6312 638.853 93.6067C638.826 95.61 640.467 97.2238 642.471 97.2238ZM663.363 96.8204L665.241 90.8382H675.077L676.955 96.8204H684.357L674.743 68.3283H665.575L655.962 96.8204H663.363ZM666.883 85.6072L670.041 75.507H670.264L673.435 85.6072H666.883ZM687.424 96.8204H706.164V91.2277H694.311V68.3283H687.424V96.8204ZM709.729 96.8204H728.468V91.2277H716.615V68.3283H709.729V96.8204ZM755.851 76.8704H762.445C762.39 71.542 758.147 67.9388 751.524 67.9388C745.013 67.9388 740.325 71.4864 740.367 76.7869C740.353 81.1136 743.386 83.5482 748.311 84.6751L751.288 85.3707C754.418 86.0941 755.823 86.9428 755.851 88.5427C755.823 90.2817 754.195 91.492 751.427 91.492C748.38 91.492 746.377 90.073 746.224 87.3323H739.629C739.713 93.9962 744.346 97.1821 751.51 97.1821C758.606 97.1821 762.807 93.9684 762.835 88.5566C762.807 84.0073 759.733 81.2249 754.112 79.9867L751.663 79.4302C749.076 78.8737 747.434 78.0112 747.49 76.3139C747.504 74.7557 748.839 73.6288 751.51 73.6288C754.195 73.6288 755.67 74.8392 755.851 76.8704ZM783.55 68.3283V86.108C783.55 89.0713 781.449 91.1999 778.375 91.1999C775.286 91.1999 773.199 89.0713 773.199 86.108V68.3283H766.313V86.7063C766.313 93.078 771.127 97.1821 778.375 97.1821C785.567 97.1821 790.423 93.078 790.423 86.7063V68.3283H783.55ZM794.739 68.3283V96.8204H801.445V79.2215H801.681L808.526 96.6395H812.811L819.656 79.3189H819.892V96.8204H826.598V68.3283H818.07L810.835 85.9689H810.501L803.267 68.3283H794.739ZM830.893 68.3283V96.8204H837.599V79.2215H837.835L844.68 96.6395H848.965L855.81 79.3189H856.046V96.8204H862.752V68.3283H854.224L846.989 85.9689H846.656L839.421 68.3283H830.893ZM867.047 96.8204H886.914V91.2277H873.934V85.3707H885.898V79.7641H873.934V73.921H886.914V68.3283H867.047V96.8204ZM891.227 96.8204H898.113V87.068H901.647L906.85 96.8204H914.363L908.45 85.9689C911.58 84.5499 913.389 81.7535 913.389 77.8164C913.389 71.9594 909.396 68.3283 902.996 68.3283H891.227V96.8204ZM898.113 81.6422V73.8793H901.508C904.596 73.8793 906.252 75.1731 906.252 77.8164C906.252 80.4597 904.596 81.6422 901.508 81.6422H898.113ZM929.409 97.2238C931.314 97.2238 932.998 95.61 933.026 93.6067C932.998 91.6312 931.314 90.0313 929.409 90.0313C927.405 90.0313 925.764 91.6312 925.791 93.6067C925.764 95.61 927.405 97.2238 929.409 97.2238ZM950.301 96.8204L952.179 90.8382H962.015L963.893 96.8204H971.294L961.681 68.3283H952.513L942.9 96.8204H950.301ZM953.821 85.6072L956.979 75.507H957.201L960.373 85.6072H953.821ZM974.362 96.8204H993.102V91.2277H981.249V68.3283H974.362V96.8204ZM996.667 96.8204H1015.41V91.2277H1003.55V68.3283H996.667V96.8204ZM1034.22 96.8204H1040.84L1045.97 79.5415H1046.2L1051.33 96.8204H1057.97L1066.24 68.3283H1058.65L1054.34 87.0402H1054.1L1049.19 68.3283H1042.98L1038.07 86.9984H1037.84L1033.54 68.3283H1025.93L1034.22 96.8204ZM1069.09 96.8204H1088.96V91.2277H1075.98V85.3707H1087.94V79.7641H1075.98V73.921H1088.96V68.3283H1069.09V96.8204ZM1093.27 96.8204H1112.01V91.2277H1100.16V68.3283H1093.27V96.8204ZM1140.33 78.6511C1139.63 71.8342 1134.55 67.9388 1127.67 67.9388C1120.07 67.9388 1114.16 73.1558 1114.16 82.5744C1114.16 91.9511 1119.93 97.2099 1127.67 97.2099C1135.49 97.2099 1139.81 91.8955 1140.33 86.8454L1133.37 86.8036C1132.88 89.5443 1130.83 91.1721 1127.81 91.1721C1123.74 91.1721 1121.18 88.2366 1121.18 82.5744C1121.18 77.1347 1123.69 73.9766 1127.85 73.9766C1130.98 73.9766 1133.02 75.7991 1133.37 78.6511H1140.33ZM1171.16 82.5744C1171.16 73.1558 1165.21 67.9388 1157.55 67.9388C1149.87 67.9388 1143.96 73.1558 1143.96 82.5744C1143.96 91.9511 1149.87 97.2099 1157.55 97.2099C1165.21 97.2099 1171.16 91.9929 1171.16 82.5744ZM1164.12 82.5744C1164.12 88.1531 1161.67 91.1721 1157.55 91.1721C1153.45 91.1721 1150.99 88.1531 1150.99 82.5744C1150.99 76.9956 1153.45 73.9766 1157.55 73.9766C1161.67 73.9766 1164.12 76.9956 1164.12 82.5744ZM1175.18 68.3283V96.8204H1181.89V79.2215H1182.12L1188.97 96.6395H1193.25L1200.1 79.3189H1200.33V96.8204H1207.04V68.3283H1198.51L1191.28 85.9689H1190.94L1183.71 68.3283H1175.18ZM1211.33 96.8204H1231.2V91.2277H1218.22V85.3707H1230.19V79.7641H1218.22V73.921H1231.2V68.3283H1211.33V96.8204Z" stroke="#057BB8" stroke-width="4" mask="url(#path-21-outside-1)"/>
<path d="M463.419 144.392L465.297 138.41H475.133L477.011 144.392H484.413L474.799 115.9H465.631L456.018 144.392H463.419ZM466.939 133.179L470.097 123.079H470.32L473.492 133.179H466.939ZM487.48 144.392H506.22V138.799H494.367V115.9H487.48V144.392ZM509.785 144.392H528.525V138.799H516.671V115.9H509.785V144.392ZM551.038 144.392C559.719 144.392 565.103 139.036 565.103 130.132C565.103 121.242 559.719 115.9 551.024 115.9H540.506V144.392H551.038ZM547.393 138.521V121.771H550.676C555.573 121.771 558.203 123.997 558.203 130.132C558.203 136.295 555.573 138.521 550.774 138.521H547.393ZM569.124 144.392H588.99V138.799H576.01V132.942H587.975V127.336H576.01V121.493H588.99V115.9H569.124V144.392ZM593.303 144.392H600.19V132.942H611.514V127.336H600.19V121.493H612.752V115.9H593.303V144.392ZM623.106 115.9H616.22V144.392H623.106V115.9ZM639.672 144.795C641.578 144.795 643.262 143.182 643.289 141.178C643.262 139.203 641.578 137.603 639.672 137.603C637.669 137.603 636.027 139.203 636.055 141.178C636.027 143.182 637.669 144.795 639.672 144.795ZM660.565 144.392L662.443 138.41H672.279L674.157 144.392H681.558L671.945 115.9H662.777L653.163 144.392H660.565ZM664.085 133.179L667.243 123.079H667.465L670.637 133.179H664.085ZM684.626 144.392H703.365V138.799H691.512V115.9H684.626V144.392ZM706.93 144.392H725.67V138.799H713.817V115.9H706.93V144.392ZM753.053 124.442H759.647C759.591 119.114 755.348 115.51 748.726 115.51C742.215 115.51 737.527 119.058 737.568 124.358C737.555 128.685 740.587 131.12 745.512 132.247L748.49 132.942C751.62 133.666 753.025 134.514 753.053 136.114C753.025 137.853 751.397 139.064 748.629 139.064C745.582 139.064 743.579 137.645 743.426 134.904H736.831C736.915 141.568 741.547 144.754 748.712 144.754C755.807 144.754 760.009 141.54 760.037 136.128C760.009 131.579 756.934 128.796 751.314 127.558L748.865 127.002C746.277 126.445 744.636 125.583 744.691 123.885C744.705 122.327 746.041 121.2 748.712 121.2C751.397 121.2 752.872 122.411 753.053 124.442ZM780.752 115.9V133.68C780.752 136.643 778.651 138.771 775.576 138.771C772.488 138.771 770.401 136.643 770.401 133.68V115.9H763.515V134.278C763.515 140.65 768.328 144.754 775.576 144.754C782.769 144.754 787.624 140.65 787.624 134.278V115.9H780.752ZM791.941 115.9V144.392H798.646V126.793H798.883L805.728 144.211H810.013L816.857 126.89H817.094V144.392H823.799V115.9H815.271L808.037 133.54H807.703L800.469 115.9H791.941ZM828.095 115.9V144.392H834.8V126.793H835.037L841.882 144.211H846.167L853.011 126.89H853.248V144.392H859.954V115.9H851.425L844.191 133.54H843.857L836.623 115.9H828.095ZM864.249 144.392H884.116V138.799H871.136V132.942H883.1V127.336H871.136V121.493H884.116V115.9H864.249V144.392ZM888.428 144.392H895.315V134.64H898.849L904.052 144.392H911.564L905.652 133.54C908.782 132.121 910.59 129.325 910.59 125.388C910.59 119.531 906.598 115.9 900.198 115.9H888.428V144.392ZM895.315 129.214V121.451H898.709C901.798 121.451 903.453 122.745 903.453 125.388C903.453 128.031 901.798 129.214 898.709 129.214H895.315ZM926.61 144.795C928.516 144.795 930.2 143.182 930.227 141.178C930.2 139.203 928.516 137.603 926.61 137.603C924.607 137.603 922.965 139.203 922.993 141.178C922.965 143.182 924.607 144.795 926.61 144.795ZM947.503 144.392L949.381 138.41H959.217L961.095 144.392H968.496L958.883 115.9H949.715L940.102 144.392H947.503ZM951.023 133.179L954.181 123.079H954.403L957.575 133.179H951.023ZM971.564 144.392H990.303V138.799H978.45V115.9H971.564V144.392ZM993.868 144.392H1012.61V138.799H1000.76V115.9H993.868V144.392ZM1031.42 144.392H1038.04L1043.18 127.113H1043.4L1048.53 144.392H1055.17L1063.45 115.9H1055.85L1051.54 134.612H1051.3L1046.39 115.9H1040.19L1035.27 134.57H1035.04L1030.74 115.9H1023.13L1031.42 144.392ZM1066.29 144.392H1086.16V138.799H1073.18V132.942H1085.14V127.336H1073.18V121.493H1086.16V115.9H1066.29V144.392ZM1090.47 144.392H1109.21V138.799H1097.36V115.9H1090.47V144.392ZM1137.53 126.223C1136.83 119.406 1131.76 115.51 1124.87 115.51C1117.27 115.51 1111.36 120.727 1111.36 130.146C1111.36 139.523 1117.13 144.782 1124.87 144.782C1132.69 144.782 1137.01 139.467 1137.53 134.417L1130.57 134.375C1130.09 137.116 1128.03 138.744 1125.01 138.744C1120.95 138.744 1118.39 135.808 1118.39 130.146C1118.39 124.706 1120.89 121.548 1125.05 121.548C1128.18 121.548 1130.22 123.371 1130.57 126.223H1137.53ZM1168.36 130.146C1168.36 120.727 1162.41 115.51 1154.76 115.51C1147.08 115.51 1141.16 120.727 1141.16 130.146C1141.16 139.523 1147.08 144.782 1154.76 144.782C1162.41 144.782 1168.36 139.564 1168.36 130.146ZM1161.32 130.146C1161.32 135.725 1158.87 138.744 1154.76 138.744C1150.65 138.744 1148.19 135.725 1148.19 130.146C1148.19 124.567 1150.65 121.548 1154.76 121.548C1158.87 121.548 1161.32 124.567 1161.32 130.146ZM1172.38 115.9V144.392H1179.09V126.793H1179.32L1186.17 144.211H1190.45L1197.3 126.89H1197.54V144.392H1204.24V115.9H1195.71L1188.48 133.54H1188.14L1180.91 115.9H1172.38ZM1208.54 144.392H1228.4V138.799H1215.42V132.942H1227.39V127.336H1215.42V121.493H1228.4V115.9H1208.54V144.392Z" stroke="#057BB8" stroke-width="4" mask="url(#path-21-outside-1)"/>
<path d="M460.621 191.964L462.499 185.981H472.335L474.213 191.964H481.614L472.001 163.471H462.833L453.22 191.964H460.621ZM464.141 180.75L467.299 170.65H467.521L470.693 180.75H464.141ZM484.682 191.964H503.422V186.371H491.568V163.471H484.682V191.964ZM506.987 191.964H525.726V186.371H513.873V163.471H506.987V191.964ZM548.24 191.964C556.921 191.964 562.305 186.607 562.305 177.704C562.305 168.814 556.921 163.471 548.226 163.471H537.708V191.964H548.24ZM544.595 186.093V169.342H547.878C552.775 169.342 555.404 171.568 555.404 177.704C555.404 183.867 552.775 186.093 547.975 186.093H544.595ZM566.325 191.964H586.192V186.371H573.212V180.514H585.176V174.907H573.212V169.064H586.192V163.471H566.325V191.964ZM590.505 191.964H597.391V180.514H608.716V174.907H597.391V169.064H609.954V163.471H590.505V191.964ZM620.308 163.471H613.421V191.964H620.308V163.471ZM636.874 192.367C638.78 192.367 640.463 190.753 640.491 188.75C640.463 186.774 638.78 185.174 636.874 185.174C634.871 185.174 633.229 186.774 633.257 188.75C633.229 190.753 634.871 192.367 636.874 192.367ZM657.766 191.964L659.645 185.981H669.48L671.359 191.964H678.76L669.147 163.471H659.978L650.365 191.964H657.766ZM661.286 180.75L664.444 170.65H664.667L667.839 180.75H661.286ZM681.827 191.964H700.567V186.371H688.714V163.471H681.827V191.964ZM704.132 191.964H722.872V186.371H711.019V163.471H704.132V191.964ZM750.254 172.014H756.849C756.793 166.685 752.55 163.082 745.928 163.082C739.417 163.082 734.728 166.63 734.77 171.93C734.756 176.257 737.789 178.691 742.714 179.818L745.691 180.514C748.821 181.237 750.227 182.086 750.254 183.686C750.227 185.425 748.599 186.635 745.83 186.635C742.784 186.635 740.78 185.216 740.627 182.475H734.033C734.116 189.139 738.749 192.325 745.914 192.325C753.009 192.325 757.21 189.112 757.238 183.7C757.21 179.15 754.136 176.368 748.515 175.13L746.067 174.573C743.479 174.017 741.838 173.154 741.893 171.457C741.907 169.899 743.243 168.772 745.914 168.772C748.599 168.772 750.074 169.982 750.254 172.014ZM777.953 163.471V181.251C777.953 184.214 775.853 186.343 772.778 186.343C769.69 186.343 767.603 184.214 767.603 181.251V163.471H760.716V181.849C760.716 188.221 765.53 192.325 772.778 192.325C779.971 192.325 784.826 188.221 784.826 181.849V163.471H777.953ZM789.142 163.471V191.964H795.848V174.365H796.084L802.929 191.783H807.214L814.059 174.462H814.295V191.964H821.001V163.471H812.473L805.239 181.112H804.905L797.67 163.471H789.142ZM825.296 163.471V191.964H832.002V174.365H832.239L839.083 191.783H843.368L850.213 174.462H850.45V191.964H857.155V163.471H848.627L841.393 181.112H841.059L833.825 163.471H825.296ZM861.451 191.964H881.317V186.371H868.337V180.514H880.302V174.907H868.337V169.064H881.317V163.471H861.451V191.964ZM885.63 191.964H892.517V182.211H896.05L901.253 191.964H908.766L902.853 181.112C905.983 179.693 907.792 176.897 907.792 172.96C907.792 167.103 903.799 163.471 897.4 163.471H885.63V191.964ZM892.517 176.785V169.022H895.911C899 169.022 900.655 170.316 900.655 172.96C900.655 175.603 899 176.785 895.911 176.785H892.517ZM923.812 192.367C925.718 192.367 927.401 190.753 927.429 188.75C927.401 186.774 925.718 185.174 923.812 185.174C921.809 185.174 920.167 186.774 920.195 188.75C920.167 190.753 921.809 192.367 923.812 192.367ZM944.704 191.964L946.583 185.981H956.418L958.297 191.964H965.698L956.085 163.471H946.916L937.303 191.964H944.704ZM948.224 180.75L951.382 170.65H951.605L954.777 180.75H948.224ZM968.766 191.964H987.505V186.371H975.652V163.471H968.766V191.964ZM991.07 191.964H1009.81V186.371H997.957V163.471H991.07V191.964ZM1028.62 191.964H1035.24L1040.38 174.685H1040.6L1045.73 191.964H1052.37L1060.65 163.471H1053.05L1048.74 182.183H1048.5L1043.59 163.471H1037.39L1032.48 182.142H1032.24L1027.94 163.471H1020.33L1028.62 191.964ZM1063.49 191.964H1083.36V186.371H1070.38V180.514H1082.34V174.907H1070.38V169.064H1083.36V163.471H1063.49V191.964ZM1087.67 191.964H1106.41V186.371H1094.56V163.471H1087.67V191.964ZM1134.73 173.794C1134.03 166.977 1128.96 163.082 1122.07 163.082C1114.47 163.082 1108.56 168.299 1108.56 177.718C1108.56 187.094 1114.34 192.353 1122.07 192.353C1129.89 192.353 1134.22 187.039 1134.73 181.989L1127.77 181.947C1127.29 184.688 1125.23 186.315 1122.21 186.315C1118.15 186.315 1115.59 183.38 1115.59 177.718C1115.59 172.278 1118.09 169.12 1122.25 169.12C1125.38 169.12 1127.43 170.942 1127.77 173.794H1134.73ZM1165.56 177.718C1165.56 168.299 1159.61 163.082 1151.96 163.082C1144.28 163.082 1138.36 168.299 1138.36 177.718C1138.36 187.094 1144.28 192.353 1151.96 192.353C1159.61 192.353 1165.56 187.136 1165.56 177.718ZM1158.52 177.718C1158.52 183.296 1156.08 186.315 1151.96 186.315C1147.85 186.315 1145.39 183.296 1145.39 177.718C1145.39 172.139 1147.85 169.12 1151.96 169.12C1156.08 169.12 1158.52 172.139 1158.52 177.718ZM1169.58 163.471V191.964H1176.29V174.365H1176.53L1183.37 191.783H1187.66L1194.5 174.462H1194.74V191.964H1201.44V163.471H1192.91L1185.68 181.112H1185.35L1178.11 163.471H1169.58ZM1205.74 191.964H1225.6V186.371H1212.62V180.514H1224.59V174.907H1212.62V169.064H1225.6V163.471H1205.74V191.964Z" stroke="#057BB8" stroke-width="4" mask="url(#path-21-outside-1)"/>
<path d="M457.823 239.535L459.701 233.553H469.537L471.415 239.535H478.816L469.203 211.043H460.035L450.421 239.535H457.823ZM461.342 228.322L464.5 218.222H464.723L467.895 228.322H461.342ZM481.884 239.535H500.623V233.942H488.77V211.043H481.884V239.535ZM504.188 239.535H522.928V233.942H511.075V211.043H504.188V239.535ZM545.441 239.535C554.122 239.535 559.506 234.179 559.506 225.275C559.506 216.385 554.122 211.043 545.427 211.043H534.91V239.535H545.441ZM541.796 233.664V216.914H545.08C549.977 216.914 552.606 219.14 552.606 225.275C552.606 231.438 549.977 233.664 545.177 233.664H541.796ZM563.527 239.535H583.394V233.942H570.414V228.085H582.378V222.479H570.414V216.636H583.394V211.043H563.527V239.535ZM587.706 239.535H594.593V228.085H605.917V222.479H594.593V216.636H607.156V211.043H587.706V239.535ZM617.51 211.043H610.623V239.535H617.51V211.043ZM634.076 239.939C635.982 239.939 637.665 238.325 637.693 236.321C637.665 234.346 635.982 232.746 634.076 232.746C632.072 232.746 630.431 234.346 630.458 236.321C630.431 238.325 632.072 239.939 634.076 239.939ZM654.968 239.535L656.846 233.553H666.682L668.56 239.535H675.962L666.348 211.043H657.18L647.567 239.535H654.968ZM658.488 228.322L661.646 218.222H661.869L665.04 228.322H658.488ZM679.029 239.535H697.769V233.942H685.916V211.043H679.029V239.535ZM701.334 239.535H720.073V233.942H708.22V211.043H701.334V239.535ZM747.456 219.585H754.05C753.995 214.257 749.752 210.654 743.129 210.654C736.618 210.654 731.93 214.201 731.972 219.502C731.958 223.828 734.991 226.263 739.916 227.39L742.893 228.085C746.023 228.809 747.428 229.658 747.456 231.257C747.428 232.996 745.801 234.207 743.032 234.207C739.985 234.207 737.982 232.788 737.829 230.047H731.234C731.318 236.711 735.951 239.897 743.115 239.897C750.211 239.897 754.412 236.683 754.44 231.271C754.412 226.722 751.338 223.94 745.717 222.701L743.268 222.145C740.681 221.588 739.039 220.726 739.095 219.029C739.109 217.47 740.444 216.344 743.115 216.344C745.801 216.344 747.275 217.554 747.456 219.585ZM775.155 211.043V228.823C775.155 231.786 773.054 233.915 769.98 233.915C766.891 233.915 764.805 231.786 764.805 228.823V211.043H757.918V229.421C757.918 235.793 762.732 239.897 769.98 239.897C777.172 239.897 782.028 235.793 782.028 229.421V211.043H775.155ZM786.344 211.043V239.535H793.05V221.936H793.286L800.131 239.354H804.416L811.261 222.034H811.497V239.535H818.203V211.043H809.675L802.44 228.684H802.106L794.872 211.043H786.344ZM822.498 211.043V239.535H829.204V221.936H829.44L836.285 239.354H840.57L847.415 222.034H847.651V239.535H854.357V211.043H845.829L838.594 228.684H838.261L831.026 211.043H822.498ZM858.652 239.535H878.519V233.942H865.539V228.085H877.503V222.479H865.539V216.636H878.519V211.043H858.652V239.535ZM882.832 239.535H889.718V229.783H893.252L898.455 239.535H905.968L900.055 228.684C903.185 227.265 904.994 224.468 904.994 220.531C904.994 214.674 901.001 211.043 894.601 211.043H882.832V239.535ZM889.718 224.357V216.594H893.113C896.201 216.594 897.857 217.888 897.857 220.531C897.857 223.174 896.201 224.357 893.113 224.357H889.718ZM921.014 239.939C922.919 239.939 924.603 238.325 924.631 236.321C924.603 234.346 922.919 232.746 921.014 232.746C919.01 232.746 917.369 234.346 917.396 236.321C917.369 238.325 919.01 239.939 921.014 239.939ZM941.906 239.535L943.784 233.553H953.62L955.498 239.535H962.9L953.286 211.043H944.118L934.505 239.535H941.906ZM945.426 228.322L948.584 218.222H948.807L951.979 228.322H945.426ZM965.967 239.535H984.707V233.942H972.854V211.043H965.967V239.535ZM988.272 239.535H1007.01V233.942H995.158V211.043H988.272V239.535ZM1025.82 239.535H1032.45L1037.58 222.256H1037.8L1042.94 239.535H1049.57L1057.85 211.043H1050.25L1045.94 229.755H1045.7L1040.79 211.043H1034.59L1029.68 229.713H1029.44L1025.14 211.043H1017.53L1025.82 239.535ZM1060.69 239.535H1080.56V233.942H1067.58V228.085H1079.55V222.479H1067.58V216.636H1080.56V211.043H1060.69V239.535ZM1084.87 239.535H1103.61V233.942H1091.76V211.043H1084.87V239.535ZM1131.93 221.366C1131.24 214.549 1126.16 210.654 1119.27 210.654C1111.68 210.654 1105.76 215.871 1105.76 225.289C1105.76 234.666 1111.54 239.925 1119.27 239.925C1127.09 239.925 1131.42 234.61 1131.93 229.56L1124.98 229.518C1124.49 232.259 1122.43 233.887 1119.41 233.887C1115.35 233.887 1112.79 230.951 1112.79 225.289C1112.79 219.849 1115.29 216.691 1119.45 216.691C1122.58 216.691 1124.63 218.514 1124.98 221.366H1131.93ZM1162.76 225.289C1162.76 215.871 1156.81 210.654 1149.16 210.654C1141.48 210.654 1135.57 215.871 1135.57 225.289C1135.57 234.666 1141.48 239.925 1149.16 239.925C1156.81 239.925 1162.76 234.708 1162.76 225.289ZM1155.73 225.289C1155.73 230.868 1153.28 233.887 1149.16 233.887C1145.05 233.887 1142.59 230.868 1142.59 225.289C1142.59 219.71 1145.05 216.691 1149.16 216.691C1153.28 216.691 1155.73 219.71 1155.73 225.289ZM1166.79 211.043V239.535H1173.49V221.936H1173.73L1180.57 239.354H1184.86L1191.7 222.034H1191.94V239.535H1198.64V211.043H1190.12L1182.88 228.684H1182.55L1175.31 211.043H1166.79ZM1202.94 239.535H1222.81V233.942H1209.83V228.085H1221.79V222.479H1209.83V216.636H1222.81V211.043H1202.94V239.535Z" stroke="#057BB8" stroke-width="4" mask="url(#path-21-outside-1)"/>
<path d="M455.024 287.107L456.902 281.125H466.738L468.616 287.107H476.018L466.404 258.615H457.236L447.623 287.107H455.024ZM458.544 275.894L461.702 265.793H461.925L465.097 275.894H458.544ZM479.085 287.107H497.825V281.514H485.972V258.615H479.085V287.107ZM501.39 287.107H520.13V281.514H508.276V258.615H501.39V287.107ZM542.643 287.107C551.324 287.107 556.708 281.751 556.708 272.847C556.708 263.957 551.324 258.615 542.629 258.615H532.111V287.107H542.643ZM538.998 281.236V264.486H542.281C547.178 264.486 549.808 266.712 549.808 272.847C549.808 279.01 547.178 281.236 542.379 281.236H538.998ZM560.729 287.107H580.595V281.514H567.615V275.657H579.58V270.05H567.615V264.207H580.595V258.615H560.729V287.107ZM584.908 287.107H591.795V275.657H603.119V270.05H591.795V264.207H604.357V258.615H584.908V287.107ZM614.711 258.615H607.825V287.107H614.711V258.615ZM631.277 287.51C633.183 287.51 634.867 285.896 634.894 283.893C634.867 281.918 633.183 280.318 631.277 280.318C629.274 280.318 627.632 281.918 627.66 283.893C627.632 285.896 629.274 287.51 631.277 287.51ZM652.17 287.107L654.048 281.125H663.884L665.762 287.107H673.163L663.55 258.615H654.382L644.769 287.107H652.17ZM655.69 275.894L658.848 265.793H659.07L662.242 275.894H655.69ZM676.231 287.107H694.97V281.514H683.117V258.615H676.231V287.107ZM698.535 287.107H717.275V281.514H705.422V258.615H698.535V287.107ZM744.658 267.157H751.252C751.196 261.828 746.953 258.225 740.331 258.225C733.82 258.225 729.132 261.773 729.173 267.073C729.16 271.4 732.192 273.835 737.117 274.961L740.095 275.657C743.225 276.38 744.63 277.229 744.658 278.829C744.63 280.568 743.002 281.778 740.234 281.778C737.187 281.778 735.184 280.359 735.031 277.619H728.436C728.52 284.283 733.152 287.468 740.317 287.468C747.412 287.468 751.614 284.255 751.642 278.843C751.614 274.294 748.539 271.511 742.919 270.273L740.47 269.717C737.883 269.16 736.241 268.298 736.297 266.6C736.31 265.042 737.646 263.915 740.317 263.915C743.002 263.915 744.477 265.126 744.658 267.157ZM772.357 258.615V276.394C772.357 279.358 770.256 281.486 767.181 281.486C764.093 281.486 762.006 279.358 762.006 276.394V258.615H755.12V276.993C755.12 283.364 759.933 287.468 767.181 287.468C774.374 287.468 779.229 283.364 779.229 276.993V258.615H772.357ZM783.546 258.615V287.107H790.251V269.508H790.488L797.333 286.926H801.618L808.462 269.605H808.699V287.107H815.404V258.615H806.876L799.642 276.255H799.308L792.074 258.615H783.546ZM819.7 258.615V287.107H826.405V269.508H826.642L833.487 286.926H837.772L844.616 269.605H844.853V287.107H851.559V258.615H843.03L835.796 276.255H835.462L828.228 258.615H819.7ZM855.854 287.107H875.721V281.514H862.741V275.657H874.705V270.05H862.741V264.207H875.721V258.615H855.854V287.107ZM880.033 287.107H886.92V277.354H890.454L895.657 287.107H903.169L897.257 276.255C900.387 274.836 902.195 272.04 902.195 268.103C902.195 262.246 898.203 258.615 891.803 258.615H880.033V287.107ZM886.92 271.929V264.166H890.314C893.403 264.166 895.058 265.459 895.058 268.103C895.058 270.746 893.403 271.929 890.314 271.929H886.92ZM918.215 287.51C920.121 287.51 921.805 285.896 921.832 283.893C921.805 281.918 920.121 280.318 918.215 280.318C916.212 280.318 914.57 281.918 914.598 283.893C914.57 285.896 916.212 287.51 918.215 287.51ZM939.108 287.107L940.986 281.125H950.822L952.7 287.107H960.101L950.488 258.615H941.32L931.707 287.107H939.108ZM942.628 275.894L945.786 265.793H946.008L949.18 275.894H942.628ZM963.169 287.107H981.909V281.514H970.055V258.615H963.169V287.107ZM985.473 287.107H1004.21V281.514H992.36V258.615H985.473V287.107ZM1023.03 287.107H1029.65L1034.78 269.828H1035L1040.14 287.107H1046.77L1055.05 258.615H1047.46L1043.14 277.327H1042.91L1038 258.615H1031.79L1026.88 277.285H1026.64L1022.34 258.615H1014.73L1023.03 287.107ZM1057.9 287.107H1077.76V281.514H1064.78V275.657H1076.75V270.05H1064.78V264.207H1077.76V258.615H1057.9V287.107ZM1082.08 287.107H1100.82V281.514H1088.96V258.615H1082.08V287.107ZM1129.13 268.937C1128.44 262.121 1123.36 258.225 1116.47 258.225C1108.88 258.225 1102.97 263.442 1102.97 272.861C1102.97 282.237 1108.74 287.496 1116.47 287.496C1124.29 287.496 1128.62 282.182 1129.13 277.132L1122.18 277.09C1121.69 279.831 1119.63 281.458 1116.61 281.458C1112.55 281.458 1109.99 278.523 1109.99 272.861C1109.99 267.421 1112.49 264.263 1116.65 264.263C1119.78 264.263 1121.83 266.085 1122.18 268.937H1129.13ZM1159.97 272.861C1159.97 263.442 1154.01 258.225 1146.36 258.225C1138.68 258.225 1132.77 263.442 1132.77 272.861C1132.77 282.237 1138.68 287.496 1146.36 287.496C1154.01 287.496 1159.97 282.279 1159.97 272.861ZM1152.93 272.861C1152.93 278.439 1150.48 281.458 1146.36 281.458C1142.26 281.458 1139.79 278.439 1139.79 272.861C1139.79 267.282 1142.26 264.263 1146.36 264.263C1150.48 264.263 1152.93 267.282 1152.93 272.861ZM1163.99 258.615V287.107H1170.69V269.508H1170.93L1177.77 286.926H1182.06L1188.9 269.605H1189.14V287.107H1195.85V258.615H1187.32L1180.08 276.255H1179.75L1172.52 258.615H1163.99ZM1200.14 287.107H1220.01V281.514H1207.03V275.657H1218.99V270.05H1207.03V264.207H1220.01V258.615H1200.14V287.107Z" stroke="#057BB8" stroke-width="4" mask="url(#path-21-outside-1)"/>
<path d="M452.226 334.678L454.104 328.696H463.94L465.818 334.678H473.219L463.606 306.186H454.438L444.825 334.678H452.226ZM455.746 323.465L458.904 313.365H459.126L462.298 323.465H455.746ZM476.287 334.678H495.027V329.086H483.173V306.186H476.287V334.678ZM498.592 334.678H517.331V329.086H505.478V306.186H498.592V334.678ZM539.845 334.678C548.526 334.678 553.91 329.322 553.91 320.418C553.91 311.529 548.526 306.186 539.831 306.186H529.313V334.678H539.845ZM536.2 328.807V312.057H539.483C544.38 312.057 547.009 314.283 547.009 320.418C547.009 326.581 544.38 328.807 539.58 328.807H536.2ZM557.93 334.678H577.797V329.086H564.817V323.229H576.781V317.622H564.817V311.779H577.797V306.186H557.93V334.678ZM582.11 334.678H588.996V323.229H600.321V317.622H588.996V311.779H601.559V306.186H582.11V334.678ZM611.913 306.186H605.026V334.678H611.913V306.186ZM628.479 335.082C630.385 335.082 632.068 333.468 632.096 331.465C632.068 329.489 630.385 327.889 628.479 327.889C626.476 327.889 624.834 329.489 624.862 331.465C624.834 333.468 626.476 335.082 628.479 335.082ZM649.371 334.678L651.25 328.696H661.085L662.964 334.678H670.365L660.752 306.186H651.583L641.97 334.678H649.371ZM652.891 323.465L656.049 313.365H656.272L659.444 323.465H652.891ZM673.433 334.678H692.172V329.086H680.319V306.186H673.433V334.678ZM695.737 334.678H714.477V329.086H702.624V306.186H695.737V334.678ZM741.859 314.728H748.454C748.398 309.4 744.155 305.797 737.533 305.797C731.022 305.797 726.333 309.344 726.375 314.645C726.361 318.972 729.394 321.406 734.319 322.533L737.296 323.229C740.426 323.952 741.832 324.801 741.859 326.401C741.832 328.14 740.204 329.35 737.435 329.35C734.389 329.35 732.385 327.931 732.232 325.19H725.638C725.721 331.854 730.354 335.04 737.519 335.04C744.614 335.04 748.815 331.826 748.843 326.415C748.815 321.865 745.741 319.083 740.12 317.845L737.672 317.288C735.084 316.732 733.443 315.869 733.498 314.172C733.512 312.614 734.848 311.487 737.519 311.487C740.204 311.487 741.679 312.697 741.859 314.728ZM769.558 306.186V323.966C769.558 326.929 767.458 329.058 764.383 329.058C761.295 329.058 759.208 326.929 759.208 323.966V306.186H752.321V324.564C752.321 330.936 757.135 335.04 764.383 335.04C771.576 335.04 776.431 330.936 776.431 324.564V306.186H769.558ZM780.747 306.186V334.678H787.453V317.079H787.689L794.534 334.497H798.819L805.664 317.177H805.9V334.678H812.606V306.186H804.078L796.844 323.827H796.51L789.275 306.186H780.747ZM816.902 306.186V334.678H823.607V317.079H823.844L830.688 334.497H834.973L841.818 317.177H842.055V334.678H848.76V306.186H840.232L832.998 323.827H832.664L825.43 306.186H816.902ZM853.056 334.678H872.922V329.086H859.942V323.229H871.907V317.622H859.942V311.779H872.922V306.186H853.056V334.678ZM877.235 334.678H884.122V324.926H887.655L892.858 334.678H900.371L894.458 323.827C897.588 322.408 899.397 319.611 899.397 315.674C899.397 309.817 895.404 306.186 889.005 306.186H877.235V334.678ZM884.122 319.5V311.737H887.516C890.605 311.737 892.26 313.031 892.26 315.674C892.26 318.318 890.605 319.5 887.516 319.5H884.122ZM915.417 335.082C917.323 335.082 919.006 333.468 919.034 331.465C919.006 329.489 917.323 327.889 915.417 327.889C913.414 327.889 911.772 329.489 911.8 331.465C911.772 333.468 913.414 335.082 915.417 335.082ZM936.309 334.678L938.188 328.696H948.023L949.902 334.678H957.303L947.69 306.186H938.521L928.908 334.678H936.309ZM939.829 323.465L942.987 313.365H943.21L946.382 323.465H939.829ZM960.37 334.678H979.11V329.086H967.257V306.186H960.37V334.678ZM982.675 334.678H1001.41V329.086H989.562V306.186H982.675V334.678ZM1020.23 334.678H1026.85L1031.98 317.399H1032.21L1037.34 334.678H1043.98L1052.25 306.186H1044.66L1040.34 324.898H1040.11L1035.2 306.186H1028.99L1024.08 324.856H1023.84L1019.55 306.186H1011.94L1020.23 334.678ZM1055.1 334.678H1074.96V329.086H1061.98V323.229H1073.95V317.622H1061.98V311.779H1074.96V306.186H1055.1V334.678ZM1079.28 334.678H1098.02V329.086H1086.16V306.186H1079.28V334.678ZM1126.34 316.509C1125.64 309.692 1120.56 305.797 1113.68 305.797C1106.08 305.797 1100.17 311.014 1100.17 320.432C1100.17 329.809 1105.94 335.068 1113.68 335.068C1121.49 335.068 1125.82 329.753 1126.34 324.703L1119.38 324.662C1118.89 327.402 1116.83 329.03 1113.81 329.03C1109.75 329.03 1107.19 326.095 1107.19 320.432C1107.19 314.993 1109.7 311.835 1113.86 311.835C1116.99 311.835 1119.03 313.657 1119.38 316.509H1126.34ZM1157.17 320.432C1157.17 311.014 1151.21 305.797 1143.56 305.797C1135.88 305.797 1129.97 311.014 1129.97 320.432C1129.97 329.809 1135.88 335.068 1143.56 335.068C1151.21 335.068 1157.17 329.851 1157.17 320.432ZM1150.13 320.432C1150.13 326.011 1147.68 329.03 1143.56 329.03C1139.46 329.03 1137 326.011 1137 320.432C1137 314.854 1139.46 311.835 1143.56 311.835C1147.68 311.835 1150.13 314.854 1150.13 320.432ZM1161.19 306.186V334.678H1167.89V317.079H1168.13L1174.98 334.497H1179.26L1186.11 317.177H1186.34V334.678H1193.05V306.186H1184.52L1177.29 323.827H1176.95L1169.72 306.186H1161.19ZM1197.34 334.678H1217.21V329.086H1204.23V323.229H1216.19V317.622H1204.23V311.779H1217.21V306.186H1197.34V334.678Z" stroke="#057BB8" stroke-width="4" mask="url(#path-21-outside-1)"/>
<path d="M438.234 382.25L440.112 376.268H449.948L451.826 382.25H459.228L449.614 353.758H440.446L430.833 382.25H438.234ZM441.754 371.037L444.912 360.936H445.135L448.307 371.037H441.754ZM462.295 382.25H481.035V376.657H469.182V353.758H462.295V382.25ZM484.6 382.25H503.34V376.657H491.486V353.758H484.6V382.25ZM525.853 382.25C534.534 382.25 539.918 376.894 539.918 367.99C539.918 359.1 534.534 353.758 525.839 353.758H515.321V382.25H525.853ZM522.208 376.379V359.629H525.491C530.388 359.629 533.018 361.855 533.018 367.99C533.018 374.153 530.388 376.379 525.589 376.379H522.208ZM543.939 382.25H563.805V376.657H550.825V370.8H562.79V365.194H550.825V359.351H563.805V353.758H543.939V382.25ZM568.118 382.25H575.005V370.8H586.329V365.194H575.005V359.351H587.567V353.758H568.118V382.25ZM597.921 353.758H591.035V382.25H597.921V353.758ZM614.487 382.653C616.393 382.653 618.077 381.04 618.104 379.036C618.077 377.061 616.393 375.461 614.487 375.461C612.484 375.461 610.842 377.061 610.87 379.036C610.842 381.04 612.484 382.653 614.487 382.653ZM635.38 382.25L637.258 376.268H647.094L648.972 382.25H656.373L646.76 353.758H637.592L627.979 382.25H635.38ZM638.9 371.037L642.058 360.936H642.28L645.452 371.037H638.9ZM659.441 382.25H678.181V376.657H666.327V353.758H659.441V382.25ZM681.746 382.25H700.485V376.657H688.632V353.758H681.746V382.25ZM727.868 362.3H734.462C734.406 356.972 730.163 353.368 723.541 353.368C717.03 353.368 712.342 356.916 712.384 362.216C712.37 366.543 715.402 368.978 720.327 370.105L723.305 370.8C726.435 371.524 727.84 372.372 727.868 373.972C727.84 375.711 726.212 376.922 723.444 376.922C720.397 376.922 718.394 375.503 718.241 372.762H711.646C711.73 379.426 716.362 382.612 723.527 382.612C730.622 382.612 734.824 379.398 734.852 373.986C734.824 369.437 731.749 366.654 726.129 365.416L723.68 364.86C721.093 364.303 719.451 363.441 719.507 361.743C719.52 360.185 720.856 359.058 723.527 359.058C726.212 359.058 727.687 360.269 727.868 362.3ZM755.567 353.758V371.538C755.567 374.501 753.466 376.629 750.392 376.629C747.303 376.629 745.216 374.501 745.216 371.538V353.758H738.33V372.136C738.33 378.508 743.143 382.612 750.392 382.612C757.584 382.612 762.439 378.508 762.439 372.136V353.758H755.567ZM766.756 353.758V382.25H773.461V364.651H773.698L780.543 382.069H784.828L791.672 364.748H791.909V382.25H798.614V353.758H790.086L782.852 371.398H782.518L775.284 353.758H766.756ZM802.91 353.758V382.25H809.616V364.651H809.852L816.697 382.069H820.982L827.827 364.748H828.063V382.25H834.769V353.758H826.241L819.006 371.398H818.672L811.438 353.758H802.91ZM839.064 382.25H858.931V376.657H845.951V370.8H857.915V365.194H845.951V359.351H858.931V353.758H839.064V382.25ZM863.243 382.25H870.13V372.497H873.664L878.867 382.25H886.379L880.467 371.398C883.597 369.979 885.405 367.183 885.405 363.246C885.405 357.389 881.413 353.758 875.013 353.758H863.243V382.25ZM870.13 367.072V359.309H873.524C876.613 359.309 878.268 360.603 878.268 363.246C878.268 365.889 876.613 367.072 873.524 367.072H870.13ZM901.425 382.653C903.331 382.653 905.015 381.04 905.042 379.036C905.015 377.061 903.331 375.461 901.425 375.461C899.422 375.461 897.78 377.061 897.808 379.036C897.78 381.04 899.422 382.653 901.425 382.653ZM922.318 382.25L924.196 376.268H934.032L935.91 382.25H943.311L933.698 353.758H924.53L914.917 382.25H922.318ZM925.838 371.037L928.996 360.936H929.218L932.39 371.037H925.838ZM946.379 382.25H965.119V376.657H953.265V353.758H946.379V382.25ZM968.684 382.25H987.423V376.657H975.57V353.758H968.684V382.25ZM1006.24 382.25H1012.86L1017.99 364.971H1018.21L1023.35 382.25H1029.98L1038.26 353.758H1030.67L1026.35 372.47H1026.12L1021.21 353.758H1015L1010.09 372.428H1009.85L1005.55 353.758H997.944L1006.24 382.25ZM1041.11 382.25H1060.97V376.657H1047.99V370.8H1059.96V365.194H1047.99V359.351H1060.97V353.758H1041.11V382.25ZM1065.29 382.25H1084.03V376.657H1072.17V353.758H1065.29V382.25ZM1112.34 364.081C1111.65 357.264 1106.57 353.368 1099.68 353.368C1092.09 353.368 1086.18 358.585 1086.18 368.004C1086.18 377.381 1091.95 382.639 1099.68 382.639C1107.5 382.639 1111.83 377.325 1112.34 372.275L1105.39 372.233C1104.9 374.974 1102.84 376.602 1099.82 376.602C1095.76 376.602 1093.2 373.666 1093.2 368.004C1093.2 362.564 1095.7 359.406 1099.86 359.406C1102.99 359.406 1105.04 361.229 1105.39 364.081H1112.34ZM1143.18 368.004C1143.18 358.585 1137.22 353.368 1129.57 353.368C1121.89 353.368 1115.98 358.585 1115.98 368.004C1115.98 377.381 1121.89 382.639 1129.57 382.639C1137.22 382.639 1143.18 377.422 1143.18 368.004ZM1136.14 368.004C1136.14 373.583 1133.69 376.602 1129.57 376.602C1125.47 376.602 1123 373.583 1123 368.004C1123 362.425 1125.47 359.406 1129.57 359.406C1133.69 359.406 1136.14 362.425 1136.14 368.004ZM1147.2 353.758V382.25H1153.9V364.651H1154.14L1160.98 382.069H1165.27L1172.11 364.748H1172.35V382.25H1179.06V353.758H1170.53L1163.29 371.398H1162.96L1155.73 353.758H1147.2ZM1183.35 382.25H1203.22V376.657H1190.24V370.8H1202.2V365.194H1190.24V359.351H1203.22V353.758H1183.35V382.25Z" stroke="#057BB8" stroke-width="4" mask="url(#path-21-outside-1)"/>
</svg>
