<svg width="976" height="387" viewBox="0 0 976 387" fill="none" xmlns="http://www.w3.org/2000/svg">
<g clip-path="url(#clip0)">
<path d="M514.76 89.6001H474.82V313.97H514.76V89.6001Z" fill="#4D4D4D"/>
<path d="M789.99 89.6001V305.33L750.05 328.4V89.6001H789.99Z" fill="#4D4D4D"/>
<path d="M681.77 73.6901V169.14C669.41 153.23 651.58 138.95 623.31 138.95C582.41 138.95 543.77 171.1 543.77 227.9V228.56C543.77 285.36 583.04 317.51 623.31 317.51C651.25 317.51 669.12 303.23 681.77 285.36V313.97H721.71V50.6201L681.77 73.6901ZM682.4 228.56C682.4 231.7 682.18 234.76 681.77 237.71C677.86 265.39 656.489 283.44 632.719 283.44C606.109 283.44 583.37 261.66 583.37 228.56V227.9C583.37 193.8 605.769 173.02 632.719 173.02C656.489 173.02 677.9 190.81 681.77 218.68C682.18 221.63 682.4 224.73 682.4 227.91V228.56Z" fill="#4D4D4D"/>
<path d="M810.369 228.88V228.23C810.369 179.2 845.109 138.94 894.139 138.94C948.689 138.94 976.299 181.8 976.299 231.16C976.299 234.73 975.969 238.3 975.649 242.2H849.659C853.879 270.12 873.689 285.71 899.009 285.71C918.169 285.71 931.809 278.57 945.439 265.25L968.499 285.71C952.259 305.19 929.859 317.86 898.359 317.86C848.689 317.85 810.369 281.8 810.369 228.88ZM937.329 216.21C934.739 190.88 919.799 171.08 893.819 171.08C869.789 171.08 852.899 189.59 849.329 216.21H937.329Z" fill="#4D4D4D"/>
<path fill-rule="evenodd" clip-rule="evenodd" d="M133.7 1V310.22H0.84L0 309.74V78.19L5.1 75.24L133.7 1Z" fill="url(#paint0_linear)"/>
<path fill-rule="evenodd" clip-rule="evenodd" d="M176.52 387V77.7798H309.38L310.22 78.2598V309.81L305.12 312.76L176.52 387Z" fill="url(#paint1_linear)"/>
</g>
<defs>
<linearGradient id="paint0_linear" x1="222.184" y1="363.489" x2="20.2403" y2="92.9229" gradientUnits="userSpaceOnUse">
<stop offset="3.76579e-07" stop-color="#6FA4F2"/>
<stop offset="0.5051" stop-color="#0F6BEB"/>
<stop offset="1" stop-color="#0B50B0"/>
</linearGradient>
<linearGradient id="paint1_linear" x1="298.516" y1="306.516" x2="96.5716" y2="35.9505" gradientUnits="userSpaceOnUse">
<stop offset="3.76579e-07" stop-color="#6FA4F2"/>
<stop offset="0.5051" stop-color="#0F6BEB"/>
<stop offset="1" stop-color="#0B50B0"/>
</linearGradient>
<clipPath id="clip0">
<rect width="976" height="387" fill="white"/>
</clipPath>
</defs>
</svg>
