<svg width="183" height="179" viewBox="0 0 183 179" fill="none" xmlns="http://www.w3.org/2000/svg">
<path d="M163.079 87.1126C163.334 87.5572 163.759 87.7489 164.098 88.021C166.951 90.2463 169.538 92.8769 171.795 95.848C174.587 99.5698 175.962 103.932 176.377 108.719C176.431 109.363 176.716 109.486 177.127 109.677C178.757 110.413 179.766 111.877 180.524 113.56C180.877 114.412 180.95 115.378 180.731 116.285C180.167 119.141 178.853 121.326 176.482 122.625C175.918 122.936 175.364 123.281 174.784 123.572C174.417 123.756 174.366 123.955 174.515 124.388C174.976 125.665 175.196 127.035 175.164 128.412C175.131 129.79 174.845 131.145 174.325 132.391C173.588 134.258 172.528 135.661 170.789 136.435C168.256 137.524 165.623 138.295 162.94 138.735C162.572 138.769 162.218 138.907 161.909 139.137C161.601 139.367 161.349 139.681 161.177 140.05C159.782 142.859 157.754 145.006 155.421 146.8C152.873 148.762 150.061 150.138 147.269 151.56C142.079 154.205 136.825 156.669 131.357 158.502C130.979 158.604 130.642 158.846 130.399 159.188C129.992 159.73 129.527 160.211 129.013 160.621C118.663 169.328 106.637 175.151 93.9143 177.617C87.1651 178.971 80.289 179.333 73.4575 178.694C46.9652 176.206 24.1275 159.935 11.1225 135.512C5.79315 125.525 2.29366 114.433 0.831295 102.893C0.156566 97.8907 -0.108344 92.829 0.0399231 87.7719C0.793934 66.2421 7.43738 47.3302 20.0314 31.1781C31.0732 17.0191 44.8254 7.7357 60.9721 2.92149C65.3892 1.62607 69.8972 0.764277 74.4458 0.345736C90.4141 -1.22217 106.437 2.56604 120.505 11.2352C120.78 11.4038 121.052 11.5878 121.33 11.7488C122.495 12.4626 123.851 12.6673 125.141 12.3238C131.632 10.7522 137.874 11.7756 143.798 15.1487C145.411 16.0785 146.938 17.1879 148.356 18.4603C151.64 21.3849 153.603 25.237 154.517 29.7983C154.687 30.9376 154.731 32.0963 154.65 33.2479C154.65 33.8305 154.826 34.0145 155.329 34.0145C157.137 34.1116 158.919 34.532 160.61 35.2602C162.988 36.2721 165.406 37.238 167.59 38.7751C169.163 39.8828 170.518 41.1937 171.007 43.3248C171.143 43.9227 171.526 44.1566 171.992 44.329C172.776 44.6127 173.574 44.8772 174.332 45.2374C175.993 46.004 177.205 47.2958 177.446 49.3962C177.525 50.0938 177.891 50.2663 178.313 50.4733C179.695 51.1556 180.649 52.2479 180.986 53.946C181.161 54.7255 181.146 55.5442 180.941 56.3147C180.854 56.606 180.833 56.9175 180.88 57.2203C180.928 57.5231 181.042 57.8075 181.213 58.0472C183.18 61.3896 182.884 64.7166 180.374 67.6603C180.216 67.8105 180.1 68.0091 180.039 68.2322C179.979 68.4553 179.978 68.6933 180.035 68.9175C180.205 69.8134 180.149 70.7454 179.874 71.6073C179.598 72.4692 179.114 73.2265 178.476 73.7931C177.249 74.9901 175.748 75.7726 174.145 76.0507C173.916 76.0614 173.694 76.1442 173.504 76.2898C173.315 76.4355 173.165 76.6381 173.072 76.8748C171.74 79.9411 169.726 82.3329 167.39 84.4295C166.377 85.274 165.273 85.9695 164.105 86.4993C163.731 86.6265 163.383 86.8348 163.079 87.1126ZM151.419 74.5367C151.571 74.5825 151.73 74.5908 151.885 74.561C152.039 74.5312 152.187 74.4641 152.316 74.3642C151.999 74.1909 151.639 74.1476 151.297 74.2415C150.713 74.161 150.122 74.1265 149.548 73.9924C147.007 73.4059 145.19 71.8229 144.348 68.9903C143.788 67.2278 143.64 65.3323 143.917 63.4862C144.282 61.2578 145.024 59.1299 146.104 57.2193C146.892 55.8224 148.08 54.7715 149.47 54.2411C151.265 53.4529 153.222 53.2575 155.111 53.6776C158.756 54.4826 161.31 56.5677 162.804 60.4812C164.058 63.7584 163.575 66.6139 161.677 69.297C160.634 70.7727 159.299 71.8612 157.941 72.9268C157.747 72.9773 157.565 73.0711 157.405 73.2028C157.244 73.3345 157.109 73.5014 157.007 73.6934C157.591 73.5094 158.226 73.6282 158.763 73.2219C163.963 72.0491 169.132 70.7229 174.233 69.0747C175.477 68.6722 176.767 68.4576 177.969 67.9018C181.57 66.2459 182.453 60.9105 179.644 57.9591C178.451 56.7379 177.069 55.7739 175.568 55.115C170.423 52.7501 165.039 52.0486 159.523 52.0486C155.244 52.0486 151.1 52.9034 146.957 53.9651C141.145 55.4676 136.428 58.879 132.314 63.6127C131.693 64.3295 131.17 65.1076 131.19 66.154C131.196 67.6693 130.859 69.1613 130.212 70.489C130.018 70.9222 129.872 71.3936 129.703 71.8306C129.533 72.2675 129.628 72.5167 130.083 72.6738C131.55 73.1759 133.041 73.5401 134.546 73.8774C140.102 75.1207 145.8 75.3433 151.419 74.5367ZM116.368 120.095C117.187 120.149 117.995 120.337 118.824 120.341C124.081 120.379 129.353 120.398 134.597 120.164C137.732 120.022 140.874 120.164 144.002 119.812C145.889 119.762 147.772 119.596 149.643 119.313C152.464 119.013 155.235 118.274 157.876 117.117C160.722 115.829 163.531 114.434 166.367 113.142C169.101 111.904 171.829 110.639 174.641 109.631C175.001 109.501 175.402 109.459 175.32 108.78C174.821 104.767 173.768 100.996 171.584 97.7223C169.081 93.9966 165.939 91.0644 162.556 88.4197C162.271 88.1603 161.933 87.9867 161.572 87.915C161.212 87.8433 160.841 87.8758 160.495 88.0095C156.361 89.3971 152.112 89.9797 147.819 90.1483C144.554 90.2604 141.286 90.09 138.044 89.6385C137.11 89.5121 136.18 89.3204 135.256 89.1058C134.858 89.0138 134.458 88.7646 134.634 88.1897C134.662 88.081 134.71 87.9807 134.777 87.8957C134.843 87.8107 134.925 87.7433 135.016 87.6983C135.108 87.6532 135.208 87.6316 135.308 87.6351C135.408 87.6385 135.506 87.6669 135.595 87.7182C135.67 87.7451 135.738 87.7872 135.816 87.8064C139.41 88.7416 143.078 88.7685 146.729 88.7991C148.617 88.8071 150.504 88.679 152.377 88.4158C155.701 88.0158 158.975 87.2008 162.139 85.9857C166.707 84.1497 170.001 80.7307 172.199 75.9127C172.324 75.5883 172.525 75.3093 172.782 75.1063C173.039 74.9034 173.34 74.7845 173.653 74.7628C175.315 74.5932 176.875 73.7808 178.068 72.463C178.487 72.0276 178.785 71.4652 178.928 70.8432C179.071 70.2212 179.052 69.5659 178.873 68.9559C178.112 69.2242 177.446 69.4963 176.764 69.6841C171.727 71.0717 166.741 72.6815 161.656 73.8697C156.901 74.9813 152.173 75.9625 147.33 76.25C141.626 76.5451 135.916 75.8207 130.412 74.1035C129.567 73.8506 129.438 73.9119 129.366 74.897C129.308 76.0925 129.163 77.2808 128.935 78.4501C128.742 79.4789 128.348 80.446 127.782 81.2809C127.215 82.1158 126.491 82.7974 125.661 83.2758C122.701 85.0509 119.433 86.0727 116.086 86.2694C114.086 86.3997 112.078 86.4265 110.078 86.6105C106.749 86.9171 103.418 87.2238 100.082 87.4576C97.0178 87.6685 93.9433 87.6031 90.888 87.2621C89.0889 87.0948 87.3059 86.7524 85.559 86.2387C82.9437 85.4223 80.4168 84.2992 77.8083 83.456C77.5834 83.3765 77.3632 83.2805 77.1494 83.1685C76.8302 83.0114 76.6196 82.7622 76.735 82.3406C76.8505 81.919 77.129 81.9381 77.4143 81.9573C77.6094 81.9804 77.8018 82.0266 77.9883 82.0953C79.1499 82.5131 80.3115 82.9232 81.4629 83.364C84.2921 84.4525 87.1316 85.4184 90.134 85.8018C94.4203 86.3537 98.6931 86.2195 102.976 85.8899C105.955 85.6638 108.923 85.269 111.912 85.1501C114.076 85.1196 116.236 84.9507 118.382 84.6442C120.92 84.2411 123.36 83.2675 125.559 81.781C126.231 81.3078 126.784 80.6479 127.165 79.8645C127.933 78.3888 127.981 76.7598 128.099 75.1116C127.977 75.1116 127.889 75.0809 127.828 75.1116C127.488 75.3186 127.132 75.5256 126.809 75.7555C123.664 77.9403 120.24 79.3547 116.677 80.3551C113.553 81.2405 110.356 81.7388 107.194 82.4402C104.817 82.9653 102.395 83.387 99.9362 83.272C98.4791 83.203 97.0458 82.8887 95.5955 82.766C89.2238 82.2793 83.6095 79.3815 78.1684 75.8897C75.8825 74.4255 73.4813 73.3484 70.7743 73.6742C70.0746 73.7586 69.3851 73.9617 68.6923 74.115C66.6068 74.5788 64.6743 73.7087 63.7708 71.9034C63.0915 70.5542 63.3497 69.2893 64.4773 68.4269C65.4407 67.7314 66.5146 67.2536 67.6394 67.0202C69.9048 66.4683 72.1804 65.9585 74.4492 65.4334C78.2108 64.6025 81.6978 62.6216 84.5299 59.7069C88.283 55.8739 92.7595 53.5742 97.7013 52.3514C102.506 51.1491 107.433 50.6913 112.347 50.9907C114.973 51.1731 117.587 51.5521 120.169 52.1253C121.969 52.5086 123.735 53.0452 125.511 53.6355C125.471 50.8106 124.153 48.8366 121.884 48.2118C120.586 47.8445 119.258 47.635 117.92 47.5871C114.259 47.4759 110.608 47.8055 106.95 47.8439C106.203 47.8439 105.459 47.9167 104.712 47.978C101.373 48.2693 98.0987 49.0398 94.8245 49.7642C90.7114 50.6726 86.9278 52.4128 83.7521 55.6248C81.814 57.6392 79.6957 59.4208 77.4313 60.9411C75.2317 62.417 72.8719 63.5649 70.4109 64.3563C69.9897 64.4866 69.3919 64.8661 69.2187 64.0995C69.0455 63.3329 69.735 63.3521 70.1392 63.1796C70.9475 62.8384 71.7864 62.5816 72.5846 62.2137C76.2902 60.4504 79.6964 57.9746 82.6517 54.8965C85.1129 52.389 88.0274 50.5149 91.1937 49.4039C93.3815 48.6786 95.6085 48.114 97.8609 47.7135C100.598 47.1031 103.368 46.6934 106.152 46.487C109.453 46.3145 112.758 46.2954 116.062 46.2034C116.307 46.2034 116.626 46.3567 116.776 45.958C116.715 45.6667 116.494 45.5403 116.314 45.3716C114.432 43.6238 112.517 41.9219 110.676 40.1128C106.923 36.4446 102.494 34.6661 97.6334 34.302C93.032 33.9676 88.4117 34.365 83.9083 35.4826C77.7256 36.9646 71.9434 40.0834 67.0382 44.582C66.7447 44.8103 66.5103 45.1225 66.3589 45.4866C66.2231 45.8699 65.9751 46.0769 65.6185 45.8699C65.537 45.8285 65.4636 45.7693 65.4024 45.6958C65.3412 45.6223 65.2934 45.5359 65.2619 45.4416C65.2303 45.3472 65.2156 45.2467 65.2185 45.146C65.2214 45.0452 65.2419 44.946 65.2788 44.8542C65.4161 44.4343 65.6653 44.0728 65.9921 43.8193C67.7209 42.3551 69.3885 40.8027 71.2872 39.603C76.3068 36.3188 81.8623 34.2121 87.6207 33.4089C91.6217 32.8761 95.6193 32.6078 99.6203 33.2134C103.706 33.7728 107.573 35.6057 110.788 38.5068C110.969 38.678 111.161 38.8343 111.362 38.9744C111.729 39.2197 112.041 38.9744 112.354 38.7866C112.666 38.5988 112.564 38.2691 112.506 37.974C112.449 37.6788 112.384 37.3684 112.326 37.0656C111.362 32.0827 109.45 27.671 105.985 24.2788C103.701 22.0288 101.217 20.0496 98.5742 18.3722C93.7478 15.3326 88.592 14.2862 83.0966 14.9225C79.5881 15.3365 76.2392 16.4557 72.8733 17.4906C71.702 17.8828 70.5884 18.4678 69.5686 19.2269C66.9737 21.0821 64.4331 23.0177 61.9062 24.9764C59.2971 26.9766 57.0159 29.4732 55.1642 32.3548C54.0672 34.0873 53.0482 35.8927 51.8323 37.514C49.9541 40.0208 48.5887 42.8457 47.3252 45.7626C47.1014 46.3288 46.9153 46.913 46.7682 47.5104C46.7402 47.6666 46.6592 47.8043 46.5423 47.8938C46.4255 47.9834 46.2823 48.0177 46.1433 47.9895C46.064 47.9768 45.9879 47.9458 45.9197 47.8985C45.8515 47.8512 45.7927 47.7886 45.7468 47.7146C45.701 47.6405 45.6691 47.5566 45.6531 47.4681C45.6372 47.3796 45.6376 47.2883 45.6542 47.1999C45.7115 46.8059 45.8071 46.4203 45.9395 46.05C46.983 43.1214 48.3735 40.366 50.073 37.859C51.0919 36.391 52.0633 34.8884 53.0211 33.3667C54.8891 30.3924 56.8692 27.5215 59.4947 25.3175C60.2147 24.7081 61.0537 24.2635 61.6039 23.401C62.847 22.8338 63.8014 21.7682 64.9154 20.9786C65.6287 20.4726 66.437 20.0932 67.0042 19.3419C67.4528 19.1856 67.8671 18.9244 68.2202 18.5753C69.8578 17.3072 71.6799 16.3732 73.6035 15.8156C74.0994 15.7538 74.5807 15.5887 75.0232 15.3288C75.1777 15.352 75.3341 15.352 75.4886 15.3288C77.8134 14.5162 80.2018 13.9565 82.6211 13.6576C84.9249 13.3441 87.2529 13.3274 89.56 13.6078C93.7546 14.1751 97.5824 15.9727 101.125 18.5677C102.806 19.798 104.379 21.1894 105.989 22.531C106.359 22.9679 106.668 22.9142 107.109 22.531C110.791 19.4646 114.775 16.9655 118.868 14.6772C119.547 14.2939 120.247 13.9949 120.998 13.627C120.811 13.4507 120.729 13.3548 120.634 13.282C120.403 13.1172 120.165 12.9562 119.924 12.8067C113.713 8.9585 107.076 6.05964 100.188 4.18637C95.0272 2.78092 89.7538 1.97056 84.4484 1.76777C81.5426 1.65259 78.6334 1.71145 75.7331 1.94408C64.3128 2.82785 53.1936 6.46814 43.1272 12.6189C35.1801 17.447 28.0162 23.7613 21.9402 31.2931C15.9897 38.6565 11.181 47.0985 7.71589 56.2649C4.09633 65.7905 2.02545 75.9734 1.60229 86.3269C1.33969 92.6269 1.69967 98.9404 2.67556 105.151C4.38717 116.2 7.99621 126.765 13.2996 136.251C16.1798 141.398 19.5288 146.191 23.292 150.552C24.9576 152.564 26.7648 154.42 28.6957 156.102C29.3377 156.953 30.1732 157.551 30.9374 158.237C41.2188 167.361 53.3635 173.43 66.2604 175.888C69.864 176.57 73.4813 177.122 77.129 177.141C80.1553 177.141 83.1781 177.226 86.2077 176.938C89.0638 176.689 91.9068 176.277 94.726 175.704C99.2838 174.747 103.76 173.348 108.105 171.522C114.41 168.862 120.401 165.339 125.946 161.031C126.313 160.748 126.751 160.502 126.941 159.977C126.816 159.912 126.741 159.836 126.683 159.847C122.982 160.664 119.238 161.209 115.475 161.48C112.418 161.706 109.361 162.036 106.305 162.189C104.301 162.289 102.303 162.453 100.3 162.549C99.0871 162.607 97.8609 162.618 96.6552 162.795C94.0026 163.178 91.333 163.339 88.6702 163.458C82.5566 163.722 76.4769 163.458 70.3803 163.232C70.3022 163.232 70.2241 163.232 70.146 163.232C66.5491 162.871 62.9353 162.714 59.352 162.197C57.7965 161.97 56.2477 161.683 54.6955 161.43C54.1419 161.334 53.7105 161.085 53.7241 160.341C53.8872 160.073 54.1181 159.797 54.4034 159.989C55.0521 160.433 55.762 160.326 56.4651 160.456C60.0789 161.139 63.7301 161.396 67.3778 161.66C71.3007 161.947 75.2338 162.043 79.1669 162.197C83.5725 162.353 87.9823 162.255 92.3791 161.905C95.908 161.629 99.4335 161.246 102.973 161.112C104.545 161.051 106.114 160.943 107.683 160.821C110.428 160.602 113.172 160.322 115.916 160.127C119.73 159.871 123.519 159.259 127.244 158.298C135.962 155.999 144.056 151.886 152.038 147.505C154.496 146.176 156.691 144.3 158.491 141.989C159.198 141.165 159.767 140.204 160.172 139.153C156.487 139.099 152.931 139.854 149.354 140.41C143.625 141.295 137.895 141.916 132.087 141.74C126.7 141.575 121.317 141.468 115.947 140.904C111.759 140.468 107.558 140.165 103.38 139.693C99.3082 139.246 95.215 139.095 91.1258 139.241C88.069 139.344 85.0122 139.624 81.9248 139.544C79.7656 139.51 77.6104 139.324 75.4716 138.988C73.9398 138.727 72.4691 138.221 71.2396 137.102C69.8063 135.807 68.9674 134.162 69.1678 132.016C69.2485 130.995 69.4924 129.999 69.8878 129.076C71.3523 125.717 73.4369 122.75 76.0014 120.375C77.9304 118.584 80.3645 117.632 82.8622 117.692C88.8026 117.692 94.7498 117.569 100.649 118.501C103.92 119.018 107.198 119.474 110.499 119.727C112.442 119.869 114.395 120.214 116.368 120.095ZM132.209 140.356C135.928 140.47 139.65 140.308 143.35 139.87C145.805 139.548 148.268 139.283 150.71 138.819C153.494 138.25 156.309 137.891 159.136 137.746C162.474 137.573 165.779 136.911 168.966 135.776C170.565 135.236 172.066 134.484 172.905 132.656C173.924 130.398 174.315 128.056 173.676 125.588C173.378 124.411 173.136 124.231 172.06 124.519C170.759 124.885 169.443 125.176 168.116 125.392C163.755 126.04 159.418 126.868 155.081 127.692C150.856 128.49 146.617 129.195 142.334 129.367C138.258 129.528 134.162 129.616 130.08 129.927C126.904 130.172 123.715 130.253 120.546 130.567C116.324 130.985 112.146 130.567 107.979 130.042C105.601 129.739 103.224 129.436 100.829 129.179C97.7726 128.854 94.7158 128.562 91.659 128.271C87.9229 127.918 84.1869 127.888 80.6172 129.49C80.5092 129.55 80.3951 129.595 80.2775 129.624C80.1819 129.651 80.081 129.642 79.9902 129.599C79.8994 129.555 79.8238 129.479 79.7749 129.383C79.724 129.287 79.6971 129.178 79.6971 129.066C79.6971 128.955 79.724 128.846 79.7749 128.75C79.9096 128.528 80.1111 128.369 80.3421 128.302C81.2538 127.888 82.193 127.556 83.1509 127.309C86.7817 126.458 90.4295 126.78 94.0773 127.125C96.268 127.332 98.4553 127.593 100.646 127.842C102.48 128.054 104.315 128.275 106.152 128.505C108.961 128.865 111.773 129.214 114.599 129.383C118.776 129.636 122.93 129.084 127.084 128.8C131.323 128.509 135.575 128.206 139.804 128.125C143.812 128.045 147.81 127.648 151.769 126.937C157.628 125.902 163.477 124.81 169.343 123.806C171.854 123.45 174.278 122.537 176.475 121.119C178.316 119.873 179.192 117.983 179.624 115.753C179.723 115.135 179.638 114.497 179.382 113.94C178.214 111.122 176.516 110.314 173.907 111.325C173.833 111.352 173.755 111.371 173.683 111.402C169.893 113.012 166.092 114.603 162.424 116.534C157.093 119.304 151.33 120.862 145.466 121.119C141.577 121.326 137.688 121.502 133.795 121.575C129.074 121.667 124.353 121.644 119.629 121.663C119 121.663 118.369 121.663 117.744 121.605C114.921 121.376 112.095 121.222 109.28 120.931C106.563 120.659 103.886 120.302 101.2 119.915C98.5938 119.492 95.9707 119.216 93.3403 119.091C89.7197 118.98 86.0991 119.026 82.4716 119.022C80.4495 119.028 78.4887 119.806 76.9083 121.23C74.8059 123.043 73.2571 125.373 71.8136 127.803C71.1375 128.952 70.6657 130.238 70.4245 131.59C70.2922 132.22 70.297 132.876 70.4384 133.503C70.5797 134.129 70.8535 134.708 71.2362 135.19C72.1475 136.373 73.3949 137.163 74.7651 137.424C78.6506 138.321 82.5769 138.283 86.5134 138.133C90.1646 137.991 93.8056 137.708 97.4704 137.869C101.244 138.041 105 138.448 108.753 138.846C112.941 139.287 117.129 139.693 121.32 139.996C124.999 140.284 128.697 140.429 132.209 140.356ZM151.661 33.7271C151.847 33.7271 152.123 33.7271 152.398 33.7271C153.471 33.7539 153.447 33.7539 153.474 32.4813C153.539 29.4955 152.656 26.8277 151.348 24.3018C149.776 21.2584 147.456 19.1119 144.813 17.3526C137.869 12.7301 130.535 11.736 122.811 14.3706C121.27 14.906 119.776 15.6001 118.348 16.4442C114.914 18.4164 111.581 20.6033 108.363 22.9947C107.391 23.7268 107.378 23.8342 108.156 24.7771C110.477 27.5872 112.13 31.016 112.958 34.7428C113.171 35.6857 113.363 36.635 113.536 37.5907C113.644 38.204 113.896 38.4148 114.442 38.2346C115.081 38.02 115.733 37.8513 116.385 37.6827C123.56 35.9195 130.829 34.6852 138.146 33.9877C141.672 33.6683 145.205 33.5405 148.746 33.6044C149.687 33.5776 150.628 33.6619 151.661 33.7271ZM76.9388 73.6282C79.0344 75.0503 81.2285 76.2232 83.3683 77.5149C85.7976 78.973 88.3964 80.0387 91.0884 80.6809C93.0482 81.16 95.0385 81.3938 97.0254 81.6813C99.1622 82.0458 101.333 82.0858 103.479 81.8001C107.293 81.2099 111.063 80.3206 114.843 79.5004C118.432 78.7081 121.896 77.3168 125.121 75.3722C126.877 74.3373 128.296 72.9613 128.857 70.6807C129.03 69.9639 129.404 69.3085 129.638 68.6032C130.399 66.3034 129.978 64.1263 128.823 62.1485C128.116 60.922 126.938 60.2933 125.729 59.8487C124.275 59.3121 122.815 58.7832 121.337 58.3424C115.903 56.7172 110.424 55.322 104.712 56.1001C101.858 56.4241 99.032 56.9982 96.2578 57.8173C90.6978 59.5804 85.9904 63.0684 81.5648 67.116C81.1174 67.5507 80.7121 68.0377 80.3557 68.5687C79.4624 69.8068 78.5861 71.064 77.72 72.325C77.4483 72.7467 77.0917 73.1031 76.9422 73.6206L76.9388 73.6282ZM112.666 40.1856C114.317 41.7916 115.838 43.1868 117.272 44.6893C118.352 45.8392 119.51 46.6058 121.008 46.6058C121.361 46.6334 121.71 46.7146 122.044 46.8473C123.915 47.4912 125.525 48.4916 126.204 50.7684C126.544 51.8992 126.344 51.9183 127.587 51.4277C129.655 50.5883 131.7 49.6492 133.812 48.9746C139.659 47.0588 145.635 45.6871 151.681 44.8733C156.681 44.237 161.687 43.7234 166.717 43.5931C167.736 43.5663 168.755 43.5931 169.733 43.5931C169.771 43.477 169.785 43.3526 169.773 43.2296C169.761 43.1065 169.724 42.9883 169.665 42.884C169.213 41.6153 168.307 40.8219 167.322 40.1626C162.787 37.1384 157.937 35.2104 152.625 35.0724C149.908 35.0034 147.208 34.8501 144.494 34.9574C141.155 35.0878 137.81 35.1376 134.495 35.6397C129.061 36.4676 123.599 37.2649 118.219 38.5796C116.346 39.0018 114.493 39.5353 112.669 40.1779L112.666 40.1856ZM130.942 63.2907C132.006 62.0122 133.14 60.8113 134.339 59.6954C136.074 58.0894 137.824 56.5179 139.858 55.391C142.386 54.0547 145.043 53.0528 147.775 52.4051C149.712 51.8315 151.676 51.3836 153.658 51.0636C156.282 50.782 158.919 50.6821 161.554 50.7646C165.213 50.7776 168.853 51.3567 172.372 52.4856C174.726 53.2522 176.991 54.2373 179.029 55.8164C179.671 56.3147 179.844 56.1997 179.872 55.368C179.919 53.8693 179.454 52.6619 178.224 51.9566C177.122 51.2734 175.953 50.7395 174.739 50.366C171.224 49.4039 167.668 48.6756 164.03 48.6526C162.38 48.6526 160.726 48.6948 159.072 48.6526C155.06 48.539 151.055 49.0891 147.184 50.2855C141.641 51.9643 136.125 53.7351 130.813 56.2112C130.638 56.3072 130.452 56.3743 130.26 56.4105C130.181 56.4208 130.102 56.4073 130.029 56.3714C129.957 56.3355 129.895 56.2785 129.848 56.2063C129.802 56.1341 129.773 56.0493 129.766 55.9606C129.758 55.8718 129.771 55.7824 129.805 55.7015C129.854 55.556 129.933 55.4255 130.035 55.3204C130.137 55.2153 130.259 55.1384 130.392 55.0958C130.966 54.8122 131.54 54.5209 132.128 54.2641C137.043 52.131 142.071 50.3478 147.184 48.9248C150.397 48.001 153.637 47.3264 156.952 47.3494C158.525 47.3494 160.101 47.3494 161.673 47.2996C165.134 47.2312 168.592 47.5756 171.988 48.3268C173.401 48.6373 174.79 49.0551 176.224 49.446C176.003 48.1352 175.714 47.5296 174.753 46.9853C172.739 45.8661 170.654 44.9423 168.361 44.904C167.023 44.881 165.681 44.904 164.35 44.9883C161.527 45.1991 158.705 45.4138 155.889 45.7051C152.914 46.0155 149.956 46.4487 147.004 46.9546C143.818 47.5066 140.694 48.392 137.559 49.2161C134.207 50.1654 130.916 51.3691 127.709 52.8191C127.199 53.0375 126.721 53.1717 126.924 54.1069C127.172 55.2568 126.67 55.6401 125.634 55.1917C121.819 53.5282 117.822 52.8306 113.78 52.4856C108.796 52.0224 103.78 52.3488 98.8765 53.4553C93.561 54.6934 88.8026 57.1158 84.7439 61.2286C83.2258 62.8425 81.4664 64.1402 79.5473 65.0616C76.4905 66.4414 73.3012 67.1467 70.1018 67.8443C68.5191 68.1931 66.9193 68.4384 65.4792 69.3315C64.3992 70.0023 64.2871 70.742 65.1396 71.7731C66.0566 72.9 67.2318 73.1185 68.4953 72.8233C69.4101 72.5703 70.3414 72.4011 71.2804 72.3174C72.6196 72.2598 73.9567 72.4834 75.2236 72.9766C75.308 73.0268 75.4004 73.0572 75.4954 73.066C75.5904 73.0748 75.6861 73.0618 75.7765 73.0277C75.8669 72.9937 75.9503 72.9394 76.0217 72.868C76.093 72.7967 76.1508 72.7097 76.1916 72.6125C76.5616 71.9836 76.9666 71.3819 77.4042 70.811C78.5318 69.3315 79.3435 67.5338 80.6783 66.2766C83.7046 63.4287 86.9074 60.8453 90.4703 58.9058C95.8027 56.0043 101.519 54.931 107.364 54.5477C109.293 54.4212 111.202 54.7355 113.114 55.0154C117.737 55.6861 122.19 57.1235 126.581 58.7985C128.347 59.4693 129.764 60.715 130.521 62.7503C130.548 62.8714 130.601 62.9832 130.675 63.0761C130.749 63.1689 130.842 63.24 130.946 63.2831L130.942 63.2907ZM157.193 59.6609C157.224 59.1679 157.101 58.6783 156.847 58.2757C156.593 57.8731 156.224 57.5824 155.801 57.4531C155.077 57.1656 154.31 57.4531 153.722 58.2389C152.883 59.3581 152.992 60.646 154.031 61.9224C154.175 62.1191 154.355 62.2782 154.559 62.3887C154.763 62.4993 154.985 62.5586 155.211 62.5626C155.438 62.5666 155.662 62.5152 155.868 62.4119C156.075 62.3087 156.26 62.156 156.409 61.9645C156.912 61.3279 157.192 60.5062 157.197 59.6532L157.193 59.6609ZM152.099 58.1047C152.075 57.3611 151.593 56.652 151.117 56.6597C150.519 56.6597 150.058 57.3458 150.098 58.1584C150.139 58.971 150.536 59.5306 151.117 59.5076C151.265 59.4905 151.409 59.4402 151.539 59.3597C151.67 59.2791 151.785 59.17 151.878 59.0386C151.97 58.9072 152.039 58.7562 152.079 58.5945C152.119 58.4329 152.131 58.2637 152.112 58.0971L152.099 58.1047ZM153.512 55.8394C153.135 55.8394 152.737 56.3991 152.731 56.8897C152.719 56.9894 152.728 57.0907 152.755 57.1863C152.783 57.2819 152.829 57.3694 152.89 57.4427C152.951 57.5159 153.025 57.5731 153.108 57.61C153.191 57.6469 153.28 57.6627 153.369 57.6563C153.585 57.6265 153.782 57.5054 153.921 57.3175C154.061 57.1296 154.132 56.889 154.12 56.6444C154.122 56.4491 154.061 56.2595 153.95 56.1102C153.838 55.961 153.683 55.8622 153.512 55.8318V55.8394Z" fill="#070607"/>
<path d="M28.7078 156.106C26.7769 154.423 24.9697 152.567 23.3041 150.555C19.5409 146.194 16.1919 141.401 13.3117 136.255C8.0083 126.768 4.39927 116.203 2.68766 105.154C1.71176 98.9439 1.35178 92.6304 1.61439 86.3303C2.03755 75.9769 4.10843 65.7939 7.72799 56.2684C11.189 47.1031 15.9931 38.6611 21.9387 31.2966C33.5174 16.9928 48.8419 7.23655 65.6781 3.45015C68.9981 2.71254 72.3559 2.21072 75.7316 1.94763C78.6353 1.71459 81.5479 1.65573 84.4571 1.77131C89.759 1.97488 95.029 2.78524 100.186 4.18991C107.075 6.05922 113.713 8.95421 119.926 12.7988C120.167 12.9482 120.405 13.1092 120.636 13.274C120.731 13.3469 120.813 13.4427 120.999 13.619C120.249 14.0023 119.542 14.2898 118.87 14.6692C114.777 16.969 110.793 19.4566 107.111 22.523C106.68 22.8833 106.361 22.9446 105.991 22.523C105.991 21.9519 106.422 21.7066 106.697 21.3501C107.933 19.7479 108.691 17.8698 108.531 15.7655C108.435 14.522 108.114 13.314 107.588 12.2157C107.062 11.1175 106.343 10.1524 105.474 9.37975C101.939 6.07957 97.7202 4.83769 93.2776 4.46206C90.3028 4.19797 87.3102 4.54868 84.4469 5.49696C81.621 6.4437 79.0126 7.79673 77.0155 10.3533C75.9048 11.7677 75.0557 13.3507 75.0353 15.3362C74.5977 15.617 74.1173 15.8029 73.619 15.8843C71.6954 16.4419 69.8733 17.3759 68.2356 18.644C67.8825 18.9931 67.4682 19.2543 67.0197 19.4106C67.1794 17.4941 66.3404 16.1986 64.9207 15.3208C64.3696 14.9895 63.786 14.7322 63.1817 14.5542C61.7484 14.1135 60.2914 14.2629 58.8547 14.3358C57.816 14.3546 56.7911 14.607 55.8399 15.0782C54.8887 15.5494 54.0303 16.23 53.3151 17.0802C53.0654 17.3617 52.8674 17.696 52.7322 18.064C52.5971 18.432 52.5276 18.8264 52.5276 19.2247C52.5276 19.623 52.5971 20.0174 52.7322 20.3854C52.8674 20.7534 53.0654 21.0877 53.3151 21.3693C54.7484 23.0596 56.6538 23.3394 58.5694 23.6077C59.5883 23.7534 60.5801 23.3164 61.5956 23.4429C61.0454 24.29 60.2064 24.7346 59.4864 25.3594C56.861 27.571 54.8808 30.4419 53.0128 33.4086C52.055 34.9418 51.087 36.4328 50.0647 37.9008C48.3652 40.4078 46.9747 43.1633 45.9312 46.0919C45.7989 46.4621 45.7032 46.8478 45.6459 47.2418C45.6293 47.3301 45.6289 47.4214 45.6449 47.5099C45.6608 47.5985 45.6927 47.6823 45.7385 47.7564C45.7844 47.8304 45.8433 47.893 45.9114 47.9403C45.9796 47.9876 46.0557 48.0186 46.135 48.0314C46.274 48.0596 46.4172 48.0252 46.5341 47.9357C46.6509 47.8461 46.732 47.7085 46.7599 47.5522C46.907 46.9548 47.0931 46.3706 47.3169 45.8044C48.5804 42.8875 49.9458 40.055 51.824 37.5559C53.04 35.9345 54.0589 34.1292 55.1559 32.3967C57.0097 29.51 59.2945 27.0093 61.9081 25.0067C64.435 23.0366 66.9756 21.101 69.5704 19.2573C70.5903 18.4982 71.7039 17.9131 72.8752 17.521C76.2411 16.4669 79.59 15.3668 83.0985 14.9529C88.5939 14.3013 93.7497 15.3362 98.5761 18.4025C101.219 20.08 103.702 22.0592 105.987 24.3091C109.451 27.7013 111.364 32.1054 112.328 37.0959C112.386 37.3987 112.451 37.6977 112.508 38.0043C112.566 38.311 112.695 38.6253 112.355 38.8169C112.016 39.0086 111.731 39.25 111.364 39.0047C111.163 38.8646 110.971 38.7083 110.79 38.5371C107.575 35.6361 103.708 33.8031 99.6222 33.2438C95.6212 32.6382 91.6236 32.9065 87.6226 33.4393C81.876 34.2346 76.3302 36.3281 71.3162 39.595C69.4278 40.8024 67.75 42.3547 66.0212 43.8113C65.6944 44.0648 65.4452 44.4263 65.3079 44.8462C65.271 44.938 65.2505 45.0372 65.2476 45.138C65.2447 45.2388 65.2594 45.3392 65.291 45.4336C65.3225 45.5279 65.3702 45.6143 65.4314 45.6878C65.4926 45.7613 65.5661 45.8205 65.6476 45.8619C66.0042 46.0804 66.2521 45.8619 66.388 45.4786C66.5394 45.1145 66.7738 44.8023 67.0673 44.574C71.9653 40.0872 77.7364 36.9752 83.9068 35.4937C88.4102 34.3762 93.0305 33.9788 97.6319 34.3132C102.492 34.6965 106.921 36.4558 110.674 40.124C112.515 41.9254 114.431 43.6349 116.312 45.3828C116.492 45.5514 116.713 45.6779 116.774 45.9692C116.625 46.3525 116.306 46.2107 116.061 46.2145C112.756 46.3065 109.452 46.3257 106.15 46.4982C103.366 46.7046 100.597 47.1143 97.8594 47.7247C95.607 48.1251 93.38 48.6897 91.1922 49.4151C88.0259 50.5261 85.1114 52.4002 82.6502 54.9077C79.6949 57.9858 76.2887 60.4616 72.5831 62.2248C71.7849 62.6081 70.946 62.8496 70.1377 63.1907C69.7335 63.3632 69.0338 63.344 69.2172 64.1106C69.4006 64.8772 69.9882 64.4939 70.4094 64.3674C72.8708 63.5736 75.2306 62.4231 77.4298 60.9446C79.6952 59.4171 81.8135 57.6277 83.7506 55.6053C86.9263 52.3933 90.7099 50.6531 94.823 49.7447C98.0972 49.0203 101.371 48.2498 104.71 47.9585C105.457 47.8972 106.201 47.832 106.948 47.8244C110.606 47.786 114.257 47.4411 117.919 47.5676C119.256 47.6155 120.585 47.825 121.882 48.1923C124.158 48.8171 125.469 50.7911 125.51 53.616C123.734 53.0257 121.967 52.4929 120.167 52.1058C117.581 51.5475 114.964 51.1839 112.335 51.0172C107.421 50.7178 102.494 51.1755 97.6896 52.3779C92.7478 53.6006 88.2713 55.8966 84.5182 59.7334C81.6861 62.6481 78.1991 64.6289 74.4376 65.4598C72.1687 65.985 69.8931 66.4947 67.6277 67.0467C66.5029 67.2801 65.429 67.7578 64.4656 68.4534C63.338 69.3158 63.0866 70.5807 63.7591 71.9299C64.6626 73.7352 66.5952 74.613 68.6806 74.1415C69.3599 73.9882 70.0629 73.785 70.7626 73.7007C73.4798 73.3749 75.8573 74.4673 78.1567 75.9162C83.591 79.408 89.2121 82.3057 95.5838 82.7925C97.0341 82.9037 98.4674 83.2295 99.9245 83.2985C102.384 83.4134 104.792 82.9918 107.183 82.4667C110.345 81.7653 113.541 81.267 116.666 80.3816C120.228 79.3735 123.652 77.9591 126.797 75.782C127.137 75.552 127.476 75.3451 127.816 75.1381C127.877 75.1036 127.966 75.1381 128.088 75.1381C127.969 76.7862 127.921 78.4153 127.154 79.8909C126.772 80.6744 126.219 81.3342 125.547 81.8074C123.349 83.2939 120.908 84.2675 118.371 84.6707C116.224 84.9771 114.064 85.1461 111.9 85.1766C108.911 85.2954 105.943 85.6902 102.964 85.9164C98.6814 86.246 94.4087 86.3802 90.1223 85.8282C87.1199 85.4449 84.2804 84.479 81.4512 83.3904C80.2998 82.9497 79.1382 82.5395 77.9766 82.1217C77.7901 82.0531 77.5977 82.0068 77.4026 81.9837C77.1173 81.9531 76.8287 81.9837 76.7234 82.367C76.6181 82.7503 76.8185 83.0378 77.1377 83.195C77.3515 83.307 77.5717 83.403 77.7966 83.4824C80.4051 84.3257 82.9321 85.4487 85.5473 86.2652C87.2974 86.7821 89.0838 87.1271 90.8865 87.2962C93.9418 87.6373 97.0163 87.7026 100.081 87.4917C103.416 87.2579 106.748 86.9513 110.076 86.6446C112.077 86.4606 114.084 86.4338 116.085 86.3035C119.434 86.0973 122.702 85.065 125.659 83.2793C126.483 82.8002 127.203 82.1204 127.765 81.2892C128.328 80.4579 128.72 79.4959 128.913 78.4727C129.141 77.3034 129.286 76.1152 129.344 74.9196C129.416 73.9345 129.545 73.8732 130.391 74.1262C135.894 75.8433 141.604 76.5678 147.308 76.2726C152.152 75.9852 156.893 75.0039 161.634 73.8924C166.729 72.7041 171.705 71.0943 176.742 69.7068C177.421 69.519 178.1 69.2468 178.851 68.9785C179.03 69.5886 179.049 70.2438 178.906 70.8658C178.763 71.4879 178.465 72.0502 178.046 72.4857C176.853 73.8035 175.293 74.6159 173.631 74.7854C173.318 74.8071 173.017 74.926 172.76 75.129C172.504 75.3319 172.302 75.611 172.177 75.9353C169.98 80.7534 166.685 84.1724 162.117 86.0084C158.953 87.2234 155.679 88.0384 152.355 88.4385C150.482 88.7017 148.595 88.8297 146.707 88.8218C143.056 88.7911 139.388 88.7643 135.794 87.829C135.716 87.8099 135.648 87.7677 135.574 87.7409C135.484 87.6896 135.386 87.6612 135.286 87.6577C135.186 87.6543 135.086 87.6758 134.994 87.7209C134.903 87.7659 134.821 87.8334 134.755 87.9183C134.689 88.0033 134.64 88.1037 134.612 88.2123C134.436 88.7873 134.837 89.0364 135.234 89.1284C136.158 89.343 137.088 89.5347 138.022 89.6612C141.264 90.1126 144.532 90.283 147.797 90.171C152.09 90.0023 156.339 89.4044 160.473 88.0322C160.819 87.8984 161.19 87.8659 161.551 87.9376C161.911 88.0093 162.25 88.183 162.535 88.4423C165.931 91.087 169.059 94.0192 171.562 97.7449C173.76 101.018 174.813 104.79 175.298 108.803C175.383 109.481 174.983 109.524 174.619 109.654C171.807 110.662 169.079 111.927 166.345 113.165C163.503 114.457 160.694 115.848 157.854 117.14C155.213 118.296 152.442 119.035 149.621 119.336C147.75 119.619 145.867 119.785 143.98 119.834C143.909 118.868 143.755 117.911 143.518 116.979C142.709 112.762 140.947 109.221 137.805 106.668C135.584 104.789 132.827 103.9 130.061 104.173C126.763 104.518 123.91 106.193 121.57 108.803C119.532 111.077 117.984 113.85 117.046 116.906C116.706 117.941 116.367 118.98 116.367 120.106C114.393 120.225 112.44 119.88 110.481 119.723C107.186 119.47 103.909 119.014 100.631 118.497C94.7313 117.565 88.7909 117.672 82.8641 117.672C80.3664 117.612 77.9323 118.564 76.0033 120.356C73.4388 122.73 71.3542 125.697 69.8897 129.056C69.4943 129.979 69.2504 130.975 69.1697 131.996C68.9693 134.143 69.8082 135.787 71.2415 137.083C72.471 138.19 73.9417 138.708 75.4735 138.968C77.6123 139.305 79.7675 139.49 81.9267 139.524C84.9835 139.609 88.0607 139.325 91.1277 139.221C95.2168 139.075 99.3101 139.226 103.382 139.674C107.566 140.145 111.768 140.44 115.949 140.885C121.319 141.448 126.702 141.556 132.089 141.72C137.897 141.897 143.637 141.276 149.356 140.39C152.933 139.835 156.489 139.08 160.174 139.133C159.769 140.185 159.199 141.146 158.493 141.97C156.693 144.28 154.498 146.156 152.04 147.485C144.041 151.866 135.947 155.991 127.245 158.279C123.527 159.235 119.746 159.842 115.939 160.096C113.194 160.291 110.45 160.571 107.706 160.789C106.137 160.912 104.567 161.019 102.995 161.081C99.4558 161.215 95.9303 161.598 92.4014 161.874C88.0045 162.224 83.5948 162.321 79.1892 162.166C75.2561 162.024 71.323 161.916 67.4001 161.629C63.7523 161.364 60.1012 161.108 56.4873 160.425C55.8081 160.295 55.0744 160.402 54.4257 159.958C54.1438 159.766 53.9128 160.042 53.7464 160.31C52.8362 160.211 51.9701 160.579 51.0632 160.613C47.4019 160.743 43.8118 160.161 40.1946 159.586C37.2948 159.08 34.4538 158.213 31.7239 156.999C30.7661 156.604 29.8388 155.879 28.7078 156.106ZM7.24909 82.5434C7.10644 85.2264 7.46306 88.22 7.92838 91.2327C8.32884 93.7592 8.99353 96.2231 9.9085 98.5728C11.3588 102.302 13.1793 105.74 16.5112 107.772C18.9227 109.259 21.3647 109.577 23.9324 108.278C26.3099 107.07 28.0082 105.02 29.472 102.678C30.997 100.229 31.9514 97.4843 32.7666 94.6287C33.7346 91.2404 34.1489 87.7294 34.3697 84.2299C34.5974 80.4307 34.3689 76.6143 33.6904 72.8843C32.8379 68.1123 31.4555 63.551 28.6807 59.7219C26.5681 56.8088 24.0275 54.739 20.4239 55.0035C18.4528 55.1431 16.5801 56.0244 15.1051 57.5064C12.2894 60.247 10.547 63.7772 9.33111 67.6753C7.82695 72.443 7.12096 77.4846 7.24909 82.5434ZM48.0811 108.703C48.2519 106.22 48.0158 103.723 47.3849 101.336C46.7056 98.6533 45.7342 96.135 43.7846 94.3029C41.5837 92.2369 39.607 92.0913 37.2193 93.8583C35.3275 95.2573 34.2406 97.3731 33.3677 99.6077C32.3601 102.16 31.7665 104.895 31.6152 107.684C31.4454 111.084 31.4182 114.503 32.2945 117.833C33.0145 120.582 33.9112 123.2 35.9219 125.147C38.1839 127.332 40.7109 127.27 42.9797 125.208C44.8172 123.541 45.8836 121.268 46.6954 118.838C47.8029 115.613 48.2757 112.155 48.0811 108.703ZM29.4788 130.67C29.5807 130.011 29.3498 128.968 29.2003 127.926C28.8063 125.189 28.0761 122.579 26.4832 120.405C24.8902 118.232 22.7471 117.132 20.3696 118.684C19.6659 119.176 19.0618 119.829 18.5966 120.601C17.0342 123.039 16.6335 125.864 16.484 128.742C16.3769 131.443 16.787 134.139 17.6864 136.646C18.2359 138.412 19.1786 139.989 20.4239 141.226C21.9387 142.667 23.6947 142.959 25.3419 141.958C26.3466 141.323 27.171 140.379 27.7195 139.237C28.9693 136.707 29.3973 133.947 29.4788 130.67ZM77.6336 113.966C79.0947 113.984 80.5087 113.383 81.5973 112.283C83.5876 110.164 84.362 106.338 82.572 103.307C81.4071 101.333 79.6919 100.213 77.5861 100.42C74.2236 100.754 71.9548 103.812 71.9548 107.626C71.9514 111.337 74.7127 114.154 77.6336 113.966ZM99.7343 99.8722C99.8484 99.8647 99.9619 99.8481 100.074 99.8224C100.794 99.6 101.517 99.3969 102.224 99.1363C107.431 97.2198 112.125 94.2147 116.56 90.6424C117.579 89.8183 118.598 88.9597 119.597 88.1203C119.811 87.944 119.936 87.737 119.8 87.4457C119.777 87.3724 119.74 87.3055 119.692 87.2489C119.644 87.1923 119.587 87.1474 119.523 87.1169C119.46 87.0863 119.391 87.0709 119.322 87.0714C119.253 87.0719 119.184 87.0884 119.121 87.1199C118.806 87.2955 118.508 87.5075 118.231 87.7524C114.614 90.7497 110.868 93.5018 106.785 95.6368C104.588 96.7867 102.411 98.0554 99.9245 98.2738C99.7313 98.312 99.5459 98.39 99.3776 98.5038C99.2066 98.567 99.0647 98.7042 98.9832 98.8853C98.9017 99.0664 98.8872 99.2766 98.9429 99.4697C99.0652 99.9029 99.4184 99.8684 99.7343 99.8722ZM75.1134 147.815C75.6705 147.815 76.0611 147.796 76.1324 147.294C76.2037 146.791 75.7927 146.684 75.4531 146.577C75.3769 146.559 75.2997 146.548 75.2221 146.542C74.021 146.323 72.8374 145.995 71.683 145.561C70.1038 145.072 68.6344 144.21 67.3721 143.033C66.1098 141.855 65.0833 140.389 64.3603 138.731C64.189 138.382 63.9961 138.048 63.7829 137.73C63.6369 137.497 63.4433 137.347 63.1817 137.512C63.0789 137.58 62.9954 137.679 62.9412 137.799C62.8871 137.918 62.8644 138.053 62.8761 138.186C62.8905 138.364 62.9367 138.536 63.0119 138.692C63.9324 140.774 65.0498 142.694 66.6869 144.162C68.7621 146.044 71.2653 146.845 73.7956 147.527C74.2881 147.662 74.7942 147.746 75.1134 147.815Z" fill="#4A688E"/>
<path d="M132.211 140.356C128.699 140.429 125 140.295 121.312 140.015C117.121 139.697 112.933 139.291 108.745 138.865C104.992 138.482 101.235 138.06 97.462 137.888C93.7972 137.727 90.1562 138.01 86.505 138.152C82.5754 138.302 78.6423 138.34 74.7567 137.443C73.3865 137.182 72.1391 136.392 71.2278 135.208C70.8451 134.727 70.5713 134.148 70.43 133.521C70.2886 132.894 70.2838 132.238 70.4161 131.609C70.6574 130.257 71.1292 128.971 71.8052 127.822C73.2657 125.392 74.8145 123.061 76.8999 121.248C78.4803 119.824 80.4411 119.046 82.4633 119.04C86.0839 119.04 89.7045 118.998 93.3319 119.109C95.9677 119.229 98.5966 119.499 101.208 119.918C103.895 120.301 106.585 120.661 109.288 120.934C112.104 121.217 114.93 121.378 117.752 121.608C118.377 121.658 119.009 121.67 119.637 121.666C124.362 121.647 129.083 121.666 133.804 121.578C137.696 121.501 141.585 121.328 145.474 121.121C151.338 120.858 157.098 119.293 162.426 116.518C166.094 114.601 169.898 112.995 173.685 111.385C173.756 111.354 173.834 111.335 173.909 111.309C176.518 110.297 178.216 111.105 179.384 113.923C179.64 114.48 179.725 115.118 179.625 115.736C179.191 117.982 178.318 119.872 176.477 121.102C174.29 122.52 171.876 123.437 169.375 123.801C163.509 124.805 157.661 125.898 151.802 126.932C147.843 127.643 143.844 128.04 139.836 128.121C135.59 128.201 131.345 128.504 127.116 128.795C122.962 129.079 118.809 129.631 114.631 129.378C111.805 129.209 108.993 128.861 106.184 128.5C104.35 128.265 102.515 128.044 100.678 127.837C98.4877 127.588 96.3004 127.327 94.1097 127.12C90.4619 126.775 86.8141 126.453 83.1833 127.304C82.2254 127.551 81.2862 127.883 80.3745 128.297C80.1448 128.365 79.9445 128.524 79.8106 128.746C79.7597 128.841 79.7328 128.95 79.7328 129.062C79.7328 129.173 79.7597 129.283 79.8106 129.378C79.8596 129.475 79.9352 129.551 80.026 129.594C80.1167 129.638 80.2177 129.647 80.3133 129.62C80.4309 129.59 80.5449 129.545 80.653 129.485C84.2294 127.883 87.9485 127.914 91.6948 128.266C94.7516 128.558 97.8084 128.849 100.865 129.175C103.243 129.432 105.62 129.735 108.015 130.037C112.196 130.574 116.373 130.98 120.582 130.563C123.75 130.248 126.94 130.179 130.115 129.922C134.191 129.612 138.284 129.539 142.37 129.363C146.653 129.19 150.891 128.485 155.117 127.688C159.454 126.867 163.791 126.039 168.152 125.388C169.474 125.171 170.786 124.879 172.082 124.514C173.159 124.226 173.4 124.406 173.699 125.583C174.337 128.063 173.964 130.394 172.928 132.652C172.089 134.48 170.587 135.231 168.988 135.772C165.801 136.906 162.497 137.569 159.158 137.742C156.331 137.887 153.516 138.246 150.732 138.815C148.29 139.279 145.827 139.544 143.372 139.866C139.665 140.306 135.937 140.47 132.211 140.356Z" fill="#439C51"/>
<path d="M28.71 156.102C29.841 155.876 30.7682 156.601 31.7362 157.011C34.4661 158.225 37.3071 159.092 40.2069 159.598C43.8139 160.173 47.404 160.748 51.0755 160.625C51.9824 160.591 52.8485 160.223 53.7587 160.322C53.7587 161.066 54.1765 161.315 54.7301 161.411C56.2823 161.672 57.8311 161.959 59.3866 162.178C62.9699 162.695 66.5837 162.852 70.1805 163.212C70.2587 163.212 70.3368 163.212 70.4149 163.212C76.5115 163.431 82.6081 163.703 88.7048 163.439C91.3676 163.32 94.0372 163.17 96.6898 162.776C97.8955 162.599 99.1216 162.588 100.334 162.53C102.338 162.434 104.335 162.27 106.339 162.17C109.396 162.017 112.453 161.687 115.509 161.461C119.26 161.189 122.992 160.645 126.68 159.832C126.738 159.832 126.813 159.897 126.939 159.962C126.748 160.487 126.31 160.729 125.943 161.016C120.399 165.323 114.407 168.847 108.102 171.507C103.757 173.332 99.281 174.732 94.7233 175.689C91.904 176.262 89.061 176.674 86.205 176.923C83.1753 177.21 80.1525 177.141 77.1263 177.126C73.4683 177.107 69.8511 176.555 66.2577 175.873C53.368 173.416 41.2295 167.353 30.9516 158.237C30.1874 157.551 29.3519 156.953 28.71 156.102Z" fill="#384E6B"/>
<path d="M151.663 33.7248C150.644 33.6673 149.689 33.583 148.748 33.5677C145.209 33.5115 141.676 33.6392 138.148 33.951C130.831 34.6485 123.562 35.8827 116.387 37.6458C115.735 37.8029 115.083 37.9831 114.444 38.1977C113.897 38.3778 113.646 38.167 113.537 37.5538C113.368 36.6007 113.175 35.6514 112.96 34.706C112.129 30.9862 110.477 27.5645 108.158 24.7599C107.38 23.8171 107.393 23.7097 108.365 22.9777C111.583 20.5903 114.917 18.4073 118.35 16.4389C119.778 15.5949 121.272 14.9008 122.813 14.3654C130.53 11.7335 137.864 12.7275 144.815 17.3473C147.458 19.1066 149.778 21.2529 151.35 24.2962C152.658 26.822 153.541 29.4896 153.476 32.4753C153.449 33.7478 153.476 33.7478 152.4 33.721C152.124 33.7248 151.849 33.7248 151.663 33.7248Z" fill="#4A688E"/>
<path d="M76.9434 73.6204C77.086 73.1029 77.4494 72.7465 77.7313 72.3363C78.5974 71.0752 79.4737 69.818 80.367 68.5799C80.7235 68.0488 81.1288 67.5619 81.5761 67.1272C85.9915 63.0794 90.7092 59.5913 96.2691 57.8281C99.0433 57.0091 101.87 56.4349 104.723 56.1109C110.436 55.3443 115.901 56.728 121.348 58.3532C122.826 58.794 124.286 59.323 125.74 59.8596C126.949 60.3043 128.118 60.9329 128.834 62.1595C129.979 64.1374 130.41 66.3069 129.649 68.6144C129.415 69.3197 129.041 69.9751 128.868 70.6919C128.308 72.9726 126.888 74.3487 125.132 75.3836C121.907 77.3282 118.443 78.7196 114.854 79.5118C111.074 80.313 107.304 81.2022 103.49 81.8117C101.344 82.0973 99.1735 82.0574 97.0367 81.6929C95.0498 81.4054 93.0595 81.1716 91.0997 80.6924C88.4077 80.0503 85.8089 78.9845 83.3796 77.5263C81.2331 76.2154 79.039 75.0425 76.9434 73.6204ZM99.6248 80.8266C101.44 80.8059 103.241 80.4737 104.967 79.8415C106.982 79.1685 108.753 77.7832 110.018 75.8896C110.877 74.5037 111.506 72.9528 111.872 71.3129C112.976 67.0198 111.353 63.6467 108.918 60.5803C108.837 60.4818 108.743 60.3989 108.639 60.3349C107.573 59.6718 106.55 58.886 105.429 58.3762C103.752 57.6096 101.982 56.9963 100.148 57.2761C97.9141 57.5638 95.7653 58.4097 93.8577 59.7523C93.2077 60.1783 92.6479 60.7591 92.2172 61.4542C91.14 63.2605 90.3493 65.2643 89.8804 67.3763C89.5266 68.9283 89.4196 70.5389 89.5646 72.1332C90.1793 77.327 94.846 81.4936 99.6248 80.8266Z" fill="#F3C6FA"/>
<path d="M157.943 72.9119C159.302 71.8464 160.643 70.758 161.679 69.2824C163.578 66.5995 164.057 63.7595 162.807 60.4672C161.312 56.554 158.758 54.469 155.114 53.6641C153.224 53.244 151.267 53.4394 149.472 54.2275C148.082 54.7579 146.895 55.8087 146.106 57.2055C145.027 59.116 144.284 61.2438 143.919 63.472C143.642 65.3236 143.793 67.2246 144.357 68.9911C145.2 71.8235 147.017 73.4064 149.557 73.9928C150.131 74.1269 150.722 74.1614 151.31 74.2419C151.347 74.3377 151.381 74.4374 151.418 74.537C145.793 75.3419 140.089 75.1154 134.528 73.8663C133.023 73.529 131.532 73.1649 130.065 72.6628C129.61 72.5057 129.481 72.3064 129.685 71.8196C129.888 71.3329 130 70.9113 130.194 70.4782C130.841 69.1505 131.178 67.6587 131.172 66.1434C131.152 65.0971 131.675 64.319 132.296 63.6023C136.393 58.8689 141.127 55.4578 146.939 53.9554C151.092 52.8823 155.236 52.0391 159.505 52.0391C165.014 52.0391 170.405 52.7481 175.55 55.1052C177.051 55.7641 178.433 56.7279 179.626 57.9491C182.435 60.9003 181.552 66.2354 177.951 67.8911C176.746 68.4468 175.455 68.6576 174.215 69.0639C169.121 70.712 163.945 72.0381 158.748 73.2109C158.527 72.9924 158.055 73.5903 157.943 72.9119Z" fill="#F3C6FA"/>
<path d="M112.67 40.1767C114.498 39.5323 116.355 38.9974 118.233 38.5745C123.623 37.2597 129.058 36.4624 134.509 35.6422C137.824 35.14 141.169 35.0902 144.508 34.9599C147.225 34.8525 149.942 35.0059 152.639 35.0749C157.951 35.2129 162.801 37.1409 167.336 40.1652C168.324 40.8245 169.227 41.6179 169.679 42.8867C169.738 42.9909 169.775 43.1092 169.787 43.2322C169.799 43.3553 169.785 43.4797 169.747 43.5958C168.762 43.5958 167.747 43.5728 166.731 43.5958C161.701 43.7261 156.695 44.2398 151.695 44.876C145.645 45.6877 139.664 47.0582 133.813 48.9736C131.7 49.6482 129.656 50.5873 127.587 51.4268C126.344 51.9327 126.541 51.8982 126.205 50.7675C125.525 48.4906 123.916 47.4902 122.044 46.8462C121.71 46.7135 121.362 46.6323 121.008 46.6048C119.5 46.5818 118.342 45.8151 117.272 44.6882C115.842 43.178 114.321 41.7751 112.67 40.1767Z" fill="#4A688E"/>
<path d="M130.948 63.2815C130.843 63.2404 130.748 63.1706 130.672 63.0784C130.596 62.9862 130.542 62.8743 130.513 62.7526C129.756 60.7328 128.34 59.4719 126.574 58.8012C122.182 57.1263 117.743 55.6891 113.107 55.0184C111.194 54.7386 109.286 54.4243 107.357 54.5508C101.511 54.9341 95.8086 56.0072 90.4626 58.9085C86.8997 60.8478 83.6969 63.431 80.6706 66.2787C79.3358 67.5358 78.5241 69.3448 77.3965 70.8127C76.9589 71.3835 76.5539 71.9852 76.1839 72.614C76.1431 72.7113 76.0853 72.7982 76.014 72.8695C75.9426 72.9409 75.8592 72.9952 75.7688 73.0292C75.6784 73.0632 75.5828 73.0762 75.4877 73.0675C75.3927 73.0587 75.3003 73.0283 75.2159 72.9781C73.949 72.4849 72.6119 72.2614 71.2727 72.3189C70.3338 72.4027 69.4024 72.5719 68.4876 72.8248C67.2241 73.1199 66.0489 72.9015 65.1319 71.7747C64.293 70.7437 64.4051 70.004 65.4715 69.3333C66.9116 68.4403 68.5283 68.1835 70.0941 67.8462C73.2936 67.1487 76.4896 66.4435 79.5396 65.0637C81.4588 64.1424 83.2181 62.8448 84.7362 61.2311C88.8119 57.1187 93.5669 54.6964 98.8688 53.4585C103.773 52.3452 108.79 52.0124 113.776 52.4697C117.807 52.8146 121.815 53.5121 125.629 55.1755C126.665 55.6278 127.168 55.2483 126.92 54.0909C126.716 53.1557 127.195 53.0216 127.705 52.8031C130.912 51.3533 134.203 50.1496 137.554 49.2004C140.689 48.3764 143.814 47.4911 147 46.9392C149.951 46.4333 152.91 46.0002 155.885 45.6897C158.701 45.3984 161.523 45.1838 164.345 44.973C165.677 44.8734 167.018 44.8657 168.357 44.8887C170.649 44.927 172.735 45.8507 174.749 46.9698C175.71 47.5026 175.999 48.1196 176.219 49.4304C174.786 49.0471 173.397 48.6217 171.984 48.3113C168.587 47.5601 165.13 47.2158 161.669 47.2841C160.097 47.3186 158.521 47.3454 156.948 47.3339C153.619 47.3109 150.393 47.9855 147.18 48.9091C142.067 50.332 137.038 52.1151 132.123 54.248C131.536 54.5048 130.962 54.7961 130.388 55.0797C130.255 55.1223 130.133 55.1991 130.031 55.3042C129.929 55.4093 129.85 55.5398 129.8 55.6852C129.767 55.7662 129.754 55.8556 129.761 55.9443C129.769 56.0331 129.798 56.1179 129.844 56.1901C129.89 56.2622 129.953 56.3192 130.025 56.3551C130.097 56.391 130.177 56.4045 130.255 56.3943C130.447 56.358 130.634 56.2909 130.809 56.195C136.121 53.7076 141.637 51.9484 147.18 50.2697C151.05 49.0735 155.055 48.5234 159.067 48.637C160.721 48.6869 162.376 48.637 164.026 48.637C167.664 48.66 171.22 49.4036 174.735 50.3502C175.948 50.7237 177.118 51.2576 178.22 51.9408C179.449 52.646 179.918 53.8571 179.867 55.3518C179.84 56.195 179.667 56.2985 179.025 55.8002C176.987 54.2212 174.722 53.2324 172.368 52.4697C168.849 51.3409 165.209 50.7618 161.55 50.7488C158.915 50.6664 156.278 50.7662 153.653 51.0478C151.671 51.3678 149.707 51.8157 147.771 52.3892C145.039 53.0368 142.382 54.0386 139.854 55.3748C137.816 56.5016 136.07 58.0577 134.334 59.6789C133.139 60.7975 132.008 62.0009 130.948 63.2815Z" fill="#4A688E"/>
<path d="M116.368 120.097C116.368 118.97 116.708 117.931 117.047 116.896C117.988 113.835 119.541 111.058 121.585 108.783C123.939 106.173 126.792 104.498 130.076 104.153C132.842 103.88 135.599 104.769 137.82 106.648C140.962 109.2 142.725 112.749 143.533 116.958C143.77 117.89 143.924 118.846 143.995 119.813C140.867 120.158 137.725 120.024 134.59 120.166C129.332 120.399 124.061 120.38 118.817 120.342C117.995 120.353 117.187 120.15 116.368 120.097Z" fill="#384E6B"/>
<path d="M75.0254 15.3311C75.0458 13.3497 75.8949 11.7669 77.0055 10.3489C78.9958 7.80407 81.6111 6.4397 84.4369 5.49307C87.3002 4.5449 90.2928 4.19423 93.2677 4.45829C97.7102 4.84154 101.929 6.07561 105.464 9.3754C106.333 10.1479 107.052 11.113 107.578 12.2111C108.104 13.3091 108.425 14.517 108.521 15.7604C108.681 17.8644 107.923 19.7423 106.687 21.3443C106.412 21.7008 105.984 21.946 105.981 22.5171C104.371 21.1757 102.798 19.7845 101.117 18.5543C97.5744 15.9597 93.7466 14.1622 89.552 13.595C87.2448 13.3146 84.9169 13.3313 82.613 13.6448C80.1937 13.9437 77.8053 14.5032 75.4805 15.3158C75.33 15.343 75.177 15.3482 75.0254 15.3311Z" fill="#384E6B"/>
<path d="M61.6078 23.4366C60.5889 23.3101 59.6005 23.7471 58.5816 23.6014C56.666 23.3331 54.7606 23.0533 53.3273 21.3631C53.0769 21.0823 52.8781 20.7485 52.7421 20.381C52.6061 20.0134 52.5356 19.6193 52.5347 19.221C52.5337 18.8226 52.6023 18.428 52.7366 18.0597C52.8708 17.6913 53.0681 17.3564 53.3171 17.0741C54.0301 16.2184 54.8874 15.5322 55.8387 15.0556C56.79 14.5791 57.8161 14.3219 58.8567 14.2991C60.2934 14.2263 61.7505 14.0768 63.1838 14.5176C63.788 14.6955 64.3716 14.9528 64.9227 15.2841C66.3289 16.1619 67.1814 17.4497 67.0217 19.3738C66.4545 20.1404 65.6462 20.5237 64.9329 21.0104C63.8053 21.8038 62.8509 22.8694 61.6078 23.4366Z" fill="#384E6B"/>
<path d="M157.198 59.6559C157.187 60.5061 156.904 61.3231 156.399 61.9549C156.25 62.1464 156.066 62.299 155.859 62.4022C155.652 62.5054 155.428 62.5568 155.202 62.5528C154.976 62.5488 154.753 62.4895 154.55 62.379C154.346 62.2685 154.166 62.1094 154.022 61.9128C152.983 60.6368 152.874 59.3493 153.713 58.2304C154.3 57.4449 155.071 57.1576 155.791 57.4449C156.217 57.5713 156.591 57.8612 156.847 58.2648C157.104 58.6684 157.228 59.1603 157.198 59.6559Z" fill="white"/>
<path d="M152.111 58.1014C152.128 58.2671 152.117 58.4351 152.076 58.5956C152.036 58.7562 151.968 58.9061 151.876 59.0367C151.784 59.1674 151.67 59.2761 151.541 59.3567C151.412 59.4373 151.269 59.4881 151.123 59.5062C150.538 59.5292 150.131 58.9918 150.104 58.1551C150.077 57.3184 150.535 56.6659 151.123 56.6544C151.605 56.6467 152.087 57.3568 152.111 58.1014Z" fill="white"/>
<path d="M153.513 55.833C153.682 55.8632 153.837 55.9611 153.948 56.1088C154.06 56.2566 154.121 56.4445 154.121 56.6387C154.132 56.8836 154.062 57.1244 153.922 57.3125C153.783 57.5005 153.585 57.6217 153.37 57.6515C153.281 57.658 153.192 57.6422 153.109 57.6052C153.026 57.5682 152.952 57.5111 152.891 57.4377C152.83 57.3644 152.784 57.2768 152.756 57.1811C152.729 57.0854 152.72 56.984 152.731 56.8842C152.752 56.3931 153.149 55.8368 153.513 55.833Z" fill="#F3C6FA"/>
<path d="M157.947 72.9102C158.059 73.5785 158.531 72.9904 158.772 73.2042C158.232 73.609 157.597 73.4907 157.013 73.674C157.115 73.4827 157.25 73.3164 157.411 73.1852C157.571 73.054 157.753 72.9604 157.947 72.9102Z" fill="#4A688E"/>
<path d="M151.421 74.5384C151.384 74.4388 151.35 74.3392 151.312 74.2435C151.654 74.1486 152.015 74.192 152.331 74.366C152.2 74.4681 152.051 74.5364 151.893 74.5662C151.736 74.5959 151.575 74.5865 151.421 74.5384Z" fill="#4A688E"/>
<path d="M7.25241 82.5426C7.12112 77.4954 7.82015 72.4644 9.31406 67.7047C10.5402 63.8065 12.2825 60.2762 15.088 57.5355C16.5631 56.0534 18.4358 55.1722 20.4068 55.0325C24.0105 54.768 26.551 56.8379 28.6636 59.7511C31.4385 63.5842 32.8208 68.1417 33.6733 72.9139C34.3518 76.6441 34.5803 80.4606 34.3526 84.2599C34.1319 87.7748 33.7175 91.2706 32.7495 94.659C31.9344 97.4994 30.98 100.244 29.455 102.709C27.9911 105.051 26.2997 107.101 23.9154 108.309C21.3477 109.608 18.9056 109.29 16.4941 107.803C13.1622 105.756 11.3417 102.318 9.89145 98.6033C8.98323 96.2399 8.32763 93.7629 7.9385 91.2246C7.46639 88.2194 7.12675 85.2066 7.25241 82.5426Z" fill="#384E6B"/>
<path d="M48.0837 108.703C48.2763 112.15 47.8035 115.603 46.698 118.824C45.8862 121.254 44.8197 123.527 42.9822 125.195C40.7134 127.257 38.1865 127.319 35.9244 125.134C33.9137 123.194 33.0171 120.568 32.297 117.819C31.4207 114.488 31.4479 111.069 31.6177 107.668C31.7691 104.879 32.3627 102.144 33.3703 99.5912C34.2432 97.3601 35.33 95.244 37.2219 93.8409C39.5994 92.0737 41.5863 92.2194 43.7872 94.2856C45.7368 96.118 46.7047 98.6443 47.3874 101.32C48.0201 103.712 48.2561 106.215 48.0837 108.703Z" fill="#384E6B"/>
<path d="M29.4802 130.671C29.3987 133.948 28.9707 136.708 27.7039 139.238C27.1554 140.381 26.331 141.325 25.3263 141.96C23.6791 142.961 21.9299 142.669 20.4083 141.228C19.1692 139.989 18.2325 138.412 17.6878 136.647C16.7884 134.14 16.3783 131.445 16.4854 128.743C16.6383 125.864 17.0356 123.02 18.6048 120.593C19.07 119.821 19.6741 119.168 20.3777 118.677C22.7552 117.124 24.861 118.178 26.4913 120.398C28.1216 122.617 28.8145 125.182 29.2085 127.919C29.3511 128.969 29.5821 130.012 29.4802 130.671Z" fill="#384E6B"/>
<path d="M77.6369 113.968C74.7295 114.156 71.9546 111.338 71.958 107.628C71.958 103.794 74.2268 100.754 77.5893 100.421C79.6951 100.214 81.4103 101.333 82.5753 103.307C84.3652 106.34 83.5942 110.165 81.6005 112.285C80.5119 113.385 79.098 113.986 77.6369 113.968Z" fill="#384E6B"/>
<path d="M99.7344 99.8719C99.4186 99.8719 99.0551 99.9026 98.9465 99.4695C98.8907 99.2763 98.9052 99.0661 98.9867 98.8851C99.0682 98.704 99.2101 98.5668 99.3812 98.5036C99.5494 98.3898 99.7348 98.3119 99.928 98.2737C102.414 98.0552 104.591 96.779 106.789 95.6369C110.865 93.5174 114.618 90.7503 118.235 87.7532C118.511 87.5083 118.81 87.2964 119.125 87.1208C119.188 87.0893 119.256 87.0728 119.326 87.0723C119.395 87.0718 119.463 87.0872 119.527 87.1178C119.591 87.1483 119.648 87.1932 119.696 87.2498C119.743 87.3063 119.78 87.3733 119.804 87.4466C119.93 87.7302 119.804 87.9448 119.6 88.1211C118.581 88.9605 117.586 89.819 116.564 90.643C112.128 94.215 107.434 97.2236 102.227 99.136C101.521 99.3967 100.798 99.5998 100.077 99.8221C99.9643 99.848 99.8497 99.8646 99.7344 99.8719Z" fill="#070607"/>
<path d="M75.1168 147.811C74.7975 147.742 74.2915 147.658 73.799 147.524C71.2687 146.83 68.7655 146.04 66.6902 144.158C65.0667 142.689 63.9357 140.769 63.0153 138.687C62.9401 138.531 62.8939 138.358 62.8794 138.181C62.8678 138.047 62.8904 137.913 62.9446 137.793C62.9988 137.674 63.0823 137.574 63.1851 137.506C63.4365 137.342 63.6402 137.506 63.7863 137.725C63.9995 138.043 64.1924 138.377 64.3637 138.726C65.0866 140.384 66.1132 141.851 67.3755 143.028C68.6378 144.206 70.1071 145.068 71.6864 145.557C72.8408 145.991 74.0243 146.319 75.2255 146.538C75.3031 146.544 75.3803 146.555 75.4565 146.573C75.7961 146.68 76.2173 146.745 76.1357 147.29C76.0542 147.834 75.6738 147.823 75.1168 147.811Z" fill="#070607"/>
<path d="M99.6239 80.8306C94.8451 81.4975 90.1784 77.3309 89.5636 72.1255C89.4187 70.5312 89.5257 68.9206 89.8795 67.3685C90.3484 65.2565 91.1391 63.2526 92.2163 61.4463C92.647 60.7511 93.2068 60.1703 93.8567 59.7444C95.7644 58.4017 97.9132 57.5558 100.147 57.2681C101.981 56.9883 103.751 57.6016 105.428 58.3682C106.549 58.8781 107.572 59.6639 108.638 60.327C108.742 60.391 108.836 60.4738 108.917 60.5723C111.352 63.6388 112.975 67.0235 111.871 71.3052C111.506 72.9492 110.877 74.5041 110.017 75.8935C108.752 77.7872 106.982 79.1725 104.967 79.8454C103.24 80.4777 101.439 80.8098 99.6239 80.8306ZM104.107 65.9541C104.107 65.6004 104.088 65.2471 104.049 64.8961C104.033 64.5711 103.928 64.2597 103.75 64.0041C103.571 63.7486 103.327 63.5612 103.051 63.4675C102.774 63.3737 102.479 63.3781 102.205 63.4801C101.931 63.5821 101.692 63.7767 101.519 64.0375C100.886 64.7765 100.529 65.7618 100.521 66.7897C100.516 67.165 100.593 67.5358 100.744 67.8699C100.896 68.204 101.118 68.4911 101.39 68.7063C102.215 69.3924 103.058 69.2161 103.577 68.2156C103.951 67.5386 104.135 66.7508 104.107 65.9541ZM96.2275 63.8688C96.2275 65.2948 96.8151 65.9694 98.0072 65.9311C98.4223 65.889 98.8084 65.6735 99.0899 65.3267C99.3714 64.9799 99.5279 64.527 99.5288 64.0567C99.5222 63.5197 99.337 63.0052 99.0098 62.6153C98.6825 62.2255 98.2374 61.9888 97.7627 61.9523C96.8422 61.9331 96.2241 62.7074 96.2275 63.8688ZM101.787 62.7189C102.127 62.6307 102.44 62.4391 102.44 61.9523C102.44 61.4079 102.137 61.1856 101.682 61.1665C101.594 61.1507 101.505 61.1582 101.42 61.1885C101.335 61.2189 101.258 61.2711 101.194 61.3411C101.13 61.4111 101.082 61.4969 101.053 61.5917C101.024 61.6865 101.015 61.7877 101.027 61.8871C101.021 62.0011 101.036 62.1153 101.072 62.222C101.109 62.3286 101.165 62.4253 101.237 62.5055C101.309 62.5858 101.395 62.6477 101.49 62.6871C101.585 62.7266 101.687 62.7426 101.787 62.7342V62.7189Z" fill="#070607"/>
<path d="M104.107 65.953C104.139 66.7529 103.957 67.5452 103.584 68.2265C103.065 69.2271 102.226 69.4035 101.397 68.7172C101.125 68.502 100.903 68.2148 100.751 67.8807C100.6 67.5465 100.523 67.1756 100.528 66.8002C100.535 65.7721 100.893 64.7867 101.526 64.0475C101.699 63.7866 101.938 63.592 102.212 63.49C102.486 63.388 102.781 63.3836 103.058 63.4774C103.334 63.5711 103.578 63.7585 103.756 64.0141C103.935 64.2698 104.04 64.5812 104.056 64.9063C104.092 65.2537 104.109 65.6032 104.107 65.953Z" fill="white"/>
<path d="M96.2266 63.8639C96.2266 62.7139 96.8413 61.9473 97.7618 61.9473C98.2365 61.9838 98.6817 62.2205 99.0089 62.6104C99.3361 63.0002 99.5214 63.5147 99.5279 64.0517C99.5271 64.522 99.3705 64.9749 99.089 65.3217C98.8075 65.6685 98.4214 65.884 98.0063 65.9261C96.8141 65.9644 96.2334 65.2898 96.2266 63.8639Z" fill="white"/>
<path d="M101.788 62.7357C101.689 62.7438 101.589 62.7283 101.496 62.6903C101.402 62.6522 101.317 62.5923 101.245 62.5146C101.174 62.4369 101.117 62.3431 101.08 62.2392C101.042 62.1352 101.024 62.0236 101.027 61.9114C101.016 61.812 101.025 61.7108 101.054 61.616C101.083 61.5212 101.131 61.4353 101.195 61.3653C101.259 61.2953 101.336 61.2431 101.421 61.2127C101.505 61.1824 101.595 61.1749 101.683 61.1907C102.138 61.1907 102.44 61.4322 102.44 61.9766C102.44 62.4559 102.135 62.6475 101.788 62.7357Z" fill="#F3C6FA"/>
</svg>
