<svg width="20" height="14" viewBox="0 0 20 14" fill="none" xmlns="http://www.w3.org/2000/svg">
<path d="M18.9743 0H1.02566C0.461523 0 0 0.461523 0 1.02562V12.3077C0 12.8718 0.461523 13.3334 1.02566 13.3334H18.9744C19.5384 13.3334 20 12.8718 20 12.3077V1.02562C20 0.461523 19.5385 0 18.9743 0ZM18.5895 0.76918L10.59 6.76926C10.4462 6.87871 10.2254 6.94719 9.99996 6.94617C9.77457 6.94719 9.55383 6.87871 9.40996 6.76926L1.41051 0.76918H18.5895ZM14.3164 7.16516L18.6754 12.5498C18.6798 12.5552 18.6851 12.5593 18.6898 12.5642H1.31023C1.31484 12.5591 1.32023 12.5552 1.32461 12.5498L5.68359 7.16516C5.81715 7.00004 5.79184 6.75797 5.62641 6.6241C5.46129 6.49055 5.21922 6.51586 5.08563 6.68102L0.769219 12.0131V1.24996L8.94867 7.38457C9.25613 7.61355 9.6302 7.71434 9.99992 7.71535C10.3691 7.71457 10.7435 7.61379 11.0512 7.38457L19.2306 1.24996V12.013L14.9143 6.68102C14.7807 6.5159 14.5384 6.49051 14.3736 6.6241C14.2082 6.75766 14.1828 7.00004 14.3164 7.16516Z" fill="#151371" fill-opacity="0.7"/>
</svg>
