<svg width="18" height="16" viewBox="0 0 18 16" fill="none" xmlns="http://www.w3.org/2000/svg">
<path d="M12.1999 4.26667C12.1999 6.29171 10.5583 7.93333 8.53327 7.93333C6.50822 7.93333 4.8666 6.29171 4.8666 4.26667C4.8666 2.24162 6.50822 0.6 8.53327 0.6C10.5583 0.6 12.1999 2.24162 12.1999 4.26667Z" stroke="#151371" stroke-opacity="0.7" stroke-width="1.2"/>
<path d="M0.6 13.8666C0.6 13.3777 0.840177 12.905 1.33977 12.4439C1.84344 11.979 2.56974 11.5676 3.42179 11.2263C5.12685 10.5432 7.18434 10.2 8.53333 10.2C9.88233 10.2 11.9398 10.5432 13.6449 11.2263C14.4969 11.5676 15.2232 11.979 15.7269 12.4439C16.2265 12.905 16.4667 13.3777 16.4667 13.8666V15.4H0.6V13.8666Z" stroke="#151371" stroke-opacity="0.7" stroke-width="1.2"/>
</svg>
