<svg width="600" height="600" viewBox="0 0 600 600" fill="none" xmlns="http://www.w3.org/2000/svg">
<g clip-path="url(#clip0)">
<path d="M675 675H-75V-75H675V675Z" fill="url(#paint0_linear)"/>
<path d="M360.996 403.874H308.184V356.576H360.996V403.874ZM414.113 320.069H340.054V380.225H414.113V320.069ZM377.082 441.95H442.881V362.639H377.082V441.95ZM400.757 434.192H334.59V491.191H400.757V434.192ZM580.44 284.416H490.23V387.501H580.44V284.416ZM478.458 331.108H456.605V356.576H478.458V331.108ZM544.531 252.277H456.605V304.426H544.531V252.277ZM442.881 270.468H395.532V335.958H442.881V270.468ZM334.59 275.32H308.184V303.213H334.59V275.32ZM299.325 320.069H258.501V382.71H299.325V320.069ZM347.338 441.95H275.708V521.511H347.338V441.95ZM308.184 576.086H388.617V528.788H308.184V576.086ZM500.311 557.894H443.791V599.129H500.313V557.894H500.311ZM637.361 516.659H585.062V578.511H637.361V516.659ZM551.302 544.718H506.381V585.953H551.302V544.718ZM594.357 463.296H528.843V537.278H594.357V463.296ZM610.791 590.639H528.843V644H610.791V590.639ZM340.054 557.894H251.187V637.937H340.052V557.894H340.054ZM630.216 356.576H569.818V403.874H630.216V356.576ZM594.357 424.49H568.208V451.477H594.357V424.49ZM251.187 474.697H300.975V404.294H251.187V474.697ZM321.764 249.852L232 252.277V320.069H321.764V249.852ZM646 252.277H587.725V326.256H646V252.277ZM371.858 245H347.338V298.361H371.858V245ZM641.143 437.983H581.281V486.494H641.143V437.983Z" fill="url(#paint1_linear)" stroke="#FFC700" stroke-width="1.5"/>
<path d="M115.996 319.874H63.1843V272.576H115.996V319.874ZM169.113 236.069H95.0537V296.225H169.113V236.069ZM132.082 357.95H197.881V278.639H132.082V357.95ZM155.757 350.192H89.5904V407.191H155.757V350.192ZM335.44 200.416H245.23V303.501H335.44V200.416ZM233.458 247.108H211.605V272.576H233.458V247.108ZM299.531 168.277H211.605V220.426H299.531V168.277ZM197.881 186.468H150.532V251.958H197.881V186.468ZM89.5904 191.32H63.1843V219.213H89.5904V191.32ZM54.3246 236.069H13.5008V298.71H54.3246V236.069ZM102.338 357.95H30.7084V437.511H102.338V357.95ZM63.1843 492.086H143.617V444.788H63.1843V492.086ZM255.311 473.894H198.791V515.129H255.313V473.894H255.311ZM392.361 432.659H340.062V494.511H392.361V432.659ZM306.302 460.718H261.381V501.953H306.302V460.718ZM349.357 379.296H283.843V453.278H349.357V379.296ZM365.791 506.639H283.843V560H365.791V506.639ZM95.0537 473.894H6.18721V553.937H95.0519V473.894H95.0537ZM385.216 272.576H324.818V319.874H385.216V272.576ZM349.357 340.49H323.208V367.477H349.357V340.49ZM6.18721 390.697H55.9745V320.294H6.18721V390.697ZM76.7643 165.852L-13 168.277V236.069H76.7643V165.852ZM401 168.277H342.725V242.256H401V168.277ZM126.858 161H102.338V214.361H126.858V161ZM396.143 353.983H336.281V402.494H396.143V353.983Z" fill="url(#paint2_linear)" stroke="#FFC700" stroke-width="1.5"/>
<rect x="504" y="328.706" width="8.86149" height="25.1423" fill="white"/>
<rect x="521.753" y="328.857" width="8.83104" height="25.1423" fill="white"/>
<rect x="512.861" y="320" width="8.89195" height="8.85765" fill="white"/>
<rect x="539.416" y="328.857" width="8.89195" height="25.1423" fill="white"/>
<rect x="530.584" y="320" width="8.83105" height="8.85765" fill="white"/>
<rect x="548.308" y="320" width="8.86149" height="8.85765" fill="white"/>
<rect x="557.169" y="327.792" width="8.83104" height="8.85766" fill="white"/>
<rect x="548.308" y="336.65" width="8.86149" height="8.82721" fill="white"/>
<rect x="40" y="390.425" width="7.57515" height="21.4449" fill="white"/>
<rect x="55.1763" y="390.555" width="7.54912" height="21.4449" fill="white"/>
<rect x="47.5752" y="383" width="7.60118" height="7.55506" fill="white"/>
<rect x="70.2744" y="390.555" width="7.60118" height="21.4449" fill="white"/>
<rect x="62.7256" y="383" width="7.54912" height="7.55506" fill="white"/>
<rect x="77.876" y="383" width="7.57515" height="7.55506" fill="white"/>
<rect x="85.4507" y="389.646" width="7.54912" height="7.55506" fill="white"/>
<rect x="77.876" y="397.202" width="7.57515" height="7.52909" fill="white"/>
<path d="M312.322 316.982H310.081V314.695H312.322V316.982Z" fill="#2A232B"/>
<path d="M529.419 544.03C524.397 533.176 510.677 517.092 495.435 512.648C476.592 507.152 434.059 500.509 418.288 496.815C405.645 493.851 380.182 470.986 371.258 463.311C369.657 461.939 368.347 459.105 368.315 456.999C367.997 432.153 377.909 366.15 377.909 366.15H311.202H244.497C244.497 366.15 254.409 432.151 254.086 456.999C254.061 459.105 252.744 461.939 251.148 463.311C242.224 470.986 216.761 493.851 204.118 496.815C188.345 500.509 145.811 507.379 126.971 512.874C111.724 517.316 98.0087 533.174 92.9865 544.028C84.5063 562.342 82.5029 595.485 82.5029 624.072H311.202H539.9C539.9 595.487 537.895 562.344 529.419 544.03Z" fill="#EFB591"/>
<path d="M446.491 508.079C502.161 516.179 525.589 527.994 532.925 624.077H539.901C539.901 595.49 537.895 562.347 529.419 544.032C524.397 533.178 510.678 517.094 495.435 512.65C476.592 507.155 434.059 500.511 418.288 496.818C405.645 493.854 376.569 469.216 368.79 459.425C376.475 470.183 398.043 495.114 416.941 501.643C425.981 504.767 433.51 506.19 446.491 508.079ZM205.465 501.643C224.363 495.116 245.929 470.183 253.616 459.425C245.84 469.214 216.763 493.854 204.118 496.818C188.347 500.511 145.814 507.381 126.971 512.877C111.729 517.318 98.0089 533.176 92.9866 544.03C84.5111 562.344 82.5054 595.487 82.5054 624.075H89.4807C96.7716 528.607 120.298 516.168 175.915 508.076C188.894 506.19 196.425 504.767 205.465 501.643Z" fill="#FED0B4"/>
<path d="M301.244 539.095C301.244 539.095 289.64 535.415 285.045 533.654C261.149 524.485 183.515 518.544 183.515 518.544C183.515 518.544 265.284 521.789 283.328 524.899C282.28 513.997 276.428 479.15 276.428 479.15C276.428 479.15 288.204 517.606 291.085 527.308C292.627 532.494 301.244 539.095 301.244 539.095ZM325.941 536.025C325.738 536.192 325.505 536.41 325.251 536.638C325.509 536.444 325.742 536.24 325.941 536.025ZM301.244 539.095C301.244 539.095 307.86 545.937 311.186 546.024C315.554 546.141 322.227 539.394 325.253 536.638C322.36 538.827 315.741 539.82 313.109 539.923C310.067 540.039 301.244 539.095 301.244 539.095ZM349.312 521.899C345.779 522.466 339.281 523.703 339.281 523.703L344.512 489.65C343.034 496.673 334.28 526.724 325.941 536.025C330.31 532.33 340.025 530.557 344.978 529.841C368.388 526.448 368.379 526.45 438.887 518.544C438.887 518.544 372.402 518.189 349.312 521.899Z" fill="#E09C71"/>
<path d="M529.419 544.03C524.397 533.176 510.677 517.092 495.435 512.648C476.592 507.152 434.059 500.509 418.288 496.815C405.645 493.851 380.182 470.986 371.258 463.311C369.657 461.939 368.347 459.105 368.315 456.999C367.997 432.153 377.909 366.15 377.909 366.15H311.202H244.497C244.497 366.15 254.409 432.151 254.086 456.999C254.061 459.105 252.744 461.939 251.148 463.311C242.224 470.986 216.761 493.851 204.118 496.815C188.345 500.509 145.811 507.379 126.971 512.874C111.724 517.316 98.0087 533.174 92.9865 544.028C84.5063 562.342 82.5029 595.485 82.5029 624.072H311.202H539.9C539.9 595.487 537.895 562.344 529.419 544.03Z" stroke="#C16E3B" stroke-width="4.275"/>
<path d="M255.209 460.038C271.17 470.421 292.503 480.195 311.206 480.195C329.109 480.195 350.874 470.341 367.141 459.912C366.81 458.933 366.609 457.941 366.595 457.021C366.307 434.433 374.245 379.216 375.917 367.868H246.487C248.156 379.218 256.097 434.433 255.804 457.019C255.793 457.966 255.573 459.011 255.209 460.038Z" fill="url(#paint3_linear)"/>
<path d="M74.0818 627.308C67.4175 571.75 92.428 519.614 152.974 502.414C170.744 497.364 165.989 494.773 168.679 494.615C168.589 494.132 168.576 494.157 168.576 493.174H168.493C168.692 474.81 189.14 478.416 194.993 477.202C218.139 472.266 226 447.96 252.43 454.366C253.08 459.94 252.602 466.368 249.295 490.187C274.221 543.854 301.26 539.213 310.872 569.251C319.597 542.388 350.526 538.109 373.32 490.176C371.822 476.719 368.557 464.944 369.931 453.733L370.061 453.637C387.772 447.729 395.509 455.635 402.56 462.451C424.05 483.223 435.451 470.055 446.207 479.505C450.486 483.299 452.032 488.646 452.032 494.411C501.001 501.524 557.174 517.048 546.002 625.87L546.221 626.108C496.662 626.108 214.11 638.521 74.0818 627.308Z" fill="#6859E2"/>
<path d="M311.815 566.687C321.487 542.358 350.57 536.654 372.518 491.777C372.742 491.53 373.312 490.425 374.019 488.948C373.644 484.772 373.168 480.378 371.245 475.782C370.051 468.12 369.097 460.941 369.902 453.975C374.417 455.297 378.689 456.861 381.611 460.058C385.916 464.751 382.652 472.886 378.533 480.737C370.808 514.45 351.439 538.804 311.815 566.687ZM469.649 541.928C476.368 565.658 480.844 603.512 475.467 627.564C479.954 627.461 481.61 627.342 485.772 627.249C487.634 601.987 483.078 561.644 469.649 541.928ZM397.202 546.218C367.917 563.325 338.456 569.907 311.849 592.624C285.229 569.973 255.482 566.01 226.195 548.924C212.77 543.527 192.178 524.455 179.593 511.024C219.187 571.135 247.53 554.072 310.944 594.586C374.375 554.072 402.892 567.846 442.482 507.74C429.897 521.169 410.631 540.855 397.202 546.218ZM310.767 569.548C301.075 545.205 273.126 536.654 251.178 491.777C250.965 491.53 250.393 490.425 249.687 488.948C250.043 484.772 249.087 480.163 251.027 475.553C252.218 467.873 252.737 461.62 251.925 454.668C247.422 455.981 245.007 456.861 242.085 460.058C237.785 464.751 241.049 472.886 245.165 480.737C252.888 514.45 271.132 541.656 310.767 569.548ZM144.625 539.25C134.779 560.739 134.699 601.987 136.556 627.251C140.721 627.345 142.383 627.464 146.861 627.567C141.487 603.512 142.832 563.428 144.625 539.25ZM310.946 574.186C348.427 562.959 388.276 542.411 421.419 492.204C391.496 532.554 347.034 556.384 311.813 571.003C275.472 557.825 231.962 531.618 206.597 496.367C236.319 545.054 273.485 562.959 310.946 574.186Z" fill="#4E3ED3"/>
<path d="M546.217 626.108C545.954 626.108 545.632 626.11 545.362 626.11C544.385 514.928 482.477 510.448 448.211 503.242C442.848 503.242 440.062 488.365 436.117 484.397C432.762 481.024 406.915 481.024 398.729 458.854C400.063 460.027 401.316 461.259 402.558 462.451C424.049 483.224 435.449 470.055 446.205 479.505C450.484 483.299 452.03 488.646 452.03 494.412C500.999 501.524 557.172 517.048 546 625.87L546.217 626.108ZM73.4283 628.79C73.689 628.79 74.0115 628.793 74.2882 628.793C85.172 540.442 110.946 512.589 173.87 502.176C181.763 499.173 177.607 493.463 181.559 489.497C184.914 486.14 203.576 486.066 229.412 458.876C228.081 460.05 222.38 461.259 221.145 462.451C199.652 483.224 183.444 477.339 177.491 479.505C170.152 482.222 169.013 488.717 169.013 494.476C120.039 501.59 68.0173 528.721 73.641 628.553L73.4283 628.79Z" fill="#8577F1"/>
<path d="M452.286 494.173C452.286 471.628 431.097 476.118 421.345 474.021C399.827 469.401 400.504 444.482 369.701 453.472C368.388 464.122 370.881 473.456 373.069 490.057C350.481 537.523 319.151 542.87 310.872 568.375C301.823 540.062 274.178 542.911 249.558 490.226C252.984 465.44 253.327 459.686 252.669 454.151C229.179 448.779 223.88 464.031 202.638 474.222C189.747 480.264 186.106 474.823 175.041 480.243C170.451 482.457 168.139 488.497 168.304 493.432C168.274 493.455 168.304 493.455 168.304 493.455C168.304 493.773 168.304 494.066 168.356 494.361C165.669 494.549 169.605 494.53 151.609 497.439C93.6039 506.816 67.8822 555.835 73.8398 627.583C101.032 627.583 76.1519 637.604 492.695 627.406C512.033 626.917 544.836 626.384 546.215 626.384C558.93 519.987 505.221 502.384 452.286 494.173ZM74.2149 626.999C80.113 544.659 92.5519 512.591 168.087 495.889C209.202 564.13 259.52 554.205 310.41 592.374C264.291 554.019 215.953 559.101 169.482 494.988C168.96 489.604 171.769 483.683 177.566 481.359C181.674 479.754 186.074 480.221 190.373 480.243C206.581 480.367 219.066 467.66 231.066 458.339C236.781 454.519 245.291 454.332 252.106 455.384C252.634 464.244 249.22 477.616 248.076 487.047C245.693 481.799 243.436 476.381 241.181 470.988C269.7 554.747 298.134 535.787 310.845 570.529C308.153 569.781 262.786 553.45 226.633 517.498C218.954 509.894 203.738 493.128 202.583 491.564C247.347 552.192 275.948 555.279 310.966 570.902C310.966 570.925 311.014 570.982 311.014 571.012C311.042 571.094 311.17 571.517 311.211 571.597C311.38 571.522 311.572 571.437 311.757 571.389C311.817 571.339 311.865 571.314 311.94 571.314C316.793 568.928 348.681 557.816 372.959 541.125C397.949 523.934 426.452 486.647 424.305 489.348C382.56 531.824 376.106 541.457 311.757 570.925C311.696 570.925 311.648 570.902 311.6 570.877C311.549 570.577 311.453 570.289 311.355 569.992C311.38 569.85 311.428 569.715 311.478 569.585C322.794 538.53 356.02 550.534 383.541 465.403C380.724 472.758 377.762 479.999 374.441 487.098C373.396 474.622 369.771 464.786 370.176 454.515C374.942 452.93 387.882 452.177 391.464 455.754C406.395 468.529 407.607 477.886 431.934 477.886C439.735 477.931 449.935 478.915 451.088 493.227C449.654 495.335 438.987 507.934 428.897 517.947C393.59 553.093 362.005 553.77 313.132 591.146C314.323 591.146 316.803 588.56 317.772 587.903C355.992 560.771 383.452 561.198 418.594 532.446C434.79 519.216 450.376 498.041 452.053 495.347C452.103 495.376 452.188 495.376 452.233 495.376C516.722 506.475 549.021 530.738 545.46 625.893C256.412 624.086 217.17 631.775 74.2149 626.999Z" fill="#2311B4"/>
<path d="M193.136 279.062C190.147 273.733 180.887 260.638 171.453 263.847C165.481 265.879 164.299 272.523 163.338 278.389C162.061 286.191 164.362 301.623 166.356 307.198C168.27 312.558 174.032 322.906 177.793 326.849C182.421 331.684 188.167 347.107 189.078 348.708C190.512 351.233 192.415 355.033 198.033 354.557C204.232 354.027 207.993 350.538 210.756 349.949C217.583 348.502 200.916 292.935 193.136 279.062Z" fill="#EFB591" stroke="#C16E3B" stroke-width="4.06125"/>
<path d="M187.044 311.377C186.757 310.114 187.059 307.987 187.352 305.936C187.622 304.066 187.874 302.297 187.72 301.046C187.139 296.366 183.868 287.469 181.73 282.65C179.27 277.101 175.292 270.114 170.297 268.313C168.233 267.567 166.875 268.458 166.087 269.364C165.509 270.027 165.381 270.809 165.57 270.9C165.756 270.992 166.189 270.348 166.812 269.738C167.323 269.24 168.07 268.812 169.096 268.901C168.683 271.233 166.56 283.856 167.479 292.464C168.203 299.231 170.94 304.287 171.368 305.045C171.431 305.843 171.536 306.623 171.69 307.381C173.708 317.26 182.49 328.493 185.547 332.169C186.11 332.849 186.701 333.248 186.846 333.088C186.99 332.923 186.642 332.247 186.079 331.567C183.064 327.919 174.367 316.726 172.416 307.194C170.347 297.078 177.452 282.087 179.038 278.913C179.844 280.401 180.53 281.833 181.058 283.026C181.471 283.962 181.932 285.059 182.403 286.239C181.471 287.895 174.942 299.97 177.324 309.632C178.206 313.197 182.179 317.79 184.813 319.046C186.262 319.741 186.809 320.778 187.439 321.977C188.169 323.367 188.999 324.942 191.411 326.087C191.9 326.322 192.343 326.416 192.736 326.416C193.416 326.416 193.933 326.122 194.311 325.779C194.35 326.387 194.348 327.169 194.331 327.886C194.305 328.823 194.422 329.588 194.629 329.605C194.833 329.622 195.054 328.884 195.078 327.954C195.113 326.811 195.107 325.397 194.922 324.721C194.383 322.729 192.732 320.478 190.983 318.099C189.269 315.748 187.491 313.33 187.044 311.377ZM171.299 302.619C166.569 287.108 172.724 273.723 173.784 271.593C175.631 273.379 177.261 275.763 178.586 278.1C177.621 279.965 171.497 292.186 171.299 302.619ZM191.702 325.305C189.521 324.273 188.793 322.883 188.082 321.54C187.446 320.326 186.783 319.072 185.108 318.27C184.743 318.094 184.343 317.829 183.931 317.525C178.529 303.918 184.521 297.969 186.023 296.75C186.481 298.415 186.824 299.94 186.977 301.163C187.113 302.286 186.864 304.072 186.614 305.799C186.305 307.939 185.992 310.153 186.316 311.587C186.807 313.721 188.639 316.217 190.409 318.631C191.98 320.773 193.594 322.983 194.148 324.784C193.914 325.14 193.171 326.003 191.702 325.305Z" fill="#C16E3B"/>
<path d="M428.666 279.062C431.657 273.733 440.917 260.638 450.349 263.847C456.323 265.879 457.503 272.523 458.466 278.389C459.743 286.191 457.442 301.623 455.448 307.198C453.534 312.558 447.772 322.906 444.007 326.849C439.381 331.684 433.632 347.107 432.724 348.708C431.295 351.233 429.389 355.033 423.771 354.557C417.57 354.027 413.811 350.538 411.046 349.949C404.219 348.502 420.888 292.935 428.666 279.062Z" fill="#EFB591" stroke="#C16E3B" stroke-width="4.06125"/>
<path d="M430.818 318.094C429.069 320.475 427.42 322.724 426.879 324.716C426.693 325.392 426.688 326.806 426.723 327.949C426.749 328.879 426.968 329.617 427.173 329.6C427.377 329.583 427.494 328.818 427.47 327.882C427.453 327.162 427.453 326.382 427.492 325.774C427.87 326.117 428.387 326.411 429.067 326.411C429.463 326.411 429.904 326.317 430.39 326.083C432.8 324.94 433.632 323.362 434.362 321.972C434.99 320.773 435.542 319.738 436.989 319.041C439.624 317.785 443.596 313.192 444.478 309.627C446.859 299.965 440.332 287.89 439.398 286.234C439.87 285.052 440.332 283.955 440.743 283.021C441.273 281.828 441.957 280.396 442.764 278.908C444.35 282.08 451.454 297.074 449.388 307.189C447.441 316.721 438.742 327.914 435.724 331.562C435.164 332.242 434.816 332.918 434.959 333.083C435.103 333.244 435.694 332.846 436.259 332.164C439.313 328.488 448.097 317.255 450.118 307.376C450.27 306.616 450.372 305.838 450.435 305.041C450.863 304.282 453.605 299.227 454.326 292.459C455.243 283.853 453.12 271.228 452.71 268.897C453.738 268.805 454.478 269.235 454.993 269.733C455.617 270.344 456.049 270.987 456.236 270.895C456.423 270.804 456.295 270.022 455.719 269.359C454.93 268.453 453.572 267.563 451.508 268.308C446.514 270.111 442.533 277.096 440.076 282.645C437.938 287.464 434.666 296.361 434.084 301.041C433.927 302.292 434.182 304.061 434.453 305.931C434.746 307.984 435.046 310.111 434.76 311.372C434.314 313.329 432.537 315.747 430.818 318.094ZM443.218 278.098C444.545 275.762 446.175 273.377 448.021 271.591C449.082 273.72 455.234 287.105 450.509 302.616C450.307 292.185 444.184 279.964 443.218 278.098ZM427.653 324.783C428.205 322.982 429.821 320.773 431.392 318.63C433.165 316.217 434.994 313.72 435.487 311.587C435.809 310.153 435.496 307.939 435.19 305.799C434.94 304.072 434.69 302.286 434.829 301.162C434.977 299.939 435.322 298.412 435.781 296.75C437.282 297.969 443.274 303.917 437.877 317.525C437.462 317.829 437.063 318.096 436.698 318.27C435.022 319.071 434.364 320.325 433.723 321.54C433.015 322.882 432.285 324.273 430.104 325.305C428.633 326.002 427.89 325.14 427.653 324.783Z" fill="#C16E3B"/>
<path d="M311.206 89.1416C235.86 89.2628 174.669 152.414 174.786 230.219C174.806 242.574 176.364 254.554 179.273 265.97H179.275C179.302 266.093 202.335 337.852 208.295 366.713C213.629 392.549 237.339 413.505 248.01 424.925C260.269 438.055 275.593 457.481 311.206 457.31C346.817 457.481 362.143 438.055 374.403 424.925C385.073 413.505 408.783 392.549 414.117 366.713C420.077 337.852 443.112 266.096 443.135 265.97H443.139C446.048 254.554 447.608 242.574 447.626 230.219C447.745 152.414 386.552 89.2628 311.206 89.1416Z" fill="#EFB591"/>
<path d="M386.216 112.457C418.947 138.062 440.3 179.887 440.23 227.149C440.212 239.505 438.742 251.487 435.99 262.901H435.985C435.961 263.024 414.178 334.778 408.539 363.637C403.494 389.477 381.07 410.429 370.976 421.853C359.382 434.984 344.887 454.41 311.208 454.238C277.527 454.41 263.033 434.984 251.439 421.853C241.349 410.429 218.923 389.477 213.878 363.637C208.239 334.778 186.456 263.024 186.429 262.901H186.427C183.675 251.485 182.202 239.505 182.184 227.149C182.117 179.887 203.469 138.062 236.2 112.459C199.171 137.707 174.716 181.021 174.79 230.218C174.81 242.574 176.368 254.554 179.277 265.969H179.279C179.306 266.093 202.34 337.851 208.299 366.713C213.633 392.548 237.343 413.504 248.014 424.924C260.274 438.055 275.597 457.481 311.21 457.309C346.822 457.481 362.147 438.055 374.407 424.924C385.078 413.504 408.788 392.548 414.122 366.713C420.081 337.851 443.117 266.095 443.139 265.969H443.144C446.053 254.554 447.613 242.574 447.631 230.218C447.7 181.021 423.246 137.705 386.216 112.457Z" fill="#E7A881"/>
<path d="M311.206 89.1416C235.86 89.2628 174.669 152.414 174.786 230.219C174.806 242.574 176.364 254.554 179.273 265.97H179.275C179.302 266.093 202.335 337.852 208.295 366.713C213.629 392.549 237.339 413.505 248.01 424.925C260.269 438.055 275.593 457.481 311.206 457.31C346.817 457.481 362.143 438.055 374.403 424.925C385.073 413.505 408.783 392.549 414.117 366.713C420.077 337.852 443.112 266.096 443.135 265.97H443.139C446.048 254.554 447.608 242.574 447.626 230.219C447.745 152.414 386.552 89.2628 311.206 89.1416Z" stroke="#C16E3B" stroke-width="4.23182"/>
<path d="M295.243 402.598C311.716 407.081 326.456 402.36 326.456 402.36C321.39 411.126 299.076 409.766 295.243 402.598Z" fill="url(#paint4_linear)"/>
<path d="M299.838 387.881C303.316 387.968 306.774 389.725 310.404 390.285C312.928 390.676 320.782 388.156 323.366 388.037C330.149 387.721 342.908 389.478 349.136 389.816C349.477 389.837 349.136 389.816 349.136 389.816C327.151 411.387 287.417 407.73 273.21 389.793C270.923 389.871 296.618 387.799 299.838 387.881Z" fill="#BF5743"/>
<path d="M310.804 395.037C301.958 395.023 272.387 389.157 272.387 389.157C272.179 389.365 272.618 390.337 272.913 390.612C273.629 391.261 275.822 391.588 277.311 391.863C321.816 400.235 311.845 395.449 328.183 394.838C330.262 394.76 347.663 391.774 349.292 390.596C355.986 385.695 327.529 395.058 310.804 395.037Z" fill="#911E07"/>
<path d="M283.532 395.161C329.669 399.892 303.461 397.827 339.3 393.793C314.758 407.606 292.998 401.74 283.532 395.161ZM338.843 390.433C325.752 387.614 314.482 391.325 311.433 391.543C302.939 392.162 308.748 386.696 285.208 390.667C331.831 395.305 291.923 394.479 338.843 390.433Z" fill="#C76350"/>
<path d="M326.218 397.02C317.905 397.208 315.213 399.09 308.702 398.793C303.598 398.523 301.313 397.299 296.577 396.963C295.497 396.892 294.372 396.862 293.265 396.842C299.639 400.604 312.743 403.27 326.218 397.02Z" fill="#CE6F5D"/>
<path d="M264.476 267.923C273.917 269.32 280.8 275.102 286.65 284.266C286.658 284.276 286.676 284.274 286.687 284.282C286.701 284.338 286.73 284.391 286.74 284.447C287.265 286.519 285.061 288.191 282.305 289.465C272.485 290.718 263.041 292.53 253.089 291.256C233.163 288.701 232.805 279.916 231.835 277.611C231.317 275.345 231.166 274.695 231.195 272.521C235.995 269.709 239.517 269.131 243.245 268.394C247.616 267.534 257.346 266.863 264.476 267.923Z" fill="url(#paint5_radial)"/>
<path d="M271.717 279.484C271.717 286.304 266.186 291.834 259.367 291.834C252.548 291.834 247.018 286.304 247.018 279.484C247.018 272.663 252.548 267.135 259.367 267.135C266.186 267.133 271.717 272.663 271.717 279.484Z" fill="#2C2317"/>
<path opacity="0.7" d="M257.984 267.271C257.937 267.277 257.888 267.283 257.838 267.29C257.898 267.567 257.956 267.847 258.013 268.125C258.001 267.843 257.995 267.555 257.984 267.271ZM258.011 268.123C258.155 272.182 258.392 275.798 259.075 277.105C259.436 275.673 258.822 272.104 258.011 268.123ZM259.077 277.108C258.989 277.451 258.855 277.686 258.649 277.764C258.443 277.842 258.184 277.752 257.892 277.552C257.976 277.896 257.968 278.163 257.818 278.33C257.67 278.497 257.404 278.538 257.05 278.491C257.283 278.758 257.402 279.003 257.35 279.217C257.295 279.431 257.075 279.592 256.747 279.715C257.075 279.845 257.295 280.006 257.346 280.22C257.398 280.434 257.278 280.679 257.048 280.944C257.398 280.901 257.667 280.946 257.812 281.113C257.958 281.28 257.966 281.549 257.884 281.893C258.174 281.693 258.429 281.607 258.635 281.687C258.843 281.765 258.977 282 259.059 282.346C259.226 282.033 259.411 281.833 259.635 281.811C259.849 281.782 260.08 281.932 260.312 282.198C260.314 281.844 260.389 281.582 260.574 281.457C260.755 281.331 261.025 281.356 261.354 281.483C261.193 281.171 261.138 280.905 261.241 280.708C261.344 280.512 261.597 280.407 261.949 280.366C261.658 280.162 261.481 279.954 261.486 279.732C261.486 279.51 261.658 279.302 261.953 279.102C261.603 279.059 261.354 278.954 261.249 278.758C261.148 278.563 261.204 278.295 261.368 277.982C261.035 278.106 260.767 278.131 260.586 278.005C260.403 277.879 260.329 277.618 260.329 277.264C260.098 277.527 259.868 277.674 259.65 277.645C259.427 277.616 259.24 277.422 259.077 277.108ZM260.327 277.262C261.313 276.161 262.428 272.715 263.558 268.815C261.8 272.472 260.329 275.784 260.327 277.262ZM263.556 268.815C263.68 268.564 263.805 268.308 263.923 268.053C263.879 268.039 263.836 268.018 263.793 268C263.715 268.273 263.636 268.547 263.556 268.815ZM261.368 277.982C262.751 277.464 265.343 274.93 268.154 272.003C264.9 274.424 262.056 276.673 261.368 277.982ZM268.154 272.003C268.36 271.849 268.572 271.694 268.782 271.54C268.753 271.503 268.72 271.472 268.696 271.439C268.517 271.624 268.338 271.816 268.154 272.003ZM261.949 279.102C263.416 279.283 266.889 278.244 270.742 276.959C266.732 277.593 263.171 278.262 261.949 279.102ZM270.742 276.961C270.968 276.928 271.205 276.891 271.435 276.854C271.427 276.815 271.417 276.776 271.407 276.737C271.186 276.811 270.96 276.887 270.742 276.961ZM261.947 280.364C263.161 281.212 266.718 281.901 270.719 282.552C266.88 281.249 263.416 280.189 261.947 280.364ZM270.721 282.552C270.917 282.62 271.114 282.69 271.308 282.753C271.318 282.718 271.326 282.686 271.332 282.651C271.133 282.62 270.925 282.587 270.721 282.552ZM261.354 281.481C262.039 282.793 264.869 285.059 268.109 287.5C265.312 284.556 262.739 282.008 261.354 281.481ZM268.111 287.496C268.233 287.623 268.358 287.755 268.48 287.885C268.5 287.86 268.519 287.842 268.541 287.819C268.397 287.712 268.249 287.603 268.111 287.496ZM260.314 282.196C260.308 283.676 261.761 286.994 263.499 290.661C262.389 286.757 261.296 283.303 260.314 282.196ZM263.499 290.663C263.542 290.818 263.587 290.976 263.628 291.135C263.659 291.122 263.68 291.114 263.709 291.106C263.641 290.958 263.569 290.805 263.499 290.663ZM259.061 282.344C258.369 283.655 258.112 287.263 257.945 291.32C258.777 287.348 259.413 283.781 259.061 282.344ZM257.945 291.32C257.91 291.474 257.882 291.631 257.849 291.789C257.877 291.795 257.9 291.795 257.929 291.8C257.933 291.641 257.941 291.476 257.945 291.32ZM257.886 281.891C256.659 282.729 254.755 285.81 252.723 289.321C255.305 286.193 257.527 283.328 257.886 281.891ZM252.723 289.321C252.614 289.451 252.501 289.589 252.39 289.719C252.417 289.735 252.439 289.748 252.468 289.768C252.551 289.62 252.639 289.47 252.723 289.321ZM257.052 280.946C255.578 281.117 252.46 282.959 249.029 285.123C252.771 283.554 256.064 282.054 257.052 280.946ZM249.027 285.127C248.85 285.201 248.669 285.275 248.485 285.353C248.498 285.38 248.516 285.409 248.533 285.435C248.699 285.335 248.864 285.23 249.027 285.127ZM256.749 279.717C255.368 279.188 251.75 279.372 247.703 279.695C251.746 280.041 255.364 280.24 256.749 279.717ZM247.703 279.695C247.483 279.674 247.257 279.654 247.038 279.635C247.038 279.674 247.034 279.713 247.038 279.75C247.263 279.73 247.487 279.711 247.703 279.695ZM257.052 278.495C256.078 277.385 252.793 275.866 249.064 274.273C252.479 276.455 255.587 278.316 257.052 278.495ZM249.064 274.273C248.85 274.135 248.634 273.997 248.415 273.86C248.397 273.899 248.376 273.938 248.356 273.973C248.595 274.074 248.833 274.172 249.064 274.273ZM257.894 277.552C257.546 276.115 255.34 273.242 252.779 270.095C254.788 273.619 256.675 276.708 257.894 277.552ZM252.779 270.095C252.641 269.858 252.507 269.617 252.369 269.377C252.33 269.403 252.289 269.43 252.254 269.457C252.427 269.669 252.608 269.883 252.779 270.095Z" fill="url(#paint6_radial)"/>
<path opacity="0.4" d="M261.191 267.312C261.141 267.305 261.094 267.297 261.047 267.291C261.032 267.575 261.014 267.861 260.997 268.143C261.059 267.867 261.127 267.587 261.191 267.312ZM260.995 268.141C260.086 272.097 259.375 275.652 259.701 277.095C260.419 275.802 260.748 272.196 260.995 268.141ZM259.699 277.095C259.526 277.403 259.336 277.595 259.116 277.617C258.898 277.638 258.672 277.486 258.443 277.216C258.435 277.568 258.357 277.827 258.169 277.949C257.984 278.07 257.714 278.041 257.387 277.906C257.544 278.225 257.595 278.492 257.488 278.684C257.379 278.877 257.126 278.976 256.778 279.009C257.06 279.217 257.231 279.429 257.225 279.651C257.22 279.871 257.041 280.077 256.749 280.273C257.097 280.322 257.346 280.435 257.443 280.631C257.542 280.828 257.48 281.094 257.311 281.403C257.642 281.285 257.912 281.269 258.091 281.399C258.27 281.528 258.338 281.79 258.33 282.146C258.571 281.888 258.801 281.742 259.023 281.777C259.24 281.806 259.423 282.01 259.579 282.329C259.672 281.985 259.812 281.755 260.024 281.681C260.232 281.606 260.487 281.701 260.771 281.909C260.697 281.565 260.711 281.294 260.862 281.131C261.012 280.968 261.283 280.933 261.635 280.983C261.407 280.711 261.29 280.466 261.351 280.252C261.409 280.038 261.631 279.882 261.967 279.764C261.638 279.633 261.426 279.466 261.374 279.25C261.327 279.034 261.45 278.791 261.691 278.531C261.337 278.564 261.071 278.519 260.929 278.35C260.785 278.181 260.781 277.91 260.872 277.57C260.58 277.764 260.32 277.846 260.116 277.762C259.904 277.677 259.777 277.44 259.699 277.095ZM260.868 277.57C262.105 276.759 264.072 273.719 266.174 270.247C263.529 273.324 261.253 276.14 260.868 277.57ZM266.174 270.245C266.357 270.035 266.544 269.821 266.726 269.605C266.686 269.578 266.652 269.547 266.612 269.518C266.466 269.763 266.32 270.008 266.174 270.245ZM261.687 278.533C263.159 278.389 266.318 276.611 269.79 274.514C266.018 276.01 262.689 277.447 261.687 278.533ZM269.788 274.511C270.029 274.417 270.272 274.322 270.517 274.227C270.496 274.184 270.474 274.145 270.459 274.106C270.237 274.242 270.015 274.38 269.788 274.511ZM261.959 279.766C263.329 280.322 266.952 280.215 271.005 279.974C266.968 279.546 263.356 279.27 261.959 279.766ZM271.005 279.972C271.235 279.999 271.47 280.024 271.703 280.048C271.703 280.007 271.705 279.968 271.707 279.929C271.472 279.943 271.235 279.958 271.005 279.972ZM261.631 280.985C262.582 282.119 265.843 283.704 269.539 285.367C266.166 283.113 263.095 281.195 261.631 280.985ZM269.537 285.367C269.708 285.484 269.881 285.602 270.052 285.713C270.07 285.682 270.087 285.651 270.103 285.62C269.918 285.54 269.725 285.453 269.537 285.367ZM260.767 281.911C261.088 283.354 263.237 286.275 265.736 289.473C263.795 285.904 261.969 282.776 260.767 281.911ZM265.736 289.467C265.822 289.621 265.906 289.782 265.993 289.938C266.018 289.92 266.042 289.905 266.069 289.889C265.958 289.749 265.845 289.605 265.736 289.467ZM259.579 282.331C259.192 283.757 259.736 287.339 260.464 291.332C260.4 287.273 260.24 283.654 259.579 282.331ZM260.462 291.332C260.464 291.492 260.468 291.657 260.468 291.822C260.497 291.818 260.524 291.813 260.553 291.813C260.524 291.655 260.493 291.49 260.462 291.332ZM258.33 282.148C257.321 283.235 256.14 286.653 254.93 290.529C256.759 286.909 258.299 283.628 258.33 282.148ZM254.928 290.529C254.855 290.669 254.783 290.813 254.713 290.957C254.738 290.97 254.761 290.976 254.788 290.988C254.833 290.838 254.882 290.679 254.928 290.529ZM257.309 281.407C255.909 281.899 253.271 284.383 250.399 287.248C253.707 284.894 256.593 282.701 257.309 281.407ZM250.401 287.248C250.263 287.345 250.119 287.45 249.979 287.547C250 287.569 250.021 287.588 250.039 287.612C250.156 287.491 250.28 287.372 250.401 287.248ZM256.749 280.277C255.282 280.063 251.795 281.034 247.917 282.236C251.941 281.689 255.508 281.092 256.749 280.277ZM247.917 282.24C247.728 282.267 247.532 282.29 247.334 282.321C247.341 282.352 247.351 282.382 247.361 282.411C247.549 282.358 247.734 282.296 247.917 282.24ZM256.776 279.015C255.578 278.144 252.036 277.385 248.045 276.65C251.861 278.031 255.302 279.161 256.776 279.015ZM248.045 276.65C247.837 276.574 247.623 276.496 247.417 276.42C247.407 276.459 247.394 276.496 247.386 276.531C247.61 276.57 247.831 276.611 248.045 276.65ZM257.387 277.91C256.733 276.586 253.954 274.269 250.762 271.764C253.495 274.758 256.016 277.36 257.387 277.91ZM250.759 271.766C250.589 271.578 250.416 271.389 250.243 271.2C250.214 271.233 250.183 271.264 250.156 271.294C250.36 271.451 250.564 271.607 250.759 271.766ZM258.443 277.218C258.478 275.74 257.093 272.394 255.43 268.693C256.459 272.616 257.484 276.088 258.443 277.218ZM255.43 268.693C255.36 268.429 255.292 268.16 255.222 267.892C255.179 267.906 255.133 267.923 255.092 267.939C255.203 268.19 255.319 268.444 255.43 268.693Z" fill="url(#paint7_radial)"/>
<path d="M264.213 279.485C264.213 282.161 262.045 284.328 259.37 284.328C256.696 284.328 254.524 282.161 254.524 279.485C254.524 276.811 256.696 274.64 259.37 274.64C262.045 274.64 264.213 276.809 264.213 279.485Z" fill="#2C2317"/>
<path opacity="0.9" d="M264.213 279.485C264.213 282.161 262.045 284.328 259.37 284.328C256.696 284.328 254.524 282.161 254.524 279.485C254.524 276.811 256.696 274.64 259.37 274.64C262.045 274.64 264.213 276.809 264.213 279.485Z" fill="black"/>
<path opacity="0.5" d="M252.61 285.141C253.535 284.519 254.79 284.77 255.41 285.692C256.029 286.616 255.784 287.872 254.858 288.492C253.932 289.115 252.678 288.868 252.059 287.942C251.439 287.018 251.686 285.76 252.61 285.141Z" fill="url(#paint8_linear)"/>
<path opacity="0.5" d="M263.196 278.81C262.679 279.58 261.201 279.491 259.89 278.612C258.577 277.733 257.935 276.393 258.449 275.626V275.624C258.964 274.854 260.444 274.942 261.753 275.823C263.068 276.7 263.71 278.038 263.196 278.81Z" fill="url(#paint9_linear)"/>
<path opacity="0.75" d="M269.074 276.753C267.905 278.55 264.883 278.657 262.333 276.994C259.781 275.331 258.661 272.528 259.832 270.731C261.001 268.936 264.023 268.829 266.573 270.49C269.123 272.155 270.243 274.96 269.074 276.753Z" fill="url(#paint10_linear)"/>
<path d="M219.976 278.626C226.612 301.915 235.362 326.611 256.377 327.344C277.392 328.076 301.937 312.444 302.256 281.571C302.612 247.06 280.698 233.446 259.682 232.714C238.667 231.981 210.086 243.905 219.976 278.626ZM231.838 277.611C231.319 275.345 231.169 274.695 231.198 272.521C235.37 270.03 239.513 269.337 243.241 268.6C247.611 267.74 257.346 266.861 264.476 267.923C273.918 269.32 280.801 275.102 286.65 284.266C286.658 284.276 286.677 284.274 286.687 284.282C286.702 284.338 286.73 284.391 286.741 284.447C287.266 286.519 285.061 288.191 282.305 289.465C272.485 290.718 263.042 292.53 253.09 291.256C233.164 288.701 232.805 279.916 231.838 277.611Z" fill="#EFB591"/>
<path d="M259.316 302.478C278.367 305.361 296.05 296.282 298.806 282.185C301.564 268.088 288.366 254.322 269.313 251.434C250.257 248.555 232.583 257.634 229.824 271.733C227.066 285.828 240.26 299.586 259.316 302.478ZM231.195 272.521C235.569 270.173 239.511 269.337 243.238 268.6C247.608 267.74 257.344 266.861 264.474 267.923C273.915 269.321 280.798 275.102 286.648 284.266C286.656 284.276 286.674 284.274 286.685 284.282C286.699 284.338 286.728 284.391 286.738 284.447C287.263 286.52 285.059 288.191 282.303 289.465C272.482 290.719 263.039 292.53 253.087 291.256C233.161 288.702 232.803 279.917 231.833 277.611C231.317 275.345 231.168 274.693 231.195 272.521Z" fill="url(#paint11_radial)"/>
<path d="M231.838 277.612C231.319 275.346 231.169 274.695 231.198 272.522C235.504 270.103 239.513 269.337 243.241 268.6C247.611 267.74 257.346 266.861 264.476 267.923C273.917 269.321 280.8 275.103 286.65 284.266C286.658 284.276 286.677 284.274 286.687 284.283C286.702 284.338 286.73 284.392 286.741 284.447C287.266 286.52 285.061 288.191 282.305 289.465C272.485 290.719 263.041 292.53 253.09 291.256C233.163 288.702 232.805 279.917 231.838 277.612Z" fill="url(#paint12_radial)"/>
<path d="M263.642 262.499C270.422 263.609 277.031 266.727 283.155 270.619C284.466 271.451 285.966 272.4 288.344 273.606C286.64 273.219 285.063 272.336 283.591 271.525C285.106 272.962 286.518 274.672 287.671 276.329C282.482 269.827 272.651 264.93 264.289 263.261C256.257 261.658 241.67 262.718 230.839 267.464C240.756 261.884 255.224 261.125 263.642 262.499Z" fill="#C16E3B"/>
<path d="M286.656 284.171C280.796 275.238 273.909 269.594 264.466 268.225C254.518 266.774 241.267 267.771 233.521 272.019C232.887 272.367 230.214 274.59 230.638 272.26C232.437 269.858 239.534 267.067 242.973 266.233C281.556 256.882 288.867 287.417 286.656 284.171ZM231.366 277.099C229.893 281.345 233.138 290.795 252.248 292.542C265.822 293.781 284.701 288.94 282.369 289.222C272.532 290.434 263.072 292.205 253.102 290.949C230.498 288.109 233.058 277.473 231.366 277.099Z" fill="black"/>
<path d="M357.102 267.923C347.663 269.32 340.778 275.102 334.928 284.266C334.92 284.276 334.903 284.274 334.891 284.282C334.879 284.338 334.85 284.391 334.84 284.447C334.313 286.519 336.517 288.191 339.273 289.465C349.093 290.718 358.537 292.53 368.488 291.256C388.415 288.701 388.773 279.916 389.74 277.611C390.261 275.345 390.409 274.695 390.382 272.521C385.585 269.709 382.061 269.131 378.333 268.394C373.964 267.534 364.234 266.863 357.102 267.923Z" fill="url(#paint13_radial)"/>
<path d="M375.386 279.484C375.386 286.303 369.855 291.834 363.038 291.834C356.219 291.834 350.687 286.303 350.687 279.484C350.687 272.663 356.219 267.134 363.038 267.134C369.855 267.132 375.386 272.663 375.386 279.484Z" fill="#2C2317"/>
<path opacity="0.7" d="M361.653 267.271C361.605 267.277 361.556 267.283 361.507 267.289C361.566 267.567 361.626 267.847 361.682 268.125C361.669 267.843 361.663 267.555 361.653 267.271ZM361.68 268.123C361.822 272.182 362.06 275.798 362.746 277.105C363.104 275.672 362.491 272.103 361.68 268.123ZM362.744 277.107C362.657 277.451 362.521 277.685 362.318 277.764C362.11 277.842 361.852 277.751 361.562 277.552C361.645 277.895 361.636 278.163 361.488 278.33C361.34 278.496 361.074 278.538 360.722 278.49C360.953 278.758 361.074 279.003 361.023 279.217C360.965 279.431 360.747 279.591 360.42 279.715C360.745 279.845 360.965 280.005 361.017 280.219C361.068 280.433 360.951 280.678 360.718 280.944C361.068 280.9 361.336 280.946 361.48 281.112C361.626 281.279 361.634 281.549 361.552 281.893C361.842 281.693 362.099 281.606 362.303 281.687C362.513 281.765 362.645 282 362.727 282.345C362.892 282.033 363.081 281.833 363.301 281.81C363.518 281.781 363.748 281.932 363.979 282.197C363.983 281.843 364.055 281.582 364.242 281.456C364.421 281.331 364.693 281.355 365.022 281.483C364.862 281.17 364.808 280.905 364.907 280.707C365.012 280.511 365.265 280.407 365.617 280.365C365.327 280.162 365.148 279.954 365.154 279.731C365.152 279.509 365.327 279.301 365.621 279.102C365.269 279.058 365.022 278.953 364.917 278.758C364.814 278.562 364.872 278.295 365.035 277.982C364.703 278.105 364.436 278.13 364.252 278.004C364.069 277.879 363.997 277.618 363.995 277.263C363.767 277.527 363.534 277.673 363.316 277.644C363.096 277.615 362.908 277.422 362.744 277.107ZM363.995 277.261C364.981 276.16 366.097 272.715 367.225 268.814C365.469 272.472 363.999 275.784 363.995 277.261ZM367.225 268.814C367.348 268.563 367.474 268.308 367.593 268.053C367.55 268.038 367.507 268.018 367.463 267.999C367.383 268.273 367.305 268.547 367.225 268.814ZM365.037 277.982C366.422 277.463 369.013 274.929 371.825 272.003C368.569 274.423 365.726 276.673 365.037 277.982ZM371.825 272.003C372.031 271.848 372.241 271.694 372.453 271.539C372.422 271.502 372.391 271.471 372.366 271.439C372.185 271.624 372.006 271.815 371.825 272.003ZM365.619 279.102C367.087 279.283 370.557 278.243 374.41 276.959C370.401 277.593 366.84 278.262 365.619 279.102ZM374.41 276.961C374.636 276.928 374.873 276.891 375.104 276.854C375.093 276.815 375.085 276.776 375.075 276.737C374.855 276.811 374.628 276.887 374.41 276.961ZM365.615 280.363C366.831 281.211 370.386 281.901 374.39 282.551C370.549 281.248 367.085 280.188 365.615 280.363ZM374.39 282.551C374.585 282.619 374.781 282.689 374.976 282.753C374.986 282.718 374.995 282.685 375.003 282.65C374.801 282.619 374.591 282.586 374.39 282.551ZM365.022 281.481C365.706 282.792 368.538 285.058 371.778 287.499C368.982 284.556 366.407 282.008 365.022 281.481ZM371.78 287.495C371.901 287.623 372.025 287.755 372.146 287.884C372.167 287.86 372.187 287.841 372.21 287.818C372.066 287.711 371.917 287.602 371.78 287.495ZM363.985 282.195C363.979 283.675 365.43 286.993 367.169 290.661C366.058 286.756 364.965 283.303 363.985 282.195ZM367.169 290.663C367.212 290.817 367.258 290.976 367.299 291.134C367.33 291.122 367.352 291.114 367.379 291.105C367.309 290.957 367.237 290.805 367.169 290.663ZM362.729 282.343C362.038 283.654 361.78 287.263 361.614 291.32C362.445 287.347 363.081 283.78 362.729 282.343ZM361.614 291.32C361.579 291.474 361.55 291.63 361.517 291.789C361.546 291.795 361.566 291.795 361.597 291.799C361.601 291.641 361.61 291.476 361.614 291.32ZM361.552 281.891C360.325 282.728 358.421 285.81 356.39 289.321C358.973 286.192 361.194 283.327 361.552 281.891ZM356.39 289.321C356.283 289.451 356.17 289.589 356.058 289.718C356.085 289.735 356.108 289.747 356.135 289.768C356.219 289.619 356.307 289.469 356.39 289.321ZM360.718 280.946C359.245 281.117 356.128 282.959 352.697 285.122C356.439 283.554 359.732 282.053 360.718 280.946ZM352.697 285.126C352.518 285.2 352.337 285.274 352.156 285.353C352.168 285.379 352.185 285.408 352.203 285.435C352.368 285.334 352.533 285.229 352.697 285.126ZM360.42 279.717C359.037 279.188 355.418 279.371 351.372 279.694C355.416 280.04 359.033 280.24 360.42 279.717ZM351.372 279.694C351.153 279.674 350.925 279.653 350.709 279.635C350.707 279.674 350.703 279.713 350.707 279.75C350.931 279.729 351.156 279.711 351.372 279.694ZM360.722 278.494C359.747 277.385 356.464 275.866 352.732 274.273C356.147 276.455 359.255 278.315 360.722 278.494ZM352.732 274.273C352.518 274.135 352.3 273.997 352.084 273.859C352.065 273.898 352.045 273.937 352.026 273.972C352.263 274.073 352.504 274.172 352.732 274.273ZM361.562 277.552C361.214 276.115 359.008 273.242 356.447 270.094C358.456 273.618 360.344 276.708 361.562 277.552ZM356.447 270.094C356.31 269.858 356.174 269.617 356.04 269.376C356.001 269.403 355.96 269.43 355.923 269.456C356.097 269.668 356.277 269.882 356.447 270.094Z" fill="url(#paint14_radial)"/>
<path opacity="0.4" d="M364.86 267.312C364.81 267.305 364.763 267.297 364.716 267.291C364.699 267.575 364.683 267.861 364.666 268.143C364.726 267.867 364.794 267.587 364.86 267.312ZM364.664 268.141C363.752 272.097 363.044 275.652 363.367 277.095C364.088 275.802 364.417 272.196 364.664 268.141ZM363.367 277.095C363.195 277.403 363.003 277.595 362.785 277.617C362.567 277.638 362.34 277.486 362.112 277.216C362.104 277.568 362.025 277.827 361.838 277.949C361.653 278.07 361.383 278.041 361.056 277.906C361.21 278.225 361.264 278.492 361.157 278.684C361.046 278.877 360.795 278.976 360.445 279.009C360.729 279.217 360.898 279.429 360.891 279.651C360.887 279.871 360.708 280.077 360.418 280.273C360.768 280.322 361.013 280.435 361.112 280.631C361.21 280.828 361.149 281.094 360.98 281.403C361.313 281.285 361.583 281.269 361.762 281.399C361.941 281.528 362.009 281.79 361.999 282.146C362.24 281.888 362.47 281.742 362.692 281.777C362.908 281.806 363.092 282.01 363.248 282.329C363.343 281.985 363.481 281.755 363.693 281.681C363.901 281.606 364.158 281.701 364.44 281.909C364.368 281.565 364.382 281.294 364.532 281.131C364.681 280.968 364.952 280.933 365.304 280.983C365.078 280.711 364.959 280.466 365.02 280.252C365.076 280.038 365.3 279.882 365.636 279.764C365.308 279.633 365.094 279.466 365.043 279.25C364.998 279.034 365.121 278.791 365.36 278.531C365.006 278.564 364.738 278.519 364.598 278.35C364.454 278.181 364.45 277.91 364.543 277.57C364.248 277.764 363.989 277.846 363.785 277.762C363.575 277.677 363.444 277.44 363.367 277.095ZM364.537 277.57C365.774 276.759 367.741 273.719 369.843 270.247C367.198 273.324 364.921 276.14 364.537 277.57ZM369.843 270.245C370.026 270.035 370.213 269.821 370.397 269.605C370.355 269.578 370.32 269.547 370.281 269.518C370.135 269.763 369.989 270.008 369.843 270.245ZM365.356 278.533C366.827 278.389 369.985 276.611 373.459 274.514C369.686 276.01 366.358 277.447 365.356 278.533ZM373.457 274.511C373.696 274.417 373.939 274.322 374.186 274.227C374.165 274.184 374.143 274.145 374.128 274.106C373.906 274.242 373.684 274.38 373.457 274.511ZM365.627 279.766C366.998 280.322 370.621 280.215 374.676 279.974C370.635 279.546 367.025 279.27 365.627 279.766ZM374.674 279.972C374.902 279.999 375.139 280.024 375.371 280.048C375.373 280.007 375.373 279.968 375.375 279.929C375.143 279.943 374.904 279.958 374.674 279.972ZM365.3 280.985C366.253 282.119 369.511 283.704 373.208 285.367C369.835 283.113 366.764 281.195 365.3 280.985ZM373.206 285.367C373.375 285.484 373.55 285.602 373.721 285.713C373.739 285.682 373.758 285.651 373.77 285.62C373.587 285.54 373.393 285.453 373.206 285.367ZM364.438 281.911C364.757 283.354 366.906 286.275 369.404 289.473C367.463 285.904 365.64 282.776 364.438 281.911ZM369.406 289.467C369.491 289.621 369.575 289.782 369.662 289.938C369.686 289.92 369.709 289.905 369.738 289.889C369.627 289.749 369.511 289.605 369.406 289.467ZM363.248 282.331C362.861 283.757 363.404 287.339 364.133 291.332C364.069 287.273 363.909 283.654 363.248 282.331ZM364.131 291.332C364.133 291.492 364.137 291.657 364.137 291.822C364.168 291.818 364.191 291.813 364.22 291.813C364.193 291.655 364.162 291.49 364.131 291.332ZM361.997 282.148C360.99 283.235 359.807 286.653 358.596 290.529C360.428 286.909 361.966 283.628 361.997 282.148ZM358.596 290.529C358.524 290.669 358.454 290.813 358.382 290.957C358.407 290.97 358.428 290.976 358.454 290.988C358.502 290.838 358.551 290.679 358.596 290.529ZM360.978 281.407C359.578 281.899 356.941 284.383 354.07 287.248C357.376 284.894 360.261 282.701 360.978 281.407ZM354.07 287.248C353.932 287.345 353.786 287.45 353.648 287.547C353.669 287.569 353.689 287.588 353.708 287.612C353.825 287.491 353.951 287.372 354.07 287.248ZM360.418 280.277C358.95 280.063 355.466 281.034 351.588 282.236C355.61 281.689 359.179 281.092 360.418 280.277ZM351.588 282.24C351.396 282.267 351.201 282.29 351.005 282.321C351.014 282.352 351.022 282.382 351.032 282.411C351.217 282.358 351.403 282.296 351.588 282.24ZM360.445 279.015C359.247 278.144 355.704 277.385 351.713 276.65C355.529 278.031 358.971 279.161 360.445 279.015ZM351.713 276.65C351.506 276.574 351.291 276.496 351.086 276.42C351.073 276.459 351.063 276.496 351.055 276.531C351.277 276.57 351.499 276.611 351.713 276.65ZM361.056 277.91C360.401 276.586 357.621 274.269 354.428 271.764C357.164 274.758 359.685 277.36 361.056 277.91ZM354.428 271.766C354.257 271.578 354.085 271.389 353.912 271.2C353.881 271.233 353.854 271.264 353.823 271.294C354.027 271.451 354.235 271.607 354.428 271.766ZM362.112 277.218C362.147 275.74 360.762 272.394 359.099 268.693C360.13 272.616 361.153 276.088 362.112 277.218ZM359.099 268.693C359.029 268.429 358.961 268.16 358.889 267.892C358.845 267.906 358.8 267.923 358.759 267.939C358.872 268.19 358.987 268.444 359.099 268.693Z" fill="url(#paint15_radial)"/>
<path d="M367.881 279.484C367.881 282.16 365.712 284.328 363.038 284.328C360.362 284.328 358.193 282.16 358.193 279.484C358.193 276.811 360.364 274.639 363.038 274.639C365.716 274.639 367.881 276.809 367.881 279.484Z" fill="#2C2317"/>
<path opacity="0.9" d="M367.881 279.484C367.881 282.16 365.712 284.328 363.038 284.328C360.362 284.328 358.193 282.16 358.193 279.484C358.193 276.811 360.364 274.639 363.038 274.639C365.716 274.639 367.881 276.809 367.881 279.484Z" fill="black"/>
<path opacity="0.5" d="M356.281 285.141C357.203 284.519 358.46 284.77 359.078 285.692C359.7 286.616 359.455 287.872 358.526 288.492C357.6 289.115 356.347 288.868 355.729 287.942C355.107 287.018 355.354 285.76 356.281 285.141Z" fill="url(#paint16_linear)"/>
<path opacity="0.5" d="M366.863 278.809C366.346 279.579 364.868 279.491 363.559 278.612C362.246 277.733 361.604 276.393 362.118 275.625L362.12 275.623C362.635 274.853 364.115 274.942 365.424 275.823C366.737 276.7 367.379 278.037 366.863 278.809Z" fill="url(#paint17_linear)"/>
<path opacity="0.75" d="M372.745 276.753C371.574 278.55 368.554 278.657 366.002 276.994C363.452 275.33 362.33 272.527 363.501 270.73C364.67 268.935 367.69 268.828 370.242 270.489C372.792 272.155 373.912 274.96 372.745 276.753Z" fill="url(#paint18_linear)"/>
<path d="M361.898 232.714C340.881 233.447 318.968 247.06 319.322 281.571C319.639 312.446 344.184 328.078 365.201 327.344C386.216 326.611 398.519 291.688 401.602 278.626C409.897 243.489 382.913 231.981 361.898 232.714ZM368.488 291.256C358.537 292.53 349.093 290.718 339.273 289.465C336.517 288.193 334.313 286.522 334.84 284.447C334.852 284.391 334.881 284.338 334.891 284.282C334.903 284.274 334.92 284.276 334.928 284.266C340.78 275.102 347.665 269.32 357.102 267.923C364.234 266.861 373.97 267.74 378.339 268.6C382.067 269.335 386.21 270.028 390.382 272.521C390.411 274.693 390.261 275.345 389.74 277.611C388.775 279.916 388.415 288.701 368.488 291.256Z" fill="#EFB591"/>
<path d="M391.756 271.733C388.997 257.633 371.321 248.554 352.265 251.434C333.212 254.321 320.014 268.087 322.774 282.185C325.53 296.282 343.213 305.361 362.264 302.477C381.32 299.585 394.514 285.828 391.756 271.733ZM389.743 277.611C388.775 279.918 388.415 288.701 368.491 291.255C358.539 292.529 349.095 290.718 339.275 289.465C336.519 288.193 334.315 286.521 334.842 284.447C334.854 284.391 334.883 284.337 334.893 284.282C334.906 284.274 334.922 284.276 334.93 284.265C340.782 275.102 347.667 269.32 357.104 267.923C364.236 266.861 373.972 267.739 378.342 268.6C382.069 269.335 386.013 270.172 390.385 272.521C390.411 274.692 390.263 275.345 389.743 277.611Z" fill="url(#paint19_radial)"/>
<path d="M389.742 277.611C390.263 275.345 390.411 274.695 390.384 272.521C386.078 270.103 382.069 269.337 378.341 268.6C373.972 267.74 364.234 266.861 357.104 267.923C347.665 269.32 340.78 275.102 334.93 284.266C334.922 284.276 334.905 284.274 334.893 284.282C334.881 284.338 334.852 284.391 334.842 284.447C334.315 286.519 336.519 288.191 339.275 289.465C349.095 290.718 358.539 292.53 368.49 291.256C388.415 288.701 388.775 279.916 389.742 277.611Z" fill="url(#paint20_radial)"/>
<path d="M357.938 262.499C351.156 263.609 344.547 266.727 338.425 270.619C337.114 271.451 335.612 272.4 333.236 273.606C334.941 273.219 336.517 272.336 337.989 271.525C336.474 272.962 335.062 274.672 333.909 276.329C339.098 269.827 348.929 264.93 357.289 263.261C365.321 261.658 379.908 262.718 390.741 267.464C380.822 261.884 366.354 261.125 357.938 262.499Z" fill="#C16E3B"/>
<path d="M378.605 266.235C382.046 267.069 389.141 269.86 390.942 272.262C391.364 274.592 388.69 272.369 388.056 272.021C380.309 267.773 367.06 266.777 357.114 268.228C347.671 269.596 340.78 275.24 334.924 284.173C332.713 287.417 340.024 256.882 378.605 266.235ZM368.48 290.949C358.51 292.205 349.052 290.435 339.213 289.222C336.879 288.94 355.758 293.781 369.332 292.542C388.441 290.795 391.687 281.345 390.213 277.099C388.519 277.473 391.082 288.109 368.48 290.949Z" fill="black"/>
<path d="M404.968 347.798C405.048 399.534 363.134 441.551 311.343 441.621C259.561 441.706 217.513 399.831 217.433 348.084C217.353 296.352 259.266 254.171 311.055 254.088C362.839 254.008 404.893 296.055 404.968 347.798Z" fill="url(#paint21_radial)"/>
<path d="M396.964 210.636C396.964 258.001 358.567 296.398 311.204 296.398C263.838 296.398 225.439 258.001 225.439 210.636C225.439 163.27 263.838 124.874 311.204 124.874C358.567 124.874 396.964 163.27 396.964 210.636Z" fill="url(#paint22_radial)"/>
<path d="M207.137 274.978C223.378 234.965 295.535 270.834 296.308 255.195C296.446 252.063 294.448 250.623 291.505 250.014C256.909 243.103 212.309 240.234 207.137 274.978Z" fill="#2A232B"/>
<path d="M415.385 274.954C399.145 234.941 326.987 270.81 326.215 255.171C326.076 252.039 328.074 250.599 331.017 249.99C365.614 243.079 410.214 240.21 415.385 274.954Z" fill="#2A232B"/>
<path d="M302.956 284.023C302.956 284.023 299.277 313.261 297.628 318.952C294.001 331.45 281.406 348.98 283.849 356.901C288.738 372.739 303.672 368.718 311.528 368.66C318.794 368.602 332.757 372.742 335.624 362.427C336.55 359.097 334.464 350.681 334.464 350.681C334.464 350.681 327.51 358.866 311.123 357.959C306.446 357.698 298.838 352.446 298.751 345.04C298.638 335.001 303.49 326.537 304.55 316.572C305.35 309.003 302.956 284.023 302.956 284.023Z" fill="#E09C71"/>
<path d="M324.951 364.094C327.778 364.094 328.544 364.952 328.544 366.012C328.544 367.074 327.663 368.71 324.951 367.932C321.969 367.082 316.764 367.471 316.764 367.471C316.764 367.471 322.119 364.094 324.951 364.094ZM297.935 364.094C295.103 364.097 294.343 364.957 294.343 366.022C294.34 367.082 295.192 368.608 297.935 367.94C300.96 367.198 306.12 367.479 306.12 367.479C306.12 367.479 300.768 364.105 297.935 364.094ZM334.461 350.681C334.461 350.681 338.377 355.765 337.565 361.136C336.773 366.351 328.859 368.66 328.859 368.66C328.859 368.66 334.354 364.673 335.019 359.834C335.329 357.564 334.461 350.681 334.461 350.681ZM286.113 345.458C286.113 345.458 283.257 352.57 284.083 356.904C285.585 364.731 293.825 367.855 293.825 367.855C293.825 367.855 288.683 362.493 286.855 357.751C284.854 352.57 286.113 345.458 286.113 345.458Z" fill="#C16E3B"/>
<path d="M324.812 354.474C327.555 352.136 327.831 350.802 327.263 349.926C326.698 349.048 325.051 348.493 322.755 351.315C320.222 354.418 314.718 356.717 314.718 356.717C314.718 356.717 322.069 356.807 324.812 354.474Z" fill="#FED0B4"/>
<path d="M249.388 453.62C236.366 445.113 219.848 428.214 213.752 419.845C196.584 397.457 203.308 378.797 194.634 339.465C190.197 322.315 182.845 297.16 181.949 290.872C184.011 291.192 194.903 292.701 196.741 292.998C199.43 314.471 223.165 329.769 227.222 373.927C230.786 401.688 244.233 415.134 266.242 428.992C275.566 434.892 293.54 444.496 297.799 434.114C301.25 425.722 295.333 408.685 309.677 405.918C312.658 405.37 319.046 406.559 321.489 412.207C325.411 421.263 319.449 438.642 332.157 438.642C345.336 438.642 368.062 421.377 374.405 415.408C399.305 394.553 391.169 369.285 402.6 341.615C415.8 311.795 419.902 315.637 425.617 292.975C427.164 292.815 438.841 291.077 440.409 290.872C431.063 329.701 423.645 348.521 422.659 373.103C420.888 409.623 410.13 421.125 385.97 443.65C372.455 455.518 355.69 467.249 313.42 468.987C301.273 469.81 266.601 465.168 249.388 453.62Z" fill="#2A232B"/>
<path d="M300.847 412.573C302.237 409.257 304.792 406.65 309.655 405.712C312.703 405.164 319.248 406.398 321.713 412.138C321.803 412.321 321.848 412.527 321.915 412.71C318.127 416.117 312.322 435.646 300.847 412.573ZM403.093 411.864C385.006 444.656 352.53 462.744 316.939 462.859C314.138 463.019 309.005 463.087 305.487 462.859C269.873 462.744 237.397 444.656 219.311 411.864C198.624 380.215 202.748 340.769 185.894 307.931C188.561 317.809 191.945 329.861 194.433 339.534C203.106 378.843 196.383 397.572 213.595 420.005C219.893 428.649 236.366 445.388 249.276 453.826C265.66 464.802 297.373 469.536 311.202 469.33C325.03 469.536 356.766 464.825 373.127 453.826C386.037 445.388 402.51 428.649 408.808 420.005C426.021 397.572 419.297 378.843 427.971 339.534C430.459 329.861 433.843 317.809 436.51 307.931C419.656 340.769 423.78 380.215 403.093 411.864Z" fill="#1B141C"/>
<path d="M425.461 292.793C419.746 315.592 415.666 311.658 402.421 341.569C390.923 369.376 399.148 394.462 374.271 415.294C368.04 421.148 341.593 441.386 329.177 438.093C320.593 434.846 325.367 420.599 321.713 412.161C319.248 406.422 312.704 405.187 309.655 405.736C295.177 408.525 301.027 425.79 297.62 434.068C293.429 444.245 275.521 434.617 266.377 428.832C243.785 414.608 230.92 400.819 227.469 373.927C223.39 329.541 199.543 314.334 196.966 292.815C196.741 292.77 181.949 290.712 181.703 290.62C182.397 296.36 189.883 321.949 194.433 339.534C203.107 378.843 196.383 397.572 213.596 420.005C219.893 428.649 236.367 445.388 249.276 453.826C266.624 465.466 301.184 470.085 313.466 469.239C355.534 467.501 372.5 455.816 386.149 443.833C410.713 420.92 421.158 409.509 422.906 373.126C423.892 348.475 431.266 329.975 440.724 290.62C440.612 290.62 425.999 292.793 425.461 292.793ZM419.14 372.692C416.16 409.394 408.853 417.352 384.491 440.014C367.166 455.267 348.877 463.979 311.112 466.723C294.258 465.42 264.293 459.817 250.15 449.687C235.448 439.534 220.297 422.383 216.375 416.941C200.193 395.742 207.948 376.236 197.638 338.779C190.892 317.147 187.53 310.195 182.084 291.26C184.325 291.581 189.637 292.678 196.786 293.387C199.812 317.787 220.364 329.907 224.062 374.201C224.847 379.506 225.788 389.888 233.094 402.26C236.815 408.663 241.656 414.379 245.87 417.924C258.398 429.724 300.063 457.691 300.646 427.323C300.735 419.044 299.615 407.679 311.224 405.941C330.79 408.777 314.048 435.784 328.616 440.494C342.557 444.496 389.399 420.165 396.773 383.371C400.583 369.582 394.823 359.749 415.823 319.319C421.382 309.029 424.094 304.295 425.64 293.387C428.397 293.113 438.482 291.786 440.343 291.238C432.05 319.685 420.687 345.8 419.14 372.692Z" fill="black"/>
<path d="M261.345 454.956C261.253 422.618 250.505 406.312 253.638 389.297C258.418 363.271 305.347 362.333 308.182 370.452C310.172 376.17 306.033 381.727 300.841 383.465C290.595 387.102 269.784 386.598 268.069 399.268C267.497 402.722 268.366 408.05 269.372 414.225C271.796 428.931 274.769 447.181 261.345 454.956ZM361.058 454.956C341.824 443.819 356.301 410.909 354.334 399.291C352.619 386.621 331.807 387.124 321.561 383.488C316.37 381.75 312.23 376.193 314.22 370.475C317.033 362.356 363.962 363.294 368.765 389.32C371.898 406.289 361.149 422.641 361.058 454.956Z" fill="#2A232B"/>
<path d="M361.286 455.346C341.435 444.345 356.049 410.864 354.105 399.314C353.419 394.146 349.417 391.218 344.294 389.274C371.12 385.867 346.489 430.966 358.656 449.811C355.843 434.214 361.401 419.623 363.184 404.071C364.694 391.013 363.23 378.64 345.666 369.24C354.997 371.733 367.575 381.544 368.993 389.229C372.149 406.381 361.286 422.756 361.286 455.346ZM358.976 401.167C360.303 385.364 343.448 379.669 327.896 378.914C325.403 378.754 322.865 378.526 320.784 377.748C316.599 376.353 314.975 372.602 314.975 372.602C315.021 372.579 315.203 373.471 315.981 374.729C319.251 380.264 326.181 380.47 334.78 381.613C334.78 381.613 342.35 382.482 351.018 387.696C356.804 392.385 358.062 392.705 358.816 403.454C358.816 403.477 358.885 402.608 358.976 401.167ZM343.333 372.374C343.15 372.282 337.593 370.247 337.593 370.453C331.144 368.76 325.015 368.417 318.68 369.904C329.909 368.669 353.602 373.814 360.234 389.846C357.993 381.018 352.39 375.987 343.333 372.374ZM359.457 418.822C361.241 410.589 361.355 409.286 361.355 409.286C362.453 402.219 361.515 397.393 360.852 393.917C361.103 397.942 361.286 400.961 360.028 409.08C359.891 409.08 356.301 426.621 356.598 430.577C356.712 432.453 356.506 430.875 356.941 433.825C356.85 428.222 358.084 424.974 359.457 418.822ZM319.183 372.214C329.474 378.091 343.219 376.216 352.916 382.939C344.02 374.569 328.925 376.17 319.183 372.214ZM253.409 389.252C254.827 381.567 267.405 371.779 276.736 369.263C259.172 378.663 257.731 391.035 259.218 404.094C261.002 419.646 266.559 434.237 263.746 449.834C275.913 430.989 251.282 385.89 278.109 389.297C272.963 391.241 268.983 394.169 268.297 399.337C266.353 410.886 280.967 444.368 261.116 455.368C261.116 422.756 250.253 406.381 253.409 389.252ZM263.586 403.477C264.341 392.728 265.599 392.408 271.385 387.719C280.052 382.505 287.622 381.636 287.622 381.636C296.221 380.492 303.151 380.264 306.421 374.752C307.199 373.494 307.382 372.602 307.428 372.625C307.428 372.625 305.804 376.399 301.619 377.771C299.538 378.548 296.999 378.777 294.506 378.937C278.955 379.692 262.1 385.387 263.426 401.19C263.518 402.608 263.586 403.477 263.586 403.477ZM262.191 389.846C268.8 373.814 292.494 368.669 303.746 369.904C297.411 368.394 291.282 368.76 284.832 370.453C284.832 370.27 279.252 372.305 279.092 372.374C270.013 375.987 264.432 381.018 262.191 389.846ZM265.484 433.802C265.919 430.875 265.69 432.43 265.827 430.555C266.125 426.598 262.511 409.057 262.397 409.057C261.139 400.938 261.322 397.919 261.574 393.894C260.888 397.37 259.973 402.196 261.07 409.263C261.07 409.263 261.185 410.566 262.969 418.799C264.318 424.974 265.553 428.222 265.484 433.802ZM269.509 382.939C279.206 376.216 292.928 378.091 303.243 372.214C293.477 376.17 278.383 374.569 269.509 382.939Z" fill="#1B141C"/>
<path d="M368.993 389.251C364.191 363.157 316.942 361.945 314.014 370.383C311.956 376.284 316.278 381.933 321.493 383.694C331.693 387.33 352.436 386.85 354.105 399.314C356.049 410.863 341.435 444.345 361.286 455.345C361.286 422.756 372.149 406.381 368.993 389.251ZM360.509 453.904C360.509 453.95 360.509 454.019 360.532 454.064C352.138 447.707 350.835 441.211 355.752 410.131C356.301 405.946 361.309 391.744 345.986 386.621C339.583 384.128 325.975 382.848 322.225 381.773C318.039 380.652 311.956 375.575 314.815 370.635C319.251 362.951 357.193 367.914 364.442 383.625C372.195 400.389 358.107 420.331 360.509 453.904ZM261.116 455.345C280.967 444.345 266.353 410.863 268.297 399.314C269.967 386.85 290.71 387.33 300.91 383.694C306.124 381.933 310.447 376.284 308.388 370.383C305.461 361.945 258.212 363.157 253.409 389.251C250.253 406.381 261.116 422.756 261.116 455.345ZM257.96 383.625C265.21 367.914 303.151 362.951 307.588 370.635C310.424 375.575 304.363 380.652 300.178 381.773C296.427 382.848 282.82 384.128 276.416 386.621C261.07 391.767 266.102 405.946 266.651 410.131C271.568 441.211 270.264 447.707 261.871 454.064C261.894 454.019 261.894 453.95 261.894 453.904C264.295 420.331 250.207 400.389 257.96 383.625Z" fill="black"/>
<path d="M187.875 304.152C182.444 283.995 179.519 266.345 175.458 247.933L175.644 247.889C174.107 244.027 168.557 213.45 168.506 213.121C162.847 172.485 179.696 170.167 179.353 153.213C186.447 156.837 193.343 155.04 199.567 150.091C193.027 146.663 195.092 146.121 186.407 140.727C192.528 139.648 196.102 141.104 201.302 141.765C196.858 137.231 188.135 127.981 182.467 129.206L182.097 128.397C190.302 121.863 201.255 135.465 211.13 131.781C211.428 94.3401 265.07 86.5651 278.125 81.0014C295.506 74.2532 313.662 59.4121 326.431 58.0858C319.203 65.4972 314.776 77.4066 314.447 86.3456C324.976 76.0872 325.72 76.3867 341.68 58.3008C341.68 72.8537 337.729 74.6808 332.601 83.2219C346.521 73.9147 363.878 47.8023 390.607 43.8096L390.9 44.6557C381.267 50.4457 373.813 60.2148 368.717 73.7158C373.775 67.4821 380.934 60.7201 388.856 59.4967L389.154 60.3405C384.19 63.3705 374.465 73.4711 372.24 90.384C382.059 79.1949 397.678 69.9221 408.4 66.4188L408.819 67.21C398.976 75.3806 395.029 89.6842 392.803 101.845C399.706 91.3719 403.723 88.9845 412.407 84.5848C409.613 88.8496 409.794 88.1041 407.571 92.7393C412.941 106.741 430.685 107.285 433.717 131.749C437.37 128.493 438.82 127.676 443.021 124.678L443.653 125.301C440.497 130.302 437.895 139.158 436.162 145.086C442.393 140.231 452.015 136.654 458.79 134.159L459.263 134.909C453.546 140.839 446.604 149.879 445.452 159.684C447.694 158.33 447.801 158.486 450.719 156.332C450.719 163.377 450.955 162.479 451.004 165.719C453.821 163.146 454.254 162.787 456.105 160.732C455.695 234.736 451.97 219.986 441.947 271.562C440.19 280.624 437.081 296.448 435.087 304.05L421.529 306.426C425.72 255.216 421.321 266.38 424.369 234.155C428.878 186.638 391.19 147.688 341.387 160.437C331.31 163.016 291.093 163.014 281.021 160.437C226.005 146.343 206.183 179.142 200.278 236.535C197.384 264.704 196.676 255.198 200.876 306.426L187.875 304.152Z" fill="#2A232B"/>
<path d="M451.002 165.721C450.955 162.479 450.717 163.38 450.717 156.334C447.799 158.486 447.692 158.333 445.45 159.687C446.602 149.881 453.543 140.841 459.261 134.912L458.788 134.162C452.015 136.659 442.393 140.233 436.16 145.088C437.891 139.161 440.495 130.304 443.651 125.303L443.019 124.681C438.818 127.679 437.368 128.495 433.715 131.752C430.683 107.29 412.939 106.744 407.569 92.7418C409.792 88.1065 409.611 88.852 412.405 84.5872C403.721 88.9869 399.704 91.3743 392.801 101.848C395.027 89.6867 398.976 75.383 408.817 67.2124L408.398 66.4212C397.676 69.9245 382.057 79.1973 372.238 90.3864C374.463 73.4736 384.188 63.3729 389.152 60.343L388.854 59.4992C380.932 60.7226 373.773 67.4868 368.714 73.7182C373.811 60.2172 381.268 50.4482 390.898 44.6581L390.605 43.812C363.876 47.8047 346.519 73.9172 332.599 83.2243C337.727 74.6833 341.678 72.8538 341.678 58.3032C325.718 76.3892 324.974 76.0896 314.445 86.348C314.772 77.4091 319.201 65.4973 326.429 58.0882C313.663 59.4146 295.506 74.2533 278.123 81.0039C265.07 86.5653 211.428 94.3402 211.13 131.784C201.255 135.468 190.302 121.866 182.097 128.399L182.467 129.209C188.135 127.981 196.858 137.231 201.302 141.768C196.105 141.107 192.528 139.65 186.407 140.729C195.092 146.124 193.028 146.666 199.568 150.094C193.344 155.042 186.447 156.84 179.354 153.215C179.697 170.171 162.845 172.49 168.506 213.124C168.558 213.453 174.107 244.029 175.644 247.892L175.458 247.935C179.52 266.348 182.444 283.999 187.875 304.155L187.933 304.162C186.452 266.563 163.235 213.112 176.859 178.875C178.636 174.404 185.513 162.614 185.513 162.614C185.513 162.614 207.089 159.723 208.104 151.18C208.104 151.18 203.622 148.893 201.381 146.606C205.863 148.893 205.863 142.033 210.346 144.32C210.346 139.746 203.622 142.033 203.622 137.459C208.104 137.459 212.587 137.459 217.069 142.033C214.828 130.599 217.069 119.165 226.034 112.305C248.447 94.0109 277.583 96.2977 299.996 78.0036C297.754 89.4374 295.513 100.871 295.513 112.305C308.961 105.445 313.443 91.7242 324.649 82.5771C326.891 91.7242 322.408 103.158 322.408 112.305C329.132 96.2977 338.097 80.2904 358.268 75.7169C349.303 84.8639 349.303 98.5845 349.303 110.018C349.303 100.871 358.268 96.2977 360.509 89.4374C360.509 98.5845 360.509 107.731 360.509 116.879C364.992 103.158 373.957 96.2977 385.163 91.7242C376.198 100.871 378.439 110.018 376.198 121.452C382.922 114.592 391.887 112.305 398.61 105.445C405.334 119.165 400.852 130.599 400.852 144.32C403.093 132.886 414.299 126.026 421.023 116.879C423.264 128.312 423.264 139.746 421.023 151.18C423.264 144.32 427.747 139.746 429.988 132.886C429.988 143.999 428.491 153.608 425.55 162.938C428.363 159.618 432.955 158.111 434.47 153.467C434.47 163.357 434.47 171.541 434.47 180.97C435.77 178.244 439.603 177.292 441.194 174.047C439.28 181.852 440.625 188.004 441.062 195.319C441.893 190.837 446.123 188.088 447.651 183.961C447.741 182.181 447.833 180.4 447.916 178.621C448.429 180.707 448.218 182.426 447.651 183.961C445.607 224.599 441.84 265.177 433.63 304.308L435.082 304.054C437.077 296.453 440.183 280.629 441.943 271.566C451.968 219.991 455.693 234.74 456.101 160.736C454.252 162.792 453.819 163.151 451.002 165.721Z" fill="#3A353A"/>
<path d="M463.111 132.188C452.02 134.095 444.271 137.763 438.346 141.907C439.209 139.609 443.261 126.654 447.624 121.212C440.923 124.26 437.046 127.53 434.804 129.238C434.804 126.878 433.912 124.153 433.482 122.744C433.059 121.566 432.702 120.19 430.633 116.753C419.044 100.068 418.32 107.048 408.828 94.2737C410.559 90.1324 413.062 86.1054 416.202 82.7713C407.443 84.0405 402.833 87.5164 397.286 93.0846C397.196 93.1761 397.129 93.2676 397.062 93.359C400.538 79.3503 407.349 67.2054 420.729 62.6479C404.18 62.035 383.693 74.5207 373.394 86.979C377.841 72.3872 383.807 65.4354 392.671 58.9662C386.293 58.0035 380.042 60.663 375.098 64.866C380.793 54.8111 389.256 46.8029 396.056 43.0732C395.09 43.0503 393.949 42.9817 392.694 43.0732C390.952 42.6181 380.414 44.3675 376.646 46.0231C357.979 53.4597 344.397 70.7704 338.568 76.3913C342.862 69.3069 343.072 64.276 342.288 56.9081C340.82 58.1955 316.256 82.1882 315.953 82.4969C317.695 72.6433 320.985 66.6337 327.204 57.8228C316.117 55.7053 288.359 74.3263 271.151 79.2955C253.122 84.2783 208.387 94.6693 210.435 131.205C200.809 133.078 186.714 117.308 179.327 130.542C185.257 126.952 193.113 135.595 198.579 140.535C196.338 140.162 188.845 138.367 185.221 140.832C189.466 142.513 193.178 147.537 198.422 150.208C198.49 150.231 198.557 150.254 198.624 150.299C193.83 152.879 188.164 154.951 182.958 153.478C182.173 153.249 181.658 153.112 181.658 153.089C181.053 152.815 180.403 152.54 179.708 152.22H179.685L179.663 152.197C179.372 152.037 179.08 151.877 178.767 151.717C180.324 164.541 161.247 174.939 163.347 202.072C164.21 218.767 174.439 269.549 187.297 303.983L188.379 304.312C183.018 284.587 179.914 266.032 175.898 247.827C175.548 247.827 169.01 213.425 168.95 213.046C163.333 172.728 180.143 169.803 179.82 153.956C186.815 157.525 194.46 154.953 200.395 150C193.406 146.453 194.897 145.454 187.664 140.967C192.512 140.112 198.429 142.072 202.501 142.339C197.243 136.974 188.384 127.452 182.375 128.756C190.372 122.387 201.419 136.236 211.578 132.094C211.578 94.6305 264.748 87.1939 278.3 81.4199C294.596 75.0947 314.795 59.7505 325.23 58.6666C319.761 64.2875 313.979 76.7343 313.979 87.434C324.813 76.8281 325.88 76.8806 341.232 59.4899C341.232 73.2424 336.196 75.6984 331.301 84.5756C345.677 76.1192 363.08 48.3808 390.672 44.26C379.121 51.2049 371.767 63.2973 367.341 76.2061C372.612 69.2109 380.34 61.2735 388.924 59.9472C384.421 62.6959 373.547 73.1692 371.621 91.8018C381.36 80.1073 397.589 70.4297 408.535 66.8532C398.214 75.424 394.263 90.5692 391.972 103.944C395.753 98.0606 399.496 92.7462 405.352 88.989C405.377 88.9662 405.419 88.9433 405.442 88.9433C407.748 87.3449 407.145 87.7793 411.092 85.7647C409.593 88.0515 409.454 87.7542 407.08 92.7165C412.518 107.299 430.665 107.381 433.368 132.666C437.53 128.9 438.839 128.221 443.274 125.051C439.818 130.526 437.035 140.528 435.318 146.364C441.829 140.681 453.873 136.462 458.94 134.587C452.217 141.562 445.688 150.814 444.91 160.565C446.286 159.62 448.035 158.872 450.267 157.226C450.267 163.455 450.558 162.623 450.558 166.739C451.737 165.639 454.413 163.286 455.648 161.914C455.209 234.441 451.435 220.372 441.504 271.472C437.788 290.626 435.826 299.485 434.598 304.134L435.558 303.935C443.59 279.35 459.622 223.803 458.898 195.049C458.824 184.301 456.524 161.891 456.41 159.604C456.363 159.645 451.739 164.109 451.681 164.109C451.681 162.941 451.21 157.969 451.21 155.259C450.419 155.879 448.756 157.038 446.526 158.369C449.617 148.85 454.321 142.934 463.111 132.188Z" fill="black"/>
</g>
<defs>
<linearGradient id="paint0_linear" x1="300" y1="-75" x2="300" y2="675" gradientUnits="userSpaceOnUse">
<stop stop-color="#151371"/>
<stop offset="0.453125" stop-color="#FF00B8"/>
<stop offset="0.96875" stop-color="#FFC700"/>
</linearGradient>
<linearGradient id="paint1_linear" x1="439" y1="245" x2="439" y2="644" gradientUnits="userSpaceOnUse">
<stop stop-color="#FF00B8"/>
<stop offset="1" stop-color="#F0DB0A" stop-opacity="0"/>
</linearGradient>
<linearGradient id="paint2_linear" x1="194" y1="161" x2="194" y2="560" gradientUnits="userSpaceOnUse">
<stop stop-color="#FF00B8"/>
<stop offset="1" stop-color="#F0DB0A" stop-opacity="0"/>
</linearGradient>
<linearGradient id="paint3_linear" x1="311.202" y1="480.502" x2="311.202" y2="368.439" gradientUnits="userSpaceOnUse">
<stop stop-color="#E09C71" stop-opacity="0.8"/>
<stop offset="0.7" stop-color="#C16E3B"/>
</linearGradient>
<linearGradient id="paint4_linear" x1="311.202" y1="407.319" x2="311.202" y2="402.745" gradientUnits="userSpaceOnUse">
<stop offset="0.1" stop-color="#E7A881"/>
<stop offset="1" stop-color="#E09C71"/>
</linearGradient>
<radialGradient id="paint5_radial" cx="0" cy="0" r="1" gradientUnits="userSpaceOnUse" gradientTransform="translate(257.843 280.033) rotate(177.797) scale(30.0108 25.1576)">
<stop stop-color="white"/>
<stop offset="0.544" stop-color="#FDFEFE"/>
<stop offset="0.74" stop-color="#F6F8F9"/>
<stop offset="0.879" stop-color="#EAEFF2"/>
<stop offset="0.992" stop-color="#D9E3E8"/>
<stop offset="1" stop-color="#D8E2E7"/>
</radialGradient>
<radialGradient id="paint6_radial" cx="0" cy="0" r="1" gradientUnits="userSpaceOnUse" gradientTransform="translate(259.212 279.526) rotate(-14.4847) scale(12.1941 12.1968)">
<stop stop-color="white"/>
<stop offset="1" stop-color="white" stop-opacity="0"/>
</radialGradient>
<radialGradient id="paint7_radial" cx="0" cy="0" r="1" gradientUnits="userSpaceOnUse" gradientTransform="translate(259.213 279.539) rotate(0.512025) scale(12.1871 12.1873)">
<stop stop-color="white"/>
<stop offset="1" stop-color="white" stop-opacity="0"/>
</radialGradient>
<linearGradient id="paint8_linear" x1="252.514" y1="288.269" x2="254.44" y2="285.972" gradientUnits="userSpaceOnUse">
<stop stop-color="white"/>
<stop offset="1" stop-color="white" stop-opacity="0"/>
</linearGradient>
<linearGradient id="paint9_linear" x1="261.862" y1="275.978" x2="260.32" y2="277.816" gradientUnits="userSpaceOnUse">
<stop stop-color="white"/>
<stop offset="1" stop-color="white" stop-opacity="0"/>
</linearGradient>
<linearGradient id="paint10_linear" x1="266.851" y1="270.885" x2="263.298" y2="275.119" gradientUnits="userSpaceOnUse">
<stop stop-color="white"/>
<stop offset="1" stop-color="white" stop-opacity="0"/>
</linearGradient>
<radialGradient id="paint11_radial" cx="0" cy="0" r="1" gradientUnits="userSpaceOnUse" gradientTransform="translate(264.519 275.929) rotate(7.8743) scale(34.9923 26.1885)">
<stop stop-color="#E09C71"/>
<stop offset="0.7" stop-color="#E09C71" stop-opacity="0.3"/>
<stop offset="1" stop-color="#EFB591" stop-opacity="0"/>
</radialGradient>
<radialGradient id="paint12_radial" cx="0" cy="0" r="1" gradientUnits="userSpaceOnUse" gradientTransform="translate(254.794 300.825) rotate(-4.77486) scale(38.9257 33.4201)">
<stop offset="0.95" stop-opacity="0"/>
<stop offset="1" stop-opacity="0.2"/>
</radialGradient>
<radialGradient id="paint13_radial" cx="0" cy="0" r="1" gradientUnits="userSpaceOnUse" gradientTransform="translate(363.739 280.034) rotate(2.203) scale(30.0086 25.1557)">
<stop stop-color="white"/>
<stop offset="0.544" stop-color="#FDFEFE"/>
<stop offset="0.74" stop-color="#F6F8F9"/>
<stop offset="0.879" stop-color="#EAEFF2"/>
<stop offset="0.992" stop-color="#D9E3E8"/>
<stop offset="1" stop-color="#D8E2E7"/>
</radialGradient>
<radialGradient id="paint14_radial" cx="0" cy="0" r="1" gradientUnits="userSpaceOnUse" gradientTransform="translate(362.88 279.525) rotate(-14.4847) scale(12.1943 12.197)">
<stop stop-color="white"/>
<stop offset="1" stop-color="white" stop-opacity="0"/>
</radialGradient>
<radialGradient id="paint15_radial" cx="0" cy="0" r="1" gradientUnits="userSpaceOnUse" gradientTransform="translate(362.881 279.539) rotate(0.512025) scale(12.1875 12.1877)">
<stop stop-color="white"/>
<stop offset="1" stop-color="white" stop-opacity="0"/>
</radialGradient>
<linearGradient id="paint16_linear" x1="356.182" y1="288.269" x2="358.108" y2="285.972" gradientUnits="userSpaceOnUse">
<stop stop-color="white"/>
<stop offset="1" stop-color="white" stop-opacity="0"/>
</linearGradient>
<linearGradient id="paint17_linear" x1="365.531" y1="275.977" x2="363.989" y2="277.815" gradientUnits="userSpaceOnUse">
<stop stop-color="white"/>
<stop offset="1" stop-color="white" stop-opacity="0"/>
</linearGradient>
<linearGradient id="paint18_linear" x1="370.52" y1="270.885" x2="366.967" y2="275.118" gradientUnits="userSpaceOnUse">
<stop stop-color="white"/>
<stop offset="1" stop-color="white" stop-opacity="0"/>
</linearGradient>
<radialGradient id="paint19_radial" cx="0" cy="0" r="1" gradientUnits="userSpaceOnUse" gradientTransform="translate(357.061 275.929) rotate(172.126) scale(34.9902 26.187)">
<stop stop-color="#E09C71"/>
<stop offset="0.7" stop-color="#E09C71" stop-opacity="0.3"/>
<stop offset="1" stop-color="#EFB591" stop-opacity="0"/>
</radialGradient>
<radialGradient id="paint20_radial" cx="0" cy="0" r="1" gradientUnits="userSpaceOnUse" gradientTransform="translate(366.788 300.825) rotate(-175.225) scale(38.9257 33.4201)">
<stop offset="0.95" stop-opacity="0"/>
<stop offset="1" stop-opacity="0.2"/>
</radialGradient>
<radialGradient id="paint21_radial" cx="0" cy="0" r="1" gradientUnits="userSpaceOnUse" gradientTransform="translate(311.202 347.857) scale(93.7665)">
<stop stop-color="#FED0B4" stop-opacity="0.5"/>
<stop offset="0.9" stop-color="#EFB591" stop-opacity="0"/>
</radialGradient>
<radialGradient id="paint22_radial" cx="0" cy="0" r="1" gradientUnits="userSpaceOnUse" gradientTransform="translate(311.201 210.638) scale(84.6185)">
<stop stop-color="#FED0B4" stop-opacity="0.5"/>
<stop offset="0.9" stop-color="#EFB591" stop-opacity="0"/>
</radialGradient>
<clipPath id="clip0">
<rect width="600" height="600" fill="white"/>
</clipPath>
</defs>
</svg>
