<svg width="155" height="181" viewBox="0 0 155 181" fill="none" xmlns="http://www.w3.org/2000/svg">
<g opacity="0.6" filter="url(#filter0_df_3002_11132)">
<circle cx="77.39" cy="77.39" r="45.39" fill="url(#paint0_linear_3002_11132)"/>
<mask id="mask0_3002_11132" style="mask-type:alpha" maskUnits="userSpaceOnUse" x="32" y="32" width="91" height="91">
<circle r="45.39" transform="matrix(1 0 0 -1 77.39 77.3902)" fill="url(#paint1_linear_3002_11132)"/>
</mask>
<g mask="url(#mask0_3002_11132)">
<path d="M50.9474 114.26C50.8816 113.441 50.8358 112.877 50.772 112.087C51.4197 112.185 52.1771 112.253 52.9125 112.42C53.9748 112.661 54.3934 112.412 54.501 111.302C54.5548 110.743 54.7262 110.077 54.503 109.633C53.7974 108.225 54.7641 107.621 55.6231 106.969C56.9385 105.971 57.1378 105.47 56.5179 103.939C56.3704 103.576 56.0177 103.273 55.7028 103.01C55.1268 102.529 54.5209 102.083 53.9051 101.652C53.05 101.052 52.205 100.428 51.3002 99.9118C50.5568 99.4892 49.7336 99.2101 48.773 98.7914C48.2448 97.4218 46.9972 96.2993 46.198 96.3312C45.4506 95.6813 44.8866 95.1909 44.3205 94.6984C45.0241 93.2391 44.0296 92.0509 43.5692 90.8268C43.1407 89.6884 42.2896 88.8112 41.2214 88.0775C40.4979 87.5811 40.0116 86.6461 39.5931 85.8207C38.9274 84.5089 38.4491 83.1014 37.7894 81.7876C37.614 81.4367 36.9583 81.3509 36.7111 81.01C36.1491 80.2305 35.7046 79.3673 35.1705 78.4701C34.3215 78.6954 34.9114 77.874 34.7978 77.2241C34.2238 77.553 33.7594 77.8182 33.2113 78.1292C32.6274 77.2361 32.3683 76.0857 32.5257 74.8437C32.6633 73.7571 32.8526 72.6786 33.0101 71.594C33.0579 71.2671 33.1595 70.9102 33.0838 70.6072C32.6812 69.0142 33.3588 67.6127 33.7853 66.1573C34.3434 64.2574 34.8217 62.3335 35.4097 60.4416C35.6728 59.5962 36.1172 58.8068 36.5058 57.9316C37.4147 58.6772 37.1317 59.5364 36.9025 60.3179C36.6513 61.1752 36.2328 61.9807 35.9338 62.826C35.8083 63.1808 35.8003 63.5776 35.7405 63.9564C35.8422 63.9843 35.9438 64.0102 36.0454 64.0381C36.45 62.8878 36.9064 61.7514 37.2453 60.5811C37.6259 59.2773 38.3932 58.2864 39.613 57.8C40.5876 57.4092 41.1835 56.9048 41.5004 55.8621C41.8193 54.8195 44.2229 53.4399 45.2234 53.5156C46.1681 51.9686 46.3993 51.8629 49.5941 51.6017C48.8706 51.9626 48.3604 52.2158 47.8502 52.4709C47.898 52.5706 47.9479 52.6703 47.9957 52.77C49.1736 52.3832 50.6225 52.6544 51.4875 51.3126C51.334 51.2508 51.2723 51.201 51.2224 51.211C50.8139 51.2907 50.4073 51.3804 50.0007 51.4681C50.0784 51.0196 50.0884 50.5431 50.2538 50.1304C50.3993 49.7676 50.7202 49.4725 51.047 49.0399C50.6644 48.9502 50.3335 48.8724 50.0027 48.7947C49.9808 48.7229 49.9569 48.6531 49.9349 48.5813C50.5189 48.4358 51.1128 48.1348 51.6828 48.1786C52.775 48.2644 53.8532 48.5474 54.8278 48.7269C54.1921 49.2851 53.363 50.0168 52.3684 50.892C53.3032 50.898 53.3928 51.9127 54.1741 51.9327C54.4312 51.9386 54.784 51.9805 54.9295 51.837C55.3819 51.3924 55.3201 50.2221 54.8079 49.638C55.3062 49.0498 55.7785 48.4039 56.3406 47.8477C56.9943 47.2017 56.6335 46.4242 56.6594 45.7304C56.6834 45.0586 56.5658 44.5243 57.2275 44.0039C57.7018 43.6311 57.8891 42.8935 58.3157 42.1179C57.6679 42.3771 57.2135 42.5585 56.7611 42.7399C56.6873 42.6762 56.6156 42.6143 56.5418 42.5506C56.7431 42.2216 56.9245 41.8747 57.1557 41.5677C57.2912 41.3883 57.6201 41.3045 57.6699 41.1231C57.7795 40.7403 57.7636 40.3197 57.7995 39.9149C57.4407 39.9568 56.9943 39.8771 56.7372 40.0625C55.7845 40.7463 54.8936 41.5158 53.9808 42.2575C53.8772 42.3412 53.8034 42.4608 53.6938 42.5326C52.2648 43.4477 50.8338 44.3568 49.2134 45.3875C49.5642 44.8592 49.7496 44.3289 50.1203 44.0697C51.2762 43.2623 51.6549 41.9724 52.3405 40.8659C52.6395 40.3835 53.1338 39.9429 53.642 39.6837C54.9315 39.0218 56.2788 38.4715 57.8493 37.7658C57.7138 38.1984 57.6659 38.3499 57.5862 38.6051C58.6844 39.0597 58.8538 37.5744 59.7885 37.5345C60.6555 37.4986 61.5025 36.9683 62.3456 36.6593C62.0785 35.7084 62.3854 35.4572 64.1632 35.0305C62.7701 36.1051 62.7701 36.1051 63.2962 36.7052C62.4572 38.4137 60.6336 38.2263 59.2484 38.7666C59.1607 39.4484 59.081 40.0764 58.9694 40.9556C59.4477 40.6267 59.7148 40.4433 59.9938 40.2519C60.0436 40.4134 60.0875 40.5569 60.1991 40.9158C60.8687 40.1362 61.4487 39.4604 62.22 38.5613C62.0526 39.0637 61.9729 39.3009 61.8453 39.6837C62.788 39.5003 63.5055 39.3169 63.659 38.2662C63.7048 37.9472 64.0416 37.6661 64.2609 37.379C64.5539 36.9943 64.8688 36.6274 65.1577 36.2407C65.4049 35.9117 65.6261 35.5648 65.8713 35.2079C65.65 34.875 65.375 34.4563 64.9983 33.8881C65.5205 33.7506 65.9251 33.6449 66.4492 33.5074C66.4233 34.0317 66.4074 34.3746 66.3795 34.9886C66.9176 34.7474 67.3082 34.572 67.4358 34.5161C68.1652 34.4065 68.6515 34.3587 69.1259 34.257C70.5967 33.944 72.0616 33.613 73.5126 33.292C72.3646 32.4268 70.8519 33.613 69.5883 32.688C70.6765 32.5345 71.7607 32.3431 72.8529 32.2334C78.529 31.6672 84.1335 32.1218 89.6123 33.6988C91.1689 34.1473 92.8032 34.5879 94.0249 35.824C94.2501 36.0513 94.571 36.2187 94.8779 36.3284C96.1893 36.7969 96.7095 37.6661 96.3129 39.0876C96.0179 38.9859 95.725 38.8862 95.4958 38.8065C95.994 39.4385 96.5102 40.0924 97.1022 40.84C96.1116 41.4441 95.5416 40.856 94.7962 40.2997C95.2387 40.214 95.5336 40.1562 95.8286 40.0984C95.8665 40.0027 95.9023 39.909 95.9402 39.8133C95.42 39.5461 94.9278 39.1693 94.3757 39.0318C93.0663 38.7048 91.7309 38.4855 90.4036 38.2323C89.6402 38.0868 88.6058 39.3049 88.7194 40.0445C88.8769 41.0713 89.1639 42.088 88.1275 43.0031C86.9795 44.0179 87.5714 45.9497 89.0662 46.3524C89.3373 46.4262 89.7757 46.2508 90.001 46.0434C90.4853 45.5988 90.85 45.6327 91.2526 46.1112C91.699 46.6415 92.1315 47.1918 92.6377 47.6603C92.853 47.8596 93.431 48.0371 93.5167 47.9394C93.7798 47.6383 93.999 47.2057 94.0249 46.811C94.0588 46.2867 93.9392 45.7364 93.7937 45.224C93.714 44.9489 93.4888 44.6558 93.2456 44.4964C92.4404 43.968 91.7887 43.4557 92.3448 42.3253C92.4743 42.0641 92.2073 41.6076 92.0917 41.1091C92.859 41.0035 93.3532 41.2148 93.2656 42.0482C93.1539 43.1167 93.8156 43.6989 94.5212 44.2452C94.9716 44.594 95.4798 44.8413 96.0299 44.295C96.1634 44.1614 96.5082 44.2392 96.8371 44.2133C96.3906 44.7137 96.0877 45.0546 95.7828 45.3975C96.2013 45.6447 96.6198 45.8899 97.0384 46.1371C97.0125 46.2049 96.9846 46.2747 96.9587 46.3425C96.6896 46.3265 96.4225 46.3126 95.9402 46.2847C96.1415 46.7432 96.2711 47.0881 96.4405 47.4131C96.8012 48.0949 96.5541 48.5554 95.8067 48.5674C95.6751 48.5694 95.4878 48.5116 95.422 48.5774C94.6168 49.3967 93.5725 48.9721 92.6736 49.1316C92.6736 48.8166 92.7872 48.4218 92.6377 48.2065C92.5162 48.0311 92.0817 48.071 91.719 48.0032C91.5635 47.7061 91.3682 47.3333 91.1729 46.9605C90.4036 47.3832 90.4036 47.3832 91.3443 49.6001C90.3478 49.8294 89.7199 50.3058 89.3831 51.4223C89.132 52.2556 88.1933 52.9076 87.4917 53.5635C87.3203 53.723 86.8739 53.5874 86.4972 53.5874C86.5371 53.7549 86.5849 53.9562 86.6327 54.1636C86.0408 54.2573 85.4588 54.349 84.8769 54.4407C84.8669 54.5503 84.8569 54.662 84.847 54.7716C85.0841 54.8773 85.3153 55.0069 85.5625 55.0806C86.7344 55.4355 87.6352 56.7154 87.5595 57.9216C87.5117 58.6792 87.1868 59.0799 86.3696 59.0301C85.3133 58.9643 84.253 58.9144 83.1967 58.9383C82.8061 58.9463 82.4214 59.1816 82.0328 59.3132C82.2281 60.6748 82.6287 61.9208 81.8993 63.1908C81.7318 63.4819 82.248 64.1079 82.3098 64.5983C82.4075 65.3938 82.9576 65.1007 83.406 65.2203C83.9401 65.3619 84.4125 65.7307 84.7692 65.9221C85.6601 65.7586 86.4793 65.5872 87.3024 65.4616C88.281 65.312 89.2356 63.8208 89.0264 62.8459C88.841 61.9846 89.3193 61.3726 90.0368 60.9858C90.6627 60.6509 91.0035 60.2442 90.8938 59.4866C90.7842 58.719 91.3622 58.6533 91.8645 58.7968C92.6537 59.0241 93.2396 58.7729 93.7259 58.2087C94.3996 57.4272 94.8759 57.8997 95.4639 58.3562C96.3089 59.0101 97.2277 59.5683 98.1186 60.1624C98.7484 60.5811 99.432 60.938 100 61.4264C100.251 61.6437 100.452 62.188 100.353 62.4651C100.253 62.7422 99.7609 62.9137 99.4101 63.0492C99.1351 63.1569 98.8102 63.141 98.5092 63.1788C98.4893 63.2925 98.4694 63.4081 98.4475 63.5217C99.0494 63.761 99.6493 64.0002 100.395 64.2953C100.245 63.0213 101.832 62.0604 100.349 60.7845C100.863 60.7845 101.136 60.7845 101.692 60.7845C100.636 59.8474 99.4221 59.6521 98.5192 59.0041C97.6303 58.3662 96.4385 57.8079 96.3428 56.3925C96.5421 56.3606 96.6856 56.2968 96.7235 56.3346C97.7479 57.4012 99.1351 57.794 100.431 58.3622C101.184 58.6931 101.788 59.1576 102.003 60.0289C102.077 60.3299 102.31 60.615 102.527 60.8542C103.163 61.554 103.819 62.2338 104.484 62.9037C104.672 63.0931 104.917 63.2247 105.19 63.4221C105.262 62.7382 105.315 62.2099 105.381 61.5959C104.945 61.1792 104.409 60.6668 103.942 60.2223C104.191 59.995 104.355 59.8415 104.524 59.6939C104.716 59.5265 104.971 59.1935 105.098 59.2354C105.391 59.3331 105.73 59.5604 105.862 59.8275C106.204 60.5153 106.376 61.3247 107.085 61.7394C107.809 62.1621 108.522 63.0393 109.455 62.0484C109.511 61.9886 109.67 61.9507 109.734 61.9866C110.569 62.4571 111.024 62.0245 111.311 61.1194C112.455 62.6625 112.702 64.2674 112.765 65.9161C112.773 66.1075 112.576 66.4763 112.474 66.4763C111.115 66.4763 110.234 68.0334 108.749 67.5988C108.122 67.4153 107.48 67.2519 106.834 67.1681C106.376 67.1103 105.736 67.0286 105.475 67.2738C105.18 67.5489 105.21 68.1789 105.116 68.6594C105.044 69.0262 105.074 69.4349 104.909 69.7479C104.855 69.8516 104.317 69.7599 104.03 69.6662C103.155 69.3811 102.19 69.3472 101.545 68.458C101.333 68.1669 100.62 68.2268 100.13 68.159C99.6712 68.0952 99.1909 68.137 98.7504 68.0194C98.017 67.824 97.5346 67.5609 97.9034 66.5401C98.0847 66.0377 97.6582 65.2144 97.3114 64.6581C97.0344 64.2135 96.5321 64.3611 95.998 64.5923C95.2725 64.9073 94.4215 65.0708 93.6283 65.0648C91.984 65.0509 90.5231 65.3659 89.2018 66.4345C88.1853 67.2558 86.8599 67.1821 85.7757 66.7235C84.7653 66.2949 84.5161 66.8093 84.3926 67.4592C84.259 68.161 83.8385 68.456 83.3004 68.7471C82.0527 69.4209 81.676 70.5832 81.6422 71.8911C81.6123 73.0434 80.7313 73.7571 79.9541 74.0283C78.4393 74.5586 77.8813 75.8026 77.1439 76.939C76.1952 78.4023 75.3282 79.9215 74.4712 81.343C76.0039 83.5499 75.0372 85.5276 74.244 87.4695C74.0527 87.94 73.8434 88.237 74.2161 88.6936C74.3736 88.8869 74.3536 89.2298 74.4034 89.505C74.4513 89.7582 74.3995 90.0871 74.541 90.2566C75.1648 90.9942 75.8524 91.678 76.5021 92.3938C76.9406 92.8762 77.5744 93.3168 77.7358 93.885C78.1185 95.2287 79.0911 95.8408 80.2032 96.401C80.6417 96.6223 81.0622 96.8954 81.4448 97.2044C82.4314 97.9959 83.4658 98.1175 84.7055 97.8304C85.9372 97.5454 87.2446 97.6012 88.5062 97.4198C89.142 97.328 89.7558 97.0569 90.3737 96.8516C91.6512 96.4289 92.9088 95.9305 94.2083 95.5896C94.9995 95.3803 95.6891 95.6255 96.0598 96.5246C96.1535 96.7519 96.7932 96.9772 97.0603 96.8775C99.9243 95.8208 99.9542 97.2024 99.434 99.2061C99.3025 99.7164 99.1271 100.227 98.8899 100.693C98.5491 101.361 98.7165 101.868 99.3005 102.23C100.923 103.237 100.887 104.776 101.114 106.475C101.403 108.63 99.5357 109.324 98.9497 110.827C98.6049 111.706 98.3358 112.438 98.6428 113.375C98.7863 113.814 98.6189 114.356 98.585 114.85C98.5491 115.392 98.4734 115.935 98.4694 116.477C98.4634 117.275 98.0229 117.793 97.3852 118.118C93.7558 119.974 89.9113 121.232 85.9152 121.968C76.5818 123.686 67.5414 122.667 58.8518 118.814C55.9639 117.544 53.2254 115.995 50.9474 114.26ZM78.4573 34.4424C75.5375 33.4196 72.522 33.8602 69.4228 34.7394C69.955 35.5847 68.5798 37.3491 67.1727 37.9373C67.2504 38.1027 67.3282 38.2662 67.4159 38.4516C65.5424 38.7846 64.8987 40.0326 64.1134 41.6474C63.8563 42.1757 64.3147 43.4995 64.805 43.7727C64.9305 43.8424 65.1697 43.8703 65.2694 43.7986C66.2719 43.0749 67.2445 42.3113 68.2489 41.5896C68.6236 41.3205 69.0382 41.0772 69.4707 40.9277C69.8992 40.7802 70.3855 40.8041 70.8279 40.6845C72.1892 40.3177 73.5325 39.8771 74.9017 39.5421C76.524 39.1434 76.5978 39.0836 76.241 37.5724C77.684 37.2554 78.0089 36.9584 78.1464 35.9137C78.2062 35.4552 78.3357 35.0046 78.4573 34.4424ZM82.6028 47.439C83.416 48.2703 84.275 49.1515 85.2197 50.1184C84.7912 50.2779 84.5281 50.3756 84.3906 50.4275C84.3348 50.9239 84.2889 51.3166 84.2411 51.7413C84.4543 51.817 84.7473 51.9207 85.0782 52.0383C84.6875 52.3832 84.3646 52.6703 83.986 53.0052C85.3871 52.7122 86.6547 52.449 87.8664 52.1958C87.8465 51.9127 87.8525 51.6855 87.8106 51.4642C87.7668 51.2349 87.7448 50.9478 87.5994 50.8003C86.9516 50.1444 86.262 49.5303 85.5904 48.8963C85.3074 48.6292 85.0323 48.3521 84.7433 48.069C84.7951 47.9234 84.849 47.8038 84.8808 47.6802C84.9187 47.5307 84.9406 47.3772 84.9626 47.2576C84.1713 46.8748 83.4379 46.0016 82.6028 47.439ZM81.1778 51.9167C81.7817 51.6775 82.6407 51.5898 83.0273 51.1133C83.3861 50.6727 83.2386 49.8214 83.3143 49.1515C82.8719 49.1296 82.3477 48.9502 82.0089 49.1276C81.6023 49.3389 81.2236 49.8094 81.0761 50.25C80.9406 50.6647 81.118 51.185 81.1778 51.9167ZM75.2804 41.4461C75.3063 42.2794 75.6192 43.0829 76.9087 42.8855C77.3631 42.8157 77.8375 42.712 78.2361 42.4987C78.4932 42.3592 78.6287 41.9943 78.82 41.7292C78.5011 41.5597 78.1822 41.2507 77.8614 41.2487C77.0123 41.2427 76.1633 41.3683 75.2804 41.4461ZM36.9981 72.9058C36.6772 72.0924 36.3564 71.279 36.0355 70.4656C35.31 72.0645 35.31 72.0645 36.9981 72.9058ZM35.1287 69.6861C35.2203 69.6722 35.31 69.6602 35.4017 69.6462C35.6767 68.2367 35.2303 65.5493 34.7221 65.2981C34.8556 66.7455 34.9931 68.2148 35.1287 69.6861ZM85.4987 35.4432C84.8171 35.1063 84.1554 34.3228 83.0453 35.0784C83.7588 35.4791 84.3926 35.834 84.9506 36.147C85.1379 35.9037 85.3034 35.6944 85.4987 35.4432Z" fill="url(#paint2_linear_3002_11132)" stroke="white" stroke-width="2" stroke-miterlimit="10"/>
<path d="M120.176 80.2746C122.191 75.45 122.806 70.8825 120.839 66.2552C120.724 66.2513 120.608 66.2473 120.493 66.2413C120.493 66.7537 120.493 67.268 120.493 67.8701C118.597 66.0579 117.933 64.9155 118.234 64.2676C118.611 64.6942 119.018 65.1567 119.532 65.7389C119.863 65.2385 119.994 65.0431 120.116 64.8577C120.391 64.9374 120.676 65.0192 121.148 65.1567C124.441 77.8982 122.787 90.0694 115.903 101.493C115.811 101.469 115.717 101.447 115.626 101.423C116.457 98.9491 117.246 96.459 118.129 94.0029C119.263 90.8529 120.869 87.8644 121.397 84.5111C121.672 82.7667 121.852 81.0063 122.075 79.2518C121.981 79.2319 121.89 79.214 121.796 79.194C121.391 80.0054 120.985 80.8169 120.576 81.6343C120.399 81.5685 120.261 81.5605 120.227 81.4987C119.46 80.0972 118.719 78.6797 117.937 77.2841C117.21 75.9823 116.419 74.7183 115.701 73.4105C114.992 72.1186 114.342 70.7948 113.551 69.2617C113.981 69.3992 114.488 69.4012 114.675 69.6484C115.705 71.0001 116.973 72.2043 117.425 73.9467C117.531 74.3534 117.965 74.6704 118.224 75.0433C118.95 76.0859 119.588 77.1545 119.667 78.4843C119.699 78.9947 119.944 79.4911 120.176 80.2746Z" fill="url(#paint3_linear_3002_11132)" stroke="white" stroke-width="2" stroke-miterlimit="10"/>
<path d="M32.3428 84.2949C32.2292 80.8061 32.1136 77.3172 32 73.8283C32.0917 73.8263 32.1834 73.8223 32.275 73.8203C32.275 74.7793 32.2631 75.7382 32.281 76.6972C32.289 77.0919 32.2691 77.5265 32.4225 77.8714C33.3632 79.9787 33.0045 82.1159 32.7015 84.2571C32.582 84.271 32.4624 84.283 32.3428 84.2949Z" fill="url(#paint4_linear_3002_11132)" stroke="white" stroke-width="2" stroke-miterlimit="10"/>
<path d="M111.168 107.237C111.953 106.3 112.738 105.363 113.524 104.426C113.595 104.482 113.665 104.535 113.737 104.591C112.97 105.548 112.202 106.505 111.437 107.462C111.347 107.386 111.258 107.313 111.168 107.237Z" fill="url(#paint5_linear_3002_11132)" stroke="white" stroke-width="2" stroke-miterlimit="10"/>
</g>
<path d="M50.4981 76.6077C50.7928 76.6077 51.0317 76.3688 51.0317 76.0742C51.0317 75.7795 50.7928 75.5406 50.4981 75.5406C50.2034 75.5406 49.9645 75.7795 49.9645 76.0742C49.9645 76.3688 50.2034 76.6077 50.4981 76.6077Z" fill="url(#paint6_linear_3002_11132)"/>
<path d="M50.4981 73.4063C49.7483 73.4062 49.0287 73.7021 48.4958 74.2297C47.963 74.7572 47.6598 75.4738 47.6523 76.2236C47.6523 78.1729 50.1602 80.3428 50.2669 80.4353C50.3313 80.4904 50.4133 80.5207 50.4981 80.5207C50.5829 80.5207 50.6649 80.4904 50.7293 80.4353C50.8538 80.3428 53.3439 78.1729 53.3439 76.2236C53.3364 75.4738 53.0332 74.7572 52.5004 74.2297C51.9675 73.7021 51.2479 73.4062 50.4981 73.4063ZM50.4981 77.3192C50.2519 77.3192 50.0112 77.2462 49.8064 77.1093C49.6017 76.9725 49.4421 76.7781 49.3479 76.5506C49.2536 76.3231 49.229 76.0728 49.277 75.8313C49.325 75.5897 49.4436 75.3679 49.6177 75.1938C49.7919 75.0197 50.0137 74.9011 50.2552 74.8531C50.4967 74.805 50.7471 74.8297 50.9746 74.9239C51.2021 75.0181 51.3965 75.1777 51.5333 75.3825C51.6701 75.5872 51.7431 75.8279 51.7431 76.0742C51.7431 76.4044 51.612 76.721 51.3785 76.9545C51.145 77.188 50.8283 77.3192 50.4981 77.3192Z" fill="url(#paint7_linear_3002_11132)"/>
<g filter="url(#filter1_f_3002_11132)">
<ellipse cx="50.4259" cy="81.8016" rx="2.34776" ry="0.569154" fill="url(#paint8_linear_3002_11132)"/>
</g>
<path d="M74.6856 52.5609C74.9803 52.5609 75.2192 52.322 75.2192 52.0273C75.2192 51.7326 74.9803 51.4937 74.6856 51.4937C74.3909 51.4937 74.152 51.7326 74.152 52.0273C74.152 52.322 74.3909 52.5609 74.6856 52.5609Z" fill="url(#paint9_linear_3002_11132)"/>
<path d="M74.6856 49.3594C73.9358 49.3593 73.2162 49.6552 72.6833 50.1828C72.1505 50.7103 71.8473 51.4269 71.8398 52.1767C71.8398 54.126 74.3477 56.2959 74.4544 56.3884C74.5188 56.4435 74.6008 56.4738 74.6856 56.4738C74.7704 56.4738 74.8524 56.4435 74.9168 56.3884C75.0413 56.2959 77.5314 54.126 77.5314 52.1767C77.5239 51.4269 77.2207 50.7103 76.6879 50.1828C76.155 49.6552 75.4354 49.3593 74.6856 49.3594ZM74.6856 53.2723C74.4394 53.2723 74.1987 53.1993 73.9939 53.0625C73.7892 52.9257 73.6296 52.7312 73.5354 52.5037C73.4411 52.2762 73.4165 52.0259 73.4645 51.7844C73.5125 51.5429 73.6311 51.321 73.8052 51.1469C73.9794 50.9728 74.2012 50.8542 74.4427 50.8062C74.6842 50.7581 74.9346 50.7828 75.1621 50.877C75.3896 50.9713 75.584 51.1308 75.7208 51.3356C75.8576 51.5403 75.9306 51.781 75.9306 52.0273C75.9306 52.3575 75.7995 52.6742 75.566 52.9076C75.3325 53.1411 75.0158 53.2723 74.6856 53.2723Z" fill="url(#paint10_linear_3002_11132)"/>
<g filter="url(#filter2_f_3002_11132)">
<ellipse cx="74.6134" cy="57.7547" rx="2.34776" ry="0.569154" fill="url(#paint11_linear_3002_11132)"/>
</g>
<path d="M85.9278 106.488C86.2225 106.488 86.4614 106.249 86.4614 105.954C86.4614 105.659 86.2225 105.42 85.9278 105.42C85.6331 105.42 85.3942 105.659 85.3942 105.954C85.3942 106.249 85.6331 106.488 85.9278 106.488Z" fill="url(#paint12_linear_3002_11132)"/>
<path d="M85.9278 103.286C85.178 103.286 84.4584 103.582 83.9255 104.11C83.3927 104.637 83.0895 105.354 83.082 106.103C83.082 108.053 85.5899 110.223 85.6966 110.315C85.761 110.37 85.843 110.401 85.9278 110.401C86.0126 110.401 86.0946 110.37 86.159 110.315C86.2835 110.223 88.7736 108.053 88.7736 106.103C88.7661 105.354 88.4629 104.637 87.9301 104.11C87.3972 103.582 86.6776 103.286 85.9278 103.286ZM85.9278 107.199C85.6816 107.199 85.4408 107.126 85.2361 106.989C85.0314 106.852 84.8718 106.658 84.7775 106.43C84.6833 106.203 84.6587 105.953 84.7067 105.711C84.7547 105.47 84.8733 105.248 85.0474 105.074C85.2215 104.9 85.4434 104.781 85.6849 104.733C85.9264 104.685 86.1767 104.71 86.4042 104.804C86.6317 104.898 86.8262 105.058 86.963 105.262C87.0998 105.467 87.1728 105.708 87.1728 105.954C87.1728 106.284 87.0416 106.601 86.8082 106.834C86.5747 107.068 86.258 107.199 85.9278 107.199Z" fill="url(#paint13_linear_3002_11132)"/>
<g filter="url(#filter3_f_3002_11132)">
<ellipse cx="85.8556" cy="111.681" rx="2.34776" ry="0.569154" fill="url(#paint14_linear_3002_11132)"/>
</g>
</g>
<defs>
<filter id="filter0_df_3002_11132" x="0" y="0" width="154.781" height="180.78" filterUnits="userSpaceOnUse" color-interpolation-filters="sRGB">
<feFlood flood-opacity="0" result="BackgroundImageFix"/>
<feColorMatrix in="SourceAlpha" type="matrix" values="0 0 0 0 0 0 0 0 0 0 0 0 0 0 0 0 0 0 127 0" result="hardAlpha"/>
<feOffset dx="15" dy="41"/>
<feGaussianBlur stdDeviation="8.5"/>
<feComposite in2="hardAlpha" operator="out"/>
<feColorMatrix type="matrix" values="0 0 0 0 0.576471 0 0 0 0 0.47451 0 0 0 0 1 0 0 0 1 0"/>
<feBlend mode="normal" in2="BackgroundImageFix" result="effect1_dropShadow_3002_11132"/>
<feBlend mode="normal" in="SourceGraphic" in2="effect1_dropShadow_3002_11132" result="shape"/>
<feGaussianBlur stdDeviation="16" result="effect2_foregroundBlur_3002_11132"/>
</filter>
<filter id="filter1_f_3002_11132" x="44.0781" y="77.2324" width="12.6953" height="9.13867" filterUnits="userSpaceOnUse" color-interpolation-filters="sRGB">
<feFlood flood-opacity="0" result="BackgroundImageFix"/>
<feBlend mode="normal" in="SourceGraphic" in2="BackgroundImageFix" result="shape"/>
<feGaussianBlur stdDeviation="2" result="effect1_foregroundBlur_3002_11132"/>
</filter>
<filter id="filter2_f_3002_11132" x="68.2656" y="53.1855" width="12.6953" height="9.13867" filterUnits="userSpaceOnUse" color-interpolation-filters="sRGB">
<feFlood flood-opacity="0" result="BackgroundImageFix"/>
<feBlend mode="normal" in="SourceGraphic" in2="BackgroundImageFix" result="shape"/>
<feGaussianBlur stdDeviation="2" result="effect1_foregroundBlur_3002_11132"/>
</filter>
<filter id="filter3_f_3002_11132" x="79.5078" y="107.112" width="12.6953" height="9.13867" filterUnits="userSpaceOnUse" color-interpolation-filters="sRGB">
<feFlood flood-opacity="0" result="BackgroundImageFix"/>
<feBlend mode="normal" in="SourceGraphic" in2="BackgroundImageFix" result="shape"/>
<feGaussianBlur stdDeviation="2" result="effect1_foregroundBlur_3002_11132"/>
</filter>
<linearGradient id="paint0_linear_3002_11132" x1="77.39" y1="32" x2="77.39" y2="122.78" gradientUnits="userSpaceOnUse">
<stop stop-color="#474BFF"/>
<stop offset="1" stop-color="#474BFF" stop-opacity="0"/>
</linearGradient>
<linearGradient id="paint1_linear_3002_11132" x1="45.39" y1="0" x2="45.39" y2="90.7801" gradientUnits="userSpaceOnUse">
<stop stop-color="#474BFF"/>
<stop offset="1" stop-color="#474BFF" stop-opacity="0"/>
</linearGradient>
<linearGradient id="paint2_linear_3002_11132" x1="72.6231" y1="32" x2="72.6231" y2="122.774" gradientUnits="userSpaceOnUse">
<stop stop-color="#474BFF"/>
<stop offset="1" stop-color="#474BFF" stop-opacity="0"/>
</linearGradient>
<linearGradient id="paint3_linear_3002_11132" x1="118.166" y1="64.2676" x2="118.166" y2="101.493" gradientUnits="userSpaceOnUse">
<stop stop-color="#474BFF"/>
<stop offset="1" stop-color="#474BFF" stop-opacity="0"/>
</linearGradient>
<linearGradient id="paint4_linear_3002_11132" x1="32.5144" y1="73.8203" x2="32.5144" y2="84.2949" gradientUnits="userSpaceOnUse">
<stop stop-color="#474BFF"/>
<stop offset="1" stop-color="#474BFF" stop-opacity="0"/>
</linearGradient>
<linearGradient id="paint5_linear_3002_11132" x1="112.452" y1="104.426" x2="112.452" y2="107.462" gradientUnits="userSpaceOnUse">
<stop stop-color="#474BFF"/>
<stop offset="1" stop-color="#474BFF" stop-opacity="0"/>
</linearGradient>
<linearGradient id="paint6_linear_3002_11132" x1="50.4981" y1="73.4062" x2="50.4981" y2="80.5207" gradientUnits="userSpaceOnUse">
<stop stop-color="#474BFF"/>
<stop offset="1" stop-color="#474BFF" stop-opacity="0"/>
</linearGradient>
<linearGradient id="paint7_linear_3002_11132" x1="50.4981" y1="73.4062" x2="50.4981" y2="80.5207" gradientUnits="userSpaceOnUse">
<stop stop-color="#474BFF"/>
<stop offset="1" stop-color="#474BFF" stop-opacity="0"/>
</linearGradient>
<linearGradient id="paint8_linear_3002_11132" x1="50.4259" y1="81.2324" x2="50.4259" y2="82.3707" gradientUnits="userSpaceOnUse">
<stop stop-color="#474BFF"/>
<stop offset="1" stop-color="#474BFF" stop-opacity="0"/>
</linearGradient>
<linearGradient id="paint9_linear_3002_11132" x1="74.6856" y1="49.3594" x2="74.6856" y2="56.4738" gradientUnits="userSpaceOnUse">
<stop stop-color="#474BFF"/>
<stop offset="1" stop-color="#474BFF" stop-opacity="0"/>
</linearGradient>
<linearGradient id="paint10_linear_3002_11132" x1="74.6856" y1="49.3594" x2="74.6856" y2="56.4738" gradientUnits="userSpaceOnUse">
<stop stop-color="#474BFF"/>
<stop offset="1" stop-color="#474BFF" stop-opacity="0"/>
</linearGradient>
<linearGradient id="paint11_linear_3002_11132" x1="74.6134" y1="57.1855" x2="74.6134" y2="58.3239" gradientUnits="userSpaceOnUse">
<stop stop-color="#474BFF"/>
<stop offset="1" stop-color="#474BFF" stop-opacity="0"/>
</linearGradient>
<linearGradient id="paint12_linear_3002_11132" x1="85.9278" y1="103.286" x2="85.9278" y2="110.401" gradientUnits="userSpaceOnUse">
<stop stop-color="#474BFF"/>
<stop offset="1" stop-color="#474BFF" stop-opacity="0"/>
</linearGradient>
<linearGradient id="paint13_linear_3002_11132" x1="85.9278" y1="103.286" x2="85.9278" y2="110.401" gradientUnits="userSpaceOnUse">
<stop stop-color="#474BFF"/>
<stop offset="1" stop-color="#474BFF" stop-opacity="0"/>
</linearGradient>
<linearGradient id="paint14_linear_3002_11132" x1="85.8556" y1="111.112" x2="85.8556" y2="112.251" gradientUnits="userSpaceOnUse">
<stop stop-color="#474BFF"/>
<stop offset="1" stop-color="#474BFF" stop-opacity="0"/>
</linearGradient>
</defs>
</svg>
