<svg width="57" height="56" viewBox="0 0 57 56" fill="none" xmlns="http://www.w3.org/2000/svg">
<path d="M17.5 0C7.69271 0 0 4.48438 0 10.2083V27.7083C0 33.4323 7.69271 37.9167 17.5 37.9167C27.3073 37.9167 35 33.4323 35 27.7083V10.2083C35 4.48438 27.3073 0 17.5 0ZM32.0833 18.9583C32.0833 20.7083 30.6432 22.4948 28.1458 23.862C25.3203 25.4115 21.5469 26.25 17.5 26.25C13.4531 26.25 9.67969 25.4115 6.85417 23.862C4.35677 22.4948 2.91667 20.7083 2.91667 18.9583V15.9323C6.03385 18.6484 11.3385 20.4167 17.5 20.4167C23.6615 20.4167 28.9661 18.6484 32.0833 15.9323V18.9583ZM28.1458 32.612C25.3203 34.1615 21.5469 35 17.5 35C13.4531 35 9.67969 34.1615 6.85417 32.612C4.35677 31.2448 2.91667 29.4583 2.91667 27.7083V24.6823C6.03385 27.3984 11.3385 29.1667 17.5 29.1667C23.6615 29.1667 28.9661 27.3984 32.0833 24.6823V27.7083C32.0833 29.4583 30.6432 31.2448 28.1458 32.612Z" fill="#33D2FF"/>
<path d="M36 37.625L30.75 42L36 46.375" stroke="#33D2FF" stroke-width="2" stroke-linecap="round" stroke-linejoin="round"/>
<path d="M50 37.625L55.25 42L50 46.375" stroke="#33D2FF" stroke-width="2" stroke-linecap="round" stroke-linejoin="round"/>
<path d="M46.5 32.375L39.5 51.625" stroke="#33D2FF" stroke-width="2" stroke-linecap="round" stroke-linejoin="round"/>
</svg>
