<svg width="48" height="48" viewBox="0 0 48 48" fill="none" xmlns="http://www.w3.org/2000/svg">
<path d="M43.5 39C43.5 39.3978 43.342 39.7794 43.0607 40.0607C42.7794 40.342 42.3978 40.5 42 40.5H6C5.60218 40.5 5.22064 40.342 4.93934 40.0607C4.65804 39.7794 4.5 39.3978 4.5 39V9C4.5 8.60218 4.65804 8.22064 4.93934 7.93934C5.22064 7.65804 5.60218 7.5 6 7.5C6.39782 7.5 6.77936 7.65804 7.06066 7.93934C7.34196 8.22064 7.5 8.60218 7.5 9V29.3812L16.9313 19.9313C17.2156 19.6496 17.5997 19.4916 18 19.4916C18.4003 19.4916 18.7844 19.6496 19.0687 19.9313L24 24.8812L33.1312 15.75L30.4313 13.0687C30.2278 12.8519 30.0898 12.5818 30.0334 12.2898C29.977 11.9978 30.0044 11.6958 30.1125 11.4188C30.2293 11.1472 30.4228 10.9156 30.6692 10.7524C30.9157 10.5892 31.2044 10.5015 31.5 10.5H39C39.3978 10.5 39.7794 10.658 40.0607 10.9393C40.342 11.2206 40.5 11.6022 40.5 12V19.5C40.5009 19.7961 40.4142 20.0859 40.2507 20.3328C40.0872 20.5798 39.8543 20.7727 39.5813 20.8875C39.3962 20.961 39.1991 20.9991 39 21C38.6017 20.9983 38.2192 20.844 37.9313 20.5687L35.25 17.8688L25.0687 28.0687C24.7844 28.3504 24.4003 28.5084 24 28.5084C23.5997 28.5084 23.2156 28.3504 22.9313 28.0687L18 23.1188L7.5 33.6188V37.5H42C42.3978 37.5 42.7794 37.658 43.0607 37.9393C43.342 38.2206 43.5 38.6022 43.5 39Z" fill="#33D2FF"/>
</svg>
