<svg width="56" height="51" viewBox="0 0 56 51" fill="none" xmlns="http://www.w3.org/2000/svg">
<path d="M54.6829 9.16647L46.0954 0.578973C45.7188 0.207969 45.2115 0 44.6829 0C44.1543 0 43.6469 0.207969 43.2704 0.578973L40.1329 3.71647L32.8704 6.44147C32.5434 6.56423 32.2545 6.77097 32.0329 7.04089C31.8113 7.31081 31.6647 7.63437 31.6079 7.97897L29.0079 23.554C28.989 23.6593 29.0043 23.7679 29.0517 23.8638C29.0991 23.9597 29.1761 24.0379 29.2712 24.0868C29.3663 24.1358 29.4746 24.153 29.5802 24.1358C29.6858 24.1186 29.7831 24.068 29.8579 23.9915L36.7329 17.104C36.3709 16.4907 36.1809 15.7911 36.1829 15.079C36.1829 14.2878 36.4175 13.5145 36.857 12.8567C37.2965 12.1989 37.9212 11.6862 38.6521 11.3835C39.383 11.0807 40.1873 11.0015 40.9632 11.1558C41.7391 11.3102 42.4519 11.6911 43.0113 12.2505C43.5707 12.81 43.9517 13.5227 44.106 14.2986C44.2603 15.0745 44.1811 15.8788 43.8784 16.6097C43.5756 17.3406 43.0629 17.9653 42.4051 18.4049C41.7473 18.8444 40.974 19.079 40.1829 19.079C39.4707 19.0809 38.7712 18.8909 38.1579 18.529L31.2704 25.404C31.1938 25.4787 31.1432 25.576 31.126 25.6816C31.1089 25.7872 31.126 25.8955 31.175 25.9907C31.2239 26.0858 31.3021 26.1627 31.398 26.2101C31.494 26.2575 31.6026 26.2729 31.7079 26.254L47.2829 23.6665C47.6275 23.605 47.9503 23.4552 48.2197 23.2317C48.4892 23.0083 48.6961 22.7188 48.8204 22.3915L51.5454 15.129L54.6829 11.9915C54.8696 11.8067 55.0178 11.5867 55.1189 11.3442C55.2201 11.1018 55.2721 10.8417 55.2721 10.579C55.2721 10.3163 55.2201 10.0562 55.1189 9.81373C55.0178 9.57128 54.8696 9.35128 54.6829 9.16647ZM50.6829 13.1665L42.0954 4.57897L44.6829 1.99147L53.2704 10.579L50.6829 13.1665Z" fill="#33D2FF"/>
<path d="M27.8233 27.1684C27.4529 26.7965 27.0126 26.5014 26.5278 26.3001C26.043 26.0987 25.5233 25.9951 24.9983 25.9951C24.4734 25.9951 23.9536 26.0987 23.4688 26.3001C22.9841 26.5014 22.5438 26.7965 22.1733 27.1684C21.9184 27.4156 21.6995 27.6975 21.5233 28.0059L17.9983 27.0434C18.007 26.249 17.7788 25.47 17.343 24.8058C16.9072 24.1416 16.2835 23.6221 15.5514 23.3137C14.8193 23.0053 14.0119 22.9219 13.2322 23.0741C12.4525 23.2263 11.7357 23.6073 11.1733 24.1684C10.571 24.7692 10.176 25.5465 10.0456 26.3872C9.91523 27.2279 10.0563 28.0883 10.4483 28.8434L6.21083 32.6559C5.44092 32.1471 4.51877 31.9202 3.60067 32.0136C2.68257 32.107 1.82501 32.515 1.17333 33.1684C0.801436 33.5389 0.506348 33.9791 0.304998 34.4639C0.103648 34.9487 0 35.4685 0 35.9934C0 36.5183 0.103648 37.0381 0.304998 37.5229C0.506348 38.0077 0.801436 38.4479 1.17333 38.8184C1.54241 39.1923 1.98237 39.4888 2.46745 39.6905C2.95252 39.8923 3.47297 39.9952 3.99833 39.9934C4.92258 39.9946 5.8189 39.6767 6.53583 39.0934L15.2858 45.5059C14.9957 46.2327 14.9251 47.0287 15.0828 47.7952C15.2406 48.5618 15.6197 49.2652 16.1733 49.8184C16.5438 50.1903 16.9841 50.4854 17.4688 50.6867C17.9536 50.8881 18.4734 50.9917 18.9983 50.9917C19.5233 50.9917 20.043 50.8881 20.5278 50.6867C21.0126 50.4854 21.4529 50.1903 21.8233 49.8184C22.1952 49.4479 22.4903 49.0077 22.6917 48.5229C22.893 48.0381 22.9967 47.5183 22.9967 46.9934C22.9967 46.4685 22.893 45.9487 22.6917 45.4639C22.4903 44.9791 22.1952 44.5389 21.8233 44.1684C21.6396 43.988 21.4433 43.8209 21.2358 43.6684L24.6483 33.9809H24.9983C25.5237 33.9827 26.0441 33.8798 26.5292 33.678C27.0143 33.4763 27.4543 33.1798 27.8233 32.8059C28.5706 32.0582 28.9904 31.0443 28.9904 29.9871C28.9904 28.93 28.5706 27.9161 27.8233 27.1684ZM19.3483 43.0059C18.3074 42.9183 17.2729 43.2362 16.4608 43.8934L7.71083 37.4809C7.92273 36.945 8.01785 36.3701 7.98983 35.7946C7.9618 35.2191 7.81129 34.6561 7.54833 34.1434L11.7858 30.3309C12.4434 30.7618 13.2122 30.992 13.9983 30.9934C14.5237 30.9952 15.0441 30.8923 15.5292 30.6905C16.0143 30.4888 16.4543 30.1923 16.8233 29.8184C17.0783 29.5712 17.2971 29.2892 17.4733 28.9809L20.9983 29.9434C20.9898 30.4771 21.0895 31.0071 21.2914 31.5012C21.4934 31.9954 21.7934 32.4434 22.1733 32.8184C22.357 32.9988 22.5534 33.1659 22.7608 33.3184L19.3483 43.0059Z" fill="#33D2FF"/>
</svg>
