<svg width="53" height="53" viewBox="0 0 53 53" fill="none" xmlns="http://www.w3.org/2000/svg">
<circle cx="26.5" cy="26.5" r="26.5" fill="white"/>
<path d="M21 23H22C23.1046 23 24 22.1046 24 21C24 20.4477 24.4477 20 25 20H31C31.5523 20 32 20.4477 32 21C32 22.1046 32.8954 23 34 23H35C36.1046 23 37 23.8954 37 25V34C37 35.1046 36.1046 36 35 36H21C19.8954 36 19 35.1046 19 34V25C19 23.8954 19.8954 23 21 23" stroke="black" stroke-width="2" stroke-linecap="round" stroke-linejoin="round"/>
<circle cx="28" cy="29" r="3" stroke="black" stroke-width="2" stroke-linecap="round" stroke-linejoin="round"/>
</svg>
