<svg width="40" height="40" viewBox="0 0 40 40" fill="none" xmlns="http://www.w3.org/2000/svg">
<circle cx="20" cy="20" r="15" stroke="white" stroke-width="2" stroke-linecap="round" stroke-linejoin="round"/>
<path d="M17.3731 15.9595C16.9826 15.569 16.3494 15.569 15.9589 15.9595C15.5684 16.35 15.5684 16.9832 15.9589 17.3737L17.3731 15.9595ZM22.6256 24.0404C23.0161 24.4309 23.6493 24.4309 24.0398 24.0404C24.4303 23.6499 24.4303 23.0167 24.0398 22.6262L22.6256 24.0404ZM24.0398 17.3737C24.4303 16.9832 24.4303 16.35 24.0398 15.9595C23.6493 15.569 23.0161 15.569 22.6256 15.9595L24.0398 17.3737ZM15.9589 22.6262C15.5684 23.0167 15.5684 23.6499 15.9589 24.0404C16.3494 24.4309 16.9826 24.4309 17.3731 24.0404L15.9589 22.6262ZM15.9589 17.3737L22.6256 24.0404L24.0398 22.6262L17.3731 15.9595L15.9589 17.3737ZM22.6256 15.9595L15.9589 22.6262L17.3731 24.0404L24.0398 17.3737L22.6256 15.9595Z" fill="white"/>
</svg>
