<svg width="43" height="41" viewBox="0 0 43 41" fill="none" xmlns="http://www.w3.org/2000/svg">
<path d="M30.4956 11.2987C30.4956 16.5182 26.3779 20.6976 21.3615 20.6976C16.345 20.6976 12.2273 16.5182 12.2273 11.2987C12.2273 6.0793 16.345 1.8999 21.3615 1.8999C26.3779 1.8999 30.4956 6.0793 30.4956 11.2987Z" fill="#151371" stroke="#151371" stroke-width="2.38281"/>
<path d="M1.8999 35.1269C1.8999 33.7923 2.54236 32.5426 3.78503 31.3663C5.03686 30.1813 6.82608 29.1458 8.90219 28.2928C13.0576 26.5855 18.0664 25.728 21.3595 25.728C24.6527 25.728 29.6615 26.5855 33.8169 28.2928C35.893 29.1458 37.6822 30.1813 38.934 31.3663C40.1767 32.5426 40.8192 33.7923 40.8192 35.1269V39.2306H1.8999V35.1269Z" fill="#151371" stroke="#151371" stroke-width="2.38281"/>
</svg>
