<svg width="40" height="40" viewBox="0 0 40 40" fill="none" xmlns="http://www.w3.org/2000/svg">
<path fill-rule="evenodd" clip-rule="evenodd" d="M32.3375 12.2279L32.3392 12.2295C33.6142 13.5062 33.6658 15.5362 32.4525 16.7529L17.4575 31.7479C16.9158 32.2895 16.1975 32.6245 15.4342 32.6945L8.48418 33.3262C8.43418 33.3312 8.38418 33.3329 8.33251 33.3329C7.89418 33.3329 7.46918 33.1595 7.15418 32.8445C6.80418 32.4945 6.62918 32.0079 6.67251 31.5162L7.30418 24.5662C7.37418 23.8045 7.71084 23.0845 8.25418 22.5429L23.2475 7.54954C24.4175 6.37454 26.5392 6.43287 27.7742 7.66454L32.3375 12.2279ZM26.6974 17.7979L22.2057 13.3062L25.4524 10.0579L29.9424 14.5479L26.6974 17.7979ZM15.1325 29.3746L10.1708 29.8262L10.6108 24.8996L19.9725 15.5379L24.4658 20.0313L15.1325 29.3746Z" fill="white"/>
<mask id="mask0_517_6430" style="mask-type:alpha" maskUnits="userSpaceOnUse" x="6" y="6" width="28" height="28">
<path fill-rule="evenodd" clip-rule="evenodd" d="M32.3375 12.2279L32.3392 12.2295C33.6142 13.5062 33.6658 15.5362 32.4525 16.7529L17.4575 31.7479C16.9158 32.2895 16.1975 32.6245 15.4342 32.6945L8.48418 33.3262C8.43418 33.3312 8.38418 33.3329 8.33251 33.3329C7.89418 33.3329 7.46918 33.1595 7.15418 32.8445C6.80418 32.4945 6.62918 32.0079 6.67251 31.5162L7.30418 24.5662C7.37418 23.8045 7.71084 23.0845 8.25418 22.5429L23.2475 7.54954C24.4175 6.37454 26.5392 6.43287 27.7742 7.66454L32.3375 12.2279ZM26.6974 17.7979L22.2057 13.3062L25.4524 10.0579L29.9424 14.5479L26.6974 17.7979ZM15.1325 29.3746L10.1708 29.8262L10.6108 24.8996L19.9725 15.5379L24.4658 20.0313L15.1325 29.3746Z" fill="white"/>
</mask>
<g mask="url(#mask0_517_6430)">
</g>
</svg>
