<svg width="40" height="40" viewBox="0 0 40 40" fill="none" xmlns="http://www.w3.org/2000/svg">
<path fill-rule="evenodd" clip-rule="evenodd" d="M17.2083 7.195C17.9183 4.26833 22.0817 4.26833 22.7917 7.195C23.0077 8.08677 23.6367 8.82171 24.4844 9.17291C25.3321 9.52411 26.2966 9.44934 27.08 8.97167C29.6517 7.405 32.5967 10.3483 31.03 12.9217C30.553 13.7048 30.4784 14.6685 30.8292 15.5156C31.18 16.3628 31.914 16.9917 32.805 17.2083C35.7317 17.9183 35.7317 22.0817 32.805 22.7917C31.9132 23.0077 31.1783 23.6367 30.8271 24.4844C30.4759 25.3321 30.5507 26.2966 31.0283 27.08C32.595 29.6517 29.6517 32.5967 27.0783 31.03C26.2952 30.553 25.3315 30.4784 24.4844 30.8292C23.6372 31.18 23.0083 31.914 22.7917 32.805C22.0817 35.7317 17.9183 35.7317 17.2083 32.805C16.9923 31.9132 16.3633 31.1783 15.5156 30.8271C14.6679 30.4759 13.7034 30.5507 12.92 31.0283C10.3483 32.595 7.40333 29.6517 8.97 27.0783C9.44698 26.2952 9.52158 25.3315 9.17079 24.4844C8.82 23.6372 8.08595 23.0083 7.195 22.7917C4.26833 22.0817 4.26833 17.9183 7.195 17.2083C8.08677 16.9923 8.82171 16.3633 9.17291 15.5156C9.52411 14.6679 9.44934 13.7034 8.97167 12.92C7.405 10.3483 10.3483 7.40333 12.9217 8.97C14.5883 9.98333 16.7483 9.08667 17.2083 7.195Z" stroke="white" stroke-width="2" stroke-linecap="round" stroke-linejoin="round"/>
<circle cx="20" cy="20" r="5" stroke="white" stroke-width="2" stroke-linecap="round" stroke-linejoin="round"/>
</svg>
