<svg width="40" height="40" viewBox="0 0 40 40" fill="none" xmlns="http://www.w3.org/2000/svg">
<circle cx="20" cy="20" r="20" fill="#6938EF"/>
<path fill-rule="evenodd" clip-rule="evenodd" d="M27.3144 15.5777L27.3155 15.5788C28.123 16.3873 28.1557 17.673 27.3872 18.4435L17.8904 27.9404C17.5473 28.2834 17.0924 28.4956 16.609 28.5399L12.2073 28.94C12.1756 28.9432 12.144 28.9442 12.1112 28.9442C11.8336 28.9442 11.5645 28.8344 11.365 28.6349C11.1433 28.4133 11.0325 28.105 11.0599 27.7937L11.46 23.392C11.5043 22.9096 11.7175 22.4536 12.0616 22.1105L21.5574 12.6148C22.2984 11.8706 23.6421 11.9075 24.4243 12.6876L27.3144 15.5777ZM23.7423 19.1054L20.8976 16.2606L22.9538 14.2034L25.7975 17.047L23.7423 19.1054ZM16.4179 26.4373L13.2755 26.7233L13.5542 23.6031L19.4832 17.6741L22.329 20.5198L16.4179 26.4373Z" fill="white"/>
<mask id="mask0_277_38" style="mask-type:alpha" maskUnits="userSpaceOnUse" x="11" y="12" width="17" height="17">
<path fill-rule="evenodd" clip-rule="evenodd" d="M27.3144 15.5777L27.3155 15.5788C28.123 16.3873 28.1557 17.673 27.3872 18.4435L17.8904 27.9404C17.5473 28.2834 17.0924 28.4956 16.609 28.5399L12.2073 28.94C12.1756 28.9432 12.144 28.9442 12.1112 28.9442C11.8336 28.9442 11.5645 28.8344 11.365 28.6349C11.1433 28.4133 11.0325 28.105 11.0599 27.7937L11.46 23.392C11.5043 22.9096 11.7175 22.4536 12.0616 22.1105L21.5574 12.6148C22.2984 11.8706 23.6421 11.9075 24.4243 12.6876L27.3144 15.5777ZM23.7423 19.1054L20.8976 16.2606L22.9538 14.2034L25.7975 17.047L23.7423 19.1054ZM16.4179 26.4373L13.2755 26.7233L13.5542 23.6031L19.4832 17.6741L22.329 20.5198L16.4179 26.4373Z" fill="white"/>
</mask>
<g mask="url(#mask0_277_38)">
</g>
</svg>
