<svg width="42" height="40" viewBox="0 0 42 40" fill="none" xmlns="http://www.w3.org/2000/svg">
<path d="M29.7873 10.5902C29.7873 15.8097 25.6695 19.9891 20.6531 19.9891C15.6367 19.9891 11.5189 15.8097 11.5189 10.5902C11.5189 5.3708 15.6367 1.19141 20.6531 1.19141C25.6695 1.19141 29.7873 5.3708 29.7873 10.5902Z" fill="white" stroke="white" stroke-width="2.38281"/>
<path d="M1.19141 34.4184C1.19141 33.0838 1.83387 31.8341 3.07653 30.6578C4.32837 29.4728 6.11758 28.4373 8.1937 27.5843C12.3491 25.877 17.3579 25.0195 20.651 25.0195C23.9442 25.0195 28.953 25.877 33.1084 27.5843C35.1845 28.4373 36.9737 29.4728 38.2255 30.6578C39.4682 31.8341 40.1107 33.0838 40.1107 34.4184V38.5221H1.19141V34.4184Z" fill="white" stroke="white" stroke-width="2.38281"/>
</svg>
