<svg width="40" height="40" viewBox="0 0 40 40" fill="none" xmlns="http://www.w3.org/2000/svg">
<path d="M27.3337 13.3334C27.3337 13.8857 27.7814 14.3334 28.3337 14.3334C28.8859 14.3334 29.3337 13.8857 29.3337 13.3334H27.3337ZM30.667 20.0001C30.667 20.5524 31.1147 21.0001 31.667 21.0001C32.2193 21.0001 32.667 20.5524 32.667 20.0001H30.667ZM32.667 26.6667C32.667 26.1145 32.2193 25.6667 31.667 25.6667C31.1147 25.6667 30.667 26.1145 30.667 26.6667H32.667ZM7.66699 10.0001C7.66699 9.4478 7.21928 9.00008 6.66699 9.00008C6.11471 9.00008 5.66699 9.4478 5.66699 10.0001H7.66699ZM29.3337 13.3334V8.33341H27.3337V13.3334H29.3337ZM29.3337 8.33341C29.3337 6.86066 28.1398 5.66675 26.667 5.66675V7.66675C27.0352 7.66675 27.3337 7.96522 27.3337 8.33341H29.3337ZM26.667 5.66675H10.0003V7.66675H26.667V5.66675ZM10.0003 5.66675C7.60709 5.66675 5.66699 7.60685 5.66699 10.0001H7.66699C7.66699 8.71142 8.71166 7.66675 10.0003 7.66675V5.66675ZM5.66699 10.0001C5.66699 12.3933 7.60709 14.3334 10.0003 14.3334V12.3334C8.71166 12.3334 7.66699 11.2887 7.66699 10.0001H5.66699ZM10.0003 14.3334H30.0003V12.3334H10.0003V14.3334ZM30.0003 14.3334C30.3685 14.3334 30.667 14.6319 30.667 15.0001H32.667C32.667 13.5273 31.4731 12.3334 30.0003 12.3334V14.3334ZM30.667 15.0001V20.0001H32.667V15.0001H30.667ZM30.667 26.6667V31.6667H32.667V26.6667H30.667ZM30.667 31.6667C30.667 32.0349 30.3685 32.3334 30.0003 32.3334V34.3334C31.4731 34.3334 32.667 33.1395 32.667 31.6667H30.667ZM30.0003 32.3334H10.0003V34.3334H30.0003V32.3334ZM10.0003 32.3334C8.71166 32.3334 7.66699 31.2887 7.66699 30.0001H5.66699C5.66699 32.3933 7.60709 34.3334 10.0003 34.3334V32.3334ZM7.66699 30.0001V10.0001H5.66699V30.0001H7.66699Z" fill="white"/>
<path d="M33.333 20V26.6667H26.6663C24.8254 26.6667 23.333 25.1743 23.333 23.3333C23.333 21.4924 24.8254 20 26.6663 20H33.333" stroke="white" stroke-width="2" stroke-linecap="round" stroke-linejoin="round"/>
</svg>
