<svg width="15" height="12" viewBox="0 0 15 12" fill="none" xmlns="http://www.w3.org/2000/svg">
<path d="M13.8713 0.539457L1.12134 0.539457C0.992252 0.539861 0.865719 0.575465 0.75536 0.642433C0.645002 0.709402 0.554997 0.805199 0.495034 0.919515C0.435071 1.03383 0.40742 1.16234 0.415058 1.2912C0.422696 1.42006 0.465334 1.5444 0.538381 1.65083L6.91338 10.8592C7.17759 11.241 7.81367 11.241 8.07859 10.8592L14.4536 1.65083C14.5274 1.54462 14.5707 1.42022 14.5787 1.29114C14.5868 1.16207 14.5593 1.03325 14.4993 0.918693C14.4392 0.804135 14.349 0.708214 14.2383 0.641355C14.1276 0.574495 14.0007 0.539253 13.8713 0.539457Z" fill="white"/>
</svg>
