<svg width="15" height="12" viewBox="0 0 15 12" fill="none" xmlns="http://www.w3.org/2000/svg">
<path d="M1.12476 11.4586H13.8748C14.0038 11.4582 14.1304 11.4226 14.2407 11.3556C14.3511 11.2886 14.4411 11.1928 14.5011 11.0785C14.561 10.9642 14.5887 10.8357 14.581 10.7068C14.5734 10.578 14.5308 10.4536 14.4577 10.3472L8.08271 1.13888C7.81851 0.757091 7.18242 0.757091 6.91751 1.13888L0.542505 10.3472C0.468715 10.4534 0.425442 10.5778 0.417389 10.7069C0.409336 10.836 0.436811 10.9648 0.496828 11.0794C0.556845 11.1939 0.647109 11.2898 0.757813 11.3567C0.868517 11.4236 0.995428 11.4588 1.12476 11.4586Z" fill="white"/>
</svg>
