<svg width="116" height="150" viewBox="0 0 116 150" fill="none" xmlns="http://www.w3.org/2000/svg">
<path fill-rule="evenodd" clip-rule="evenodd" d="M84.9698 -48.2021L48.3047 44.587H76.8509L115.648 -48.2021H84.9698Z" fill="#6359CF"/>
<mask id="mask0_3012_12884" style="mask-type:alpha" maskUnits="userSpaceOnUse" x="11" y="38" width="99" height="112">
<path fill-rule="evenodd" clip-rule="evenodd" d="M11.3613 38.832H109.17V149.273H11.3613V38.832Z" fill="white"/>
</mask>
<g mask="url(#mask0_3012_12884)">
<path fill-rule="evenodd" clip-rule="evenodd" d="M41.2598 55.0113V46.9334C41.2598 45.6201 42.3258 44.5503 43.6358 44.5503H76.8951C78.2051 44.5503 79.2711 45.6201 79.2711 46.9334V55.0113C73.4285 52.5371 67.0061 51.1691 60.2654 51.1691C53.5248 51.1691 47.1023 52.5371 41.2598 55.0113ZM84.9737 57.8811V46.9338C84.9737 42.4664 81.3496 38.832 76.8955 38.832H43.6361C39.182 38.832 35.5586 42.4664 35.5586 46.9338V57.8811C21.0818 66.398 11.3613 82.1712 11.3613 100.221C11.3613 127.312 33.2561 149.273 60.2658 149.273C87.2749 149.273 109.17 127.312 109.17 100.221C109.17 82.1712 99.4504 66.398 84.9737 57.8811Z" fill="url(#paint0_linear_3012_12884)"/>
</g>
<path fill-rule="evenodd" clip-rule="evenodd" d="M60.2766 140.37C37.9962 140.37 19.8711 122.579 19.8711 100.71C19.8711 78.8405 37.9962 61.0498 60.2766 61.0498C82.557 61.0498 100.683 78.8405 100.683 100.71C100.683 122.579 82.557 140.37 60.2766 140.37Z" fill="url(#paint1_linear_3012_12884)"/>
<path fill-rule="evenodd" clip-rule="evenodd" d="M72.8705 108.884C73.1136 112.339 69.6265 114.836 66.4337 113.493L60.9382 111.181L55.4209 113.442C52.2162 114.756 48.7525 112.228 49.0268 108.775L49.5091 102.704L45.5948 97.9992C43.3939 95.3537 44.7323 91.3171 48.0778 90.5105L53.9513 89.0945L57.0945 83.9952C58.9192 81.0349 63.2297 81.0546 65.0274 84.0314L68.1247 89.1605L73.9856 90.6305C77.3235 91.4676 78.6248 95.5163 76.3999 98.1415L72.4433 102.81L72.8705 108.884Z" fill="#C5400D"/>
<path fill-rule="evenodd" clip-rule="evenodd" d="M0.414063 -48.2021H34.4889L78.2333 46.0836H46.2328L0.414063 -48.2021Z" fill="#7367F0"/>
<defs>
<linearGradient id="paint0_linear_3012_12884" x1="49.8801" y1="24.5653" x2="-8.9017" y2="109.779" gradientUnits="userSpaceOnUse">
<stop stop-color="#FF7878"/>
<stop offset="1" stop-color="#FF0000"/>
</linearGradient>
<linearGradient id="paint1_linear_3012_12884" x1="56.3741" y1="46.4038" x2="9.14984" y2="109.557" gradientUnits="userSpaceOnUse">
<stop stop-color="#F6581B"/>
<stop offset="1" stop-color="#FC9F7C"/>
</linearGradient>
</defs>
</svg>
