<svg width="22" height="22" viewBox="0 0 22 22" fill="none" xmlns="http://www.w3.org/2000/svg">
<path d="M10.1535 2.81875C10.2051 2.81875 10.2695 2.84453 10.3254 2.92188C10.0762 2.56523 10.6047 2.71992 10.6348 2.38047C10.9355 2.15703 10.8281 2.01094 10.9141 2.00234L11.0086 1.925C10.8238 1.99375 10.7594 2.00664 10.7078 2.00664H10.6219C10.5574 2.00664 10.45 2.01953 10.1965 2.09687C9.61641 2.13984 9.19961 2.76719 9.00195 2.78438C8.8 2.8918 8.80859 2.91328 8.85586 2.91328C8.86875 2.91328 8.88594 2.90898 8.90312 2.90898C8.92031 2.90898 8.9332 2.90469 8.94609 2.90469C8.99336 2.90469 8.98047 2.92617 8.70547 3.05508C8.76992 3.07227 8.22422 3.31289 8.21992 3.69102C8.20273 3.83711 8.26289 3.93594 8.36172 3.93594C8.44766 3.93594 8.55508 3.87148 8.67109 3.7082C9.05781 3.26133 9.87422 3.21836 10.2266 2.94766C10.0074 2.93047 10.0504 2.81875 10.1535 2.81875V2.81875ZM8.18984 2.96914C8.15117 2.96914 8.20273 2.92188 8.25859 2.87461C8.31875 2.82734 8.3875 2.78008 8.3875 2.78008L8.3832 2.78438C8.61523 2.69414 8.47344 2.67266 8.59805 2.6125H8.58945C8.56367 2.6125 8.61094 2.57812 8.65391 2.53945C8.69687 2.50508 8.73555 2.46641 8.69687 2.46641C8.67539 2.46641 8.61953 2.4793 8.525 2.51797C8.55508 2.475 8.67109 2.44492 8.83438 2.35469C8.59805 2.43203 8.41328 2.4793 8.3918 2.4793C8.37461 2.4793 8.47344 2.44492 8.76992 2.35469C8.78281 2.35469 8.7957 2.35898 8.8043 2.35898C8.83437 2.35898 8.84727 2.35039 8.84297 2.3418C8.83867 2.3332 8.82148 2.32891 8.79141 2.32891C8.36602 2.36328 8.04805 2.62969 8.14258 2.66406C8.19844 2.64687 8.23711 2.63828 8.26289 2.63828C8.31875 2.63828 8.29297 2.68555 8.18125 2.7543C8.23281 2.87461 7.32188 3.18398 7.21875 3.2957C7.27031 3.26562 7.30469 3.25703 7.32187 3.25703C7.39062 3.25703 7.30039 3.39023 7.21016 3.45469C7.26602 3.50625 7.30898 3.52344 7.34336 3.52344C7.43359 3.52344 7.47227 3.39883 7.54961 3.36016C7.5668 3.39453 7.58398 3.41172 7.60547 3.41172C7.67852 3.41172 7.76875 3.23125 7.8418 3.13672C7.86328 3.1582 7.88906 3.17539 7.92344 3.17539C7.99219 3.17539 8.09531 3.11953 8.25859 2.96055C8.22422 2.96484 8.19844 2.96914 8.18984 2.96914V2.96914ZM7.20156 3.75977C7.04688 3.8543 6.96523 3.89297 6.93086 3.89297C6.86641 3.89297 6.95234 3.77266 7.02969 3.64805C7.10703 3.52773 7.17578 3.40742 7.07695 3.40742C7.02969 3.40742 6.94375 3.4332 6.80625 3.50195C6.43242 3.75117 5.80078 4.43867 5.52148 4.43867H5.4957C5.94688 4.10781 5.81367 3.45898 6.44531 3.29141C7.06836 2.93477 7.49375 3.04648 8.04805 2.63828C7.88477 2.71992 7.64414 2.81016 7.58828 2.81016C7.55391 2.81016 7.60547 2.76719 7.82891 2.65977C7.80742 2.66406 7.79023 2.66836 7.77734 2.66836C7.62695 2.66836 8.76563 2.26016 8.82148 2.25156C8.35313 2.31602 7.59687 2.70703 7.49375 2.70703C7.48086 2.70703 7.48086 2.70273 7.48086 2.69414C7.49805 2.68125 7.49805 2.67266 7.48086 2.67266C7.425 2.67266 7.19297 2.75 6.95664 2.82734C6.72461 2.90469 6.48828 2.98633 6.43672 2.98633C6.41953 2.98633 6.41953 2.97773 6.44531 2.96055C4.41719 4.11211 2.72422 6.0543 2.1957 8.35742C2.41484 8.86016 2.26445 9.81836 2.62539 10.0977C3.03789 10.4457 2.27305 11.4555 2.475 12.0785C2.68125 13.2043 3.5707 13.9734 3.66523 15.125C3.82852 15.9156 4.42578 16.8824 4.675 17.3852C4.86406 17.5742 5.38398 18.1199 5.47422 18.1199C5.50859 18.1199 5.48711 18.0383 5.34961 17.8191C5.26367 17.5742 4.76523 16.934 5.00586 16.934C5.01875 16.934 5.03164 16.934 5.04883 16.9383C4.75234 16.6375 5.70625 16.7191 5.04023 16.3109C4.96289 16.2164 4.9457 16.1863 4.96289 16.1863C4.98438 16.1863 5.04453 16.2207 5.11328 16.2551C5.18633 16.2895 5.27227 16.3238 5.34102 16.3238C5.44844 16.3238 5.52148 16.2508 5.47852 15.9844C5.4957 15.993 5.51289 15.993 5.52578 15.993C5.6375 15.993 5.59883 15.7738 5.60742 15.5547C5.61602 15.3355 5.67188 15.1164 5.97266 15.1164C6.00703 15.1164 6.0457 15.1207 6.08438 15.125C6.78047 14.7469 6.17461 13.7027 6.97383 13.3203C6.94375 12.4523 5.7793 12.4094 5.34102 12.057C5.26797 12.1 5.19922 12.1129 5.13047 12.1129C5.05313 12.1129 4.98437 12.0957 4.92422 12.0742C4.86406 12.057 4.8082 12.0355 4.76953 12.0355C4.76094 12.0355 4.75234 12.0355 4.74375 12.0398C5.49141 11.8422 4.9457 10.8023 4.32695 10.8023H4.28398C4.23672 10.3512 4.00469 10.523 3.97891 10.1492C3.94023 10.1707 3.90156 10.1793 3.86289 10.1793C3.75977 10.1793 3.66523 10.1063 3.58359 10.0375C3.50195 9.96445 3.4332 9.8957 3.37305 9.8957C3.32578 9.8957 3.28281 9.94297 3.24414 10.0805C3.28711 9.86992 3.27422 9.80117 3.23125 9.80117C3.18828 9.80117 3.11094 9.87422 3.025 9.94727C2.94336 10.0203 2.84883 10.0934 2.77578 10.0934H2.7543C2.25156 9.73672 2.75859 9.10508 2.49219 8.61953C2.66406 8.43477 2.73281 8.12109 2.65547 8.12109C2.6168 8.12109 2.53945 8.19844 2.41914 8.40898C2.24727 7.9707 2.70273 6.97813 3.08945 6.92227C3.10234 6.92227 3.11094 6.91797 3.12383 6.91797C3.19258 6.91797 3.26133 6.95234 3.32148 7.02539C3.35586 7.22734 3.26992 7.65273 3.3043 7.65273C3.32148 7.65273 3.35586 7.5668 3.4418 7.34336C3.55352 6.83203 4.33555 6.4625 4.41719 6.14883C4.42148 6.15313 4.42148 6.15312 4.42578 6.15312C4.51602 6.15312 5.09609 5.6418 5.34961 5.58594C5.44844 5.48711 5.51719 5.45273 5.56875 5.45273C5.62461 5.45273 5.65469 5.4957 5.67617 5.53438C5.69766 5.57734 5.71484 5.61602 5.73633 5.61602C5.75352 5.61602 5.775 5.59023 5.81367 5.51719C5.68047 5.25508 6.02422 5.00586 5.92969 5.00586C5.89531 5.00586 5.79219 5.04023 5.58164 5.12617C5.54727 5.14336 5.53008 5.14766 5.52148 5.14766C5.4957 5.14766 5.59883 5.07891 5.74922 5.01016C5.89961 4.94141 6.08867 4.87266 6.24766 4.87266C6.325 4.87266 6.39375 4.88984 6.44531 4.93281C7.11133 4.77383 6.74609 4.55469 6.78047 4.55469H6.78906C6.97813 4.44297 6.92227 4.02187 7.20156 3.75977V3.75977ZM4.22383 5.51719C4.21523 5.51719 4.25391 5.46133 4.38281 5.30234C4.64922 5.10469 4.86406 4.97148 4.61914 4.84258C4.72656 4.79531 4.82969 4.73945 4.92852 4.6793C4.92422 4.88984 4.74805 5.40117 4.65352 5.40117C4.63203 5.40117 4.61055 5.37109 4.60195 5.30664C4.65781 5.20781 4.66211 5.16914 4.64062 5.16914C4.60625 5.16914 4.50742 5.25508 4.41289 5.34531C4.31836 5.42695 4.23242 5.51719 4.22383 5.51719V5.51719ZM4.46875 5.6332C4.35273 5.6332 4.37422 5.56016 4.73086 5.48711C4.88555 5.46562 4.76523 5.47422 4.95 5.43125C4.76953 5.57734 4.56758 5.6332 4.46875 5.6332V5.6332ZM11.1504 5.19922C11.202 5.19062 11.2406 5.19063 11.2707 5.19063C11.3953 5.19063 11.3395 5.24219 11.2664 5.29375C11.1934 5.34531 11.1031 5.39687 11.1547 5.39687C11.1848 5.39687 11.2664 5.37969 11.434 5.33242C12.2805 5.27227 11.1031 4.55469 11.2922 4.31406L11.2406 4.29688C10.8926 4.73945 11.4727 4.74805 11.1504 5.19922V5.19922ZM10.798 5.21641C10.8582 5.21641 10.9355 5.14766 11.0172 4.9543C11.1289 4.82109 11.0816 4.80391 10.9613 4.73945C10.6305 4.82539 10.6605 5.21641 10.798 5.21641ZM13.7629 6.57852C13.75 6.57852 13.7414 6.58281 13.7328 6.58711C13.7672 6.5957 13.8016 6.6043 13.8359 6.6043C13.8016 6.58711 13.7801 6.57852 13.7629 6.57852ZM19.5336 7.64844C19.6066 7.80742 19.6453 7.87187 19.6496 7.87187C19.6797 7.87187 19.1082 6.47969 18.8719 6.23047C17.6387 4.20234 15.6105 2.65117 13.2988 2.07109H13.2945C13.2344 2.07109 13.3031 2.10117 13.3848 2.13125C13.4664 2.16133 13.5652 2.19141 13.5652 2.19141C13.5652 2.19141 13.5008 2.16992 13.3031 2.11406C13.084 2.04961 12.8605 2.00234 12.6328 1.98516C12.5941 1.99805 13.5738 2.38477 14.2313 2.58672C14.0121 2.51797 13.7844 2.45781 13.7285 2.45781C13.6898 2.45781 13.7285 2.48359 13.8875 2.55234C13.6941 2.49648 13.6125 2.4707 13.6039 2.4707C13.591 2.4707 13.8617 2.56094 14.1152 2.65117C14.373 2.74141 14.618 2.83164 14.5492 2.83164C14.532 2.83164 14.4848 2.82305 14.4117 2.81016C14.6309 2.93047 14.7082 2.97773 14.6953 2.97773C14.6738 2.97773 14.4031 2.84883 14.1238 2.71992C13.8488 2.59102 13.5695 2.46211 13.5309 2.46211C13.5094 2.46211 13.5652 2.50508 13.7543 2.6168C14.0121 2.72852 14.2699 2.84023 14.1969 2.84023C14.1625 2.84023 14.0637 2.81875 13.8703 2.76289C14.3 2.98203 13.5652 2.89609 13.8145 3.19258C13.677 3.06367 13.6211 3.0207 13.6082 3.0207C13.5953 3.0207 13.6297 3.07227 13.6641 3.12383C13.6984 3.17539 13.7242 3.22695 13.6941 3.22695H13.6855C13.9863 3.55352 13.475 3.26133 13.8402 3.55352C13.5652 3.42891 13.0969 3.22266 13.3074 3.22266C13.359 3.22266 13.4578 3.23555 13.6125 3.26992C13.3332 2.94336 12.5426 2.93047 12.5254 2.8918C12.3277 2.90469 12.3234 3.05508 12.3578 3.33008C12.3535 3.76406 11.9281 3.77266 11.984 4.02187C11.984 4.01758 11.9883 4.01758 11.9883 4.01758C11.9969 4.01758 12.0012 4.10352 12.027 4.19375C12.057 4.27969 12.1086 4.36992 12.2203 4.36992C12.2805 4.36992 12.3578 4.34414 12.4523 4.27969C12.5855 4.52031 12.7059 4.60625 12.8004 4.60625C12.9422 4.60625 13.0281 4.41289 13.0195 4.23672C12.8648 4.15078 12.6629 3.4375 12.8863 3.4375C12.9207 3.4375 12.9637 3.45469 13.0195 3.49336C12.6715 4.34844 14.3945 3.77695 13.4191 4.16797C13.6383 4.45586 13.2816 4.44297 13.3848 4.79102C13.2172 4.83828 13.0324 4.88125 12.8691 4.88125C12.6285 4.88125 12.4438 4.77813 12.4652 4.41719C12.1645 4.57617 12.766 5.11328 12.1688 5.11328H12.1344C11.8465 5.6418 10.768 5.46133 11.6145 6.01992C11.6617 6.26484 11.507 6.30781 11.3094 6.30781C11.2578 6.30781 11.202 6.30352 11.1461 6.29922C11.0902 6.29492 11.0344 6.29492 10.9828 6.29492C10.7594 6.29492 10.6004 6.35078 10.7379 6.69883C10.6391 7.05977 10.8711 7.21875 11.1547 7.21875C11.4984 7.21875 11.9195 6.99531 11.9496 6.62578C12.1344 6.34648 12.3707 6.23047 12.6156 6.23047C13.0023 6.23047 13.4105 6.52266 13.677 6.88359C13.6984 6.91797 13.7156 6.93086 13.7242 6.93086C13.7457 6.93086 13.7242 6.84492 13.7156 6.75898C13.707 6.69023 13.707 6.62148 13.7328 6.6C13.3504 6.49258 13.0582 6.02852 13.1871 6.02852C13.2301 6.02852 13.3203 6.08008 13.4664 6.21758H13.4879C13.7285 6.21758 13.9176 6.40664 14.0637 6.5957C14.2141 6.78477 14.3258 6.97383 14.4246 6.97383C14.4633 6.97383 14.502 6.93945 14.5363 6.86211C14.5191 6.83633 14.4762 6.76328 14.4547 6.69023C14.4289 6.6 14.4289 6.50977 14.5449 6.50977C14.5922 6.50977 14.6566 6.52695 14.7469 6.56133C15.0391 6.48398 14.5621 5.72344 14.9488 5.72344C14.9875 5.72344 15.0348 5.73203 15.0949 5.74922C15.0906 5.88242 15.1508 5.92969 15.2066 5.92969C15.3184 5.92969 15.4301 5.7707 15.1594 5.72344C15.2625 5.62461 15.3227 5.58594 15.3656 5.58594C15.516 5.58594 15.3957 6.08438 15.9156 6.08438C16.0918 6.50117 14.3859 6.11445 14.9316 6.91367C15.0563 7.00391 15.2109 7.02109 15.3613 7.02109C15.4086 7.02109 15.4516 7.02109 15.4945 7.0168C15.5375 7.0168 15.5805 7.0125 15.6191 7.0125C15.8855 7.0125 16.0746 7.07695 15.9586 7.62695C15.8168 7.73008 15.6578 7.76445 15.4945 7.76445C15.3484 7.76445 15.2023 7.73867 15.0605 7.71289C14.9188 7.68711 14.7813 7.66133 14.6566 7.66133C14.4633 7.66133 14.3086 7.72578 14.2141 7.94922C13.7113 7.74297 13.0496 7.73438 13.1141 7.11133C12.2375 7.23594 11.3223 7.17148 10.6777 7.70859C10.6391 8.49492 9.28984 8.74844 9.61641 9.64219C9.22539 10.4672 10.0891 11.623 10.9699 11.623C11 11.623 11.0344 11.623 11.0645 11.6187C11.5457 11.6145 12.0312 11.3996 12.4566 11.3996C12.6758 11.3996 12.8734 11.4555 13.0453 11.6273C13.084 11.623 13.1184 11.6187 13.1484 11.6187C13.8059 11.6187 12.9379 12.6629 13.7242 12.8391C14.4375 13.5781 13.2859 14.3387 13.8488 15.0477C13.909 15.602 14.184 16.066 14.184 16.6074C14.257 16.616 14.3258 16.6203 14.3988 16.6203C15.3055 16.6203 15.8727 15.8297 16.4055 15.2324C16.2422 14.3387 17.673 14.1625 17.1832 13.1613C16.9555 12.0656 18.2617 11.4168 18.1887 10.3211C18.2016 10.1664 18.1586 10.1191 18.0941 10.1191C18.0297 10.1191 17.9352 10.1664 17.8449 10.2094C17.7504 10.2566 17.6473 10.2996 17.5656 10.2996C17.4582 10.2996 17.3766 10.2266 17.368 9.98594C16.7363 9.39727 16.4484 8.59805 15.8598 7.94922C16.6246 8.31875 17.0586 9.15234 17.4109 9.90859C17.441 9.91719 17.4711 9.92148 17.5055 9.92148C18.1285 9.92148 18.9965 8.43047 18.0512 8.06953C17.9996 8.21133 17.9309 8.26289 17.8492 8.26289C17.7074 8.26289 17.5441 8.09102 17.4281 7.92344C17.3121 7.75156 17.252 7.57969 17.3164 7.57969C17.3594 7.57969 17.4539 7.64844 17.6172 7.82891C17.802 7.94492 17.9824 7.975 18.1715 7.975C18.3562 7.975 18.5453 7.94492 18.743 7.92773C18.9922 8.02656 19.0996 8.34453 19.177 8.34453C19.1898 8.34453 19.207 8.33164 19.2199 8.30156C19.4176 8.77422 19.6453 9.61641 19.8516 9.84414C19.7441 9.12227 19.7184 8.35742 19.5336 7.64844V7.64844ZM17.1359 6.65586C16.6504 6.53125 16.4914 5.92969 16.109 5.58164C16.1047 5.48711 16.2465 5.5043 16.2121 5.34531C16.7277 5.5043 16.5602 5.66328 16.5129 5.69336C16.702 6.00703 17.2305 6.22187 17.1359 6.65586ZM10.4629 3.38594C9.99453 3.52344 9.93008 3.37305 10.0117 3.66094C10.0461 3.68672 10.1105 3.69531 10.175 3.69531C10.4027 3.69961 10.7121 3.56641 10.4629 3.38594ZM17.3422 15.2238C17.9566 14.7039 18.034 14.0852 18.0641 13.4578C17.7891 13.9949 16.9727 14.5879 17.3422 15.2238ZM14.5449 6.84492C14.5406 6.84922 14.5406 6.84922 14.5406 6.85352C14.5449 6.86211 14.5492 6.86211 14.5492 6.86211C14.5492 6.86211 14.5492 6.85781 14.5449 6.84492V6.84492ZM11 0C4.92422 0 0 4.92422 0 11C0 17.0758 4.92422 22 11 22C17.0758 22 22 17.0758 22 11C22 4.92422 17.0758 0 11 0ZM11 21.1535C5.39258 21.1535 0.846484 16.6074 0.846484 11C0.846484 5.39258 5.39258 0.846484 11 0.846484C16.6074 0.846484 21.1535 5.39258 21.1535 11C21.1535 16.6074 16.6074 21.1535 11 21.1535Z" fill="#FD05B3"/>
</svg>
