<svg width="116" height="198" viewBox="0 0 116 198" fill="none" xmlns="http://www.w3.org/2000/svg">
<path fill-rule="evenodd" clip-rule="evenodd" d="M84.5558 0L47.8906 92.7892H76.4368L115.234 0H84.5558Z" fill="#6359CF"/>
<mask id="mask0_3012_12905" style="mask-type:alpha" maskUnits="userSpaceOnUse" x="10" y="87" width="99" height="111">
<path fill-rule="evenodd" clip-rule="evenodd" d="M10.9434 87.0342H108.752V197.475H10.9434V87.0342Z" fill="white"/>
</mask>
<g mask="url(#mask0_3012_12905)">
<path fill-rule="evenodd" clip-rule="evenodd" d="M40.8418 103.213V95.1356C40.8418 93.8223 41.9078 92.7524 43.2178 92.7524H76.4771C77.7871 92.7524 78.8531 93.8223 78.8531 95.1356V103.213C73.0106 100.739 66.5881 99.3712 59.8475 99.3712C53.1068 99.3712 46.6844 100.739 40.8418 103.213ZM84.5557 106.083V95.136C84.5557 90.6685 80.9316 87.0342 76.4775 87.0342H43.2182C38.7641 87.0342 35.1406 90.6685 35.1406 95.136V106.083C20.6638 114.6 10.9434 130.373 10.9434 148.423C10.9434 175.514 32.8381 197.475 59.8478 197.475C86.8569 197.475 108.752 175.514 108.752 148.423C108.752 130.373 99.0325 114.6 84.5557 106.083Z" fill="url(#paint0_linear_3012_12905)"/>
</g>
<path fill-rule="evenodd" clip-rule="evenodd" d="M59.8625 188.572C37.5822 188.572 19.457 170.781 19.457 148.912C19.457 127.043 37.5822 109.252 59.8625 109.252C82.1429 109.252 100.269 127.043 100.269 148.912C100.269 170.781 82.1429 188.572 59.8625 188.572Z" fill="url(#paint1_linear_3012_12905)"/>
<path fill-rule="evenodd" clip-rule="evenodd" d="M72.4565 157.086C72.6995 160.541 69.2124 163.038 66.0196 161.695L60.5242 159.383L55.0069 161.644C51.8021 162.958 48.3385 160.43 48.6127 156.977L49.095 150.906L45.1807 146.201C42.9798 143.556 44.3182 139.519 47.6637 138.713L53.5372 137.297L56.6804 132.197C58.5051 129.237 62.8157 129.257 64.6133 132.234L67.7107 137.363L73.5716 138.833C76.9094 139.67 78.2108 143.718 75.9859 146.344L72.0292 151.012L72.4565 157.086Z" fill="#FFEFB9"/>
<path fill-rule="evenodd" clip-rule="evenodd" d="M0 0H34.0749L77.8192 94.2858H45.8188L0 0Z" fill="#7367F0"/>
<defs>
<linearGradient id="paint0_linear_3012_12905" x1="49.4622" y1="72.7674" x2="-9.31966" y2="157.981" gradientUnits="userSpaceOnUse">
<stop stop-color="#FFDE78"/>
<stop offset="1" stop-color="#FFBA3B"/>
</linearGradient>
<linearGradient id="paint1_linear_3012_12905" x1="55.96" y1="94.6059" x2="8.73578" y2="157.759" gradientUnits="userSpaceOnUse">
<stop stop-color="#FFD06D"/>
<stop offset="1" stop-color="#F99912"/>
</linearGradient>
</defs>
</svg>
