<svg width="1104" height="712" viewBox="0 0 1104 712" fill="none" xmlns="http://www.w3.org/2000/svg">
<path d="M422.297 555.869C426.356 533.522 434.094 512.001 445.196 492.184C448.38 486.529 451.834 481.012 455.559 475.634C457.315 473.099 452.942 470.757 451.197 473.281C437.954 492.38 427.997 513.557 421.738 535.937C420.026 542.102 418.633 548.351 417.564 554.659C417.357 555.866 417.899 557.097 419.277 557.446C420.456 557.745 422.076 557.09 422.297 555.866V555.869Z" fill="#13375B"/>
<path d="M472.906 481.753C476.368 484.705 478.106 488.831 479.57 492.864C481.319 497.732 482.752 502.707 483.861 507.759C486.065 517.67 487.119 527.752 487.778 537.838C488.159 543.687 488.402 549.543 488.644 555.395C488.768 558.432 493.904 558.446 493.776 555.395C492.903 534.292 491.995 512.732 484.78 492.504C482.974 487.449 480.862 482.145 476.368 478.564C475.886 478.152 475.273 477.925 474.639 477.925C474.005 477.925 473.392 478.152 472.91 478.564C472.686 478.766 472.506 479.013 472.383 479.289C472.261 479.565 472.197 479.864 472.197 480.166C472.197 480.468 472.261 480.766 472.383 481.042C472.506 481.318 472.686 481.565 472.91 481.768L472.906 481.753Z" fill="#13375B"/>
<path d="M480.543 463.836H412.109C407.22 463.836 403.256 467.482 403.256 471.978C403.256 476.474 407.205 480.522 412.095 480.522L491.697 483.413C496.234 483.413 501.295 477.293 502.381 473.245L522.912 397.35C524.172 392.679 521.035 387.962 515.939 386.869C510.953 385.801 505.992 388.588 504.728 393.131L486.173 459.82C485.525 462.177 483.203 463.836 480.543 463.836Z" fill="#13375B"/>
<path d="M457.904 280.88L451.69 280.66L451.102 286.423L444.97 286.48L443.734 291.92L439.15 292.71L439.549 295.031L445.678 293.971L446.853 288.816L453.232 288.759L453.809 283.091L459.443 283.287L457.904 280.88Z" fill="#466EB6"/>
<path d="M382.774 386.801L381.823 390.119L386.998 392.237L386.207 397.264L389.822 399.482L388.696 401.308L383.864 398.342L384.615 393.583L379.23 391.379L380.662 386.384L382.774 386.801Z" fill="#F7CC7F"/>
<path d="M524.405 370.076L519.661 371.115L516.659 367.178L511.424 368.716L509.519 363.536L503.521 365.017L501.178 360.464L495.174 360.944L495.359 363.216L499.846 362.856L502.318 367.662L508.084 366.238L510.021 371.507L515.797 369.805L518.728 373.65L523.126 372.689L524.522 375.619L526.581 374.636L524.405 370.076Z" fill="#F7CC7F"/>
<path d="M398.37 384.64L401.28 382.739L400.037 380.828L395.336 383.9L398.292 389.144L395.2 392.864L397.127 396.933L394.588 398.952L396.005 400.735L399.962 397.592L397.886 393.202L401.048 389.393L398.37 384.64Z" fill="#F7CC7F"/>
<path d="M332.433 455.234H423.104V425.37H332.433V455.234Z" fill="#86B1F2"/>
<path d="M294.862 540.18H362.676V423.665H294.862V540.18Z" fill="#FAE0B2"/>
<path d="M419.022 555.122H428.609V419.511H419.022V555.122Z" fill="#184655"/>
<path d="M323.02 555.125H329.9V539.892H323.02V555.125Z" fill="#184655"/>
<path d="M284.875 555.118H291.756V540.13H284.875V555.118Z" fill="#184655"/>
<path d="M342.76 416.929C342.926 416.929 343.09 416.911 343.252 416.876C344.676 416.559 345.595 414.953 345.324 413.291C345.324 413.291 334.089 348.438 333.216 348.107C332.938 348 332.276 346.683 332.251 346.683C332.114 346.687 331.978 346.705 331.845 346.736C330.421 347.053 329.502 348.659 329.769 350.321L340.207 414.451C340.438 415.907 341.528 416.929 342.76 416.929Z" fill="#355389"/>
<path d="M365.613 352.749L376.008 415.263L343.761 415.711L332.236 346.672L361.567 348.303C363.782 348.403 365.335 351.037 365.613 352.749Z" fill="#466EB6"/>
<path d="M421.215 413.914V414.024C421.215 416.018 420.054 417.662 418.604 417.666L377.649 417.769C376.196 417.769 375.021 416.16 375.018 414.166C375.018 414.081 375.018 413.999 375.018 413.914H421.215Z" fill="#355389"/>
<path d="M409.367 413.914C409.367 413.949 409.367 413.985 409.367 414.02C409.367 416.042 407.611 417.687 405.449 417.691L344.103 417.819C341.93 417.819 340.164 416.188 340.16 414.166C340.16 414.081 340.16 413.995 340.16 413.914H409.367Z" fill="#355389"/>
<path d="M396.699 527.065C394.206 531.693 388.113 546.976 387.881 548.133C387.817 548.468 386.952 549.582 386.663 549.792C378.796 550.582 373.038 546.357 368.668 542.195C372.795 542.483 379.103 541.419 380.021 541.262C382.415 540.853 382.158 533.576 383.526 525.399C385.648 526.371 393.608 524.267 396.699 527.065Z" fill="#F7A491"/>
<path d="M387.91 548.033C387.258 550.589 384.548 555.306 384.028 555.153C383.401 554.989 360.168 546.655 358.177 543.327C356.945 541.276 363.294 541.191 368.405 541.44C372.775 545.619 386.567 548.695 387.91 548.033Z" fill="#355389"/>
<path d="M471.743 461.732L417.711 464.843L398.013 533.032L382.344 529.97C382.344 529.97 391.129 459.421 396.233 453.519C410.193 437.417 458.958 439.322 458.958 439.322L471.743 461.732Z" fill="#3C8F7C"/>
<path d="M430.051 530.731C429.851 533.875 429.132 537.68 429.274 541.344C429.37 543.807 430.282 546.801 430.392 547.26C430.471 547.595 430.15 548.966 429.976 549.275C423.152 553.273 416.158 551.831 410.449 549.87C414.324 548.414 417.016 545.512 417.988 544.459C419.634 542.679 418.462 537.317 416.293 529.314C418.629 529.314 426.076 529.478 430.051 530.731Z" fill="#F7A491"/>
<path d="M466.147 434.519C466.147 434.519 415.755 435.466 403.091 453.992C393.618 467.876 417.211 536.228 417.211 536.228L431.407 533.615C431.407 533.615 428.138 487.282 425.773 471.995C425.37 469.403 423.526 461.753 423.526 461.753C423.526 461.753 429.822 463.625 441.524 464.373C457.607 465.398 481.005 465.128 486.041 462.5C494.769 457.965 498.43 445.658 494.588 437.63C490.745 429.603 466.147 434.519 466.147 434.519Z" fill="#50BFA5"/>
<path d="M430.375 547.172C431.261 548.792 431.71 555.075 431.176 555.168C430.542 555.282 403.85 556.777 400.645 554.584C398.668 553.235 405.695 551.779 410.449 549.885C416.161 551.832 430.09 548.895 430.375 547.172Z" fill="#355389"/>
<path d="M427.439 400.981C427.439 400.981 412.763 404.651 405.427 406.983C398.091 409.315 388.749 409.984 388.749 409.984L380.857 414.153L397.756 414.651L437.112 411.152L440.445 401.981L427.439 400.981Z" fill="#F48C7F"/>
<path d="M438.444 371.308L431.443 372.309C431.443 372.309 428.95 372.811 426.938 383.811C424.926 394.812 422.102 400.65 422.102 400.65L439.278 407.485C451.831 390.155 460.439 369.621 438.444 371.308Z" fill="#B75742"/>
<path d="M438.039 361.34C433.562 362.119 433.291 365.733 433.291 365.733L428.708 384.818C428.708 384.818 428.288 392.903 429.217 396C431.023 402.016 434.673 404.391 440.653 406.434C448.58 409.147 451.714 415.979 455.133 419.962C461.066 426.879 456.237 435.156 456.237 435.156L497.697 440.973C497.697 440.973 498.26 432.885 488.869 410.155C480.699 390.414 461.151 357.285 438.039 361.34Z" fill="#F47458"/>
<path d="M452.787 363.64C447.701 358.058 434.777 364.975 438.78 383.48C438.805 383.597 440.269 403.028 439.033 405.495C438.285 406.997 420.276 406.246 409.374 408.538C409.374 408.538 397.587 404.167 393.448 403.871C390.382 403.654 383.081 405.982 383.081 405.982C383.081 405.982 373.676 412.921 374.994 414.067C376.774 415.637 381.219 408.791 384.944 408.791C384.944 408.791 378.153 414.035 380.247 414.153C382.341 414.27 385.232 412.7 386.75 412.234C388.267 411.767 393.837 414.569 398.758 415.153C399.57 415.249 402.783 415.075 406.511 415.569C410.24 416.064 414.57 417.449 419.574 417.681C433.036 418.307 448.271 419.792 452.042 415.997C454.852 413.17 461.344 373.035 452.787 363.64Z" fill="#F7A491"/>
<path d="M455.061 404.547C446.842 403.479 438.597 400.371 438.597 400.371C438.597 400.371 437.921 384.091 437.86 383.479C437.333 374.974 437.654 368.135 441.215 363.721C442.996 361.503 444.922 360.973 447.202 360.973C449.338 360.973 452.305 361.809 453.872 363.821C459.605 371.14 457.412 392.432 455.62 404.141L455.546 404.622L455.061 404.547Z" fill="#B75742"/>
<path d="M434.303 329.852C434.933 324.369 434.926 303.533 447.597 303.96C460.268 304.387 460.339 318.328 470.599 301.535C480.104 285.975 497.665 296.032 496.031 308.905C497.887 309.093 499.669 309.731 501.223 310.763C506.761 314.444 508.1 322.173 504.207 328.025C503.591 328.955 503.641 330.005 502.858 330.724C503.249 336.541 501.048 342.689 495.546 348.31C480.514 363.672 472.302 342.942 464.207 342.426C456.112 341.909 460.094 349.069 452.326 352.589C444.559 356.11 439.289 353.803 430.642 338.531L428.576 334.384C428.576 334.384 433.669 335.352 434.303 329.852Z" fill="#B75742"/>
<path d="M426.998 326.095C435.901 332.311 437.882 348.146 429.676 355.708C424.334 360.624 413.839 361.478 408.006 356.605C398.547 348.698 397.493 339.752 400.844 332.724C405.171 323.643 419.641 320.948 426.998 326.095Z" fill="#B75742"/>
<path d="M429.78 347.53C429.78 347.53 432.526 356.056 442.198 360.973C443.388 361.578 428.704 385.181 428.697 384.907C428.655 383.084 431.236 372.447 430.606 371.14C428.89 367.58 418.918 351.254 418.918 351.254L429.78 347.53Z" fill="#F7A491"/>
<path d="M424.231 349.431L418.918 351.254C418.918 351.272 423.302 358.42 426.753 364.287C428.151 363.078 429.239 361.553 429.926 359.837C431.219 356.79 431.591 353.431 430.994 350.175C430.52 349.329 430.117 348.444 429.791 347.53L424.231 349.431Z" fill="#F47458"/>
<path d="M409.994 331.536C409.994 331.536 414.751 329.524 419.926 331.461C425.101 333.398 434.399 345.975 429.606 357.007C424.812 368.04 413.359 362.557 408.273 355.559C403.188 348.56 398.127 338.011 409.994 331.536Z" fill="#F7A491"/>
<path d="M430.61 337.783C426.508 330.663 422.01 326.491 415.689 328.111C409.367 329.73 403.698 330.813 403.27 338.228L402.814 339.496C402.814 339.496 411.971 335.028 415.767 338.524C419.563 342.02 427.519 343.152 428.588 345.59C429.656 348.029 432.259 352.408 432.259 352.408L432.733 349.681C432.733 349.681 434.709 344.9 430.61 337.783Z" fill="#B75742"/>
<path d="M420.945 342.144C421.8 344.352 423.734 345.626 425.265 344.992C426.796 344.359 427.341 342.052 426.487 339.845C425.632 337.637 423.694 336.363 422.167 336.997C420.639 337.63 420.098 339.934 420.945 342.144Z" fill="#F7A491"/>
<path d="M257.645 540.18H367.924V423.665H257.645V540.18Z" fill="#86B1F2"/>
<path d="M366.388 555.178H375.498V421.08H366.388V555.178Z" fill="#184655"/>
<path d="M255.241 556.189H260.387V422.091H255.241L255.241 556.189Z" fill="#184655"/>
<path d="M237.296 425.926H435.902C437.847 425.926 439.424 424.349 439.424 422.405V421.195C439.424 419.25 437.847 417.674 435.902 417.674H237.296C235.35 417.674 233.774 419.25 233.774 421.195V422.405C233.774 424.349 235.35 425.926 237.296 425.926Z" fill="#184655"/>
<path d="M884.846 557.09C884.846 555.719 884.169 554.598 883.336 554.598H205.444C204.432 554.598 203.613 555.708 203.613 557.09C203.613 558.471 204.432 559.582 205.444 559.582H883.336C884.169 559.582 884.846 558.471 884.846 557.09Z" fill="#86B1F2"/>
<path d="M634.906 159.962H730.356C739.456 159.962 746.834 152.587 746.834 143.49V110.553C746.834 101.455 739.456 94.0806 730.356 94.0806L634.906 94.0806C625.806 94.0806 618.428 101.455 618.428 110.553V143.49C618.428 152.587 625.806 159.962 634.906 159.962Z" fill="#F7A491"/>
<path d="M712.593 151.965L715.015 198.644L682.062 150.876L712.593 151.965Z" fill="#F7A491"/>
<path d="M583.902 295.523L586.039 285.89C586.039 285.89 592.973 290.286 597.015 296.57C601.057 302.853 602.987 319.606 604.138 320.236C605.288 320.867 618.091 301.155 620.327 298.047C623.094 294.206 624.131 289.795 625.861 286.445C627.592 283.095 633.696 281.952 636.008 282.372C638.319 282.792 632.834 292.593 632.834 292.593C632.834 292.593 618.953 316.673 614.323 329.866C609.693 343.06 595.259 349.343 592.955 347.46C590.651 345.577 583.902 295.523 583.902 295.523Z" fill="#F48C7F"/>
<path d="M626.001 288.289C626.001 288.289 626.578 285.754 628.138 285.234C629.698 284.715 632.411 285.177 632.579 285.234C632.746 285.291 635.748 283.679 635.748 283.679L633.255 288.289C633.255 288.289 628.412 293.985 626.799 291.849C625.186 289.713 626.001 288.289 626.001 288.289Z" fill="#F7A491"/>
<path d="M636.609 283.889C636.609 283.889 638.358 292.789 637.916 294.647C637.475 296.505 636.356 295.516 636.136 295.11C635.274 293.437 634.672 287.73 634.672 287.73L636.609 283.889Z" fill="#F48C7F"/>
<path d="M632.842 291.286C632.842 291.286 633.675 296.801 634.533 297.452C635.093 297.876 635.801 297.626 636.033 296.512C636.264 295.398 634.918 288.595 634.918 288.595L632.842 291.286Z" fill="#F48C7F"/>
<path d="M627.744 306.939L624.842 305.515L637.171 280.239C637.94 280.614 638.529 281.28 638.809 282.089C639.088 282.898 639.034 283.784 638.66 284.554L627.744 306.939Z" fill="#184655"/>
<path d="M596.77 255.91C598.512 248.003 600.214 240.047 595.627 231.346C591.916 224.315 585.499 220.271 578.073 219.392C557.03 216.9 561.528 236.529 532.133 240.784C522.994 242.104 514.504 243.372 506.876 247.904C493.097 256.092 487.898 269.264 497.036 290.706C519.408 343.201 574.316 298.637 581.104 288.299C586.136 280.638 595.652 260.997 596.77 255.91Z" fill="#13375B"/>
<path d="M512.619 587.51C512.619 587.51 511.12 602.718 507.277 605.509C503.435 608.3 498.289 618.635 500.867 624.217C501.668 625.961 503.274 626.972 505.101 627.535C510.515 629.201 516.27 626.396 518.574 621.223C520.174 617.558 521.071 613.624 521.216 609.628C521.797 597.271 525.646 590.991 525.646 590.991L512.619 587.51Z" fill="#F7A491"/>
<path d="M571.807 593.733C571.807 593.733 573.022 609.08 572.035 614.068C571.508 616.738 568.57 622.234 569.92 624.748C571.269 627.261 572.808 627.888 572.808 627.888L607.748 628.45C609.649 628.478 608.392 627.257 606.857 626.132C604.364 624.288 602.317 623.071 594.293 619.201C593.773 618.948 591.864 617.738 591.181 617.321C589.436 616.253 587.687 614.587 586.195 612.914C583.702 610.13 583.467 596.616 583.467 596.616L571.807 593.733Z" fill="#F7A491"/>
<path d="M599.116 389.763C599.116 389.763 603.518 414.683 600.626 431.009C597.734 447.335 583.888 598.746 583.888 598.746L568.478 599.615C568.478 599.615 565.248 536.368 565.825 527.574C566.402 518.781 570.978 504.078 570.978 504.078L569.443 453.017L588.888 385.933L599.116 389.763Z" fill="#3C8F7C"/>
<path d="M553.83 384.523C553.83 384.523 541.697 402.74 538.809 417.816C535.921 432.893 540.946 479.23 535.372 498.984C532.363 509.664 520.963 526.197 519.229 540.02C517.494 553.844 510.682 590.042 510.682 590.042L526.084 593.089L561.879 502.665L589.956 420.945L597.146 378.855L553.83 384.523Z" fill="#50BFA5"/>
<path d="M563.653 280.884C563.653 280.884 553.026 282.087 546.673 288.997C540.32 295.907 556.944 351.457 558.101 360.254C559.258 369.051 548.632 389.563 548.632 389.563C548.632 389.563 588.333 396.901 599.116 389.781C599.116 389.781 600.274 326.534 599.116 320.254C597.959 313.974 588.333 288.42 586.022 285.907C583.71 283.394 563.653 280.884 563.653 280.884Z" fill="#FAE0B2"/>
<path d="M548.626 294.195C548.877 293.465 549.277 292.795 549.801 292.227C550.325 291.66 550.96 291.207 551.668 290.897C552.375 290.588 553.139 290.428 553.912 290.429C554.684 290.43 555.448 290.591 556.155 290.902C560.257 292.682 565.92 296.039 568.687 301.806C573.316 311.439 589.485 344.526 594.492 345.783C599.499 347.039 619.916 311.439 619.916 311.439C619.916 311.439 619.339 305.156 621.07 301.596C622.801 298.036 628.004 294.266 628.773 295.523C629.542 296.779 625.885 299.919 625.885 300.549C625.885 301.179 627.427 301.596 629.546 300.339C631.665 299.083 632.811 296.541 632.811 296.541C632.811 296.541 636.284 302.853 632.626 308.506C628.969 314.159 627.427 316.484 627.427 316.484C627.427 316.484 603.737 369.047 595.069 369.674C586.999 370.24 540.513 318.705 548.626 294.195Z" fill="#F7A491"/>
<path d="M568.999 259.449C568.999 259.449 568.917 259.922 568.767 260.723C568.055 264.579 565.295 277.359 563.425 280.873C561.175 285.12 571.135 298.673 580.722 297.01C583.571 296.519 578.311 284.55 578.564 283.301C579.049 280.876 579.704 277.569 580.377 274.18L581.499 268.505C582.524 263.329 583.361 259.093 583.361 259.093L568.999 259.449Z" fill="#F7A491"/>
<path d="M568.766 260.723C568.916 259.922 568.998 259.449 568.998 259.449L583.364 259.093C583.364 259.093 582.527 263.329 581.502 268.505C581.146 270.317 580.764 272.247 580.387 274.148C578.168 273.824 575.85 272.749 573.528 270.716C571.152 268.645 569.361 265.987 568.332 263.009C568.507 262.105 568.656 261.321 568.766 260.723Z" fill="#F47458"/>
<path d="M577.641 225.319C573.624 226.125 570.035 228.359 567.538 231.606C563.293 237.085 558.72 254.034 569.261 263.226C579.803 272.418 590.223 262.012 591.769 250.962C593.314 239.911 593.001 224.92 577.641 225.319Z" fill="#F7A491"/>
<path d="M595.142 247.185C593.885 249.627 591.773 250.98 590.424 250.204C589.074 249.428 588.999 246.826 590.263 244.383C591.528 241.941 593.636 240.592 594.982 241.365C596.328 242.137 596.403 244.747 595.142 247.185Z" fill="#F7A491"/>
<path d="M579.423 225.063C579.423 225.063 570.377 241.168 563.906 241.912C557.435 242.656 556.584 251.215 556.584 251.215C556.584 251.215 558.899 231.496 565.306 227.694C571.712 223.892 579.423 225.063 579.423 225.063Z" fill="#13375B"/>
<path d="M566.025 245.75C566.552 248.598 565.494 251.232 563.66 251.606C561.826 251.98 559.917 249.968 559.386 247.11C558.856 244.251 559.921 241.627 561.751 241.25C563.582 240.873 565.498 242.888 566.025 245.75Z" fill="#F7A491"/>
<path d="M519.592 618.504C511.198 620.031 505.614 615.133 502.708 611.466C500.571 615.62 499.264 620.807 500.835 624.218C502.216 627.226 505.981 628.045 509.161 628.162C510.813 628.226 512.45 627.835 513.894 627.032C515.339 626.229 516.535 625.045 517.352 623.609C518.268 621.987 519.019 620.276 519.592 618.504V618.504Z" fill="#3C8F7C"/>
<path d="M591.174 617.304C581.936 619.667 575.106 618.058 571.284 616.524C570.298 619.308 568.991 622.804 569.685 624.819C570.533 627.289 571.74 627.845 572.809 627.873C581.249 628.094 603.724 628.397 610.159 628.478C610.361 628.482 610.558 628.427 610.729 628.321C610.9 628.214 611.036 628.061 611.122 627.88C611.208 627.698 611.24 627.495 611.214 627.296C611.188 627.096 611.105 626.909 610.975 626.755C609.379 624.869 591.865 617.738 591.174 617.304Z" fill="#3C8F7C"/>
<path d="M209.585 258.659C224.215 238.05 256.779 247.58 257.726 272.835C257.726 273.13 257.748 273.426 257.755 273.725C258.403 303.586 235.675 311.375 242.819 332.8C249.963 354.224 271.665 338.243 280.105 373.298C288.546 408.353 259.703 427.784 262.299 448.556C264.895 469.329 277.256 483.174 276.587 510.226C276.103 530.344 239.571 592.665 239.571 592.665C239.571 592.665 190.884 539.436 189.57 503.74C188.338 469.877 212.58 473.049 213.876 441.241C215.172 409.432 167.757 405.181 190.884 365.256C195.756 356.84 208.267 348.631 208.267 330.457C208.267 312.283 191.8 284.59 204.773 265.551C206.362 263.241 207.979 260.948 209.585 258.659Z" fill="#50BFA5"/>
<path d="M262.3 448.559C259.704 427.787 288.55 408.353 280.106 373.301C271.663 338.249 249.96 354.219 242.82 332.799C235.679 311.378 258.404 303.585 257.756 273.724C257.756 273.425 257.756 273.13 257.727 272.834C257.143 257.327 244.64 247.747 231.687 247.434L231.627 248.242C231.627 248.242 213.464 321.802 225.572 359.018C237.681 396.234 247.218 398.826 241.157 449.022C235.095 499.218 239.579 592.665 239.579 592.665C239.579 592.665 276.111 530.343 276.595 510.226C277.24 483.173 264.9 469.328 262.3 448.559Z" fill="#3C8F7C"/>
<path d="M270.495 616.628H191.381C181.306 607.133 175.166 594.061 175.391 579.714C175.501 572.473 176.947 566.158 179.963 559.956L281.966 561.138C284.854 567.568 286.295 574.553 286.186 581.601C285.972 595.268 280.021 607.585 270.495 616.628Z" fill="#F47458"/>
<path d="M652.457 137.198H575.451C568.111 137.198 562.16 143.147 562.16 150.484V177.06C562.16 184.397 568.111 190.345 575.451 190.345H652.457C659.797 190.345 665.747 184.397 665.747 177.06V150.484C665.747 143.147 659.797 137.198 652.457 137.198Z" fill="#FAE0B2"/>
<path d="M595.16 183.017L585.078 213.259L614.412 183.017H595.16Z" fill="#FAE0B2"/>
<path d="M592.567 165.797C592.567 168.47 590.245 170.638 587.378 170.638C584.511 170.638 582.189 168.47 582.189 165.797C582.189 163.123 584.511 160.955 587.378 160.955C590.245 160.955 592.567 163.123 592.567 165.797Z" fill="white"/>
<path d="M619.089 165.797C619.089 168.47 616.763 170.638 613.9 170.638C611.036 170.638 608.711 168.47 608.711 165.797C608.711 163.123 611.033 160.955 613.9 160.955C616.767 160.955 619.089 163.123 619.089 165.797Z" fill="white"/>
<path d="M645.604 165.797C645.604 168.47 643.283 170.638 640.416 170.638C637.549 170.638 635.23 168.47 635.23 165.797C635.23 163.123 637.552 160.955 640.416 160.955C643.279 160.955 645.604 163.123 645.604 165.797Z" fill="white"/>
<path d="M260.401 457.502C260.401 457.502 303.446 444.59 305.181 444.911C306.915 445.231 300.12 459.596 300.964 464.224C301.235 465.712 264.123 486.926 255.875 485.359C246.882 483.654 212.313 453.928 208.624 447.485C204.503 440.279 197.288 422.312 202.096 415.544C204.286 412.458 209.574 408.353 213.275 409.222C227.922 412.668 243.731 438.592 260.401 457.502Z" fill="#355389"/>
<path d="M262.766 506.834C262.485 505.552 253.553 484.79 253.097 482.672C247.164 454.997 224.329 414.527 213.756 409.336C212.046 408.482 199.842 408.403 199.842 408.403L206.149 411.522C213.336 418.087 221.38 425.676 226.512 434.146C241.391 458.71 251.523 515.314 252.866 515.196C254.39 515.068 263.393 509.667 262.766 506.834Z" fill="#466EB6"/>
<path d="M248.631 507.602C227.734 495.449 224.446 466.759 215.607 451.354C204.788 432.486 188.834 430.432 161.365 464.63C127.693 506.556 144.827 590.903 191.323 617.934L302.816 617.692C325.79 609.426 335.997 597.304 344.248 577.108C380.944 487.31 295.127 534.63 248.631 507.602Z" fill="#F7CC7F"/>
<path d="M298.079 600.743C298.079 600.743 297.303 614.477 297.3 614.506C297.011 616.25 295.875 620.558 295.875 622.142C295.875 628.098 322.382 617.087 316.441 614.449C315.904 614.207 312.253 611.052 312.075 609.027C311.815 605.912 311.968 600.928 311.968 600.928L298.079 600.743Z" fill="#F7A491"/>
<path d="M316.072 614.188C316.072 614.188 309.85 616.008 306.663 616.463C303.476 616.919 299.273 613.085 297.019 614.121C295.178 614.968 294.458 621.105 294.213 624.213C294.194 624.447 294.222 624.683 294.296 624.906C294.37 625.129 294.487 625.334 294.642 625.511C294.797 625.688 294.985 625.831 295.197 625.934C295.408 626.036 295.638 626.095 295.872 626.107C303.201 626.488 331.069 627.773 338.302 625.68C342.052 624.594 328.796 618.428 316.072 614.188Z" fill="#07345A"/>
<path d="M372.569 586.973C372.569 586.973 366.344 588.792 363.156 589.247C359.969 589.703 355.77 585.869 353.516 586.905C351.675 587.752 350.955 593.89 350.706 596.998C350.628 597.984 351.493 599.102 352.487 599.198C360.621 599.999 387.576 600.558 394.809 598.464C398.548 597.368 385.29 591.213 372.569 586.973Z" fill="#07345A"/>
<path d="M346.449 575.841C346.449 575.841 353.903 586.321 354.601 588.635C355.299 590.949 372.571 592.644 372.571 586.976C372.571 586.902 367.229 582.548 365.702 580.568C363.173 577.25 357.272 566.165 357.272 566.165L346.449 575.841Z" fill="#F7A491"/>
<path d="M185.949 347.549C185.949 347.549 177.537 341.853 173.98 351.821C173.98 351.821 169.229 350.397 167.213 355.263C167.213 355.263 159.065 354.651 159.735 366.481C159.735 366.481 155.639 366.606 156.152 371.39C156.422 374.195 157.685 376.81 159.713 378.767C159.713 378.767 157.868 380.903 159.824 384.982C161.483 388.446 164.628 388.336 164.628 388.336C164.628 388.336 166.804 394.31 169.881 395.573C172.958 396.837 176.401 395.146 176.401 395.146C176.401 395.146 178.1 398.268 181.152 397.282C184.204 396.296 187.402 392.48 191.184 393.046C194.966 393.612 203.702 390.198 203.702 390.198C203.702 390.198 212.865 383.434 207.531 373.722C207.531 373.722 211.804 367.723 205.853 362.971C205.853 362.971 207.278 353.174 199.34 349.325C191.401 345.477 185.949 347.549 185.949 347.549Z" fill="#07345A"/>
<path d="M319.313 496.004C312.319 492.565 238.942 503.985 238.942 503.985L230.145 489.97L201.502 496.467C201.502 496.467 193.397 505.794 193.062 509.973C191.976 523.501 198.176 546.228 205.17 548.421C230.071 556.293 283.604 540.205 291.097 538.485C291.097 538.485 290.826 550.611 293.095 575.36C293.992 585.143 295.168 595.923 296.257 605.349C302.81 605.349 309.363 605.214 315.919 604.349C315.916 604.367 326.307 499.443 319.313 496.004Z" fill="#F47458"/>
<path d="M365.824 574.36C353.274 542.675 326.034 480.468 316.162 478.717C303.22 476.424 238.932 503.993 238.932 503.993L304.157 502.633C304.157 502.633 304.513 503.277 307.362 516.944C309.573 527.595 334.111 565.107 348.099 585.887C354.545 582.989 360.938 580.28 365.824 574.36Z" fill="#B75742"/>
<path d="M200.143 408.62C200.143 408.62 183.904 408.435 182.177 408.816C180.449 409.197 183.541 475.075 185.652 499.656C187.764 524.238 191.151 527.926 191.151 527.926C191.151 527.926 214.299 528.019 230.325 522.967C246.971 517.716 250.924 498.403 250.924 498.403C250.924 498.403 235.849 454.21 229.805 440.514C225.941 431.753 218.217 421.892 210.396 413.864C205.991 409.325 200.143 408.62 200.143 408.62Z" fill="white"/>
<path d="M195.586 396.634L198.845 405.534C198.845 405.534 204.525 418.122 201.53 421.451C198.535 424.779 182.83 408.674 182.83 408.674L178.912 385.178L195.586 396.634Z" fill="#F7A491"/>
<path d="M180.2 392.789C184.891 400.055 192.968 403.376 198.363 404.181L195.603 396.644L178.922 385.192L180.2 392.789Z" fill="#F47458"/>
<path d="M181.76 358.972C183.329 358.026 185.085 357.434 186.907 357.239C188.728 357.044 190.57 357.25 192.303 357.843C194.036 358.436 195.619 359.401 196.939 360.671C198.259 361.94 199.285 363.483 199.944 365.192C201.386 368.956 202.585 372.809 203.534 376.726C206.095 387.381 202.854 399.019 197.993 400.09C193.132 401.162 178.167 397.203 174.328 382.123C171.956 372.81 174.755 363.255 181.76 358.972Z" fill="#F7A491"/>
<path d="M178.176 382.532C178.696 384.893 177.553 387.16 175.622 387.577C173.692 387.993 171.705 386.438 171.181 384.077C170.658 381.717 171.805 379.449 173.735 379.029C175.665 378.609 177.652 380.172 178.176 382.532Z" fill="#F7A491"/>
<path d="M182.797 408.591C182.797 408.591 163.94 407.844 159.649 411.795C156.921 414.316 162.448 439.539 162.448 439.539C162.448 439.539 177.829 468.973 180.066 486.175C183.78 514.772 187.167 532.341 188.634 533.288C197.11 536.328 225.127 530.543 226.291 527.236C239.151 490.721 182.797 408.591 182.797 408.591Z" fill="#466EB6"/>
<path d="M273.994 469.158L286.512 416.317C286.669 415.652 287.046 415.06 287.582 414.636C288.118 414.212 288.781 413.982 289.464 413.981H312.196C312.661 413.982 313.12 414.089 313.537 414.294C313.954 414.5 314.318 414.798 314.601 415.166C314.885 415.535 315.08 415.963 315.172 416.419C315.263 416.874 315.249 417.345 315.131 417.794L301.323 469.792C301.157 470.418 300.794 470.975 300.287 471.381C299.781 471.786 299.158 472.019 298.51 472.045L277.067 472.889C276.6 472.907 276.134 472.818 275.706 472.626C275.279 472.435 274.902 472.147 274.604 471.786C274.306 471.425 274.096 471 273.991 470.544C273.885 470.088 273.886 469.613 273.994 469.158V469.158Z" fill="#184655"/>
<path d="M294.736 467.784C293.498 468.01 292.277 468.323 291.082 468.72C289.893 469.154 288.664 469.183 287.61 469.4C285.516 469.831 283.995 470.173 284.028 470.08C284.06 469.987 283.597 469.76 284.686 469.343C286 468.845 289.02 468.385 290.897 467.506C291.966 467.008 294.245 466.082 294.245 466.082C294.245 466.082 297.45 464.081 297.393 463.861C297.105 462.672 294.544 463.441 293.176 464.302C292.033 464.42 289.654 465.441 289.654 465.441C289.654 465.441 284.391 466.467 284.245 465.744C284.181 465.438 287.34 464.434 290.299 462.978C293.038 461.625 295.584 459.827 295.402 459.265C295.092 458.307 291.894 459.496 291.894 459.496C291.894 459.496 289.701 460.443 288.946 460.706C288.062 461.013 285.352 461.732 285.352 461.732C285.352 461.732 275.805 463.811 275.737 463.113C275.669 462.415 276.189 460.539 276.741 460.212C277.293 459.884 278.611 459.792 279.159 459.464C279.708 459.137 280.149 458.254 279.8 457.57C279.451 456.887 276.189 457.492 276.189 457.492C276.189 457.492 273.507 458.026 272.083 459.24C267.143 463.384 268.027 464.01 267.382 464.526C266.613 465.135 253.575 466.563 253.575 466.563C253.575 466.563 215.174 471.02 213.094 471.191L214.44 483.971C216.73 484.206 261.047 476.495 265.594 475.577C265.594 475.577 271.392 476.442 275.053 476.869C278.714 477.296 282.411 476.104 283.465 476.068C286.157 475.777 288.804 475.162 291.35 474.238C294.993 472.939 290.958 472.554 290.958 472.554C290.958 472.554 283.789 473.79 283.796 473.223C283.796 472.786 287.753 472.337 291.798 470.938C292.838 470.582 293.864 470.226 294.804 469.87C297.283 468.983 297.461 467.268 294.736 467.784Z" fill="#F8A492"/>
<path d="M207.366 464.914C207.366 464.914 252.16 464.594 253.894 464.914C255.629 465.235 256.074 476.719 256.921 481.358C257.192 482.846 209.706 488.161 201.458 486.595C192.462 484.89 169.816 460.019 164.566 451.625C160.165 444.587 150.774 426.669 153.11 418.83C154.534 414.092 161.849 408.741 165.852 409.98C181.81 414.928 207.366 464.914 207.366 464.914Z" fill="#86B1F2"/>
<path d="M308.85 443.829C309.051 443.749 309.267 443.714 309.483 443.726C309.699 443.738 309.91 443.797 310.101 443.898C310.292 444 310.459 444.142 310.59 444.314C310.72 444.487 310.812 444.686 310.858 444.897C311.036 445.823 311.043 446.937 310.331 447.645C308.924 449.069 299.412 450.109 299.412 448.713C299.412 447.638 305.865 445 308.85 443.829Z" fill="#F7A491"/>
<path d="M310.944 447.959C310.944 447.959 312.038 451.465 311.218 451.519C310.399 451.572 300.203 453.01 299.701 451.814C299.199 450.618 309.598 447.296 310.944 447.959Z" fill="#F7A491"/>
<path d="M311.359 451.892C311.359 451.892 311.755 453.444 310.968 454.409C310.181 455.374 300.622 455.395 300.177 453.907C299.732 452.419 310.95 450.753 311.359 451.892Z" fill="#F7A491"/>
<path d="M309.18 455.47C309.18 455.47 309.376 456.659 308.981 457.25C308.585 457.841 301.502 458.211 300.59 456.833C299.678 455.455 308.129 454.06 309.18 455.47Z" fill="#F7A491"/>
<path d="M835.66 287.619C845.422 287.068 850.974 298.801 844.378 306.074C843.204 307.392 842.542 309.087 842.512 310.852L842.37 316.904C842.351 317.71 842.029 318.48 841.468 319.059C840.907 319.638 840.148 319.985 839.343 320.03L835.646 320.236C834.841 320.282 834.048 320.023 833.425 319.51C832.803 318.997 832.397 318.269 832.288 317.47C831.458 311.418 831.575 309.14 829.083 306.922C821.7 300.464 825.895 288.171 835.66 287.619Z" fill="#F7CC7F"/>
<path d="M839.78 313.005C839.289 308.103 838.94 302.681 838.872 300.663C837.068 300.887 835.238 300.78 833.473 300.346C834.079 304.387 834.581 308.477 834.976 312.532L834.453 312.582C834.05 308.463 833.537 304.301 832.918 300.196C831.849 299.89 830.613 299.484 830.029 298.548C829.892 298.326 829.802 298.078 829.763 297.82C829.725 297.562 829.739 297.298 829.805 297.046C830.161 295.725 831.778 295.711 832.576 296.807C833.106 297.519 833.195 298.509 833.388 299.78C835.173 300.252 837.033 300.373 838.865 300.136C838.865 299.107 839.004 298.139 839.577 297.32C841.554 294.472 844.873 299.684 839.406 300.588C839.456 302.176 839.791 307.736 840.314 312.955L839.78 313.005ZM840.001 297.615C839.558 298.349 839.346 299.198 839.392 300.054C840.578 299.844 841.329 299.438 841.693 298.815C842.305 297.768 841.062 296.07 840.001 297.615ZM830.742 296.626C830.2 296.9 830.15 297.751 830.478 298.267C830.948 299.007 831.967 299.356 832.836 299.623C832.679 298.612 832.601 297.726 832.155 297.131C831.838 296.69 830.795 296.597 830.738 296.626H830.742Z" fill="white"/>
<path d="M842.523 310.699V310.852L842.38 316.904C842.362 317.711 842.041 318.482 841.48 319.062C840.919 319.642 840.159 319.989 839.353 320.034L835.656 320.24C834.851 320.286 834.058 320.027 833.436 319.514C832.813 319.001 832.407 318.273 832.298 317.474C831.942 314.786 831.75 312.846 831.443 311.315L842.523 310.699Z" fill="#3C8F7C"/>
<path d="M841.683 281.771L843.354 276.007C843.382 275.756 843.322 275.504 843.182 275.294C843.042 275.084 842.833 274.93 842.59 274.86C842.348 274.789 842.089 274.807 841.858 274.909C841.628 275.012 841.441 275.193 841.331 275.419L839.661 281.187C839.633 281.437 839.695 281.689 839.835 281.898C839.975 282.107 840.184 282.26 840.426 282.33C840.668 282.399 840.927 282.382 841.157 282.279C841.387 282.177 841.573 281.997 841.683 281.771V281.771Z" fill="#FAE0B2"/>
<path d="M850.611 292.828L856.63 290.923C856.785 290.903 856.934 290.85 857.066 290.766C857.198 290.682 857.31 290.571 857.394 290.439C857.478 290.307 857.532 290.158 857.553 290.004C857.573 289.849 857.559 289.691 857.512 289.542C857.465 289.393 857.386 289.256 857.28 289.141C857.174 289.026 857.044 288.935 856.9 288.876C856.755 288.817 856.599 288.79 856.443 288.797C856.287 288.805 856.134 288.846 855.996 288.919L849.977 290.824C849.822 290.843 849.673 290.897 849.541 290.981C849.409 291.065 849.297 291.176 849.213 291.308C849.129 291.44 849.075 291.588 849.054 291.743C849.034 291.898 849.047 292.056 849.095 292.205C849.142 292.354 849.221 292.491 849.327 292.606C849.433 292.721 849.563 292.811 849.707 292.871C849.852 292.93 850.008 292.957 850.164 292.95C850.32 292.942 850.473 292.901 850.611 292.828V292.828Z" fill="#FAE0B2"/>
<path d="M860.896 310.286C861.041 310.048 861.087 309.763 861.024 309.492C860.962 309.221 860.795 308.984 860.561 308.834C858.714 307.678 856.762 306.699 854.731 305.911C854.598 305.83 854.448 305.779 854.293 305.763C854.138 305.746 853.981 305.763 853.833 305.813C853.685 305.864 853.55 305.946 853.438 306.054C853.325 306.162 853.238 306.294 853.181 306.439C853.125 306.585 853.101 306.741 853.112 306.897C853.122 307.052 853.167 307.204 853.242 307.341C853.318 307.477 853.422 307.596 853.549 307.688C853.675 307.779 853.82 307.843 853.973 307.873C855.879 308.613 857.711 309.532 859.443 310.617C859.681 310.762 859.965 310.809 860.237 310.747C860.508 310.685 860.745 310.52 860.896 310.286V310.286Z" fill="#FAE0B2"/>
<path d="M826.454 284.875C826.699 284.742 826.883 284.519 826.966 284.253C827.049 283.987 827.025 283.699 826.899 283.451C825.621 281 824.6 278.423 823.854 275.761C823.838 275.606 823.789 275.457 823.709 275.323C823.629 275.189 823.521 275.074 823.392 274.986C823.263 274.899 823.117 274.84 822.963 274.815C822.809 274.79 822.652 274.799 822.502 274.841C822.352 274.883 822.213 274.958 822.095 275.059C821.976 275.161 821.882 275.287 821.818 275.429C821.753 275.571 821.721 275.725 821.723 275.881C821.724 276.037 821.76 276.19 821.828 276.331C822.614 279.132 823.688 281.845 825.033 284.426C825.165 284.671 825.387 284.855 825.652 284.939C825.918 285.023 826.205 285 826.454 284.875Z" fill="#FAE0B2"/>
<path d="M821.893 294.173C821.91 293.896 821.818 293.622 821.636 293.412C821.455 293.201 821.198 293.069 820.921 293.045L814.112 292.546C813.96 292.507 813.802 292.502 813.649 292.531C813.495 292.56 813.35 292.622 813.223 292.713C813.096 292.804 812.991 292.922 812.914 293.058C812.838 293.194 812.792 293.345 812.78 293.501C812.769 293.657 812.791 293.813 812.847 293.959C812.902 294.105 812.989 294.237 813.101 294.346C813.213 294.455 813.347 294.538 813.495 294.589C813.642 294.641 813.799 294.659 813.955 294.643L820.768 295.145C821.045 295.161 821.317 295.068 821.527 294.887C821.737 294.706 821.868 294.45 821.893 294.173Z" fill="#FAE0B2"/>
<path d="M815.197 313.483C815.291 313.463 815.382 313.429 815.467 313.383C817.543 312.265 819.493 310.93 821.287 309.4C821.42 309.32 821.534 309.212 821.622 309.083C821.709 308.954 821.767 308.808 821.792 308.655C821.817 308.501 821.808 308.344 821.766 308.195C821.724 308.045 821.65 307.906 821.548 307.788C821.447 307.67 821.321 307.576 821.18 307.511C821.038 307.447 820.884 307.414 820.729 307.416C820.573 307.417 820.42 307.452 820.28 307.519C820.139 307.585 820.015 307.682 819.915 307.801C818.238 309.236 816.411 310.486 814.467 311.532C814.246 311.653 814.076 311.848 813.987 312.083C813.899 312.318 813.897 312.578 813.984 312.814C814.07 313.05 814.238 313.247 814.457 313.37C814.676 313.493 814.933 313.533 815.179 313.483H815.197Z" fill="#FAE0B2"/>
<path d="M903.219 438.556C879.853 408.567 865.9 410.076 856.139 426.185C848.169 439.357 844.807 464.064 826.37 474.206C785.351 496.773 731.69 488.92 753.157 552.903C759.158 570.785 768.396 569.376 772.68 569.504L877.004 569.397C918.023 546.834 931.866 475.32 903.219 438.556Z" fill="#F7CC7F"/>
<path d="M881.274 382.821C883.674 371.073 878.151 359.457 867.595 355.088C867.666 348.413 865.034 341.714 860.472 337.143C851.505 328.125 833.022 324.227 826.427 335.719C817.712 340.66 818.264 346.794 820.864 356.545C812.42 365.313 815.504 379.685 827.815 387.161C827.623 397 827.367 411.835 835.946 416.039C838.004 417.05 841.227 418.456 841.644 418.887C841.106 418.378 847.997 437.62 869.422 428.813C891.263 419.838 895.512 394.54 881.274 382.821Z" fill="#355389"/>
<path d="M790.492 461.999C792.212 460.304 795.236 458.795 795.061 458.549C794.349 457.538 786.87 465.271 787.355 463.092C787.625 461.881 792.981 455.566 794.88 455.331C796.724 455.1 808.647 453.22 808.647 453.22L836.205 434.911C836.205 434.911 837.569 413.255 831.721 398.667C838.131 396.716 839.364 396.299 845.938 396.805C849.688 411.604 853.719 436.531 848.847 443.797C846.8 446.851 810.98 458.67 810.98 458.67C810.98 458.67 803.231 461.586 801.788 461.675C800.692 461.746 797.675 461.493 796.201 461.721C792.857 462.241 788.722 467.218 788.423 466.645C788.216 466.228 788.736 463.733 790.492 461.999Z" fill="#F48C7F"/>
<path d="M828.355 396.94C829.957 393.991 831.711 391.126 833.608 388.357C836.293 383.569 843.223 381.151 843.223 381.151C843.223 381.151 845.542 381.198 848.209 381.329C848.303 381.661 848.475 381.965 848.711 382.216C849.712 382.967 855.449 381.995 859.157 384.519C871.575 395.199 868.142 446.958 867.162 463.305L836.154 463.441C836.154 463.441 834.107 428.489 826.421 419.453C821.087 413.152 824.53 404.031 828.355 396.94Z" fill="#F47458"/>
<path d="M819.87 579.037C819.539 578.425 815.241 568.033 811.708 563.405C806.594 556.688 762.391 495.837 764.211 481.027C765.005 474.559 784.154 469.076 786.433 468.685C798.62 470.322 785.817 480.81 794.98 489.432C789.026 491.469 785.518 494.01 786.79 495.684C791.943 502.384 819.304 556.371 820.494 557.065C825.793 560.173 827.869 558.731 827.869 558.731C827.869 558.731 826.651 589.098 824.123 588.14C821.594 587.183 823.62 585.94 819.87 579.037Z" fill="#F79C8D"/>
<path d="M830.112 558.919L825.001 589.535C823.851 593.494 821.917 593.451 821.44 592.921C820.422 591.828 819.955 583.665 819.834 579.016C822.138 571.928 821.921 558.588 820.5 557.083C823.958 557.139 830.108 558.243 830.112 558.919Z" fill="#B75742"/>
<path d="M811.838 483.968C804.979 472.601 805.346 474.039 793.409 468.902C788.626 470.821 772.618 480.849 770.588 482.704L796.048 501.163C795.236 499.112 804.082 488.848 811.838 483.968Z" fill="#F7A491"/>
<path d="M845.422 363.632C845.422 363.632 847.502 378.524 848.955 382.144C850.408 385.765 840.967 393.504 833.114 395.854C825.261 398.203 835.514 387.858 835.19 383.992C834.866 380.126 833.438 361.802 833.438 361.802L845.422 363.632Z" fill="#F7A491"/>
<path d="M833.833 367.057L833.438 361.802L845.421 363.632C845.421 363.632 845.724 365.38 846.059 367.854C841.198 370.681 836.831 369.791 833.833 367.057Z" fill="#F47458"/>
<path d="M841.665 336.42C844.79 337.295 847.499 339.257 849.304 341.952C852.221 346.416 854.222 359.56 844.617 365.694C835.013 371.828 827.523 363.152 827.413 354.686C827.302 346.22 829.101 334.935 841.665 336.42Z" fill="#F7A491"/>
<path d="M825.214 352.044C826.033 354.088 827.661 355.355 828.847 354.892C830.033 354.43 830.328 352.372 829.509 350.328C828.69 348.285 827.066 347.018 825.877 347.498C824.687 347.979 824.395 350.001 825.214 352.044Z" fill="#F7A491"/>
<path d="M849.457 353.725C848.744 355.925 849.4 358.09 850.881 358.563C852.363 359.036 854.129 357.634 854.827 355.434C855.525 353.234 854.884 351.066 853.403 350.596C851.921 350.126 850.155 351.525 849.457 353.725Z" fill="#F7A491"/>
<path d="M813.238 464.306C818.544 463.818 836.098 462.038 836.098 462.038L867.234 457.852C867.234 457.852 872.737 470.995 872.954 479.24C873.331 493.665 860.051 505.823 848.691 505.125C841.924 504.712 803.658 503.872 796.187 501.102C794.645 489.354 792.871 476.616 784.947 468.158C797.633 466.417 806.041 464.968 813.238 464.306Z" fill="#466EB6"/>
<path d="M812.844 573.106C811.989 572.223 805.155 525.509 801.035 505.904C800.546 503.572 799.558 501.373 798.137 499.46C796.716 497.546 794.897 495.964 792.805 494.822L770.589 482.718C762.897 489.756 798.802 568.767 802.089 577.058C804.35 582.754 805.775 594.541 805.939 595.257C807.787 603.338 805.376 604.021 807.676 605.716C809.977 607.41 820.273 577.916 820.273 577.916C820.273 577.916 817.349 577.788 812.844 573.106Z" fill="#F7A491"/>
<path d="M819.531 466.338C819.531 467.513 818.462 468.474 817.116 468.474L779.388 468.563C778.052 468.563 776.71 467.41 776.275 465.979L776.963 466.438C776.963 465.26 778.031 464.302 779.377 464.302L817.106 464.213C818.445 464.224 819.531 465.16 819.531 466.338Z" fill="#355389"/>
<path d="M779.769 467.784C779.996 467.783 780.224 467.769 780.449 467.741C782.401 467.495 783.683 466.249 783.298 464.961L768.9 415.153C768.544 413.86 766.642 413.017 764.687 413.262C762.732 413.508 761.453 414.754 761.838 416.046L776.24 465.851C776.567 466.997 778.077 467.784 779.769 467.784Z" fill="#355389"/>
<path d="M790.881 461.041C793.042 459.973 796.386 459.471 796.294 459.179C795.938 457.997 786.322 464.11 787.472 462.191C788.106 461.123 795.243 455.697 797.12 456.061C798.943 456.417 810.867 458.321 810.867 458.321L841.547 447.235C841.547 447.235 847.398 428.161 846.358 412.479C853.043 412.604 857.715 413.714 863.809 416.235C862.787 431.464 858.898 456.417 852.01 461.803C849.115 464.074 811.411 464.213 811.411 464.213C811.411 464.213 803.139 464.569 801.739 464.213C800.671 463.939 797.886 462.764 796.415 462.525C793.071 461.984 787.586 465.43 787.494 464.797C787.401 464.359 788.676 462.145 790.881 461.041Z" fill="#F7A491"/>
<path d="M844.225 395.844C844.652 391.024 845.243 386.168 850.158 384.096C853.206 382.807 856.846 383.277 859.61 385.05C862.893 387.157 864.189 391.002 864.595 394.733C865.55 403.206 865.999 412.052 865.425 420.572C859.335 418.051 851.048 419.386 844.364 419.258C842.886 411.778 843.669 402.124 844.225 395.844Z" fill="#B75742"/>
<path d="M795.439 456.492C790.196 457.834 790.488 457.734 790.278 457.869C786.575 460.201 786.866 461.212 792.554 458.777C792.698 458.715 792.853 458.683 793.01 458.685L795.706 458.717C795.936 458.719 796.162 458.651 796.353 458.522C796.543 458.392 796.69 458.208 796.773 457.993C796.855 457.777 796.87 457.542 796.815 457.318C796.76 457.095 796.637 456.893 796.464 456.741V456.741C796.327 456.618 796.162 456.531 795.983 456.488C795.804 456.444 795.617 456.446 795.439 456.492V456.492Z" fill="#F7A491"/>
<path d="M805.706 593.508C805.706 593.508 805.93 597.214 804.684 600.183C803.437 603.153 798.676 604.27 799.826 605.805C800.976 607.339 810.179 605.805 810.179 605.805L820.824 579.781C821.036 579.311 821.091 578.785 820.982 578.281C820.872 577.778 820.603 577.322 820.215 576.983C818.936 575.862 816.593 574.27 812.896 573.163C812.896 573.16 813.469 589.486 805.706 593.508Z" fill="#F47458"/>
<path d="M628.397 400.653C634.897 398.781 635.071 399.941 635.897 399.678C636.87 399.368 644.733 388.724 644.733 388.724C644.733 388.724 668.131 357.524 669.327 355.79L676.706 315.416L698.875 315.242C698.875 315.242 689.616 358.837 688.708 360.998C687.8 363.159 650.723 401.262 647.582 404.729C647.582 404.729 645.552 410.361 644.153 413.847C642.753 417.332 639.754 419.899 639.199 420.785C637.576 422.988 635.659 424.958 633.501 426.641C630.424 429.076 632.051 425.288 632.051 425.288C632.051 425.288 636.813 419.703 636.254 419.372C635.826 419.115 633.426 422.334 630.053 425.068C629.188 425.78 628.33 426.46 627.536 427.086C625.449 428.731 623.682 427.855 625.545 425.769C626.381 424.811 627.294 423.922 628.273 423.11C629.288 422.319 629.922 421.251 630.659 420.454C632.119 418.866 633.205 417.731 633.098 417.699C632.991 417.666 633.002 417.125 632.055 417.841C630.915 418.699 628.967 421.088 627.179 422.216C626.164 422.853 624.142 424.324 624.142 424.324C624.142 424.324 620.602 425.951 620.413 425.773C619.391 424.801 621.421 422.996 622.934 422.312C623.615 421.376 625.783 419.891 625.783 419.891C625.783 419.891 629.395 415.862 628.764 415.303C628.494 415.061 625.947 417.246 623.066 418.973C620.388 420.575 617.368 421.743 616.905 421.244C616.125 420.401 618.871 418.293 618.871 418.293C618.871 418.293 620.887 416.926 621.513 416.417C622.251 415.822 624.298 413.861 624.298 413.861C624.298 413.861 631.065 406.684 630.424 406.2C629.783 405.716 627.685 405.057 627.09 405.345C626.496 405.634 625.755 406.741 625.16 407.029C624.785 407.182 624.371 407.209 623.98 407.106C623.588 407.002 623.241 406.774 622.991 406.456C622.5 405.744 624.704 403.227 624.704 403.227C624.704 403.227 626.524 401.212 628.397 400.653Z" fill="#F48C7F"/>
<path d="M665.203 603.185C665.203 603.185 665.993 617.115 665.997 617.144C666.285 618.924 667.421 623.281 667.421 624.887C667.421 630.939 640.541 619.76 646.563 617.083C647.111 616.841 649.968 615.011 650.146 612.954C650.423 609.789 651.121 603.381 651.121 603.381L665.203 603.185Z" fill="#F7A491"/>
<path d="M646.637 617.026C646.637 617.026 652.947 618.873 656.181 619.336C659.415 619.799 663.66 615.908 665.96 616.958C668.478 618.115 668.222 629.5 668.222 629.5C668.222 629.5 634.535 631.486 625.016 628.432C621.248 627.207 633.734 621.33 646.637 617.026Z" fill="#184655"/>
<path d="M724.427 604.52C724.427 604.52 725.218 618.45 725.222 618.478C725.51 620.258 726.646 624.616 726.646 626.225C726.646 632.277 699.765 621.098 705.788 618.421C706.336 618.179 710.04 614.979 710.218 612.925C710.496 609.756 710.35 604.715 710.35 604.715L724.427 604.52Z" fill="#F7A491"/>
<path d="M705.848 618.372C705.848 618.372 712.159 620.22 715.392 620.679C718.626 621.138 722.871 617.254 725.172 618.304C727.69 619.461 727.789 629.867 727.789 629.867C727.789 629.867 691.774 632.477 683.305 630.028C679.516 628.92 692.96 622.669 705.848 618.372Z" fill="#184655"/>
<path d="M681.831 403.451L670.464 408.35L646.557 522.476L647.529 608.034L666.692 608.479C666.692 608.479 675.595 533.637 675.595 527.838C675.595 522.038 716.889 426.342 716.889 426.342L681.831 403.451Z" fill="#355389"/>
<path d="M690.602 409.731C690.602 409.731 698.974 497.663 698.974 512.483C698.974 527.303 705.762 610.258 705.762 610.258L724.972 610.148C724.972 610.148 726.357 584.872 728.419 547.663C728.739 541.839 728.002 530.084 728.419 524.05C731.407 480.671 737.322 439.834 734.494 423.658C734.039 421.052 733.184 414.238 731.521 412.518C718.942 399.499 690.602 409.731 690.602 409.731Z" fill="#466EB6"/>
<path d="M667.168 340.336L690.412 338.78C690.412 338.78 691.559 318.008 691.559 308.1C691.559 296.082 695.224 278.36 693.792 278.691C689.771 279.627 682.827 283.319 679.604 287.815C668.454 303.348 667.168 340.336 667.168 340.336Z" fill="#3C8F7C"/>
<path d="M722.23 278.231C722.23 278.231 735.485 280.075 738.968 282.635C742.885 285.519 747.258 291.973 747.258 291.973C747.258 291.973 730.983 368.869 730.955 381.817C730.93 391.827 734.477 416.409 734.477 416.409C734.477 416.409 685.295 419.513 666.67 412.162C666.67 412.162 672.553 382.927 672.553 375.252C672.553 367.577 679.587 297.765 681.189 292.891C682.642 288.466 685.295 280.517 694.284 278.559C703.273 276.601 722.23 278.231 722.23 278.231Z" fill="#50BFA5"/>
<path d="M718.622 257.527L721.902 279.001C721.902 279.001 709.919 304.572 702.767 302.354C696.767 300.492 700.456 277.869 700.456 277.869C700.456 277.869 703.729 265.718 702.746 259.638C701.763 253.557 718.622 257.527 718.622 257.527Z" fill="#F7A491"/>
<path d="M702.747 259.638C701.767 253.557 718.623 257.527 718.623 257.527L718.894 259.307C718.468 260.406 717.849 261.42 717.067 262.301C713.302 266.324 707.416 268.741 702.33 268.922C702.839 265.644 703.149 262.133 702.747 259.638Z" fill="#F47458"/>
<path d="M721.386 227.146C721.864 226.975 725.204 251.603 718.865 258.381C712.526 265.159 700.165 267.377 695.717 262.037C690.816 256.135 691.062 229.663 700.923 222.692C710.784 215.722 721.386 227.146 721.386 227.146Z" fill="#F7A491"/>
<path d="M704.691 209.516C710.204 210.688 715.221 213.53 719.061 217.654C722.523 218.06 727.227 219.961 732.085 227.946C738.057 237.764 733.644 248.644 726.693 253.98C719.741 259.317 719.82 265.515 719.82 265.515L718.751 262.311C717.923 259.899 717.625 257.336 717.879 254.799C718.01 253.243 718.39 251.718 719.004 250.281C720.674 246.721 715.411 244.35 713.936 241.381C712.8 239.096 712.743 233.873 710.952 230.096L708.815 227.216C708.815 227.216 703.883 223.403 699.054 224.478C694.225 225.554 694.912 207.547 704.691 209.516Z" fill="#13375B"/>
<path d="M714.249 245.753C714.2 248.758 715.574 251.218 717.323 251.246C719.071 251.275 720.528 248.865 720.578 245.86C720.628 242.855 719.249 240.395 717.504 240.367C715.759 240.338 714.299 242.749 714.249 245.753Z" fill="#F7A491"/>
<path d="M688.437 356.455L688.12 358.289C688.083 358.514 688.001 358.73 687.88 358.923C687.759 359.117 687.6 359.285 687.414 359.417C687.228 359.55 687.017 359.644 686.794 359.694C686.571 359.745 686.34 359.751 686.115 359.713L648.102 353.13C647.877 353.093 647.661 353.011 647.467 352.89C647.273 352.769 647.105 352.61 646.973 352.424C646.84 352.238 646.746 352.027 646.696 351.804C646.645 351.582 646.639 351.351 646.677 351.126L646.994 349.292C647.032 349.067 647.114 348.851 647.235 348.658C647.356 348.464 647.514 348.296 647.701 348.164C647.887 348.031 648.098 347.937 648.321 347.886C648.543 347.836 648.774 347.83 648.999 347.868L687.016 354.447C687.242 354.485 687.458 354.567 687.651 354.689C687.845 354.81 688.012 354.969 688.145 355.156C688.277 355.342 688.37 355.553 688.421 355.776C688.471 355.999 688.476 356.23 688.437 356.455V356.455Z" fill="#13375B"/>
<path d="M742.325 288.136C737.866 288.004 733.921 317.413 736.748 320.315C739.576 323.216 740.114 359.435 740.114 359.435L698.041 358.389C697.218 357.841 688.404 351.924 687.143 350.628C685.822 349.272 679.397 349.952 677.698 351.817C676 353.682 681.477 352.173 682.987 353.173C684.497 354.174 681.855 356.733 681.855 356.733C681.855 356.733 671.192 358.282 669.112 356.075C667.032 353.868 661.48 350.14 660.725 352.344C660.337 353.483 663.218 356.929 664.814 358.374C662.802 356.869 660.391 355.27 659.561 355.548C658.051 356.057 658.681 357.979 659.5 358.542C660.319 359.104 668.781 365.569 670.106 366.018C671.431 366.466 691.085 366.947 694.486 367.698C694.486 367.698 749.971 380.329 753.127 379.542C755.894 378.83 758.661 361.098 758.661 347.502C758.661 333.907 756.264 288.538 742.325 288.136Z" fill="#F7A491"/>
<path d="M736.543 281.425C736.543 281.425 744.303 283.205 752.323 292.219C759.613 300.407 764.207 346.274 764.207 346.274L739.029 350.343L737.02 328.157L730.293 318.007L736.543 281.425Z" fill="#50BFA5"/>
<path d="M310.768 332.597H249.898C244.096 332.597 239.393 337.299 239.393 343.099V364.106C239.393 369.906 244.096 374.608 249.898 374.608H310.768C316.57 374.608 321.274 369.906 321.274 364.106V343.099C321.274 337.299 316.57 332.597 310.768 332.597Z" fill="#FAE0B2"/>
<path d="M265.48 368.812L291.403 409.895L280.698 368.812H265.48Z" fill="#FAE0B2"/>
<path d="M774.886 153.315L772.394 147.423L766.126 146.138C765.965 146.105 765.816 146.028 765.697 145.915C765.577 145.802 765.492 145.658 765.45 145.499C765.409 145.34 765.413 145.172 765.462 145.015C765.51 144.858 765.602 144.718 765.727 144.611L770.559 140.424L769.847 134.066C769.829 133.903 769.856 133.739 769.927 133.591C769.997 133.443 770.108 133.318 770.246 133.23C770.383 133.142 770.543 133.094 770.707 133.092C770.871 133.09 771.032 133.134 771.172 133.219L776.653 136.519L782.479 133.877C782.629 133.81 782.794 133.786 782.956 133.808C783.119 133.829 783.272 133.896 783.399 134C783.525 134.104 783.62 134.241 783.673 134.396C783.726 134.551 783.734 134.718 783.697 134.878L782.251 141.108L786.564 145.828C786.675 145.949 786.75 146.099 786.78 146.261C786.81 146.422 786.795 146.589 786.735 146.742C786.675 146.895 786.574 147.028 786.442 147.127C786.311 147.225 786.154 147.285 785.991 147.299L779.616 147.847L776.457 153.408C776.375 153.548 776.255 153.663 776.111 153.739C775.968 153.816 775.806 153.851 775.643 153.842C775.481 153.832 775.324 153.778 775.191 153.685C775.057 153.592 774.952 153.464 774.886 153.315Z" fill="#9BC1F9"/>
<path d="M448.498 129.584L446.522 124.917L441.536 123.895C441.412 123.863 441.3 123.799 441.21 123.709C441.119 123.62 441.055 123.507 441.023 123.384C440.991 123.261 440.992 123.131 441.028 123.009C441.063 122.886 441.13 122.776 441.223 122.688L445.054 119.367L444.488 114.329C444.478 114.199 444.503 114.069 444.561 113.953C444.619 113.837 444.708 113.739 444.818 113.669C444.929 113.6 445.056 113.562 445.186 113.56C445.316 113.557 445.444 113.591 445.557 113.656L449.898 116.269L454.528 114.18C454.647 114.132 454.778 114.117 454.905 114.138C455.032 114.158 455.152 114.213 455.251 114.296C455.349 114.379 455.424 114.487 455.466 114.609C455.508 114.731 455.516 114.862 455.489 114.988L454.342 119.925L457.761 123.671C457.842 123.769 457.896 123.887 457.916 124.012C457.936 124.138 457.922 124.267 457.876 124.385C457.829 124.504 457.752 124.608 457.652 124.686C457.551 124.765 457.432 124.815 457.305 124.831L452.255 125.269L449.763 129.673C449.695 129.785 449.597 129.876 449.481 129.936C449.365 129.996 449.234 130.023 449.103 130.014C448.972 130.005 448.847 129.96 448.74 129.884C448.633 129.808 448.55 129.704 448.498 129.584Z" fill="#F7CC7F"/>
<path d="M846.287 133.29L844.591 140.115L833.302 138.602L829.591 148.278L820.955 148.527L821.08 152.895L832.629 152.564L836.148 143.393L847.893 144.97L850.443 134.696L846.287 133.29Z" fill="#F48C7F"/>
<path d="M489.24 138.48L487.541 145.309L476.252 143.796L472.541 153.472L463.908 153.717L464.033 158.085L475.579 157.754L479.097 148.587L490.842 150.161L493.392 139.887L489.24 138.48Z" fill="#466EB6"/>
<path d="M570.38 117.896L564.009 120.89L558.062 111.179L548.211 114.404L542.574 107.864L539.262 110.716L546.801 119.463L556.139 116.408L562.325 126.512L571.908 122.008L570.38 117.896Z" fill="#F48C7F"/>
<path d="M773.074 109.955L762.757 112.771L760.535 100.271L763.911 99.6733L765.475 108.477L772.17 106.647L773.074 109.955Z" fill="#50BFA5"/>
<path d="M536.625 169.954L506.874 170.04C506.322 170.042 505.775 169.935 505.264 169.725C504.753 169.516 504.288 169.207 503.896 168.818C503.504 168.429 503.193 167.967 502.98 167.457C502.767 166.948 502.656 166.402 502.654 165.85L540.821 165.739C540.822 166.291 540.715 166.838 540.505 167.349C540.295 167.86 539.986 168.324 539.596 168.715C539.207 169.107 538.744 169.418 538.234 169.63C537.724 169.843 537.178 169.953 536.625 169.954V169.954Z" fill="#FAE0B2"/>
<path d="M537.623 151.011C534.294 151.011 531.591 153.165 531.598 155.792C531.605 158.42 534.318 160.545 537.652 160.538C540.985 160.531 543.685 158.38 543.678 155.757C543.67 153.133 540.96 151.001 537.623 151.011ZM537.645 158.388C535.533 158.388 533.749 157.202 533.727 155.785C533.706 154.368 535.508 153.162 537.613 153.158C539.717 153.154 541.509 154.343 541.512 155.76C541.516 157.177 539.753 158.384 537.645 158.388V158.388Z" fill="#FAE0B2"/>
<path d="M536.469 146.786C536.504 158.755 529.624 168.477 521.094 168.502C512.565 168.527 505.631 158.847 505.596 146.879C505.596 145.358 512.498 144.105 521.023 144.08C529.549 144.056 536.465 145.269 536.469 146.786Z" fill="#FAE0B2"/>
<path d="M536.469 146.786C536.469 148.306 529.567 149.559 521.041 149.584C512.515 149.609 505.603 148.395 505.596 146.879C505.589 145.362 512.498 144.105 521.023 144.08C529.549 144.056 536.465 145.269 536.469 146.786Z" fill="#F7CC7F"/>
</svg>
