<svg width="22" height="22" viewBox="0 0 22 22" fill="none" xmlns="http://www.w3.org/2000/svg">
<g clip-path="url(#clip0_3019_13226)">
<path d="M10.9992 0H10.9727C4.89791 0 -0.0273438 4.92525 -0.0273438 11C-0.0273438 17.0748 4.89791 22 10.9727 22H10.9992C17.074 22 21.9992 17.0748 21.9992 11C21.9992 4.92525 17.074 0 10.9992 0ZM10.9992 21.12H10.9727C5.38374 21.12 0.852656 16.5889 0.852656 11C0.852656 5.41108 5.38374 0.88 10.9727 0.88H10.9992C16.5882 0.88 21.1192 5.41108 21.1192 11C21.1192 16.5889 16.5882 21.12 10.9992 21.12Z" fill="#33D2FF"/>
<path d="M14.5071 6.5472C13.5996 6.77637 12.5491 6.92487 11.4692 6.9597L11.4454 6.96062V10.5622H15.0204C14.9996 9.16618 14.8185 7.77718 14.4805 6.42254L14.5071 6.5472ZM11.4399 1.82454V6.15579C12.4318 6.12645 13.4178 5.99217 14.3815 5.7552L14.2852 5.77537C13.5922 3.58454 12.5133 2.1472 11.4399 1.82454ZM7.69072 5.76987C8.53955 5.98254 9.52405 6.12187 10.5342 6.15487L10.5571 6.15579V1.81445C9.48372 2.12612 8.3883 3.56529 7.69072 5.76987ZM17.5898 4.51587C16.3928 3.2924 14.8782 2.42704 13.2164 2.01704L13.1531 2.0042C14.0372 3.01316 14.6838 4.20756 15.0451 5.49945L15.0598 5.5627C15.9621 5.29078 16.8344 4.92775 17.6631 4.4792L17.5898 4.51587ZM15.8289 10.5622H20.2344C20.1449 8.56766 19.4069 6.65682 18.1325 5.11995L18.1444 5.13554C17.3286 5.5957 16.3816 6.00454 15.3898 6.31345L15.2844 6.34187C15.608 7.60229 15.8051 9.05337 15.828 10.5475V10.5631L15.8289 10.5622ZM6.95464 10.5622H10.5608V6.96062C9.48436 6.93003 8.41443 6.7825 7.36988 6.52062L7.47255 6.54262C7.14461 7.85319 6.97079 9.19757 6.95464 10.5485V10.5622ZM15.0204 11.4395H11.4399V15.0328C12.5436 15.0649 13.5968 15.2134 14.6088 15.4673L14.508 15.4462C14.8123 14.25 14.9975 12.8722 15.0204 11.455V11.4404V11.4395ZM7.47347 15.4535C8.39014 15.2198 9.4498 15.0685 10.5397 15.0365L10.5617 15.0355V11.4422H6.95464C6.97572 12.8759 7.16364 14.2555 7.49914 15.5764L7.47255 15.4535H7.47347ZM10.5626 20.1817V15.8395C9.5268 15.8734 8.54139 16.0118 7.59264 16.2455L7.69072 16.2254C8.38922 18.4309 9.48372 19.8728 10.5626 20.1817ZM13.1531 19.9965C14.8396 19.5894 16.3783 18.7177 17.5944 17.4803L17.5962 17.4785C16.822 17.0593 16.0083 16.7176 15.1671 16.4582L15.0681 16.4316C14.7062 17.7536 14.0485 18.9761 13.1449 20.0066L13.1541 19.9965H13.1531ZM8.81639 2.0152C7.14411 2.4246 5.61912 3.29217 4.41272 4.52045L4.41089 4.52229C5.1213 4.91095 5.94905 5.26295 6.81439 5.53245L6.91247 5.55904C7.27431 4.24588 7.92795 3.03135 8.82464 2.00604L8.81547 2.01612L8.81639 2.0152ZM15.2844 15.6598C16.3835 15.9944 17.3331 16.4041 18.2251 16.9037L18.1508 16.8652C19.4152 15.3378 20.1482 13.4404 20.239 11.4596L20.2399 11.4385H15.8344C15.8077 12.9072 15.6136 14.368 15.256 15.7927L15.2844 15.6598ZM11.4399 15.8395V20.1753C12.5133 19.8526 13.5922 18.4153 14.2852 16.2199C13.3598 15.994 12.4132 15.8665 11.461 15.8395L11.4399 15.8385V15.8395ZM6.69614 6.33545C5.68263 6.03066 4.7057 5.61536 3.78297 5.09704L3.85539 5.13462C2.59097 6.66202 1.858 8.55943 1.76722 10.5402L1.7663 10.5613H6.1498C6.17089 9.05154 6.36889 7.5977 6.72364 6.2062L6.69614 6.33454V6.33545ZM6.14522 11.4395H1.76172C1.8598 13.5166 2.63255 15.3958 3.86364 16.8817L3.85172 16.8661C4.66114 16.4087 5.60255 16.0017 6.58705 15.6937L6.69155 15.6653C6.35011 14.2878 6.16712 12.8759 6.14614 11.4569V11.4395H6.14522ZM4.4063 17.4785C5.59721 18.695 7.10175 19.558 8.75314 19.9718L8.81639 19.9855C7.93497 18.9787 7.28895 17.7881 6.9253 16.5004L6.90972 16.4362C6.01644 16.7104 5.15242 17.0721 4.33022 17.516L4.4063 17.4785Z" fill="#33D2FF"/>
</g>
<defs>
<clipPath id="clip0_3019_13226">
<rect width="22" height="22" rx="11" fill="white"/>
</clipPath>
</defs>
</svg>
