<svg width="24" height="21" viewBox="0 0 24 21" fill="none" xmlns="http://www.w3.org/2000/svg">
<path d="M12 0L0 5.6L3.2 7.04V9.76C2.24 10.08 1.6 11.04 1.6 12C1.6 12.96 2.24 13.92 3.2 14.24V14.4L1.76 17.76C1.28 19.2 1.6 20.8 4 20.8C6.4 20.8 6.72 19.2 6.24 17.76L4.8 14.4C5.76 13.92 6.4 13.12 6.4 12C6.4 10.88 5.76 10.08 4.8 9.76V7.84L12 11.2L24 5.6L12 0ZM19.04 10.4L11.84 13.6L8 11.84V12C8 13.12 7.52 14.08 6.72 14.88L7.68 17.12V17.28C7.84 17.92 8 18.56 7.84 19.2C8.96 19.68 10.24 20 11.84 20C17.12 20 19.04 16.8 19.04 15.2V10.4Z" fill="#6938EF"/>
</svg>
