<svg width="19" height="22" viewBox="0 0 19 22" fill="none" xmlns="http://www.w3.org/2000/svg">
<path d="M14.3571 6C14.3571 8.76172 12.1828 11 9.5 11C6.81719 11 4.64286 8.76172 4.64286 6C4.64286 3.23867 6.81719 1 9.5 1C12.1828 1 14.3571 3.23867 14.3571 6ZM8.9346 15.0312L7.67857 12.875H11.3214L10.0654 15.0312L11.329 19.8711L12.8279 13.5742C15.7574 14.043 18 16.6523 18 19.8008C18 20.4609 17.4763 21 16.835 21H2.16571C1.52176 21 1 20.4609 1 19.8008C1 16.6523 3.24225 14.043 6.1721 13.5742L7.67098 19.8711L8.9346 15.0312Z" fill="#CC00FF"/>
</svg>
