<svg width="19" height="19" viewBox="0 0 19 19" fill="none" xmlns="http://www.w3.org/2000/svg">
<path d="M9.50065 7.91634C10.3405 7.91634 11.146 7.58271 11.7398 6.98885C12.3337 6.39498 12.6673 5.58953 12.6673 4.74967C12.6673 3.90982 12.3337 3.10437 11.7398 2.5105C11.146 1.91664 10.3405 1.58301 9.50065 1.58301C8.6608 1.58301 7.85534 1.91664 7.26148 2.5105C6.66761 3.10437 6.33398 3.90982 6.33398 4.74967C6.33398 5.58953 6.66761 6.39498 7.26148 6.98885C7.85534 7.58271 8.6608 7.91634 9.50065 7.91634V7.91634Z" stroke="url(#paint0_linear_3063_11132)" stroke-width="2" stroke-linejoin="round"/>
<path d="M6.33398 12.666H4.75065L1.58398 17.416H17.4173L14.2507 12.666H12.6673M9.50065 7.91602V15.041V7.91602Z" stroke="url(#paint1_linear_3063_11132)" stroke-width="2" stroke-linecap="round" stroke-linejoin="round"/>
<defs>
<linearGradient id="paint0_linear_3063_11132" x1="7.40506" y1="4.71242" x2="13.192" y2="4.85329" gradientUnits="userSpaceOnUse">
<stop stop-color="#FF00B8"/>
<stop offset="1" stop-color="#CC00FF"/>
</linearGradient>
<linearGradient id="paint1_linear_3063_11132" x1="4.26168" y1="12.6101" x2="18.7139" y2="13.1965" gradientUnits="userSpaceOnUse">
<stop stop-color="#FF00B8"/>
<stop offset="1" stop-color="#CC00FF"/>
</linearGradient>
</defs>
</svg>
