<svg width="30" height="30" viewBox="0 0 30 30" fill="none" xmlns="http://www.w3.org/2000/svg">
<path d="M12.5 22.5C14.7187 22.4995 16.8735 21.7568 18.6213 20.39L24.1162 25.885L25.8838 24.1175L20.3888 18.6225C21.7563 16.8746 22.4995 14.7193 22.5 12.5C22.5 6.98625 18.0138 2.5 12.5 2.5C6.98625 2.5 2.5 6.98625 2.5 12.5C2.5 18.0137 6.98625 22.5 12.5 22.5ZM12.5 5C16.6362 5 20 8.36375 20 12.5C20 16.6362 16.6362 20 12.5 20C8.36375 20 5 16.6362 5 12.5C5 8.36375 8.36375 5 12.5 5Z" fill="black" fill-opacity="0.66"/>
<path d="M14.2643 10.7329C14.738 11.2079 14.9993 11.8354 14.9993 12.5004H17.4993C17.5004 11.8434 17.3713 11.1927 17.1194 10.586C16.8675 9.9792 16.4979 9.42838 16.0318 8.96535C14.1393 7.07535 10.858 7.07535 8.9668 8.96535L10.7318 10.7354C11.6818 9.78785 13.3193 9.79035 14.2643 10.7329Z" fill="black" fill-opacity="0.66"/>
</svg>
