<svg width="116" height="154" viewBox="0 0 116 154" fill="none" xmlns="http://www.w3.org/2000/svg">
<path fill-rule="evenodd" clip-rule="evenodd" d="M84.5576 -44L47.8906 48.7892H76.4383L115.238 -44H84.5576Z" fill="#6359CF"/>
<mask id="mask0_3012_12867" style="mask-type:alpha" maskUnits="userSpaceOnUse" x="10" y="43" width="99" height="111">
<path fill-rule="evenodd" clip-rule="evenodd" d="M10.9434 43.0342H108.757V153.475H10.9434V43.0342Z" fill="white"/>
</mask>
<g mask="url(#mask0_3012_12867)">
<path fill-rule="evenodd" clip-rule="evenodd" d="M40.8477 59.2134V51.1356C40.8477 49.8223 41.9137 48.7524 43.2238 48.7524H76.4848C77.7949 48.7524 78.861 49.8223 78.861 51.1356V59.2134C73.0181 56.7393 66.5953 55.3712 59.8543 55.3712C53.1133 55.3712 46.6905 56.7393 40.8477 59.2134ZM84.5595 62.0833V51.136C84.5595 46.6685 80.9352 43.0342 76.4809 43.0342H43.2198C38.7655 43.0342 35.1418 46.6685 35.1418 51.136V62.0833C20.6643 70.6001 10.9434 86.3733 10.9434 104.423C10.9434 131.514 32.8393 153.475 59.8504 153.475C86.8608 153.475 108.757 131.514 108.757 104.423C108.757 86.3733 99.037 70.6001 84.5595 62.0833Z" fill="url(#paint0_linear_3012_12867)"/>
</g>
<path fill-rule="evenodd" clip-rule="evenodd" d="M59.8646 144.572C37.5831 144.572 19.457 126.781 19.457 104.912C19.457 83.0426 37.5831 65.252 59.8646 65.252C82.1461 65.252 100.273 83.0426 100.273 104.912C100.273 126.781 82.1461 144.572 59.8646 144.572Z" fill="url(#paint1_linear_3012_12867)"/>
<path fill-rule="evenodd" clip-rule="evenodd" d="M72.4581 113.086C72.7012 116.541 69.2142 119.038 66.0214 117.695L60.5252 115.383L55.0072 117.645C51.8025 118.958 48.3389 116.43 48.6132 112.977L49.0955 106.906L45.181 102.201C42.9801 99.556 44.3185 95.5192 47.664 94.7127L53.5379 93.2967L56.6815 88.1969C58.5062 85.2368 62.8166 85.2564 64.6143 88.2331L67.7121 93.3626L73.5733 94.8326C76.9113 95.6698 78.2126 99.7185 75.9876 102.344L72.0308 107.012L72.4581 113.086Z" fill="#B8B8B8"/>
<path fill-rule="evenodd" clip-rule="evenodd" d="M0 -44H34.0766L77.8232 50.2858H45.8211L0 -44Z" fill="#6938EF"/>
<defs>
<linearGradient id="paint0_linear_3012_12867" x1="49.4641" y1="28.7674" x2="-9.31664" y2="113.984" gradientUnits="userSpaceOnUse">
<stop stop-color="#B8B8B8"/>
<stop offset="1" stop-color="#747474"/>
</linearGradient>
<linearGradient id="paint1_linear_3012_12867" x1="55.9619" y1="50.6059" x2="8.73833" y2="113.762" gradientUnits="userSpaceOnUse">
<stop stop-color="#F5F5F5"/>
<stop offset="1" stop-color="#B8B8B8"/>
</linearGradient>
</defs>
</svg>
