<svg width="20" height="20" viewBox="0 0 20 20" fill="none" xmlns="http://www.w3.org/2000/svg">
<path d="M17.4993 8.33294C17.7204 8.33294 17.9323 8.24514 18.0886 8.08886C18.2449 7.93258 18.3327 7.72062 18.3327 7.4996V4.9996C18.3327 4.82474 18.2776 4.65433 18.1753 4.51253C18.073 4.37072 17.9286 4.26474 17.7627 4.2096L10.2627 1.7096C10.0917 1.65279 9.90697 1.65279 9.73602 1.7096L2.23602 4.2096C2.07008 4.26474 1.92571 4.37072 1.8234 4.51253C1.72109 4.65433 1.66602 4.82474 1.66602 4.9996V7.4996C1.66602 7.72062 1.75381 7.93258 1.91009 8.08886C2.06637 8.24514 2.27834 8.33294 2.49935 8.33294H3.33268V14.3196C2.84659 14.4908 2.42542 14.8083 2.127 15.2285C1.82858 15.6487 1.66755 16.1509 1.66602 16.6663V18.3329C1.66602 18.5539 1.75381 18.7659 1.91009 18.9222C2.06637 19.0785 2.27834 19.1663 2.49935 19.1663H17.4993C17.7204 19.1663 17.9323 19.0785 18.0886 18.9222C18.2449 18.7659 18.3327 18.5539 18.3327 18.3329V16.6663C18.3312 16.1509 18.1701 15.6487 17.8717 15.2285C17.5733 14.8083 17.1521 14.4908 16.666 14.3196V8.33294H17.4993ZM16.666 17.4996H3.33268V16.6663C3.3329 16.4453 3.42077 16.2335 3.577 16.0773C3.73324 15.921 3.94507 15.8332 4.16602 15.8329H15.8327C16.0536 15.8332 16.2655 15.921 16.4217 16.0773C16.5779 16.2335 16.6658 16.4453 16.666 16.6663V17.4996ZM4.99935 14.1663V8.33294H6.66602V14.1663H4.99935ZM8.33268 14.1663V8.33294H11.666V14.1663H8.33268ZM13.3327 14.1663V8.33294H14.9993V14.1663H13.3327ZM3.33268 6.66627V5.5996L9.99935 3.37794L16.666 5.60044V6.66627H3.33268Z" fill="#FF00B8"/>
</svg>
