<svg width="3969" height="2117" viewBox="0 0 3969 2117" fill="none" xmlns="http://www.w3.org/2000/svg">
<g filter="url(#filter0_d)">
<path d="M1426.25 1218V1078H1533.85V1103.2H1455.25V1135.2H1507.05V1159.6H1455.25V1192.8H1534.65V1218H1426.25ZM1544.1 1218L1601.7 1078H1635.3L1692.1 1218H1660.7L1646.5 1181.2H1588.7L1574.3 1218H1544.1ZM1597.7 1158H1637.7L1617.9 1106.4L1597.7 1158ZM1766.17 1193.2C1773.51 1193.2 1780.37 1191.67 1786.77 1188.6C1793.17 1185.53 1798.84 1181.13 1803.77 1175.4L1822.77 1194.2C1816.11 1202.07 1807.57 1208.33 1797.17 1213C1786.91 1217.67 1776.31 1220 1765.37 1220C1754.84 1220 1744.97 1218.13 1735.77 1214.4C1726.71 1210.67 1718.84 1205.6 1712.17 1199.2C1705.51 1192.8 1700.24 1185.2 1696.37 1176.4C1692.64 1167.6 1690.77 1158.13 1690.77 1148C1690.77 1137.87 1692.71 1128.4 1696.57 1119.6C1700.44 1110.67 1705.71 1103 1712.37 1096.6C1719.04 1090.2 1726.91 1085.13 1735.97 1081.4C1745.17 1077.67 1754.97 1075.8 1765.37 1075.8C1776.57 1075.8 1787.44 1078.2 1797.97 1083C1808.51 1087.67 1817.04 1094 1823.57 1102L1803.97 1121.4C1799.04 1115.27 1793.24 1110.6 1786.57 1107.4C1779.91 1104.07 1772.84 1102.4 1765.37 1102.4C1759.11 1102.4 1753.17 1103.6 1747.57 1106C1742.11 1108.27 1737.37 1111.47 1733.37 1115.6C1729.37 1119.6 1726.24 1124.4 1723.97 1130C1721.71 1135.47 1720.57 1141.47 1720.57 1148C1720.57 1154.4 1721.71 1160.4 1723.97 1166C1726.37 1171.47 1729.57 1176.2 1733.57 1180.2C1737.71 1184.2 1742.51 1187.4 1747.97 1189.8C1753.57 1192.07 1759.64 1193.2 1766.17 1193.2ZM1839.73 1218V1078H1868.73V1134.2H1933.13V1078H1962.13V1218H1933.13V1160.8H1868.73V1218H1839.73ZM2074.21 1078V1218H2046.81V1105.8L2019.41 1117V1093.2L2056.81 1078H2074.21ZM2070.74 1259.8L2155.34 1078H2182.94L2098.34 1259.8H2070.74ZM2193.44 1151.4L2196.84 1078H2287.04V1101H2219.04L2217.64 1133.6C2221.77 1132.13 2225.97 1131.07 2230.24 1130.4C2234.64 1129.73 2239.17 1129.4 2243.84 1129.4C2259.04 1129.4 2271.37 1133.4 2280.84 1141.4C2290.31 1149.27 2295.04 1159.6 2295.04 1172.4C2295.04 1179.47 2293.64 1185.93 2290.84 1191.8C2288.17 1197.67 2284.31 1202.73 2279.24 1207C2274.31 1211.13 2268.31 1214.4 2261.24 1216.8C2254.17 1219.07 2246.44 1220.2 2238.04 1220.2C2228.04 1220.2 2218.57 1218.6 2209.64 1215.4C2200.71 1212.2 2192.77 1207.53 2185.84 1201.4L2202.44 1182.8C2208.57 1187.87 2214.44 1191.53 2220.04 1193.8C2225.77 1195.93 2232.04 1197 2238.84 1197C2247.24 1197 2254.04 1194.87 2259.24 1190.6C2264.44 1186.33 2267.04 1180.73 2267.04 1173.8C2267.04 1167.13 2264.24 1161.73 2258.64 1157.6C2253.04 1153.33 2245.84 1151.2 2237.04 1151.2C2232.91 1151.2 2228.57 1151.73 2224.04 1152.8C2219.64 1153.73 2215.37 1155.07 2211.24 1156.8L2193.44 1151.4ZM1649.91 1340C1649.91 1350 1647.98 1359.47 1644.11 1368.4C1640.25 1377.2 1634.98 1384.87 1628.31 1391.4C1621.78 1397.8 1613.98 1402.87 1604.91 1406.6C1595.85 1410.33 1586.11 1412.2 1575.71 1412.2C1565.45 1412.2 1555.78 1410.33 1546.71 1406.6C1537.65 1402.87 1529.78 1397.8 1523.11 1391.4C1516.58 1384.87 1511.38 1377.2 1507.51 1368.4C1503.65 1359.47 1501.71 1350 1501.71 1340C1501.71 1330 1503.65 1320.6 1507.51 1311.8C1511.38 1302.87 1516.58 1295.2 1523.11 1288.8C1529.78 1282.27 1537.65 1277.13 1546.71 1273.4C1555.78 1269.67 1565.45 1267.8 1575.71 1267.8C1586.11 1267.8 1595.85 1269.67 1604.91 1273.4C1613.98 1277.13 1621.78 1282.27 1628.31 1288.8C1634.98 1295.2 1640.25 1302.87 1644.11 1311.8C1647.98 1320.6 1649.91 1330 1649.91 1340ZM1620.11 1340C1620.11 1333.47 1618.98 1327.47 1616.71 1322C1614.45 1316.4 1611.31 1311.6 1607.31 1307.6C1603.45 1303.47 1598.78 1300.27 1593.31 1298C1587.85 1295.6 1581.98 1294.4 1575.71 1294.4C1569.45 1294.4 1563.58 1295.6 1558.11 1298C1552.78 1300.27 1548.11 1303.47 1544.11 1307.6C1540.25 1311.6 1537.18 1316.4 1534.91 1322C1532.65 1327.47 1531.51 1333.47 1531.51 1340C1531.51 1346.4 1532.65 1352.4 1534.91 1358C1537.18 1363.6 1540.25 1368.47 1544.11 1372.6C1548.11 1376.6 1552.78 1379.8 1558.11 1382.2C1563.58 1384.47 1569.45 1385.6 1575.71 1385.6C1581.98 1385.6 1587.85 1384.47 1593.31 1382.2C1598.78 1379.8 1603.45 1376.6 1607.31 1372.6C1611.31 1368.47 1614.45 1363.6 1616.71 1358C1618.98 1352.4 1620.11 1346.4 1620.11 1340ZM1669.81 1410V1270H1778.01V1295.2H1698.81V1328.2H1751.41V1352.6H1698.81V1410H1669.81ZM1828.78 1295.6V1270H1951.98V1295.6H1904.98V1410H1875.98V1295.6H1828.78ZM1927.5 1410L1985.1 1270H2018.7L2075.5 1410H2044.1L2029.9 1373.2H1972.1L1957.7 1410H1927.5ZM1981.1 1350H2021.1L2001.3 1298.4L1981.1 1350ZM2113.44 1410H2080.04L2133.24 1337.6L2082.84 1270H2117.44L2150.64 1316L2183.64 1270H2217.04L2167.24 1337.6L2221.24 1410H2186.64L2150.04 1359L2113.44 1410Z" fill="white"/>
</g>
<g filter="url(#filter1_d)">
<path d="M58.3688 929V789H73.7688V915.2H157.169V929H58.3688ZM179.072 929V789H194.472V929H179.072ZM362.961 859C362.961 869.533 360.894 879.4 356.761 888.6C352.628 897.8 347.028 905.667 339.961 912.2L354.761 930L338.961 932.2L329.161 920.4C323.694 923.733 317.694 926.4 311.161 928.4C304.628 930.267 297.894 931.2 290.961 931.2C280.961 931.2 271.494 929.333 262.561 925.6C253.761 921.867 246.094 916.8 239.561 910.4C233.161 903.867 228.094 896.2 224.361 887.4C220.628 878.467 218.761 869 218.761 859C218.761 849 220.628 839.6 224.361 830.8C228.094 821.867 233.161 814.2 239.561 807.8C246.094 801.267 253.761 796.133 262.561 792.4C271.494 788.667 280.961 786.8 290.961 786.8C300.961 786.8 310.361 788.667 319.161 792.4C327.961 796.133 335.561 801.267 341.961 807.8C348.494 814.2 353.628 821.867 357.361 830.8C361.094 839.6 362.961 849 362.961 859ZM315.361 883L330.361 901C335.694 895.667 339.828 889.4 342.761 882.2C345.828 875 347.361 867.267 347.361 859C347.361 850.867 345.894 843.267 342.961 836.2C340.028 829 336.028 822.867 330.961 817.8C326.028 812.6 320.094 808.533 313.161 805.6C306.228 802.533 298.828 801 290.961 801C282.961 801 275.494 802.533 268.561 805.6C261.628 808.533 255.628 812.6 250.561 817.8C245.628 822.867 241.694 829 238.761 836.2C235.828 843.267 234.361 850.867 234.361 859C234.361 867.133 235.828 874.733 238.761 881.8C241.694 888.867 245.628 895 250.561 900.2C255.628 905.4 261.628 909.533 268.561 912.6C275.494 915.533 282.961 917 290.961 917C296.294 917 301.361 916.333 306.161 915C310.961 913.667 315.428 911.733 319.561 909.2L299.561 885.4L315.361 883ZM499.88 869.8C499.88 888.467 494.613 903.4 484.08 914.6C473.68 925.667 459.68 931.2 442.08 931.2C424.346 931.2 410.28 925.667 399.88 914.6C389.48 903.533 384.28 888.6 384.28 869.8V789H399.68V869.8C399.68 884.067 403.546 895.533 411.28 904.2C419.013 912.733 429.28 917 442.08 917C454.88 917 465.146 912.733 472.88 904.2C480.613 895.533 484.48 884.067 484.48 869.8V789H499.88V869.8ZM527.9 929V789H543.3V929H527.9ZM574.189 929V789H620.389C630.922 789 640.722 790.8 649.789 794.4C658.856 797.867 666.656 802.667 673.189 808.8C679.722 814.933 684.789 822.333 688.389 831C692.122 839.533 693.989 848.867 693.989 859C693.989 869.133 692.122 878.533 688.389 887.2C684.789 895.733 679.722 903.067 673.189 909.2C666.789 915.333 659.056 920.2 649.989 923.8C640.922 927.267 631.056 929 620.389 929H574.189ZM621.189 803H589.589V915H621.189C629.189 915 636.722 913.6 643.789 910.8C650.856 907.867 656.922 903.933 661.989 899C667.056 893.933 671.056 888 673.989 881.2C676.922 874.267 678.389 866.867 678.389 859C678.389 851.133 676.922 843.8 673.989 837C671.056 830.067 667.056 824.133 661.989 819.2C656.922 814.133 650.856 810.2 643.789 807.4C636.722 804.467 629.189 803 621.189 803ZM718.134 929V789H733.534V929H718.134ZM752.423 802.8V789H869.023V802.8H818.423V929H803.023V802.8H752.423ZM930.614 929V872L875.014 789H893.014L938.814 858.4L984.414 789H1001.81L946.014 872.6V929H930.614ZM15.4 1121V981H76.2C89.8 981 100.733 984.733 109 992.2C117.267 999.533 121.4 1009.27 121.4 1021.4C121.4 1033.53 117.2 1043.33 108.8 1050.8C100.533 1058.27 89.6667 1062 76.2 1062H30.8V1121H15.4ZM75 994.8H30.8V1048.6H75C84.4667 1048.6 92 1046.2 97.6 1041.4C103.2 1036.47 106 1029.87 106 1021.6C106 1013.33 103.2 1006.8 97.6 1002C92 997.2 84.4667 994.8 75 994.8ZM282.492 1051C282.492 1061 280.626 1070.47 276.892 1079.4C273.159 1088.2 268.026 1095.87 261.492 1102.4C255.092 1108.8 247.492 1113.87 238.692 1117.6C229.892 1121.33 220.492 1123.2 210.492 1123.2C200.492 1123.2 191.026 1121.33 182.092 1117.6C173.292 1113.87 165.626 1108.8 159.092 1102.4C152.692 1095.87 147.626 1088.2 143.892 1079.4C140.159 1070.47 138.292 1061 138.292 1051C138.292 1041 140.159 1031.6 143.892 1022.8C147.626 1013.87 152.692 1006.2 159.092 999.8C165.626 993.267 173.292 988.133 182.092 984.4C191.026 980.667 200.492 978.8 210.492 978.8C220.492 978.8 229.892 980.667 238.692 984.4C247.492 988.133 255.092 993.267 261.492 999.8C268.026 1006.2 273.159 1013.87 276.892 1022.8C280.626 1031.6 282.492 1041 282.492 1051ZM266.892 1051C266.892 1042.87 265.426 1035.27 262.492 1028.2C259.559 1021 255.559 1014.87 250.492 1009.8C245.559 1004.6 239.626 1000.53 232.692 997.6C225.759 994.533 218.359 993 210.492 993C202.492 993 195.026 994.533 188.092 997.6C181.159 1000.53 175.159 1004.6 170.092 1009.8C165.159 1014.87 161.226 1021 158.292 1028.2C155.359 1035.27 153.892 1042.87 153.892 1051C153.892 1059.13 155.359 1066.73 158.292 1073.8C161.226 1080.87 165.159 1087 170.092 1092.2C175.159 1097.4 181.159 1101.53 188.092 1104.6C195.026 1107.53 202.492 1109 210.492 1109C218.359 1109 225.759 1107.53 232.692 1104.6C239.626 1101.53 245.559 1097.4 250.492 1092.2C255.559 1087 259.559 1080.87 262.492 1073.8C265.426 1066.73 266.892 1059.13 266.892 1051ZM444.992 1051C444.992 1061 443.126 1070.47 439.392 1079.4C435.659 1088.2 430.526 1095.87 423.992 1102.4C417.592 1108.8 409.992 1113.87 401.192 1117.6C392.392 1121.33 382.992 1123.2 372.992 1123.2C362.992 1123.2 353.526 1121.33 344.592 1117.6C335.792 1113.87 328.126 1108.8 321.592 1102.4C315.192 1095.87 310.126 1088.2 306.392 1079.4C302.659 1070.47 300.792 1061 300.792 1051C300.792 1041 302.659 1031.6 306.392 1022.8C310.126 1013.87 315.192 1006.2 321.592 999.8C328.126 993.267 335.792 988.133 344.592 984.4C353.526 980.667 362.992 978.8 372.992 978.8C382.992 978.8 392.392 980.667 401.192 984.4C409.992 988.133 417.592 993.267 423.992 999.8C430.526 1006.2 435.659 1013.87 439.392 1022.8C443.126 1031.6 444.992 1041 444.992 1051ZM429.392 1051C429.392 1042.87 427.926 1035.27 424.992 1028.2C422.059 1021 418.059 1014.87 412.992 1009.8C408.059 1004.6 402.126 1000.53 395.192 997.6C388.259 994.533 380.859 993 372.992 993C364.992 993 357.526 994.533 350.592 997.6C343.659 1000.53 337.659 1004.6 332.592 1009.8C327.659 1014.87 323.726 1021 320.792 1028.2C317.859 1035.27 316.392 1042.87 316.392 1051C316.392 1059.13 317.859 1066.73 320.792 1073.8C323.726 1080.87 327.659 1087 332.592 1092.2C337.659 1097.4 343.659 1101.53 350.592 1104.6C357.526 1107.53 364.992 1109 372.992 1109C380.859 1109 388.259 1107.53 395.192 1104.6C402.126 1101.53 408.059 1097.4 412.992 1092.2C418.059 1087 422.059 1080.87 424.992 1073.8C427.926 1066.73 429.392 1059.13 429.392 1051ZM469.111 1121V981H484.511V1107.2H567.911V1121H469.111Z" fill="white"/>
</g>
<g filter="url(#filter2_d)">
<path d="M2633.4 439H2690.2C2703.67 439 2714.4 442.267 2722.4 448.8C2730.4 455.333 2734.4 464.067 2734.4 475C2734.4 482.2 2732.47 488.467 2728.6 493.8C2724.87 499.133 2719.67 503.2 2713 506C2721.4 508.533 2728 512.8 2732.8 518.8C2737.73 524.667 2740.2 531.6 2740.2 539.6C2740.2 551.6 2735.8 561.2 2727 568.4C2718.33 575.467 2706.87 579 2692.6 579H2633.4V439ZM2689.4 452.4H2648.8V500H2689.4C2698.47 500 2705.67 497.867 2711 493.6C2716.47 489.2 2719.2 483.4 2719.2 476.2C2719.2 469 2716.47 463.267 2711 459C2705.67 454.6 2698.47 452.4 2689.4 452.4ZM2691.4 565.6C2701.4 565.6 2709.4 563.2 2715.4 558.4C2721.53 553.6 2724.6 547.2 2724.6 539.2C2724.6 531.2 2721.53 524.8 2715.4 520C2709.4 515.2 2701.4 512.8 2691.4 512.8H2648.8V565.6H2691.4ZM2877.65 519.8C2877.65 538.467 2872.38 553.4 2861.85 564.6C2851.45 575.667 2837.45 581.2 2819.85 581.2C2802.11 581.2 2788.05 575.667 2777.65 564.6C2767.25 553.533 2762.05 538.6 2762.05 519.8V439H2777.45V519.8C2777.45 534.067 2781.31 545.533 2789.05 554.2C2796.78 562.733 2807.05 567 2819.85 567C2832.65 567 2842.91 562.733 2850.65 554.2C2858.38 545.533 2862.25 534.067 2862.25 519.8V439H2877.65V519.8ZM2905.67 579V439H2965.67C2979.27 439 2990.27 442.733 2998.67 450.2C3007.07 457.533 3011.27 467.2 3011.27 479.2C3011.27 488.4 3008.53 496.333 3003.07 503C2997.73 509.667 2990.53 514.267 2981.47 516.8L3012.87 579H2995.87L2965.87 518.8H2921.07V579H2905.67ZM2964.67 452.8H2921.07V505.8H2964.67C2974 505.8 2981.53 503.4 2987.27 498.6C2993 493.667 2995.87 487.2 2995.87 479.2C2995.87 471.2 2993 464.8 2987.27 460C2981.53 455.2 2974 452.8 2964.67 452.8ZM3034.57 439H3049.97L3134.17 552.6V439H3148.77V579H3135.17L3049.17 462.4V579H3034.57V439ZM2670.8 771H2655.2L2625 631H2640.6L2664.4 746.6L2699 631H2714L2748.6 746.2L2772.6 631H2787.6L2757.4 771H2741.8L2706.4 652.4L2670.8 771ZM2785.99 771L2844.19 631H2862.79L2920.19 771H2903.39L2885.79 727H2819.79L2801.99 771H2785.99ZM2825.19 713.8H2880.39L2852.99 645.4L2825.19 713.8ZM2936.33 771V631H2951.73V757.2H3035.13V771H2936.33ZM3057.03 771V631H3072.43V757.2H3155.83V771H3057.03ZM3177.74 771V631H3277.94V644.6H3193.14V693.6H3248.54V707H3193.14V757.4H3278.74V771H3177.74ZM3288.98 644.8V631H3405.58V644.8H3354.98V771H3339.58V644.8H3288.98Z" fill="white"/>
</g>
<g filter="url(#filter3_d)">
<path d="M2724.4 1539V1399H2784.4C2798 1399 2809 1402.73 2817.4 1410.2C2825.8 1417.53 2830 1427.2 2830 1439.2C2830 1448.4 2827.27 1456.33 2821.8 1463C2816.47 1469.67 2809.27 1474.27 2800.2 1476.8L2831.6 1539H2814.6L2784.6 1478.8H2739.8V1539H2724.4ZM2783.4 1412.8H2739.8V1465.8H2783.4C2792.73 1465.8 2800.27 1463.4 2806 1458.6C2811.73 1453.67 2814.6 1447.2 2814.6 1439.2C2814.6 1431.2 2811.73 1424.8 2806 1420C2800.27 1415.2 2792.73 1412.8 2783.4 1412.8ZM2853.31 1539V1399H2953.51V1412.6H2868.71V1461.6H2924.11V1475H2868.71V1525.4H2954.31V1539H2853.31ZM3013.56 1539H2997.96L2967.76 1399H2983.36L3007.16 1514.6L3041.76 1399H3056.76L3091.36 1514.2L3115.36 1399H3130.36L3100.16 1539H3084.56L3049.16 1420.4L3013.56 1539ZM3128.75 1539L3186.95 1399H3205.55L3262.95 1539H3246.15L3228.55 1495H3162.55L3144.75 1539H3128.75ZM3167.95 1481.8H3223.15L3195.75 1413.4L3167.95 1481.8ZM3279.09 1539V1399H3339.09C3352.69 1399 3363.69 1402.73 3372.09 1410.2C3380.49 1417.53 3384.69 1427.2 3384.69 1439.2C3384.69 1448.4 3381.95 1456.33 3376.49 1463C3371.15 1469.67 3363.95 1474.27 3354.89 1476.8L3386.29 1539H3369.29L3339.29 1478.8H3294.49V1539H3279.09ZM3338.09 1412.8H3294.49V1465.8H3338.09C3347.42 1465.8 3354.95 1463.4 3360.69 1458.6C3366.42 1453.67 3369.29 1447.2 3369.29 1439.2C3369.29 1431.2 3366.42 1424.8 3360.69 1420C3354.95 1415.2 3347.42 1412.8 3338.09 1412.8ZM3407.99 1539V1399H3454.19C3464.73 1399 3474.53 1400.8 3483.59 1404.4C3492.66 1407.87 3500.46 1412.67 3506.99 1418.8C3513.53 1424.93 3518.59 1432.33 3522.19 1441C3525.93 1449.53 3527.79 1458.87 3527.79 1469C3527.79 1479.13 3525.93 1488.53 3522.19 1497.2C3518.59 1505.73 3513.53 1513.07 3506.99 1519.2C3500.59 1525.33 3492.86 1530.2 3483.79 1533.8C3474.73 1537.27 3464.86 1539 3454.19 1539H3407.99ZM3454.99 1413H3423.39V1525H3454.99C3462.99 1525 3470.53 1523.6 3477.59 1520.8C3484.66 1517.87 3490.73 1513.93 3495.79 1509C3500.86 1503.93 3504.86 1498 3507.79 1491.2C3510.73 1484.27 3512.19 1476.87 3512.19 1469C3512.19 1461.13 3510.73 1453.8 3507.79 1447C3504.86 1440.07 3500.86 1434.13 3495.79 1429.2C3490.73 1424.13 3484.66 1420.2 3477.59 1417.4C3470.53 1414.47 3462.99 1413 3454.99 1413ZM2724.4 1731V1591H2785.2C2798.8 1591 2809.73 1594.73 2818 1602.2C2826.27 1609.53 2830.4 1619.27 2830.4 1631.4C2830.4 1643.53 2826.2 1653.33 2817.8 1660.8C2809.53 1668.27 2798.67 1672 2785.2 1672H2739.8V1731H2724.4ZM2784 1604.8H2739.8V1658.6H2784C2793.47 1658.6 2801 1656.2 2806.6 1651.4C2812.2 1646.47 2815 1639.87 2815 1631.6C2815 1623.33 2812.2 1616.8 2806.6 1612C2801 1607.2 2793.47 1604.8 2784 1604.8ZM2991.49 1661C2991.49 1671 2989.63 1680.47 2985.89 1689.4C2982.16 1698.2 2977.03 1705.87 2970.49 1712.4C2964.09 1718.8 2956.49 1723.87 2947.69 1727.6C2938.89 1731.33 2929.49 1733.2 2919.49 1733.2C2909.49 1733.2 2900.03 1731.33 2891.09 1727.6C2882.29 1723.87 2874.63 1718.8 2868.09 1712.4C2861.69 1705.87 2856.63 1698.2 2852.89 1689.4C2849.16 1680.47 2847.29 1671 2847.29 1661C2847.29 1651 2849.16 1641.6 2852.89 1632.8C2856.63 1623.87 2861.69 1616.2 2868.09 1609.8C2874.63 1603.27 2882.29 1598.13 2891.09 1594.4C2900.03 1590.67 2909.49 1588.8 2919.49 1588.8C2929.49 1588.8 2938.89 1590.67 2947.69 1594.4C2956.49 1598.13 2964.09 1603.27 2970.49 1609.8C2977.03 1616.2 2982.16 1623.87 2985.89 1632.8C2989.63 1641.6 2991.49 1651 2991.49 1661ZM2975.89 1661C2975.89 1652.87 2974.43 1645.27 2971.49 1638.2C2968.56 1631 2964.56 1624.87 2959.49 1619.8C2954.56 1614.6 2948.63 1610.53 2941.69 1607.6C2934.76 1604.53 2927.36 1603 2919.49 1603C2911.49 1603 2904.03 1604.53 2897.09 1607.6C2890.16 1610.53 2884.16 1614.6 2879.09 1619.8C2874.16 1624.87 2870.23 1631 2867.29 1638.2C2864.36 1645.27 2862.89 1652.87 2862.89 1661C2862.89 1669.13 2864.36 1676.73 2867.29 1683.8C2870.23 1690.87 2874.16 1697 2879.09 1702.2C2884.16 1707.4 2890.16 1711.53 2897.09 1714.6C2904.03 1717.53 2911.49 1719 2919.49 1719C2927.36 1719 2934.76 1717.53 2941.69 1714.6C2948.63 1711.53 2954.56 1707.4 2959.49 1702.2C2964.56 1697 2968.56 1690.87 2971.49 1683.8C2974.43 1676.73 2975.89 1669.13 2975.89 1661ZM3153.99 1661C3153.99 1671 3152.13 1680.47 3148.39 1689.4C3144.66 1698.2 3139.53 1705.87 3132.99 1712.4C3126.59 1718.8 3118.99 1723.87 3110.19 1727.6C3101.39 1731.33 3091.99 1733.2 3081.99 1733.2C3071.99 1733.2 3062.53 1731.33 3053.59 1727.6C3044.79 1723.87 3037.13 1718.8 3030.59 1712.4C3024.19 1705.87 3019.13 1698.2 3015.39 1689.4C3011.66 1680.47 3009.79 1671 3009.79 1661C3009.79 1651 3011.66 1641.6 3015.39 1632.8C3019.13 1623.87 3024.19 1616.2 3030.59 1609.8C3037.13 1603.27 3044.79 1598.13 3053.59 1594.4C3062.53 1590.67 3071.99 1588.8 3081.99 1588.8C3091.99 1588.8 3101.39 1590.67 3110.19 1594.4C3118.99 1598.13 3126.59 1603.27 3132.99 1609.8C3139.53 1616.2 3144.66 1623.87 3148.39 1632.8C3152.13 1641.6 3153.99 1651 3153.99 1661ZM3138.39 1661C3138.39 1652.87 3136.93 1645.27 3133.99 1638.2C3131.06 1631 3127.06 1624.87 3121.99 1619.8C3117.06 1614.6 3111.13 1610.53 3104.19 1607.6C3097.26 1604.53 3089.86 1603 3081.99 1603C3073.99 1603 3066.53 1604.53 3059.59 1607.6C3052.66 1610.53 3046.66 1614.6 3041.59 1619.8C3036.66 1624.87 3032.73 1631 3029.79 1638.2C3026.86 1645.27 3025.39 1652.87 3025.39 1661C3025.39 1669.13 3026.86 1676.73 3029.79 1683.8C3032.73 1690.87 3036.66 1697 3041.59 1702.2C3046.66 1707.4 3052.66 1711.53 3059.59 1714.6C3066.53 1717.53 3073.99 1719 3081.99 1719C3089.86 1719 3097.26 1717.53 3104.19 1714.6C3111.13 1711.53 3117.06 1707.4 3121.99 1702.2C3127.06 1697 3131.06 1690.87 3133.99 1683.8C3136.93 1676.73 3138.39 1669.13 3138.39 1661ZM3178.11 1731V1591H3193.51V1717.2H3276.91V1731H3178.11Z" fill="white"/>
</g>
<g filter="url(#filter4_d)">
<path d="M669.6 1745L614.8 1632.8V1755H600.4V1615H622L669.8 1714.4L717.4 1615H739V1755H724.4V1632.6L669.6 1745ZM769.736 1755V1615H830.536C844.136 1615 855.069 1618.73 863.336 1626.2C871.603 1633.53 875.736 1643.27 875.736 1655.4C875.736 1667.53 871.536 1677.33 863.136 1684.8C854.869 1692.27 844.003 1696 830.536 1696H785.136V1755H769.736ZM829.336 1628.8H785.136V1682.6H829.336C838.803 1682.6 846.336 1680.2 851.936 1675.4C857.536 1670.47 860.336 1663.87 860.336 1655.6C860.336 1647.33 857.536 1640.8 851.936 1636C846.336 1631.2 838.803 1628.8 829.336 1628.8ZM864.316 1755L922.516 1615H941.116L998.516 1755H981.716L964.116 1711H898.116L880.316 1755H864.316ZM903.516 1697.8H958.716L931.316 1629.4L903.516 1697.8Z" fill="white"/>
</g>
<g filter="url(#filter5_d)">
<path d="M451.4 40.8V27H568V40.8H517.4V167H502V40.8H451.4ZM714.086 97C714.086 107 712.219 116.467 708.486 125.4C704.753 134.2 699.619 141.867 693.086 148.4C686.686 154.8 679.086 159.867 670.286 163.6C661.486 167.333 652.086 169.2 642.086 169.2C632.086 169.2 622.619 167.333 613.686 163.6C604.886 159.867 597.219 154.8 590.686 148.4C584.286 141.867 579.219 134.2 575.486 125.4C571.753 116.467 569.886 107 569.886 97C569.886 87 571.753 77.6 575.486 68.8C579.219 59.8667 584.286 52.2 590.686 45.8C597.219 39.2667 604.886 34.1333 613.686 30.4C622.619 26.6667 632.086 24.8 642.086 24.8C652.086 24.8 661.486 26.6667 670.286 30.4C679.086 34.1333 686.686 39.2667 693.086 45.8C699.619 52.2 704.753 59.8667 708.486 68.8C712.219 77.6 714.086 87 714.086 97ZM698.486 97C698.486 88.8667 697.019 81.2667 694.086 74.2C691.153 67 687.153 60.8667 682.086 55.8C677.153 50.6 671.219 46.5333 664.286 43.6C657.353 40.5333 649.953 39 642.086 39C634.086 39 626.619 40.5333 619.686 43.6C612.753 46.5333 606.753 50.6 601.686 55.8C596.753 60.8667 592.819 67 589.886 74.2C586.953 81.2667 585.486 88.8667 585.486 97C585.486 105.133 586.953 112.733 589.886 119.8C592.819 126.867 596.753 133 601.686 138.2C606.753 143.4 612.753 147.533 619.686 150.6C626.619 153.533 634.086 155 642.086 155C649.953 155 657.353 153.533 664.286 150.6C671.219 147.533 677.153 143.4 682.086 138.2C687.153 133 691.153 126.867 694.086 119.8C697.019 112.733 698.486 105.133 698.486 97ZM738.205 167V27H753.605V93.4L826.005 27H846.205L770.205 95.6L847.805 167H826.205L753.605 99.8V167H738.205ZM861.642 167V27H961.842V40.6H877.042V89.6H932.442V103H877.042V153.4H962.642V167H861.642ZM984.884 27H1000.28L1084.48 140.6V27H1099.08V167H1085.48L999.484 50.4V167H984.884V27ZM463.4 359V219H478.8V281.6H560.2V219H575.6V359H560.2V295.4H478.8V359H463.4ZM743.969 289C743.969 299 742.102 308.467 738.369 317.4C734.635 326.2 729.502 333.867 722.969 340.4C716.569 346.8 708.969 351.867 700.169 355.6C691.369 359.333 681.969 361.2 671.969 361.2C661.969 361.2 652.502 359.333 643.569 355.6C634.769 351.867 627.102 346.8 620.569 340.4C614.169 333.867 609.102 326.2 605.369 317.4C601.635 308.467 599.769 299 599.769 289C599.769 279 601.635 269.6 605.369 260.8C609.102 251.867 614.169 244.2 620.569 237.8C627.102 231.267 634.769 226.133 643.569 222.4C652.502 218.667 661.969 216.8 671.969 216.8C681.969 216.8 691.369 218.667 700.169 222.4C708.969 226.133 716.569 231.267 722.969 237.8C729.502 244.2 734.635 251.867 738.369 260.8C742.102 269.6 743.969 279 743.969 289ZM728.369 289C728.369 280.867 726.902 273.267 723.969 266.2C721.035 259 717.035 252.867 711.969 247.8C707.035 242.6 701.102 238.533 694.169 235.6C687.235 232.533 679.835 231 671.969 231C663.969 231 656.502 232.533 649.569 235.6C642.635 238.533 636.635 242.6 631.569 247.8C626.635 252.867 622.702 259 619.769 266.2C616.835 273.267 615.369 280.867 615.369 289C615.369 297.133 616.835 304.733 619.769 311.8C622.702 318.867 626.635 325 631.569 330.2C636.635 335.4 642.635 339.533 649.569 342.6C656.502 345.533 663.969 347 671.969 347C679.835 347 687.235 345.533 694.169 342.6C701.102 339.533 707.035 335.4 711.969 330.2C717.035 325 721.035 318.867 723.969 311.8C726.902 304.733 728.369 297.133 728.369 289ZM768.088 359V219H783.488V345.2H866.888V359H768.088ZM888.791 359V219H934.991C945.524 219 955.324 220.8 964.391 224.4C973.457 227.867 981.257 232.667 987.791 238.8C994.324 244.933 999.391 252.333 1002.99 261C1006.72 269.533 1008.59 278.867 1008.59 289C1008.59 299.133 1006.72 308.533 1002.99 317.2C999.391 325.733 994.324 333.067 987.791 339.2C981.391 345.333 973.657 350.2 964.591 353.8C955.524 357.267 945.657 359 934.991 359H888.791ZM935.791 233H904.191V345H935.791C943.791 345 951.324 343.6 958.391 340.8C965.457 337.867 971.524 333.933 976.591 329C981.657 323.933 985.657 318 988.591 311.2C991.524 304.267 992.991 296.867 992.991 289C992.991 281.133 991.524 273.8 988.591 267C985.657 260.067 981.657 254.133 976.591 249.2C971.524 244.133 965.457 240.2 958.391 237.4C951.324 234.467 943.791 233 935.791 233ZM1032.74 359V219H1132.94V232.6H1048.14V281.6H1103.54V295H1048.14V345.4H1133.74V359H1032.74ZM1155.98 359V219H1215.98C1229.58 219 1240.58 222.733 1248.98 230.2C1257.38 237.533 1261.58 247.2 1261.58 259.2C1261.58 268.4 1258.84 276.333 1253.38 283C1248.04 289.667 1240.84 294.267 1231.78 296.8L1263.18 359H1246.18L1216.18 298.8H1171.38V359H1155.98ZM1214.98 232.8H1171.38V285.8H1214.98C1224.31 285.8 1231.84 283.4 1237.58 278.6C1243.31 273.667 1246.18 267.2 1246.18 259.2C1246.18 251.2 1243.31 244.8 1237.58 240C1231.84 235.2 1224.31 232.8 1214.98 232.8ZM1272.08 335L1282.28 324.4C1289.48 332 1297.14 337.8 1305.28 341.8C1313.54 345.667 1322.21 347.6 1331.28 347.6C1342.21 347.6 1351.21 345 1358.28 339.8C1365.34 334.6 1368.88 328 1368.88 320C1368.88 312.8 1366.34 307.267 1361.28 303.4C1356.34 299.533 1348.14 296.667 1336.68 294.8L1316.48 291.6C1303.01 289.467 1293.08 285.533 1286.68 279.8C1280.28 273.933 1277.08 266.067 1277.08 256.2C1277.08 244.6 1281.61 235.2 1290.68 228C1299.74 220.8 1311.61 217.2 1326.28 217.2C1336.01 217.2 1345.68 218.8 1355.28 222C1364.88 225.2 1373.61 229.8 1381.48 235.8L1372.67 247.8C1365.08 242.067 1357.34 237.733 1349.48 234.8C1341.61 231.867 1333.68 230.4 1325.68 230.4C1315.68 230.4 1307.54 232.733 1301.28 237.4C1295.14 241.933 1292.08 247.8 1292.08 255C1292.08 261.533 1294.28 266.533 1298.68 270C1303.08 273.467 1310.34 276 1320.48 277.6L1340.48 280.8C1355.68 283.333 1366.74 287.667 1373.68 293.8C1380.74 299.933 1384.28 308.4 1384.28 319.2C1384.28 325.333 1382.94 331 1380.28 336.2C1377.74 341.267 1374.08 345.667 1369.28 349.4C1364.61 353 1358.94 355.867 1352.28 358C1345.74 360 1338.54 361 1330.68 361C1319.61 361 1308.94 358.8 1298.68 354.4C1288.54 349.867 1279.68 343.4 1272.08 335Z" fill="white"/>
</g>
<path d="M1111.29 1706.15C1198.31 1843.5 1321.54 1954.18 1467.4 2026.02C1613.26 2097.87 1776.11 2128.09 1938.04 2113.37L1918.1 1894.03C1796.51 1905.09 1674.23 1882.39 1564.71 1828.45C1455.19 1774.5 1362.67 1691.4 1297.32 1588.27L1111.29 1706.15Z" fill="white"/>
<path d="M1169.16 678.97C1067.25 805.67 1002.27 958.021 981.347 1119.27C960.428 1280.51 984.385 1444.4 1050.58 1592.91L1251.74 1503.24C1202.04 1391.73 1184.05 1268.67 1199.76 1147.6C1215.47 1026.53 1264.26 912.136 1340.78 817.002L1169.16 678.97Z" fill="#9B00FF" fill-opacity="0.5"/>
<path d="M2147.74 397.83C1994.12 344.538 1828.78 334.646 1669.91 369.241C1511.04 403.837 1364.79 481.579 1247.24 593.917L1399.4 753.139C1487.67 668.789 1597.48 610.416 1716.77 584.439C1836.06 558.463 1960.21 565.891 2075.55 605.905L2147.74 397.83Z" fill="#15136F"/>
<path d="M2742 1233C2742 1070.4 2697.16 910.959 2612.4 772.201C2527.64 633.443 2406.26 520.748 2261.6 446.513L2161.05 642.459C2269.67 698.2 2360.81 782.817 2424.45 887.005C2488.09 991.193 2521.76 1110.91 2521.76 1233H2742Z" fill="#FFC700"/>
<path d="M2100.34 2083.13C2256.71 2038.56 2397.75 1951.72 2507.96 1832.18C2618.16 1712.63 2693.27 1565 2725 1405.53L2508.99 1362.55C2485.17 1482.29 2428.78 1593.13 2346.03 1682.9C2263.28 1772.66 2157.37 1837.86 2039.96 1871.33L2100.34 2083.13Z" fill="#FF00B8"/>
<line x1="1532" y1="456.3" x2="778.407" y2="456.3" stroke="white" stroke-width="34"/>
<ellipse cx="778.407" cy="457.5" rx="56.4067" ry="45.5" fill="white"/>
<line x1="1005" y1="1230" x2="164.883" y2="1230" stroke="white" stroke-width="34"/>
<ellipse cx="164.883" cy="1233" rx="62.883" ry="50" fill="white"/>
<line y1="-17" x2="668" y2="-17" transform="matrix(1 -8.74228e-08 -8.74228e-08 -1 2580 817)" stroke="white" stroke-width="34"/>
<circle r="50" transform="matrix(-1 0 0 1 3248 837)" fill="white"/>
<line y1="-17" x2="668" y2="-17" transform="matrix(1 -8.74228e-08 -8.74228e-08 -1 2430 1868)" stroke="white" stroke-width="34"/>
<circle r="50" transform="matrix(-1 0 0 1 3098 1888)" fill="white"/>
<line x1="1390" y1="1891" x2="722" y2="1891" stroke="white" stroke-width="34"/>
<circle cx="722" cy="1894" r="50" fill="white"/>
<defs>
<filter id="filter0_d" x="1416.25" y="1067.8" width="888.788" height="356.4" filterUnits="userSpaceOnUse" color-interpolation-filters="sRGB">
<feFlood flood-opacity="0" result="BackgroundImageFix"/>
<feColorMatrix in="SourceAlpha" type="matrix" values="0 0 0 0 0 0 0 0 0 0 0 0 0 0 0 0 0 0 127 0" result="hardAlpha"/>
<feOffset dy="2"/>
<feGaussianBlur stdDeviation="5"/>
<feColorMatrix type="matrix" values="0 0 0 0 0 0 0 0 0 0 0 0 0 0 0 0 0 0 0.5 0"/>
<feBlend mode="normal" in2="BackgroundImageFix" result="effect1_dropShadow"/>
<feBlend mode="normal" in="SourceGraphic" in2="effect1_dropShadow" result="shape"/>
</filter>
<filter id="filter1_d" x="5.40002" y="778.8" width="1006.41" height="356.4" filterUnits="userSpaceOnUse" color-interpolation-filters="sRGB">
<feFlood flood-opacity="0" result="BackgroundImageFix"/>
<feColorMatrix in="SourceAlpha" type="matrix" values="0 0 0 0 0 0 0 0 0 0 0 0 0 0 0 0 0 0 127 0" result="hardAlpha"/>
<feOffset dy="2"/>
<feGaussianBlur stdDeviation="5"/>
<feColorMatrix type="matrix" values="0 0 0 0 0 0 0 0 0 0 0 0 0 0 0 0 0 0 0.5 0"/>
<feBlend mode="normal" in2="BackgroundImageFix" result="effect1_dropShadow"/>
<feBlend mode="normal" in="SourceGraphic" in2="effect1_dropShadow" result="shape"/>
</filter>
<filter id="filter2_d" x="2615" y="431" width="800.578" height="352" filterUnits="userSpaceOnUse" color-interpolation-filters="sRGB">
<feFlood flood-opacity="0" result="BackgroundImageFix"/>
<feColorMatrix in="SourceAlpha" type="matrix" values="0 0 0 0 0 0 0 0 0 0 0 0 0 0 0 0 0 0 127 0" result="hardAlpha"/>
<feOffset dy="2"/>
<feGaussianBlur stdDeviation="5"/>
<feColorMatrix type="matrix" values="0 0 0 0 0 0 0 0 0 0 0 0 0 0 0 0 0 0 0.5 0"/>
<feBlend mode="normal" in2="BackgroundImageFix" result="effect1_dropShadow"/>
<feBlend mode="normal" in="SourceGraphic" in2="effect1_dropShadow" result="shape"/>
</filter>
<filter id="filter3_d" x="2714.4" y="1391" width="823.394" height="354.2" filterUnits="userSpaceOnUse" color-interpolation-filters="sRGB">
<feFlood flood-opacity="0" result="BackgroundImageFix"/>
<feColorMatrix in="SourceAlpha" type="matrix" values="0 0 0 0 0 0 0 0 0 0 0 0 0 0 0 0 0 0 127 0" result="hardAlpha"/>
<feOffset dy="2"/>
<feGaussianBlur stdDeviation="5"/>
<feColorMatrix type="matrix" values="0 0 0 0 0 0 0 0 0 0 0 0 0 0 0 0 0 0 0.5 0"/>
<feBlend mode="normal" in2="BackgroundImageFix" result="effect1_dropShadow"/>
<feBlend mode="normal" in="SourceGraphic" in2="effect1_dropShadow" result="shape"/>
</filter>
<filter id="filter4_d" x="590.4" y="1607" width="418.116" height="160" filterUnits="userSpaceOnUse" color-interpolation-filters="sRGB">
<feFlood flood-opacity="0" result="BackgroundImageFix"/>
<feColorMatrix in="SourceAlpha" type="matrix" values="0 0 0 0 0 0 0 0 0 0 0 0 0 0 0 0 0 0 127 0" result="hardAlpha"/>
<feOffset dy="2"/>
<feGaussianBlur stdDeviation="5"/>
<feColorMatrix type="matrix" values="0 0 0 0 0 0 0 0 0 0 0 0 0 0 0 0 0 0 0.5 0"/>
<feBlend mode="normal" in2="BackgroundImageFix" result="effect1_dropShadow"/>
<feBlend mode="normal" in="SourceGraphic" in2="effect1_dropShadow" result="shape"/>
</filter>
<filter id="filter5_d" x="441.4" y="16.7998" width="952.875" height="356.4" filterUnits="userSpaceOnUse" color-interpolation-filters="sRGB">
<feFlood flood-opacity="0" result="BackgroundImageFix"/>
<feColorMatrix in="SourceAlpha" type="matrix" values="0 0 0 0 0 0 0 0 0 0 0 0 0 0 0 0 0 0 127 0" result="hardAlpha"/>
<feOffset dy="2"/>
<feGaussianBlur stdDeviation="5"/>
<feColorMatrix type="matrix" values="0 0 0 0 0 0 0 0 0 0 0 0 0 0 0 0 0 0 0.5 0"/>
<feBlend mode="normal" in2="BackgroundImageFix" result="effect1_dropShadow"/>
<feBlend mode="normal" in="SourceGraphic" in2="effect1_dropShadow" result="shape"/>
</filter>
</defs>
</svg>
