<svg width="600" height="600" viewBox="0 0 600 600" fill="none" xmlns="http://www.w3.org/2000/svg">
<g clip-path="url(#clip0)">
<path d="M675 675H-75V-75H675V675Z" fill="url(#paint0_linear)"/>
<path d="M360.996 403.874H308.184V356.576H360.996V403.874ZM414.113 320.069H340.054V380.225H414.113V320.069ZM377.082 441.95H442.881V362.639H377.082V441.95ZM400.757 434.192H334.59V491.191H400.757V434.192ZM580.44 284.416H490.23V387.501H580.44V284.416ZM478.458 331.108H456.605V356.576H478.458V331.108ZM544.531 252.277H456.605V304.426H544.531V252.277ZM442.881 270.468H395.532V335.958H442.881V270.468ZM334.59 275.32H308.184V303.213H334.59V275.32ZM299.325 320.069H258.501V382.71H299.325V320.069ZM347.338 441.95H275.708V521.511H347.338V441.95ZM308.184 576.086H388.617V528.788H308.184V576.086ZM500.311 557.894H443.791V599.129H500.313V557.894H500.311ZM637.361 516.659H585.062V578.511H637.361V516.659ZM551.302 544.718H506.381V585.953H551.302V544.718ZM594.357 463.296H528.843V537.278H594.357V463.296ZM610.791 590.639H528.843V644H610.791V590.639ZM340.054 557.894H251.187V637.937H340.052V557.894H340.054ZM630.216 356.576H569.818V403.874H630.216V356.576ZM594.357 424.49H568.208V451.477H594.357V424.49ZM251.187 474.697H300.975V404.294H251.187V474.697ZM321.764 249.852L232 252.277V320.069H321.764V249.852ZM646 252.277H587.725V326.256H646V252.277ZM371.858 245H347.338V298.361H371.858V245ZM641.143 437.983H581.281V486.494H641.143V437.983Z" fill="url(#paint1_linear)" stroke="#FFC700" stroke-width="1.5"/>
<path d="M115.996 319.874H63.1843V272.576H115.996V319.874ZM169.113 236.069H95.0537V296.225H169.113V236.069ZM132.082 357.95H197.881V278.639H132.082V357.95ZM155.757 350.192H89.5904V407.191H155.757V350.192ZM335.44 200.416H245.23V303.501H335.44V200.416ZM233.458 247.108H211.605V272.576H233.458V247.108ZM299.531 168.277H211.605V220.426H299.531V168.277ZM197.881 186.468H150.532V251.958H197.881V186.468ZM89.5904 191.32H63.1843V219.213H89.5904V191.32ZM54.3246 236.069H13.5008V298.71H54.3246V236.069ZM102.338 357.95H30.7084V437.511H102.338V357.95ZM63.1843 492.086H143.617V444.788H63.1843V492.086ZM255.311 473.894H198.791V515.129H255.313V473.894H255.311ZM392.361 432.659H340.062V494.511H392.361V432.659ZM306.302 460.718H261.381V501.953H306.302V460.718ZM349.357 379.296H283.843V453.278H349.357V379.296ZM365.791 506.639H283.843V560H365.791V506.639ZM95.0537 473.894H6.18721V553.937H95.0519V473.894H95.0537ZM385.216 272.576H324.818V319.874H385.216V272.576ZM349.357 340.49H323.208V367.477H349.357V340.49ZM6.18721 390.697H55.9745V320.294H6.18721V390.697ZM76.7643 165.852L-13 168.277V236.069H76.7643V165.852ZM401 168.277H342.725V242.256H401V168.277ZM126.858 161H102.338V214.361H126.858V161ZM396.143 353.983H336.281V402.494H396.143V353.983Z" fill="url(#paint2_linear)" stroke="#FFC700" stroke-width="1.5"/>
<rect x="504" y="328.706" width="8.86149" height="25.1423" fill="white"/>
<rect x="521.753" y="328.857" width="8.83104" height="25.1423" fill="white"/>
<rect x="512.862" y="320" width="8.89195" height="8.85765" fill="white"/>
<rect x="539.416" y="328.857" width="8.89195" height="25.1423" fill="white"/>
<rect x="530.584" y="320" width="8.83105" height="8.85765" fill="white"/>
<rect x="548.307" y="320" width="8.86149" height="8.85765" fill="white"/>
<rect x="557.169" y="327.792" width="8.83104" height="8.85766" fill="white"/>
<rect x="548.307" y="336.65" width="8.86149" height="8.82721" fill="white"/>
<rect x="40" y="390.425" width="7.57515" height="21.4449" fill="white"/>
<rect x="55.1764" y="390.555" width="7.54912" height="21.4449" fill="white"/>
<rect x="47.5752" y="383" width="7.60118" height="7.55506" fill="white"/>
<rect x="70.2745" y="390.555" width="7.60118" height="21.4449" fill="white"/>
<rect x="62.7255" y="383" width="7.54912" height="7.55506" fill="white"/>
<rect x="77.8757" y="383" width="7.57515" height="7.55506" fill="white"/>
<rect x="85.4509" y="389.646" width="7.54912" height="7.55506" fill="white"/>
<rect x="77.8757" y="397.202" width="7.57515" height="7.52909" fill="white"/>
<path d="M310.095 317.366H307.687V314.958H310.095V317.366Z" fill="#2A232B"/>
<path d="M538.672 556.446C533.384 545.017 518.937 528.08 502.886 523.401C483.045 517.614 438.258 510.618 421.651 506.729C408.339 503.608 381.526 479.531 372.129 471.449C370.444 470.004 369.064 467.021 369.03 464.803C368.695 438.64 379.132 369.14 379.132 369.14H308.89H238.651C238.651 369.14 249.088 438.638 248.748 464.803C248.722 467.021 247.335 470.004 245.654 471.449C236.257 479.531 209.445 503.608 196.132 506.729C179.523 510.618 134.735 517.853 114.897 523.64C98.8415 528.316 84.3996 545.015 79.1113 556.444C70.1817 575.729 68.0721 610.628 68.0721 640.73H308.89H549.709C549.709 610.63 547.597 575.731 538.672 556.446Z" fill="#F0C7B1"/>
<path d="M451.349 518.59C509.969 527.119 534.638 539.56 542.364 640.735H549.709C549.709 610.633 547.597 575.733 538.672 556.449C533.384 545.019 518.937 528.083 502.886 523.404C483.045 517.617 438.258 510.621 421.651 506.732C408.339 503.611 377.721 477.667 369.531 467.358C377.622 478.686 400.334 504.938 420.233 511.813C429.752 515.103 437.68 516.6 451.349 518.59ZM197.551 511.813C217.449 504.94 240.159 478.686 248.252 467.358C240.065 477.665 209.447 503.611 196.132 506.732C179.525 510.621 134.738 517.855 114.897 523.642C98.8463 528.319 84.3997 545.017 79.1113 556.446C70.1866 575.731 68.0746 610.63 68.0746 640.733H75.4195C83.0968 540.205 107.87 527.107 166.434 518.587C180.101 516.6 188.031 515.103 197.551 511.813Z" fill="#FFE4D6"/>
<path d="M298.405 551.249C298.405 551.249 286.186 547.375 281.348 545.52C256.185 535.866 174.437 529.609 174.437 529.609C174.437 529.609 260.539 533.027 279.54 536.302C278.437 524.822 272.274 488.128 272.274 488.128C272.274 488.128 284.674 528.622 287.708 538.838C289.331 544.299 298.405 551.249 298.405 551.249ZM324.411 548.018C324.197 548.193 323.951 548.422 323.684 548.663C323.956 548.458 324.202 548.244 324.411 548.018ZM298.405 551.249C298.405 551.249 305.372 558.455 308.874 558.546C313.473 558.669 320.5 551.565 323.686 548.663C320.64 550.968 313.671 552.013 310.899 552.121C307.696 552.244 298.405 551.249 298.405 551.249ZM349.02 533.142C345.3 533.739 338.458 535.042 338.458 535.042L343.966 499.184C342.41 506.58 333.191 538.223 324.411 548.018C329.011 544.126 339.241 542.26 344.457 541.506C369.107 537.932 369.097 537.934 443.342 529.609C443.342 529.609 373.333 529.236 349.02 533.142Z" fill="#E1AC8F"/>
<path d="M538.672 556.446C533.384 545.017 518.937 528.08 502.886 523.401C483.045 517.614 438.258 510.618 421.651 506.729C408.339 503.608 381.526 479.531 372.129 471.449C370.444 470.004 369.064 467.021 369.03 464.803C368.695 438.64 379.132 369.14 379.132 369.14H308.89H238.651C238.651 369.14 249.088 438.638 248.748 464.803C248.722 467.021 247.335 470.004 245.654 471.449C236.257 479.531 209.445 503.608 196.132 506.729C179.523 510.618 134.735 517.853 114.897 523.64C98.8415 528.316 84.3996 545.015 79.1113 556.444C70.1817 575.729 68.0721 610.628 68.0721 640.73H308.89H549.709C549.709 610.63 547.597 575.731 538.672 556.446Z" stroke="#C27B55" stroke-width="4.5"/>
<path d="M308.941 489.229C328.647 489.229 349.57 477.325 367.217 463.521C367.214 447.382 370.711 417.513 373.603 395.599C336.561 390.187 281.115 390.11 244.125 395.233C246.976 416.81 250.446 446.301 250.557 462.71C268.238 476.95 289.196 489.229 308.941 489.229Z" fill="url(#paint3_linear)"/>
<path d="M544.406 560.704C519.173 511.871 470.588 518.792 424.074 505.694C422.947 514.327 392.163 555.011 384.852 578.086C380.746 574.66 375.845 570.079 372.308 565.887C354.998 545.554 329.343 479.77 320.734 531.141C322.605 508.081 332.782 502.999 346.913 522.33C362.104 543.132 362.668 553.872 384.341 576.492C388.17 560.596 396.459 549.379 406.102 535.303C415.433 521.665 422.249 515.515 423.246 503.375C419.766 497.576 420.599 494.98 414.976 491.223C379.684 467.353 404.881 443.132 372.89 437.364C372.64 440.249 372.325 443.481 372.06 445.911C378.901 449.432 380.948 463.134 370.415 473.167C353.676 491.544 326.779 492.456 319.766 520.663L319.749 520.661C317.517 529.034 315.73 541.851 314.882 549.364L308.97 609.323L303.022 550.426C298.198 506.214 291.894 501.889 271.275 488.227C257.613 479.173 235.289 465.511 242.576 450.065C243.407 448.278 244.419 447.18 245.673 446.354C245.312 442.824 245.1 440.777 244.821 437.497C218.41 438.621 222.47 475.984 202.471 489.73C197.228 493.333 194.555 496.663 192.674 502.082C193.953 517.208 227.602 551.392 233.481 576.492C255.359 553.393 255.528 543.3 270.808 522.407C283.968 504.43 294.716 506.274 296.977 530.602C295.735 523.293 292.792 512.105 286.415 512.105C281.16 512.105 275.684 519.854 272.975 523.594C257.806 544.492 255.369 559.44 232.886 578.098C231.33 573.424 229.505 568.728 227.328 564.357C218.418 546.359 194.29 510.041 191.547 506.52C180.884 509.521 164.631 512.844 154.863 514.467C91.0367 525.09 66.295 545.699 56.8862 642.175C290.966 639.806 386.352 640.836 560.702 640.836C558.523 619.37 554.239 579.763 544.406 560.704Z" fill="#386E77"/>
<path d="M405.143 534.784C396.808 546.955 390.21 557.18 386.099 569.994C390.836 543.555 420.864 518.522 417.613 502.712C416.221 495.94 392.264 480.843 391.024 458.401C397.634 478.962 422.311 493.638 422.352 503.49C422.417 519.61 421.935 510.25 405.143 534.784ZM560.512 638.926C561.348 618.018 554.318 577.315 545.605 560.424C520.372 511.591 469.596 517.821 423.084 504.723C422.672 505.248 424.264 508.72 423.149 510.213C531.876 530.249 544.257 554.131 560.512 638.926ZM202.478 489.732C215.836 478.661 219.841 467.938 222.906 458.399C216.043 497.604 205.782 482.777 198.295 502.411C194.013 513.64 227.2 544.32 231.687 569.992C225.806 559.938 219.501 547.564 211.166 535.393C204.679 525.912 200.546 517.243 194.119 509.946C191.056 493.78 197.382 493.956 202.478 489.732ZM194.117 509.949C193.002 508.455 191.964 507.049 191.552 506.524C145.04 519.62 98.6104 511.591 73.3799 560.426C64.6647 577.317 60.3131 611.872 57.9121 632.826C62.5575 607.364 69.481 575.287 84.313 555.935C109.464 521.818 155.875 515.234 194.117 509.949Z" fill="#4D7E86"/>
<path d="M356.688 488.088C344.977 494.879 335.06 501.545 328.481 510.92C344.296 511.792 355.985 540.056 359.147 543.9C329.447 502.561 318.208 530.655 314.596 556.981C315.636 548.442 316.491 533.872 318.176 527.618C318.668 525.131 319.195 522.751 319.751 520.661L319.768 520.663C326.781 492.456 353.678 491.544 370.417 473.167C380.951 463.134 378.901 449.432 372.062 445.911C372.324 443.481 372.642 440.249 372.893 437.364C374.648 437.685 376.214 438.067 377.666 438.494C399.241 457.473 371.407 481.501 356.688 488.088ZM258.234 488.088C269.948 494.879 284.272 502.927 290.832 511.488C279.277 509.386 266.434 526.645 260.012 541.896C287.706 506.575 296.134 526.645 304.965 556.984C303.927 548.447 301.295 533.875 299.609 527.621C299.118 525.133 298.593 522.754 298.034 520.663L298.02 520.666C291.007 492.459 265.071 491.546 248.332 473.169C237.799 463.137 239.61 449.434 246.451 445.913C246.189 443.483 245.873 440.252 245.623 437.367C243.867 437.687 242.302 438.07 240.85 438.496C222.769 460.574 245.006 480.064 258.234 488.088Z" fill="#265E68"/>
<path d="M371.205 468.656C371.279 454.927 370.822 462.544 372.211 447.006C377.567 449.879 378.249 461.672 371.205 468.656ZM246.612 467.358C241.018 460.037 240.327 452.56 245.777 446.913C247.082 459.093 246.42 457.624 246.612 467.358Z" fill="#184F58"/>
<path d="M423.578 501.388C423.082 492.858 404.763 485.744 396.635 467.252C390.815 454.079 396.339 438.994 372.397 436.569C371.084 444.244 369.921 461.116 370.27 469.27C358.138 482.33 339.371 485.708 327.441 499.75C314.706 514.739 309.187 547.192 308.977 614.541L311.944 612.612C311.944 612.612 315.248 548.832 315.272 548.644C322.699 485.003 346.309 500.035 370.61 473.357C381.497 462.924 378.896 449.102 372.349 445.752C372.633 443.055 372.898 440.384 373.131 437.684C393.726 441.468 387.843 453.59 394.285 468.396C402.848 488.08 419.082 492.379 420.129 501.925C421.791 517.051 412.765 523.471 403.713 536.685C389.473 557.296 386.181 567.811 384.204 575.957C362.591 553.258 362.579 543.307 347.123 522.163C330.641 499.608 319.816 510.185 315.272 548.644C315.739 542.322 324.351 507.283 334.641 513.361C346.535 520.292 358.22 549.744 372.115 566.067C375.821 570.457 380.594 574.862 384.987 578.546C393.191 549.896 423.518 519.63 424.5 505.807C471.929 519.187 553.191 505.458 560.42 640.576C461.353 641.106 353.762 638.934 57.1824 641.91C61.481 597.511 68.7513 553.992 95.0463 534.378C106.329 525.932 119.41 521.516 132.884 518.705C151.66 514.814 172.672 512.312 191.289 507.274C193.187 509.682 225.498 558.322 232.768 578.549C258.928 558.072 269.389 519.647 283.792 513.012C293.82 508.405 301.996 541.761 302.463 548.059C298.538 507.382 285.726 494.072 261.466 536.203C249.512 556.971 246.343 562.602 233.628 575.962C228.522 554.303 192.941 513.46 194.487 502.123C196.014 490.934 209.693 494.024 218.805 470.229C223.915 456.887 222.784 442.178 244.592 437.826C244.828 440.637 245.115 443.413 245.401 446.221C239.431 450.149 237.914 463.346 247.453 472.572C256.043 482.409 271.544 488.023 281.782 495.873C293.849 505.186 298.622 514.722 302.463 548.059C302.547 548.786 305.762 612.94 305.762 612.94L308.972 614.546C307.366 547.519 300.941 507.218 287.971 495.924C276.768 485.93 257.206 479.558 247.713 468.401C248.002 460.03 246.352 443.071 245.322 436.683C223.626 438.893 223.012 452.668 218.36 464.695C205.921 496.846 193.955 487.637 191.973 500.959C191.788 502.204 192.074 503.141 192.375 504.798C174.121 508.526 151.34 510.97 133.035 514.318C105.719 519.305 79.947 533.723 68.195 561.162C59.2679 581.985 56.6815 619.081 56.0265 641.939C56 642.103 56 642.293 56 642.457C56.366 642.486 56.7562 642.486 57.1222 642.486C371.33 645.826 559.106 641.094 561.718 641.094C562.638 512.593 492.399 518.214 423.578 501.388ZM371.445 467.936C371.484 460.873 371.698 452.695 372.211 447.006C376.06 449.752 379.048 458.876 371.445 467.936ZM246.49 466.898C240.103 458.539 242.637 450.436 245.536 447.633C246.141 453.282 246.379 461.193 246.49 466.898Z" fill="#0C4049"/>
<path d="M178.056 278.46C174.48 272.531 162.82 256.307 153.9 258.583C146.646 260.442 146.74 270.554 146.179 276.536C145.36 285.311 145.062 300.598 147.444 306.802C149.734 312.757 156.98 324.266 161.478 328.656C167.015 334.039 175.855 351.192 176.944 352.972C178.656 355.784 182.09 359.811 187.359 359.493C194.755 359.048 201.144 352.059 201.724 348.692C204.857 330.414 187.364 293.887 178.056 278.46Z" fill="#F0C7B1" stroke="#C27B55" stroke-width="4.5"/>
<path d="M174.514 314.576C174.17 313.22 174.531 310.932 174.885 308.726C175.205 306.715 175.506 304.815 175.323 303.472C174.627 298.438 170.711 288.878 168.156 283.696C165.211 277.733 160.453 270.222 154.48 268.286C152.014 267.484 150.389 268.442 149.45 269.413C148.756 270.125 148.599 270.966 148.826 271.067C149.055 271.166 149.565 270.47 150.312 269.817C150.923 269.283 149.088 269.721 150.312 269.817C149.818 272.322 148.229 284.994 149.324 294.243C150.186 301.521 151.853 306.956 152.366 307.77C152.441 308.627 152.566 309.468 152.751 310.282C155.164 320.902 170.856 334.79 174.507 338.747C175.181 339.476 175.889 339.91 176.062 339.732C176.236 339.553 175.819 338.833 175.15 338.099C171.542 334.169 155.954 320.324 153.623 310.08C151.15 299.209 163.044 283.091 164.939 279.681C165.905 281.283 166.726 282.819 167.357 284.1C167.855 285.104 168.402 286.282 168.97 287.556C167.855 289.333 156.645 302.311 159.496 312.7C160.551 316.531 168.701 321.47 171.853 322.821C173.587 323.568 174.237 324.68 174.993 325.966C175.87 327.469 175.073 331.334 177.955 332.562C178.543 332.813 179.073 332.914 179.542 332.914C180.356 332.914 180.973 332.601 181.428 332.23C181.476 332.883 181.474 333.721 181.449 334.496C181.421 335.503 181.563 335.963 181.806 335.982C182.054 336.004 182.312 335.563 182.343 334.568C182.384 333.34 182.377 331.821 182.157 331.091C181.51 328.95 179.537 326.53 177.445 323.97C175.388 321.453 175.049 316.676 174.514 314.576ZM152.284 305.162C146.63 288.49 155.374 273.304 156.643 271.016C159.08 271.977 162.813 276.298 164.4 278.807C163.244 280.813 152.52 293.947 152.284 305.162ZM178.3 331.729C175.689 330.617 176.599 326.951 175.757 325.506C174.991 324.201 174.201 322.853 172.195 321.99C171.761 321.803 171.282 321.518 170.791 321.191C164.332 306.561 171.496 300.168 173.293 298.86C173.844 300.647 174.254 302.287 174.439 303.604C174.603 304.808 174.297 306.73 174.003 308.584C173.635 310.884 173.257 313.266 173.649 314.807C174.237 317.102 174.639 321.959 176.758 324.555C178.639 326.857 180.57 329.232 181.23 331.168C180.946 331.553 180.053 332.478 178.3 331.729Z" fill="#C27B55"/>
<path d="M439.091 278.46C442.67 272.531 454.33 256.307 463.248 258.583C470.501 260.442 470.407 270.554 470.971 276.536C471.79 285.311 472.086 300.598 469.707 306.802C467.416 312.757 460.168 324.266 455.672 328.656C450.135 334.039 441.292 351.192 440.206 352.972C438.494 355.784 435.06 359.811 429.789 359.493C422.395 359.048 416.007 352.059 415.424 348.692C412.293 330.414 429.789 293.887 439.091 278.46Z" fill="#F0C7B1" stroke="#C27B55" stroke-width="4.5"/>
<path d="M439.708 323.972C437.615 326.532 435.643 328.952 434.995 331.093C434.774 331.825 434.769 333.345 434.807 334.57C434.841 335.565 435.099 336.006 435.349 335.984C435.595 335.965 435.734 335.505 435.706 334.498C435.681 333.723 435.677 332.885 435.725 332.232C436.18 332.603 436.796 332.916 437.61 332.916C438.08 332.916 438.612 332.815 439.2 332.564C442.078 331.334 441.283 327.469 442.159 325.968C442.916 324.682 443.566 323.567 445.302 322.823C448.454 321.472 456.604 316.535 457.658 312.702C460.51 302.313 449.3 289.333 448.185 287.558C448.748 286.284 449.3 285.106 449.793 284.102C450.429 282.821 451.248 281.282 452.216 279.683C454.111 283.093 466.003 299.209 463.532 310.082C461.199 320.326 445.613 334.171 442.005 338.101C441.333 338.835 440.914 339.555 441.088 339.733C441.266 339.912 441.972 339.478 442.643 338.749C446.294 334.792 461.984 320.904 464.397 310.284C464.584 309.47 464.712 308.629 464.787 307.772C465.295 306.961 466.964 301.525 467.826 294.245C468.922 284.995 467.332 272.324 466.838 269.819C468.062 269.723 466.227 269.284 466.838 269.819C467.587 270.472 468.098 271.168 468.324 271.069C468.551 270.968 468.394 270.13 467.703 269.415C466.761 268.444 465.136 267.486 462.67 268.288C456.698 270.224 451.937 277.735 448.991 283.697C446.436 288.88 442.523 298.44 441.827 303.473C441.644 304.817 441.945 306.717 442.265 308.728C442.617 310.934 442.981 313.222 442.636 314.578C442.102 316.675 441.764 321.453 439.708 323.972ZM452.751 278.806C454.34 276.297 458.07 271.979 460.507 271.016C461.776 273.304 470.521 288.49 464.869 305.162C464.633 293.947 453.909 280.812 452.751 278.806ZM435.922 331.163C436.58 329.227 438.513 326.852 440.394 324.55C442.511 321.954 442.916 317.097 443.503 314.802C443.893 313.26 443.518 310.879 443.152 308.579C442.855 306.725 442.55 304.803 442.713 303.599C442.896 302.281 443.306 300.641 443.857 298.855C445.654 300.162 452.818 306.558 446.359 321.186C445.87 321.513 445.391 321.797 444.953 321.985C442.949 322.847 442.159 324.196 441.391 325.501C440.548 326.946 441.461 330.614 438.851 331.724C437.097 332.478 436.204 331.553 435.922 331.163Z" fill="#C27B55"/>
<path d="M450.456 263.197H450.444C450.42 263.307 421.071 360.174 412.204 389.429C410.482 395.107 407.554 400.388 403.641 404.807C388.288 422.132 346.403 465.149 308.941 465.149C270.774 465.149 228.048 419.285 213.317 402.021C209.844 397.956 207.28 393.272 205.678 388.138C196.992 360.321 166.844 263.76 166.817 263.649H166.815C163.689 251.628 162.013 239.011 161.994 226C161.869 144.064 227.386 77.5595 308.344 77.4318C389.309 77.3042 455.034 143.599 455.156 225.533C455.178 238.544 453.545 251.165 450.456 263.197Z" fill="#F0C7B1"/>
<path d="M386.357 100.052C420.818 126.867 443.361 170.99 443.429 220.962C443.45 233.976 441.948 246.597 439.103 258.628H439.094C439.072 258.739 412.067 355.606 403.915 384.858C402.33 390.537 399.638 395.818 396.038 400.234C381.914 417.561 343.381 460.581 308.915 460.581C273.799 460.581 234.492 414.712 220.941 397.451C217.746 393.383 215.388 388.702 213.914 383.57C205.924 355.75 178.186 259.189 178.162 259.079H178.16C175.285 247.057 173.743 234.441 173.724 221.429C173.654 171.274 196.236 126.934 230.829 100.028C189.425 126.299 161.912 172.895 161.994 226C162.013 239.011 163.689 251.63 166.815 263.649H166.817C166.842 263.76 196.992 360.321 205.678 388.138C207.282 393.272 209.844 397.954 213.317 402.021C228.045 419.285 270.771 465.149 308.941 465.149C346.405 465.149 388.288 422.134 403.641 404.807C407.554 400.388 410.482 395.11 412.204 389.429C421.071 360.174 450.419 263.307 450.444 263.197H450.456C453.545 251.163 455.178 238.544 455.156 225.53C455.077 172.608 427.607 126.241 386.357 100.052Z" fill="#E8B9A0"/>
<path d="M450.456 263.197H450.444C450.42 263.307 421.071 360.174 412.204 389.429C410.482 395.107 407.554 400.388 403.641 404.807C388.288 422.132 346.403 465.149 308.941 465.149C270.774 465.149 228.048 419.285 213.317 402.021C209.844 397.956 207.28 393.272 205.678 388.138C196.992 360.321 166.844 263.76 166.817 263.649H166.815C163.689 251.628 162.013 239.011 161.994 226C161.869 144.064 227.386 77.5595 308.344 77.4318C389.309 77.3042 455.034 143.599 455.156 225.533C455.178 238.544 453.545 251.165 450.456 263.197Z" stroke="#C27B55" stroke-width="4.5"/>
<path d="M299.805 410.652L319.785 410.154C317.471 420.918 301.387 419.372 299.805 410.652Z" fill="url(#paint4_linear)"/>
<path d="M300.084 411.334C299.19 411.213 299.325 409.939 300.276 410.028C300.38 410.043 310.651 411.343 319.248 409.511C320.178 409.33 320.452 410.606 319.561 410.797C312.826 412.237 304.11 411.9 300.084 411.334ZM309.09 402.736C305.471 402.736 301.962 401.482 298.437 400.868C294.487 400.177 290.552 400.769 286.6 401.118C282.564 401.477 273.758 401.087 271.272 399.514C269.88 398.631 270.14 396.574 271.708 396.025C273.187 395.495 275.491 396.593 276.985 396.861C283.901 398.101 287.542 396.779 293.606 396.576C302.88 396.297 303.865 400.191 315.434 397.853C327.872 395.339 333.473 397.241 342.398 394.553C343.621 394.183 345.076 393.205 346.359 393.865C347.84 394.631 347.768 396.718 346.241 397.39C338.039 401.007 328.965 399.546 319.86 401.065C316.291 401.658 312.734 402.736 309.09 402.736Z" fill="#C27B55"/>
<path d="M268.122 289.973C260.192 288.085 256.156 292.524 244.5 292.781C225.098 293.208 220.568 291.293 217.531 286.428C216.272 284.413 215.068 281.786 214.487 280.165L214.246 270.173C217.445 260.663 261.305 259.693 276.618 274.469C277.31 276.073 277.661 277.569 277.738 278.966C277.281 281.273 276.505 283.488 275.458 285.586C273.757 287.536 271.214 289.02 268.122 289.973Z" fill="url(#paint5_radial)"/>
<path d="M261.329 278.233C261.329 286.212 254.858 292.682 246.88 292.682C238.902 292.682 232.431 286.212 232.431 278.233C232.431 270.253 238.902 263.784 246.88 263.784C254.858 263.782 261.329 270.253 261.329 278.233Z" fill="#4E60A3"/>
<path opacity="0.7" d="M245.262 263.943C245.206 263.95 245.148 263.957 245.091 263.965C245.16 264.29 245.228 264.617 245.295 264.942C245.281 264.612 245.274 264.275 245.262 263.943ZM245.293 264.94C245.461 269.689 245.738 273.92 246.538 275.449C246.959 273.773 246.242 269.597 245.293 264.94ZM246.54 275.452C246.437 275.854 246.28 276.128 246.039 276.22C245.799 276.311 245.495 276.205 245.153 275.972C245.252 276.374 245.242 276.687 245.067 276.882C244.893 277.077 244.583 277.125 244.168 277.07C244.44 277.383 244.58 277.67 244.52 277.92C244.455 278.17 244.197 278.358 243.814 278.503C244.197 278.654 244.455 278.842 244.515 279.093C244.575 279.343 244.436 279.63 244.166 279.94C244.575 279.89 244.891 279.943 245.059 280.138C245.23 280.333 245.24 280.648 245.144 281.051C245.483 280.817 245.782 280.716 246.023 280.81C246.266 280.901 246.422 281.176 246.519 281.58C246.714 281.214 246.93 280.981 247.193 280.954C247.443 280.921 247.713 281.096 247.985 281.407C247.988 280.993 248.074 280.687 248.291 280.54C248.503 280.393 248.818 280.422 249.204 280.571C249.016 280.205 248.951 279.895 249.071 279.663C249.192 279.435 249.488 279.312 249.9 279.264C249.56 279.025 249.353 278.782 249.358 278.522C249.358 278.262 249.56 278.019 249.905 277.785C249.495 277.735 249.204 277.612 249.081 277.383C248.963 277.154 249.028 276.841 249.221 276.475C248.831 276.62 248.517 276.648 248.306 276.502C248.091 276.355 248.005 276.049 248.005 275.635C247.735 275.943 247.465 276.114 247.21 276.08C246.95 276.046 246.731 275.82 246.54 275.452ZM248.002 275.632C249.156 274.344 250.461 270.313 251.783 265.749C249.726 270.028 248.005 273.903 248.002 275.632ZM251.781 265.749C251.925 265.455 252.072 265.157 252.209 264.858C252.159 264.841 252.108 264.817 252.058 264.795C251.966 265.116 251.874 265.436 251.781 265.749ZM249.221 276.475C250.839 275.868 253.871 272.904 257.16 269.479C253.353 272.311 250.025 274.943 249.221 276.475ZM257.16 269.479C257.401 269.299 257.649 269.118 257.895 268.937C257.861 268.894 257.823 268.858 257.794 268.819C257.584 269.036 257.375 269.26 257.16 269.479ZM249.9 277.785C251.617 277.997 255.679 276.781 260.188 275.278C255.496 276.02 251.33 276.803 249.9 277.785ZM260.188 275.281C260.452 275.242 260.729 275.199 260.999 275.155C260.989 275.11 260.977 275.064 260.965 275.018C260.708 275.105 260.443 275.194 260.188 275.281ZM249.897 279.261C251.318 280.253 255.48 281.06 260.161 281.821C255.67 280.297 251.617 279.057 249.897 279.261ZM260.163 281.821C260.392 281.901 260.623 281.983 260.85 282.057C260.862 282.016 260.871 281.978 260.879 281.937C260.645 281.901 260.402 281.862 260.163 281.821ZM249.204 280.569C250.006 282.103 253.317 284.754 257.107 287.61C253.835 284.167 250.825 281.185 249.204 280.569ZM257.11 287.606C257.252 287.755 257.399 287.909 257.541 288.061C257.565 288.032 257.587 288.01 257.613 287.984C257.445 287.859 257.271 287.731 257.11 287.606ZM247.988 281.405C247.98 283.136 249.681 287.018 251.713 291.309C250.415 286.741 249.136 282.7 247.988 281.405ZM251.713 291.312C251.764 291.492 251.817 291.678 251.865 291.863C251.901 291.849 251.925 291.839 251.959 291.83C251.879 291.656 251.795 291.478 251.713 291.312ZM246.521 281.578C245.712 283.112 245.411 287.334 245.216 292.08C246.189 287.432 246.933 283.259 246.521 281.578ZM245.216 292.08C245.175 292.261 245.141 292.444 245.103 292.629C245.136 292.636 245.163 292.636 245.197 292.641C245.201 292.456 245.211 292.263 245.216 292.08ZM245.146 281.048C243.711 282.028 241.483 285.633 239.106 289.742C242.126 286.081 244.727 282.729 245.146 281.048ZM239.106 289.742C238.979 289.893 238.846 290.055 238.716 290.207C238.747 290.226 238.774 290.24 238.808 290.264C238.904 290.091 239.008 289.915 239.106 289.742ZM244.171 279.943C242.446 280.143 238.798 282.298 234.784 284.829C239.162 282.994 243.015 281.238 244.171 279.943ZM234.781 284.834C234.574 284.921 234.362 285.007 234.148 285.099C234.162 285.13 234.184 285.164 234.203 285.195C234.398 285.077 234.591 284.954 234.781 284.834ZM243.817 278.505C242.201 277.886 237.967 278.101 233.233 278.479C237.962 278.883 242.196 279.117 243.817 278.505ZM233.233 278.479C232.975 278.455 232.71 278.43 232.455 278.409C232.455 278.455 232.45 278.5 232.455 278.544C232.717 278.52 232.98 278.498 233.233 278.479ZM244.171 277.075C243.032 275.777 239.188 273.999 234.825 272.136C238.82 274.688 242.456 276.865 244.171 277.075ZM234.825 272.136C234.574 271.974 234.321 271.813 234.066 271.651C234.044 271.697 234.02 271.743 233.996 271.784C234.275 271.902 234.555 272.018 234.825 272.136ZM245.156 275.972C244.749 274.291 242.167 270.929 239.171 267.247C241.522 271.37 243.73 274.984 245.156 275.972ZM239.171 267.247C239.01 266.97 238.853 266.688 238.692 266.406C238.646 266.438 238.598 266.469 238.557 266.5C238.76 266.748 238.971 266.999 239.171 267.247Z" fill="url(#paint6_radial)"/>
<path opacity="0.4" d="M249.014 263.991C248.956 263.984 248.9 263.975 248.845 263.967C248.828 264.3 248.806 264.634 248.787 264.964C248.859 264.642 248.939 264.314 249.014 263.991ZM248.785 264.962C247.72 269.59 246.89 273.749 247.27 275.437C248.11 273.925 248.496 269.706 248.785 264.962ZM247.268 275.437C247.065 275.799 246.844 276.023 246.586 276.049C246.331 276.073 246.066 275.895 245.799 275.58C245.789 275.991 245.697 276.295 245.478 276.437C245.262 276.579 244.946 276.545 244.563 276.386C244.746 276.76 244.806 277.073 244.681 277.297C244.554 277.523 244.257 277.639 243.85 277.677C244.18 277.92 244.38 278.168 244.373 278.428C244.368 278.686 244.159 278.927 243.817 279.156C244.224 279.214 244.515 279.346 244.628 279.575C244.744 279.806 244.672 280.117 244.474 280.478C244.862 280.341 245.177 280.321 245.387 280.473C245.596 280.625 245.676 280.931 245.666 281.347C245.948 281.046 246.218 280.875 246.478 280.916C246.731 280.95 246.945 281.188 247.128 281.561C247.236 281.159 247.4 280.89 247.648 280.803C247.891 280.716 248.19 280.827 248.522 281.07C248.436 280.668 248.452 280.35 248.628 280.16C248.804 279.97 249.122 279.929 249.534 279.987C249.266 279.669 249.129 279.382 249.201 279.132C249.269 278.881 249.529 278.698 249.921 278.561C249.536 278.407 249.288 278.212 249.228 277.959C249.172 277.706 249.317 277.422 249.599 277.118C249.185 277.157 248.874 277.104 248.708 276.906C248.539 276.709 248.534 276.391 248.64 275.994C248.298 276.22 247.995 276.316 247.756 276.218C247.508 276.119 247.359 275.842 247.268 275.437ZM248.635 275.994C250.083 275.045 252.385 271.488 254.844 267.425C251.749 271.026 249.086 274.32 248.635 275.994ZM254.844 267.423C255.058 267.177 255.277 266.927 255.489 266.674C255.443 266.643 255.402 266.607 255.357 266.573C255.186 266.86 255.015 267.146 254.844 267.423ZM249.594 277.121C251.316 276.952 255.012 274.872 259.075 272.418C254.661 274.168 250.767 275.849 249.594 277.121ZM259.073 272.415C259.354 272.304 259.638 272.194 259.925 272.083C259.901 272.032 259.874 271.987 259.858 271.941C259.597 272.1 259.337 272.261 259.073 272.415ZM249.912 278.563C251.516 279.214 255.754 279.088 260.496 278.807C255.773 278.306 251.547 277.983 249.912 278.563ZM260.496 278.804C260.765 278.835 261.04 278.864 261.312 278.893C261.312 278.845 261.315 278.799 261.317 278.754C261.042 278.77 260.765 278.787 260.496 278.804ZM249.529 279.989C250.641 281.316 254.456 283.17 258.781 285.116C254.834 282.479 251.241 280.235 249.529 279.989ZM258.779 285.116C258.979 285.253 259.181 285.39 259.381 285.521C259.402 285.484 259.422 285.448 259.441 285.412C259.224 285.318 258.998 285.217 258.779 285.116ZM248.517 281.073C248.893 282.761 251.407 286.178 254.331 289.92C252.06 285.744 249.924 282.084 248.517 281.073ZM254.331 289.913C254.432 290.094 254.531 290.282 254.632 290.465C254.661 290.443 254.69 290.426 254.721 290.407C254.591 290.243 254.458 290.074 254.331 289.913ZM247.128 281.564C246.675 283.233 247.311 287.423 248.163 292.095C248.089 287.346 247.901 283.112 247.128 281.564ZM248.161 292.095C248.163 292.283 248.168 292.475 248.168 292.668C248.202 292.663 248.233 292.658 248.267 292.658C248.233 292.473 248.197 292.28 248.161 292.095ZM245.666 281.35C244.486 282.621 243.104 286.621 241.688 291.156C243.829 286.92 245.63 283.081 245.666 281.35ZM241.685 291.156C241.601 291.319 241.517 291.488 241.435 291.657C241.464 291.671 241.49 291.678 241.522 291.693C241.575 291.517 241.632 291.331 241.685 291.156ZM244.472 280.483C242.834 281.058 239.747 283.965 236.387 287.317C240.257 284.562 243.634 281.997 244.472 280.483ZM236.39 287.317C236.228 287.43 236.06 287.553 235.896 287.666C235.92 287.693 235.944 287.714 235.966 287.743C236.103 287.601 236.248 287.462 236.39 287.317ZM243.817 279.161C242.1 278.91 238.02 280.047 233.483 281.453C238.191 280.813 242.365 280.114 243.817 279.161ZM233.483 281.458C233.262 281.489 233.033 281.516 232.802 281.552C232.809 281.588 232.821 281.624 232.833 281.658C233.052 281.595 233.269 281.523 233.483 281.458ZM243.848 277.684C242.446 276.666 238.302 275.777 233.632 274.917C238.097 276.533 242.124 277.855 243.848 277.684ZM233.632 274.917C233.389 274.828 233.139 274.737 232.898 274.648C232.886 274.693 232.871 274.737 232.862 274.778C233.124 274.823 233.382 274.872 233.632 274.917ZM244.563 276.391C243.797 274.843 240.546 272.131 236.811 269.2C240.009 272.704 242.959 275.748 244.563 276.391ZM236.809 269.203C236.609 268.984 236.407 268.762 236.204 268.54C236.171 268.579 236.135 268.615 236.103 268.651C236.342 268.834 236.58 269.017 236.809 269.203ZM245.799 275.582C245.84 273.853 244.219 269.937 242.273 265.607C243.477 270.197 244.676 274.26 245.799 275.582ZM242.273 265.607C242.191 265.299 242.112 264.984 242.03 264.67C241.979 264.687 241.926 264.707 241.878 264.726C242.008 265.02 242.143 265.316 242.273 265.607Z" fill="url(#paint7_radial)"/>
<path d="M252.549 278.233C252.549 281.364 250.013 283.9 246.882 283.9C243.754 283.9 241.214 281.364 241.214 278.233C241.214 275.105 243.754 272.564 246.882 272.564C250.013 272.564 252.549 275.103 252.549 278.233Z" fill="#4E60A3"/>
<path opacity="0.9" d="M252.549 278.233C252.549 281.364 250.013 283.9 246.882 283.9C243.754 283.9 241.214 281.364 241.214 278.233C241.214 275.105 243.754 272.564 246.882 272.564C250.013 272.564 252.549 275.103 252.549 278.233Z" fill="black"/>
<path opacity="0.5" d="M238.974 284.851C240.055 284.124 241.524 284.418 242.249 285.496C242.974 286.578 242.687 288.047 241.604 288.772C240.52 289.501 239.053 289.212 238.328 288.129C237.604 287.047 237.893 285.576 238.974 284.851Z" fill="url(#paint8_linear)"/>
<path opacity="0.5" d="M251.359 277.443C250.755 278.344 249.025 278.24 247.491 277.212C245.955 276.184 245.204 274.616 245.806 273.718V273.716C246.408 272.815 248.139 272.918 249.671 273.949C251.21 274.975 251.961 276.54 251.359 277.443Z" fill="url(#paint9_linear)"/>
<path opacity="0.75" d="M258.237 275.038C256.869 277.14 253.334 277.265 250.35 275.32C247.364 273.374 246.054 270.094 247.424 267.992C248.792 265.892 252.327 265.766 255.311 267.71C258.295 269.658 259.605 272.94 258.237 275.038Z" fill="url(#paint10_linear)"/>
<path d="M197.461 277.867C196.542 285.824 221.192 330.857 245.796 330.857C270.401 330.857 292.756 318.113 292.756 277.87C292.756 235.03 270.401 224.887 245.796 224.887C221.192 224.887 202.03 238.387 197.461 277.867ZM214.49 280.167L214.249 270.175C217.447 260.666 261.307 259.695 276.621 274.472C279.983 282.253 275.636 287.661 268.122 289.976C260.192 288.088 256.156 292.526 244.501 292.784C225.098 293.21 220.568 291.295 217.531 286.431C216.272 284.413 215.068 281.788 214.49 280.167Z" fill="#F0C7B1"/>
<path d="M211.836 273.807C211.891 291.95 230.249 306.568 252.867 306.476C275.477 306.373 293.77 291.596 293.712 273.453C293.656 255.312 275.296 240.69 252.676 240.784C230.059 240.89 211.776 255.664 211.836 273.807ZM214.49 280.167L214.249 270.176C217.447 260.666 261.307 259.695 276.621 274.472C279.983 282.253 275.636 287.661 268.122 289.976C260.192 288.088 256.156 292.526 244.501 292.784C225.098 293.21 220.568 291.295 217.531 286.431C216.272 284.413 215.068 281.788 214.49 280.167Z" fill="url(#paint11_radial)"/>
<path d="M217.531 286.431C216.272 284.415 215.068 281.788 214.487 280.167L214.246 270.176C217.445 260.666 261.305 259.695 276.618 274.472C279.98 282.253 275.633 287.661 268.12 289.976C260.19 288.088 256.154 292.526 244.498 292.784C225.1 293.21 220.568 291.293 217.531 286.431Z" fill="url(#paint12_radial)"/>
<path d="M283.52 270.871C260.361 256.998 243.301 256.114 215.809 257.882C238.757 254.267 265.187 256.889 283.52 270.871Z" fill="#C27B55"/>
<path d="M280.546 280.721C272.744 260.697 218.071 260.579 214.487 270.652V280.032C212.029 276.326 211.966 276.1 210.916 271.835L205.63 273.631C205.63 273.631 212.243 264.304 218.391 263.081C271.819 252.439 280.089 277.508 280.546 280.721ZM272.149 290.684C261.011 285.915 257.844 291.594 244.303 291.876C225.028 292.28 221.264 290.031 217.512 285.913C219.47 290.949 220.823 293.342 243.701 293.203C256.647 293.123 263.72 287.775 272.149 290.684Z" fill="black"/>
<path d="M348.695 289.974C356.626 288.086 360.662 292.524 372.317 292.782C391.72 293.208 396.25 291.293 399.287 286.429C400.546 284.413 401.75 281.786 402.33 280.165L402.571 270.174C399.373 260.664 355.513 259.693 340.199 274.47C339.508 276.074 339.157 277.569 339.08 278.966C339.537 281.273 340.313 283.489 341.36 285.586C343.06 287.537 345.603 289.02 348.695 289.974Z" fill="url(#paint13_radial)"/>
<path d="M385.35 278.234C385.35 286.212 378.88 292.683 370.904 292.683C362.925 292.683 356.452 286.212 356.452 278.234C356.452 270.253 362.925 263.785 370.904 263.785C378.88 263.782 385.35 270.253 385.35 278.234Z" fill="#4E60A3"/>
<path opacity="0.7" d="M369.283 263.943C369.228 263.951 369.17 263.958 369.112 263.965C369.182 264.29 369.252 264.618 369.317 264.943C369.302 264.613 369.295 264.276 369.283 263.943ZM369.314 264.94C369.481 269.689 369.76 273.92 370.562 275.45C370.981 273.774 370.263 269.598 369.314 264.94ZM370.559 275.452C370.458 275.854 370.299 276.129 370.061 276.22C369.818 276.312 369.517 276.206 369.177 275.972C369.273 276.374 369.264 276.687 369.09 276.883C368.917 277.078 368.606 277.126 368.195 277.07C368.464 277.383 368.606 277.67 368.546 277.92C368.479 278.171 368.224 278.359 367.841 278.503C368.221 278.655 368.479 278.843 368.539 279.093C368.599 279.344 368.462 279.63 368.19 279.941C368.599 279.89 368.912 279.943 369.081 280.138C369.252 280.333 369.261 280.649 369.165 281.051C369.505 280.817 369.806 280.716 370.044 280.81C370.29 280.902 370.444 281.176 370.54 281.581C370.733 281.215 370.954 280.981 371.212 280.955C371.465 280.921 371.735 281.097 372.004 281.408C372.009 280.993 372.093 280.687 372.313 280.541C372.522 280.394 372.84 280.423 373.225 280.572C373.037 280.206 372.975 279.895 373.09 279.664C373.213 279.435 373.509 279.312 373.921 279.264C373.582 279.026 373.372 278.783 373.379 278.523C373.377 278.262 373.582 278.019 373.926 277.786C373.514 277.735 373.225 277.612 373.103 277.383C372.982 277.155 373.05 276.842 373.24 276.476C372.852 276.62 372.539 276.649 372.325 276.502C372.11 276.355 372.026 276.049 372.024 275.635C371.756 275.943 371.484 276.114 371.229 276.081C370.971 276.047 370.752 275.821 370.559 275.452ZM372.024 275.633C373.177 274.344 374.482 270.313 375.802 265.749C373.748 270.029 372.028 273.904 372.024 275.633ZM375.802 265.749C375.947 265.456 376.093 265.157 376.233 264.858C376.183 264.842 376.132 264.818 376.081 264.796C375.988 265.116 375.896 265.436 375.802 265.749ZM373.242 276.476C374.863 275.869 377.895 272.904 381.184 269.48C377.375 272.312 374.049 274.944 373.242 276.476ZM381.184 269.48C381.425 269.299 381.671 269.119 381.919 268.938C381.883 268.895 381.847 268.858 381.818 268.82C381.606 269.037 381.396 269.261 381.184 269.48ZM373.924 277.786C375.641 277.998 379.701 276.781 384.209 275.279C379.518 276.02 375.352 276.803 373.924 277.786ZM384.209 275.281C384.474 275.243 384.751 275.199 385.021 275.156C385.009 275.11 384.999 275.064 384.987 275.019C384.729 275.105 384.464 275.194 384.209 275.281ZM373.919 279.262C375.342 280.254 379.501 281.061 384.185 281.822C379.691 280.297 375.638 279.057 373.919 279.262ZM384.185 281.822C384.414 281.901 384.643 281.983 384.871 282.058C384.883 282.017 384.893 281.978 384.903 281.937C384.667 281.901 384.421 281.863 384.185 281.822ZM373.225 280.569C374.025 282.103 377.338 284.755 381.129 287.611C377.859 284.167 374.846 281.186 373.225 280.569ZM381.131 287.606C381.273 287.755 381.418 287.91 381.56 288.061C381.584 288.032 381.608 288.011 381.635 287.984C381.466 287.859 381.293 287.731 381.131 287.606ZM372.012 281.405C372.004 283.137 373.702 287.019 375.737 291.31C374.437 286.742 373.158 282.701 372.012 281.405ZM375.737 291.312C375.788 291.493 375.841 291.678 375.889 291.864C375.925 291.849 375.951 291.84 375.983 291.83C375.901 291.657 375.817 291.479 375.737 291.312ZM370.543 281.578C369.733 283.112 369.432 287.334 369.237 292.081C370.21 287.433 370.954 283.259 370.543 281.578ZM369.237 292.081C369.196 292.261 369.163 292.444 369.124 292.63C369.158 292.637 369.182 292.637 369.218 292.642C369.223 292.456 369.233 292.264 369.237 292.081ZM369.165 281.049C367.73 282.029 365.502 285.634 363.125 289.742C366.148 286.082 368.746 282.73 369.165 281.049ZM363.125 289.742C363 289.894 362.868 290.055 362.738 290.207C362.769 290.226 362.796 290.241 362.827 290.265C362.926 290.091 363.029 289.916 363.125 289.742ZM368.19 279.943C366.466 280.143 362.82 282.299 358.805 284.83C363.183 282.994 367.036 281.239 368.19 279.943ZM358.805 284.834C358.596 284.921 358.384 285.008 358.172 285.099C358.186 285.131 358.205 285.164 358.227 285.196C358.42 285.078 358.612 284.955 358.805 284.834ZM367.841 278.506C366.222 277.887 361.989 278.101 357.254 278.479C361.986 278.884 366.218 279.117 367.841 278.506ZM357.254 278.479C356.999 278.455 356.732 278.431 356.479 278.409C356.476 278.455 356.472 278.501 356.476 278.544C356.739 278.52 357.001 278.498 357.254 278.479ZM368.195 277.075C367.053 275.777 363.212 274 358.846 272.136C362.841 274.689 366.478 276.866 368.195 277.075ZM358.846 272.136C358.596 271.975 358.34 271.813 358.087 271.652C358.066 271.698 358.042 271.743 358.02 271.784C358.297 271.902 358.579 272.018 358.846 272.136ZM369.177 275.972C368.77 274.291 366.189 270.93 363.193 267.247C365.543 271.37 367.752 274.985 369.177 275.972ZM363.193 267.247C363.032 266.97 362.873 266.689 362.716 266.407C362.67 266.438 362.622 266.47 362.579 266.501C362.783 266.749 362.993 266.999 363.193 267.247Z" fill="url(#paint14_radial)"/>
<path opacity="0.4" d="M373.035 263.992C372.977 263.985 372.922 263.975 372.866 263.968C372.847 264.3 372.828 264.635 372.809 264.965C372.879 264.642 372.958 264.315 373.035 263.992ZM372.806 264.962C371.739 269.591 370.911 273.75 371.289 275.438C372.132 273.926 372.517 269.706 372.806 264.962ZM371.289 275.438C371.087 275.799 370.863 276.023 370.608 276.05C370.352 276.074 370.087 275.896 369.82 275.58C369.81 275.992 369.719 276.295 369.5 276.437C369.283 276.579 368.968 276.546 368.585 276.387C368.765 276.76 368.828 277.073 368.703 277.297C368.573 277.523 368.279 277.639 367.869 277.678C368.202 277.921 368.399 278.169 368.392 278.429C368.387 278.687 368.178 278.927 367.838 279.156C368.248 279.214 368.534 279.346 368.65 279.575C368.765 279.806 368.693 280.117 368.496 280.478C368.886 280.341 369.201 280.322 369.411 280.473C369.62 280.625 369.7 280.931 369.688 281.348C369.969 281.047 370.239 280.876 370.499 280.917C370.752 280.95 370.966 281.189 371.149 281.562C371.26 281.16 371.422 280.89 371.67 280.803C371.913 280.717 372.214 280.827 372.544 281.071C372.459 280.669 372.476 280.351 372.652 280.16C372.826 279.97 373.143 279.929 373.555 279.987C373.29 279.669 373.151 279.383 373.223 279.132C373.288 278.882 373.55 278.699 373.943 278.561C373.56 278.407 373.31 278.212 373.249 277.959C373.196 277.706 373.341 277.422 373.62 277.119C373.206 277.157 372.893 277.104 372.729 276.907C372.561 276.709 372.556 276.392 372.664 275.994C372.32 276.221 372.016 276.317 371.778 276.218C371.532 276.119 371.378 275.843 371.289 275.438ZM372.657 275.994C374.104 275.045 376.407 271.489 378.865 267.426C375.771 271.026 373.107 274.321 372.657 275.994ZM378.865 267.424C379.08 267.178 379.299 266.927 379.513 266.675C379.465 266.643 379.424 266.607 379.378 266.573C379.207 266.86 379.036 267.147 378.865 267.424ZM373.615 277.121C375.337 276.953 379.031 274.872 383.096 272.418C378.682 274.169 374.788 275.85 373.615 277.121ZM383.094 272.416C383.373 272.305 383.658 272.194 383.947 272.083C383.922 272.033 383.896 271.987 383.879 271.941C383.619 272.1 383.359 272.262 383.094 272.416ZM373.933 278.564C375.537 279.214 379.776 279.089 384.52 278.807C379.792 278.306 375.568 277.983 373.933 278.564ZM384.517 278.805C384.785 278.836 385.062 278.865 385.334 278.894C385.336 278.846 385.336 278.8 385.338 278.754C385.066 278.771 384.787 278.788 384.517 278.805ZM373.55 279.989C374.665 281.316 378.478 283.171 382.803 285.116C378.856 282.479 375.263 280.235 373.55 279.989ZM382.8 285.116C382.998 285.254 383.202 285.391 383.402 285.521C383.424 285.485 383.446 285.449 383.46 285.413C383.246 285.319 383.019 285.218 382.8 285.116ZM372.541 281.073C372.915 282.761 375.429 286.178 378.352 289.921C376.081 285.745 373.948 282.085 372.541 281.073ZM378.355 289.914C378.453 290.094 378.552 290.282 378.653 290.465C378.682 290.443 378.709 290.426 378.742 290.407C378.612 290.243 378.478 290.075 378.355 289.914ZM371.149 281.564C370.697 283.233 371.332 287.423 372.185 292.095C372.11 287.346 371.922 283.113 371.149 281.564ZM372.183 292.095C372.185 292.283 372.19 292.476 372.19 292.669C372.226 292.664 372.252 292.659 372.286 292.659C372.255 292.473 372.219 292.281 372.183 292.095ZM369.685 281.35C368.508 282.622 367.123 286.622 365.707 291.156C367.85 286.92 369.649 283.082 369.685 281.35ZM365.707 291.156C365.623 291.32 365.541 291.488 365.456 291.657C365.485 291.672 365.509 291.679 365.541 291.693C365.596 291.517 365.654 291.332 365.707 291.156ZM368.493 280.483C366.856 281.059 363.771 283.965 360.411 287.318C364.279 284.563 367.655 281.998 368.493 280.483ZM360.411 287.318C360.25 287.431 360.079 287.554 359.918 287.667C359.942 287.693 359.966 287.715 359.988 287.744C360.125 287.602 360.272 287.462 360.411 287.318ZM367.838 279.161C366.121 278.911 362.044 280.047 357.507 281.454C362.213 280.813 366.388 280.115 367.838 279.161ZM357.507 281.458C357.283 281.49 357.054 281.516 356.826 281.552C356.835 281.588 356.845 281.625 356.857 281.658C357.074 281.596 357.29 281.523 357.507 281.458ZM367.869 277.685C366.468 276.666 362.323 275.778 357.654 274.918C362.119 276.534 366.145 277.856 367.869 277.685ZM357.654 274.918C357.411 274.829 357.16 274.737 356.919 274.648C356.905 274.694 356.893 274.737 356.883 274.778C357.143 274.824 357.404 274.872 357.654 274.918ZM368.585 276.392C367.819 274.843 364.565 272.132 360.83 269.201C364.031 272.705 366.981 275.749 368.585 276.392ZM360.83 269.203C360.63 268.984 360.428 268.762 360.226 268.541C360.19 268.579 360.158 268.616 360.122 268.652C360.361 268.835 360.604 269.018 360.83 269.203ZM369.82 275.582C369.861 273.853 368.24 269.938 366.295 265.608C367.501 270.198 368.698 274.26 369.82 275.582ZM366.295 265.608C366.213 265.3 366.133 264.984 366.049 264.671C365.998 264.688 365.945 264.707 365.897 264.726C366.03 265.02 366.164 265.316 366.295 265.608Z" fill="url(#paint15_radial)"/>
<path d="M376.57 278.234C376.57 281.364 374.032 283.9 370.904 283.9C367.773 283.9 365.235 281.364 365.235 278.234C365.235 275.106 367.776 272.565 370.904 272.565C374.037 272.565 376.57 275.103 376.57 278.234Z" fill="#4E60A3"/>
<path opacity="0.9" d="M376.57 278.234C376.57 281.364 374.032 283.9 370.904 283.9C367.773 283.9 365.235 281.364 365.235 278.234C365.235 275.106 367.776 272.565 370.904 272.565C374.037 272.565 376.57 275.103 376.57 278.234Z" fill="black"/>
<path opacity="0.5" d="M362.998 284.852C364.077 284.124 365.548 284.418 366.271 285.497C366.998 286.578 366.711 288.047 365.625 288.772C364.541 289.502 363.075 289.213 362.352 288.129C361.625 287.048 361.914 285.576 362.998 284.852Z" fill="url(#paint16_linear)"/>
<path opacity="0.5" d="M375.378 277.444C374.774 278.345 373.045 278.241 371.513 277.213C369.977 276.184 369.225 274.617 369.827 273.718L369.83 273.716C370.432 272.815 372.163 272.919 373.695 273.95C375.231 274.975 375.983 276.541 375.378 277.444Z" fill="url(#paint17_linear)"/>
<path opacity="0.75" d="M382.261 275.038C380.891 277.141 377.358 277.266 374.372 275.32C371.388 273.374 370.075 270.094 371.446 267.992C372.813 265.892 376.346 265.767 379.332 267.71C382.316 269.658 383.626 272.941 382.261 275.038Z" fill="url(#paint18_linear)"/>
<path d="M371.024 224.888C346.42 224.888 324.065 235.031 324.065 277.87C324.065 318.113 346.42 330.857 371.024 330.857C395.629 330.857 418.925 287.433 419.356 277.868C421.153 238.164 395.629 224.888 371.024 224.888ZM399.287 286.431C396.25 291.296 391.718 293.21 372.317 292.784C360.662 292.526 356.626 288.088 348.695 289.976C341.182 287.662 336.835 282.253 340.197 274.472C355.511 259.696 399.371 260.666 402.569 270.176L402.328 280.168C401.753 281.788 400.548 284.413 399.287 286.431Z" fill="#F0C7B1"/>
<path d="M364.142 240.784C341.522 240.688 323.164 255.313 323.109 273.454C323.048 291.599 341.343 306.373 363.954 306.477C386.569 306.566 404.927 291.948 404.982 273.808C405.045 255.664 386.762 240.89 364.142 240.784ZM399.287 286.431C396.25 291.296 391.718 293.21 372.317 292.784C360.662 292.526 356.626 288.088 348.695 289.976C341.182 287.662 336.835 282.253 340.197 274.472C355.511 259.696 399.371 260.666 402.569 270.176L402.328 280.168C401.753 281.788 400.549 284.413 399.287 286.431Z" fill="url(#paint19_radial)"/>
<path d="M399.287 286.431C400.546 284.416 401.75 281.788 402.331 280.168L402.571 270.176C399.373 260.666 355.513 259.696 340.199 274.472C336.838 282.253 341.184 287.662 348.698 289.976C356.628 288.088 360.664 292.527 372.32 292.784C391.72 293.21 396.25 291.294 399.287 286.431Z" fill="url(#paint20_radial)"/>
<path d="M333.3 270.872C356.459 256.998 373.519 256.114 401.011 257.882C378.063 254.267 351.633 256.89 333.3 270.872Z" fill="#C27B55"/>
<path d="M398.429 263.079C404.577 264.302 411.19 273.629 411.19 273.629L405.904 271.833C404.852 276.098 404.789 276.324 402.333 280.03V270.65C398.752 260.577 344.079 260.695 336.274 280.719C336.732 277.509 344.999 252.44 398.429 263.079ZM373.117 293.205C395.995 293.345 397.35 290.949 399.306 285.916C395.554 290.034 391.79 292.283 372.515 291.879C358.976 291.597 355.807 285.916 344.669 290.686C353.098 287.775 360.173 293.124 373.117 293.205Z" fill="black"/>
<path d="M407.626 349.815C407.71 404.292 363.576 448.536 309.04 448.61C254.514 448.699 210.237 404.606 210.153 350.116C210.068 295.642 254.203 251.226 308.736 251.139C363.265 251.055 407.547 295.329 407.626 349.815Z" fill="url(#paint21_radial)"/>
<path d="M399.197 205.384C399.197 255.259 358.766 295.69 308.893 295.69C259.017 295.69 218.584 255.259 218.584 205.384C218.584 155.508 259.017 115.077 308.893 115.077C358.766 115.077 399.197 155.508 399.197 205.384Z" fill="url(#paint22_radial)"/>
<path d="M198.114 254.005C222.085 229.985 238.478 239.76 271.778 246.144C273.813 246.534 286.998 249.851 284.566 254.498C283.402 256.723 279.662 256.459 277.575 256.42C244.611 255.804 228.582 232.35 198.114 254.005Z" fill="#2A232B"/>
<path d="M419.667 254.005C395.698 229.985 379.303 239.76 346.003 246.144C343.966 246.534 330.783 249.851 333.213 254.498C334.376 256.723 338.116 256.459 340.204 256.42C373.167 255.804 389.199 232.35 419.667 254.005Z" fill="#2A232B"/>
<path d="M287.494 353.487C285.379 358.457 301.784 363.823 308.009 364.153C314.752 364.507 333.647 357.169 330.444 352.131C327.075 346.845 314.446 351.442 308.996 351.442C303.573 351.44 290.326 346.855 287.494 353.487Z" fill="#E1AC8F"/>
<path d="M313.362 357.242C312.809 355.414 317.88 353.427 319.761 353.162C322.412 352.777 327.853 355.093 327.366 356.996C326.923 358.677 322.193 355.712 320.479 355.963C318.711 356.22 313.887 358.954 313.362 357.242ZM296.787 356.647C299.118 356.647 302.576 358.147 303.212 356.825C303.971 355.248 298.061 353.307 296.325 353.521C294.889 353.689 289.743 356.688 290.451 357.95C291.111 359.108 293.714 356.647 296.787 356.647Z" fill="#C27B55"/>
<path opacity="0.2" d="M309.105 345.058C310.567 345.058 313.3 343.276 313.42 339.688C313.904 325.22 311.118 282.294 309.105 282.446C307.227 282.588 303.646 324.919 304.414 339.688C304.604 343.305 307.455 345.058 309.105 345.058Z" fill="#FFF5EF"/>
<path d="M449.601 174.862C405.218 63.8691 308.891 76.3194 308.891 76.3194C308.891 76.3194 212.563 63.8715 168.18 174.862C145.917 230.539 173.377 296.052 173.377 296.052H187.407C175.14 243.669 189.324 253.518 190.239 243.741C190.524 240.719 189.517 235.633 189.225 232.61C187.8 217.892 193.999 189.193 201.856 176.806C205.717 170.723 214.786 160.77 221.541 158.265C245.55 149.369 269.811 159.987 276.578 161.687C287.32 164.384 330.456 164.384 341.204 161.687C349.254 159.667 372.948 149.875 396.24 158.506C402.997 161.01 412.787 170.479 416.647 176.565C424.505 188.953 429.981 215.481 428.556 230.2C428.264 233.222 427.258 240.716 427.539 243.741C427.797 246.503 433.842 252.625 434.518 255.317C437.312 266.424 430.371 296.052 430.371 296.052H444.399C444.401 296.052 471.867 230.539 449.601 174.862Z" fill="#2A232B"/>
<path d="M441.191 150.39C396.014 67.8449 313.656 73.8244 308.891 74.2483C304.125 73.8244 221.77 67.8449 176.59 150.39C141.69 214.154 168.18 287.594 171.4 295.962C171.583 296.437 175.196 296.054 175.196 296.054C175.181 296.018 174.945 295.11 174.796 294.729C171.884 287.216 145.442 214.826 179.759 152.127C224.872 69.704 307.915 77.769 308.746 77.863L308.891 76.5577L309.035 77.863C309.866 77.769 392.91 69.704 438.025 152.124C473.095 216.206 444.703 290.409 442.831 295.129C442.781 295.262 442.574 296.032 442.564 296.052C442.564 296.052 446.191 296.459 446.357 296.025C449.466 287.972 476.18 214.318 441.191 150.39Z" fill="black"/>
</g>
<defs>
<linearGradient id="paint0_linear" x1="300" y1="-75" x2="300" y2="675" gradientUnits="userSpaceOnUse">
<stop stop-color="#151371"/>
<stop offset="0.453125" stop-color="#FF00B8"/>
<stop offset="0.96875" stop-color="#FFC700"/>
</linearGradient>
<linearGradient id="paint1_linear" x1="439" y1="245" x2="439" y2="644" gradientUnits="userSpaceOnUse">
<stop stop-color="#FF00B8"/>
<stop offset="1" stop-color="#F0DB0A" stop-opacity="0"/>
</linearGradient>
<linearGradient id="paint2_linear" x1="194" y1="161" x2="194" y2="560" gradientUnits="userSpaceOnUse">
<stop stop-color="#FF00B8"/>
<stop offset="1" stop-color="#F0DB0A" stop-opacity="0"/>
</linearGradient>
<linearGradient id="paint3_linear" x1="308.891" y1="487.143" x2="308.891" y2="390.816" gradientUnits="userSpaceOnUse">
<stop stop-color="#E1AC8F" stop-opacity="0.8"/>
<stop offset="0.7" stop-color="#C27B55"/>
</linearGradient>
<linearGradient id="paint4_linear" x1="308.891" y1="417.306" x2="308.891" y2="410.082" gradientUnits="userSpaceOnUse">
<stop offset="0.1" stop-color="#E8B9A0"/>
<stop offset="1" stop-color="#E1AC8F"/>
</linearGradient>
<radialGradient id="paint5_radial" cx="0" cy="0" r="1" gradientUnits="userSpaceOnUse" gradientTransform="translate(245.499 274.022) rotate(179.978) scale(32.7516 28.8123)">
<stop stop-color="white"/>
<stop offset="0.544" stop-color="#FDFEFE"/>
<stop offset="0.74" stop-color="#F6F8F9"/>
<stop offset="0.879" stop-color="#EAEFF2"/>
<stop offset="0.992" stop-color="#D9E3E8"/>
<stop offset="1" stop-color="#D8E2E7"/>
</radialGradient>
<radialGradient id="paint6_radial" cx="0" cy="0" r="1" gradientUnits="userSpaceOnUse" gradientTransform="translate(246.698 278.281) rotate(-14.4847) scale(14.2671 14.2702)">
<stop stop-color="white"/>
<stop offset="1" stop-color="white" stop-opacity="0"/>
</radialGradient>
<radialGradient id="paint7_radial" cx="0" cy="0" r="1" gradientUnits="userSpaceOnUse" gradientTransform="translate(246.7 278.297) rotate(0.512025) scale(14.2588 14.2591)">
<stop stop-color="white"/>
<stop offset="1" stop-color="white" stop-opacity="0"/>
</radialGradient>
<linearGradient id="paint8_linear" x1="238.861" y1="288.511" x2="241.115" y2="285.824" gradientUnits="userSpaceOnUse">
<stop stop-color="white"/>
<stop offset="1" stop-color="white" stop-opacity="0"/>
</linearGradient>
<linearGradient id="paint9_linear" x1="249.799" y1="274.13" x2="247.995" y2="276.28" gradientUnits="userSpaceOnUse">
<stop stop-color="white"/>
<stop offset="1" stop-color="white" stop-opacity="0"/>
</linearGradient>
<linearGradient id="paint10_linear" x1="255.636" y1="268.172" x2="251.479" y2="273.126" gradientUnits="userSpaceOnUse">
<stop stop-color="white"/>
<stop offset="1" stop-color="white" stop-opacity="0"/>
</linearGradient>
<radialGradient id="paint11_radial" cx="0" cy="0" r="1" gradientUnits="userSpaceOnUse" gradientTransform="translate(252.974 272.345) rotate(1.04861) scale(43.1003 30.343)">
<stop stop-color="#E1AC8F"/>
<stop offset="0.7" stop-color="#E1AC8F" stop-opacity="0.3"/>
<stop offset="1" stop-color="#F0C7B1" stop-opacity="0"/>
</radialGradient>
<radialGradient id="paint12_radial" cx="0" cy="0" r="1" gradientUnits="userSpaceOnUse" gradientTransform="translate(240.85 320.297) rotate(-2.60422) scale(61.3793 53.4262)">
<stop offset="0.9" stop-opacity="0"/>
<stop offset="1" stop-opacity="0.2"/>
</radialGradient>
<radialGradient id="paint13_radial" cx="0" cy="0" r="1" gradientUnits="userSpaceOnUse" gradientTransform="translate(371.318 274.022) rotate(0.0216374) scale(32.7541 28.8145)">
<stop stop-color="white"/>
<stop offset="0.544" stop-color="#FDFEFE"/>
<stop offset="0.74" stop-color="#F6F8F9"/>
<stop offset="0.879" stop-color="#EAEFF2"/>
<stop offset="0.992" stop-color="#D9E3E8"/>
<stop offset="1" stop-color="#D8E2E7"/>
</radialGradient>
<radialGradient id="paint14_radial" cx="0" cy="0" r="1" gradientUnits="userSpaceOnUse" gradientTransform="translate(370.719 278.281) rotate(-14.4847) scale(14.2673 14.2704)">
<stop stop-color="white"/>
<stop offset="1" stop-color="white" stop-opacity="0"/>
</radialGradient>
<radialGradient id="paint15_radial" cx="0" cy="0" r="1" gradientUnits="userSpaceOnUse" gradientTransform="translate(370.72 278.297) rotate(0.512025) scale(14.2592 14.2595)">
<stop stop-color="white"/>
<stop offset="1" stop-color="white" stop-opacity="0"/>
</radialGradient>
<linearGradient id="paint16_linear" x1="362.882" y1="288.512" x2="365.136" y2="285.824" gradientUnits="userSpaceOnUse">
<stop stop-color="white"/>
<stop offset="1" stop-color="white" stop-opacity="0"/>
</linearGradient>
<linearGradient id="paint17_linear" x1="373.82" y1="274.13" x2="372.016" y2="276.281" gradientUnits="userSpaceOnUse">
<stop stop-color="white"/>
<stop offset="1" stop-color="white" stop-opacity="0"/>
</linearGradient>
<linearGradient id="paint18_linear" x1="379.658" y1="268.173" x2="375.501" y2="273.126" gradientUnits="userSpaceOnUse">
<stop stop-color="white"/>
<stop offset="1" stop-color="white" stop-opacity="0"/>
</linearGradient>
<radialGradient id="paint19_radial" cx="0" cy="0" r="1" gradientUnits="userSpaceOnUse" gradientTransform="translate(363.846 272.346) rotate(178.951) scale(43.1003 30.343)">
<stop stop-color="#E1AC8F"/>
<stop offset="0.7" stop-color="#E1AC8F" stop-opacity="0.3"/>
<stop offset="1" stop-color="#F0C7B1" stop-opacity="0"/>
</radialGradient>
<radialGradient id="paint20_radial" cx="0" cy="0" r="1" gradientUnits="userSpaceOnUse" gradientTransform="translate(375.97 320.297) rotate(-177.396) scale(61.3793 53.4262)">
<stop offset="0.9" stop-opacity="0"/>
<stop offset="1" stop-opacity="0.2"/>
</radialGradient>
<radialGradient id="paint21_radial" cx="0" cy="0" r="1" gradientUnits="userSpaceOnUse" gradientTransform="translate(308.89 349.877) scale(98.7355)">
<stop stop-color="#FFE4D6" stop-opacity="0.5"/>
<stop offset="0.9" stop-color="#F0C7B1" stop-opacity="0"/>
</radialGradient>
<radialGradient id="paint22_radial" cx="0" cy="0" r="1" gradientUnits="userSpaceOnUse" gradientTransform="translate(308.891 205.386) scale(89.1028)">
<stop stop-color="#FFE4D6" stop-opacity="0.5"/>
<stop offset="0.9" stop-color="#F0C7B1" stop-opacity="0"/>
</radialGradient>
<clipPath id="clip0">
<rect width="600" height="600" fill="white"/>
</clipPath>
</defs>
</svg>
