<svg width="821" height="1646" viewBox="0 0 821 1646" fill="none" xmlns="http://www.w3.org/2000/svg">
<path d="M820.189 391.151H811.152V143.395C811.152 105.364 796.054 68.8912 769.181 41.9994C742.307 15.1077 705.858 4.74213e-05 667.853 9.10065e-10H143.299C124.481 -6.70856e-05 105.847 3.70888 88.4611 10.9151C71.0753 18.1213 55.2781 28.6836 41.9715 41.9989C28.665 55.3143 18.1096 71.122 10.9081 88.5194C3.70665 105.917 6.70415e-05 124.563 1.45515e-10 143.394V1502.61C-2.68165e-05 1521.44 3.70642 1540.08 10.9078 1557.48C18.1092 1574.88 28.6646 1590.69 41.9711 1604C55.2775 1617.32 71.0746 1627.88 88.4604 1635.08C105.846 1642.29 124.48 1646 143.298 1646H667.852C686.671 1646 705.305 1642.29 722.691 1635.08C740.076 1627.88 755.874 1617.32 769.18 1604C782.487 1590.69 793.042 1574.88 800.244 1557.48C807.445 1540.08 811.152 1521.44 811.152 1502.61V567.508H820.189V391.151Z" fill="black"/>
<path d="M672.563 40.7109H604.091C607.24 48.436 608.442 56.8174 607.591 65.1169C606.741 73.4163 603.863 81.3791 599.213 88.3036C594.562 95.2282 588.281 100.902 580.923 104.825C573.565 108.749 565.356 110.801 557.018 110.802H256.508C248.171 110.801 239.961 108.749 232.603 104.825C225.245 100.902 218.964 95.2281 214.314 88.3036C209.663 81.3791 206.786 73.4164 205.935 65.1169C205.085 56.8175 206.287 48.436 209.435 40.7109H145.483C117.101 40.7109 89.8815 51.993 69.8125 72.0754C49.7435 92.1578 38.4688 119.395 38.4688 147.796V1505.01C38.4687 1519.08 41.2368 1533 46.6147 1545.99C51.9926 1558.98 59.8752 1570.79 69.8123 1580.73C79.7495 1590.68 91.5466 1598.57 104.53 1603.95C117.514 1609.33 131.429 1612.1 145.483 1612.1H672.563C700.945 1612.1 728.164 1600.82 748.233 1580.73C768.302 1560.65 779.577 1533.41 779.577 1505.01V147.796C779.577 133.734 776.809 119.809 771.431 106.817C766.053 93.8244 758.17 82.0193 748.233 72.0755C738.296 62.1317 726.499 54.2439 713.515 48.8623C700.532 43.4808 686.616 40.7109 672.563 40.7109ZM661.059 670.332C661.038 677.682 658.11 684.725 652.917 689.922C647.723 695.119 640.685 698.048 633.34 698.07H499.366C492.021 698.048 484.984 695.119 479.79 689.922C474.596 684.725 471.669 677.682 471.648 670.332V663.398C471.669 656.048 474.596 649.006 479.79 643.809C484.984 638.611 492.021 635.682 499.366 635.661H633.34C640.685 635.682 647.723 638.611 652.917 643.809C658.11 649.006 661.038 656.048 661.059 663.398V670.332ZM676.074 547.826C676.052 555.175 673.125 562.218 667.931 567.415C662.738 572.612 655.7 575.542 648.355 575.563H167.896C160.551 575.542 153.513 572.612 148.32 567.415C143.126 562.218 140.199 555.176 140.177 547.826V540.891C140.199 533.542 143.126 526.499 148.32 521.302C153.513 516.105 160.551 513.176 167.896 513.154H648.355C655.7 513.176 662.738 516.105 667.931 521.302C673.125 526.499 676.052 533.542 676.074 540.891V547.826ZM676.074 425.319C676.052 432.669 673.125 439.711 667.931 444.909C662.738 450.106 655.7 453.035 648.355 453.057H167.896C160.551 453.035 153.513 450.106 148.32 444.909C143.126 439.712 140.199 432.669 140.177 425.319V418.385C140.199 411.035 143.126 403.992 148.32 398.795C153.513 393.598 160.551 390.669 167.896 390.647H648.355C655.7 390.669 662.738 393.598 667.931 398.795C673.125 403.992 676.052 411.035 676.074 418.385V425.319ZM676.074 302.812C676.052 310.162 673.125 317.205 667.931 322.402C662.738 327.599 655.7 330.528 648.355 330.55H167.896C160.551 330.528 153.513 327.599 148.32 322.402C143.126 317.205 140.199 310.162 140.177 302.812V295.878C140.199 288.528 143.126 281.486 148.32 276.289C153.513 271.091 160.551 268.162 167.896 268.141H648.355C655.7 268.162 662.738 271.092 667.931 276.289C673.125 281.486 676.052 288.528 676.074 295.878V302.812Z" fill="white"/>
<path d="M178.283 561.683C187.213 561.683 194.452 554.438 194.452 545.502C194.452 536.566 187.213 529.322 178.283 529.322C169.353 529.322 162.113 536.566 162.113 545.502C162.113 554.438 169.353 561.683 178.283 561.683Z" fill="white"/>
<path d="M231.411 561.683C240.341 561.683 247.581 554.438 247.581 545.502C247.581 536.566 240.341 529.322 231.411 529.322C222.481 529.322 215.242 536.566 215.242 545.502C215.242 554.438 222.481 561.683 231.411 561.683Z" fill="white"/>
<path d="M284.544 561.683C293.474 561.683 300.714 554.438 300.714 545.502C300.714 536.566 293.474 529.322 284.544 529.322C275.614 529.322 268.375 536.566 268.375 545.502C268.375 554.438 275.614 561.683 284.544 561.683Z" fill="white"/>
<path d="M337.665 561.683C346.595 561.683 353.834 554.438 353.834 545.502C353.834 536.566 346.595 529.322 337.665 529.322C328.735 529.322 321.496 536.566 321.496 545.502C321.496 554.438 328.735 561.683 337.665 561.683Z" fill="white"/>
<path d="M510.915 684.202C519.845 684.202 527.085 676.958 527.085 668.022C527.085 659.086 519.845 651.842 510.915 651.842C501.985 651.842 494.746 659.086 494.746 668.022C494.746 676.958 501.985 684.202 510.915 684.202Z" fill="white"/>
<path d="M564.036 684.202C572.967 684.202 580.206 676.958 580.206 668.022C580.206 659.086 572.967 651.842 564.036 651.842C555.106 651.842 547.867 659.086 547.867 668.022C547.867 676.958 555.106 684.202 564.036 684.202Z" fill="white"/>
<path d="M617.165 684.202C626.095 684.202 633.335 676.958 633.335 668.022C633.335 659.086 626.095 651.842 617.165 651.842C608.235 651.842 600.996 659.086 600.996 668.022C600.996 676.958 608.235 684.202 617.165 684.202Z" fill="white"/>
<path d="M679.794 1039H131.843C118.97 1039 106.624 1044.12 97.5213 1053.23C88.4185 1062.33 83.3047 1074.69 83.3047 1087.57V1354.72C83.3047 1367.6 88.4185 1379.96 97.5213 1389.07C106.624 1398.18 118.97 1403.29 131.843 1403.29H679.794C692.667 1403.29 705.013 1398.18 714.116 1389.07C723.218 1379.96 728.332 1367.6 728.332 1354.72V1087.57C728.332 1074.69 723.219 1062.34 714.116 1053.23C705.013 1044.12 692.667 1039 679.794 1039ZM681.91 1315.28C681.887 1323.05 678.791 1330.5 673.297 1336C667.804 1341.49 660.359 1344.59 652.59 1344.62H579.292C571.523 1344.59 564.079 1341.49 558.585 1336C553.092 1330.5 549.995 1323.05 549.973 1315.28V1271.27C549.995 1263.49 553.092 1256.04 558.585 1250.55C564.079 1245.05 571.523 1241.95 579.292 1241.93H652.59C660.359 1241.95 667.804 1245.05 673.297 1250.55C678.791 1256.04 681.887 1263.49 681.91 1271.27L681.91 1315.28Z" fill="#151371"/>
<rect x="145" y="1111.75" width="29.4438" height="86.4416" fill="white"/>
<rect x="203.98" y="1111.75" width="29.3426" height="86.9464" fill="white"/>
<rect x="174.543" y="1082.36" width="29.545" height="29.3861" fill="white"/>
<rect x="262.684" y="1111.75" width="29.545" height="86.9464" fill="white"/>
<rect x="233.43" y="1082.36" width="29.3426" height="29.3861" fill="white"/>
<rect x="292.016" y="1082.36" width="29.4438" height="29.3861" fill="white"/>
<rect x="321.656" y="1111.75" width="29.3425" height="29.3861" fill="white"/>
<rect x="292.109" y="1141.13" width="29.444" height="29.2851" fill="white"/>
<path d="M602.922 1306.23H573.45C571.346 1306.23 569.328 1307.07 567.84 1308.56C566.352 1310.05 565.516 1312.06 565.516 1314.17C565.516 1316.28 566.352 1318.3 567.84 1319.78C569.328 1321.27 571.346 1322.11 573.45 1322.11H602.922C605.026 1322.11 607.044 1321.27 608.532 1319.78C610.02 1318.3 610.856 1316.28 610.856 1314.17C610.856 1312.06 610.02 1310.05 608.532 1308.56C607.044 1307.07 605.026 1306.23 602.922 1306.23Z" fill="#FFC700"/>
<path d="M657.32 1306.23H627.849C625.744 1306.23 623.726 1307.07 622.238 1308.56C620.75 1310.05 619.914 1312.06 619.914 1314.17C619.914 1316.28 620.75 1318.3 622.238 1319.78C623.726 1321.27 625.744 1322.11 627.849 1322.11H657.32C659.425 1322.11 661.443 1321.27 662.931 1319.78C664.419 1318.3 665.255 1316.28 665.255 1314.17C665.255 1312.06 664.419 1310.05 662.931 1308.56C661.443 1307.07 659.425 1306.23 657.32 1306.23Z" fill="#FFC700"/>
<path d="M602.91 1283.81H573.439C571.334 1283.81 569.316 1284.65 567.828 1286.14C566.34 1287.63 565.504 1289.65 565.504 1291.75C565.504 1293.86 566.34 1295.88 567.828 1297.37C569.316 1298.86 571.334 1299.69 573.439 1299.69H602.91C605.014 1299.69 607.033 1298.86 608.521 1297.37C610.009 1295.88 610.845 1293.86 610.845 1291.75C610.845 1289.65 610.009 1287.63 608.521 1286.14C607.033 1284.65 605.014 1283.81 602.91 1283.81Z" fill="#FFC700"/>
<path d="M657.32 1283.81H627.849C625.744 1283.81 623.726 1284.65 622.238 1286.14C620.75 1287.63 619.914 1289.65 619.914 1291.75C619.914 1293.86 620.75 1295.88 622.238 1297.37C623.726 1298.86 625.744 1299.69 627.849 1299.69H657.32C659.425 1299.69 661.443 1298.86 662.931 1297.37C664.419 1295.88 665.255 1293.86 665.255 1291.75C665.255 1289.65 664.419 1287.63 662.931 1286.14C661.443 1284.65 659.425 1283.81 657.32 1283.81H657.32Z" fill="#FFC700"/>
<path d="M602.91 1261.85H573.439C571.334 1261.85 569.316 1262.69 567.828 1264.18C566.34 1265.67 565.504 1267.69 565.504 1269.79C565.504 1271.9 566.34 1273.92 567.828 1275.41C569.316 1276.89 571.334 1277.73 573.439 1277.73H602.91C605.014 1277.73 607.033 1276.89 608.521 1275.41C610.009 1273.92 610.845 1271.9 610.845 1269.79C610.845 1267.69 610.009 1265.67 608.521 1264.18C607.033 1262.69 605.014 1261.85 602.91 1261.85Z" fill="#FFC700"/>
<path d="M657.32 1261.85H627.849C625.744 1261.85 623.726 1262.69 622.238 1264.18C620.75 1265.67 619.914 1267.69 619.914 1269.79C619.914 1271.9 620.75 1273.92 622.238 1275.41C623.726 1276.89 625.744 1277.73 627.849 1277.73H657.32C659.425 1277.73 661.443 1276.89 662.931 1275.41C664.419 1273.92 665.255 1271.9 665.255 1269.79C665.255 1267.69 664.419 1265.67 662.931 1264.18C661.443 1262.69 659.425 1261.85 657.32 1261.85H657.32Z" fill="#FFC700"/>
</svg>
