<svg width="1646" height="1061" viewBox="0 0 1646 1061" fill="none" xmlns="http://www.w3.org/2000/svg">
<path d="M1646 530.455C1646 689.779 1277.49 1060.89 823 1060.89C368.462 1060.89 0 735.349 0 530.455C0 370.648 1646 370.648 1646 530.455Z" fill="#EAEAEA"/>
<path d="M1646 530.439H0C0 370.68 368.51 0 823 0C1277.49 0 1646 370.632 1646 530.439Z" fill="black"/>
<path d="M1586.09 530.435C1586.09 670.471 1244.34 996.595 822.929 996.595C401.471 996.595 59.8203 710.399 59.8203 530.435C59.8203 390.014 401.471 64.3242 822.929 64.3242C1244.34 64.276 1586.09 390.014 1586.09 530.435Z" fill="#F5F8FA"/>
<path d="M1228.76 530.453C1228.76 754.327 1047.27 935.812 823.398 935.812C599.525 935.812 418.039 754.327 418.039 530.453C418.039 306.579 599.525 125.094 823.398 125.094C1047.27 125.094 1228.76 306.579 1228.76 530.453Z" fill="url(#paint0_radial)" stroke="#151371" stroke-width="5"/>
<path d="M823.383 757.466C948.767 757.466 1050.41 655.822 1050.41 530.438C1050.41 405.054 948.767 303.41 823.383 303.41C697.999 303.41 596.355 405.054 596.355 530.438C596.355 655.822 697.999 757.466 823.383 757.466Z" fill="#151371"/>
<path d="M677.881 482.201C731.145 482.201 774.324 439.022 774.324 385.758C774.324 332.494 731.145 289.314 677.881 289.314C624.617 289.314 581.438 332.494 581.438 385.758C581.438 439.022 624.617 482.201 677.881 482.201Z" fill="#F5F8FA"/>
<defs>
<radialGradient id="paint0_radial" cx="0" cy="0" r="1" gradientUnits="userSpaceOnUse" gradientTransform="translate(823.398 530.453) rotate(90) scale(407.859)">
<stop offset="0.604167" stop-color="#FFC700"/>
<stop offset="1" stop-color="#FF00B8"/>
</radialGradient>
</defs>
</svg>
