<svg width="1647" height="1263" viewBox="0 0 1647 1263" fill="none" xmlns="http://www.w3.org/2000/svg">
<path d="M1492 665.463L1458.89 166.037L1229.87 306.759C1116.74 287.445 1086.39 287.445 998.093 243.296C945.667 218.463 879.444 235.019 846.333 254.333C796.667 201.907 473.833 279.167 437.963 295.722C341.389 268.13 197.907 155 197.907 155L151 720.648L214.463 737.204C219.981 756.519 236.537 803.426 236.537 803.426C175.833 880.686 247.574 971.741 316.556 941.389C286.204 1018.65 366.222 1090.39 429.685 1040.72C421.407 1112.46 495.907 1164.89 551.093 1115.22C526.259 1200.76 622.833 1264.22 680.778 1195.24C722.167 1222.83 760.796 1244.91 793.907 1255.94C851.852 1280.78 915.315 1225.59 904.278 1156.61C970.5 1233.87 1069.83 1159.37 1047.76 1073.83C1122.26 1131.78 1213.31 1035.2 1166.41 949.667C1249.19 996.574 1320.93 869.648 1240.91 786.871L1492 665.463Z" fill="#393B97"/>
<path d="M325.909 749.678C366.991 768.849 394.378 831.841 350.558 886.616L331.387 908.526C309.477 935.914 287.566 944.13 265.656 944.13C282.089 952.347 301.26 952.347 320.432 944.13C323.17 935.914 328.648 924.959 336.864 916.743L356.036 894.832C366.991 881.139 380.684 870.184 391.64 864.706C413.55 807.192 375.207 752.417 325.909 749.678Z" fill="#151371"/>
<path d="M640.869 1020.86C684.689 1031.81 717.555 1089.33 684.689 1152.32L668.257 1176.97C651.824 1207.1 629.914 1220.79 608.004 1223.53C638.13 1231.74 670.996 1220.79 692.906 1179.71L709.338 1155.06C747.681 1078.37 695.644 1015.38 640.869 1020.86Z" fill="#151371"/>
<path d="M446.414 998.908L490.234 930.439C487.495 892.096 454.63 859.231 421.765 856.492C462.847 875.664 490.234 938.655 446.414 993.431L427.243 1015.34C405.332 1042.73 383.422 1050.94 358.773 1050.94C380.684 1061.9 405.333 1059.16 429.981 1042.73C432.72 1029.03 438.198 1012.6 446.414 998.908Z" fill="#151371"/>
<path d="M564.182 875.646C608.002 889.34 638.129 949.593 599.786 1009.85L547.749 1092.01C528.578 1122.13 506.668 1133.09 484.758 1133.09C512.145 1141.31 547.749 1133.09 572.398 1094.75L624.435 1012.58C668.255 941.376 618.957 872.907 564.182 875.646Z" fill="#151371"/>
<path d="M928.439 944.135C931.178 944.135 964.043 938.658 974.998 938.658C933.917 897.576 868.187 930.441 829.844 908.531C857.231 955.09 914.746 944.135 920.223 944.135L985.954 1029.04C1040.73 1097.51 996.909 1176.93 939.394 1185.15C999.647 1204.32 1059.9 1141.33 1040.73 1072.86C1037.99 1070.12 928.439 944.135 928.439 944.135Z" fill="#151371"/>
<path d="M994.168 785.282C994.168 785.282 1035.25 777.066 1070.85 777.066C1029.77 744.201 966.781 774.327 925.699 746.939C942.132 782.543 977.736 782.543 988.691 782.543L1114.67 927.698C1172.19 993.429 1131.11 1072.85 1073.59 1086.55C1139.32 1105.72 1202.31 1020.82 1161.23 946.87C1133.85 938.653 994.168 785.282 994.168 785.282Z" fill="#151371"/>
<path d="M906.53 1100.24C865.448 1067.38 807.934 1092.03 783.285 1075.59C796.979 1113.94 849.016 1105.72 851.754 1105.72C898.313 1176.93 849.016 1250.87 791.501 1256.35C849.016 1281 912.007 1226.23 901.052 1157.76C898.313 1155.02 859.971 1105.72 859.971 1105.72C865.448 1102.98 895.575 1100.24 906.53 1100.24Z" fill="#151371"/>
<path d="M1457.02 623.697C1457.02 623.697 1410.46 719.554 1229.7 771.59C1205.05 741.464 1153.02 681.211 1092.76 629.174C1131.11 620.958 1150.28 590.832 1180.4 585.354C1169.45 574.399 1131.11 579.877 1100.98 590.832C1046.2 610.003 920.221 522.363 920.221 522.363L816.148 536.056C742.201 607.264 583.352 645.607 575.136 536.056C569.659 459.371 736.723 407.334 788.76 358.036C854.49 295.045 912.005 215.621 1018.82 270.396C1106.46 314.216 1142.06 311.477 1262.57 333.388C1303.65 341.604 1331.04 360.775 1361.16 401.857C1336.51 344.343 1300.91 319.694 1257.09 311.477L1448.8 221.098L1451.54 174.539L1224.22 303.261C1120.15 286.829 1081.81 286.829 996.906 245.747C942.131 218.359 898.311 226.576 862.707 248.486C796.976 210.143 758.634 218.359 733.985 223.837C657.299 248.486 534.055 251.225 424.504 295.045C443.675 300.522 462.847 306 476.54 306C583.352 273.135 695.642 275.873 747.678 256.702C764.111 251.225 796.976 251.225 832.58 270.396C810.67 289.567 791.499 311.477 769.589 333.388C717.552 382.685 558.704 453.893 569.659 544.273C575.136 588.093 635.389 703.121 835.319 574.399L920.221 563.444C920.221 563.444 1076.33 637.391 1221.49 807.195C1279 872.925 1243.4 944.133 1185.88 960.565C1259.83 974.259 1322.82 870.186 1251.61 798.978L1424.15 705.86L1457.02 623.697Z" fill="#151371"/>
<path d="M1408.15 193L1499 669.557L1424.67 703C1386.12 599.885 1328.31 351.853 1342.07 232.016L1408.15 193Z" fill="white"/>
<path d="M249.941 796.67C236.191 763.873 227.94 720.145 227.94 720.145L159.188 673.684L153.688 725.611L214.19 742.009C222.44 769.339 230.69 791.204 241.691 807.602L249.941 796.67Z" fill="#151371"/>
<path d="M109 716.25L260.959 202L331.31 248.75C342.566 325.75 213.12 677.75 165.281 730L109 716.25Z" fill="white"/>
<path d="M1403.8 195.662C1381.69 209.449 1461.84 686.494 1495 672.707C1600.02 625.83 1647 612.042 1647 612.042V44C1644.24 44 1580.67 90.8773 1403.8 195.662Z" fill="#FF00B8"/>
<path d="M0 0V699.943C0 699.943 49.339 708.178 112.383 721.902C148.017 730.137 276.847 214.1 268.624 205.866C175.428 142.734 0 0 0 0Z" fill="#FFC700"/>
</svg>
