<svg width="200" height="400" viewBox="0 0 1008 1646" fill="none" xmlns="http://www.w3.org/2000/svg">
<path d="M566.002 784.191C563.24 784.189 560.495 783.757 557.866 782.913C554.539 781.861 551.453 780.16 548.788 777.908C546.122 775.656 543.93 772.897 542.338 769.792L516.67 720.002C513.449 713.738 512.845 706.452 514.989 699.743C517.134 693.033 521.852 687.449 528.108 684.214L943.05 470.258C949.314 467.037 956.599 466.433 963.308 468.577C970.017 470.722 975.601 475.441 978.835 481.698L1004.5 531.488C1007.72 537.752 1008.33 545.038 1006.18 551.748C1004.04 558.457 999.321 564.041 993.064 567.276L578.124 781.232C574.378 783.173 570.221 784.188 566.002 784.191Z" fill="#151371"/>
<path d="M716.894 590.236C718.005 591.767 718.949 593.412 719.712 595.143L763.512 690.785C764.924 693.974 765.694 697.409 765.777 700.894C765.86 704.38 765.255 707.848 763.997 711.1C762.739 714.352 760.852 717.324 758.445 719.846C756.037 722.369 753.156 724.392 749.966 725.8L602.648 777.286C587.326 782.634 570.574 782.176 555.568 775.998C540.561 769.82 528.343 758.352 521.229 743.768L522.932 742.938L521.23 743.767C513.783 728.505 512.484 710.966 517.602 694.774C522.72 678.582 533.863 664.974 548.728 656.763L684.567 581.662C690.123 579.174 696.364 578.668 702.248 580.228C708.132 581.789 713.302 585.322 716.894 590.236V590.236Z" fill="white"/>
<path d="M392.097 557.735C504.349 557.735 595.346 466.737 595.346 354.486C595.346 242.234 504.349 151.236 392.097 151.236C279.845 151.236 188.848 242.234 188.848 354.486C188.848 466.737 279.845 557.735 392.097 557.735Z" fill="#151371"/>
<path d="M390.412 1646H334.563C327.54 1645.99 320.807 1643.19 315.841 1638.2C310.875 1633.21 308.082 1626.44 308.074 1619.39V1151.69C308.082 1144.63 310.875 1137.87 315.841 1132.88C320.807 1127.89 327.54 1125.08 334.563 1125.07H390.412C397.435 1125.08 404.168 1127.89 409.134 1132.88C414.1 1137.87 416.893 1144.63 416.901 1151.69V1619.39C416.893 1626.44 414.1 1633.21 409.134 1638.2C404.168 1643.19 397.435 1645.99 390.412 1646Z" fill="#151371"/>
<path d="M511.846 1646H455.585C448.511 1645.99 441.729 1643.19 436.726 1638.2C431.724 1633.21 428.91 1626.44 428.902 1619.39V1151.69C428.91 1144.63 431.724 1137.87 436.726 1132.88C441.729 1127.89 448.511 1125.08 455.585 1125.07H511.846C518.92 1125.08 525.703 1127.89 530.705 1132.88C535.707 1137.87 538.521 1144.63 538.529 1151.69V1619.39C538.521 1626.44 535.707 1633.21 530.705 1638.2C525.703 1643.19 518.92 1645.99 511.846 1646Z" fill="#151371"/>
<g filter="url(#filter0_d)">
<path d="M651.086 864.214C657.54 960.966 551.777 999.368 437.129 1007.02C322.481 1014.66 242.362 988.66 235.908 891.909C229.454 795.157 295.628 625.092 410.276 617.444C524.924 609.797 644.632 767.462 651.086 864.214Z" fill="white"/>
</g>
<path d="M716.174 1047.54C716.174 1213.25 560.491 1266.71 394.986 1266.71C229.481 1266.71 116.828 1213.25 116.828 1047.54C116.828 881.817 228.236 599.346 393.741 599.346C559.246 599.346 716.174 881.817 716.174 1047.54Z" fill="white"/>
<path d="M387.505 429.704L387.293 422.136C401.472 421.745 413.973 420.862 423.367 414.048C426.03 412.006 428.218 409.419 429.784 406.462C431.35 403.505 432.257 400.248 432.442 396.913C432.607 394.875 432.296 392.826 431.534 390.926C430.772 389.027 429.579 387.327 428.048 385.96C421.813 380.731 411.779 382.424 404.466 385.753L398.16 388.624L410.253 300.873L417.804 301.9L407.518 376.544C417.455 373.644 426.662 374.893 432.968 380.181C435.39 382.28 437.289 384.906 438.519 387.855C439.749 390.803 440.276 393.995 440.058 397.179C439.835 401.66 438.628 406.04 436.522 410.009C434.415 413.979 431.459 417.443 427.862 420.16C415.793 428.917 400.108 429.353 387.505 429.704Z" fill="white"/>
<path d="M496.122 308.074H455.312V316.076H496.122V308.074Z" fill="white"/>
<path d="M367.29 308.074H326.48V316.076H367.29V308.074Z" fill="white"/>
<path d="M229.789 298.778C245.588 274.987 273.386 264.903 300.799 262.45C331.654 259.688 361.468 265.64 391.593 271.423C424.747 277.787 459.835 283.742 493.242 275.695C508.02 272.276 521.83 265.544 533.629 256.009C545.429 246.473 554.91 234.382 561.359 220.648C573.59 193.851 576.225 163.659 568.822 135.147C560.993 104.824 541.562 78.1416 518.006 57.9887C469.928 16.8565 404.867 -1.62899 342.289 0.112227C279.948 1.72182 219.695 22.9157 170.066 60.6909C120.354 99.8296 85.372 154.669 70.8301 216.259C55.6239 277.343 60.5775 341.708 84.9511 399.743C98.6449 431.522 118.45 460.171 133.732 491.149C147.961 519.991 158.919 553.525 150.066 585.696C142.297 613.925 119.489 639.005 90.8561 646.669C63.5842 653.969 36.6563 642.004 21.7132 618.432C7.39956 595.853 7.05709 566.28 28.5482 548.05C33.9668 543.378 40.2787 539.856 47.1002 537.701C53.9217 535.545 61.1103 534.8 68.2287 535.51C75.3472 536.221 82.2468 538.372 88.508 541.834C94.7691 545.296 100.261 549.995 104.65 555.647C113.369 566.975 117.271 581.285 115.512 595.474C114.453 602.644 125.423 605.739 126.492 598.502C129.056 583.497 126.213 568.068 118.467 554.965C110.721 541.862 98.5769 531.935 84.1976 526.954C69.8183 521.972 54.1381 522.26 39.9506 527.764C25.7632 533.269 13.9901 543.633 6.72903 557.011C-6.23122 581.388 0.761572 610.789 17.2134 631.626C25.7017 642.724 37.2067 651.142 50.3519 655.87C63.4971 660.599 77.7258 661.439 91.3357 658.289C121.283 651.371 145.781 627.561 157.302 599.581C170.128 568.431 164.251 533.671 151.748 503.444C138.232 470.77 118.161 441.466 102.289 409.979C87.9171 381.525 78.7717 350.72 75.2883 319.031C68.3166 255.397 82.754 191.253 116.316 136.749C150.525 83.0903 202.74 43.3928 263.58 24.7878C323.57 5.94941 389.734 6.52634 448.473 29.6782C506.332 52.4836 562.202 102.183 561.531 168.933C561.244 197.447 550.663 226.525 528.831 245.543C502.739 268.271 466.41 270.214 433.611 266.667C400.604 263.097 368.551 253.454 335.402 250.994C306.569 248.855 275.462 251.079 249.718 265.409C237.729 272.097 227.522 281.569 219.957 293.028C215.89 299.151 225.748 304.862 229.789 298.777L229.789 298.778Z" fill="white"/>
<path d="M164.234 1252.31C162.893 1252.3 161.554 1252.2 160.228 1252L104.948 1243.55C97.9976 1242.48 91.7542 1238.69 87.5871 1233.01C83.4201 1227.32 81.6696 1220.21 82.7198 1213.23L152.849 750.787C153.915 743.812 157.694 737.545 163.358 733.362C169.021 729.18 176.106 727.423 183.058 728.477L238.339 736.923C245.289 737.992 251.533 741.785 255.7 747.469C259.867 753.153 261.618 760.264 260.567 767.242L190.437 1229.69C189.475 1235.98 186.305 1241.71 181.5 1245.86C176.695 1250.01 170.571 1252.29 164.234 1252.31Z" fill="#151371"/>
<g filter="url(#filter1_d)">
<path d="M230.593 937.027C228.701 937.026 226.814 936.823 224.965 936.422L121.803 915.593C118.393 914.859 115.16 913.459 112.289 911.47C109.419 909.482 106.967 906.946 105.074 904.007C103.181 901.067 101.884 897.782 101.257 894.339C100.63 890.896 100.685 887.363 101.42 883.942L146.316 733.933C150.99 718.335 161.206 705 175.025 696.456C188.845 687.911 205.308 684.75 221.295 687.573L220.966 689.446L221.295 687.575C238.025 690.527 252.986 699.815 263.086 713.52C273.186 727.226 277.653 744.3 275.564 761.216L256.531 915.829C255.28 921.808 252.022 927.176 247.3 931.034C242.579 934.892 236.682 937.008 230.593 937.027H230.593Z" fill="white"/>
</g>
<defs>
<filter id="filter0_d" x="235.477" y="612.176" width="425.892" height="401.093" filterUnits="userSpaceOnUse" color-interpolation-filters="sRGB">
<feFlood flood-opacity="0" result="BackgroundImageFix"/>
<feColorMatrix in="SourceAlpha" type="matrix" values="0 0 0 0 0 0 0 0 0 0 0 0 0 0 0 0 0 0 127 0"/>
<feOffset dx="5"/>
<feGaussianBlur stdDeviation="2.5"/>
<feColorMatrix type="matrix" values="0 0 0 0 0 0 0 0 0 0 0 0 0 0 0 0 0 0 0.25 0"/>
<feBlend mode="normal" in2="BackgroundImageFix" result="effect1_dropShadow"/>
<feBlend mode="normal" in="SourceGraphic" in2="effect1_dropShadow" result="shape"/>
</filter>
<filter id="filter1_d" x="100.824" y="686.566" width="185.243" height="260.461" filterUnits="userSpaceOnUse" color-interpolation-filters="sRGB">
<feFlood flood-opacity="0" result="BackgroundImageFix"/>
<feColorMatrix in="SourceAlpha" type="matrix" values="0 0 0 0 0 0 0 0 0 0 0 0 0 0 0 0 0 0 127 0"/>
<feOffset dx="5" dy="5"/>
<feGaussianBlur stdDeviation="2.5"/>
<feColorMatrix type="matrix" values="0 0 0 0 0 0 0 0 0 0 0 0 0 0 0 0 0 0 0.25 0"/>
<feBlend mode="normal" in2="BackgroundImageFix" result="effect1_dropShadow"/>
<feBlend mode="normal" in="SourceGraphic" in2="effect1_dropShadow" result="shape"/>
</filter>
</defs>
</svg>
