<svg width="200" height="300" viewBox="0 0 798 1646" fill="none" xmlns="http://www.w3.org/2000/svg">
<path d="M775.226 720.564L779.009 1204.12C779.054 1210.9 776.422 1217.41 771.69 1222.24C766.957 1227.07 760.511 1229.81 753.765 1229.87L695.991 1230.33C689.245 1230.38 682.757 1227.73 677.949 1222.98C673.142 1218.23 670.408 1211.75 670.347 1204.98L666.563 721.421C666.518 714.647 669.15 708.131 673.883 703.304C678.615 698.476 685.061 695.731 691.807 695.669L749.582 695.213C756.327 695.168 762.816 697.811 767.623 702.564C772.431 707.316 775.165 713.79 775.226 720.564Z" fill="#151371"/>
<path d="M521.49 1646H463.714C456.968 1645.99 450.501 1643.3 445.731 1638.51C440.961 1633.72 438.277 1627.22 438.27 1620.45V1136.87C438.277 1130.1 440.961 1123.6 445.731 1118.81C450.501 1114.02 456.968 1111.33 463.714 1111.32H521.49C528.236 1111.33 534.704 1114.02 539.474 1118.81C544.244 1123.6 546.927 1130.1 546.935 1136.87V1620.45C546.927 1627.22 544.244 1633.72 539.474 1638.51C534.704 1643.3 528.236 1645.99 521.49 1646Z" fill="white"/>
<path d="M635.774 1646H577.995C571.25 1645.99 564.782 1643.3 560.012 1638.51C555.242 1633.72 552.559 1627.22 552.551 1620.45V1136.87C552.559 1130.1 555.242 1123.6 560.012 1118.81C564.782 1114.02 571.25 1111.33 577.995 1111.32H635.774C642.519 1111.33 648.987 1114.02 653.757 1118.81C658.527 1123.6 661.21 1130.1 661.218 1136.87V1620.45C661.21 1627.22 658.527 1633.72 653.757 1638.51C648.987 1643.3 642.519 1645.99 635.774 1646Z" fill="white"/>
<path d="M549.735 553.987C665.442 553.987 759.24 459.793 759.24 343.6C759.24 227.406 665.442 133.213 549.735 133.213C434.029 133.213 340.23 227.406 340.23 343.6C340.23 459.793 434.029 553.987 549.735 553.987Z" fill="#151371"/>
<path d="M518.914 421.586L519.132 413.724C504.567 413.317 491.726 412.4 482.078 405.321C479.342 403.2 477.093 400.512 475.485 397.44C473.876 394.369 472.945 390.985 472.756 387.52C472.586 385.402 472.905 383.274 473.688 381.301C474.47 379.327 475.696 377.562 477.268 376.141C483.674 370.709 493.98 372.467 501.492 375.926L507.97 378.909L495.547 287.746L487.791 288.813L498.357 366.36C488.15 363.346 478.692 364.644 472.215 370.137C469.727 372.318 467.776 375.046 466.513 378.11C465.249 381.173 464.708 384.488 464.932 387.796C465.161 392.452 466.4 397.002 468.564 401.126C470.728 405.25 473.764 408.849 477.46 411.67C489.857 420.769 505.968 421.222 518.914 421.586Z" fill="white"/>
<path d="M449.428 295.49H407.262V303.352H449.428V295.49Z" fill="white"/>
<path d="M582.518 295.49H540.352V303.352H582.518V295.49Z" fill="white"/>
<path d="M441.053 747.547L80.6202 1068.23C75.5658 1072.71 68.9456 1075 62.2119 1074.59C55.4782 1074.19 49.1811 1071.11 44.7017 1066.05L6.38735 1022.62C1.91962 1017.54 -0.360625 1010.9 0.0464721 1004.13C0.453569 997.371 3.51483 991.048 8.55896 986.55L368.992 665.869C374.046 661.383 380.667 659.093 387.4 659.502C394.134 659.911 400.431 662.985 404.91 668.05L443.225 711.477C447.693 716.553 449.973 723.201 449.566 729.963C449.159 736.725 446.097 743.049 441.053 747.547Z" fill="#151371"/>
<path d="M351.377 869.115L238.172 738.754L382.738 612.154C399.955 597.098 422.421 589.523 445.198 591.094C467.974 592.665 489.198 603.254 504.203 620.533C519.208 637.813 526.767 660.368 525.218 683.242C523.669 706.115 513.139 727.435 495.943 742.515L351.377 869.115Z" fill="#FFC700"/>
<g filter="url(#filter0_d)">
<path d="M682.706 841.005H419.962C413.211 841.001 406.738 839.936 401.964 838.042C397.189 836.148 394.504 833.58 394.496 830.901V609.449C394.504 606.77 397.189 604.202 401.964 602.308C406.738 600.414 413.211 599.349 419.962 599.346H682.706C689.458 599.349 695.931 600.414 700.705 602.308C705.479 604.202 708.165 606.77 708.172 609.449V830.901C708.165 833.58 705.479 836.148 700.705 838.042C695.931 839.936 689.458 841.001 682.706 841.005Z" fill="#FFC700"/>
</g>
<path d="M680.861 1201.73H418.339C411.593 1201.72 405.126 1199.02 400.356 1194.23C395.586 1189.44 392.902 1182.95 392.895 1176.17V616.095C392.902 609.32 395.586 602.826 400.356 598.036C405.126 593.245 411.593 590.551 418.339 590.543H680.861C687.607 590.551 694.074 593.245 698.844 598.036C703.615 602.826 706.298 609.32 706.306 616.095V1176.17C706.298 1182.95 703.615 1189.44 698.844 1194.23C694.074 1199.02 687.607 1201.72 680.861 1201.73Z" fill="#FFC700"/>
<path d="M678.884 415.595C659.714 408.084 648.942 389.24 643.541 370.252C637.136 347.734 638.138 324.713 638.402 301.559C638.695 275.937 637.865 249.112 625.708 225.93C614.625 204.796 594.838 190.424 573.021 181.951C519.847 161.301 461.694 178.73 406.603 173.208C381.032 170.645 354.487 163.399 333.988 147.201C316.211 133.155 301.874 112.025 299.672 88.9833C294.836 38.3808 348.863 6.06631 394.17 12.3258C395.669 12.6862 397.249 12.4615 398.59 11.6969C399.931 10.9324 400.932 9.68518 401.393 8.20736C401.797 6.69965 401.593 5.09254 400.826 3.73466C400.058 2.37678 398.788 1.37769 397.291 0.953961C354.741 -4.92477 305.133 16.5685 291.07 59.8573C283.563 82.965 288.975 108.325 301.647 128.533C315.651 150.109 336.371 166.426 360.575 174.941C386.611 184.679 415.037 186.806 442.603 186.231C474.675 185.563 507.086 180.857 539.073 185.356C563.03 188.726 587.509 197.944 604.353 215.977C623.018 235.958 626.414 263.702 626.684 289.95C626.943 315.077 624.803 340.162 630.122 364.945C634.604 385.831 644.057 406.712 661.719 419.53C666.065 422.6 670.784 425.099 675.762 426.966C682.806 429.726 685.859 418.327 678.884 415.594L678.884 415.595Z" fill="white"/>
<g filter="url(#filter1_d)">
<path d="M792.394 868.363H620.152V675.741C620.152 652.804 629.226 630.807 645.377 614.588C661.527 598.369 683.432 589.258 706.273 589.258C729.114 589.258 751.019 598.369 767.17 614.588C783.32 630.807 792.394 652.804 792.394 675.741V868.363Z" fill="#FFC700"/>
</g>
<defs>
<filter id="filter0_d" x="384.496" y="594.346" width="323.676" height="251.659" filterUnits="userSpaceOnUse" color-interpolation-filters="sRGB">
<feFlood flood-opacity="0" result="BackgroundImageFix"/>
<feColorMatrix in="SourceAlpha" type="matrix" values="0 0 0 0 0 0 0 0 0 0 0 0 0 0 0 0 0 0 127 0"/>
<feOffset dx="-5"/>
<feGaussianBlur stdDeviation="2.5"/>
<feColorMatrix type="matrix" values="0 0 0 0 0 0 0 0 0 0 0 0 0 0 0 0 0 0 0.25 0"/>
<feBlend mode="normal" in2="BackgroundImageFix" result="effect1_dropShadow"/>
<feBlend mode="normal" in="SourceGraphic" in2="effect1_dropShadow" result="shape"/>
</filter>
<filter id="filter1_d" x="605.152" y="579.258" width="192.241" height="299.105" filterUnits="userSpaceOnUse" color-interpolation-filters="sRGB">
<feFlood flood-opacity="0" result="BackgroundImageFix"/>
<feColorMatrix in="SourceAlpha" type="matrix" values="0 0 0 0 0 0 0 0 0 0 0 0 0 0 0 0 0 0 127 0"/>
<feOffset dx="-5"/>
<feGaussianBlur stdDeviation="5"/>
<feColorMatrix type="matrix" values="0 0 0 0 0 0 0 0 0 0 0 0 0 0 0 0 0 0 0.25 0"/>
<feBlend mode="normal" in2="BackgroundImageFix" result="effect1_dropShadow"/>
<feBlend mode="normal" in="SourceGraphic" in2="effect1_dropShadow" result="shape"/>
</filter>
</defs>
</svg>
