<svg width="600" height="600" viewBox="0 0 600 600" fill="none" xmlns="http://www.w3.org/2000/svg">
<g clip-path="url(#clip0)">
<path d="M675 675H-75V-75H675V675Z" fill="url(#paint0_linear)"/>
<path d="M360.996 403.874H308.184V356.576H360.996V403.874ZM414.113 320.069H340.054V380.225H414.113V320.069ZM377.082 441.95H442.881V362.639H377.082V441.95ZM400.757 434.192H334.59V491.191H400.757V434.192ZM580.44 284.416H490.23V387.501H580.44V284.416ZM478.458 331.108H456.605V356.576H478.458V331.108ZM544.531 252.277H456.605V304.426H544.531V252.277ZM442.881 270.468H395.532V335.958H442.881V270.468ZM334.59 275.32H308.184V303.213H334.59V275.32ZM299.325 320.069H258.501V382.71H299.325V320.069ZM347.338 441.95H275.708V521.511H347.338V441.95ZM308.184 576.086H388.617V528.788H308.184V576.086ZM500.311 557.894H443.791V599.129H500.313V557.894H500.311ZM637.361 516.659H585.062V578.511H637.361V516.659ZM551.302 544.718H506.381V585.953H551.302V544.718ZM594.357 463.296H528.843V537.278H594.357V463.296ZM610.791 590.639H528.843V644H610.791V590.639ZM340.054 557.894H251.187V637.937H340.052V557.894H340.054ZM630.216 356.576H569.818V403.874H630.216V356.576ZM594.357 424.49H568.208V451.477H594.357V424.49ZM251.187 474.697H300.975V404.294H251.187V474.697ZM321.764 249.852L232 252.277V320.069H321.764V249.852ZM646 252.277H587.725V326.256H646V252.277ZM371.858 245H347.338V298.361H371.858V245ZM641.143 437.983H581.281V486.494H641.143V437.983Z" fill="url(#paint1_linear)" stroke="#FFC700" stroke-width="1.5"/>
<path d="M115.996 319.874H63.1843V272.576H115.996V319.874ZM169.113 236.069H95.0537V296.225H169.113V236.069ZM132.082 357.95H197.881V278.639H132.082V357.95ZM155.757 350.192H89.5904V407.191H155.757V350.192ZM335.44 200.416H245.23V303.501H335.44V200.416ZM233.458 247.108H211.605V272.576H233.458V247.108ZM299.531 168.277H211.605V220.426H299.531V168.277ZM197.881 186.468H150.532V251.958H197.881V186.468ZM89.5904 191.32H63.1843V219.213H89.5904V191.32ZM54.3246 236.069H13.5008V298.71H54.3246V236.069ZM102.338 357.95H30.7084V437.511H102.338V357.95ZM63.1843 492.086H143.617V444.788H63.1843V492.086ZM255.311 473.894H198.791V515.129H255.313V473.894H255.311ZM392.361 432.659H340.062V494.511H392.361V432.659ZM306.302 460.718H261.381V501.953H306.302V460.718ZM349.357 379.296H283.843V453.278H349.357V379.296ZM365.791 506.639H283.843V560H365.791V506.639ZM95.0537 473.894H6.18721V553.937H95.0519V473.894H95.0537ZM385.216 272.576H324.818V319.874H385.216V272.576ZM349.357 340.49H323.208V367.477H349.357V340.49ZM6.18721 390.697H55.9745V320.294H6.18721V390.697ZM76.7643 165.852L-13 168.277V236.069H76.7643V165.852ZM401 168.277H342.725V242.256H401V168.277ZM126.858 161H102.338V214.361H126.858V161ZM396.143 353.983H336.281V402.494H396.143V353.983Z" fill="url(#paint2_linear)" stroke="#FFC700" stroke-width="1.5"/>
<rect x="504" y="328.705" width="8.86149" height="25.1423" fill="white"/>
<rect x="521.754" y="328.858" width="8.83104" height="25.1423" fill="white"/>
<rect x="512.861" y="320" width="8.89195" height="8.85765" fill="white"/>
<rect x="539.415" y="328.858" width="8.89195" height="25.1423" fill="white"/>
<rect x="530.585" y="320" width="8.83105" height="8.85765" fill="white"/>
<rect x="548.308" y="320" width="8.86149" height="8.85765" fill="white"/>
<rect x="557.169" y="327.792" width="8.83104" height="8.85766" fill="white"/>
<rect x="548.308" y="336.65" width="8.86149" height="8.82721" fill="white"/>
<rect x="40" y="390.425" width="7.57515" height="21.4449" fill="white"/>
<rect x="55.1768" y="390.555" width="7.54912" height="21.4449" fill="white"/>
<rect x="47.5752" y="383" width="7.60118" height="7.55506" fill="white"/>
<rect x="70.2744" y="390.555" width="7.60118" height="21.4449" fill="white"/>
<rect x="62.7256" y="383" width="7.54912" height="7.55506" fill="white"/>
<rect x="77.876" y="383" width="7.57515" height="7.55506" fill="white"/>
<rect x="85.4512" y="389.646" width="7.54912" height="7.55506" fill="white"/>
<rect x="77.876" y="397.201" width="7.57515" height="7.52909" fill="white"/>
<path d="M296.327 357.905H294.121V355.7H296.327V357.905Z" fill="#C8C6FF"/>
<path d="M505.689 576.887C500.845 566.418 487.613 550.905 472.911 546.62C454.738 541.319 413.716 534.912 398.505 531.349C386.312 528.491 361.753 506.438 353.146 499.035C351.602 497.712 350.338 494.979 350.307 492.947C350.001 468.984 359.561 405.327 359.561 405.327H295.224H230.889C230.889 405.327 240.448 468.982 240.137 492.947C240.113 494.979 238.843 497.712 237.303 499.035C228.696 506.438 204.137 528.491 191.944 531.349C176.731 534.912 135.709 541.538 117.538 546.838C102.832 551.122 89.6043 566.416 84.7605 576.885C76.5816 594.548 74.6494 626.514 74.6494 654.086H295.224H515.798C515.798 626.516 513.863 594.55 505.689 576.887Z" fill="#7E350D"/>
<path d="M425.706 542.213C479.398 550.025 501.994 561.42 509.07 654.09H515.797C515.797 626.518 513.863 594.553 505.688 576.889C500.845 566.421 487.612 550.908 472.911 546.622C454.738 541.322 413.716 534.914 398.505 531.352C386.312 528.493 358.268 504.73 350.766 495.288C358.177 505.663 378.98 529.708 397.206 536.006C405.925 539.019 413.186 540.391 425.706 542.213ZM193.243 536.006C211.469 529.711 232.269 505.663 239.683 495.288C232.183 504.728 204.139 528.493 191.944 531.352C176.733 534.914 135.711 541.54 117.538 546.84C102.836 551.124 89.6041 566.418 84.7603 576.887C76.5858 594.55 74.6514 626.516 74.6514 654.088H81.3789C88.4108 562.011 111.101 550.014 164.743 542.21C177.26 540.391 184.524 539.019 193.243 536.006Z" fill="#8D451D"/>
<path d="M285.619 572.127C285.619 572.127 274.427 568.578 269.996 566.879C246.948 558.037 172.072 552.306 172.072 552.306C172.072 552.306 250.936 555.436 268.34 558.436C267.329 547.921 261.685 514.312 261.685 514.312C261.685 514.312 273.042 551.402 275.822 560.759C277.308 565.761 285.619 572.127 285.619 572.127ZM309.439 569.167C309.243 569.328 309.018 569.537 308.773 569.758C309.022 569.57 309.247 569.374 309.439 569.167ZM285.619 572.127C285.619 572.127 292.001 578.726 295.208 578.81C299.421 578.923 305.857 572.416 308.775 569.758C305.985 571.869 299.602 572.826 297.063 572.925C294.129 573.038 285.619 572.127 285.619 572.127ZM331.98 555.542C328.572 556.089 322.305 557.282 322.305 557.282L327.35 524.439C325.925 531.213 317.481 560.196 309.439 569.167C313.652 565.602 323.022 563.893 327.8 563.202C350.378 559.929 350.369 559.931 418.372 552.306C418.372 552.306 354.249 551.964 331.98 555.542Z" fill="#6F2700"/>
<path d="M505.689 576.887C500.845 566.418 487.613 550.905 472.911 546.62C454.738 541.319 413.716 534.912 398.505 531.349C386.312 528.491 361.753 506.438 353.146 499.035C351.602 497.712 350.338 494.979 350.308 492.947C350.001 468.984 359.561 405.327 359.561 405.327H295.224H230.889C230.889 405.327 240.448 468.982 240.137 492.947C240.113 494.979 238.843 497.712 237.303 499.035C228.696 506.438 204.137 528.491 191.944 531.349C176.731 534.912 135.709 541.538 117.538 546.838C102.832 551.122 89.6043 566.416 84.7605 576.885C76.5816 594.548 74.6494 626.514 74.6494 654.086H295.224H515.798C515.798 626.516 513.863 594.55 505.689 576.887Z" stroke="#501C00" stroke-width="4.5"/>
<path d="M241.22 495.879C256.614 505.893 277.189 515.32 295.228 515.32C312.494 515.32 333.486 505.816 349.176 495.758C348.856 494.813 348.662 493.856 348.649 492.969C348.371 471.183 356.027 417.928 357.639 406.983H232.808C234.418 417.93 242.076 471.183 241.794 492.967C241.783 493.88 241.571 494.888 241.22 495.879Z" fill="url(#paint3_linear)"/>
<path d="M407.979 531.585C405.401 570.21 409.695 613.965 409.695 613.965C390.821 605.798 354.689 576.296 344.906 573.9C335.038 579.172 329.373 579.018 326.929 579.637C312.48 582.057 290.334 585.798 273.257 577.105C268.72 577.189 263.77 578.826 258.913 582.472C227.342 606.126 205.781 608.25 189.34 619.621C193.314 552.95 186.986 553.713 185.495 530.928C182.599 529.838 182.18 529.415 180.647 526.669C155.755 534.4 107.24 541.304 82.9987 565.413C61.3891 586.903 54.4057 620.772 57.9525 651.476C190.95 650.04 398.903 648.311 532.562 649.628C534.512 551.135 482.022 550.742 407.979 531.585Z" fill="#DCC96B"/>
<path d="M343.877 579.075C338.892 577.833 334.968 578.91 331.227 578.907C334.351 578.334 338.822 577.152 344.907 573.9C353.516 576.013 389.029 602.813 408.731 613.897C386.426 608.164 363.145 584.982 343.877 579.075ZM281.234 580.255C278.552 579.459 275.888 578.44 273.256 577.103C268.719 577.187 263.769 578.824 258.912 582.47C233.87 601.229 206.041 612.181 191.156 619.206C265.15 598.849 252.805 580.586 281.234 580.255Z" fill="#CDB84F"/>
<path d="M183.138 528.711C105.079 551.033 64.4339 560.251 58.2953 651.47C58.1806 651.472 58.0637 651.474 57.9468 651.474C56.6035 639.821 56.7822 627.714 58.6968 615.999C61.8201 596.84 69.5887 578.746 82.9952 565.41C107.236 541.299 155.752 534.395 180.643 526.667C180.727 526.821 183.059 528.566 183.138 528.711ZM407.978 531.585C407.958 531.89 407.502 533.736 407.484 534.036C469.024 552.033 527.238 556.265 531.513 649.615C531.855 649.617 532.212 649.621 532.556 649.623C534.51 551.135 477.907 543.743 407.978 531.585Z" fill="#EBDB8A"/>
<path d="M533.858 650.329C533.858 650.329 465.824 651.229 420.66 651.494C390.066 651.69 359.486 651.856 328.892 651.986C131.659 652.692 121.877 651.807 56.5228 651.807C56.5228 651.807 55.3934 645.488 55.1376 639.272C51.2974 545.823 128.717 540.761 180.843 525.597C181.496 525.407 182.195 525.685 182.539 526.272C183.43 527.794 185.082 528.954 185.221 529.025C185.243 529.823 185.292 530.599 185.342 531.402C183.41 530.672 183.132 530.319 180.933 528.043C180.728 527.822 180.499 527.646 180.223 527.743C175.604 529.417 170.083 530.156 165.224 531.689C176.05 547.956 175.176 551.003 189.547 568.013C189.566 568.227 189.712 571.203 189.738 572.458C175.739 558.171 172.69 549.931 162.82 532.419C121.583 545.508 81.7586 547.727 63.4951 598.214C57.4845 614.85 56.3397 634.576 58.2719 651.624C202.038 650.065 387.43 648.558 532.425 649.773C530.731 555.24 480.272 546.565 427.489 536.447C423.887 545.316 414.349 557.697 407.683 564.687C407.635 563.255 407.589 561.791 407.562 560.359C411.204 555.628 421.434 541.127 423.865 535.673C418.67 534.21 413.495 533.829 408.325 532.302C408.325 531.614 408.325 530.966 408.325 530.306C524.025 544.14 533.858 575.694 533.858 650.329ZM345.12 574.503C344.586 574.28 344.054 574.139 343.514 574.068C337.801 575.462 335.829 577.028 326.236 578.921C318.642 580.423 297.599 583.603 281.239 579.435C281.325 579.673 281.239 579.435 281.239 579.435C278.751 578.06 276.32 577.659 273.365 577.73C292.129 588.385 331.018 580.76 345.12 574.503ZM372.089 591.729C371.432 591.264 370.801 590.805 370.173 590.315C327.966 611.828 287.568 611.343 244.915 601.836C242.217 601.135 239.546 600.349 236.897 599.527C236.072 599.963 235.223 600.405 234.345 600.786C278.056 618.551 331.94 616.299 372.089 591.729Z" fill="#AE9620"/>
<path d="M189.446 620.009C193.556 551.475 183.109 545.312 185.679 517.111C193.873 512.314 202.001 510.847 206.102 506.074C225.669 483.191 223.382 473.418 236.098 467.434C238.626 478.015 240.159 502.853 240.174 503.178C249.773 531.629 256.309 543.788 264.175 555.224C268.743 561.85 278.497 572.019 280.83 578.938C276.141 576.585 268.015 576.578 259.011 582.851C244.413 592.934 249.685 595.334 219.27 606.367C208.482 610.249 199.171 615.523 189.446 620.009ZM407.314 560.048C407.305 559.349 408.095 524.055 408.188 521.121C392.538 515.389 375.882 471.975 354.504 469.033C348.194 508.509 355.689 494.317 336.889 542.12C332.246 553.93 330.492 558.392 329.634 577.97C330.115 577.844 330.947 577.621 330.989 577.621C337.469 575.914 339.631 574.888 343.568 573.825C345.58 574.24 348.928 575.963 349.55 576.457L349.532 576.43C367.688 586.125 384.624 603.605 409.793 614.358C410.303 604.871 407.314 581.336 407.314 560.048Z" fill="white"/>
<path d="M333.619 576.894C332.819 577.123 331.965 577.359 330.99 577.617C330.946 577.617 330.117 577.842 329.636 577.965C330.494 558.387 332.248 553.925 336.891 542.116C355.69 494.313 348.195 508.507 354.506 469.028C358.787 469.615 362.883 472.149 366.818 475.833C364.112 496.788 358.348 513.331 349.953 532.227C359.793 526.664 370.462 519.851 380.11 514.524C360.053 532.578 340.01 550.636 333.619 576.894ZM280.832 578.938C278.496 572.019 268.744 561.85 264.176 555.224C256.31 543.788 249.775 531.632 240.175 503.178C240.16 502.853 238.627 478.015 236.099 467.434C228.057 471.214 228.732 473.952 223.37 483.116C227.689 505.454 236.417 519.655 248.795 538.227C238.243 531.27 223.513 519.379 208.936 512.095C233.494 530.509 251.151 554.104 267.725 578.506C273.105 576.869 277.724 577.383 280.832 578.938Z" fill="#DEDBD4"/>
<path d="M264.376 555.09C252.383 537.649 246.928 521.805 240.417 503.167C240.417 503.167 239.354 477.503 236.751 467.089C223.647 473.102 225.599 480.467 205.917 503.482C200.352 509.96 192.797 512.68 185.434 517.091C183.546 537.823 189.367 553.671 189.736 572.464C190.261 586.308 190.205 603.521 189.178 620.4C198.993 615.895 208.423 610.524 219.352 606.596C249.802 595.554 244.573 593.117 259.15 583.052C268.558 576.494 276.836 576.922 281.239 579.435C279.247 572.436 269.076 561.908 264.376 555.09ZM230.844 599.357C211.533 606.96 216.829 603.424 190.318 618.626C197.725 566.088 186.48 541.787 186.48 518.108C194.107 514.162 201.435 512.014 207.06 505.575C228.116 481.361 223.728 475.432 235.388 468.307C236.118 475.255 236.7 482.254 237.066 489.275C238.308 514.118 234.995 497.149 244.769 522.751C259.214 560.586 273 564.517 279.536 577.591C260.988 569.509 247.784 593.71 230.844 599.357ZM407.561 560.044C407.548 559.078 408.419 521.161 408.437 520.956C392.759 515.53 375.333 471.386 353.576 468.768C351.736 480.075 349.564 504.554 349.564 504.554C334.73 554.241 330.78 545.634 329.375 578.296C329.381 578.296 330.947 577.862 331.051 577.855C337.236 576.223 339.587 575.193 343.516 574.07C344.135 574.191 345.146 574.5 345.75 574.767C345.834 574.811 349.5 576.618 349.42 576.644C367.69 586.407 384.575 603.938 410.021 614.715C410.614 605.429 407.561 581.565 407.561 560.044ZM392.47 602.518C375.439 592.307 363.65 579.933 345.58 572.557C340.686 570.492 334.39 574.692 330.085 577.855C332.46 557.082 331.644 561.795 336.058 549.864C356.393 494.639 350.704 525.897 355.471 469.953C374.118 476.177 391.184 516.167 406.467 521.097C401.557 579.203 408.146 599.809 408.922 612.988C403.243 609.931 397.989 605.822 392.47 602.518Z" fill="#AFA9A0"/>
<path d="M178.322 319.814C175.287 314.404 165.886 301.11 156.309 304.368C150.245 306.43 149.045 313.175 148.07 319.131C146.773 327.051 149.109 342.719 151.134 348.379C153.077 353.82 158.927 364.326 162.745 368.33C167.443 373.237 173.277 388.896 174.202 390.522C175.657 393.085 177.59 396.943 183.294 396.459C189.587 395.921 193.405 392.379 196.21 391.781C203.141 390.312 186.221 333.898 178.322 319.814Z" fill="#7E350D" stroke="#501C00" stroke-width="4.5"/>
<path d="M172.138 352.62C171.847 351.339 172.153 349.179 172.451 347.097C172.725 345.198 172.981 343.403 172.824 342.132C172.235 337.381 168.913 328.348 166.743 323.456C164.246 317.823 160.207 310.729 155.136 308.9C153.041 308.144 151.662 309.048 150.861 309.968C150.275 310.641 150.145 311.435 150.336 311.527C150.526 311.62 150.965 310.967 151.598 310.347C152.116 309.842 152.875 309.408 153.916 309.498C153.497 311.865 151.342 324.68 152.275 333.419C153.01 340.29 155.789 345.423 156.224 346.193C156.287 347.002 156.393 347.794 156.55 348.564C158.599 358.593 167.515 369.997 170.618 373.729C171.189 374.42 171.789 374.826 171.937 374.662C172.083 374.495 171.73 373.809 171.159 373.118C168.097 369.415 159.267 358.051 157.287 348.374C155.187 338.104 162.4 322.885 164.01 319.662C164.828 321.173 165.525 322.627 166.061 323.838C166.48 324.788 166.948 325.902 167.426 327.1C166.48 328.781 159.852 341.04 162.269 350.849C163.165 354.469 167.199 359.132 169.873 360.407C171.344 361.112 171.9 362.165 172.539 363.382C173.281 364.794 174.123 366.393 176.571 367.555C177.068 367.794 177.518 367.888 177.917 367.888C178.607 367.888 179.132 367.591 179.516 367.242C179.556 367.86 179.554 368.654 179.536 369.382C179.51 370.332 179.629 371.109 179.838 371.127C180.046 371.144 180.271 370.394 180.295 369.45C180.33 368.29 180.323 366.854 180.136 366.168C179.589 364.145 177.913 361.86 176.137 359.445C174.397 357.058 172.592 354.603 172.138 352.62ZM156.153 343.729C151.351 327.982 157.6 314.393 158.676 312.231C160.551 314.044 162.206 316.464 163.551 318.837C162.572 320.73 156.354 333.137 156.153 343.729ZM176.867 366.761C174.653 365.714 173.914 364.302 173.192 362.939C172.546 361.706 171.873 360.433 170.173 359.619C169.802 359.44 169.396 359.171 168.977 358.863C163.494 345.048 169.577 339.009 171.101 337.771C171.567 339.461 171.915 341.009 172.07 342.251C172.209 343.392 171.955 345.205 171.701 346.958C171.388 349.131 171.07 351.379 171.399 352.834C171.898 355 173.757 357.535 175.555 359.985C177.149 362.16 178.788 364.403 179.351 366.232C179.113 366.594 178.358 367.469 176.867 366.761Z" fill="#501C00"/>
<path d="M411.545 319.814C414.582 314.404 423.983 301.11 433.558 304.368C439.624 306.43 440.822 313.175 441.799 319.131C443.096 327.051 440.76 342.719 438.735 348.379C436.792 353.82 430.942 364.326 427.12 368.33C422.424 373.237 416.587 388.896 415.665 390.522C414.214 393.085 412.28 396.943 406.576 396.459C400.28 395.921 396.464 392.379 393.657 391.781C386.726 390.312 403.649 333.898 411.545 319.814Z" fill="#7E350D" stroke="#501C00" stroke-width="4.5"/>
<path d="M413.731 359.441C411.955 361.858 410.281 364.141 409.732 366.164C409.542 366.85 409.538 368.286 409.573 369.446C409.599 370.39 409.822 371.14 410.029 371.122C410.237 371.104 410.356 370.328 410.332 369.377C410.314 368.647 410.314 367.855 410.354 367.238C410.737 367.586 411.262 367.884 411.953 367.884C412.354 367.884 412.802 367.789 413.296 367.551C415.742 366.391 416.587 364.789 417.328 363.378C417.966 362.16 418.526 361.11 419.995 360.402C422.671 359.127 426.703 354.464 427.598 350.845C430.016 341.036 423.39 328.776 422.441 327.096C422.92 325.896 423.39 324.782 423.806 323.833C424.345 322.622 425.039 321.169 425.858 319.658C427.468 322.878 434.681 338.1 432.583 348.37C430.607 358.046 421.775 369.41 418.711 373.114C418.142 373.804 417.789 374.49 417.935 374.658C418.08 374.821 418.68 374.417 419.254 373.725C422.355 369.993 431.273 358.589 433.324 348.56C433.479 347.788 433.582 346.998 433.646 346.188C434.081 345.419 436.864 340.286 437.597 333.415C438.528 324.678 436.373 311.86 435.956 309.494C436.999 309.401 437.751 309.838 438.274 310.343C438.907 310.963 439.346 311.616 439.536 311.523C439.725 311.43 439.595 310.636 439.011 309.964C438.21 309.044 436.831 308.139 434.736 308.896C429.665 310.727 425.624 317.818 423.129 323.452C420.959 328.344 417.637 337.376 417.046 342.128C416.887 343.398 417.145 345.194 417.421 347.093C417.719 349.177 418.023 351.337 417.732 352.616C417.28 354.603 415.475 357.058 413.731 359.441ZM426.319 318.835C427.667 316.464 429.321 314.042 431.196 312.229C432.272 314.39 438.519 327.98 433.721 343.727C433.516 333.137 427.3 320.73 426.319 318.835ZM410.517 366.232C411.077 364.403 412.718 362.16 414.313 359.985C416.113 357.535 417.97 355 418.471 352.834C418.797 351.379 418.48 349.131 418.169 346.958C417.915 345.205 417.661 343.392 417.802 342.251C417.952 341.009 418.303 339.459 418.769 337.771C420.293 339.009 426.376 345.048 420.897 358.863C420.476 359.171 420.07 359.443 419.699 359.619C417.999 360.433 417.33 361.706 416.68 362.939C415.961 364.302 415.219 365.714 413.005 366.761C411.512 367.469 410.757 366.594 410.517 366.232Z" fill="#501C00"/>
<path d="M295.229 138.141C221.076 138.258 160.855 199.171 160.97 274.219C160.99 286.137 162.523 297.693 165.386 308.704H165.388C165.414 308.823 188.083 378.039 193.948 405.878C199.198 430.798 222.532 451.012 233.034 462.027C245.099 474.693 260.18 493.43 295.229 493.265C330.276 493.43 345.359 474.693 357.424 462.027C367.926 451.012 391.26 430.798 396.51 405.878C402.375 378.039 425.046 308.825 425.068 308.704H425.072C427.935 297.693 429.47 286.137 429.488 274.219C429.605 199.171 369.382 138.258 295.229 138.141Z" fill="#7E350D"/>
<path d="M369.049 160.63C401.262 185.328 422.276 225.671 422.208 271.259C422.19 283.177 420.743 294.735 418.034 305.744H418.03C418.006 305.863 396.568 375.075 391.018 402.911C386.053 427.836 363.985 448.045 354.05 459.065C342.64 471.73 328.375 490.468 295.23 490.303C262.082 490.468 247.817 471.73 236.407 459.065C226.477 448.045 204.406 427.836 199.441 402.911C193.891 375.075 172.454 305.863 172.427 305.744H172.425C169.716 294.733 168.267 283.177 168.25 271.259C168.183 225.671 189.197 185.328 221.41 160.633C184.967 184.986 160.9 226.765 160.973 274.219C160.993 286.137 162.526 297.693 165.389 308.704H165.391C165.417 308.823 188.086 378.039 193.951 405.878C199.201 430.798 222.535 451.012 233.037 462.027C245.102 474.693 260.183 493.43 295.232 493.265C330.279 493.43 345.362 474.693 357.427 462.027C367.929 451.012 391.263 430.798 396.513 405.878C402.378 378.039 425.049 308.825 425.071 308.704H425.075C427.938 297.693 429.473 286.137 429.491 274.219C429.559 226.765 405.492 184.984 369.049 160.63Z" fill="#762E06"/>
<path d="M295.229 138.141C221.076 138.258 160.855 199.171 160.97 274.219C160.99 286.137 162.523 297.693 165.386 308.704H165.388C165.414 308.823 188.083 378.039 193.948 405.878C199.198 430.798 222.532 451.012 233.034 462.027C245.099 474.693 260.18 493.43 295.229 493.265C330.276 493.43 345.359 474.693 357.424 462.027C367.926 451.012 391.26 430.798 396.51 405.878C402.375 378.039 425.046 308.825 425.068 308.704H425.072C427.935 297.693 429.47 286.137 429.488 274.219C429.605 199.171 369.382 138.258 295.229 138.141Z" stroke="#501C00" stroke-width="4.5"/>
<path d="M295.187 447.628C288.04 447.628 284.703 439.246 284.703 439.246C284.703 439.246 295.348 439.685 305.17 441.304C305.17 441.304 301.471 447.628 295.187 447.628Z" fill="url(#paint4_linear)"/>
<path d="M268.297 435.263C267.474 434.535 271.667 427.823 276.957 426.341C283.642 424.395 289.659 426.398 294.583 427.252C299.069 428.032 305.702 427.36 310.085 428.529C315.045 429.852 328.754 435.77 327.689 436.911C327.164 437.473 316.742 433.214 309.875 431.886C305.508 431.039 299.109 431.696 294.713 430.975C290.165 430.232 284.853 428.306 278.681 429.199C273.083 430.009 269.234 436.092 268.297 435.263Z" fill="#501C00"/>
<path d="M255.877 330.994C249.34 329.438 246.013 333.096 236.404 333.309C220.41 333.66 216.676 332.082 214.173 328.072C213.134 326.41 212.142 324.244 211.663 322.908L211.465 314.672C214.101 306.832 250.257 306.032 262.881 318.213C263.45 319.535 263.74 320.768 263.804 321.92C263.427 323.821 262.787 325.648 261.924 327.377C260.522 328.985 258.426 330.208 255.877 330.994Z" fill="url(#paint5_radial)"/>
<path d="M235.566 320.675L226.758 318.666C226.565 319.52 226.454 320.403 226.454 321.314C226.454 322.225 226.567 323.111 226.76 323.962L238.365 321.314L235.566 320.675Z" fill="#EA2E2E"/>
<path d="M229.061 328.737C230.17 330.126 231.584 331.254 233.202 332.034L238.363 321.316L229.061 328.737Z" fill="#F09330"/>
<path d="M238.365 333.225C240.217 333.225 241.964 332.79 243.527 332.036L238.365 321.316V333.225Z" fill="#64398E"/>
<path d="M238.365 321.316L247.672 328.737C248.771 327.361 249.568 325.739 249.971 323.964L238.365 321.316Z" fill="#393B97"/>
<path d="M238.365 321.314L241.99 320.488L249.971 318.666C249.568 316.891 248.771 315.269 247.672 313.894L238.365 321.314Z" fill="#00AA4F"/>
<path d="M243.527 310.592C241.962 309.838 240.217 309.403 238.365 309.403V321.312L243.527 310.592Z" fill="#FAE636"/>
<path d="M233.2 310.594C231.584 311.375 230.168 312.502 229.059 313.894L238.363 321.314L233.2 310.594Z" fill="#9C2D91"/>
<path d="M238.365 321.314L249.971 323.962C250.163 323.111 250.276 322.225 250.276 321.314C250.276 320.403 250.163 319.518 249.971 318.666L241.99 320.488L238.365 321.314Z" fill="#EA2E2E"/>
<path d="M238.365 321.314L243.529 332.036C245.147 331.254 246.562 330.126 247.672 328.737L238.365 321.314Z" fill="#9B328D"/>
<path d="M238.365 321.316L233.203 332.036C234.765 332.79 236.512 333.225 238.365 333.225V321.316Z" fill="#FDE92B"/>
<path d="M238.365 321.316L226.762 323.964C227.165 325.739 227.963 327.363 229.061 328.739L238.365 321.316Z" fill="#00AA4F"/>
<path d="M238.366 321.314V309.403C236.511 309.403 234.766 309.838 233.202 310.592L238.366 321.314Z" fill="#65378F"/>
<path d="M238.365 321.314L247.672 313.892C246.562 312.502 245.147 311.373 243.529 310.592L238.365 321.314Z" fill="#EC9236"/>
<path d="M238.365 321.314L229.059 313.892C227.959 315.267 227.163 316.891 226.76 318.664L235.566 320.675L238.365 321.314Z" fill="#393B97"/>
<path opacity="0.3" d="M238.367 309.403C244.946 309.403 250.278 314.735 250.278 321.314C250.278 327.893 244.946 333.225 238.367 333.225C231.788 333.225 226.456 327.893 226.456 321.314C226.456 314.735 231.788 309.403 238.367 309.403Z" fill="black"/>
<path d="M242.997 321.314C242.997 323.873 240.925 325.946 238.366 325.946C235.807 325.946 233.734 323.871 233.734 321.314C233.734 318.757 235.807 316.683 238.366 316.683C240.925 316.683 242.997 318.755 242.997 321.314Z" fill="black"/>
<path opacity="0.6" d="M233.936 329.4C233.315 330.021 232.088 329.801 231.197 328.911C230.305 328.02 230.085 326.793 230.708 326.172C231.33 325.551 232.554 325.769 233.446 326.66C234.337 327.552 234.557 328.778 233.936 329.4Z" fill="white"/>
<path opacity="0.9" d="M247.376 319.101C246.446 320.032 244.195 319.287 242.347 317.441C240.499 315.595 239.756 313.342 240.686 312.413C241.617 311.482 243.87 312.224 245.714 314.072C247.562 315.919 248.307 318.172 247.376 319.101Z" fill="white"/>
<path d="M197.629 321.014C196.871 327.573 217.191 364.696 237.473 364.696C257.756 364.696 276.184 354.191 276.184 321.016C276.184 285.702 257.756 277.341 237.473 277.341C217.191 277.341 201.395 288.47 197.629 321.014ZM211.666 322.91L211.468 314.674C214.104 306.834 250.26 306.034 262.883 318.215C265.655 324.629 262.071 329.088 255.878 330.996C249.341 329.44 246.013 333.098 236.405 333.311C220.411 333.662 216.677 332.084 214.173 328.074C213.135 326.41 212.143 324.246 211.666 322.91Z" fill="#7E350D"/>
<path d="M209.479 317.667C209.524 332.624 224.657 344.674 243.302 344.598C261.941 344.513 277.02 332.332 276.972 317.376C276.927 302.421 261.792 290.367 243.145 290.445C224.5 290.532 209.429 302.711 209.479 317.667ZM211.666 322.91L211.468 314.674C214.104 306.834 250.26 306.034 262.884 318.215C265.655 324.629 262.072 329.088 255.878 330.996C249.341 329.44 246.014 333.098 236.405 333.311C220.411 333.662 216.677 332.084 214.174 328.074C213.135 326.41 212.143 324.246 211.666 322.91Z" fill="url(#paint6_radial)"/>
<path d="M214.173 328.074C213.134 326.412 212.142 324.246 211.663 322.91L211.465 314.674C214.101 306.834 250.257 306.034 262.881 318.215C265.652 324.629 262.069 329.088 255.875 330.996C249.338 329.44 246.011 333.098 236.403 333.311C220.412 333.662 216.676 332.082 214.173 328.074Z" fill="url(#paint7_radial)"/>
<path d="M268.57 315.248C249.479 303.811 235.416 303.082 212.753 304.54C231.67 301.56 253.457 303.722 268.57 315.248Z" fill="#501C00"/>
<path d="M266.119 323.367C259.687 306.86 214.618 306.763 211.664 315.067V322.799C209.637 319.744 209.585 319.557 208.72 316.042L204.362 317.523C204.362 317.523 209.814 309.834 214.882 308.826C258.925 300.053 265.742 320.719 266.119 323.367ZM259.197 331.58C250.015 327.649 247.405 332.33 236.242 332.562C220.353 332.896 217.25 331.042 214.157 327.647C215.771 331.798 216.887 333.771 235.746 333.656C246.418 333.59 252.248 329.181 259.197 331.58Z" fill="black"/>
<path d="M333.688 330.994C340.226 329.437 343.553 333.096 353.161 333.308C369.155 333.66 372.89 332.082 375.393 328.072C376.431 326.41 377.424 324.244 377.902 322.908L378.101 314.672C375.464 306.832 339.308 306.032 326.685 318.213C326.115 319.535 325.825 320.768 325.762 321.919C326.139 323.821 326.778 325.648 327.642 327.377C329.043 328.985 331.14 330.208 333.688 330.994Z" fill="url(#paint8_radial)"/>
<path d="M349.196 320.675L340.386 318.666C340.191 319.519 340.082 320.403 340.082 321.314C340.082 322.225 340.195 323.111 340.388 323.962L351.991 321.314L349.196 320.675Z" fill="#EA2E2E"/>
<path d="M342.688 328.737C343.798 330.126 345.214 331.254 346.83 332.034L351.991 321.316L342.688 328.737Z" fill="#F09330"/>
<path d="M351.995 333.225C353.847 333.225 355.594 332.79 357.157 332.036L351.993 321.316L351.995 333.225Z" fill="#64398E"/>
<path d="M351.993 321.316L361.3 328.737C362.397 327.361 363.191 325.739 363.596 323.964L351.993 321.316Z" fill="#393B97"/>
<path d="M351.993 321.314L355.616 320.488L363.598 318.666C363.193 316.891 362.399 315.269 361.302 313.893L351.993 321.314Z" fill="#00AA4F"/>
<path d="M357.157 310.592C355.592 309.838 353.845 309.403 351.993 309.403V321.312L357.157 310.592Z" fill="#FAE636"/>
<path d="M346.829 310.594C345.215 311.374 343.797 312.502 342.686 313.893L351.992 321.314L346.829 310.594Z" fill="#9C2D91"/>
<path d="M351.993 321.314L363.598 323.962C363.793 323.109 363.904 322.225 363.904 321.314C363.904 320.403 363.791 319.517 363.598 318.666L355.616 320.488L351.993 321.314Z" fill="#EA2E2E"/>
<path d="M351.993 321.314L357.157 332.036C358.773 331.254 360.192 330.126 361.302 328.737L351.993 321.314Z" fill="#9B328D"/>
<path d="M351.993 321.316L346.83 332.036C348.392 332.79 350.141 333.225 351.993 333.225H351.995L351.993 321.316Z" fill="#FDE92B"/>
<path d="M351.991 321.316L340.388 323.964C340.793 325.739 341.587 327.363 342.687 328.739L351.991 321.316Z" fill="#00AA4F"/>
<path d="M351.993 321.314V309.403C350.139 309.403 348.394 309.838 346.83 310.592L351.993 321.314Z" fill="#65378F"/>
<path d="M351.993 321.314L361.3 313.891C360.19 312.502 358.773 311.372 357.155 310.592L351.993 321.314Z" fill="#EC9236"/>
<path d="M351.991 321.314L342.685 313.891C341.587 315.267 340.793 316.891 340.388 318.664L349.196 320.675L351.991 321.314Z" fill="#393B97"/>
<path opacity="0.3" d="M351.994 309.403C358.571 309.403 363.905 314.735 363.905 321.314C363.905 327.893 358.571 333.225 351.994 333.225C345.417 333.225 340.083 327.893 340.083 321.314C340.083 314.735 345.417 309.403 351.994 309.403Z" fill="black"/>
<path d="M356.624 321.314C356.624 323.873 354.552 325.945 351.993 325.945C349.434 325.945 347.361 323.871 347.361 321.314C347.361 318.757 349.434 316.683 351.993 316.683C354.552 316.683 356.624 318.755 356.624 321.314Z" fill="black"/>
<path opacity="0.6" d="M347.564 329.4C346.942 330.021 345.718 329.801 344.826 328.911C343.935 328.02 343.713 326.793 344.338 326.172C344.959 325.55 346.184 325.769 347.075 326.66C347.965 327.551 348.183 328.778 347.564 329.4Z" fill="white"/>
<path opacity="0.9" d="M361.004 319.101C360.075 320.032 357.822 319.287 355.976 317.441C354.129 315.595 353.385 313.344 354.314 312.413C355.245 311.482 357.498 312.224 359.343 314.072C361.191 315.918 361.935 318.172 361.004 319.101Z" fill="white"/>
<path d="M352.095 277.341C331.812 277.341 313.384 285.702 313.384 321.016C313.384 354.19 331.812 364.696 352.095 364.696C372.377 364.696 391.581 328.899 391.937 321.014C393.418 288.285 372.377 277.341 352.095 277.341ZM375.392 328.074C372.889 332.084 369.153 333.662 353.161 333.31C343.552 333.098 340.225 329.439 333.688 330.996C327.494 329.088 323.911 324.629 326.682 318.215C339.306 306.034 375.462 306.834 378.098 314.674L377.9 322.91C377.425 324.246 376.433 326.41 375.392 328.074Z" fill="#7E350D"/>
<path d="M346.421 290.445C327.774 290.365 312.641 302.421 312.596 317.375C312.546 332.334 327.628 344.513 346.266 344.598C364.909 344.671 380.042 332.622 380.088 317.667C380.139 302.711 365.068 290.532 346.421 290.445ZM375.393 328.074C372.889 332.084 369.153 333.662 353.161 333.31C343.553 333.098 340.225 329.439 333.688 330.996C327.495 329.088 323.911 324.629 326.683 318.215C339.306 306.034 375.462 306.834 378.098 314.674L377.9 322.91C377.425 324.246 376.433 326.41 375.393 328.074Z" fill="url(#paint9_radial)"/>
<path d="M375.393 328.074C376.431 326.412 377.424 324.246 377.902 322.91L378.101 314.674C375.464 306.834 339.309 306.034 326.685 318.215C323.914 324.629 327.497 329.088 333.691 330.996C340.228 329.439 343.555 333.098 353.163 333.31C369.156 333.662 372.89 332.082 375.393 328.074Z" fill="url(#paint10_radial)"/>
<path d="M320.997 315.247C340.088 303.811 354.151 303.082 376.814 304.539C357.897 301.56 336.11 303.721 320.997 315.247Z" fill="#501C00"/>
<path d="M374.686 308.823C379.754 309.832 385.206 317.52 385.206 317.52L380.848 316.039C379.981 319.555 379.929 319.742 377.904 322.797V315.065C374.952 306.761 329.883 306.858 323.449 323.365C323.826 320.718 330.641 300.053 374.686 308.823ZM353.82 333.658C372.679 333.773 373.797 331.798 375.409 327.649C372.316 331.043 369.213 332.897 353.324 332.564C342.163 332.332 339.551 327.649 330.37 331.581C337.318 329.181 343.15 333.59 353.82 333.658Z" fill="black"/>
<path d="M385.659 387.625C385.736 437.524 345.312 478.048 295.361 478.116C245.418 478.198 204.863 437.81 204.786 387.901C204.709 338.007 245.134 297.325 295.083 297.245C345.027 297.168 385.586 337.721 385.659 387.625Z" fill="url(#paint11_radial)"/>
<path d="M377.939 255.336C377.939 301.019 340.907 338.051 295.226 338.051C249.543 338.051 212.509 301.019 212.509 255.336C212.509 209.653 249.543 172.621 295.226 172.621C340.907 172.621 377.939 209.653 377.939 255.336Z" fill="url(#paint12_radial)"/>
<path d="M281.327 308.817C261.087 301.24 253.065 293.967 235.604 287.392C221.245 281.984 206.175 280.982 191.333 284.106C209.475 286.025 217.617 286.091 236.145 293.509C251.162 299.519 265.159 307.996 281.327 308.817Z" fill="#C8C6FF"/>
<path d="M309.562 309.478C329.801 301.493 338.265 293.052 355.725 286.122C370.085 280.422 385.154 279.365 399.997 282.659C381.855 284.681 373.713 284.75 355.185 292.569C340.168 298.904 325.73 308.614 309.562 309.478Z" fill="#C8C6FF"/>
<path d="M288.235 331.489C288.235 331.489 285.149 356.011 283.766 360.784C280.724 371.265 270.161 385.967 272.21 392.61C276.31 405.893 288.835 402.521 295.423 402.472C301.518 402.424 313.228 405.896 315.632 397.245C316.409 394.452 314.659 387.394 314.659 387.394C314.659 387.394 308.827 394.258 295.083 393.497C291.162 393.279 284.78 388.874 284.708 382.663C284.613 374.243 288.682 367.145 289.571 358.788C290.242 352.439 288.235 331.489 288.235 331.489Z" fill="#6F2700"/>
<path d="M306.68 398.643C309.051 398.643 309.693 399.362 309.693 400.251C309.693 401.142 308.954 402.514 306.68 401.861C304.179 401.149 299.814 401.475 299.814 401.475C299.814 401.475 304.304 398.643 306.68 398.643ZM284.023 398.643C281.647 398.645 281.01 399.367 281.01 400.26C281.007 401.149 281.722 402.428 284.023 401.868C286.559 401.246 290.887 401.482 290.887 401.482C290.887 401.482 286.398 398.652 284.023 398.643ZM314.656 387.394C314.656 387.394 317.94 391.658 317.259 396.162C316.595 400.536 309.958 402.472 309.958 402.472C309.958 402.472 314.566 399.128 315.124 395.07C315.384 393.166 314.656 387.394 314.656 387.394ZM274.108 383.013C274.108 383.013 271.712 388.978 272.405 392.613C273.664 399.177 280.575 401.797 280.575 401.797C280.575 401.797 276.263 397.3 274.73 393.323C273.051 388.978 274.108 383.013 274.108 383.013Z" fill="#501C00"/>
<path d="M306.564 390.575C308.865 388.614 309.096 387.495 308.62 386.761C308.146 386.024 306.765 385.559 304.839 387.925C302.715 390.528 298.099 392.456 298.099 392.456C298.099 392.456 304.264 392.531 306.564 390.575Z" fill="#8D451D"/>
<path d="M232.801 419.82C233.375 422.423 232.978 423.394 232.073 425.335C232.757 422.357 232.779 422.313 232.801 419.82ZM292.114 483.963C292.069 481.294 291.143 479.883 288.673 479.067C290.658 480.412 291.606 481.625 292.114 483.963ZM283.754 481.559C283.644 479.265 283.136 477.876 281.328 476.42C282.563 478.162 283.092 479.353 283.754 481.559ZM275.085 478.648C275.262 479.662 276.718 481.537 278.019 481.956C276.938 481.339 275.085 478.648 275.085 478.648ZM266.99 474.964C267.167 475.493 268.49 479.111 268.821 478.648C268.843 478.648 266.726 474.192 266.99 474.964ZM272.505 468.722C271.953 470.928 271.843 472.229 272.13 474.611C272.35 473.244 272.527 469.803 272.505 468.722ZM277.291 462.457C277.093 464.156 277.07 465.92 277.291 467.597C277.49 466.141 277.534 464.443 277.291 462.457ZM279.872 473.133C281.328 471.258 281.835 470.288 282.452 467.994C281.989 468.722 280.203 472.339 279.872 473.133ZM287.945 467.972C287.768 470.795 288.033 472.052 289.048 474.214C288.254 470.486 288.518 471.788 287.945 467.972ZM284.636 464.663C285.563 462.854 285.893 461.818 286.114 459.877C285.717 460.847 284.857 463.759 284.636 464.663ZM293.106 461.355C292.952 462.722 293.216 465.259 294.584 465.038C293.547 465.215 293.239 462.369 293.106 461.355ZM284.636 455.84C285.342 454.208 285.871 452.355 286.114 450.701C285.386 452.355 284.901 454.142 284.636 455.84ZM269.196 459.899C268.556 461.84 268.336 463.097 268.468 465.413C268.689 464.399 269.13 460.98 269.196 459.899ZM262.954 473.861C264.079 471.655 264.498 470.288 264.784 467.972C264.277 469.207 263.285 472.383 262.954 473.861ZM257.814 468.347C256.623 469.67 258.189 472.03 258.189 472.03C258.145 470.442 257.307 469.67 257.814 468.347ZM260.02 455.62C260.02 455.487 259.755 456.127 260.373 461.355C260.505 455.73 259.998 454.892 259.998 455.84C260.02 455.84 260.02 455.752 260.02 455.62ZM251.55 460.252C251.726 463.494 251.616 464.796 252.278 466.869C252.057 462.171 252.146 462.457 251.55 460.252ZM246.036 460.627C245.639 462.457 245.572 463.582 246.764 465.038C245.969 463.406 246.036 462.502 246.036 460.627ZM236.86 455.84C236.904 454.715 236.838 453.392 236.529 452.135C236.529 451.936 236.375 453.612 236.86 455.84ZM240.654 457.142L241.999 450.701C241.073 452.267 240.654 457.142 240.654 457.142ZM248.241 449.223C247.028 450.37 246.344 452.885 246.411 454.362C246.653 453.392 247.602 450.194 248.241 449.223ZM254.131 455.487C254.682 453.127 254.792 451.738 254.506 449.245C254.263 450.723 254.109 454.274 254.131 455.487ZM253.756 436.739C253.315 438.172 253.226 438.834 253.381 440.422C253.425 440.246 253.756 436.871 253.756 436.739ZM247.888 442.606C248.903 441.216 247.888 437.466 247.888 437.466C247.888 437.466 248.175 441.944 247.888 442.606ZM239.793 440.047C240.168 441.878 240.808 443.885 241.624 445.561C241.271 443.731 240.632 441.79 239.793 440.047ZM232.448 440.047C231.787 444.04 232.316 445.187 233.176 447.392C232.647 444.128 232.492 443.709 232.448 440.047ZM226.934 435.636C226.052 437.047 225.743 440.4 227.309 442.253C226.405 440.554 226.493 436.937 226.934 435.636ZM228.765 424.232C228.765 424.232 227.662 426.305 227.662 429.371C228.059 427.629 228.5 425.622 228.765 424.232ZM235.757 429.746C235.757 429.746 233.926 429.879 234.654 435.261C235.47 428.511 235.757 429.746 235.757 429.746ZM244.933 431.952C245.528 430.099 245.925 428.092 246.036 426.063C245.418 427.96 245.065 429.967 244.933 431.952ZM240.521 418.343C239.507 420.659 239.33 421.541 239.418 423.857L240.521 418.343ZM249.344 414.681C247.866 415.96 247.403 419.335 247.514 421.298C248.528 415.299 249.344 414.681 249.344 414.681ZM259.27 415.034C257.506 416.446 256.8 417.46 256.336 420.173C257.197 418.078 257.395 417.328 259.27 415.034ZM265.534 420.923C266.946 419.534 268.843 413.578 268.843 413.578C268.446 412.806 265.998 420.151 265.534 420.923ZM276.563 413.578C275.328 413.865 273.409 419.401 272.88 420.57C273.541 419.622 276.563 413.578 276.563 413.578ZM283.533 413.203C282.475 415.387 281.901 416.534 281.328 419.093C282.386 416.997 282.894 415.277 283.533 413.203ZM292.356 412.1C290.68 415.872 291.408 414.791 289.423 418.718C290.68 417.152 291.628 415.784 292.356 412.1ZM357.646 419.82C357.073 422.423 357.47 423.394 358.374 425.335C357.69 422.357 357.668 422.313 357.646 419.82ZM302.856 478.648C300.385 479.464 299.569 480.147 299.547 482.816C300.054 480.456 300.87 479.971 302.856 478.648ZM309.164 477.479C307.355 478.934 306.649 480.765 306.539 483.059C307.201 480.853 307.951 479.199 309.164 477.479ZM312.428 481.956C313.73 481.537 315.208 479.662 315.362 478.648C315.362 478.648 313.509 481.339 312.428 481.956ZM321.604 478.648C321.935 479.111 323.259 475.515 323.435 474.964C323.722 474.192 321.604 478.648 321.604 478.648ZM318.296 474.589C318.582 472.207 318.472 470.905 317.921 468.7C317.921 469.803 318.097 473.244 318.296 474.589ZM313.156 467.619C313.377 465.92 313.355 464.156 313.156 462.48C312.914 464.443 312.958 466.141 313.156 467.619ZM308.017 467.972C308.635 470.266 309.142 471.258 310.598 473.111C310.245 472.339 308.458 468.722 308.017 467.972ZM301.4 474.236C302.414 472.052 302.679 470.817 302.503 467.994C301.929 471.788 302.194 470.486 301.4 474.236ZM304.333 459.899C304.554 461.84 304.863 462.877 305.811 464.685C305.591 463.759 304.73 460.847 304.333 459.899ZM298.091 462.832C299.437 463.053 299.723 460.516 299.569 459.149C299.415 460.163 299.106 463.009 298.091 462.832ZM304.333 450.701C304.576 452.355 305.105 454.208 305.811 455.84C305.547 454.142 305.061 452.355 304.333 450.701ZM321.979 465.413C322.112 463.097 321.891 461.84 321.251 459.899C321.318 460.98 321.759 464.399 321.979 465.413ZM325.663 467.972C325.95 470.266 326.391 471.655 327.494 473.861C327.163 472.383 326.17 469.207 325.663 467.972ZM332.28 472.03C332.28 472.03 333.846 469.692 332.655 468.347C333.14 469.67 332.302 470.442 332.28 472.03ZM330.427 455.84C330.427 454.892 329.942 455.73 330.052 461.355C330.67 456.127 330.405 455.487 330.405 455.62C330.427 455.752 330.427 455.84 330.427 455.84ZM338.147 466.869C338.809 464.796 338.699 463.494 338.875 460.252C338.302 462.457 338.39 462.171 338.147 466.869ZM343.662 465.038C344.853 463.582 344.787 462.457 344.39 460.627C344.412 462.502 344.478 463.406 343.662 465.038ZM353.918 452.157C353.61 453.414 353.543 454.737 353.588 455.862C354.073 453.612 353.918 451.936 353.918 452.157ZM348.448 450.701L349.794 457.142C349.794 457.142 349.375 452.267 348.448 450.701ZM344.037 454.384C344.103 452.907 343.397 450.392 342.206 449.245C342.846 450.194 343.794 453.392 344.037 454.384ZM335.942 449.223C335.633 451.715 335.743 453.105 336.317 455.465C336.339 454.274 336.184 450.723 335.942 449.223ZM337.045 440.4C337.199 438.812 337.111 438.15 336.67 436.716C336.692 436.871 337.022 440.246 337.045 440.4ZM342.559 437.466C342.559 437.466 341.544 441.216 342.559 442.606C342.272 441.944 342.559 437.466 342.559 437.466ZM348.823 445.561C349.639 443.885 350.301 441.878 350.654 440.047C349.816 441.79 349.176 443.731 348.823 445.561ZM357.271 447.392C358.154 445.187 358.683 444.017 357.999 440.047C357.955 443.709 357.801 444.128 357.271 447.392ZM363.161 442.253C364.727 440.4 364.418 437.047 363.536 435.636C363.955 436.937 364.043 440.554 363.161 442.253ZM362.786 429.371C362.786 426.283 361.683 424.232 361.683 424.232C361.947 425.622 362.389 427.629 362.786 429.371ZM355.793 435.261C356.521 429.879 354.69 429.746 354.69 429.746C354.69 429.746 354.977 428.511 355.793 435.261ZM344.412 426.063C344.522 428.07 344.919 430.099 345.515 431.952C345.382 429.967 345.029 427.96 344.412 426.063ZM351.029 423.857C351.117 421.541 350.941 420.659 349.926 418.343L351.029 423.857ZM342.934 421.298C343.044 419.335 342.559 415.96 341.103 414.681C341.103 414.681 341.919 415.299 342.934 421.298ZM334.111 420.195C333.648 417.46 332.942 416.446 331.177 415.056C333.052 417.328 333.251 418.078 334.111 420.195ZM321.604 413.578C321.604 413.578 323.501 419.534 324.913 420.923C324.45 420.151 322.001 412.806 321.604 413.578ZM317.568 420.548C317.038 419.379 315.142 413.843 313.884 413.556C313.884 413.578 316.906 419.622 317.568 420.548ZM309.12 419.093C308.546 416.556 307.973 415.387 306.914 413.203C307.554 415.277 308.061 416.997 309.12 419.093ZM301.025 418.718C299.018 414.791 299.768 415.872 298.091 412.1C298.819 415.784 299.745 417.152 301.025 418.718ZM296.349 470.751C294.099 474.236 294.187 475.758 294.253 477.964C294.893 474.81 294.849 474.832 296.349 470.751ZM290.658 451.539C291.783 454.671 291.915 455.002 292.467 457.252C292.4 454.848 291.915 453.568 290.658 451.539ZM296.966 456.237C297.518 453.987 298.687 454.671 299.812 451.539C298.532 453.568 297.01 453.855 296.966 456.237Z" fill="#2A232B"/>
<path d="M407.298 355.572C406.839 355.572 406.356 355.55 405.862 355.508C401.512 341.4 406.592 321.35 415.236 309.295C409.338 292.951 420.737 301.449 418.843 281.959C418.501 279.158 418.957 276.639 419.899 274.054C417.1 266.746 416.328 258.197 417.257 253.499C409.252 232.388 406.453 246.76 402.192 220.646C395.663 218.284 383.727 209.245 378.663 205.297C365.523 195.044 345.844 226.975 329.402 216.235C319.604 225.128 301.158 223.538 295.167 221.549C286.721 225.801 269.772 223.611 260.965 216.231C246.817 226.395 240.29 201.053 216.409 201.719C201.394 212.549 205.481 214.3 188.25 220.649C186.711 230.683 188.131 232.293 180.082 240.959C175.331 246.001 175.313 247.753 173.394 252.857H173.05L173.167 253.455L173.083 253.673L173.24 253.836C174.286 259.54 172.38 268.359 170.534 274.094C174.1 283.984 167.488 286.777 174.817 296.756C177.184 299.978 178.06 301.22 175.19 309.297C185.594 323.811 188.535 346.521 184.597 355.514C168.884 357.03 169.773 335.217 168.487 327.598C165.476 306.214 142.684 321.813 146.562 301.619C140.736 297.007 142.221 291.133 144.195 281.988C138.786 270.604 128.208 229.809 145.697 220.117C144.466 204.714 151.963 189.371 164.647 182.818C166.535 168.203 184.809 145.596 199.164 148.578C202.46 131.124 233.81 109.175 247.602 118.962C258.362 108.705 280.695 105.229 295.182 109.479C311.11 105.326 330.88 108.434 342.837 118.944C357.031 109.221 387.722 131.404 391.258 148.512C406.947 147.028 423.045 166.899 425.819 182.849C438.908 189.592 445.839 204.957 444.732 220.119C461.222 229.24 453.094 266.303 446.262 281.97C447.782 289.911 450.138 296.65 443.882 301.621C448.067 322.799 424.134 303.682 421.448 331.889C420.594 340.747 419.182 355.572 407.298 355.572Z" fill="#C8C6FF"/>
<path d="M428.214 307.919C426.379 308.073 424.544 305.049 422.709 305.049C422.709 293.798 429.419 287.044 436.129 280.294C433.892 280.294 431.658 275.792 429.419 278.042C422.709 266.788 433.892 255.537 438.367 246.533C424.945 248.785 413.765 233.032 422.709 221.778C424.262 221.778 425.815 219.612 427.367 219.038C419.444 217.225 413.412 216.572 409.289 208.274C407.053 201.523 409.289 194.771 413.762 188.021C400.343 197.025 382.45 192.523 373.505 179.02C373.505 176.768 373.505 172.266 373.505 170.016C369.03 181.27 357.847 190.269 344.427 185.769C340.796 185.769 334.215 182.803 331.868 176.865C332.267 182.5 330.524 188.021 328.771 188.021C315.351 194.771 297.46 185.769 295.224 170.016C295.224 179.02 290.75 190.269 286.277 192.521C275.094 199.273 261.674 185.767 266.148 170.016C261.674 185.769 248.255 192.521 234.835 188.021C228.125 185.769 219.178 181.27 219.178 170.016C212.469 185.769 194.576 201.523 183.393 181.27C190.102 199.273 177.708 219.528 165.208 219.528C174.064 231.64 167.738 257.787 152.082 257.787C169.973 262.289 161.029 282.542 163.263 296.045C161.267 296.045 159.268 299.625 157.27 298.787C175.968 310.608 180.227 333.704 183.878 355.547C184.114 355.536 184.343 355.534 184.59 355.512C188.527 346.519 185.587 323.807 175.183 309.295C178.052 301.218 177.177 299.976 174.81 296.753C167.48 286.775 174.093 283.982 170.526 274.092C172.373 268.359 174.278 259.538 173.233 253.834L173.076 253.671L173.16 253.452L173.043 252.855H173.387C175.306 247.751 175.324 245.999 180.075 240.957C188.124 232.288 186.703 230.678 188.243 220.646C205.476 214.298 201.387 212.547 216.401 201.717C240.283 201.051 246.81 226.392 260.957 216.228C269.765 223.609 286.714 225.797 295.16 221.546C301.153 223.536 319.597 225.126 329.395 216.233C345.837 226.972 365.516 195.042 378.656 205.294C383.72 209.243 395.655 218.282 402.184 220.644C406.446 246.758 409.245 232.385 417.25 253.497C416.321 258.195 417.095 266.746 419.892 274.052C418.95 276.637 418.494 279.156 418.836 281.957C420.73 301.447 409.331 292.948 415.229 309.293C407.079 320.661 402.105 339.128 405.209 353.031C402.996 335.182 411.574 316.082 428.214 307.919Z" fill="#A5A2F0"/>
<path d="M365.942 160.139C369.734 157.88 385.613 158.934 388.871 147.76C389.702 160.99 375.318 161.804 365.942 160.139ZM402.008 158.451C408.559 160.549 412.624 172.182 413.191 175.047C414.914 167.446 410.01 157.569 402.008 158.451ZM404.525 173.08C407.694 175.94 406.666 184.331 405.643 186.583C409.236 183.202 409.721 175.067 404.525 173.08ZM399.771 175.892C400.016 181.936 399.341 186.144 396.136 190.52C401.977 187.615 402.072 181.993 399.771 175.892ZM417.384 187.708C419.122 186.577 429.703 186.793 430.804 189.398C430.852 184.38 420.102 184.402 417.384 187.708ZM413.191 198.117C422.056 197.934 420.812 195.47 429.963 196.147C423.611 191.899 418.147 196.068 413.191 198.117ZM424.934 201.774C423.042 204.024 418.694 205.347 418.505 211.056C421.196 205.985 422.764 206.192 424.934 201.774ZM433.879 215.84C441.061 219.453 443.268 224.123 445.062 231.876C447.051 223.037 443.149 216.272 433.879 215.84ZM436.676 225.967C440.694 229.97 440.937 238.376 438.632 243.69C443.944 239.311 444.118 229.083 436.676 225.967ZM433.318 232.438C432.493 236.539 430.718 238.367 428.567 243.127C432.01 240.503 434.02 236.998 433.318 232.438ZM435.555 258.881C437.878 265.972 439.786 268.482 436.956 273.229C442.686 269.647 439.909 264.033 435.555 258.881ZM432.202 261.415C432.092 265.615 431.594 268.868 429.128 274.074C432.577 271.597 434.243 267.274 432.202 261.415ZM356.437 165.483C357.562 170.98 366.447 172.495 366.447 172.495C368.741 173.033 372.054 172.901 374.05 171.392C371.646 171.8 358.705 168.496 356.437 165.483ZM345.534 155.639C348.922 149.185 356.4 144.992 363.425 143.823C354.139 141.293 346.531 146.995 345.534 155.639ZM340.221 127.787C344.504 131.72 344.544 138.315 344.692 146.915C348.106 140.627 347.945 130.835 340.221 127.787ZM342.457 124.13C345.852 124.789 351.234 134.499 351.686 136.791C352.948 131.1 347.288 123.179 342.457 124.13ZM336.866 132.289C337.567 139.213 336.932 144.376 333.235 150.292C339.932 146.284 340.488 139.233 336.866 132.289ZM329.878 153.107C318.668 155.138 314.083 170.521 317.857 180.676C318.344 176.214 322.063 158.7 329.878 153.107ZM318.695 144.665C297.851 152.185 299.472 175.607 307.512 180.956C305.58 177.89 302.019 158.848 318.695 144.665ZM294.372 145.23C283.253 161.941 296.121 173.34 300.809 181.991C297.712 170.907 290.371 158.868 294.372 145.23ZM311.707 130.039C308.447 130.482 298.612 127.963 297.727 135.664C301.276 130.304 307.044 133.365 311.707 130.039ZM318.975 126.382C309.574 116.752 306.288 120.965 304.715 122.16C310.434 120.413 312.896 123.287 318.975 126.382ZM314.222 114.566C320.978 114.636 326.135 119.553 327.921 126.1C329.644 118.39 322.389 110.911 314.222 114.566ZM247.123 134.819C255.291 127.555 264.727 120.197 274.52 123.565C265.203 114.391 252.776 123.018 247.123 134.819ZM258.028 135.946C242.003 149.948 255.408 162.774 260.545 162.108C258.306 161.041 249.276 152.652 258.028 135.946ZM262.779 145.79C265.124 147.674 266.653 149.538 267.253 156.479C269.121 151.83 268.029 147.389 262.779 145.79ZM279.554 134.819C279.781 135.659 282.991 146.586 282.128 146.586C281.846 149.549 281.25 150.81 279.834 153.387C289.936 147.875 280.933 137.089 279.554 134.819ZM278.158 128.069C288.774 127.026 289.103 140.777 288.5 144.665C294.723 135.353 288.445 121.858 278.158 128.069ZM251.596 166.89C256.506 168.203 253.762 174.05 254.393 182.364C257.139 175.971 258.381 166.244 251.596 166.89ZM240.446 157.43C235.907 139.038 221.404 142.135 221.404 142.135C224.316 141.326 235.236 150.323 236.91 162.918C237.393 165.419 237.89 169.709 238.457 173.08C239.162 170.83 241.931 162.675 240.446 157.43ZM225.317 154.232C230.434 158.202 227.481 169.773 225.317 175.894C231.923 169.33 233.831 156.757 225.317 154.232ZM216.931 157.044C220.127 161.239 213.174 169.5 208.822 175.049C215.881 172.144 223.766 161.791 216.931 157.044ZM227.273 122.442C221.007 121.417 214.985 129.746 216.651 135.946C217.429 132.187 222.822 123.717 227.273 122.442ZM224.199 130.601C219.172 131.603 219.366 139.27 221.682 142.415C221.415 140.166 221.34 131.636 224.199 130.601ZM192.328 161.546C183.481 157.606 174.958 161.363 173.597 170.27C178.158 164.102 184.753 161.689 192.328 161.546ZM187.294 169.423C181.218 165.631 173.486 173.232 174.993 180.114C175.935 175.281 182.29 168.869 187.294 169.423ZM183.662 176.737C176.162 177.414 174.911 188.346 179.468 191.928C177.741 188.156 179.237 178.828 183.662 176.737ZM164.93 188.553C169.774 190.785 174.971 195.117 174.364 195.117C176.111 197.632 176.48 198.556 177.23 201.494C179.171 193.015 173.506 189.673 164.93 188.553ZM168.843 198.399C173.092 201.681 176.38 207.721 173.597 213.873C179.382 209.185 176.914 201.02 168.843 198.399ZM163.949 201.007C163.569 200.629 163.236 200.665 163.25 200.649C164.474 200.817 163.85 208.31 160.991 210.522C160.08 211.526 157.043 214.503 155.982 215.56C168.08 211.422 166.188 203.19 163.949 201.007ZM159.059 221.747C162.495 226 162.985 232.729 162.248 233.468C161.567 238.394 161.968 236.217 161.017 241.44C165.791 235.945 167.661 226.988 159.059 221.747ZM154.866 229.906C157.479 232.083 156.937 241.466 153.187 243.41C159.564 242.96 160.069 231.596 154.866 229.906ZM146.757 231.031C149.742 234.62 147.651 236.51 138.371 247.067C148.143 242.558 153.491 234.296 146.757 231.031ZM146.757 257.758C152.157 261.808 148.16 271.451 145.917 273.792C153.022 270.439 154.327 259.591 146.757 257.758ZM155.704 266.76C159.087 267.73 153.992 275.715 152.069 278.011C158.051 274.936 161.108 266.577 155.704 266.76ZM249.847 174.291C250.416 180.425 244.626 186.283 243.49 187.428C251.448 185.015 251.365 177.615 249.847 174.291ZM341.308 176.227C341.308 176.227 339.089 173.329 337.426 170.922C338.496 177.224 342.221 182.514 348.609 183.676C347.731 183.021 341.308 177.123 341.308 176.227ZM343.39 169.423C344.222 173.984 347.597 177.403 352.339 177.676C349.447 176.015 346.56 173.677 343.39 169.423ZM441.802 287.952C439.951 291.945 436.095 294.287 433.599 298.454C440.988 294.045 441.427 291.537 441.802 287.952ZM439.563 299.204C437.326 300.36 433.658 301.482 429.869 305.958C435.427 303.904 437.328 301.249 439.563 299.204ZM147.315 286.45C149.04 289.32 151.394 291.643 154.025 293.204C152.369 290.39 150.055 288.122 147.315 286.45ZM148.063 294.702C150.834 303.882 155.516 302.956 155.516 302.956C153.017 301.555 148.908 296.378 148.063 294.702Z" fill="#E1E0FF"/>
<path d="M445.391 219.729C446.359 206.402 440.478 189.656 426.379 182.392C423.64 166.95 407.26 146.295 391.751 147.78C388.33 131.071 356.971 108.39 342.861 118.095C332.549 109.025 313.13 104.146 295.164 108.778C279.867 104.34 257.464 108.617 247.514 118.095C233.917 108.429 201.815 130.813 198.619 147.78C184.787 144.93 165.901 167.773 164.015 182.372C152.04 188.54 143.736 203.951 144.986 219.731C127.21 229.549 138.398 271.319 143.478 282.072C142.955 284.536 141.512 290.685 141.797 293.348C141.821 294.36 141.861 295.035 141.883 295.035C142.531 297.285 142.688 299.42 145.816 301.897C141.918 322.219 164.891 306.964 167.82 327.713C169.294 336.457 168.138 345.467 174.219 352.312C177.287 355.662 182.83 356.509 185.014 356.136C189.278 347.13 186.249 323.721 175.9 309.187C179.546 298.877 176.782 299.208 173.215 293.253C169.893 287.71 174.012 281.887 171.206 274.081C174.309 264.488 174.506 256.94 173.829 253.532C173.851 253.532 173.851 253.532 173.829 253.51C175.902 248.079 175.77 246.48 180.534 241.425C188.737 232.591 187.365 230.656 188.817 221.149C204.738 217.219 200.743 212.75 216.437 203.993C229.274 196.829 246.614 227.35 260.911 217.075C264.068 219.716 266.445 220.843 270.001 222.252C271.598 222.74 271.302 222.826 274.02 223.287C274.611 223.355 287.762 224.123 287.762 223.512C289.059 223.379 293.98 222.883 295.191 222.274C297.249 222.96 300.557 223.3 302.622 223.512C302.622 223.534 306.199 223.759 309.744 223.759C317.771 224.072 325.072 221.026 329.446 217.075C346.287 228.049 366.324 195.92 380.339 208.186C393.492 219.698 397.844 219.788 401.591 221.149C401.71 221.877 402.162 226.613 402.443 228.419C404.856 240.436 410.63 237.88 416.555 253.556C416.107 255.81 415.538 264.505 419.178 274.061C418.368 276.311 417.795 278.968 418.167 282.026C420.025 301.074 408.61 292.966 414.477 309.187C406.614 320.161 400.424 340.771 405.325 356.044C405.348 356.068 405.348 356.112 405.365 356.136C422.155 358.053 421.333 334.972 422.559 327.711C425.464 307.131 448.498 322.062 444.583 301.895C447.757 299.365 447.909 297.283 448.492 295.033C448.516 295.033 448.562 294.358 448.584 293.368C448.882 290.533 447.347 284.3 446.919 282.048C449.383 276.39 465 230.552 445.391 219.729ZM446.674 278.807C446.529 279.628 446.088 281.342 445.609 282.656C445.774 283.625 447.958 294.832 447.007 294.832C446.317 297.084 446.774 298.3 443.661 301.268C446.74 320.15 422.773 303.496 419.303 327.109C417.247 339.682 419.455 352.578 406.3 354.718C403.671 342.059 409.461 320.514 415.763 309.551C410.756 294.459 422.21 301.655 420.283 281.825C419.932 278.856 420.236 276.787 420.876 274.533C419.246 269.757 417.521 261.113 418.145 255.202C412.887 237.496 416.8 247.995 407.372 235.103C407.333 235.035 406.382 233.371 406.347 233.303L406.325 233.279C403.993 228.287 404.637 225.779 403.331 220.271C403.327 220.271 391.087 214.612 380.202 205.365C366.661 193.871 346.026 224.762 328.965 215.972C320.153 222.779 302.684 222.314 295.188 220.384C290.995 221.346 279.261 222.138 272.249 220.699C272.07 220.662 269.077 219.777 268.927 219.731C266.496 218.99 263.496 217.351 261.368 215.972C246.009 224.926 229.541 189.665 212.956 203.166C203.255 211.065 198.403 216.892 187.063 220.271C186.189 222.521 186.564 228.097 184.048 233.279V233.303C184.048 233.303 183.565 234.995 178.959 239.852C173.209 246.107 173.915 250.025 172.229 255.221C172.851 261.159 171.195 268.811 169.518 274.555C171.793 282.734 166.856 288.969 172.686 296.361C177.43 302.521 175.86 303.068 174.634 309.571C180.252 319.446 186.95 340.879 184.072 354.74C161.384 351.145 184.037 316.781 155.647 312.068C151.387 311.406 148.385 311.333 147.214 308.018C146.53 306.044 146.513 302.442 146.709 301.264C143.65 298.112 144.027 297.08 143.391 294.828C142.28 294.828 144.766 283.755 144.766 282.676C143.941 280.424 129.145 230.464 146.402 219.773C146.402 204.313 154.928 189.197 164.955 182.999C165.063 182.549 165.191 182.099 165.325 181.625C165.325 181.603 165.345 181.581 165.345 181.559C169.627 168.313 186.637 147.191 199.973 148.971C203.09 135.2 235.258 110.293 248.191 119.105C262.987 109.991 280.69 107.924 295.164 110.915C313.761 107.503 331.797 111.917 342.177 119.105C354.624 110.626 385.776 133.528 390.397 148.971C404.476 147.094 421.412 169.936 425.045 181.603V181.625C425.177 182.099 425.312 182.549 425.44 182.999C438.376 191.908 442.029 202.851 443.922 218.941C443.922 219.199 443.968 219.363 443.968 219.751C458.625 229.597 450.737 257.56 446.674 278.807Z" fill="#6764D1"/>
<path opacity="0.2" d="M190.893 310.46C216.678 317.562 253.403 310.129 279.188 326.209C279.012 327.179 278.835 328.128 278.637 329.098C277.225 335.517 271.512 339.73 264.608 340.965C245.992 344.296 214.825 343.877 196.583 342.597C193.959 342.421 191.819 340.612 191.378 338.186C189.591 328.569 188.907 320.496 190.893 310.46ZM309.981 313.46C310.091 318.93 310.686 323.893 311.811 329.12C313.201 335.539 318.936 339.752 325.84 340.987C344.456 344.318 375.623 343.899 393.865 342.62C396.49 342.443 398.629 340.634 399.07 338.208C399.754 334.48 400.284 330.973 400.548 327.51C374.741 309.776 336.913 317.717 310.466 310.504C310.157 311.452 309.958 312.445 309.981 313.46Z" fill="white"/>
<path opacity="0.4" d="M280.467 313.46C280.356 317.915 279.937 322.018 279.187 326.209C253.402 310.107 216.655 317.562 190.892 310.46C190.958 310.195 190.98 309.93 191.046 309.644C191.619 306.909 194.002 304.901 196.957 304.615C224.97 302.012 244.05 302.232 271.71 304.372C276.717 304.791 280.577 308.761 280.467 313.46ZM399.422 309.666C398.849 306.931 396.467 304.923 393.511 304.637C365.498 302.034 346.418 302.254 318.758 304.394C314.832 304.703 311.656 307.195 310.487 310.526C336.912 317.739 374.762 309.798 400.569 327.532C401.011 321.797 400.768 316.151 399.422 309.666Z" fill="white"/>
<path d="M412.128 309.908H400.614C400.57 309.754 400.57 309.6 400.526 309.445C399.864 306.269 397.063 303.887 393.622 303.556C365.168 300.909 345.978 301.196 318.671 303.313C318.34 303.335 318.031 303.423 317.722 303.468L317.788 303.401C317.788 303.401 317.524 303.468 317.06 303.578C316.862 303.622 316.641 303.666 316.443 303.71C314.061 304.24 308.899 305.254 304.598 305.387C295.974 305.651 294.121 305.629 285.849 305.387C281.548 305.254 276.387 304.24 274.004 303.71C273.806 303.644 273.607 303.622 273.387 303.578C272.924 303.468 272.659 303.401 272.659 303.401L272.725 303.468C272.416 303.423 272.107 303.335 271.777 303.313C244.447 301.196 225.258 300.909 196.826 303.556C193.385 303.887 190.583 306.269 189.922 309.445C189.877 309.6 189.877 309.754 189.833 309.908H178.319V316.349H188.885C188.51 320.099 188.466 323.694 188.73 327.312H191.069C190.627 321.709 190.87 316.173 192.193 309.842C192.657 307.592 194.62 305.916 197.068 305.695C210.964 304.394 222.853 303.798 234.522 303.798C245.484 303.798 256.557 304.284 271.6 305.453C276.012 305.784 279.386 309.291 279.298 313.415C279.188 318.268 278.681 322.724 277.776 327.29H280.136C280.997 322.834 281.504 318.423 281.614 313.46C281.636 312.004 281.327 310.636 280.754 309.379C281.482 309.225 282.629 309.026 284.085 308.916C289.621 308.519 301.885 308.607 306.385 308.916C307.84 309.026 309.01 309.225 309.715 309.379C309.142 310.636 308.811 312.004 308.855 313.46C308.965 318.423 309.473 322.834 310.333 327.29H312.693C311.789 322.724 311.281 318.268 311.193 313.415C311.105 309.291 314.48 305.784 318.891 305.453C333.934 304.284 345.007 303.798 355.97 303.798C367.638 303.798 379.549 304.394 393.423 305.695C395.872 305.916 397.835 307.592 398.298 309.842C399.621 316.173 399.864 321.709 399.423 327.312H401.739C402.026 323.694 401.959 320.099 401.584 316.349H412.128V309.908Z" fill="#EAFF8A"/>
</g>
<defs>
<linearGradient id="paint0_linear" x1="300" y1="-75" x2="300" y2="675" gradientUnits="userSpaceOnUse">
<stop stop-color="#151371"/>
<stop offset="0.453125" stop-color="#FF00B8"/>
<stop offset="0.96875" stop-color="#FFC700"/>
</linearGradient>
<linearGradient id="paint1_linear" x1="439" y1="245" x2="439" y2="644" gradientUnits="userSpaceOnUse">
<stop stop-color="#FF00B8"/>
<stop offset="1" stop-color="#F0DB0A" stop-opacity="0"/>
</linearGradient>
<linearGradient id="paint2_linear" x1="194" y1="161" x2="194" y2="560" gradientUnits="userSpaceOnUse">
<stop stop-color="#FF00B8"/>
<stop offset="1" stop-color="#F0DB0A" stop-opacity="0"/>
</linearGradient>
<linearGradient id="paint3_linear" x1="295.223" y1="515.616" x2="295.223" y2="407.534" gradientUnits="userSpaceOnUse">
<stop stop-color="#6F2700" stop-opacity="0.8"/>
<stop offset="0.7" stop-color="#501C00"/>
</linearGradient>
<linearGradient id="paint4_linear" x1="295.225" y1="447.238" x2="295.225" y2="438.415" gradientUnits="userSpaceOnUse">
<stop offset="0.1" stop-color="#762E06"/>
<stop offset="1" stop-color="#6F2700"/>
</linearGradient>
<radialGradient id="paint5_radial" cx="0" cy="0" r="1" gradientUnits="userSpaceOnUse" gradientTransform="translate(237.228 317.844) rotate(179.978) scale(26.9985 23.7512)">
<stop stop-color="white"/>
<stop offset="0.544" stop-color="#FDFEFE"/>
<stop offset="0.74" stop-color="#F6F8F9"/>
<stop offset="0.879" stop-color="#EAEFF2"/>
<stop offset="0.992" stop-color="#D9E3E8"/>
<stop offset="1" stop-color="#D8E2E7"/>
</radialGradient>
<radialGradient id="paint6_radial" cx="0" cy="0" r="1" gradientUnits="userSpaceOnUse" gradientTransform="translate(243.391 316.463) rotate(1.04861) scale(35.5294 25.013)">
<stop stop-color="#6F2700"/>
<stop offset="0.7" stop-color="#6F2700" stop-opacity="0.3"/>
<stop offset="1" stop-color="#7E350D" stop-opacity="0"/>
</radialGradient>
<radialGradient id="paint7_radial" cx="0" cy="0" r="1" gradientUnits="userSpaceOnUse" gradientTransform="translate(233.395 355.991) rotate(-2.60422) scale(50.5976 44.0414)">
<stop offset="0.9" stop-opacity="0"/>
<stop offset="1" stop-opacity="0.2"/>
</radialGradient>
<radialGradient id="paint8_radial" cx="0" cy="0" r="1" gradientUnits="userSpaceOnUse" gradientTransform="translate(352.337 317.844) rotate(0.0216374) scale(27.0006 23.753)">
<stop stop-color="white"/>
<stop offset="0.544" stop-color="#FDFEFE"/>
<stop offset="0.74" stop-color="#F6F8F9"/>
<stop offset="0.879" stop-color="#EAEFF2"/>
<stop offset="0.992" stop-color="#D9E3E8"/>
<stop offset="1" stop-color="#D8E2E7"/>
</radialGradient>
<radialGradient id="paint9_radial" cx="0" cy="0" r="1" gradientUnits="userSpaceOnUse" gradientTransform="translate(346.178 316.462) rotate(178.951) scale(35.5293 25.013)">
<stop stop-color="#6F2700"/>
<stop offset="0.7" stop-color="#6F2700" stop-opacity="0.3"/>
<stop offset="1" stop-color="#7E350D" stop-opacity="0"/>
</radialGradient>
<radialGradient id="paint10_radial" cx="0" cy="0" r="1" gradientUnits="userSpaceOnUse" gradientTransform="translate(356.172 355.99) rotate(-177.396) scale(50.5976 44.0414)">
<stop offset="0.9" stop-opacity="0"/>
<stop offset="1" stop-opacity="0.2"/>
</radialGradient>
<radialGradient id="paint11_radial" cx="0" cy="0" r="1" gradientUnits="userSpaceOnUse" gradientTransform="translate(295.224 387.683) scale(90.4354)">
<stop stop-color="#8D451D" stop-opacity="0.5"/>
<stop offset="0.9" stop-color="#7E350D" stop-opacity="0"/>
</radialGradient>
<radialGradient id="paint12_radial" cx="0" cy="0" r="1" gradientUnits="userSpaceOnUse" gradientTransform="translate(295.224 255.338) scale(81.6124)">
<stop stop-color="#8D451D" stop-opacity="0.5"/>
<stop offset="0.9" stop-color="#7E350D" stop-opacity="0"/>
</radialGradient>
<clipPath id="clip0">
<rect width="600" height="600" fill="white"/>
</clipPath>
</defs>
</svg>
