<svg width="465" height="520" viewBox="0 0 465 520" fill="none" xmlns="http://www.w3.org/2000/svg">
<g filter="url(#filter0_d)">
<path d="M438.648 326.469L331.455 275.336L286.127 253.713C305.923 241.242 322.002 221.993 332.523 198.809C341.298 179.481 345.838 158.5 345.836 137.273C345.836 124.767 343.851 112.891 341.086 101.432C327.601 45.9057 284.238 5 232.182 5C181.111 5 138.405 44.4477 124.086 98.3932C120.78 110.769 118.507 123.638 118.507 137.273C118.507 160.95 124.038 183.025 133.436 202.225C144.299 224.499 160.405 242.864 180.009 254.671L136.598 274.885L25.9283 326.428C16.3179 330.932 10 341.774 10 353.883V475.484C10 491.782 21.3559 504.993 35.3744 504.993H199.743V411.887C199.766 410.927 200.048 409.991 200.558 409.177L200.49 409.136L227.411 362.508L227.479 362.549C228.438 360.906 230.142 359.742 232.182 359.742C234.222 359.742 235.926 360.899 236.884 362.549L236.912 362.528L237.158 362.959C237.192 363.028 237.24 363.083 237.268 363.151L263.833 409.156L263.799 409.177C264.31 409.993 264.591 410.932 264.614 411.894V505H428.983C443.001 505 454.364 491.789 454.364 475.491V353.883C454.384 341.815 448.169 331.075 438.648 326.469ZM263.82 295.29L263.888 295.331L236.96 341.959L236.891 341.918C236.424 342.758 235.743 343.459 234.917 343.951C234.091 344.443 233.15 344.707 232.189 344.717C231.228 344.707 230.286 344.443 229.461 343.951C228.635 343.459 227.953 342.758 227.486 341.918L227.452 341.938L227.178 341.466C227.158 341.418 227.117 341.377 227.096 341.329L200.531 295.31L200.558 295.29C200.047 294.473 199.766 293.535 199.743 292.572C199.743 289.526 202.214 287.055 205.261 287.055H259.103C262.149 287.055 264.62 289.526 264.62 292.572C264.609 293.535 264.332 294.475 263.82 295.29Z" fill="white"/>
</g>
<defs>
<filter id="filter0_d" x="0" y="0" width="464.364" height="520" filterUnits="userSpaceOnUse" color-interpolation-filters="sRGB">
<feFlood flood-opacity="0" result="BackgroundImageFix"/>
<feColorMatrix in="SourceAlpha" type="matrix" values="0 0 0 0 0 0 0 0 0 0 0 0 0 0 0 0 0 0 127 0"/>
<feOffset dy="5"/>
<feGaussianBlur stdDeviation="5"/>
<feColorMatrix type="matrix" values="0 0 0 0 0 0 0 0 0 0 0 0 0 0 0 0 0 0 0.75 0"/>
<feBlend mode="normal" in2="BackgroundImageFix" result="effect1_dropShadow"/>
<feBlend mode="normal" in="SourceGraphic" in2="effect1_dropShadow" result="shape"/>
</filter>
</defs>
</svg>
