<svg width="533" height="502" viewBox="0 0 533 502" fill="none" xmlns="http://www.w3.org/2000/svg">
<path d="M288.036 0.564752L287.931 0.511965H287.813C272.665 0.511965 257.506 0.511965 242.371 0.5L242.24 0.499897L242.126 0.563678C241.709 0.797457 241.282 1.07082 240.871 1.334C240.635 1.48533 240.404 1.63329 240.183 1.76844C239.552 2.15461 238.945 2.4749 238.314 2.64744L238.314 2.6476C236.263 3.21119 234.186 3.68955 232.097 4.17061C231.56 4.29429 231.022 4.41816 230.484 4.54369C227.858 5.15595 225.228 5.80636 222.662 6.66366C138.104 34.8934 102.196 131.001 147.598 207.575C160.705 229.679 173.9 251.736 187.095 273.792C194.57 286.287 202.045 298.783 209.505 311.287C210.549 313.049 211.487 314.867 212.575 316.975C213.002 317.801 213.451 318.671 213.939 319.6H213.931H213.911H213.892H213.873H213.853H213.834H213.815H213.796H213.776H213.757H213.738H213.719H213.7H213.681H213.661H213.642H213.623H213.604H213.585H213.566H213.548H213.529H213.51H213.491H213.472H213.453H213.434H213.416H213.397H213.378H213.359H213.341H213.322H213.303H213.285H213.266H213.248H213.229H213.211H213.192H213.174H213.155H213.137H213.118H213.1H213.082H213.063H213.045H213.027H213.008H212.99H212.972H212.954H212.935H212.917H212.899H212.881H212.863H212.845H212.827H212.809H212.791H212.773H212.755H212.737H212.719H212.701H212.683H212.665H212.647H212.629H212.612H212.594H212.576H212.558H212.54H212.523H212.505H212.487H212.47H212.452H212.435H212.417H212.399H212.382H212.364H212.347H212.329H212.312H212.294H212.277H212.26H212.242H212.225H212.207H212.19H212.173H212.155H212.138H212.121H212.104H212.086H212.069H212.052H212.035H212.018H212.001H211.984H211.966H211.949H211.932H211.915H211.898H211.881H211.864H211.847H211.83H211.814H211.797H211.78H211.763H211.746H211.729H211.712H211.696H211.679H211.662H211.645H211.629H211.612H211.595H211.579H211.562H211.545H211.529H211.512H211.495H211.479H211.462H211.446H211.429H211.413H211.396H211.38H211.363H211.347H211.331H211.314H211.298H211.281H211.265H211.249H211.232H211.216H211.2H211.184H211.167H211.151H211.135H211.119H211.103H211.086H211.07H211.054H211.038H211.022H211.006H210.99H210.974H210.958H210.942H210.926H210.91H210.894H210.878H210.862H210.846H210.83H210.814H210.798H210.782H210.766H210.751H210.735H210.719H210.703H210.687H210.672H210.656H210.64H210.624H210.609H210.593H210.577H210.562H210.546H210.53H210.515H210.499H210.483H210.468H210.452H210.437H210.421H210.406H210.39H210.375H210.359H210.344H210.328H210.313H210.297H210.282H210.266H210.251H210.236H210.22H210.205H210.19H210.174H210.159H210.144H210.128H210.113H210.098H210.083H210.067H210.052H210.037H210.022H210.007H209.991H209.976H209.961H209.946H209.931H209.916H209.901H209.885H209.87H209.855H209.84H209.825H209.81H209.795H209.78H209.765H209.75H209.735H209.72H209.705H209.69H209.675H209.66H209.645H209.631H209.616H209.601H209.586H209.571H209.556H209.541H209.527H209.512H209.497H209.482H209.467H209.453H209.438H209.423H209.408H209.394H209.379H209.364H209.35H209.335H209.32H209.306H209.291H209.276H209.262H209.247H209.232H209.218H209.203H209.189H209.174H209.159H209.145H209.13H209.116H209.101H209.087H209.072H209.058H209.043H209.029H209.014H209H208.985H208.971H208.956H208.942H208.927H208.913H208.899H208.884H208.87H208.855H208.841H208.827H208.812H208.798H208.784H208.769H208.755H208.741H208.726H208.712H208.698H208.683H208.669H208.655H208.641H208.626H208.612H208.598H208.584H208.569H208.555H208.541H208.527H208.512H208.498H208.484H208.47H208.456H208.441H208.427H208.413H208.399H208.385H208.371H208.357H208.342H208.328H208.314H208.3H208.286H208.272H208.258H208.244H208.23H208.216H208.202H208.188H208.173H208.159H208.145H208.131H208.117H208.103H208.089H208.075H208.061H208.047H208.033H208.019H208.005H207.991H207.977H207.963H207.949H207.935H207.921H207.907H207.894H207.88H207.866H207.852H207.838H207.824H207.81H207.796H207.782H207.768H207.754H207.74H207.726H207.713H207.699H207.685H207.671H207.657H207.643H207.629H207.615H207.602H207.588H207.574H207.56H207.546H207.532H207.518H207.505H207.491H207.477H207.463H207.449H207.436H207.422H207.408H207.394H207.38H207.366H207.353H207.339H207.325H207.311H207.297H207.284H207.27H207.256H207.242H207.228H207.215H207.201H207.187H207.173H207.16H207.146H207.132H207.118H207.105H207.091H207.077H207.063H207.049H207.036H207.022H207.008H206.994H206.981H206.967H206.953H206.939H206.926H206.912H206.898H206.884H206.871H206.857H206.843H206.829H206.816H206.802H206.788H206.774H206.761H206.747H206.733H206.719H206.706H206.692H206.678H206.665H206.651H206.637H206.623H206.61H206.596C194.366 319.612 182.136 319.629 169.906 319.646C131.689 319.7 93.4689 319.754 55.2557 319.636C52.4679 319.624 50.3515 319.995 48.7391 321.159C47.121 322.328 46.1018 324.229 45.3425 327.054L45.8253 327.183L45.3424 327.054C38.8436 351.243 32.1639 375.378 25.4832 399.516C21.5866 413.595 17.6896 427.676 13.8279 441.769L14.3101 441.901L13.8279 441.77C11.0499 451.921 8.39134 462.113 5.73305 472.304C4.1205 478.487 2.50803 484.668 0.869041 490.841L0.868758 490.842C0.251115 493.189 0.400327 495.125 1.38731 496.546C2.37369 497.966 4.10848 498.745 6.37275 498.98C8.53172 499.208 10.6963 499.461 12.865 499.714C19.9799 500.544 27.1391 501.379 34.2906 501.388C184.64 501.531 334.978 501.543 485.327 501.388C495.502 501.379 505.689 500.598 515.845 499.82C518.968 499.581 522.088 499.342 525.203 499.125C528.127 498.927 530.201 498.291 531.31 496.808C532.422 495.322 532.432 493.161 531.734 490.289C528.084 475.273 524.385 460.25 520.219 445.356C515.203 427.405 510.115 409.483 505.026 391.562C498.957 370.186 492.889 348.813 486.945 327.397L486.945 327.396C486.163 324.583 485.144 322.577 483.497 321.294C481.847 320.009 479.652 319.516 476.675 319.528C437.187 319.666 397.693 319.621 358.201 319.576C346.048 319.563 333.896 319.549 321.745 319.54H321.733H321.72H321.708H321.696H321.684H321.672H321.66H321.648H321.636H321.623H321.611H321.599H321.587H321.575H321.563H321.551H321.538H321.526H321.514H321.502H321.49H321.478H321.466H321.454H321.441H321.429H321.417H321.405H321.393H321.381H321.368H321.356H321.344H321.332H321.32H321.308H321.296H321.283H321.271H321.259H321.247H321.235H321.223H321.21H321.198H321.186H321.174H321.162H321.149H321.137H321.125H321.113H321.101H321.088H321.076H321.064H321.052H321.04H321.027H321.015H321.003H320.991H320.978H320.966H320.954H320.942H320.929H320.917H320.905H320.893H320.88H320.868H320.856H320.844H320.831H320.819H320.807H320.795H320.782H320.77H320.758H320.745H320.733H320.721H320.708H320.696H320.684H320.671H320.659H320.647H320.634H320.622H320.61H320.597H320.585H320.573H320.56H320.548H320.535H320.523H320.511H320.498H320.486H320.473H320.461H320.449H320.436H320.424H320.411H320.399H320.386H320.374H320.361H320.349H320.337H320.324H320.312H320.299H320.287H320.274H320.262H320.249H320.237H320.224H320.211H320.199H320.186H320.174H320.161H320.149H320.136H320.123H320.111H320.098H320.086H320.073H320.06H320.048H320.035H320.023H320.01H319.997H319.985H319.972H319.959H319.947H319.934H319.921H319.908H319.896H319.883H319.87H319.857H319.845H319.832H319.819H319.806H319.794H319.781H319.768H319.755H319.742H319.73H319.717H319.704H319.691H319.678H319.665H319.652H319.64H319.627H319.614H319.601H319.588H319.575H319.562H319.549H319.536H319.523H319.51H319.497H319.484H319.471H319.458H319.445H319.432H319.419H319.406H319.393H319.38H319.367H319.354H319.341H319.327H319.314H319.301H319.288H319.275H319.262H319.248H319.235H319.222H319.209H319.196H319.182H319.169H319.156H319.143H319.129H319.116H319.103H319.089H319.076H319.063H319.049H319.036H319.023H319.009H318.996H318.983H318.969H318.956H318.942H318.929H318.915H318.902H318.888H318.875H318.861H318.848H318.834H318.821H318.807H318.794H318.78H318.766H318.753H318.739H318.726H318.712H318.698H318.685H318.671H318.657H318.643H318.63H318.616H318.602H318.589H318.575H318.561H318.547H318.533H318.52H318.506H318.492H318.478H318.464H318.45H318.436H318.422H318.408H318.394H318.38H318.366H318.352H318.338H318.324H318.31H318.296H318.282H318.268H318.254H318.24H318.226H318.212H318.198H318.183H318.169H318.155H318.141H318.127H318.112H318.098H318.084H318.07H318.055H318.041H318.027H318.012H317.998H317.984H317.969H317.955H317.94H317.926H317.911H317.897H317.882H317.868H317.853H317.839H317.824H317.81H317.795H317.781H317.766H317.751H317.737H317.722H317.707H317.693H317.678H317.663H317.648H317.634H317.619H317.604H317.589H317.574H317.56H317.545H317.53H317.515H317.5H317.485H317.47H317.455H317.44H317.425H317.41H317.395H317.38H317.365H317.35H317.335H317.32H317.305H317.289H317.274H317.259H317.244H317.229H317.213H317.198H317.183H317.167H317.152H317.137H317.121H317.106H317.091H317.075H317.06H317.044H317.029H317.013H316.998H316.982H316.967H316.951H316.936H316.92H316.904H316.889H316.873H316.857H316.842H316.826H316.81H316.794H316.779H316.763H316.747H316.731H316.715H316.699H316.684H316.668H316.652H316.636H316.62H316.604H316.588H316.572H316.556H316.54H316.523H316.507H316.491H316.475H316.459H316.443H316.426H316.41H316.394H316.378H316.361H316.345H316.329H316.312H316.296H316.279H316.263H316.246H316.23H316.214H316.197H316.18H316.164H316.147H316.131H316.114H316.097H316.081H316.064H316.047H316.031H316.014H315.997H315.98H315.963H315.946H315.93H315.913H315.896H315.879H315.862H315.845H315.828H315.811H315.794H315.777H315.76H315.742H315.725H315.708H315.691H315.674H315.656H315.639H315.622H315.605H315.587H315.57H315.553H315.535H315.518H315.5H315.483H315.465H315.448H315.43H315.413H315.395H315.377H315.36H315.342H315.324H315.307H315.289H315.271H315.253H315.236H315.218H315.201C315.693 318.655 316.14 317.844 316.557 317.088C317.648 315.108 318.531 313.506 319.47 311.933L319.47 311.933C327.133 299.08 334.803 286.234 342.472 273.388C355.65 251.317 368.825 229.249 381.962 207.157L381.533 206.902L381.962 207.157C399.536 177.579 405.992 145.543 399 111.931L398.511 112.033L399 111.931C392.923 82.741 380.808 59.1573 362.992 41.0365C345.177 22.9168 321.688 10.2848 292.901 2.95627L292.901 2.95613C292.09 2.75065 291.306 2.37452 290.5 1.93175C290.221 1.77829 289.933 1.61335 289.641 1.44574C289.114 1.14357 288.572 0.832719 288.036 0.564752ZM264.301 403.06L264.733 403.729L265.148 403.049C266.026 401.608 266.878 400.211 267.709 398.849C271.152 393.203 274.224 388.166 277.281 383.114C279.337 379.715 281.396 376.317 283.455 372.919C291.207 360.125 298.961 347.328 306.573 334.449C307.574 332.757 308.604 331.554 309.858 330.769C311.107 329.987 312.623 329.592 314.648 329.598C367.078 329.705 419.497 329.777 471.929 329.502C473.517 329.493 474.684 329.752 475.56 330.177C476.431 330.6 477.045 331.201 477.51 331.927C477.981 332.66 478.304 333.525 478.578 334.476C478.715 334.951 478.839 335.439 478.964 335.939C479.088 336.437 479.214 336.947 479.353 337.451C483.629 352.869 487.822 368.308 492.015 383.748C493.981 390.989 495.947 398.23 497.922 405.469C501.272 417.751 504.634 430.03 507.997 442.309C511.359 454.588 514.721 466.866 518.071 479.148C518.612 481.129 519.106 483.119 519.705 485.533C519.921 486.403 520.15 487.328 520.401 488.327H520.045H519.048H518.051H517.054H516.057H515.061H514.064H513.067H512.07H511.074H510.077H509.08H508.084H507.087H506.09H505.094H504.097H503.101H502.104H501.108H500.111H499.115H498.118H497.122H496.125H495.129H494.132H493.136H492.14H491.143H490.147H489.151H488.154H487.158H486.162H485.166H484.169H483.173H482.177H481.181H480.185H479.189H478.193H477.197H476.2H475.204H474.208H473.212H472.216H471.22H470.224H469.228H468.232H467.237H466.241H465.245H464.249H463.253H462.257H461.261H460.266H459.27H458.274H457.278H456.282H455.287H454.291H453.295H452.3H451.304H450.308H449.313H448.317H447.321H446.326H445.33H444.335H443.339H442.344H441.348H440.353H439.357H438.362H437.366H436.371H435.375H434.38H433.384H432.389H431.394H430.398H429.403H428.408H427.412H426.417H425.422H424.427H423.431H422.436H421.441H420.446H419.45H418.455H417.46H416.465H415.47H414.474H413.479H412.484H411.489H410.494H409.499H408.504H407.509H406.514H405.519H404.524H403.529H402.534H401.539H400.544H399.549H398.554H397.559H396.564H395.569H394.574H393.579H392.584H391.59H390.595H389.6H388.605H387.61H386.615H385.621H384.626H383.631H382.636H381.642H380.647H379.652H378.657H377.663H376.668H375.673H374.678H373.684H372.689H371.694H370.7H369.705H368.711H367.716H366.721H365.727H364.732H363.738H362.743H361.748H360.754H359.759H358.765H357.77H356.776H355.781H354.787H353.792H352.798H351.803H350.809H349.814H348.82H347.826H346.831H345.837H344.842H343.848H342.853H341.859H340.865H339.87H338.876H337.882H336.887H335.893H334.899H333.904H332.91H331.916H330.921H329.927H328.933H327.938H326.944H325.95H324.956H323.961H322.967H321.973H320.979H319.984H318.99H317.996H317.002H316.007H315.013H314.019H313.025H312.031H311.036H310.042H309.048H308.054H307.06H306.066H305.072H304.077H303.083H302.089H301.095H300.101H299.107H298.113H297.118H296.124H295.13H294.136H293.142H292.148H291.154H290.16H289.166H288.172H287.178H286.184H285.19H284.195H283.201H282.207H281.213H280.219H279.225H278.231H277.237H276.243H275.249H274.255H273.261H272.267H271.273H270.279H269.285H268.291H267.297H266.303H265.309H264.315H263.321H262.327H261.333H260.339H259.345H258.351H257.357H256.363H255.369H254.375H253.381H252.387H251.393H250.399H249.405H248.411H247.417H246.423H245.429H244.436H243.442H242.448H241.454H240.46H239.466H238.472H237.478H236.484H235.49H234.496H233.502H232.508H231.514H230.52H229.526H228.532H227.538H226.544H225.55H224.556H223.562H222.568H221.575H220.581H219.587H218.593H217.599H216.605H215.611H214.617H213.623H212.629H211.635H210.641H209.647H208.653H207.659H206.665H205.671H204.677H203.683H202.689H201.695H200.701H199.707H198.713H197.719H196.725H195.731H194.737H193.743H192.749H191.755H190.761H189.767H188.773H187.779H186.785H185.791H184.797H183.803H182.809H181.815H180.821H179.827H178.833H177.839H176.845H175.851H174.857H173.862H172.868H171.874H170.88H169.886H168.892H167.898H166.904H165.91H164.916H163.922H162.927H161.933H160.939H159.945H158.951H157.957H156.963H155.969H154.974H153.98H152.986H151.992H150.998H150.004H149.009H148.015H147.021H146.027H145.033H144.038H143.044H142.05H141.056H140.061H139.067H138.073H137.079H136.084H135.09H134.096H133.101H132.107H131.113H130.119H129.124H128.13H127.136H126.141H125.147H124.153H123.158H122.164H121.169H120.175H119.181H118.186H117.192H116.197H115.203H114.209H113.214H112.22H111.225H110.231H109.236H108.242H107.247H106.253H105.258H104.264H103.269H102.275H101.28H100.286H99.2911H98.2965H97.302H96.3074H95.3128H94.3182H93.3235H92.3289H91.3343H90.3396H89.345H88.3503H87.3556H86.3609H85.3662H84.3715H83.3768H82.3821H81.3874H80.3926H79.3979H78.4031H77.4083H76.4135H75.4187H74.4239H73.4291H72.4342H71.4394H70.4445H69.4497H68.4548H67.4599H66.465H65.4701H64.4752H63.4802H62.4853H61.4903H60.4953H59.5004H58.5054H57.5104H56.5153H55.5203H54.5253H53.5302H52.5351H51.5401H50.545H49.5499H48.5547H47.5596H46.5645H45.5693H44.5741H43.5789H42.5837H41.5885H40.5933H39.5981H38.6028H37.6076H36.6123H35.617H34.6217H33.6264H32.631H31.6357H30.6403H29.645H28.6496H27.6542H26.6587H25.6633H24.6679H23.6724H22.6769H21.6814H20.6859H19.6904H18.6949H17.6993H16.7038H15.7082H14.7126H13.717H12.7214H12.3024C12.3477 487.989 12.3883 487.651 12.4289 487.314C12.5599 486.224 12.6902 485.141 12.9746 484.075C16.9213 469.402 20.8764 454.731 24.8316 440.06C34.2574 405.096 43.6836 370.131 52.9968 335.137L52.5136 335.008L52.9969 335.137C53.6185 332.797 54.4356 331.377 55.6037 330.525C56.777 329.668 58.3928 329.317 60.7678 329.323C111.99 329.478 163.212 329.454 214.434 329.311C216.558 329.305 218.154 329.677 219.473 330.463C220.794 331.251 221.887 332.485 222.951 334.292C232.327 350.265 241.855 366.145 251.381 382.024C254.158 386.654 256.936 391.283 259.709 395.914C260.514 397.262 261.376 398.577 262.459 400.231C263.008 401.071 263.615 401.997 264.301 403.06ZM212.181 138.552L211.681 138.547L212.181 138.552C212.453 109.561 236.528 85.9751 265.42 86.378C294.17 86.7809 317.424 110.687 317.045 139.438C316.666 167.963 292.961 191.204 264.522 190.943C235.56 190.682 211.908 166.983 212.181 138.552Z" fill="white" stroke="white"/>
</svg>
