<svg width="520" height="520" viewBox="0 0 520 520" fill="none" xmlns="http://www.w3.org/2000/svg">
<g filter="url(#filter0_d)">
<path d="M201.084 185.555C215.084 168.611 236.278 157.777 260 157.777C283.723 157.777 304.917 168.611 318.917 185.555C328.134 196.73 333.984 210.296 335.784 224.67C337.583 239.044 335.259 253.633 329.081 266.736C322.904 279.839 313.128 290.915 300.894 298.673C288.66 306.43 274.473 310.549 259.987 310.549C245.501 310.549 231.313 306.43 219.079 298.673C206.845 290.915 197.069 279.839 190.892 266.736C184.714 253.633 182.39 239.044 184.189 224.67C185.989 210.296 191.839 196.73 201.056 185.555H201.084Z" fill="white"/>
<path d="M364.165 234.168C364.165 216.612 359.832 200.057 352.165 185.557H468.332C479.383 185.557 489.981 189.947 497.795 197.761C505.609 205.575 509.999 216.173 509.999 227.223V241.112C509.999 285.196 476.499 330.334 417.915 346.223C411.895 335.409 403.094 326.4 392.423 320.129C381.751 313.858 369.598 310.553 357.221 310.557H330.832C341.361 300.815 349.758 288.998 355.495 275.851C361.232 262.704 364.184 248.512 364.165 234.168Z" fill="white"/>
<path d="M357.221 338.334C362.697 338.319 368.121 339.387 373.183 341.476C378.245 343.565 382.844 346.633 386.716 350.505C390.588 354.377 393.657 358.976 395.745 364.038C397.834 369.1 398.902 374.525 398.887 380.001V393.89C398.887 448.64 347.221 505.001 259.998 505.001C172.776 505.001 121.11 448.64 121.11 393.89V380.001C121.095 374.525 122.163 369.1 124.251 364.038C126.34 358.976 129.409 354.377 133.281 350.505C137.153 346.633 141.752 343.565 146.814 341.476C151.876 339.387 157.3 338.319 162.776 338.334H357.221Z" fill="white"/>
<path d="M10 241.112C10 285.196 43.5 330.334 102.083 346.223C108.104 335.409 116.905 326.4 127.576 320.129C138.247 313.858 150.4 310.553 162.778 310.557H189.167C178.638 300.815 170.241 288.998 164.504 275.851C158.767 262.704 155.815 248.512 155.833 234.168C155.833 216.612 160.167 200.057 167.861 185.557H51.6667C40.616 185.557 30.0179 189.947 22.2039 197.761C14.3899 205.575 10 216.173 10 227.223V241.112Z" fill="white"/>
<path d="M225.278 81.3889C225.278 61.1293 217.23 41.6995 202.904 27.3738C188.578 13.0481 169.148 5 148.889 5C128.629 5 109.199 13.0481 94.8738 27.3738C80.5481 41.6995 72.5 61.1293 72.5 81.3889C72.5 101.648 80.5481 121.078 94.8738 135.404C109.199 149.73 128.629 157.778 148.889 157.778C169.148 157.778 188.578 149.73 202.904 135.404C217.23 121.078 225.278 101.648 225.278 81.3889Z" fill="white"/>
<path d="M447.5 81.3889C447.5 61.1293 439.452 41.6995 425.127 27.3738C410.801 13.0481 391.371 5 371.112 5C350.852 5 331.422 13.0481 317.096 27.3738C302.771 41.6995 294.723 61.1293 294.723 81.3889C294.723 101.648 302.771 121.078 317.096 135.404C331.422 149.73 350.852 157.778 371.112 157.778C391.371 157.778 410.801 149.73 425.127 135.404C439.452 121.078 447.5 101.648 447.5 81.3889Z" fill="white"/>
</g>
<defs>
<filter id="filter0_d" x="0" y="0" width="519.999" height="520.001" filterUnits="userSpaceOnUse" color-interpolation-filters="sRGB">
<feFlood flood-opacity="0" result="BackgroundImageFix"/>
<feColorMatrix in="SourceAlpha" type="matrix" values="0 0 0 0 0 0 0 0 0 0 0 0 0 0 0 0 0 0 127 0"/>
<feOffset dy="5"/>
<feGaussianBlur stdDeviation="5"/>
<feColorMatrix type="matrix" values="0 0 0 0 0 0 0 0 0 0 0 0 0 0 0 0 0 0 0.75 0"/>
<feBlend mode="normal" in2="BackgroundImageFix" result="effect1_dropShadow"/>
<feBlend mode="normal" in="SourceGraphic" in2="effect1_dropShadow" result="shape"/>
</filter>
</defs>
</svg>
