<svg width="520" height="520" viewBox="0 0 520 520" fill="none" xmlns="http://www.w3.org/2000/svg">
<g filter="url(#filter0_d)">
<path fill-rule="evenodd" clip-rule="evenodd" d="M260 505C121.922 505 10 393.078 10 255C10 116.922 121.922 5 260 5C398.078 5 510 116.922 510 255C510 393.078 398.078 505 260 505ZM339.203 300.156C339.422 277.766 329.719 261.625 310.375 251.969C303.156 248.375 295.438 245.812 287.922 242.844C275.578 237.969 262.453 234.594 251.078 227.969C233.203 217.562 233.297 192.844 250.109 180.688C262.047 172.047 275.609 171.844 289.359 172.422C305.062 173.094 319.938 177.625 334.75 182.609C343.406 185.516 347.938 182.812 350.094 173.719C351.25 168.891 352.125 163.984 353.031 159.094C354.547 150.922 354.234 150.031 346.375 147.594C335.944 144.263 325.396 141.313 314.75 138.75C309.156 137.453 307.438 134.844 308.422 129.219C309.281 124.328 309.516 119.328 309.984 114.375C311.047 103.062 309.828 101.406 298.984 99.1719C292.531 97.8594 290.266 99.4531 289.328 106.453C288.469 112.766 287.922 119.109 287.219 125.438C286.094 135.281 285.688 135.453 276.172 135.172C272 135.047 270.75 133.219 271.203 129.234C271.766 124.484 272.156 119.734 272.609 114.969C273.766 102.766 272.359 100.906 260.609 98.9844C255.078 98.0781 252.766 99.7344 252.047 105.656C251.109 113.359 249.875 121.094 249.781 128.828C249.672 135.969 246.797 139.312 240.437 141.719C216.578 150.75 200.5 167.781 195.547 194.047C191.156 217.328 194.641 239.156 214.578 253.906C223.469 260.469 234.156 264.687 244.437 268.859C256 273.562 268.344 276.312 279.812 281.234C293.766 287.219 298.094 299.25 293.266 314.125C290 324.125 283.5 331.125 274.656 335.891C261.266 343.094 246.75 344.062 232.078 343.703C215.828 343.312 200.187 339.641 184.969 333.641C176.375 330.266 171.875 333.078 169.938 342.391C168.812 347.828 167.906 353.328 166.594 358.734C165.562 362.969 166.812 365.812 170.625 367.328C176.875 369.797 183.109 372.484 189.531 374.422C203.984 378.781 204.031 378.609 202.062 394.281C200.5 406.922 201.375 408.234 213.312 410.812C218.906 412.031 221.328 410.594 222.297 404.781C223.234 399.109 223.781 393.344 224.328 387.594C224.703 383.594 226.406 381.578 230.484 381.375C239.547 380.922 240.906 382.281 239.812 391.781L239.438 394.75C237.969 406.312 239.156 408.094 250.188 410.719C256.594 412.25 258.984 410.656 259.969 403.688C260.812 397.797 261.422 391.844 261.844 385.875C262.203 381.141 264.562 379 268.891 377.906C276.141 376.094 283.422 374.156 290.422 371.5C320.266 360.141 339 332.562 339.203 300.172V300.156Z" fill="white"/>
</g>
<defs>
<filter id="filter0_d" x="0" y="0" width="520" height="520" filterUnits="userSpaceOnUse" color-interpolation-filters="sRGB">
<feFlood flood-opacity="0" result="BackgroundImageFix"/>
<feColorMatrix in="SourceAlpha" type="matrix" values="0 0 0 0 0 0 0 0 0 0 0 0 0 0 0 0 0 0 127 0"/>
<feOffset dy="5"/>
<feGaussianBlur stdDeviation="5"/>
<feColorMatrix type="matrix" values="0 0 0 0 0 0 0 0 0 0 0 0 0 0 0 0 0 0 0.75 0"/>
<feBlend mode="normal" in2="BackgroundImageFix" result="effect1_dropShadow"/>
<feBlend mode="normal" in="SourceGraphic" in2="effect1_dropShadow" result="shape"/>
</filter>
</defs>
</svg>
