<svg width="600" height="600" viewBox="0 0 600 600" fill="none" xmlns="http://www.w3.org/2000/svg">
<g clip-path="url(#clip0)">
<path d="M675 675H-75V-75H675V675Z" fill="url(#paint0_linear)"/>
<path d="M360.996 403.874H308.184V356.576H360.996V403.874ZM414.113 320.069H340.054V380.225H414.113V320.069ZM377.082 441.95H442.881V362.639H377.082V441.95ZM400.757 434.192H334.59V491.191H400.757V434.192ZM580.44 284.416H490.23V387.501H580.44V284.416ZM478.458 331.108H456.605V356.576H478.458V331.108ZM544.531 252.277H456.605V304.426H544.531V252.277ZM442.881 270.468H395.532V335.958H442.881V270.468ZM334.59 275.32H308.184V303.213H334.59V275.32ZM299.325 320.069H258.501V382.71H299.325V320.069V320.069ZM347.338 441.95H275.708V521.511H347.338V441.95ZM308.184 576.086H388.617V528.788H308.184V576.086ZM500.311 557.894H443.791V599.129H500.313V557.894H500.311ZM637.361 516.659H585.062V578.511H637.361V516.659ZM551.302 544.718H506.381V585.953H551.302V544.718ZM594.357 463.296H528.843V537.278H594.357V463.296ZM610.791 590.639H528.843V644H610.791V590.639ZM340.054 557.894H251.187V637.937H340.052V557.894H340.054ZM630.216 356.576H569.818V403.874H630.216V356.576ZM594.357 424.49H568.208V451.477H594.357V424.49ZM251.187 474.697H300.975V404.294H251.187V474.697ZM321.764 249.852L232 252.277V320.069H321.764V249.852ZM646 252.277H587.725V326.256H646V252.277ZM371.858 245H347.338V298.361H371.858V245ZM641.143 437.983H581.281V486.494H641.143V437.983Z" fill="url(#paint1_linear)" stroke="#FFC700" stroke-width="1.5"/>
<path d="M115.996 319.874H63.1843V272.576H115.996V319.874ZM169.113 236.069H95.0537V296.225H169.113V236.069ZM132.082 357.95H197.881V278.639H132.082V357.95ZM155.757 350.192H89.5904V407.191H155.757V350.192ZM335.44 200.416H245.23V303.501H335.44V200.416ZM233.458 247.108H211.605V272.576H233.458V247.108ZM299.531 168.277H211.605V220.426H299.531V168.277ZM197.881 186.468H150.532V251.958H197.881V186.468ZM89.5904 191.32H63.1843V219.213H89.5904V191.32ZM54.3246 236.069H13.5008V298.71H54.3246V236.069V236.069ZM102.338 357.95H30.7084V437.511H102.338V357.95ZM63.1843 492.086H143.617V444.788H63.1843V492.086ZM255.311 473.894H198.791V515.129H255.313V473.894H255.311ZM392.361 432.659H340.062V494.511H392.361V432.659ZM306.302 460.718H261.381V501.953H306.302V460.718ZM349.357 379.296H283.843V453.278H349.357V379.296ZM365.791 506.639H283.843V560H365.791V506.639ZM95.0537 473.894H6.18721V553.937H95.0519V473.894H95.0537ZM385.216 272.576H324.818V319.874H385.216V272.576ZM349.357 340.49H323.208V367.477H349.357V340.49ZM6.18721 390.697H55.9745V320.294H6.18721V390.697ZM76.7643 165.852L-13 168.277V236.069H76.7643V165.852ZM401 168.277H342.725V242.256H401V168.277ZM126.858 161H102.338V214.361H126.858V161ZM396.143 353.983H336.281V402.494H396.143V353.983Z" fill="url(#paint2_linear)" stroke="#FFC700" stroke-width="1.5"/>
<rect x="504" y="328.706" width="8.86149" height="25.1423" fill="white"/>
<rect x="521.753" y="328.857" width="8.83104" height="25.1423" fill="white"/>
<rect x="512.862" y="320" width="8.89195" height="8.85765" fill="white"/>
<rect x="539.416" y="328.857" width="8.89195" height="25.1423" fill="white"/>
<rect x="530.584" y="320" width="8.83105" height="8.85765" fill="white"/>
<rect x="548.307" y="320" width="8.86149" height="8.85765" fill="white"/>
<rect x="557.169" y="327.792" width="8.83104" height="8.85766" fill="white"/>
<rect x="548.307" y="336.65" width="8.86149" height="8.82721" fill="white"/>
<rect x="40" y="390.425" width="7.57515" height="21.4449" fill="white"/>
<rect x="55.1763" y="390.555" width="7.54912" height="21.4449" fill="white"/>
<rect x="47.5752" y="383" width="7.60118" height="7.55506" fill="white"/>
<rect x="70.2747" y="390.555" width="7.60118" height="21.4449" fill="white"/>
<rect x="62.7253" y="383" width="7.54912" height="7.55506" fill="white"/>
<rect x="77.8757" y="383" width="7.57515" height="7.55506" fill="white"/>
<rect x="85.4509" y="389.646" width="7.54912" height="7.55506" fill="white"/>
<rect x="77.8757" y="397.202" width="7.57515" height="7.52909" fill="white"/>
<path d="M299.327 353.668H297.248V351.589H299.327V353.668Z" fill="#8E5D3D"/>
<path d="M496.701 560.111C492.135 550.242 479.66 535.617 465.801 531.577C448.668 526.58 409.995 520.539 395.655 517.181C384.16 514.486 361.008 493.696 352.894 486.717C351.438 485.47 350.246 482.893 350.217 480.978C349.928 458.387 358.941 398.375 358.941 398.375H298.288H237.637C237.637 398.375 246.649 458.385 246.356 480.978C246.333 482.893 245.135 485.47 243.684 486.717C235.57 493.696 212.417 514.486 200.922 517.181C186.58 520.539 147.907 526.786 130.777 531.783C116.913 535.821 104.443 550.24 99.8761 560.109C92.1656 576.761 90.344 606.896 90.344 632.889H298.288H506.231C506.231 606.898 504.408 576.763 496.701 560.111Z" fill="#F0C7B1"/>
<path d="M421.299 527.423C471.916 534.788 493.218 545.53 499.889 632.894H506.231C506.231 606.901 504.408 576.765 496.701 560.113C492.135 550.244 479.66 535.62 465.801 531.579C448.668 526.582 409.995 520.542 395.655 517.183C384.16 514.488 357.722 492.087 350.65 483.185C357.637 492.966 377.248 515.634 394.43 521.571C402.65 524.411 409.496 525.705 421.299 527.423ZM202.147 521.571C219.329 515.636 238.938 492.966 245.927 483.185C238.857 492.085 212.419 514.488 200.922 517.183C186.582 520.542 147.909 526.788 130.776 531.785C116.917 535.823 104.442 550.242 99.876 560.111C92.1696 576.763 90.3459 606.899 90.3459 632.892H96.6882C103.317 546.088 124.709 534.777 175.278 527.42C187.079 525.705 193.927 524.411 202.147 521.571Z" fill="#FFE4D6"/>
<path d="M289.234 555.624C289.234 555.624 278.683 552.278 274.505 550.677C252.777 542.34 182.188 536.938 182.188 536.938C182.188 536.938 256.537 539.889 272.943 542.717C271.991 532.804 266.67 501.12 266.67 501.12C266.67 501.12 277.377 536.085 279.997 544.906C281.398 549.622 289.234 555.624 289.234 555.624ZM311.69 552.833C311.504 552.985 311.292 553.182 311.062 553.39C311.297 553.214 311.509 553.029 311.69 552.833ZM289.234 555.624C289.234 555.624 295.25 561.845 298.273 561.924C302.245 562.03 308.313 555.896 311.064 553.39C308.433 555.38 302.415 556.283 300.022 556.376C297.256 556.483 289.234 555.624 289.234 555.624ZM332.939 539.988C329.727 540.504 323.819 541.629 323.819 541.629L328.575 510.666C327.231 517.052 319.271 544.376 311.69 552.833C315.661 549.473 324.495 547.861 328.999 547.21C350.284 544.124 350.276 544.127 414.385 536.938C414.385 536.938 353.933 536.616 332.939 539.988Z" fill="#E1AC8F"/>
<path d="M496.701 560.111C492.135 550.242 479.66 535.617 465.801 531.577C448.668 526.58 409.995 520.539 395.655 517.181C384.16 514.486 361.008 493.696 352.894 486.717C351.438 485.47 350.246 482.893 350.217 480.978C349.928 458.387 358.941 398.375 358.941 398.375H298.288H237.637C237.637 398.375 246.649 458.385 246.356 480.978C246.333 482.893 245.135 485.47 243.684 486.717C235.57 493.696 212.417 514.486 200.922 517.181C186.58 520.539 147.907 526.786 130.777 531.783C116.913 535.821 104.443 550.24 99.8761 560.109C92.1656 576.761 90.344 606.896 90.344 632.889H298.288H506.231C506.231 606.898 504.408 576.763 496.701 560.111Z" stroke="#C27B55" stroke-width="4.05"/>
<path d="M247.377 483.741C261.889 493.182 281.286 502.07 298.292 502.07C314.57 502.07 334.36 493.109 349.151 483.627C348.849 482.737 348.666 481.835 348.654 480.999C348.392 460.46 355.609 410.254 357.129 399.936H239.446C240.964 410.256 248.184 460.46 247.917 480.997C247.907 481.858 247.707 482.808 247.377 483.741Z" fill="url(#paint3_linear)"/>
<path d="M322.837 635.199C283.047 635.199 236.634 635.045 180.951 634.723L131.712 634.457C101.981 634.295 100.228 634.261 96.5969 634.261L86.4097 634.276C76.9046 547.199 116.374 524.336 177.41 516.355C193.607 514.074 209.535 509.915 222.033 501.857C255.984 548.11 356.803 538.376 374.046 500.549C376.936 501.651 379.325 503.076 382.316 504.155C392.018 511.294 405.339 516.291 418.972 517.045C473.054 520.042 511.338 544.07 510.586 630.666C510.592 631.009 510.594 633.109 510.559 633.764C484.539 633.764 474.78 634.016 454.343 634.309C426.622 634.704 392.12 635.197 322.862 635.197C322.852 635.199 322.846 635.199 322.837 635.199Z" fill="#39557E"/>
<path d="M508.425 632.604C507.573 617.248 499.974 574.26 486.882 554.54C460.927 515.436 399.005 529.159 384.715 513.59C374.347 534.715 332.781 548.098 319.018 550.063C358.903 536.838 375.655 527.275 382.274 504.586C395.593 521.908 467.685 508.684 496.055 555.181C504.362 568.795 512.262 612.128 508.425 632.604ZM206.399 514.052C209.221 513.397 210.629 511.454 213.43 510.695L210.465 506.763C191.648 521.427 121.238 512.263 97.096 556.744C89.4873 570.762 84.3553 604.131 88.379 632.517C89.4956 615.083 90.0405 577.799 103.133 558.077C126.68 522.602 169.62 531.974 202.153 516.956C216.674 534.84 239.35 543.632 262.424 547.268C233.476 539.718 216.878 526.969 206.399 514.052Z" fill="#4E688D"/>
<path d="M371.713 504.935C360.209 528.878 273.251 556.761 224.218 506.763C221.17 508.056 212.049 511.155 212.049 511.155C247.766 559.784 352.434 560.092 380.294 510.918C380.172 510.87 374.545 506.374 371.713 504.935Z" fill="#27446F"/>
<path d="M373.937 500.273C354.364 539.412 252.505 544.95 222.114 501.587C211.016 504.869 200.344 511.862 189.6 513.61C125.303 523.186 77.7716 527.998 86.185 634.501C106.855 634.501 72.4379 634.365 180.947 634.948C437.945 636.424 429.569 633.989 510.758 633.989C510.818 633.698 510.789 630.97 510.802 630.67C515.16 513.315 446.647 520.244 400.342 512.153C393.804 510.66 387.728 506.387 382.386 503.949C379.435 502.6 376.928 501.388 373.937 500.273ZM221.378 502.899C248.356 551.541 354.917 541.783 375.491 503.109C377.986 504.157 378.624 504.573 381.517 505.598C360.207 550.283 254.792 564.523 211.675 508.017C211.978 507.932 218.337 504.039 221.378 502.899ZM88.5868 632.891C83.5525 577.93 92.3235 532.989 156.751 521.964C178.119 518.021 191.18 517.884 209.535 509.915C244.393 566.902 359.458 558.071 383.372 507.202C386.807 510.132 392.164 513.502 398.77 515.072C436.404 524.012 512.802 513.213 508.768 632.889C396.36 631.429 303.185 628.015 88.5868 632.891Z" fill="#0C2850"/>
<path d="M185.314 320.073C182.226 314.954 172.158 300.945 164.455 302.91C158.192 304.515 158.273 313.247 157.789 318.412C157.082 325.989 156.824 339.19 158.88 344.546C160.858 349.689 167.115 359.626 170.999 363.417C175.78 368.065 183.414 382.877 184.353 384.413C185.832 386.842 188.797 390.319 193.347 390.044C199.733 389.66 205.25 383.625 205.751 380.718C208.456 364.935 193.351 333.394 185.314 320.073Z" fill="#F0C7B1" stroke="#C27B55" stroke-width="4.05"/>
<path d="M182.256 351.259C181.958 350.088 182.27 348.112 182.576 346.208C182.852 344.471 183.112 342.831 182.954 341.67C182.353 337.324 178.972 329.069 176.766 324.594C174.223 319.445 170.114 312.96 164.957 311.288C162.827 310.595 161.424 311.423 160.613 312.261C160.014 312.876 159.879 313.602 160.074 313.689C160.272 313.775 160.713 313.174 161.357 312.61C161.885 312.149 160.301 312.527 161.357 312.61C160.931 314.773 159.559 325.715 160.505 333.702C161.249 339.986 162.688 344.679 163.131 345.382C163.195 346.122 163.304 346.848 163.464 347.551C165.547 356.721 179.097 368.713 182.249 372.13C182.832 372.76 183.443 373.134 183.593 372.98C183.742 372.827 183.383 372.205 182.805 371.571C179.69 368.177 166.229 356.222 164.216 347.376C162.081 337.99 172.351 324.072 173.988 321.128C174.822 322.51 175.531 323.837 176.075 324.943C176.506 325.81 176.978 326.827 177.469 327.927C176.506 329.462 166.826 340.668 169.288 349.639C170.199 352.947 177.236 357.212 179.958 358.379C181.455 359.023 182.016 359.984 182.669 361.094C183.426 362.392 182.738 365.729 185.227 366.79C185.734 367.006 186.192 367.094 186.597 367.094C187.3 367.094 187.833 366.823 188.226 366.503C188.267 367.066 188.265 367.79 188.244 368.46C188.219 369.329 188.342 369.726 188.552 369.743C188.766 369.761 188.989 369.381 189.016 368.522C189.051 367.462 189.045 366.149 188.856 365.519C188.296 363.671 186.593 361.581 184.786 359.37C183.01 357.197 182.717 353.072 182.256 351.259ZM163.06 343.13C158.178 328.734 165.728 315.621 166.824 313.646C168.928 314.475 172.152 318.206 173.522 320.373C172.524 322.105 163.264 333.446 163.06 343.13ZM185.524 366.07C183.27 365.11 184.056 361.945 183.329 360.697C182.667 359.57 181.985 358.406 180.253 357.661C179.879 357.499 179.465 357.254 179.041 356.971C173.464 344.338 179.65 338.817 181.201 337.688C181.677 339.231 182.031 340.647 182.191 341.785C182.333 342.824 182.068 344.484 181.815 346.085C181.497 348.071 181.17 350.127 181.509 351.458C182.016 353.44 182.364 357.634 184.194 359.876C185.818 361.864 187.485 363.914 188.055 365.586C187.81 365.919 187.038 366.717 185.524 366.07Z" fill="#C27B55"/>
<path d="M410.714 320.073C413.805 314.954 423.873 300.945 431.573 302.91C437.837 304.515 437.756 313.247 438.242 318.412C438.949 325.989 439.205 339.19 437.15 344.546C435.173 349.689 428.914 359.626 425.031 363.417C420.251 368.065 412.615 382.877 411.677 384.413C410.199 386.842 407.234 390.319 402.682 390.044C396.298 389.66 390.781 383.625 390.278 380.718C387.575 364.935 402.682 333.394 410.714 320.073Z" fill="#F0C7B1" stroke="#C27B55" stroke-width="4.05"/>
<path d="M411.247 359.372C409.44 361.583 407.737 363.673 407.177 365.521C406.986 366.153 406.982 367.466 407.015 368.524C407.044 369.383 407.267 369.763 407.483 369.745C407.695 369.728 407.816 369.331 407.791 368.462C407.77 367.792 407.766 367.068 407.807 366.505C408.2 366.825 408.733 367.095 409.436 367.095C409.841 367.095 410.301 367.008 410.808 366.792C413.293 365.729 412.607 362.392 413.364 361.096C414.017 359.986 414.578 359.023 416.077 358.381C418.799 357.214 425.836 352.951 426.747 349.641C429.209 340.67 419.529 329.462 418.566 327.929C419.053 326.829 419.529 325.812 419.955 324.945C420.504 323.839 421.211 322.51 422.047 321.13C423.684 324.074 433.952 337.99 431.819 347.378C429.804 356.224 416.346 368.179 413.231 371.572C412.65 372.207 412.289 372.828 412.438 372.982C412.592 373.136 413.201 372.762 413.782 372.132C416.934 368.715 430.482 356.723 432.565 347.553C432.727 346.85 432.838 346.124 432.902 345.384C433.341 344.683 434.782 339.99 435.526 333.704C436.472 325.717 435.1 314.775 434.674 312.612C435.73 312.529 434.146 312.151 434.674 312.612C435.32 313.176 435.761 313.777 435.957 313.691C436.152 313.604 436.017 312.88 435.42 312.263C434.607 311.425 433.204 310.597 431.074 311.29C425.917 312.962 421.806 319.447 419.263 324.596C417.057 329.071 413.678 337.326 413.077 341.672C412.919 342.833 413.179 344.473 413.455 346.21C413.759 348.114 414.073 350.09 413.775 351.261C413.314 353.072 413.023 357.197 411.247 359.372ZM422.509 320.373C423.881 318.206 427.102 314.477 429.207 313.646C430.303 315.621 437.853 328.734 432.973 343.13C432.769 333.446 423.509 322.105 422.509 320.373ZM407.978 365.582C408.546 363.91 410.215 361.859 411.839 359.872C413.667 357.63 414.017 353.436 414.524 351.454C414.861 350.123 414.536 348.067 414.22 346.081C413.965 344.48 413.701 342.82 413.842 341.78C414 340.643 414.353 339.227 414.83 337.684C416.381 338.813 422.567 344.336 416.99 356.967C416.568 357.249 416.154 357.495 415.776 357.657C414.046 358.401 413.364 359.566 412.7 360.693C411.972 361.941 412.761 365.108 410.507 366.066C408.993 366.717 408.221 365.918 407.978 365.582Z" fill="#C27B55"/>
<path d="M298.292 146.488C228.385 146.598 171.613 204.024 171.721 274.775C171.74 286.01 173.185 296.906 175.884 307.285H175.886C175.911 307.397 193.231 349.872 197.643 376.333C202.592 406.019 219.398 439.198 231.542 450.747C244.127 462.716 273.715 481.277 298.29 481.277C321.719 481.277 352.451 462.716 365.038 450.747C377.182 439.198 393.988 406.019 398.937 376.333C403.349 349.872 420.671 307.397 420.694 307.285H420.698C423.397 296.904 424.844 286.01 424.861 274.775C424.973 204.024 368.198 146.598 298.292 146.488Z" fill="#F0C7B1"/>
<path d="M375.021 172.82C401.775 196.355 418.82 231.91 418.764 271.675C418.745 282.91 417.369 293.804 414.801 304.185H414.799C414.776 304.297 398.29 346.771 394.09 373.232C389.375 402.92 373.38 436.1 361.823 447.647C349.843 459.618 320.592 478.179 298.292 478.179C274.9 478.179 246.739 459.618 234.761 447.647C223.204 436.1 207.209 402.92 202.497 373.232C198.296 346.773 181.81 304.299 181.787 304.185H181.785C179.215 293.804 177.839 282.91 177.822 271.675C177.764 231.912 194.807 196.362 221.559 172.824C191.236 196.274 171.658 233.215 171.721 274.775C171.74 286.01 173.185 296.907 175.884 307.285H175.886C175.911 307.397 193.231 349.872 197.643 376.333C202.592 406.019 219.398 439.198 231.542 450.747C244.127 462.717 273.715 481.278 298.29 481.278C321.719 481.278 352.451 462.717 365.038 450.747C377.182 439.198 393.988 406.019 398.937 376.333C403.349 349.872 420.671 307.397 420.694 307.285H420.698C423.397 296.904 424.844 286.01 424.861 274.775C424.928 233.213 405.348 196.268 375.021 172.82Z" fill="#E8B9A0"/>
<path d="M298.292 146.488C228.385 146.598 171.613 204.024 171.721 274.775C171.74 286.01 173.185 296.906 175.884 307.285H175.886C175.911 307.397 193.231 349.872 197.643 376.333C202.592 406.019 219.398 439.198 231.542 450.747C244.127 462.716 273.715 481.277 298.29 481.277C321.719 481.277 352.451 462.716 365.038 450.747C377.182 439.198 393.988 406.019 398.937 376.333C403.349 349.872 420.671 307.397 420.694 307.285H420.698C423.397 296.904 424.844 286.01 424.861 274.775C424.973 204.024 368.198 146.598 298.292 146.488Z" stroke="#C27B55" stroke-width="4.05"/>
<path d="M300.184 439.235C287.184 439.217 281.969 430.125 281.969 430.125C297.626 435.708 317.213 430.728 317.213 430.728C317.213 430.728 313.235 439.256 300.184 439.235Z" fill="url(#paint4_linear)"/>
<path d="M256.98 415.351C265.145 415.094 281.283 413.958 287.198 414.305C290.256 414.486 295.273 416.59 298.569 417.309C300.863 417.812 309.58 415.44 311.932 415.428C318.078 415.389 331.404 418.342 338.561 419.504C338.957 419.566 338.561 419.504 338.561 419.504C338.561 419.504 320.951 434.544 298.395 433.556C272.865 432.433 256.98 415.351 256.98 415.351C256.575 415.362 256.98 415.351 256.98 415.351Z" fill="#E28C7C"/>
<path d="M339.234 419.056C339.04 418.768 337.768 418.495 337.299 418.55C336.446 418.651 335.828 419.44 334.039 419.598C331.972 419.79 321.013 421.462 318.023 421.387C312.01 421.24 305.106 422.67 299.365 422.418C293.617 422.167 284.579 419.767 278.602 419.344C275.636 419.134 263.453 416.295 261.436 415.897C259.699 415.554 259.56 414.74 258.862 414.509C258.37 414.339 256.959 414.456 256.577 414.714C256.245 414.943 256.348 415.989 256.579 416.277C257.147 416.974 259.249 417.272 260.784 417.576C262.913 417.997 275.276 420.865 278.328 421.08C284.243 421.506 293.399 424.061 299.196 424.315C304.987 424.571 312.023 422.972 317.975 423.123C321.036 423.201 332.15 421.524 334.344 421.33C335.931 421.183 337.903 420.92 338.635 420.41C338.985 420.17 339.424 419.358 339.234 419.056Z" fill="#B4422D"/>
<path d="M298.647 430.646C288.557 430.207 272.641 426.273 266.55 421.149C270.276 421.595 278.341 422.249 282.04 422.734C286.608 423.34 292.93 425.028 297.583 425.461C302.606 425.923 309.477 424.919 314.377 424.495C318.471 424.146 324.814 422.984 328.902 422.849C322.028 426.95 308.386 431.072 298.647 430.646ZM315.02 420.037C318.684 419.852 324.4 418.601 328.044 418.493C323.936 417.37 317.753 417.366 313.391 416.899C309.626 416.501 303.887 418.477 300.154 418.738C295.95 419.04 290.954 415.984 287.04 415.689C282.793 415.373 273.927 416.336 269.759 417.071C273.318 417.46 281.059 418.061 284.563 418.631C288.859 419.331 295.023 420.84 299.481 421.037C304.052 421.238 310.504 420.271 315.02 420.037Z" fill="#EA9B8C"/>
<path d="M298.663 428.841C292.656 428.571 282.676 426.412 278.367 423.432C279.469 423.482 282.676 423.766 283.737 423.864C284.071 423.898 284.408 423.935 284.739 423.978C286.471 424.209 288.145 424.674 289.934 425.156C291.67 425.63 295.609 426.231 297.549 426.43C297.931 426.474 298.31 426.492 298.695 426.508C301.08 426.618 305.518 426.369 307.714 426.028C309.107 425.811 310.417 425.589 311.762 425.463C312.494 425.39 313.293 425.355 314.189 425.351C314.958 425.344 315.765 425.364 316.559 425.39C312.517 427.437 304.855 429.114 298.663 428.841Z" fill="#F1AA9D"/>
<path d="M251.488 417.464C251.488 417.464 249.868 414.747 250.095 413.729C250.413 412.313 254.493 409.497 254.493 409.497C254.493 409.497 252.023 412.734 251.641 413.758C251.273 414.749 251.488 417.464 251.488 417.464Z" fill="#C27B55"/>
<path d="M249.903 307.677C259.442 309.089 266.395 314.93 272.305 324.188C272.313 324.198 272.332 324.196 272.343 324.205C272.357 324.261 272.386 324.315 272.397 324.371C272.927 326.465 270.7 328.154 267.915 329.441C257.994 330.707 248.454 332.537 238.4 331.25C218.269 328.669 217.907 319.794 216.928 317.465C216.404 315.176 216.252 314.519 216.281 312.323C221.13 309.482 224.688 308.898 228.454 308.154C232.871 307.284 242.7 306.606 249.903 307.677Z" fill="url(#paint5_radial)"/>
<path d="M256.778 322.66C254.971 329.297 248.123 333.209 241.471 331.385C234.823 329.563 230.899 322.697 232.708 316.058C234.515 309.414 241.375 305.502 248.023 307.328C254.665 309.148 258.589 316.014 256.778 322.66Z" fill="#66724E" stroke="#36441A" stroke-width="1.35"/>
<path d="M256.476 320.129C255.559 327.501 250.088 331.342 244.099 330.94C238.572 330.568 233.632 326.49 233.174 319.451C235.085 318.902 237.624 319.795 239.851 319.453C239.845 319.535 239.816 319.607 239.814 319.688C239.639 322.392 241.806 324.748 244.657 324.939C247.514 325.13 249.972 323.084 250.149 320.383C250.167 320.032 250.146 319.684 250.092 319.352C252.076 319.651 254.501 319.356 256.476 320.129Z" fill="#788165"/>
<path opacity="0.9" d="M246.545 315.195C243.802 314.411 240.999 315.977 240.292 318.711C239.583 321.431 241.234 324.28 243.975 325.066C246.724 325.854 249.525 324.286 250.236 321.564C250.951 318.827 249.292 315.981 246.545 315.195Z" fill="black"/>
<path d="M246.545 315.195C243.802 314.411 240.999 315.977 240.292 318.711C239.583 321.431 241.234 324.28 243.975 325.066C246.724 325.854 249.525 324.286 250.236 321.564C250.951 318.827 249.292 315.981 246.545 315.195Z" stroke="#36441A" stroke-width="2.025"/>
<path opacity="0.5" d="M238.837 326.962C238.577 327.871 237.161 327.484 237.421 326.571C237.672 325.692 238.348 325.151 238.779 324.377C239.238 323.55 240.507 324.29 240.045 325.118C239.691 325.758 239.038 326.249 238.837 326.962ZM241.095 325.513C240.704 325.968 240.193 327.655 239.972 328.206C239.619 329.083 241.039 329.462 241.388 328.597C241.509 328.295 241.921 326.802 242.135 326.552C242.746 325.837 241.713 324.793 241.095 325.513ZM244.152 329.855C244.919 328.971 244.842 327.958 244.826 326.858C244.811 325.912 243.343 325.912 243.357 326.858C243.366 327.467 243.549 328.316 243.114 328.817C242.497 329.528 243.53 330.57 244.152 329.855ZM245.651 326.675C245.661 327.586 245.776 328.474 246.044 329.347C246.323 330.25 247.739 329.865 247.46 328.956C247.227 328.204 247.13 327.461 247.119 326.675C247.109 325.729 245.641 325.727 245.651 326.675Z" fill="white"/>
<path opacity="0.8" d="M253.47 317.218C252.024 318.085 249.851 317.305 248.618 315.473C247.387 313.641 247.572 311.452 249.02 310.589C250.463 309.717 252.642 310.499 253.865 312.331C255.096 314.163 254.917 316.351 253.47 317.218Z" fill="white"/>
<path d="M204.946 318.491C211.65 342.019 220.49 366.968 241.721 367.709C262.952 368.449 287.749 352.656 288.071 321.466C288.431 286.6 266.291 272.847 245.06 272.107C223.829 271.366 194.954 283.413 204.946 318.491ZM216.93 317.465C216.406 315.176 216.254 314.519 216.283 312.323C220.498 309.807 224.684 309.106 228.45 308.362C232.865 307.492 242.7 306.604 249.903 307.677C259.442 309.089 266.395 314.931 272.305 324.188C272.314 324.199 272.332 324.196 272.343 324.205C272.357 324.261 272.386 324.315 272.397 324.371C272.927 326.465 270.7 328.154 267.915 329.441C257.995 330.707 248.454 332.537 238.4 331.25C218.269 328.669 217.907 319.794 216.93 317.465Z" fill="#F0C7B1"/>
<path d="M244.69 342.587C263.937 345.5 281.802 336.328 284.586 322.086C287.373 307.844 274.039 293.937 254.79 291.019C235.539 288.11 217.682 297.283 214.896 311.527C212.11 325.767 225.439 339.666 244.69 342.587ZM216.281 312.323C220.7 309.95 224.682 309.106 228.448 308.362C232.862 307.493 242.698 306.605 249.901 307.678C259.44 309.09 266.393 314.931 272.303 324.188C272.311 324.199 272.33 324.197 272.34 324.205C272.355 324.261 272.384 324.315 272.395 324.371C272.925 326.465 270.698 328.154 267.913 329.441C257.992 330.707 248.452 332.537 238.398 331.25C218.267 328.67 217.905 319.794 216.926 317.466C216.404 315.176 216.254 314.517 216.281 312.323Z" fill="url(#paint6_radial)"/>
<path d="M216.93 317.465C216.406 315.176 216.254 314.519 216.283 312.323C220.633 309.879 224.684 309.106 228.45 308.361C232.864 307.492 242.7 306.604 249.903 307.677C259.442 309.089 266.395 314.93 272.305 324.188C272.313 324.198 272.332 324.196 272.342 324.205C272.357 324.261 272.386 324.315 272.397 324.371C272.927 326.465 270.7 328.154 267.915 329.441C257.994 330.707 248.454 332.537 238.4 331.25C218.269 328.669 217.907 319.794 216.93 317.465Z" fill="url(#paint7_radial)"/>
<path d="M249.061 302.198C255.911 303.319 262.588 306.469 268.774 310.401C270.099 311.241 271.615 312.2 274.016 313.419C272.295 313.028 270.702 312.136 269.215 311.316C270.745 312.768 272.172 314.496 273.336 316.17C268.094 309.601 258.163 304.654 249.714 302.967C241.6 301.347 226.863 302.418 215.921 307.214C225.94 301.576 240.556 300.809 249.061 302.198Z" fill="#C27B55"/>
<path d="M272.311 324.092C266.391 315.068 259.433 309.366 249.893 307.983C239.843 306.517 226.456 307.524 218.631 311.815C217.99 312.167 215.289 314.413 215.717 312.059C217.535 309.632 224.705 306.812 228.179 305.97C267.159 296.523 274.545 327.372 272.311 324.092ZM216.454 316.948C214.965 321.237 218.244 330.784 237.549 332.55C251.263 333.801 270.336 328.911 267.98 329.195C258.042 330.42 248.485 332.208 238.412 330.94C215.576 328.07 218.163 317.326 216.454 316.948Z" fill="black"/>
<path d="M345.838 307.677C336.302 309.089 329.346 314.93 323.436 324.188C323.428 324.198 323.411 324.196 323.399 324.205C323.386 324.261 323.357 324.315 323.347 324.371C322.815 326.465 325.042 328.154 327.826 329.441C337.747 330.707 347.287 332.537 357.342 331.25C377.473 328.669 377.834 319.794 378.812 317.465C379.338 315.176 379.488 314.519 379.461 312.323C374.613 309.482 371.053 308.898 367.288 308.154C362.873 307.284 353.043 306.606 345.838 307.677Z" fill="url(#paint8_radial)"/>
<path d="M363.869 322.66C362.062 329.297 355.215 333.209 348.56 331.385C341.914 329.563 337.988 322.697 339.798 316.058C341.605 309.414 348.467 305.502 355.113 307.328C361.756 309.148 365.678 316.014 363.869 322.66Z" fill="#66724E" stroke="#36441A" stroke-width="1.35"/>
<path d="M363.568 320.129C362.653 327.501 357.18 331.342 351.193 330.94C345.668 330.568 340.725 326.49 340.265 319.451C342.176 318.902 344.717 319.795 346.945 319.453C346.936 319.535 346.909 319.607 346.905 319.688C346.728 322.392 348.897 324.748 351.748 324.939C354.605 325.13 357.061 323.084 357.238 320.383C357.256 320.032 357.236 319.684 357.184 319.352C359.167 319.651 361.592 319.356 363.568 320.129Z" fill="#788165"/>
<path opacity="0.9" d="M353.636 315.195C350.893 314.411 348.092 315.977 347.383 318.711C346.674 321.431 348.325 324.28 351.066 325.066C353.815 325.854 356.616 324.286 357.327 321.564C358.042 318.827 356.383 315.981 353.636 315.195Z" fill="black"/>
<path d="M353.636 315.195C350.893 314.411 348.092 315.977 347.383 318.711C346.674 321.431 348.325 324.28 351.066 325.066C353.815 325.854 356.616 324.286 357.327 321.564C358.042 318.827 356.383 315.981 353.636 315.195Z" stroke="#36441A" stroke-width="2.025"/>
<path opacity="0.5" d="M345.928 326.962C345.668 327.871 344.252 327.484 344.509 326.571C344.761 325.692 345.439 325.151 345.869 324.377C346.327 323.55 347.595 324.29 347.136 325.118C346.782 325.758 346.129 326.249 345.928 326.962ZM348.186 325.513C347.795 325.968 347.283 327.655 347.063 328.206C346.707 329.083 348.13 329.462 348.479 328.597C348.602 328.295 349.011 326.802 349.224 326.552C349.837 325.837 348.804 324.793 348.186 325.513ZM351.243 329.855C352.01 328.971 351.933 327.958 351.916 326.858C351.902 325.912 350.434 325.912 350.448 326.858C350.457 327.467 350.64 328.316 350.205 328.817C349.587 329.528 350.623 330.57 351.243 329.855ZM352.744 326.675C352.754 327.586 352.867 328.474 353.135 329.347C353.416 330.25 354.83 329.865 354.551 328.956C354.318 328.204 354.22 327.461 354.21 326.675C354.2 325.729 352.732 325.727 352.744 326.675Z" fill="white"/>
<path opacity="0.8" d="M360.561 317.218C359.116 318.085 356.943 317.305 355.709 315.473C354.478 313.641 354.661 311.452 356.109 310.589C357.554 309.717 359.731 310.499 360.954 312.331C362.187 314.163 362.008 316.351 360.561 317.218Z" fill="white"/>
<path d="M350.683 272.107C329.45 272.847 307.313 286.6 307.67 321.466C307.991 352.658 332.788 368.451 354.021 367.709C375.252 366.968 387.681 331.687 390.796 318.491C399.176 282.993 371.914 271.366 350.683 272.107ZM357.342 331.25C347.288 332.537 337.747 330.707 327.826 329.441C325.042 328.156 322.815 326.467 323.347 324.371C323.36 324.315 323.389 324.261 323.399 324.205C323.412 324.197 323.428 324.199 323.437 324.188C329.348 314.931 336.304 309.089 345.838 307.678C353.044 306.605 362.879 307.492 367.294 308.362C371.06 309.104 375.246 309.805 379.461 312.323C379.49 314.517 379.338 315.176 378.812 317.465C377.837 319.794 377.473 328.669 357.342 331.25Z" fill="#F0C7B1"/>
<path d="M380.848 311.527C378.061 297.283 360.203 288.11 340.952 291.019C321.702 293.937 308.369 307.844 311.157 322.086C313.942 336.328 331.806 345.5 351.054 342.587C370.305 339.666 383.634 325.767 380.848 311.527ZM378.814 317.466C377.837 319.797 377.473 328.67 357.344 331.25C347.29 332.537 337.749 330.707 327.828 329.441C325.044 328.156 322.817 326.467 323.349 324.371C323.362 324.315 323.391 324.261 323.401 324.205C323.414 324.197 323.43 324.199 323.439 324.188C329.35 314.931 336.306 309.09 345.84 307.678C353.046 306.605 362.881 307.493 367.296 308.362C371.062 309.104 375.046 309.95 379.463 312.323C379.49 314.517 379.34 315.176 378.814 317.466Z" fill="url(#paint9_radial)"/>
<path d="M378.814 317.465C379.34 315.176 379.49 314.519 379.463 312.323C375.113 309.879 371.062 309.106 367.296 308.361C362.881 307.492 353.043 306.604 345.84 307.677C336.304 309.089 329.348 314.93 323.439 324.188C323.43 324.198 323.414 324.196 323.401 324.205C323.389 324.261 323.36 324.315 323.349 324.371C322.817 326.465 325.044 328.154 327.828 329.441C337.749 330.707 347.29 332.537 357.344 331.25C377.473 328.669 377.837 319.794 378.814 317.465Z" fill="url(#paint10_radial)"/>
<path d="M346.683 302.198C339.831 303.319 333.154 306.469 326.97 310.401C325.645 311.241 324.127 312.2 321.727 313.419C323.449 313.028 325.042 312.136 326.529 311.316C324.998 312.768 323.572 314.496 322.407 316.17C327.65 309.601 337.581 304.654 346.028 302.967C354.142 301.347 368.879 302.418 379.823 307.214C369.802 301.576 355.185 300.809 346.683 302.198Z" fill="#C27B55"/>
<path d="M367.562 305.972C371.039 306.815 378.207 309.634 380.026 312.061C380.452 314.415 377.751 312.169 377.111 311.818C369.284 307.526 355.898 306.519 345.851 307.985C336.31 309.368 329.348 315.07 323.432 324.095C321.199 327.372 328.585 296.523 367.562 305.972ZM357.333 330.94C347.26 332.209 337.705 330.42 327.766 329.195C325.408 328.911 344.48 333.801 358.194 332.55C377.5 330.784 380.779 321.237 379.29 316.948C377.579 317.326 380.168 328.071 357.333 330.94Z" fill="black"/>
<path d="M383.545 381.686C383.618 428.727 345.508 466.931 298.417 466.995C251.334 467.072 213.102 428.998 213.029 381.946C212.956 334.91 251.066 296.556 298.155 296.482C345.239 296.409 383.476 334.639 383.545 381.686Z" fill="url(#paint11_radial)"/>
<path d="M376.267 256.973C376.267 300.04 341.355 334.951 298.29 334.951C255.223 334.951 220.309 300.04 220.309 256.973C220.309 213.905 255.223 178.994 298.29 178.994C341.355 178.994 376.267 213.905 376.267 256.973Z" fill="url(#paint12_radial)"/>
<path d="M203.797 295.444C217.786 277.884 241.859 280.805 261.585 283.628C266.602 284.346 271.767 284.885 276.687 286.128C280.213 287.017 282.985 291.035 280.152 294.28C278.827 295.824 275.935 295.538 274.15 295.5C250.53 295.023 223.831 281.44 203.797 295.444Z" fill="#504543"/>
<path d="M392.908 294.766C388.859 292.056 384.573 290.143 379.728 289.359C361.954 286.477 328.101 298.324 319.202 295.816C313.752 294.278 314.854 288.818 317.265 287.473C318.715 286.662 319.117 286.683 332.066 284.456C354.069 280.676 378.706 277.67 392.908 294.766Z" fill="#504543"/>
<path d="M292.908 335.518C292.908 335.518 290.58 354.012 289.537 357.612C287.243 365.517 279.277 376.604 280.822 381.615C283.915 391.633 293.36 389.089 298.329 389.053C302.926 389.016 311.757 391.634 313.571 385.11C314.156 383.004 312.837 377.681 312.837 377.681C312.837 377.681 308.439 382.858 298.073 382.284C295.115 382.119 290.303 378.797 290.248 374.112C290.176 367.763 293.245 362.409 293.916 356.106C294.422 351.318 292.908 335.518 292.908 335.518Z" fill="#E1AC8F"/>
<path d="M306.82 386.165C308.608 386.165 309.092 386.707 309.092 387.378C309.092 388.05 308.535 389.084 306.82 388.592C304.933 388.055 301.641 388.301 301.641 388.301C301.641 388.301 305.028 386.165 306.82 386.165ZM289.732 386.165C287.94 386.167 287.46 386.71 287.46 387.384C287.458 388.055 287.997 389.019 289.732 388.597C291.645 388.128 294.909 388.306 294.909 388.306C294.909 388.306 291.524 386.171 289.732 386.165ZM312.835 377.681C312.835 377.681 315.312 380.896 314.798 384.293C314.298 387.592 309.292 389.053 309.292 389.053C309.292 389.053 312.767 386.531 313.188 383.47C313.384 382.034 312.835 377.681 312.835 377.681ZM282.254 374.377C282.254 374.377 280.448 378.875 280.97 381.617C281.92 386.567 287.132 388.544 287.132 388.544C287.132 388.544 283.88 385.152 282.723 382.152C281.457 378.875 282.254 374.377 282.254 374.377Z" fill="#C27B55"/>
<path d="M306.732 380.079C308.467 378.6 308.642 377.757 308.282 377.203C307.925 376.647 306.883 376.296 305.431 378.081C303.829 380.044 300.347 381.498 300.347 381.498C300.347 381.498 304.997 381.555 306.732 380.079Z" fill="#FFE4D6"/>
<path d="M408.463 349.726C398.974 323.868 409.954 284.211 391.401 254.872C382.95 240.811 375.604 231.148 376.949 214.789L376.184 214.531C374.391 217.343 372.037 220.395 370.476 222.35C371.364 220.081 372.811 216.607 374.121 213.984L373.431 213.531C368.055 219.921 363.439 223.198 357.088 224.968C363.95 220.144 371.538 211.749 374.859 207.095L374.296 206.505C350.759 221.649 324.048 221.855 300.484 222.04C279.218 222.198 266.009 221.718 250.675 212.805C239.611 216.473 230.898 216.006 221.322 209.405C191.349 267.52 204.666 238.428 186.747 346.158C176.342 332.288 173.318 323.467 170.856 310.252C170.205 306.037 169.569 299.534 169.964 295.249L169.833 295.114C160.575 274.798 156.206 263.23 158.406 222.932C160.039 206.214 163.674 193.662 174.156 180.516C172.773 173.373 172.64 166.172 173.58 159.285C168.09 149.247 164.312 138.917 162.84 135.226C170.509 141.096 171.143 141.435 177.541 143.454C179.005 139.426 181.139 135.425 182.505 133.338C183.123 137.991 183.613 141.136 185.007 145.658C185.481 145.773 187.737 146.384 188.458 146.577C188.045 143.824 187.666 142.547 187.724 140.079C188.912 142.787 189.914 143.415 193.36 147.619C197.173 148.42 196.258 148.301 197.402 148.301C191.852 139.603 188.107 131.905 187.157 120.198C194.753 124.525 205.381 126.997 216.479 126.997C242.553 126.997 269.232 107.426 306.246 107.426C338.321 107.426 366.074 125.222 378.367 145.486C378.355 140.258 378.132 135.933 380.018 130.56C380.018 130.56 380.237 138.264 380.237 144.267L381.06 144.344C382.349 137.48 385.069 131.628 389.561 126.101C385.572 136.827 387.09 131.1 382.628 144.196L383.352 144.585C386.327 140.761 388.764 138.058 395.868 134.475C390.736 139.618 386.812 142.564 384.385 146.201L385.011 146.74C388.039 143.995 391.189 142.955 394.393 145.465C389.234 143.589 386.188 146.877 382.649 151.027C396.413 153.296 403.88 161.237 413.557 171.853C435.832 197.538 441.699 222.614 429.617 258.162C434.68 269.106 433.901 293.772 422.599 313.654C422.595 325.32 414.614 339.713 408.463 349.726Z" fill="#8E5D3D"/>
<path d="M219.891 207.84C220.638 208.534 221.384 209.229 222.125 209.927C221.856 209.751 221.588 209.586 221.318 209.401C191.345 267.515 204.661 238.424 186.743 346.153C176.337 332.284 173.314 323.463 170.852 310.248C170.201 306.033 169.565 299.53 169.96 295.245L169.829 295.109C160.571 274.793 156.202 263.225 158.402 222.928C160.035 206.209 163.67 193.658 174.152 180.512C172.792 173.487 172.655 166.409 173.543 159.626C174.784 161.443 176.086 163.213 177.417 164.96C178.313 170.416 179.072 175.737 177.681 180.036C157.845 241.333 169.363 269.451 181.84 313.119C176.716 279.992 166.988 237.875 193.524 213.306C182.189 240.539 185.319 252.886 188.078 271.531C189.985 246.748 198.881 223.695 219.891 207.84ZM413.555 171.843C412.774 170.986 412.012 170.154 411.256 169.333C410.461 169.863 409.646 170.349 408.845 170.865C439.946 234.623 410.081 228.501 417.199 256.973C425.514 277.767 414.737 290.246 414.737 311.04C414.737 279.848 413.32 258.141 396.105 233.737C390.291 225.496 388.658 197.507 384.741 183.677C336.494 213.306 265.021 219.505 189.983 159.622C225.333 172.098 297.384 162.429 322.116 146.488C293.923 151.605 235.067 151.911 208.6 141.017C272.023 136.089 271.255 115.731 325.321 111.905C299.328 102.2 242.551 126.989 216.479 126.989C205.383 126.989 194.755 124.519 187.157 120.189C188.107 131.897 191.852 139.597 197.402 148.293C196.256 148.293 197.173 148.411 193.36 147.611C189.912 143.406 188.91 142.776 187.724 140.071C187.664 142.539 188.045 143.816 188.459 146.569C187.737 146.376 185.479 145.764 185.007 145.65C183.613 141.127 183.123 137.983 182.505 133.329C181.141 135.417 179.005 139.418 177.541 143.446C171.141 141.427 170.509 141.088 162.84 135.217C164.312 138.908 168.09 149.241 173.58 159.276C173.566 159.391 173.561 159.507 173.547 159.622C186.658 178.825 205.09 193.872 222.129 209.927C231.391 216.008 239.925 216.365 250.677 212.801C266.011 221.714 279.222 222.194 300.486 222.036C324.05 221.853 350.761 221.645 374.298 206.5L374.861 207.091C371.54 211.745 363.953 220.14 357.09 224.964C363.443 223.192 368.057 219.915 373.433 213.527L374.123 213.98C372.813 216.604 371.366 220.077 370.478 222.346C372.039 220.391 374.393 217.339 376.186 214.527L376.951 214.785C375.608 231.146 382.952 240.807 391.403 254.868C409.956 284.207 398.979 323.866 408.465 349.722C414.616 339.709 422.597 325.317 422.597 313.639C433.899 293.758 434.678 269.092 429.615 258.147C441.696 222.604 435.83 197.528 413.555 171.843ZM415.08 225.178C414.393 205.373 401.287 180.237 401.287 180.237C395.161 169.416 389.686 164.253 380.501 162.157C406.34 163.444 416.487 202.038 415.371 222.2C415.265 224.072 415.08 225.178 415.08 225.178ZM356.319 141.551C363.146 147.089 364.776 148.669 371.49 157.998C336.862 95.8454 268.906 142.88 247.417 141.362C269.261 145.877 318.652 113.93 356.319 141.551ZM373.915 168.567C332.407 202.978 269.028 188.401 217.19 172.154C268.816 195.8 334.543 208.594 373.915 168.567ZM210.679 205.997C197.082 213.119 190.684 231.054 190.093 242.907C192.632 232.679 200.251 213.912 210.679 205.997ZM193.524 196.12C174.063 207.971 170.288 235.153 172.21 257.983C174.256 236.894 178.057 209.376 193.524 196.12ZM333.772 170.345C331.68 170.792 318.677 172.574 311.58 172.83C306.046 173.153 284.47 173.512 265.019 172.73C285.096 177.033 297.155 177.833 311.798 176.983C328.654 176.374 343.738 173.036 356.238 162.851C347.431 167.698 343.678 168.389 333.772 170.345ZM403.526 225.544C403.526 225.544 402.994 224.627 402.304 223.252C400.409 220.077 398.259 211.439 389.956 184.292C396.123 234.604 406.211 225.428 410.732 251.423C410.734 242.073 410.081 237.28 403.526 225.544Z" fill="#7F4B2A"/>
<path d="M418.59 286.359C419.347 279.609 419.041 282.704 419.124 278.852C419.76 265.868 412 254.983 416.724 239.37C420.58 228.031 422.807 226.253 421.118 206.513C420.871 203.664 420.133 196.586 418.827 194.041C420.607 197.137 421.784 202.868 422.414 206.38C425.922 226.224 422.971 229.237 419.251 240.206C414.281 256.779 423.819 264.09 418.59 286.359ZM384.741 183.677C387.063 246.829 399.871 232.161 411.185 270.497C403.503 225.278 396.398 262.768 384.741 183.677ZM190.925 215.875C171.815 239.919 173.744 257.253 178.448 292.814C178.024 256.819 173.636 243.157 190.925 215.875ZM177.207 181.52C166.24 215.455 163.838 230.77 169.103 267.37C168.128 230.676 168.361 222.577 177.207 181.52ZM219.17 208.401C199.145 222.789 188.691 249.108 188.078 271.531C191.16 250.102 202.659 223.074 219.17 208.401ZM358.29 195.827C333.231 205.053 292.441 207.524 262.661 198.576C239.452 191.807 203.214 169.062 183.721 154.76C201.393 168.827 232.528 189.709 254.268 197.962C276.857 206.403 312.258 209.539 339.694 202.631C358.924 197.798 368.891 193.232 384.741 183.679C377.685 187.546 367.292 193.015 358.29 195.827ZM304.137 120.576C329.438 115.825 359.261 132.134 374.957 151.414C358.536 127.879 331.628 116.17 315.564 115.891C289.199 115.434 261.925 138.023 208.6 139.975C258.741 142.184 282.844 124.024 304.137 120.576ZM324.009 147.253C288.057 160.027 260.295 163.084 222.518 165.095C261.534 167.497 289.428 163.712 324.009 147.253ZM361.786 154.537C339.615 164.991 329.908 166.704 284.146 169.491C312.836 170.649 339.638 169.158 361.786 154.537ZM288.407 186.322C310.54 188.894 349.311 186.103 368.716 165.968C345.281 185.71 301.927 185.003 268.113 183.66C281.056 185.679 278.721 185.342 288.407 186.322ZM383.272 167.008C399.137 172.849 403.004 200.68 409.265 223.153C406.464 203.234 401.68 171.329 383.272 167.008Z" fill="#9D7153"/>
<path d="M413.861 171.562C404.82 161.645 396.701 152.909 383.439 150.726C387.793 145.604 390.854 143.7 396.435 146.879C393.129 142.988 389.33 142.25 384.728 146.422C387.371 142.46 391.94 139.227 397.829 133.051C389.03 137.178 386.385 139.996 383.023 144.321C387.774 130.383 385.726 137.817 390.758 124.047C385.5 129.944 382.137 136.357 380.654 144.259C380.654 131.984 380.27 133.571 380.509 128.206C377.625 134.629 377.953 140.287 377.953 143.989C373.31 136.332 366.487 129.848 359.132 124.546C307.034 86.515 255.079 121.518 226.922 125.752C215.508 127.68 198.404 126.455 186.685 119.43C187.512 131.416 191.224 139.376 196.645 147.877C196.643 147.877 193.588 147.232 193.588 147.232C189.39 142.171 188.985 142.333 187.433 138.229C187.036 141.895 187.643 143.926 187.953 146.006C186.918 145.735 185.963 145.448 185.333 145.299C183.788 140.279 183.341 136.461 182.775 132.219C181.499 133.851 178.779 138.832 177.286 142.928C171.049 140.957 170.602 140.643 161.835 133.924C162.875 136.004 166.637 147.359 173.148 159.356C172.17 166.704 172.465 174.036 173.709 180.399C163.26 193.525 159.631 206.072 157.988 222.903C155.824 262.535 159.791 274.08 169.488 295.309C169.509 295.33 169.509 295.372 169.529 295.392C169.161 299.491 169.777 306.002 170.444 310.323C172.896 323.49 175.903 332.558 186.893 347.025C186.934 347.066 186.955 347.129 186.997 347.17C194.056 304.816 193.328 303.779 194.836 293.334C202.264 239.867 201.941 247.852 221.474 210.011C229.403 215.475 238.182 217.397 250.627 213.255C259.656 218.503 268.876 222.508 294.42 222.508C319.729 222.192 348.852 223.365 374.52 206.85C370.632 212.302 361.798 221.726 354.849 225.939C362.083 224.409 367.273 221.495 373.751 213.795C371.761 217.777 369.419 223.806 369.238 224.525C369.55 224.151 373.709 219.181 376.537 214.752C375.179 231.273 382.555 240.946 391.052 255.093C409.675 284.544 398.353 324.798 408.373 350.664C414.799 340.275 423.013 325.532 423.013 313.754C433.846 294.86 435.398 269.855 430.062 258.129C440.91 225.625 438.719 200.223 413.861 171.562ZM187.639 139.559C188.654 142.448 188.876 142.385 192.817 147.066C190.862 146.661 189.563 146.376 188.388 146.11C187.932 143.914 187.639 141.826 187.639 139.559ZM182.42 134.028C182.615 137.214 183.374 141.393 184.478 145.07C178.521 143.537 180.735 144.022 178.656 143.406C180.367 138.262 181.012 136.96 182.42 134.028ZM185.996 342.429C177.229 326.615 174.928 321.238 172.501 305.228C172.264 303.386 171.519 298.062 171.482 295.517C158.86 266.655 154.114 211.849 173.998 181.689C173.998 181.668 173.998 181.668 173.998 181.668C173.998 181.668 174.828 180.37 176.327 178.507C175.772 175.712 175.223 169.815 175.412 163.369C176.951 166.114 178.698 168.609 180.257 171C180.257 170.994 181.484 172.624 181.484 172.664C190.947 184.704 199.687 194.714 220.827 209.574C195.447 250.693 197.022 236.804 185.996 342.429ZM430.621 244.926C429.881 249.83 428.286 256.536 427.421 259.462C433.202 274.159 426.887 301.918 421.056 314.317C418.506 329.067 415.764 332.036 408.558 346.736C403.408 323.862 413.93 283.273 394.501 252.995C381.902 232.109 376.5 229.372 379.467 203.566C379.467 203.566 379.594 202.163 379.633 201.799C353.374 217.854 324.37 219.67 286.121 218.85C275.065 218.85 260.128 217.461 250.812 211.697C231.929 217.068 224.923 208.709 209.203 196.434C192.228 182.009 180.696 169.414 166.47 139.728C174.462 146.211 190.461 149.478 200.552 151.165C193.746 142.092 189.741 133.803 187.93 122.053C195.167 126.877 212.509 131.624 227.793 129.934C255.936 127.291 295.341 98.3948 343.763 120.306C366.229 130.219 377.629 144.169 380.299 151.497C380.32 151.497 380.34 151.518 380.382 151.518C380.507 151.56 380.632 151.581 380.775 151.601C380.81 151.639 381.465 151.789 381.524 151.789C396.03 156.623 397.001 157.526 411.052 173.914C418.949 183.602 437.96 202.943 430.621 244.926Z" fill="#602D0C"/>
</g>
<defs>
<linearGradient id="paint0_linear" x1="300" y1="-75" x2="300" y2="675" gradientUnits="userSpaceOnUse">
<stop stop-color="#151371"/>
<stop offset="0.453125" stop-color="#FF00B8"/>
<stop offset="0.96875" stop-color="#FFC700"/>
</linearGradient>
<linearGradient id="paint1_linear" x1="439" y1="245" x2="439" y2="644" gradientUnits="userSpaceOnUse">
<stop stop-color="#FF00B8"/>
<stop offset="1" stop-color="#F0DB0A" stop-opacity="0"/>
</linearGradient>
<linearGradient id="paint2_linear" x1="194" y1="161" x2="194" y2="560" gradientUnits="userSpaceOnUse">
<stop stop-color="#FF00B8"/>
<stop offset="1" stop-color="#F0DB0A" stop-opacity="0"/>
</linearGradient>
<linearGradient id="paint3_linear" x1="298.288" y1="502.348" x2="298.288" y2="398.376" gradientUnits="userSpaceOnUse">
<stop stop-color="#E1AC8F" stop-opacity="0.8"/>
<stop offset="0.7" stop-color="#C27B55"/>
</linearGradient>
<linearGradient id="paint4_linear" x1="298.649" y1="439.237" x2="298.649" y2="430.088" gradientUnits="userSpaceOnUse">
<stop offset="0.1" stop-color="#E8B9A0"/>
<stop offset="1" stop-color="#E1AC8F"/>
</linearGradient>
<radialGradient id="paint5_radial" cx="0" cy="0" r="1" gradientUnits="userSpaceOnUse" gradientTransform="translate(243.202 319.912) rotate(177.797) scale(30.3192 25.4161)">
<stop stop-color="white"/>
<stop offset="0.544" stop-color="#FDFEFE"/>
<stop offset="0.74" stop-color="#F6F8F9"/>
<stop offset="0.879" stop-color="#EAEFF2"/>
<stop offset="0.992" stop-color="#D9E3E8"/>
<stop offset="1" stop-color="#D8E2E7"/>
</radialGradient>
<radialGradient id="paint6_radial" cx="0" cy="0" r="1" gradientUnits="userSpaceOnUse" gradientTransform="translate(249.947 315.765) rotate(7.8743) scale(35.3518 26.4576)">
<stop stop-color="#E1AC8F"/>
<stop offset="0.7" stop-color="#E1AC8F" stop-opacity="0.3"/>
<stop offset="1" stop-color="#F0C7B1" stop-opacity="0"/>
</radialGradient>
<radialGradient id="paint7_radial" cx="0" cy="0" r="1" gradientUnits="userSpaceOnUse" gradientTransform="translate(240.121 340.917) rotate(-4.77486) scale(39.3256 33.7634)">
<stop offset="0.95" stop-opacity="0"/>
<stop offset="1" stop-opacity="0.2"/>
</radialGradient>
<radialGradient id="paint8_radial" cx="0" cy="0" r="1" gradientUnits="userSpaceOnUse" gradientTransform="translate(352.543 319.913) rotate(2.203) scale(30.3169 25.4142)">
<stop stop-color="white"/>
<stop offset="0.544" stop-color="#FDFEFE"/>
<stop offset="0.74" stop-color="#F6F8F9"/>
<stop offset="0.879" stop-color="#EAEFF2"/>
<stop offset="0.992" stop-color="#D9E3E8"/>
<stop offset="1" stop-color="#D8E2E7"/>
</radialGradient>
<radialGradient id="paint9_radial" cx="0" cy="0" r="1" gradientUnits="userSpaceOnUse" gradientTransform="translate(345.797 315.766) rotate(172.126) scale(35.3497 26.4561)">
<stop stop-color="#E1AC8F"/>
<stop offset="0.7" stop-color="#E1AC8F" stop-opacity="0.3"/>
<stop offset="1" stop-color="#F0C7B1" stop-opacity="0"/>
</radialGradient>
<radialGradient id="paint10_radial" cx="0" cy="0" r="1" gradientUnits="userSpaceOnUse" gradientTransform="translate(355.624 340.917) rotate(-175.225) scale(39.3256 33.7634)">
<stop offset="0.95" stop-opacity="0"/>
<stop offset="1" stop-opacity="0.2"/>
</radialGradient>
<radialGradient id="paint11_radial" cx="0" cy="0" r="1" gradientUnits="userSpaceOnUse" gradientTransform="translate(298.288 381.741) scale(85.2569)">
<stop stop-color="#FFE4D6" stop-opacity="0.5"/>
<stop offset="0.9" stop-color="#F0C7B1" stop-opacity="0"/>
</radialGradient>
<radialGradient id="paint12_radial" cx="0" cy="0" r="1" gradientUnits="userSpaceOnUse" gradientTransform="translate(298.288 256.975) scale(76.9391)">
<stop stop-color="#FFE4D6" stop-opacity="0.5"/>
<stop offset="0.9" stop-color="#F0C7B1" stop-opacity="0"/>
</radialGradient>
<clipPath id="clip0">
<rect width="600" height="600" fill="white"/>
</clipPath>
</defs>
</svg>
