<svg width="600" height="600" viewBox="0 0 600 600" fill="none" xmlns="http://www.w3.org/2000/svg">
<g clip-path="url(#clip0)">
<path d="M675 675H-75V-75H675V675Z" fill="url(#paint0_linear)"/>
<path d="M360.996 403.874H308.184V356.576H360.996V403.874ZM414.113 320.069H340.054V380.225H414.113V320.069ZM377.082 441.95H442.881V362.639H377.082V441.95ZM400.757 434.192H334.59V491.191H400.757V434.192ZM580.44 284.416H490.23V387.501H580.44V284.416ZM478.458 331.108H456.605V356.576H478.458V331.108ZM544.531 252.277H456.605V304.426H544.531V252.277ZM442.881 270.468H395.532V335.958H442.881V270.468ZM334.59 275.32H308.184V303.213H334.59V275.32ZM299.325 320.069H258.501V382.71H299.325V320.069ZM347.338 441.95H275.708V521.511H347.338V441.95ZM308.184 576.086H388.617V528.788H308.184V576.086ZM500.311 557.894H443.791V599.129H500.313V557.894H500.311ZM637.361 516.659H585.062V578.511H637.361V516.659ZM551.302 544.718H506.381V585.953H551.302V544.718ZM594.357 463.296H528.843V537.278H594.357V463.296ZM610.791 590.639H528.843V644H610.791V590.639ZM340.054 557.894H251.187V637.937H340.052V557.894H340.054ZM630.216 356.576H569.818V403.874H630.216V356.576ZM594.357 424.49H568.208V451.477H594.357V424.49ZM251.187 474.697H300.975V404.294H251.187V474.697ZM321.764 249.852L232 252.277V320.069H321.764V249.852ZM646 252.277H587.725V326.256H646V252.277ZM371.858 245H347.338V298.361H371.858V245ZM641.143 437.983H581.281V486.494H641.143V437.983Z" fill="url(#paint1_linear)" stroke="#FFC700" stroke-width="1.5"/>
<path d="M115.996 319.874H63.1843V272.576H115.996V319.874ZM169.113 236.069H95.0537V296.225H169.113V236.069ZM132.082 357.95H197.881V278.639H132.082V357.95ZM155.757 350.192H89.5904V407.191H155.757V350.192ZM335.44 200.416H245.23V303.501H335.44V200.416ZM233.458 247.108H211.605V272.576H233.458V247.108ZM299.531 168.277H211.605V220.426H299.531V168.277ZM197.881 186.468H150.532V251.958H197.881V186.468ZM89.5904 191.32H63.1843V219.213H89.5904V191.32ZM54.3246 236.069H13.5008V298.71H54.3246V236.069ZM102.338 357.95H30.7084V437.511H102.338V357.95ZM63.1843 492.086H143.617V444.788H63.1843V492.086ZM255.311 473.894H198.791V515.129H255.313V473.894H255.311ZM392.361 432.659H340.062V494.511H392.361V432.659ZM306.302 460.718H261.381V501.953H306.302V460.718ZM349.357 379.296H283.843V453.278H349.357V379.296ZM365.791 506.639H283.843V560H365.791V506.639ZM95.0537 473.894H6.18721V553.937H95.0519V473.894H95.0537ZM385.216 272.576H324.818V319.874H385.216V272.576ZM349.357 340.49H323.208V367.477H349.357V340.49ZM6.18721 390.697H55.9745V320.294H6.18721V390.697ZM76.7643 165.852L-13 168.277V236.069H76.7643V165.852ZM401 168.277H342.725V242.256H401V168.277ZM126.858 161H102.338V214.361H126.858V161ZM396.143 353.983H336.281V402.494H396.143V353.983Z" fill="url(#paint2_linear)" stroke="#FFC700" stroke-width="1.5"/>
<rect x="504" y="328.705" width="8.86149" height="25.1423" fill="white"/>
<rect x="521.753" y="328.858" width="8.83104" height="25.1423" fill="white"/>
<rect x="512.861" y="320" width="8.89195" height="8.85765" fill="white"/>
<rect x="539.416" y="328.858" width="8.89195" height="25.1423" fill="white"/>
<rect x="530.584" y="320" width="8.83105" height="8.85765" fill="white"/>
<rect x="548.308" y="320" width="8.86149" height="8.85765" fill="white"/>
<rect x="557.169" y="327.792" width="8.83104" height="8.85766" fill="white"/>
<rect x="548.308" y="336.65" width="8.86149" height="8.82721" fill="white"/>
<rect x="40" y="390.425" width="7.57515" height="21.4449" fill="white"/>
<rect x="55.1763" y="390.555" width="7.54912" height="21.4449" fill="white"/>
<rect x="47.5752" y="383" width="7.60118" height="7.55506" fill="white"/>
<rect x="70.2744" y="390.555" width="7.60118" height="21.4449" fill="white"/>
<rect x="62.7256" y="383" width="7.54912" height="7.55506" fill="white"/>
<rect x="77.876" y="383" width="7.57515" height="7.55506" fill="white"/>
<rect x="85.4507" y="389.646" width="7.54912" height="7.55506" fill="white"/>
<rect x="77.876" y="397.201" width="7.57515" height="7.52909" fill="white"/>
<path d="M434.662 147.396L185.363 133.211C185.363 133.211 122.545 591.382 122.545 605.703C122.545 605.703 375.329 607.507 483.077 605.703C481.063 585.863 434.662 147.396 434.662 147.396Z" fill="#0C080C"/>
<path d="M533.061 545.244C518.009 519.795 499.304 515.248 483.886 510.33C468.045 505.28 435.419 502.369 417.623 498.806C400.437 495.366 359.618 484.303 359.152 465.014C358.671 444.806 369.902 364.576 369.902 364.576H240.307C240.307 364.576 251.549 444.804 251.065 465.014C250.604 484.303 209.778 495.366 192.589 498.806C174.791 502.369 142.169 505.28 126.328 510.33C110.905 515.248 92.1956 519.793 77.1437 545.244C68.0144 560.677 62.0918 585.663 62.0918 613.221H548.123C548.12 585.663 542.208 560.677 533.061 545.244Z" fill="#774824"/>
<path d="M359.152 465.017C365.402 492.397 404.661 499.335 425.024 503.411C479.913 514.382 509.633 516.273 530.991 552.362C538.264 564.678 544.667 592.106 545.928 612.873C550.525 613.602 547.258 569.2 533.06 545.244C508.654 503.977 460.183 507.327 417.623 498.808C400.437 495.369 359.618 484.305 359.152 465.017ZM251.714 465.017C251.248 484.305 210.429 495.369 193.242 498.808C150.682 507.327 102.212 503.977 77.8049 545.244C63.6073 569.203 60.3403 613.602 64.9376 612.873C66.1978 592.106 72.6013 564.678 79.8743 552.362C101.23 516.273 130.953 514.382 185.841 503.411C206.205 499.335 245.463 492.395 251.714 465.017Z" fill="#865936"/>
<path d="M183.188 519.307C183.188 519.307 254.943 520.056 267.049 524.029C272.846 525.929 288.023 538.142 288.023 538.142C288.023 538.142 271.598 530.2 266.332 528.727C254.099 525.31 183.188 519.307 183.188 519.307ZM304.919 545.578C310.063 545.475 324.679 536.06 324.679 536.06C324.679 536.06 310.714 541.218 306.285 541.471C302.549 541.687 290.336 538.37 290.336 538.37C290.336 538.37 300.703 545.66 304.919 545.578ZM348.043 527.434C364.954 522.88 422.666 519.342 422.666 519.342C422.666 519.342 363.062 518.049 346.229 523.664C340.587 525.548 327.284 536.591 327.284 536.591C327.284 536.591 342.476 528.93 348.043 527.434Z" fill="#683915"/>
<path d="M533.061 545.245C508.656 503.98 460.101 507.31 417.623 498.809C400.437 495.369 359.618 484.306 359.152 465.017C358.671 444.809 369.902 364.579 369.902 364.579H240.307C240.307 364.579 251.549 444.807 251.065 465.017C250.604 484.306 209.778 495.369 192.589 498.809C174.791 502.372 142.169 505.283 126.328 510.333C110.905 515.251 92.1956 519.796 77.1437 545.247C68.0144 560.68 62.0918 585.666 62.0918 613.224H548.123C548.12 585.663 542.208 560.678 533.061 545.245Z" stroke="#492000" stroke-width="4.5"/>
<path d="M305.438 472.939C324.173 472.939 341.955 466.35 357.746 456.504C358.967 434.693 364.551 391.884 367.069 373.25C330.065 369.306 279.994 369.329 243.148 373.317C245.656 391.869 251.178 434.171 252.446 456.078C268.41 466.162 286.438 472.939 305.438 472.939Z" fill="url(#paint3_linear)"/>
<path d="M419.352 490.518C416.694 530.345 421.123 575.461 421.123 575.461C401.662 567.038 364.405 536.621 354.316 534.148C344.142 539.583 338.3 539.425 335.777 540.059C320.878 542.556 301.68 546.415 284.077 537.451C279.397 537.538 274.294 539.224 269.283 542.98C236.732 567.374 214.497 569.566 197.546 581.291C201.643 512.545 195.119 513.329 193.578 489.834C190.597 488.71 190.161 488.274 188.58 485.443C162.915 493.417 112.889 500.53 87.8913 525.395C65.609 547.552 58.4088 582.476 62.064 614.138C199.205 612.655 409.992 610.866 547.814 612.232C549.828 510.676 495.699 510.27 419.352 490.518Z" fill="#FCDE4F"/>
<path d="M353.257 539.487C348.116 538.202 344.07 539.317 340.212 539.314C343.429 538.721 348.046 537.498 354.317 534.148C363.196 536.326 399.814 563.962 420.129 575.388C397.133 569.481 373.122 545.58 353.257 539.487ZM292.298 540.702C289.535 539.878 286.784 538.833 284.076 537.453C279.396 537.541 274.292 539.227 269.282 542.982C243.464 562.331 214.766 573.622 199.416 580.87C275.713 559.878 262.983 541.041 292.298 540.702Z" fill="#EDCC33"/>
<path d="M188.823 485.879C115.879 504.856 52.1885 537.901 62.4177 614.136C62.3 614.138 62.1772 614.141 62.0595 614.141C60.6715 602.123 60.8594 589.639 62.8311 577.556C66.0555 557.806 74.0624 539.144 87.8867 525.397C112.885 500.532 162.911 493.417 188.575 485.445C188.665 485.608 188.741 485.731 188.823 485.879ZM419.352 490.518C419.33 490.832 419.312 491.147 419.295 491.46C479.227 512.034 538.415 518.297 546.735 612.224C547.091 612.227 547.461 612.232 547.815 612.234C549.829 510.676 503.859 511.513 419.352 490.518Z" fill="#FFE569"/>
<path d="M549.147 612.963C549.147 612.963 478.993 613.89 432.425 614.163C400.883 614.364 369.338 614.539 337.797 614.664C134.423 615.398 127.977 614.489 60.5837 614.489C60.5837 614.489 59.4187 607.965 59.1556 601.564C54.9993 500.47 135.004 499.906 188.753 484.345C189.439 484.147 190.169 484.446 190.517 485.072C191.351 486.575 192.812 487.64 193.288 487.878C193.313 488.705 193.363 489.506 193.413 490.331C191.424 489.581 191.133 489.216 188.866 486.861C188.655 486.643 188.42 486.455 188.134 486.558C183.372 488.279 177.682 489.048 172.671 490.626C183.833 507.399 182.931 510.541 197.75 528.081C197.77 528.301 197.925 531.37 197.95 532.665C183.517 517.932 180.37 509.431 170.191 491.378C127.671 504.876 86.6064 507.164 67.7739 559.222C61.5758 576.373 60.3983 596.719 62.3875 614.288C210.629 612.69 398.155 611.134 547.667 612.382C548.418 576.398 539.985 536.671 508.807 519.212C496.388 512.25 483.841 509.419 438.558 496.664C434.847 505.808 425.908 517.441 419.044 524.648C418.991 523.17 418.944 521.667 418.916 520.189C422.669 515.311 433.216 501.492 435.727 495.862C430.365 494.359 425.029 492.831 419.695 491.252C419.695 490.551 419.695 489.875 419.695 489.198C439.645 493.843 491.881 504.924 508.985 514.078C544.69 533.136 553.817 574.689 549.147 612.963ZM354.537 534.772C353.983 534.547 353.435 534.396 352.884 534.319C346.991 535.757 344.957 537.378 335.071 539.329C327.237 540.875 309.183 544.157 292.305 539.858C292.395 540.104 292.305 539.858 292.305 539.858C289.742 538.44 287.234 538.032 284.188 538.104C303.534 549.088 339.989 541.226 354.537 534.772ZM382.344 552.532C381.665 552.056 381.016 551.58 380.364 551.079C336.847 573.259 298.826 572.755 254.848 562.955C252.067 562.228 249.311 561.426 246.581 560.574C245.729 561.025 244.852 561.476 243.95 561.877C289.021 580.189 340.943 577.869 382.344 552.532Z" fill="#CEAB03"/>
<path d="M197.652 581.694C201.891 511.029 191.12 504.671 193.768 475.592C202.219 470.646 210.597 469.133 214.828 464.208C235.001 440.61 232.646 430.534 245.759 424.366C248.367 435.281 249.948 460.888 249.963 461.226C259.856 490.564 266.598 503.098 274.71 514.895C279.418 521.727 289.474 532.209 291.882 539.35C287.046 536.919 278.669 536.912 269.386 543.383C254.332 553.773 259.771 556.255 228.407 567.632C217.281 571.63 207.68 577.064 197.652 581.694ZM418.67 519.866C418.66 519.144 419.475 482.754 419.565 479.728C403.426 473.813 386.254 429.048 364.21 426.019C357.704 466.723 365.428 452.084 346.049 501.379C341.259 513.555 339.45 518.157 338.563 538.347C339.057 538.215 339.918 537.982 339.959 537.982C346.648 536.218 348.88 535.168 352.931 534.073C355.01 534.497 358.463 536.27 359.102 536.782L359.087 536.754C377.806 546.753 395.268 564.781 421.223 575.862C421.747 566.086 418.67 541.815 418.67 519.866Z" fill="white"/>
<path d="M342.677 537.235C341.85 537.471 340.966 537.714 339.959 537.982C339.919 537.982 339.059 538.215 338.563 538.347C339.45 518.157 341.259 513.555 346.049 501.379C365.428 452.084 357.704 466.723 364.21 426.019C368.63 426.625 372.849 429.233 376.907 433.032C374.114 454.637 368.176 471.704 359.518 491.185C369.659 485.448 380.665 478.425 390.611 472.929C369.932 491.541 349.263 510.163 342.677 537.235ZM291.882 539.35C289.474 532.209 279.415 521.727 274.71 514.895C266.598 503.098 259.856 490.564 249.963 461.226C249.948 460.888 248.364 435.284 245.759 424.366C237.466 428.266 238.163 431.087 232.631 440.545C237.083 463.576 246.085 478.217 258.849 497.368C247.969 490.195 232.779 477.937 217.747 470.421C243.068 489.411 261.277 513.738 278.368 538.904C283.915 537.207 288.68 537.739 291.882 539.35Z" fill="#DEDBD4"/>
<path d="M274.915 514.752C262.549 496.769 256.925 480.432 250.213 461.214C250.213 461.214 249.116 434.755 246.43 424.01C232.919 430.208 234.931 437.802 214.638 461.537C208.898 468.216 201.109 471.017 193.518 475.569C191.571 496.947 197.574 513.287 197.952 532.665C198.498 546.941 198.436 564.691 197.376 582.093C207.497 577.45 217.223 571.914 228.492 567.862C259.889 556.473 254.497 553.963 269.529 543.586C279.232 536.824 287.765 537.263 292.302 539.856C290.248 532.643 279.763 521.79 274.915 514.752ZM240.342 560.399C220.427 568.241 225.889 564.591 198.553 580.269C206.192 526.099 194.595 501.038 194.595 476.624C202.459 472.555 210.018 470.338 215.815 463.697C237.529 438.726 233.004 432.618 245.027 425.265C245.779 432.428 246.38 439.646 246.756 446.886C248.038 472.508 244.619 455.006 254.698 481.409C269.594 520.417 283.812 524.475 290.549 537.952C271.421 529.621 257.807 554.577 240.342 560.399ZM418.921 519.863C418.908 518.869 419.805 479.768 419.823 479.553C403.661 473.963 385.69 428.447 363.255 425.739C361.359 437.401 359.119 462.642 359.119 462.642C343.819 513.878 339.753 504.997 338.3 538.678C338.307 538.678 339.918 538.23 340.023 538.222C346.405 536.539 348.832 535.481 352.883 534.316C353.52 534.447 354.564 534.765 355.188 535.043C355.268 535.083 359.056 536.952 358.971 536.974C377.809 547.043 395.223 565.119 421.454 576.233C422.075 566.662 418.921 542.053 418.921 519.863ZM403.363 563.659C385.798 553.131 373.64 540.369 355.01 532.768C349.967 530.639 343.471 534.97 339.026 538.23C341.479 516.814 340.64 521.672 345.189 509.366C366.159 452.423 360.291 484.656 365.207 426.966C384.438 433.38 402.03 474.62 417.793 479.703C412.73 539.613 419.522 560.865 420.324 574.454C414.464 571.3 409.05 567.063 403.363 563.659Z" fill="#AFA9A0"/>
<path d="M305.439 46.6897C221.208 46.5569 153.076 114.413 152.945 198.279C152.925 211.597 154.622 224.517 157.838 236.833H157.848C157.876 236.966 179.677 333.556 194.223 362.978C209.438 393.756 253.885 443.541 305.439 443.541C357.003 443.541 401.442 393.756 416.655 362.978C431.198 333.558 452.999 236.968 453.029 236.833H453.042C456.256 224.517 457.955 211.599 457.932 198.279C457.805 114.413 389.67 46.5569 305.439 46.6897Z" fill="#774824"/>
<path d="M357.429 55.6738C411.145 79.0634 448.65 132.417 448.747 194.603C448.767 207.922 447.071 220.842 443.854 233.158H443.842C443.814 233.29 422.013 329.88 407.467 359.305C393.164 388.237 353.332 439.335 305.438 439.335C257.544 439.335 217.712 388.237 203.41 359.305C188.864 329.883 167.065 233.293 167.035 233.158H167.025C163.808 220.842 162.109 207.924 162.132 194.603C162.227 132.417 199.732 79.0634 253.451 55.6738C194.861 76.7485 153.048 132.599 152.945 198.276C152.925 211.594 154.621 224.514 157.838 236.83H157.848C157.875 236.963 179.677 333.553 194.223 362.975C209.437 393.753 253.884 443.539 305.438 443.539C356.995 443.539 401.439 393.753 416.654 362.975C431.198 333.556 452.999 236.966 453.029 236.83H453.041C456.256 224.514 457.954 211.597 457.932 198.276C457.832 132.599 416.018 76.7485 357.429 55.6738Z" fill="#6F401C"/>
<path d="M305.439 46.6897C221.208 46.5569 153.076 114.413 152.945 198.279C152.925 211.597 154.622 224.517 157.838 236.833H157.848C157.876 236.966 179.677 333.556 194.223 362.978C209.438 393.756 253.885 443.541 305.439 443.541C357.003 443.541 401.442 393.756 416.655 362.978C431.198 333.558 452.999 236.968 453.029 236.833H453.042C456.256 224.517 457.955 211.599 457.932 198.279C457.805 114.413 389.67 46.5569 305.439 46.6897Z" stroke="#492000" stroke-width="4.5"/>
<path d="M305.438 398.857C295.021 398.857 292.578 390.759 292.578 390.759H318.3C318.3 390.757 314.6 398.857 305.438 398.857Z" fill="url(#paint4_linear)"/>
<path d="M274.207 377.624C281.111 375.241 289.837 368.542 295.332 368.297C298.17 368.169 301.222 370.476 304.286 371.218C306.418 371.737 312.463 368.322 314.632 368.297C320.325 368.242 330.481 375.239 336.602 377.624C336.94 377.762 336.602 377.624 336.602 377.624C336.602 377.624 323.935 392.709 305.405 392.709C284.433 392.706 274.207 377.624 274.207 377.624C274.207 377.624 273.864 377.749 274.207 377.624Z" fill="#732913"/>
<path d="M274.207 377.624C281.111 375.241 289.837 368.542 295.332 368.297C298.17 368.169 301.222 370.476 304.286 371.218C306.418 371.737 312.463 368.322 314.632 368.297C320.325 368.242 330.481 375.239 336.602 377.624C336.94 377.762 336.602 377.624 336.602 377.624C336.602 377.624 323.935 392.709 305.405 392.709C284.433 392.706 274.207 377.624 274.207 377.624ZM274.207 377.624C274.207 377.624 273.864 377.749 274.207 377.624Z" stroke="#641C07" stroke-width="2.25"/>
<path d="M337.521 377.479C337.053 377.288 336.003 377.409 335.635 377.426C334.873 377.466 334.267 377.133 332.593 377.103C330.734 377.073 322.71 376.431 320.059 376.256C314.725 375.898 310.479 377.925 305.408 377.925C300.335 377.925 295.717 375.712 290.386 376.071C287.738 376.251 280.082 377.06 278.218 377.103C276.557 377.15 275.905 377.436 275.134 377.404C274.776 377.386 273.643 377.278 273.202 377.529C272.834 377.744 272.977 378.929 273.27 379.24C273.984 379.986 276.77 378.656 278.178 378.689C280.124 378.731 287.806 378.563 290.496 378.386C295.71 378.03 300.357 380.442 305.408 380.442C310.459 380.442 314.74 378.215 319.954 378.566C322.637 378.746 330.679 378.726 332.631 378.689C334.041 378.654 337.05 379.814 337.772 379.24C338.11 378.964 337.932 377.647 337.521 377.479Z" fill="#451000"/>
<path d="M305.405 388.845C296.963 388.845 288.758 385.954 282.254 380.563C285.528 380.382 288.898 379.869 292.177 380.014C296.219 380.189 300.054 381.78 304.093 382.051C308.457 382.342 312.506 380.828 316.78 380.31C320.342 379.881 324.123 380.458 327.695 380.588C321.304 385.493 313.56 388.845 305.405 388.845ZM317.408 374.422C320.698 374.222 324.075 374.643 327.365 374.775C323.782 372.992 319.966 370.885 315.968 370.248C312.526 369.702 309.179 372.458 305.834 373.014C302.061 373.641 299.095 370.133 295.412 370.133C291.423 370.308 287.4 372.886 283.948 374.655C287.159 374.465 290.461 373.996 293.678 374.302C297.616 374.67 301.43 376.091 305.408 376.091C309.472 376.091 313.352 374.668 317.408 374.422Z" fill="#823823"/>
<path d="M305.286 386.458C300.202 386.458 295.247 384.702 290.988 381.445C291.94 381.352 292.902 381.279 293.826 381.279C294.119 381.279 294.413 381.287 294.706 381.302C296.231 381.384 297.735 381.823 299.33 382.289C300.879 382.735 302.477 383.198 304.148 383.339C304.479 383.369 304.81 383.379 305.138 383.379C307.19 383.379 309.136 382.868 311.02 382.379C312.215 382.063 313.345 381.765 314.508 381.595C315.142 381.495 315.828 381.45 316.605 381.45C317.276 381.45 317.968 381.485 318.654 381.535C315.109 384.168 310.519 386.458 305.286 386.458Z" fill="#924A35"/>
<path d="M252.979 275.58C242.181 277.472 233.798 277.359 226.202 275.069C218.368 272.707 208.194 262.981 204.667 253.786C213.974 253.092 233.099 252.291 241.971 253.401C253.716 254.869 265.706 259.428 272.798 266.518C272.758 267.255 272.666 267.979 272.581 268.703C266.856 272.579 258.749 274.568 252.979 275.58Z" fill="url(#paint5_radial)"/>
<path d="M261.59 263.732C261.59 275.492 252.055 285.028 240.297 285.028C228.537 285.028 219 275.492 219 263.732C219 251.973 228.537 242.437 240.297 242.437C252.055 242.435 261.59 251.97 261.59 263.732Z" fill="#3E280C"/>
<path d="M237.91 242.675C237.827 242.685 237.745 242.695 237.657 242.705C237.76 243.184 237.86 243.667 237.957 244.146C237.94 243.657 237.927 243.161 237.91 242.675ZM237.955 244.141C238.203 251.138 238.611 257.374 239.789 259.631C240.413 257.161 239.355 251.005 237.955 244.141ZM239.794 259.636C239.641 260.228 239.411 260.631 239.057 260.769C238.702 260.901 238.258 260.749 237.752 260.403C237.897 260.994 237.882 261.46 237.624 261.748C237.369 262.034 236.91 262.104 236.304 262.024C236.705 262.485 236.91 262.908 236.82 263.277C236.722 263.647 236.347 263.923 235.78 264.136C236.344 264.356 236.722 264.634 236.81 265.005C236.9 265.376 236.695 265.794 236.296 266.253C236.9 266.18 237.364 266.255 237.612 266.541C237.865 266.827 237.877 267.295 237.737 267.886C238.236 267.543 238.679 267.393 239.035 267.531C239.393 267.663 239.621 268.072 239.764 268.668C240.049 268.129 240.373 267.784 240.756 267.746C241.127 267.696 241.525 267.956 241.923 268.415C241.928 267.804 242.056 267.355 242.377 267.137C242.688 266.922 243.156 266.964 243.722 267.182C243.447 266.641 243.351 266.185 243.527 265.844C243.705 265.506 244.141 265.326 244.747 265.256C244.248 264.905 243.943 264.547 243.95 264.163C243.948 263.78 244.248 263.422 244.754 263.076C244.151 263.001 243.722 262.818 243.542 262.482C243.366 262.144 243.464 261.683 243.745 261.142C243.171 261.355 242.71 261.398 242.397 261.182C242.081 260.967 241.953 260.513 241.951 259.904C241.555 260.36 241.159 260.611 240.778 260.561C240.398 260.511 240.072 260.175 239.794 259.636ZM241.948 259.902C243.65 258.003 245.571 252.06 247.52 245.338C244.489 251.642 241.953 257.351 241.948 259.902ZM247.518 245.336C247.731 244.905 247.949 244.464 248.152 244.023C248.076 243.996 248.001 243.963 247.926 243.93C247.791 244.401 247.656 244.872 247.518 245.336ZM243.745 261.139C246.132 260.245 250.599 255.876 255.447 250.83C249.835 255.006 244.932 258.885 243.745 261.139ZM255.447 250.833C255.803 250.567 256.166 250.299 256.532 250.036C256.479 249.973 256.424 249.918 256.382 249.861C256.071 250.179 255.763 250.509 255.447 250.833ZM244.747 263.076C247.277 263.389 253.262 261.595 259.909 259.381C252.992 260.471 246.851 261.626 244.747 263.076ZM259.909 259.381C260.3 259.326 260.706 259.26 261.107 259.198C261.089 259.133 261.074 259.063 261.056 258.995C260.676 259.123 260.285 259.253 259.909 259.381ZM244.742 265.251C246.836 266.711 252.969 267.899 259.869 269.021C253.25 266.774 247.275 264.945 244.742 265.251ZM259.869 269.021C260.207 269.139 260.548 269.259 260.881 269.367C260.899 269.307 260.914 269.249 260.926 269.189C260.583 269.139 260.222 269.081 259.869 269.021ZM243.72 267.177C244.9 269.437 249.783 273.345 255.367 277.554C250.547 272.481 246.107 268.084 243.72 267.177ZM255.372 277.547C255.58 277.765 255.798 277.995 256.006 278.218C256.041 278.176 256.073 278.141 256.113 278.103C255.865 277.918 255.61 277.73 255.372 277.547ZM241.928 268.41C241.918 270.963 244.421 276.682 247.418 283.008C245.503 276.274 243.619 270.316 241.928 268.41ZM247.42 283.008C247.495 283.274 247.575 283.547 247.646 283.82C247.698 283.8 247.736 283.783 247.783 283.77C247.663 283.514 247.54 283.256 247.42 283.008ZM239.764 268.663C238.571 270.923 238.128 277.146 237.84 284.141C239.278 277.294 240.373 271.143 239.764 268.663ZM237.842 284.141C237.785 284.406 237.732 284.677 237.677 284.95C237.727 284.96 237.765 284.962 237.815 284.968C237.822 284.697 237.835 284.411 237.842 284.141ZM237.737 267.884C235.623 269.327 232.341 274.641 228.836 280.696C233.29 275.3 237.121 270.359 237.737 267.884ZM228.838 280.696C228.653 280.921 228.457 281.159 228.264 281.382C228.31 281.412 228.35 281.433 228.397 281.468C228.543 281.21 228.693 280.952 228.838 280.696ZM236.299 266.253C233.756 266.551 228.382 269.723 222.465 273.456C228.921 270.75 234.598 268.162 236.299 266.253ZM222.465 273.463C222.159 273.591 221.846 273.719 221.533 273.854C221.555 273.902 221.585 273.949 221.615 273.997C221.901 273.821 222.184 273.638 222.465 273.463ZM235.78 264.136C233.398 263.221 227.16 263.54 220.18 264.096C227.155 264.692 233.39 265.038 235.78 264.136ZM220.182 264.096C219.804 264.061 219.411 264.026 219.037 263.993C219.035 264.061 219.03 264.126 219.035 264.193C219.423 264.156 219.806 264.123 220.182 264.096ZM236.304 262.024C234.625 260.112 228.958 257.492 222.527 254.746C228.417 258.509 233.774 261.718 236.304 262.024ZM222.527 254.746C222.159 254.508 221.783 254.272 221.41 254.032C221.377 254.097 221.345 254.165 221.307 254.227C221.718 254.403 222.131 254.573 222.527 254.746ZM237.752 260.4C237.153 257.923 233.348 252.967 228.931 247.543C232.401 253.619 235.653 258.947 237.752 260.4ZM228.933 247.543C228.695 247.135 228.462 246.719 228.229 246.306C228.164 246.351 228.092 246.398 228.031 246.441C228.33 246.809 228.64 247.18 228.933 247.543Z" fill="url(#paint6_radial)"/>
<path d="M243.439 242.743C243.354 242.733 243.274 242.718 243.188 242.708C243.161 243.199 243.133 243.693 243.103 244.176C243.211 243.7 243.329 243.219 243.439 242.743ZM243.101 244.174C241.53 250.998 240.31 257.126 240.866 259.611C242.109 257.387 242.675 251.166 243.101 244.174ZM240.869 259.614C240.57 260.145 240.242 260.476 239.864 260.516C239.488 260.551 239.097 260.288 238.701 259.824C238.686 260.433 238.551 260.879 238.23 261.089C237.91 261.297 237.446 261.247 236.88 261.014C237.148 261.563 237.238 262.024 237.053 262.357C236.865 262.69 236.429 262.861 235.828 262.918C236.314 263.279 236.61 263.642 236.6 264.023C236.592 264.404 236.284 264.755 235.78 265.095C236.382 265.181 236.807 265.373 236.978 265.714C237.146 266.055 237.04 266.511 236.75 267.047C237.324 266.844 237.787 266.814 238.095 267.04C238.403 267.26 238.521 267.716 238.506 268.327C238.922 267.884 239.32 267.631 239.704 267.693C240.074 267.744 240.39 268.094 240.661 268.643C240.821 268.052 241.061 267.651 241.427 267.523C241.786 267.395 242.224 267.558 242.717 267.916C242.59 267.323 242.615 266.857 242.875 266.574C243.136 266.29 243.602 266.233 244.208 266.318C243.815 265.849 243.612 265.426 243.72 265.055C243.817 264.685 244.201 264.416 244.779 264.214C244.213 263.986 243.847 263.697 243.76 263.327C243.68 262.953 243.892 262.535 244.306 262.087C243.697 262.144 243.236 262.064 242.993 261.773C242.745 261.485 242.738 261.014 242.895 260.425C242.392 260.761 241.943 260.901 241.59 260.756C241.222 260.616 240.999 260.208 240.869 259.614ZM242.883 260.433C245.017 259.035 248.41 253.794 252.032 247.806C247.473 253.11 243.547 257.968 242.883 260.433ZM252.032 247.801C252.348 247.438 252.671 247.07 252.984 246.699C252.917 246.651 252.854 246.599 252.789 246.549C252.536 246.972 252.283 247.39 252.032 247.801ZM244.296 262.092C246.834 261.843 252.28 258.78 258.268 255.159C251.764 257.742 246.024 260.22 244.296 262.092ZM258.265 255.162C258.679 254.999 259.1 254.834 259.521 254.673C259.486 254.601 259.448 254.533 259.42 254.465C259.037 254.693 258.654 254.931 258.265 255.162ZM244.762 264.219C247.124 265.176 253.373 264.993 260.362 264.574C253.4 263.838 247.172 263.364 244.762 264.219ZM260.362 264.574C260.758 264.622 261.164 264.664 261.565 264.707C261.567 264.639 261.57 264.569 261.572 264.499C261.169 264.524 260.758 264.549 260.362 264.574ZM244.198 266.32C245.839 268.275 251.459 271.008 257.832 273.879C252.017 269.993 246.721 266.681 244.198 266.32ZM257.832 273.877C258.125 274.077 258.423 274.28 258.719 274.473C258.751 274.42 258.779 274.368 258.807 274.315C258.488 274.175 258.155 274.027 257.832 273.877ZM242.71 267.916C243.264 270.404 246.966 275.442 251.276 280.957C247.931 274.803 244.782 269.41 242.71 267.916ZM251.278 280.949C251.426 281.215 251.571 281.493 251.719 281.763C251.764 281.731 251.804 281.706 251.852 281.678C251.659 281.433 251.464 281.187 251.278 280.949ZM240.661 268.643C239.992 271.103 240.929 277.279 242.184 284.163C242.076 277.163 241.801 270.923 240.661 268.643ZM242.184 284.163C242.189 284.439 242.194 284.725 242.194 285.008C242.246 285 242.289 284.995 242.339 284.995C242.289 284.717 242.236 284.436 242.184 284.163ZM238.504 268.327C236.767 270.201 234.726 276.099 232.639 282.78C235.798 276.535 238.453 270.88 238.504 268.327ZM232.639 282.78C232.513 283.021 232.391 283.269 232.27 283.519C232.313 283.54 232.35 283.552 232.398 283.572C232.476 283.312 232.561 283.041 232.639 282.78ZM236.747 267.05C234.332 267.896 229.785 272.18 224.832 277.123C230.534 273.062 235.512 269.282 236.747 267.05ZM224.832 277.123C224.594 277.291 224.346 277.469 224.106 277.639C224.141 277.68 224.173 277.71 224.208 277.752C224.414 277.539 224.627 277.331 224.832 277.123ZM235.778 265.1C233.247 264.73 227.237 266.406 220.55 268.48C227.49 267.536 233.643 266.503 235.778 265.1ZM220.55 268.485C220.222 268.53 219.887 268.57 219.548 268.62C219.561 268.673 219.576 268.726 219.593 268.778C219.914 268.686 220.235 268.583 220.55 268.485ZM235.828 262.923C233.763 261.423 227.653 260.115 220.771 258.847C227.35 261.227 233.285 263.174 235.828 262.923ZM220.771 258.847C220.413 258.717 220.044 258.582 219.689 258.451C219.669 258.516 219.649 258.579 219.636 258.644C220.019 258.709 220.403 258.777 220.771 258.847ZM236.88 261.019C235.753 258.737 230.96 254.741 225.453 250.422C230.171 255.583 234.515 260.07 236.88 261.019ZM225.453 250.424C225.158 250.099 224.862 249.773 224.564 249.445C224.511 249.5 224.461 249.555 224.411 249.608C224.762 249.881 225.115 250.154 225.453 250.424ZM238.699 259.824C238.759 257.276 236.369 251.504 233.505 245.123C235.282 251.89 237.048 257.878 238.699 259.824ZM233.505 245.123C233.383 244.667 233.265 244.206 233.145 243.745C233.072 243.77 232.989 243.798 232.919 243.825C233.115 244.259 233.315 244.695 233.505 245.123Z" fill="url(#paint7_radial)"/>
<path d="M248.647 263.733C248.647 268.347 244.909 272.083 240.297 272.083C235.685 272.083 231.942 268.345 231.942 263.733C231.942 259.12 235.685 255.38 240.297 255.38C244.914 255.38 248.647 259.12 248.647 263.733Z" fill="#3E280C"/>
<path opacity="0.9" d="M248.647 263.733C248.647 268.347 244.909 272.083 240.297 272.083C235.685 272.083 231.942 268.345 231.942 263.733C231.942 259.12 235.685 255.38 240.297 255.38C244.914 255.38 248.647 259.12 248.647 263.733Z" fill="black"/>
<path opacity="0.5" d="M228.645 273.486C230.238 272.416 232.403 272.847 233.473 274.438C234.542 276.034 234.119 278.196 232.523 279.265C230.925 280.34 228.765 279.912 227.695 278.318C226.626 276.723 227.049 274.555 228.645 273.486Z" fill="url(#paint8_linear)"/>
<path opacity="0.5" d="M246.896 262.57C246.004 263.898 243.457 263.742 241.197 262.229C238.934 260.714 237.825 258.406 238.714 257.081L238.717 257.078C239.603 255.751 242.154 255.903 244.414 257.422C246.676 258.935 247.786 261.24 246.899 262.568C246.896 262.57 246.896 262.57 246.896 262.57Z" fill="url(#paint9_linear)"/>
<path opacity="0.75" d="M257.035 259.025C255.016 262.124 249.81 262.307 245.408 259.441C241.008 256.572 239.077 251.737 241.094 248.64C243.113 245.546 248.319 245.359 252.721 248.225C257.118 251.096 259.047 255.933 257.035 259.025Z" fill="url(#paint10_linear)"/>
<path d="M195.2 264.985C195.2 299.579 215.393 327.615 240.295 327.615C265.198 327.615 285.391 299.579 285.391 264.985C285.391 230.389 265.198 202.35 240.295 202.35C215.393 202.35 195.2 230.389 195.2 264.985ZM204.67 253.786C213.977 253.092 233.103 252.291 241.974 253.401C254.38 254.951 267.127 259.914 274.012 267.706C268.277 272.266 259.238 274.483 252.98 275.58C242.182 277.472 233.799 277.359 226.203 275.069C218.371 272.709 208.197 262.981 204.67 253.786Z" fill="#774824"/>
<path d="M195.557 262.267C195.625 283.021 216.812 299.751 242.913 299.644C269.003 299.526 290.103 282.618 290.045 261.864C289.977 241.107 268.785 224.377 242.69 224.484C216.592 224.602 195.497 241.51 195.557 262.267ZM204.669 253.786C213.976 253.092 233.102 252.291 241.973 253.401C254.379 254.951 267.127 259.914 274.011 267.706C268.276 272.266 259.237 274.483 252.979 275.58C242.181 277.472 233.798 277.359 226.202 275.069C218.371 272.709 208.197 262.981 204.669 253.786Z" fill="url(#paint11_radial)"/>
<path d="M204.669 253.786C213.976 253.092 233.102 252.291 241.973 253.401C254.379 254.951 267.126 259.914 274.011 267.706C268.276 272.266 259.237 274.483 252.979 275.58C242.181 277.472 233.798 277.359 226.202 275.069C218.371 272.709 208.196 262.981 204.669 253.786Z" fill="url(#paint12_radial)"/>
<path d="M223.667 244.179C239.032 243.482 245.245 244.399 256.201 247.646C260.365 249.154 260.841 249.58 262.602 250.687C253.119 245.584 227.342 244.043 223.667 244.179ZM203.707 261.858C210.857 275.623 215.725 274.119 222.575 277.036C222.637 277.058 218.792 275.585 215.9 274.039C208.41 269.733 207.495 267.899 203.707 261.858Z" fill="#492000"/>
<path d="M195.199 249.287C202.956 255.613 206.13 264.201 213.734 270.655C218.837 274.986 228.457 277.462 237.79 277.602C247.42 277.747 259.31 276.515 263.489 275.46C270.599 273.661 272.355 272.258 280.38 271.772C275.404 264.158 270.769 260.751 264.677 257.139C257.218 252.719 251.965 251.429 242.833 250.715C230.674 249.763 195.199 249.287 195.199 249.287ZM206.987 254.528C215.673 253.882 233.518 253.133 241.798 254.167C253.375 255.613 265.27 260.245 271.696 267.516C266.343 271.772 257.907 273.839 252.07 274.864C241.996 276.63 234.169 276.525 227.084 274.388C219.774 272.185 210.281 263.109 206.987 254.528Z" fill="black"/>
<path d="M357.887 275.58C368.685 277.472 377.068 277.359 384.664 275.069C392.498 272.707 402.672 262.981 406.199 253.786C396.892 253.092 377.767 252.291 368.895 253.401C357.15 254.869 345.16 259.428 338.067 266.518C338.107 267.255 338.2 267.979 338.285 268.703C344.01 272.579 352.117 274.568 357.887 275.58Z" fill="url(#paint13_radial)"/>
<path d="M391.867 263.732C391.867 275.492 382.331 285.028 370.574 285.028C358.814 285.028 349.276 275.492 349.276 263.732C349.276 251.973 358.814 242.437 370.574 242.437C382.331 242.435 391.867 251.97 391.867 263.732Z" fill="#3E280C"/>
<path d="M368.186 242.675C368.104 242.685 368.021 242.695 367.933 242.705C368.036 243.184 368.136 243.667 368.234 244.146C368.216 243.657 368.204 243.161 368.186 242.675ZM368.231 244.141C368.479 251.138 368.888 257.374 370.065 259.631C370.689 257.161 369.632 251.005 368.231 244.141ZM370.07 259.636C369.917 260.228 369.687 260.631 369.334 260.769C368.978 260.901 368.534 260.749 368.028 260.403C368.174 260.994 368.159 261.46 367.901 261.748C367.645 262.034 367.187 262.104 366.58 262.024C366.981 262.485 367.187 262.908 367.096 263.277C366.999 263.647 366.623 263.923 366.057 264.136C366.62 264.356 366.999 264.634 367.086 265.005C367.177 265.376 366.971 265.794 366.573 266.253C367.177 266.18 367.64 266.255 367.888 266.541C368.141 266.827 368.154 267.295 368.013 267.886C368.512 267.543 368.955 267.393 369.311 267.531C369.669 267.663 369.897 268.072 370.04 268.668C370.326 268.129 370.649 267.784 371.032 267.746C371.403 267.696 371.801 267.956 372.2 268.415C372.205 267.804 372.333 267.355 372.653 267.137C372.964 266.922 373.432 266.964 373.999 267.182C373.723 266.641 373.628 266.185 373.803 265.844C373.981 265.506 374.417 265.326 375.023 265.256C374.525 264.905 374.219 264.547 374.227 264.163C374.224 263.78 374.525 263.422 375.031 263.076C374.427 263.001 373.999 262.818 373.818 262.482C373.643 262.144 373.741 261.683 374.021 261.142C373.447 261.355 372.986 261.398 372.673 261.182C372.358 260.967 372.23 260.513 372.227 259.904C371.831 260.36 371.436 260.611 371.055 260.561C370.674 260.511 370.348 260.175 370.07 259.636ZM372.225 259.902C373.926 258.003 375.848 252.06 377.797 245.338C374.765 251.642 372.23 257.351 372.225 259.902ZM377.794 245.336C378.007 244.905 378.225 244.464 378.428 244.023C378.353 243.996 378.278 243.963 378.203 243.93C378.067 244.401 377.932 244.872 377.794 245.336ZM374.021 261.139C376.409 260.245 380.876 255.876 385.723 250.83C380.112 255.006 375.209 258.885 374.021 261.139ZM385.723 250.833C386.079 250.567 386.442 250.299 386.808 250.036C386.756 249.973 386.701 249.918 386.658 249.861C386.347 250.179 386.039 250.509 385.723 250.833ZM375.023 263.076C377.554 263.389 383.539 261.595 390.185 259.381C383.268 260.471 377.128 261.626 375.023 263.076ZM390.185 259.381C390.576 259.326 390.982 259.26 391.383 259.198C391.365 259.133 391.35 259.063 391.333 258.995C390.952 259.123 390.561 259.253 390.185 259.381ZM375.018 265.251C377.113 266.711 383.246 267.899 390.145 269.021C383.526 266.774 377.551 264.945 375.018 265.251ZM390.145 269.021C390.484 269.139 390.824 269.259 391.157 269.367C391.175 269.307 391.19 269.249 391.203 269.189C390.859 269.139 390.499 269.081 390.145 269.021ZM373.996 267.177C375.176 269.437 380.059 273.345 385.643 277.554C380.823 272.481 376.384 268.084 373.996 267.177ZM385.648 277.547C385.856 277.765 386.074 277.995 386.282 278.218C386.317 278.176 386.35 278.141 386.39 278.103C386.142 277.918 385.886 277.73 385.648 277.547ZM372.205 268.41C372.195 270.963 374.698 276.682 377.694 283.008C375.78 276.274 373.896 270.316 372.205 268.41ZM377.696 283.008C377.772 283.274 377.852 283.547 377.922 283.82C377.975 283.8 378.012 283.783 378.06 283.77C377.939 283.514 377.817 283.256 377.696 283.008ZM370.04 268.663C368.848 270.923 368.404 277.146 368.116 284.141C369.554 277.294 370.649 271.143 370.04 268.663ZM368.119 284.141C368.061 284.406 368.008 284.677 367.953 284.95C368.003 284.96 368.041 284.962 368.091 284.968C368.099 284.697 368.111 284.411 368.119 284.141ZM368.013 267.884C365.899 269.327 362.617 274.641 359.112 280.696C363.566 275.3 367.397 270.359 368.013 267.884ZM359.115 280.696C358.929 280.921 358.734 281.159 358.541 281.382C358.586 281.412 358.626 281.433 358.674 281.468C358.819 281.21 358.969 280.952 359.115 280.696ZM366.575 266.253C364.032 266.551 358.659 269.723 352.741 273.456C359.197 270.75 364.874 268.162 366.575 266.253ZM352.741 273.463C352.435 273.591 352.122 273.719 351.809 273.854C351.832 273.902 351.862 273.949 351.892 273.997C352.177 273.821 352.46 273.638 352.741 273.463ZM366.057 264.136C363.674 263.221 357.436 263.54 350.456 264.096C357.431 264.692 363.667 265.038 366.057 264.136ZM350.459 264.096C350.08 264.061 349.687 264.026 349.314 263.993C349.311 264.061 349.306 264.126 349.311 264.193C349.7 264.156 350.083 264.123 350.459 264.096ZM366.58 262.024C364.902 260.112 359.235 257.492 352.804 254.746C358.694 258.509 364.05 261.718 366.58 262.024ZM352.804 254.746C352.435 254.508 352.06 254.272 351.686 254.032C351.654 254.097 351.621 254.165 351.584 254.227C351.994 254.403 352.408 254.573 352.804 254.746ZM368.028 260.4C367.43 257.923 363.624 252.967 359.207 247.543C362.677 253.619 365.929 258.947 368.028 260.4ZM359.21 247.543C358.972 247.135 358.739 246.719 358.506 246.306C358.441 246.351 358.368 246.398 358.308 246.441C358.606 246.809 358.917 247.18 359.21 247.543Z" fill="url(#paint14_radial)"/>
<path d="M373.716 242.743C373.631 242.733 373.551 242.718 373.465 242.708C373.438 243.199 373.41 243.693 373.38 244.176C373.488 243.7 373.606 243.219 373.716 242.743ZM373.378 244.174C371.807 250.998 370.587 257.126 371.143 259.611C372.386 257.387 372.952 251.166 373.378 244.174ZM371.145 259.614C370.847 260.145 370.519 260.476 370.141 260.516C369.765 260.551 369.374 260.288 368.978 259.824C368.963 260.433 368.828 260.879 368.507 261.089C368.187 261.297 367.723 261.247 367.157 261.014C367.425 261.563 367.515 262.024 367.33 262.357C367.142 262.69 366.706 262.861 366.105 262.918C366.591 263.279 366.886 263.642 366.876 264.023C366.869 264.404 366.561 264.755 366.057 265.095C366.658 265.181 367.084 265.373 367.255 265.714C367.423 266.055 367.317 266.511 367.027 267.047C367.6 266.844 368.064 266.814 368.372 267.04C368.68 267.26 368.798 267.716 368.783 268.327C369.199 267.884 369.597 267.631 369.98 267.693C370.351 267.744 370.667 268.094 370.937 268.643C371.098 268.052 371.338 267.651 371.704 267.523C372.062 267.395 372.501 267.558 372.994 267.916C372.867 267.323 372.892 266.857 373.152 266.574C373.413 266.29 373.879 266.233 374.485 266.318C374.092 265.849 373.889 265.426 373.996 265.055C374.094 264.685 374.477 264.416 375.056 264.214C374.49 263.986 374.124 263.697 374.037 263.327C373.956 262.953 374.169 262.535 374.583 262.087C373.974 262.144 373.513 262.064 373.27 261.773C373.022 261.485 373.014 261.014 373.172 260.425C372.669 260.761 372.22 260.901 371.867 260.756C371.499 260.616 371.276 260.208 371.145 259.614ZM373.16 260.433C375.294 259.035 378.686 253.794 382.309 247.806C377.749 253.11 373.824 257.968 373.16 260.433ZM382.309 247.801C382.625 247.438 382.948 247.07 383.261 246.699C383.193 246.651 383.131 246.599 383.066 246.549C382.813 246.972 382.56 247.39 382.309 247.801ZM374.573 262.092C377.111 261.843 382.557 258.78 388.545 255.159C382.041 257.742 376.301 260.22 374.573 262.092ZM388.542 255.162C388.956 254.999 389.377 254.834 389.797 254.673C389.762 254.601 389.725 254.533 389.697 254.465C389.314 254.693 388.931 254.931 388.542 255.162ZM375.039 264.219C377.401 265.176 383.649 264.993 390.639 264.574C383.677 263.838 377.449 263.364 375.039 264.219ZM390.639 264.574C391.035 264.622 391.441 264.664 391.842 264.707C391.844 264.639 391.847 264.569 391.849 264.499C391.446 264.524 391.035 264.549 390.639 264.574ZM374.475 266.32C376.116 268.275 381.735 271.008 388.109 273.879C382.294 269.993 376.998 266.681 374.475 266.32ZM388.109 273.877C388.402 274.077 388.7 274.28 388.996 274.473C389.028 274.42 389.056 274.368 389.083 274.315C388.765 274.175 388.432 274.027 388.109 273.877ZM372.987 267.916C373.54 270.404 377.243 275.442 381.552 280.957C378.208 274.803 375.059 269.41 372.987 267.916ZM381.555 280.949C381.703 281.215 381.848 281.493 381.996 281.763C382.041 281.731 382.081 281.706 382.129 281.678C381.936 281.433 381.74 281.187 381.555 280.949ZM370.937 268.643C370.269 271.103 371.206 277.279 372.461 284.163C372.353 277.163 372.077 270.923 370.937 268.643ZM372.461 284.163C372.466 284.439 372.471 284.725 372.471 285.008C372.523 285 372.566 284.995 372.616 284.995C372.566 284.717 372.513 284.436 372.461 284.163ZM368.78 268.327C367.044 270.201 365.002 276.099 362.915 282.78C366.075 276.535 368.73 270.88 368.78 268.327ZM362.915 282.78C362.79 283.021 362.667 283.269 362.547 283.519C362.59 283.54 362.627 283.552 362.675 283.572C362.753 283.312 362.838 283.041 362.915 282.78ZM367.024 267.05C364.609 267.896 360.062 272.18 355.109 277.123C360.811 273.062 365.789 269.282 367.024 267.05ZM355.109 277.123C354.871 277.291 354.623 277.469 354.382 277.639C354.417 277.68 354.45 277.71 354.485 277.752C354.691 277.539 354.903 277.331 355.109 277.123ZM366.055 265.1C363.524 264.73 357.514 266.406 350.827 268.48C357.767 267.536 363.92 266.503 366.055 265.1ZM350.827 268.485C350.499 268.53 350.163 268.57 349.825 268.62C349.838 268.673 349.853 268.726 349.87 268.778C350.191 268.686 350.512 268.583 350.827 268.485ZM366.105 262.923C364.04 261.423 357.93 260.115 351.048 258.847C357.627 261.227 363.562 263.174 366.105 262.923ZM351.048 258.847C350.69 258.717 350.321 258.582 349.965 258.451C349.945 258.516 349.925 258.579 349.913 258.644C350.296 258.709 350.68 258.777 351.048 258.847ZM367.157 261.019C366.03 258.737 361.237 254.741 355.73 250.422C360.448 255.583 364.792 260.07 367.157 261.019ZM355.73 250.424C355.435 250.099 355.139 249.773 354.841 249.445C354.788 249.5 354.738 249.555 354.688 249.608C355.039 249.881 355.392 250.154 355.73 250.424ZM368.976 259.824C369.036 257.276 366.646 251.504 363.782 245.123C365.559 251.89 367.325 257.878 368.976 259.824ZM363.782 245.123C363.66 244.667 363.542 244.206 363.422 243.745C363.349 243.77 363.266 243.798 363.196 243.825C363.391 244.259 363.592 244.695 363.782 245.123Z" fill="url(#paint15_radial)"/>
<path d="M378.924 263.733C378.924 268.347 375.186 272.083 370.574 272.083C365.962 272.083 362.219 268.345 362.219 263.733C362.219 259.12 365.962 255.38 370.574 255.38C375.191 255.38 378.924 259.12 378.924 263.733Z" fill="#3E280C"/>
<path opacity="0.9" d="M378.924 263.733C378.924 268.347 375.186 272.083 370.574 272.083C365.962 272.083 362.219 268.345 362.219 263.733C362.219 259.12 365.962 255.38 370.574 255.38C375.191 255.38 378.924 259.12 378.924 263.733Z" fill="black"/>
<path opacity="0.5" d="M358.922 273.486C360.515 272.416 362.68 272.847 363.75 274.438C364.819 276.034 364.396 278.196 362.8 279.265C361.202 280.34 359.042 279.912 357.972 278.318C356.903 276.723 357.326 274.555 358.922 273.486Z" fill="url(#paint16_linear)"/>
<path opacity="0.5" d="M377.173 262.57C376.281 263.898 373.733 263.742 371.474 262.229C369.211 260.714 368.101 258.406 368.991 257.081L368.993 257.078C369.88 255.751 372.431 255.903 374.69 257.422C376.953 258.935 378.063 261.24 377.176 262.568C377.173 262.57 377.173 262.57 377.173 262.57Z" fill="url(#paint17_linear)"/>
<path opacity="0.75" d="M387.312 259.025C385.293 262.124 380.087 262.307 375.685 259.441C371.285 256.572 369.354 251.737 371.371 248.64C373.39 245.546 378.596 245.359 382.998 248.225C387.395 251.096 389.324 255.933 387.312 259.025Z" fill="url(#paint18_linear)"/>
<path d="M370.571 202.35C345.668 202.35 325.476 230.392 325.476 264.985C325.476 299.579 345.668 327.615 370.571 327.615C395.474 327.615 415.667 299.579 415.667 264.985C415.667 230.389 395.474 202.35 370.571 202.35ZM384.661 275.069C377.067 277.359 368.682 277.472 357.884 275.58C351.629 274.483 342.589 272.266 336.852 267.706C343.737 259.914 356.484 254.951 368.89 253.401C377.761 252.291 396.887 253.092 406.194 253.786C402.669 262.981 392.495 272.709 384.661 275.069Z" fill="#774824"/>
<path d="M368.179 224.484C342.083 224.377 320.891 241.107 320.823 261.864C320.766 282.618 341.863 299.526 367.956 299.644C394.056 299.751 415.244 283.021 415.311 262.267C415.369 241.51 394.274 224.602 368.179 224.484ZM384.661 275.069C377.068 277.359 368.682 277.472 357.884 275.58C351.629 274.483 342.59 272.266 336.852 267.706C343.737 259.914 356.484 254.951 368.89 253.401C377.762 252.291 396.887 253.092 406.194 253.786C402.669 262.981 392.495 272.709 384.661 275.069Z" fill="url(#paint19_radial)"/>
<path d="M406.197 253.786C396.89 253.092 377.764 252.291 368.893 253.401C356.487 254.951 343.74 259.914 336.855 267.706C342.59 272.266 351.629 274.483 357.887 275.58C368.685 277.472 377.068 277.359 384.664 275.069C392.495 272.709 402.67 262.981 406.197 253.786Z" fill="url(#paint20_radial)"/>
<path d="M348.264 250.687C350.025 249.58 350.501 249.152 354.665 247.646C365.621 244.401 371.837 243.482 387.199 244.178C383.524 244.043 357.747 245.584 348.264 250.687ZM394.963 274.039C392.072 275.585 388.226 277.058 388.289 277.036C395.139 274.119 400.009 275.623 407.157 261.858C403.371 267.899 402.457 269.733 394.963 274.039Z" fill="#492000"/>
<path d="M368.031 250.715C358.899 251.429 353.646 252.719 346.187 257.139C340.094 260.749 335.462 264.158 330.484 271.772C338.508 272.256 340.265 273.661 347.375 275.46C351.554 276.515 363.444 277.747 373.074 277.602C382.407 277.462 392.024 274.986 397.13 270.655C404.734 264.201 407.911 255.615 415.665 249.287C415.667 249.287 380.192 249.763 368.031 250.715ZM383.782 274.388C376.697 276.525 368.873 276.63 358.796 274.864C352.959 273.839 344.524 271.772 339.17 267.516C345.593 260.245 357.491 255.613 369.068 254.167C377.348 253.133 395.194 253.882 403.88 254.528C400.585 263.109 391.092 272.185 383.782 274.388Z" fill="black"/>
<path d="M406.157 327.635C406.245 383.441 361.074 428.762 305.26 428.84C249.457 428.93 204.143 383.762 204.056 327.946C203.971 272.143 249.139 226.829 304.952 226.742C360.758 226.656 406.074 271.825 406.157 327.635Z" fill="url(#paint21_radial)"/>
<path d="M393.119 184.813C393.119 233.238 353.858 272.499 305.433 272.499C257.008 272.499 217.747 233.238 217.747 184.813C217.747 136.387 257.008 97.1266 305.433 97.1266C353.858 97.1266 393.119 136.387 393.119 184.813Z" fill="url(#paint22_radial)"/>
<path d="M282.527 226.017C250.088 215.423 235.239 215.433 199.22 219.707C198.133 219.834 193.06 221.08 192.614 220.26C222.417 213.511 247.585 211.326 275.7 222.578C276.7 222.979 282.662 225.196 282.527 226.017Z" fill="#2A232B"/>
<path d="M327.926 225.937C352.683 210.244 382.91 209.758 410.952 217.825C412.064 218.146 418.215 219.388 418.255 220.396C357.007 206.892 327.926 225.937 327.926 225.937Z" fill="#2A232B"/>
<path d="M286.095 335.723C284.228 340.891 298.691 346.468 304.178 346.811C310.126 347.179 326.786 339.548 323.96 334.307C320.991 328.803 309.855 333.591 305.052 333.591C300.272 333.591 288.588 328.818 286.095 335.723Z" fill="#683915"/>
<path d="M310.963 338.193C310.354 336.885 313.954 334.853 315.342 334.452C317.288 333.886 321.618 335.049 321.45 336.534C321.299 337.84 317.434 336.111 316.176 336.479C314.871 336.855 311.534 339.423 310.963 338.193ZM293.443 336.993C295.212 336.993 297.835 338.138 298.316 337.136C298.889 335.936 294.407 334.468 293.09 334.63C292.002 334.761 288.102 337.03 288.638 337.982C289.139 338.867 291.113 336.993 293.443 336.993Z" fill="#492000"/>
<path opacity="0.2" d="M305.075 328.818C306.751 328.818 309.602 327.222 310.031 324.058C311.92 310.091 308.726 273.335 305.075 273.335C301.656 273.335 298.792 310.975 299.676 324.058C299.894 327.267 303.176 328.818 305.075 328.818Z" fill="#966B4B"/>
<path opacity="0.1" d="M152.243 640.331L176.996 132.457L441.296 135.368L443.864 644.733C443.864 644.733 180.298 643.573 152.243 640.331ZM398.395 633.965C387.77 514.63 401.281 421.572 412.172 346.573C418.285 304.469 423.626 267.691 423.341 235.267C416.972 238.812 368.372 240.035 368.372 240.035C332.012 245.892 304.904 241.004 303.78 241.132C298.814 210.229 298.025 205.416 296.95 198.421C293.61 226.569 296.061 232.669 293.518 236.625C286.32 238.411 236.387 236.207 233.876 236.031C220.152 241.13 211.241 230.535 202.743 232.922C197.777 236.693 189.249 237.104 186.744 236.48C184.181 286.894 192.807 324.875 201.921 365.01C224.469 464.303 222.963 492.46 215.72 627.77C215.723 627.77 371.704 633.101 398.395 633.965Z" fill="#2A232B"/>
<path d="M499.327 569.483C461.479 418.303 508.226 298.732 476.331 191.116C461.141 139.94 430.243 73.4565 369.294 47.3461C353.052 40.3638 337.724 39.3116 320.54 41.6941C310.842 38.7454 300.337 37.2522 289.319 37.2522C213.578 37.2522 164.69 101.972 140.894 174.516C126.005 219.95 122.503 259.451 126.476 337.071C135.578 514.785 118.702 558.463 90.7153 630.38C133.867 630.44 182.249 642.14 249.84 642.353C305.659 642.553 507.86 642.368 524.357 640.517C508.306 604.167 505.73 595.108 499.327 569.483ZM403.907 639.164C293.085 635.343 257.649 640.426 210.159 638.016C217.888 493.287 220.002 467.229 197.041 366.12C187.483 324.03 178.567 284.657 182.044 231.043C186.654 230.865 190.071 231.958 194.222 234.11V234.122C194.42 234.23 194.608 234.338 194.799 234.45C194.924 233.779 195.062 233.005 195.204 232.356L195.5 232.133L195.255 232.083C196.853 224.171 199.601 215.25 203.209 206.286L203.687 206.421C202.46 213.626 201.753 220.864 201.588 227.932L201.513 228.064C209.77 225.767 219.458 232.687 226.969 232.687C229.149 232.536 230.948 231.762 232.967 231.028C235.728 191.101 238.794 174.942 244.554 162.48L245.025 162.638C241.696 178.189 240.633 200.083 241.776 229.568L241.746 229.608C248.472 228.956 256.432 231.892 262.217 231.649C262.217 221.841 263.91 208.621 264.572 200.621L265.07 200.626C266.08 216.317 267.984 226.616 269.535 233.837C282.765 230.868 282.164 232.802 288.981 232.409C289.454 232.386 289.925 232.338 290.374 232.248L290.449 232.133L290.198 232.153C288.502 211.975 296.043 169.129 297.97 159.03L298.466 159.078C298.446 179.02 300.265 187.451 307.969 235.61C312.283 235.117 319.756 237.725 324.797 238.319C324.797 228.332 324.764 229.026 324.822 223.663H325.32C325.403 228.721 325.676 233.656 327.162 238.527C335.076 238.692 340.678 235.012 348.064 235.716C348.988 194.576 345.421 172.887 343.311 153.469L343.802 153.376C354.024 191.507 357.461 232.702 357.744 236.289C358.696 236.219 362.148 235.956 363.91 235.673C364.99 227.804 369.279 182.149 367.189 169.916L367.675 169.801C374.297 191.324 373.515 208.014 373.999 233.849C380.392 231.882 390.799 234.708 398.087 233.887C397.085 214.598 396.692 197.139 391.947 180.666L392.42 180.509C398.162 195.468 402.704 213.571 404.912 232.997L405.024 232.935C421.169 234.187 418.383 230.632 428.171 227.573C431.648 319.937 385.46 444.649 403.907 639.164Z" fill="#2A232B"/>
<path d="M506.675 641.243C473.422 641.774 409.91 640.547 403.904 639.166C396.581 561.952 399.458 495.772 405.355 438.212C414.281 351.083 430.145 283.76 428.183 228.177C428.567 224.464 435.291 227.185 436.944 225.434C425.671 152.153 401.334 105.965 363.053 75.3405C524.355 188.418 399.588 407.382 421.154 494.169C424.844 448.129 453.753 320.332 460.76 295.307C448.233 385.498 418.17 490.721 468.276 575.902C461.684 538.555 460.875 499.282 460.775 461.457C462.707 524.375 486.432 582.198 506.675 641.243ZM201.899 209.735C202.334 208.586 202.74 207.438 203.206 206.286L203.685 206.421C202.457 213.626 201.751 220.864 201.585 227.932L201.51 228.064C203.587 227.488 205.754 227.493 207.954 227.824C209.106 196.477 215.074 164.317 232.779 139.975C211.208 157.622 206.523 184.482 201.899 209.735ZM307.938 122.438C297.115 142.282 295.382 164.722 293.39 186.957C295.156 174.433 297.113 163.512 297.97 159.033L298.466 159.081C298.446 179.023 300.265 187.453 307.968 235.613C309.424 235.447 311.25 235.648 313.21 235.989C304.393 198.958 298.684 161.766 307.938 122.438ZM323.238 238.066C323.764 238.156 324.311 238.261 324.797 238.319C324.797 228.332 324.764 229.026 324.822 223.662H325.32C325.403 228.721 325.676 233.656 327.162 238.527C327.968 238.544 328.735 238.496 329.499 238.444C328.001 222.107 327.981 206.977 327.981 190.081C323.173 206.904 325.273 221.428 323.238 238.066ZM347.202 235.685C347.492 235.701 347.77 235.685 348.066 235.716C348.99 194.576 345.423 172.887 343.313 153.469L343.804 153.376C354.026 191.507 357.463 232.702 357.747 236.289C358.433 236.239 360.43 236.086 362.148 235.898C359.282 195.626 353.154 155.774 332.992 119.93C342.432 157.69 342.983 197.67 347.202 235.685ZM395.572 234.035C396.441 234.019 397.288 233.982 398.09 233.889C397.087 214.601 396.694 197.141 391.949 180.669L392.423 180.511C398.165 195.47 402.707 213.574 404.914 233L405.027 232.937C406.986 233.09 408.657 233.168 410.115 233.188C407.364 200.123 393.738 169.047 378.085 139.975C387.735 171.327 395.041 202.681 395.572 234.035ZM367.665 186.07C367.855 179.153 367.763 173.273 367.192 169.916L367.678 169.801C374.299 191.324 373.517 208.014 374.001 233.849C375.391 233.423 376.99 233.25 378.686 233.188C378.886 201.333 373.69 169.748 363.055 139.97C364.694 154.736 367.392 170.567 367.665 186.07ZM270.359 170.039C260.886 188.984 262.597 210.169 258.581 231.472C259.856 231.617 261.079 231.695 262.214 231.647C262.214 221.839 263.908 208.618 264.569 200.619L265.068 200.624C266.077 216.314 267.981 226.614 269.532 233.834C271.14 233.473 272.538 233.188 273.776 232.957C269.407 212.794 265.882 192.416 270.359 170.039ZM252.822 144.986C231.712 168.44 232.561 202.876 230.7 231.845C231.444 231.587 232.188 231.311 232.964 231.028C235.725 191.101 238.792 174.942 244.551 162.48L245.022 162.638C241.693 178.189 240.631 200.082 241.773 229.568L241.743 229.608C243.617 229.427 245.586 229.535 247.578 229.765C246.423 200.694 241.633 171.84 252.822 144.986ZM257.832 87.3634C194.824 128.664 160.125 205.113 170.146 275.262C182.673 367.958 197.705 458.15 185.178 550.846C192.694 473.182 180.167 395.517 165.136 317.852C177.662 403.033 177.662 488.214 155.114 570.889C163.074 529.098 155.232 488.89 151.667 447.75C152.02 510.709 136.783 573.038 114.473 631.092C155.934 633.211 205.717 639.276 210.156 638.021C217.885 493.292 219.999 467.234 197.038 366.125C187.48 324.035 178.564 284.662 182.041 231.048C182.041 231.046 187.45 157.745 257.832 87.3634Z" fill="#1B141C"/>
<path d="M216.925 150.036C241.773 105.246 256.279 93.3036 291.984 73.1157C292.425 72.8552 290.226 74.2156 286.605 76.4478C251.759 97.8958 235.429 119.384 216.925 150.036ZM394.978 137.497C417.934 183.046 419.467 214.303 417.588 199.391C415.584 186.89 414.033 172.196 401.775 143.781C388.324 114.278 366.52 84.8256 338.433 67.5164C354.129 78.1665 372.974 94.8944 394.978 137.497ZM284.205 154.09C279.543 186.972 280.45 212.639 280.48 210.635C280.63 185.592 286.205 151.259 292.433 126.692C299.129 102.643 306.46 89.5631 308.702 84.7379C298.939 103.064 288.394 126.614 284.205 154.09ZM334.106 193.06C334.274 196.893 334.399 199.218 334.379 198.757C332.971 183.633 338.804 157.061 320.615 101.777C328.144 128.225 332.595 150.738 334.106 193.06ZM381.256 204.657C382.08 209.958 382.627 213.175 382.531 212.536C379.555 194.508 380.176 162.16 362.977 124.941C352.325 101.989 340.775 90.8408 336.251 85.5897C353.164 106.284 369.286 127.514 381.256 204.657ZM253.58 196.876C254.918 175.788 256.394 172.767 257.777 166.396C266.688 131.019 272.48 119.659 283.278 101.649C250.394 151.983 253.58 196.876 253.58 196.876ZM148.863 203.287C148.803 204.467 148.823 210.332 148.843 209.347C150.306 159.128 209.685 72.2664 249.883 57.5703C211.02 70.0492 153.451 142.145 148.863 203.287ZM150.574 303.439C152.296 317.501 154.623 328.417 154.423 327.169C144.902 282.277 157.183 180.438 185.839 144.106C164.998 169.144 143.527 234.453 150.574 303.439ZM140.726 441.161C138.98 451.172 139.188 449.825 140.313 444.639C149.893 398.629 140.844 317.729 136.976 278.371C136.978 275.851 144.279 401.304 140.726 441.161ZM418.583 102.195C424.275 110.207 437.082 125.988 450.914 160.644C461.476 187.072 446.557 146.917 441.293 135.368C421.81 90.2195 395.146 68.6137 350.709 51.9083C389.336 68.5335 400.763 80.4012 418.583 102.195ZM456.626 296.888C453.685 325.418 459.612 277.752 460.231 271.547C465.886 221.523 456.699 187.724 438.302 155.708C453.925 185.827 464.094 215.322 456.626 296.888ZM472.299 476.611C474.058 485.23 475.25 490.421 475.033 489.389C463.135 428.164 473.775 270.91 473.85 265.196C473.146 280.706 456.085 402.374 472.299 476.611Z" fill="#3A353A"/>
<path d="M499.568 569.423C461.612 417.802 508.587 299.075 476.569 191.046C458.879 131.444 426.062 71.3921 369.391 47.1156C352.255 39.75 336.396 39.1988 320.613 41.4536C302.397 35.9169 279.376 35.0651 255.948 41.629C195.019 58.64 159.243 117.765 140.654 174.436C126.599 217.327 122.039 255.357 126.223 337.081C135.167 511.681 119.221 556.436 90.3472 630.628C133.586 630.628 182.039 642.388 249.835 642.601C305.346 642.811 510.884 642.608 524.718 640.722C508.719 604.498 506.051 595.356 499.568 569.423ZM373.099 638.016C302.377 635.887 257.028 639.795 211.181 637.818C210.928 637.806 210.675 637.786 210.422 637.776C211.89 610.245 214.989 573.357 215.69 509.894C216.823 387.387 175.49 336.772 182.28 231.284C182.848 231.264 183.425 231.229 183.976 231.254C184.602 231.279 185.203 231.354 185.78 231.454C188.836 231.88 191.542 232.982 193.972 234.26C193.972 234.335 193.972 234.41 193.947 234.46C193.997 234.41 194.022 234.36 194.047 234.31C194.373 234.485 194.673 234.661 194.999 234.861C194.999 234.736 195.024 234.611 195.049 234.485C195.174 233.809 195.3 233.108 195.45 232.406C195.45 232.306 195.475 232.231 195.5 232.13C197.154 223.938 199.985 214.969 203.442 206.376C202.089 214.318 201.488 221.533 201.338 227.922C201.338 228.072 201.312 228.222 201.338 228.372C201.939 228.197 202.54 228.047 203.141 227.972C210.983 226.869 220.052 233.032 227.142 232.932C228.821 232.807 230.424 232.231 232.028 231.654C232.428 231.479 232.804 231.354 233.205 231.203C233.982 219.905 235.259 208.029 235.836 202.167C237.164 188.663 239.118 174.834 244.78 162.583C242.049 175.335 240.195 195.277 241.523 229.575C241.523 229.675 241.548 229.775 241.548 229.876C242.049 229.826 242.575 229.775 243.101 229.775C245.155 229.7 247.285 229.926 249.414 230.251C249.665 230.277 249.916 230.327 250.141 230.352C253.974 230.978 257.832 231.855 261.59 231.905C261.891 231.905 262.167 231.905 262.467 231.88C262.467 231.78 262.467 231.705 262.467 231.604C262.492 226.468 262.918 219.729 263.945 209.733C264.296 206.702 264.572 203.67 264.822 200.639C265.799 215.821 267.578 225.917 269.307 233.959C269.307 234.009 269.332 234.085 269.332 234.135C269.682 234.06 270.008 233.984 270.309 233.909C275.144 232.682 275.37 232.431 281.708 232.456C284.614 232.456 286.869 232.782 288.998 232.657C289.499 232.632 290.001 232.581 290.477 232.481C290.477 232.356 290.452 232.231 290.452 232.13C290.026 227.07 289.85 222.385 290.001 219.253C290.351 211.487 293.909 181.673 298.218 159.076C298.193 183.953 302.226 198.334 305.483 221.558C306.135 226.218 306.786 230.853 307.688 235.412C307.713 235.563 307.738 235.713 307.761 235.888C308.089 235.838 308.44 235.813 308.788 235.813C313.398 235.738 318.809 237.692 324.095 238.469C324.421 238.519 324.747 238.569 325.047 238.594C325.047 238.218 325.047 237.868 325.047 237.517C325.047 234.886 325.047 232.807 325.047 231.905C325.022 228.723 325.047 225.992 325.072 223.663C325.173 229.901 325.548 233.408 326.651 237.642C326.751 237.993 326.851 238.369 326.979 238.77C327.377 238.77 327.778 238.795 328.156 238.795C328.53 238.77 328.883 238.77 329.234 238.744C333.718 238.469 338.002 236.941 342.412 236.189C343.965 235.913 345.418 235.813 346.796 235.888C347.297 235.888 347.798 235.939 348.302 235.989C348.327 235.788 348.327 235.563 348.302 235.362C348.374 231.454 348.374 226.844 348.327 221.333C348.001 185.431 346.824 183.477 343.567 153.439C354.327 193.581 357.521 236.555 357.521 236.555C357.521 236.555 362.146 236.234 364.14 235.888C365.238 228.117 369.532 182.107 367.442 169.873C374.031 191.294 373.28 207.954 373.758 233.959C373.783 234.035 373.783 234.11 373.783 234.185C374.234 234.035 374.683 233.909 375.136 233.834C381.825 232.456 390.068 234.786 397.684 234.185C397.909 234.16 398.135 234.135 398.36 234.11C398.36 234.035 398.335 233.959 398.335 233.859C397.333 213.015 396.732 196.33 392.197 180.596C397.661 194.826 402.419 213.165 404.599 232.356C404.599 232.406 404.624 232.456 404.624 232.531C404.624 232.657 404.651 232.782 404.651 232.907C404.676 232.982 404.676 233.057 404.701 233.158C404.902 233.183 405.102 233.183 405.328 233.208C408.409 233.483 411.516 233.684 414.472 233.333C419.468 232.714 423.273 229.37 427.948 227.909C429.619 266.824 418.821 335.129 414.622 363.203C412.52 377.627 410.436 391.386 408.85 403.789C396.885 495.92 398.21 581.802 403.639 638.903C394.237 638.643 384.095 638.349 373.099 638.016ZM459.107 640.248C454.597 622.486 449.937 603.295 448.434 596.305C436.459 540.988 431.699 451.749 442.547 396.657C431.245 445.764 428.64 531.267 445.951 599.437C448.331 608.807 452.615 623.964 457.578 640.223C443.471 639.95 426.26 639.534 405.112 638.946C402.622 605.415 400.49 554.206 404.356 497.593C410.005 406.232 431.696 281.693 428.807 227.679C429.494 227.491 430.183 227.303 430.897 227.17C431.498 227.045 432.099 226.944 432.701 226.844C435.106 226.468 437.561 226.218 439.966 225.892C440.267 225.842 440.592 225.792 440.893 225.742C440.84 225.516 440.818 225.291 440.818 225.04C438.964 207.679 433.653 169.523 417.093 136.252C414.262 130.54 411.28 124.703 407.372 119.642C399.756 109.846 373.951 79.3314 362.602 75.2728C376.156 82.6635 396.324 108.468 405.418 121.17C415.189 135.025 434.279 183.427 439.39 221.583C439.543 222.761 439.718 223.963 439.866 225.141C437.436 225.341 434.955 225.391 432.525 225.717C431.924 225.792 431.345 225.867 430.772 225.992C429.719 226.193 428.692 226.443 427.69 226.794C422.855 228.498 419.049 232.231 413.811 232.807C411.032 233.133 408.149 233.057 405.295 232.932C405.295 232.707 405.27 232.481 405.242 232.256C405.27 232.231 405.318 232.231 405.343 232.206C405.318 232.206 405.27 232.206 405.242 232.231C404.543 220.857 403.263 210.184 400.357 198.71C398.907 193.023 393.668 179.068 387.58 168.02C386.578 166.216 385.576 164.512 384.549 162.909C385.3 164.587 386.027 166.291 386.678 168.045C392.743 183.803 394.873 203.269 397.654 233.884C390.664 233.934 382.096 231.805 375.156 233.559C375.732 211.211 376.158 191.67 367.365 167.744C367.139 167.067 366.891 166.416 366.638 165.74C366.638 166.291 366.638 166.817 366.638 167.368C366.683 194.233 365.523 213.964 363.278 235.763C363.273 235.763 358.599 236.284 358.599 236.284C357.895 220.699 356.479 200.138 354.34 188.613C351.033 170.851 346.996 157.172 342.765 145.923C342.038 143.918 341.312 142.039 340.56 140.211C340.61 141.388 340.686 142.566 340.761 143.743C340.811 144.495 340.858 145.221 340.911 145.973C344.343 194.15 346.047 220.406 346.748 235.262C345.671 235.212 344.469 235.237 343.116 235.387C338.28 235.888 333.57 237.166 328.71 237.617C328.46 237.642 328.209 237.667 327.934 237.642C326.328 229.149 325.902 221.733 325.629 213.416C325.601 213.391 325.601 213.341 325.629 213.316C325.601 212.84 325.576 212.389 325.576 211.913C325.376 212.89 325.2 213.892 325.05 214.869C324.148 220.406 323.772 226.043 323.872 231.73C323.897 232.707 323.973 234.786 324.073 237.392C319.135 236.715 313.498 234.886 308.715 235.287C307.688 228.247 307.36 222.385 307.21 220.781C305.957 207.729 300.971 176.287 300.52 148.152C300.495 146.073 300.495 144.019 300.52 141.989C300.445 142.19 300.37 142.415 300.295 142.641C299.694 144.47 299.067 146.449 298.466 148.603C292.378 169.823 286.39 205.8 288.946 232.206C284.987 232.256 283.459 230.352 270.256 233.709C268.603 222.585 266.824 209.357 265.671 191.344C265.546 189.64 265.446 187.862 265.371 186.058C265.045 187.786 264.694 189.54 264.369 191.369C262.239 203.194 260.435 216.848 261.563 231.554C256.627 231.329 253.12 230.602 250.189 230.051C249.963 230.001 249.713 229.951 249.487 229.901C247.207 229.475 245.228 229.174 243.099 229.35C243.199 206.326 244.351 170.625 246.33 160.504C246.456 159.902 246.581 159.301 246.706 158.7C246.806 158.224 246.907 157.748 247.032 157.272C246.431 158.199 245.88 159.101 245.353 160.053C245.353 160.053 245.353 160.053 245.353 160.078C238.163 172.78 235.332 187.862 233.629 202.317C232.977 207.704 232.2 219.829 232.025 231.529C230.372 231.98 228.718 232.381 227.065 232.431C221.127 232.882 214.062 225.842 203.189 227.521C203.84 220.982 204.918 212.764 206.671 202.192C206.997 200.263 207.348 198.334 207.749 196.43C208.049 195.027 208.35 193.624 208.676 192.221C212.509 175.911 218.822 160.428 226.939 145.722C214.814 165.614 208.2 183.953 204.742 199.837C199.481 210.785 195.498 222.761 194.02 233.859C191.614 232.406 188.884 231.178 185.802 230.753C185.226 230.627 184.65 230.577 184.048 230.577C182.37 230.452 180.591 230.602 178.687 231.078C181.343 218.527 185.727 204.221 190.512 190.592C190.637 190.242 190.763 189.916 190.863 189.565C196.65 173.256 202.913 158.048 207.448 148.253C217.595 126.306 230.948 113.379 251.642 90.8809C232 110.498 215.841 125.003 205.769 144.745C199.907 156.245 193.844 167.919 189.886 180.245C186.579 190.617 179.89 212.313 176.908 231.579C176.858 231.78 176.833 231.98 176.808 232.156C177.409 231.955 177.986 231.83 178.562 231.705C179.774 231.452 180.914 231.341 182.029 231.289C177.755 284.083 184.6 329.985 201.999 403.707C201.999 403.707 205.316 420.771 207.015 433.788C212.546 481.767 211.244 506.625 210.76 593.003C210.783 606.707 209.605 623.037 208.971 637.695C194.132 636.961 179.356 635.616 164.582 634.186C166.862 627.196 169.417 620.181 171.422 613.943C183.372 576.889 191.339 491.308 174.503 397.406C185.101 469.587 182.57 544.32 172.624 601.015C170.946 610.586 166.762 622.561 163.505 634.085C147.22 632.507 130.961 630.901 114.626 630.052C106.634 629.626 99.1934 629.451 91.8779 629.325C132.89 530.591 138.126 484.518 132.639 317.263C130.936 265.003 129.132 215.698 153.609 152.89C194.12 48.9445 268.928 27.8999 318.559 41.7793C319.032 41.8795 319.511 42.0298 319.987 42.1551C320.663 42.0799 321.34 41.9797 322.016 41.9046C345.14 39.1487 364.406 42.8065 388.657 59.7674C447.833 101.155 476.869 180.498 481.028 252.601C485.162 324.203 470.681 414.244 483.483 505.262C487.943 536.929 496.11 567.767 505.655 598.259C506.758 602.042 515.251 621.659 523.092 639.67C514.224 640.574 499.993 641.025 459.107 640.248Z" fill="black"/>
</g>
<defs>
<linearGradient id="paint0_linear" x1="300" y1="-75" x2="300" y2="675" gradientUnits="userSpaceOnUse">
<stop stop-color="#151371"/>
<stop offset="0.453125" stop-color="#FF00B8"/>
<stop offset="0.96875" stop-color="#FFC700"/>
</linearGradient>
<linearGradient id="paint1_linear" x1="439" y1="245" x2="439" y2="644" gradientUnits="userSpaceOnUse">
<stop stop-color="#FF00B8"/>
<stop offset="1" stop-color="#F0DB0A" stop-opacity="0"/>
</linearGradient>
<linearGradient id="paint2_linear" x1="194" y1="161" x2="194" y2="560" gradientUnits="userSpaceOnUse">
<stop stop-color="#FF00B8"/>
<stop offset="1" stop-color="#F0DB0A" stop-opacity="0"/>
</linearGradient>
<linearGradient id="paint3_linear" x1="305.383" y1="473.603" x2="305.383" y2="386.12" gradientUnits="userSpaceOnUse">
<stop stop-color="#683915" stop-opacity="0.8"/>
<stop offset="0.7" stop-color="#492000"/>
</linearGradient>
<linearGradient id="paint4_linear" x1="305.433" y1="397.767" x2="305.433" y2="390.251" gradientUnits="userSpaceOnUse">
<stop offset="0.1" stop-color="#6F401C"/>
<stop offset="1" stop-color="#683915"/>
</linearGradient>
<radialGradient id="paint5_radial" cx="0" cy="0" r="1" gradientUnits="userSpaceOnUse" gradientTransform="translate(237.789 264.569) rotate(180) scale(35.0744)">
<stop stop-color="white"/>
<stop offset="0.544" stop-color="#FDFEFE"/>
<stop offset="0.74" stop-color="#F6F8F9"/>
<stop offset="0.879" stop-color="#EAEFF2"/>
<stop offset="0.992" stop-color="#D9E3E8"/>
<stop offset="1" stop-color="#D8E2E7"/>
</radialGradient>
<radialGradient id="paint6_radial" cx="0" cy="0" r="1" gradientUnits="userSpaceOnUse" gradientTransform="translate(240.034 263.816) rotate(-14.4847) scale(21.0266 21.0312)">
<stop stop-color="white" stop-opacity="0.8"/>
<stop offset="1" stop-color="white" stop-opacity="0"/>
</radialGradient>
<radialGradient id="paint7_radial" cx="0" cy="0" r="1" gradientUnits="userSpaceOnUse" gradientTransform="translate(240.03 263.8) rotate(0.512025) scale(21.016 21.0164)">
<stop stop-color="white" stop-opacity="0.8"/>
<stop offset="1" stop-color="white" stop-opacity="0"/>
</radialGradient>
<linearGradient id="paint8_linear" x1="228.477" y1="278.882" x2="231.802" y2="274.921" gradientUnits="userSpaceOnUse">
<stop stop-color="white"/>
<stop offset="1" stop-color="white" stop-opacity="0"/>
</linearGradient>
<linearGradient id="paint9_linear" x1="245.305" y1="258.722" x2="240.295" y2="263.732" gradientUnits="userSpaceOnUse">
<stop stop-color="white"/>
<stop offset="1" stop-color="white" stop-opacity="0"/>
</linearGradient>
<linearGradient id="paint10_linear" x1="252.821" y1="248.701" x2="242.8" y2="258.722" gradientUnits="userSpaceOnUse">
<stop stop-color="white"/>
<stop offset="1" stop-color="white" stop-opacity="0"/>
</linearGradient>
<radialGradient id="paint11_radial" cx="0" cy="0" r="1" gradientUnits="userSpaceOnUse" gradientTransform="translate(242.409 262.337) rotate(1.19182) scale(46.8626 29.4404)">
<stop stop-color="#683915"/>
<stop offset="0.7" stop-color="#683915" stop-opacity="0.3"/>
<stop offset="1" stop-color="#774824" stop-opacity="0"/>
</radialGradient>
<radialGradient id="paint12_radial" cx="0" cy="0" r="1" gradientUnits="userSpaceOnUse" gradientTransform="translate(230.138 332.714) rotate(-3.00026) scale(76.4042)">
<stop offset="0.95" stop-opacity="0"/>
<stop offset="1" stop-opacity="0.3"/>
</radialGradient>
<radialGradient id="paint13_radial" cx="0" cy="0" r="1" gradientUnits="userSpaceOnUse" gradientTransform="translate(373.077 264.569) scale(35.0744)">
<stop stop-color="white"/>
<stop offset="0.544" stop-color="#FDFEFE"/>
<stop offset="0.74" stop-color="#F6F8F9"/>
<stop offset="0.879" stop-color="#EAEFF2"/>
<stop offset="0.992" stop-color="#D9E3E8"/>
<stop offset="1" stop-color="#D8E2E7"/>
</radialGradient>
<radialGradient id="paint14_radial" cx="0" cy="0" r="1" gradientUnits="userSpaceOnUse" gradientTransform="translate(370.31 263.819) rotate(-14.4847) scale(21.0266 21.0312)">
<stop stop-color="white" stop-opacity="0.8"/>
<stop offset="1" stop-color="white" stop-opacity="0"/>
</radialGradient>
<radialGradient id="paint15_radial" cx="0" cy="0" r="1" gradientUnits="userSpaceOnUse" gradientTransform="translate(370.309 263.8) rotate(0.512025) scale(21.016 21.0164)">
<stop stop-color="white" stop-opacity="0.8"/>
<stop offset="1" stop-color="white" stop-opacity="0"/>
</radialGradient>
<linearGradient id="paint16_linear" x1="358.756" y1="278.882" x2="362.081" y2="274.924" gradientUnits="userSpaceOnUse">
<stop stop-color="white"/>
<stop offset="1" stop-color="white" stop-opacity="0"/>
</linearGradient>
<linearGradient id="paint17_linear" x1="375.582" y1="258.722" x2="370.572" y2="263.732" gradientUnits="userSpaceOnUse">
<stop stop-color="white"/>
<stop offset="1" stop-color="white" stop-opacity="0"/>
</linearGradient>
<linearGradient id="paint18_linear" x1="383.098" y1="248.701" x2="373.077" y2="258.722" gradientUnits="userSpaceOnUse">
<stop stop-color="white"/>
<stop offset="1" stop-color="white" stop-opacity="0"/>
</linearGradient>
<radialGradient id="paint19_radial" cx="0" cy="0" r="1" gradientUnits="userSpaceOnUse" gradientTransform="translate(368.457 262.337) rotate(178.808) scale(46.8626 29.4404)">
<stop stop-color="#683915"/>
<stop offset="0.7" stop-color="#683915" stop-opacity="0.3"/>
<stop offset="1" stop-color="#774824" stop-opacity="0"/>
</radialGradient>
<radialGradient id="paint20_radial" cx="0" cy="0" r="1" gradientUnits="userSpaceOnUse" gradientTransform="translate(380.728 332.714) rotate(-177) scale(76.4068)">
<stop offset="0.95" stop-opacity="0"/>
<stop offset="1" stop-opacity="0.3"/>
</radialGradient>
<radialGradient id="paint21_radial" cx="0" cy="0" r="1" gradientUnits="userSpaceOnUse" gradientTransform="translate(305.433 327.618) scale(100.213)">
<stop stop-color="#865936" stop-opacity="0.5"/>
<stop offset="0.9" stop-color="#774824" stop-opacity="0"/>
</radialGradient>
<radialGradient id="paint22_radial" cx="0" cy="0" r="1" gradientUnits="userSpaceOnUse" gradientTransform="translate(305.433 187.32) scale(90.1913)">
<stop stop-color="#865936" stop-opacity="0.5"/>
<stop offset="0.9" stop-color="#774824" stop-opacity="0"/>
</radialGradient>
<clipPath id="clip0">
<rect width="600" height="600" fill="white"/>
</clipPath>
</defs>
</svg>
