<svg width="73" height="68" viewBox="0 0 73 68" fill="none" xmlns="http://www.w3.org/2000/svg">
<path d="M13.87 43.8522C13.87 43.8522 6.11793 36.6145 4.59207 33.5849C-0.1811 24.143 5.62344 8.98256 15.9381 6.45892" stroke="url(#paint0_linear_345_3018)" stroke-width="4" stroke-linecap="round" stroke-linejoin="round"/>
<path d="M39.5837 42.658L53.5925 51.3866" stroke="url(#paint1_linear_345_3018)" stroke-width="4" stroke-linecap="round" stroke-linejoin="round"/>
<path d="M34.3243 48.6243L48.4525 56.7024" stroke="url(#paint2_linear_345_3018)" stroke-width="4" stroke-linecap="round" stroke-linejoin="round"/>
<path d="M60.7449 46.0533L56.0441 41.4584C55.4849 40.9117 54.8634 40.4325 54.1925 40.0306L46.2048 35.2463" stroke="url(#paint3_linear_345_3018)" stroke-width="4" stroke-linecap="round" stroke-linejoin="round"/>
<path d="M38.2586 59.192C41.5599 61.5995 43.9939 62.2551 45.693 62.0039C47.058 61.8022 53.2441 56.404 53.7184 55.1083V55.1083C54.1059 54.0501 55.5448 52.2072 56.6648 52.0821C58.0826 51.9237 59.2558 51.0658 59.9853 49.8446C60.9771 48.1844 63.005 46.4488 64.3961 45.1054C65.0498 44.4742 65.5051 43.5959 65.7084 42.5677C66.0895 40.6402 66.6579 38.6167 67.7228 36.9654C71.7181 30.7701 70.8576 19.0399 67.4528 11.3932C66.3877 9.00109 64.0143 7.59016 61.4489 7.06522C54.6183 5.66749 51.8957 4.60518 42.6634 2.93217L29.1601 2.2255C28.3623 2.18374 27.571 1.98301 26.7722 2.00096C26.0981 2.01611 25.4306 2.2109 24.8251 2.578C23.863 3.16132 23.1278 4.13706 22.7653 5.3116C21.948 8.81238 20.9427 11.4914 18.8539 15.7269C18.4729 16.793 18.4725 17.9876 18.8529 19.054C19.1225 19.8098 19.568 20.4585 20.1337 20.9349C20.5943 21.3228 21.1765 21.555 21.7776 21.5904C23.2764 21.6785 24.1922 20.7006 25.7355 19.3346V19.3346C28.4311 16.3818 32.5748 15.054 36.1217 16.8994L44.6946 21.3597L58.5186 30.2658C61.2508 32.3768 63.9656 37.531 65.5936 39.3671" stroke="url(#paint4_linear_345_3018)" stroke-width="4" stroke-linecap="round" stroke-linejoin="round"/>
<path d="M31.7582 56.5319C31.7582 56.5323 31.7586 56.5324 31.7588 56.5321C32.964 54.6967 34.6559 54.4036 36.2619 55.4141C37.7888 56.4236 38.9126 58.3506 37.8682 60.4653L35.9402 64.3193C34.7349 66.1567 32.4864 66.4315 30.9605 65.146C29.6383 64.0135 29.2415 62.0713 29.768 60.4465C29.783 60.4001 29.8022 60.3552 29.8245 60.3118L31.7576 56.5318C31.7577 56.5315 31.7582 56.5316 31.7582 56.5319V56.5319Z" stroke="url(#paint5_linear_345_3018)" stroke-width="4" stroke-linecap="round" stroke-linejoin="round"/>
<path d="M25.597 52.5891C25.597 52.5895 25.5974 52.5896 25.5976 52.5893C26.8028 50.754 28.4946 50.4609 30.1006 51.4714C31.6276 52.4809 32.7513 54.4078 31.7069 56.5224L29.7789 60.3763C28.5737 62.2137 26.3251 62.4885 24.7992 61.203C23.477 60.0705 23.0802 58.1284 23.6067 56.5037C23.6217 56.4573 23.641 56.4124 23.6632 56.3689L25.5963 52.589C25.5965 52.5887 25.597 52.5888 25.597 52.5891V52.5891Z" stroke="url(#paint6_linear_345_3018)" stroke-width="4" stroke-linecap="round" stroke-linejoin="round"/>
<path d="M19.4458 48.6615C19.4458 48.6618 19.4462 48.6619 19.4464 48.6617C20.6516 46.8264 22.3434 46.5332 23.9494 47.5438C25.4764 48.5532 26.6001 50.4801 25.5557 52.5947L23.6277 56.4485C22.4225 58.2858 20.1739 58.5606 18.6481 57.2752C17.3259 56.1427 16.9291 54.2006 17.4556 52.5759C17.4706 52.5295 17.4899 52.4846 17.5121 52.4412L19.4452 48.6613C19.4453 48.661 19.4458 48.6611 19.4458 48.6615V48.6615Z" stroke="url(#paint7_linear_345_3018)" stroke-width="4" stroke-linecap="round" stroke-linejoin="round"/>
<path d="M13.3052 44.7213C13.3052 44.7216 13.3056 44.7217 13.3058 44.7215C14.511 42.8862 16.2029 42.5931 17.8089 43.6036C19.3358 44.613 20.4595 46.5399 19.4151 48.6545L17.4872 52.5083C16.2819 54.3457 14.0333 54.6204 12.5075 53.335C11.1853 52.2025 10.7885 50.2604 11.3149 48.6357C11.33 48.5893 11.3492 48.5444 11.3715 48.501L13.3046 44.7212C13.3047 44.7208 13.3052 44.721 13.3052 44.7213V44.7213Z" stroke="url(#paint8_linear_345_3018)" stroke-width="4" stroke-linecap="round" stroke-linejoin="round"/>
<defs>
<linearGradient id="paint0_linear_345_3018" x1="9.41866" y1="6.45892" x2="9.41866" y2="43.8522" gradientUnits="userSpaceOnUse">
<stop stop-color="#8040D2"/>
<stop offset="1" stop-color="#A259FF"/>
</linearGradient>
<linearGradient id="paint1_linear_345_3018" x1="46.5881" y1="42.658" x2="46.5881" y2="51.3866" gradientUnits="userSpaceOnUse">
<stop stop-color="#8040D2"/>
<stop offset="1" stop-color="#A259FF"/>
</linearGradient>
<linearGradient id="paint2_linear_345_3018" x1="41.3884" y1="48.6243" x2="41.3884" y2="56.7024" gradientUnits="userSpaceOnUse">
<stop stop-color="#8040D2"/>
<stop offset="1" stop-color="#A259FF"/>
</linearGradient>
<linearGradient id="paint3_linear_345_3018" x1="53.4749" y1="35.2463" x2="53.4749" y2="46.0533" gradientUnits="userSpaceOnUse">
<stop stop-color="#8040D2"/>
<stop offset="1" stop-color="#A259FF"/>
</linearGradient>
<linearGradient id="paint4_linear_345_3018" x1="44.4734" y1="2" x2="44.4734" y2="62.0541" gradientUnits="userSpaceOnUse">
<stop stop-color="#8040D2"/>
<stop offset="1" stop-color="#A259FF"/>
</linearGradient>
<linearGradient id="paint5_linear_345_3018" x1="33.9088" y1="54.8398" x2="33.9088" y2="65.9401" gradientUnits="userSpaceOnUse">
<stop stop-color="#8040D2"/>
<stop offset="1" stop-color="#A259FF"/>
</linearGradient>
<linearGradient id="paint6_linear_345_3018" x1="27.7475" y1="50.8971" x2="27.7475" y2="61.9971" gradientUnits="userSpaceOnUse">
<stop stop-color="#8040D2"/>
<stop offset="1" stop-color="#A259FF"/>
</linearGradient>
<linearGradient id="paint7_linear_345_3018" x1="21.5964" y1="46.9695" x2="21.5964" y2="58.0693" gradientUnits="userSpaceOnUse">
<stop stop-color="#8040D2"/>
<stop offset="1" stop-color="#A259FF"/>
</linearGradient>
<linearGradient id="paint8_linear_345_3018" x1="15.4558" y1="43.0293" x2="15.4558" y2="54.1291" gradientUnits="userSpaceOnUse">
<stop stop-color="#8040D2"/>
<stop offset="1" stop-color="#A259FF"/>
</linearGradient>
</defs>
</svg>
