<svg width="35" height="36" viewBox="0 0 35 36" fill="none" xmlns="http://www.w3.org/2000/svg">
<path d="M17.8996 29.9719L17.4493 29.0791H17.4493L17.8996 29.9719ZM17.101 29.9719L17.5513 29.0791H17.5513L17.101 29.9719ZM26.7087 17.0401C26.7087 20.435 24.9265 23.1888 22.8114 25.2614C20.6989 27.3314 18.3484 28.6256 17.4493 29.0791L18.3499 30.8648C19.3366 30.3672 21.8906 28.9638 24.2112 26.6899C26.5292 24.4184 28.7087 21.1818 28.7087 17.0401H26.7087ZM17.5003 7.83179C22.5859 7.83179 26.7087 11.9545 26.7087 17.0401H28.7087C28.7087 10.8499 23.6905 5.83179 17.5003 5.83179V7.83179ZM8.29199 17.0401C8.29199 11.9545 12.4147 7.83179 17.5003 7.83179V5.83179C11.3101 5.83179 6.29199 10.8499 6.29199 17.0401H8.29199ZM17.5513 29.0791C16.6522 28.6256 14.3017 27.3314 12.1893 25.2614C10.0742 23.1888 8.29199 20.4351 8.29199 17.0401H6.29199C6.29199 21.1818 8.47144 24.4184 10.7895 26.6899C13.1101 28.9638 15.6641 30.3672 16.6508 30.8648L17.5513 29.0791ZM17.4493 29.0791C17.4598 29.0738 17.4778 29.0681 17.5003 29.0681C17.5229 29.0681 17.5408 29.0738 17.5513 29.0791L16.6508 30.8648C17.1883 31.1359 17.8124 31.1359 18.3499 30.8648L17.4493 29.0791ZM20.8753 17.0401C20.8753 18.9041 19.3643 20.4151 17.5003 20.4151V22.4151C20.4689 22.4151 22.8753 20.0087 22.8753 17.0401H20.8753ZM17.5003 13.6651C19.3643 13.6651 20.8753 15.1762 20.8753 17.0401H22.8753C22.8753 14.0716 20.4689 11.6651 17.5003 11.6651V13.6651ZM14.1253 17.0401C14.1253 15.1762 15.6364 13.6651 17.5003 13.6651V11.6651C14.5318 11.6651 12.1253 14.0716 12.1253 17.0401H14.1253ZM17.5003 20.4151C15.6364 20.4151 14.1253 18.9041 14.1253 17.0401H12.1253C12.1253 20.0087 14.5318 22.4151 17.5003 22.4151V20.4151Z" fill="#8B2CF5"/>
</svg>
