<svg width="4888" height="897" viewBox="0 0 4888 897" fill="none" xmlns="http://www.w3.org/2000/svg">
<circle cx="4620.7" cy="267" r="267" fill="url(#paint0_radial)"/>
<circle cx="2807.23" cy="658.533" r="168" transform="rotate(136.232 2807.23 658.533)" fill="url(#paint1_radial)"/>
<circle cx="167.242" cy="253.171" r="146.428" transform="rotate(171.136 167.242 253.171)" fill="url(#paint2_radial)"/>
<g filter="url(#filter0_d)">
<path d="M302.398 554C315.398 554 327.798 551.5 339.598 546.5C351.398 541.3 361.298 534.2 369.298 525.2L384.298 540.8C373.898 551.6 361.498 560.1 347.098 566.3C332.698 572.3 317.598 575.3 301.798 575.3C286.598 575.3 272.298 572.5 258.898 566.9C245.698 561.3 234.198 553.7 224.398 544.1C214.598 534.3 206.898 522.8 201.298 509.6C195.698 496.2 192.898 482 192.898 467C192.898 452 195.698 437.9 201.298 424.7C206.898 411.3 214.598 399.8 224.398 390.2C234.198 380.4 245.698 372.7 258.898 367.1C272.298 361.5 286.598 358.7 301.798 358.7C317.998 358.7 333.298 361.8 347.698 368C362.298 374 374.698 382.4 384.898 393.2L369.598 409.4C361.398 400.2 351.198 393 338.998 387.8C326.998 382.6 314.598 380 301.798 380C289.798 380 278.498 382.3 267.898 386.9C257.498 391.3 248.498 397.4 240.898 405.2C233.298 412.8 227.298 422 222.898 432.8C218.498 443.4 216.298 454.8 216.298 467C216.298 479.2 218.498 490.7 222.898 501.5C227.298 512.1 233.298 521.3 240.898 529.1C248.698 536.7 257.798 542.8 268.198 547.4C278.798 551.8 290.198 554 302.398 554ZM619.843 467C619.843 482 617.043 496.2 611.443 509.6C605.843 522.8 598.143 534.3 588.343 544.1C578.743 553.7 567.343 561.3 554.143 566.9C540.943 572.5 526.843 575.3 511.843 575.3C496.843 575.3 482.643 572.5 469.243 566.9C456.043 561.3 444.543 553.7 434.743 544.1C425.143 534.3 417.543 522.8 411.943 509.6C406.343 496.2 403.543 482 403.543 467C403.543 452 406.343 437.9 411.943 424.7C417.543 411.3 425.143 399.8 434.743 390.2C444.543 380.4 456.043 372.7 469.243 367.1C482.643 361.5 496.843 358.7 511.843 358.7C526.843 358.7 540.943 361.5 554.143 367.1C567.343 372.7 578.743 380.4 588.343 390.2C598.143 399.8 605.843 411.3 611.443 424.7C617.043 437.9 619.843 452 619.843 467ZM596.443 467C596.443 454.8 594.243 443.4 589.843 432.8C585.443 422 579.443 412.8 571.843 405.2C564.443 397.4 555.543 391.3 545.143 386.9C534.743 382.3 523.643 380 511.843 380C499.843 380 488.643 382.3 478.243 386.9C467.843 391.3 458.843 397.4 451.243 405.2C443.843 412.8 437.943 422 433.543 432.8C429.143 443.4 426.943 454.8 426.943 467C426.943 479.2 429.143 490.6 433.543 501.2C437.943 511.8 443.843 521 451.243 528.8C458.843 536.6 467.843 542.8 478.243 547.4C488.643 551.8 499.843 554 511.843 554C523.643 554 534.743 551.8 545.143 547.4C555.543 542.8 564.443 536.6 571.843 528.8C579.443 521 585.443 511.8 589.843 501.2C594.243 490.6 596.443 479.2 596.443 467ZM656.021 572V362H725.321C741.121 362 755.821 364.7 769.421 370.1C783.021 375.3 794.721 382.5 804.521 391.7C814.321 400.9 821.921 412 827.321 425C832.921 437.8 835.721 451.8 835.721 467C835.721 482.2 832.921 496.3 827.321 509.3C821.921 522.1 814.321 533.1 804.521 542.3C794.921 551.5 783.321 558.8 769.721 564.2C756.121 569.4 741.321 572 725.321 572H656.021ZM726.521 383H679.121V551H726.521C738.521 551 749.821 548.9 760.421 544.7C771.021 540.3 780.121 534.4 787.721 527C795.321 519.4 801.321 510.5 805.721 500.3C810.121 489.9 812.321 478.8 812.321 467C812.321 455.2 810.121 444.2 805.721 434C801.321 423.6 795.321 414.7 787.721 407.3C780.121 399.7 771.021 393.8 760.421 389.6C749.821 385.2 738.521 383 726.521 383ZM871.939 572V362H1022.24V382.4H895.039V455.9H978.139V476H895.039V551.6H1023.44V572H871.939ZM1056.5 549.8H1080.5L1056.5 613.1H1039.1L1056.5 549.8ZM1280.33 554C1293.33 554 1305.73 551.5 1317.53 546.5C1329.33 541.3 1339.23 534.2 1347.23 525.2L1362.23 540.8C1351.83 551.6 1339.43 560.1 1325.03 566.3C1310.63 572.3 1295.53 575.3 1279.73 575.3C1264.53 575.3 1250.23 572.5 1236.83 566.9C1223.63 561.3 1212.13 553.7 1202.33 544.1C1192.53 534.3 1184.83 522.8 1179.23 509.6C1173.63 496.2 1170.83 482 1170.83 467C1170.83 452 1173.63 437.9 1179.23 424.7C1184.83 411.3 1192.53 399.8 1202.33 390.2C1212.13 380.4 1223.63 372.7 1236.83 367.1C1250.23 361.5 1264.53 358.7 1279.73 358.7C1295.93 358.7 1311.23 361.8 1325.63 368C1340.23 374 1352.63 382.4 1362.83 393.2L1347.53 409.4C1339.33 400.2 1329.13 393 1316.93 387.8C1304.93 382.6 1292.53 380 1279.73 380C1267.73 380 1256.43 382.3 1245.83 386.9C1235.43 391.3 1226.43 397.4 1218.83 405.2C1211.23 412.8 1205.23 422 1200.83 432.8C1196.43 443.4 1194.23 454.8 1194.23 467C1194.23 479.2 1196.43 490.7 1200.83 501.5C1205.23 512.1 1211.23 521.3 1218.83 529.1C1226.63 536.7 1235.73 542.8 1246.13 547.4C1256.73 551.8 1268.13 554 1280.33 554ZM1566.43 483.2C1566.43 511.2 1558.53 533.6 1542.73 550.4C1527.13 567 1506.13 575.3 1479.73 575.3C1453.13 575.3 1432.03 567 1416.43 550.4C1400.83 533.8 1393.03 511.4 1393.03 483.2V362H1416.13V483.2C1416.13 504.6 1421.93 521.8 1433.53 534.8C1445.13 547.6 1460.53 554 1479.73 554C1498.93 554 1514.33 547.6 1525.93 534.8C1537.53 521.8 1543.33 504.6 1543.33 483.2V362H1566.43V483.2ZM1608.46 572V362H1631.56V551.3H1756.66V572H1608.46ZM1722.3 382.7V362H1897.2V382.7H1821.3V572H1798.2V382.7H1722.3ZM2094.65 483.2C2094.65 511.2 2086.75 533.6 2070.95 550.4C2055.35 567 2034.35 575.3 2007.95 575.3C1981.35 575.3 1960.25 567 1944.65 550.4C1929.05 533.8 1921.25 511.4 1921.25 483.2V362H1944.35V483.2C1944.35 504.6 1950.15 521.8 1961.75 534.8C1973.35 547.6 1988.75 554 2007.95 554C2027.15 554 2042.55 547.6 2054.15 534.8C2065.75 521.8 2071.55 504.6 2071.55 483.2V362H2094.65V483.2ZM2136.68 572V362H2226.68C2247.08 362 2263.58 367.6 2276.18 378.8C2288.78 389.8 2295.08 404.3 2295.08 422.3C2295.08 436.1 2290.98 448 2282.78 458C2274.78 468 2263.98 474.9 2250.38 478.7L2297.48 572H2271.98L2226.98 481.7H2159.78V572H2136.68ZM2225.18 382.7H2159.78V462.2H2225.18C2239.18 462.2 2250.48 458.6 2259.08 451.4C2267.68 444 2271.98 434.3 2271.98 422.3C2271.98 410.3 2267.68 400.7 2259.08 393.5C2250.48 386.3 2239.18 382.7 2225.18 382.7ZM2330.04 572V362H2480.34V382.4H2353.14V455.9H2436.24V476H2353.14V551.6H2481.54V572H2330.04ZM2514.61 549.8H2538.61L2514.61 613.1H2497.21L2514.61 549.8ZM2738.43 554C2751.43 554 2763.83 551.5 2775.63 546.5C2787.43 541.3 2797.33 534.2 2805.33 525.2L2820.33 540.8C2809.93 551.6 2797.53 560.1 2783.13 566.3C2768.73 572.3 2753.63 575.3 2737.83 575.3C2722.63 575.3 2708.33 572.5 2694.93 566.9C2681.73 561.3 2670.23 553.7 2660.43 544.1C2650.63 534.3 2642.93 522.8 2637.33 509.6C2631.73 496.2 2628.93 482 2628.93 467C2628.93 452 2631.73 437.9 2637.33 424.7C2642.93 411.3 2650.63 399.8 2660.43 390.2C2670.23 380.4 2681.73 372.7 2694.93 367.1C2708.33 361.5 2722.63 358.7 2737.83 358.7C2754.03 358.7 2769.33 361.8 2783.73 368C2798.33 374 2810.73 382.4 2820.93 393.2L2805.63 409.4C2797.43 400.2 2787.23 393 2775.03 387.8C2763.03 382.6 2750.63 380 2737.83 380C2725.83 380 2714.53 382.3 2703.93 386.9C2693.53 391.3 2684.53 397.4 2676.93 405.2C2669.33 412.8 2663.33 422 2658.93 432.8C2654.53 443.4 2652.33 454.8 2652.33 467C2652.33 479.2 2654.53 490.7 2658.93 501.5C2663.33 512.1 2669.33 521.3 2676.93 529.1C2684.73 536.7 2693.83 542.8 2704.23 547.4C2714.83 551.8 2726.23 554 2738.43 554ZM3055.88 467C3055.88 482 3053.08 496.2 3047.48 509.6C3041.88 522.8 3034.18 534.3 3024.38 544.1C3014.78 553.7 3003.38 561.3 2990.18 566.9C2976.98 572.5 2962.88 575.3 2947.88 575.3C2932.88 575.3 2918.68 572.5 2905.28 566.9C2892.08 561.3 2880.58 553.7 2870.78 544.1C2861.18 534.3 2853.58 522.8 2847.98 509.6C2842.38 496.2 2839.58 482 2839.58 467C2839.58 452 2842.38 437.9 2847.98 424.7C2853.58 411.3 2861.18 399.8 2870.78 390.2C2880.58 380.4 2892.08 372.7 2905.28 367.1C2918.68 361.5 2932.88 358.7 2947.88 358.7C2962.88 358.7 2976.98 361.5 2990.18 367.1C3003.38 372.7 3014.78 380.4 3024.38 390.2C3034.18 399.8 3041.88 411.3 3047.48 424.7C3053.08 437.9 3055.88 452 3055.88 467ZM3032.48 467C3032.48 454.8 3030.28 443.4 3025.88 432.8C3021.48 422 3015.48 412.8 3007.88 405.2C3000.48 397.4 2991.58 391.3 2981.18 386.9C2970.78 382.3 2959.68 380 2947.88 380C2935.88 380 2924.68 382.3 2914.28 386.9C2903.88 391.3 2894.88 397.4 2887.28 405.2C2879.88 412.8 2873.98 422 2869.58 432.8C2865.18 443.4 2862.98 454.8 2862.98 467C2862.98 479.2 2865.18 490.6 2869.58 501.2C2873.98 511.8 2879.88 521 2887.28 528.8C2894.88 536.6 2903.88 542.8 2914.28 547.4C2924.68 551.8 2935.88 554 2947.88 554C2959.68 554 2970.78 551.8 2981.18 547.4C2991.58 542.8 3000.48 536.6 3007.88 528.8C3015.48 521 3021.48 511.8 3025.88 501.2C3030.28 490.6 3032.48 479.2 3032.48 467ZM3195.86 557L3113.66 388.7V572H3092.06V362H3124.46L3196.16 511.1L3267.56 362H3299.96V572H3278.06V388.4L3195.86 557ZM3449.86 557L3367.66 388.7V572H3346.06V362H3378.46L3450.16 511.1L3521.56 362H3553.96V572H3532.06V388.4L3449.86 557ZM3769.26 483.2C3769.26 511.2 3761.36 533.6 3745.56 550.4C3729.96 567 3708.96 575.3 3682.56 575.3C3655.96 575.3 3634.86 567 3619.26 550.4C3603.66 533.8 3595.86 511.4 3595.86 483.2V362H3618.96V483.2C3618.96 504.6 3624.76 521.8 3636.36 534.8C3647.96 547.6 3663.36 554 3682.56 554C3701.76 554 3717.16 547.6 3728.76 534.8C3740.36 521.8 3746.16 504.6 3746.16 483.2V362H3769.26V483.2ZM3811.29 362H3834.39L3960.69 532.4V362H3982.59V572H3962.19L3833.19 397.1V572H3811.29V362ZM4028.68 572V362H4051.78V572H4028.68ZM4080.11 382.7V362H4255.01V382.7H4179.11V572H4156.01V382.7H4080.11ZM4347.4 572V486.5L4264 362H4291L4359.7 466.1L4428.1 362H4454.2L4370.5 487.4V572H4347.4ZM4459.2 543.2C4463.4 543.2 4467 544.7 4470 547.7C4473 550.7 4474.5 554.3 4474.5 558.5C4474.5 562.7 4473 566.3 4470 569.3C4467 572.3 4463.4 573.8 4459.2 573.8C4455 573.8 4451.4 572.3 4448.4 569.3C4445.4 566.3 4443.9 562.7 4443.9 558.5C4443.9 554.3 4445.4 550.7 4448.4 547.7C4451.4 544.7 4455 543.2 4459.2 543.2Z" fill="#34107A"/>
</g>
<defs>
<filter id="filter0_d" x="188.898" y="358.699" width="4289.6" height="262.4" filterUnits="userSpaceOnUse" color-interpolation-filters="sRGB">
<feFlood flood-opacity="0" result="BackgroundImageFix"/>
<feColorMatrix in="SourceAlpha" type="matrix" values="0 0 0 0 0 0 0 0 0 0 0 0 0 0 0 0 0 0 127 0"/>
<feOffset dy="4"/>
<feGaussianBlur stdDeviation="2"/>
<feColorMatrix type="matrix" values="0 0 0 0 0 0 0 0 0 0 0 0 0 0 0 0 0 0 0.25 0"/>
<feBlend mode="normal" in2="BackgroundImageFix" result="effect1_dropShadow"/>
<feBlend mode="normal" in="SourceGraphic" in2="effect1_dropShadow" result="shape"/>
</filter>
<radialGradient id="paint0_radial" cx="0" cy="0" r="1" gradientUnits="userSpaceOnUse" gradientTransform="translate(4353.7 350.437) rotate(-23.1247) scale(424.906)">
<stop offset="0.265625" stop-color="#FFCC33"/>
<stop offset="0.770833" stop-color="#FF00B8"/>
<stop offset="1" stop-color="#211275"/>
</radialGradient>
<radialGradient id="paint1_radial" cx="0" cy="0" r="1" gradientUnits="userSpaceOnUse" gradientTransform="translate(2639.23 711.033) rotate(-7.45084) scale(404.857)">
<stop offset="0.265625" stop-color="#FFCC33"/>
<stop offset="0.770833" stop-color="#FF00B8"/>
<stop offset="1" stop-color="#211275"/>
</radialGradient>
<radialGradient id="paint2_radial" cx="0" cy="0" r="1" gradientUnits="userSpaceOnUse" gradientTransform="translate(-209.422 251.28) rotate(1.98222) scale(467.367)">
<stop stop-color="#FFCC33"/>
<stop offset="0.770833" stop-color="#FF00B8"/>
<stop offset="1" stop-color="#211275"/>
</radialGradient>
</defs>
</svg>
