<svg width="458" height="448" viewBox="0 0 458 448" fill="none" xmlns="http://www.w3.org/2000/svg">
<circle cx="228.938" cy="224.171" r="108.7" fill="#151565"/>
<mask id="mask0" mask-type="alpha" maskUnits="userSpaceOnUse" x="120" y="115" width="218" height="218">
<circle cx="228.937" cy="224.171" r="108.7" fill="#C4C4C4"/>
</mask>
<g mask="url(#mask0)">
<path d="M165.613 312.468C165.456 310.505 165.346 309.154 165.193 307.264C166.745 307.498 168.558 307.66 170.319 308.061C172.863 308.639 173.866 308.042 174.123 305.383C174.252 304.046 174.663 302.451 174.128 301.386C172.439 298.016 174.753 296.569 176.811 295.008C179.961 292.616 180.438 291.417 178.954 287.751C178.6 286.882 177.756 286.156 177.002 285.526C175.622 284.375 174.171 283.306 172.696 282.275C170.649 280.837 168.625 279.343 166.458 278.106C164.678 277.094 162.707 276.426 160.406 275.423C159.141 272.143 156.153 269.455 154.239 269.532C152.45 267.975 151.099 266.801 149.743 265.621C151.428 262.127 149.047 259.281 147.944 256.35C146.918 253.623 144.88 251.523 142.321 249.766C140.589 248.577 139.424 246.338 138.422 244.361C136.828 241.22 135.682 237.849 134.103 234.703C133.682 233.862 132.112 233.657 131.52 232.841C130.174 230.974 129.11 228.906 127.831 226.758C125.798 227.297 127.21 225.33 126.938 223.774C125.564 224.562 124.452 225.197 123.139 225.942C121.741 223.803 121.12 221.048 121.497 218.073C121.827 215.471 122.28 212.888 122.657 210.291C122.772 209.508 123.015 208.654 122.834 207.928C121.87 204.113 123.492 200.757 124.514 197.271C125.85 192.721 126.996 188.114 128.404 183.583C129.034 181.559 130.098 179.668 131.029 177.572C133.205 179.358 132.527 181.416 131.979 183.287C131.377 185.34 130.375 187.269 129.659 189.293C129.358 190.143 129.339 191.093 129.196 192C129.439 192.067 129.683 192.129 129.926 192.196C130.895 189.441 131.988 186.72 132.799 183.917C133.711 180.795 135.549 178.422 138.47 177.257C140.804 176.321 142.231 175.113 142.99 172.616C143.753 170.119 149.509 166.816 151.905 166.997C154.168 163.292 154.722 163.039 162.373 162.414C160.64 163.278 159.418 163.884 158.196 164.495C158.311 164.734 158.43 164.973 158.545 165.211C161.365 164.285 164.835 164.934 166.907 161.721C166.539 161.573 166.391 161.454 166.272 161.478C165.294 161.669 164.32 161.884 163.346 162.094C163.532 161.019 163.556 159.878 163.952 158.89C164.301 158.021 165.069 157.315 165.852 156.278C164.936 156.064 164.143 155.877 163.351 155.691C163.298 155.519 163.241 155.352 163.189 155.18C164.587 154.832 166.009 154.111 167.375 154.216C169.99 154.421 172.572 155.099 174.906 155.529C173.384 156.866 171.398 158.618 169.016 160.714C171.255 160.728 171.47 163.158 173.341 163.206C173.956 163.22 174.801 163.321 175.15 162.977C176.233 161.912 176.085 159.11 174.858 157.711C176.052 156.302 177.183 154.755 178.529 153.423C180.094 151.877 179.23 150.015 179.293 148.353C179.35 146.744 179.068 145.465 180.653 144.218C181.789 143.326 182.237 141.559 183.259 139.702C181.708 140.323 180.619 140.757 179.536 141.191C179.359 141.039 179.188 140.891 179.011 140.738C179.493 139.95 179.927 139.119 180.481 138.384C180.806 137.954 181.593 137.754 181.712 137.319C181.975 136.403 181.937 135.395 182.023 134.426C181.164 134.526 180.094 134.335 179.479 134.779C177.197 136.417 175.064 138.26 172.878 140.036C172.63 140.237 172.453 140.523 172.19 140.695C168.768 142.886 165.341 145.063 161.461 147.532C162.301 146.267 162.745 144.997 163.633 144.376C166.401 142.442 167.308 139.353 168.95 136.704C169.666 135.548 170.849 134.493 172.066 133.872C175.154 132.287 178.381 130.969 182.142 129.279C181.817 130.315 181.703 130.678 181.512 131.289C184.142 132.378 184.548 128.821 186.786 128.726C188.862 128.64 190.891 127.37 192.91 126.63C192.27 124.352 193.005 123.751 197.263 122.729C193.926 125.302 193.926 125.302 195.186 126.739C193.177 130.831 188.81 130.382 185.493 131.676C185.283 133.309 185.092 134.813 184.824 136.918C185.97 136.131 186.609 135.691 187.278 135.233C187.397 135.62 187.502 135.963 187.769 136.823C189.373 134.956 190.762 133.338 192.609 131.184C192.208 132.387 192.017 132.956 191.712 133.872C193.969 133.433 195.688 132.994 196.055 130.478C196.165 129.714 196.971 129.041 197.496 128.353C198.198 127.432 198.952 126.553 199.644 125.627C200.236 124.839 200.766 124.008 201.353 123.154C200.823 122.356 200.164 121.354 199.262 119.993C200.513 119.664 201.482 119.411 202.737 119.081C202.675 120.337 202.637 121.158 202.57 122.629C203.859 122.051 204.794 121.631 205.1 121.497C206.847 121.235 208.011 121.12 209.147 120.876C212.67 120.127 216.178 119.334 219.652 118.566C216.903 116.494 213.28 119.334 210.254 117.119C212.86 116.751 215.457 116.293 218.072 116.03C231.666 114.675 245.087 115.763 258.208 119.54C261.936 120.614 265.849 121.669 268.775 124.629C269.315 125.173 270.083 125.574 270.818 125.837C273.959 126.959 275.204 129.041 274.255 132.445C273.548 132.201 272.847 131.963 272.298 131.772C273.491 133.285 274.727 134.851 276.145 136.641C273.772 138.088 272.407 136.68 270.622 135.348C271.682 135.142 272.388 135.004 273.095 134.865C273.185 134.636 273.271 134.412 273.362 134.183C272.116 133.543 270.937 132.641 269.615 132.311C266.479 131.528 263.282 131.003 260.103 130.397C258.275 130.048 255.798 132.965 256.07 134.736C256.447 137.195 257.134 139.63 254.652 141.822C251.903 144.252 253.321 148.878 256.9 149.843C257.549 150.019 258.599 149.599 259.139 149.103C260.299 148.038 261.172 148.119 262.136 149.265C263.205 150.535 264.241 151.853 265.453 152.975C265.969 153.452 267.353 153.877 267.558 153.643C268.188 152.922 268.713 151.886 268.775 150.941C268.856 149.685 268.57 148.367 268.222 147.14C268.031 146.481 267.491 145.78 266.909 145.398C264.981 144.132 263.42 142.905 264.752 140.198C265.062 139.573 264.422 138.48 264.146 137.286C265.983 137.033 267.167 137.539 266.957 139.535C266.689 142.094 268.274 143.488 269.964 144.796C271.042 145.632 272.259 146.224 273.577 144.915C273.897 144.596 274.722 144.782 275.51 144.72C274.441 145.918 273.715 146.735 272.985 147.556C273.987 148.148 274.99 148.735 275.992 149.327C275.93 149.489 275.863 149.656 275.801 149.819C275.157 149.781 274.517 149.747 273.362 149.68C273.844 150.778 274.154 151.604 274.56 152.383C275.424 154.015 274.832 155.118 273.042 155.147C272.727 155.152 272.279 155.013 272.121 155.171C270.193 157.133 267.692 156.116 265.539 156.498C265.539 155.744 265.811 154.798 265.453 154.283C265.162 153.863 264.122 153.958 263.253 153.796C262.881 153.084 262.413 152.192 261.945 151.299C260.103 152.311 260.103 152.311 262.356 157.62C259.969 158.169 258.466 159.31 257.659 161.984C257.058 163.98 254.81 165.541 253.13 167.112C252.719 167.494 251.65 167.169 250.748 167.169C250.843 167.57 250.958 168.052 251.072 168.549C249.655 168.773 248.261 168.993 246.868 169.212C246.844 169.475 246.82 169.742 246.796 170.005C247.364 170.258 247.918 170.568 248.509 170.745C251.316 171.595 253.473 174.66 253.292 177.548C253.177 179.363 252.399 180.322 250.442 180.203C247.913 180.045 245.374 179.926 242.844 179.983C241.908 180.002 240.987 180.566 240.057 180.881C240.524 184.142 241.484 187.126 239.737 190.167C239.336 190.864 240.572 192.363 240.72 193.538C240.954 195.443 242.271 194.741 243.345 195.027C244.624 195.366 245.755 196.25 246.61 196.708C248.743 196.316 250.705 195.906 252.676 195.605C255.02 195.247 257.306 191.676 256.805 189.341C256.361 187.279 257.506 185.813 259.225 184.887C260.723 184.085 261.539 183.111 261.277 181.296C261.014 179.458 262.399 179.301 263.601 179.644C265.491 180.189 266.895 179.587 268.059 178.236C269.673 176.364 270.813 177.496 272.221 178.589C274.245 180.155 276.445 181.492 278.579 182.915C280.087 183.917 281.724 184.772 283.084 185.942C283.686 186.462 284.168 187.766 283.929 188.429C283.691 189.093 282.512 189.503 281.672 189.828C281.013 190.086 280.235 190.048 279.514 190.138C279.467 190.411 279.419 190.687 279.366 190.96C280.808 191.533 282.244 192.105 284.029 192.812C283.672 189.761 287.471 187.46 283.92 184.404C285.151 184.404 285.805 184.404 287.137 184.404C284.607 182.16 281.7 181.693 279.538 180.141C277.409 178.613 274.555 177.276 274.326 173.886C274.803 173.81 275.147 173.657 275.238 173.748C277.691 176.302 281.013 177.243 284.115 178.604C285.92 179.396 287.366 180.508 287.881 182.595C288.058 183.316 288.616 183.999 289.137 184.572C290.659 186.247 292.229 187.875 293.824 189.48C294.272 189.933 294.859 190.248 295.513 190.721C295.685 189.083 295.814 187.818 295.971 186.348C294.926 185.35 293.642 184.123 292.525 183.058C293.122 182.514 293.513 182.146 293.919 181.793C294.377 181.392 294.988 180.594 295.294 180.695C295.995 180.929 296.807 181.473 297.122 182.113C297.943 183.76 298.353 185.698 300.052 186.691C301.785 187.703 303.493 189.804 305.727 187.431C305.861 187.288 306.243 187.197 306.395 187.283C308.395 188.41 309.483 187.374 310.171 185.206C312.91 188.902 313.502 192.745 313.655 196.694C313.674 197.152 313.202 198.035 312.958 198.035C309.703 198.035 307.593 201.764 304.038 200.723C302.534 200.284 300.997 199.893 299.451 199.692C298.353 199.554 296.821 199.358 296.196 199.945C295.489 200.604 295.561 202.113 295.337 203.263C295.165 204.142 295.236 205.12 294.84 205.87C294.711 206.118 293.423 205.899 292.735 205.674C290.64 204.992 288.33 204.91 286.783 202.781C286.278 202.084 284.569 202.227 283.395 202.065C282.297 201.912 281.147 202.012 280.092 201.731C278.335 201.263 277.18 200.633 278.063 198.188C278.498 196.985 277.476 195.013 276.646 193.681C275.982 192.616 274.78 192.97 273.5 193.523C271.763 194.278 269.725 194.669 267.825 194.655C263.888 194.622 260.389 195.376 257.225 197.935C254.791 199.902 251.617 199.725 249.02 198.627C246.6 197.601 246.004 198.833 245.708 200.389C245.388 202.07 244.381 202.776 243.092 203.473C240.104 205.087 239.202 207.87 239.121 211.002C239.049 213.762 236.94 215.471 235.078 216.121C231.451 217.391 230.115 220.37 228.349 223.091C226.077 226.596 224 230.234 221.948 233.638C225.618 238.923 223.304 243.659 221.404 248.31C220.946 249.436 220.445 250.148 221.337 251.241C221.714 251.704 221.667 252.525 221.786 253.184C221.9 253.791 221.776 254.578 222.115 254.984C223.609 256.751 225.256 258.388 226.812 260.102C227.862 261.258 229.38 262.313 229.766 263.674C230.683 266.891 233.012 268.357 235.675 269.699C236.725 270.229 237.732 270.883 238.649 271.623C241.011 273.518 243.488 273.81 246.457 273.122C249.407 272.439 252.538 272.573 255.559 272.139C257.082 271.919 258.552 271.27 260.031 270.778C263.091 269.766 266.102 268.572 269.214 267.756C271.109 267.254 272.761 267.842 273.648 269.995C273.873 270.539 275.405 271.079 276.044 270.84C282.903 268.309 282.975 271.618 281.729 276.416C281.414 277.639 280.994 278.861 280.426 279.978C279.61 281.577 280.011 282.79 281.409 283.659C285.294 286.07 285.208 289.756 285.753 293.824C286.445 298.985 281.972 300.646 280.569 304.246C279.743 306.352 279.099 308.104 279.834 310.348C280.178 311.398 279.777 312.697 279.696 313.881C279.61 315.18 279.428 316.478 279.419 317.777C279.405 319.687 278.35 320.928 276.822 321.706C268.131 326.151 258.924 329.164 249.354 330.926C227.003 335.041 205.353 332.601 184.543 323.372C177.627 320.331 171.069 316.621 165.613 312.468ZM231.494 121.32C224.502 118.871 217.28 119.926 209.858 122.032C211.133 124.056 207.839 128.282 204.47 129.69C204.656 130.086 204.842 130.478 205.052 130.922C200.565 131.719 199.024 134.708 197.143 138.575C196.528 139.84 197.625 143.01 198.799 143.665C199.1 143.832 199.673 143.899 199.912 143.727C202.312 141.994 204.642 140.165 207.047 138.437C207.944 137.792 208.937 137.21 209.973 136.852C210.999 136.498 212.164 136.556 213.223 136.269C216.483 135.391 219.7 134.335 222.979 133.533C226.864 132.578 227.041 132.435 226.186 128.816C229.642 128.057 230.42 127.346 230.749 124.844C230.893 123.746 231.203 122.667 231.494 121.32ZM241.422 152.445C243.369 154.436 245.426 156.546 247.688 158.861C246.662 159.243 246.032 159.477 245.703 159.601C245.569 160.79 245.46 161.731 245.345 162.748C245.856 162.929 246.557 163.177 247.35 163.459C246.414 164.285 245.641 164.973 244.734 165.775C248.089 165.073 251.125 164.443 254.027 163.836C253.979 163.158 253.993 162.614 253.893 162.084C253.788 161.535 253.736 160.848 253.387 160.494C251.836 158.924 250.185 157.453 248.576 155.935C247.898 155.295 247.24 154.631 246.548 153.953C246.672 153.605 246.801 153.318 246.877 153.022C246.968 152.664 247.02 152.297 247.073 152.01C245.178 151.094 243.421 149.002 241.422 152.445ZM238.009 163.168C239.455 162.595 241.512 162.385 242.438 161.244C243.297 160.189 242.944 158.15 243.126 156.546C242.066 156.493 240.811 156.064 239.999 156.489C239.026 156.995 238.119 158.121 237.766 159.177C237.441 160.17 237.866 161.416 238.009 163.168ZM223.886 138.093C223.948 140.089 224.697 142.013 227.785 141.54C228.874 141.373 230.01 141.125 230.964 140.614C231.58 140.28 231.904 139.406 232.363 138.771C231.599 138.365 230.835 137.625 230.067 137.62C228.034 137.606 226 137.907 223.886 138.093ZM132.208 213.433C131.439 211.485 130.671 209.537 129.902 207.589C128.165 211.418 128.165 211.418 132.208 213.433ZM127.731 205.722C127.95 205.689 128.165 205.66 128.385 205.627C129.043 202.251 127.974 195.815 126.757 195.214C127.077 198.68 127.406 202.199 127.731 205.722ZM248.357 123.717C246.724 122.91 245.14 121.034 242.481 122.843C244.19 123.803 245.708 124.653 247.044 125.403C247.493 124.82 247.889 124.319 248.357 123.717Z" fill="white" stroke="white" stroke-width="2" stroke-miterlimit="10"/>
<path d="M331.396 231.078C336.222 219.524 337.696 208.586 332.986 197.505C332.709 197.495 332.432 197.486 332.155 197.471C332.155 198.698 332.155 199.93 332.155 201.372C327.616 197.032 326.027 194.296 326.747 192.745C327.649 193.766 328.623 194.874 329.855 196.268C330.647 195.07 330.962 194.602 331.253 194.158C331.912 194.349 332.594 194.545 333.725 194.874C341.61 225.387 337.649 254.535 321.163 281.892C320.944 281.835 320.719 281.782 320.5 281.725C322.49 275.8 324.38 269.837 326.494 263.955C329.21 256.411 333.057 249.254 334.322 241.224C334.981 237.046 335.41 232.83 335.945 228.629C335.72 228.581 335.501 228.538 335.277 228.49C334.308 230.434 333.334 232.377 332.356 234.334C331.931 234.177 331.601 234.158 331.52 234.01C329.683 230.653 327.907 227.259 326.036 223.917C324.294 220.799 322.399 217.772 320.681 214.64C318.982 211.546 317.426 208.376 315.531 204.704C316.562 205.034 317.774 205.039 318.223 205.631C320.691 208.868 323.726 211.751 324.81 215.924C325.063 216.898 326.103 217.657 326.724 218.55C328.461 221.047 329.988 223.606 330.179 226.791C330.255 228.013 330.843 229.202 331.396 231.078Z" fill="white" stroke="white" stroke-width="2" stroke-miterlimit="10"/>
<path d="M121.057 240.707C120.785 232.352 120.508 223.997 120.236 215.642C120.456 215.637 120.675 215.627 120.895 215.623C120.895 217.919 120.866 220.216 120.909 222.512C120.928 223.457 120.88 224.498 121.248 225.324C123.501 230.371 122.642 235.489 121.916 240.616C121.63 240.65 121.343 240.679 121.057 240.707Z" fill="white" stroke="white" stroke-width="2" stroke-miterlimit="10"/>
<path d="M309.83 295.648C311.711 293.404 313.591 291.16 315.472 288.916C315.644 289.05 315.811 289.179 315.982 289.313C314.145 291.604 312.307 293.896 310.474 296.188C310.26 296.006 310.045 295.83 309.83 295.648Z" fill="white" stroke="white" stroke-width="2" stroke-miterlimit="10"/>
</g>
<path d="M164.539 222.296C165.244 222.296 165.816 221.724 165.816 221.018C165.816 220.313 165.244 219.741 164.539 219.741C163.833 219.741 163.261 220.313 163.261 221.018C163.261 221.724 163.833 222.296 164.539 222.296Z" fill="#FF655B"/>
<path d="M164.539 214.629C162.743 214.629 161.02 215.338 159.744 216.601C158.467 217.865 157.741 219.581 157.724 221.376C157.724 226.045 163.729 231.241 163.985 231.462C164.139 231.594 164.335 231.667 164.539 231.667C164.742 231.667 164.938 231.594 165.092 231.462C165.39 231.241 171.354 226.045 171.354 221.376C171.336 219.581 170.61 217.865 169.334 216.601C168.057 215.338 166.334 214.629 164.539 214.629ZM164.539 224C163.949 224 163.372 223.825 162.882 223.498C162.392 223.17 162.01 222.704 161.784 222.159C161.558 221.615 161.499 221.015 161.614 220.437C161.729 219.858 162.013 219.327 162.43 218.91C162.847 218.493 163.378 218.209 163.957 218.094C164.535 217.979 165.135 218.038 165.68 218.264C166.224 218.49 166.69 218.872 167.018 219.362C167.345 219.852 167.52 220.429 167.52 221.018C167.52 221.809 167.206 222.568 166.647 223.127C166.088 223.686 165.329 224 164.539 224Z" fill="#FF655B"/>
<g filter="url(#filter0_f)">
<ellipse cx="164.368" cy="234.734" rx="5.62241" ry="1.36301" fill="#EAEAEA"/>
</g>
<path d="M249.385 293.854C250.09 293.854 250.663 293.282 250.663 292.577C250.663 291.871 250.09 291.299 249.385 291.299C248.679 291.299 248.107 291.871 248.107 292.577C248.107 293.282 248.679 293.854 249.385 293.854Z" fill="#FF655B"/>
<path d="M249.385 286.188C247.589 286.187 245.866 286.896 244.59 288.159C243.314 289.423 242.588 291.139 242.57 292.934C242.57 297.603 248.575 302.799 248.831 303.021C248.985 303.153 249.182 303.225 249.385 303.225C249.588 303.225 249.784 303.153 249.938 303.021C250.237 302.799 256.2 297.603 256.2 292.934C256.182 291.139 255.456 289.423 254.18 288.159C252.904 286.896 251.18 286.187 249.385 286.188ZM249.385 295.558C248.795 295.558 248.219 295.383 247.728 295.056C247.238 294.728 246.856 294.262 246.63 293.718C246.404 293.173 246.345 292.573 246.46 291.995C246.575 291.417 246.859 290.885 247.276 290.468C247.693 290.051 248.225 289.767 248.803 289.652C249.381 289.537 249.981 289.596 250.526 289.822C251.071 290.048 251.536 290.43 251.864 290.92C252.191 291.41 252.366 291.987 252.366 292.577C252.366 293.367 252.052 294.126 251.493 294.685C250.934 295.244 250.175 295.558 249.385 295.558Z" fill="#FF655B"/>
<g filter="url(#filter1_f)">
<ellipse cx="249.215" cy="306.292" rx="5.62241" ry="1.36301" fill="#EAEAEA"/>
</g>
<path d="M222.465 164.709C223.171 164.709 223.743 164.137 223.743 163.432C223.743 162.726 223.171 162.154 222.465 162.154C221.76 162.154 221.187 162.726 221.187 163.432C221.187 164.137 221.76 164.709 222.465 164.709Z" fill="#FF655B"/>
<path d="M222.465 157.042C220.67 157.042 218.946 157.751 217.67 159.014C216.394 160.278 215.668 161.994 215.65 163.789C215.65 168.458 221.656 173.654 221.912 173.876C222.066 174.008 222.262 174.08 222.465 174.08C222.668 174.08 222.865 174.008 223.019 173.876C223.317 173.654 229.28 168.458 229.28 163.789C229.262 161.994 228.536 160.278 227.26 159.014C225.984 157.751 224.261 157.042 222.465 157.042ZM222.465 166.413C221.876 166.413 221.299 166.238 220.809 165.911C220.318 165.583 219.936 165.117 219.711 164.573C219.485 164.028 219.426 163.428 219.541 162.85C219.656 162.272 219.94 161.74 220.357 161.323C220.774 160.906 221.305 160.622 221.884 160.507C222.462 160.392 223.061 160.451 223.606 160.677C224.151 160.903 224.617 161.285 224.944 161.775C225.272 162.265 225.447 162.842 225.447 163.432C225.447 164.222 225.133 164.981 224.574 165.54C224.014 166.099 223.256 166.413 222.465 166.413Z" fill="#FF655B"/>
<g filter="url(#filter2_f)">
<ellipse cx="222.294" cy="177.147" rx="5.62241" ry="1.36301" fill="#EAEAEA"/>
</g>
<circle r="117.048" transform="matrix(-1 0 0 1 229.048 224)" stroke="#151371" stroke-width="3" stroke-dasharray="10 10"/>
<ellipse rx="129.486" ry="126.589" transform="matrix(-1 0 0 1 229.214 224)" stroke="#151371" stroke-width="3" stroke-dasharray="10 10"/>
<ellipse rx="139.245" ry="136.13" transform="matrix(-1 0 0 1 228.999 224)" stroke="#151371" stroke-width="3" stroke-dasharray="10 10"/>
<ellipse rx="149.005" ry="145.672" transform="matrix(-1 0 0 1 229.124 224)" stroke="#151371" stroke-width="3" stroke-dasharray="10 10"/>
<ellipse rx="158.764" ry="155.213" transform="matrix(-1 0 0 1 229.241 224)" stroke="#151371" stroke-width="3" stroke-dasharray="10 10"/>
<ellipse rx="168.523" ry="164.754" transform="matrix(-1 0 0 1 229.026 224)" stroke="#151371" stroke-width="3" stroke-dasharray="10 10"/>
<ellipse rx="178.283" ry="174.295" transform="matrix(-1 0 0 1 229.15 224)" stroke="#151371" stroke-width="3" stroke-dasharray="10 10"/>
<ellipse rx="188.042" ry="183.836" transform="matrix(-1 0 0 1 228.928 224)" stroke="#151371" stroke-width="3" stroke-dasharray="10 10"/>
<ellipse rx="197.801" ry="193.377" transform="matrix(-1 0 0 1 229.053 224)" stroke="#151371" stroke-width="3" stroke-dasharray="10 10"/>
<ellipse rx="207.561" ry="202.918" transform="matrix(-1 0 0 1 229.177 224)" stroke="#151371" stroke-width="3" stroke-dasharray="10 10"/>
<ellipse rx="217.32" ry="212.459" transform="matrix(-1 0 0 1 228.955 224)" stroke="#151371" stroke-width="3" stroke-dasharray="10 10"/>
<ellipse rx="227.079" ry="222" transform="matrix(-1 0 0 1 229.079 224)" stroke="#151371" stroke-width="3" stroke-dasharray="10 10"/>
<defs>
<filter id="filter0_f" x="154.746" y="229.371" width="19.2448" height="10.726" filterUnits="userSpaceOnUse" color-interpolation-filters="sRGB">
<feFlood flood-opacity="0" result="BackgroundImageFix"/>
<feBlend mode="normal" in="SourceGraphic" in2="BackgroundImageFix" result="shape"/>
<feGaussianBlur stdDeviation="2" result="effect1_foregroundBlur"/>
</filter>
<filter id="filter1_f" x="239.593" y="300.929" width="19.2448" height="10.726" filterUnits="userSpaceOnUse" color-interpolation-filters="sRGB">
<feFlood flood-opacity="0" result="BackgroundImageFix"/>
<feBlend mode="normal" in="SourceGraphic" in2="BackgroundImageFix" result="shape"/>
<feGaussianBlur stdDeviation="2" result="effect1_foregroundBlur"/>
</filter>
<filter id="filter2_f" x="212.672" y="171.784" width="19.2448" height="10.726" filterUnits="userSpaceOnUse" color-interpolation-filters="sRGB">
<feFlood flood-opacity="0" result="BackgroundImageFix"/>
<feBlend mode="normal" in="SourceGraphic" in2="BackgroundImageFix" result="shape"/>
<feGaussianBlur stdDeviation="2" result="effect1_foregroundBlur"/>
</filter>
</defs>
</svg>
