<svg width="61" height="60" viewBox="0 0 61 60"  xmlns="http://www.w3.org/2000/svg">
<path d="M17.8981 24.0701L13.6701 28.1889L27.2601 41.428L57.4601 12.0078L53.2321 7.889L27.2601 33.1904L17.8981 24.0701ZM54.4401 29.6599C54.4401 42.6048 43.5681 53.1961 30.2801 53.1961C16.9921 53.1961 6.12008 42.6048 6.12008 29.6599C6.12008 16.7151 16.9921 6.12379 30.2801 6.12379C32.6961 6.12379 34.8101 6.41799 36.9241 7.00639L41.7562 2.29916C38.1321 1.12235 34.2061 0.239746 30.2801 0.239746C13.6701 0.239746 0.0800781 13.4788 0.0800781 29.6599C0.0800781 45.8411 13.6701 59.0802 30.2801 59.0802C46.8901 59.0802 60.4801 45.8411 60.4801 29.6599H54.4401Z" fill="#FF00B8"/>
</svg>
