<svg width="255" height="258" viewBox="0 0 255 258" fill="none" xmlns="http://www.w3.org/2000/svg">
<path d="M4 254.004V244.199C4 227.998 13.5799 216.863 29.7804 216.863C39.3754 224.964 50.7258 229.011 60.426 229.011C70.1263 229.011 81.4817 224.964 91.0717 216.863C107.272 216.863 116.852 227.998 116.852 244.199V254.004" stroke="white" stroke-width="7" stroke-linecap="round" stroke-linejoin="round"/>
<path d="M138.43 254.004V244.199C138.43 227.998 148.01 216.863 164.21 216.863C173.805 224.964 185.155 229.011 194.856 229.011C204.551 229.011 215.906 224.964 225.501 216.863C241.702 216.863 251.282 227.998 251.282 244.199V254.004" stroke="white" stroke-width="7" stroke-linecap="round" stroke-linejoin="round"/>
<path d="M127.367 166.211C123.972 166.211 120.897 164.105 118.239 159.942C76.9801 96.3381 76.2678 60.2405 76.2578 58.7358C76.2578 28.5416 99.3649 4 127.774 4C156.182 4 179.289 28.5466 179.289 58.7207C179.309 60.1552 179.309 95.335 137.79 158.979C137.389 159.646 133.326 166.211 127.367 166.211Z" stroke="white" stroke-width="7" stroke-miterlimit="10"/>
<path d="M127.778 80.7621C115.128 80.7621 104.836 70.4699 104.836 57.8205C104.836 45.171 115.128 34.8789 127.778 34.8789C140.427 34.8789 150.719 45.171 150.719 57.8205C150.719 70.4699 140.427 80.7621 127.778 80.7621Z" stroke="white" stroke-width="7" stroke-miterlimit="10"/>
<path d="M60.4259 204.215C74.2762 204.215 85.5041 192.987 85.5041 179.137C85.5041 165.287 74.2762 154.059 60.4259 154.059C46.5756 154.059 35.3477 165.287 35.3477 179.137C35.3477 192.987 46.5756 204.215 60.4259 204.215Z" stroke="white" stroke-width="7" stroke-linecap="round" stroke-linejoin="round"/>
<path d="M194.856 204.215C208.706 204.215 219.934 192.987 219.934 179.137C219.934 165.287 208.706 154.059 194.856 154.059C181.005 154.059 169.777 165.287 169.777 179.137C169.777 192.987 181.005 204.215 194.856 204.215Z" stroke="white" stroke-width="7" stroke-linecap="round" stroke-linejoin="round"/>
</svg>
