<svg width="258" height="258" viewBox="0 0 152 258" fill="none" xmlns="http://www.w3.org/2000/svg">
<path d="M148.021 76.0104C148.021 93.3494 140.254 101.717 131.687 121.697C129.498 126.796 113.364 179.914 113.364 179.914H38.6564C38.6564 179.914 25.6858 129.137 23.2274 125.004C12.9154 107.608 4 94.9376 4 76.0104C4 36.2371 36.2415 4 76.0104 4C115.784 4 148.021 36.2415 148.021 76.0104Z" stroke="white" stroke-width="7" stroke-miterlimit="10" stroke-linecap="round" stroke-linejoin="round"/>
<path d="M76.0117 178.136V126.184V178.136Z" fill="white"/>
<path d="M76.0117 178.136V126.184" stroke="white" stroke-width="7" stroke-miterlimit="10" stroke-linecap="round" stroke-linejoin="round"/>
<path d="M101.987 126.184H50.0352H101.987Z" fill="white"/>
<path d="M101.987 126.184H50.0352" stroke="white" stroke-width="7" stroke-miterlimit="10" stroke-linecap="round" stroke-linejoin="round"/>
<path d="M111.513 228.465C111.513 242.562 95.6272 253.993 76.0299 253.993C56.4327 253.993 40.5469 242.562 40.5469 228.465H111.513Z" stroke="white" stroke-width="7" stroke-miterlimit="10" stroke-linecap="round" stroke-linejoin="round"/>
<path d="M41.1602 211.899L110.864 196.801L41.1602 211.899Z" fill="white"/>
<path d="M41.1602 211.899L110.864 196.801" stroke="white" stroke-width="7" stroke-miterlimit="10" stroke-linecap="round" stroke-linejoin="round"/>
<path d="M85.5859 216.634L110.735 211.5L85.5859 216.634Z" fill="white"/>
<path d="M85.5859 216.634L110.735 211.5" stroke="white" stroke-width="7" stroke-miterlimit="10" stroke-linecap="round" stroke-linejoin="round"/>
<path d="M41.2852 197.185L66.4344 192.051L41.2852 197.185Z" fill="white"/>
<path d="M41.2852 197.185L66.4344 192.051" stroke="white" stroke-width="7" stroke-miterlimit="10" stroke-linecap="round" stroke-linejoin="round"/>
</svg>
