<svg width="289" height="258" viewBox="0 0 289 258" fill="none" xmlns="http://www.w3.org/2000/svg">
<path d="M262.739 201.407H26.238C20.3397 201.406 14.6834 199.062 10.5131 194.891C6.34279 190.72 4 185.063 4 179.165V26.2424C4 20.3441 6.34279 14.6873 10.5131 10.5162C14.6834 6.34506 20.3397 4.00116 26.238 4H262.739C268.638 4 274.296 6.34339 278.467 10.5146C282.638 14.6859 284.982 20.3433 284.982 26.2424V179.165C284.982 185.064 282.638 190.721 278.467 194.893C274.296 199.064 268.638 201.407 262.739 201.407V201.407Z" stroke="white" stroke-width="7" stroke-miterlimit="10" stroke-linecap="round" stroke-linejoin="round"/>
<path d="M284.982 164.426C284.982 164.426 285.718 185.704 278.188 194.36C270.659 203.016 275.024 201.39 262.739 201.39H26.238C13.9576 201.39 7.98829 193.273 7.98829 190.678L4 164.426" stroke="white" stroke-width="7" stroke-miterlimit="10" stroke-linecap="round" stroke-linejoin="round"/>
<path d="M262.739 201.407H26.238C20.3397 201.406 14.6834 199.062 10.5131 194.891C6.34279 190.72 4 185.063 4 179.165V26.2424C4 20.3441 6.34279 14.6873 10.5131 10.5162C14.6834 6.34506 20.3397 4.00116 26.238 4H262.739C268.638 4 274.296 6.34339 278.467 10.5146C282.638 14.6859 284.982 20.3433 284.982 26.2424V179.165C284.982 185.064 282.638 190.721 278.467 194.893C274.296 199.064 268.638 201.407 262.739 201.407V201.407Z" stroke="white" stroke-width="7" stroke-miterlimit="10" stroke-linecap="round" stroke-linejoin="round"/>
<path d="M17.3906 168.5H271.589" stroke="white" stroke-width="7" stroke-miterlimit="10" stroke-linecap="round" stroke-linejoin="round"/>
<path d="M175.034 223.141C175.034 244.875 213.777 254.004 213.777 254.004H75.1953C75.1953 254.004 113.939 244.875 113.939 223.141" stroke="white" stroke-width="7" stroke-miterlimit="10" stroke-linecap="round" stroke-linejoin="round"/>
</svg>
