<svg width="236" height="258" viewBox="0 0 236 258" fill="none" xmlns="http://www.w3.org/2000/svg">
<path d="M40.2114 129C13.623 108.281 -0.62076 87.8652 5.34868 75.3264C12.1253 61.0826 42.8703 60.6294 82.1443 71.8647" stroke="white" stroke-width="7" stroke-miterlimit="10" stroke-linejoin="round"/>
<path d="M196.259 129C222.847 149.718 237.091 170.134 231.122 182.673C224.345 196.917 193.6 197.37 154.274 186.135C142.033 182.588 130.008 178.333 118.259 173.393C112.367 170.988 106.546 168.412 100.804 165.667C93.2408 162.065 85.797 158.217 78.4844 154.129" stroke="white" stroke-width="7" stroke-miterlimit="10" stroke-linejoin="round"/>
<path d="M151.053 202.376C143.716 233.674 131.742 253.999 118.206 253.999C102.461 253.999 88.8125 226.461 82.1438 186.134L80.0547 176.008" stroke="white" stroke-width="7" stroke-miterlimit="10" stroke-linecap="round" stroke-linejoin="round"/>
<path d="M85.6016 54.7165C92.9781 23.9327 104.813 4 118.216 4C133.966 4 147.558 31.538 154.278 71.8695" stroke="white" stroke-width="7" stroke-miterlimit="10" stroke-linecap="round" stroke-linejoin="round"/>
<path d="M82.1406 71.8711C93.5788 75.1299 105.716 79.3944 118.255 84.6085" stroke="white" stroke-width="7" stroke-miterlimit="10" stroke-linejoin="round"/>
<path d="M154.274 186.134C142.033 182.588 130.008 178.335 118.259 173.396C112.367 170.992 106.546 168.415 100.804 165.67C93.2408 162.068 85.797 158.22 78.4844 154.133" stroke="white" stroke-width="7" stroke-miterlimit="10" stroke-linejoin="round"/>
<path d="M158.723 121.883C158.933 132.657 158.672 143.435 157.941 154.186C157.708 157.885 157.423 161.524 157.078 165.098" stroke="white" stroke-width="7" stroke-miterlimit="10" stroke-linecap="round" stroke-linejoin="round"/>
<path d="M63.1142 190.797C33.172 196.814 10.9819 194.484 5.34915 182.674C0.575321 172.647 8.72449 157.588 25.7696 141.367" stroke="white" stroke-width="7" stroke-miterlimit="10" stroke-linecap="round" stroke-linejoin="round"/>
<path d="M77.8577 153.776C63.6614 145.808 50.9369 137.404 40.2109 129" stroke="white" stroke-width="7" stroke-miterlimit="10" stroke-linejoin="round"/>
<path d="M78.4852 154.131C78.2765 154.015 78.0679 153.898 77.8594 153.781" stroke="white" stroke-width="7" stroke-miterlimit="10" stroke-linejoin="round"/>
<path d="M154.273 71.8711C154.869 75.3371 155.409 78.9067 155.892 82.5626" stroke="white" stroke-width="7" stroke-miterlimit="10" stroke-linecap="round" stroke-linejoin="round"/>
<path d="M172.797 67.3017C203.011 61.1467 225.456 63.4084 231.119 75.3301C235.707 84.9727 228.339 99.2812 212.593 114.798" stroke="white" stroke-width="7" stroke-miterlimit="10" stroke-linecap="round" stroke-linejoin="round"/>
<path d="M196.258 128.997C185.372 120.519 172.432 111.99 157.938 103.867" stroke="white" stroke-width="7" stroke-miterlimit="10" stroke-linecap="round" stroke-linejoin="round"/>
<path d="M157.938 103.867C172.432 111.99 185.372 120.519 196.258 128.997" stroke="white" stroke-width="7" stroke-miterlimit="10" stroke-linejoin="round"/>
<path d="M140.586 163.301C139.369 163.905 138.135 164.505 136.883 165.092" stroke="white" stroke-width="7" stroke-miterlimit="10" stroke-linecap="round" stroke-linejoin="round"/>
<path d="M118.258 84.6016C124.122 87.0543 129.926 89.6477 135.665 92.3795C143.222 95.9435 150.651 99.773 157.938 103.861" stroke="white" stroke-width="7" stroke-miterlimit="10" stroke-linejoin="round"/>
<path d="M77.672 132.116C77.5239 118.547 77.7959 104.977 78.4877 91.4258" stroke="white" stroke-width="7" stroke-miterlimit="10" stroke-linecap="round" stroke-linejoin="round"/>
<path d="M118.259 173.396C112.367 170.992 106.546 168.415 100.804 165.67C93.2408 162.068 85.797 158.22 78.4844 154.133" stroke="white" stroke-width="7" stroke-miterlimit="10" stroke-linejoin="round"/>
<path d="M119.693 144.496C127.472 144.496 133.778 138.191 133.778 130.412C133.778 122.634 127.472 116.328 119.693 116.328C111.915 116.328 105.609 122.634 105.609 130.412C105.609 138.191 111.915 144.496 119.693 144.496Z" stroke="white" stroke-width="7" stroke-miterlimit="10"/>
<path d="M97.1797 182.361C97.1797 182.361 98.6386 182.102 101.367 180.941" stroke="white" stroke-width="7" stroke-miterlimit="10" stroke-linecap="round" stroke-linejoin="round"/>
<path d="M175.273 146.128C175.273 146.128 181.334 142.256 182.378 141.367" stroke="white" stroke-width="7" stroke-miterlimit="10" stroke-linecap="round" stroke-linejoin="round"/>
<path d="M97.5942 91.4258C96.3727 92.043 95.1512 92.6818 93.9297 93.3379" stroke="white" stroke-width="7" stroke-miterlimit="10" stroke-linecap="round" stroke-linejoin="round"/>
<path d="M56.6484 115.05C56.6484 115.05 57.6325 114.023 60.1619 112.508" stroke="white" stroke-width="7" stroke-miterlimit="10" stroke-linecap="round" stroke-linejoin="round"/>
<path d="M132.32 73.7593C132.32 73.7593 139.291 71.2127 140.716 70.9062" stroke="white" stroke-width="7" stroke-miterlimit="10" stroke-linecap="round" stroke-linejoin="round"/>
</svg>
