<svg width="224" height="258" viewBox="0 0 224 258" fill="none" xmlns="http://www.w3.org/2000/svg">
<path d="M159.465 229.312L165.069 254.001" stroke="white" stroke-width="7" stroke-linecap="round" stroke-linejoin="round"/>
<path d="M63.2178 223.43L57.6133 253.99" stroke="white" stroke-width="7" stroke-linecap="round" stroke-linejoin="round"/>
<path d="M159.465 229.312L165.069 254.001" stroke="white" stroke-width="7" stroke-linecap="round" stroke-linejoin="round"/>
<path d="M63.2178 223.43L57.6133 253.99" stroke="white" stroke-width="7" stroke-linecap="round" stroke-linejoin="round"/>
<path d="M89.2891 181.059H120.571C136.634 181.059 146.12 186.256 149.932 197.238" stroke="white" stroke-width="7" stroke-linecap="round" stroke-linejoin="round"/>
<path d="M42.4637 127.687V137.581C41.9675 148.332 44.6067 158.996 50.0602 168.274C55.5138 177.553 63.5466 185.047 73.1812 189.843C82.1089 193.731 86.9627 197.596 86.9627 206.645C86.9063 208.712 86.433 210.745 85.5715 212.624C84.7099 214.502 83.4777 216.188 81.9488 217.579C80.4199 218.969 78.6258 220.037 76.6742 220.718C74.7225 221.398 72.6536 221.677 70.5914 221.539C40.5897 221.539 4 183.895 4 133.425C4 82.1868 35.1016 65.3789 51.1121 65.3789H91.933C99.7113 65.4132 107.174 68.4567 112.759 73.8715C118.343 79.2864 121.614 86.6525 121.888 94.426V102.708" stroke="white" stroke-width="7" stroke-linecap="round" stroke-linejoin="round"/>
<path d="M181.146 141.638V145.654C181.643 156.405 179.004 167.069 173.55 176.348C168.096 185.627 160.063 193.121 150.428 197.917C141.506 201.804 136.652 205.669 136.652 214.719C136.685 216.792 137.142 218.836 137.995 220.725C138.848 222.615 140.08 224.309 141.613 225.704C143.147 227.099 144.95 228.165 146.911 228.836C148.873 229.507 150.951 229.769 153.018 229.606C183.02 229.606 219.615 191.969 219.615 141.493C219.615 93.6648 188.508 77.3633 172.497 77.3633H137.554" stroke="white" stroke-width="7" stroke-linecap="round" stroke-linejoin="round"/>
<path d="M74.8973 45.2398C86.2853 45.2398 95.5172 36.008 95.5172 24.6199C95.5172 13.2318 86.2853 4 74.8973 4C63.5092 4 54.2773 13.2318 54.2773 24.6199C54.2773 36.008 63.5092 45.2398 74.8973 45.2398Z" stroke="white" stroke-width="7" stroke-linecap="round" stroke-linejoin="round"/>
<path d="M108.296 164.279C119.684 164.279 128.916 155.047 128.916 143.659C128.916 132.271 119.684 123.039 108.296 123.039C96.9076 123.039 87.6758 132.271 87.6758 143.659C87.6758 155.047 96.9076 164.279 108.296 164.279Z" stroke="white" stroke-width="7" stroke-linecap="round" stroke-linejoin="round"/>
<path d="M151.85 56.0523C163.238 56.0523 172.47 46.8205 172.47 35.4324C172.47 24.0444 163.238 14.8125 151.85 14.8125C140.462 14.8125 131.23 24.0444 131.23 35.4324C131.23 46.8205 140.462 56.0523 151.85 56.0523Z" stroke="white" stroke-width="7" stroke-linecap="round" stroke-linejoin="round"/>
</svg>
