<svg width="246" height="258" viewBox="0 0 246 258" fill="none" xmlns="http://www.w3.org/2000/svg">
<path d="M50.0547 145.808L52.8687 128.95C53.1501 126.639 55.4524 123.194 57.1237 122.516L66.1114 118.918" stroke="white" stroke-width="7" stroke-miterlimit="10" stroke-linecap="round" stroke-linejoin="round"/>
<path d="M77.8594 129.993L162.436 4L180.774 16.1384L110.553 123.176" stroke="white" stroke-width="7" stroke-miterlimit="10" stroke-linecap="round" stroke-linejoin="round"/>
<path d="M33.0436 219.472L24.3629 231.257L4 253.999L15.7419 224.695L24.4397 211.738" stroke="white" stroke-width="7" stroke-miterlimit="10" stroke-linecap="round" stroke-linejoin="round"/>
<path d="M153.069 89.3398C153.069 89.3398 206.902 114.981 222.779 126.778C250.139 147.116 246.881 189.965 222.779 214.063C203.478 216.173 188.039 222.735 145.109 222.735" stroke="white" stroke-width="7" stroke-miterlimit="10" stroke-linecap="round" stroke-linejoin="round"/>
<path d="M90.7109 215.914C93.2989 229.681 71.8573 236.324 68.9922 216.481" stroke="white" stroke-width="7" stroke-linecap="round" stroke-linejoin="round"/>
<path d="M111.743 215.281C114.468 228.989 93.4652 232.903 90.7109 215.917" stroke="white" stroke-width="7" stroke-linecap="round" stroke-linejoin="round"/>
<path d="M133.226 213.594C136.04 227.305 114.624 229.16 111.742 215.282" stroke="white" stroke-width="7" stroke-linecap="round" stroke-linejoin="round"/>
<path d="M133.228 213.592L130.695 201.73" stroke="white" stroke-width="7" stroke-miterlimit="10" stroke-linecap="round" stroke-linejoin="round"/>
<path d="M111.749 215.273L107.477 195.844" stroke="white" stroke-width="7" stroke-miterlimit="10" stroke-linecap="round" stroke-linejoin="round"/>
<path d="M90.7109 215.912L88.0547 202.793" stroke="white" stroke-width="7" stroke-miterlimit="10" stroke-linecap="round" stroke-linejoin="round"/>
<path d="M68.9903 216.48L68.5938 213.594" stroke="white" stroke-width="7" stroke-miterlimit="10" stroke-linecap="round" stroke-linejoin="round"/>
<path d="M208.893 200.14C153.266 212.027 145.11 185.593 118.445 181.585C96.7563 177.087 72.4411 191.178 64.1271 198.042C45.1839 216.307 20.3698 191.348 43.8153 173.791C43.8153 173.791 65.1716 153.786 74.7477 149.361C84.0551 145.067 115.469 140.305 115.469 140.305" stroke="white" stroke-width="7" stroke-miterlimit="10" stroke-linecap="round" stroke-linejoin="round"/>
</svg>
