<svg width="258" height="258" viewBox="0 0 258 258" fill="none" xmlns="http://www.w3.org/2000/svg">
<path d="M220.294 37.9648H254.254" stroke="white" stroke-width="7" stroke-miterlimit="10" stroke-linecap="round" stroke-linejoin="round"/>
<path d="M220.297 37.9597V4" stroke="white" stroke-width="7" stroke-miterlimit="10" stroke-linecap="round" stroke-linejoin="round"/>
<path d="M204.966 53.3086H238.926" stroke="white" stroke-width="7" stroke-miterlimit="10" stroke-linecap="round" stroke-linejoin="round"/>
<path d="M204.957 53.3114V19.3555" stroke="white" stroke-width="7" stroke-miterlimit="10" stroke-linecap="round" stroke-linejoin="round"/>
<path d="M114.008 144.038L235.418 22.8672" stroke="white" stroke-width="7" stroke-miterlimit="10" stroke-linecap="round" stroke-linejoin="round"/>
<path d="M180.455 56.3451C161.329 41.8562 137.995 34.0089 114 33.9961C53.2494 33.9961 3.9997 83.2458 3.9997 143.996C3.9997 204.747 53.2494 253.996 114 253.996C174.75 253.996 224 204.747 224 143.996C224 119.163 215.773 96.2524 201.894 77.8444" stroke="white" stroke-width="7" stroke-miterlimit="10" stroke-linecap="round" stroke-linejoin="round"/>
<path d="M164.191 72.6321C149.507 62.2762 131.973 56.73 114.005 56.7579C65.8207 56.7579 26.7631 95.8194 26.7631 143.999C26.7631 192.18 65.8207 231.241 114.005 231.241C162.188 231.241 201.246 192.183 201.246 143.999C201.246 125.527 195.503 108.394 185.706 94.2907" stroke="white" stroke-width="7" stroke-miterlimit="10" stroke-linecap="round" stroke-linejoin="round"/>
<path d="M142.253 94.6006C133.654 89.6721 123.913 87.0863 114.002 87.1016C82.5797 87.1016 57.1052 112.576 57.1052 143.998C57.1052 175.42 82.5797 200.895 114.002 200.895C145.424 200.895 170.898 175.42 170.898 143.998C170.898 134.075 168.129 124.551 163.661 116.43" stroke="white" stroke-width="7" stroke-miterlimit="10" stroke-linecap="round" stroke-linejoin="round"/>
<path d="M111.765 125.109C108.276 125.548 104.976 126.949 102.237 129.155C99.4973 131.36 97.4251 134.285 96.2518 137.6C95.0786 140.916 94.8505 144.493 95.5931 147.931C96.3357 151.369 98.0197 154.533 100.457 157.069C102.894 159.605 105.989 161.413 109.394 162.291C112.8 163.17 116.383 163.084 119.743 162.043C123.103 161.002 126.107 159.048 128.42 156.398C130.733 153.748 132.263 150.507 132.84 147.037" stroke="white" stroke-width="7" stroke-miterlimit="10" stroke-linecap="round" stroke-linejoin="round"/>
<path d="M128.075 108.763C123.598 106.978 118.822 106.064 114.003 106.07C93.0532 106.07 76.0714 123.048 76.0714 144.001C76.0714 164.955 93.0532 181.933 114.003 181.933C134.952 181.933 151.934 164.947 151.934 144.001C151.916 139.34 151.034 134.723 149.332 130.384" stroke="white" stroke-width="7" stroke-miterlimit="10" stroke-linecap="round" stroke-linejoin="round"/>
</svg>
