<svg width="266" height="258" viewBox="0 0 266 258" fill="none" xmlns="http://www.w3.org/2000/svg">
<path d="M132.994 156.176C148.002 156.176 160.168 144.01 160.168 129.002C160.168 113.994 148.002 101.828 132.994 101.828C117.986 101.828 105.82 113.994 105.82 129.002C105.82 144.01 117.986 156.176 132.994 156.176Z" stroke="white" stroke-width="7" stroke-miterlimit="10" stroke-linecap="round" stroke-linejoin="round"/>
<path d="M132.992 183.352C163.008 183.352 187.34 159.02 187.34 129.004C187.34 98.9886 163.008 74.6562 132.992 74.6562C102.977 74.6562 78.6445 98.9886 78.6445 129.004C78.6445 159.02 102.977 183.352 132.992 183.352Z" stroke="white" stroke-width="7" stroke-miterlimit="10" stroke-linecap="round" stroke-linejoin="round"/>
<path d="M106.473 46.3152C105.168 51.6956 99.3533 54.9022 94.2826 52.6848C94.2009 52.649 94.1194 52.6128 94.038 52.5761L55.2554 27.087L51.288 30.7989L31.4511 49.3696L55.9293 90.0435C59.9293 98.8696 50.0652 101.315 50.0652 101.315L4 112.772L4.89674 139.929L5.07609 145.364L50.5217 154.761C51.7379 155.226 52.8383 155.95 53.7465 156.883C54.6548 157.815 55.3492 158.935 55.7815 160.163C56.2138 161.391 56.3736 162.698 56.2499 163.995C56.1263 165.291 55.722 166.544 55.0652 167.668L54.8859 167.973L30.4076 208.647L50.2446 227.217L54.212 230.935L92.9946 205.446L93.2391 205.337L93.4185 205.272C99.7228 203.228 106.424 207.158 107.984 213.603L117.734 254H150.342L160.598 211.527C160.907 210.246 161.495 209.049 162.319 208.021C163.143 206.993 164.184 206.159 165.366 205.578C166.549 204.997 167.845 204.684 169.162 204.66C170.48 204.636 171.786 204.902 172.989 205.44V205.44L211.766 230.929L215.734 227.212L235.571 208.641L211.092 167.967L210.918 167.663C210.261 166.539 209.856 165.285 209.731 163.988C209.607 162.691 209.767 161.383 210.199 160.154C210.632 158.925 211.326 157.805 212.235 156.872C213.144 155.939 214.245 155.215 215.462 154.75V154.75L260.908 145.353L261.087 139.918L261.984 112.761L215.913 101.31C215.913 101.31 206.049 98.8641 210.054 90.038L234.527 49.3641L214.69 30.7935L210.723 27.0761L171.94 52.5652C170.738 53.102 169.432 53.3677 168.115 53.3433C166.798 53.319 165.503 53.0052 164.321 52.4244C163.139 51.8435 162.099 51.0097 161.275 49.9821C160.452 48.9545 159.864 47.7583 159.554 46.4783L149.299 4H116.69L106.473 46.3152Z" stroke="white" stroke-width="7" stroke-miterlimit="10" stroke-linecap="round" stroke-linejoin="round"/>
</svg>
