<svg width="310" height="258" viewBox="0 0 310 258" fill="none" xmlns="http://www.w3.org/2000/svg">
<path d="M53.0676 167.639C53.0676 167.639 18.3961 139.34 11.5716 127.495C-9.77669 90.5774 16.1844 31.3009 62.3176 21.4336" stroke="white" stroke-width="7" stroke-linecap="round" stroke-linejoin="round"/>
<path d="M168.074 162.969L230.729 197.096" stroke="white" stroke-width="7" stroke-linecap="round" stroke-linejoin="round"/>
<path d="M144.551 186.297L207.74 217.882" stroke="white" stroke-width="7" stroke-linecap="round" stroke-linejoin="round"/>
<path d="M262.719 176.243L237.929 155.06L197.688 133.988" stroke="white" stroke-width="7" stroke-linecap="round" stroke-linejoin="round"/>
<path d="M162.15 227.617C203.826 254.185 214.597 226.183 207.777 217.924C221.067 225.823 237.958 215.411 230.773 197.106C249.458 206.084 264.905 192.08 262.752 176.288C278.919 179.16 288.976 165.876 284.309 150.079C316.978 127.792 308.812 57.5789 283.828 26.8105C238.687 19.7187 230.36 15.3295 181.85 7.64471L116.085 4.63592C111.374 3.39952 106.371 3.97921 102.068 6.25994C97.7647 8.54068 94.4764 12.3558 92.8552 16.9481C89.1999 30.6359 84.7038 41.1108 75.3615 57.6713C73.6572 61.8397 73.6555 66.5103 75.3568 70.68C77.0581 74.8497 80.3268 78.186 84.4607 79.9723C93.735 82.2908 97.9736 78.096 106.14 71.7771C116.809 61.5599 118.914 57.2144 124.635 49.5393L190.935 79.6952L252.763 114.517C264.983 122.771 277.125 142.924 284.407 150.103" stroke="white" stroke-width="7" stroke-linecap="round" stroke-linejoin="round"/>
<path d="M133.072 217.218C138.463 210.038 146.031 208.891 153.215 212.843C160.044 216.79 165.07 224.324 160.399 232.592L151.776 247.66C146.386 254.845 136.329 255.919 129.505 250.893C123.506 246.402 121.766 238.654 124.274 232.247L133.072 217.208V217.218Z" stroke="white" stroke-width="7" stroke-linecap="round" stroke-linejoin="round"/>
<path d="M105.518 201.804C110.908 194.624 118.476 193.477 125.66 197.429C132.49 201.376 137.516 208.91 132.845 217.178L124.222 232.246C118.831 239.431 108.774 240.505 101.95 235.479C95.9517 230.987 94.2116 223.239 96.7197 216.833L105.518 201.794V201.804Z" stroke="white" stroke-width="7" stroke-linecap="round" stroke-linejoin="round"/>
<path d="M78.0059 186.448C83.3964 179.269 90.9646 178.122 98.1487 182.074C104.978 186.02 110.004 193.555 105.333 201.823L96.71 216.891C91.3194 224.075 81.2626 225.149 74.4381 220.123C68.44 215.632 66.6999 207.884 69.208 201.478L78.0059 186.438V186.448Z" stroke="white" stroke-width="7" stroke-linecap="round" stroke-linejoin="round"/>
<path d="M50.5411 171.042C55.9316 163.863 63.4997 162.716 70.6839 166.667C77.5132 170.614 82.5392 178.148 77.868 186.416L69.2451 201.485C63.8546 208.669 53.7977 209.743 46.9733 204.717C40.9751 200.226 39.235 192.478 41.7431 186.071L50.5411 171.032V171.042Z" stroke="white" stroke-width="7" stroke-linecap="round" stroke-linejoin="round"/>
</svg>
