<svg width="263" height="258" viewBox="0 0 263 258" fill="none" xmlns="http://www.w3.org/2000/svg">
<path d="M259.213 71.8758C259.213 34.3866 228.826 4 191.337 4C179.094 3.99675 167.077 7.30605 156.562 13.5772C146.046 19.8483 137.423 28.8475 131.606 39.6212C125.79 28.8475 117.167 19.8483 106.651 13.5772C96.1356 7.30605 84.1193 3.99675 71.8758 4C34.3866 4 4 34.3866 4 71.8758C4 88.003 9.64727 102.795 19.0413 114.442L19.0195 114.458L131.606 254L244.193 114.458L244.172 114.442C253.919 102.398 259.229 87.3696 259.213 71.8758V71.8758Z" stroke="white" stroke-width="7" stroke-miterlimit="10" stroke-linejoin="round"/>
</svg>
