<svg width="600" height="600" viewBox="0 0 600 600" fill="none" xmlns="http://www.w3.org/2000/svg">
<g clip-path="url(#clip0)">
<path d="M675 675H-75V-75H675V675Z" fill="url(#paint0_linear)"/>
<path d="M360.996 403.874H308.184V356.576H360.996V403.874ZM414.113 320.069H340.054V380.225H414.113V320.069ZM377.082 441.95H442.881V362.639H377.082V441.95ZM400.757 434.192H334.59V491.191H400.757V434.192ZM580.44 284.416H490.23V387.501H580.44V284.416ZM478.458 331.108H456.605V356.576H478.458V331.108ZM544.531 252.277H456.605V304.426H544.531V252.277ZM442.881 270.468H395.532V335.958H442.881V270.468ZM334.59 275.32H308.184V303.213H334.59V275.32ZM299.325 320.069H258.501V382.71H299.325V320.069V320.069ZM347.338 441.95H275.708V521.511H347.338V441.95ZM308.184 576.086H388.617V528.788H308.184V576.086ZM500.311 557.894H443.791V599.129H500.313V557.894H500.311ZM637.361 516.659H585.062V578.511H637.361V516.659ZM551.302 544.718H506.381V585.953H551.302V544.718ZM594.357 463.296H528.843V537.278H594.357V463.296ZM610.791 590.639H528.843V644H610.791V590.639ZM340.054 557.894H251.187V637.937H340.052V557.894H340.054ZM630.216 356.576H569.818V403.874H630.216V356.576ZM594.357 424.49H568.208V451.477H594.357V424.49ZM251.187 474.697H300.975V404.294H251.187V474.697ZM321.764 249.852L232 252.277V320.069H321.764V249.852ZM646 252.277H587.725V326.256H646V252.277ZM371.858 245H347.338V298.361H371.858V245ZM641.143 437.983H581.281V486.494H641.143V437.983Z" fill="url(#paint1_linear)" stroke="#FFC700" stroke-width="1.5"/>
<path d="M115.996 319.874H63.1843V272.576H115.996V319.874ZM169.113 236.069H95.0537V296.225H169.113V236.069ZM132.082 357.95H197.881V278.639H132.082V357.95ZM155.757 350.192H89.5904V407.191H155.757V350.192ZM335.44 200.416H245.23V303.501H335.44V200.416ZM233.458 247.108H211.605V272.576H233.458V247.108ZM299.531 168.277H211.605V220.426H299.531V168.277ZM197.881 186.468H150.532V251.958H197.881V186.468ZM89.5904 191.32H63.1843V219.213H89.5904V191.32ZM54.3246 236.069H13.5008V298.71H54.3246V236.069V236.069ZM102.338 357.95H30.7084V437.511H102.338V357.95ZM63.1843 492.086H143.617V444.788H63.1843V492.086ZM255.311 473.894H198.791V515.129H255.313V473.894H255.311ZM392.361 432.659H340.062V494.511H392.361V432.659ZM306.302 460.718H261.381V501.953H306.302V460.718ZM349.357 379.296H283.843V453.278H349.357V379.296ZM365.791 506.639H283.843V560H365.791V506.639ZM95.0537 473.894H6.18721V553.937H95.0519V473.894H95.0537ZM385.216 272.576H324.818V319.874H385.216V272.576ZM349.357 340.49H323.208V367.477H349.357V340.49ZM6.18721 390.697H55.9745V320.294H6.18721V390.697ZM76.7643 165.852L-13 168.277V236.069H76.7643V165.852ZM401 168.277H342.725V242.256H401V168.277ZM126.858 161H102.338V214.361H126.858V161ZM396.143 353.983H336.281V402.494H396.143V353.983Z" fill="url(#paint2_linear)" stroke="#FFC700" stroke-width="1.5"/>
<rect x="504" y="328.706" width="8.86149" height="25.1423" fill="white"/>
<rect x="521.753" y="328.857" width="8.83104" height="25.1423" fill="white"/>
<rect x="512.861" y="320" width="8.89195" height="8.85765" fill="white"/>
<rect x="539.416" y="328.857" width="8.89195" height="25.1423" fill="white"/>
<rect x="530.584" y="320" width="8.83105" height="8.85765" fill="white"/>
<rect x="548.308" y="320" width="8.86149" height="8.85765" fill="white"/>
<rect x="557.169" y="327.792" width="8.83104" height="8.85766" fill="white"/>
<rect x="548.308" y="336.65" width="8.86149" height="8.82721" fill="white"/>
<rect x="40" y="390.425" width="7.57515" height="21.4449" fill="white"/>
<rect x="55.1763" y="390.555" width="7.54912" height="21.4449" fill="white"/>
<rect x="47.5752" y="383" width="7.60118" height="7.55506" fill="white"/>
<rect x="70.2747" y="390.555" width="7.60118" height="21.4449" fill="white"/>
<rect x="62.7253" y="383" width="7.54912" height="7.55506" fill="white"/>
<rect x="77.8757" y="383" width="7.57515" height="7.55506" fill="white"/>
<rect x="85.4509" y="389.646" width="7.54912" height="7.55506" fill="white"/>
<rect x="77.8757" y="397.202" width="7.57515" height="7.52909" fill="white"/>
<path d="M294.259 361.655H292.26V359.657H294.259V361.655Z" fill="#6B4E40"/>
<path d="M483.933 560.045C479.545 550.561 467.557 536.507 454.238 532.624C437.774 527.822 400.609 522.017 386.829 518.79C375.782 516.2 353.533 496.221 345.735 489.514C344.336 488.315 343.191 485.839 343.163 483.999C342.885 462.289 351.546 404.617 351.546 404.617H293.259H234.974C234.974 404.617 243.635 462.287 243.353 483.999C243.331 485.839 242.18 488.315 240.785 489.514C232.987 496.221 210.738 516.2 199.691 518.79C185.909 522.017 148.744 528.02 132.282 532.822C118.959 536.703 106.975 550.559 102.587 560.043C95.1768 576.046 93.4263 605.005 93.4263 629.985H293.259H493.092C493.092 605.007 491.339 576.048 483.933 560.045Z" fill="#F0C7B1"/>
<path d="M411.472 528.632C460.115 535.71 480.586 546.033 486.997 629.989H493.092C493.092 605.01 491.339 576.05 483.933 560.047C479.545 550.563 467.557 536.509 454.238 532.626C437.774 527.824 400.609 522.019 386.829 518.792C375.782 516.202 350.375 494.674 343.579 486.119C350.293 495.519 369.139 517.303 385.652 523.008C393.551 525.738 400.13 526.981 411.472 528.632ZM200.868 523.008C217.38 517.305 236.225 495.519 242.941 486.119C236.147 494.672 210.74 516.202 199.691 518.792C185.911 522.019 148.746 528.022 132.282 532.824C118.963 536.705 106.975 550.561 102.587 560.045C95.1808 576.048 93.4282 605.008 93.4282 629.987H99.5231C105.894 546.569 126.451 535.7 175.048 528.63C186.388 526.981 192.969 525.738 200.868 523.008Z" fill="#FFE4D6"/>
<path d="M284.558 555.733C284.558 555.733 274.419 552.517 270.404 550.979C249.523 542.967 181.688 537.776 181.688 537.776C181.688 537.776 253.136 540.611 268.903 543.329C267.988 533.803 262.874 503.354 262.874 503.354C262.874 503.354 273.164 536.956 275.682 545.433C277.028 549.965 284.558 555.733 284.558 555.733ZM306.138 553.051C305.96 553.197 305.756 553.387 305.535 553.586C305.76 553.417 305.964 553.239 306.138 553.051ZM284.558 555.733C284.558 555.733 290.339 561.712 293.245 561.788C297.062 561.889 302.893 555.994 305.537 553.586C303.009 555.499 297.226 556.366 294.925 556.456C292.268 556.558 284.558 555.733 284.558 555.733ZM326.559 540.707C323.472 541.203 317.794 542.284 317.794 542.284L322.364 512.529C321.074 518.666 313.424 544.924 306.138 553.051C309.955 549.822 318.444 548.273 322.772 547.647C343.227 544.682 343.219 544.684 404.827 537.776C404.827 537.776 346.734 537.466 326.559 540.707Z" fill="#E1AC8F"/>
<path d="M483.933 560.045C479.545 550.561 467.557 536.507 454.238 532.624C437.774 527.822 400.609 522.017 386.829 518.79C375.782 516.2 353.533 496.221 345.735 489.514C344.336 488.315 343.191 485.839 343.163 483.999C342.885 462.289 351.546 404.617 351.546 404.617H293.259H234.974C234.974 404.617 243.635 462.287 243.353 483.999C243.331 485.839 242.18 488.315 240.785 489.514C232.987 496.221 210.738 516.2 199.691 518.79C185.909 522.017 148.744 528.02 132.282 532.822C118.959 536.703 106.975 550.559 102.587 560.043C95.1768 576.046 93.4263 605.005 93.4263 629.985H293.259H493.092C493.092 605.007 491.339 576.048 483.933 560.045Z" stroke="#C27B55" stroke-width="4.5"/>
<path d="M244.334 486.655C258.28 495.727 276.921 504.268 293.263 504.268C308.906 504.268 327.924 495.657 342.138 486.545C341.848 485.69 341.673 484.822 341.661 484.019C341.409 464.281 348.345 416.034 349.806 406.118H236.712C238.171 416.036 245.109 464.281 244.854 484.017C244.844 484.844 244.652 485.758 244.334 486.655Z" fill="url(#paint3_linear)"/>
<path d="M502.626 629.796C452.522 629.303 374.247 629.774 310.673 630.01L318.194 561.607C318.972 543.87 326.801 539.244 331.008 528.545C348.039 485.237 341.249 498.097 346.966 462.331C366.334 464.996 381.423 504.329 395.602 509.521C395.576 510.376 394.94 514.325 394.091 519.307C467.352 534.48 493.092 517.994 502.626 629.796ZM280.22 561.903C278.104 555.634 269.269 546.422 265.131 540.419C258.005 530.058 252.084 519.045 243.387 493.267C243.373 492.973 241.984 470.47 239.694 460.884C228.174 466.305 230.244 475.16 212.519 495.89C208.804 500.215 201.442 501.544 194.016 505.89C193.635 510.079 193.575 513.724 193.717 517.175C175.138 519.988 123.032 531.227 104.07 545.843C95.2789 566.148 75.0858 603.798 78.2991 631.615C134.72 631.005 220.564 630.426 292.882 630.01C292.882 630.01 295.481 590.236 279.173 561.452C279.537 561.591 279.89 561.737 280.22 561.903Z" fill="#3F82A4"/>
<path d="M194.875 519.387C155.097 530.762 129.19 539.043 110.888 549.546C102.545 565.121 88.7661 587.184 81.2224 630.013C81.1185 630.015 79.288 629.827 79.1821 629.827C79.368 595.713 94.7551 568.272 104.025 546.209C124.42 529.708 168.547 521.549 193.948 517.471C194.022 517.611 194.803 519.255 194.875 519.387ZM394.17 519.659C419.571 523.737 457.11 527.986 478.342 541.475C493.08 563.706 501.179 595.102 501.365 629.215C501.261 629.215 499.43 629.403 499.324 629.401C491.783 586.573 482.688 563.045 474.345 547.47C456.043 536.966 433.022 532.95 393.243 521.575C393.315 521.445 394.097 519.801 394.17 519.659Z" fill="#5794B3"/>
<path d="M332.496 562.807C329.059 560.856 322.531 560.489 318.504 563.998C319.695 560.489 324.083 557.595 329.844 556.956C347.861 560.491 369.623 584.664 391.205 593.717C369.807 590.06 348.848 572.087 332.496 562.807ZM280.604 564.819L278.23 560.489C274.119 560.565 264.335 561.452 260.217 565.103C241.648 581.555 212.019 589.786 198.832 598.385C266.687 580.276 253.698 565.956 280.604 564.819Z" fill="#196185"/>
<path d="M324.471 558.46C321.487 559.311 318.354 561.564 318.192 561.605C318.97 543.868 326.799 539.242 331.005 528.543C348.037 485.235 341.247 498.095 346.964 462.329C350.843 462.86 354.554 465.156 358.119 468.493C355.667 487.478 350.445 502.465 342.84 519.585C351.754 514.545 361.42 508.372 370.161 503.546C351.992 519.902 330.26 534.672 324.471 558.46ZM280.22 561.903C278.104 555.634 269.269 546.422 265.131 540.419C258.005 530.058 252.084 519.045 243.387 493.267C243.373 492.973 241.984 470.47 239.694 460.884C232.408 464.309 233.019 466.789 228.162 475.092C232.074 495.329 239.982 508.194 251.196 525.02C241.636 518.717 228.291 507.944 215.084 501.346C237.334 518.028 257.327 538.795 272.343 560.904C277.216 559.419 277.404 560.494 280.22 561.903Z" fill="#2A7195"/>
<path d="M479.931 539.48C462.843 529.369 433.272 522.57 394.92 517.94C395.445 512.982 395.821 509.427 395.827 509.373C381.623 504.458 365.836 464.465 346.125 462.093C331.531 551.792 322.7 521.154 315.42 560.491C314.098 567.643 309.719 625.494 309.495 628.268C304.352 628.274 299.206 628.28 294.058 628.288C295.151 592.394 281.429 564.174 280.59 562.355C278.837 556.124 269.501 546.378 265.31 540.298C254.445 524.497 249.504 510.143 243.605 493.257C243.605 493.257 242.641 470.006 240.283 460.572C228.411 466.02 230.18 472.692 212.349 493.543C207.307 499.412 200.463 501.876 193.792 505.872C193.447 509.667 193.395 513.276 193.522 516.767C125.026 525.458 110.112 540.661 101.821 544.308C95.9461 563.338 77.1759 590.937 77 631.919C136.208 631.919 145.071 632.72 323.757 632.081C351.472 631.963 379.177 631.813 406.896 631.635C447.816 631.395 504.153 632.568 504.153 632.568C504.155 589.942 494.828 564.289 479.931 539.48ZM328.498 534.353C342.456 507.003 342.456 500.509 347.841 463.166C364.735 468.805 380.196 505.035 394.043 509.501C384.173 560.491 389.52 580.2 390.226 592.14C385.08 589.37 381.115 586.843 376.116 583.851C360.687 574.601 350.006 563.39 333.635 556.708C329.201 554.837 322.828 557.625 318.928 560.493C321.08 541.67 323.258 544.618 328.498 534.353ZM331.799 557.935C331.803 557.905 331.809 557.881 331.813 557.853C332.356 557.765 332.045 557.845 331.799 557.935ZM318.75 566.03C319.527 562.077 325.492 559.805 328.468 558.794C324.619 575.896 319.583 598.92 319.485 628.26C316.989 628.262 314.491 628.264 311.993 628.266C312.209 625.698 315.586 582.147 318.75 566.03ZM291.123 628.294C289.544 628.296 287.967 628.3 286.389 628.302C288.609 602.721 275.188 580.722 269.017 562.281C270.628 562.117 275.432 560.81 276.761 561.038C280.044 563.514 295.255 604.202 291.123 628.294ZM213.386 495.439C232.462 473.501 228.487 468.13 239.05 461.675C239.712 467.97 240.239 474.311 240.571 480.671C241.696 503.179 238.695 487.805 247.549 511C260.564 545.088 272.201 548.005 278.16 559.693C257.027 558.213 253.944 574.065 234.934 580.402C217.438 587.29 222.236 584.087 198.219 597.859C204.929 550.261 194.741 528.246 194.741 506.794C201.654 503.219 208.29 501.272 213.386 495.439ZM79.8436 629.569C83.1748 588.269 99.2354 561.582 105.822 546.972C115.104 541.005 145.84 525.14 193.59 518.208C194.262 531.393 197.437 542.925 197.693 556.036C198.169 568.578 198.119 584.173 197.187 599.464C206.08 595.383 214.623 590.518 224.525 586.958C252.111 576.955 247.373 574.747 260.58 565.628C263.744 563.422 263.266 563.394 266.02 562.705C271.146 578.665 287.326 600.467 283.619 628.304C213.188 628.448 143.083 628.883 79.8436 629.569ZM322.453 628.26C321.819 603.373 327.736 582.288 331.773 558.075C341.475 558.203 368.382 584.888 392.014 594.898C392.556 586.487 391.665 568.968 391.665 549.47C391.657 548.89 393.485 531.497 394.72 519.811C417.255 526.283 453.813 526.345 478.332 543.755C488.168 562.625 500.016 583.817 500.823 628.903C444.968 628.436 384.047 628.23 322.453 628.26Z" fill="#0A5276"/>
<path d="M187.35 327.146C184.6 322.244 176.083 310.2 167.406 313.152C161.913 315.02 160.826 321.131 159.943 326.527C158.768 333.703 160.884 347.897 162.718 353.025C164.479 357.954 169.778 367.472 173.238 371.099C177.494 375.546 182.78 389.732 183.617 391.205C184.936 393.527 186.686 397.022 191.854 396.584C197.555 396.096 201.014 392.887 203.556 392.346C209.835 391.015 194.506 339.906 187.35 327.146Z" fill="#F0C7B1" stroke="#C27B55" stroke-width="4.5"/>
<path d="M181.746 356.867C181.483 355.706 181.76 353.75 182.03 351.864C182.278 350.143 182.51 348.516 182.368 347.365C181.834 343.061 178.825 334.878 176.858 330.446C174.596 325.342 170.937 318.915 166.343 317.259C164.445 316.573 163.196 317.393 162.471 318.226C161.939 318.835 161.821 319.555 161.995 319.639C162.167 319.723 162.564 319.131 163.138 318.57C163.608 318.112 164.295 317.718 165.238 317.8C164.859 319.944 162.906 331.555 163.751 339.472C164.417 345.697 166.935 350.347 167.328 351.044C167.386 351.778 167.482 352.495 167.624 353.193C169.481 362.279 177.558 372.61 180.37 375.991C180.887 376.617 181.431 376.985 181.565 376.837C181.696 376.685 181.377 376.063 180.859 375.438C178.085 372.083 170.086 361.787 168.292 353.021C166.389 343.716 172.924 329.928 174.383 327.008C175.124 328.377 175.755 329.694 176.241 330.791C176.621 331.653 177.044 332.662 177.478 333.747C176.621 335.27 170.616 346.376 172.806 355.263C173.617 358.542 177.272 362.767 179.694 363.922C181.027 364.561 181.531 365.514 182.11 366.617C182.782 367.896 183.545 369.345 185.763 370.398C186.213 370.614 186.62 370.7 186.982 370.7C187.607 370.7 188.083 370.43 188.431 370.114C188.467 370.674 188.465 371.393 188.449 372.053C188.425 372.914 188.533 373.617 188.723 373.633C188.91 373.649 189.114 372.97 189.136 372.115C189.168 371.064 189.162 369.763 188.992 369.141C188.497 367.309 186.978 365.238 185.369 363.05C183.793 360.888 182.158 358.664 181.746 356.867ZM167.265 348.812C162.914 334.546 168.575 322.234 169.551 320.276C171.249 321.919 172.748 324.111 173.967 326.261C173.08 327.976 167.446 339.216 167.265 348.812ZM186.031 369.679C184.024 368.73 183.355 367.451 182.702 366.216C182.116 365.099 181.507 363.946 179.966 363.208C179.63 363.046 179.262 362.802 178.883 362.523C173.915 350.007 179.426 344.536 180.807 343.415C181.229 344.945 181.545 346.348 181.684 347.473C181.81 348.506 181.581 350.149 181.351 351.738C181.067 353.706 180.779 355.742 181.077 357.061C181.529 359.024 183.213 361.32 184.842 363.54C186.287 365.51 187.771 367.543 188.281 369.199C188.065 369.527 187.382 370.32 186.031 369.679Z" fill="#C27B55"/>
<path d="M398.643 327.146C401.394 322.244 409.911 310.2 418.586 313.152C424.081 315.02 425.167 321.131 426.052 326.527C427.227 333.703 425.111 347.897 423.276 353.025C421.516 357.954 416.216 367.472 412.753 371.099C408.499 375.546 403.211 389.732 402.376 391.205C401.061 393.527 399.308 397.022 394.141 396.584C388.437 396.096 384.98 392.887 382.436 392.346C376.158 391.015 391.489 339.906 398.643 327.146Z" fill="#F0C7B1" stroke="#C27B55" stroke-width="4.5"/>
<path d="M400.623 363.046C399.015 365.237 397.498 367.305 397 369.137C396.828 369.759 396.824 371.06 396.856 372.111C396.88 372.966 397.082 373.646 397.27 373.63C397.458 373.614 397.566 372.91 397.544 372.049C397.528 371.387 397.528 370.67 397.564 370.11C397.911 370.426 398.387 370.696 399.013 370.696C399.376 370.696 399.782 370.61 400.23 370.394C402.446 369.343 403.211 367.892 403.882 366.613C404.46 365.51 404.968 364.559 406.298 363.918C408.722 362.763 412.375 358.538 413.187 355.259C415.377 346.372 409.374 335.266 408.515 333.743C408.948 332.656 409.374 331.647 409.752 330.787C410.239 329.69 410.869 328.373 411.61 327.005C413.069 329.922 419.603 343.713 417.703 353.017C415.912 361.783 407.911 372.079 405.135 375.434C404.62 376.059 404.3 376.681 404.432 376.833C404.564 376.981 405.107 376.615 405.627 375.988C408.437 372.606 416.516 362.275 418.374 353.189C418.514 352.489 418.608 351.774 418.666 351.04C419.06 350.343 421.582 345.693 422.245 339.468C423.088 331.553 421.136 319.94 420.758 317.796C421.704 317.712 422.385 318.108 422.859 318.566C423.432 319.127 423.83 319.719 424.002 319.635C424.173 319.551 424.056 318.831 423.526 318.222C422.801 317.389 421.552 316.569 419.653 317.255C415.059 318.913 411.398 325.338 409.138 330.442C407.172 334.874 404.162 343.057 403.627 347.362C403.483 348.513 403.717 350.139 403.966 351.86C404.236 353.748 404.512 355.705 404.248 356.864C403.839 358.664 402.204 360.888 400.623 363.046ZM412.028 326.259C413.249 324.111 414.747 321.917 416.446 320.274C417.421 322.233 423.08 334.544 418.734 348.81C418.548 339.216 412.917 327.976 412.028 326.259ZM397.712 369.199C398.219 367.543 399.706 365.51 401.151 363.54C402.781 361.32 404.464 359.024 404.918 357.061C405.213 355.742 404.926 353.706 404.644 351.738C404.414 350.149 404.184 348.507 404.312 347.473C404.448 346.348 404.766 344.944 405.187 343.415C406.568 344.536 412.08 350.007 407.116 362.523C406.734 362.803 406.366 363.048 406.031 363.208C404.49 363.946 403.884 365.099 403.295 366.216C402.643 367.451 401.972 368.73 399.966 369.679C398.613 370.32 397.929 369.527 397.712 369.199Z" fill="#C27B55"/>
<path d="M293.263 162.556C226.083 162.662 171.525 217.848 171.629 285.839C171.647 296.636 173.036 307.105 175.629 317.081H175.631C175.655 317.189 196.192 379.896 201.506 405.117C206.262 427.694 227.402 446.007 236.916 455.987C247.847 467.461 261.51 484.437 293.263 484.287C325.014 484.437 338.679 467.461 349.61 455.987C359.124 446.007 380.264 427.694 385.02 405.117C390.334 379.896 410.873 317.191 410.893 317.081H410.897C413.49 307.105 414.881 296.636 414.897 285.839C415.003 217.848 360.443 162.662 293.263 162.556Z" fill="#F0C7B1"/>
<path d="M360.143 182.931C389.327 205.306 408.365 241.856 408.303 283.157C408.287 293.954 406.976 304.425 404.522 314.399H404.518C404.496 314.507 385.074 377.211 380.047 402.429C375.548 425.011 355.555 443.319 346.555 453.303C336.217 464.777 323.294 481.753 293.265 481.603C263.234 481.753 250.311 464.777 239.974 453.303C230.977 443.319 210.982 425.011 206.484 402.429C201.456 377.211 182.034 314.507 182.01 314.399H182.008C179.554 304.423 178.241 293.954 178.225 283.157C178.165 241.856 197.204 205.306 226.387 182.933C193.371 204.997 171.567 242.847 171.633 285.839C171.651 296.636 173.04 307.105 175.634 317.081H175.636C175.66 317.189 196.196 379.896 201.51 405.117C206.266 427.694 227.406 446.007 236.92 455.987C247.851 467.461 261.514 484.437 293.267 484.287C325.019 484.437 338.683 467.461 349.614 455.987C359.128 446.007 380.268 427.694 385.024 405.117C390.338 379.896 410.877 317.191 410.897 317.081H410.901C413.495 307.105 414.885 296.636 414.901 285.839C414.963 242.847 393.16 204.995 360.143 182.931Z" fill="#E8B9A0"/>
<path d="M293.263 162.556C226.083 162.662 171.525 217.848 171.629 285.839C171.647 296.636 173.036 307.105 175.629 317.081H175.631C175.655 317.189 196.192 379.896 201.506 405.117C206.262 427.694 227.402 446.007 236.916 455.987C247.847 467.461 261.51 484.437 293.263 484.287C325.014 484.437 338.679 467.461 349.61 455.987C359.124 446.007 380.264 427.694 385.02 405.117C390.334 379.896 410.873 317.191 410.893 317.081H410.897C413.49 307.105 414.881 296.636 414.897 285.839C415.003 217.848 360.443 162.662 293.263 162.556Z" stroke="#C27B55" stroke-width="4.5"/>
<path d="M293.225 448.92C286.75 448.92 283.727 443.325 283.727 443.325C283.727 443.325 293.313 444.884 302.269 443.191C302.269 443.191 298.918 448.92 293.225 448.92Z" fill="url(#paint4_linear)"/>
<path d="M292.997 437.991C276.067 437.991 268.523 432.78 261.989 426.001H324.007C318.581 432.94 310.662 437.991 292.997 437.991Z" fill="white"/>
<path d="M292.997 437.991C276.067 437.991 268.523 432.78 261.989 426.001H324.007C318.581 432.94 310.662 437.991 292.997 437.991Z" stroke="#C27B55" stroke-width="2.25"/>
<path d="M246.762 317.458C255.928 318.815 262.61 324.428 268.29 333.325C268.298 333.335 268.316 333.333 268.326 333.341C268.34 333.395 268.368 333.447 268.378 333.501C268.887 335.513 266.747 337.136 264.071 338.373C254.537 339.59 245.369 341.348 235.707 340.111C216.361 337.631 216.013 329.102 215.072 326.864C214.569 324.664 214.423 324.033 214.451 321.922C219.111 319.193 222.53 318.631 226.149 317.916C230.393 317.08 239.84 316.429 246.762 317.458Z" fill="url(#paint5_radial)"/>
<path d="M253.792 328.683C253.792 335.303 248.423 340.671 241.802 340.671C235.182 340.671 229.812 335.303 229.812 328.683C229.812 322.056 235.182 316.691 241.802 316.691C248.423 316.691 253.792 322.058 253.792 328.683Z" fill="#7B5C33"/>
<path d="M234.832 334.288C236.58 334.144 235.032 333.677 235.032 333.677C234.166 333.211 232.538 332.494 232.538 331.836C232.538 329.776 235.363 329.241 232.47 328.429C229.464 325.672 234.802 325.728 234.762 325.636C232.814 320.888 235.359 323.495 236.43 322.093C240.403 316.899 237.538 322.626 239.694 322.093C240.475 321.901 238.135 319.033 239.762 319.435C240.839 319.699 241.085 320.594 241.085 320.594C241.87 320.44 243.099 319.231 243.099 319.231C244.596 319.683 245.647 321.809 245.183 321.411C245.919 321.321 246.95 320.97 247.753 320.73C247.753 320.73 247.893 320.252 248.031 320.664C249.863 325.981 254.593 325.6 249.148 327.138C249.148 327.138 248.796 327.138 249.911 328.022C255.327 332.346 245.711 331.009 250.812 332.997C251.02 332.79 247.755 334.926 247.755 335.517C247.755 336.518 245.673 339.15 243.866 338.115C242.859 337.54 242.705 339.314 242.114 338.495C240.953 336.89 238.633 338.425 239.49 336.95C240.757 335.909 238.183 337.358 237.683 337.358C236.029 337.358 239.848 331.796 245.465 335.929C247.108 337.132 243.738 333.065 246.714 333.065C247.012 333.163 246.922 332.024 246.922 331.703C245.375 331.401 249.699 331.697 249.699 329.181C249.973 329.235 250.717 328.481 246.432 329.181C246.432 329.181 246.296 327.682 246.364 327.41C246.584 326.535 248.79 326.815 248.171 325.911C248.171 325.909 246.574 322.706 246.574 322.706C241.432 321.879 244.372 321.363 241.157 322.025C241.005 322.78 234.272 325.989 234.486 327.478C234.686 328.881 238.713 329.352 234.902 331.838C240.613 342.773 230.685 331.589 234.832 334.288Z" fill="#8A6D47"/>
<path d="M241.802 318.189L242.144 326.968L245.815 318.989L242.771 327.228L249.22 321.263L243.255 327.709L251.496 324.666L243.519 328.341L252.295 328.681L243.519 329.02L251.496 332.695L243.255 329.652L249.22 336.098L242.771 330.133L245.815 338.373L242.144 330.393L241.802 339.172L241.461 330.393L237.788 338.373L240.829 330.133L234.382 336.098L240.347 329.652L232.106 332.695L240.084 329.02L231.311 328.681L240.084 328.341L232.106 324.666L240.347 327.709L234.382 321.263L240.829 327.228L237.788 318.989L241.461 326.968L241.802 318.189Z" fill="#5C3D14"/>
<path d="M243.393 320.823L242.316 327.448L246.274 322.03L242.745 327.74L248.481 324.247L243.035 328.171L249.668 327.142L243.137 328.683L249.664 330.27L243.035 329.194L248.455 333.155L242.743 329.628L246.236 335.361L242.312 329.916L243.343 336.548L241.802 330.014L240.213 336.536L241.291 329.912L237.326 335.329L240.859 329.62L235.126 333.113L240.571 329.188L233.939 330.22L240.471 328.679L233.949 327.094L240.573 328.167L235.154 324.207L240.865 327.734L237.374 322L241.299 327.446L240.267 320.815L241.81 327.35L243.393 320.823Z" fill="#4D3009"/>
<path opacity="0.9" d="M246.298 328.683C246.298 331.167 244.284 333.179 241.802 333.179C239.32 333.179 237.306 331.167 237.306 328.683C237.306 326.199 239.32 324.187 241.802 324.187C244.284 324.187 246.298 326.199 246.298 328.683Z" fill="black"/>
<path opacity="0.7" d="M237.08 337.298C236.419 337.961 235.112 337.727 234.163 336.776C233.211 335.827 232.978 334.52 233.641 333.857C234.302 333.195 235.609 333.429 236.559 334.378C237.51 335.329 237.744 336.634 237.08 337.298Z" fill="white"/>
<path opacity="0.9" d="M251.406 326.321C250.415 327.312 248.015 326.52 246.046 324.55C244.076 322.58 243.285 320.18 244.276 319.189C245.267 318.197 247.667 318.989 249.635 320.959C251.606 322.931 252.397 325.329 251.406 326.321Z" fill="white"/>
<path d="M203.558 327.849C210.001 350.461 218.496 374.436 238.899 375.148C259.301 375.859 283.132 360.682 283.441 330.709C283.787 297.203 262.511 283.986 242.108 283.275C221.705 282.563 193.956 294.14 203.558 327.849ZM215.074 326.864C214.571 324.664 214.425 324.033 214.453 321.922C218.504 319.504 222.526 318.831 226.145 318.116C230.388 317.28 239.84 316.427 246.762 317.458C255.928 318.815 262.611 324.428 268.29 333.325C268.298 333.335 268.316 333.333 268.326 333.341C268.34 333.395 268.368 333.447 268.378 333.501C268.887 335.513 266.747 337.136 264.071 338.373C254.537 339.59 245.369 341.348 235.707 340.111C216.361 337.631 216.014 329.102 215.074 326.864Z" fill="#F0C7B1"/>
<path d="M241.752 351.006C260.249 353.806 277.416 344.991 280.092 331.304C282.77 317.618 269.956 304.253 251.458 301.449C232.957 298.654 215.798 307.468 213.12 321.157C210.442 334.841 223.251 348.198 241.752 351.006ZM214.451 321.922C218.697 319.642 222.524 318.831 226.143 318.115C230.386 317.28 239.838 316.427 246.76 317.458C255.926 318.815 262.609 324.428 268.288 333.325C268.296 333.335 268.314 333.333 268.324 333.341C268.338 333.395 268.366 333.447 268.376 333.501C268.885 335.513 266.745 337.136 264.069 338.373C254.535 339.59 245.367 341.348 235.705 340.111C216.359 337.631 216.012 329.102 215.07 326.864C214.569 324.664 214.425 324.031 214.451 321.922Z" fill="url(#paint6_radial)"/>
<path d="M215.074 326.864C214.571 324.664 214.425 324.032 214.453 321.922C218.633 319.574 222.526 318.831 226.145 318.115C230.388 317.28 239.84 316.427 246.762 317.458C255.928 318.815 262.611 324.428 268.29 333.325C268.298 333.335 268.316 333.333 268.326 333.341C268.34 333.395 268.368 333.447 268.378 333.501C268.887 335.513 266.747 337.135 264.071 338.372C254.537 339.589 245.369 341.348 235.707 340.111C216.361 337.631 216.014 329.102 215.074 326.864Z" fill="url(#paint7_radial)"/>
<path d="M245.953 312.193C252.535 313.27 258.952 316.297 264.897 320.076C266.17 320.883 267.626 321.805 269.935 322.976C268.28 322.6 266.749 321.743 265.32 320.955C266.791 322.35 268.162 324.011 269.281 325.619C264.243 319.307 254.699 314.553 246.58 312.932C238.783 311.375 224.62 312.404 214.105 317.013C223.733 311.595 237.779 310.858 245.953 312.193Z" fill="#C27B55"/>
<path d="M268.296 333.233C262.607 324.56 255.92 319.081 246.752 317.752C237.094 316.343 224.229 317.31 216.709 321.435C216.094 321.773 213.498 323.931 213.909 321.669C215.656 319.337 222.546 316.627 225.885 315.818C263.344 306.739 270.442 336.384 268.296 333.233ZM214.617 326.367C213.186 330.489 216.337 339.664 234.89 341.36C248.069 342.563 266.398 337.863 264.133 338.137C254.583 339.314 245.399 341.033 235.719 339.814C213.774 337.056 216.26 326.731 214.617 326.367Z" fill="black"/>
<path d="M338.955 317.458C329.79 318.815 323.106 324.428 317.427 333.325C317.419 333.335 317.403 333.333 317.391 333.341C317.379 333.395 317.351 333.447 317.341 333.501C316.829 335.513 318.969 337.136 321.645 338.373C331.179 339.59 340.347 341.348 350.009 340.111C369.355 337.631 369.703 329.102 370.642 326.864C371.148 324.664 371.292 324.033 371.266 321.922C366.607 319.193 363.186 318.631 359.567 317.916C355.325 317.08 345.879 316.429 338.955 317.458Z" fill="url(#paint8_radial)"/>
<path d="M356.706 328.681C356.706 335.307 351.342 340.671 344.716 340.671C338.09 340.671 332.726 335.307 332.726 328.681C332.726 322.054 338.09 316.691 344.716 316.691C351.342 316.691 356.706 322.054 356.706 328.681Z" fill="#7B5C33"/>
<path d="M337.738 334.29C339.494 334.138 337.948 333.681 337.948 333.681C337.08 333.213 335.442 332.498 335.442 331.83C335.442 329.77 338.275 329.243 335.396 328.423C332.374 325.672 337.714 325.73 337.668 325.636C335.724 320.882 338.277 323.493 339.354 322.089C343.311 316.901 340.456 322.628 342.61 322.089C343.383 321.901 341.041 319.033 342.68 319.431C343.757 319.701 343.991 320.59 343.991 320.59C344.786 320.438 346.005 319.231 346.005 319.231C347.504 319.677 348.557 321.807 348.089 321.409C348.839 321.315 349.87 320.964 350.665 320.73C350.665 320.73 350.805 320.25 350.947 320.66C352.773 325.975 357.503 325.602 352.072 327.134C352.072 327.134 351.72 327.134 352.821 328.012C358.231 332.344 348.629 330.997 353.734 332.987C353.944 332.788 350.667 334.92 350.667 335.517C350.667 336.512 348.583 339.146 346.78 338.105C345.773 337.532 345.609 339.312 345.024 338.491C343.877 336.886 341.535 338.421 342.4 336.946C343.665 335.905 341.089 337.356 340.597 337.356C338.935 337.356 342.752 331.794 348.373 335.927C350.012 337.122 346.64 333.057 349.638 333.057C349.92 333.151 349.848 332.016 349.848 331.699C348.279 331.395 352.611 331.687 352.611 329.169C352.893 329.227 353.643 328.477 349.356 329.169C349.356 329.169 349.216 327.67 349.286 327.4C349.496 326.523 351.698 326.803 351.089 325.901L349.496 322.694C344.344 321.875 347.294 321.359 344.063 322.015C343.923 322.776 337.178 325.983 337.388 327.47C337.598 328.875 341.627 329.344 337.81 331.826C343.521 342.779 333.593 331.585 337.738 334.29Z" fill="#8A6D47"/>
<path d="M344.716 318.189L345.068 326.972L348.721 318.987L345.677 327.23L352.14 321.259L346.169 327.711L354.412 324.668L346.426 328.345L355.209 328.685L346.426 329.024L354.412 332.701L346.169 329.658L352.14 336.11L345.677 330.139L348.721 338.383L345.068 330.397L344.716 339.172L344.364 330.389L340.687 338.375L343.731 330.131L337.29 336.102L343.261 329.65L335.018 332.693L343.003 329.016L334.221 328.677L343.003 328.337L335.018 324.66L343.261 327.703L337.29 321.251L343.731 327.222L340.687 318.979L344.364 326.964L344.716 318.189Z" fill="#5C3D14"/>
<path d="M346.309 320.823L345.232 327.45L349.188 322.028L345.651 327.742L351.388 324.241L345.955 328.175L352.581 327.144L346.047 328.679L352.581 330.271L345.955 329.194L351.364 333.151L345.651 329.626L349.14 335.363L345.23 329.918L346.261 336.544L344.716 330.016L343.123 336.538L344.2 329.912L340.244 335.333L343.781 329.62L338.044 333.121L343.477 329.186L336.851 330.218L343.385 328.683L336.851 327.09L343.477 328.167L338.068 324.211L343.781 327.736L340.292 321.998L344.202 327.444L343.171 320.817L344.716 327.352L346.309 320.823Z" fill="#4D3009"/>
<path opacity="0.9" d="M349.212 328.681C349.212 331.163 347.198 333.177 344.716 333.177C342.234 333.177 340.22 331.163 340.22 328.681C340.22 326.199 342.234 324.185 344.716 324.185C347.198 324.185 349.212 326.199 349.212 328.681Z" fill="black"/>
<path opacity="0.7" d="M339.986 337.3C339.331 337.955 338.02 337.733 337.083 336.772C336.123 335.823 335.888 334.524 336.567 333.856C337.222 333.201 338.533 333.435 339.471 334.384C340.43 335.331 340.666 336.632 339.986 337.3Z" fill="white"/>
<path opacity="0.9" d="M354.318 326.315C353.335 327.31 350.923 326.525 348.954 324.546C346.988 322.58 346.191 320.178 347.198 319.195C348.181 318.199 350.571 318.985 352.537 320.963C354.528 322.932 355.301 325.332 354.318 326.315Z" fill="white"/>
<path d="M343.611 283.275C323.206 283.986 301.932 297.203 302.276 330.709C302.583 360.684 326.413 375.861 346.818 375.148C367.221 374.437 379.165 340.531 382.159 327.85C390.212 293.736 364.014 282.563 343.611 283.275ZM350.01 340.111C340.348 341.348 331.179 339.59 321.645 338.373C318.97 337.138 316.829 335.515 317.341 333.501C317.353 333.447 317.381 333.395 317.391 333.341C317.403 333.333 317.419 333.335 317.427 333.325C323.108 324.428 329.793 318.815 338.955 317.458C345.879 316.427 355.331 317.28 359.574 318.116C363.193 318.829 367.215 319.502 371.266 321.922C371.294 324.031 371.148 324.664 370.642 326.864C369.705 329.102 369.355 337.631 350.01 340.111Z" fill="#F0C7B1"/>
<path d="M372.599 321.157C369.921 307.468 352.759 298.654 334.259 301.449C315.76 304.253 302.947 317.618 305.627 331.304C308.302 344.991 325.47 353.806 343.967 351.006C362.467 348.198 375.276 334.841 372.599 321.157ZM370.644 326.864C369.705 329.104 369.355 337.631 350.012 340.111C340.35 341.348 331.181 339.59 321.647 338.373C318.972 337.138 316.831 335.515 317.343 333.501C317.355 333.447 317.383 333.395 317.393 333.341C317.405 333.333 317.421 333.335 317.429 333.325C323.11 324.428 329.794 318.815 338.957 317.458C345.881 316.427 355.333 317.28 359.576 318.115C363.195 318.829 367.023 319.642 371.268 321.922C371.294 324.031 371.15 324.664 370.644 326.864Z" fill="url(#paint9_radial)"/>
<path d="M370.645 326.865C371.15 324.664 371.294 324.033 371.268 321.923C367.087 319.575 363.195 318.831 359.576 318.116C355.333 317.281 345.879 316.427 338.957 317.458C329.793 318.815 323.108 324.429 317.429 333.325C317.421 333.335 317.405 333.333 317.393 333.341C317.381 333.395 317.353 333.447 317.343 333.501C316.832 335.513 318.972 337.136 321.648 338.373C331.182 339.59 340.35 341.348 350.012 340.111C369.356 337.632 369.705 329.103 370.645 326.865Z" fill="url(#paint10_radial)"/>
<path d="M339.766 312.193C333.182 313.27 326.765 316.297 320.822 320.076C319.549 320.883 318.09 321.805 315.784 322.976C317.439 322.6 318.97 321.743 320.398 320.955C318.928 322.35 317.557 324.011 316.438 325.619C321.475 319.307 331.019 314.553 339.137 312.932C346.934 311.375 361.096 312.404 371.613 317.013C361.984 311.595 347.937 310.858 339.766 312.193Z" fill="#C27B55"/>
<path d="M359.832 315.819C363.173 316.629 370.061 319.338 371.81 321.67C372.219 323.933 369.623 321.774 369.008 321.437C361.486 317.312 348.623 316.345 338.967 317.754C329.799 319.083 323.108 324.562 317.423 333.235C315.277 336.384 322.375 306.739 359.832 315.819ZM350.002 339.813C340.322 341.032 331.14 339.314 321.588 338.137C319.321 337.863 337.65 342.563 350.829 341.36C369.382 339.663 372.533 330.489 371.102 326.367C369.457 326.73 371.945 337.056 350.002 339.813Z" fill="black"/>
<path d="M375.19 388.581C375.26 433.787 338.637 470.5 293.383 470.562C248.137 470.636 211.395 434.047 211.326 388.831C211.256 343.628 247.879 306.771 293.131 306.699C338.379 306.629 375.124 343.369 375.19 388.581Z" fill="url(#paint11_radial)"/>
<path d="M368.196 268.731C368.196 310.119 334.646 343.669 293.261 343.669C251.873 343.669 218.322 310.119 218.322 268.731C218.322 227.344 251.873 193.794 293.261 193.794C334.646 193.794 368.196 227.344 368.196 268.731Z" fill="url(#paint12_radial)"/>
<path d="M198.314 308.44C213.252 289.689 238.956 292.809 260.019 295.822C265.376 296.59 270.892 297.165 276.145 298.492C279.91 299.441 282.87 303.732 279.844 307.197C278.429 308.845 275.342 308.54 273.436 308.5C248.215 307.99 219.707 293.486 198.314 308.44Z" fill="#2A232B"/>
<path d="M388.334 307.681C384.009 304.787 379.433 302.745 374.259 301.908C355.281 298.83 319.133 311.48 309.631 308.802C303.812 307.159 304.989 301.33 307.563 299.893C309.112 299.028 309.541 299.05 323.368 296.672C346.862 292.635 373.168 289.426 388.334 307.681Z" fill="#2A232B"/>
<path d="M286.926 337.723C286.926 337.723 284.13 359.939 282.877 364.263C280.122 373.759 270.552 387.078 272.408 393.097C276.123 405.131 287.47 402.075 293.439 402.031C298.96 401.987 309.569 405.133 311.747 397.295C312.451 394.765 310.866 388.371 310.866 388.371C310.866 388.371 305.582 394.59 293.131 393.9C289.578 393.702 283.797 389.712 283.731 384.084C283.645 376.457 287.332 370.026 288.137 362.454C288.745 356.703 286.926 337.723 286.926 337.723Z" fill="#E1AC8F"/>
<path d="M303.639 398.562C305.787 398.562 306.368 399.213 306.368 400.019C306.368 400.826 305.699 402.069 303.639 401.478C301.372 400.832 297.418 401.128 297.418 401.128C297.418 401.128 301.486 398.562 303.639 398.562ZM283.112 398.562C280.96 398.564 280.382 399.217 280.382 400.027C280.38 400.832 281.027 401.991 283.112 401.484C285.41 400.92 289.331 401.134 289.331 401.134C289.331 401.134 285.264 398.57 283.112 398.562ZM310.864 388.371C310.864 388.371 313.84 392.233 313.223 396.314C312.621 400.277 306.608 402.031 306.608 402.031C306.608 402.031 310.783 399.002 311.288 395.325C311.524 393.6 310.864 388.371 310.864 388.371ZM274.129 384.402C274.129 384.402 271.959 389.805 272.587 393.099C273.728 399.046 279.988 401.42 279.988 401.42C279.988 401.42 276.082 397.345 274.693 393.742C273.172 389.805 274.129 384.402 274.129 384.402Z" fill="#C27B55"/>
<path d="M303.532 391.252C305.617 389.476 305.826 388.462 305.395 387.797C304.965 387.13 303.714 386.708 301.97 388.852C300.045 391.21 295.863 392.957 295.863 392.957C295.863 392.957 301.448 393.025 303.532 391.252Z" fill="#FFE4D6"/>
<path d="M238.145 481.075C226.535 473.642 211.807 458.874 206.372 451.56C191.065 431.997 197.06 415.69 189.326 381.319C185.369 366.331 178.815 344.35 178.016 338.854C179.854 339.134 189.566 340.453 191.205 340.713C193.603 359.477 214.765 372.846 218.382 411.434C221.559 435.693 233.549 447.444 253.173 459.553C261.486 464.709 277.512 473.102 281.309 464.03C284.387 456.696 279.111 441.808 291.9 439.39C294.558 438.911 300.253 439.95 302.431 444.886C305.929 452.799 300.613 467.986 311.944 467.986C323.694 467.986 343.957 452.899 349.612 447.683C371.813 429.459 364.559 407.377 374.751 383.197C386.521 357.139 390.178 360.496 395.274 340.693C396.653 340.553 407.064 339.034 408.463 338.854C400.13 372.786 393.515 389.232 392.636 410.714C391.057 442.628 381.465 452.679 359.923 472.363C347.873 482.734 332.926 492.985 295.238 494.504C284.407 495.224 253.492 491.167 238.145 481.075Z" fill="#6B4E40"/>
<path d="M284.027 445.206C285.266 442.308 287.544 440.03 291.88 439.211C294.598 438.731 300.433 439.81 302.631 444.826C302.711 444.986 302.751 445.166 302.811 445.326C299.434 448.303 294.258 465.369 284.027 445.206ZM375.191 444.586C359.064 473.242 330.108 489.049 298.375 489.149C295.877 489.289 291.301 489.349 288.163 489.149C256.41 489.049 227.454 473.242 211.328 444.586C192.883 416.929 196.56 382.458 181.533 353.762C183.911 362.395 186.928 372.926 189.146 381.379C196.88 415.73 190.885 432.097 206.232 451.7C211.847 459.254 226.535 473.882 238.045 481.256C252.653 490.847 280.93 494.984 293.259 494.804C305.589 494.984 333.885 490.867 348.473 481.256C359.983 473.882 374.671 459.254 380.286 451.7C395.634 432.097 389.639 415.73 397.372 381.379C399.59 372.926 402.608 362.395 404.986 353.762C389.958 382.458 393.635 416.929 375.191 444.586Z" fill="#5C3D2E"/>
<path d="M395.134 340.533C390.038 360.456 386.401 357.019 374.591 383.157C364.34 407.457 371.673 429.379 349.492 447.584C343.937 452.699 320.356 470.384 309.286 467.507C301.632 464.669 305.888 452.22 302.631 444.846C300.433 439.83 294.598 438.751 291.88 439.231C278.971 441.669 284.187 456.756 281.149 463.99C277.412 472.882 261.446 464.469 253.292 459.414C233.149 446.984 221.679 434.934 218.601 411.434C214.965 372.646 193.702 359.357 191.404 340.553C191.204 340.513 178.015 338.715 177.796 338.635C178.415 343.651 185.09 366.012 189.146 381.379C196.88 415.73 190.885 432.097 206.232 451.7C211.847 459.254 226.535 473.882 238.045 481.255C253.512 491.427 284.326 495.463 295.277 494.724C332.786 493.205 347.913 482.994 360.083 472.523C381.985 452.499 391.297 442.528 392.856 410.734C393.735 389.192 400.309 373.026 408.742 338.635C408.642 338.635 395.613 340.533 395.134 340.533ZM389.498 410.355C386.841 442.428 380.326 449.382 358.604 469.185C343.157 482.514 326.851 490.128 293.179 492.526C278.152 491.387 251.434 486.491 238.825 477.638C225.716 468.766 212.207 453.778 208.71 449.022C194.282 430.498 201.196 413.452 192.004 380.72C185.989 361.815 182.991 355.74 178.135 339.194C180.134 339.474 184.87 340.433 191.244 341.053C193.942 362.375 212.267 372.966 215.564 411.674C216.263 416.31 217.103 425.382 223.617 436.193C226.935 441.788 231.251 446.784 235.008 449.882C246.178 460.193 283.327 484.633 283.847 458.095C283.927 450.861 282.928 440.929 293.279 439.41C310.724 441.888 295.797 465.489 308.786 469.605C321.216 473.102 362.981 451.84 369.555 419.687C372.952 407.637 367.817 399.044 386.541 363.714C391.497 354.721 393.915 350.585 395.294 341.053C397.752 340.813 406.744 339.654 408.403 339.174C401.009 364.034 390.877 386.854 389.498 410.355Z" fill="#3D2012"/>
<path d="M332.706 427.02C305.788 427.02 296.816 419.587 293.299 418.667C290.062 419.387 280.609 428.119 250.315 426.88C249.416 426.84 248.197 426.801 247.457 426.641C241.083 421.905 241.462 413.931 253.732 410.834C265.162 408.536 277.652 400.822 293.599 400.822C307.067 400.822 314.321 405.718 332.806 410.874C337.742 412.233 342.398 413.532 343.177 420.206C342.897 422.744 341.498 424.902 338.901 426.721C337.742 426.9 335.444 427.02 332.706 427.02Z" fill="#6B4E40"/>
<path d="M285.006 415.41C287.404 412.932 289.342 409.135 291.001 407.417C289.282 410.015 288.363 413.092 285.006 415.41ZM285.345 407.097C280.889 413.132 280.529 413.352 275.014 419.427C280.809 415.011 282.428 412.453 285.345 407.097ZM277.352 410.414C269.978 416.329 270.897 414.851 264.703 420.066C272.936 415.39 274.614 413.392 277.352 410.414ZM268.679 412.413C260.666 417.389 266.501 413.971 254.032 422.744C259.327 420.346 259.067 420.686 268.679 412.413ZM259.367 415.41C255.43 417.169 251.574 419.207 248.037 421.745C252.013 420.066 255.77 417.868 259.367 415.41ZM295.517 407.417C297.295 410.115 298.235 413.152 301.512 415.41C299.014 412.852 297.415 409.375 295.517 407.417ZM301.172 407.097C304.669 413.572 306.388 415.55 311.503 419.427C305.968 413.332 305.628 413.112 301.172 407.097ZM309.165 410.414C311.224 412.673 312.643 414.891 321.815 420.066C317.678 416.589 314.821 414.951 309.165 410.414ZM317.838 412.413C326.851 420.166 326.991 420.246 332.486 422.744C324.752 417.309 323.414 415.89 317.838 412.413ZM327.15 415.41C330.608 417.788 334.444 420.046 338.481 421.745C334.904 419.187 331.027 417.129 327.15 415.41Z" fill="#5C3D2E"/>
<path d="M332.046 410.454C312.763 405.858 300.573 394.548 272.057 404.799C268.14 406.118 256.789 410.035 253.692 410.654C252.193 411.034 250.535 411.394 248.836 412.193C243.481 414.811 240.023 421.405 247.417 426.841C248.257 427.02 249.715 427.06 250.635 427.1C280.53 428.239 290.122 419.687 293.239 418.867C294.578 419.207 294.957 419.487 296.236 420.166C308.906 427.32 333.725 427.78 339.041 426.881C341.479 425.182 343.097 423.044 343.397 420.186C342.558 413.012 337.382 411.953 332.046 410.454ZM296.077 418.168C290.721 416.03 291.101 419.846 274.155 422.704C260.326 424.762 249.376 424.962 247.377 424.822C245.998 423.244 244.799 421.285 245.599 419.347C248.376 413.811 246.418 416.569 273.076 407.537C302.591 396.826 294.238 403.44 332.126 413.532C339.9 415.53 339.5 416.609 340.939 419.407C341.698 421.325 340.479 423.284 339.121 424.822C333.825 425.142 310.524 423.883 296.077 418.168Z" fill="#4C2D1E"/>
<path d="M191.652 362.633C175.438 334.382 164.88 305.65 157.515 269.802C150.52 234.438 173.953 196.709 198.682 176.622C228.949 151.947 277.482 141.799 304.739 141.799C319.563 141.799 341.607 145.82 353.529 149.547C367.631 153.661 385.328 164.648 393.511 179.568C399.013 175.893 401.526 173.705 405.975 168.083C403.351 174.328 401.986 176.229 394.6 186.006C398.843 184.931 403.553 184.32 410.435 180.833C403.467 187.311 403.339 188.181 399.312 192.311C409.282 196.228 417.567 205.45 422.751 213.771C440.82 242.863 421.438 297.233 412.124 323.361C402.102 351.43 408.405 337.098 399.162 357.009C384.357 324.147 380.924 306.11 379.065 296.352C374.149 270.783 368.208 262.31 370.231 238.524C334.189 262.005 273.122 272.914 244.8 272.914C230.41 272.914 221.235 270.715 212.041 268.623C193.445 323.549 203.48 310.716 195.219 345.791C194.338 349.529 193.259 354.112 191.652 362.633Z" fill="#6B4E40"/>
<path d="M412.12 323.364C402.098 351.432 408.401 337.1 399.158 357.011C384.353 324.149 380.92 306.112 379.061 296.354C375.322 276.906 371.002 267.336 370.029 253.41C386.103 287.975 390.817 295.433 397.172 328.683C396.099 307.017 405.823 288.691 403.447 261.989C408.389 276.195 404.934 300.031 407.296 312.695C411.686 278.723 430.946 254.965 414.639 203.234C417.823 206.597 420.564 210.262 422.751 213.771C440.818 242.863 421.436 297.233 412.12 323.364ZM183.433 275.975C177.432 295.433 181.353 310.698 181.353 324.686C170.078 294.086 160.356 271.443 161.611 228.231C156.729 241.644 154.765 255.904 157.515 269.8C164.882 305.648 175.438 334.38 191.652 362.633C193.259 354.112 194.338 349.528 195.217 345.791C203.254 311.663 195.419 318.582 212.039 268.623C199.054 288.988 192.262 310.698 190.343 332.678C190.401 315.212 182.284 299.793 183.433 275.975ZM384.225 212.534C380.448 244.414 381.693 246.284 384.481 259.371C384.904 261.146 385.232 262.307 385.234 262.307C389.209 276.771 390.681 279.982 391.641 292.038C392.582 254.543 382.035 278.255 384.225 212.534ZM408.944 271.443C409.09 243.866 409.466 220.17 396.585 203.884C412.277 220.338 411.678 248.872 408.944 271.443ZM395.35 260.732C394.342 240.497 400.407 211.555 386.287 199.353C402.4 210.908 396.583 242.339 395.35 260.732ZM175.372 299.867C170.999 286.051 173.194 279.348 173.311 262.381C174.706 278.319 171.949 284.19 175.372 299.867ZM190.263 315.52C189.442 301.578 191.602 280.979 202.561 272.266C193.508 280.909 191.14 298.544 190.263 315.52ZM334.962 154.299C352.549 152.239 387.122 174.698 388.917 192.933C385.726 176.215 350.557 153.759 334.962 154.299ZM287.67 162.292C314.142 153.622 348.273 170.222 348.273 170.222C359.829 175.509 371.008 184.124 374.931 196.264C370.095 184.672 359.068 177.602 347.328 172.236C347.328 172.236 312.989 156.385 287.67 162.292ZM171.099 235.565C179.172 213.2 193.297 191.546 215.062 179.612C195.399 192.513 180.763 214.403 171.099 235.565ZM221.725 198.93C239.116 174.346 288.743 163.591 317.645 171.619C290.669 166.475 240.283 177.018 221.725 198.93ZM362.439 228.737C309.392 260.378 259.12 263.236 197.078 252.217C259.22 258.376 308.286 255.862 362.439 228.737ZM253.031 236.23C294.318 234.462 314.084 234.138 344.954 220.244C316.366 236.063 293.251 238.183 253.031 236.23ZM193.081 244.224C225.5 217.868 258.702 214.343 312.981 208.254C258.19 218.985 228.467 220.086 193.081 244.224ZM300.991 186.272C305.525 185.771 313.948 184.422 328.979 186.11C328.979 186.11 354.39 188.339 367.137 204.011C368.254 205.406 368.934 206.256 368.934 206.256C352.252 188.732 325.33 185.717 300.991 186.272Z" fill="#5C3D2E"/>
<path d="M217.005 175.735C267.529 145.282 316.394 137.399 364.937 170.951C315.481 142.399 269.465 150.134 217.005 175.735ZM395.578 195.598C417.191 221.8 419.052 255.624 408.9 287.521C424.653 250.986 416.724 217.192 395.578 195.598ZM182.42 205.888C170.872 219.508 165.582 228.441 163.138 246.396C162.071 265.478 165.734 278.779 172.666 299.447C163.058 257.952 158.634 239.476 182.42 205.888Z" fill="#7A6155"/>
<path d="M423.428 213.349C418.358 205.21 408.575 195.678 399.73 192.207C403.898 187.935 406.109 185.958 415.537 177.18C410.807 179.758 405.629 182.887 396.213 185.273C404.706 174.036 404.884 172.899 408.92 162.992C403.643 169.776 400.891 173.807 393.393 178.818C385.162 163.809 366.634 152.538 353.766 148.783C342.018 145.113 318.826 140.764 303.469 141.01C275.502 141.234 227.95 151.727 198.177 176.001C176.073 193.954 149.254 232.142 156.731 269.962C163.528 303.036 173.501 333.113 192.042 364.903C197.247 336.674 197.255 348.001 201.274 309.869C202.097 300.097 209.613 278.301 212.565 269.562C229.956 273.521 249.765 278.193 305.707 264.986C326.211 260.242 350.977 252.029 369.291 240.087C367.547 260.74 373.186 271.681 377.826 294.162C379.607 303.128 382.356 322.024 399.148 358.928C410.375 334.738 402.973 350.974 410.919 329.153C418.736 306.683 443.14 245.087 423.428 213.349ZM414.995 302.657C399.24 350.922 405.971 336.247 398.829 354.094C397.438 350.451 387.84 322.566 384.101 307.033C373.696 259.087 372.573 262.602 371.653 249.002C370.438 227.911 374.931 216.573 376.19 211.533C370.782 226.109 369.415 236.34 369.415 238.59C344.506 253.826 288.493 265.094 260.207 268.046C231.117 271.085 195.203 264.253 169.243 254.937C182.668 262.177 205.187 267.61 211.068 269.205C207.555 277.947 199.611 297.225 198.498 309.491C195.093 342.823 192.238 349.266 191.005 360.768C171.387 324.331 160.62 273.929 159.651 261.631C156.014 238.418 176.027 199.867 201.076 179.58C231.151 154.818 280.774 145.474 303.349 144.867C316.506 144.101 340.697 147.734 352.887 151.122C365.421 154.227 385.628 165.587 393.395 180.277C393.395 180.277 393.395 180.297 393.415 180.297C398.101 177.19 399.344 176.306 403.247 172.404C403.247 172.424 403.247 172.444 403.227 172.464C401.123 176.34 396.722 182.241 394.033 186.232C399.348 185.309 404.318 184.024 409.1 181.756C401.586 188.8 402.815 187.767 398.509 192.567C405.385 195.305 422.919 209.119 425.646 230.475C428.73 258.476 421.094 283.495 414.995 302.657Z" fill="#3D2012"/>
<path opacity="0.2" d="M276.653 339.134C269.239 354.042 248.437 355.42 241.123 355.42H216.903C205.413 355.42 195.201 339.454 195.201 326.864V314.555C195.201 314.095 195.421 313.635 195.781 313.156L276.653 339.134ZM313.982 313.995C309.845 316.853 307.207 320.689 307.207 325.825V326.824C307.207 331.7 308.207 335.757 309.885 339.114C317.299 354.022 338.102 355.4 345.415 355.4H369.635C377.808 355.4 385.322 347.307 388.979 338.095L313.982 313.995Z" fill="white"/>
<path opacity="0.4" d="M276.653 339.134L195.761 313.136C197.739 310.498 204.553 307.74 208.05 307.321C212.407 306.801 221.299 305.942 231.91 305.942C249.616 305.942 279.311 308.52 279.311 325.845V326.844C279.311 331.72 278.312 335.777 276.653 339.134ZM391.317 326.844V314.535C391.317 314.075 391.097 313.615 390.738 313.136C388.759 310.498 381.945 307.74 378.448 307.321C374.091 306.801 365.199 305.942 354.588 305.942C342.138 305.942 323.794 307.221 313.962 313.995L388.959 338.095C390.458 334.378 391.317 330.481 391.317 326.844Z" fill="white"/>
<path d="M392.636 318.052V314.534C392.636 310.338 382.844 306.561 378.628 306.042C359.803 303.803 315.64 302.005 307.287 319.55C301.732 317.712 295.537 316.992 293.259 316.972C290.981 316.992 284.786 317.712 279.231 319.55C270.898 302.025 226.735 303.803 207.89 306.042C203.674 306.541 193.882 310.318 193.882 314.534V318.052H184.35V322.768H193.882V326.844C193.882 339.434 204.174 356.699 216.883 356.699H241.103C257.749 356.699 280.59 350.444 280.59 326.844V325.845C280.59 324.326 280.39 322.927 280.01 321.609C286.924 319.47 291.101 319.031 293.239 318.991C295.377 319.011 299.554 319.47 306.468 321.609C306.088 322.927 305.888 324.326 305.888 325.845V326.844C305.888 350.444 328.749 356.699 345.375 356.699H369.595C382.304 356.699 392.596 339.434 392.596 326.844V322.768H402.128V318.052H392.636ZM278.991 326.844C278.991 353.042 250.015 355.081 241.123 355.081H216.903C205.592 355.081 195.521 339.294 195.521 326.844V314.534C195.521 311.917 203.694 308.18 208.09 307.66C212.427 307.141 221.319 306.281 231.91 306.281C249.496 306.281 278.971 308.819 278.971 325.845V326.844H278.991ZM390.997 326.844C390.997 339.294 380.926 355.081 369.615 355.081H345.395C336.503 355.081 307.527 353.042 307.527 326.844V325.845C307.527 308.819 337.022 306.281 354.588 306.281C365.199 306.281 374.071 307.141 378.408 307.66C382.804 308.18 390.997 311.917 390.997 314.534V326.844Z" fill="#26120B"/>
</g>
<defs>
<linearGradient id="paint0_linear" x1="300" y1="-75" x2="300" y2="675" gradientUnits="userSpaceOnUse">
<stop stop-color="#151371"/>
<stop offset="0.453125" stop-color="#FF00B8"/>
<stop offset="0.96875" stop-color="#FFC700"/>
</linearGradient>
<linearGradient id="paint1_linear" x1="439" y1="245" x2="439" y2="644" gradientUnits="userSpaceOnUse">
<stop stop-color="#FF00B8"/>
<stop offset="1" stop-color="#F0DB0A" stop-opacity="0"/>
</linearGradient>
<linearGradient id="paint2_linear" x1="194" y1="161" x2="194" y2="560" gradientUnits="userSpaceOnUse">
<stop stop-color="#FF00B8"/>
<stop offset="1" stop-color="#F0DB0A" stop-opacity="0"/>
</linearGradient>
<linearGradient id="paint3_linear" x1="293.259" y1="504.536" x2="293.259" y2="406.618" gradientUnits="userSpaceOnUse">
<stop stop-color="#E1AC8F" stop-opacity="0.8"/>
<stop offset="0.7" stop-color="#C27B55"/>
</linearGradient>
<linearGradient id="paint4_linear" x1="293.259" y1="448.582" x2="293.259" y2="442.587" gradientUnits="userSpaceOnUse">
<stop offset="0.1" stop-color="#E8B9A0"/>
<stop offset="1" stop-color="#E1AC8F"/>
</linearGradient>
<radialGradient id="paint5_radial" cx="0" cy="0" r="1" gradientUnits="userSpaceOnUse" gradientTransform="translate(240.322 329.216) rotate(177.797) scale(29.1366 24.4248)">
<stop stop-color="white"/>
<stop offset="0.544" stop-color="#FDFEFE"/>
<stop offset="0.74" stop-color="#F6F8F9"/>
<stop offset="0.879" stop-color="#EAEFF2"/>
<stop offset="0.992" stop-color="#D9E3E8"/>
<stop offset="1" stop-color="#D8E2E7"/>
</radialGradient>
<radialGradient id="paint6_radial" cx="0" cy="0" r="1" gradientUnits="userSpaceOnUse" gradientTransform="translate(246.803 325.23) rotate(7.8743) scale(33.9729 25.4256)">
<stop stop-color="#E1AC8F"/>
<stop offset="0.7" stop-color="#E1AC8F" stop-opacity="0.3"/>
<stop offset="1" stop-color="#F0C7B1" stop-opacity="0"/>
</radialGradient>
<radialGradient id="paint7_radial" cx="0" cy="0" r="1" gradientUnits="userSpaceOnUse" gradientTransform="translate(237.362 349.401) rotate(-4.77486) scale(37.7917 32.4465)">
<stop offset="0.95" stop-opacity="0"/>
<stop offset="1" stop-opacity="0.2"/>
</radialGradient>
<radialGradient id="paint8_radial" cx="0" cy="0" r="1" gradientUnits="userSpaceOnUse" gradientTransform="translate(345.398 329.217) rotate(2.203) scale(29.1344 24.4229)">
<stop stop-color="white"/>
<stop offset="0.544" stop-color="#FDFEFE"/>
<stop offset="0.74" stop-color="#F6F8F9"/>
<stop offset="0.879" stop-color="#EAEFF2"/>
<stop offset="0.992" stop-color="#D9E3E8"/>
<stop offset="1" stop-color="#D8E2E7"/>
</radialGradient>
<radialGradient id="paint9_radial" cx="0" cy="0" r="1" gradientUnits="userSpaceOnUse" gradientTransform="translate(338.915 325.231) rotate(172.126) scale(33.9709 25.4241)">
<stop stop-color="#E1AC8F"/>
<stop offset="0.7" stop-color="#E1AC8F" stop-opacity="0.3"/>
<stop offset="1" stop-color="#F0C7B1" stop-opacity="0"/>
</radialGradient>
<radialGradient id="paint10_radial" cx="0" cy="0" r="1" gradientUnits="userSpaceOnUse" gradientTransform="translate(348.359 349.402) rotate(-175.225) scale(37.7917 32.4465)">
<stop offset="0.95" stop-opacity="0"/>
<stop offset="1" stop-opacity="0.2"/>
</radialGradient>
<radialGradient id="paint11_radial" cx="0" cy="0" r="1" gradientUnits="userSpaceOnUse" gradientTransform="translate(293.259 388.633) scale(81.9314)">
<stop stop-color="#FFE4D6" stop-opacity="0.5"/>
<stop offset="0.9" stop-color="#F0C7B1" stop-opacity="0"/>
</radialGradient>
<radialGradient id="paint12_radial" cx="0" cy="0" r="1" gradientUnits="userSpaceOnUse" gradientTransform="translate(293.259 268.733) scale(73.9381)">
<stop stop-color="#FFE4D6" stop-opacity="0.5"/>
<stop offset="0.9" stop-color="#F0C7B1" stop-opacity="0"/>
</radialGradient>
<clipPath id="clip0">
<rect width="600" height="600" fill="white"/>
</clipPath>
</defs>
</svg>
