<svg width="600" height="600" viewBox="0 0 600 600" fill="none" xmlns="http://www.w3.org/2000/svg">
<g clip-path="url(#clip0)">
<path d="M675 675H-75V-75H675V675Z" fill="url(#paint0_linear)"/>
<path d="M360.996 403.874H308.184V356.576H360.996V403.874ZM414.113 320.069H340.054V380.225H414.113V320.069ZM377.082 441.95H442.881V362.639H377.082V441.95ZM400.757 434.192H334.59V491.191H400.757V434.192ZM580.44 284.416H490.23V387.501H580.44V284.416ZM478.458 331.108H456.605V356.576H478.458V331.108ZM544.531 252.277H456.605V304.426H544.531V252.277ZM442.881 270.468H395.532V335.958H442.881V270.468ZM334.59 275.32H308.184V303.213H334.59V275.32ZM299.325 320.069H258.501V382.71H299.325V320.069V320.069ZM347.338 441.95H275.708V521.511H347.338V441.95ZM308.184 576.086H388.617V528.788H308.184V576.086ZM500.311 557.894H443.791V599.129H500.313V557.894H500.311ZM637.361 516.659H585.062V578.511H637.361V516.659ZM551.302 544.718H506.381V585.953H551.302V544.718ZM594.357 463.296H528.843V537.278H594.357V463.296ZM610.791 590.639H528.843V644H610.791V590.639ZM340.054 557.894H251.187V637.937H340.052V557.894H340.054ZM630.216 356.576H569.818V403.874H630.216V356.576ZM594.357 424.49H568.208V451.477H594.357V424.49ZM251.187 474.697H300.975V404.294H251.187V474.697ZM321.764 249.852L232 252.277V320.069H321.764V249.852ZM646 252.277H587.725V326.256H646V252.277ZM371.858 245H347.338V298.361H371.858V245ZM641.143 437.983H581.281V486.494H641.143V437.983Z" fill="url(#paint1_linear)" stroke="#FFC700" stroke-width="1.5"/>
<path d="M115.996 319.874H63.1843V272.576H115.996V319.874ZM169.113 236.069H95.0537V296.225H169.113V236.069ZM132.082 357.95H197.881V278.639H132.082V357.95ZM155.757 350.192H89.5904V407.191H155.757V350.192ZM335.44 200.416H245.23V303.501H335.44V200.416ZM233.458 247.108H211.605V272.576H233.458V247.108ZM299.531 168.277H211.605V220.426H299.531V168.277ZM197.881 186.468H150.532V251.958H197.881V186.468ZM89.5904 191.32H63.1843V219.213H89.5904V191.32ZM54.3246 236.069H13.5008V298.71H54.3246V236.069V236.069ZM102.338 357.95H30.7084V437.511H102.338V357.95ZM63.1843 492.086H143.617V444.788H63.1843V492.086ZM255.311 473.894H198.791V515.129H255.313V473.894H255.311ZM392.361 432.659H340.062V494.511H392.361V432.659ZM306.302 460.718H261.381V501.953H306.302V460.718ZM349.357 379.296H283.843V453.278H349.357V379.296ZM365.791 506.639H283.843V560H365.791V506.639ZM95.0537 473.894H6.18721V553.937H95.0519V473.894H95.0537ZM385.216 272.576H324.818V319.874H385.216V272.576ZM349.357 340.49H323.208V367.477H349.357V340.49ZM6.18721 390.697H55.9745V320.294H6.18721V390.697ZM76.7643 165.852L-13 168.277V236.069H76.7643V165.852ZM401 168.277H342.725V242.256H401V168.277ZM126.858 161H102.338V214.361H126.858V161ZM396.143 353.983H336.281V402.494H396.143V353.983Z" fill="url(#paint2_linear)" stroke="#FFC700" stroke-width="1.5"/>
<rect x="504" y="328.706" width="8.86149" height="25.1423" fill="white"/>
<rect x="521.753" y="328.857" width="8.83104" height="25.1423" fill="white"/>
<rect x="512.861" y="320" width="8.89195" height="8.85765" fill="white"/>
<rect x="539.416" y="328.857" width="8.89195" height="25.1423" fill="white"/>
<rect x="530.584" y="320" width="8.83105" height="8.85765" fill="white"/>
<rect x="548.307" y="320" width="8.86149" height="8.85765" fill="white"/>
<rect x="557.169" y="327.792" width="8.83104" height="8.85766" fill="white"/>
<rect x="548.307" y="336.65" width="8.86149" height="8.82721" fill="white"/>
<rect x="40" y="390.425" width="7.57515" height="21.4449" fill="white"/>
<rect x="55.1764" y="390.555" width="7.54912" height="21.4449" fill="white"/>
<rect x="47.5752" y="383" width="7.60118" height="7.55506" fill="white"/>
<rect x="70.2745" y="390.555" width="7.60118" height="21.4449" fill="white"/>
<rect x="62.7255" y="383" width="7.54912" height="7.55506" fill="white"/>
<rect x="77.8757" y="383" width="7.57515" height="7.55506" fill="white"/>
<rect x="85.4509" y="389.646" width="7.54912" height="7.55506" fill="white"/>
<rect x="77.8757" y="397.202" width="7.57515" height="7.52909" fill="white"/>
<path d="M309.876 356.979H307.678V354.782H309.876V356.979Z" fill="#2A232B"/>
<path d="M518.465 575.153C513.639 564.723 500.456 549.267 485.809 544.997C467.703 539.716 426.832 533.332 411.677 529.783C399.529 526.935 375.061 504.964 366.486 497.588C364.947 496.27 363.688 493.547 363.657 491.523C363.352 467.648 372.876 404.226 372.876 404.226H308.777H244.679C244.679 404.226 254.204 467.646 253.894 491.523C253.87 493.547 252.604 496.27 251.07 497.588C242.495 504.964 218.027 526.935 205.878 529.783C190.722 533.332 149.851 539.934 131.747 545.215C117.095 549.483 103.916 564.721 99.0904 575.151C90.9417 592.749 89.0166 624.597 89.0166 652.067H308.777H528.537C528.537 624.599 526.61 592.751 518.465 575.153Z" fill="#B2713B"/>
<path d="M438.778 540.606C492.272 548.39 514.784 559.743 521.834 652.071H528.537C528.537 624.601 526.609 592.753 518.465 575.155C513.639 564.725 500.456 549.269 485.809 544.999C467.703 539.718 426.832 533.334 411.677 529.785C399.529 526.937 371.588 503.262 364.114 493.854C371.498 504.192 392.224 528.148 410.383 534.422C419.07 537.424 426.304 538.791 438.778 540.606ZM207.173 534.422C225.331 528.15 246.055 504.192 253.441 493.854C245.969 503.26 218.029 526.937 205.878 529.785C190.724 533.334 149.853 539.936 131.747 545.217C117.1 549.485 103.916 564.723 99.0903 575.153C90.946 592.751 89.0187 624.599 89.0187 652.069H95.7214C102.727 560.332 125.334 548.379 178.777 540.604C191.249 538.791 198.486 537.424 207.173 534.422Z" fill="#C18553"/>
<path d="M299.208 570.41C299.208 570.41 288.058 566.874 283.643 565.182C260.68 556.372 186.08 550.663 186.08 550.663C186.08 550.663 264.653 553.781 281.992 556.77C280.986 546.294 275.362 512.809 275.362 512.809C275.362 512.809 286.678 549.762 289.447 559.084C290.928 564.068 299.208 570.41 299.208 570.41ZM322.94 567.461C322.745 567.622 322.52 567.83 322.277 568.05C322.525 567.863 322.749 567.668 322.94 567.461ZM299.208 570.41C299.208 570.41 305.566 576.986 308.761 577.069C312.959 577.181 319.371 570.698 322.279 568.05C319.499 570.153 313.139 571.107 310.609 571.206C307.687 571.318 299.208 570.41 299.208 570.41ZM345.397 553.887C342.002 554.432 335.759 555.621 335.759 555.621L340.785 522.898C339.365 529.647 330.953 558.524 322.94 567.461C327.138 563.91 336.473 562.207 341.233 561.519C363.728 558.258 363.719 558.26 431.471 550.663C431.471 550.663 367.584 550.322 345.397 553.887Z" fill="#A35E26"/>
<path d="M518.465 575.153C513.639 564.723 500.456 549.267 485.809 544.997C467.703 539.716 426.832 533.332 411.677 529.783C399.529 526.935 375.061 504.964 366.486 497.588C364.947 496.27 363.688 493.547 363.657 491.523C363.352 467.648 372.876 404.226 372.876 404.226H308.777H244.679C244.679 404.226 254.204 467.646 253.894 491.523C253.87 493.547 252.604 496.27 251.07 497.588C242.495 504.964 218.027 526.935 205.878 529.783C190.722 533.332 149.851 539.934 131.747 545.215C117.095 549.483 103.916 564.721 99.0904 575.151C90.9417 592.749 89.0166 624.597 89.0166 652.067H308.777H528.537C528.537 624.599 526.61 592.751 518.465 575.153Z" stroke="#843E04" stroke-width="4.5"/>
<path d="M308.781 511.616C333.814 511.616 345.325 497.639 362.003 490.435C361.985 473.004 366.483 437.84 369.215 418.119C333.755 414.049 283.792 414.049 248.334 418.121C251.065 437.84 255.564 472.999 255.544 490.428C272.231 497.63 283.742 511.616 308.781 511.616Z" fill="url(#paint3_linear)"/>
<path d="M523.698 579.038C500.671 534.475 456.335 540.791 413.888 528.838C412.859 536.717 384.768 573.843 378.096 594.9C374.349 591.773 369.877 587.593 366.648 583.767C350.852 565.213 327.441 505.181 319.584 552.06C321.292 531.016 330.579 526.379 343.475 544.019C357.337 563.002 357.851 572.803 377.63 593.445C381.124 578.939 388.688 568.703 397.487 555.858C406.003 543.413 412.222 537.8 413.132 526.722C409.956 521.43 410.717 519.061 405.585 515.633C373.38 493.85 396.373 471.747 367.18 466.483C366.952 469.116 366.664 472.065 366.422 474.283C372.665 477.496 374.533 490 364.921 499.155C349.645 515.925 325.1 516.758 318.701 542.498L318.686 542.496C316.648 550.137 315.018 561.833 314.244 568.689L308.849 623.405L303.421 569.659C299.019 529.313 293.266 525.366 274.45 512.899C261.983 504.636 241.611 492.169 248.261 478.074C249.019 476.443 249.942 475.441 251.087 474.687C250.758 471.465 250.564 469.597 250.309 466.604C226.208 467.631 229.914 501.726 211.662 514.27C206.878 517.558 204.439 520.597 202.723 525.542C203.89 539.345 234.597 570.54 239.961 593.445C259.926 572.366 260.08 563.156 274.024 544.09C286.034 527.684 295.842 529.368 297.905 551.568C296.771 544.898 294.086 534.688 288.266 534.688C283.471 534.688 278.474 541.76 276.002 545.173C262.159 564.244 259.935 577.884 239.418 594.911C237.999 590.646 236.333 586.36 234.346 582.372C226.215 565.947 204.197 532.805 201.694 529.592C191.963 532.33 177.132 535.363 168.218 536.844C109.973 546.538 87.3947 565.345 78.8087 653.385C292.42 651.223 379.465 652.163 538.569 652.163C536.58 632.574 532.67 596.43 523.698 579.038Z" fill="black"/>
<path d="M396.613 555.385C389.007 566.492 382.985 575.823 379.234 587.517C383.557 563.389 410.959 540.545 407.992 526.118C406.722 519.938 384.86 506.161 383.728 485.682C389.76 504.445 412.279 517.837 412.317 526.828C412.376 541.538 411.936 532.996 396.613 555.385ZM538.395 650.421C539.158 631.341 532.743 594.197 524.792 578.783C501.766 534.22 455.429 539.906 412.985 527.953C412.609 528.432 414.062 531.601 413.044 532.963C512.264 551.247 523.561 573.041 538.395 650.421ZM211.669 514.273C223.859 504.17 227.514 494.384 230.311 485.68C224.048 521.457 214.684 507.926 207.852 525.843C203.944 536.09 234.23 564.088 238.324 587.514C232.957 578.339 227.204 567.048 219.598 555.941C213.678 547.289 209.907 539.378 204.041 532.719C201.246 517.967 207.019 518.127 211.669 514.273ZM204.039 532.722C203.021 531.359 202.074 530.076 201.699 529.597C159.254 541.547 116.884 534.22 93.8601 578.785C85.9069 594.199 81.9359 625.733 79.7449 644.854C83.984 621.619 90.3021 592.347 103.837 574.687C126.789 543.554 169.141 537.545 204.039 532.722Z" fill="#0F0F0F"/>
<path d="M352.395 512.771C341.708 518.969 332.658 525.052 326.654 533.607C341.086 534.402 351.753 560.196 354.638 563.703C327.535 525.979 317.279 551.616 313.983 575.64C314.932 567.848 315.712 554.552 317.251 548.845C317.699 546.575 318.18 544.404 318.688 542.496L318.703 542.498C325.103 516.758 349.648 515.925 364.923 499.155C374.535 490 372.665 477.496 366.424 474.283C366.664 472.065 366.954 469.116 367.182 466.483C368.784 466.776 370.213 467.125 371.538 467.514C391.226 484.833 365.826 506.761 352.395 512.771ZM262.55 512.771C273.239 518.969 286.311 526.313 292.297 534.126C281.753 532.207 270.033 547.957 264.172 561.875C289.444 529.642 297.136 547.957 305.195 575.643C304.247 567.852 301.845 554.554 300.307 548.847C299.859 546.577 299.38 544.406 298.87 542.498L298.857 542.501C292.457 516.76 268.789 515.927 253.514 499.157C243.901 490.002 245.554 477.498 251.797 474.285C251.558 472.068 251.27 469.118 251.041 466.486C249.439 466.778 248.011 467.127 246.686 467.516C230.186 487.664 250.479 505.449 262.55 512.771Z" fill="black"/>
<path d="M365.642 495.039C365.71 482.51 365.292 489.461 366.56 475.282C371.448 477.904 372.07 488.666 365.642 495.039ZM251.945 493.854C246.84 487.174 246.209 480.35 251.182 475.197C252.373 486.312 251.769 484.972 251.945 493.854Z" fill="black"/>
<path d="M413.435 524.909C412.982 517.125 396.265 510.633 388.848 493.758C383.537 481.737 388.578 467.971 366.73 465.758C365.532 472.762 364.47 488.158 364.789 495.6C353.718 507.517 336.592 510.6 325.705 523.415C314.084 537.092 309.047 566.707 308.856 628.168L311.563 626.407C311.563 626.407 314.578 568.204 314.6 568.032C321.378 509.956 342.923 523.674 365.099 499.329C375.034 489.809 372.661 477.195 366.686 474.138C366.945 471.676 367.187 469.239 367.4 466.776C386.194 470.228 380.825 481.291 386.704 494.802C394.518 512.765 409.332 516.688 410.288 525.399C411.805 539.202 403.568 545.061 395.307 557.119C382.313 575.928 379.309 585.523 377.504 592.958C357.781 572.243 357.77 563.163 343.666 543.868C328.625 523.285 318.747 532.937 314.6 568.032C315.027 562.264 322.885 530.289 332.276 535.835C343.13 542.16 353.792 569.037 366.472 583.932C369.855 587.938 374.21 591.958 378.219 595.32C385.706 569.175 413.38 541.556 414.277 528.942C457.559 541.151 531.714 528.623 538.312 651.926C447.907 652.409 349.725 650.427 79.079 653.143C83.0017 612.626 89.6363 572.913 113.632 555.014C123.928 547.307 135.865 543.277 148.161 540.712C165.295 537.161 184.469 534.877 201.459 530.28C203.191 532.477 232.676 576.865 239.31 595.322C263.183 576.636 272.729 541.571 285.873 535.517C295.024 531.313 302.485 561.752 302.911 567.498C299.329 530.379 287.638 518.233 265.499 556.68C254.59 575.632 251.698 580.77 240.095 592.962C235.436 573.197 202.967 535.926 204.377 525.579C205.771 515.369 218.253 518.189 226.569 496.474C231.232 484.299 230.199 470.877 250.101 466.905C250.316 469.47 250.578 472.004 250.839 474.566C245.391 478.151 244.007 490.193 252.711 498.612C260.55 507.59 274.696 512.712 284.038 519.876C295.05 528.375 299.406 537.077 302.911 567.498C302.988 568.162 305.922 626.706 305.922 626.706L308.851 628.172C307.386 567.006 301.522 530.229 289.686 519.923C279.463 510.803 261.612 504.988 252.949 494.806C253.213 487.167 251.707 471.692 250.767 465.862C230.968 467.879 230.408 480.449 226.162 491.424C214.812 520.764 203.892 512.361 202.083 524.518C201.914 525.654 202.175 526.509 202.45 528.021C185.792 531.423 165.003 533.653 148.299 536.708C123.372 541.259 99.8529 554.416 89.1287 579.456C80.9821 598.458 78.6219 632.31 78.0242 653.17C78 653.319 78 653.493 78 653.642C78.334 653.669 78.69 653.669 79.0241 653.669C365.756 656.717 537.112 652.398 539.496 652.398C540.336 535.134 476.238 540.264 413.435 524.909ZM365.862 494.382C365.897 487.937 366.092 480.473 366.56 475.283C370.072 477.788 372.799 486.115 365.862 494.382ZM251.832 493.435C246.004 485.807 248.316 478.412 250.962 475.854C251.514 481.01 251.731 488.229 251.832 493.435Z" fill="black"/>
<path d="M189.383 321.475C186.12 316.064 175.479 301.259 167.339 303.336C160.72 305.032 160.806 314.26 160.294 319.719C159.546 327.727 159.274 341.677 161.447 347.338C163.537 352.773 170.15 363.275 174.255 367.282C179.307 372.193 187.375 387.847 188.368 389.471C189.93 392.038 193.064 395.712 197.873 395.422C204.621 395.015 210.452 388.638 210.981 385.566C213.84 368.886 197.877 335.553 189.383 321.475Z" fill="#B2713B" stroke="#843E04" stroke-width="4.5"/>
<path d="M186.151 354.432C185.836 353.195 186.166 351.107 186.489 349.094C186.781 347.259 187.056 345.525 186.889 344.299C186.254 339.706 182.681 330.982 180.349 326.253C177.661 320.811 173.319 313.957 167.869 312.19C165.618 311.458 164.135 312.333 163.278 313.219C162.645 313.869 162.502 314.636 162.709 314.728C162.918 314.818 163.383 314.183 164.065 313.588C164.623 313.1 162.948 313.5 164.065 313.588C163.614 315.873 162.164 327.437 163.164 335.878C163.95 342.519 165.471 347.479 165.939 348.222C166.007 349.004 166.122 349.771 166.291 350.514C168.493 360.205 182.812 372.879 186.144 376.49C186.759 377.156 187.405 377.551 187.564 377.389C187.722 377.226 187.342 376.569 186.731 375.899C183.439 372.312 169.214 359.678 167.086 350.329C164.829 340.409 175.683 325.701 177.413 322.589C178.294 324.051 179.044 325.453 179.619 326.622C180.074 327.538 180.573 328.613 181.092 329.775C180.074 331.397 169.844 343.24 172.446 352.72C173.409 356.217 180.846 360.724 183.722 361.957C185.304 362.638 185.898 363.653 186.588 364.827C187.388 366.198 186.66 369.725 189.291 370.846C189.827 371.075 190.311 371.167 190.739 371.167C191.482 371.167 192.045 370.881 192.46 370.543C192.504 371.139 192.502 371.903 192.48 372.611C192.453 373.53 192.583 373.949 192.805 373.967C193.031 373.987 193.266 373.584 193.295 372.677C193.332 371.556 193.326 370.169 193.126 369.503C192.535 367.55 190.735 365.341 188.825 363.005C186.948 360.709 186.638 356.349 186.151 354.432ZM165.864 345.842C160.705 330.628 168.684 316.77 169.842 314.682C172.066 315.559 175.472 319.501 176.921 321.791C175.866 323.622 166.08 335.608 165.864 345.842ZM189.605 370.086C187.223 369.071 188.054 365.726 187.285 364.407C186.586 363.216 185.865 361.986 184.034 361.199C183.639 361.027 183.201 360.768 182.753 360.469C176.859 347.119 183.397 341.284 185.036 340.091C185.54 341.721 185.913 343.218 186.082 344.42C186.232 345.519 185.953 347.273 185.685 348.965C185.348 351.063 185.003 353.237 185.362 354.643C185.898 356.738 186.265 361.17 188.199 363.539C189.915 365.64 191.678 367.807 192.28 369.574C192.02 369.925 191.205 370.769 189.605 370.086Z" fill="#843E04"/>
<path d="M427.592 321.475C430.858 316.064 441.499 301.259 449.636 303.336C456.256 305.032 456.17 314.26 456.684 319.719C457.431 327.727 457.702 341.677 455.53 347.338C453.44 352.773 446.826 363.275 442.723 367.282C437.67 372.193 429.601 387.847 428.61 389.471C427.047 392.038 423.913 395.712 419.103 395.422C412.356 395.015 406.526 388.638 405.994 385.566C403.137 368.886 419.103 335.553 427.592 321.475Z" fill="#B2713B" stroke="#843E04" stroke-width="4.5"/>
<path d="M428.155 363.007C426.245 365.343 424.445 367.552 423.854 369.505C423.652 370.174 423.647 371.56 423.683 372.679C423.713 373.586 423.949 373.989 424.177 373.969C424.401 373.951 424.529 373.531 424.502 372.613C424.48 371.905 424.476 371.14 424.52 370.545C424.935 370.883 425.498 371.169 426.241 371.169C426.669 371.169 427.155 371.077 427.691 370.848C430.317 369.725 429.592 366.198 430.392 364.829C431.082 363.655 431.675 362.638 433.26 361.959C436.136 360.726 443.573 356.221 444.536 352.722C447.138 343.242 436.908 331.397 435.89 329.777C436.405 328.615 436.908 327.54 437.358 326.624C437.938 325.455 438.686 324.05 439.569 322.591C441.299 325.703 452.15 340.409 449.896 350.331C447.766 359.68 433.543 372.314 430.251 375.9C429.638 376.571 429.256 377.228 429.414 377.39C429.577 377.553 430.221 377.157 430.834 376.492C434.165 372.881 448.483 360.207 450.685 350.516C450.856 349.773 450.972 349.006 451.041 348.224C451.504 347.483 453.027 342.523 453.814 335.88C454.814 327.439 453.363 315.875 452.913 313.59C454.029 313.502 452.355 313.102 452.913 313.59C453.596 314.185 454.062 314.82 454.269 314.73C454.475 314.638 454.333 313.873 453.702 313.22C452.843 312.335 451.359 311.46 449.109 312.192C443.659 313.959 439.314 320.813 436.627 326.254C434.295 330.984 430.724 339.708 430.089 344.301C429.922 345.527 430.196 347.261 430.489 349.096C430.809 351.109 431.141 353.197 430.827 354.434C430.339 356.348 430.032 360.708 428.155 363.007ZM440.057 321.791C441.507 319.501 444.911 315.561 447.135 314.682C448.294 316.77 456.273 330.628 451.115 345.842C450.9 335.607 441.114 323.622 440.057 321.791ZM424.7 369.569C425.3 367.802 427.065 365.635 428.781 363.535C430.713 361.166 431.082 356.733 431.618 354.639C431.974 353.232 431.631 351.059 431.297 348.96C431.027 347.268 430.748 345.514 430.897 344.415C431.064 343.213 431.438 341.717 431.941 340.086C433.581 341.279 440.119 347.116 434.225 360.465C433.778 360.763 433.341 361.023 432.941 361.194C431.113 361.981 430.392 363.212 429.691 364.403C428.922 365.721 429.755 369.068 427.372 370.081C425.773 370.769 424.957 369.925 424.7 369.569Z" fill="#843E04"/>
<path d="M308.781 138.026C234.902 138.142 174.903 198.831 175.017 273.602C175.037 285.476 176.565 296.992 179.417 307.96H179.419C179.446 308.078 197.264 386.654 205.395 412.394C211.493 431.704 236.794 460.717 254.617 468.042C271.815 475.111 283.271 489.64 308.779 489.64C334.286 489.64 345.743 475.111 362.941 468.042C380.764 460.717 406.067 431.704 412.163 412.394C420.294 386.654 438.114 308.078 438.136 307.96H438.141C440.993 296.989 442.523 285.476 442.54 273.602C442.661 198.831 382.66 138.142 308.781 138.026Z" fill="#B2713B"/>
<path d="M398.278 172.902C421.186 197.436 435.345 231.301 435.295 268.687C435.275 280.56 433.831 292.076 431.133 303.044H431.13C431.106 303.162 414.251 381.738 406.561 407.478C400.797 426.791 376.861 455.801 360.007 463.126C343.738 470.193 332.904 484.726 308.781 484.726C284.656 484.726 273.822 470.193 257.557 463.126C240.699 455.801 216.77 426.791 211.003 407.478C203.312 381.738 186.46 303.162 186.434 303.044H186.432C183.731 292.073 182.287 280.56 182.27 268.687C182.215 231.303 196.374 197.442 219.277 172.908C192.069 197.728 174.956 233.65 175.017 273.603C175.037 285.476 176.565 296.992 179.417 307.96H179.419C179.446 308.078 197.264 386.654 205.395 412.394C211.493 431.705 236.794 460.717 254.617 468.042C271.815 475.112 283.271 489.64 308.779 489.64C334.286 489.64 345.743 475.112 362.941 468.042C380.764 460.717 406.067 431.705 412.163 412.394C420.294 386.654 438.114 308.078 438.136 307.96H438.141C440.993 296.989 442.523 285.476 442.54 273.603C442.606 233.646 425.493 197.722 398.278 172.902Z" fill="#AA6730"/>
<path d="M308.781 138.026C234.902 138.142 174.903 198.831 175.017 273.602C175.037 285.476 176.565 296.992 179.417 307.96H179.419C179.446 308.078 197.264 386.654 205.395 412.394C211.493 431.704 236.794 460.717 254.617 468.042C271.815 475.111 283.271 489.64 308.779 489.64C334.286 489.64 345.743 475.111 362.941 468.042C380.764 460.717 406.067 431.704 412.163 412.394C420.294 386.654 438.114 308.078 438.136 307.96H438.141C440.993 296.989 442.523 285.476 442.54 273.602C442.661 198.831 382.66 138.142 308.781 138.026Z" stroke="#843E04" stroke-width="4.5"/>
<path d="M308.392 448.33C301.272 448.33 297.947 442.172 297.947 442.172C297.947 442.172 308.489 443.888 318.338 442.031C318.341 442.031 314.655 448.33 308.392 448.33Z" fill="url(#paint4_linear)"/>
<path d="M298.252 442.354C297.962 442.268 297.747 442.027 297.795 441.728C297.841 441.427 298.127 441.235 298.424 441.268C306.361 443.152 311.528 442.721 317.688 441.174C318.007 441.097 318.281 441.31 318.341 441.602C318.4 441.895 318.202 442.165 317.916 442.253C311.19 444.24 304.693 444.314 298.252 442.354ZM276.795 430.507C277.483 430.19 278.074 430.318 279.153 430.254C282.271 429.707 286.027 429.544 289.13 428.911C292.092 428.309 295.226 427.457 298.268 427.599C301.538 427.755 304.595 429.07 307.834 429.421C310.913 429.753 313.785 428.918 316.741 428.197C320.129 427.371 323.355 427.566 326.762 428.21C331.021 429.008 335.056 430.094 339.264 430.491C340.543 430.612 340.066 431.399 339.334 431.489C335.57 431.94 331.794 431.34 327.92 430.942C324.788 430.621 321.617 430.219 318.527 430.988C315.191 431.821 310.974 432.795 308.407 432.764C305.551 432.726 302.867 431.581 300.092 430.99C296.683 430.272 293.299 430.946 289.879 431.305C285.62 431.746 281.81 432.052 277.619 431.408C276.498 431.236 276.485 430.65 276.795 430.507Z" fill="#843E04"/>
<path d="M224.723 317.473C223.611 312.452 236.131 308.742 252.657 310.768C269.178 312.797 280.65 322.908 279.142 328.006C278.307 330.832 255.762 335.137 247.82 334.263C239.768 333.373 227.408 329.597 224.723 317.473Z" fill="url(#paint5_radial)"/>
<path d="M265.374 321.269C265.374 328.549 259.469 334.454 252.189 334.454C244.908 334.454 239.003 328.549 239.003 321.269C239.003 313.986 244.908 308.083 252.189 308.083C259.469 308.081 265.374 313.986 265.374 321.269Z" fill="#4C2300"/>
<path opacity="0.7" d="M250.712 308.228C250.661 308.235 250.608 308.241 250.556 308.248C250.619 308.544 250.681 308.843 250.743 309.14C250.729 308.839 250.723 308.531 250.712 308.228ZM250.74 309.138C250.894 313.472 251.147 317.333 251.876 318.728C252.261 317.199 251.606 313.388 250.74 309.138ZM251.879 318.73C251.784 319.097 251.641 319.348 251.422 319.431C251.202 319.515 250.925 319.418 250.613 319.205C250.703 319.572 250.694 319.858 250.534 320.036C250.376 320.214 250.092 320.258 249.714 320.207C249.962 320.493 250.09 320.754 250.035 320.983C249.976 321.211 249.74 321.383 249.391 321.515C249.74 321.653 249.976 321.825 250.03 322.053C250.085 322.282 249.958 322.543 249.712 322.827C250.085 322.781 250.373 322.829 250.527 323.007C250.683 323.185 250.692 323.473 250.604 323.84C250.914 323.627 251.186 323.534 251.406 323.62C251.628 323.704 251.771 323.954 251.859 324.323C252.037 323.989 252.235 323.776 252.474 323.752C252.703 323.721 252.949 323.882 253.197 324.165C253.199 323.787 253.279 323.508 253.476 323.374C253.67 323.24 253.958 323.266 254.309 323.402C254.138 323.068 254.078 322.785 254.188 322.574C254.298 322.365 254.569 322.253 254.944 322.209C254.634 321.992 254.445 321.77 254.45 321.532C254.45 321.295 254.634 321.073 254.949 320.86C254.575 320.814 254.309 320.702 254.197 320.493C254.089 320.284 254.149 319.998 254.325 319.664C253.969 319.796 253.683 319.823 253.49 319.689C253.294 319.554 253.215 319.275 253.215 318.897C252.969 319.179 252.723 319.335 252.49 319.304C252.252 319.273 252.052 319.067 251.879 318.73ZM253.213 318.895C254.265 317.719 255.456 314.041 256.663 309.876C254.786 313.781 253.215 317.317 253.213 318.895ZM256.661 309.876C256.793 309.608 256.927 309.336 257.052 309.063C257.006 309.048 256.96 309.026 256.913 309.006C256.83 309.298 256.746 309.591 256.661 309.876ZM254.325 319.664C255.801 319.111 258.568 316.405 261.57 313.28C258.096 315.865 255.059 318.267 254.325 319.664ZM261.57 313.28C261.79 313.115 262.016 312.951 262.24 312.786C262.21 312.746 262.174 312.713 262.148 312.678C261.957 312.876 261.766 313.08 261.57 313.28ZM254.944 320.86C256.511 321.053 260.219 319.943 264.332 318.572C260.052 319.249 256.25 319.963 254.944 320.86ZM264.332 318.574C264.574 318.539 264.827 318.5 265.073 318.46C265.064 318.418 265.053 318.377 265.042 318.335C264.807 318.414 264.565 318.495 264.332 318.574ZM254.942 322.207C256.239 323.112 260.036 323.849 264.308 324.543C260.21 323.152 256.511 322.02 254.942 322.207ZM264.31 324.543C264.519 324.616 264.73 324.69 264.937 324.758C264.948 324.721 264.957 324.686 264.963 324.649C264.75 324.616 264.528 324.58 264.31 324.543ZM254.309 323.4C255.041 324.8 258.063 327.22 261.522 329.826C258.535 326.683 255.788 323.963 254.309 323.4ZM261.524 329.822C261.654 329.958 261.788 330.099 261.917 330.237C261.939 330.211 261.959 330.191 261.983 330.167C261.829 330.052 261.671 329.936 261.524 329.822ZM253.199 324.163C253.193 325.743 254.744 329.285 256.599 333.202C255.415 329.033 254.248 325.345 253.199 324.163ZM256.599 333.204C256.645 333.369 256.694 333.538 256.738 333.707C256.771 333.694 256.793 333.685 256.823 333.676C256.751 333.518 256.674 333.355 256.599 333.204ZM251.861 324.321C251.123 325.721 250.848 329.573 250.67 333.905C251.558 329.663 252.237 325.855 251.861 324.321ZM250.67 333.905C250.633 334.07 250.602 334.237 250.567 334.406C250.597 334.412 250.622 334.412 250.652 334.417C250.657 334.248 250.666 334.072 250.67 333.905ZM250.606 323.838C249.296 324.732 247.264 328.022 245.095 331.771C247.85 328.431 250.224 325.372 250.606 323.838ZM245.095 331.771C244.978 331.909 244.857 332.057 244.739 332.195C244.767 332.213 244.791 332.226 244.822 332.248C244.91 332.09 245.005 331.929 245.095 331.771ZM249.716 322.829C248.143 323.011 244.813 324.978 241.15 327.288C245.145 325.613 248.661 324.011 249.716 322.829ZM241.148 327.292C240.959 327.371 240.765 327.45 240.57 327.534C240.583 327.563 240.603 327.593 240.62 327.622C240.798 327.514 240.974 327.402 241.148 327.292ZM249.393 321.517C247.919 320.952 244.055 321.148 239.735 321.493C244.051 321.862 247.914 322.075 249.393 321.517ZM239.735 321.493C239.5 321.471 239.258 321.449 239.025 321.429C239.025 321.471 239.021 321.513 239.025 321.552C239.264 321.53 239.504 321.51 239.735 321.493ZM249.716 320.212C248.677 319.027 245.169 317.405 241.187 315.704C244.833 318.034 248.152 320.02 249.716 320.212ZM241.187 315.704C240.959 315.557 240.728 315.41 240.495 315.263C240.475 315.304 240.453 315.346 240.431 315.383C240.686 315.491 240.941 315.597 241.187 315.704ZM250.615 319.205C250.244 317.671 247.888 314.603 245.154 311.243C247.299 315.005 249.314 318.304 250.615 319.205ZM245.154 311.243C245.007 310.99 244.864 310.733 244.717 310.476C244.675 310.505 244.631 310.533 244.594 310.562C244.778 310.788 244.972 311.017 245.154 311.243Z" fill="url(#paint6_radial)"/>
<path opacity="0.4" d="M254.136 308.272C254.083 308.265 254.032 308.257 253.982 308.25C253.966 308.553 253.947 308.859 253.929 309.16C253.995 308.865 254.067 308.566 254.136 308.272ZM253.927 309.158C252.955 313.381 252.197 317.177 252.545 318.717C253.311 317.337 253.663 313.487 253.927 309.158ZM252.542 318.717C252.358 319.047 252.156 319.251 251.92 319.275C251.687 319.297 251.446 319.135 251.202 318.847C251.193 319.223 251.109 319.5 250.909 319.629C250.712 319.759 250.424 319.728 250.074 319.583C250.241 319.924 250.296 320.209 250.182 320.414C250.066 320.62 249.795 320.726 249.424 320.761C249.725 320.983 249.907 321.209 249.901 321.447C249.896 321.682 249.705 321.902 249.393 322.11C249.765 322.163 250.03 322.284 250.134 322.493C250.239 322.704 250.173 322.987 249.993 323.317C250.347 323.191 250.635 323.174 250.826 323.312C251.017 323.451 251.09 323.73 251.081 324.11C251.338 323.835 251.584 323.679 251.821 323.717C252.052 323.747 252.248 323.965 252.415 324.306C252.514 323.939 252.663 323.693 252.89 323.613C253.111 323.534 253.384 323.635 253.687 323.857C253.608 323.49 253.624 323.2 253.784 323.027C253.944 322.853 254.234 322.816 254.61 322.868C254.366 322.578 254.241 322.317 254.307 322.088C254.368 321.86 254.606 321.693 254.964 321.567C254.612 321.427 254.386 321.249 254.331 321.018C254.281 320.787 254.412 320.528 254.67 320.251C254.292 320.286 254.008 320.238 253.856 320.058C253.703 319.878 253.698 319.587 253.795 319.225C253.483 319.431 253.206 319.519 252.988 319.429C252.762 319.339 252.626 319.086 252.542 318.717ZM253.791 319.225C255.111 318.359 257.212 315.113 259.456 311.406C256.632 314.691 254.201 317.697 253.791 319.225ZM259.456 311.404C259.652 311.179 259.852 310.951 260.045 310.72C260.003 310.692 259.966 310.659 259.924 310.628C259.768 310.889 259.612 311.151 259.456 311.404ZM254.665 320.253C256.236 320.099 259.61 318.201 263.317 315.961C259.289 317.559 255.735 319.093 254.665 320.253ZM263.315 315.959C263.572 315.858 263.831 315.757 264.093 315.656C264.071 315.61 264.047 315.568 264.031 315.526C263.794 315.671 263.557 315.819 263.315 315.959ZM254.955 321.57C256.419 322.163 260.287 322.049 264.614 321.792C260.304 321.335 256.447 321.04 254.955 321.57ZM264.614 321.789C264.86 321.818 265.11 321.844 265.359 321.871C265.359 321.827 265.361 321.785 265.363 321.743C265.113 321.759 264.86 321.774 264.614 321.789ZM254.606 322.871C255.621 324.082 259.102 325.774 263.049 327.549C259.447 325.143 256.168 323.095 254.606 322.871ZM263.047 327.549C263.229 327.675 263.414 327.8 263.596 327.919C263.616 327.886 263.634 327.853 263.651 327.82C263.453 327.734 263.247 327.642 263.047 327.549ZM253.683 323.86C254.026 325.4 256.32 328.518 258.988 331.934C256.916 328.123 254.966 324.783 253.683 323.86ZM258.988 331.927C259.08 332.092 259.17 332.263 259.263 332.43C259.289 332.41 259.315 332.395 259.344 332.377C259.225 332.228 259.104 332.074 258.988 331.927ZM252.415 324.308C252.002 325.831 252.582 329.655 253.36 333.918C253.292 329.584 253.12 325.721 252.415 324.308ZM253.358 333.918C253.36 334.089 253.364 334.265 253.364 334.441C253.395 334.437 253.424 334.432 253.454 334.432C253.424 334.263 253.391 334.087 253.358 333.918ZM251.081 324.112C250.004 325.273 248.743 328.923 247.45 333.061C249.404 329.195 251.048 325.692 251.081 324.112ZM247.448 333.061C247.371 333.21 247.294 333.364 247.22 333.518C247.246 333.531 247.27 333.538 247.299 333.551C247.347 333.391 247.4 333.221 247.448 333.061ZM249.991 323.321C248.497 323.846 245.679 326.499 242.614 329.558C246.145 327.044 249.226 324.703 249.991 323.321ZM242.616 329.558C242.468 329.661 242.315 329.773 242.165 329.877C242.187 329.901 242.209 329.921 242.229 329.947C242.354 329.817 242.486 329.69 242.616 329.558ZM249.393 322.115C247.826 321.886 244.104 322.923 239.963 324.207C244.26 323.622 248.068 322.985 249.393 322.115ZM239.963 324.211C239.761 324.24 239.552 324.264 239.341 324.297C239.348 324.33 239.359 324.363 239.37 324.394C239.57 324.336 239.768 324.271 239.963 324.211ZM249.422 320.768C248.143 319.838 244.361 319.027 240.099 318.243C244.174 319.717 247.848 320.924 249.422 320.768ZM240.099 318.243C239.878 318.161 239.649 318.078 239.429 317.996C239.418 318.038 239.405 318.078 239.396 318.115C239.636 318.157 239.871 318.201 240.099 318.243ZM250.074 319.587C249.376 318.174 246.409 315.7 243 313.025C245.919 316.223 248.611 319.001 250.074 319.587ZM242.998 313.028C242.816 312.828 242.631 312.625 242.447 312.423C242.416 312.458 242.383 312.491 242.354 312.524C242.572 312.691 242.789 312.858 242.998 313.028ZM251.202 318.849C251.239 317.271 249.76 313.698 247.984 309.747C249.083 313.935 250.178 317.643 251.202 318.849ZM247.984 309.747C247.91 309.465 247.837 309.177 247.763 308.892C247.716 308.907 247.668 308.925 247.624 308.942C247.743 309.21 247.866 309.481 247.984 309.747Z" fill="url(#paint7_radial)"/>
<path d="M257.362 321.269C257.362 324.126 255.048 326.44 252.191 326.44C249.336 326.44 247.018 324.126 247.018 321.269C247.018 318.414 249.336 316.096 252.191 316.096C255.048 316.096 257.362 318.412 257.362 321.269Z" fill="#4C2300"/>
<path opacity="0.9" d="M257.362 321.269C257.362 324.126 255.048 326.44 252.191 326.44C249.336 326.44 247.018 324.126 247.018 321.269C247.018 318.414 249.336 316.096 252.191 316.096C255.048 316.096 257.362 318.412 257.362 321.269Z" fill="black"/>
<path opacity="0.5" d="M244.974 327.308C245.96 326.644 247.301 326.912 247.962 327.897C248.624 328.883 248.362 330.224 247.374 330.885C246.385 331.551 245.046 331.288 244.385 330.299C243.723 329.312 243.987 327.969 244.974 327.308Z" fill="url(#paint8_linear)"/>
<path opacity="0.5" d="M256.276 320.548C255.724 321.37 254.146 321.275 252.747 320.337C251.344 319.398 250.659 317.968 251.208 317.148V317.146C251.758 316.324 253.338 316.418 254.735 317.359C256.14 318.295 256.825 319.724 256.276 320.548Z" fill="url(#paint9_linear)"/>
<path opacity="0.75" d="M262.552 318.352C261.304 320.271 258.078 320.385 255.355 318.609C252.63 316.834 251.435 313.84 252.685 311.922C253.933 310.006 257.159 309.891 259.882 311.665C262.605 313.443 263.801 316.438 262.552 318.352Z" fill="url(#paint10_linear)"/>
<path d="M206.135 318.521C207.913 342.473 231.709 370.347 251.2 367.387C274.27 367.62 297.05 350.097 297.05 318.37C297.05 286.643 285.871 260.072 250.622 260.072C225.349 260.07 206.135 286.795 206.135 318.521ZM224.723 317.473C223.611 312.452 236.131 308.742 252.657 310.768C269.178 312.797 280.65 322.908 279.142 328.006C278.307 330.832 255.762 335.137 247.82 334.263C239.768 333.373 227.408 329.597 224.723 317.473Z" fill="#B2713B"/>
<path d="M247.82 334.263C255.762 335.137 278.307 330.832 279.142 328.006C280.652 322.908 269.178 312.797 252.656 310.768C238.46 309.028 227.246 311.524 225.063 315.445C227.037 301.38 241.985 290.399 260.196 290.317C279.779 290.236 295.683 302.791 295.736 318.37C295.782 333.946 279.946 346.635 260.366 346.723C240.778 346.804 224.877 334.25 224.824 318.673C224.824 318.442 224.859 318.216 224.866 317.985C227.788 329.692 239.884 333.386 247.82 334.263Z" fill="url(#paint11_radial)"/>
<path d="M224.723 317.473C223.611 312.452 236.131 308.742 252.657 310.768C269.178 312.797 280.65 322.908 279.142 328.006C278.307 330.832 255.762 335.137 247.82 334.263C239.768 333.373 227.408 329.597 224.723 317.473Z" fill="url(#paint12_radial)"/>
<path d="M225.593 306.252C234.841 301.905 246.141 301.505 256.004 304.044C261.287 305.276 266.915 306.868 271.525 309.841C275.8 312.335 279.272 315.335 282.518 319.049C279.568 315.311 276.424 312.197 272.358 309.665C267.356 306.553 261.878 304.624 256.175 303.257C246.097 300.782 234.81 301.345 225.593 306.252Z" fill="#843E04"/>
<path d="M226.958 307.577C228.892 306.804 235.891 305.38 238.948 305.235C242.655 305.054 250.096 305.509 253.749 306.166C261.163 307.502 274.079 311.623 279.412 321.954C281.052 325.129 279.575 327.351 279.142 327.832C279.801 322.501 268.51 313.007 252.657 311.122C236.131 309.157 223.611 312.755 224.723 317.622C227.408 329.375 239.768 333.034 247.82 333.896C256.828 334.86 273.496 330.513 275.698 330.043C271.305 332.261 259.164 334.647 254.234 335.104C252.599 335.258 249.312 335.333 247.672 335.291C234.599 334.944 225.325 328.314 221.897 319.337C219.695 313.566 222.103 309.515 226.958 307.577Z" fill="black"/>
<path d="M391.954 317.473C393.066 312.452 380.546 308.742 364.02 310.768C347.498 312.797 336.027 322.908 337.534 328.006C338.37 330.832 360.915 335.137 368.857 334.263C376.909 333.373 389.268 329.597 391.954 317.473Z" fill="url(#paint13_radial)"/>
<path d="M378.55 321.268C378.55 328.549 372.645 334.454 365.367 334.454C358.086 334.454 352.179 328.549 352.179 321.268C352.179 313.985 358.086 308.083 365.367 308.083C372.645 308.08 378.55 313.985 378.55 321.268Z" fill="#4C2300"/>
<path opacity="0.7" d="M363.888 308.228C363.838 308.234 363.785 308.241 363.732 308.247C363.796 308.544 363.859 308.843 363.919 309.14C363.906 308.838 363.899 308.531 363.888 308.228ZM363.917 309.137C364.068 313.471 364.323 317.332 365.055 318.728C365.437 317.198 364.782 313.388 363.917 309.137ZM365.053 318.73C364.96 319.097 364.815 319.347 364.598 319.431C364.376 319.514 364.101 319.418 363.791 319.205C363.879 319.572 363.87 319.857 363.712 320.035C363.554 320.213 363.271 320.257 362.895 320.207C363.141 320.492 363.271 320.754 363.216 320.982C363.154 321.211 362.921 321.382 362.572 321.514C362.919 321.653 363.154 321.824 363.209 322.053C363.264 322.281 363.139 322.543 362.89 322.826C363.264 322.78 363.55 322.828 363.703 323.006C363.859 323.184 363.868 323.472 363.78 323.839C364.09 323.626 364.365 323.534 364.582 323.62C364.807 323.703 364.947 323.954 365.035 324.323C365.211 323.989 365.413 323.776 365.648 323.751C365.879 323.721 366.125 323.881 366.371 324.165C366.376 323.787 366.453 323.507 366.653 323.373C366.844 323.239 367.134 323.266 367.486 323.402C367.314 323.068 367.257 322.784 367.362 322.573C367.475 322.365 367.745 322.253 368.121 322.209C367.811 321.991 367.62 321.769 367.626 321.532C367.624 321.294 367.811 321.073 368.125 320.859C367.749 320.813 367.486 320.701 367.373 320.492C367.264 320.284 367.325 319.998 367.499 319.664C367.145 319.796 366.859 319.822 366.664 319.688C366.468 319.554 366.391 319.275 366.389 318.897C366.145 319.178 365.897 319.334 365.664 319.303C365.429 319.273 365.229 319.066 365.053 318.73ZM366.389 318.895C367.442 317.719 368.633 314.04 369.837 309.876C367.962 313.781 366.393 317.317 366.389 318.895ZM369.837 309.876C369.969 309.608 370.103 309.335 370.23 309.063C370.184 309.047 370.138 309.025 370.092 309.005C370.006 309.298 369.923 309.59 369.837 309.876ZM367.501 319.664C368.98 319.11 371.747 316.405 374.749 313.28C371.272 315.864 368.237 318.266 367.501 319.664ZM374.749 313.28C374.968 313.115 375.193 312.95 375.419 312.785C375.386 312.746 375.353 312.713 375.327 312.678C375.133 312.875 374.942 313.08 374.749 313.28ZM368.123 320.859C369.69 321.053 373.395 319.943 377.509 318.572C373.228 319.249 369.426 319.963 368.123 320.859ZM377.509 318.574C377.751 318.539 378.003 318.499 378.249 318.46C378.238 318.418 378.23 318.376 378.219 318.334C377.983 318.413 377.742 318.495 377.509 318.574ZM368.118 322.206C369.417 323.112 373.212 323.848 377.487 324.543C373.386 323.151 369.688 322.02 368.118 322.206ZM377.487 324.543C377.696 324.615 377.904 324.69 378.113 324.758C378.124 324.721 378.133 324.685 378.142 324.648C377.926 324.615 377.702 324.58 377.487 324.543ZM367.486 323.4C368.215 324.8 371.239 327.219 374.698 329.826C371.714 326.683 368.965 323.962 367.486 323.4ZM374.7 329.821C374.83 329.957 374.962 330.098 375.091 330.237C375.113 330.21 375.135 330.19 375.16 330.166C375.006 330.052 374.847 329.935 374.7 329.821ZM366.378 324.162C366.371 325.742 367.921 329.285 369.778 333.201C368.591 329.032 367.424 325.345 366.378 324.162ZM369.778 333.203C369.824 333.368 369.872 333.537 369.916 333.707C369.949 333.693 369.973 333.685 370.002 333.676C369.927 333.518 369.85 333.355 369.778 333.203ZM365.037 324.321C364.299 325.72 364.024 329.573 363.846 333.904C364.734 329.663 365.413 325.854 365.037 324.321ZM363.846 333.904C363.809 334.069 363.778 334.236 363.743 334.405C363.774 334.412 363.796 334.412 363.829 334.416C363.833 334.247 363.842 334.071 363.846 333.904ZM363.78 323.837C362.471 324.732 360.438 328.021 358.269 331.77C361.027 328.43 363.398 325.371 363.78 323.837ZM358.269 331.77C358.155 331.909 358.034 332.056 357.915 332.195C357.944 332.212 357.968 332.225 357.996 332.247C358.086 332.089 358.181 331.929 358.269 331.77ZM362.89 322.828C361.317 323.011 357.99 324.978 354.326 327.287C358.322 325.613 361.838 324.011 362.89 322.828ZM354.326 327.292C354.135 327.371 353.942 327.45 353.748 327.533C353.762 327.562 353.779 327.593 353.799 327.621C353.975 327.514 354.15 327.402 354.326 327.292ZM362.572 321.516C361.095 320.952 357.232 321.147 352.911 321.492C357.229 321.861 361.091 322.075 362.572 321.516ZM352.911 321.492C352.678 321.47 352.434 321.448 352.203 321.429C352.201 321.47 352.197 321.512 352.201 321.552C352.441 321.53 352.68 321.51 352.911 321.492ZM362.895 320.211C361.853 319.027 358.348 317.405 354.364 315.704C358.009 318.033 361.328 320.02 362.895 320.211ZM354.364 315.704C354.135 315.557 353.902 315.409 353.671 315.262C353.652 315.304 353.63 315.346 353.61 315.383C353.863 315.491 354.12 315.596 354.364 315.704ZM363.791 319.205C363.42 317.671 361.064 314.603 358.33 311.243C360.475 315.005 362.49 318.304 363.791 319.205ZM358.33 311.243C358.183 310.99 358.038 310.733 357.895 310.476C357.853 310.504 357.809 310.533 357.77 310.561C357.957 310.788 358.148 311.016 358.33 311.243Z" fill="url(#paint14_radial)"/>
<path opacity="0.4" d="M367.312 308.271C367.259 308.265 367.209 308.256 367.158 308.25C367.14 308.553 367.123 308.858 367.105 309.159C367.169 308.865 367.242 308.566 367.312 308.271ZM367.103 309.157C366.13 313.381 365.374 317.176 365.719 318.717C366.488 317.337 366.839 313.486 367.103 309.157ZM365.719 318.717C365.534 319.046 365.33 319.251 365.097 319.275C364.864 319.297 364.622 319.134 364.378 318.846C364.369 319.222 364.286 319.499 364.086 319.629C363.888 319.758 363.6 319.728 363.251 319.583C363.415 319.923 363.473 320.209 363.358 320.413C363.24 320.62 362.972 320.725 362.598 320.76C362.901 320.982 363.081 321.209 363.075 321.446C363.07 321.681 362.879 321.901 362.569 322.11C362.943 322.163 363.205 322.283 363.31 322.492C363.415 322.703 363.35 322.987 363.169 323.316C363.525 323.191 363.813 323.173 364.004 323.312C364.196 323.45 364.268 323.729 364.257 324.11C364.514 323.835 364.76 323.679 364.998 323.716C365.229 323.747 365.424 323.965 365.591 324.305C365.692 323.938 365.839 323.692 366.066 323.613C366.288 323.534 366.562 323.635 366.864 323.857C366.787 323.49 366.802 323.2 366.962 323.026C367.121 322.853 367.411 322.815 367.787 322.868C367.545 322.578 367.417 322.316 367.483 322.088C367.543 321.859 367.782 321.692 368.14 321.567C367.791 321.426 367.562 321.248 367.507 321.018C367.459 320.787 367.591 320.528 367.846 320.251C367.468 320.286 367.182 320.237 367.033 320.057C366.879 319.877 366.875 319.587 366.973 319.224C366.659 319.431 366.382 319.519 366.165 319.429C365.941 319.339 365.8 319.086 365.719 318.717ZM366.967 319.224C368.288 318.358 370.388 315.113 372.632 311.405C369.808 314.691 367.378 317.697 366.967 319.224ZM372.632 311.403C372.828 311.179 373.028 310.95 373.223 310.72C373.179 310.691 373.142 310.658 373.1 310.627C372.944 310.889 372.788 311.15 372.632 311.403ZM367.841 320.253C369.413 320.099 372.784 318.2 376.493 315.961C372.465 317.559 368.912 319.092 367.841 320.253ZM376.491 315.959C376.746 315.858 377.005 315.757 377.269 315.655C377.247 315.609 377.223 315.568 377.208 315.526C376.97 315.671 376.733 315.818 376.491 315.959ZM368.132 321.569C369.595 322.163 373.463 322.048 377.792 321.791C373.478 321.334 369.624 321.04 368.132 321.569ZM377.79 321.789C378.034 321.818 378.287 321.844 378.535 321.87C378.537 321.826 378.537 321.785 378.539 321.743C378.291 321.758 378.036 321.774 377.79 321.789ZM367.782 322.87C368.8 324.081 372.278 325.773 376.225 327.549C372.623 325.142 369.345 323.094 367.782 322.87ZM376.223 327.549C376.403 327.674 376.59 327.799 376.772 327.918C376.792 327.885 376.812 327.852 376.825 327.819C376.63 327.733 376.423 327.641 376.223 327.549ZM366.861 323.859C367.202 325.4 369.496 328.518 372.164 331.933C370.092 328.122 368.145 324.782 366.861 323.859ZM372.166 331.926C372.256 332.091 372.347 332.263 372.439 332.43C372.465 332.41 372.489 332.395 372.52 332.377C372.401 332.228 372.278 332.074 372.166 331.926ZM365.591 324.307C365.178 325.83 365.758 329.654 366.536 333.917C366.468 329.584 366.297 325.72 365.591 324.307ZM366.534 333.917C366.536 334.089 366.54 334.265 366.54 334.441C366.573 334.436 366.598 334.432 366.628 334.432C366.6 334.263 366.567 334.087 366.534 333.917ZM364.255 324.112C363.18 325.272 361.917 328.922 360.625 333.06C362.58 329.195 364.222 325.692 364.255 324.112ZM360.625 333.06C360.548 333.21 360.473 333.364 360.396 333.518C360.422 333.531 360.444 333.537 360.473 333.55C360.523 333.39 360.576 333.221 360.625 333.06ZM363.167 323.321C361.673 323.846 358.858 326.498 355.792 329.557C359.321 327.043 362.402 324.703 363.167 323.321ZM355.792 329.557C355.645 329.661 355.489 329.773 355.342 329.876C355.363 329.9 355.385 329.92 355.405 329.946C355.53 329.817 355.665 329.689 355.792 329.557ZM362.569 322.114C361.003 321.886 357.282 322.923 353.142 324.206C357.436 323.622 361.246 322.984 362.569 322.114ZM353.142 324.211C352.937 324.239 352.729 324.263 352.52 324.296C352.529 324.329 352.537 324.362 352.548 324.393C352.746 324.336 352.944 324.27 353.142 324.211ZM362.598 320.767C361.319 319.837 357.537 319.027 353.276 318.242C357.35 319.717 361.024 320.923 362.598 320.767ZM353.276 318.242C353.054 318.161 352.825 318.077 352.605 317.996C352.592 318.038 352.581 318.077 352.573 318.115C352.81 318.156 353.047 318.2 353.276 318.242ZM363.251 319.587C362.552 318.174 359.583 315.699 356.174 313.025C359.095 316.222 361.787 319 363.251 319.587ZM356.174 313.027C355.992 312.827 355.807 312.625 355.623 312.423C355.59 312.458 355.561 312.491 355.528 312.524C355.746 312.691 355.968 312.858 356.174 313.027ZM364.378 318.849C364.415 317.271 362.936 313.697 361.161 309.746C362.262 313.935 363.354 317.642 364.378 318.849ZM361.161 309.746C361.086 309.465 361.014 309.177 360.937 308.891C360.89 308.907 360.842 308.924 360.798 308.942C360.919 309.21 361.042 309.48 361.161 309.746Z" fill="url(#paint15_radial)"/>
<path d="M370.538 321.268C370.538 324.125 368.222 326.439 365.367 326.439C362.51 326.439 360.194 324.125 360.194 321.268C360.194 318.414 362.512 316.095 365.367 316.095C368.226 316.095 370.538 318.411 370.538 321.268Z" fill="#4C2300"/>
<path opacity="0.9" d="M370.538 321.268C370.538 324.125 368.222 326.439 365.367 326.439C362.51 326.439 360.194 324.125 360.194 321.268C360.194 318.414 362.512 316.095 365.367 316.095C368.226 316.095 370.538 318.411 370.538 321.268Z" fill="black"/>
<path opacity="0.5" d="M358.152 327.307C359.137 326.644 360.48 326.912 361.139 327.896C361.803 328.883 361.541 330.224 360.55 330.885C359.561 331.551 358.223 331.287 357.563 330.298C356.9 329.312 357.163 327.969 358.152 327.307Z" fill="url(#paint16_linear)"/>
<path opacity="0.5" d="M369.45 320.547C368.899 321.369 367.321 321.275 365.923 320.336C364.521 319.398 363.835 317.967 364.385 317.148L364.387 317.145C364.936 316.323 366.516 316.418 367.914 317.358C369.316 318.295 370.002 319.723 369.45 320.547Z" fill="url(#paint17_linear)"/>
<path opacity="0.75" d="M375.731 318.352C374.48 320.27 371.257 320.384 368.532 318.609C365.809 316.833 364.611 313.84 365.861 311.921C367.11 310.005 370.334 309.891 373.059 311.664C375.781 313.442 376.977 316.438 375.731 318.352Z" fill="url(#paint18_linear)"/>
<path d="M366.053 260.069C330.803 260.069 319.624 286.641 319.624 318.367C319.624 350.094 342.404 367.62 365.475 367.385C384.965 370.345 408.761 342.471 410.539 318.519C410.541 286.794 391.325 260.069 366.053 260.069ZM368.857 334.263C360.915 335.137 338.37 330.832 337.534 328.006C336.025 322.908 347.498 312.796 364.02 310.768C380.546 308.742 393.066 312.454 391.954 317.473C389.268 329.597 376.909 333.373 368.857 334.263Z" fill="#B2713B"/>
<path d="M368.857 334.263C360.915 335.137 338.369 330.832 337.534 328.006C336.025 322.908 347.498 312.797 364.02 310.768C378.216 309.028 389.431 311.526 391.613 315.445C389.639 301.38 374.691 290.399 356.48 290.317C336.897 290.236 320.993 302.791 320.94 318.37C320.894 333.946 336.73 346.635 356.311 346.723C375.898 346.804 391.8 334.25 391.852 318.673C391.852 318.442 391.817 318.216 391.811 317.985C388.886 329.692 376.79 333.386 368.857 334.263Z" fill="url(#paint19_radial)"/>
<path d="M391.954 317.473C393.066 312.452 380.546 308.742 364.02 310.768C347.498 312.797 336.027 322.908 337.534 328.006C338.37 330.832 360.915 335.137 368.857 334.263C376.909 333.373 389.268 329.597 391.954 317.473Z" fill="url(#paint20_radial)"/>
<path d="M391.081 306.252C381.834 301.905 370.534 301.505 360.671 304.043C355.388 305.276 349.76 306.867 345.149 309.84C340.875 312.335 337.403 315.334 334.157 319.048C337.106 315.31 340.251 312.196 344.316 309.665C349.318 306.553 354.797 304.623 360.499 303.256C370.58 300.782 381.867 301.344 391.081 306.252Z" fill="#843E04"/>
<path d="M389.719 307.577C387.785 306.804 380.785 305.38 377.728 305.235C374.021 305.054 366.58 305.509 362.928 306.166C355.513 307.502 342.598 311.623 337.264 321.954C335.625 325.129 337.101 327.351 337.534 327.832C336.875 322.501 348.166 313.007 364.02 311.122C380.546 309.157 393.066 312.755 391.954 317.622C389.268 329.375 376.909 333.034 368.857 333.896C359.849 334.86 343.18 330.513 340.978 330.043C345.371 332.261 357.513 334.647 362.442 335.104C364.077 335.258 367.365 335.333 369.004 335.291C382.078 334.944 391.351 328.314 394.78 319.337C396.982 313.566 394.573 309.515 389.719 307.577Z" fill="black"/>
<path d="M398.878 386.59C398.955 436.304 358.68 476.678 308.913 476.746C259.155 476.828 218.75 436.59 218.673 386.864C218.596 337.155 258.871 296.622 308.636 296.543C358.396 296.466 398.806 336.869 398.878 386.59Z" fill="url(#paint21_radial)"/>
<path d="M391.187 254.788C391.187 300.303 354.291 337.198 308.779 337.198C263.264 337.198 226.367 300.303 226.367 254.788C226.367 209.274 263.264 172.378 308.779 172.378C354.291 172.378 391.187 209.274 391.187 254.788Z" fill="url(#paint22_radial)"/>
<path d="M204.364 298.457C220.791 277.837 249.059 281.268 272.222 284.582C278.114 285.425 284.179 286.058 289.956 287.518C294.097 288.561 297.351 293.28 294.024 297.09C292.468 298.903 289.073 298.567 286.976 298.523C259.241 297.963 227.89 282.013 204.364 298.457Z" fill="#2A232B"/>
<path d="M413.332 297.622C408.576 294.44 403.544 292.194 397.854 291.273C376.984 287.889 337.231 301.8 326.782 298.855C320.382 297.048 321.677 290.638 324.507 289.058C326.21 288.106 326.683 288.131 341.888 285.515C367.725 281.076 396.654 277.547 413.332 297.622Z" fill="#2A232B"/>
<path d="M301.812 330.661C301.812 330.661 298.738 355.091 297.36 359.847C294.33 370.29 283.805 384.937 285.847 391.556C289.932 404.79 302.41 401.43 308.974 401.382C315.046 401.333 326.713 404.792 329.109 396.173C329.882 393.391 328.14 386.359 328.14 386.359C328.14 386.359 322.329 393.198 308.636 392.44C304.729 392.222 298.371 387.833 298.299 381.645C298.204 373.257 302.259 366.185 303.144 357.858C303.812 351.533 301.812 330.661 301.812 330.661Z" fill="#A35E26"/>
<path d="M320.191 397.567C322.553 397.567 323.193 398.283 323.193 399.169C323.193 400.057 322.457 401.424 320.191 400.773C317.699 400.063 313.35 400.389 313.35 400.389C313.35 400.389 317.824 397.567 320.191 397.567ZM297.617 397.567C295.25 397.569 294.615 398.288 294.615 399.178C294.613 400.063 295.325 401.338 297.617 400.78C300.144 400.16 304.456 400.395 304.456 400.395C304.456 400.395 299.984 397.576 297.617 397.567ZM328.138 386.359C328.138 386.359 331.41 390.607 330.731 395.095C330.069 399.452 323.457 401.382 323.457 401.382C323.457 401.382 328.047 398.05 328.603 394.007C328.863 392.11 328.138 386.359 328.138 386.359ZM287.739 381.995C287.739 381.995 285.352 387.937 286.042 391.559C287.297 398.099 294.182 400.709 294.182 400.709C294.182 400.709 289.886 396.228 288.359 392.266C286.686 387.937 287.739 381.995 287.739 381.995Z" fill="#843E04"/>
<path d="M320.075 389.528C322.367 387.574 322.597 386.46 322.123 385.728C321.65 384.994 320.275 384.531 318.356 386.889C316.24 389.482 311.64 391.403 311.64 391.403C311.64 391.403 317.782 391.477 320.075 389.528Z" fill="#C18553"/>
<path d="M310.051 533.403C299.261 533.381 294.866 527.469 288.779 519.294C285.24 514.525 281.219 509.119 275.066 503.493C273.703 502.219 269.132 497.911 267.967 495.604C254.166 493.582 251.683 489.582 246.211 480.858C243.904 477.166 241.047 472.595 236.586 466.991C230.828 459.959 226.015 454.487 221.752 449.652C201.138 426.204 196.831 421.325 184.964 348.255C183.821 341.464 182.547 332.784 182.261 330.366C182.547 330.256 182.832 330.125 183.096 329.971C185.931 330.366 189.777 330.828 196.106 331.267C197.952 342.871 201.358 349.727 204.654 356.364C206.918 360.913 209.269 365.616 211.005 371.747C215.862 388.251 225.004 396.58 233.839 404.645C243.728 413.655 253.925 422.973 257.924 443.784L257.946 443.916L258.078 443.96C266.825 446.4 270.385 452.113 275.219 461.277L275.395 461.629L275.593 461.299C276.714 459.409 277.373 458.047 277.878 456.97C279.615 453.278 279.834 452.817 293.262 445.389C296.822 443.389 298.602 442.048 300.426 440.488L301.195 440.818C302.821 441.433 304.777 441.763 306.909 441.763C309.348 441.763 311.787 441.301 313.326 440.576C315.392 443.477 317.699 444.356 320.6 445.499C324.687 447.081 329.764 449.059 336.928 457.607L337.038 457.739L337.192 457.651C343.147 454.487 346.905 449.784 350.883 444.817C355.014 439.653 359.3 434.313 366.552 429.72C371.826 417.501 378.902 410.183 385.737 403.085C394.241 394.273 403.032 385.152 407.801 366.846C408.987 362.363 414.921 347.42 418.459 338.497C419.778 335.157 420.766 332.674 421.074 331.839C426.656 331.817 431.557 330.96 436.084 330.059C433.557 339.311 433.469 347.947 433.359 357.111C433.227 369.879 433.073 383.065 426.326 399.481C409.471 443.257 400.439 451.037 390.879 459.3C385.693 463.783 380.331 468.398 373.628 479.276C367.848 489.517 363.343 491.736 352.707 493.187L352.575 493.209L352.531 493.34C349.828 502.592 340.356 509.251 330.335 516.305C323.852 520.854 317.15 525.579 312.139 531.183C312.029 531.293 311.831 531.535 311.59 531.798C311.15 532.326 310.403 533.183 310.051 533.403Z" fill="#2A232B"/>
<path d="M398.263 436.181C385.077 458.157 368.112 461.365 359.322 485.539C359.322 476.749 357.124 472.353 354.926 463.563C340.356 518.217 326.358 500.922 313.172 520.701C315.37 514.108 310.974 507.515 310.974 500.922C310.974 507.515 306.579 514.108 306.579 520.701C306.579 509.713 299.986 503.12 295.591 494.329C297.789 505.317 302.184 511.91 302.184 522.898C287.262 497.604 272.231 493.846 260.43 472.353C260.43 476.749 260.43 483.341 260.43 487.737C229.641 426.841 206.698 438.708 183.162 338.278C183.645 341.464 184.217 345.09 184.744 348.299C199.072 436.423 202.721 425.808 236.454 467.123C251.375 485.869 248.211 492.945 267.791 495.692C268.89 497.912 273.11 501.977 274.934 503.647C291.965 519.25 293.02 533.623 310.117 533.623C310.645 533.359 311.941 531.733 312.359 531.315C324.995 517.185 348.29 508.834 352.795 493.406C363.255 491.956 367.98 489.802 373.87 479.386C392.505 449.103 400.285 467.826 426.568 399.569C434.15 381.131 433.425 363.792 433.666 347.793C425.535 386.383 412.965 410.777 398.263 436.181Z" fill="#1B141C"/>
<path d="M420.942 331.641C420.195 333.839 409.295 360.517 407.625 366.803C399.054 399.613 378.221 402.14 366.464 429.544C352.025 438.664 349.059 451.102 337.104 457.454C324.753 442.664 318.314 447.367 313.414 440.29C310.82 441.631 305.195 442.114 301.327 440.598H301.305C300.997 440.466 300.711 440.356 300.404 440.224C298.668 441.741 296.888 443.081 293.174 445.191C275.813 454.794 280.45 452.773 275.417 461.189C270.912 452.663 267.264 446.312 258.144 443.763C250.606 404.338 221.51 406.667 211.225 371.703C206.984 356.65 199.402 350.826 196.303 331.07C196.303 331.07 195.754 330.762 195.776 333.047C197.314 346.299 207.094 377.043 216.807 391.306C230.037 410.93 249.09 414.556 256.957 444.642C270.626 448.949 272.406 459.893 274.736 463.651C273.176 470.134 274.428 479.474 280.406 485.451C280.406 485.451 279.329 483.979 279.087 483.473C276.626 479.452 275.637 474.353 275.857 469.694C276.692 454.201 285.021 452.597 294.031 446.641C295.108 445.938 300.228 442.246 300.711 441.213C304.425 443.191 309.458 442.883 313.238 441.521C313.282 441.565 313.326 441.631 313.348 441.697C319.589 449.059 324.709 445.652 335.499 458.377C340.356 463.453 338.576 467.387 338.576 477.606C339.807 472.068 341.411 463.299 338.4 459.168C349.608 453.959 358.377 435.192 368.2 429.786C380.924 404.316 401.999 400.646 410.416 367.528C414.481 352.057 418.041 349.134 421.997 332.322C422.107 331.377 420.942 331.641 420.942 331.641ZM435.6 330.103C428.414 346.826 433.337 369.11 421.711 397.767C394.593 468.156 386.352 445.059 369.914 479.539C366.705 487.055 361.145 490.044 353.322 491.736C355.146 484.242 354.75 485.033 354.86 478.814C351.542 507.603 332.181 507.91 314.468 525.557C312.095 528.172 309.26 531.864 309.26 531.864C296.646 531.864 289.196 513.075 280.406 505.449C272.121 498.263 266.297 495.714 264.737 484.858C264.737 487.055 264.649 490.088 266.934 494.285C250.848 491.121 252.826 482.067 239.948 464.156C222.345 440.158 206.83 431.61 199.688 399.283C197.402 388.932 183.162 332.872 183.03 329.773C183.008 329.773 183.008 329.795 182.986 329.795C182.678 329.971 182.349 330.103 182.019 330.234C182.261 332.432 183.579 341.376 184.744 348.299C199.072 436.423 202.72 425.808 236.454 467.123C251.375 485.869 248.211 492.945 267.791 495.692C268.89 497.911 273.11 501.977 274.934 503.647C291.965 519.25 293.02 533.622 310.117 533.622C310.645 533.359 311.941 531.732 312.359 531.315C324.995 517.184 348.29 508.833 352.795 493.406C363.255 491.956 367.98 489.802 373.87 479.386C392.505 449.103 400.285 467.826 426.568 399.569C438.237 371.198 430.194 352.035 436.413 329.795L435.6 330.103Z" fill="black"/>
<path d="M308.777 409.678L303.678 416.71C302.799 417.941 301.393 418.688 299.876 418.732L261.924 419.963C261.418 419.984 260.957 419.655 260.825 419.149C260.693 418.644 260.891 418.139 261.33 417.875L269.11 413.37C270.099 412.798 271.22 412.447 272.362 412.359L308.777 409.678ZM308.777 409.678L313.875 416.71C314.754 417.941 316.161 418.688 317.677 418.732L355.629 419.963C356.135 419.984 356.596 419.655 356.728 419.149C356.86 418.666 356.662 418.139 356.223 417.875L348.443 413.37C347.454 412.798 346.334 412.447 345.191 412.359L308.777 409.678Z" fill="#2A232B"/>
<path d="M420.437 354.654C419.98 354.654 419.498 354.632 419.006 354.591C414.672 340.535 419.734 320.559 428.346 308.549C422.47 292.264 433.827 300.732 431.939 281.314C431.598 278.523 432.053 276.013 432.992 273.438C430.203 266.157 429.434 257.639 430.359 252.958C422.384 231.925 419.595 246.244 415.349 220.227C408.844 217.873 396.953 208.868 391.908 204.934C378.816 194.72 359.209 226.532 342.828 215.832C333.067 224.693 314.688 223.108 308.72 221.126C300.305 225.363 283.419 223.181 274.644 215.827C260.548 225.954 254.045 200.706 230.252 201.369C215.293 212.16 219.365 213.905 202.197 220.229C200.663 230.226 202.079 231.83 194.06 240.465C189.326 245.488 189.308 247.233 187.397 252.319H187.054L187.17 252.914L187.087 253.132L187.243 253.294C188.284 258.977 186.386 267.763 184.546 273.477C188.1 283.331 181.511 286.113 188.814 296.055C191.172 299.266 192.044 300.503 189.185 308.551C199.551 323.011 202.481 345.638 198.558 354.597C182.902 356.107 183.788 334.375 182.507 326.784C179.507 305.479 156.799 321.02 160.663 300.901C154.859 296.306 156.338 290.454 158.305 281.342C152.916 270.001 142.376 229.356 159.801 219.7C158.575 204.354 166.045 189.067 178.681 182.538C180.562 167.977 198.769 145.454 213.071 148.425C216.354 131.035 247.589 109.167 261.33 118.918C272.05 108.699 294.301 105.235 308.735 109.47C324.604 105.332 344.301 108.429 356.214 118.9C370.356 109.213 400.933 131.314 404.456 148.359C420.087 146.88 436.125 166.678 438.89 182.569C451.931 189.287 458.835 204.596 457.732 219.702C474.162 228.789 466.063 265.715 459.257 281.325C460.772 289.236 463.119 295.95 456.886 300.903C461.055 322.002 437.211 302.956 434.534 331.059C433.684 339.884 432.277 354.654 420.437 354.654Z" fill="#2A232B"/>
<path d="M441.277 307.177C439.448 307.331 437.62 304.318 435.791 304.318C435.791 293.108 442.476 286.379 449.162 279.654C446.933 279.654 444.707 275.169 442.476 277.411C435.791 266.199 446.933 254.989 451.392 246.018C438.02 248.262 426.88 232.566 435.791 221.354C437.338 221.354 438.886 219.196 440.433 218.625C432.539 216.818 426.528 216.168 422.421 207.901C420.193 201.174 422.421 194.447 426.878 187.722C413.508 196.693 395.681 192.208 386.77 178.754C386.77 176.51 386.77 172.025 386.77 169.783C382.311 180.995 371.169 189.962 357.799 185.478C354.181 185.478 347.624 182.523 345.285 176.607C345.683 182.222 343.947 187.722 342.2 187.722C328.83 194.447 311.005 185.478 308.777 169.783C308.777 178.754 304.32 189.962 299.863 192.205C288.721 198.932 275.351 185.476 279.808 169.783C275.351 185.478 261.981 192.205 248.611 187.722C241.926 185.478 233.012 180.995 233.012 169.783C226.327 185.478 208.5 201.174 197.358 180.995C204.043 198.932 191.695 219.113 179.241 219.113C188.065 231.18 181.762 257.23 166.163 257.23C183.988 261.715 175.077 281.894 177.303 295.348C175.314 295.348 173.323 298.914 171.332 298.079C189.961 309.856 194.205 332.867 197.842 354.63C198.077 354.619 198.305 354.617 198.552 354.595C202.474 345.635 199.545 323.007 189.179 308.549C192.038 300.501 191.165 299.264 188.807 296.053C181.505 286.111 188.093 283.329 184.54 273.475C186.379 267.763 188.278 258.975 187.236 253.292L187.08 253.129L187.164 252.912L187.047 252.316H187.39C189.302 247.231 189.319 245.486 194.053 240.462C202.072 231.826 200.657 230.222 202.191 220.227C219.361 213.902 215.286 212.157 230.245 201.367C254.039 200.703 260.541 225.952 274.637 215.825C283.412 223.178 300.298 225.358 308.713 221.124C314.684 223.106 333.06 224.69 342.822 215.83C359.203 226.53 378.81 194.717 391.901 204.932C396.947 208.865 408.838 217.871 415.343 220.225C419.588 246.242 422.377 231.923 430.352 252.956C429.427 257.637 430.198 266.157 432.985 273.435C432.047 276.011 431.592 278.52 431.932 281.311C433.82 300.729 422.463 292.262 428.339 308.546C420.219 319.873 415.264 338.271 418.356 352.123C416.151 334.34 424.698 315.311 441.277 307.177Z" fill="#1B141C"/>
<path d="M379.234 159.943C383.012 157.692 398.832 158.743 402.078 147.61C402.906 160.791 388.576 161.602 379.234 159.943ZM415.167 158.261C421.694 160.351 425.744 171.941 426.309 174.796C428.025 167.223 423.14 157.382 415.167 158.261ZM417.674 172.836C420.832 175.686 419.808 184.046 418.789 186.29C422.368 182.921 422.852 174.816 417.674 172.836ZM412.939 175.638C413.182 181.659 412.51 185.852 409.317 190.212C415.136 187.318 415.231 181.716 412.939 175.638ZM430.486 187.41C432.218 186.283 442.76 186.498 443.857 189.094C443.905 184.094 433.194 184.116 430.486 187.41ZM426.309 197.781C435.141 197.598 433.901 195.144 443.019 195.818C436.69 191.586 431.247 195.739 426.309 197.781ZM438.009 201.424C436.123 203.666 431.792 204.985 431.603 210.672C434.284 205.62 435.846 205.826 438.009 201.424ZM446.92 215.439C454.075 219.038 456.275 223.691 458.062 231.415C460.044 222.609 456.157 215.869 446.92 215.439ZM449.707 225.528C453.711 229.516 453.952 237.891 451.656 243.185C456.948 238.823 457.121 228.633 449.707 225.528ZM446.362 231.975C445.54 236.061 443.771 237.883 441.628 242.625C445.059 240.01 447.061 236.518 446.362 231.975ZM448.59 258.32C450.904 265.386 452.805 267.886 449.986 272.616C455.695 269.047 452.928 263.454 448.59 258.32ZM445.25 260.845C445.14 265.03 444.643 268.271 442.186 273.457C445.623 270.989 447.283 266.682 445.25 260.845ZM369.764 165.267C370.885 170.744 379.737 172.253 379.737 172.253C382.023 172.79 385.323 172.658 387.312 171.155C384.917 171.561 372.024 168.269 369.764 165.267ZM358.902 155.459C362.277 149.029 369.727 144.852 376.726 143.687C367.475 141.166 359.895 146.847 358.902 155.459ZM353.608 127.71C357.875 131.629 357.915 138.199 358.062 146.768C361.464 140.503 361.304 130.747 353.608 127.71ZM355.836 124.067C359.218 124.724 364.58 134.398 365.031 136.681C366.288 131.011 360.649 123.12 355.836 124.067ZM350.265 132.196C350.964 139.094 350.331 144.238 346.648 150.132C353.32 146.139 353.874 139.114 350.265 132.196ZM343.303 152.937C332.135 154.961 327.566 170.287 331.326 180.404C331.812 175.959 335.517 158.51 343.303 152.937ZM332.161 144.526C311.394 152.018 313.009 175.354 321.019 180.683C319.094 177.629 315.547 158.657 332.161 144.526ZM307.928 145.089C296.85 161.738 309.671 173.095 314.341 181.714C311.256 170.671 303.942 158.677 307.928 145.089ZM325.199 129.954C321.951 130.396 312.152 127.886 311.271 135.558C314.807 130.218 320.554 133.268 325.199 129.954ZM332.44 126.31C323.074 116.716 319.8 120.913 318.233 122.104C323.931 120.364 326.384 123.227 332.44 126.31ZM327.705 114.538C334.436 114.608 339.574 119.507 341.354 126.029C343.07 118.349 335.842 110.896 327.705 114.538ZM260.854 134.716C268.991 127.48 278.393 120.148 288.15 123.504C278.867 114.364 266.486 122.959 260.854 134.716ZM271.719 135.839C255.753 149.79 269.108 162.569 274.226 161.905C271.995 160.841 262.998 152.484 271.719 135.839ZM276.452 145.647C278.788 147.524 280.311 149.381 280.909 156.297C282.77 151.664 281.682 147.24 276.452 145.647ZM293.165 134.716C293.391 135.554 296.589 146.44 295.729 146.44C295.448 149.392 294.855 150.649 293.444 153.216C303.509 147.724 294.538 136.978 293.165 134.716ZM291.774 127.992C302.351 126.952 302.678 140.652 302.078 144.526C308.278 135.248 302.023 121.803 291.774 127.992ZM265.31 166.669C270.202 167.977 267.468 173.803 268.097 182.086C270.833 175.717 272.07 166.025 265.31 166.669ZM254.201 157.244C249.679 138.92 235.23 142.006 235.23 142.006C238.13 141.199 249.011 150.163 250.679 162.711C251.16 165.204 251.654 169.478 252.219 172.836C252.922 170.594 255.68 162.47 254.201 157.244ZM239.128 154.057C244.227 158.013 241.284 169.542 239.128 175.64C245.71 169.1 247.611 156.574 239.128 154.057ZM230.773 156.859C233.957 161.039 227.03 169.269 222.694 174.798C229.727 171.904 237.583 161.589 230.773 156.859ZM241.077 122.386C234.834 121.364 228.835 129.662 230.494 135.839C231.269 132.095 236.643 123.656 241.077 122.386ZM238.014 130.514C233.006 131.512 233.199 139.151 235.506 142.285C235.241 140.043 235.166 131.545 238.014 130.514ZM206.261 161.345C197.446 157.42 188.955 161.162 187.599 170.036C192.143 163.892 198.714 161.487 206.261 161.345ZM201.246 169.192C195.191 165.415 187.489 172.987 188.99 179.844C189.928 175.029 196.259 168.641 201.246 169.192ZM197.626 176.479C190.155 177.154 188.909 188.045 193.449 191.614C191.728 187.856 193.218 178.563 197.626 176.479ZM178.964 188.252C183.79 190.476 188.968 194.792 188.364 194.792C190.104 197.297 190.471 198.218 191.218 201.145C193.152 192.698 187.509 189.368 178.964 188.252ZM182.863 198.062C187.095 201.332 190.372 207.349 187.599 213.478C193.363 208.808 190.904 200.673 182.863 198.062ZM177.986 200.66C177.608 200.284 177.277 200.319 177.29 200.304C178.509 200.471 177.888 207.936 175.039 210.14C174.132 211.14 171.106 214.107 170.049 215.159C182.103 211.037 180.217 202.835 177.986 200.66ZM173.114 221.324C176.538 225.561 177.026 232.266 176.292 233.002C175.613 237.909 176.013 235.74 175.066 240.944C179.821 235.47 181.685 226.545 173.114 221.324ZM168.937 229.453C171.541 231.622 171 240.97 167.264 242.906C173.618 242.458 174.121 231.136 168.937 229.453ZM160.858 230.573C163.832 234.149 161.748 236.032 152.503 246.55C162.238 242.058 167.568 233.826 160.858 230.573ZM160.858 257.202C166.238 261.237 162.256 270.844 160.021 273.176C167.1 269.836 168.401 259.028 160.858 257.202ZM169.772 266.17C173.143 267.137 168.066 275.092 166.15 277.38C172.11 274.317 175.156 265.988 169.772 266.17ZM263.568 174.042C264.135 180.154 258.366 185.991 257.234 187.131C265.163 184.727 265.08 177.354 263.568 174.042ZM354.691 175.972C354.691 175.972 352.48 173.084 350.823 170.687C351.889 176.965 355.601 182.235 361.965 183.393C361.091 182.74 354.691 176.864 354.691 175.972ZM356.766 169.192C357.594 173.737 360.956 177.143 365.681 177.416C362.8 175.761 359.924 173.431 356.766 169.192ZM454.814 287.285C452.97 291.262 449.129 293.596 446.641 297.747C454.003 293.354 454.44 290.856 454.814 287.285ZM452.583 298.495C450.355 299.646 446.7 300.765 442.925 305.224C448.463 303.178 450.357 300.532 452.583 298.495ZM161.414 285.788C163.133 288.647 165.478 290.961 168.099 292.517C166.449 289.713 164.144 287.454 161.414 285.788ZM162.159 294.009C164.919 303.156 169.585 302.233 169.585 302.233C167.095 300.837 163.001 295.68 162.159 294.009Z" fill="#3A353A"/>
<path d="M458.389 219.313C459.354 206.035 453.495 189.351 439.448 182.114C436.719 166.729 420.399 146.15 404.948 147.629C401.54 130.982 370.296 108.385 356.238 118.054C345.965 109.017 326.617 104.156 308.717 108.771C293.477 104.35 271.156 108.611 261.243 118.054C247.697 108.424 215.713 130.725 212.528 147.629C198.747 144.79 179.931 167.548 178.052 182.094C166.122 188.239 157.848 203.593 159.094 219.315C141.383 229.097 152.529 270.713 157.591 281.426C157.07 283.881 155.632 290.007 155.916 292.66C155.94 293.669 155.98 294.341 156.002 294.341C156.648 296.583 156.804 298.71 159.92 301.178C156.037 321.424 178.925 306.226 181.843 326.899C183.311 335.61 182.16 344.587 188.219 351.406C191.275 354.744 196.798 355.588 198.974 355.217C203.222 346.244 200.204 322.921 189.893 308.441C193.526 298.169 190.772 298.499 187.219 292.565C183.909 287.043 188.012 281.241 185.217 273.464C188.309 263.907 188.504 256.386 187.83 252.991C187.852 252.991 187.852 252.991 187.83 252.969C189.895 247.559 189.763 245.965 194.51 240.928C202.683 232.127 201.316 230.2 202.762 220.728C218.625 216.812 214.645 212.36 230.281 203.635C243.071 196.497 260.346 226.906 274.591 216.669C277.736 219.3 280.105 220.423 283.647 221.827C285.238 222.313 284.944 222.398 287.651 222.858C288.24 222.926 301.342 223.69 301.342 223.082C302.634 222.95 307.537 222.455 308.744 221.849C310.794 222.532 314.091 222.871 316.147 223.082C316.147 223.104 319.712 223.328 323.244 223.328C331.241 223.64 338.515 220.605 342.872 216.669C359.651 227.602 379.614 195.592 393.578 207.813C406.682 219.282 411.018 219.372 414.752 220.728C414.87 221.453 415.321 226.172 415.6 227.971C418.004 239.944 423.757 237.397 429.66 253.015C429.214 255.261 428.647 263.924 432.273 273.444C431.467 275.686 430.895 278.334 431.267 281.38C433.117 300.358 421.744 292.28 427.59 308.441C419.756 319.374 413.589 339.908 418.472 355.125C418.494 355.149 418.494 355.193 418.512 355.217C435.24 357.127 434.42 334.131 435.642 326.896C438.536 306.393 461.486 321.268 457.585 301.176C460.747 298.655 460.899 296.58 461.479 294.339C461.503 294.339 461.55 293.666 461.572 292.68C461.868 289.856 460.339 283.645 459.912 281.402C462.367 275.765 477.926 230.096 458.389 219.313ZM459.668 278.173C459.523 278.991 459.084 280.698 458.607 282.008C458.772 282.973 460.947 294.139 460 294.139C459.312 296.383 459.767 297.594 456.666 300.552C459.734 319.363 435.855 302.771 432.398 326.296C430.35 338.823 432.55 351.672 419.443 353.804C416.824 341.192 422.593 319.726 428.871 308.804C423.883 293.768 435.295 300.936 433.374 281.18C433.025 278.222 433.328 276.16 433.965 273.914C432.341 269.157 430.623 260.544 431.245 254.655C426.006 237.014 429.904 247.475 420.512 234.63C420.472 234.562 419.525 232.905 419.49 232.837L419.468 232.813C417.145 227.84 417.786 225.341 416.486 219.853C416.481 219.853 404.287 214.214 393.441 205.002C379.95 193.55 359.392 224.328 342.393 215.57C333.614 222.352 316.209 221.888 308.742 219.966C304.564 220.924 292.873 221.713 285.886 220.28C285.708 220.242 282.726 219.361 282.577 219.315C280.155 218.577 277.166 216.944 275.046 215.57C259.744 224.49 243.337 189.36 226.813 202.811C217.148 210.681 212.313 216.487 201.015 219.853C200.145 222.095 200.518 227.651 198.011 232.813V232.837C198.011 232.837 197.53 234.522 192.941 239.362C187.212 245.594 187.915 249.497 186.236 254.674C186.856 260.59 185.206 268.214 183.535 273.936C185.801 282.085 180.883 288.298 186.691 295.662C191.418 301.8 189.854 302.345 188.632 308.823C194.229 318.662 200.903 340.016 198.035 353.826C175.431 350.244 198 316.007 169.715 311.311C165.471 310.652 162.48 310.579 161.313 307.276C160.632 305.309 160.614 301.721 160.81 300.547C157.762 297.407 158.138 296.378 157.505 294.135C156.397 294.135 158.874 283.103 158.874 282.028C158.052 279.784 143.311 230.009 160.505 219.357C160.505 203.954 168.998 188.894 178.989 182.718C179.096 182.27 179.224 181.822 179.358 181.349C179.358 181.327 179.378 181.305 179.378 181.283C183.643 168.087 200.591 147.043 213.878 148.816C216.983 135.096 249.033 110.281 261.917 119.06C276.659 109.98 294.297 107.921 308.717 110.901C327.245 107.501 345.215 111.898 355.557 119.06C367.958 110.613 398.995 133.431 403.599 148.816C417.626 146.946 434.499 169.704 438.119 181.327V181.349C438.251 181.822 438.385 182.27 438.512 182.718C451.401 191.594 455.04 202.497 456.926 218.528C456.926 218.785 456.972 218.948 456.972 219.335C471.575 229.145 463.716 257.004 459.668 278.173Z" fill="black"/>
</g>
<defs>
<linearGradient id="paint0_linear" x1="300" y1="-75" x2="300" y2="675" gradientUnits="userSpaceOnUse">
<stop stop-color="#151371"/>
<stop offset="0.453125" stop-color="#FF00B8"/>
<stop offset="0.96875" stop-color="#FFC700"/>
</linearGradient>
<linearGradient id="paint1_linear" x1="439" y1="245" x2="439" y2="644" gradientUnits="userSpaceOnUse">
<stop stop-color="#FF00B8"/>
<stop offset="1" stop-color="#F0DB0A" stop-opacity="0"/>
</linearGradient>
<linearGradient id="paint2_linear" x1="194" y1="161" x2="194" y2="560" gradientUnits="userSpaceOnUse">
<stop stop-color="#FF00B8"/>
<stop offset="1" stop-color="#F0DB0A" stop-opacity="0"/>
</linearGradient>
<linearGradient id="paint3_linear" x1="308.777" y1="511.91" x2="308.777" y2="415.216" gradientUnits="userSpaceOnUse">
<stop stop-color="#A35E26" stop-opacity="0.8"/>
<stop offset="0.7" stop-color="#843E04"/>
</linearGradient>
<linearGradient id="paint4_linear" x1="308.777" y1="448.18" x2="308.777" y2="441.587" gradientUnits="userSpaceOnUse">
<stop offset="0.1" stop-color="#AA6730"/>
<stop offset="1" stop-color="#A35E26"/>
</linearGradient>
<radialGradient id="paint5_radial" cx="0" cy="0" r="1" gradientUnits="userSpaceOnUse" gradientTransform="translate(249.977 321.743) rotate(174.019) scale(33.2193)">
<stop stop-color="white"/>
<stop offset="0.315" stop-color="#FCFDFD"/>
<stop offset="0.504" stop-color="#F4F7F8"/>
<stop offset="0.66" stop-color="#E5ECEF"/>
<stop offset="0.76" stop-color="#D8E2E7"/>
</radialGradient>
<radialGradient id="paint6_radial" cx="0" cy="0" r="1" gradientUnits="userSpaceOnUse" gradientTransform="translate(252.023 321.312) rotate(-14.4847) scale(13.0195 13.0223)">
<stop stop-color="white"/>
<stop offset="1" stop-color="white" stop-opacity="0"/>
</radialGradient>
<radialGradient id="paint7_radial" cx="0" cy="0" r="1" gradientUnits="userSpaceOnUse" gradientTransform="translate(252.024 321.327) rotate(0.512025) scale(13.0119 13.0122)">
<stop stop-color="white"/>
<stop offset="1" stop-color="white" stop-opacity="0"/>
</radialGradient>
<linearGradient id="paint8_linear" x1="244.87" y1="330.648" x2="246.927" y2="328.196" gradientUnits="userSpaceOnUse">
<stop stop-color="white"/>
<stop offset="1" stop-color="white" stop-opacity="0"/>
</linearGradient>
<linearGradient id="paint9_linear" x1="254.852" y1="317.524" x2="253.206" y2="319.486" gradientUnits="userSpaceOnUse">
<stop stop-color="white"/>
<stop offset="1" stop-color="white" stop-opacity="0"/>
</linearGradient>
<linearGradient id="paint10_linear" x1="260.179" y1="312.087" x2="256.386" y2="316.607" gradientUnits="userSpaceOnUse">
<stop stop-color="white"/>
<stop offset="1" stop-color="white" stop-opacity="0"/>
</linearGradient>
<radialGradient id="paint11_radial" cx="0" cy="0" r="1" gradientUnits="userSpaceOnUse" gradientTransform="translate(260.455 317.415) rotate(1.19182) scale(35.1688 28.1336)">
<stop stop-color="#A35E26"/>
<stop offset="0.7" stop-color="#A35E26" stop-opacity="0.3"/>
<stop offset="1" stop-color="#B2713B" stop-opacity="0"/>
</radialGradient>
<radialGradient id="paint12_radial" cx="0" cy="0" r="1" gradientUnits="userSpaceOnUse" gradientTransform="translate(241.898 379.767) scale(67.062)">
<stop offset="0.95" stop-opacity="0"/>
<stop offset="1" stop-opacity="0.2"/>
</radialGradient>
<radialGradient id="paint13_radial" cx="0" cy="0" r="1" gradientUnits="userSpaceOnUse" gradientTransform="translate(366.701 321.742) rotate(5.98141) scale(33.2171)">
<stop stop-color="white"/>
<stop offset="0.316" stop-color="#FCFDFD"/>
<stop offset="0.505" stop-color="#F4F7F8"/>
<stop offset="0.661" stop-color="#E5ECEF"/>
<stop offset="0.76" stop-color="#D8E2E7"/>
</radialGradient>
<radialGradient id="paint14_radial" cx="0" cy="0" r="1" gradientUnits="userSpaceOnUse" gradientTransform="translate(365.198 321.312) rotate(-14.4847) scale(13.0197 13.0226)">
<stop stop-color="white"/>
<stop offset="1" stop-color="white" stop-opacity="0"/>
</radialGradient>
<radialGradient id="paint15_radial" cx="0" cy="0" r="1" gradientUnits="userSpaceOnUse" gradientTransform="translate(365.2 321.326) rotate(0.512025) scale(13.0124 13.0126)">
<stop stop-color="white"/>
<stop offset="1" stop-color="white" stop-opacity="0"/>
</radialGradient>
<linearGradient id="paint16_linear" x1="358.047" y1="330.648" x2="360.104" y2="328.195" gradientUnits="userSpaceOnUse">
<stop stop-color="white"/>
<stop offset="1" stop-color="white" stop-opacity="0"/>
</linearGradient>
<linearGradient id="paint17_linear" x1="368.028" y1="317.523" x2="366.382" y2="319.486" gradientUnits="userSpaceOnUse">
<stop stop-color="white"/>
<stop offset="1" stop-color="white" stop-opacity="0"/>
</linearGradient>
<linearGradient id="paint18_linear" x1="373.355" y1="312.086" x2="369.562" y2="316.607" gradientUnits="userSpaceOnUse">
<stop stop-color="white"/>
<stop offset="1" stop-color="white" stop-opacity="0"/>
</linearGradient>
<radialGradient id="paint19_radial" cx="0" cy="0" r="1" gradientUnits="userSpaceOnUse" gradientTransform="translate(356.22 317.415) rotate(178.808) scale(35.1688 28.1336)">
<stop stop-color="#A35E26"/>
<stop offset="0.7" stop-color="#A35E26" stop-opacity="0.3"/>
<stop offset="1" stop-color="#B2713B" stop-opacity="0"/>
</radialGradient>
<radialGradient id="paint20_radial" cx="0" cy="0" r="1" gradientUnits="userSpaceOnUse" gradientTransform="translate(374.781 379.767) rotate(180) scale(67.062)">
<stop offset="0.95" stop-opacity="0"/>
<stop offset="1" stop-opacity="0.2"/>
</radialGradient>
<radialGradient id="paint21_radial" cx="0" cy="0" r="1" gradientUnits="userSpaceOnUse" gradientTransform="translate(308.777 386.647) scale(90.1016)">
<stop stop-color="#C18553" stop-opacity="0.5"/>
<stop offset="0.9" stop-color="#B2713B" stop-opacity="0"/>
</radialGradient>
<radialGradient id="paint22_radial" cx="0" cy="0" r="1" gradientUnits="userSpaceOnUse" gradientTransform="translate(308.777 254.791) scale(81.3112)">
<stop stop-color="#C18553" stop-opacity="0.5"/>
<stop offset="0.9" stop-color="#B2713B" stop-opacity="0"/>
</radialGradient>
<clipPath id="clip0">
<rect width="600" height="600" fill="white"/>
</clipPath>
</defs>
</svg>
