<svg width="1646" height="1646" viewBox="0 0 1646 1646" fill="none" xmlns="http://www.w3.org/2000/svg">
<circle cx="823" cy="823" r="823" fill="#151371"/>
<mask id="mask0" mask-type="alpha" maskUnits="userSpaceOnUse" x="0" y="0" width="1646" height="1646">
<circle cx="823" cy="823" r="823" fill="#C4C4C4"/>
</mask>
<g mask="url(#mask0)">
<path d="M343.564 1491.52C342.371 1476.66 341.54 1466.43 340.384 1452.12C352.128 1453.89 365.861 1455.12 379.195 1458.15C398.456 1462.53 406.045 1458.01 407.997 1437.87C408.972 1427.75 412.08 1415.68 408.033 1407.62C395.24 1382.1 412.767 1371.14 428.342 1359.32C452.192 1341.21 455.806 1332.14 444.567 1304.38C441.893 1297.8 435.497 1292.31 429.787 1287.53C419.344 1278.82 408.358 1270.72 397.192 1262.92C381.689 1252.04 366.366 1240.72 349.96 1231.36C336.481 1223.7 321.556 1218.63 304.138 1211.04C294.562 1186.21 271.94 1165.86 257.449 1166.44C243.897 1154.65 233.671 1145.76 223.408 1136.83C236.164 1110.37 218.132 1088.83 209.784 1066.63C202.014 1045.99 186.584 1030.09 167.214 1016.78C154.096 1007.78 145.279 990.828 137.69 975.863C125.62 952.077 116.947 926.557 104.986 902.735C101.806 896.373 89.9167 894.818 85.4357 888.637C75.245 874.503 67.1864 858.851 57.5016 842.584C42.1071 846.669 52.8037 831.776 50.7439 819.991C40.3364 825.956 31.9164 830.763 21.9787 836.403C11.3905 820.208 6.69264 799.351 9.54748 776.83C12.0409 757.129 15.474 737.573 18.3288 717.908C19.1961 711.98 21.0391 705.51 19.6659 700.015C12.3662 671.133 24.6528 645.72 32.3862 619.332C42.5046 584.883 51.1776 550 61.838 515.695C66.6082 500.368 74.6668 486.053 81.7135 470.184C98.1921 483.704 93.0606 499.283 88.9048 513.454C84.3515 528.997 76.7627 543.601 71.3421 558.928C69.0655 565.363 68.9209 572.556 67.8368 579.424C69.6798 579.93 71.5228 580.4 73.3658 580.906C80.7017 560.049 88.9771 539.444 95.1204 518.225C102.023 494.584 115.935 476.618 138.051 467.798C155.723 460.713 166.528 451.568 172.273 432.662C178.055 413.757 221.637 388.742 239.778 390.116C256.907 362.064 261.099 360.149 319.027 355.413C305.909 361.956 296.658 366.547 287.407 371.174C288.274 372.981 289.177 374.789 290.045 376.596C311.402 369.583 337.673 374.5 353.357 350.172C350.574 349.051 349.454 348.147 348.551 348.328C341.143 349.774 333.771 351.401 326.399 352.991C327.808 344.858 327.989 336.218 330.988 328.736C333.626 322.157 339.444 316.807 345.371 308.963C338.432 307.336 332.434 305.926 326.435 304.516C326.037 303.215 325.604 301.95 325.206 300.648C335.794 298.01 346.563 292.551 356.899 293.347C376.702 294.901 396.252 300.034 413.923 303.287C402.395 313.409 387.362 326.675 369.33 342.544C386.278 342.653 387.904 361.052 402.07 361.414C406.732 361.522 413.128 362.281 415.766 359.679C423.969 351.618 422.849 330.399 413.562 319.807C422.596 309.143 431.161 297.431 441.351 287.346C453.204 275.634 446.663 261.536 447.133 248.956C447.567 236.774 445.435 227.087 457.432 217.652C466.033 210.892 469.43 197.517 477.163 183.456C465.419 188.155 457.179 191.444 448.976 194.734C447.639 193.577 446.338 192.457 445.001 191.3C448.651 185.335 451.939 179.046 456.131 173.479C458.589 170.225 464.551 168.707 465.455 165.418C467.442 158.477 467.153 150.85 467.804 143.512C461.299 144.271 453.204 142.825 448.543 146.187C431.269 158.586 415.116 172.539 398.565 185.986C396.686 187.504 395.349 189.673 393.361 190.975C367.451 207.567 341.504 224.05 312.125 242.739C318.485 233.16 321.845 223.544 328.567 218.845C349.527 204.205 356.393 180.817 368.824 160.755C374.244 152.007 383.206 144.018 392.421 139.319C415.802 127.317 440.231 117.34 468.707 104.544C466.25 112.388 465.382 115.135 463.937 119.762C483.849 128.004 486.92 101.074 503.869 100.351C519.588 99.7 534.947 90.0846 550.233 84.4816C545.39 67.2388 550.955 62.6842 583.19 54.9484C557.93 74.4324 557.93 74.4324 567.47 85.313C552.256 116.292 519.191 112.894 494.075 122.69C492.485 135.053 491.04 146.44 489.016 162.381C497.689 156.417 502.532 153.091 507.591 149.621C508.494 152.549 509.289 155.152 511.313 161.658C523.455 147.524 533.971 135.27 547.956 118.967C544.92 128.076 543.475 132.378 541.162 139.319C558.255 135.993 571.265 132.667 574.047 113.617C574.878 107.833 580.985 102.736 584.961 97.5311C590.273 90.5545 595.982 83.9032 601.222 76.8904C605.703 70.926 609.715 64.6362 614.159 58.1656C610.148 52.1288 605.161 44.5377 598.331 34.2354C607.799 31.7412 615.135 29.8253 624.639 27.3311C624.169 36.8381 623.88 43.0556 623.374 54.1893C633.131 49.8154 640.214 46.6343 642.527 45.6221C655.753 43.634 664.571 42.7664 673.172 40.9229C699.841 35.2476 726.402 29.247 752.71 23.4271C731.895 7.73872 704.466 29.247 681.555 12.4741C701.286 9.69073 720.945 6.22049 740.748 4.23233C843.667 -6.03379 945.285 2.20803 1044.63 30.8013C1072.85 38.9347 1102.48 46.9235 1124.63 69.3354C1128.72 73.4564 1134.54 76.4928 1140.1 78.481C1163.88 86.9758 1173.31 102.736 1166.12 128.51C1160.77 126.667 1155.46 124.859 1151.3 123.413C1160.34 134.872 1169.7 146.729 1180.43 160.285C1162.47 171.238 1152.13 160.574 1138.62 150.488C1146.64 148.934 1151.99 147.886 1157.34 146.837C1158.02 145.102 1158.68 143.403 1159.36 141.668C1149.93 136.824 1141 129.992 1130.99 127.498C1107.25 121.57 1083.04 117.593 1058.97 113.003C1045.13 110.364 1026.38 132.45 1028.44 145.861C1031.29 164.478 1036.5 182.913 1017.7 199.506C996.889 217.905 1007.62 252.933 1034.72 260.235C1039.64 261.572 1047.59 258.391 1051.67 254.632C1060.45 246.571 1067.07 247.185 1074.37 255.861C1082.46 265.476 1090.3 275.453 1099.48 283.948C1103.39 287.563 1113.86 290.78 1115.42 289.009C1120.19 283.55 1124.16 275.706 1124.63 268.549C1125.25 259.042 1123.08 249.065 1120.44 239.775C1119 234.786 1114.91 229.472 1110.5 226.581C1095.9 217.001 1084.09 207.711 1094.17 187.215C1096.52 182.48 1091.68 174.202 1089.58 165.165C1103.49 163.249 1112.46 167.08 1110.87 182.19C1108.84 201.566 1120.84 212.121 1133.63 222.026C1141.8 228.352 1151.01 232.834 1160.99 222.93C1163.41 220.508 1169.66 221.917 1175.62 221.448C1167.53 230.521 1162.04 236.702 1156.51 242.92C1164.1 247.402 1171.68 251.848 1179.27 256.331C1178.8 257.56 1178.3 258.825 1177.83 260.054C1172.95 259.765 1168.11 259.512 1159.36 259.006C1163.01 267.32 1165.36 273.573 1168.43 279.466C1174.97 291.828 1170.49 300.179 1156.94 300.395C1154.56 300.432 1151.16 299.383 1149.97 300.576C1135.37 315.433 1116.43 307.734 1100.13 310.625C1100.13 304.914 1102.19 297.757 1099.48 293.853C1097.28 290.672 1089.4 291.395 1082.82 290.165C1080 284.779 1076.46 278.02 1072.92 271.26C1058.97 278.923 1058.97 278.923 1076.03 319.12C1057.96 323.277 1046.58 331.917 1040.47 352.16C1035.92 367.27 1018.9 379.09 1006.18 390.983C1003.07 393.875 994.974 391.417 988.144 391.417C988.866 394.453 989.734 398.104 990.601 401.864C979.868 403.563 969.316 405.226 958.764 406.888C958.583 408.877 958.403 410.901 958.222 412.889C962.522 414.805 966.714 417.155 971.195 418.492C992.444 424.926 1008.78 448.134 1007.4 470.003C1006.54 483.74 1000.65 491.005 985.831 490.102C966.678 488.909 947.453 488.005 928.3 488.439C921.217 488.584 914.243 492.849 907.196 495.235C910.738 519.924 918.001 542.517 904.775 565.543C901.739 570.821 911.099 582.172 912.219 591.064C913.99 605.487 923.964 600.173 932.095 602.342C941.779 604.909 950.344 611.596 956.813 615.066C972.966 612.102 987.818 608.994 1002.74 606.716C1020.49 604.005 1037.8 576.966 1034 559.29C1030.64 543.674 1039.31 532.576 1052.32 525.563C1063.67 519.49 1069.85 512.116 1067.86 498.38C1065.87 484.463 1076.35 483.27 1085.46 485.872C1099.77 489.993 1110.4 485.439 1119.21 475.209C1131.43 461.039 1140.06 469.606 1150.72 477.884C1166.05 489.74 1182.71 499.862 1198.86 510.634C1210.28 518.225 1222.67 524.696 1232.97 533.552C1237.53 537.492 1241.18 547.361 1239.37 552.385C1237.56 557.41 1228.64 560.519 1222.28 562.977C1217.29 564.929 1211.4 564.64 1205.94 565.326C1205.58 567.387 1205.22 569.483 1204.82 571.544C1215.74 575.882 1226.61 580.219 1240.13 585.569C1237.42 562.471 1266.18 545.047 1239.3 521.912C1248.62 521.912 1253.57 521.912 1263.65 521.912C1244.5 504.923 1222.49 501.38 1206.12 489.632C1190.01 478.064 1168.4 467.943 1166.66 442.278C1170.28 441.699 1172.88 440.542 1173.56 441.229C1192.14 460.569 1217.29 467.69 1240.78 477.992C1254.44 483.993 1265.39 492.415 1269.29 508.212C1270.63 513.67 1274.86 518.84 1278.8 523.177C1290.32 535.866 1302.21 548.192 1314.28 560.338C1317.68 563.772 1322.12 566.158 1327.07 569.737C1328.38 557.338 1329.35 547.758 1330.54 536.625C1322.63 529.07 1312.91 519.78 1304.45 511.718C1308.97 507.598 1311.93 504.814 1315 502.139C1318.47 499.103 1323.1 493.066 1325.41 493.825C1330.72 495.596 1336.87 499.717 1339.25 504.561C1345.47 517.032 1348.58 531.708 1361.44 539.227C1374.56 546.891 1387.5 562.796 1404.41 544.83C1405.42 543.746 1408.31 543.059 1409.47 543.71C1424.61 552.241 1432.85 544.397 1438.05 527.985C1458.79 555.964 1463.28 585.063 1464.43 614.958C1464.58 618.428 1461 625.116 1459.16 625.116C1434.51 625.116 1418.54 653.348 1391.62 645.467C1380.23 642.142 1368.6 639.177 1356.89 637.659C1348.58 636.611 1336.98 635.129 1332.24 639.575C1326.89 644.563 1327.44 655.986 1325.74 664.698C1324.44 671.349 1324.98 678.76 1321.98 684.435C1321 686.315 1311.25 684.652 1306.04 682.953C1290.18 677.784 1272.69 677.169 1260.98 661.047C1257.15 655.769 1244.21 656.854 1235.32 655.625C1227.01 654.468 1218.3 655.227 1210.32 653.095C1197.02 649.552 1188.27 644.78 1194.96 626.272C1198.25 617.163 1190.51 602.234 1184.22 592.148C1179.2 584.087 1170.09 586.762 1160.41 590.956C1147.26 596.667 1131.83 599.631 1117.44 599.523C1087.63 599.27 1061.14 604.981 1037.18 624.357C1018.75 639.25 994.721 637.912 975.062 629.598C956.74 621.826 952.223 631.153 949.983 642.937C947.562 655.661 939.937 661.011 930.179 666.289C907.558 678.507 900.728 699.581 900.113 723.295C899.571 744.188 883.599 757.129 869.505 762.046C842.041 771.661 831.922 794.218 818.552 814.822C801.35 841.355 785.631 868.9 770.092 894.674C797.881 934.69 780.355 970.549 765.972 1005.76C762.503 1014.29 758.708 1019.67 765.466 1027.95C768.321 1031.46 767.959 1037.68 768.863 1042.66C769.73 1047.26 768.791 1053.22 771.356 1056.29C782.667 1069.67 795.135 1082.07 806.915 1095.04C814.866 1103.79 826.357 1111.78 829.284 1122.08C836.223 1146.45 853.858 1157.54 874.022 1167.7C881.972 1171.71 889.597 1176.67 896.536 1182.27C914.424 1196.62 933.179 1198.83 955.656 1193.62C977.989 1188.45 1001.7 1189.46 1024.57 1186.17C1036.1 1184.51 1047.23 1179.59 1058.43 1175.87C1081.59 1168.21 1104.4 1159.17 1127.96 1152.99C1142.31 1149.19 1154.81 1153.64 1161.53 1169.94C1163.23 1174.06 1174.83 1178.15 1179.67 1176.34C1231.6 1157.18 1232.14 1182.23 1222.71 1218.56C1220.33 1227.82 1217.15 1237.07 1212.84 1245.53C1206.67 1257.64 1209.7 1266.82 1220.29 1273.4C1249.7 1291.65 1249.05 1319.56 1253.17 1350.36C1258.41 1389.44 1224.55 1402.02 1213.93 1429.27C1207.68 1445.21 1202.8 1458.48 1208.36 1475.47C1210.97 1483.42 1207.93 1493.25 1207.32 1502.22C1206.67 1512.05 1205.29 1521.88 1205.22 1531.72C1205.11 1546.17 1197.13 1555.57 1185.56 1561.47C1119.76 1595.12 1050.05 1617.93 977.591 1631.27C808.361 1662.43 644.442 1643.96 486.884 1574.08C434.521 1551.05 384.869 1522.97 343.564 1491.52ZM842.366 44.2847C789.425 25.7406 734.749 33.7294 678.556 49.6708C688.205 64.9976 663.27 96.9889 637.757 107.653C639.166 110.653 640.576 113.617 642.166 116.979C608.197 123.016 596.524 145.645 582.286 174.925C577.625 184.504 585.936 208.506 594.826 213.459C597.103 214.724 601.439 215.23 603.246 213.929C621.423 200.807 639.058 186.962 657.271 173.876C664.065 168.996 671.581 164.586 679.423 161.875C687.193 159.2 696.01 159.634 704.033 157.465C728.714 150.814 753.071 142.825 777.897 136.752C807.313 129.522 808.65 128.438 802.181 101.038C828.345 95.2899 834.235 89.9038 836.729 70.9621C837.813 62.648 840.162 54.4785 842.366 44.2847ZM917.531 279.936C932.275 295.009 947.851 310.987 964.98 328.519C957.21 331.411 952.44 333.182 949.947 334.122C948.935 343.123 948.104 350.244 947.236 357.944C951.103 359.317 956.415 361.197 962.414 363.33C955.331 369.583 949.477 374.789 942.611 380.862C968.015 375.548 990.998 370.776 1012.97 366.185C1012.61 361.052 1012.72 356.931 1011.96 352.919C1011.16 348.762 1010.77 343.557 1008.13 340.882C996.383 328.989 983.879 317.855 971.701 306.36C966.57 301.516 961.583 296.491 956.343 291.358C957.282 288.72 958.258 286.551 958.836 284.309C959.523 281.598 959.92 278.815 960.318 276.646C945.971 269.706 932.673 253.873 917.531 279.936ZM891.693 361.125C902.643 356.787 918.218 355.196 925.229 346.557C931.733 338.568 929.059 323.133 930.432 310.987C922.41 310.589 912.906 307.336 906.763 310.553C899.391 314.385 892.524 322.916 889.85 330.905C887.393 338.423 890.609 347.858 891.693 361.125ZM784.763 171.274C785.233 186.384 790.907 200.951 814.287 197.373C822.527 196.108 831.127 194.228 838.355 190.36C843.016 187.83 845.474 181.214 848.943 176.407C843.161 173.334 837.379 167.731 831.561 167.695C816.167 167.587 800.772 169.864 784.763 171.274ZM90.6394 741.694C84.8213 726.945 79.0032 712.197 73.1851 697.448C60.0312 726.439 60.0312 726.439 90.6394 741.694ZM56.7427 683.315C58.405 683.061 60.0312 682.845 61.6935 682.592C66.6804 657.035 58.5857 608.307 49.3707 603.752C51.7919 629.996 54.2854 656.637 56.7427 683.315ZM970.039 62.4311C957.68 56.3221 945.682 42.1158 925.554 55.816C938.491 63.0818 949.983 69.5162 960.101 75.1915C963.498 70.7814 966.497 66.9858 970.039 62.4311Z" fill="white" stroke="white" stroke-width="2" stroke-miterlimit="10"/>
<path d="M1598.75 875.293C1635.29 787.815 1646.45 704.999 1610.79 621.098C1608.69 621.026 1606.59 620.954 1604.5 620.845C1604.5 630.136 1604.5 639.462 1604.5 650.379C1570.13 617.52 1558.1 596.807 1563.56 585.059C1570.39 592.794 1577.76 601.181 1587.08 611.736C1593.08 602.663 1595.46 599.12 1597.67 595.759C1602.66 597.204 1607.82 598.687 1616.39 601.181C1676.09 832.205 1646.09 1052.89 1521.27 1260.02C1519.61 1259.59 1517.91 1259.19 1516.25 1258.75C1531.32 1213.89 1545.63 1168.75 1561.64 1124.21C1582.2 1067.1 1611.33 1012.91 1620.91 952.109C1625.89 920.479 1629.14 888.56 1633.19 856.749C1631.49 856.388 1629.83 856.063 1628.13 855.701C1620.8 870.413 1613.42 885.126 1606.02 899.947C1602.8 898.754 1600.31 898.609 1599.69 897.489C1585.78 872.076 1572.34 846.375 1558.17 821.071C1544.98 797.466 1530.63 774.548 1517.62 750.835C1504.76 727.411 1492.98 703.408 1478.63 675.61C1486.44 678.104 1495.62 678.141 1499.01 682.623C1517.7 707.131 1540.68 728.965 1548.88 760.559C1550.8 767.933 1558.68 773.681 1563.37 780.44C1576.53 799.346 1588.09 818.721 1589.54 842.832C1590.12 852.086 1594.56 861.087 1598.75 875.293Z" fill="white" stroke="white" stroke-width="2" stroke-miterlimit="10"/>
<path d="M6.2156 948.199C4.15578 884.939 2.05982 821.68 0 758.42C1.66231 758.384 3.32463 758.312 4.98694 758.275C4.98694 775.663 4.77011 793.05 5.09535 810.437C5.2399 817.595 4.87853 825.475 7.66109 831.729C24.7179 869.938 18.2132 908.689 12.7203 947.512C10.5521 947.765 8.38384 947.982 6.2156 948.199Z" fill="white" stroke="white" stroke-width="2" stroke-miterlimit="10"/>
<path d="M1435.48 1364.17C1449.71 1347.18 1463.95 1330.19 1478.19 1313.2C1479.49 1314.22 1480.76 1315.19 1482.06 1316.2C1468.14 1333.55 1454.23 1350.91 1440.36 1368.26C1438.73 1366.88 1437.1 1365.55 1435.48 1364.17Z" fill="white" stroke="white" stroke-width="2" stroke-miterlimit="10"/>
</g>
<path d="M335.395 808.81C340.739 808.81 345.07 804.479 345.07 799.135C345.07 793.792 340.739 789.461 335.395 789.461C330.052 789.461 325.721 793.792 325.721 799.135C325.721 804.479 330.052 808.81 335.395 808.81Z" fill="#FF655B"/>
<path d="M335.395 750.762C321.8 750.761 308.753 756.126 299.091 765.692C289.429 775.257 283.933 788.249 283.797 801.844C283.797 837.189 329.268 876.533 331.203 878.21C332.371 879.209 333.858 879.759 335.395 879.759C336.933 879.759 338.42 879.209 339.588 878.21C341.845 876.533 386.994 837.189 386.994 801.844C386.858 788.249 381.362 775.257 371.7 765.692C362.038 756.126 348.991 750.761 335.395 750.762ZM335.395 821.71C330.931 821.71 326.566 820.386 322.854 817.905C319.141 815.425 316.248 811.899 314.539 807.774C312.831 803.649 312.384 799.11 313.255 794.731C314.126 790.352 316.276 786.33 319.433 783.173C322.59 780.016 326.612 777.866 330.991 776.995C335.37 776.124 339.909 776.571 344.034 778.279C348.159 779.988 351.685 782.881 354.165 786.594C356.646 790.306 357.97 794.671 357.97 799.135C357.97 805.122 355.591 810.864 351.358 815.098C347.124 819.331 341.383 821.71 335.395 821.71Z" fill="#FF655B"/>
<g filter="url(#filter0_f)">
<ellipse cx="334.108" cy="902.978" rx="42.569" ry="10.3197" fill="#EAEAEA"/>
</g>
<path d="M977.794 1350.6C983.137 1350.6 987.469 1346.27 987.469 1340.92C987.469 1335.58 983.137 1331.25 977.794 1331.25C972.451 1331.25 968.119 1335.58 968.119 1340.92C968.119 1346.27 972.451 1350.6 977.794 1350.6Z" fill="#FF655B"/>
<path d="M977.794 1292.55C964.198 1292.55 951.151 1297.91 941.489 1307.48C931.827 1317.04 926.331 1330.04 926.195 1343.63C926.195 1378.98 971.667 1418.32 973.602 1420C974.77 1421 976.257 1421.55 977.794 1421.55C979.331 1421.55 980.818 1421 981.986 1420C984.244 1418.32 1029.39 1378.98 1029.39 1343.63C1029.26 1330.04 1023.76 1317.04 1014.1 1307.48C1004.44 1297.91 991.39 1292.55 977.794 1292.55ZM977.794 1363.5C973.329 1363.5 968.965 1362.17 965.252 1359.69C961.54 1357.21 958.646 1353.69 956.938 1349.56C955.229 1345.44 954.782 1340.9 955.653 1336.52C956.524 1332.14 958.674 1328.12 961.831 1324.96C964.988 1321.8 969.011 1319.65 973.39 1318.78C977.769 1317.91 982.308 1318.36 986.433 1320.07C990.558 1321.78 994.083 1324.67 996.564 1328.38C999.044 1332.09 1000.37 1336.46 1000.37 1340.92C1000.37 1346.91 997.99 1352.65 993.756 1356.88C989.523 1361.12 983.781 1363.5 977.794 1363.5Z" fill="#FF655B"/>
<g filter="url(#filter1_f)">
<ellipse cx="976.506" cy="1444.77" rx="42.569" ry="10.3197" fill="#EAEAEA"/>
</g>
<path d="M773.981 372.8C779.325 372.8 783.656 368.469 783.656 363.126C783.656 357.782 779.325 353.451 773.981 353.451C768.638 353.451 764.307 357.782 764.307 363.126C764.307 368.469 768.638 372.8 773.981 372.8Z" fill="#FF655B"/>
<path d="M773.981 314.752C760.386 314.751 747.339 320.117 737.677 329.682C728.015 339.247 722.519 352.239 722.383 365.835C722.383 401.18 767.854 440.523 769.789 442.2C770.957 443.2 772.444 443.749 773.981 443.749C775.519 443.749 777.006 443.2 778.174 442.2C780.431 440.523 825.58 401.18 825.58 365.835C825.444 352.239 819.948 339.247 810.286 329.682C800.624 320.117 787.577 314.751 773.981 314.752ZM773.981 385.7C769.517 385.7 765.152 384.376 761.44 381.896C757.727 379.415 754.834 375.889 753.125 371.764C751.417 367.64 750.97 363.101 751.841 358.722C752.712 354.343 754.862 350.32 758.019 347.163C761.176 344.006 765.198 341.856 769.577 340.985C773.956 340.114 778.495 340.561 782.62 342.27C786.745 343.978 790.271 346.872 792.751 350.584C795.232 354.296 796.556 358.661 796.556 363.126C796.556 369.113 794.177 374.855 789.944 379.088C785.71 383.322 779.968 385.7 773.981 385.7Z" fill="#FF655B"/>
<g filter="url(#filter2_f)">
<ellipse cx="772.694" cy="466.968" rx="42.569" ry="10.3197" fill="#EAEAEA"/>
</g>
<defs>
<filter id="filter0_f" x="287.539" y="888.658" width="93.1379" height="28.6395" filterUnits="userSpaceOnUse" color-interpolation-filters="sRGB">
<feFlood flood-opacity="0" result="BackgroundImageFix"/>
<feBlend mode="normal" in="SourceGraphic" in2="BackgroundImageFix" result="shape"/>
<feGaussianBlur stdDeviation="2" result="effect1_foregroundBlur"/>
</filter>
<filter id="filter1_f" x="929.938" y="1430.45" width="93.1379" height="28.6395" filterUnits="userSpaceOnUse" color-interpolation-filters="sRGB">
<feFlood flood-opacity="0" result="BackgroundImageFix"/>
<feBlend mode="normal" in="SourceGraphic" in2="BackgroundImageFix" result="shape"/>
<feGaussianBlur stdDeviation="2" result="effect1_foregroundBlur"/>
</filter>
<filter id="filter2_f" x="726.125" y="452.648" width="93.1379" height="28.6395" filterUnits="userSpaceOnUse" color-interpolation-filters="sRGB">
<feFlood flood-opacity="0" result="BackgroundImageFix"/>
<feBlend mode="normal" in="SourceGraphic" in2="BackgroundImageFix" result="shape"/>
<feGaussianBlur stdDeviation="2" result="effect1_foregroundBlur"/>
</filter>
</defs>
</svg>
