<svg width="600" height="600" viewBox="0 0 600 600" fill="none" xmlns="http://www.w3.org/2000/svg">
<g clip-path="url(#clip0)">
<path d="M675 675H-75V-75H675V675Z" fill="url(#paint0_linear)"/>
<path d="M360.996 403.874H308.184V356.576H360.996V403.874ZM414.113 320.069H340.054V380.225H414.113V320.069ZM377.082 441.95H442.881V362.639H377.082V441.95ZM400.757 434.192H334.59V491.191H400.757V434.192ZM580.44 284.416H490.23V387.501H580.44V284.416ZM478.458 331.108H456.605V356.576H478.458V331.108ZM544.531 252.277H456.605V304.426H544.531V252.277ZM442.881 270.468H395.532V335.958H442.881V270.468ZM334.59 275.32H308.184V303.213H334.59V275.32ZM299.325 320.069H258.501V382.71H299.325V320.069V320.069ZM347.338 441.95H275.708V521.511H347.338V441.95ZM308.184 576.086H388.617V528.788H308.184V576.086ZM500.311 557.894H443.791V599.129H500.313V557.894H500.311ZM637.361 516.659H585.062V578.511H637.361V516.659ZM551.302 544.718H506.381V585.953H551.302V544.718ZM594.357 463.296H528.843V537.278H594.357V463.296ZM610.791 590.639H528.843V644H610.791V590.639ZM340.054 557.894H251.187V637.937H340.052V557.894H340.054ZM630.216 356.576H569.818V403.874H630.216V356.576ZM594.357 424.49H568.208V451.477H594.357V424.49ZM251.187 474.697H300.975V404.294H251.187V474.697ZM321.764 249.852L232 252.277V320.069H321.764V249.852ZM646 252.277H587.725V326.256H646V252.277ZM371.858 245H347.338V298.361H371.858V245ZM641.143 437.983H581.281V486.494H641.143V437.983Z" fill="url(#paint1_linear)" stroke="#FFC700" stroke-width="1.5"/>
<path d="M115.996 319.874H63.1843V272.576H115.996V319.874ZM169.113 236.069H95.0537V296.225H169.113V236.069ZM132.082 357.95H197.881V278.639H132.082V357.95ZM155.757 350.192H89.5904V407.191H155.757V350.192ZM335.44 200.416H245.23V303.501H335.44V200.416ZM233.458 247.108H211.605V272.576H233.458V247.108ZM299.531 168.277H211.605V220.426H299.531V168.277ZM197.881 186.468H150.532V251.958H197.881V186.468ZM89.5904 191.32H63.1843V219.213H89.5904V191.32ZM54.3246 236.069H13.5008V298.71H54.3246V236.069V236.069ZM102.338 357.95H30.7084V437.511H102.338V357.95ZM63.1843 492.086H143.617V444.788H63.1843V492.086ZM255.311 473.894H198.791V515.129H255.313V473.894H255.311ZM392.361 432.659H340.062V494.511H392.361V432.659ZM306.302 460.718H261.381V501.953H306.302V460.718ZM349.357 379.296H283.843V453.278H349.357V379.296ZM365.791 506.639H283.843V560H365.791V506.639ZM95.0537 473.894H6.18721V553.937H95.0519V473.894H95.0537ZM385.216 272.576H324.818V319.874H385.216V272.576ZM349.357 340.49H323.208V367.477H349.357V340.49ZM6.18721 390.697H55.9745V320.294H6.18721V390.697ZM76.7643 165.852L-13 168.277V236.069H76.7643V165.852ZM401 168.277H342.725V242.256H401V168.277ZM126.858 161H102.338V214.361H126.858V161ZM396.143 353.983H336.281V402.494H396.143V353.983Z" fill="url(#paint2_linear)" stroke="#FFC700" stroke-width="1.5"/>
<rect x="504" y="328.706" width="8.86149" height="25.1423" fill="white"/>
<rect x="521.754" y="328.857" width="8.83104" height="25.1423" fill="white"/>
<rect x="512.861" y="320" width="8.89195" height="8.85765" fill="white"/>
<rect x="539.415" y="328.857" width="8.89195" height="25.1423" fill="white"/>
<rect x="530.585" y="320" width="8.83105" height="8.85765" fill="white"/>
<rect x="548.308" y="320" width="8.86149" height="8.85765" fill="white"/>
<rect x="557.169" y="327.792" width="8.83104" height="8.85766" fill="white"/>
<rect x="548.308" y="336.65" width="8.86149" height="8.82721" fill="white"/>
<rect x="40" y="390.425" width="7.57515" height="21.4449" fill="white"/>
<rect x="55.1768" y="390.555" width="7.54912" height="21.4449" fill="white"/>
<rect x="47.5752" y="383" width="7.60118" height="7.55506" fill="white"/>
<rect x="70.2744" y="390.555" width="7.60118" height="21.4449" fill="white"/>
<rect x="62.7256" y="383" width="7.54912" height="7.55506" fill="white"/>
<rect x="77.876" y="383" width="7.57515" height="7.55506" fill="white"/>
<rect x="85.4512" y="389.646" width="7.54912" height="7.55506" fill="white"/>
<rect x="77.876" y="397.202" width="7.57515" height="7.52909" fill="white"/>
<path d="M445.076 329.373C443.101 406.22 384.644 574.74 305.233 574.74C225.824 574.74 159.41 408.513 157.502 329.373C154.751 215.358 221.88 122.871 301.289 122.871C380.7 122.873 448.009 215.365 445.076 329.373Z" fill="#200A00"/>
<path d="M517.621 546.951C503.251 522.655 485.394 518.314 470.675 513.619C455.552 508.797 424.405 506.018 407.416 502.617C391.009 499.333 352.04 488.771 351.595 470.357C351.136 451.065 361.858 374.472 361.858 374.472H238.137C238.137 374.472 248.869 451.063 248.407 470.357C247.967 488.771 208.991 499.333 192.582 502.617C175.591 506.018 144.448 508.797 129.325 513.619C114.601 518.314 96.7393 522.653 82.3696 546.951C73.6541 561.684 68 585.537 68 611.846H532C531.998 585.537 526.353 561.684 517.621 546.951Z" fill="#F3D4CF"/>
<path d="M351.595 470.359C357.562 496.499 395.041 503.122 414.481 507.013C466.882 517.486 495.256 519.292 515.645 553.745C522.588 565.503 528.702 591.688 529.905 611.513C534.294 612.209 531.175 569.82 517.621 546.95C494.32 507.554 448.047 510.751 407.416 502.619C391.009 499.335 352.04 488.773 351.595 470.359ZM249.027 470.359C248.582 488.773 209.613 499.335 193.206 502.619C152.575 510.751 106.302 507.554 83.0011 546.95C69.4471 569.823 66.3282 612.209 70.7171 611.513C71.9202 591.688 78.0335 565.503 84.9767 553.745C105.364 519.292 133.74 517.486 186.141 507.013C205.581 503.122 243.06 496.496 249.027 470.359Z" fill="#FFF4F3"/>
<path d="M183.607 522.189C183.607 522.189 252.11 522.904 263.667 526.697C269.201 528.51 283.69 540.17 283.69 540.17C283.69 540.17 268.01 532.588 262.983 531.182C251.304 527.919 183.607 522.189 183.607 522.189ZM299.82 547.269C304.731 547.171 318.684 538.182 318.684 538.182C318.684 538.182 305.352 543.107 301.124 543.349C297.558 543.554 285.898 540.388 285.898 540.388C285.898 540.388 295.795 547.348 299.82 547.269ZM340.99 529.948C357.134 525.599 412.23 522.222 412.23 522.222C412.23 522.222 355.328 520.988 339.258 526.348C333.872 528.147 321.171 538.69 321.171 538.69C321.171 538.69 335.675 531.376 340.99 529.948Z" fill="#E4B3AB"/>
<path d="M517.621 546.951C494.323 507.556 447.968 510.735 407.416 502.62C391.009 499.336 352.04 488.774 351.595 470.36C351.136 451.068 361.858 374.475 361.858 374.475H238.137C238.137 374.475 248.869 451.066 248.407 470.36C247.967 488.774 208.991 499.336 192.582 502.62C175.591 506.021 144.448 508.8 129.325 513.622C114.601 518.317 96.7393 522.656 82.3696 546.953C73.6541 561.687 68 585.54 68 611.849H532C531.998 585.537 526.353 561.684 517.621 546.951Z" stroke="#C5796D" stroke-width="4.5"/>
<path d="M300.315 477.922C325.895 477.922 339.473 471.689 350.15 464.227C351.068 444.003 356.739 400.59 359.195 382.415C323.8 378.208 276.051 378.237 240.804 382.491C243.25 400.583 248.845 443.388 249.823 463.761C260.607 471.426 274.207 477.922 300.315 477.922Z" fill="url(#paint3_linear)"/>
<path d="M132.891 625.137C138.251 581.5 133.077 521.734 132.671 510.874C136.151 503.612 142.645 503.483 149.502 506.568C151.707 503.215 156.225 501.529 162.281 504.043V503.684C164.833 501.574 166.557 497.305 172.01 500.273C175.825 496.14 181.157 496.585 186.241 498.948H186.411L186.593 498.81C188.229 494.081 191.728 493.808 196.244 496.059V495.672C197.731 491.775 203.352 492.416 207.511 493.395C236.774 517.025 278.608 544.026 309.008 561.32C309.192 561.184 352.306 529.431 352.306 529.202C355.953 526.848 378.952 510.763 395.364 497.721C399.629 496.214 405.919 495.339 409.822 497.406C412.214 496.8 414.379 495.741 419.155 500.517L419.272 500.752C423.891 498.379 431.652 498.039 433.773 504.406C436.165 503.992 442.298 501.067 444.402 505.451L444.742 505.683C449.038 504.442 452.293 505.478 453.675 506.879L453.804 506.736C458.198 505.088 464.008 504.588 466.084 508.903C466.918 510.744 466.607 511.727 466.514 513.858C456.505 576.443 458.361 603.492 463.402 625.623C408.947 627.244 135.283 625.137 132.891 625.137Z" fill="#A0E0F4"/>
<path d="M414.659 510.728C410.196 505.392 405.216 506.313 403.334 507.453C401.133 502.098 389.256 503.445 386.02 505.069C389.249 502.625 392.415 500.178 395.367 497.834C399.631 496.327 405.921 495.452 409.825 497.518C412.217 496.913 414.381 495.853 419.157 500.63L419.275 500.864C423.893 498.492 431.654 498.152 433.776 504.519C436.168 504.105 442.3 501.18 444.405 505.564L444.744 505.796C449.04 504.555 452.295 505.59 453.678 506.992L453.807 506.848C458.2 505.2 464.01 504.701 466.086 509.015C466.921 510.857 466.61 511.84 466.516 513.971C466.323 517.783 466.036 518.917 465.892 522.452C464.132 519.068 454.536 517.116 452.757 519.649C451.262 516.092 444.06 516.379 441.666 517.805C438.406 514.074 435.388 513.213 430.231 514.973C427.277 509.762 421.843 508.501 414.659 510.728ZM151.664 518.343C153.001 513.404 162.018 513.069 166.474 512.859C167.005 512.165 170.683 507.549 177.483 509.577C181.393 504.382 190.582 506.207 192.209 506.47C193.067 506.344 195.414 502.086 203.077 504.263C205.643 499.685 213.251 500.587 215.316 500.953C213.44 499.489 209.298 494.835 207.511 493.392C203.352 492.414 197.731 491.773 196.244 495.669V496.057C191.728 493.809 188.229 494.081 186.593 498.807L186.411 498.946H186.241C181.157 496.583 175.825 496.138 172.01 500.271C166.557 497.303 164.833 501.572 162.281 503.682V504.04C156.225 501.524 151.707 503.211 149.502 506.566C142.645 503.481 136.151 503.61 132.671 510.871C132.738 512.644 132.817 517.348 132.857 521.445C139.827 515.815 147.423 516.949 151.664 518.343Z" fill="#C1F0FF"/>
<path d="M149.305 507.367C151.475 519.539 160.174 544.475 164.928 556.838C159.298 546.86 147.373 523.361 149.305 507.367C148.382 507.004 150.202 507.597 149.305 507.367ZM161.783 504.457C165.818 523.115 174.797 546.221 202.249 575.972C184.163 548.943 167.091 521.072 162.472 504.332C160.609 503.674 163.304 504.38 161.783 504.457ZM206.624 552.012C193.084 536.683 181.357 519.594 171.046 499.805C174.249 510.013 187.978 538.754 206.624 552.012ZM206.624 552.012C208.324 553.65 210.049 555.265 211.816 556.838C210.034 555.255 208.339 553.629 206.624 552.012ZM283.576 550.242C260.201 535.461 224.174 508.255 204.849 492.651C213.01 505.786 253.55 539.864 283.576 550.242ZM410.832 497.872C391.222 527.817 365.41 545.645 337.139 565.214C375.419 546.578 395.845 527.305 410.217 497.755C409.086 497.167 411.686 497.841 410.832 497.872ZM419.27 500.752L419.153 500.517C418.992 500.357 418.844 500.228 418.691 500.077C408.624 524.839 390.485 545.64 371.152 567.367C394.075 548.615 409.82 528.501 419.27 500.752C420.774 499.979 417.402 500.931 419.27 500.752ZM433.773 504.406C433.682 504.131 433.551 503.902 433.436 503.651C421.427 535.781 401.104 565.068 383.59 593.528C411.006 568.761 429.679 528.664 433.773 504.406C434.819 504.227 431.944 504.727 433.773 504.406ZM444.742 505.681L444.402 505.449C444.01 504.629 445.027 505.822 444.402 505.449C436.376 525.81 430.757 544.105 418.789 560.79C435.34 543.339 442.773 524.543 444.742 505.681C445.904 505.346 443.749 505.724 444.742 505.681ZM453.675 506.877C453.24 507.011 454.218 506.58 453.804 506.734L453.675 506.877C452.91 506.1 455.031 507.102 453.257 506.875C449.207 535.224 444.259 561.746 435.531 587.931C447.722 560.687 458.451 536.119 453.675 506.877ZM396.469 497.513C394.269 497.75 397.172 497.08 395.362 497.721C378.95 510.764 355.95 526.848 352.303 529.202C352.303 529.326 337.876 545.071 326.271 553.645C359.194 531.89 377.285 521.847 396.469 497.513ZM195.371 496.454C193.115 494.866 215.801 530.4 262.263 549.802C234.598 535.104 210.867 516.523 195.371 496.454ZM186.593 498.81L186.411 498.948H186.241C182.943 499.809 214.328 545.329 240.336 563.779C219.362 544.475 186.593 498.81 186.593 498.81Z" fill="#7FCDE5"/>
<path d="M466.918 510.785C465.773 504.636 459.573 504.382 453.74 506.504C453.713 506.48 453.689 506.504 453.668 506.53C452.422 505.26 448.973 504.21 444.675 505.454C442.73 501.653 437.983 502.703 433.936 504.138C431.891 498.003 423.486 497.898 419.394 500.419C419.37 500.371 419.346 500.35 419.322 500.35C414.63 495.652 412.243 496.568 409.851 497.152C405.888 495.088 399.411 495.997 395.214 497.535C382.111 508.066 365.711 519.558 352.066 529.202C352.066 529.252 332.502 543.672 308.991 561.036C273.514 540.565 235.294 515.518 207.564 493.16C203.12 492.172 197.576 491.479 196.028 495.621C196.028 495.621 196.004 495.645 196.004 495.672C191.58 493.454 187.982 494.064 186.366 498.731C186.342 498.731 186.342 498.731 186.342 498.731C181.176 496.332 175.995 495.882 171.967 499.977C170.279 499.049 168.502 498.654 166.729 499.427C164.424 500.436 162.042 503.306 162.042 503.684C156.287 501.283 151.489 503.129 149.413 506.267C142.403 503.088 135.072 503.67 132.432 510.883C132.525 513.296 138.734 569.158 132.623 625.376C132.623 625.376 463.642 625.855 463.665 625.855C458.65 613.518 458.614 574.384 466.918 510.785ZM134.369 624.68C144.032 585.441 134.941 538.446 133.006 513.225C135.534 506.145 143.111 505.427 148.839 507.676C150.389 518.922 153.46 529.735 159.65 541.83C158.107 538.192 150.25 508.819 150.25 507.795C153.795 503.921 158.54 503.349 162.472 505.047C168.332 524.899 185.768 552.978 190.695 558.118C187.676 554.669 163.814 506.815 162.903 504.423C165.388 501.084 168.191 499.616 171.967 501.29C181.728 520.811 194.215 537.054 197.416 540.299C197.416 540.299 172.95 500.933 172.948 500.931C175.981 497.996 181.718 498.554 185.983 499.977C186.007 499.977 186.031 499.977 186.031 499.977C248.116 579.861 200.551 513.722 186.964 499.403C186.988 499.307 187.035 499.187 187.083 499.116C189.547 493.902 193.708 496.461 196.531 498.255C208.609 515.667 240.706 537.936 243.624 538.89C241.783 538.293 210.762 513.49 197.631 497.657C197.86 495.265 198.48 493.088 205.213 493.784C236.832 522.629 276.056 547.192 305.929 563.31C275.315 585.912 239.343 612.556 231.187 618.919C233.579 617.546 351.763 539.366 397.988 497.441C402.999 496.743 407.153 497.303 409.325 498.111C409.349 498.135 409.397 498.135 409.421 498.161C392.08 524.184 345.513 560.632 337.046 564.556C350.378 559.106 396.469 526.599 410.832 497.874C410.882 497.874 410.927 497.848 410.951 497.874C413.412 497.516 417.053 499.922 418.724 501.596C418.701 501.62 418.677 501.668 418.655 501.715C411.42 516.408 387.015 551.038 375.436 561.567C394.529 544.198 410.341 525.1 419.803 501.213C425.177 499.479 430.317 500.142 433.199 504.882C428.026 518.116 431.346 516.812 409.16 551.163C388.067 583.81 395.503 578.718 378.309 600.22C416.974 551.918 427.746 525.698 433.63 505.695C433.63 505.671 433.654 505.624 433.654 505.576C438.215 504.203 441.657 503.244 443.58 506.721C443.58 506.721 443.603 506.721 443.58 506.748C437.241 524.851 428.751 542.959 426.359 547.955C441.597 524.392 439.636 524.961 444.247 506.506C448.485 505.27 451.891 506.112 453.192 507.2C450.688 527.723 445.316 552.332 440.47 571.538C441.69 566.754 454.197 546.712 453.744 507.654C453.768 507.63 453.768 507.63 453.744 507.604C458.667 506.64 463.852 506.257 466.014 510.976C461.068 551.493 451.326 577.434 462.642 624.922C367.689 622.65 250.383 622.281 134.369 624.68Z" fill="#46A8C6"/>
<path d="M173.55 269.765C170.259 264.233 160.065 250.638 149.68 253.973C143.105 256.082 141.804 262.977 140.747 269.067C139.341 277.165 141.874 293.183 144.069 298.971C146.176 304.532 152.519 315.273 156.659 319.365C161.754 324.388 168.08 340.396 169.082 342.056C170.661 344.68 172.756 348.621 178.941 348.126C185.765 347.579 189.905 343.96 192.947 343.345C200.462 341.841 182.115 284.166 173.55 269.765Z" fill="#F3D4CF" stroke="#C5796D" stroke-width="4.5"/>
<path d="M166.844 303.305C166.528 301.994 166.861 299.789 167.183 297.656C167.48 295.714 167.757 293.879 167.588 292.583C166.949 287.723 163.347 278.488 160.994 273.485C158.286 267.728 153.907 260.476 148.408 258.606C146.136 257.831 144.641 258.756 143.773 259.696C143.137 260.387 142.996 261.196 143.204 261.292C143.409 261.387 143.885 260.718 144.572 260.086C145.134 259.57 145.957 259.125 147.086 259.218C146.631 261.636 144.294 274.74 145.306 283.674C146.103 290.701 149.116 295.946 149.587 296.733C149.657 297.56 149.771 298.371 149.941 299.158C152.163 309.411 161.831 321.073 165.196 324.888C165.815 325.594 166.466 326.012 166.626 325.84C166.784 325.668 166.401 324.97 165.782 324.262C162.462 320.471 152.888 308.854 150.74 298.959C148.463 288.462 156.284 272.899 158.03 269.608C158.918 271.153 159.673 272.638 160.255 273.877C160.709 274.848 161.216 275.984 161.735 277.213C160.709 278.931 153.522 291.464 156.143 301.497C157.114 305.195 161.489 309.964 164.387 311.27C165.983 311.99 166.585 313.063 167.279 314.31C168.083 315.754 168.996 317.39 171.651 318.576C172.189 318.82 172.677 318.916 173.11 318.916C173.859 318.916 174.428 318.615 174.844 318.256C174.887 318.892 174.885 319.701 174.866 320.449C174.837 321.415 174.966 322.212 175.193 322.231C175.418 322.25 175.662 321.482 175.689 320.516C175.727 319.33 175.72 317.861 175.516 317.161C174.923 315.092 173.105 312.757 171.18 310.284C169.293 307.847 167.336 305.331 166.844 303.305ZM149.511 294.214C144.304 278.115 151.08 264.221 152.247 262.011C154.28 263.865 156.074 266.343 157.533 268.766C156.471 270.701 149.728 283.387 149.511 294.214ZM171.972 317.763C169.57 316.694 168.769 315.25 167.987 313.858C167.286 312.597 166.557 311.294 164.713 310.461C164.311 310.282 163.871 310.004 163.416 309.689C157.471 295.563 164.067 289.387 165.72 288.122C166.224 289.849 166.602 291.432 166.77 292.702C166.92 293.87 166.645 295.723 166.37 297.515C166.031 299.737 165.686 302.035 166.043 303.523C166.583 305.738 168.599 308.328 170.549 310.834C172.278 313.056 174.055 315.35 174.665 317.22C174.407 317.596 173.589 318.488 171.972 317.763Z" fill="#C5796D"/>
<path d="M426.442 269.765C429.736 264.233 439.929 250.638 450.312 253.973C456.889 256.082 458.188 262.977 459.247 269.067C460.654 277.165 458.121 293.183 455.925 298.971C453.818 304.532 447.475 315.273 443.33 319.365C438.238 324.388 431.91 340.396 430.91 342.056C429.336 344.68 427.239 348.621 421.053 348.126C414.227 347.579 410.09 343.96 407.045 343.345C399.53 341.841 417.88 284.166 426.442 269.765Z" fill="#F3D4CF" stroke="#C5796D" stroke-width="4.5"/>
<path d="M428.812 310.279C426.887 312.75 425.072 315.084 424.476 317.156C424.27 317.856 424.265 319.325 424.304 320.511C424.332 321.477 424.574 322.245 424.799 322.226C425.024 322.207 425.153 321.411 425.127 320.444C425.107 319.696 425.107 318.887 425.15 318.251C425.567 318.61 426.136 318.911 426.884 318.911C427.32 318.911 427.805 318.815 428.341 318.572C430.993 317.385 431.91 315.749 432.713 314.305C433.404 313.061 434.012 311.987 435.605 311.265C438.506 309.959 442.878 305.19 443.849 301.492C446.471 291.461 439.286 278.926 438.257 277.209C438.776 275.982 439.286 274.845 439.738 273.872C440.321 272.633 441.075 271.148 441.962 269.603C443.708 272.896 451.529 288.457 449.255 298.954C447.112 308.849 437.535 320.466 434.213 324.257C433.596 324.965 433.213 325.663 433.371 325.835C433.529 326.005 434.179 325.587 434.801 324.883C438.164 321.066 447.834 309.406 450.058 299.153C450.226 298.366 450.338 297.555 450.407 296.728C450.878 295.941 453.897 290.693 454.691 283.669C455.7 274.735 453.364 261.631 452.911 259.213C454.043 259.12 454.858 259.562 455.425 260.081C456.112 260.713 456.588 261.382 456.793 261.287C456.999 261.191 456.858 260.383 456.224 259.691C455.356 258.751 453.861 257.828 451.589 258.601C446.09 260.471 441.709 267.723 439.003 273.48C436.65 278.486 433.048 287.718 432.407 292.578C432.235 293.874 432.515 295.709 432.814 297.651C433.136 299.784 433.467 301.989 433.151 303.3C432.661 305.331 430.704 307.847 428.812 310.279ZM442.462 268.763C443.923 266.34 445.717 263.863 447.75 262.009C448.917 264.221 455.691 278.113 450.489 294.212C450.266 283.386 443.526 270.701 442.462 268.763ZM425.327 317.223C425.935 315.352 427.714 313.059 429.444 310.837C431.395 308.33 433.409 305.74 433.952 303.525C434.306 302.037 433.962 299.739 433.624 297.517C433.349 295.725 433.074 293.872 433.227 292.705C433.39 291.435 433.77 289.851 434.275 288.125C435.928 289.39 442.524 295.565 436.583 309.691C436.126 310.007 435.686 310.284 435.284 310.463C433.44 311.296 432.716 312.599 432.01 313.86C431.23 315.252 430.427 316.696 428.025 317.765C426.406 318.488 425.588 317.596 425.327 317.223Z" fill="#C5796D"/>
<path d="M300.316 70.9941C219.91 71.1185 154.61 136.105 154.735 216.166C154.754 228.881 156.418 241.21 159.523 252.956H159.525C159.556 253.085 187.133 343.769 193.06 373.556C196.365 390.166 214.736 410.396 232.598 422.618C249.261 434.019 259.536 449.855 300.316 449.855C341.095 449.855 351.37 434.019 368.033 422.618C385.895 410.398 404.266 390.169 407.571 373.556C413.501 343.769 441.078 253.083 441.104 252.956H441.109C444.213 241.21 445.878 228.881 445.897 216.166C446.024 136.105 380.722 71.1185 300.316 70.9941Z" fill="#F3D4CF"/>
<path d="M412.177 123.304C430.062 147.659 440.679 178.004 440.634 210.905C440.612 223.619 439.01 235.949 436.018 247.694H436.013C435.987 247.821 409.407 338.507 403.696 368.294C400.503 384.905 382.799 405.134 365.583 417.356C349.515 428.757 339.623 444.593 300.31 444.593C261.004 444.593 251.1 428.757 235.037 417.356C217.823 405.136 200.112 384.907 196.934 368.294C191.215 338.507 164.635 247.821 164.609 247.694C161.615 235.949 160.012 223.619 159.991 210.905C159.94 178.013 170.553 147.679 188.426 123.326C167.35 148.499 154.674 180.862 154.729 216.166C154.748 228.881 156.412 241.21 159.517 252.956H159.519C159.555 253.085 187.132 343.769 193.059 373.556C196.364 390.166 214.735 410.396 232.597 422.618C249.26 434.019 259.535 449.855 300.315 449.855C341.094 449.855 351.369 434.019 368.032 422.618C385.894 410.398 404.265 390.169 407.57 373.556C413.5 343.769 441.076 253.083 441.103 252.956H441.108C444.212 241.21 445.877 228.881 445.896 216.166C445.953 180.852 433.265 148.48 412.177 123.304Z" fill="#EBC3BD"/>
<path d="M300.316 70.9941C219.91 71.1185 154.61 136.105 154.735 216.166C154.754 228.881 156.418 241.21 159.523 252.956H159.525C159.556 253.085 187.133 343.769 193.06 373.556C196.365 390.166 214.736 410.396 232.598 422.618C249.261 434.019 259.536 449.855 300.316 449.855C341.095 449.855 351.37 434.019 368.033 422.618C385.895 410.398 404.266 390.169 407.571 373.556C413.501 343.769 441.078 253.083 441.104 252.956H441.109C444.213 241.21 445.878 228.881 445.897 216.166C446.024 136.105 380.722 71.1185 300.316 70.9941Z" stroke="#C5796D" stroke-width="4.5"/>
<path d="M301.404 407.715C293.655 407.715 292.562 401.31 292.562 401.31L309.603 400.86C309.6 400.86 308.22 407.715 301.404 407.715Z" fill="url(#paint4_linear)"/>
<path d="M300.038 402.367C296.048 402.367 293.011 401.958 292.798 401.926C292.47 401.879 292.243 401.577 292.288 401.252C292.334 400.922 292.64 400.709 292.963 400.74C293.051 400.755 301.812 401.936 309.145 400.274C309.495 400.202 309.791 400.41 309.863 400.726C309.935 401.049 309.731 401.369 309.413 401.441C306.254 402.156 302.898 402.367 300.038 402.367ZM300.48 389.755C297.392 389.755 294.4 388.614 291.391 388.057C288.024 387.43 284.666 387.966 281.296 388.286C278.421 388.559 275.594 388.518 272.748 388.004C271.394 387.758 269.378 387.609 268.22 386.83C267.034 386.029 267.254 384.165 268.591 383.663C269.854 383.185 271.82 384.18 273.092 384.421C274.546 384.699 276.022 384.873 277.505 384.895C280.772 384.938 284.008 384.278 287.27 384.163C290.726 384.048 294.051 385.005 297.39 385.737C300.372 386.39 302.951 385.952 305.888 385.321C310.982 384.223 316.074 383.95 321.264 383.718C323.831 383.601 326.447 383.106 328.894 382.324C329.937 381.986 331.173 381.099 332.269 381.699C333.532 382.393 333.472 384.287 332.168 384.897C327.909 386.899 323.128 387.222 318.5 387.435C315.546 387.569 312.58 387.715 309.664 388.234C306.624 388.772 303.589 389.755 300.48 389.755Z" fill="#C5796D"/>
<path d="M206.09 271.84C229.589 248.235 253.935 252.191 267.68 268.69C269.359 271.973 270.065 275.54 269.773 279.077C269.326 284.442 264.935 289.725 262.928 290.763C257.281 293.683 251.122 295.408 244.877 295.762C242.476 295.898 241.058 295.951 238.996 295.762C234.908 295.386 231.474 294.535 227.396 292.861C220.711 290.115 214.399 285.415 209.034 278.395C208.956 278.295 208.841 278.235 208.719 278.233C208.597 278.23 208.48 278.285 208.398 278.381L208.185 278.639C208.066 278.783 208.056 278.979 208.135 279.144C207.532 278.321 206.992 277.496 206.526 276.666C206.542 276.676 206.552 276.68 206.569 276.69C205.464 274.695 205.514 272.681 206.09 271.84Z" fill="url(#paint5_radial)"/>
<path d="M260.127 281.189C257.183 292.005 246.026 298.379 235.184 295.406C224.354 292.438 217.956 281.251 220.905 270.431C223.847 259.606 235.028 253.235 245.861 256.207C256.688 259.173 263.079 270.362 260.127 281.189Z" fill="#574C3C" stroke="#291F10" stroke-width="1.5"/>
<path d="M256.968 281.438C254.093 289.744 245.423 294.59 236.98 292.275C229.187 290.137 224.268 282.66 224.906 274.755C227.798 274.526 230.962 274.459 234.244 274.621C234.21 274.734 234.15 274.829 234.122 274.947C233.084 278.759 235.499 282.756 239.517 283.858C243.547 284.961 247.652 282.753 248.69 278.941C248.821 278.443 248.893 277.944 248.912 277.451C251.663 278.458 254.37 279.756 256.968 281.438Z" fill="#665E51"/>
<path opacity="0.9" d="M243.27 269.742C239.197 268.577 235.042 270.902 233.99 274.959C232.938 278.994 235.387 283.22 239.458 284.387C243.536 285.556 247.692 283.229 248.747 279.19C249.807 275.136 247.346 270.912 243.27 269.742ZM244.16 284.083C242.466 284.609 240.713 283.911 240.247 282.517C239.797 281.125 240.799 279.58 242.507 279.065C244.21 278.539 245.956 279.24 246.427 280.622C246.891 282.01 245.877 283.557 244.16 284.083Z" fill="black"/>
<path opacity="0.6" d="M229.711 286.513C228.46 287.264 226.585 286.595 225.516 284.999C224.445 283.421 224.605 281.529 225.863 280.773C227.109 280.029 228.999 280.701 230.061 282.285C231.118 283.868 230.965 285.762 229.711 286.513Z" fill="white"/>
<path opacity="0.9" d="M256.477 274.928C253.612 276.645 249.304 275.1 246.862 271.471C244.422 267.841 244.788 263.505 247.656 261.792C250.517 260.068 254.831 261.615 257.259 265.246C259.696 268.874 259.342 273.208 256.477 274.928Z" fill="white"/>
<path d="M193.878 277.003C193.878 310.029 213.689 336.795 238.125 336.795C262.562 336.795 282.373 310.029 282.373 277.003C282.373 243.976 262.562 217.207 238.125 217.207C213.689 217.207 193.878 243.976 193.878 277.003ZM206.53 276.668C206.547 276.678 206.557 276.683 206.573 276.692C205.464 274.695 205.516 272.681 206.093 271.839C229.592 248.235 253.937 252.191 267.683 268.69C269.362 271.973 270.067 275.539 269.775 279.077C269.328 284.442 264.937 289.725 262.93 290.763C257.283 293.683 251.125 295.408 244.88 295.762C242.478 295.898 241.06 295.951 238.998 295.762C234.911 295.386 231.476 294.535 227.398 292.861C220.713 290.115 214.402 285.415 209.037 278.395C208.958 278.295 208.843 278.235 208.721 278.233C208.599 278.23 208.482 278.285 208.401 278.381L208.188 278.639C208.068 278.783 208.059 278.979 208.138 279.144C207.537 278.321 206.997 277.498 206.53 276.668Z" fill="#F3D4CF"/>
<path d="M203.198 272.419C203.253 292.892 221.486 309.393 243.949 309.29C266.405 309.173 284.573 292.495 284.516 272.019C284.461 251.541 266.226 235.036 243.76 235.146C221.299 235.265 203.141 251.943 203.198 272.419ZM206.53 276.669C206.547 276.678 206.556 276.683 206.573 276.693C205.463 274.696 205.516 272.682 206.092 271.84C229.591 248.236 253.937 252.192 267.682 268.69C269.361 271.974 270.067 275.54 269.775 279.077C269.328 284.442 264.937 289.725 262.93 290.763C257.283 293.684 251.124 295.408 244.879 295.762C242.478 295.898 241.06 295.951 238.998 295.762C234.911 295.387 231.476 294.535 227.398 292.861C220.713 290.115 214.401 285.415 209.037 278.396C208.958 278.295 208.843 278.235 208.721 278.233C208.599 278.231 208.482 278.286 208.4 278.381L208.188 278.64C208.068 278.783 208.058 278.979 208.137 279.144C207.537 278.321 206.996 277.499 206.53 276.669Z" fill="url(#paint6_radial)"/>
<path d="M267.702 268.738C269.362 272.009 270.062 275.556 269.773 279.077C269.326 284.442 264.935 289.725 262.928 290.763C257.281 293.684 251.122 295.408 244.877 295.762C242.476 295.898 241.058 295.951 238.996 295.762C234.908 295.386 231.474 294.535 227.396 292.861C220.711 290.115 214.399 285.415 209.034 278.395C208.956 278.295 208.841 278.235 208.719 278.233C208.597 278.23 208.48 278.285 208.398 278.381L208.185 278.639C208.066 278.783 208.056 278.979 208.135 279.144C207.532 278.321 206.992 277.496 206.526 276.666C206.542 276.676 206.552 276.681 206.569 276.69C205.459 274.693 205.511 272.679 206.088 271.837C218.226 259.644 230.587 254.82 241.601 255.265C251.969 256.126 261.179 261.134 267.702 268.738Z" fill="url(#paint7_radial)"/>
<path d="M273.332 260.849C247.946 247.133 231.232 244.318 202.144 262.933C216.264 252.464 238.493 238.501 273.332 260.849Z" fill="#C5796D"/>
<path d="M260.564 292.165L262.521 292.691L257.709 293.289L261.485 294.808C261.485 294.808 256.599 294.305 255.298 294.607C239.328 298.312 222.947 295.092 213.727 285.784C212.569 285.427 209.792 286.035 209.792 286.035L212.557 284.578C211.746 283.071 210.249 283.389 205.415 283.614C207.688 282.882 210.027 282.177 209.84 281.62L208.149 279.013C208.041 278.847 208.058 278.632 208.187 278.484L208.4 278.24C208.479 278.147 208.596 278.094 208.718 278.096C208.843 278.099 208.958 278.154 209.034 278.25C223.803 296.611 245.724 298.46 262.927 290.003L260.564 292.165ZM272.358 266.772C269.938 264.425 268.168 263.174 265.647 261.847C267.498 261.074 270.088 260.62 270.088 260.62L262.686 259.718C248.122 251.749 238.919 251.144 223.614 256.384C221.708 257.037 216.793 255.576 212.502 254.138L217.365 258.814C214.389 258.905 212.086 258.097 208.895 257.477L214.157 260.488C211.885 262.16 209.517 262.043 202.308 261.833L208.154 264.98C205.602 265.946 204.516 265.638 201.022 264.868C202.191 266.073 203.222 266.929 204.605 267.647C202.727 267.766 200.283 268.01 197.011 266.982C198.625 268.654 200.075 270.082 201.211 270.495L198.651 271.548L202.277 272.885L199.759 274.451C202.636 274.561 204.15 275.181 206.573 276.642C205.463 274.746 205.516 272.83 206.092 272.031C231.141 248.123 257.156 253.968 270.261 272.289L268.5 269.075L271.739 272.134L268.768 267.991L271.447 269.417L268.878 265.777L272.358 266.772Z" fill="black"/>
<path d="M394.531 271.84C371.032 248.235 346.686 252.191 332.941 268.69C331.262 271.973 330.556 275.54 330.848 279.077C331.296 284.442 335.687 289.725 337.693 290.763C343.34 293.683 349.499 295.408 355.744 295.762C358.145 295.898 359.564 295.951 361.625 295.762C365.713 295.386 369.147 294.535 373.225 292.861C379.91 290.115 386.222 285.415 391.587 278.395C391.666 278.295 391.781 278.235 391.903 278.233C392.025 278.23 392.142 278.285 392.223 278.381L392.436 278.639C392.556 278.783 392.565 278.979 392.486 279.144C393.089 278.321 393.629 277.496 394.096 276.666C394.079 276.676 394.069 276.68 394.053 276.69C395.158 274.695 395.107 272.681 394.531 271.84Z" fill="url(#paint8_radial)"/>
<path d="M379.714 281.189C376.77 292.004 365.612 298.378 354.771 295.405C343.941 292.437 337.543 281.251 340.492 270.431C343.434 259.606 354.615 253.234 365.447 256.207C376.275 259.173 382.666 270.361 379.714 281.189Z" fill="#574C3C" stroke="#291F10" stroke-width="1.5"/>
<path d="M376.555 281.437C373.681 289.744 365.01 294.59 356.568 292.274C348.775 290.136 343.855 282.66 344.494 274.755C347.386 274.525 350.55 274.458 353.831 274.621C353.798 274.733 353.738 274.829 353.709 274.946C352.671 278.759 355.087 282.755 359.105 283.858C363.135 284.96 367.24 282.753 368.278 278.94C368.409 278.443 368.481 277.943 368.5 277.45C371.251 278.457 373.958 279.756 376.555 281.437Z" fill="#665E51"/>
<path opacity="0.9" d="M362.857 269.742C358.784 268.577 354.629 270.902 353.577 274.958C352.525 278.993 354.974 283.219 359.045 284.386C363.122 285.556 367.279 283.229 368.334 279.189C369.394 275.135 366.933 270.911 362.857 269.742ZM363.747 284.083C362.053 284.609 360.3 283.91 359.834 282.516C359.384 281.124 360.386 279.579 362.094 279.065C363.797 278.539 365.543 279.239 366.014 280.622C366.478 282.009 365.464 283.557 363.747 284.083Z" fill="black"/>
<path opacity="0.6" d="M349.298 286.513C348.047 287.264 346.172 286.594 345.103 284.999C344.032 283.42 344.192 281.528 345.45 280.773C346.696 280.029 348.585 280.701 349.647 282.284C350.705 283.868 350.552 285.762 349.298 286.513Z" fill="white"/>
<path opacity="0.9" d="M376.065 274.927C373.199 276.644 368.892 275.099 366.45 271.471C364.01 267.84 364.376 263.504 367.244 261.792C370.105 260.067 374.419 261.615 376.847 265.245C379.284 268.874 378.93 273.207 376.065 274.927Z" fill="white"/>
<path d="M362.496 217.207C338.06 217.207 318.249 243.976 318.249 277.003C318.249 310.029 338.06 336.795 362.496 336.795C386.933 336.795 406.744 310.029 406.744 277.003C406.744 243.976 386.933 217.207 362.496 217.207ZM392.482 279.146C392.561 278.981 392.551 278.783 392.432 278.642L392.219 278.383C392.137 278.288 392.02 278.233 391.898 278.235C391.776 278.237 391.661 278.297 391.583 278.398C386.218 285.417 379.906 290.117 373.221 292.863C369.143 294.54 365.709 295.389 361.621 295.764C359.559 295.955 358.141 295.903 355.74 295.764C349.495 295.41 343.336 293.686 337.689 290.765C335.683 289.727 331.289 284.444 330.844 279.079C330.552 275.542 331.258 271.976 332.937 268.692C346.682 252.194 371.028 248.24 394.527 271.842C395.103 272.684 395.156 274.698 394.046 276.695C394.063 276.685 394.072 276.68 394.089 276.671C393.625 277.498 393.085 278.321 392.482 279.146Z" fill="#F3D4CF"/>
<path d="M356.861 235.146C334.395 235.038 316.161 251.543 316.106 272.019C316.048 292.493 334.216 309.17 356.672 309.29C379.135 309.393 397.368 292.892 397.423 272.419C397.48 251.943 379.322 235.265 356.861 235.146ZM392.481 279.147C392.56 278.982 392.551 278.783 392.431 278.642L392.218 278.384C392.137 278.288 392.02 278.233 391.898 278.235C391.776 278.238 391.661 278.298 391.582 278.398C386.217 285.418 379.906 290.118 373.221 292.863C369.143 294.54 365.708 295.389 361.621 295.765C359.559 295.956 358.141 295.903 355.739 295.765C349.494 295.411 343.336 293.686 337.689 290.766C335.682 289.728 331.288 284.444 330.844 279.08C330.552 275.542 331.257 271.976 332.936 268.692C346.682 252.194 371.027 248.24 394.526 271.842C395.103 272.684 395.155 274.698 394.046 276.695C394.062 276.686 394.072 276.681 394.089 276.671C393.625 277.499 393.084 278.321 392.481 279.147Z" fill="url(#paint9_radial)"/>
<path d="M332.919 268.737C331.259 272.009 330.558 275.556 330.848 279.077C331.295 284.441 335.686 289.725 337.693 290.763C343.34 293.683 349.499 295.408 355.743 295.761C358.145 295.898 359.563 295.95 361.625 295.761C365.712 295.386 369.147 294.535 373.225 292.86C379.91 290.115 386.222 285.415 391.586 278.395C391.665 278.295 391.78 278.235 391.902 278.232C392.024 278.23 392.141 278.285 392.222 278.381L392.435 278.639C392.555 278.782 392.565 278.979 392.486 279.144C393.088 278.321 393.629 277.496 394.095 276.666C394.078 276.675 394.069 276.68 394.052 276.69C395.162 274.693 395.109 272.679 394.533 271.837C382.395 259.644 370.034 254.819 359.02 255.264C348.652 256.125 339.441 261.134 332.919 268.737Z" fill="url(#paint10_radial)"/>
<path d="M327.29 260.849C352.676 247.133 369.39 244.318 398.478 262.933C384.357 252.464 362.128 238.501 327.29 260.849Z" fill="#C5796D"/>
<path d="M337.693 290.007C354.897 298.467 376.818 296.618 391.587 278.254C391.663 278.159 391.778 278.104 391.903 278.101C392.025 278.099 392.142 278.151 392.221 278.245L392.434 278.489C392.563 278.637 392.579 278.852 392.472 279.017L390.781 281.624C390.594 282.181 392.931 282.887 395.206 283.619C390.372 283.394 388.875 283.076 388.064 284.583L390.829 286.039C390.829 286.039 388.054 285.432 386.894 285.788C377.676 295.097 361.293 298.316 345.323 294.611C344.022 294.31 339.136 294.812 339.136 294.812L342.912 293.294L338.1 292.696L340.057 292.169L337.693 290.007ZM331.748 265.769L329.179 269.409L331.858 267.984L328.887 272.127L332.125 269.067L330.365 272.282C343.47 253.961 369.485 248.116 394.533 272.024C395.11 272.823 395.162 274.738 394.053 276.635C396.476 275.176 397.99 274.554 400.867 274.444L398.348 272.878L401.974 271.541L399.415 270.488C400.551 270.077 402.001 268.647 403.615 266.975C400.343 268.003 397.899 267.759 396.021 267.64C397.404 266.924 398.434 266.068 399.604 264.86C396.11 265.631 395.024 265.941 392.472 264.973L398.317 261.825C391.108 262.036 388.741 262.153 386.468 260.481L391.73 257.47C388.54 258.089 386.236 258.898 383.261 258.807L388.124 254.131C383.83 255.568 378.915 257.03 377.011 256.377C361.707 251.136 352.503 251.742 337.94 259.711L330.537 260.613C330.537 260.613 333.128 261.067 334.979 261.84C332.458 263.165 330.688 264.416 328.268 266.764L331.748 265.769Z" fill="black"/>
<path d="M396.47 339.206C396.553 392.482 353.43 435.749 300.147 435.823C246.873 435.909 203.613 392.788 203.529 339.502C203.448 286.228 246.569 242.969 299.852 242.885C353.129 242.804 396.391 285.924 396.47 339.206Z" fill="url(#paint11_radial)"/>
<path d="M384.023 202.856C384.023 249.087 346.542 286.568 300.312 286.568C254.082 286.568 216.601 249.087 216.601 202.856C216.601 156.626 254.082 119.145 300.312 119.145C346.542 119.145 384.023 156.626 384.023 202.856Z" fill="url(#paint12_radial)"/>
<path d="M195.344 238.11C272.306 215.611 289.77 261.636 273.798 247.316C257.204 232.44 218.891 233.76 195.344 238.11Z" fill="#2A232B"/>
<path d="M405.282 238.092C383.029 234.023 350.815 232.399 331.267 244.143C328.851 245.592 319.268 253.808 321.817 248.029C326.45 237.506 357.1 224.102 405.282 238.092Z" fill="#2A232B"/>
<path d="M292.731 274.04C292.731 274.04 289.385 300.629 287.885 305.804C284.587 317.17 273.133 333.113 275.355 340.317C279.801 354.721 293.382 351.064 300.526 351.011C307.134 350.958 319.832 354.723 322.439 345.342C323.281 342.315 321.384 334.661 321.384 334.661C321.384 334.661 315.061 342.104 300.158 341.279C295.905 341.042 288.986 336.266 288.907 329.531C288.804 320.401 293.217 312.702 294.181 303.64C294.908 296.756 292.731 274.04 292.731 274.04Z" fill="#E4B3AB"/>
<path d="M312.733 346.859C315.305 346.859 316.001 347.639 316.001 348.603C316.001 349.569 315.199 351.057 312.733 350.349C310.021 349.576 305.288 349.93 305.288 349.93C305.288 349.93 310.157 346.859 312.733 346.859ZM288.165 346.859C285.589 346.861 284.898 347.644 284.898 348.612C284.896 349.576 285.671 350.963 288.165 350.356C290.916 349.681 295.608 349.937 295.608 349.937C295.608 349.937 290.741 346.869 288.165 346.859ZM321.382 334.661C321.382 334.661 324.943 339.284 324.204 344.168C323.484 348.911 316.288 351.011 316.288 351.011C316.288 351.011 321.284 347.385 321.889 342.984C322.171 340.923 321.382 334.661 321.382 334.661ZM277.414 329.911C277.414 329.911 274.817 336.378 275.568 340.32C276.934 347.438 284.427 350.279 284.427 350.279C284.427 350.279 279.751 345.403 278.089 341.09C276.269 336.378 277.414 329.911 277.414 329.911Z" fill="#C5796D"/>
<path d="M312.606 338.11C315.101 335.984 315.352 334.771 314.835 333.975C314.321 333.176 312.824 332.671 310.736 335.238C308.433 338.06 303.427 340.15 303.427 340.15C303.427 340.15 310.112 340.234 312.606 338.11Z" fill="#FFF4F3"/>
<path opacity="0.1" d="M412.556 152.39H183.569L188.465 304.661C189.453 302.265 203.215 277.522 204.928 281.019C269.546 249.129 290.529 208.78 303.377 176.353C284.229 256.843 238.046 268.182 238.046 268.182C248.163 267.058 277.204 264.059 296.372 244.15C298.881 241.497 320.091 225.48 338.56 175.54C342.382 216.628 360.329 261.299 390.647 280.339C380.497 260.335 367.179 208.78 364.735 172.44C381.575 254.642 398.609 297.849 413.996 326.962C419.224 336.852 429.537 354.335 428.325 354.094C432.01 372.888 412.556 152.39 412.556 152.39Z" fill="#3F1C0D"/>
<path d="M357.658 75.5408C350.284 72.7377 345.015 70.7167 338.502 68.9731C338.392 66.5813 212.823 30.8246 149.049 179.52C132.888 226.362 124.321 298.56 139.212 345.936C142.654 356.428 152.218 371.324 161.312 421.254C165.689 445.289 169.145 464.27 195.227 490.627C202.074 497.554 219.618 511.311 222.77 523.545C232.433 470.359 214.066 455.418 196.6 441.154C184.622 431.371 172.955 429.133 203.976 436.49C203.976 436.49 210.534 436.078 223.306 428.006C203.091 432.264 188.635 425.404 179.31 409.243C166.985 387.882 167.049 355.591 179.46 334.132C191.924 341.164 191.283 375.17 191.928 379.516C197.516 361.865 189.374 310.145 188.468 304.664C188.262 302.198 191.682 293.738 191.682 293.738C192.67 291.342 203.218 272.129 204.93 275.628C269.548 243.738 290.531 203.39 303.379 170.962C284.231 251.452 240.385 266.943 240.385 266.943C250.502 265.819 277.206 258.668 296.371 238.759C298.88 236.106 321.664 211.151 340.133 161.211C343.955 202.299 362.506 248.661 386.663 276.324C376.512 256.319 367.179 203.39 364.735 167.049C381.575 249.251 402.46 288.778 417.846 317.888C423.075 327.777 428.927 344.465 427.715 344.223C431.403 363.015 423.675 406.394 387.339 416.734C394.464 418.071 400.554 418.236 405.832 417.523C366.443 456.413 388.471 479.281 395.816 520.404C397.863 513.114 397.789 505.643 408.889 489.529C429.7 459.283 413.634 458.707 439.178 408.851C466.573 355.369 463.385 334.491 465.841 320.289C466.198 318.38 481.491 122.235 357.658 75.5408Z" fill="#3F1C0D"/>
<path d="M223.21 520.936C224.221 514.732 224.862 509.113 225.207 503.961C224.901 509.13 224.248 514.77 223.21 520.936ZM238.125 245.911C267.921 202.677 285.96 171.766 295.527 126.323C272.743 178.726 232.382 220.056 197.819 263.368C197.391 253.454 198.945 196.846 243.623 129.262C190.072 178.257 166.544 247.843 180.723 289.749C170.244 267.589 162.471 224.16 169.878 194.098C139.895 265.214 181.498 297.333 193.162 342.317C189.948 298.83 185.631 307.094 191.682 292.131C192.526 290.084 198.388 278.852 198.716 281.426C201.462 277.25 204.138 274.011 204.927 275.626C269.545 243.736 290.528 203.388 303.377 170.96C284.228 251.45 240.383 266.941 240.383 266.941C270.117 263.641 317.033 212.237 310.549 137.662C298.586 180.714 267.921 218.178 238.125 245.911ZM462.096 235.789C463.777 273.607 459.446 309.988 453.382 346.364C448.599 312.88 439.879 273.578 424.284 229.254C437.523 290.483 435.896 312.478 436.626 336.161C405.184 267.692 373.617 208.719 361.498 138.057C359.222 163.967 365.806 202.677 369.671 231.56C359.222 208.214 347.433 180.31 343.161 137.662C343.161 145.878 342.207 150.152 339.435 160.329C343.575 201.022 362.809 249.01 386.66 276.322C376.509 256.317 367.177 203.388 364.732 167.047C381.572 249.249 402.457 288.776 417.843 317.886C422.33 326.374 427.262 339.839 427.81 343.341C427.901 343.92 427.884 344.257 427.712 344.221C428.09 346.154 428.343 348.356 428.46 350.746C432.694 361.731 434.507 368.45 431.986 376.541C428.338 388.248 410.343 413.924 387.337 416.734C408.248 421.668 421.637 410.061 432.708 395.622C416.15 433.761 382.178 416.662 395.669 519.156C397.346 513.253 399.755 502.787 408.889 489.527C429.699 459.281 413.634 458.705 439.178 408.849C466.573 355.367 463.385 334.489 465.841 320.287C465.997 319.457 468.977 281.851 462.096 235.789ZM167.527 412.293C174.676 416.859 183.165 437.688 207.075 435.83C159.448 423.548 161.589 356.362 161.589 315.271C158.07 326.996 155.167 339.308 153.366 351.901C126.339 278.321 141.481 198.566 176.879 130.147C166.827 143.783 157.401 160.044 149.046 179.52C109.123 295.255 147.853 367.079 151.419 378.887C167.484 432.097 157.836 452.847 195.224 490.627C202.071 497.554 219.615 511.311 222.767 523.545C231.832 463.524 177.405 447.055 167.527 412.293ZM403.036 130.508C440.216 164.103 453.729 240.13 454.047 296.597C454.315 308.484 454.37 179.255 403.036 130.508ZM431.558 266.874C439.551 314.8 425.528 164.921 372.778 127.098C404.371 153.362 425.437 231.063 431.558 266.874ZM230.662 123.34C244.874 111.513 223.982 128.124 216.786 134.84C191.581 157.631 180.802 181.324 175.796 207.047C184.322 171.118 203.31 147.224 230.662 123.34ZM263.728 127.483C270.478 121.279 230.383 147.251 208.929 226.191C225.039 176.925 246.022 145.091 263.728 127.483Z" fill="#301205"/>
<path d="M423.895 326.995C465.009 391.132 432.139 411.555 428.346 424.995C432.591 409.953 454.871 387.557 423.895 326.995ZM451.996 375.127C452.242 372.735 459.8 353.151 452.283 316.421C448.202 296.481 440.994 277.4 436.117 257.684C445.509 301.829 456.538 330.458 451.996 375.127ZM158.666 403.536C158.726 400.042 145.538 358.753 164.524 307.825C137.664 363.79 158.786 396.717 158.666 403.536ZM173.677 327.583C173.199 325.596 171.711 323.465 170.869 321.611C138.843 251.296 160.75 197.109 188.051 128.728C151.548 207.111 134.203 253.434 173.677 327.583ZM244.6 121.013C244.686 120.922 253.849 111.534 253.968 111.565C253.741 111.505 252.148 113.268 251.969 113.433C200.747 160.163 168.901 209.768 178.305 277.933C172.065 214.951 201.56 166.731 244.6 121.013ZM300.306 111.431C292.564 130.972 235.982 215.413 198.955 259.811C261.165 190.653 299.388 118.159 300.306 111.431ZM259.065 261.325C258.505 261.657 253.813 265.063 253.562 264.927C253.669 264.984 257.274 262.674 257.558 262.523C321.681 228.771 329.229 187.14 345.13 119.058C327.433 182.777 315.278 227.907 259.065 261.325ZM432.804 322.805C422.9 300.655 362.563 169.137 361.109 130.395C362.489 194.693 431.73 320.411 432.804 322.805ZM416.686 246.63C417.55 250.425 418.717 254.24 419.367 258.074C411.188 209.964 406.555 175.085 376.39 136.968C396.526 162.926 403.694 189.577 416.686 246.63ZM387.478 119.977C387.478 120.14 387.289 120.57 387.048 120.386C425.43 149.759 445.466 261.265 446.308 263.657C443.467 255.584 447.023 195.138 400.15 134.605C396.371 129.726 392.211 123.859 387.072 120.312C387.217 120.352 387.519 120.161 387.414 119.986C387.571 120.24 387.756 120.467 387.942 120.704C388.162 120.831 387.478 120.415 387.478 119.977Z" fill="#4E2818"/>
<path d="M426.622 428.784C413.075 467.934 411.082 470.618 411.082 470.618C410.047 473.01 418.588 445.722 426.622 428.784ZM409.396 478.494C409.202 479.18 407.932 483.763 408.107 483.198C412.711 470.111 417.229 467.267 421.869 447.351C416.624 463.615 416.136 459.013 409.396 478.494ZM410.496 479.329C402.912 490.591 400.951 497.695 401.252 496.953C401.475 496.289 403.123 492.964 404.876 490.151C408.82 483.77 413.589 478.908 417.095 466.482C416.136 469.034 414.72 473.356 410.496 479.329ZM181.28 466.042C190.453 477.317 179.762 467.164 164.725 430.685C170.534 450.293 175.09 457.879 181.28 466.042ZM193.763 478.269C191.366 476.492 176.595 461.974 170.893 451.013C179.147 470.489 196.159 480.103 193.763 478.269ZM186.829 476.301C212.191 500.175 180.159 470.233 177.375 464.605C177.375 464.607 177.415 467.183 186.829 476.301Z" fill="#3F1C0D"/>
<path d="M462.66 215.956C433.713 77.7198 338.17 68.3633 344.776 71.1736C258.948 40.7553 155.605 96.3827 134.918 218.967C129.114 253.404 126.65 316.842 135.282 341.092C140.12 354.687 143.113 361.874 149.102 377.638C168.037 430.176 147.322 457.396 207.267 503.514C214.707 509.264 219.622 516.85 222.98 525.709C223.007 525.659 223.473 522.875 223.483 522.815C230.739 481.634 228.151 458.575 188.668 432.881C199.627 439.252 214.463 437.456 223.844 427.313C180.386 439.64 159.372 381.238 180.709 337.12C188.625 355.637 191.746 373.085 191.268 383.185C200.039 356.323 194.528 345.436 190.646 296.532C193.952 288.89 198.022 282.698 203.155 276.154C248.146 253.657 281.98 232.784 305.003 166.475C299.457 185.035 295.474 203.201 279.691 227.53C259 259.481 249.61 260.574 236.735 267.472C247.386 267.472 261.851 264.31 281.906 252.239C278.617 255.037 275.685 257.737 269.167 262.306C301.918 241.21 326.5 211.067 339.435 160.326C330.865 200.67 326.474 237.066 284.666 259.555C326.5 238.359 334.369 207.953 340.219 161.326C344.426 234.506 378.829 271.813 390.647 280.34C375.629 255.693 369.119 197.527 363.802 160.097C369.573 195.937 367.306 184.806 376.342 219.78C392.847 282.817 413.601 318.352 425.576 343.487C430.508 378.031 415.689 409.975 383.996 416.287C391.494 419.274 398.884 419.657 404.873 418.2C360.607 462.467 387.653 475.707 395.784 522.552C398.872 503.363 409.688 494.184 417.908 478.953C426.174 463.565 423.184 447.033 432.283 428.009C462.768 364.811 487.7 336.302 462.66 215.956ZM388.133 416.574C412.491 411.874 432.713 378.798 429.255 351.564C436.734 369.047 438.307 381.635 428.267 396.818C419.68 411.53 405.009 420.542 388.133 416.574ZM432.708 395.622C432.689 395.603 432.687 395.598 432.644 395.598C432.613 395.598 432.672 395.586 432.708 395.622ZM464.645 320.138C459.656 390.291 427.927 412.324 422.479 449.293C416.377 491.835 402.395 484.119 395.643 517.267C388.248 475.923 367.471 456.274 407.578 417.461C425.748 411.843 443.753 389.805 437.76 362.114C428.339 318.572 390.652 294.248 364.213 158.336C364.216 158.386 364.223 158.434 364.225 158.485C363.776 156.351 363.211 153.775 362.852 151.977C362.754 151.883 359.523 132.072 362.919 154.715C363.991 192.77 373.725 250.502 384.892 272.492C350.64 228.919 341.982 181.23 340.265 160.955C340.58 158.434 340.891 155.878 341.2 153.261V153.263C342.621 141.821 345.397 123.204 339.966 156.516C322.559 206.035 300.875 232.249 295.501 237.936C276.962 257.183 248.649 265.996 240.753 266.709C286.383 246.484 302.023 192.067 309.756 144.443C309.478 145.787 306.474 160.156 306.742 158.817C292.829 195.786 274.69 239.866 204.396 274.554C254.98 212.215 281.751 163.22 293.8 130.331C269.335 188.666 199.173 273.808 191.05 293.52C188.537 212.495 216.776 155.268 244.745 130.14C215.602 152.902 180.12 219.139 187.272 304.762C189.886 320.605 195.64 361.544 192.134 377.375C192.773 367.753 190.763 354.178 188.922 347.694V347.667C181.682 321.478 163.916 301.942 160.58 272.377C157.566 245.709 158.69 218.228 170.529 193.737C161.752 210.24 157.449 228.12 156.753 246.762C154.732 300.813 170.9 306.261 178.434 333.53C155.789 372.649 174.782 441.422 221.139 428.726C193.258 451.436 169.314 410.642 165.088 402.855C158.563 386.813 157.272 368.404 156.468 351.329C156.181 473.593 237.759 416.763 222.712 521.366C220.79 512.069 198.448 492.187 196.076 489.79C160.039 453.357 167.65 431.333 155.416 389.384C150.412 365.998 144.261 357.529 140.341 345.579C125.06 296.943 135.04 223.803 150.178 179.915C179.197 112.288 225.226 67.818 298.466 65.4214C315.744 64.8498 351.896 71.3745 330.994 68.435C341.377 70.5804 347.404 72.9411 357.232 76.6627C478.649 122.448 465.523 315.441 464.669 320.071C464.669 320.067 464.645 320.09 464.645 320.138Z" fill="#110500"/>
</g>
<defs>
<linearGradient id="paint0_linear" x1="300" y1="-75" x2="300" y2="675" gradientUnits="userSpaceOnUse">
<stop stop-color="#151371"/>
<stop offset="0.453125" stop-color="#FF00B8"/>
<stop offset="0.96875" stop-color="#FFC700"/>
</linearGradient>
<linearGradient id="paint1_linear" x1="439" y1="245" x2="439" y2="644" gradientUnits="userSpaceOnUse">
<stop stop-color="#FF00B8"/>
<stop offset="1" stop-color="#F0DB0A" stop-opacity="0"/>
</linearGradient>
<linearGradient id="paint2_linear" x1="194" y1="161" x2="194" y2="560" gradientUnits="userSpaceOnUse">
<stop stop-color="#FF00B8"/>
<stop offset="1" stop-color="#F0DB0A" stop-opacity="0"/>
</linearGradient>
<linearGradient id="paint3_linear" x1="300.263" y1="478.556" x2="300.263" y2="395.039" gradientUnits="userSpaceOnUse">
<stop stop-color="#E4B3AB" stop-opacity="0.8"/>
<stop offset="0.7" stop-color="#C5796D"/>
</linearGradient>
<linearGradient id="paint4_linear" x1="300.311" y1="408.549" x2="300.311" y2="401.374" gradientUnits="userSpaceOnUse">
<stop offset="0.1" stop-color="#EBC3BD"/>
<stop offset="1" stop-color="#E4B3AB"/>
</linearGradient>
<radialGradient id="paint5_radial" cx="0" cy="0" r="1" gradientUnits="userSpaceOnUse" gradientTransform="translate(237.834 275.846) rotate(179.978) scale(32.5307 32.5215)">
<stop stop-color="white"/>
<stop offset="0.544" stop-color="#FDFEFE"/>
<stop offset="0.74" stop-color="#F6F8F9"/>
<stop offset="0.879" stop-color="#EAEFF2"/>
<stop offset="0.992" stop-color="#D9E3E8"/>
<stop offset="1" stop-color="#D8E2E7"/>
</radialGradient>
<radialGradient id="paint6_radial" cx="0" cy="0" r="1" gradientUnits="userSpaceOnUse" gradientTransform="translate(244.057 270.765) rotate(1.19182) scale(42.8083 34.2449)">
<stop stop-color="#E4B3AB"/>
<stop offset="0.7" stop-color="#E4B3AB" stop-opacity="0.3"/>
<stop offset="1" stop-color="#F3D4CF" stop-opacity="0"/>
</radialGradient>
<radialGradient id="paint7_radial" cx="0" cy="0" r="1" gradientUnits="userSpaceOnUse" gradientTransform="translate(237.82 294.524) rotate(-3.03947) scale(35.5763 36.1084)">
<stop offset="0.9" stop-opacity="0"/>
<stop offset="1" stop-opacity="0.3"/>
</radialGradient>
<radialGradient id="paint8_radial" cx="0" cy="0" r="1" gradientUnits="userSpaceOnUse" gradientTransform="translate(362.787 275.846) rotate(0.0216374) scale(32.5307 32.5215)">
<stop stop-color="white"/>
<stop offset="0.544" stop-color="#FDFEFE"/>
<stop offset="0.74" stop-color="#F6F8F9"/>
<stop offset="0.879" stop-color="#EAEFF2"/>
<stop offset="0.992" stop-color="#D9E3E8"/>
<stop offset="1" stop-color="#D8E2E7"/>
</radialGradient>
<radialGradient id="paint9_radial" cx="0" cy="0" r="1" gradientUnits="userSpaceOnUse" gradientTransform="translate(356.565 270.765) rotate(178.808) scale(42.8083 34.2449)">
<stop stop-color="#E4B3AB"/>
<stop offset="0.7" stop-color="#E4B3AB" stop-opacity="0.3"/>
<stop offset="1" stop-color="#F3D4CF" stop-opacity="0"/>
</radialGradient>
<radialGradient id="paint10_radial" cx="0" cy="0" r="1" gradientUnits="userSpaceOnUse" gradientTransform="translate(362.8 294.524) rotate(-176.961) scale(35.5763 36.1084)">
<stop offset="0.9" stop-opacity="0"/>
<stop offset="1" stop-opacity="0.3"/>
</radialGradient>
<radialGradient id="paint11_radial" cx="0" cy="0" r="1" gradientUnits="userSpaceOnUse" gradientTransform="translate(300.312 339.189) scale(95.6701)">
<stop stop-color="#FFF4F3" stop-opacity="0.5"/>
<stop offset="0.9" stop-color="#F3D4CF" stop-opacity="0"/>
</radialGradient>
<radialGradient id="paint12_radial" cx="0" cy="0" r="1" gradientUnits="userSpaceOnUse" gradientTransform="translate(300.312 205.251) scale(86.1031)">
<stop stop-color="#FFF4F3" stop-opacity="0.5"/>
<stop offset="0.9" stop-color="#F3D4CF" stop-opacity="0"/>
</radialGradient>
<clipPath id="clip0">
<rect width="600" height="600" fill="white"/>
</clipPath>
</defs>
</svg>
