<svg width="600" height="600" viewBox="0 0 600 600" fill="none" xmlns="http://www.w3.org/2000/svg">
<g clip-path="url(#clip0)">
<path d="M675 675H-75V-75H675V675Z" fill="url(#paint0_linear)"/>
<path d="M360.996 403.874H308.184V356.576H360.996V403.874ZM414.113 320.069H340.054V380.225H414.113V320.069ZM377.082 441.95H442.881V362.639H377.082V441.95ZM400.757 434.192H334.59V491.191H400.757V434.192ZM580.44 284.416H490.23V387.501H580.44V284.416ZM478.458 331.108H456.605V356.576H478.458V331.108ZM544.531 252.277H456.605V304.426H544.531V252.277ZM442.881 270.468H395.532V335.958H442.881V270.468ZM334.59 275.32H308.184V303.213H334.59V275.32ZM299.325 320.069H258.501V382.71H299.325V320.069ZM347.338 441.95H275.708V521.511H347.338V441.95ZM308.184 576.086H388.617V528.788H308.184V576.086ZM500.311 557.894H443.791V599.129H500.313V557.894H500.311ZM637.361 516.659H585.062V578.511H637.361V516.659ZM551.302 544.718H506.381V585.953H551.302V544.718ZM594.357 463.296H528.843V537.278H594.357V463.296ZM610.791 590.639H528.843V644H610.791V590.639ZM340.054 557.894H251.187V637.937H340.052V557.894H340.054ZM630.216 356.576H569.818V403.874H630.216V356.576ZM594.357 424.49H568.208V451.477H594.357V424.49ZM251.187 474.697H300.975V404.294H251.187V474.697ZM321.764 249.852L232 252.277V320.069H321.764V249.852ZM646 252.277H587.725V326.256H646V252.277ZM371.858 245H347.338V298.361H371.858V245ZM641.143 437.983H581.281V486.494H641.143V437.983Z" fill="url(#paint1_linear)" stroke="#FFC700" stroke-width="1.5"/>
<path d="M115.996 319.874H63.1843V272.576H115.996V319.874ZM169.113 236.069H95.0537V296.225H169.113V236.069ZM132.082 357.95H197.881V278.639H132.082V357.95ZM155.757 350.192H89.5904V407.191H155.757V350.192ZM335.44 200.416H245.23V303.501H335.44V200.416ZM233.458 247.108H211.605V272.576H233.458V247.108ZM299.531 168.277H211.605V220.426H299.531V168.277ZM197.881 186.468H150.532V251.958H197.881V186.468ZM89.5904 191.32H63.1843V219.213H89.5904V191.32ZM54.3246 236.069H13.5008V298.71H54.3246V236.069ZM102.338 357.95H30.7084V437.511H102.338V357.95ZM63.1843 492.086H143.617V444.788H63.1843V492.086ZM255.311 473.894H198.791V515.129H255.313V473.894H255.311ZM392.361 432.659H340.062V494.511H392.361V432.659ZM306.302 460.718H261.381V501.953H306.302V460.718ZM349.357 379.296H283.843V453.278H349.357V379.296ZM365.791 506.639H283.843V560H365.791V506.639ZM95.0537 473.894H6.18721V553.937H95.0519V473.894H95.0537ZM385.216 272.576H324.818V319.874H385.216V272.576ZM349.357 340.49H323.208V367.477H349.357V340.49ZM6.18721 390.697H55.9745V320.294H6.18721V390.697ZM76.7643 165.852L-13 168.277V236.069H76.7643V165.852ZM401 168.277H342.725V242.256H401V168.277ZM126.858 161H102.338V214.361H126.858V161ZM396.143 353.983H336.281V402.494H396.143V353.983Z" fill="url(#paint2_linear)" stroke="#FFC700" stroke-width="1.5"/>
<rect x="504" y="328.706" width="8.86149" height="25.1423" fill="white"/>
<rect x="521.754" y="328.857" width="8.83104" height="25.1423" fill="white"/>
<rect x="512.861" y="320" width="8.89195" height="8.85765" fill="white"/>
<rect x="539.415" y="328.857" width="8.89195" height="25.1423" fill="white"/>
<rect x="530.585" y="320" width="8.83105" height="8.85765" fill="white"/>
<rect x="548.308" y="320" width="8.86149" height="8.85765" fill="white"/>
<rect x="557.169" y="327.792" width="8.83104" height="8.85766" fill="white"/>
<rect x="548.308" y="336.65" width="8.86149" height="8.82721" fill="white"/>
<rect x="40" y="390.425" width="7.57515" height="21.4449" fill="white"/>
<rect x="55.1763" y="390.555" width="7.54912" height="21.4449" fill="white"/>
<rect x="47.5752" y="383" width="7.60118" height="7.55506" fill="white"/>
<rect x="70.2744" y="390.555" width="7.60118" height="21.4449" fill="white"/>
<rect x="62.7256" y="383" width="7.54912" height="7.55506" fill="white"/>
<rect x="77.876" y="383" width="7.57515" height="7.55506" fill="white"/>
<rect x="85.4512" y="389.646" width="7.54912" height="7.55506" fill="white"/>
<rect x="77.876" y="397.202" width="7.57515" height="7.52909" fill="white"/>
<path d="M313.508 334.252H311.146V331.89H313.508V334.252Z" fill="#5C5700"/>
<path d="M537.755 568.802C532.567 557.589 518.394 540.973 502.647 536.383C483.182 530.706 439.244 523.842 422.952 520.027C409.891 516.965 383.587 493.344 374.368 485.416C372.714 483.998 371.36 481.071 371.327 478.895C370.999 453.228 381.238 385.045 381.238 385.045H312.327H243.419C243.419 385.045 253.658 453.226 253.325 478.895C253.299 481.071 251.938 483.998 250.289 485.416C241.07 493.344 214.766 516.965 201.706 520.027C185.411 523.842 141.472 530.94 122.01 536.617C106.259 541.205 92.0904 557.587 86.9022 568.799C78.1419 587.719 76.0723 621.957 76.0723 651.489H312.327H548.583C548.583 621.959 546.511 587.721 537.755 568.802Z" fill="#F0C7B1"/>
<path d="M452.086 531.662C509.595 540.03 533.797 552.235 541.376 651.493H548.582C548.582 621.961 546.51 587.723 537.754 568.804C532.566 557.591 518.393 540.975 502.647 536.385C483.182 530.708 439.243 523.845 422.951 520.029C409.891 516.967 379.853 491.515 371.818 481.401C379.757 492.515 402.038 518.269 421.559 525.014C430.899 528.241 438.676 529.711 452.086 531.662ZM203.097 525.014C222.619 518.271 244.897 492.515 252.838 481.401C244.805 491.513 214.768 516.967 201.705 520.029C185.413 523.845 141.474 530.942 122.009 536.619C106.263 541.207 92.09 557.589 86.9018 568.802C78.1462 587.721 76.0742 621.959 76.0742 651.491H83.28C90.8118 552.869 115.115 540.019 172.57 531.66C185.978 529.711 193.758 528.241 203.097 525.014Z" fill="#FFE4D6"/>
<path d="M302.04 563.703C302.04 563.703 290.053 559.902 285.306 558.083C260.62 548.611 180.421 542.473 180.421 542.473C180.421 542.473 264.892 545.826 283.532 549.039C282.45 537.777 276.404 501.778 276.404 501.778C276.404 501.778 288.569 541.505 291.546 551.527C293.138 556.885 302.04 563.703 302.04 563.703ZM327.553 560.533C327.343 560.705 327.102 560.93 326.84 561.166C327.107 560.965 327.348 560.755 327.553 560.533ZM302.04 563.703C302.04 563.703 308.875 570.772 312.31 570.862C316.823 570.982 323.717 564.013 326.842 561.166C323.854 563.427 317.017 564.452 314.297 564.558C311.155 564.679 302.04 563.703 302.04 563.703ZM351.696 545.939C348.046 546.525 341.334 547.803 341.334 547.803L346.737 512.625C345.211 519.88 336.167 550.924 327.553 560.533C332.066 556.715 342.102 554.884 347.219 554.144C371.402 550.638 371.393 550.641 444.23 542.473C444.23 542.473 375.549 542.107 351.696 545.939Z" fill="#E1AC8F"/>
<path d="M537.755 568.802C532.567 557.589 518.394 540.973 502.647 536.383C483.182 530.706 439.244 523.842 422.951 520.027C409.891 516.965 383.587 493.344 374.368 485.416C372.714 483.998 371.36 481.071 371.327 478.895C370.999 453.228 381.238 385.045 381.238 385.045H312.327H243.419C243.419 385.045 253.658 453.226 253.325 478.895C253.299 481.071 251.938 483.998 250.289 485.416C241.07 493.344 214.766 516.965 201.706 520.027C185.411 523.842 141.472 530.94 122.01 536.617C106.259 541.205 92.0904 557.587 86.9022 568.799C78.1419 587.719 76.0723 621.957 76.0723 651.489H312.327H548.583C548.583 621.959 546.511 587.721 537.755 568.802Z" stroke="#C27B55" stroke-width="4.5"/>
<path d="M312.376 502.858C331.709 502.858 352.235 491.18 369.548 477.638C369.545 461.804 372.976 432.501 375.813 411.002C339.472 405.694 285.077 405.618 248.788 410.643C251.585 431.812 254.99 460.743 255.098 476.842C272.444 490.812 293.006 502.858 312.376 502.858Z" fill="url(#paint3_linear)"/>
<path d="M340.219 654.114C295.012 654.114 242.279 653.939 179.015 653.573L123.072 653.27C89.2924 653.086 87.3008 653.048 83.1758 653.048L71.6016 653.065C60.8024 554.133 105.646 528.157 174.992 519.089C193.393 516.497 211.491 511.772 225.69 502.617C264.263 555.168 378.809 544.109 398.399 501.131C401.683 502.383 404.398 504.002 407.795 505.228C418.819 513.339 433.953 519.016 449.442 519.873C510.887 523.278 554.384 550.577 553.529 648.963C553.536 649.353 553.538 651.739 553.498 652.483C523.936 652.483 512.848 652.769 489.629 653.102C458.134 653.551 418.934 654.111 340.247 654.111C340.235 654.114 340.228 654.114 340.219 654.114Z" fill="#386E77"/>
<path d="M551.073 651.165C550.105 633.718 541.472 584.877 526.597 562.473C497.108 518.045 426.756 533.636 410.521 515.947C398.741 539.948 351.516 555.154 335.878 557.386C381.194 542.36 400.227 531.495 407.747 505.717C422.879 525.397 504.786 510.374 537.019 563.2C546.457 578.668 555.432 627.901 551.073 651.165ZM207.927 516.472C211.133 515.727 212.733 513.521 215.915 512.658L212.546 508.191C191.167 524.852 111.171 514.44 83.742 564.977C75.0974 580.903 69.2666 618.815 73.8382 651.066C75.1069 631.259 75.7258 588.898 90.6005 566.492C117.354 526.186 166.141 536.834 203.103 519.772C219.6 540.09 245.364 550.079 271.579 554.211C238.69 545.633 219.832 531.148 207.927 516.472Z" fill="#4D7E86"/>
<path d="M395.748 506.114C382.678 533.317 283.881 564.996 228.172 508.191C224.709 509.66 214.347 513.181 214.347 513.181C254.926 568.431 373.845 568.781 405.498 512.911C405.359 512.857 398.966 507.749 395.748 506.114Z" fill="#265E68"/>
<path d="M398.276 500.817C376.038 545.285 260.31 551.577 225.782 502.311C213.173 506.039 201.048 513.984 188.841 515.971C115.791 526.85 61.7875 532.317 71.3464 653.32C94.8302 653.32 55.7276 653.166 179.01 653.828C470.998 655.505 461.482 652.739 553.725 652.739C553.793 652.408 553.76 649.308 553.775 648.968C558.726 515.635 480.885 523.507 428.276 514.315C420.848 512.618 413.945 507.763 407.875 504.994C404.523 503.461 401.674 502.084 398.276 500.817ZM224.945 503.801C255.597 559.066 376.666 547.979 400.041 504.04C402.876 505.231 403.601 505.703 406.888 506.868C382.676 557.637 262.909 573.815 213.922 509.616C214.267 509.519 221.491 505.096 224.945 503.801ZM74.0751 651.491C68.3554 589.047 78.3206 537.987 151.52 525.461C175.797 520.982 190.636 520.826 211.491 511.773C251.094 576.518 381.826 566.484 408.995 508.689C412.898 512.018 418.984 515.848 426.49 517.632C469.247 527.788 556.047 515.52 551.464 651.489C423.752 649.831 317.89 645.951 74.0751 651.491Z" fill="#0C4049"/>
<path d="M183.971 296.083C180.463 290.267 169.024 274.35 160.273 276.583C153.157 278.407 153.249 288.327 152.698 294.196C151.895 302.805 151.602 317.802 153.939 323.888C156.185 329.731 163.294 341.021 167.708 345.328C173.139 350.609 181.812 367.437 182.88 369.183C184.56 371.942 187.929 375.893 193.098 375.581C200.353 375.144 206.621 368.288 207.191 364.985C210.264 347.053 193.103 311.218 183.971 296.083Z" fill="#F0C7B1" stroke="#C27B55" stroke-width="4.5"/>
<path d="M180.496 331.514C180.159 330.184 180.513 327.94 180.86 325.776C181.174 323.803 181.47 321.939 181.29 320.62C180.607 315.683 176.766 306.303 174.259 301.219C171.37 295.369 166.701 288.001 160.842 286.101C158.423 285.314 156.828 286.255 155.907 287.207C155.227 287.906 155.073 288.731 155.295 288.83C155.52 288.927 156.02 288.244 156.753 287.604C157.353 287.079 155.553 287.509 156.753 287.604C156.268 290.061 154.709 302.493 155.784 311.567C156.63 318.707 158.265 324.039 158.768 324.838C158.841 325.679 158.964 326.503 159.146 327.302C161.513 337.721 176.908 351.345 180.489 355.227C181.151 355.943 181.845 356.368 182.016 356.193C182.186 356.019 181.777 355.312 181.12 354.592C177.581 350.736 162.288 337.154 160.001 327.103C157.575 316.439 169.244 300.626 171.103 297.281C172.05 298.852 172.856 300.359 173.475 301.616C173.964 302.601 174.5 303.757 175.058 305.006C173.964 306.75 162.966 319.482 165.764 329.674C166.798 333.433 174.793 338.278 177.886 339.604C179.587 340.336 180.225 341.427 180.967 342.689C181.827 344.163 181.045 347.955 183.872 349.16C184.449 349.406 184.969 349.505 185.429 349.505C186.228 349.505 186.833 349.198 187.279 348.834C187.327 349.474 187.324 350.296 187.301 351.057C187.272 352.045 187.412 352.496 187.65 352.515C187.894 352.536 188.146 352.104 188.177 351.128C188.217 349.923 188.21 348.432 187.995 347.717C187.36 345.616 185.425 343.242 183.372 340.73C181.354 338.262 181.021 333.574 180.496 331.514ZM158.688 322.279C153.14 305.923 161.719 291.025 162.964 288.78C165.355 289.723 169.017 293.961 170.574 296.423C169.44 298.391 158.919 311.277 158.688 322.279ZM184.21 348.343C181.649 347.251 182.542 343.655 181.715 342.238C180.964 340.957 180.189 339.634 178.221 338.788C177.796 338.604 177.326 338.325 176.844 338.004C170.508 323.652 177.536 317.379 179.299 316.096C179.84 317.849 180.241 319.458 180.423 320.75C180.584 321.932 180.284 323.817 179.996 325.636C179.634 327.892 179.263 330.229 179.648 331.741C180.225 333.992 180.619 338.758 182.698 341.305C184.543 343.563 186.438 345.893 187.086 347.792C186.807 348.17 185.93 349.077 184.21 348.343Z" fill="#C27B55"/>
<path d="M440.061 296.083C443.571 290.267 455.011 274.35 463.759 276.583C470.875 278.407 470.783 288.327 471.336 294.196C472.139 302.805 472.43 317.802 470.096 323.888C467.849 329.731 460.738 341.021 456.327 345.328C450.895 350.609 442.22 367.437 441.155 369.183C439.475 371.942 436.106 375.893 430.934 375.581C423.681 375.144 417.413 368.288 416.842 364.985C413.77 347.053 430.934 311.218 440.061 296.083Z" fill="#F0C7B1" stroke="#C27B55" stroke-width="4.5"/>
<path d="M440.666 340.733C438.613 343.244 436.678 345.619 436.042 347.719C435.825 348.437 435.82 349.928 435.858 351.13C435.891 352.106 436.144 352.539 436.389 352.517C436.63 352.498 436.767 352.047 436.739 351.06C436.715 350.299 436.711 349.477 436.758 348.836C437.205 349.2 437.809 349.507 438.608 349.507C439.069 349.507 439.591 349.408 440.167 349.162C442.99 347.955 442.211 344.163 443.071 342.691C443.813 341.43 444.45 340.336 446.154 339.606C449.246 338.281 457.241 333.437 458.276 329.676C461.073 319.484 450.076 306.75 448.982 305.009C449.535 303.759 450.076 302.604 450.56 301.618C451.184 300.362 451.987 298.852 452.937 297.283C454.796 300.629 466.462 316.439 464.038 327.106C461.749 337.156 446.459 350.738 442.92 354.594C442.26 355.315 441.849 356.021 442.019 356.196C442.194 356.371 442.886 355.945 443.546 355.229C447.127 351.348 462.519 337.723 464.887 327.304C465.071 326.506 465.196 325.681 465.269 324.84C465.768 324.044 467.405 318.712 468.251 311.57C469.326 302.495 467.766 290.063 467.282 287.606C468.482 287.512 466.682 287.082 467.282 287.606C468.017 288.246 468.518 288.929 468.74 288.832C468.962 288.733 468.808 287.911 468.13 287.209C467.207 286.257 465.612 285.317 463.193 286.104C457.333 288.003 452.663 295.372 449.773 301.222C447.267 306.306 443.427 315.685 442.745 320.623C442.565 321.941 442.86 323.805 443.175 325.778C443.52 327.942 443.876 330.186 443.538 331.517C443.014 333.574 442.683 338.262 440.666 340.733ZM453.461 296.423C455.021 293.961 458.68 289.725 461.071 288.78C462.316 291.025 470.895 305.923 465.35 322.279C465.118 311.277 454.598 298.391 453.461 296.423ZM436.952 347.787C437.597 345.888 439.494 343.559 441.339 341.3C443.416 338.753 443.813 333.988 444.389 331.736C444.772 330.224 444.403 327.888 444.044 325.631C443.753 323.812 443.453 321.927 443.614 320.746C443.794 319.453 444.195 317.845 444.736 316.091C446.499 317.374 453.527 323.649 447.191 337.999C446.711 338.321 446.241 338.6 445.811 338.784C443.846 339.63 443.071 340.953 442.317 342.233C441.49 343.651 442.386 347.249 439.825 348.338C438.105 349.077 437.228 348.17 436.952 347.787Z" fill="#C27B55"/>
<path d="M451.209 281.109H451.197C451.173 281.218 422.381 376.249 413.682 404.949C411.993 410.52 409.12 415.701 405.281 420.037C390.22 437.033 349.128 479.235 312.376 479.235C274.932 479.235 233.015 434.24 218.564 417.303C215.157 413.315 212.641 408.72 211.07 403.683C202.548 376.393 172.971 281.662 172.945 281.553H172.943C169.876 269.76 168.232 257.382 168.213 244.617C168.09 164.234 232.366 98.9897 311.79 98.8644C391.221 98.7392 455.7 163.778 455.821 244.159C455.842 256.924 454.24 269.306 451.209 281.109Z" fill="#F0C7B1"/>
<path d="M388.325 121.056C422.133 147.363 444.249 190.65 444.315 239.675C444.336 252.443 442.862 264.825 440.072 276.628H440.062C440.041 276.737 413.547 371.768 405.55 400.466C403.996 406.037 401.354 411.218 397.822 415.551C383.966 432.549 346.163 474.754 312.35 474.754C277.899 474.754 239.338 429.754 226.044 412.82C222.908 408.829 220.596 404.236 219.15 399.202C211.311 371.91 184.099 277.178 184.075 277.07H184.073C181.252 265.276 179.74 252.898 179.721 240.134C179.653 190.929 201.806 147.429 235.744 121.033C195.125 146.806 168.133 192.519 168.213 244.618C168.232 257.383 169.876 269.762 172.943 281.554H172.945C172.969 281.663 202.548 376.394 211.07 403.684C212.643 408.721 215.157 413.313 218.564 417.304C233.013 434.241 274.93 479.236 312.376 479.236C349.13 479.236 390.22 437.036 405.281 420.037C409.12 415.702 411.993 410.523 413.682 404.95C422.381 376.25 451.173 281.218 451.197 281.11H451.209C454.24 269.304 455.842 256.924 455.821 244.157C455.743 192.238 428.793 146.749 388.325 121.056Z" fill="#E8B9A0"/>
<path d="M451.209 281.109H451.197C451.173 281.218 422.381 376.249 413.682 404.949C411.993 410.52 409.12 415.701 405.281 420.037C390.22 437.033 349.128 479.235 312.376 479.235C274.932 479.235 233.015 434.24 218.564 417.303C215.157 413.315 212.641 408.72 211.07 403.683C202.548 376.393 172.971 281.662 172.945 281.553H172.943C169.876 269.76 168.232 257.382 168.213 244.617C168.09 164.234 232.366 98.9897 311.79 98.8644C391.221 98.7392 455.7 163.778 455.821 244.159C455.842 256.924 454.24 269.306 451.209 281.109Z" stroke="#C27B55" stroke-width="4.5"/>
<path d="M303.412 425.77L323.014 425.281C320.744 435.841 304.964 434.325 303.412 425.77Z" fill="url(#paint4_linear)"/>
<path d="M303.687 426.439C302.81 426.321 302.943 425.071 303.876 425.158C303.977 425.173 314.054 426.448 322.488 424.65C323.4 424.473 323.669 425.725 322.795 425.912C316.187 427.325 307.637 426.994 303.687 426.439ZM312.523 418.005C308.972 418.005 305.53 416.774 302.071 416.171C298.196 415.493 294.336 416.074 290.459 416.417C286.499 416.769 277.859 416.386 275.421 414.843C274.056 413.976 274.311 411.959 275.849 411.42C277.299 410.9 279.56 411.978 281.025 412.24C287.81 413.457 291.383 412.16 297.332 411.961C306.43 411.687 307.396 415.507 318.746 413.213C330.948 410.747 336.444 412.613 345.199 409.977C346.399 409.613 347.826 408.654 349.086 409.301C350.539 410.052 350.468 412.101 348.97 412.76C340.923 416.308 332.021 414.874 323.088 416.365C319.587 416.946 316.097 418.005 312.523 418.005Z" fill="#C27B55"/>
<path d="M221.964 291.78C220.769 286.382 234.228 282.394 251.995 284.572C269.757 286.753 282.089 297.623 280.468 303.104C279.571 306.142 255.333 310.771 246.795 309.83C238.139 308.873 224.852 304.815 221.964 291.78Z" fill="url(#paint5_radial)"/>
<path d="M265.667 295.86C265.667 303.687 259.319 310.036 251.492 310.036C243.665 310.036 237.316 303.687 237.316 295.86C237.316 288.031 243.665 281.685 251.492 281.685C259.319 281.683 265.667 288.031 265.667 295.86Z" fill="#4E60A3"/>
<path opacity="0.7" d="M249.904 281.841C249.85 281.848 249.793 281.855 249.736 281.863C249.805 282.182 249.871 282.503 249.937 282.822C249.923 282.498 249.916 282.167 249.904 281.841ZM249.935 282.819C250.1 287.478 250.372 291.629 251.156 293.13C251.57 291.485 250.866 287.389 249.935 282.819ZM251.159 293.132C251.057 293.526 250.903 293.796 250.667 293.886C250.431 293.975 250.133 293.871 249.798 293.642C249.895 294.037 249.885 294.344 249.713 294.535C249.543 294.727 249.238 294.774 248.831 294.72C249.098 295.027 249.235 295.308 249.176 295.554C249.113 295.799 248.86 295.984 248.484 296.125C248.86 296.274 249.113 296.458 249.172 296.704C249.231 296.95 249.094 297.231 248.829 297.536C249.231 297.486 249.54 297.538 249.706 297.729C249.873 297.921 249.883 298.23 249.788 298.625C250.121 298.396 250.414 298.296 250.651 298.389C250.889 298.478 251.043 298.748 251.137 299.145C251.329 298.786 251.541 298.556 251.799 298.53C252.044 298.497 252.309 298.67 252.576 298.975C252.578 298.568 252.663 298.268 252.876 298.124C253.084 297.98 253.394 298.008 253.772 298.155C253.587 297.796 253.523 297.491 253.642 297.264C253.76 297.04 254.05 296.919 254.454 296.872C254.121 296.638 253.918 296.399 253.923 296.144C253.923 295.889 254.121 295.65 254.459 295.421C254.057 295.372 253.772 295.251 253.651 295.027C253.535 294.802 253.599 294.495 253.788 294.136C253.405 294.278 253.098 294.306 252.89 294.162C252.68 294.018 252.595 293.718 252.595 293.311C252.33 293.614 252.066 293.782 251.815 293.749C251.56 293.715 251.345 293.493 251.159 293.132ZM252.593 293.309C253.724 292.045 255.005 288.09 256.302 283.613C254.284 287.811 252.595 291.613 252.593 293.309ZM256.299 283.613C256.441 283.325 256.585 283.032 256.72 282.739C256.67 282.723 256.621 282.699 256.571 282.678C256.481 282.992 256.392 283.306 256.299 283.613ZM253.788 294.136C255.376 293.541 258.35 290.632 261.577 287.273C257.842 290.051 254.577 292.633 253.788 294.136ZM261.577 287.273C261.814 287.096 262.057 286.918 262.298 286.741C262.265 286.699 262.227 286.663 262.199 286.625C261.993 286.838 261.788 287.058 261.577 287.273ZM254.454 295.421C256.139 295.629 260.124 294.436 264.547 292.962C259.945 293.69 255.858 294.457 254.454 295.421ZM264.547 292.964C264.807 292.926 265.079 292.884 265.343 292.841C265.334 292.796 265.322 292.752 265.31 292.707C265.057 292.792 264.798 292.879 264.547 292.964ZM254.452 296.869C255.846 297.843 259.928 298.634 264.521 299.381C260.115 297.885 256.139 296.669 254.452 296.869ZM264.523 299.381C264.748 299.459 264.975 299.539 265.197 299.612C265.209 299.572 265.218 299.534 265.225 299.494C264.996 299.459 264.757 299.421 264.523 299.381ZM253.772 298.152C254.558 299.657 257.807 302.258 261.525 305.06C258.315 301.682 255.362 298.757 253.772 298.152ZM261.528 305.056C261.667 305.202 261.811 305.353 261.951 305.502C261.974 305.474 261.996 305.453 262.022 305.427C261.856 305.304 261.686 305.179 261.528 305.056ZM252.578 298.972C252.571 300.671 254.239 304.479 256.233 308.689C254.96 304.208 253.705 300.243 252.578 298.972ZM256.233 308.692C256.283 308.869 256.335 309.051 256.382 309.233C256.418 309.219 256.441 309.209 256.474 309.2C256.396 309.03 256.314 308.855 256.233 308.692ZM251.14 299.142C250.346 300.647 250.051 304.789 249.859 309.445C250.814 304.886 251.544 300.791 251.14 299.142ZM249.859 309.445C249.819 309.623 249.786 309.802 249.748 309.984C249.781 309.991 249.807 309.991 249.84 309.996C249.845 309.814 249.854 309.625 249.859 309.445ZM249.791 298.623C248.383 299.584 246.197 303.121 243.865 307.151C246.828 303.56 249.38 300.272 249.791 298.623ZM243.865 307.151C243.74 307.3 243.61 307.458 243.483 307.607C243.513 307.626 243.539 307.64 243.572 307.664C243.667 307.494 243.768 307.321 243.865 307.151ZM248.834 297.538C247.142 297.734 243.563 299.849 239.625 302.332C243.92 300.531 247.7 298.809 248.834 297.538ZM239.622 302.336C239.419 302.421 239.211 302.507 239.001 302.596C239.015 302.627 239.036 302.66 239.055 302.691C239.247 302.575 239.436 302.455 239.622 302.336ZM248.486 296.128C246.901 295.52 242.748 295.731 238.103 296.102C242.743 296.499 246.896 296.728 248.486 296.128ZM238.103 296.102C237.85 296.078 237.59 296.054 237.34 296.033C237.34 296.078 237.335 296.123 237.34 296.165C237.598 296.142 237.855 296.121 238.103 296.102ZM248.834 294.724C247.716 293.451 243.946 291.707 239.665 289.879C243.584 292.383 247.152 294.519 248.834 294.724ZM239.665 289.879C239.419 289.72 239.171 289.562 238.921 289.404C238.899 289.449 238.876 289.494 238.852 289.534C239.126 289.65 239.4 289.763 239.665 289.879ZM249.8 293.642C249.401 291.993 246.868 288.695 243.929 285.083C246.235 289.127 248.401 292.674 249.8 293.642ZM243.929 285.083C243.771 284.811 243.617 284.535 243.459 284.258C243.414 284.289 243.367 284.32 243.327 284.35C243.525 284.594 243.733 284.839 243.929 285.083Z" fill="url(#paint6_radial)"/>
<path opacity="0.4" d="M253.584 281.888C253.528 281.881 253.473 281.872 253.419 281.865C253.402 282.191 253.381 282.519 253.362 282.843C253.433 282.526 253.511 282.205 253.584 281.888ZM253.36 282.84C252.316 287.381 251.501 291.461 251.874 293.118C252.698 291.634 253.076 287.495 253.36 282.84ZM251.872 293.118C251.673 293.472 251.456 293.692 251.203 293.718C250.952 293.741 250.693 293.566 250.43 293.257C250.421 293.661 250.331 293.959 250.116 294.098C249.904 294.237 249.594 294.204 249.218 294.048C249.398 294.415 249.457 294.722 249.334 294.941C249.209 295.164 248.918 295.277 248.519 295.315C248.843 295.553 249.039 295.797 249.032 296.052C249.027 296.305 248.821 296.541 248.486 296.765C248.885 296.822 249.171 296.952 249.282 297.176C249.396 297.403 249.325 297.708 249.131 298.062C249.511 297.928 249.821 297.909 250.026 298.058C250.232 298.207 250.31 298.507 250.3 298.915C250.577 298.62 250.841 298.452 251.097 298.492C251.345 298.525 251.555 298.759 251.734 299.126C251.841 298.731 252.001 298.466 252.245 298.381C252.483 298.296 252.776 298.405 253.102 298.644C253.017 298.249 253.034 297.937 253.206 297.751C253.379 297.564 253.691 297.524 254.095 297.58C253.832 297.269 253.698 296.987 253.769 296.742C253.835 296.496 254.09 296.316 254.475 296.182C254.097 296.031 253.854 295.839 253.795 295.591C253.74 295.343 253.882 295.064 254.158 294.767C253.752 294.804 253.447 294.752 253.284 294.559C253.119 294.365 253.114 294.053 253.218 293.663C252.883 293.885 252.585 293.98 252.351 293.883C252.108 293.786 251.961 293.514 251.872 293.118ZM253.213 293.663C254.633 292.732 256.892 289.243 259.304 285.257C256.268 288.789 253.655 292.021 253.213 293.663ZM259.304 285.255C259.514 285.014 259.729 284.768 259.937 284.52C259.892 284.49 259.852 284.454 259.807 284.421C259.64 284.702 259.472 284.983 259.304 285.255ZM254.154 294.769C255.843 294.604 259.47 292.562 263.455 290.155C259.125 291.873 255.304 293.522 254.154 294.769ZM263.453 290.153C263.729 290.044 264.008 289.935 264.289 289.827C264.265 289.777 264.239 289.732 264.223 289.687C263.968 289.843 263.713 290.001 263.453 290.153ZM254.466 296.184C256.039 296.822 260.197 296.699 264.849 296.423C260.216 295.931 256.07 295.615 254.466 296.184ZM264.849 296.42C265.114 296.451 265.383 296.479 265.65 296.508C265.65 296.461 265.652 296.416 265.655 296.371C265.385 296.387 265.114 296.404 264.849 296.42ZM254.09 297.583C255.181 298.885 258.924 300.704 263.167 302.613C259.295 300.026 255.77 297.824 254.09 297.583ZM263.165 302.613C263.361 302.747 263.559 302.882 263.755 303.01C263.776 302.974 263.795 302.939 263.814 302.903C263.602 302.811 263.38 302.712 263.165 302.613ZM253.098 298.646C253.466 300.302 255.933 303.655 258.801 307.326C256.573 303.229 254.477 299.638 253.098 298.646ZM258.801 307.319C258.9 307.496 258.997 307.68 259.096 307.86C259.125 307.839 259.153 307.822 259.184 307.803C259.056 307.643 258.926 307.477 258.801 307.319ZM251.734 299.128C251.29 300.765 251.914 304.876 252.75 309.459C252.677 304.8 252.493 300.647 251.734 299.128ZM252.748 309.459C252.75 309.644 252.755 309.833 252.755 310.022C252.788 310.017 252.819 310.012 252.852 310.012C252.819 309.83 252.783 309.641 252.748 309.459ZM250.3 298.918C249.143 300.165 247.787 304.089 246.398 308.538C248.498 304.382 250.265 300.616 250.3 298.918ZM246.395 308.538C246.312 308.699 246.23 308.864 246.149 309.029C246.178 309.044 246.204 309.051 246.234 309.065C246.286 308.892 246.343 308.71 246.395 308.538ZM249.129 298.067C247.522 298.632 244.493 301.483 241.198 304.772C244.994 302.069 248.306 299.553 249.129 298.067ZM241.2 304.772C241.042 304.883 240.876 305.004 240.716 305.115C240.739 305.141 240.763 305.162 240.784 305.19C240.919 305.051 241.06 304.914 241.2 304.772ZM248.486 296.77C246.801 296.524 242.799 297.64 238.348 299.019C242.967 298.391 247.061 297.706 248.486 296.77ZM238.348 299.024C238.131 299.055 237.906 299.081 237.68 299.116C237.687 299.152 237.699 299.187 237.71 299.22C237.925 299.159 238.138 299.088 238.348 299.024ZM248.517 295.322C247.142 294.322 243.076 293.451 238.495 292.607C242.875 294.193 246.825 295.49 248.517 295.322ZM238.495 292.607C238.256 292.52 238.01 292.43 237.774 292.343C237.762 292.388 237.748 292.43 237.739 292.47C237.996 292.515 238.249 292.562 238.495 292.607ZM249.218 294.053C248.467 292.534 245.278 289.874 241.613 286.999C244.751 290.436 247.645 293.422 249.218 294.053ZM241.611 287.001C241.415 286.786 241.216 286.569 241.018 286.351C240.985 286.389 240.949 286.424 240.919 286.46C241.153 286.639 241.387 286.819 241.611 287.001ZM250.43 293.259C250.471 291.563 248.881 287.722 246.972 283.474C248.153 287.977 249.329 291.962 250.43 293.259ZM246.972 283.474C246.891 283.171 246.813 282.862 246.733 282.555C246.683 282.571 246.631 282.59 246.584 282.609C246.712 282.897 246.844 283.188 246.972 283.474Z" fill="url(#paint7_radial)"/>
<path d="M257.053 295.86C257.053 298.932 254.565 301.419 251.494 301.419C248.425 301.419 245.933 298.932 245.933 295.86C245.933 292.791 248.425 290.299 251.494 290.299C254.565 290.299 257.053 292.789 257.053 295.86Z" fill="#4E60A3"/>
<path opacity="0.9" d="M257.053 295.86C257.053 298.932 254.565 301.419 251.494 301.419C248.425 301.419 245.933 298.932 245.933 295.86C245.933 292.791 248.425 290.299 251.494 290.299C254.565 290.299 257.053 292.789 257.053 295.86Z" fill="black"/>
<path opacity="0.5" d="M243.735 302.353C244.796 301.639 246.237 301.927 246.948 302.986C247.659 304.047 247.378 305.488 246.315 306.199C245.252 306.915 243.813 306.631 243.102 305.568C242.391 304.507 242.674 303.064 243.735 302.353Z" fill="url(#paint8_linear)"/>
<path opacity="0.5" d="M255.885 295.085C255.292 295.969 253.596 295.867 252.091 294.858C250.584 293.85 249.846 292.312 250.437 291.43V291.428C251.028 290.544 252.726 290.646 254.229 291.657C255.739 292.664 256.476 294.199 255.885 295.085Z" fill="url(#paint9_linear)"/>
<path opacity="0.75" d="M262.632 292.725C261.29 294.788 257.822 294.911 254.895 293.002C251.965 291.093 250.68 287.875 252.024 285.813C253.366 283.752 256.835 283.63 259.762 285.536C262.689 287.447 263.974 290.668 262.632 292.725Z" fill="url(#paint10_linear)"/>
<path d="M201.981 292.908C203.893 318.657 229.474 348.624 250.428 345.441C275.23 345.692 299.72 326.853 299.72 292.745C299.72 258.636 287.702 230.071 249.807 230.071C222.637 230.068 201.981 258.799 201.981 292.908ZM221.964 291.781C220.768 286.382 234.228 282.394 251.994 284.572C269.756 286.753 282.088 297.623 280.468 303.104C279.57 306.143 255.333 310.771 246.794 309.831C238.138 308.874 224.851 304.815 221.964 291.781Z" fill="#F0C7B1"/>
<path d="M246.794 309.83C255.332 310.771 279.57 306.142 280.467 303.104C282.091 297.623 269.756 286.753 251.994 284.572C236.732 282.701 224.676 285.385 222.33 289.6C224.451 274.479 240.521 262.674 260.1 262.586C281.153 262.499 298.25 275.996 298.307 292.744C298.357 309.49 281.332 323.131 260.282 323.226C239.224 323.313 222.129 309.816 222.072 293.07C222.072 292.822 222.11 292.579 222.117 292.331C225.259 304.916 238.263 308.888 246.794 309.83Z" fill="url(#paint11_radial)"/>
<path d="M221.964 291.78C220.769 286.382 234.228 282.394 251.995 284.572C269.757 286.753 282.089 297.623 280.468 303.104C279.571 306.142 255.333 310.771 246.795 309.83C238.139 308.873 224.852 304.815 221.964 291.78Z" fill="url(#paint12_radial)"/>
<path d="M222.9 279.717C232.842 275.044 244.99 274.614 255.593 277.343C261.273 278.668 267.323 280.378 272.28 283.575C276.875 286.256 280.608 289.481 284.098 293.474C280.927 289.455 277.546 286.108 273.175 283.386C267.798 280.041 261.908 277.966 255.778 276.497C244.943 273.837 232.809 274.441 222.9 279.717Z" fill="#C27B55"/>
<path d="M224.367 281.142C226.446 280.31 233.97 278.779 237.257 278.623C241.242 278.429 249.242 278.919 253.168 279.625C261.14 281.061 275.024 285.491 280.758 296.598C282.521 300.011 280.933 302.4 280.468 302.917C281.176 297.186 269.038 286.98 251.994 284.953C234.228 282.84 220.768 286.708 221.964 291.941C224.851 304.576 238.138 308.509 246.794 309.436C256.478 310.473 274.398 305.8 276.766 305.294C272.043 307.678 258.99 310.244 253.691 310.735C251.933 310.9 248.398 310.981 246.636 310.936C232.581 310.563 222.611 303.435 218.926 293.784C216.558 287.58 219.148 283.225 224.367 281.142Z" fill="black"/>
<path d="M401.747 291.781C402.943 286.382 389.483 282.394 371.717 284.573C353.955 286.753 341.623 297.623 343.243 303.105C344.141 306.143 368.379 310.771 376.917 309.831C385.573 308.874 398.86 304.815 401.747 291.781Z" fill="url(#paint13_radial)"/>
<path d="M387.338 295.861C387.338 303.688 380.99 310.036 373.165 310.036C365.338 310.036 358.987 303.688 358.987 295.861C358.987 288.031 365.338 281.686 373.165 281.686C380.99 281.683 387.338 288.031 387.338 295.861Z" fill="#4E60A3"/>
<path opacity="0.7" d="M371.575 281.842C371.521 281.849 371.464 281.856 371.407 281.863C371.476 282.182 371.544 282.503 371.608 282.822C371.594 282.499 371.587 282.168 371.575 281.842ZM371.606 282.82C371.769 287.479 372.043 291.63 372.829 293.13C373.24 291.486 372.536 287.389 371.606 282.82ZM372.827 293.132C372.728 293.527 372.572 293.796 372.338 293.886C372.099 293.976 371.804 293.872 371.471 293.643C371.565 294.037 371.556 294.344 371.386 294.536C371.216 294.727 370.911 294.774 370.507 294.72C370.772 295.027 370.911 295.308 370.852 295.554C370.786 295.8 370.535 295.984 370.16 296.126C370.533 296.275 370.786 296.459 370.845 296.705C370.904 296.95 370.769 297.231 370.502 297.536C370.904 297.487 371.211 297.539 371.376 297.73C371.544 297.921 371.554 298.231 371.459 298.625C371.792 298.396 372.088 298.297 372.321 298.389C372.562 298.479 372.714 298.748 372.808 299.145C372.997 298.786 373.214 298.557 373.467 298.531C373.715 298.498 373.98 298.67 374.245 298.975C374.249 298.569 374.332 298.269 374.547 298.124C374.752 297.98 375.064 298.009 375.442 298.155C375.258 297.796 375.197 297.491 375.31 297.265C375.431 297.04 375.721 296.92 376.125 296.872C375.792 296.638 375.586 296.4 375.594 296.145C375.591 295.89 375.792 295.651 376.13 295.422C375.726 295.372 375.442 295.252 375.322 295.027C375.204 294.803 375.27 294.496 375.457 294.136C375.076 294.278 374.769 294.307 374.559 294.162C374.348 294.018 374.266 293.718 374.263 293.312C374.001 293.614 373.734 293.782 373.484 293.749C373.231 293.716 373.016 293.494 372.827 293.132ZM374.263 293.31C375.395 292.046 376.676 288.091 377.97 283.614C375.955 287.812 374.268 291.613 374.263 293.31ZM377.97 283.614C378.112 283.325 378.256 283.033 378.393 282.74C378.344 282.723 378.294 282.699 378.244 282.678C378.152 282.992 378.062 283.307 377.97 283.614ZM375.459 294.136C377.049 293.541 380.023 290.633 383.251 287.273C379.513 290.052 376.25 292.634 375.459 294.136ZM383.251 287.273C383.487 287.096 383.728 286.919 383.971 286.742C383.936 286.699 383.9 286.664 383.872 286.626C383.664 286.839 383.458 287.058 383.251 287.273ZM376.127 295.422C377.812 295.63 381.795 294.437 386.218 292.962C381.616 293.69 377.528 294.458 376.127 295.422ZM386.218 292.965C386.478 292.927 386.75 292.884 387.014 292.842C387.002 292.797 386.993 292.752 386.981 292.707C386.728 292.792 386.468 292.88 386.218 292.965ZM376.123 296.87C377.519 297.843 381.599 298.635 386.194 299.381C381.786 297.886 377.81 296.669 376.123 296.87ZM386.194 299.381C386.419 299.459 386.643 299.54 386.868 299.613C386.879 299.573 386.889 299.535 386.898 299.495C386.667 299.459 386.426 299.422 386.194 299.381ZM375.442 298.153C376.227 299.658 379.478 302.259 383.196 305.061C379.988 301.682 377.032 298.758 375.442 298.153ZM383.199 305.056C383.338 305.203 383.48 305.354 383.619 305.503C383.643 305.474 383.666 305.453 383.692 305.427C383.527 305.304 383.357 305.179 383.199 305.056ZM374.252 298.973C374.245 300.671 375.91 304.48 377.906 308.69C376.631 304.208 375.376 300.244 374.252 298.973ZM377.906 308.692C377.956 308.869 378.008 309.051 378.055 309.233C378.091 309.219 378.117 309.21 378.147 309.2C378.067 309.03 377.984 308.855 377.906 308.692ZM372.81 299.143C372.017 300.648 371.721 304.789 371.53 309.446C372.484 304.886 373.214 300.792 372.81 299.143ZM371.53 309.446C371.49 309.623 371.457 309.803 371.419 309.984C371.452 309.992 371.476 309.992 371.511 309.996C371.516 309.814 371.525 309.625 371.53 309.446ZM371.459 298.623C370.051 299.585 367.866 303.121 365.534 307.152C368.499 303.561 371.048 300.272 371.459 298.623ZM365.534 307.152C365.411 307.301 365.281 307.459 365.153 307.608C365.184 307.627 365.21 307.641 365.241 307.664C365.338 307.494 365.439 307.322 365.534 307.152ZM370.502 297.539C368.811 297.735 365.234 299.849 361.295 302.332C365.591 300.532 369.371 298.81 370.502 297.539ZM361.295 302.337C361.09 302.422 360.882 302.507 360.674 302.597C360.688 302.628 360.707 302.661 360.728 302.691C360.917 302.576 361.106 302.455 361.295 302.337ZM370.16 296.128C368.572 295.521 364.419 295.731 359.774 296.102C364.416 296.499 368.567 296.728 370.16 296.128ZM359.774 296.102C359.523 296.079 359.261 296.055 359.013 296.034C359.011 296.079 359.006 296.123 359.011 296.166C359.268 296.142 359.526 296.121 359.774 296.102ZM370.507 294.725C369.387 293.451 365.619 291.708 361.336 289.879C365.255 292.384 368.822 294.519 370.507 294.725ZM361.336 289.879C361.09 289.721 360.839 289.563 360.591 289.404C360.57 289.449 360.546 289.494 360.525 289.534C360.797 289.65 361.073 289.763 361.336 289.879ZM371.471 293.643C371.072 291.994 368.539 288.696 365.6 285.083C367.906 289.128 370.072 292.674 371.471 293.643ZM365.6 285.083C365.442 284.812 365.286 284.535 365.132 284.259C365.087 284.289 365.04 284.32 364.998 284.351C365.198 284.594 365.404 284.84 365.6 285.083Z" fill="url(#paint14_radial)"/>
<path opacity="0.4" d="M375.256 281.889C375.199 281.882 375.145 281.872 375.09 281.865C375.072 282.191 375.053 282.52 375.034 282.843C375.102 282.527 375.18 282.205 375.256 281.889ZM375.031 282.841C373.985 287.382 373.172 291.462 373.543 293.118C374.37 291.634 374.748 287.495 375.031 282.841ZM373.543 293.118C373.345 293.472 373.125 293.692 372.874 293.718C372.624 293.742 372.364 293.567 372.102 293.257C372.092 293.661 372.003 293.959 371.788 294.099C371.575 294.238 371.266 294.205 370.89 294.049C371.067 294.415 371.128 294.722 371.006 294.942C370.878 295.164 370.59 295.277 370.188 295.315C370.514 295.554 370.708 295.797 370.701 296.052C370.696 296.305 370.491 296.541 370.157 296.766C370.559 296.823 370.84 296.952 370.954 297.177C371.067 297.404 370.996 297.709 370.802 298.063C371.185 297.928 371.495 297.909 371.7 298.058C371.906 298.207 371.984 298.507 371.972 298.916C372.248 298.62 372.513 298.453 372.768 298.493C373.016 298.526 373.226 298.76 373.406 299.126C373.515 298.732 373.673 298.467 373.916 298.382C374.155 298.297 374.45 298.405 374.774 298.644C374.691 298.25 374.708 297.938 374.88 297.751C375.05 297.564 375.362 297.524 375.766 297.581C375.506 297.269 375.369 296.988 375.44 296.742C375.504 296.497 375.761 296.317 376.147 296.182C375.771 296.031 375.525 295.84 375.466 295.592C375.414 295.344 375.556 295.065 375.83 294.767C375.424 294.805 375.116 294.753 374.956 294.559C374.79 294.365 374.786 294.054 374.892 293.664C374.554 293.886 374.256 293.98 374.023 293.884C373.782 293.787 373.63 293.515 373.543 293.118ZM374.885 293.664C376.305 292.733 378.563 289.243 380.976 285.258C377.94 288.79 375.327 292.022 374.885 293.664ZM380.976 285.256C381.186 285.015 381.401 284.769 381.611 284.521C381.564 284.49 381.524 284.455 381.479 284.422C381.311 284.703 381.143 284.984 380.976 285.256ZM375.825 294.77C377.514 294.604 381.139 292.563 385.127 290.155C380.796 291.873 376.976 293.522 375.825 294.77ZM385.124 290.153C385.398 290.044 385.677 289.936 385.961 289.827C385.937 289.777 385.911 289.733 385.894 289.688C385.639 289.844 385.384 290.002 385.124 290.153ZM376.137 296.185C377.711 296.823 381.869 296.7 386.523 296.423C381.885 295.932 377.741 295.615 376.137 296.185ZM386.521 296.421C386.783 296.452 387.054 296.48 387.321 296.508C387.324 296.461 387.324 296.416 387.326 296.371C387.059 296.388 386.785 296.404 386.521 296.421ZM375.761 297.583C376.855 298.885 380.595 300.704 384.838 302.613C380.966 300.026 377.441 297.824 375.761 297.583ZM384.836 302.613C385.03 302.748 385.231 302.882 385.427 303.01C385.448 302.975 385.469 302.939 385.483 302.904C385.273 302.812 385.051 302.712 384.836 302.613ZM374.772 298.646C375.138 300.303 377.604 303.655 380.472 307.326C378.244 303.23 376.151 299.639 374.772 298.646ZM380.475 307.319C380.572 307.497 380.668 307.681 380.768 307.86C380.796 307.839 380.822 307.823 380.855 307.804C380.728 307.643 380.595 307.478 380.475 307.319ZM373.406 299.128C372.962 300.766 373.586 304.876 374.422 309.46C374.349 304.801 374.164 300.648 373.406 299.128ZM374.42 309.46C374.422 309.644 374.427 309.833 374.427 310.022C374.462 310.017 374.488 310.013 374.521 310.013C374.49 309.831 374.455 309.642 374.42 309.46ZM371.97 298.918C370.814 300.166 369.456 304.09 368.067 308.538C370.169 304.383 371.934 300.617 371.97 298.918ZM368.067 308.538C367.984 308.699 367.904 308.864 367.821 309.03C367.849 309.044 367.873 309.051 367.904 309.065C367.958 308.893 368.015 308.711 368.067 308.538ZM370.8 298.068C369.194 298.632 366.167 301.484 362.871 304.773C366.666 302.07 369.978 299.554 370.8 298.068ZM362.871 304.773C362.713 304.884 362.545 305.004 362.387 305.115C362.411 305.141 362.434 305.162 362.456 305.191C362.59 305.051 362.734 304.914 362.871 304.773ZM370.157 296.771C368.473 296.525 364.473 297.64 360.022 299.02C364.639 298.391 368.735 297.706 370.157 296.771ZM360.022 299.024C359.802 299.055 359.578 299.081 359.354 299.117C359.363 299.152 359.372 299.187 359.384 299.221C359.597 299.159 359.809 299.088 360.022 299.024ZM370.188 295.322C368.813 294.323 364.747 293.451 360.166 292.608C364.546 294.193 368.497 295.49 370.188 295.322ZM360.166 292.608C359.928 292.52 359.682 292.431 359.446 292.343C359.431 292.388 359.42 292.431 359.41 292.471C359.665 292.516 359.921 292.563 360.166 292.608ZM370.89 294.054C370.139 292.535 366.947 289.874 363.282 286.999C366.422 290.437 369.316 293.423 370.89 294.054ZM363.282 287.001C363.086 286.786 362.888 286.569 362.689 286.352C362.654 286.39 362.623 286.425 362.588 286.46C362.822 286.64 363.06 286.82 363.282 287.001ZM372.102 293.26C372.142 291.564 370.552 287.722 368.643 283.474C369.827 287.977 371.001 291.963 372.102 293.26ZM368.643 283.474C368.563 283.172 368.485 282.862 368.402 282.555C368.352 282.572 368.3 282.591 368.253 282.609C368.383 282.898 368.515 283.188 368.643 283.474Z" fill="url(#paint15_radial)"/>
<path d="M378.724 295.861C378.724 298.932 376.234 301.42 373.165 301.42C370.094 301.42 367.604 298.932 367.604 295.861C367.604 292.792 370.096 290.299 373.165 290.299C376.239 290.299 378.724 292.789 378.724 295.861Z" fill="#4E60A3"/>
<path opacity="0.9" d="M378.724 295.861C378.724 298.932 376.234 301.42 373.165 301.42C370.094 301.42 367.604 298.932 367.604 295.861C367.604 292.792 370.096 290.299 373.165 290.299C376.239 290.299 378.724 292.789 378.724 295.861Z" fill="black"/>
<path opacity="0.5" d="M365.41 302.353C366.468 301.64 367.911 301.928 368.62 302.986C369.334 304.047 369.053 305.488 367.987 306.199C366.924 306.915 365.485 306.632 364.776 305.569C364.063 304.508 364.346 303.064 365.41 302.353Z" fill="url(#paint16_linear)"/>
<path opacity="0.5" d="M377.555 295.086C376.962 295.969 375.265 295.868 373.763 294.859C372.255 293.85 371.518 292.312 372.109 291.431L372.111 291.429C372.702 290.545 374.401 290.647 375.903 291.658C377.411 292.664 378.148 294.2 377.555 295.086Z" fill="url(#paint17_linear)"/>
<path opacity="0.75" d="M384.306 292.726C382.962 294.788 379.496 294.911 376.566 293.002C373.639 291.093 372.352 287.876 373.696 285.813C375.038 283.753 378.504 283.63 381.433 285.537C384.36 287.448 385.646 290.668 384.306 292.726Z" fill="url(#paint18_linear)"/>
<path d="M373.902 230.068C336.007 230.068 323.988 258.634 323.988 292.742C323.988 326.85 348.479 345.692 373.281 345.439C394.234 348.621 419.816 318.655 421.727 292.905C421.729 258.799 401.071 230.068 373.902 230.068ZM376.917 309.83C368.378 310.771 344.141 306.143 343.243 303.104C341.62 297.623 353.955 286.753 371.717 284.572C389.483 282.394 402.942 286.384 401.747 291.781C398.86 304.815 385.573 308.874 376.917 309.83Z" fill="#F0C7B1"/>
<path d="M376.916 309.831C368.378 310.771 344.141 306.143 343.243 303.105C341.62 297.623 353.955 286.753 371.717 284.573C386.979 282.702 399.035 285.388 401.381 289.6C399.259 274.48 383.189 262.674 363.611 262.587C342.558 262.499 325.46 275.997 325.403 292.745C325.354 309.491 342.378 323.132 363.429 323.226C384.486 323.314 401.581 309.817 401.638 293.071C401.638 292.823 401.6 292.579 401.593 292.331C398.449 304.917 385.445 308.888 376.916 309.831Z" fill="url(#paint19_radial)"/>
<path d="M401.747 291.781C402.943 286.382 389.483 282.394 371.717 284.573C353.955 286.753 341.623 297.623 343.243 303.105C344.141 306.143 368.379 310.771 376.917 309.831C385.573 308.874 398.86 304.815 401.747 291.781Z" fill="url(#paint20_radial)"/>
<path d="M400.808 279.717C390.867 275.044 378.719 274.614 368.115 277.343C362.436 278.668 356.385 280.379 351.429 283.575C346.834 286.257 343.101 289.482 339.611 293.475C342.782 289.456 346.163 286.108 350.533 283.386C355.911 280.041 361.8 277.967 367.931 276.497C378.768 273.837 390.902 274.442 400.808 279.717Z" fill="#C27B55"/>
<path d="M399.344 281.142C397.265 280.311 389.74 278.78 386.454 278.624C382.468 278.43 374.469 278.919 370.542 279.625C362.571 281.062 348.686 285.492 342.952 296.598C341.19 300.012 342.777 302.4 343.243 302.918C342.534 297.186 354.673 286.98 371.716 284.953C389.483 282.841 402.942 286.708 401.747 291.941C398.86 304.576 385.573 308.51 376.916 309.436C367.232 310.473 349.312 305.8 346.945 305.295C351.668 307.678 364.721 310.244 370.02 310.736C371.778 310.901 375.312 310.981 377.075 310.936C391.129 310.563 401.099 303.435 404.785 293.784C407.152 287.58 404.563 283.226 399.344 281.142Z" fill="black"/>
<path d="M409.192 366.086C409.274 419.532 365.976 462.937 312.473 463.01C258.981 463.097 215.543 419.839 215.46 366.382C215.377 312.941 258.676 269.366 312.176 269.281C365.671 269.198 409.114 312.634 409.192 366.086Z" fill="url(#paint21_radial)"/>
<path d="M400.922 224.392C400.922 273.323 361.257 312.988 312.328 312.988C263.398 312.988 223.73 273.323 223.73 224.392C223.73 175.461 263.398 135.796 312.328 135.796C361.257 135.796 400.922 175.461 400.922 224.392Z" fill="url(#paint22_radial)"/>
<path d="M203.649 272.091C227.166 248.527 243.248 258.117 275.917 264.38C277.914 264.763 290.849 268.016 288.463 272.576C287.322 274.759 283.652 274.499 281.604 274.461C249.266 273.856 233.54 250.847 203.649 272.091Z" fill="#2A232B"/>
<path d="M421.003 272.091C397.489 248.527 381.404 258.117 348.735 264.38C346.736 264.763 333.804 268.016 336.188 272.576C337.329 274.759 340.998 274.499 343.046 274.461C375.385 273.856 391.112 250.847 421.003 272.091Z" fill="#2A232B"/>
<path d="M291.336 369.688C289.261 374.565 305.355 379.828 311.462 380.152C318.077 380.499 336.614 373.301 333.472 368.358C330.166 363.172 317.777 367.683 312.431 367.683C307.11 367.68 294.114 363.182 291.336 369.688Z" fill="#E1AC8F"/>
<path d="M316.714 373.371C316.171 371.578 321.147 369.629 322.992 369.369C325.593 368.991 330.93 371.264 330.453 373.13C330.018 374.779 325.378 371.871 323.696 372.117C321.962 372.37 317.229 375.051 316.714 373.371ZM300.453 372.788C302.74 372.788 306.133 374.26 306.756 372.963C307.5 371.415 301.703 369.511 299.999 369.721C298.591 369.887 293.543 372.828 294.237 374.066C294.884 375.202 297.438 372.788 300.453 372.788Z" fill="#C27B55"/>
<path opacity="0.2" d="M312.537 361.419C313.971 361.419 316.652 359.671 316.77 356.151C317.245 341.957 314.512 299.844 312.537 299.993C310.694 300.132 307.181 341.661 307.934 356.151C308.121 359.699 310.918 361.419 312.537 361.419Z" fill="#FFF5EF"/>
<path d="M437.502 329.773C426.722 300.395 439.196 255.339 418.118 222.005C408.516 206.03 400.169 195.051 401.698 176.465L400.828 176.172C398.792 179.366 396.117 182.834 394.343 185.055C395.352 182.477 396.996 178.53 398.485 175.55L397.7 175.035C391.593 182.296 386.348 186.019 379.133 188.029C386.93 182.548 395.55 173.011 399.323 167.723L398.683 167.052C371.942 184.259 341.595 184.493 314.822 184.703C290.66 184.883 275.653 184.337 258.232 174.211C245.661 178.378 235.762 177.847 224.882 170.348C190.828 236.374 205.958 203.322 185.6 325.719C173.778 309.961 170.343 299.939 167.545 284.925C166.806 280.136 166.083 272.748 166.532 267.879L166.383 267.725C155.865 244.643 150.901 231.5 153.401 185.717C155.255 166.722 159.385 152.461 171.295 137.525C169.724 129.41 169.572 121.228 170.64 113.404C164.403 102 160.11 90.2624 158.438 86.0688C167.151 92.7383 167.871 93.1234 175.141 95.4174C176.804 90.8412 179.228 86.2956 180.78 83.9236C181.482 89.211 182.04 92.7832 183.623 97.9217C184.161 98.0517 186.725 98.7463 187.544 98.966C187.074 95.838 186.644 94.3874 186.71 91.583C188.059 94.6591 189.198 95.3726 193.113 100.15C197.446 101.059 196.406 100.925 197.706 100.925C191.4 91.042 187.145 82.2958 186.065 68.9947C194.696 73.9111 206.771 76.7202 219.38 76.7202C249.004 76.7202 279.315 54.4839 321.369 54.4839C357.811 54.4839 389.342 74.7026 403.309 97.7257C403.295 91.7862 403.042 86.8721 405.185 80.7673C405.185 80.7673 405.433 89.5205 405.433 96.3412L406.369 96.4286C407.833 88.6298 410.924 81.9816 416.027 75.702C411.495 87.888 413.22 81.3815 408.15 96.2609L408.972 96.7027C412.353 92.3579 415.122 89.2866 423.192 85.2159C417.362 91.0585 412.903 94.4063 410.146 98.5384L410.857 99.1503C414.297 96.0317 417.877 94.8504 421.517 97.702C415.656 95.571 412.195 99.3062 408.174 104.022C423.811 106.599 432.295 115.622 443.291 127.683C468.598 156.865 475.263 185.355 461.537 225.743C467.289 238.177 466.403 266.202 453.563 288.79C453.558 302.044 444.491 318.397 437.502 329.773Z" fill="#5C5700"/>
<path d="M223.256 168.569C224.104 169.358 224.952 170.147 225.793 170.941C225.488 170.74 225.183 170.554 224.876 170.343C190.822 236.37 205.952 203.318 185.594 325.714C173.772 309.956 170.337 299.934 167.54 284.92C166.8 280.131 166.077 272.744 166.526 267.874L166.377 267.721C155.859 244.639 150.895 231.496 153.395 185.712C155.25 166.717 159.379 152.457 171.289 137.521C169.744 129.54 169.588 121.498 170.597 113.791C172.007 115.856 173.486 117.867 174.998 119.851C176.016 126.05 176.879 132.096 175.298 136.98C152.762 206.623 165.848 238.569 180.023 288.183C174.202 250.545 163.15 202.694 193.298 174.78C180.42 205.72 183.976 219.749 187.111 240.932C189.277 212.775 199.384 186.584 223.256 168.569ZM443.287 127.671C442.399 126.698 441.534 125.753 440.674 124.819C439.772 125.422 438.845 125.975 437.936 126.561C473.27 198.999 439.339 192.044 447.426 224.392C456.874 248.017 444.629 262.195 444.629 285.82C444.629 250.382 443.02 225.719 423.461 197.992C416.855 188.63 415 156.83 410.549 141.116C355.733 174.78 274.53 181.823 189.275 113.786C229.438 127.962 311.298 116.976 339.399 98.8645C307.367 104.679 240.497 105.026 210.427 92.6486C282.485 87.0494 281.613 63.92 343.039 59.5729C313.507 48.5469 249 76.7109 219.379 76.7109C206.772 76.7109 194.697 73.9042 186.064 68.9853C187.144 82.2865 191.399 91.035 197.705 100.915C196.403 100.915 197.445 101.05 193.112 100.14C189.195 95.3632 188.056 94.6474 186.709 91.5737C186.641 94.378 187.073 95.8286 187.543 98.9566C186.723 98.7369 184.158 98.0423 183.621 97.9124C182.039 92.7739 181.481 89.2017 180.779 83.9143C179.229 86.2863 176.803 90.8318 175.14 95.4081C167.868 93.1141 167.15 92.729 158.437 86.0595C160.109 90.253 164.402 101.993 170.639 113.394C170.623 113.524 170.618 113.656 170.601 113.786C185.497 135.605 206.439 152.7 225.798 170.941C236.32 177.849 246.016 178.256 258.233 174.206C275.655 184.332 290.664 184.878 314.823 184.698C341.596 184.49 371.943 184.254 398.684 167.048L399.325 167.719C395.552 173.006 386.931 182.544 379.134 188.025C386.352 186.012 391.594 182.289 397.702 175.031L398.486 175.546C396.998 178.527 395.353 182.473 394.344 185.05C396.119 182.83 398.793 179.361 400.83 176.167L401.699 176.46C400.173 195.049 408.517 206.025 418.119 222.001C439.198 255.334 426.726 300.392 437.504 329.768C444.492 318.393 453.559 302.042 453.559 288.773C466.4 266.185 467.286 238.161 461.533 225.726C475.259 185.343 468.595 156.853 443.287 127.671ZM445.019 188.268C444.239 165.767 429.348 137.209 429.348 137.209C422.388 124.914 416.167 119.048 405.732 116.666C435.089 118.129 446.618 161.978 445.35 184.885C445.229 187.011 445.019 188.268 445.019 188.268ZM378.258 93.2558C386.014 99.5473 387.866 101.343 395.495 111.941C356.151 41.3269 278.943 94.7655 254.529 93.0408C279.347 98.1699 335.463 61.8741 378.258 93.2558ZM398.25 123.95C351.091 163.046 279.083 146.484 220.187 128.025C278.842 154.89 353.517 169.427 398.25 123.95ZM212.789 166.476C197.341 174.568 190.071 194.945 189.4 208.411C192.285 196.79 200.941 175.468 212.789 166.476ZM193.298 155.254C171.187 168.718 166.899 199.601 169.082 225.54C171.407 201.579 175.726 170.315 193.298 155.254ZM352.641 125.97C350.264 126.478 335.491 128.503 327.428 128.793C321.141 129.16 296.627 129.568 274.528 128.68C297.338 133.568 311.039 134.478 327.676 133.511C346.826 132.819 363.964 129.027 378.166 117.455C368.16 122.963 363.896 123.747 352.641 125.97ZM431.892 188.684C431.892 188.684 431.288 187.642 430.503 186.08C428.351 182.473 425.908 172.659 416.474 141.816C423.482 198.978 434.943 188.552 440.079 218.086C440.081 207.464 439.339 202.018 431.892 188.684Z" fill="#4D4900"/>
<path d="M449.007 257.779C449.867 250.11 449.519 253.626 449.614 249.25C450.337 234.499 441.52 222.131 446.888 204.393C451.268 191.51 453.798 189.49 451.88 167.062C451.598 163.825 450.76 155.783 449.276 152.891C451.298 156.409 452.636 162.92 453.352 166.911C457.337 189.457 453.985 192.88 449.758 205.342C444.112 224.172 454.949 232.479 449.007 257.779ZM410.549 141.116C413.188 212.867 427.739 196.202 440.594 239.758C431.866 188.382 423.794 230.976 410.549 141.116ZM190.345 177.698C168.633 205.016 170.826 224.711 176.17 265.113C175.688 224.217 170.703 208.695 190.345 177.698ZM174.759 138.666C162.299 177.221 159.571 194.621 165.553 236.204C164.445 194.515 164.709 185.313 174.759 138.666ZM222.436 169.207C199.684 185.554 187.808 215.456 187.111 240.932C190.612 216.586 203.677 185.877 222.436 169.207ZM380.498 154.921C352.026 165.403 305.683 168.21 271.849 158.044C245.48 150.354 204.308 124.512 182.161 108.263C202.238 124.245 237.613 147.97 262.313 157.347C287.978 166.937 328.198 170.5 359.369 162.651C381.218 157.161 392.542 151.972 410.549 141.119C402.533 145.513 390.725 151.727 380.498 154.921ZM318.972 69.4249C347.717 64.0264 381.601 82.5559 399.433 104.461C380.776 77.7221 350.205 64.4186 331.954 64.102C301.999 63.5823 271.012 89.2467 210.427 91.4651C267.395 93.9741 294.779 73.342 318.972 69.4249ZM341.549 99.734C300.702 114.247 269.16 117.72 226.239 120.005C270.568 122.733 302.259 118.434 341.549 99.734ZM384.469 108.01C359.279 119.887 348.251 121.833 296.258 124.999C328.855 126.315 359.305 124.621 384.469 108.01ZM301.099 144.122C326.246 147.044 370.296 143.874 392.343 120.997C365.717 143.427 316.461 142.624 278.043 141.098C292.748 143.392 290.095 143.009 301.099 144.122ZM408.881 122.178C426.905 128.815 431.299 160.435 438.413 185.967C435.231 163.336 429.795 127.088 408.881 122.178Z" fill="#6B660B"/>
<path d="M443.635 127.352C433.362 116.085 424.139 106.16 409.071 103.679C414.018 97.8602 417.495 95.6961 423.837 99.3085C420.08 94.8882 415.764 94.0494 410.535 98.7887C413.538 94.2881 418.729 90.6143 425.419 83.5975C415.423 88.2872 412.418 91.4884 408.598 96.4025C413.996 80.5664 411.669 89.0125 417.387 73.3677C411.412 80.0679 407.592 87.354 405.907 96.3317C405.907 82.3855 405.47 84.1882 405.742 78.0928C402.465 85.3907 402.838 91.8192 402.838 96.0245C397.563 87.3256 389.811 79.9592 381.455 73.9347C322.263 30.726 263.235 70.4948 231.244 75.305C218.276 77.4951 198.844 76.1035 185.528 68.1228C186.469 81.7406 190.686 90.7844 196.845 100.443C196.843 100.443 193.372 99.7101 193.372 99.7101C188.602 93.9597 188.141 94.144 186.379 89.4803C185.928 93.6455 186.618 95.9537 186.97 98.3162C185.793 98.0091 184.709 97.6831 183.993 97.5129C182.237 91.8097 181.729 87.4721 181.087 82.6525C179.636 84.5071 176.546 90.1654 174.85 94.8196C167.764 92.5799 167.256 92.2232 157.296 84.5898C158.477 86.9523 162.751 99.8542 170.148 113.484C169.038 121.833 169.373 130.163 170.786 137.393C158.914 152.305 154.792 166.561 152.925 185.683C150.466 230.711 154.973 243.828 165.99 267.947C166.014 267.971 166.014 268.018 166.037 268.042C165.619 272.698 166.318 280.096 167.077 285.005C169.862 299.965 173.279 310.268 185.765 326.704C185.812 326.751 185.835 326.822 185.883 326.869C193.904 278.749 193.077 277.57 194.79 265.703C203.229 204.957 202.862 214.029 225.054 171.036C234.062 177.244 244.037 179.427 258.177 174.721C268.435 180.684 278.911 185.234 307.932 185.234C336.687 184.875 369.774 186.208 398.938 167.444C394.52 173.639 384.483 184.346 376.588 189.133C384.807 187.394 390.704 184.084 398.063 175.335C395.802 179.86 393.142 186.709 392.937 187.526C393.291 187.101 398.016 181.454 401.229 176.422C399.687 195.193 408.066 206.183 417.72 222.256C438.879 255.716 426.015 301.451 437.4 330.838C444.7 319.035 454.032 302.285 454.032 288.903C466.341 267.437 468.104 239.027 462.041 225.705C474.367 188.776 471.877 159.915 443.635 127.352ZM186.613 90.9923C187.766 94.2739 188.018 94.203 192.496 99.5211C190.275 99.0604 188.798 98.7368 187.463 98.4343C186.946 95.9395 186.613 93.5675 186.613 90.9923ZM180.683 84.7079C180.905 88.3274 181.767 93.0761 183.022 97.2531C176.253 95.5119 178.769 96.0623 176.407 95.363C178.351 89.5181 179.083 88.0391 180.683 84.7079ZM184.746 321.483C174.786 303.516 172.17 297.406 169.413 279.217C169.144 277.124 168.298 271.075 168.256 268.184C153.915 235.391 148.524 173.124 171.114 138.858C171.114 138.834 171.114 138.834 171.114 138.834C171.114 138.834 172.057 137.36 173.76 135.243C173.13 132.068 172.506 125.367 172.721 118.044C174.469 121.162 176.454 123.997 178.226 126.714C178.226 126.707 179.62 128.559 179.62 128.604C190.372 142.283 200.301 153.657 224.319 170.539C195.484 217.256 197.273 201.477 184.746 321.483ZM462.677 210.705C461.836 216.276 460.024 223.895 459.041 227.219C465.609 243.918 458.434 275.456 451.809 289.543C448.913 306.301 445.796 309.675 437.61 326.376C431.758 300.388 443.713 254.273 421.639 219.872C407.325 196.142 401.187 193.033 404.558 163.714C404.558 163.714 404.702 162.119 404.747 161.706C374.913 179.947 341.96 182.01 298.503 181.079C285.942 181.079 268.971 179.501 258.387 172.952C236.933 179.054 228.973 169.557 211.112 155.61C191.827 139.221 178.724 124.911 162.562 91.1837C171.641 98.5501 189.819 102.262 201.284 104.178C193.552 93.8699 189.001 84.4528 186.944 71.102C195.165 76.5831 214.869 81.9768 232.234 80.0561C264.208 77.0533 308.979 44.2233 363.993 69.1174C389.518 80.3797 402.47 96.2301 405.503 104.556C405.527 104.556 405.55 104.579 405.598 104.579C405.739 104.627 405.881 104.65 406.044 104.674C406.084 104.716 406.829 104.886 406.895 104.886C423.376 110.379 424.479 111.405 440.443 130.024C449.416 141.031 471.014 163.005 462.677 210.705Z" fill="#2E2C00"/>
</g>
<defs>
<linearGradient id="paint0_linear" x1="300" y1="-75" x2="300" y2="675" gradientUnits="userSpaceOnUse">
<stop stop-color="#151371"/>
<stop offset="0.453125" stop-color="#FF00B8"/>
<stop offset="0.96875" stop-color="#FFC700"/>
</linearGradient>
<linearGradient id="paint1_linear" x1="439" y1="245" x2="439" y2="644" gradientUnits="userSpaceOnUse">
<stop stop-color="#FF00B8"/>
<stop offset="1" stop-color="#F0DB0A" stop-opacity="0"/>
</linearGradient>
<linearGradient id="paint2_linear" x1="194" y1="161" x2="194" y2="560" gradientUnits="userSpaceOnUse">
<stop stop-color="#FF00B8"/>
<stop offset="1" stop-color="#F0DB0A" stop-opacity="0"/>
</linearGradient>
<linearGradient id="paint3_linear" x1="312.327" y1="500.812" x2="312.327" y2="406.31" gradientUnits="userSpaceOnUse">
<stop stop-color="#E1AC8F" stop-opacity="0.8"/>
<stop offset="0.7" stop-color="#C27B55"/>
</linearGradient>
<linearGradient id="paint4_linear" x1="312.326" y1="432.298" x2="312.326" y2="425.21" gradientUnits="userSpaceOnUse">
<stop offset="0.1" stop-color="#E8B9A0"/>
<stop offset="1" stop-color="#E1AC8F"/>
</linearGradient>
<radialGradient id="paint5_radial" cx="0" cy="0" r="1" gradientUnits="userSpaceOnUse" gradientTransform="translate(249.115 296.371) rotate(174.019) scale(35.7127)">
<stop stop-color="white"/>
<stop offset="0.315" stop-color="#FCFDFD"/>
<stop offset="0.504" stop-color="#F4F7F8"/>
<stop offset="0.66" stop-color="#E5ECEF"/>
<stop offset="0.76" stop-color="#D8E2E7"/>
</radialGradient>
<radialGradient id="paint6_radial" cx="0" cy="0" r="1" gradientUnits="userSpaceOnUse" gradientTransform="translate(251.314 295.908) rotate(-14.4847) scale(13.9967 13.9998)">
<stop stop-color="white"/>
<stop offset="1" stop-color="white" stop-opacity="0"/>
</radialGradient>
<radialGradient id="paint7_radial" cx="0" cy="0" r="1" gradientUnits="userSpaceOnUse" gradientTransform="translate(251.314 295.923) rotate(0.512025) scale(13.9886 13.9889)">
<stop stop-color="white"/>
<stop offset="1" stop-color="white" stop-opacity="0"/>
</radialGradient>
<linearGradient id="paint8_linear" x1="243.624" y1="305.944" x2="245.835" y2="303.307" gradientUnits="userSpaceOnUse">
<stop stop-color="white"/>
<stop offset="1" stop-color="white" stop-opacity="0"/>
</linearGradient>
<linearGradient id="paint9_linear" x1="254.354" y1="291.834" x2="252.585" y2="293.944" gradientUnits="userSpaceOnUse">
<stop stop-color="white"/>
<stop offset="1" stop-color="white" stop-opacity="0"/>
</linearGradient>
<linearGradient id="paint10_linear" x1="260.081" y1="285.99" x2="256.003" y2="290.85" gradientUnits="userSpaceOnUse">
<stop stop-color="white"/>
<stop offset="1" stop-color="white" stop-opacity="0"/>
</linearGradient>
<radialGradient id="paint11_radial" cx="0" cy="0" r="1" gradientUnits="userSpaceOnUse" gradientTransform="translate(260.378 291.718) rotate(1.19182) scale(37.8085 30.2453)">
<stop stop-color="#E1AC8F"/>
<stop offset="0.7" stop-color="#E1AC8F" stop-opacity="0.3"/>
<stop offset="1" stop-color="#F0C7B1" stop-opacity="0"/>
</radialGradient>
<radialGradient id="paint12_radial" cx="0" cy="0" r="1" gradientUnits="userSpaceOnUse" gradientTransform="translate(240.429 358.75) scale(72.0956)">
<stop offset="0.95" stop-opacity="0"/>
<stop offset="1" stop-opacity="0.2"/>
</radialGradient>
<radialGradient id="paint13_radial" cx="0" cy="0" r="1" gradientUnits="userSpaceOnUse" gradientTransform="translate(374.599 296.37) rotate(5.98141) scale(35.7103)">
<stop stop-color="white"/>
<stop offset="0.316" stop-color="#FCFDFD"/>
<stop offset="0.505" stop-color="#F4F7F8"/>
<stop offset="0.661" stop-color="#E5ECEF"/>
<stop offset="0.76" stop-color="#D8E2E7"/>
</radialGradient>
<radialGradient id="paint14_radial" cx="0" cy="0" r="1" gradientUnits="userSpaceOnUse" gradientTransform="translate(372.983 295.908) rotate(-14.4847) scale(13.997 14)">
<stop stop-color="white"/>
<stop offset="1" stop-color="white" stop-opacity="0"/>
</radialGradient>
<radialGradient id="paint15_radial" cx="0" cy="0" r="1" gradientUnits="userSpaceOnUse" gradientTransform="translate(372.985 295.923) rotate(0.512025) scale(13.989 13.9893)">
<stop stop-color="white"/>
<stop offset="1" stop-color="white" stop-opacity="0"/>
</radialGradient>
<linearGradient id="paint16_linear" x1="365.296" y1="305.944" x2="367.507" y2="303.308" gradientUnits="userSpaceOnUse">
<stop stop-color="white"/>
<stop offset="1" stop-color="white" stop-opacity="0"/>
</linearGradient>
<linearGradient id="paint17_linear" x1="376.026" y1="291.835" x2="374.257" y2="293.945" gradientUnits="userSpaceOnUse">
<stop stop-color="white"/>
<stop offset="1" stop-color="white" stop-opacity="0"/>
</linearGradient>
<linearGradient id="paint18_linear" x1="381.752" y1="285.99" x2="377.674" y2="290.85" gradientUnits="userSpaceOnUse">
<stop stop-color="white"/>
<stop offset="1" stop-color="white" stop-opacity="0"/>
</linearGradient>
<radialGradient id="paint19_radial" cx="0" cy="0" r="1" gradientUnits="userSpaceOnUse" gradientTransform="translate(363.331 291.718) rotate(178.808) scale(37.8085 30.2453)">
<stop stop-color="#E1AC8F"/>
<stop offset="0.7" stop-color="#E1AC8F" stop-opacity="0.3"/>
<stop offset="1" stop-color="#F0C7B1" stop-opacity="0"/>
</radialGradient>
<radialGradient id="paint20_radial" cx="0" cy="0" r="1" gradientUnits="userSpaceOnUse" gradientTransform="translate(383.285 358.75) rotate(180) scale(72.0956)">
<stop offset="0.95" stop-opacity="0"/>
<stop offset="1" stop-opacity="0.2"/>
</radialGradient>
<radialGradient id="paint21_radial" cx="0" cy="0" r="1" gradientUnits="userSpaceOnUse" gradientTransform="translate(312.327 366.148) scale(96.8646)">
<stop stop-color="#FFE4D6" stop-opacity="0.5"/>
<stop offset="0.9" stop-color="#F0C7B1" stop-opacity="0"/>
</radialGradient>
<radialGradient id="paint22_radial" cx="0" cy="0" r="1" gradientUnits="userSpaceOnUse" gradientTransform="translate(312.326 224.394) scale(87.4144)">
<stop stop-color="#FFE4D6" stop-opacity="0.5"/>
<stop offset="0.9" stop-color="#F0C7B1" stop-opacity="0"/>
</radialGradient>
<clipPath id="clip0">
<rect width="600" height="600" fill="white"/>
</clipPath>
</defs>
</svg>
