<svg width="600" height="600" viewBox="0 0 600 600" fill="none" xmlns="http://www.w3.org/2000/svg">
<g clip-path="url(#clip0)">
<path d="M675 675H-75V-75H675V675Z" fill="url(#paint0_linear)"/>
<path d="M360.996 403.874H308.184V356.576H360.996V403.874ZM414.113 320.069H340.054V380.225H414.113V320.069ZM377.082 441.95H442.881V362.639H377.082V441.95ZM400.757 434.192H334.59V491.191H400.757V434.192ZM580.44 284.416H490.23V387.501H580.44V284.416ZM478.458 331.108H456.605V356.576H478.458V331.108ZM544.531 252.277H456.605V304.426H544.531V252.277ZM442.881 270.468H395.532V335.958H442.881V270.468ZM334.59 275.32H308.184V303.213H334.59V275.32ZM299.325 320.069H258.501V382.71H299.325V320.069V320.069ZM347.338 441.95H275.708V521.511H347.338V441.95ZM308.184 576.086H388.617V528.788H308.184V576.086ZM500.311 557.894H443.791V599.129H500.313V557.894H500.311ZM637.361 516.659H585.062V578.511H637.361V516.659ZM551.302 544.718H506.381V585.953H551.302V544.718ZM594.357 463.296H528.843V537.278H594.357V463.296ZM610.791 590.639H528.843V644H610.791V590.639ZM340.054 557.894H251.187V637.937H340.052V557.894H340.054ZM630.216 356.576H569.818V403.874H630.216V356.576ZM594.357 424.49H568.208V451.477H594.357V424.49ZM251.187 474.697H300.975V404.294H251.187V474.697ZM321.764 249.852L232 252.277V320.069H321.764V249.852ZM646 252.277H587.725V326.256H646V252.277ZM371.858 245H347.338V298.361H371.858V245ZM641.143 437.983H581.281V486.494H641.143V437.983Z" fill="url(#paint1_linear)" stroke="#FFC700" stroke-width="1.5"/>
<path d="M115.996 319.874H63.1843V272.576H115.996V319.874ZM169.113 236.069H95.0537V296.225H169.113V236.069ZM132.082 357.95H197.881V278.639H132.082V357.95ZM155.757 350.192H89.5904V407.191H155.757V350.192ZM335.44 200.416H245.23V303.501H335.44V200.416ZM233.458 247.108H211.605V272.576H233.458V247.108ZM299.531 168.277H211.605V220.426H299.531V168.277ZM197.881 186.468H150.532V251.958H197.881V186.468ZM89.5904 191.32H63.1843V219.213H89.5904V191.32ZM54.3246 236.069H13.5008V298.71H54.3246V236.069V236.069ZM102.338 357.95H30.7084V437.511H102.338V357.95ZM63.1843 492.086H143.617V444.788H63.1843V492.086ZM255.311 473.894H198.791V515.129H255.313V473.894H255.311ZM392.361 432.659H340.062V494.511H392.361V432.659ZM306.302 460.718H261.381V501.953H306.302V460.718ZM349.357 379.296H283.843V453.278H349.357V379.296ZM365.791 506.639H283.843V560H365.791V506.639ZM95.0537 473.894H6.18721V553.937H95.0519V473.894H95.0537ZM385.216 272.576H324.818V319.874H385.216V272.576ZM349.357 340.49H323.208V367.477H349.357V340.49ZM6.18721 390.697H55.9745V320.294H6.18721V390.697ZM76.7643 165.852L-13 168.277V236.069H76.7643V165.852ZM401 168.277H342.725V242.256H401V168.277ZM126.858 161H102.338V214.361H126.858V161ZM396.143 353.983H336.281V402.494H396.143V353.983Z" fill="url(#paint2_linear)" stroke="#FFC700" stroke-width="1.5"/>
<rect x="504" y="328.705" width="8.86149" height="25.1423" fill="white"/>
<rect x="521.754" y="328.858" width="8.83104" height="25.1423" fill="white"/>
<rect x="512.861" y="320" width="8.89195" height="8.85765" fill="white"/>
<rect x="539.415" y="328.858" width="8.89195" height="25.1423" fill="white"/>
<rect x="530.585" y="320" width="8.83105" height="8.85765" fill="white"/>
<rect x="548.308" y="320" width="8.86149" height="8.85765" fill="white"/>
<rect x="557.169" y="327.792" width="8.83104" height="8.85766" fill="white"/>
<rect x="548.308" y="336.65" width="8.86149" height="8.82721" fill="white"/>
<rect x="40" y="390.425" width="7.57515" height="21.4449" fill="white"/>
<rect x="55.1768" y="390.555" width="7.54912" height="21.4449" fill="white"/>
<rect x="47.5752" y="383" width="7.60118" height="7.55506" fill="white"/>
<rect x="70.2744" y="390.555" width="7.60118" height="21.4449" fill="white"/>
<rect x="62.7256" y="383" width="7.54912" height="7.55506" fill="white"/>
<rect x="77.876" y="383" width="7.57515" height="7.55506" fill="white"/>
<rect x="85.4512" y="389.646" width="7.54912" height="7.55506" fill="white"/>
<rect x="77.876" y="397.201" width="7.57515" height="7.52909" fill="white"/>
<path d="M176.372 599.323C176.3 599.228 176.235 599.119 176.165 599.019C184.582 595.937 410.895 615.105 426.214 612.764C426.212 612.998 426.199 613.235 426.199 613.47C426.812 613.331 426.72 613.307 426.751 612.69C427.314 612.62 429.035 612.327 426.809 611.696C434.385 473.735 521.485 495.764 471.434 369.665C459.592 340.241 460.474 312.582 457.616 278.113C453.616 282.019 454.925 302.255 450.031 339.684C487.155 456.036 455.279 451.08 425.027 506.785C415.019 525.19 406.996 543.945 405.265 564.715C355.98 479.487 370.377 481.4 390.09 429.773C386.699 434.558 372.922 444.807 360.29 447.218C391.182 423.748 409.598 423.674 410.243 280.474C381.917 267.366 356.147 243 340.249 215.696C319.65 258.41 283.12 276.289 236.452 283.387C224.823 289.299 212.715 294.255 200.477 298.777C199.442 358.944 215.156 400.028 246.69 443.635C235.624 435.712 224.314 422.661 216.345 411.555C225.909 430.708 240.134 446.561 236.256 480.826C231.97 518.46 195.762 544.093 195.762 592.496C160.408 537.309 148.478 560.687 156.68 500.52C143.253 477.031 136.725 461.084 131.291 444.048C129.975 444.037 127.86 444.348 126.654 444.492C111.277 502.437 133.301 545.484 176.372 599.323Z" fill="#31241F"/>
<path d="M396.377 626.671H200.739V342.765H396.377V626.671Z" fill="#211612"/>
<path d="M426.811 611.696C434.386 473.735 521.486 495.764 471.436 369.665C462.052 346.349 460.658 324.133 459.063 298.768C458.6 298.768 458.134 298.768 457.669 298.768C458.413 323.514 458.843 345.53 466.11 366.732C511.641 500.2 427.706 472.918 426.237 611.572C416.622 610.264 184.703 595.826 176.165 599.019C145.6 554.094 123.019 510.263 127.727 461.264C126.275 459.973 125.058 458.445 123.903 456.856C114.587 508.726 136.418 549.384 176.371 599.326C176.299 599.23 176.234 599.121 176.165 599.021C184.581 595.939 410.895 615.107 426.213 612.766C426.211 613.001 426.198 613.237 426.198 613.472C426.811 613.333 426.719 613.309 426.75 612.692C427.315 612.62 429.037 612.327 426.811 611.696Z" fill="#120B08"/>
<path d="M501.518 565.848C488.458 543.767 472.229 539.821 458.852 535.554C445.107 531.172 416.799 528.646 401.359 525.555C386.447 522.571 351.03 512.971 350.625 496.236C350.208 478.702 359.953 409.09 359.953 409.09H247.509C247.509 409.09 257.263 478.7 256.843 496.236C256.444 512.971 221.02 522.571 206.106 525.555C190.664 528.646 162.359 531.172 148.615 535.554C135.233 539.821 119 543.765 105.94 565.848C98.0186 579.238 92.8799 600.917 92.8799 624.828H514.587C514.585 600.917 509.455 579.238 501.518 565.848Z" fill="#E2B3A0"/>
<path d="M350.626 496.238C356.049 519.995 390.112 526.014 407.78 529.55C455.405 539.069 481.192 540.71 499.723 572.023C506.034 582.709 511.59 606.508 512.683 624.526C516.672 625.158 513.837 586.633 501.519 565.848C480.342 530.042 438.287 532.948 401.359 525.557C386.447 522.573 351.03 512.973 350.626 496.238ZM257.407 496.238C257.003 512.973 221.586 522.573 206.674 525.557C169.746 532.948 127.691 530.042 106.514 565.848C94.1954 586.635 91.3608 625.158 95.3496 624.526C96.443 606.508 101.999 582.709 108.31 572.023C126.839 540.71 152.628 539.069 200.252 529.55C217.921 526.014 251.983 519.992 257.407 496.238Z" fill="#F1D0C3"/>
<path d="M197.95 543.343C197.95 543.343 260.208 543.993 270.712 547.44C275.742 549.088 288.911 559.685 288.911 559.685C288.911 559.685 274.66 552.794 270.09 551.516C259.476 548.551 197.95 543.343 197.95 543.343ZM303.57 566.137C308.033 566.048 320.715 557.879 320.715 557.879C320.715 557.879 308.598 562.354 304.755 562.574C301.514 562.761 290.917 559.883 290.917 559.883C290.917 559.883 299.912 566.208 303.57 566.137ZM340.987 550.394C355.66 546.443 405.734 543.373 405.734 543.373C405.734 543.373 354.019 542.252 339.413 547.123C334.518 548.758 322.975 558.34 322.975 558.34C322.975 558.34 336.157 551.692 340.987 550.394Z" fill="#D39880"/>
<path d="M501.518 565.848C480.344 530.044 438.214 532.933 401.359 525.558C386.447 522.573 351.03 512.974 350.625 496.238C350.208 478.705 359.953 409.093 359.953 409.093H247.509C247.509 409.093 257.263 478.703 256.843 496.238C256.444 512.974 221.02 522.573 206.106 525.558C190.664 528.649 162.359 531.175 148.615 535.557C135.233 539.824 119 543.767 105.94 565.85C98.0186 579.241 92.8799 600.919 92.8799 624.831H514.587C514.585 600.917 509.455 579.238 501.518 565.848Z" stroke="#B46849" stroke-width="3.825"/>
<path d="M283.298 500.424C293.024 504.002 315.022 504.002 324.745 500.424C332.377 497.618 341.003 491.688 349.719 484.156C351.426 461.284 356.847 421.256 358.238 411.166C355.819 410.929 353.334 410.709 350.787 410.507H257.518C254.681 410.731 251.914 410.977 249.233 411.244C250.631 421.38 255.963 460.73 257.709 483.623C266.636 491.41 275.486 497.551 283.298 500.424Z" fill="url(#paint3_linear)"/>
<path d="M89.2715 624.419C89.0758 622.037 89.4649 611.064 89.6388 607.703C92.4756 555.101 110.079 543.967 181.999 522.675C216.757 512.389 226.459 509.048 238.83 482.767C242.338 475.311 245.37 468.87 251.896 466.586C285.13 484.908 313.787 484.323 354.966 469.07C362.609 470.138 364.959 479.891 366.735 486.932C378.156 530.442 448.481 520.619 480.087 538.565C512.891 554.738 514.385 608.842 514.065 625.039C514.072 625.084 514.076 625.124 514.078 625.161C471.405 626.967 142.463 627.843 89.2715 624.419Z" fill="#CE0000"/>
<path d="M470.929 602.495C472.77 580.179 473.322 562.689 479.965 541.999C470.344 574.069 483.174 599.286 464.171 616.826C466.556 611.094 470.342 609.61 470.929 602.495ZM138.811 572.66C135.316 564.1 130.829 556.564 129.151 543.089C128.542 543.38 128.294 541.728 127.703 542.019C130.118 566.141 137.998 576.175 140.398 611.207C140.02 598.652 142.146 580.829 138.811 572.66ZM350.662 471.09C349.399 471.403 348.132 472.785 346.858 473.044C364.642 489.29 352.973 495.425 378.967 523.957C379.69 523.594 382.042 522.292 384.875 520.647C367.748 510.95 363.898 486.878 350.662 471.09ZM360.533 522.664C361.505 525.581 362.927 528.059 364.574 530.496C363.581 530.874 362.6 531.283 361.596 531.631C356.46 524.951 351.527 518.297 348.252 504.483C344.865 490.221 346.33 492.345 335.339 476.763C336.033 476.665 337.413 475.87 338.487 475.696C348.888 490.108 353.16 506.074 360.533 522.664ZM377.312 524.849C376.267 525.392 375.206 525.909 374.145 526.425C359.549 511.206 353.79 492.375 344.078 474.713C344.745 474.585 346.05 472.935 346.66 472.809C355.277 481.971 355.24 486.515 357.857 494.679C361.268 504.9 370.539 518.075 377.312 524.849ZM328.388 479.243C336.194 499.37 341.302 515.262 342.724 536.604C341.704 536.789 340.687 536.974 339.665 537.13C338.252 525.979 336.424 514.389 335.885 511.721C333.729 501.037 329.84 486.762 326.318 479.506C327.01 479.435 327.697 479.326 328.388 479.243ZM359.705 532.285C358.499 532.687 357.281 533.05 356.062 533.413C343.261 517.501 343.495 496.692 333.431 476.437C333.827 476.383 334.442 476.348 334.835 476.289C346.008 495.225 342.443 489.762 347.508 508.961C350.162 518.997 355.644 528.02 359.705 532.285ZM337.728 537.413C336.926 537.528 336.107 537.606 335.294 537.702C332.383 516.38 331.214 499.57 323.475 479.769C324.016 479.722 324.56 479.689 325.099 479.635C332.105 496.846 334.95 521.255 337.728 537.413ZM284.628 479.98C277.527 499.49 276.018 514.73 274.659 535.307C273.857 535.17 273.046 535.039 272.257 534.891C272.868 517.377 275.318 495.627 282.909 479.83C283.48 479.889 284.054 479.928 284.628 479.98ZM250.518 528.955C249.607 528.624 248.687 528.309 247.779 527.959C258.769 514.423 263.808 492.068 265.147 474.657C265.869 474.833 266.588 474.983 267.31 475.148C267.829 495.692 260.354 511.428 250.518 528.955ZM281.798 479.722C273.096 495.257 270.279 516.836 270.647 534.565C269.953 534.428 269.303 534.267 268.625 534.124C267.892 513.341 270.486 497.059 279.726 479.224C280.422 479.311 281.094 479.65 281.798 479.722ZM230.467 520.512C229.321 519.956 228.176 519.403 227.041 518.829C233.143 514.762 239.329 508.589 243.475 501.505C247.205 495.136 255.672 476.228 257.408 470.116C257.993 470.342 258.589 470.527 259.182 470.729C254.698 490.34 245.127 508.219 230.467 520.512ZM246.431 527.457C245.216 526.99 244.027 526.466 242.82 525.975C253.131 509.332 257.795 490.732 259.893 470.942C261.228 471.383 262.567 473.981 263.908 474.333C260.823 493.334 257.569 511.493 246.431 527.457ZM256.691 469.853C255.278 473.809 253.344 477.57 251.365 481.398C246.655 490.916 241.921 506.607 225.65 518.09C224.472 517.49 223.302 516.864 222.133 516.234C237.112 503.848 244.912 485.517 252.9 468.612C254.124 469.072 255.389 469.333 256.691 469.853Z" fill="#BF0000"/>
<path d="M217.44 516.469L213.249 513.665C176.71 527.874 121.68 532.957 100.214 568.28C92.1296 581.581 89.5342 600.917 89.5342 624.828C93.9404 612.905 91.1841 593.441 103.959 574.197C128.814 536.752 173.093 540.75 217.44 516.469ZM499.725 574.197C510.739 594.5 509.741 612.905 514.15 624.828C514.15 600.917 509.191 582.757 503.47 568.28C487.204 527.125 431.321 531.781 394.783 517.571L390.592 520.375C434.938 544.656 474.009 526.798 499.725 574.197Z" fill="#DD1616"/>
<path d="M480.196 538.371C448.685 520.484 378.291 530.103 366.944 486.875C365.524 481.35 363.244 470.003 354.923 468.855C354.514 468.935 353.269 468.575 353.271 468.575C320.499 481.356 286.222 485.16 251.822 466.377C236.365 471.796 240.586 499.518 211.369 512.504C198.63 518.273 181.806 522.057 157.894 529.85C101.851 548.132 91.6756 565.893 89.4214 607.692C89.2627 610.757 88.828 622.602 89.0736 624.626C148.023 628.467 483.448 626.73 514.28 625.365C514.302 625.256 514.302 625.147 514.28 625.041C514.906 593.685 507.966 552.062 480.196 538.371ZM355.749 470.111C371.406 475.355 353.943 499.359 390.181 517.48C385.397 520.423 380.119 523.381 378.967 523.957C352.973 495.425 364.961 491.258 348.158 473.694C351.271 472.29 352.836 471.024 355.749 470.111ZM347.31 473.892C355.927 483.054 355.24 486.515 357.86 494.679C361.268 504.902 370.539 518.077 377.313 524.851C372.248 527.483 366.987 529.766 361.599 531.633C356.462 524.953 352.017 518.234 348.471 504.485C345.345 492.371 346.437 491.403 335.992 476.983C338.163 476.674 343.885 474.594 347.31 473.892ZM335.053 477.152C346.226 496.088 342.443 489.76 347.508 508.959C350.16 518.997 355.642 528.02 359.703 532.283C353.16 534.457 346.443 536.087 339.661 537.128C338.248 525.977 336.587 514.395 336.096 511.719C333.922 499.864 329.834 486.76 326.312 479.504C329.099 479.224 332.294 477.567 335.053 477.152ZM325.099 479.635C332.105 496.846 334.951 521.253 337.729 537.413C331.333 538.321 324.549 538.652 318.211 538.652C318.208 538.598 314.087 504.287 312.47 481.782C316.878 481.13 321.512 480.628 325.099 479.635ZM311.383 481.826C311.491 507.209 313.461 513.806 316.622 538.674C309.037 538.695 301.47 538.35 293.886 537.695C299.027 495.068 301.603 481.978 301.603 481.978C305.607 481.978 309.239 481.897 311.383 481.826ZM300.253 481.978C294.219 515.345 293.184 523.418 292.471 537.565C285.539 536.982 278.722 536.113 272.255 534.891C272.866 517.377 275.316 495.627 282.907 479.83C288.667 480.417 294.471 481.956 300.253 481.978ZM281.798 479.722C273.097 495.257 270.279 516.836 270.647 534.565C262.228 532.889 254.991 530.744 247.779 527.957C258.769 514.421 263.808 492.066 265.147 474.655C270.632 475.994 276.431 478.533 281.798 479.722ZM263.908 474.333C260.824 493.334 257.569 511.495 246.431 527.457C239.823 524.914 233.345 522.023 227.041 518.827C233.143 514.76 239.33 508.587 243.475 501.503C247.205 495.133 255.454 476.659 257.191 470.546C259.322 471.372 261.734 473.766 263.908 474.333ZM251.387 467.894C253.061 468.918 254.626 469.548 256.474 470.288C255.061 474.244 253.344 477.572 251.366 481.398C246.655 490.916 241.921 506.606 225.65 518.09C222.629 516.547 219.629 514.917 216.694 513.199C241.864 499.631 237.612 474.142 251.387 467.894ZM90.03 624.08C90.3257 615.394 91.9582 588.602 97.8338 575.366C103.768 562 115.224 552.781 128.005 545.977C127.132 566.456 137.1 568.995 137.787 593.474C137.983 600.886 139.005 608.168 140.244 615.472C139.678 607.799 139.439 600.191 139.483 592.496C139.609 570.221 129.527 566.365 129.527 545.154C145.678 536.932 164.235 531.642 182.588 526.109C193.327 522.894 204.195 519.525 214.238 514.46C242.897 533.354 269.558 543.325 317.165 543.043C351.669 543.043 371.767 534.122 393.029 518.895C421.611 532.105 458.515 530.372 478.805 542.61C475.207 553.316 472.738 558.9 472.066 564.739C470.512 578.477 472.821 588.246 470.847 600.867C469.695 608.192 464.065 613.583 462.543 620.778C466.969 607.297 474.953 612.235 473.979 580.453C473.42 562.531 475.014 562.068 480.02 543.349C504.988 558.998 511.411 595.771 512.824 625.039C440.575 624.563 118.519 624.689 90.03 624.08Z" fill="#A00000"/>
<path d="M399.67 403.221C384.736 426.56 349.517 468.49 324.745 477.602C315.02 481.18 293.021 481.18 283.298 477.602C258.526 468.49 223.312 426.56 208.376 403.221C193.696 380.286 176.091 299.309 176.067 299.194C173.241 288.517 171.728 277.313 171.711 265.757C171.596 192.991 230.737 133.928 303.814 133.815C376.898 133.702 436.224 192.576 436.332 265.34C436.352 276.896 434.878 288.106 432.089 298.792C432.052 298.905 414.399 380.197 399.67 403.221Z" fill="#E2B3A0"/>
<path d="M326.083 135.67C384.761 149.234 428.46 201.615 428.363 264.162C428.343 275.715 426.832 286.923 424.006 297.599C423.98 297.714 407.971 378.695 393.291 401.625C378.353 424.961 344.732 465.299 319.962 474.411C316.754 475.594 309.035 476.785 304.02 476.785C299.005 476.785 291.288 475.594 288.08 474.411C263.308 465.299 229.686 424.961 214.751 401.625C200.071 378.692 184.059 297.714 184.035 297.599C181.21 286.923 179.697 275.718 179.679 264.162C179.581 201.617 223.276 149.234 281.958 135.67C219.305 146.145 171.606 200.408 171.708 265.755C171.726 277.309 173.238 288.514 176.064 299.192C176.09 299.307 193.693 380.286 208.373 403.219C223.309 426.556 258.525 468.486 283.295 477.6C288.162 479.391 296.097 480.285 304.026 480.278C311.952 480.28 319.877 479.391 324.742 477.6C349.514 468.488 384.729 426.558 399.667 403.219C414.346 380.284 431.951 299.307 431.973 299.192C434.799 288.514 436.312 277.311 436.329 265.755C436.436 200.408 388.737 146.145 326.083 135.67Z" fill="#DAA590"/>
<path d="M399.67 403.221C384.736 426.56 349.517 468.49 324.745 477.602C315.02 481.18 293.021 481.18 283.298 477.602C258.526 468.49 223.312 426.56 208.376 403.221C193.696 380.286 176.091 299.309 176.067 299.194C173.241 288.517 171.728 277.313 171.711 265.757C171.596 192.991 230.737 133.928 303.814 133.815C376.898 133.702 436.224 192.576 436.332 265.34C436.352 276.896 434.878 288.106 432.089 298.792C432.052 298.905 414.399 380.197 399.67 403.221Z" stroke="#B46849" stroke-width="3.825"/>
<path d="M304.785 443.886C290.937 443.86 285.382 431.535 285.382 431.535C302.059 439.106 322.924 432.354 322.924 432.354C322.924 432.354 318.689 443.913 304.785 443.886Z" fill="url(#paint4_linear)"/>
<path d="M258.759 411.518C267.457 411.169 284.648 409.622 290.955 410.101C294.212 410.344 299.556 413.197 303.068 414.168C305.513 414.849 314.804 411.636 317.301 411.621C323.848 411.571 338.045 415.574 345.672 417.15C346.095 417.235 345.672 417.15 345.672 417.15C345.672 417.15 326.909 437.53 302.881 436.186C275.68 434.666 258.759 411.518 258.759 411.518C258.325 411.533 258.759 411.518 258.759 411.518Z" fill="#C05353"/>
<path d="M258.759 411.518C267.457 411.169 284.648 409.622 290.955 410.101C294.212 410.344 299.556 413.197 303.068 414.168C305.513 414.849 314.804 411.636 317.301 411.621C323.848 411.571 338.045 415.574 345.672 417.15C346.095 417.235 345.672 417.15 345.672 417.15C345.672 417.15 326.909 437.53 302.881 436.186C275.68 434.666 258.759 411.518 258.759 411.518ZM258.759 411.518C258.759 411.518 258.325 411.533 258.759 411.518Z" stroke="#B13B3B" stroke-width="2.58188"/>
<path d="M346.383 416.539C346.18 416.143 344.827 415.776 344.323 415.853C343.413 415.99 342.759 417.056 340.854 417.273C338.647 417.531 326.974 419.797 323.79 419.697C317.383 419.494 310.029 421.437 303.911 421.097C297.792 420.753 288.161 417.502 281.796 416.927C278.632 416.642 265.656 412.798 263.508 412.255C261.656 411.788 261.509 410.691 260.764 410.371C260.242 410.148 258.736 410.303 258.328 410.655C257.979 410.961 258.085 412.381 258.331 412.768C258.936 413.71 261.175 414.124 262.812 414.532C265.081 415.104 278.251 418.993 281.502 419.286C287.803 419.861 297.56 423.324 303.732 423.667C309.903 424.014 317.398 421.848 323.74 422.05C327.003 422.159 338.844 419.888 341.18 419.618C342.867 419.424 344.971 419.063 345.749 418.379C346.122 418.048 346.591 416.944 346.383 416.539Z" fill="#921313"/>
<path d="M303.145 432.245C292.395 431.646 275.442 426.317 268.954 419.368C272.925 419.979 281.514 420.862 285.458 421.522C290.321 422.341 297.058 424.63 302.015 425.214C307.368 425.845 314.683 424.48 319.91 423.905C324.268 423.43 331.026 421.857 335.378 421.681C328.053 427.236 313.524 432.823 303.145 432.245ZM320.588 417.869C324.491 417.619 330.577 415.92 334.465 415.776C330.087 414.25 323.502 414.247 318.853 413.614C314.845 413.074 308.726 415.753 304.756 416.108C300.275 416.513 294.951 412.375 290.784 411.976C286.259 411.548 276.813 412.853 272.376 413.857C276.167 414.377 284.416 415.192 288.149 415.964C292.724 416.906 299.292 418.96 304.043 419.224C308.899 419.491 315.775 418.183 320.588 417.869Z" fill="#CF6E6E"/>
<path d="M303.165 429.798C296.765 429.434 286.133 426.511 281.54 422.464C282.717 422.537 286.133 422.916 287.262 423.054C287.62 423.101 287.976 423.148 288.328 423.21C290.174 423.515 291.958 424.149 293.862 424.803C295.711 425.446 299.91 426.259 301.973 426.528C302.378 426.587 302.786 426.614 303.194 426.637C305.738 426.784 310.466 426.449 312.802 425.983C314.284 425.689 315.678 425.387 317.113 425.214C317.896 425.117 318.741 425.07 319.698 425.064C320.52 425.055 321.377 425.079 322.225 425.117C317.92 427.893 309.756 430.167 303.165 429.798Z" fill="#DF8D8D"/>
<path d="M252.949 414.379C252.949 414.379 251.302 410.699 251.534 409.32C251.857 407.398 255.998 403.58 255.998 403.58C255.998 403.58 253.491 407.973 253.104 409.358C252.726 410.699 252.949 414.379 252.949 414.379Z" fill="#B46849"/>
<path d="M221.31 315.121C220.21 310.154 232.594 306.485 248.941 308.489C265.283 310.495 276.63 320.497 275.139 325.54C274.313 328.335 252.012 332.594 244.156 331.729C236.192 330.848 223.966 327.114 221.31 315.121Z" fill="url(#paint5_radial)"/>
<path d="M266.518 319.419C266.518 329.622 258.245 337.895 248.043 337.895C237.84 337.895 229.564 329.622 229.564 319.419C229.564 309.215 237.84 300.942 248.043 300.942C258.245 300.94 266.518 309.213 266.518 319.419Z" fill="#66724E"/>
<path d="M245.972 301.148C245.9 301.157 245.828 301.166 245.752 301.174C245.841 301.59 245.928 302.009 246.013 302.424C245.998 302 245.987 301.57 245.972 301.148ZM246.011 302.42C246.226 308.491 246.58 313.902 247.602 315.86C248.143 313.717 247.226 308.376 246.011 302.42ZM247.606 315.865C247.474 316.378 247.274 316.728 246.967 316.847C246.659 316.962 246.274 316.83 245.835 316.53C245.961 317.043 245.948 317.447 245.724 317.697C245.502 317.945 245.104 318.006 244.578 317.936C244.926 318.336 245.104 318.703 245.026 319.023C244.941 319.345 244.615 319.584 244.124 319.769C244.613 319.96 244.941 320.201 245.017 320.523C245.096 320.845 244.917 321.208 244.572 321.605C245.096 321.542 245.498 321.608 245.713 321.855C245.933 322.103 245.943 322.51 245.822 323.023C246.254 322.725 246.639 322.594 246.948 322.714C247.259 322.829 247.456 323.184 247.58 323.701C247.828 323.234 248.108 322.934 248.441 322.901C248.763 322.857 249.108 323.084 249.454 323.481C249.458 322.951 249.569 322.562 249.847 322.373C250.117 322.186 250.523 322.223 251.015 322.412C250.776 321.942 250.693 321.547 250.845 321.251C251 320.958 251.378 320.801 251.904 320.74C251.471 320.436 251.206 320.125 251.213 319.792C251.21 319.46 251.471 319.149 251.91 318.849C251.386 318.784 251.015 318.625 250.858 318.334C250.706 318.04 250.791 317.64 251.034 317.171C250.537 317.356 250.137 317.393 249.865 317.206C249.591 317.019 249.48 316.625 249.478 316.097C249.134 316.493 248.791 316.71 248.461 316.667C248.13 316.623 247.848 316.332 247.606 315.865ZM249.476 316.095C250.952 314.447 252.619 309.291 254.31 303.459C251.68 308.928 249.48 313.882 249.476 316.095ZM254.308 303.457C254.493 303.083 254.682 302.7 254.858 302.318C254.793 302.294 254.727 302.266 254.662 302.237C254.545 302.646 254.428 303.055 254.308 303.457ZM251.034 317.169C253.106 316.393 256.982 312.602 261.188 308.224C256.319 311.847 252.065 315.212 251.034 317.169ZM261.188 308.226C261.497 307.996 261.812 307.763 262.129 307.535C262.083 307.48 262.036 307.433 261.999 307.383C261.729 307.659 261.462 307.946 261.188 308.226ZM251.904 318.849C254.099 319.121 259.292 317.564 265.059 315.643C259.058 316.588 253.73 317.59 251.904 318.849ZM265.059 315.643C265.398 315.595 265.751 315.538 266.098 315.484C266.083 315.428 266.07 315.367 266.055 315.308C265.724 315.419 265.385 315.532 265.059 315.643ZM251.899 320.736C253.717 322.003 259.038 323.034 265.025 324.007C259.282 322.058 254.097 320.471 251.899 320.736ZM265.025 324.007C265.318 324.11 265.614 324.214 265.903 324.307C265.918 324.255 265.931 324.205 265.942 324.153C265.644 324.11 265.331 324.06 265.025 324.007ZM251.013 322.408C252.036 324.368 256.273 327.759 261.118 331.411C256.936 327.009 253.084 323.194 251.013 322.408ZM261.123 331.405C261.303 331.594 261.492 331.794 261.673 331.987C261.703 331.95 261.731 331.92 261.766 331.887C261.551 331.726 261.329 331.563 261.123 331.405ZM249.458 323.477C249.45 325.692 251.621 330.655 254.221 336.143C252.56 330.3 250.926 325.131 249.458 323.477ZM254.223 336.143C254.288 336.374 254.358 336.611 254.419 336.848C254.464 336.83 254.497 336.815 254.538 336.804C254.434 336.583 254.328 336.359 254.223 336.143ZM247.58 323.697C246.546 325.657 246.161 331.057 245.911 337.126C247.159 331.185 248.108 325.849 247.58 323.697ZM245.913 337.126C245.863 337.356 245.817 337.591 245.769 337.828C245.813 337.837 245.846 337.839 245.889 337.843C245.896 337.609 245.906 337.361 245.913 337.126ZM245.822 323.021C243.987 324.273 241.139 328.883 238.098 334.137C241.963 329.455 245.287 325.168 245.822 323.021ZM238.101 334.137C237.94 334.333 237.77 334.539 237.603 334.733C237.642 334.759 237.677 334.776 237.718 334.807C237.844 334.583 237.974 334.359 238.101 334.137ZM244.574 321.605C242.368 321.864 237.705 324.616 232.571 327.855C238.172 325.507 243.098 323.262 244.574 321.605ZM232.571 327.861C232.305 327.972 232.034 328.083 231.762 328.201C231.781 328.242 231.808 328.283 231.834 328.324C232.081 328.172 232.327 328.014 232.571 327.861ZM244.124 319.769C242.057 318.975 236.644 319.251 230.588 319.734C236.64 320.251 242.05 320.551 244.124 319.769ZM230.59 319.734C230.262 319.703 229.921 319.673 229.597 319.645C229.595 319.703 229.59 319.76 229.595 319.819C229.932 319.786 230.264 319.758 230.59 319.734ZM244.578 317.936C243.122 316.278 238.205 314.004 232.625 311.621C237.735 314.886 242.383 317.671 244.578 317.936ZM232.625 311.621C232.305 311.415 231.979 311.211 231.655 311.002C231.627 311.058 231.599 311.117 231.566 311.171C231.923 311.324 232.281 311.471 232.625 311.621ZM245.835 316.528C245.315 314.378 242.013 310.078 238.181 305.372C241.192 310.643 244.013 315.267 245.835 316.528ZM238.183 305.372C237.977 305.018 237.774 304.657 237.572 304.298C237.516 304.337 237.453 304.378 237.401 304.415C237.659 304.735 237.929 305.057 238.183 305.372Z" fill="url(#paint6_radial)"/>
<path d="M250.769 301.207C250.695 301.198 250.625 301.185 250.552 301.177C250.528 301.603 250.504 302.031 250.478 302.45C250.571 302.037 250.673 301.62 250.769 301.207ZM250.475 302.448C249.113 308.369 248.054 313.686 248.536 315.843C249.615 313.913 250.106 308.515 250.475 302.448ZM248.539 315.845C248.28 316.306 247.995 316.593 247.667 316.628C247.341 316.658 247.002 316.43 246.658 316.028C246.645 316.556 246.528 316.943 246.25 317.125C245.971 317.306 245.569 317.262 245.078 317.06C245.311 317.536 245.389 317.936 245.228 318.225C245.065 318.514 244.687 318.662 244.165 318.712C244.587 319.025 244.843 319.34 244.835 319.671C244.828 320.001 244.561 320.305 244.124 320.601C244.645 320.675 245.015 320.842 245.163 321.138C245.308 321.434 245.217 321.829 244.965 322.294C245.463 322.118 245.865 322.092 246.132 322.288C246.4 322.479 246.502 322.875 246.489 323.405C246.85 323.021 247.195 322.801 247.528 322.855C247.85 322.899 248.123 323.203 248.358 323.679C248.497 323.166 248.706 322.818 249.023 322.707C249.334 322.597 249.715 322.738 250.143 323.049C250.032 322.534 250.054 322.129 250.28 321.884C250.506 321.638 250.91 321.588 251.436 321.662C251.095 321.255 250.919 320.888 251.012 320.566C251.097 320.245 251.43 320.012 251.932 319.836C251.441 319.638 251.123 319.388 251.047 319.066C250.978 318.743 251.162 318.38 251.521 317.99C250.993 318.04 250.593 317.971 250.382 317.719C250.167 317.469 250.16 317.06 250.297 316.549C249.86 316.841 249.471 316.962 249.165 316.836C248.845 316.714 248.652 316.36 248.539 315.845ZM250.286 316.556C252.138 315.343 255.082 310.795 258.225 305.6C254.269 310.202 250.862 314.417 250.286 316.556ZM258.225 305.596C258.499 305.281 258.779 304.961 259.051 304.639C258.992 304.598 258.938 304.552 258.881 304.509C258.662 304.876 258.442 305.239 258.225 305.596ZM251.512 317.995C253.714 317.78 258.44 315.121 263.635 311.98C257.992 314.221 253.012 316.371 251.512 317.995ZM263.633 311.982C263.992 311.841 264.357 311.697 264.722 311.558C264.692 311.495 264.659 311.437 264.635 311.378C264.303 311.576 263.97 311.782 263.633 311.982ZM251.917 319.84C253.966 320.671 259.388 320.512 265.453 320.149C259.412 319.51 254.008 319.099 251.917 319.84ZM265.453 320.149C265.796 320.19 266.148 320.227 266.496 320.264C266.498 320.206 266.5 320.145 266.502 320.084C266.152 320.106 265.796 320.127 265.453 320.149ZM251.428 321.664C252.851 323.36 257.727 325.731 263.257 328.222C258.212 324.851 253.616 321.977 251.428 321.664ZM263.257 328.22C263.511 328.394 263.77 328.57 264.027 328.737C264.055 328.692 264.079 328.646 264.103 328.601C263.827 328.479 263.537 328.351 263.257 328.22ZM250.136 323.049C250.617 325.207 253.83 329.579 257.568 334.363C254.666 329.024 251.934 324.344 250.136 323.049ZM257.571 334.357C257.699 334.587 257.825 334.828 257.953 335.063C257.992 335.035 258.027 335.013 258.068 334.989C257.901 334.776 257.731 334.563 257.571 334.357ZM248.358 323.679C247.778 325.814 248.591 331.172 249.68 337.146C249.586 331.072 249.347 325.657 248.358 323.679ZM249.68 337.146C249.684 337.385 249.689 337.632 249.689 337.878C249.734 337.872 249.771 337.867 249.815 337.867C249.771 337.626 249.725 337.382 249.68 337.146ZM246.487 323.405C244.98 325.031 243.209 330.148 241.398 335.946C244.139 330.526 246.443 325.62 246.487 323.405ZM241.398 335.946C241.289 336.154 241.183 336.37 241.078 336.587C241.115 336.604 241.148 336.615 241.189 336.633C241.257 336.406 241.33 336.172 241.398 335.946ZM244.963 322.297C242.867 323.031 238.922 326.748 234.624 331.037C239.572 327.514 243.891 324.233 244.963 322.297ZM234.624 331.037C234.418 331.183 234.203 331.337 233.994 331.485C234.025 331.52 234.053 331.546 234.083 331.583C234.261 331.398 234.446 331.218 234.624 331.037ZM244.122 320.605C241.926 320.284 236.711 321.738 230.91 323.538C236.931 322.718 242.27 321.823 244.122 320.605ZM230.91 323.542C230.625 323.581 230.333 323.616 230.04 323.66C230.051 323.705 230.064 323.751 230.079 323.797C230.357 323.716 230.636 323.627 230.91 323.542ZM244.165 318.716C242.374 317.414 237.072 316.28 231.101 315.18C236.809 317.245 241.959 318.934 244.165 318.716ZM231.101 315.18C230.79 315.067 230.47 314.949 230.162 314.836C230.144 314.893 230.127 314.947 230.116 315.004C230.449 315.06 230.781 315.119 231.101 315.18ZM245.078 317.064C244.1 315.084 239.941 311.617 235.164 307.869C239.257 312.347 243.026 316.241 245.078 317.064ZM235.164 307.872C234.907 307.589 234.651 307.306 234.392 307.022C234.346 307.07 234.303 307.117 234.259 307.163C234.564 307.4 234.87 307.637 235.164 307.872ZM246.656 316.028C246.708 313.817 244.635 308.809 242.15 303.272C243.691 309.143 245.224 314.339 246.656 316.028ZM242.15 303.272C242.043 302.876 241.941 302.476 241.837 302.076C241.774 302.098 241.702 302.122 241.641 302.146C241.811 302.522 241.985 302.9 242.15 303.272Z" fill="url(#paint7_radial)"/>
<path d="M255.288 319.419C255.288 323.423 252.045 326.664 248.043 326.664C244.042 326.664 240.794 323.42 240.794 319.419C240.794 315.417 244.042 312.171 248.043 312.171C252.05 312.171 255.288 315.417 255.288 319.419Z" fill="#66724E"/>
<path opacity="0.9" d="M255.288 319.419C255.288 323.423 252.045 326.664 248.043 326.664C244.042 326.664 240.794 323.42 240.794 319.419C240.794 315.417 244.042 312.171 248.043 312.171C252.05 312.171 255.288 315.417 255.288 319.419Z" fill="black"/>
<path opacity="0.5" d="M237.933 327.881C239.315 326.953 241.193 327.327 242.122 328.707C243.05 330.092 242.683 331.968 241.298 332.896C239.911 333.828 238.037 333.457 237.109 332.074C236.181 330.689 236.548 328.809 237.933 327.881Z" fill="url(#paint8_linear)"/>
<path opacity="0.5" d="M253.769 318.41C252.995 319.562 250.784 319.427 248.824 318.114C246.861 316.799 245.898 314.797 246.67 313.647L246.672 313.645C247.441 312.493 249.654 312.626 251.615 313.943C253.578 315.256 254.541 317.256 253.771 318.408C253.769 318.41 253.769 318.41 253.769 318.41Z" fill="url(#paint9_linear)"/>
<path opacity="0.75" d="M262.566 315.334C260.814 318.023 256.297 318.182 252.478 315.695C248.661 313.206 246.985 309.011 248.734 306.324C250.487 303.639 255.004 303.476 258.823 305.963C262.638 308.454 264.312 312.652 262.566 315.334Z" fill="url(#paint10_linear)"/>
<path d="M207.285 322.679C207.285 352.692 224.806 377.021 246.413 377.021C268.02 377.021 285.54 352.692 285.54 322.679C285.54 292.664 268.02 268.336 246.413 268.336C224.806 268.336 207.285 292.664 207.285 322.679ZM221.31 315.121C220.21 310.154 232.594 306.485 248.941 308.489C265.283 310.495 276.63 320.497 275.139 325.54C274.313 328.335 252.012 332.594 244.156 331.729C236.192 330.848 223.966 327.114 221.31 315.121Z" fill="#E2B3A0"/>
<path d="M244.156 331.729C252.012 332.594 274.313 328.335 275.139 325.54C276.632 320.497 265.283 310.495 248.941 308.489C234.898 306.767 223.806 309.239 221.647 313.115C223.599 299.203 238.385 288.341 256.399 288.26C275.769 288.18 291.5 300.598 291.553 316.008C291.598 331.416 275.934 343.967 256.566 344.054C237.192 344.134 221.462 331.715 221.41 316.308C221.41 316.08 221.445 315.856 221.451 315.628C224.345 327.207 236.309 330.861 244.156 331.729Z" fill="url(#paint11_radial)"/>
<path d="M221.31 315.121C220.21 310.154 232.594 306.485 248.941 308.489C265.283 310.495 276.63 320.497 275.139 325.54C274.313 328.335 252.012 332.594 244.156 331.729C236.192 330.848 223.966 327.114 221.31 315.121Z" fill="url(#paint12_radial)"/>
<path d="M222.173 304.022C231.32 299.722 242.497 299.327 252.253 301.837C257.479 303.057 263.046 304.631 267.606 307.572C271.834 310.039 275.269 313.006 278.479 316.68C275.562 312.982 272.452 309.902 268.43 307.398C263.483 304.32 258.064 302.411 252.423 301.059C242.452 298.611 231.287 299.168 222.173 304.022Z" fill="#B46849"/>
<path d="M211.237 307.402C211.237 307.402 216.297 309.317 219.051 308.75C218.204 307.752 216.669 305.263 216.669 305.263C216.669 305.263 220.697 306.461 223.518 305.333C225.431 304.568 232.355 303.159 235.378 303.015C239.046 302.837 246.406 303.287 250.019 303.937C257.353 305.259 269.55 309.654 275.404 319.553C275.958 320.797 278.462 321.555 278.462 321.555C278.462 321.555 276.245 321.088 275.964 321.647C275.351 322.866 278.786 326.029 279.216 326.422C278.866 326.107 276.414 323.955 275.473 324.32C275.341 324.368 275.175 325.164 275.136 325.368C275.788 320.095 264.62 310.704 248.938 308.839C232.592 306.896 220.208 310.454 221.308 315.269C223.964 326.894 236.189 330.513 244.154 331.366C249.645 331.955 262.192 330.111 269.532 328.024L271.73 327.335C267.385 329.529 255.375 332.107 250.499 332.559C248.882 332.711 245.63 332.785 244.008 332.744C231.077 332.4 221.923 325.833 218.512 316.962C218.241 316.249 217.438 315.617 216.691 315.449C213.204 314.665 205.613 311.513 205.613 311.513C210.656 312.297 213.184 312.978 217.145 311.641C213.278 310.193 211.237 307.402 211.237 307.402Z" fill="black"/>
<path d="M386.723 315.121C387.823 310.154 375.439 306.485 359.092 308.489C342.75 310.495 331.403 320.497 332.894 325.54C333.72 328.335 356.021 332.594 363.877 331.729C371.841 330.848 384.066 327.114 386.723 315.121Z" fill="url(#paint13_radial)"/>
<path d="M378.467 319.419C378.467 329.622 370.194 337.895 359.993 337.895C349.789 337.895 341.514 329.622 341.514 319.419C341.514 309.215 349.789 300.942 359.993 300.942C370.194 300.94 378.467 309.213 378.467 319.419Z" fill="#66724E"/>
<path d="M357.921 301.148C357.849 301.157 357.777 301.166 357.701 301.174C357.79 301.59 357.877 302.009 357.962 302.424C357.947 302 357.936 301.57 357.921 301.148ZM357.96 302.42C358.175 308.491 358.53 313.902 359.551 315.86C360.092 313.717 359.175 308.376 357.96 302.42ZM359.556 315.865C359.423 316.378 359.223 316.728 358.916 316.847C358.608 316.962 358.223 316.83 357.784 316.53C357.91 317.043 357.897 317.447 357.673 317.697C357.451 317.945 357.054 318.006 356.527 317.936C356.875 318.336 357.054 318.703 356.975 319.023C356.891 319.345 356.564 319.584 356.073 319.769C356.562 319.96 356.891 320.201 356.967 320.523C357.045 320.845 356.867 321.208 356.521 321.605C357.045 321.542 357.447 321.608 357.662 321.855C357.882 322.103 357.893 322.51 357.771 323.023C358.203 322.725 358.588 322.594 358.897 322.714C359.208 322.829 359.406 323.184 359.529 323.701C359.777 323.234 360.058 322.934 360.39 322.901C360.712 322.857 361.058 323.084 361.403 323.481C361.408 322.951 361.518 322.562 361.797 322.373C362.066 322.186 362.473 322.223 362.964 322.412C362.725 321.942 362.642 321.547 362.794 321.251C362.949 320.958 363.327 320.801 363.853 320.74C363.42 320.436 363.155 320.125 363.162 319.792C363.16 319.46 363.42 319.149 363.86 318.849C363.336 318.784 362.964 318.625 362.807 318.334C362.655 318.04 362.74 317.64 362.984 317.171C362.486 317.356 362.086 317.393 361.814 317.206C361.54 317.019 361.429 316.625 361.427 316.097C361.084 316.493 360.74 316.71 360.41 316.667C360.079 316.623 359.797 316.332 359.556 315.865ZM361.425 316.095C362.901 314.447 364.568 309.291 366.259 303.459C363.629 308.928 361.429 313.882 361.425 316.095ZM366.257 303.457C366.442 303.083 366.631 302.7 366.807 302.318C366.742 302.294 366.677 302.266 366.612 302.237C366.494 302.646 366.377 303.055 366.257 303.457ZM362.984 317.169C365.055 316.393 368.931 312.602 373.137 308.224C368.268 311.847 364.014 315.212 362.984 317.169ZM373.137 308.226C373.446 307.996 373.761 307.763 374.078 307.535C374.033 307.48 373.985 307.433 373.948 307.383C373.678 307.659 373.411 307.946 373.137 308.226ZM363.853 318.849C366.049 319.121 371.242 317.564 377.009 315.643C371.007 316.588 365.679 317.59 363.853 318.849ZM377.009 315.643C377.348 315.595 377.7 315.538 378.048 315.484C378.032 315.428 378.019 315.367 378.004 315.308C377.674 315.419 377.335 315.532 377.009 315.643ZM363.849 320.736C365.666 322.003 370.987 323.034 376.974 324.007C371.231 322.058 366.046 320.471 363.849 320.736ZM376.974 324.007C377.267 324.11 377.563 324.214 377.852 324.307C377.867 324.255 377.88 324.205 377.891 324.153C377.593 324.11 377.28 324.06 376.974 324.007ZM362.962 322.408C363.986 324.368 368.222 327.759 373.068 331.411C368.885 327.009 365.033 323.194 362.962 322.408ZM373.072 331.405C373.252 331.594 373.441 331.794 373.622 331.987C373.652 331.95 373.681 331.92 373.715 331.887C373.5 331.726 373.278 331.563 373.072 331.405ZM361.408 323.477C361.399 325.692 363.57 330.655 366.17 336.143C364.509 330.3 362.875 325.131 361.408 323.477ZM366.172 336.143C366.238 336.374 366.307 336.611 366.368 336.848C366.414 336.83 366.446 336.815 366.488 336.804C366.383 336.583 366.277 336.359 366.172 336.143ZM359.529 323.697C358.495 325.657 358.11 331.057 357.86 337.126C359.108 331.185 360.058 325.849 359.529 323.697ZM357.862 337.126C357.812 337.356 357.767 337.591 357.719 337.828C357.762 337.837 357.795 337.839 357.838 337.843C357.845 337.609 357.856 337.361 357.862 337.126ZM357.771 323.021C355.936 324.273 353.089 328.883 350.048 334.137C353.912 329.455 357.236 325.168 357.771 323.021ZM350.05 334.137C349.889 334.333 349.719 334.539 349.552 334.733C349.591 334.759 349.626 334.776 349.667 334.807C349.793 334.583 349.924 334.359 350.05 334.137ZM356.523 321.605C354.317 321.864 349.654 324.616 344.52 327.855C350.121 325.507 355.047 323.262 356.523 321.605ZM344.52 327.861C344.255 327.972 343.983 328.083 343.711 328.201C343.731 328.242 343.757 328.283 343.783 328.324C344.031 328.172 344.276 328.014 344.52 327.861ZM356.073 319.769C354.006 318.975 348.593 319.251 342.537 319.734C348.589 320.251 353.999 320.551 356.073 319.769ZM342.539 319.734C342.211 319.703 341.87 319.673 341.546 319.645C341.544 319.703 341.54 319.76 341.544 319.819C341.881 319.786 342.213 319.758 342.539 319.734ZM356.527 317.936C355.071 316.278 350.154 314.004 344.574 311.621C349.685 314.886 354.332 317.671 356.527 317.936ZM344.574 311.621C344.255 311.415 343.928 311.211 343.605 311.002C343.576 311.058 343.548 311.117 343.515 311.171C343.872 311.324 344.231 311.471 344.574 311.621ZM357.784 316.528C357.264 314.378 353.962 310.078 350.13 305.372C353.141 310.643 355.962 315.267 357.784 316.528ZM350.132 305.372C349.926 305.018 349.724 304.657 349.522 304.298C349.465 304.337 349.402 304.378 349.35 304.415C349.608 304.735 349.878 305.057 350.132 305.372Z" fill="url(#paint14_radial)"/>
<path d="M362.718 301.207C362.644 301.198 362.575 301.185 362.501 301.177C362.477 301.603 362.453 302.031 362.427 302.45C362.52 302.037 362.622 301.62 362.718 301.207ZM362.425 302.448C361.062 308.369 360.003 313.686 360.486 315.843C361.564 313.913 362.055 308.515 362.425 302.448ZM360.488 315.845C360.229 316.306 359.944 316.593 359.616 316.628C359.29 316.658 358.951 316.43 358.608 316.028C358.595 316.556 358.477 316.943 358.199 317.125C357.921 317.306 357.519 317.262 357.027 317.06C357.26 317.536 357.338 317.936 357.177 318.225C357.014 318.514 356.636 318.662 356.114 318.712C356.536 319.025 356.792 319.34 356.784 319.671C356.777 320.001 356.51 320.306 356.073 320.601C356.595 320.675 356.964 320.842 357.112 321.138C357.258 321.434 357.166 321.829 356.914 322.294C357.412 322.118 357.814 322.092 358.082 322.288C358.349 322.479 358.451 322.875 358.438 323.405C358.799 323.021 359.144 322.801 359.477 322.855C359.799 322.899 360.073 323.203 360.307 323.679C360.447 323.166 360.655 322.818 360.973 322.707C361.283 322.597 361.664 322.738 362.092 323.049C361.981 322.534 362.003 322.129 362.229 321.884C362.455 321.638 362.859 321.588 363.385 321.662C363.044 321.255 362.868 320.888 362.962 320.566C363.046 320.245 363.379 320.012 363.881 319.836C363.39 319.638 363.072 319.388 362.996 319.066C362.927 318.743 363.112 318.38 363.47 317.99C362.942 318.04 362.542 317.971 362.331 317.719C362.116 317.469 362.109 317.06 362.246 316.549C361.809 316.841 361.42 316.962 361.114 316.836C360.794 316.714 360.601 316.36 360.488 315.845ZM362.236 316.556C364.088 315.343 367.031 310.795 370.174 305.6C366.218 310.202 362.812 314.417 362.236 316.556ZM370.174 305.596C370.448 305.281 370.728 304.961 371 304.639C370.941 304.598 370.887 304.552 370.831 304.509C370.611 304.876 370.391 305.239 370.174 305.596ZM363.462 317.995C365.664 317.78 370.389 315.121 375.585 311.98C369.941 314.221 364.961 316.371 363.462 317.995ZM375.582 311.982C375.941 311.841 376.306 311.697 376.671 311.558C376.641 311.495 376.608 311.437 376.584 311.378C376.252 311.576 375.919 311.782 375.582 311.982ZM363.866 319.84C365.916 320.671 371.337 320.512 377.402 320.149C371.361 319.51 365.957 319.099 363.866 319.84ZM377.402 320.149C377.745 320.19 378.097 320.227 378.445 320.264C378.447 320.206 378.45 320.145 378.452 320.084C378.102 320.106 377.745 320.127 377.402 320.149ZM363.377 321.664C364.801 323.36 369.676 325.731 375.206 328.222C370.161 324.851 365.566 321.977 363.377 321.664ZM375.206 328.22C375.461 328.394 375.719 328.57 375.976 328.737C376.004 328.692 376.028 328.646 376.052 328.601C375.776 328.479 375.487 328.351 375.206 328.22ZM362.086 323.049C362.566 325.207 365.779 329.579 369.518 334.363C366.616 329.024 363.883 324.344 362.086 323.049ZM369.52 334.357C369.648 334.587 369.774 334.828 369.902 335.063C369.941 335.035 369.976 335.013 370.018 334.989C369.85 334.776 369.681 334.563 369.52 334.357ZM360.307 323.679C359.727 325.814 360.54 331.172 361.629 337.146C361.536 331.072 361.296 325.657 360.307 323.679ZM361.629 337.146C361.633 337.385 361.638 337.632 361.638 337.878C361.683 337.872 361.72 337.867 361.764 337.867C361.72 337.626 361.675 337.382 361.629 337.146ZM358.436 323.405C356.929 325.031 355.158 330.148 353.347 335.946C356.088 330.526 358.392 325.62 358.436 323.405ZM353.347 335.946C353.238 336.154 353.132 336.37 353.028 336.587C353.064 336.604 353.097 336.615 353.138 336.633C353.206 336.406 353.28 336.172 353.347 335.946ZM356.912 322.297C354.817 323.031 350.871 326.748 346.574 331.037C351.521 327.514 355.84 324.233 356.912 322.297ZM346.574 331.037C346.367 331.183 346.152 331.337 345.943 331.485C345.974 331.52 346.002 331.546 346.032 331.583C346.211 331.398 346.395 331.218 346.574 331.037ZM356.071 320.605C353.875 320.284 348.66 321.738 342.859 323.538C348.88 322.718 354.219 321.823 356.071 320.605ZM342.859 323.542C342.574 323.581 342.283 323.616 341.989 323.66C342 323.705 342.013 323.751 342.028 323.797C342.307 323.716 342.585 323.627 342.859 323.542ZM356.114 318.716C354.323 317.414 349.021 316.28 343.05 315.18C348.758 317.245 353.908 318.934 356.114 318.716ZM343.05 315.18C342.739 315.067 342.42 314.949 342.111 314.836C342.094 314.893 342.076 314.947 342.065 315.004C342.398 315.06 342.731 315.119 343.05 315.18ZM357.027 317.064C356.049 315.084 351.891 311.617 347.113 307.869C351.206 312.347 354.975 316.241 357.027 317.064ZM347.113 307.872C346.856 307.589 346.6 307.306 346.341 307.022C346.295 307.07 346.252 307.117 346.209 307.163C346.513 307.4 346.819 307.637 347.113 307.872ZM358.605 316.028C358.658 313.817 356.584 308.809 354.099 303.272C355.64 309.143 357.173 314.339 358.605 316.028ZM354.099 303.272C353.993 302.876 353.891 302.476 353.786 302.076C353.723 302.098 353.651 302.122 353.591 302.146C353.76 302.522 353.934 302.9 354.099 303.272Z" fill="url(#paint15_radial)"/>
<path d="M367.238 319.419C367.238 323.423 363.994 326.664 359.993 326.664C355.991 326.664 352.743 323.42 352.743 319.419C352.743 315.417 355.991 312.171 359.993 312.171C363.999 312.171 367.238 315.417 367.238 319.419Z" fill="#66724E"/>
<path opacity="0.9" d="M367.238 319.419C367.238 323.423 363.994 326.664 359.993 326.664C355.991 326.664 352.743 323.42 352.743 319.419C352.743 315.417 355.991 312.171 359.993 312.171C363.999 312.171 367.238 315.417 367.238 319.419Z" fill="black"/>
<path opacity="0.5" d="M349.882 327.881C351.265 326.953 353.143 327.327 354.071 328.707C354.999 330.092 354.632 331.968 353.247 332.896C351.86 333.828 349.986 333.457 349.058 332.074C348.13 330.689 348.497 328.809 349.882 327.881Z" fill="url(#paint16_linear)"/>
<path opacity="0.5" d="M365.718 318.41C364.944 319.562 362.734 319.427 360.773 318.114C358.81 316.799 357.847 314.797 358.619 313.647L358.621 313.645C359.39 312.493 361.603 312.626 363.564 313.943C365.527 315.256 366.49 317.256 365.72 318.408C365.718 318.41 365.718 318.41 365.718 318.41Z" fill="url(#paint17_linear)"/>
<path opacity="0.75" d="M374.515 315.334C372.763 318.023 368.246 318.182 364.427 315.695C360.61 313.206 358.934 309.011 360.684 306.324C362.436 303.639 366.953 303.476 370.772 305.963C374.587 308.454 376.261 312.652 374.515 315.334Z" fill="url(#paint18_linear)"/>
<path d="M361.621 268.336C340.014 268.336 322.493 292.664 322.493 322.679C322.493 352.692 340.014 377.021 361.621 377.021C383.228 377.021 400.748 352.692 400.748 322.679C400.748 292.664 383.228 268.336 361.621 268.336ZM363.877 331.729C356.021 332.594 333.721 328.335 332.895 325.54C331.401 320.497 342.75 310.495 359.093 308.489C375.439 306.485 387.823 310.156 386.723 315.121C384.067 327.114 371.842 330.848 363.877 331.729Z" fill="#E2B3A0"/>
<path d="M363.877 331.729C356.021 332.594 333.721 328.335 332.895 325.54C331.401 320.497 342.75 310.495 359.093 308.489C373.135 306.767 384.228 309.239 386.386 313.115C384.434 299.203 369.648 288.341 351.634 288.26C332.264 288.18 316.533 300.598 316.481 316.008C316.435 331.416 332.099 343.967 351.467 344.054C370.842 344.134 386.571 331.715 386.623 316.308C386.623 316.08 386.588 315.856 386.582 315.628C383.688 327.207 371.724 330.861 363.877 331.729Z" fill="url(#paint19_radial)"/>
<path d="M386.723 315.121C387.823 310.154 375.439 306.485 359.092 308.489C342.75 310.495 331.403 320.497 332.894 325.54C333.72 328.335 356.021 332.594 363.877 331.729C371.841 330.848 384.066 327.114 386.723 315.121Z" fill="url(#paint20_radial)"/>
<path d="M385.86 304.022C376.713 299.722 365.536 299.327 355.78 301.837C350.554 303.057 344.987 304.631 340.427 307.572C336.199 310.039 332.764 313.006 329.554 316.68C332.471 312.982 335.582 309.902 339.603 307.398C344.55 304.32 349.97 302.411 355.61 301.059C365.581 298.611 376.746 299.168 385.86 304.022Z" fill="#B46849"/>
<path d="M396.796 307.402C396.796 307.402 391.736 309.317 388.981 308.75C389.829 307.752 391.364 305.263 391.364 305.263C391.364 305.263 387.336 306.461 384.514 305.333C382.601 304.568 375.678 303.159 372.654 303.015C368.987 302.837 361.627 303.287 358.014 303.937C350.68 305.259 338.483 309.654 332.629 319.553C332.075 320.797 329.571 321.555 329.571 321.555C329.571 321.555 331.788 321.088 332.068 321.647C332.681 322.866 329.247 326.029 328.816 326.422C329.166 326.107 331.618 323.955 332.56 324.32C332.692 324.368 332.857 325.164 332.897 325.368C332.244 320.095 343.413 310.704 359.095 308.839C375.441 306.896 387.825 310.454 386.725 315.269C384.069 326.894 371.844 330.513 363.879 331.366C358.388 331.955 345.841 330.111 338.5 328.024L336.303 327.335C340.648 329.529 352.658 332.107 357.534 332.559C359.151 332.711 362.403 332.785 364.025 332.744C376.956 332.4 386.11 325.833 389.521 316.962C389.792 316.249 390.594 315.617 391.342 315.449C394.829 314.665 402.419 311.513 402.419 311.513C397.376 312.297 394.848 312.978 390.888 311.641C394.755 310.193 396.796 307.402 396.796 307.402Z" fill="black"/>
<path d="M391.41 377.038C391.486 425.458 352.293 464.781 303.866 464.849C255.448 464.927 216.132 425.737 216.056 377.308C215.982 328.89 255.172 289.573 303.599 289.497C352.019 289.423 391.338 328.614 391.41 377.038Z" fill="url(#paint21_radial)"/>
<path d="M380.097 253.117C380.097 295.133 346.032 329.198 304.016 329.198C261.999 329.198 227.935 295.133 227.935 253.117C227.935 211.101 261.999 177.036 304.016 177.036C346.032 177.036 380.097 211.101 380.097 253.117Z" fill="url(#paint22_radial)"/>
<path d="M200.736 291.964C216.985 271.568 244.946 274.961 267.857 278.239C273.685 279.074 279.685 279.7 285.399 281.143C289.495 282.176 292.714 286.843 289.423 290.612C287.884 292.405 284.526 292.073 282.452 292.029C255.017 291.475 224.006 275.698 200.736 291.964Z" fill="#2A232B"/>
<path d="M407.436 291.138C402.732 287.991 397.754 285.769 392.126 284.858C371.482 281.511 332.161 295.27 321.825 292.358C315.495 290.571 316.775 284.23 319.575 282.667C321.26 281.726 321.727 281.75 336.767 279.163C362.324 274.772 390.939 271.281 407.436 291.138Z" fill="#2A232B"/>
<path d="M301.938 330.148C301.938 330.148 300.14 371.593 300.388 380.697C300.457 383.279 305.431 390.052 305.092 394.989C305.092 394.989 295.392 394.282 292.236 393.167C288.934 391.998 283.826 389.715 285.845 383.34C288.721 374.273 301.938 330.148 301.938 330.148Z" fill="#D39880"/>
<path d="M301.031 390.122C301.031 390.122 297.008 388.694 294.467 388.765C292.154 388.837 291.819 387.296 292.054 386.42C292.288 385.544 293.082 384.998 295.316 385.594C297.553 386.194 301.031 390.122 301.031 390.122ZM307.02 390.126C307.02 390.126 311.035 388.802 313.585 388.774C315.898 388.746 316.234 387.303 315.997 386.429C315.763 385.551 314.969 385.001 312.735 385.596C310.498 386.2 307.02 390.126 307.02 390.126Z" fill="#B46849"/>
<path opacity="0.1" d="M198.363 597.397C164.185 542.826 152.017 564.987 159.949 505.107C148.626 484.65 139.57 464.305 133.449 442.451C121.28 395.756 133.736 365.793 144.626 331.702C134.223 189.674 215.634 111.824 305.559 111.824C375.728 111.824 451.548 162.841 452.224 275.335C451.107 295.896 448.025 330.424 445.697 345.254C484.322 464.873 451.133 455.352 421.633 511.234C413.632 526.381 404.217 548.769 402.246 571.171C361.683 498.903 365.379 487.862 379.039 455.115C395.35 416.02 388.923 446.268 357.236 449.85C386.719 427.047 406.617 427.108 407.239 285.03C407.241 284.945 407.193 284.867 407.121 284.832C380.271 272.048 354.871 247.865 339.179 220.141C339.14 220.074 339.077 220.033 339 220.033C338.998 220.033 338.994 220.033 338.994 220.033C338.913 220.035 338.842 220.083 338.809 220.157C320.691 258.821 289.626 279.661 238.086 287.725C228.024 292.979 216.918 297.868 203.08 303.126C203 303.157 202.943 303.237 202.943 303.326C202.013 359.1 214.825 398.713 247.129 445.039C231.728 437.966 219.423 417.409 219.423 417.409C218.651 417.409 224.822 428.202 225.209 428.889C268.269 505.609 198.865 530.235 198.363 597.397Z" fill="#40342F"/>
<path d="M195.548 592.846C160.384 538.274 147.863 560.435 156.025 500.555C144.374 480.098 135.055 459.754 128.76 437.899C116.239 391.204 129.054 361.241 140.259 327.151C129.554 185.124 213.317 107.272 305.844 107.272C378.035 107.272 456.048 158.29 456.744 270.783C455.598 291.345 452.431 325.872 450.029 340.702C489.772 460.321 455.622 450.8 425.27 506.683C417.034 521.829 407.354 544.217 405.326 566.619C363.586 494.351 367.392 483.31 381.45 450.563C398.227 411.468 387.869 441.616 359.014 447.904C389.347 425.102 409.821 422.556 410.463 280.478C410.465 280.393 410.415 280.315 410.336 280.28C382.71 267.496 356.582 243.314 340.437 215.59C340.398 215.522 340.327 215.481 340.251 215.481C340.248 215.481 340.244 215.481 340.242 215.481C340.161 215.483 340.09 215.531 340.055 215.605C321.411 254.269 289.448 275.109 236.421 283.174C226.066 288.427 214.641 293.316 200.405 298.575C200.32 298.605 200.266 298.685 200.263 298.775C199.305 354.546 212.489 396.334 245.725 442.661C229.809 430.882 217.221 412.857 217.221 412.857C216.425 412.857 222.777 423.65 223.172 424.337C267.473 501.059 196.064 525.685 195.548 592.846Z" fill="#40342F"/>
<path d="M146.071 370.182C144.439 353.381 118.517 245.298 182.549 166.15C152.134 225.182 143.28 304.857 146.071 370.182ZM450.789 335.811C460.384 269.659 462.982 198.728 408.525 147.26C435.425 199.845 454.202 238.318 450.789 335.811ZM397.791 181.073C392.613 205.177 401.511 236.834 404.426 258.704C389.231 246.455 380.175 229.208 369.728 205.238C372.022 218.776 377.304 243.122 406.621 273.196C359.238 230.878 349.071 209.525 356.812 159.172C356.381 161.078 355.966 162.878 355.566 164.585C356.603 159.059 357.551 153.09 358.36 146.606C351.401 185.733 299.414 255.4 256.061 270.296C249.518 276.846 243.59 277.152 236.512 283.158C295.706 274.133 333.018 240.322 341.022 216.063C357.186 242.666 386.52 267.246 413.118 279.822C417.135 244.624 404.423 222.995 397.791 181.073ZM307.355 182.622C287.791 215.229 276.153 235.879 245.72 255.443C255.6 247.537 262.43 234.429 266.438 222.995C254.461 240.722 235.684 251.774 219.24 266.162C235.578 248.189 257.595 222.995 271.488 198.926C257.485 217.581 234.941 232.264 214.892 248.922C230.665 235.816 243.151 219.213 251.846 201.823C245.814 209.866 234.756 215.863 221.413 229.208C240.916 203.197 242.89 191.202 248.409 180.505C234.897 203.273 223.074 211.168 209.73 222.448C200.554 260.927 200.032 277.635 198.304 298.775C198.22 299.794 235.504 283.639 236.421 283.174C236.451 283.169 236.482 283.163 236.512 283.158C271.275 253.661 285.543 222.891 307.355 182.622ZM217.066 429.193C223.126 453.432 219.731 475.048 211.71 500.35C210.649 476.959 193.287 452.95 180.371 431.96C183.336 477.013 188.122 497.964 180.551 532.233C176.495 470.07 163.524 449.046 144.504 403.075C136.837 432.188 138.724 470.17 156.023 500.555C147.86 560.435 160.381 538.274 195.546 592.846C196.063 525.686 267.471 501.057 223.168 424.337C222.77 423.65 216.42 412.857 217.216 412.857C217.216 412.857 229.806 430.882 245.72 442.661C197.391 390.033 184.718 323.733 183.334 252C172.493 338.402 204.023 385.718 217.066 429.193ZM454.278 351.929C456.159 388.726 466.101 434.899 434.156 464.849C447.198 443.111 440.962 413.977 434.441 392.239C435.258 450.413 410.938 485.349 404.423 523.538C403.432 505.961 399.415 484.717 407.625 456.119C399.663 470.035 390.681 486.221 387.218 505.513C375.826 484.152 382.073 467.981 386.06 447.183C402.967 429.38 414.66 395.363 417.131 373.506C415.099 391.474 403.465 418.509 390.007 429.799C390.005 429.819 388.842 433.732 387.564 438.02C387.659 437.297 387.751 436.568 387.836 435.829C368.428 481.5 358.827 486.11 405.326 566.615C407.162 546.275 415.594 524.47 425.27 506.678C454.517 452.83 487.482 458.488 454.278 351.929Z" fill="#31241F"/>
<path d="M424.309 304.805C433.589 266.951 419.32 208.692 411.997 197.326C423.416 215.037 438.732 262.825 424.309 304.805ZM433.226 322.025C434.221 316.888 463.865 259.562 413.675 178.745C459.074 261.384 434.234 316.817 433.226 322.025ZM160.736 251.776C162.91 250.804 176.737 149.047 266.008 129.855C172.387 146.351 162.91 250.809 160.736 251.776ZM173.061 348.258C173.009 346.077 155.341 245.259 204.995 180.653C147.498 248.7 173.009 346.084 173.061 348.258ZM180.141 416.49C177.037 412.366 151.652 344.067 163.466 266.21C141.607 347.86 178.506 414.316 180.141 416.49ZM420.083 198.356C417.91 197.715 391.701 122.238 337.814 129.681C384.949 127.009 417.91 197.708 420.083 198.356ZM375.235 237.462C375.235 237.462 354.76 205.353 362.183 152.507C355.332 184.766 356.051 207.064 375.235 237.462ZM381.019 212.475C386.601 228.039 398.635 244.837 400.639 246.165C398.463 244.724 379.641 217.166 375.241 171.765C375.632 185.392 376.367 199.502 381.019 212.475ZM278.24 256.195C295.615 239.305 334.401 222.713 356.436 142.347C332.792 216.585 296.619 238.329 278.24 256.195ZM278.294 190.1C293.491 175.586 298.932 160.707 298.743 146.743C297.186 160.757 289.598 179.305 278.294 190.1ZM256.511 197.337C257.331 197.308 259.409 194.865 259.996 194.352C277.336 179.225 285.265 167.004 286.924 146.017C284.379 169.947 258.689 197.263 256.511 197.337ZM253.592 193.035C253.592 193.035 271.482 172.032 277.907 142.369C271.103 166.035 253.592 193.035 253.592 193.035ZM209.247 465.571C210.51 463.397 213.432 421.5 192.683 404.184C205.737 417.431 210.508 463.395 209.247 465.571ZM209.284 465.549C208.284 448.67 192.872 435.295 189.742 414.146C190.907 441.118 207.556 450.726 209.284 465.549ZM175.972 480.063C173.887 475.192 184.064 452.83 153.554 405.54C178.406 450.274 174.967 477.715 175.972 480.063ZM176.015 477.191C173.437 467.673 177.984 447.307 166.614 414.177C172.557 436.155 172.681 464.862 176.015 477.191ZM412.756 416.779C403.826 434.329 385.534 446.487 390.284 490.197C389.847 486.169 390.631 481.63 390.946 477.611C395.201 423.369 409.797 465.158 425.826 364.05C421.948 379.566 418.997 404.517 412.756 416.779ZM407.767 495.99C408.573 492.825 408.517 489.258 409.078 486.021C413.821 458.602 424.274 443.892 425.187 399.628C423.096 435.453 407.315 465.071 407.767 495.99ZM445.542 437.947C446.562 431.147 460.378 420.683 449.881 366.332C455.85 422.109 446.544 431.26 445.542 437.947ZM445.544 438.014C446.497 435.84 452.303 399.043 437.608 371.462C447.866 393.793 446.499 435.84 445.544 438.014Z" fill="#4F4642"/>
<path d="M127.727 461.262C128.267 455.667 129.138 450.009 130.419 444.27C135.853 461.308 142.381 477.037 155.808 500.527C147.606 560.694 160.408 538.398 195.761 593.585C195.761 545.182 232.841 518.464 237.128 480.832C241.006 446.565 226.783 432.23 217.216 413.077C225.185 424.18 235.626 435.718 246.692 443.642C215.158 400.032 199.446 358.95 200.478 298.783C212.717 294.262 224.824 289.306 236.454 283.393C283.122 276.294 319.652 258.417 340.25 215.703C356.149 243.009 381.919 267.373 410.245 280.48C409.597 423.678 389.008 424.845 358.119 448.313C370.75 445.902 385.836 435.86 389.227 431.075C369.516 482.702 356.201 482.098 405.485 567.326C407.215 546.553 415.453 525.192 425.461 506.787C455.713 451.082 490.111 458.347 450.351 338.778C453.707 318.043 456.496 298.159 456.872 278.283C457.252 285.336 457.472 292.145 457.67 298.77C458.135 298.77 458.6 298.77 459.063 298.77C458.504 289.888 457.922 280.626 456.959 270.783C455.531 39.479 119.017 48.6718 140.048 327.083C128.686 361.674 116 391.174 128.549 437.836C126.536 444.361 125.015 450.68 123.904 456.854C125.06 458.443 126.275 459.971 127.727 461.262ZM140.896 336.341C141.103 338.515 148.982 396.454 143.765 354.014C105.197 40.242 505.166 18.5046 447.786 352.886C443.886 375.61 446.116 364.948 449.875 341.756C487.391 468.377 441.723 440.798 410.052 531.676C407.074 540.239 404.965 551.24 404.096 560.218C357.093 477.422 379.734 469.935 391.836 428.271C406.18 412.42 414.91 393.772 417.29 370.623C411.658 409.727 386.023 435.944 364.727 444.661C375.848 437.334 387.416 429.499 394.292 417.728C398.713 413.085 419.86 360.835 411.943 261.153C408.306 217.372 393.603 204.403 396.877 185.811C393.842 200.412 402.157 210.281 407.115 240.329C409.408 254.367 410.226 274.776 410.226 278.522C386.482 265.555 356.077 237.46 341.187 213.766C350.884 193.887 355.93 163.607 359.882 144.488C348.109 192.502 339.855 258.643 243.021 279.913C258.741 271.32 292.989 253.3 328.34 181.312C328.384 181.29 328.403 181.268 328.403 181.225C347.339 144.065 329.712 176.803 328.208 179.486C328.18 179.429 328.186 179.262 328.186 179.508C284.372 257.965 249.09 278.05 200.478 298.194C200.5 296.716 200.522 295.238 200.587 293.76C260.324 274.324 297.575 203.171 285.515 220.765C266.219 249.067 233.009 281.663 200.609 293.238C200.646 291.064 201.007 283.847 201.609 277.717C243.377 248.059 252.579 232.421 268.756 204.245C269.964 202.117 271.01 200.304 271.916 198.754C262.172 213.588 236.478 249.185 201.717 276.411C202.674 266.368 204.109 256.369 205.826 246.435C207.828 243.787 225.029 230.019 239.128 201.351C245.853 187.768 248.41 180.505 248.41 180.505C246.516 183.935 235.291 209.642 206.435 243.066C211.195 216.681 217.712 192.904 225.064 166.919C212.551 205.819 200.376 247.939 196.783 290.388C195.722 292.562 193.705 372.962 234.248 429.441C171.709 362.163 181.934 279.48 182.328 251.804C182.132 251.804 180.697 274.302 180.589 275.824C172.183 387.587 236.23 414.624 232.759 472.787C230.211 515.28 195.051 538.917 194.74 589.931C167.27 542.204 151.68 556.129 158.112 504.502C158.279 502.329 160.577 486.562 158.286 471.179C154.599 446.711 149.328 439.664 150.1 434.529C149.515 437.633 150.863 440.803 153.18 449.093C157.33 463.588 157.882 483.23 156.071 498.503C120.154 427.752 125.18 390.157 140.896 336.341Z" fill="#120B08"/>
</g>
<defs>
<linearGradient id="paint0_linear" x1="300" y1="-75" x2="300" y2="675" gradientUnits="userSpaceOnUse">
<stop stop-color="#151371"/>
<stop offset="0.453125" stop-color="#FF00B8"/>
<stop offset="0.96875" stop-color="#FFC700"/>
</linearGradient>
<linearGradient id="paint1_linear" x1="439" y1="245" x2="439" y2="644" gradientUnits="userSpaceOnUse">
<stop stop-color="#FF00B8"/>
<stop offset="1" stop-color="#F0DB0A" stop-opacity="0"/>
</linearGradient>
<linearGradient id="paint2_linear" x1="194" y1="161" x2="194" y2="560" gradientUnits="userSpaceOnUse">
<stop stop-color="#FF00B8"/>
<stop offset="1" stop-color="#F0DB0A" stop-opacity="0"/>
</linearGradient>
<linearGradient id="paint3_linear" x1="303.973" y1="503.687" x2="303.973" y2="427.782" gradientUnits="userSpaceOnUse">
<stop stop-color="#D39880" stop-opacity="0.8"/>
<stop offset="0.7" stop-color="#B46849"/>
</linearGradient>
<linearGradient id="paint4_linear" x1="304.013" y1="442.302" x2="304.013" y2="433.498" gradientUnits="userSpaceOnUse">
<stop offset="0.1" stop-color="#DAA590"/>
<stop offset="1" stop-color="#D39880"/>
</linearGradient>
<radialGradient id="paint5_radial" cx="0" cy="0" r="1" gradientUnits="userSpaceOnUse" gradientTransform="translate(246.29 319.346) rotate(174.019) scale(32.8587)">
<stop stop-color="white"/>
<stop offset="0.316" stop-color="#FCFDFD"/>
<stop offset="0.505" stop-color="#F4F7F8"/>
<stop offset="0.661" stop-color="#E5ECEF"/>
<stop offset="0.76" stop-color="#D8E2E7"/>
</radialGradient>
<radialGradient id="paint6_radial" cx="0" cy="0" r="1" gradientUnits="userSpaceOnUse" gradientTransform="translate(247.815 319.491) rotate(-14.4847) scale(18.2438 18.2478)">
<stop stop-color="white" stop-opacity="0.8"/>
<stop offset="1" stop-color="white" stop-opacity="0"/>
</radialGradient>
<radialGradient id="paint7_radial" cx="0" cy="0" r="1" gradientUnits="userSpaceOnUse" gradientTransform="translate(247.811 319.477) rotate(0.512025) scale(18.2346 18.2349)">
<stop stop-color="white" stop-opacity="0.8"/>
<stop offset="1" stop-color="white" stop-opacity="0"/>
</radialGradient>
<linearGradient id="paint8_linear" x1="237.787" y1="332.563" x2="240.672" y2="329.127" gradientUnits="userSpaceOnUse">
<stop stop-color="white"/>
<stop offset="1" stop-color="white" stop-opacity="0"/>
</linearGradient>
<linearGradient id="paint9_linear" x1="252.389" y1="315.071" x2="248.041" y2="319.419" gradientUnits="userSpaceOnUse">
<stop stop-color="white"/>
<stop offset="1" stop-color="white" stop-opacity="0"/>
</linearGradient>
<linearGradient id="paint10_linear" x1="258.91" y1="306.376" x2="250.215" y2="315.071" gradientUnits="userSpaceOnUse">
<stop stop-color="white"/>
<stop offset="1" stop-color="white" stop-opacity="0"/>
</linearGradient>
<radialGradient id="paint11_radial" cx="0" cy="0" r="1" gradientUnits="userSpaceOnUse" gradientTransform="translate(256.655 315.064) rotate(1.19182) scale(34.787 27.8282)">
<stop stop-color="#D39880"/>
<stop offset="0.7" stop-color="#D39880" stop-opacity="0.3"/>
<stop offset="1" stop-color="#E2B3A0" stop-opacity="0"/>
</radialGradient>
<radialGradient id="paint12_radial" cx="0" cy="0" r="1" gradientUnits="userSpaceOnUse" gradientTransform="translate(238.299 376.741) scale(66.3363)">
<stop offset="0.95" stop-opacity="0"/>
<stop offset="1" stop-opacity="0.3"/>
</radialGradient>
<radialGradient id="paint13_radial" cx="0" cy="0" r="1" gradientUnits="userSpaceOnUse" gradientTransform="translate(361.742 319.346) rotate(5.98141) scale(32.8587)">
<stop stop-color="white"/>
<stop offset="0.316" stop-color="#FCFDFD"/>
<stop offset="0.505" stop-color="#F4F7F8"/>
<stop offset="0.661" stop-color="#E5ECEF"/>
<stop offset="0.76" stop-color="#D8E2E7"/>
</radialGradient>
<radialGradient id="paint14_radial" cx="0" cy="0" r="1" gradientUnits="userSpaceOnUse" gradientTransform="translate(359.763 319.494) rotate(-14.4847) scale(18.2438 18.2478)">
<stop stop-color="white" stop-opacity="0.8"/>
<stop offset="1" stop-color="white" stop-opacity="0"/>
</radialGradient>
<radialGradient id="paint15_radial" cx="0" cy="0" r="1" gradientUnits="userSpaceOnUse" gradientTransform="translate(359.762 319.477) rotate(0.512025) scale(18.2346 18.2349)">
<stop stop-color="white" stop-opacity="0.8"/>
<stop offset="1" stop-color="white" stop-opacity="0"/>
</radialGradient>
<linearGradient id="paint16_linear" x1="349.739" y1="332.563" x2="352.623" y2="329.129" gradientUnits="userSpaceOnUse">
<stop stop-color="white"/>
<stop offset="1" stop-color="white" stop-opacity="0"/>
</linearGradient>
<linearGradient id="paint17_linear" x1="364.338" y1="315.071" x2="359.99" y2="319.419" gradientUnits="userSpaceOnUse">
<stop stop-color="white"/>
<stop offset="1" stop-color="white" stop-opacity="0"/>
</linearGradient>
<linearGradient id="paint18_linear" x1="370.859" y1="306.376" x2="362.164" y2="315.071" gradientUnits="userSpaceOnUse">
<stop stop-color="white"/>
<stop offset="1" stop-color="white" stop-opacity="0"/>
</linearGradient>
<radialGradient id="paint19_radial" cx="0" cy="0" r="1" gradientUnits="userSpaceOnUse" gradientTransform="translate(351.378 315.064) rotate(178.808) scale(34.787 27.8282)">
<stop stop-color="#D39880"/>
<stop offset="0.7" stop-color="#D39880" stop-opacity="0.3"/>
<stop offset="1" stop-color="#E2B3A0" stop-opacity="0"/>
</radialGradient>
<radialGradient id="paint20_radial" cx="0" cy="0" r="1" gradientUnits="userSpaceOnUse" gradientTransform="translate(369.734 376.741) rotate(180) scale(66.3363)">
<stop offset="0.95" stop-opacity="0"/>
<stop offset="1" stop-opacity="0.3"/>
</radialGradient>
<radialGradient id="paint21_radial" cx="0" cy="0" r="1" gradientUnits="userSpaceOnUse" gradientTransform="translate(304.016 377.023) scale(86.9499)">
<stop stop-color="#F1D0C3" stop-opacity="0.5"/>
<stop offset="0.9" stop-color="#E2B3A0" stop-opacity="0"/>
</radialGradient>
<radialGradient id="paint22_radial" cx="0" cy="0" r="1" gradientUnits="userSpaceOnUse" gradientTransform="translate(304.016 255.293) scale(78.2549)">
<stop stop-color="#F1D0C3" stop-opacity="0.5"/>
<stop offset="0.9" stop-color="#E2B3A0" stop-opacity="0"/>
</radialGradient>
<clipPath id="clip0">
<rect width="600" height="600" fill="white"/>
</clipPath>
</defs>
</svg>
