<svg width="17" height="20" viewBox="0 0 17 20" fill="none" xmlns="http://www.w3.org/2000/svg">
<path d="M14.875 20H2.125C0.953898 20 0 19.1592 0 18.125V9.375C0 8.34076 0.953898 7.5 2.125 7.5H14.875C16.0461 7.5 17 8.34076 17 9.375V18.125C17 19.1592 16.0461 20 14.875 20ZM2.125 8.75C1.73486 8.75 1.41667 9.03 1.41667 9.375V18.125C1.41667 18.47 1.73486 18.75 2.125 18.75H14.875C15.2651 18.75 15.5833 18.47 15.5833 18.125V9.375C15.5833 9.03 15.2651 8.75 14.875 8.75H2.125Z" fill="#999999"/>
<path d="M13.4585 8.75C13.0675 8.75 12.7502 8.47 12.7502 8.125V5C12.7502 2.93243 10.8434 1.25 8.50016 1.25C6.15692 1.25 4.25016 2.93243 4.25016 5V8.125C4.25016 8.47 3.93283 8.75 3.54183 8.75C3.15083 8.75 2.8335 8.47 2.8335 8.125V5C2.8335 2.24243 5.37492 0 8.50016 0C11.6254 0 14.1668 2.24243 14.1668 5V8.125C14.1668 8.47 13.8495 8.75 13.4585 8.75Z" fill="#999999"/>
</svg>
