<svg width="600" height="600" viewBox="0 0 600 600" fill="none" xmlns="http://www.w3.org/2000/svg">
<g clip-path="url(#clip0)">
<path d="M675 675H-75V-75H675V675Z" fill="url(#paint0_linear)"/>
<path d="M360.996 403.874H308.184V356.576H360.996V403.874ZM414.113 320.069H340.054V380.225H414.113V320.069ZM377.082 441.95H442.881V362.639H377.082V441.95ZM400.757 434.192H334.59V491.191H400.757V434.192ZM580.44 284.416H490.23V387.501H580.44V284.416ZM478.458 331.108H456.605V356.576H478.458V331.108ZM544.531 252.277H456.605V304.426H544.531V252.277ZM442.881 270.468H395.532V335.958H442.881V270.468ZM334.59 275.32H308.184V303.213H334.59V275.32ZM299.325 320.069H258.501V382.71H299.325V320.069ZM347.338 441.95H275.708V521.511H347.338V441.95ZM308.184 576.086H388.617V528.788H308.184V576.086ZM500.311 557.894H443.791V599.129H500.313V557.894H500.311ZM637.361 516.659H585.062V578.511H637.361V516.659ZM551.302 544.718H506.381V585.953H551.302V544.718ZM594.357 463.296H528.843V537.278H594.357V463.296ZM610.791 590.639H528.843V644H610.791V590.639ZM340.054 557.894H251.187V637.937H340.052V557.894H340.054ZM630.216 356.576H569.818V403.874H630.216V356.576ZM594.357 424.49H568.208V451.477H594.357V424.49ZM251.187 474.697H300.975V404.294H251.187V474.697ZM321.764 249.852L232 252.277V320.069H321.764V249.852ZM646 252.277H587.725V326.256H646V252.277ZM371.858 245H347.338V298.361H371.858V245ZM641.143 437.983H581.281V486.494H641.143V437.983Z" fill="url(#paint1_linear)" stroke="#FFC700" stroke-width="1.5"/>
<path d="M115.996 319.874H63.1843V272.576H115.996V319.874ZM169.113 236.069H95.0537V296.225H169.113V236.069ZM132.082 357.95H197.881V278.639H132.082V357.95ZM155.757 350.192H89.5904V407.191H155.757V350.192ZM335.44 200.416H245.23V303.501H335.44V200.416ZM233.458 247.108H211.605V272.576H233.458V247.108ZM299.531 168.277H211.605V220.426H299.531V168.277ZM197.881 186.468H150.532V251.958H197.881V186.468ZM89.5904 191.32H63.1843V219.213H89.5904V191.32ZM54.3246 236.069H13.5008V298.71H54.3246V236.069ZM102.338 357.95H30.7084V437.511H102.338V357.95ZM63.1843 492.086H143.617V444.788H63.1843V492.086ZM255.311 473.894H198.791V515.129H255.313V473.894H255.311ZM392.361 432.659H340.062V494.511H392.361V432.659ZM306.302 460.718H261.381V501.953H306.302V460.718ZM349.357 379.296H283.843V453.278H349.357V379.296ZM365.791 506.639H283.843V560H365.791V506.639ZM95.0537 473.894H6.18721V553.937H95.0519V473.894H95.0537ZM385.216 272.576H324.818V319.874H385.216V272.576ZM349.357 340.49H323.208V367.477H349.357V340.49ZM6.18721 390.697H55.9745V320.294H6.18721V390.697ZM76.7643 165.852L-13 168.277V236.069H76.7643V165.852ZM401 168.277H342.725V242.256H401V168.277ZM126.858 161H102.338V214.361H126.858V161ZM396.143 353.983H336.281V402.494H396.143V353.983Z" fill="url(#paint2_linear)" stroke="#FFC700" stroke-width="1.5"/>
<rect x="504" y="328.705" width="8.86149" height="25.1423" fill="white"/>
<rect x="521.753" y="328.857" width="8.83104" height="25.1423" fill="white"/>
<rect x="512.862" y="320" width="8.89195" height="8.85765" fill="white"/>
<rect x="539.416" y="328.857" width="8.89195" height="25.1423" fill="white"/>
<rect x="530.584" y="320" width="8.83105" height="8.85765" fill="white"/>
<rect x="548.307" y="320" width="8.86149" height="8.85765" fill="white"/>
<rect x="557.169" y="327.792" width="8.83104" height="8.85766" fill="white"/>
<rect x="548.307" y="336.65" width="8.86149" height="8.82721" fill="white"/>
<rect x="40" y="390.425" width="7.57515" height="21.4449" fill="white"/>
<rect x="55.1763" y="390.555" width="7.54912" height="21.4449" fill="white"/>
<rect x="47.5752" y="383" width="7.60118" height="7.55506" fill="white"/>
<rect x="70.2747" y="390.555" width="7.60118" height="21.4449" fill="white"/>
<rect x="62.7253" y="383" width="7.54912" height="7.55506" fill="white"/>
<rect x="77.8757" y="383" width="7.57515" height="7.55506" fill="white"/>
<rect x="85.4509" y="389.646" width="7.54912" height="7.55506" fill="white"/>
<rect x="77.8757" y="397.201" width="7.57515" height="7.52909" fill="white"/>
<path d="M301.086 299.862H298.912V297.643H301.086V299.862Z" fill="#2A232B"/>
<path d="M511.747 520.177C506.874 509.645 493.561 494.037 478.77 489.726C460.486 484.393 419.214 477.946 403.91 474.362C391.642 471.486 366.934 449.299 358.275 441.851C356.721 440.52 355.45 437.77 355.419 435.726C355.11 411.617 364.728 347.571 364.728 347.571H299.999H235.272C235.272 347.571 244.89 411.615 244.577 435.726C244.553 437.77 243.274 440.52 241.725 441.851C233.066 449.299 208.358 471.486 196.09 474.362C180.784 477.946 139.512 484.613 121.23 489.945C106.435 494.255 93.1266 509.643 88.2533 520.175C80.0246 537.946 78.0806 570.107 78.0806 597.846H299.999H521.917C521.917 570.109 519.971 537.948 511.747 520.177Z" fill="#8C5537"/>
<path d="M431.277 485.292C485.296 493.152 508.03 504.617 515.149 597.851H521.917C521.917 570.111 519.971 537.951 511.747 520.18C506.873 509.648 493.561 494.04 478.77 489.728C460.486 484.395 419.213 477.949 403.91 474.365C391.642 471.489 363.428 447.581 355.88 438.081C363.337 448.52 384.266 472.711 402.603 479.047C411.375 482.079 418.681 483.459 431.277 485.292ZM197.397 479.047C215.734 472.714 236.661 448.52 244.12 438.081C236.575 447.579 208.36 471.489 196.09 474.365C180.787 477.949 139.514 484.615 121.23 489.948C106.439 494.257 93.1266 509.645 88.2533 520.178C80.029 537.949 78.0828 570.109 78.0828 597.849H84.8513C91.926 505.211 114.755 493.141 168.723 485.29C181.317 483.459 188.625 482.079 197.397 479.047Z" fill="#9B684D"/>
<path d="M290.337 515.389C290.337 515.389 279.076 511.818 274.618 510.109C251.43 501.213 176.097 495.447 176.097 495.447C176.097 495.447 255.442 498.596 272.951 501.614C271.935 491.035 266.256 457.222 266.256 457.222C266.256 457.222 277.683 494.537 280.479 503.951C281.975 508.984 290.337 515.389 290.337 515.389ZM314.302 512.411C314.104 512.573 313.878 512.783 313.631 513.005C313.882 512.817 314.108 512.619 314.302 512.411ZM290.337 515.389C290.337 515.389 296.757 522.028 299.983 522.113C304.222 522.226 310.698 515.679 313.634 513.005C310.826 515.129 304.404 516.092 301.85 516.192C298.898 516.305 290.337 515.389 290.337 515.389ZM336.979 498.703C333.551 499.253 327.246 500.454 327.246 500.454L332.321 467.41C330.888 474.225 322.393 503.385 314.302 512.411C318.54 508.824 327.967 507.105 332.774 506.41C355.49 503.117 355.481 503.119 423.898 495.447C423.898 495.447 359.384 495.103 336.979 498.703Z" fill="#7D4425"/>
<path d="M511.747 520.177C506.874 509.645 493.561 494.037 478.77 489.726C460.486 484.393 419.214 477.946 403.91 474.362C391.642 471.486 366.934 449.299 358.275 441.851C356.721 440.52 355.45 437.77 355.419 435.726C355.11 411.617 364.728 347.571 364.728 347.571H299.999H235.272C235.272 347.571 244.89 411.615 244.577 435.726C244.553 437.77 243.274 440.52 241.725 441.851C233.066 449.299 208.358 471.486 196.09 474.362C180.784 477.946 139.512 484.613 121.23 489.945C106.435 494.255 93.1266 509.643 88.2533 520.175C80.0246 537.946 78.0806 570.107 78.0806 597.846H299.999H521.917C521.917 570.109 519.971 537.948 511.747 520.177Z" stroke="#5E2709" stroke-width="4.5"/>
<path d="M300.003 456.016C331.367 456.016 342.168 445.331 353.75 435.511C353.599 420.552 357.065 391.27 359.819 370.538C325.071 365.665 274.922 365.667 240.174 370.538C242.928 391.27 246.392 420.538 246.239 435.498C257.832 445.322 268.626 456.016 300.003 456.016Z" fill="url(#paint3_linear)"/>
<path d="M364.038 604.95H235.021V480.27C284.398 490.697 316.865 489.894 364.04 480.27V604.95H364.038Z" fill="#F3F1F3"/>
<path d="M316.51 604.353C310.351 604.353 292.704 604.815 279.866 603.843L279.844 603.463C278.029 562.058 282.35 535.292 289.913 516.276L290.019 516.003L289.813 515.797C287.804 513.791 284.431 511.503 280.861 509.084C277.286 506.658 273.593 504.155 271.238 501.88C272.625 500.256 274.334 498.653 276.449 496.996C276.993 496.718 279.028 495.125 289.706 485.964C290.181 485.556 290.472 485.307 290.51 485.276C292.325 484.881 295.254 484.626 298.805 484.626C303.649 484.626 309.304 485.116 313.256 485.875C316.72 489.111 320.915 497.701 322.484 501.787C320.318 506.871 317.761 508.731 314.235 511.294C312.517 512.543 310.569 513.959 308.35 515.981L308.165 516.147L308.212 516.394C317.147 561.465 317.149 571.993 317.149 582.175C317.151 586.66 317.151 596.841 317.901 604.333C317.568 604.349 317.095 604.353 316.51 604.353Z" fill="#131111"/>
<path d="M322.968 501.796C321.294 497.369 316.954 488.636 313.469 485.465C307.087 484.215 295.754 483.594 290.235 484.932C289.995 485.128 276.369 496.878 276.232 496.605C274.221 498.176 272.264 499.943 270.639 501.909C275.213 506.516 285.408 512.02 289.502 516.112C281.402 536.484 277.674 564.024 279.405 603.503C279.427 603.747 279.427 604.014 279.449 604.258C294.442 605.412 316.177 604.992 318.396 604.753C315.822 579.66 321.587 581.551 308.654 516.311C315.462 510.109 319.672 509.663 322.968 501.796ZM311.317 544.049C311.27 543.938 311.228 543.827 311.204 543.761C315.642 567.173 314.266 585.108 317.619 603.616C307.109 602.911 290.958 603.501 280.401 603.501C281.22 587.527 283.038 533.188 290.92 515.311C291.298 515.209 291.673 515.124 292.05 515.033L289.76 592.119L295.856 514.301C295.9 514.296 295.945 514.29 295.989 514.283L299.986 586.64L300.911 513.997C300.969 513.999 301.024 513.995 301.082 513.997L310.4 594.675L305.296 514.481C305.993 514.62 306.692 514.794 307.387 514.998C307.453 514.998 307.542 515.02 307.609 515.064C307.839 517.288 309.686 533.71 311.317 544.049ZM309.362 513.404C303.206 510.628 295.241 511.127 289.103 513.937C285.372 509.914 280.049 507.109 272.392 501.973C273.613 500.91 275.188 499.599 277.297 497.957C277.474 497.957 285.019 491.807 285.153 491.676C287.194 489.812 289.014 487.704 290.745 485.862C297.247 485.596 306.79 485.906 312.537 486.173C315.866 490.336 319.042 496.594 321.436 501.574C317.084 507.945 312.779 510.783 309.362 513.404Z" fill="black"/>
<path d="M251.612 549.691C226.016 460.766 237.575 484.045 230.754 449.117C235.254 438.436 239.537 425.949 241.943 423.379L242.12 423.188C247.207 476.464 262 453.449 294.901 484.709C276.094 497.256 258.66 529.829 251.612 549.691ZM369.222 449.12C366.008 440.904 360.174 428.865 357.649 426.193C360.809 472.082 324.037 462.923 303.612 484.336C323.167 497.014 341.722 530.184 348.377 549.702C377.493 453.136 361.803 495.534 369.222 449.12Z" fill="#F3F1F4"/>
<path d="M357.256 425.172C357.256 436.572 356.324 445.504 354.456 448.116C349.034 461.008 325.378 469.982 318.083 473.659C312.546 476.382 307.116 479.893 302.926 484.422C311.388 489.917 315.587 491.93 331.62 516.467C341.043 532.243 346.131 544.092 348.399 551.175C378.088 452.797 362.207 495.744 369.681 449.071C366.162 440.003 359.475 427.209 357.256 425.172ZM365.352 468.508C361.009 508.627 357.605 500.653 348.175 544.362C342.148 525.18 323.598 493.514 305.057 484.242C313.793 477.68 316.221 477.294 326.647 472.527C358.594 458.28 359.901 445.043 358.022 427.542C360.7 430.7 364.957 441.215 368.434 448.671C366.528 455.653 365.662 465.621 365.352 468.508ZM253.838 458.302C244.056 450.205 246.825 440.189 242.322 422.318C240.321 424.538 235.341 437.036 230.294 449.071C231.531 455.275 231.806 465.468 231.981 468.688C233.222 495.767 235.865 497.016 251.576 551.153C258.303 531.391 277.226 497.072 296.493 484.558C281.112 470.519 261.751 465.189 253.838 458.302ZM265.955 514.912C261.026 523.047 255.93 531.511 251.818 544.382C241.961 499.402 238.505 506.736 234.664 468.575C233.954 461.982 233.295 455.2 231.557 448.691C235.192 440.729 240.392 425.876 242.056 424.291C245.088 439.999 242.203 454.166 254.637 462.006C260.453 466.436 279.278 473.812 293.517 484.997C284.882 490.123 280.235 493.144 265.955 514.912Z" fill="#CFC8D7"/>
<path d="M345.091 542.472L342.408 536.582C342.408 536.582 362.709 474.057 366.248 456.192C368.272 474.731 345.091 542.472 345.091 542.472ZM253.128 540.024L256.314 532.792C256.314 532.792 237.289 474.057 233.75 456.192C231.726 474.731 253.128 540.024 253.128 540.024Z" fill="#E1E0E1"/>
<path d="M355.006 510.917C370.684 464.683 361.122 460.872 368.998 445.52C369.295 444.941 372.096 447.841 372.4 449.159C375.298 461.715 490.791 487.636 494.441 490.432C497.673 492.78 506.98 497.393 506.98 497.393C517.936 517.521 524.205 521.134 527.285 575.029C527.574 581.871 527.15 601.218 527.15 606.411L337.279 604.911C337.734 587.621 339.942 556.51 355.006 510.917ZM244.992 510.917C229.313 464.683 238.876 460.872 231 445.52C230.702 444.941 227.902 447.841 227.598 449.159C224.7 461.715 109.207 487.636 105.556 490.432C102.325 492.78 93.0177 497.393 93.0177 497.393C82.0616 517.521 75.7924 521.134 72.7121 575.029C72.4237 581.871 72.8475 601.218 72.8475 606.411L262.719 604.911C262.264 587.621 260.056 556.51 244.992 510.917Z" fill="#343434"/>
<path d="M367.256 498.479C357.154 534.845 343.353 567.531 337.283 604.911C335.308 604.896 340.592 554.547 355.006 510.92C370.684 464.685 361.122 460.875 368.998 445.523C369.169 445.19 367.624 449.908 368.503 450.92C368.179 468.067 372.4 481.329 367.256 498.479ZM232.742 498.479C242.844 534.845 256.645 567.531 262.714 604.911C264.689 604.896 259.405 554.547 244.992 510.92C229.313 464.685 238.876 460.875 231 445.523C230.829 445.19 232.374 449.908 231.495 450.92C231.819 468.067 227.598 481.329 232.742 498.479Z" fill="#252121"/>
<path d="M416.364 489.67C416.364 489.67 411.296 495.353 397.199 505.034C408.99 491.974 414.422 486.728 414.422 486.728L416.364 489.67ZM421.191 516.023L417.8 512.989C407.729 543.572 400.998 558.676 389.332 594.251C406.074 562.459 410.068 551.173 421.191 516.023ZM185.576 486.728C185.576 486.728 191.006 491.974 202.799 505.034C188.702 495.353 183.634 489.67 183.634 489.67L185.576 486.728ZM210.666 594.251C198.999 558.676 192.269 543.572 182.198 512.989L178.807 516.023C189.93 551.173 193.924 562.459 210.666 594.251Z" fill="#151111"/>
<path d="M476.222 563.579C476.222 537.845 483.124 522.854 497.559 501.126C498.909 501.952 499.625 502.331 500.544 503.068C485.194 522.115 482.145 539.887 476.222 563.579ZM391.678 588.806C405.244 551.739 409.564 537.259 418.545 512.493C415.993 511.714 399.303 505.869 396.755 505.068C397.665 507.287 403.663 509.111 414.114 515.518C414.114 515.52 402.82 549.702 391.678 588.806ZM409.922 486.444C409.922 486.444 402.483 495.632 395.133 504.926C402.652 499 407.889 492.4 414.42 486.728C405.556 479.254 391.094 467.812 381.751 459.901C389.128 467.827 409.922 486.444 409.922 486.444ZM526.518 606.407L527.152 606.411C527.152 601.218 527.574 581.871 527.288 575.03C524.205 521.134 517.936 517.522 506.982 497.394C506.982 497.394 497.675 492.78 494.444 490.432C491.483 488.166 408.353 468.413 377.959 455.191C413.49 479.538 480.667 488.539 500.546 503.068C510.16 510.096 523.104 570.241 526.518 606.407ZM99.4134 502.999C100.616 502.149 100.787 502.187 102.005 501.381C116.441 523.11 123.773 537.845 123.773 563.576C117.853 539.887 113.765 521.376 99.4134 502.999ZM185.884 515.52C196.334 509.113 202.332 507.289 203.242 505.07C200.695 505.869 184.004 511.716 181.452 512.495C190.435 537.261 194.754 551.741 208.32 588.808C197.177 549.702 185.884 515.52 185.884 515.52ZM218.244 459.901C208.901 467.81 194.439 479.254 185.575 486.728C192.106 492.403 197.346 499 204.862 504.926C197.51 495.632 190.074 486.444 190.074 486.444C190.074 486.444 210.87 467.827 218.244 459.901ZM99.4533 503.068C119.333 488.539 186.51 479.536 222.041 455.191C191.647 468.413 108.516 488.164 105.556 490.432C102.325 492.78 93.0177 497.394 93.0177 497.394C82.0616 517.522 75.7924 521.134 72.7121 575.03C72.4237 581.871 72.8475 601.218 72.8475 606.411L73.4822 606.407C76.8931 570.241 89.8376 510.096 99.4533 503.068Z" fill="#434343"/>
<path d="M371.559 446.048C371.45 445.397 370.576 444.641 369.921 444.59C369.264 444.539 368.962 445.606 368.663 446.192C360.787 461.544 369.581 464.684 353.903 510.919C338.839 556.512 337.073 588.284 336.622 605.574L527.155 606.41C527.155 601.217 528.24 581.871 527.951 575.029C524.869 521.134 518.38 517.079 507.424 496.949C507.424 496.949 497.673 492.113 494.442 489.768C483.592 481.464 493.132 489.819 445.553 476.453C406.549 465.057 404.443 461.857 390.297 457.923C387.439 457.104 381.294 456.098 374.874 451.596C374.286 451.185 371.77 447.313 371.559 446.048ZM337.667 603.468C345.943 551.175 351.171 537.491 362.735 498.558C370.551 473.916 366.233 459.926 369.956 448.538C370.152 447.943 370.993 447.912 371.224 448.5C376.625 462.29 391.724 465.49 413.02 486.33C400.12 499.23 396.8 502.708 395.133 504.927C397.05 505.899 407.521 509.874 417.103 513.582C416.559 515.284 387.333 597.955 386.989 599.065C409.181 551.179 412.048 536.459 418.546 512.494C416.744 511.136 401.032 505.366 398.373 504.417C407.858 494.599 410.601 492.442 415.084 486.728C418.683 486.728 379.856 457.172 377.957 455.191C378.982 455.998 384.064 458.278 384.636 458.5C417.218 469.964 391.438 464.778 462.752 485.132C469.569 486.865 479.074 488.609 486.12 489.302C486.603 489.346 498.092 495.354 504.65 498.112C488.696 514.7 478.47 536.133 476.222 563.578C483.366 535.47 487.209 520.77 505.382 499.623C522.292 533.847 520.373 528.905 525.865 605.5C480.123 603.696 409.979 603.283 337.667 603.468ZM225.126 451.598C218.704 456.098 212.561 457.104 209.703 457.925C195.557 461.857 193.451 465.059 154.447 476.455C106.868 489.821 116.406 481.466 105.558 489.77C102.327 492.118 92.5762 496.951 92.5762 496.951C81.6201 517.079 75.1312 521.134 72.0488 575.031C71.7603 581.873 72.8455 601.22 72.8455 606.413L263.378 605.576C262.927 588.286 261.161 556.514 246.097 510.921C230.419 464.687 239.211 461.546 231.337 446.194C231.036 445.608 230.736 444.541 230.079 444.592C229.424 444.643 228.55 445.4 228.441 446.05C228.228 447.313 225.712 451.185 225.126 451.598ZM74.1326 605.5C79.6273 528.905 77.7055 533.847 94.6157 499.623C112.786 520.77 116.632 535.47 123.776 563.578C121.528 536.133 111.304 514.7 95.348 498.112C101.906 495.354 113.394 489.346 113.878 489.302C120.924 488.609 130.429 486.865 137.246 485.132C208.56 464.778 182.782 469.964 215.361 458.5C215.934 458.275 221.016 455.998 222.041 455.191C220.142 457.172 181.313 486.728 184.914 486.728C189.399 492.442 192.14 494.599 201.625 504.417C198.966 505.366 183.254 511.134 181.452 512.494C187.95 536.459 190.817 551.179 213.009 599.065C212.665 597.955 183.438 515.284 182.895 513.582C192.477 509.871 202.947 505.897 204.865 504.927C203.198 502.708 199.878 499.23 186.978 486.33C208.273 465.49 223.373 462.29 228.774 448.5C229.005 447.91 229.846 447.943 230.041 448.538C233.765 459.926 229.444 473.916 237.263 498.558C248.827 537.491 254.055 551.175 262.33 603.468C190.018 603.283 119.874 603.696 74.1326 605.5Z" fill="#060404"/>
<path d="M185.713 261.538C182.66 256.094 173.202 242.719 163.566 245.997C157.465 248.072 156.258 254.858 155.277 260.85C153.972 268.819 156.322 284.582 158.36 290.276C160.315 295.751 166.2 306.321 170.041 310.349C174.768 315.286 180.638 331.04 181.568 332.676C183.033 335.254 184.977 339.136 190.715 338.65C197.047 338.108 200.888 334.544 203.711 333.943C210.684 332.465 193.66 275.707 185.713 261.538Z" fill="#8C5537" stroke="#5E2709" stroke-width="4.5"/>
<path d="M179.491 294.543C179.198 293.253 179.506 291.081 179.806 288.986C180.081 287.075 180.339 285.269 180.181 283.991C179.588 279.211 176.246 270.123 174.063 265.201C171.551 259.533 167.487 252.396 162.385 250.556C160.277 249.795 158.89 250.705 158.085 251.63C157.494 252.307 157.363 253.106 157.556 253.199C157.747 253.293 158.189 252.636 158.826 252.012C159.347 251.504 160.111 251.067 161.158 251.158C160.736 253.539 158.568 266.432 159.507 275.225C160.246 282.138 163.042 287.302 163.479 288.076C163.544 288.891 163.65 289.687 163.808 290.462C165.869 300.552 174.839 312.026 177.962 315.78C178.537 316.475 179.14 316.883 179.289 316.719C179.435 316.55 179.08 315.86 178.505 315.166C175.425 311.44 166.542 300.006 164.549 290.271C162.436 279.938 169.693 264.626 171.313 261.384C172.136 262.904 172.838 264.366 173.377 265.585C173.799 266.541 174.269 267.662 174.751 268.867C173.799 270.558 167.13 282.892 169.562 292.761C170.463 296.403 174.522 301.094 177.212 302.377C178.692 303.087 179.251 304.145 179.895 305.37C180.64 306.791 181.488 308.399 183.951 309.569C184.451 309.809 184.903 309.904 185.305 309.904C186 309.904 186.528 309.604 186.914 309.254C186.954 309.875 186.952 310.674 186.934 311.406C186.907 312.363 187.027 313.144 187.238 313.162C187.447 313.18 187.673 312.425 187.697 311.475C187.733 310.308 187.726 308.863 187.538 308.173C186.987 306.138 185.301 303.839 183.514 301.409C181.763 299.008 179.948 296.538 179.491 294.543ZM163.408 285.597C158.577 269.755 164.864 256.082 165.947 253.907C167.833 255.732 169.498 258.166 170.852 260.554C169.866 262.458 163.61 274.941 163.408 285.597ZM184.249 308.77C182.021 307.716 181.277 306.296 180.552 304.924C179.901 303.684 179.225 302.403 177.514 301.584C177.141 301.405 176.732 301.134 176.311 300.823C170.794 286.924 176.914 280.848 178.448 279.603C178.916 281.303 179.267 282.861 179.422 284.11C179.562 285.258 179.307 287.082 179.051 288.846C178.736 291.032 178.417 293.293 178.747 294.758C179.249 296.937 181.12 299.487 182.928 301.953C184.533 304.141 186.182 306.398 186.748 308.237C186.508 308.601 185.749 309.482 184.249 308.77Z" fill="#5E2709"/>
<path d="M413.701 261.538C416.757 256.094 426.215 242.719 435.849 245.997C441.951 248.072 443.156 254.858 444.139 260.85C445.444 268.819 443.094 284.582 441.057 290.276C439.102 295.751 433.217 306.321 429.371 310.349C424.646 315.286 418.774 331.04 417.847 332.676C416.386 335.254 414.44 339.136 408.701 338.65C402.368 338.108 398.529 334.544 395.704 333.943C388.731 332.465 405.756 275.707 413.701 261.538Z" fill="#8C5537" stroke="#5E2709" stroke-width="4.5"/>
<path d="M415.9 301.405C414.114 303.837 412.429 306.134 411.877 308.169C411.686 308.859 411.681 310.304 411.717 311.471C411.744 312.421 411.968 313.176 412.176 313.158C412.385 313.14 412.505 312.359 412.48 311.403C412.463 310.668 412.463 309.871 412.503 309.25C412.889 309.601 413.417 309.9 414.111 309.9C414.515 309.9 414.966 309.805 415.463 309.565C417.924 308.398 418.774 306.787 419.52 305.366C420.161 304.141 420.725 303.085 422.203 302.373C424.894 301.09 428.951 296.399 429.852 292.757C432.284 282.888 425.618 270.554 424.664 268.863C425.145 267.656 425.618 266.535 426.037 265.581C426.579 264.362 427.278 262.9 428.101 261.38C429.721 264.62 436.978 279.934 434.867 290.267C432.879 300.003 423.993 311.436 420.911 315.162C420.338 315.856 419.983 316.547 420.13 316.715C420.276 316.879 420.88 316.473 421.457 315.777C424.577 312.022 433.549 300.548 435.613 290.458C435.768 289.681 435.873 288.887 435.937 288.072C436.374 287.298 439.175 282.134 439.912 275.221C440.848 266.431 438.68 253.535 438.261 251.154C439.31 251.061 440.067 251.5 440.593 252.008C441.23 252.632 441.671 253.289 441.862 253.196C442.053 253.102 441.922 252.303 441.334 251.627C440.529 250.701 439.142 249.791 437.033 250.552C431.931 252.394 427.866 259.529 425.356 265.197C423.172 270.119 419.83 279.207 419.236 283.987C419.076 285.265 419.335 287.071 419.613 288.982C419.912 291.079 420.219 293.252 419.926 294.539C419.471 296.538 417.656 299.008 415.9 301.405ZM428.565 260.552C429.921 258.167 431.585 255.73 433.472 253.906C434.555 256.08 440.839 269.753 436.013 285.596C435.806 274.941 429.553 262.458 428.565 260.552ZM412.667 308.238C413.23 306.398 414.882 304.141 416.486 301.953C418.297 299.488 420.165 296.938 420.669 294.759C420.998 293.294 420.678 291.033 420.365 288.847C420.11 287.082 419.855 285.258 419.997 284.111C420.148 282.862 420.5 281.302 420.969 279.604C422.502 280.849 428.623 286.925 423.11 300.824C422.686 301.134 422.278 301.407 421.905 301.585C420.194 302.404 419.522 303.684 418.867 304.925C418.144 306.296 417.398 307.716 415.17 308.771C413.668 309.483 412.909 308.602 412.667 308.238Z" fill="#5E2709"/>
<path d="M300.004 78.7744C226.891 78.8942 167.515 140.557 167.628 216.53C167.645 228.596 169.159 240.293 171.982 251.441H171.984C172.01 251.561 197.086 337.612 202.475 365.875C205.48 381.638 223.779 395.842 240.023 407.434C255.174 418.253 262.921 433.806 300.004 433.806C337.086 433.806 344.833 418.253 359.985 407.434C376.226 395.84 394.527 381.638 397.532 365.875C402.924 337.612 427.999 251.558 428.023 251.441H428.028C430.85 240.295 432.364 228.596 432.381 216.53C432.495 140.557 373.116 78.8942 300.004 78.7744Z" fill="#8C5537"/>
<path d="M401.719 128.411C417.982 151.522 427.636 180.315 427.595 211.536C427.575 223.602 426.118 235.299 423.397 246.447H423.393C423.369 246.566 399.201 332.615 394.007 360.883C391.104 376.646 373.41 390.85 357.758 402.442C343.147 413.259 335.746 428.816 300.001 428.816C264.261 428.816 256.849 413.259 242.245 402.442C226.593 390.848 208.895 376.646 206.002 360.883C200.807 332.618 176.638 246.566 176.614 246.447C173.891 235.301 172.434 223.602 172.415 211.536C172.369 180.324 182.016 151.542 198.271 128.436C179.106 152.32 167.578 183.029 167.628 216.531C167.645 228.597 169.159 240.293 171.982 251.441H171.984C172.01 251.561 197.086 337.613 202.475 365.876C205.48 381.639 223.779 395.843 240.023 407.434C255.174 418.254 262.921 433.807 300.004 433.807C337.086 433.807 344.833 418.254 359.985 407.434C376.226 395.84 394.527 381.639 397.532 365.876C402.924 337.613 427.999 251.559 428.023 251.441H428.028C430.85 240.296 432.364 228.597 432.381 216.531C432.431 183.02 420.894 152.3 401.719 128.411Z" fill="#844C2D"/>
<path d="M300.004 78.7744C226.891 78.8942 167.515 140.557 167.628 216.53C167.645 228.596 169.159 240.293 171.982 251.441H171.984C172.01 251.561 197.086 337.612 202.475 365.875C205.48 381.638 223.779 395.842 240.023 407.434C255.174 418.253 262.921 433.806 300.004 433.806C337.086 433.806 344.833 418.253 359.985 407.434C376.226 395.84 394.527 381.638 397.532 365.875C402.924 337.612 427.999 251.558 428.023 251.441H428.028C430.85 240.295 432.364 228.596 432.381 216.53C432.495 140.557 373.116 78.8942 300.004 78.7744Z" stroke="#5E2709" stroke-width="4.45455"/>
<path d="M291.626 385.826L310.039 385.366C307.906 395.286 293.084 393.861 291.626 385.826Z" fill="url(#paint4_linear)"/>
<path d="M291.883 386.454C291.06 386.343 291.184 385.169 292.061 385.251C292.156 385.264 301.621 386.463 309.544 384.774C310.4 384.608 310.653 385.784 309.832 385.959C303.625 387.286 295.594 386.975 291.883 386.454ZM300.183 378.531C296.848 378.531 293.614 377.375 290.365 376.809C286.726 376.172 283.1 376.718 279.458 377.04C275.739 377.371 267.623 377.011 265.333 375.562C264.05 374.748 264.29 372.853 265.735 372.347C267.097 371.858 269.221 372.87 270.597 373.117C276.97 374.26 280.326 373.041 285.914 372.855C294.46 372.597 295.368 376.186 306.028 374.031C317.491 371.714 322.652 373.467 330.877 370.991C332.004 370.649 333.344 369.748 334.527 370.356C335.892 371.062 335.825 372.986 334.418 373.605C326.86 376.938 318.498 375.591 310.107 376.991C306.818 377.537 303.541 378.531 300.183 378.531Z" fill="#5E2709"/>
<path d="M213.322 261.363C212.843 267.487 217.055 274.762 241.044 276.817C262.244 278.632 271.269 275.135 271.897 268.158C272.525 261.181 264.337 252.652 243.314 251.554C224.604 250.577 213.868 254.379 213.322 261.363Z" fill="url(#paint5_radial)"/>
<path d="M256.725 263.799C256.725 271.151 250.762 277.114 243.41 277.114C236.058 277.114 230.095 271.151 230.095 263.799C230.095 256.444 236.058 250.483 243.41 250.483C250.762 250.481 256.725 256.444 256.725 263.799Z" fill="black"/>
<path opacity="0.7" d="M241.918 250.631C241.867 250.638 241.814 250.644 241.761 250.651C241.825 250.95 241.887 251.252 241.949 251.552C241.936 251.248 241.929 250.937 241.918 250.631ZM241.947 251.55C242.103 255.926 242.358 259.825 243.095 261.234C243.483 259.69 242.822 255.842 241.947 251.55ZM243.097 261.236C243.001 261.607 242.857 261.86 242.635 261.944C242.413 262.029 242.134 261.931 241.818 261.716C241.909 262.086 241.901 262.375 241.739 262.555C241.579 262.734 241.293 262.779 240.911 262.728C241.162 263.016 241.29 263.28 241.235 263.511C241.175 263.742 240.937 263.915 240.585 264.048C240.937 264.188 241.175 264.361 241.23 264.592C241.286 264.823 241.157 265.087 240.909 265.373C241.286 265.326 241.577 265.375 241.732 265.555C241.889 265.735 241.898 266.025 241.81 266.396C242.122 266.181 242.398 266.087 242.62 266.174C242.844 266.258 242.988 266.511 243.077 266.884C243.256 266.547 243.456 266.332 243.698 266.307C243.929 266.276 244.177 266.438 244.428 266.724C244.43 266.343 244.51 266.061 244.71 265.925C244.905 265.79 245.196 265.817 245.551 265.954C245.378 265.617 245.318 265.331 245.429 265.118C245.54 264.907 245.813 264.794 246.192 264.749C245.88 264.53 245.689 264.305 245.693 264.066C245.693 263.826 245.88 263.602 246.197 263.387C245.82 263.34 245.551 263.227 245.438 263.016C245.329 262.805 245.389 262.517 245.567 262.179C245.207 262.313 244.919 262.339 244.723 262.204C244.526 262.069 244.446 261.787 244.446 261.405C244.197 261.689 243.949 261.847 243.714 261.816C243.474 261.784 243.272 261.576 243.097 261.236ZM244.444 261.403C245.507 260.216 246.71 256.501 247.928 252.295C246.033 256.239 244.446 259.809 244.444 261.403ZM247.926 252.295C248.059 252.025 248.194 251.749 248.321 251.474C248.274 251.459 248.227 251.436 248.181 251.416C248.097 251.712 248.012 252.007 247.926 252.295ZM245.567 262.179C247.058 261.62 249.852 258.888 252.883 255.733C249.375 258.343 246.308 260.768 245.567 262.179ZM252.883 255.733C253.105 255.566 253.334 255.4 253.56 255.233C253.529 255.193 253.494 255.16 253.467 255.125C253.274 255.324 253.081 255.531 252.883 255.733ZM246.192 263.387C247.775 263.582 251.519 262.461 255.673 261.077C251.35 261.76 247.511 262.481 246.192 263.387ZM255.673 261.079C255.917 261.043 256.172 261.003 256.421 260.963C256.412 260.921 256.401 260.879 256.39 260.837C256.152 260.917 255.908 260.999 255.673 261.079ZM246.19 264.747C247.5 265.661 251.334 266.405 255.648 267.106C251.51 265.701 247.775 264.558 246.19 264.747ZM255.651 267.106C255.861 267.179 256.075 267.255 256.283 267.324C256.294 267.286 256.303 267.25 256.31 267.213C256.094 267.179 255.87 267.144 255.651 267.106ZM245.551 265.952C246.29 267.366 249.342 269.809 252.835 272.441C249.819 269.268 247.045 266.52 245.551 265.952ZM252.837 272.437C252.968 272.574 253.103 272.716 253.234 272.856C253.256 272.829 253.276 272.809 253.301 272.785C253.145 272.67 252.985 272.552 252.837 272.437ZM244.43 266.722C244.424 268.318 245.991 271.895 247.864 275.85C246.667 271.64 245.489 267.916 244.43 266.722ZM247.864 275.852C247.91 276.018 247.959 276.189 248.003 276.36C248.037 276.347 248.059 276.338 248.09 276.329C248.017 276.169 247.939 276.005 247.864 275.852ZM243.079 266.882C242.333 268.296 242.056 272.186 241.876 276.56C242.773 272.277 243.458 268.431 243.079 266.882ZM241.876 276.56C241.838 276.726 241.807 276.895 241.772 277.066C241.803 277.072 241.827 277.072 241.858 277.077C241.863 276.906 241.872 276.728 241.876 276.56ZM241.812 266.394C240.489 267.297 238.436 270.619 236.246 274.405C239.029 271.032 241.426 267.943 241.812 266.394ZM236.246 274.405C236.128 274.545 236.006 274.693 235.887 274.833C235.915 274.851 235.94 274.864 235.971 274.887C236.06 274.727 236.155 274.565 236.246 274.405ZM240.913 265.375C239.324 265.559 235.962 267.545 232.263 269.878C236.297 268.187 239.848 266.569 240.913 265.375ZM232.26 269.882C232.07 269.962 231.874 270.042 231.677 270.126C231.69 270.155 231.71 270.186 231.728 270.215C231.908 270.106 232.085 269.993 232.26 269.882ZM240.587 264.05C239.098 263.48 235.196 263.677 230.834 264.026C235.192 264.399 239.093 264.614 240.587 264.05ZM230.834 264.026C230.596 264.004 230.352 263.981 230.117 263.961C230.117 264.004 230.112 264.046 230.117 264.086C230.359 264.064 230.6 264.044 230.834 264.026ZM240.913 262.732C239.863 261.536 236.322 259.898 232.3 258.181C235.982 260.533 239.333 262.539 240.913 262.732ZM232.3 258.181C232.07 258.032 231.837 257.883 231.601 257.734C231.581 257.777 231.559 257.819 231.537 257.857C231.794 257.965 232.052 258.072 232.3 258.181ZM241.821 261.716C241.446 260.167 239.067 257.069 236.306 253.676C238.472 257.475 240.507 260.806 241.821 261.716ZM236.306 253.676C236.157 253.42 236.013 253.161 235.864 252.901C235.822 252.93 235.778 252.959 235.74 252.988C235.927 253.216 236.122 253.447 236.306 253.676Z" fill="url(#paint6_radial)"/>
<path opacity="0.4" d="M245.376 250.675C245.323 250.668 245.272 250.659 245.22 250.652C245.205 250.959 245.185 251.267 245.167 251.571C245.234 251.274 245.307 250.972 245.376 250.675ZM245.165 251.569C244.184 255.834 243.419 259.667 243.769 261.222C244.544 259.829 244.899 255.941 245.165 251.569ZM243.767 261.222C243.581 261.555 243.376 261.762 243.139 261.786C242.904 261.808 242.66 261.644 242.413 261.353C242.404 261.733 242.32 262.012 242.118 262.143C241.918 262.274 241.628 262.243 241.275 262.097C241.443 262.441 241.499 262.729 241.384 262.936C241.266 263.144 240.993 263.251 240.618 263.286C240.922 263.51 241.106 263.739 241.099 263.979C241.095 264.216 240.902 264.438 240.587 264.649C240.962 264.702 241.23 264.824 241.335 265.035C241.441 265.248 241.375 265.534 241.193 265.867C241.55 265.741 241.841 265.723 242.034 265.863C242.227 266.002 242.3 266.284 242.291 266.668C242.551 266.391 242.799 266.233 243.039 266.271C243.272 266.302 243.47 266.522 243.638 266.866C243.738 266.495 243.889 266.247 244.118 266.167C244.342 266.087 244.617 266.189 244.923 266.413C244.843 266.042 244.859 265.749 245.021 265.574C245.183 265.399 245.476 265.361 245.855 265.414C245.609 265.121 245.482 264.857 245.549 264.627C245.611 264.396 245.851 264.227 246.212 264.101C245.857 263.959 245.629 263.779 245.573 263.546C245.522 263.313 245.655 263.051 245.915 262.771C245.533 262.807 245.247 262.758 245.094 262.576C244.939 262.394 244.934 262.101 245.032 261.735C244.717 261.944 244.437 262.032 244.217 261.941C243.989 261.85 243.851 261.595 243.767 261.222ZM245.027 261.735C246.361 260.861 248.483 257.583 250.748 253.839C247.897 257.157 245.442 260.193 245.027 261.735ZM250.748 253.837C250.946 253.611 251.148 253.38 251.343 253.147C251.301 253.118 251.263 253.085 251.221 253.054C251.064 253.318 250.906 253.582 250.748 253.837ZM245.911 262.774C247.497 262.618 250.904 260.701 254.648 258.439C250.58 260.053 246.991 261.602 245.911 262.774ZM254.645 258.437C254.905 258.335 255.167 258.233 255.431 258.131C255.409 258.084 255.384 258.042 255.369 258C255.129 258.147 254.889 258.295 254.645 258.437ZM246.204 264.103C247.682 264.702 251.587 264.587 255.957 264.327C251.605 263.865 247.71 263.568 246.204 264.103ZM255.957 264.325C256.205 264.354 256.458 264.38 256.709 264.407C256.709 264.362 256.711 264.32 256.714 264.278C256.461 264.294 256.205 264.309 255.957 264.325ZM245.851 265.417C246.876 266.639 250.391 268.348 254.377 270.141C250.74 267.711 247.429 265.643 245.851 265.417ZM254.375 270.141C254.559 270.268 254.745 270.394 254.929 270.514C254.949 270.481 254.967 270.447 254.985 270.414C254.785 270.328 254.577 270.234 254.375 270.141ZM244.919 266.415C245.265 267.971 247.582 271.12 250.276 274.568C248.183 270.72 246.215 267.347 244.919 266.415ZM250.276 274.562C250.369 274.728 250.46 274.901 250.553 275.07C250.58 275.05 250.606 275.035 250.635 275.017C250.515 274.866 250.393 274.711 250.276 274.562ZM243.638 266.868C243.221 268.406 243.807 272.267 244.592 276.572C244.524 272.196 244.351 268.295 243.638 266.868ZM244.59 276.572C244.592 276.746 244.597 276.923 244.597 277.101C244.628 277.096 244.657 277.092 244.688 277.092C244.657 276.921 244.624 276.743 244.59 276.572ZM242.291 266.67C241.204 267.842 239.93 271.528 238.625 275.707C240.598 271.803 242.258 268.266 242.291 266.67ZM238.623 275.707C238.545 275.858 238.468 276.013 238.392 276.169C238.419 276.182 238.443 276.188 238.472 276.202C238.521 276.04 238.574 275.869 238.623 275.707ZM241.19 265.872C239.681 266.402 236.836 269.08 233.741 272.17C237.307 269.631 240.418 267.267 241.19 265.872ZM233.743 272.17C233.594 272.274 233.439 272.387 233.288 272.491C233.31 272.516 233.332 272.536 233.352 272.562C233.479 272.431 233.612 272.303 233.743 272.17ZM240.587 264.653C239.005 264.422 235.245 265.47 231.064 266.766C235.403 266.176 239.249 265.532 240.587 264.653ZM231.064 266.77C230.86 266.799 230.649 266.824 230.436 266.857C230.443 266.89 230.454 266.923 230.465 266.954C230.667 266.897 230.867 266.83 231.064 266.77ZM240.616 263.293C239.324 262.354 235.505 261.535 231.202 260.743C235.316 262.232 239.027 263.45 240.616 263.293ZM231.202 260.743C230.978 260.661 230.747 260.577 230.525 260.494C230.514 260.537 230.501 260.577 230.492 260.614C230.734 260.656 230.971 260.701 231.202 260.743ZM241.275 262.101C240.569 260.674 237.573 258.175 234.131 255.475C237.078 258.704 239.797 261.509 241.275 262.101ZM234.129 255.477C233.945 255.275 233.758 255.071 233.572 254.867C233.541 254.902 233.508 254.935 233.479 254.969C233.698 255.137 233.918 255.306 234.129 255.477ZM242.413 261.355C242.451 259.762 240.957 256.154 239.164 252.164C240.274 256.393 241.379 260.137 242.413 261.355ZM239.164 252.164C239.089 251.88 239.016 251.589 238.94 251.3C238.894 251.316 238.845 251.334 238.8 251.351C238.92 251.622 239.044 251.895 239.164 252.164Z" fill="url(#paint7_radial)"/>
<path d="M248.634 263.799C248.634 266.684 246.297 269.021 243.412 269.021C240.529 269.021 238.188 266.684 238.188 263.799C238.188 260.916 240.529 258.575 243.412 258.575C246.297 258.575 248.634 260.914 248.634 263.799Z" fill="black"/>
<path opacity="0.9" d="M248.634 263.799C248.634 266.684 246.297 269.021 243.412 269.021C240.529 269.021 238.188 266.684 238.188 263.799C238.188 260.916 240.529 258.575 243.412 258.575C246.297 258.575 248.634 260.914 248.634 263.799Z" fill="black"/>
<path opacity="0.5" d="M236.124 269.898C237.121 269.228 238.474 269.498 239.142 270.493C239.81 271.489 239.546 272.843 238.548 273.511C237.549 274.183 236.197 273.917 235.529 272.918C234.862 271.922 235.128 270.566 236.124 269.898Z" fill="url(#paint8_linear)"/>
<path opacity="0.5" d="M247.537 263.071C246.98 263.901 245.387 263.806 243.973 262.858C242.557 261.911 241.865 260.466 242.42 259.638V259.636C242.975 258.806 244.57 258.902 245.982 259.851C247.4 260.797 248.092 262.239 247.537 263.071Z" fill="url(#paint9_linear)"/>
<path opacity="0.75" d="M253.875 260.854C252.615 262.791 249.357 262.907 246.608 261.114C243.856 259.321 242.649 256.298 243.911 254.361C245.172 252.426 248.43 252.31 251.179 254.101C253.929 255.896 255.136 258.921 253.875 260.854Z" fill="url(#paint10_linear)"/>
<path d="M201.849 269.223C204.518 299.746 225.49 322.845 248.687 320.817C271.884 318.786 288.526 292.396 285.856 261.873C283.186 231.351 262.215 208.249 239.018 210.28C215.819 212.31 199.179 238.701 201.849 269.223ZM213.322 261.363C213.868 254.381 224.604 250.578 243.316 251.556C264.339 252.655 272.528 261.183 271.9 268.16C271.272 275.137 262.244 278.635 241.046 276.82C217.055 274.762 212.843 267.488 213.322 261.363Z" fill="#8C5537"/>
<path d="M206.345 265.894C207.668 283.006 229.12 295.494 250.467 293.541C271.806 291.577 289.38 278.623 287.824 261.529C286.278 244.443 267.734 232.183 246.386 234.14C225.037 236.106 204.53 242.488 206.345 265.894ZM213.322 261.363C213.868 254.381 224.604 250.577 243.316 251.556C264.339 252.654 272.528 261.183 271.9 268.16C271.272 275.137 262.244 278.634 241.046 276.819C217.055 274.762 212.843 267.487 213.322 261.363Z" fill="url(#paint11_radial)"/>
<path d="M213.322 261.363C212.843 267.487 217.055 274.762 241.044 276.817C262.244 278.632 271.269 275.135 271.897 268.158C272.525 261.181 264.337 252.652 243.314 251.554C224.604 250.577 213.868 254.379 213.322 261.363Z" fill="url(#paint12_radial)"/>
<path d="M267.974 253.227C265.699 251.734 260.684 249.672 260.684 249.672C260.684 249.672 266.389 250.977 268.651 252.511C270.912 254.044 273.271 257.761 273.271 257.761C273.271 257.761 270.248 254.721 267.974 253.227ZM226.81 248.001C226.81 248.001 220.914 247.926 216.722 250.522C212.874 252.906 211.289 256.481 211.289 256.481C211.289 256.481 214.948 252.653 217.532 250.931C219.946 249.319 226.81 248.001 226.81 248.001Z" fill="#5E2709"/>
<path d="M243.982 251.991C230.321 251.512 209.334 252.826 214.225 265.77C207.117 261.478 212.581 246.219 245.276 248.942C261.114 250.26 279.946 258.429 271.207 270.61C273.974 257.879 257.391 252.464 243.982 251.991ZM268.094 274.367L261.389 276.489C249.641 276.678 243.079 275.868 232.105 275.371C227.048 275.14 222.501 272.65 216.58 269.896C219.991 273.664 225.665 276.689 231.988 277.055C242.615 277.672 249.812 277.814 261.742 277.903L268.094 274.367Z" fill="black"/>
<path d="M386.678 261.363C387.158 267.487 382.946 274.762 358.956 276.817C337.756 278.632 328.731 275.135 328.103 268.158C327.475 261.181 335.664 252.652 356.686 251.554C375.396 250.577 386.132 254.379 386.678 261.363Z" fill="url(#paint13_radial)"/>
<path d="M369.903 263.799C369.903 271.151 363.94 277.114 356.591 277.114C349.238 277.114 343.273 271.151 343.273 263.799C343.273 256.444 349.238 250.483 356.591 250.483C363.94 250.481 369.903 256.444 369.903 263.799Z" fill="black"/>
<path opacity="0.7" d="M355.097 250.631C355.046 250.638 354.993 250.644 354.939 250.651C355.004 250.95 355.068 251.252 355.128 251.552C355.115 251.248 355.108 250.937 355.097 250.631ZM355.126 251.55C355.279 255.926 355.536 259.825 356.275 261.234C356.661 259.69 356 255.842 355.126 251.55ZM356.273 261.236C356.18 261.607 356.033 261.86 355.814 261.944C355.59 262.029 355.312 261.931 354.999 261.716C355.088 262.086 355.079 262.375 354.919 262.555C354.76 262.734 354.473 262.779 354.094 262.728C354.342 263.016 354.473 263.28 354.418 263.511C354.356 263.742 354.121 263.915 353.768 264.048C354.118 264.188 354.356 264.361 354.411 264.592C354.467 264.823 354.34 265.087 354.089 265.373C354.467 265.326 354.755 265.375 354.911 265.555C355.068 265.735 355.077 266.025 354.988 266.396C355.301 266.181 355.579 266.087 355.798 266.174C356.025 266.258 356.167 266.511 356.255 266.884C356.433 266.547 356.637 266.332 356.875 266.307C357.108 266.276 357.356 266.438 357.605 266.724C357.609 266.343 357.687 266.061 357.889 265.925C358.082 265.79 358.375 265.817 358.73 265.954C358.557 265.617 358.499 265.331 358.605 265.118C358.719 264.907 358.992 264.794 359.371 264.749C359.058 264.53 358.865 264.305 358.872 264.066C358.87 263.826 359.058 263.602 359.376 263.387C358.996 263.34 358.73 263.227 358.617 263.016C358.506 262.805 358.568 262.517 358.743 262.179C358.386 262.313 358.097 262.339 357.9 262.204C357.702 262.069 357.625 261.787 357.622 261.405C357.376 261.689 357.125 261.847 356.89 261.816C356.653 261.784 356.451 261.576 356.273 261.236ZM357.622 261.403C358.685 260.216 359.888 256.501 361.104 252.295C359.211 256.239 357.627 259.809 357.622 261.403ZM361.104 252.295C361.237 252.025 361.373 251.749 361.502 251.474C361.455 251.459 361.408 251.436 361.362 251.416C361.275 251.712 361.191 252.007 361.104 252.295ZM358.745 262.179C360.239 261.62 363.033 258.888 366.064 255.733C362.553 258.343 359.489 260.768 358.745 262.179ZM366.064 255.733C366.286 255.566 366.512 255.4 366.741 255.233C366.708 255.193 366.674 255.16 366.648 255.125C366.453 255.324 366.259 255.531 366.064 255.733ZM359.373 263.387C360.956 263.582 364.697 262.461 368.851 261.077C364.529 261.76 360.689 262.481 359.373 263.387ZM368.851 261.079C369.096 261.043 369.351 261.003 369.599 260.963C369.588 260.921 369.579 260.879 369.568 260.837C369.331 260.917 369.087 260.999 368.851 261.079ZM359.369 264.747C360.68 265.661 364.513 266.405 368.829 267.106C364.688 265.701 360.953 264.558 359.369 264.747ZM368.829 267.106C369.04 267.179 369.251 267.255 369.462 267.324C369.473 267.286 369.482 267.25 369.491 267.213C369.273 267.179 369.047 267.144 368.829 267.106ZM358.73 265.952C359.467 267.366 362.52 269.809 366.013 272.441C362.999 269.268 360.223 266.52 358.73 265.952ZM366.015 272.437C366.146 272.574 366.279 272.716 366.41 272.856C366.433 272.829 366.455 272.809 366.479 272.785C366.324 272.67 366.164 272.552 366.015 272.437ZM357.611 266.722C357.605 268.318 359.169 271.895 361.044 275.85C359.846 271.64 358.668 267.916 357.611 266.722ZM361.044 275.852C361.091 276.018 361.14 276.189 361.184 276.36C361.217 276.347 361.242 276.338 361.271 276.329C361.195 276.169 361.118 276.005 361.044 275.852ZM356.258 266.882C355.512 268.296 355.235 272.186 355.055 276.56C355.951 272.277 356.637 268.431 356.258 266.882ZM355.055 276.56C355.017 276.726 354.986 276.895 354.951 277.066C354.982 277.072 355.004 277.072 355.037 277.077C355.041 276.906 355.05 276.728 355.055 276.56ZM354.988 266.394C353.666 267.297 351.613 270.619 349.423 274.405C352.208 271.032 354.602 267.943 354.988 266.394ZM349.423 274.405C349.307 274.545 349.185 274.693 349.065 274.833C349.094 274.851 349.118 274.864 349.147 274.887C349.238 274.727 349.334 274.565 349.423 274.405ZM354.089 265.375C352.501 265.559 349.141 267.545 345.441 269.878C349.476 268.187 353.026 266.569 354.089 265.375ZM345.441 269.882C345.248 269.962 345.053 270.042 344.858 270.126C344.871 270.155 344.889 270.186 344.909 270.215C345.086 270.106 345.264 269.993 345.441 269.882ZM353.768 264.05C352.276 263.48 348.375 263.677 344.012 264.026C348.373 264.399 352.272 264.614 353.768 264.05ZM344.012 264.026C343.777 264.004 343.531 263.981 343.298 263.961C343.295 264.004 343.291 264.046 343.295 264.086C343.537 264.064 343.779 264.044 344.012 264.026ZM354.094 262.732C353.042 261.536 349.502 259.898 345.479 258.181C349.161 260.533 352.512 262.539 354.094 262.732ZM345.479 258.181C345.248 258.032 345.013 257.883 344.78 257.734C344.76 257.777 344.738 257.819 344.718 257.857C344.973 257.965 345.233 258.072 345.479 258.181ZM354.999 261.716C354.624 260.167 352.245 257.069 349.485 253.676C351.651 257.475 353.686 260.806 354.999 261.716ZM349.485 253.676C349.336 253.42 349.189 253.161 349.045 252.901C349.003 252.93 348.959 252.959 348.919 252.988C349.107 253.216 349.3 253.447 349.485 253.676Z" fill="url(#paint14_radial)"/>
<path opacity="0.4" d="M358.555 250.675C358.501 250.668 358.45 250.659 358.399 250.652C358.381 250.959 358.364 251.267 358.346 251.571C358.41 251.274 358.484 250.972 358.555 250.675ZM358.344 251.569C357.361 255.834 356.597 259.667 356.946 261.222C357.722 259.829 358.077 255.941 358.344 251.569ZM356.946 261.222C356.759 261.555 356.553 261.762 356.318 261.786C356.082 261.808 355.838 261.644 355.592 261.353C355.583 261.733 355.499 262.012 355.297 262.143C355.097 262.274 354.806 262.243 354.453 262.097C354.62 262.441 354.678 262.729 354.562 262.936C354.442 263.144 354.172 263.251 353.794 263.286C354.101 263.51 354.283 263.739 354.276 263.979C354.271 264.216 354.078 264.438 353.766 264.649C354.143 264.702 354.407 264.824 354.513 265.035C354.62 265.248 354.553 265.534 354.371 265.867C354.731 265.741 355.022 265.723 355.215 265.863C355.408 266.002 355.481 266.284 355.47 266.668C355.729 266.391 355.978 266.233 356.218 266.271C356.451 266.302 356.648 266.522 356.817 266.866C356.919 266.495 357.068 266.247 357.296 266.167C357.52 266.087 357.798 266.189 358.102 266.413C358.024 266.042 358.04 265.749 358.202 265.574C358.361 265.399 358.654 265.361 359.034 265.414C358.79 265.121 358.661 264.857 358.728 264.627C358.788 264.396 359.029 264.227 359.391 264.101C359.038 263.959 358.807 263.779 358.752 263.546C358.703 263.313 358.836 263.051 359.094 262.771C358.712 262.807 358.424 262.758 358.273 262.576C358.117 262.394 358.113 262.101 358.213 261.735C357.895 261.944 357.616 262.032 357.396 261.941C357.17 261.85 357.028 261.595 356.946 261.222ZM358.206 261.735C359.54 260.861 361.661 257.583 363.927 253.839C361.076 257.157 358.621 260.193 358.206 261.735ZM363.927 253.837C364.125 253.611 364.327 253.38 364.524 253.147C364.48 253.118 364.442 253.085 364.4 253.054C364.242 253.318 364.085 253.582 363.927 253.837ZM359.089 262.774C360.676 262.618 364.08 260.701 367.826 258.439C363.758 260.053 360.17 261.602 359.089 262.774ZM367.824 258.437C368.081 258.335 368.343 258.233 368.61 258.131C368.587 258.084 368.563 258.042 368.548 258C368.308 258.147 368.068 258.295 367.824 258.437ZM359.382 264.103C360.86 264.702 364.766 264.587 369.138 264.327C364.782 263.865 360.889 263.568 359.382 264.103ZM369.136 264.325C369.382 264.354 369.637 264.38 369.888 264.407C369.89 264.362 369.89 264.32 369.892 264.278C369.642 264.294 369.384 264.309 369.136 264.325ZM359.029 265.417C360.057 266.639 363.57 268.348 367.556 270.141C363.918 267.711 360.607 265.643 359.029 265.417ZM367.553 270.141C367.735 270.268 367.924 270.394 368.108 270.514C368.128 270.481 368.148 270.447 368.161 270.414C367.964 270.328 367.755 270.234 367.553 270.141ZM358.1 266.415C358.444 267.971 360.76 271.12 363.454 274.568C361.362 270.72 359.396 267.347 358.1 266.415ZM363.457 274.562C363.548 274.728 363.639 274.901 363.732 275.07C363.758 275.05 363.783 275.035 363.814 275.017C363.694 274.866 363.57 274.711 363.457 274.562ZM356.817 266.868C356.4 268.406 356.986 272.267 357.771 276.572C357.702 272.196 357.529 268.295 356.817 266.868ZM357.769 276.572C357.771 276.746 357.776 276.923 357.776 277.101C357.809 277.096 357.833 277.092 357.864 277.092C357.835 276.921 357.802 276.743 357.769 276.572ZM355.468 266.67C354.382 267.842 353.106 271.528 351.802 275.707C353.777 271.803 355.434 268.266 355.468 266.67ZM351.802 275.707C351.724 275.858 351.648 276.013 351.571 276.169C351.597 276.182 351.62 276.188 351.648 276.202C351.699 276.04 351.753 275.869 351.802 275.707ZM354.369 265.872C352.86 266.402 350.017 269.08 346.922 272.17C350.486 269.631 353.597 267.267 354.369 265.872ZM346.922 272.17C346.773 272.274 346.615 272.387 346.467 272.491C346.489 272.516 346.511 272.536 346.531 272.562C346.657 272.431 346.793 272.303 346.922 272.17ZM353.766 264.653C352.183 264.422 348.426 265.47 344.245 266.766C348.582 266.176 352.43 265.532 353.766 264.653ZM344.245 266.77C344.039 266.799 343.828 266.824 343.617 266.857C343.626 266.89 343.635 266.923 343.646 266.954C343.846 266.897 344.046 266.83 344.245 266.77ZM353.794 263.293C352.503 262.354 348.684 261.535 344.381 260.743C348.495 262.232 352.205 263.45 353.794 263.293ZM344.381 260.743C344.156 260.661 343.926 260.577 343.704 260.494C343.69 260.537 343.679 260.577 343.67 260.614C343.91 260.656 344.15 260.701 344.381 260.743ZM354.453 262.101C353.748 260.674 350.75 258.175 347.308 255.475C350.257 258.704 352.975 261.509 354.453 262.101ZM347.308 255.477C347.124 255.275 346.937 255.071 346.751 254.867C346.717 254.902 346.689 254.935 346.655 254.969C346.875 255.137 347.099 255.306 347.308 255.477ZM355.592 261.355C355.63 259.762 354.136 256.154 352.343 252.164C353.455 256.393 354.558 260.137 355.592 261.355ZM352.343 252.164C352.268 251.88 352.194 251.589 352.117 251.3C352.07 251.316 352.021 251.334 351.977 251.351C352.099 251.622 352.223 251.895 352.343 252.164Z" fill="url(#paint15_radial)"/>
<path d="M361.812 263.799C361.812 266.684 359.473 269.021 356.59 269.021C353.705 269.021 351.366 266.684 351.366 263.799C351.366 260.916 353.708 258.575 356.59 258.575C359.478 258.575 361.812 260.914 361.812 263.799Z" fill="black"/>
<path opacity="0.9" d="M361.812 263.799C361.812 266.684 359.473 269.021 356.59 269.021C353.705 269.021 351.366 266.684 351.366 263.799C351.366 260.916 353.708 258.575 356.59 258.575C359.478 258.575 361.812 260.914 361.812 263.799Z" fill="black"/>
<path opacity="0.5" d="M349.305 269.898C350.299 269.228 351.655 269.498 352.321 270.493C352.991 271.489 352.727 272.843 351.726 273.511C350.727 274.183 349.376 273.917 348.71 272.918C348.04 271.922 348.306 270.566 349.305 269.898Z" fill="url(#paint16_linear)"/>
<path opacity="0.5" d="M360.714 263.071C360.157 263.901 358.563 263.806 357.152 262.858C355.736 261.911 355.044 260.466 355.599 259.638L355.601 259.636C356.156 258.806 357.751 258.902 359.163 259.851C360.578 260.797 361.271 262.239 360.714 263.071Z" fill="url(#paint17_linear)"/>
<path opacity="0.75" d="M367.056 260.854C365.793 262.791 362.538 262.907 359.786 261.114C357.037 259.321 355.827 256.298 357.09 254.361C358.35 252.426 361.606 252.31 364.358 254.101C367.107 255.896 368.314 258.921 367.056 260.854Z" fill="url(#paint18_linear)"/>
<path d="M360.98 210.279C337.783 208.248 316.812 231.35 314.142 261.872C311.472 292.395 328.114 318.786 351.311 320.816C374.508 322.844 395.48 299.745 398.149 269.222C400.821 238.7 384.182 212.309 360.98 210.279ZM358.954 276.816C337.754 278.632 328.729 275.134 328.101 268.157C327.473 261.18 335.661 252.652 356.684 251.553C375.396 250.577 386.132 254.378 386.678 261.36C387.155 267.487 382.946 274.761 358.954 276.816Z" fill="#8C5537"/>
<path d="M353.612 234.139C332.264 232.182 313.72 244.443 312.174 261.528C310.618 278.622 328.192 291.576 349.531 293.54C370.878 295.493 392.33 283.005 393.653 265.893C395.471 242.487 374.961 236.105 353.612 234.139ZM358.954 276.816C337.754 278.631 328.729 275.134 328.101 268.157C327.473 261.18 335.661 252.651 356.684 251.553C375.396 250.576 386.132 254.378 386.678 261.359C387.155 267.487 382.946 274.761 358.954 276.816Z" fill="url(#paint19_radial)"/>
<path d="M386.678 261.363C387.158 267.487 382.946 274.762 358.956 276.817C337.756 278.632 328.731 275.135 328.103 268.158C327.475 261.181 335.664 252.652 356.686 251.554C375.396 250.577 386.132 254.379 386.678 261.363Z" fill="url(#paint20_radial)"/>
<path d="M326.729 257.76C326.729 257.76 329.088 254.043 331.35 252.51C333.611 250.976 339.316 249.671 339.316 249.671C339.316 249.671 334.301 251.733 332.026 253.226C329.752 254.72 326.729 257.76 326.729 257.76ZM382.466 250.93C385.049 252.652 388.709 256.48 388.709 256.48C388.709 256.48 387.124 252.907 383.276 250.521C379.084 247.927 373.188 248 373.188 248C373.188 248 380.052 249.318 382.466 250.93Z" fill="#5E2709"/>
<path d="M328.793 270.611C320.054 258.43 338.886 250.261 354.724 248.943C387.419 246.22 392.883 261.477 385.775 265.771C390.666 252.827 369.679 251.513 356.018 251.992C342.607 252.463 326.026 257.878 328.793 270.611ZM338.256 277.899C350.186 277.81 357.383 277.668 368.01 277.051C374.335 276.685 380.007 273.661 383.418 269.892C377.497 272.646 372.95 275.136 367.893 275.367C356.919 275.866 350.357 276.674 338.608 276.486L331.904 274.364L338.256 277.899Z" fill="black"/>
<path d="M390.986 329.762C391.063 379.965 350.392 420.735 300.137 420.804C249.89 420.886 209.088 380.253 209.01 330.04C208.933 279.842 249.604 238.911 299.857 238.831C350.106 238.753 390.912 279.553 390.986 329.762Z" fill="url(#paint21_radial)"/>
<path d="M383.219 196.667C383.219 242.628 345.961 279.886 300.001 279.886C254.04 279.886 216.78 242.628 216.78 196.667C216.78 150.705 254.04 113.447 300.001 113.447C345.961 113.447 383.219 150.705 383.219 196.667Z" fill="url(#paint22_radial)"/>
<path d="M196.641 251.83C212.4 213.003 282.418 247.808 283.168 232.634C283.302 229.594 281.363 228.197 278.508 227.606C244.937 220.9 201.659 218.116 196.641 251.83Z" fill="#2A232B"/>
<path d="M403.357 251.829C387.598 213.002 317.58 247.808 316.83 232.633C316.696 229.593 318.635 228.196 321.49 227.605C355.061 220.899 398.339 218.115 403.357 251.829Z" fill="#2A232B"/>
<path d="M280.282 333.146C278.333 337.726 293.45 342.671 299.187 342.975C305.4 343.301 322.812 336.539 319.861 331.896C316.756 327.025 305.119 331.262 300.097 331.262C295.099 331.26 282.891 327.034 280.282 333.146Z" fill="#7D4425"/>
<path d="M304.12 336.606C303.61 334.922 308.283 333.091 310.016 332.847C312.46 332.492 317.473 334.626 317.024 336.38C316.616 337.929 312.258 335.197 310.678 335.428C309.049 335.665 304.604 338.184 304.12 336.606ZM288.845 336.058C290.993 336.058 294.18 337.44 294.766 336.222C295.465 334.769 290.019 332.98 288.419 333.177C287.097 333.333 282.354 336.096 283.007 337.258C283.615 338.326 286.014 336.058 288.845 336.058Z" fill="#5E2709"/>
<path opacity="0.2" d="M300.196 325.379C301.543 325.379 304.062 323.737 304.173 320.43C304.619 307.097 302.052 267.54 300.196 267.68C298.465 267.811 295.165 306.82 295.873 320.43C296.049 323.763 298.676 325.379 300.196 325.379Z" fill="#AB7E65"/>
<path d="M180.367 287.409C175.098 267.849 172.259 250.723 168.319 232.856L168.499 232.814C167.007 229.066 161.622 199.397 161.572 199.077C156.081 159.646 172.431 157.396 172.098 140.945C178.982 144.462 185.674 142.718 191.713 137.916C185.367 134.59 187.37 134.064 178.943 128.829C184.882 127.782 188.351 129.195 193.396 129.837C189.084 125.436 180.619 116.461 175.119 117.65L174.76 116.865C182.722 110.525 193.351 123.723 202.933 120.149C203.222 83.8176 255.274 76.2731 267.942 70.8743C284.807 64.3262 302.426 49.9251 314.815 48.6381C307.802 55.8298 303.506 67.3861 303.187 76.0601C313.404 66.1058 314.126 66.3965 329.613 48.8467C329.613 62.9682 325.779 64.7411 320.803 73.029C334.31 63.9978 351.152 38.6595 377.089 34.7852L377.373 35.6062C368.026 41.2246 360.793 50.704 355.847 63.8047C360.756 57.7558 367.702 51.1944 375.39 50.0072L375.679 50.826C370.862 53.7662 361.426 63.5673 359.266 79.9787C368.794 69.1214 383.95 60.1235 394.354 56.724L394.761 57.4918C385.209 65.4201 381.379 79.2997 379.22 91.1002C385.918 80.9373 389.815 78.6207 398.243 74.3515C395.531 78.4898 395.707 77.7664 393.55 82.2643C398.76 95.851 415.978 96.3791 418.921 120.118C422.466 116.958 423.873 116.166 427.948 113.257L428.562 113.86C425.5 118.713 422.975 127.307 421.294 133.059C427.339 128.348 436.676 124.877 443.25 122.456L443.709 123.184C438.161 128.938 431.426 137.709 430.308 147.224C432.483 145.911 432.587 146.062 435.419 143.971C435.419 150.808 435.647 149.936 435.695 153.08C438.429 150.584 438.849 150.235 440.645 148.241C440.247 220.051 436.632 205.738 426.907 255.785C425.202 264.579 422.185 279.934 420.25 287.31L407.094 289.615C411.161 239.924 406.892 250.757 409.85 219.487C414.225 173.379 377.654 135.584 329.328 147.954C319.55 150.457 280.525 150.455 270.752 147.954C217.367 134.279 198.133 166.105 192.402 221.797C189.595 249.13 188.907 239.906 192.983 289.615L180.367 287.409Z" fill="#2A232B"/>
<path d="M435.693 153.082C435.647 149.936 435.417 150.81 435.417 143.973C432.585 146.061 432.481 145.913 430.306 147.226C431.424 137.711 438.159 128.94 443.707 123.186L443.248 122.458C436.676 124.881 427.34 128.35 421.292 133.06C422.971 127.309 425.498 118.715 428.56 113.862L427.946 113.258C423.871 116.168 422.464 116.96 418.919 120.119C415.976 96.3833 398.758 95.8529 393.548 82.2662C395.705 77.7684 395.529 78.4918 398.241 74.3534C389.814 78.6227 385.916 80.9393 379.218 91.1021C381.377 79.3017 385.209 65.4221 394.759 57.4937L394.352 56.726C383.948 60.1254 368.792 69.1233 359.264 79.9807C361.424 63.5693 370.86 53.7681 375.677 50.828L375.388 50.0092C367.7 51.1963 360.754 57.76 355.845 63.8067C360.791 50.7059 368.026 41.2265 377.371 35.6081L377.087 34.7871C351.15 38.6614 334.308 63.9997 320.801 73.0309C325.777 64.7431 329.611 62.9679 329.611 48.8487C314.124 66.3984 313.402 66.1077 303.185 76.062C303.502 67.3881 307.8 55.8295 314.813 48.6401C302.426 49.9271 284.808 64.3259 267.94 70.8763C255.274 76.2728 203.222 83.8173 202.933 120.151C193.351 123.725 182.723 110.527 174.761 116.866L175.119 117.652C180.62 116.46 189.084 125.436 193.396 129.839C188.353 129.197 184.882 127.784 178.943 128.831C187.37 134.066 185.367 134.592 191.713 137.918C185.674 142.72 178.982 144.464 172.099 140.947C172.431 157.4 156.079 159.65 161.573 199.079C161.623 199.399 167.007 229.068 168.499 232.816L168.319 232.858C172.26 250.725 175.098 267.854 180.367 287.411L180.424 287.418C178.986 250.934 156.458 199.068 169.678 165.846C171.403 161.508 178.075 150.067 178.075 150.067C178.075 150.067 199.012 147.262 199.997 138.972C199.997 138.972 195.647 136.753 193.473 134.534C197.822 136.753 197.822 130.096 202.172 132.315C202.172 127.877 195.647 130.096 195.647 125.658C199.997 125.658 204.347 125.658 208.696 130.096C206.521 119.001 208.696 107.906 217.395 101.249C239.143 83.4977 267.416 85.7167 289.164 67.965C286.989 79.0598 284.814 90.1546 284.814 101.249C297.863 94.5926 302.213 81.2788 313.087 72.4029C315.261 81.2788 310.912 92.3736 310.912 101.249C317.436 85.7167 326.135 70.184 345.709 65.7461C337.009 74.6219 337.009 87.9357 337.009 99.0305C337.009 90.1546 345.709 85.7167 347.883 79.0598C347.883 87.9357 347.883 96.8115 347.883 105.687C352.233 92.3736 360.932 85.7167 371.806 81.2788C363.107 90.1546 365.282 99.0305 363.107 110.125C369.631 103.468 378.331 101.249 384.855 94.5926C391.379 107.906 387.03 119.001 387.03 132.315C389.205 121.22 400.079 114.563 406.603 105.687C408.778 116.782 408.778 127.877 406.603 138.972C408.778 132.315 413.127 127.877 415.302 121.22C415.302 132.004 413.849 141.328 410.996 150.382C413.725 147.16 418.182 145.697 419.652 141.191C419.652 150.788 419.652 158.729 419.652 167.878C420.913 165.233 424.632 164.31 426.176 161.161C424.319 168.735 425.624 174.704 426.048 181.802C426.855 177.453 430.959 174.786 432.442 170.781C432.529 169.054 432.618 167.326 432.698 165.599C433.196 167.623 432.992 169.292 432.442 170.781C430.458 210.214 426.803 249.589 418.836 287.56L420.245 287.314C422.181 279.938 425.195 264.583 426.903 255.789C436.63 205.743 440.245 220.055 440.641 148.245C438.847 150.24 438.427 150.588 435.693 153.082Z" fill="#3A353A"/>
<path d="M447.443 120.544C436.68 122.395 429.162 125.954 423.412 129.975C424.249 127.745 428.181 115.174 432.415 109.893C425.913 112.851 422.15 116.024 419.976 117.682C419.976 115.392 419.11 112.747 418.693 111.38C418.281 110.237 417.936 108.901 415.928 105.566C404.682 89.3764 403.98 96.1487 394.77 83.7536C396.449 79.7351 398.878 75.8275 401.925 72.5922C393.426 73.8237 388.952 77.1966 383.569 82.5997C383.482 82.6885 383.417 82.7772 383.352 82.866C386.725 69.2726 393.334 57.4877 406.318 53.0654C390.259 52.4707 370.379 64.5862 360.386 76.6751C364.701 62.5159 370.49 55.7703 379.092 49.4928C372.902 48.5586 366.837 51.1393 362.039 55.2177C367.565 45.461 375.777 37.6902 382.376 34.071C381.438 34.0489 380.331 33.9823 379.113 34.071C377.424 33.6295 367.198 35.327 363.542 36.9335C345.428 44.1496 332.249 60.9471 326.592 66.4013C330.759 59.527 330.963 54.6453 330.202 47.4958C328.778 48.745 304.942 72.0264 304.648 72.3259C306.338 62.7644 309.531 56.933 315.566 48.3833C304.807 46.3286 277.872 64.3976 261.174 69.2194C243.68 74.0545 200.271 84.1375 202.259 119.59C192.918 121.407 179.241 106.105 172.072 118.946C177.827 115.463 185.45 123.85 190.754 128.643C188.579 128.282 181.309 126.54 177.792 128.932C181.911 130.563 185.513 135.438 190.602 138.029C190.667 138.052 190.732 138.074 190.797 138.118C186.146 140.621 180.648 142.632 175.596 141.203C174.834 140.981 174.334 140.847 174.334 140.825C173.747 140.559 173.116 140.293 172.442 139.982H172.42L172.399 139.96C172.116 139.805 171.833 139.649 171.529 139.494C173.04 151.938 154.528 162.027 156.566 188.355C157.403 204.556 167.329 253.833 179.806 287.246L180.856 287.565C175.654 268.424 172.642 250.42 168.745 232.755C168.406 232.755 162.062 199.373 162.003 199.004C156.553 159.882 172.864 157.044 172.551 141.666C179.338 145.13 186.757 142.634 192.516 137.827C185.735 134.386 187.181 133.416 180.163 129.063C184.867 128.233 190.608 130.134 194.56 130.394C189.458 125.188 180.861 115.949 175.03 117.213C182.79 111.034 193.509 124.472 203.368 120.453C203.368 84.0998 254.961 76.8837 268.112 71.2808C283.925 65.1432 303.524 50.2539 313.65 49.2021C308.343 54.6563 302.732 66.7342 302.732 77.1167C313.245 66.8251 314.28 66.8762 329.178 50.001C329.178 63.3458 324.291 65.729 319.541 74.343C333.49 66.1373 350.378 39.2212 377.152 35.2227C365.943 41.9617 358.807 53.6955 354.512 66.2216C359.627 59.4338 367.126 51.7318 375.455 50.4448C371.086 53.1119 360.534 63.2748 358.666 81.3549C368.115 70.0071 383.863 60.6165 394.485 57.146C384.47 65.4627 380.636 80.1589 378.413 93.1376C382.082 87.4282 385.714 82.2713 391.397 78.6256C391.421 78.6034 391.462 78.5812 391.484 78.5812C393.721 77.0301 393.136 77.4517 396.966 75.4968C395.511 77.7158 395.376 77.4273 393.073 82.2425C398.349 96.3928 415.959 96.4727 418.582 121.008C422.62 117.353 423.89 116.694 428.194 113.619C424.841 118.931 422.14 128.637 420.474 134.299C426.791 128.785 438.479 124.691 443.396 122.872C436.872 129.64 430.536 138.617 429.782 148.079C431.117 147.163 432.814 146.437 434.98 144.839C434.98 150.884 435.262 150.076 435.262 154.07C436.406 153.003 439.003 150.72 440.201 149.388C439.775 219.765 436.113 206.114 426.476 255.699C422.87 274.285 420.967 282.881 419.776 287.392L420.706 287.199C428.501 263.343 444.057 209.442 443.355 181.541C443.283 171.112 441.052 149.366 440.941 147.147C440.895 147.187 436.408 151.518 436.352 151.518C436.352 150.385 435.895 145.561 435.895 142.931C435.127 143.532 433.514 144.657 431.35 145.949C434.349 136.711 438.914 130.971 447.443 120.544Z" fill="black"/>
</g>
<defs>
<linearGradient id="paint0_linear" x1="300" y1="-75" x2="300" y2="675" gradientUnits="userSpaceOnUse">
<stop stop-color="#151371"/>
<stop offset="0.453125" stop-color="#FF00B8"/>
<stop offset="0.96875" stop-color="#FFC700"/>
</linearGradient>
<linearGradient id="paint1_linear" x1="439" y1="245" x2="439" y2="644" gradientUnits="userSpaceOnUse">
<stop stop-color="#FF00B8"/>
<stop offset="1" stop-color="#F0DB0A" stop-opacity="0"/>
</linearGradient>
<linearGradient id="paint2_linear" x1="194" y1="161" x2="194" y2="560" gradientUnits="userSpaceOnUse">
<stop stop-color="#FF00B8"/>
<stop offset="1" stop-color="#F0DB0A" stop-opacity="0"/>
</linearGradient>
<linearGradient id="paint3_linear" x1="299.999" y1="456.314" x2="299.999" y2="367.546" gradientUnits="userSpaceOnUse">
<stop stop-color="#7D4425" stop-opacity="0.8"/>
<stop offset="0.7" stop-color="#5E2709"/>
</linearGradient>
<linearGradient id="paint4_linear" x1="299.999" y1="391.957" x2="299.999" y2="385.3" gradientUnits="userSpaceOnUse">
<stop offset="0.1" stop-color="#844C2D"/>
<stop offset="1" stop-color="#7D4425"/>
</linearGradient>
<radialGradient id="paint5_radial" cx="0" cy="0" r="1" gradientUnits="userSpaceOnUse" gradientTransform="translate(242.609 264.347) rotate(180) scale(22.6645)">
<stop stop-color="white"/>
<stop offset="0.544" stop-color="#FDFEFE"/>
<stop offset="0.74" stop-color="#F6F8F9"/>
<stop offset="0.879" stop-color="#EAEFF2"/>
<stop offset="0.992" stop-color="#D9E3E8"/>
<stop offset="1" stop-color="#D8E2E7"/>
</radialGradient>
<radialGradient id="paint6_radial" cx="0" cy="0" r="1" gradientUnits="userSpaceOnUse" gradientTransform="translate(243.242 263.844) rotate(-14.4847) scale(13.1473 13.1502)">
<stop stop-color="white"/>
<stop offset="1" stop-color="white" stop-opacity="0"/>
</radialGradient>
<radialGradient id="paint7_radial" cx="0" cy="0" r="1" gradientUnits="userSpaceOnUse" gradientTransform="translate(243.244 263.858) rotate(0.512025) scale(13.1397 13.14)">
<stop stop-color="white"/>
<stop offset="1" stop-color="white" stop-opacity="0"/>
</radialGradient>
<linearGradient id="paint8_linear" x1="236.02" y1="273.271" x2="238.097" y2="270.794" gradientUnits="userSpaceOnUse">
<stop stop-color="white"/>
<stop offset="1" stop-color="white" stop-opacity="0"/>
</linearGradient>
<linearGradient id="paint9_linear" x1="246.099" y1="260.018" x2="244.437" y2="262" gradientUnits="userSpaceOnUse">
<stop stop-color="white"/>
<stop offset="1" stop-color="white" stop-opacity="0"/>
</linearGradient>
<linearGradient id="paint10_linear" x1="251.479" y1="254.527" x2="247.648" y2="259.092" gradientUnits="userSpaceOnUse">
<stop stop-color="white"/>
<stop offset="1" stop-color="white" stop-opacity="0"/>
</linearGradient>
<radialGradient id="paint11_radial" cx="0" cy="0" r="1" gradientUnits="userSpaceOnUse" gradientTransform="translate(247.279 262.667) rotate(1.19182) scale(39.2447 31.3941)">
<stop stop-color="#7D4425"/>
<stop offset="0.7" stop-color="#7D4425" stop-opacity="0.3"/>
<stop offset="1" stop-color="#8C5537" stop-opacity="0"/>
</radialGradient>
<radialGradient id="paint12_radial" cx="0" cy="0" r="1" gradientUnits="userSpaceOnUse" gradientTransform="translate(249.772 300.887) rotate(-151) scale(57.3069 42.9827)">
<stop offset="0.94" stop-opacity="0"/>
<stop offset="1" stop-opacity="0.2"/>
</radialGradient>
<radialGradient id="paint13_radial" cx="0" cy="0" r="1" gradientUnits="userSpaceOnUse" gradientTransform="translate(357.39 264.347) scale(22.6645)">
<stop stop-color="white"/>
<stop offset="0.544" stop-color="#FDFEFE"/>
<stop offset="0.74" stop-color="#F6F8F9"/>
<stop offset="0.879" stop-color="#EAEFF2"/>
<stop offset="0.992" stop-color="#D9E3E8"/>
<stop offset="1" stop-color="#D8E2E7"/>
</radialGradient>
<radialGradient id="paint14_radial" cx="0" cy="0" r="1" gradientUnits="userSpaceOnUse" gradientTransform="translate(356.42 263.844) rotate(-14.4847) scale(13.1476 13.1505)">
<stop stop-color="white"/>
<stop offset="1" stop-color="white" stop-opacity="0"/>
</radialGradient>
<radialGradient id="paint15_radial" cx="0" cy="0" r="1" gradientUnits="userSpaceOnUse" gradientTransform="translate(356.422 263.857) rotate(0.512025) scale(13.1401 13.1404)">
<stop stop-color="white"/>
<stop offset="1" stop-color="white" stop-opacity="0"/>
</radialGradient>
<linearGradient id="paint16_linear" x1="349.198" y1="273.271" x2="351.276" y2="270.794" gradientUnits="userSpaceOnUse">
<stop stop-color="white"/>
<stop offset="1" stop-color="white" stop-opacity="0"/>
</linearGradient>
<linearGradient id="paint17_linear" x1="359.278" y1="260.018" x2="357.616" y2="262" gradientUnits="userSpaceOnUse">
<stop stop-color="white"/>
<stop offset="1" stop-color="white" stop-opacity="0"/>
</linearGradient>
<linearGradient id="paint18_linear" x1="364.657" y1="254.527" x2="360.827" y2="259.092" gradientUnits="userSpaceOnUse">
<stop stop-color="white"/>
<stop offset="1" stop-color="white" stop-opacity="0"/>
</linearGradient>
<radialGradient id="paint19_radial" cx="0" cy="0" r="1" gradientUnits="userSpaceOnUse" gradientTransform="translate(352.719 262.666) rotate(178.808) scale(39.2469 31.3959)">
<stop stop-color="#7D4425"/>
<stop offset="0.7" stop-color="#7D4425" stop-opacity="0.3"/>
<stop offset="1" stop-color="#8C5537" stop-opacity="0"/>
</radialGradient>
<radialGradient id="paint20_radial" cx="0" cy="0" r="1" gradientUnits="userSpaceOnUse" gradientTransform="translate(350.226 300.887) rotate(-29.0001) scale(57.307 42.9827)">
<stop offset="0.94" stop-opacity="0"/>
<stop offset="1" stop-opacity="0.2"/>
</radialGradient>
<radialGradient id="paint21_radial" cx="0" cy="0" r="1" gradientUnits="userSpaceOnUse" gradientTransform="translate(299.999 329.82) scale(90.9865)">
<stop stop-color="#9B684D" stop-opacity="0.5"/>
<stop offset="0.9" stop-color="#8C5537" stop-opacity="0"/>
</radialGradient>
<radialGradient id="paint22_radial" cx="0" cy="0" r="1" gradientUnits="userSpaceOnUse" gradientTransform="translate(299.999 196.669) scale(82.1098)">
<stop stop-color="#9B684D" stop-opacity="0.5"/>
<stop offset="0.9" stop-color="#8C5537" stop-opacity="0"/>
</radialGradient>
<clipPath id="clip0">
<rect width="600" height="600" fill="white"/>
</clipPath>
</defs>
</svg>
