<svg
    width="40"
    height="34"
    viewBox="0 0 40 34"
    fill="url(#gradient)"
    version="1.1"
    xmlns="http://www.w3.org/2000/svg"
  >
    <defs>
      <linearGradient gradientTransform="rotate(80)" id="gradient">
        <stop offset="41.17%" stopColor="#474bff" />
        <stop offset="-16.63%" stopColor="#ff47a7" />
      </linearGradient>
    </defs>
    <path
      id="path23"
      d="M 27.033203 0.37890625 C 26.576903 0.37890625 26.123053 0.60569812 25.876953 1.0019531 L 19.019531 12.064453 L 27.626953 25.945312 L 39.597656 6.6367188 C 39.637256 6.5722987 39.6199 6.4922156 39.5625 6.4472656 C 39.555 6.4412756 39.548462 6.4341775 39.539062 6.4296875 L 39.525391 6.4238281 L 27.611328 0.51171875 C 27.530928 0.47164375 27.447028 0.443597 27.361328 0.421875 C 27.253828 0.394534 27.143403 0.37890625 27.033203 0.37890625 z M 1.0566406 0.5390625 C 0.54721063 0.5390625 0.19140625 0.9293835 0.19140625 1.5859375 L 0.19140625 26.519531 C 0.19140625 27.186931 0.68169012 27.976891 1.2832031 28.275391 L 11.53125 33.361328 C 11.79395 33.491728 12.045484 33.552734 12.271484 33.552734 C 12.908484 33.552734 13.355469 33.063087 13.355469 32.242188 L 13.355469 6.5800781 C 13.355469 6.5321381 13.326603 6.4881369 13.283203 6.4667969 L 1.6484375 0.69140625 C 1.4382575 0.58728625 1.2377806 0.5390625 1.0566406 0.5390625 z M 15.242188 9.5449219 L 15.242188 22.136719 L 26.517578 27.732422 L 15.242188 9.5449219 z M 39.681641 10.074219 L 28.212891 28.574219 L 37.496094 33.179688 C 38.704094 33.779288 39.681641 33.359087 39.681641 32.242188 L 39.681641 10.074219 z "
    />
  </svg>