<svg width="1167" height="1016" viewBox="0 0 1167 1016" fill="none" xmlns="http://www.w3.org/2000/svg">
<path d="M647 710C647 726.974 640.257 743.253 628.255 755.255C616.253 767.257 599.974 774 583 774C566.026 774 549.748 767.257 537.745 755.255C525.743 743.253 519 726.974 519 710L583 710H647Z" fill="#60526B"/>
<rect x="503" y="568" width="160" height="142" fill="#878492"/>
<rect x="503" y="606" width="160" height="10" fill="#5F536B"/>
<rect x="503" y="636" width="160" height="10" fill="#5F536B"/>
<rect x="503" y="666" width="160" height="10" fill="#5F536B"/>
<circle cx="583" cy="292" r="292" fill="#FECE00"/>
<circle cx="582.5" cy="292.5" r="238.5" fill="#FFE769"/>
<rect x="495" y="365.076" width="14" height="228" transform="rotate(-12.6946 495 365.076)" fill="black"/>
<rect width="14" height="228" transform="matrix(-0.975555 -0.219755 -0.219755 0.975555 662.762 361.076)" fill="black"/>
<path d="M200.745 733L145.945 620.8V743H131.545V603H153.145L200.945 702.4L248.545 603H270.145V743H255.545V620.6L200.745 733ZM300.88 743V603H316.28V743H300.88ZM347.17 603H362.57L446.77 716.6V603H461.37V743H447.77L361.77 626.4V743H347.17V603ZM706.935 743V603H766.935C780.535 603 791.535 606.733 799.935 614.2C808.335 621.533 812.535 631.2 812.535 643.2C812.535 652.4 809.802 660.333 804.335 667C799.002 673.667 791.802 678.267 782.735 680.8L814.135 743H797.135L767.135 682.8H722.335V743H706.935ZM765.935 616.8H722.335V669.8H765.935C775.268 669.8 782.802 667.4 788.535 662.6C794.268 657.667 797.135 651.2 797.135 643.2C797.135 635.2 794.268 628.8 788.535 624C782.802 619.2 775.268 616.8 765.935 616.8ZM835.841 743V603H851.241V743H835.841ZM870.13 616.8V603H986.73V616.8H936.13V743H920.73V616.8H870.13ZM1048.32 743V686L992.721 603H1010.72L1056.52 672.4L1102.12 603H1119.52L1063.72 686.6V743H1048.32Z" fill="black"/>
<path d="M12.6039 955V815H41.6039V955H12.6039ZM67.0961 815H94.6961L164.296 905.6V815H191.496V955H165.896L94.4961 861.4V955H67.0961V815ZM286.901 930.2C294.234 930.2 301.101 928.667 307.501 925.6C313.901 922.533 319.567 918.133 324.501 912.4L343.501 931.2C336.834 939.067 328.301 945.333 317.901 950C307.634 954.667 297.034 957 286.101 957C275.567 957 265.701 955.133 256.501 951.4C247.434 947.667 239.567 942.6 232.901 936.2C226.234 929.8 220.967 922.2 217.101 913.4C213.367 904.6 211.501 895.133 211.501 885C211.501 874.867 213.434 865.4 217.301 856.6C221.167 847.667 226.434 840 233.101 833.6C239.767 827.2 247.634 822.133 256.701 818.4C265.901 814.667 275.701 812.8 286.101 812.8C297.301 812.8 308.167 815.2 318.701 820C329.234 824.667 337.767 831 344.301 839L324.701 858.4C319.767 852.267 313.967 847.6 307.301 844.4C300.634 841.067 293.567 839.4 286.101 839.4C279.834 839.4 273.901 840.6 268.301 843C262.834 845.267 258.101 848.467 254.101 852.6C250.101 856.6 246.967 861.4 244.701 867C242.434 872.467 241.301 878.467 241.301 885C241.301 891.4 242.434 897.4 244.701 903C247.101 908.467 250.301 913.2 254.301 917.2C258.434 921.2 263.234 924.4 268.701 926.8C274.301 929.067 280.367 930.2 286.901 930.2ZM482.255 894.4C482.255 903.867 480.789 912.533 477.855 920.4C474.922 928.133 470.722 934.733 465.255 940.2C459.922 945.533 453.389 949.667 445.655 952.6C438.055 955.533 429.589 957 420.255 957C410.789 957 402.189 955.533 394.455 952.6C386.855 949.667 380.389 945.533 375.055 940.2C369.722 934.733 365.589 928.133 362.655 920.4C359.722 912.667 358.255 904 358.255 894.4V815H387.255V894.4C387.255 905.2 390.255 913.867 396.255 920.4C402.389 926.933 410.455 930.2 420.455 930.2C430.455 930.2 438.389 926.933 444.255 920.4C450.255 913.867 453.255 905.2 453.255 894.4V815H482.255V894.4ZM505.377 815H571.177C585.177 815 596.577 818.6 605.377 825.8C614.177 832.867 618.577 842.067 618.577 853.4C618.577 859.533 617.044 865.133 613.977 870.2C610.911 875.267 606.711 879.467 601.377 882.8C608.044 886 613.377 890.4 617.377 896C621.377 901.467 623.377 907.6 623.377 914.4C623.377 926.533 618.844 936.333 609.777 943.8C600.844 951.267 589.044 955 574.377 955H505.377V815ZM569.377 839H534.377V872.2H569.377C575.511 872.2 580.444 870.733 584.177 867.8C587.911 864.733 589.777 860.667 589.777 855.6C589.777 850.533 587.911 846.533 584.177 843.6C580.444 840.533 575.511 839 569.377 839ZM572.177 931C578.844 931 584.177 929.4 588.177 926.2C592.177 922.867 594.177 918.4 594.177 912.8C594.177 907.467 592.177 903.133 588.177 899.8C584.177 896.467 578.844 894.8 572.177 894.8H534.377V931H572.177ZM626.743 955L684.343 815H717.943L774.743 955H743.343L729.143 918.2H671.343L656.943 955H626.743ZM680.343 895H720.343L700.543 843.4L680.343 895ZM750.284 840.6V815H873.484V840.6H826.484V955H797.484V840.6H750.284ZM1023.96 885C1023.96 895 1022.03 904.467 1018.16 913.4C1014.29 922.2 1009.03 929.867 1002.36 936.4C995.825 942.8 988.025 947.867 978.959 951.6C969.892 955.333 960.159 957.2 949.759 957.2C939.492 957.2 929.825 955.333 920.759 951.6C911.692 947.867 903.825 942.8 897.159 936.4C890.625 929.867 885.425 922.2 881.559 913.4C877.692 904.467 875.759 895 875.759 885C875.759 875 877.692 865.6 881.559 856.8C885.425 847.867 890.625 840.2 897.159 833.8C903.825 827.267 911.692 822.133 920.759 818.4C929.825 814.667 939.492 812.8 949.759 812.8C960.159 812.8 969.892 814.667 978.959 818.4C988.025 822.133 995.825 827.267 1002.36 833.8C1009.03 840.2 1014.29 847.867 1018.16 856.8C1022.03 865.6 1023.96 875 1023.96 885ZM994.159 885C994.159 878.467 993.025 872.467 990.759 867C988.492 861.4 985.359 856.6 981.359 852.6C977.492 848.467 972.825 845.267 967.359 843C961.892 840.6 956.025 839.4 949.759 839.4C943.492 839.4 937.625 840.6 932.159 843C926.825 845.267 922.159 848.467 918.159 852.6C914.292 856.6 911.225 861.4 908.959 867C906.692 872.467 905.559 878.467 905.559 885C905.559 891.4 906.692 897.4 908.959 903C911.225 908.6 914.292 913.467 918.159 917.6C922.159 921.6 926.825 924.8 932.159 927.2C937.625 929.467 943.492 930.6 949.759 930.6C956.025 930.6 961.892 929.467 967.359 927.2C972.825 924.8 977.492 921.6 981.359 917.6C985.359 913.467 988.492 908.6 990.759 903C993.025 897.4 994.159 891.4 994.159 885ZM1043.85 955V815H1112.25C1119.32 815 1125.79 816.067 1131.65 818.2C1137.65 820.333 1142.79 823.333 1147.05 827.2C1151.32 830.933 1154.65 835.467 1157.05 840.8C1159.45 846.133 1160.65 852 1160.65 858.4C1160.65 867.2 1158.12 875.067 1153.05 882C1148.12 888.933 1141.52 894.067 1133.25 897.4L1164.25 955H1131.85L1104.45 901.4H1072.85V955H1043.85ZM1109.65 840H1072.85V877.6H1109.65C1116.19 877.6 1121.39 875.867 1125.25 872.4C1129.25 868.933 1131.25 864.4 1131.25 858.8C1131.25 853.2 1129.25 848.667 1125.25 845.2C1121.39 841.733 1116.19 840 1109.65 840Z" fill="black"/>
</svg>
