<svg width="3618" height="2987" viewBox="0 0 3618 2987" fill="none" xmlns="http://www.w3.org/2000/svg">
<path d="M2863.61 2514.11C3228.34 2453.87 3502.17 2148.2 3522.07 1779.06L3573.22 830.427C3597.55 379.211 3238.24 0.000259592 2786.37 0.000277977L2350.7 0.000295703C2195.06 0.000302035 2042.9 46.0927 1913.42 132.464L1446.7 443.793C1337.31 516.766 1247.92 615.955 1186.67 732.322L738.291 1584.24C435.075 2160.35 921.664 2834.79 1564 2728.72L2863.61 2514.11Z" fill="url(#paint0_radial)"/>
<g filter="url(#filter0_d)">
<rect x="1262" y="1077" width="291" height="826" fill="white"/>
<rect x="1845" y="1082" width="290" height="826" fill="white"/>
<rect x="1553" y="791" width="292" height="291" fill="white"/>
<rect x="2425" y="1082" width="292" height="826" fill="white"/>
<rect x="2135" y="791" width="290" height="291" fill="white"/>
<rect x="2717" y="791" width="291" height="291" fill="white"/>
<rect x="3008" y="1047" width="290" height="291" fill="white"/>
<rect x="2717" y="1338" width="291" height="290" fill="white"/>
</g>
<defs>
<filter id="filter0_d" x="1258" y="791" width="2044" height="1125" filterUnits="userSpaceOnUse" color-interpolation-filters="sRGB">
<feFlood flood-opacity="0" result="BackgroundImageFix"/>
<feColorMatrix in="SourceAlpha" type="matrix" values="0 0 0 0 0 0 0 0 0 0 0 0 0 0 0 0 0 0 127 0"/>
<feOffset dy="4"/>
<feGaussianBlur stdDeviation="2"/>
<feColorMatrix type="matrix" values="0 0 0 0 0 0 0 0 0 0 0 0 0 0 0 0 0 0 0.5 0"/>
<feBlend mode="normal" in2="BackgroundImageFix" result="effect1_dropShadow"/>
<feBlend mode="normal" in="SourceGraphic" in2="effect1_dropShadow" result="shape"/>
</filter>
<radialGradient id="paint0_radial" cx="0" cy="0" r="1" gradientUnits="userSpaceOnUse" gradientTransform="translate(3184 2330.99) rotate(-155.497) scale(2584.78 2584.78)">
<stop offset="0.015625" stop-color="#151371"/>
<stop offset="0.505208" stop-color="#FF00B8"/>
<stop offset="1" stop-color="#FFC700"/>
</radialGradient>
</defs>
</svg>
