<svg width="3618" height="2987" viewBox="0 0 3618 2987" fill="none" xmlns="http://www.w3.org/2000/svg">
<path d="M2863.61 2514.11C3228.34 2453.87 3502.17 2148.2 3522.07 1779.06L3573.22 830.427C3597.55 379.211 3238.24 0.000259592 2786.37 0.000277977L2350.7 0.000295703C2195.06 0.000302035 2042.9 46.0927 1913.42 132.464L1446.7 443.793C1337.31 516.766 1247.92 615.955 1186.67 732.322L738.291 1584.24C435.075 2160.35 921.664 2834.79 1564 2728.72L2863.61 2514.11Z" fill="url(#paint0_radial)"/>
<rect x="1294" y="846.994" width="291" height="826" fill="white"/>
<rect x="1877" y="851.994" width="290" height="826" fill="white"/>
<rect x="1585" y="560.994" width="292" height="291" fill="white"/>
<rect x="2457" y="851.994" width="292" height="826" fill="white"/>
<rect x="2167" y="560.994" width="290" height="291" fill="white"/>
<rect x="2749" y="560.994" width="291" height="291" fill="white"/>
<rect x="3040" y="816.994" width="290" height="291" fill="white"/>
<rect x="2749" y="1107.99" width="291" height="290" fill="white"/>
<path d="M1672.69 2025.99L1624.29 1932.99V2035.99H1597.49V1895.99H1634.69L1673.09 1971.19L1711.49 1895.99H1748.69V2035.99H1721.29V1933.19L1672.69 2025.99ZM1810.85 2035.99V1895.99H1839.85V2035.99H1810.85ZM1902.35 1895.99H1929.95L1999.55 1986.59V1895.99H2026.75V2035.99H2001.15L1929.75 1942.39V2035.99H1902.35V1895.99ZM2231.95 1965.99C2231.95 1975.99 2230.02 1985.46 2226.15 1994.39C2222.28 2003.19 2217.02 2010.86 2210.35 2017.39C2203.82 2023.79 2196.02 2028.86 2186.95 2032.59C2177.88 2036.33 2168.15 2038.19 2157.75 2038.19C2147.48 2038.19 2137.82 2036.33 2128.75 2032.59C2119.68 2028.86 2111.82 2023.79 2105.15 2017.39C2098.62 2010.86 2093.42 2003.19 2089.55 1994.39C2085.68 1985.46 2083.75 1975.99 2083.75 1965.99C2083.75 1955.99 2085.68 1946.59 2089.55 1937.79C2093.42 1928.86 2098.62 1921.19 2105.15 1914.79C2111.82 1908.26 2119.68 1903.13 2128.75 1899.39C2137.82 1895.66 2147.48 1893.79 2157.75 1893.79C2168.15 1893.79 2177.88 1895.66 2186.95 1899.39C2196.02 1903.13 2203.82 1908.26 2210.35 1914.79C2217.02 1921.19 2222.28 1928.86 2226.15 1937.79C2230.02 1946.59 2231.95 1955.99 2231.95 1965.99ZM2202.15 1965.99C2202.15 1959.46 2201.02 1953.46 2198.75 1947.99C2196.48 1942.39 2193.35 1937.59 2189.35 1933.59C2185.48 1929.46 2180.82 1926.26 2175.35 1923.99C2169.88 1921.59 2164.02 1920.39 2157.75 1920.39C2151.48 1920.39 2145.62 1921.59 2140.15 1923.99C2134.82 1926.26 2130.15 1929.46 2126.15 1933.59C2122.28 1937.59 2119.22 1942.39 2116.95 1947.99C2114.68 1953.46 2113.55 1959.46 2113.55 1965.99C2113.55 1972.39 2114.68 1978.39 2116.95 1983.99C2119.22 1989.59 2122.28 1994.46 2126.15 1998.59C2130.15 2002.59 2134.82 2005.79 2140.15 2008.19C2145.62 2010.46 2151.48 2011.59 2157.75 2011.59C2164.02 2011.59 2169.88 2010.46 2175.35 2008.19C2180.82 2005.79 2185.48 2002.59 2189.35 1998.59C2193.35 1994.46 2196.48 1989.59 2198.75 1983.99C2201.02 1978.39 2202.15 1972.39 2202.15 1965.99ZM2288.85 2035.99V1895.99H2357.25C2364.31 1895.99 2370.78 1897.06 2376.65 1899.19C2382.65 1901.33 2387.78 1904.33 2392.05 1908.19C2396.31 1911.93 2399.65 1916.46 2402.05 1921.79C2404.45 1927.13 2405.65 1932.99 2405.65 1939.39C2405.65 1948.19 2403.11 1956.06 2398.05 1962.99C2393.11 1969.93 2386.51 1975.06 2378.25 1978.39L2409.25 2035.99H2376.85L2349.45 1982.39H2317.85V2035.99H2288.85ZM2354.65 1920.99H2317.85V1958.59H2354.65C2361.18 1958.59 2366.38 1956.86 2370.25 1953.39C2374.25 1949.93 2376.25 1945.39 2376.25 1939.79C2376.25 1934.19 2374.25 1929.66 2370.25 1926.19C2366.38 1922.73 2361.18 1920.99 2354.65 1920.99ZM2461.59 2035.99V1895.99H2490.59V2035.99H2461.59ZM2544.08 1921.59V1895.99H2667.28V1921.59H2620.28V2035.99H2591.28V1921.59H2544.08ZM2765.9 2035.99V1982.39L2708.7 1895.99H2742.1L2781.3 1956.79L2820.7 1895.99H2852.3L2794.9 1982.59V2035.99H2765.9ZM1234.08 2265.99V2125.99H1304.28C1311.08 2125.99 1317.34 2127.13 1323.08 2129.39C1328.94 2131.53 1333.94 2134.53 1338.08 2138.39C1342.21 2142.26 1345.41 2146.93 1347.68 2152.39C1350.08 2157.73 1351.28 2163.59 1351.28 2169.99C1351.28 2176.26 1350.08 2182.06 1347.68 2187.39C1345.41 2192.59 1342.14 2197.13 1337.88 2200.99C1333.74 2204.86 1328.81 2207.86 1323.08 2209.99C1317.34 2212.13 1311.08 2213.19 1304.28 2213.19H1263.08V2265.99H1234.08ZM1301.08 2150.99H1263.08V2189.19H1301.08C1307.34 2189.19 1312.34 2187.46 1316.08 2183.99C1319.94 2180.53 1321.88 2175.93 1321.88 2170.19C1321.88 2164.46 1319.94 2159.86 1316.08 2156.39C1312.34 2152.79 1307.34 2150.99 1301.08 2150.99ZM1407.21 2265.99V2125.99H1475.61C1482.68 2125.99 1489.14 2127.06 1495.01 2129.19C1501.01 2131.33 1506.14 2134.33 1510.41 2138.19C1514.68 2141.93 1518.01 2146.46 1520.41 2151.79C1522.81 2157.13 1524.01 2162.99 1524.01 2169.39C1524.01 2178.19 1521.48 2186.06 1516.41 2192.99C1511.48 2199.93 1504.88 2205.06 1496.61 2208.39L1527.61 2265.99H1495.21L1467.81 2212.39H1436.21V2265.99H1407.21ZM1473.01 2150.99H1436.21V2188.59H1473.01C1479.54 2188.59 1484.74 2186.86 1488.61 2183.39C1492.61 2179.93 1494.61 2175.39 1494.61 2169.79C1494.61 2164.19 1492.61 2159.66 1488.61 2156.19C1484.74 2152.73 1479.54 2150.99 1473.01 2150.99ZM1722.75 2195.99C1722.75 2205.99 1720.82 2215.46 1716.95 2224.39C1713.08 2233.19 1707.82 2240.86 1701.15 2247.39C1694.62 2253.79 1686.82 2258.86 1677.75 2262.59C1668.68 2266.33 1658.95 2268.19 1648.55 2268.19C1638.28 2268.19 1628.62 2266.33 1619.55 2262.59C1610.48 2258.86 1602.62 2253.79 1595.95 2247.39C1589.42 2240.86 1584.22 2233.19 1580.35 2224.39C1576.48 2215.46 1574.55 2205.99 1574.55 2195.99C1574.55 2185.99 1576.48 2176.59 1580.35 2167.79C1584.22 2158.86 1589.42 2151.19 1595.95 2144.79C1602.62 2138.26 1610.48 2133.13 1619.55 2129.39C1628.62 2125.66 1638.28 2123.79 1648.55 2123.79C1658.95 2123.79 1668.68 2125.66 1677.75 2129.39C1686.82 2133.13 1694.62 2138.26 1701.15 2144.79C1707.82 2151.19 1713.08 2158.86 1716.95 2167.79C1720.82 2176.59 1722.75 2185.99 1722.75 2195.99ZM1692.95 2195.99C1692.95 2189.46 1691.82 2183.46 1689.55 2177.99C1687.28 2172.39 1684.15 2167.59 1680.15 2163.59C1676.28 2159.46 1671.62 2156.26 1666.15 2153.99C1660.68 2151.59 1654.82 2150.39 1648.55 2150.39C1642.28 2150.39 1636.42 2151.59 1630.95 2153.99C1625.62 2156.26 1620.95 2159.46 1616.95 2163.59C1613.08 2167.59 1610.02 2172.39 1607.75 2177.99C1605.48 2183.46 1604.35 2189.46 1604.35 2195.99C1604.35 2202.39 1605.48 2208.39 1607.75 2213.99C1610.02 2219.59 1613.08 2224.46 1616.95 2228.59C1620.95 2232.59 1625.62 2235.79 1630.95 2238.19C1636.42 2240.46 1642.28 2241.59 1648.55 2241.59C1654.82 2241.59 1660.68 2240.46 1666.15 2238.19C1671.62 2235.79 1676.28 2232.59 1680.15 2228.59C1684.15 2224.46 1687.28 2219.59 1689.55 2213.99C1691.82 2208.39 1692.95 2202.39 1692.95 2195.99ZM1918.84 2196.19C1918.84 2206.46 1917.04 2216.06 1913.44 2224.99C1909.98 2233.79 1905.11 2241.39 1898.84 2247.79C1892.71 2254.06 1885.31 2259.06 1876.64 2262.79C1867.98 2266.39 1858.64 2268.19 1848.64 2268.19C1838.24 2268.19 1828.51 2266.33 1819.44 2262.59C1810.38 2258.86 1802.51 2253.79 1795.84 2247.39C1789.31 2240.86 1784.11 2233.19 1780.24 2224.39C1776.38 2215.59 1774.44 2206.13 1774.44 2195.99C1774.44 2185.86 1776.31 2176.39 1780.04 2167.59C1783.91 2158.79 1789.11 2151.19 1795.64 2144.79C1802.31 2138.26 1810.18 2133.13 1819.24 2129.39C1828.31 2125.66 1837.98 2123.79 1848.24 2123.79C1859.84 2123.79 1870.78 2126.13 1881.04 2130.79C1891.31 2135.46 1899.78 2141.86 1906.44 2149.99L1886.24 2168.59C1881.31 2162.73 1875.58 2158.26 1869.04 2155.19C1862.64 2151.99 1855.71 2150.39 1848.24 2150.39C1841.98 2150.39 1836.11 2151.59 1830.64 2153.99C1825.31 2156.26 1820.64 2159.46 1816.64 2163.59C1812.78 2167.59 1809.71 2172.39 1807.44 2177.99C1805.31 2183.46 1804.24 2189.46 1804.24 2195.99C1804.24 2202.53 1805.38 2208.59 1807.64 2214.19C1809.91 2219.79 1813.04 2224.66 1817.04 2228.79C1821.04 2232.79 1825.78 2235.99 1831.24 2238.39C1836.84 2240.66 1842.78 2241.79 1849.04 2241.79C1858.91 2241.79 1867.38 2239.06 1874.44 2233.59C1881.64 2228.13 1886.11 2221.13 1887.84 2212.59H1846.44V2187.39H1918.84V2196.19ZM1975.63 2265.99V2125.99H2044.03C2051.1 2125.99 2057.56 2127.06 2063.43 2129.19C2069.43 2131.33 2074.56 2134.33 2078.83 2138.19C2083.1 2141.93 2086.43 2146.46 2088.83 2151.79C2091.23 2157.13 2092.43 2162.99 2092.43 2169.39C2092.43 2178.19 2089.9 2186.06 2084.83 2192.99C2079.9 2199.93 2073.3 2205.06 2065.03 2208.39L2096.03 2265.99H2063.63L2036.23 2212.39H2004.63V2265.99H1975.63ZM2041.43 2150.99H2004.63V2188.59H2041.43C2047.96 2188.59 2053.16 2186.86 2057.03 2183.39C2061.03 2179.93 2063.03 2175.39 2063.03 2169.79C2063.03 2164.19 2061.03 2159.66 2057.03 2156.19C2053.16 2152.73 2047.96 2150.99 2041.43 2150.99ZM2136.93 2265.99L2194.53 2125.99H2228.13L2284.93 2265.99H2253.53L2239.33 2229.19H2181.53L2167.13 2265.99H2136.93ZM2190.53 2205.99H2230.53L2210.73 2154.39L2190.53 2205.99ZM2409.01 2255.99L2360.61 2162.99V2265.99H2333.81V2125.99H2371.01L2409.41 2201.19L2447.81 2125.99H2485.01V2265.99H2457.61V2163.19L2409.01 2255.99ZM2622.38 2255.99L2573.98 2162.99V2265.99H2547.18V2125.99H2584.38L2622.78 2201.19L2661.18 2125.99H2698.38V2265.99H2670.98V2163.19L2622.38 2255.99ZM2760.55 2265.99V2125.99H2868.15V2151.19H2789.55V2183.19H2841.35V2207.59H2789.55V2240.79H2868.95V2265.99H2760.55ZM2926.45 2265.99V2125.99H2994.85C3001.92 2125.99 3008.38 2127.06 3014.25 2129.19C3020.25 2131.33 3025.38 2134.33 3029.65 2138.19C3033.92 2141.93 3037.25 2146.46 3039.65 2151.79C3042.05 2157.13 3043.25 2162.99 3043.25 2169.39C3043.25 2178.19 3040.72 2186.06 3035.65 2192.99C3030.72 2199.93 3024.12 2205.06 3015.85 2208.39L3046.85 2265.99H3014.45L2987.05 2212.39H2955.45V2265.99H2926.45ZM2992.25 2150.99H2955.45V2188.59H2992.25C2998.78 2188.59 3003.98 2186.86 3007.85 2183.39C3011.85 2179.93 3013.85 2175.39 3013.85 2169.79C3013.85 2164.19 3011.85 2159.66 3007.85 2156.19C3003.98 2152.73 2998.78 2150.99 2992.25 2150.99ZM3088.76 2243.79L3105.36 2222.99C3113.49 2230.06 3121.29 2235.26 3128.76 2238.59C3136.36 2241.79 3144.36 2243.39 3152.76 2243.39C3161.42 2243.39 3168.36 2241.79 3173.56 2238.59C3178.76 2235.39 3181.36 2231.13 3181.36 2225.79C3181.36 2220.99 3179.56 2217.26 3175.96 2214.59C3172.49 2211.93 3166.62 2209.93 3158.36 2208.59L3130.56 2203.79C3118.56 2201.79 3109.42 2197.59 3103.16 2191.19C3097.02 2184.79 3093.96 2176.53 3093.96 2166.39C3093.96 2153.33 3098.89 2142.99 3108.76 2135.39C3118.76 2127.79 3132.22 2123.99 3149.16 2123.99C3159.29 2123.99 3169.49 2125.73 3179.76 2129.19C3190.16 2132.66 3199.22 2137.46 3206.96 2143.59L3191.36 2165.19C3183.89 2159.46 3176.56 2155.26 3169.36 2152.59C3162.16 2149.79 3154.76 2148.39 3147.16 2148.39C3139.42 2148.39 3133.22 2149.86 3128.56 2152.79C3123.89 2155.59 3121.56 2159.39 3121.56 2164.19C3121.56 2168.46 3123.09 2171.79 3126.16 2174.19C3129.22 2176.59 3134.36 2178.33 3141.56 2179.39L3167.96 2183.79C3181.82 2186.06 3192.22 2190.53 3199.16 2197.19C3206.22 2203.73 3209.76 2212.39 3209.76 2223.19C3209.76 2236.79 3204.36 2247.66 3193.56 2255.79C3182.89 2263.93 3168.62 2267.99 3150.76 2267.99C3139.56 2267.99 3128.49 2265.86 3117.56 2261.59C3106.76 2257.33 3097.16 2251.39 3088.76 2243.79Z" fill="white"/>
<defs>
<radialGradient id="paint0_radial" cx="0" cy="0" r="1" gradientUnits="userSpaceOnUse" gradientTransform="translate(3184 2330.99) rotate(-155.497) scale(2584.78 2584.78)">
<stop offset="0.015625" stop-color="#151371"/>
<stop offset="0.505208" stop-color="#FF00B8"/>
<stop offset="1" stop-color="#FFC700"/>
</radialGradient>
</defs>
</svg>
