<svg width="2535" height="1323" viewBox="0 0 2535 1323" fill="none" xmlns="http://www.w3.org/2000/svg">
<path d="M1167 1018L883 318H1040L1254 871L1473 318H1623L1335 1018H1167ZM1948.36 894C1985.03 894 2019.36 886.333 2051.36 871C2083.36 855.667 2111.69 833.667 2136.36 805L2231.36 899C2198.03 938.333 2155.36 969.667 2103.36 993C2052.03 1016.33 1999.03 1028 1944.36 1028C1891.69 1028 1842.36 1018.67 1796.36 1000C1751.03 981.333 1711.69 956 1678.36 924C1645.03 892 1618.69 854 1599.36 810C1580.69 766 1571.36 718.667 1571.36 668C1571.36 617.333 1581.03 570 1600.36 526C1619.69 481.333 1646.03 443 1679.36 411C1712.69 379 1752.03 353.667 1797.36 335C1843.36 316.333 1892.36 307 1944.36 307C2000.36 307 2054.69 319 2107.36 343C2160.03 366.333 2202.69 398 2235.36 438L2137.36 535C2112.69 504.333 2083.69 481 2050.36 465C2017.03 448.333 1981.69 440 1944.36 440C1913.03 440 1883.36 446 1855.36 458C1828.03 469.333 1804.36 485.333 1784.36 506C1764.36 526 1748.69 550 1737.36 578C1726.03 605.333 1720.36 635.333 1720.36 668C1720.36 700 1726.03 730 1737.36 758C1749.36 785.333 1765.36 809 1785.36 829C1806.03 849 1830.03 865 1857.36 877C1885.36 888.333 1915.69 894 1948.36 894Z" fill="white"/>
<path fill-rule="evenodd" clip-rule="evenodd" d="M2535 23H1735V106H2439V1050H1735V1096H2535V23Z" fill="white"/>
<path fill-rule="evenodd" clip-rule="evenodd" d="M917 101H0V1018L80.082 1018V318H266.082L458.082 694L650.082 318H836.082V1018L917 1018V101ZM699.082 1018V504L456.082 968L214.082 503V1018H699.082Z" fill="white"/>
</svg>
