<svg width="600" height="600" viewBox="0 0 600 600" fill="none" xmlns="http://www.w3.org/2000/svg">
<g clip-path="url(#clip0)">
<path d="M675 675H-75V-75H675V675Z" fill="url(#paint0_linear)"/>
<path d="M360.996 403.874H308.184V356.576H360.996V403.874ZM414.113 320.069H340.054V380.225H414.113V320.069ZM377.082 441.95H442.881V362.639H377.082V441.95ZM400.757 434.192H334.59V491.191H400.757V434.192ZM580.44 284.416H490.23V387.501H580.44V284.416ZM478.458 331.108H456.605V356.576H478.458V331.108ZM544.531 252.277H456.605V304.426H544.531V252.277ZM442.881 270.468H395.532V335.958H442.881V270.468ZM334.59 275.32H308.184V303.213H334.59V275.32ZM299.325 320.069H258.501V382.71H299.325V320.069ZM347.338 441.95H275.708V521.511H347.338V441.95ZM308.184 576.086H388.617V528.788H308.184V576.086ZM500.311 557.894H443.791V599.129H500.313V557.894H500.311ZM637.361 516.659H585.062V578.511H637.361V516.659ZM551.302 544.718H506.381V585.953H551.302V544.718ZM594.357 463.296H528.843V537.278H594.357V463.296ZM610.791 590.639H528.843V644H610.791V590.639ZM340.054 557.894H251.187V637.937H340.052V557.894H340.054ZM630.216 356.576H569.818V403.874H630.216V356.576ZM594.357 424.49H568.208V451.477H594.357V424.49ZM251.187 474.697H300.975V404.294H251.187V474.697ZM321.764 249.852L232 252.277V320.069H321.764V249.852ZM646 252.277H587.725V326.256H646V252.277ZM371.858 245H347.338V298.361H371.858V245ZM641.143 437.983H581.281V486.494H641.143V437.983Z" fill="url(#paint1_linear)" stroke="#FFC700" stroke-width="1.5"/>
<path d="M115.996 319.874H63.1843V272.576H115.996V319.874ZM169.113 236.069H95.0537V296.225H169.113V236.069ZM132.082 357.95H197.881V278.639H132.082V357.95ZM155.757 350.192H89.5904V407.191H155.757V350.192ZM335.44 200.416H245.23V303.501H335.44V200.416ZM233.458 247.108H211.605V272.576H233.458V247.108ZM299.531 168.277H211.605V220.426H299.531V168.277ZM197.881 186.468H150.532V251.958H197.881V186.468ZM89.5904 191.32H63.1843V219.213H89.5904V191.32ZM54.3246 236.069H13.5008V298.71H54.3246V236.069ZM102.338 357.95H30.7084V437.511H102.338V357.95ZM63.1843 492.086H143.617V444.788H63.1843V492.086ZM255.311 473.894H198.791V515.129H255.313V473.894H255.311ZM392.361 432.659H340.062V494.511H392.361V432.659ZM306.302 460.718H261.381V501.953H306.302V460.718ZM349.357 379.296H283.843V453.278H349.357V379.296ZM365.791 506.639H283.843V560H365.791V506.639ZM95.0537 473.894H6.18721V553.937H95.0519V473.894H95.0537ZM385.216 272.576H324.818V319.874H385.216V272.576ZM349.357 340.49H323.208V367.477H349.357V340.49ZM6.18721 390.697H55.9745V320.294H6.18721V390.697ZM76.7643 165.852L-13 168.277V236.069H76.7643V165.852ZM401 168.277H342.725V242.256H401V168.277ZM126.858 161H102.338V214.361H126.858V161ZM396.143 353.983H336.281V402.494H396.143V353.983Z" fill="url(#paint2_linear)" stroke="#FFC700" stroke-width="1.5"/>
<rect x="504" y="328.706" width="8.86149" height="25.1423" fill="white"/>
<rect x="521.753" y="328.857" width="8.83104" height="25.1423" fill="white"/>
<rect x="512.861" y="320" width="8.89195" height="8.85765" fill="white"/>
<rect x="539.416" y="328.857" width="8.89195" height="25.1423" fill="white"/>
<rect x="530.584" y="320" width="8.83105" height="8.85765" fill="white"/>
<rect x="548.308" y="320" width="8.86149" height="8.85765" fill="white"/>
<rect x="557.169" y="327.792" width="8.83104" height="8.85766" fill="white"/>
<rect x="548.308" y="336.65" width="8.86149" height="8.82721" fill="white"/>
<rect x="40" y="390.425" width="7.57515" height="21.4449" fill="white"/>
<rect x="55.1763" y="390.555" width="7.54912" height="21.4449" fill="white"/>
<rect x="47.5752" y="383" width="7.60118" height="7.55506" fill="white"/>
<rect x="70.2744" y="390.555" width="7.60118" height="21.4449" fill="white"/>
<rect x="62.7256" y="383" width="7.54912" height="7.55506" fill="white"/>
<rect x="77.876" y="383" width="7.57515" height="7.55506" fill="white"/>
<rect x="85.4507" y="389.646" width="7.54912" height="7.55506" fill="white"/>
<rect x="77.876" y="397.202" width="7.57515" height="7.52909" fill="white"/>
<path d="M310.962 363.567H308.672V361.277H310.962V363.567Z" fill="#3B261B"/>
<path d="M528.258 590.847C523.23 579.982 509.497 563.881 494.238 559.433C475.377 553.932 432.8 547.281 417.012 543.584C404.357 540.617 378.867 517.728 369.934 510.045C368.332 508.672 367.02 505.835 366.988 503.727C366.67 478.855 376.592 412.785 376.592 412.785H309.817H243.044C243.044 412.785 252.966 478.853 252.643 503.727C252.618 505.835 251.299 508.672 249.701 510.045C240.768 517.728 215.279 540.617 202.623 543.584C186.834 547.281 144.257 554.158 125.397 559.66C110.134 564.105 96.405 579.98 91.3776 590.845C82.8888 609.178 80.8833 642.355 80.8833 670.971H309.817H538.75C538.75 642.357 536.742 609.18 528.258 590.847Z" fill="#ECA170"/>
<path d="M445.244 554.859C500.971 562.968 524.423 574.795 531.767 670.976H538.75C538.75 642.36 536.742 609.183 528.258 590.85C523.231 579.984 509.497 563.884 494.238 559.435C475.377 553.934 432.8 547.284 417.012 543.586C404.357 540.619 375.25 515.956 367.464 506.156C375.157 516.925 396.747 541.881 415.664 548.417C424.714 551.544 432.25 552.968 445.244 554.859ZM203.972 548.417C222.888 541.883 244.477 516.925 252.171 506.156C244.388 515.954 215.281 540.619 202.623 543.586C186.836 547.284 144.259 554.161 125.397 559.662C110.139 564.108 96.4051 579.982 91.3778 590.847C82.8935 609.18 80.8857 642.357 80.8857 670.974H87.8682C95.1666 575.408 118.717 562.956 174.391 554.857C187.383 552.968 194.922 551.544 203.972 548.417Z" fill="#FBBB90"/>
<path d="M299.849 585.907C299.849 585.907 288.233 582.224 283.633 580.461C259.712 571.283 181.999 565.335 181.999 565.335C181.999 565.335 263.851 568.584 281.914 571.697C280.866 560.784 275.007 525.901 275.007 525.901C275.007 525.901 286.795 564.397 289.68 574.108C291.223 579.3 299.849 585.907 299.849 585.907ZM324.571 582.835C324.368 583.002 324.134 583.219 323.88 583.448C324.139 583.254 324.372 583.05 324.571 582.835ZM299.849 585.907C299.849 585.907 306.472 592.757 309.801 592.844C314.173 592.96 320.853 586.207 323.882 583.448C320.986 585.639 314.361 586.633 311.726 586.736C308.681 586.853 299.849 585.907 299.849 585.907ZM347.966 568.694C344.429 569.261 337.925 570.5 337.925 570.5L343.161 536.412C341.682 543.442 332.918 573.524 324.571 582.835C328.944 579.135 338.669 577.361 343.628 576.644C367.061 573.247 367.052 573.249 437.632 565.335C437.632 565.335 371.079 564.98 347.966 568.694Z" fill="#DD8953"/>
<path d="M528.258 590.847C523.23 579.982 509.497 563.881 494.238 559.433C475.377 553.932 432.8 547.281 417.012 543.584C404.357 540.617 378.867 517.728 369.934 510.045C368.332 508.672 367.02 505.835 366.988 503.727C366.67 478.855 376.592 412.785 376.592 412.785H309.817H243.044C243.044 412.785 252.966 478.853 252.643 503.727C252.618 505.835 251.299 508.672 249.701 510.045C240.768 517.728 215.279 540.617 202.623 543.584C186.834 547.281 144.257 554.158 125.397 559.66C110.134 564.105 96.405 579.98 91.3776 590.845C82.8888 609.178 80.8833 642.355 80.8833 670.971H309.817H538.75C538.75 642.357 536.742 609.18 528.258 590.847Z" stroke="#BE5F21" stroke-width="3.825"/>
<path d="M309.821 524.658C335.899 524.658 347.891 510.098 365.265 502.593C365.246 484.434 369.932 447.803 372.778 427.258C335.837 423.018 283.789 423.018 246.851 427.261C249.697 447.803 254.383 484.43 254.362 502.586C271.745 510.089 283.737 524.658 309.821 524.658Z" fill="url(#paint3_linear)"/>
<path d="M336.845 673.516C293.038 673.516 241.94 673.346 180.637 672.991L126.427 672.698C93.6945 672.52 91.7646 672.483 87.7674 672.483L76.552 672.499C66.0875 576.633 109.541 551.462 176.738 542.676C194.569 540.164 212.106 535.586 225.865 526.714C263.242 577.636 374.239 566.92 393.222 525.274C396.404 526.488 399.034 528.056 402.326 529.244C413.008 537.103 427.674 542.605 442.683 543.436C502.224 546.735 544.373 573.188 543.544 668.525C543.551 668.903 543.553 671.215 543.514 671.936C514.868 671.936 504.124 672.213 481.624 672.536C451.105 672.971 413.121 673.513 336.872 673.513C336.861 673.516 336.854 673.516 336.845 673.516Z" fill="#CE1414"/>
<path d="M541.165 670.658C540.227 653.752 531.862 606.424 517.448 584.714C488.873 541.663 420.701 556.771 404.969 539.631C393.554 562.888 347.792 577.622 332.639 579.785C376.551 565.225 394.994 554.697 402.281 529.718C416.944 548.788 496.313 534.23 527.546 585.42C536.692 600.408 545.389 648.115 541.165 670.658ZM208.654 540.139C211.76 539.418 213.31 537.279 216.394 536.444L213.129 532.115C192.413 548.259 114.896 538.17 88.3171 587.141C79.9405 602.573 74.2904 639.31 78.7203 670.562C79.9496 651.368 80.5494 610.321 94.9631 588.609C120.887 549.553 168.162 559.871 203.979 543.337C219.965 563.025 244.93 572.705 270.333 576.709C238.463 568.396 220.19 554.36 208.654 540.139Z" fill="#DD2C2C"/>
<path d="M390.653 530.103C377.988 556.462 282.253 587.16 228.271 532.115C224.915 533.539 214.874 536.95 214.874 536.95C254.195 590.488 369.429 590.827 400.101 536.689C399.966 536.636 393.771 531.687 390.653 530.103Z" fill="#BF0000"/>
<path d="M393.103 524.97C371.553 568.06 259.413 574.156 225.954 526.417C213.736 530.029 201.987 537.728 190.158 539.654C119.372 550.196 67.0424 555.493 76.305 672.746C99.061 672.746 61.1703 672.597 180.632 673.238C463.571 674.864 454.349 672.183 543.734 672.183C543.801 671.862 543.768 668.859 543.782 668.529C548.581 539.328 473.152 546.956 422.173 538.049C414.975 536.405 408.286 531.7 402.404 529.017C399.156 527.532 396.395 526.197 393.103 524.97ZM225.144 527.861C254.846 581.413 372.162 570.669 394.813 528.092C397.56 529.246 398.263 529.704 401.448 530.833C377.986 580.028 261.931 595.706 214.462 533.495C214.796 533.401 221.797 529.116 225.144 527.861ZM78.9492 670.974C73.4068 610.465 83.0632 560.988 153.994 548.85C177.519 544.509 191.898 544.358 212.106 535.585C250.482 598.325 377.162 588.602 403.49 532.598C407.272 535.823 413.169 539.534 420.442 541.263C461.874 551.105 545.985 539.216 541.543 670.972C417.789 669.365 315.208 665.606 78.9492 670.974Z" fill="#A00000"/>
<path d="M185.439 326.581C182.04 320.944 170.955 305.521 162.475 307.685C155.579 309.452 155.669 319.065 155.135 324.751C154.357 333.094 154.073 347.626 156.337 353.524C158.514 359.185 165.403 370.126 169.679 374.3C174.943 379.416 183.347 395.723 184.382 397.415C186.009 400.089 189.274 403.917 194.283 403.614C201.313 403.191 207.387 396.547 207.939 393.347C210.917 375.971 194.287 341.246 185.439 326.581Z" fill="#ECA170" stroke="#BE5F21" stroke-width="3.825"/>
<path d="M182.071 360.914C181.744 359.625 182.087 357.45 182.424 355.353C182.728 353.441 183.015 351.635 182.841 350.357C182.179 345.573 178.456 336.484 176.027 331.557C173.228 325.889 168.704 318.749 163.026 316.908C160.682 316.146 159.137 317.057 158.244 317.979C157.585 318.657 157.436 319.456 157.651 319.552C157.869 319.646 158.354 318.984 159.064 318.364C159.645 317.856 157.901 318.272 159.064 318.364C158.594 320.745 157.083 332.791 158.125 341.585C158.944 348.503 160.529 353.67 161.016 354.444C161.087 355.259 161.206 356.058 161.383 356.832C163.677 366.928 178.594 380.13 182.064 383.892C182.705 384.585 183.379 384.997 183.543 384.828C183.708 384.659 183.312 383.974 182.676 383.276C179.246 379.54 164.427 366.378 162.211 356.639C159.86 346.305 171.167 330.983 172.969 327.741C173.887 329.264 174.668 330.724 175.267 331.942C175.741 332.897 176.261 334.016 176.801 335.227C175.741 336.917 165.084 349.254 167.795 359.13C168.798 362.772 176.545 367.468 179.542 368.752C181.19 369.462 181.808 370.52 182.527 371.742C183.36 373.171 182.602 376.845 185.343 378.013C185.901 378.251 186.405 378.347 186.851 378.347C187.625 378.347 188.211 378.049 188.644 377.697C188.69 378.317 188.688 379.114 188.665 379.851C188.637 380.808 188.772 381.245 189.003 381.263C189.239 381.284 189.484 380.865 189.514 379.92C189.553 378.752 189.546 377.307 189.338 376.614C188.722 374.579 186.847 372.278 184.857 369.844C182.902 367.452 182.58 362.91 182.071 360.914ZM160.939 351.965C155.563 336.116 163.876 321.679 165.082 319.504C167.399 320.418 170.947 324.525 172.456 326.91C171.357 328.817 161.163 341.303 160.939 351.965ZM185.67 377.22C183.189 376.163 184.054 372.678 183.253 371.305C182.525 370.064 181.774 368.782 179.867 367.962C179.455 367.784 178.999 367.514 178.532 367.202C172.392 353.295 179.203 347.216 180.911 345.973C181.435 347.672 181.824 349.231 182 350.483C182.156 351.628 181.865 353.455 181.586 355.218C181.236 357.404 180.876 359.668 181.249 361.133C181.808 363.315 182.19 367.933 184.205 370.401C185.993 372.589 187.829 374.846 188.456 376.687C188.186 377.053 187.337 377.932 185.67 377.22Z" fill="#BE5F21"/>
<path d="M433.592 326.581C436.994 320.944 448.079 305.521 456.556 307.685C463.451 309.452 463.362 319.065 463.898 324.751C464.676 333.094 464.958 347.626 462.696 353.524C460.519 359.185 453.628 370.126 449.354 374.3C444.09 379.416 435.684 395.723 434.652 397.415C433.024 400.089 429.759 403.917 424.748 403.614C417.72 403.191 411.646 396.547 411.092 393.347C408.116 375.971 424.748 341.246 433.592 326.581Z" fill="#ECA170" stroke="#BE5F21" stroke-width="3.825"/>
<path d="M434.178 369.846C432.188 372.28 430.313 374.581 429.697 376.616C429.487 377.312 429.482 378.756 429.519 379.922C429.551 380.867 429.796 381.286 430.034 381.265C430.268 381.247 430.4 380.81 430.373 379.853C430.35 379.116 430.345 378.319 430.391 377.699C430.824 378.051 431.41 378.349 432.184 378.349C432.63 378.349 433.136 378.253 433.695 378.015C436.43 376.845 435.675 373.17 436.508 371.744C437.227 370.522 437.845 369.462 439.496 368.754C442.493 367.47 450.24 362.777 451.242 359.132C453.953 349.256 443.296 336.916 442.236 335.229C442.772 334.018 443.296 332.899 443.765 331.944C444.37 330.726 445.148 329.263 446.069 327.743C447.87 330.985 459.175 346.305 456.826 356.641C454.608 366.38 439.791 379.542 436.362 383.278C435.723 383.976 435.325 384.66 435.49 384.83C435.659 384.999 436.33 384.587 436.968 383.894C440.439 380.132 455.354 366.93 457.648 356.834C457.827 356.06 457.948 355.261 458.019 354.446C458.502 353.674 460.088 348.507 460.908 341.587C461.95 332.793 460.439 320.747 459.969 318.366C461.132 318.274 459.388 317.858 459.969 318.366C460.681 318.986 461.167 319.648 461.382 319.554C461.597 319.458 461.448 318.661 460.791 317.981C459.896 317.059 458.351 316.148 456.006 316.91C450.329 318.751 445.803 325.891 443.003 331.559C440.574 336.486 436.854 345.575 436.192 350.359C436.018 351.637 436.305 353.443 436.609 355.355C436.943 357.452 437.289 359.627 436.962 360.916C436.453 362.91 436.133 367.452 434.178 369.846ZM446.577 326.91C448.088 324.524 451.634 320.419 453.951 319.504C455.157 321.679 463.47 336.115 458.097 351.964C457.872 341.303 447.678 328.817 446.577 326.91ZM430.579 376.682C431.204 374.842 433.042 372.584 434.83 370.396C436.842 367.928 437.227 363.31 437.786 361.128C438.157 359.663 437.799 357.399 437.451 355.213C437.17 353.45 436.879 351.623 437.035 350.478C437.209 349.226 437.598 347.667 438.122 345.968C439.83 347.212 446.641 353.292 440.501 367.197C440.036 367.509 439.581 367.779 439.164 367.957C437.259 368.777 436.508 370.059 435.778 371.3C434.977 372.674 435.844 376.16 433.363 377.216C431.696 377.932 430.847 377.053 430.579 376.682Z" fill="#BE5F21"/>
<path d="M309.821 135.474C232.859 135.595 170.355 198.817 170.474 276.709C170.495 289.079 172.086 301.075 175.058 312.501H175.06C175.087 312.624 193.649 394.48 202.12 421.295C208.473 441.411 234.83 471.635 253.396 479.265C271.313 486.63 283.247 501.765 309.819 501.765C336.391 501.765 348.326 486.63 366.242 479.265C384.808 471.635 411.168 441.411 417.518 421.295C425.989 394.48 444.553 312.624 444.576 312.501H444.581C447.552 301.073 449.146 289.079 449.164 276.709C449.29 198.817 386.784 135.595 309.821 135.474Z" fill="#ECA170"/>
<path d="M403.054 171.805C426.918 197.363 441.668 232.642 441.616 271.588C441.595 283.957 440.091 295.953 437.28 307.379H437.277C437.252 307.503 419.693 389.358 411.682 416.173C405.678 436.292 380.742 466.513 363.185 474.144C346.237 481.506 334.951 496.645 309.821 496.645C284.689 496.645 273.402 481.506 256.459 474.144C238.897 466.513 213.969 436.292 207.962 416.173C199.949 389.358 182.394 307.503 182.367 307.379H182.365C179.551 295.951 178.047 283.957 178.029 271.588C177.971 232.644 192.722 197.37 216.581 171.812C188.237 197.668 170.41 235.089 170.474 276.709C170.494 289.079 172.086 301.075 175.057 312.501H175.059C175.087 312.624 193.649 394.479 202.119 421.294C208.472 441.411 234.829 471.634 253.396 479.265C271.312 486.63 283.246 501.764 309.819 501.764C336.391 501.764 348.325 486.63 366.242 479.265C384.808 471.634 411.167 441.411 417.518 421.294C425.989 394.479 444.553 312.624 444.576 312.501H444.58C447.552 301.072 449.145 289.079 449.163 276.709C449.232 235.085 431.405 197.661 403.054 171.805Z" fill="#E49561"/>
<path d="M309.821 135.474C232.859 135.595 170.355 198.817 170.474 276.709C170.495 289.079 172.086 301.075 175.058 312.501H175.06C175.087 312.624 193.649 394.48 202.12 421.295C208.473 441.411 234.83 471.635 253.396 479.265C271.313 486.63 283.247 501.765 309.819 501.765C336.391 501.765 348.326 486.63 366.242 479.265C384.808 471.635 411.168 441.411 417.518 421.295C425.989 394.48 444.553 312.624 444.576 312.501H444.581C447.552 301.073 449.146 289.079 449.164 276.709C449.29 198.817 386.784 135.595 309.821 135.474Z" stroke="#BE5F21" stroke-width="3.825"/>
<path d="M310.707 458.134C302.79 458.134 299.473 452.003 299.473 452.003L321.771 451.573C321.771 451.57 317.676 458.134 310.707 458.134Z" fill="url(#paint4_linear)"/>
<path d="M307.115 452.178C303.037 452.178 299.935 451.786 299.718 451.756C299.384 451.711 299.15 451.422 299.196 451.111C299.242 450.795 299.555 450.591 299.885 450.621C299.977 450.635 313.813 451.766 321.306 450.174C321.663 450.106 321.968 450.305 322.041 450.607C322.112 450.916 321.904 451.223 321.579 451.292C318.353 451.976 310.036 452.178 307.115 452.178ZM274.082 439.856C273.246 438.339 283.461 440.111 289.627 438.595C296.449 436.919 303.594 439.071 310.535 439.692C315.988 440.179 321.611 437.459 326.998 438.693C334.463 440.404 345.853 438.245 344.953 440.053C344.328 441.308 333.751 442.457 327.728 441.436C322.46 440.543 317.007 442.709 311.689 443.107C305.084 443.604 298.486 439.937 291.968 440.971C284.455 442.164 274.792 441.148 274.082 439.856Z" fill="#BE5F21"/>
<path d="M222.254 322.412C221.096 317.181 234.138 313.316 251.354 315.427C268.565 317.54 280.515 328.073 278.945 333.385C278.075 336.329 254.589 340.813 246.315 339.902C237.927 338.975 225.052 335.042 222.254 322.412Z" fill="url(#paint5_radial)"/>
<path d="M264.602 326.365C264.602 333.95 258.45 340.101 250.866 340.101C243.281 340.101 237.13 333.95 237.13 326.365C237.13 318.779 243.281 312.629 250.866 312.629C258.45 312.627 264.602 318.779 264.602 326.365Z" fill="#502825"/>
<path opacity="0.7" d="M249.328 312.782C249.275 312.789 249.22 312.795 249.166 312.802C249.232 313.111 249.296 313.423 249.36 313.732C249.346 313.418 249.34 313.098 249.328 312.782ZM249.358 313.73C249.518 318.244 249.781 322.266 250.541 323.72C250.942 322.127 250.26 318.157 249.358 313.73ZM250.544 323.722C250.445 324.105 250.296 324.366 250.068 324.453C249.839 324.54 249.55 324.439 249.225 324.217C249.319 324.599 249.31 324.897 249.143 325.082C248.978 325.268 248.682 325.314 248.289 325.261C248.547 325.558 248.68 325.831 248.623 326.069C248.561 326.307 248.316 326.486 247.952 326.623C248.316 326.767 248.561 326.946 248.618 327.184C248.676 327.422 248.543 327.694 248.286 327.99C248.676 327.942 248.976 327.992 249.136 328.177C249.298 328.363 249.307 328.663 249.216 329.045C249.539 328.823 249.823 328.727 250.051 328.816C250.283 328.903 250.432 329.164 250.523 329.549C250.709 329.201 250.915 328.979 251.164 328.954C251.402 328.922 251.659 329.089 251.917 329.384C251.92 328.99 252.002 328.699 252.208 328.56C252.41 328.42 252.709 328.448 253.076 328.59C252.897 328.242 252.835 327.946 252.95 327.727C253.064 327.509 253.346 327.392 253.737 327.346C253.415 327.12 253.218 326.889 253.222 326.641C253.222 326.394 253.415 326.163 253.742 325.941C253.353 325.893 253.076 325.776 252.959 325.559C252.847 325.341 252.909 325.043 253.092 324.695C252.721 324.833 252.423 324.86 252.222 324.721C252.018 324.581 251.936 324.29 251.936 323.896C251.679 324.189 251.423 324.352 251.18 324.32C250.933 324.288 250.725 324.073 250.544 323.722ZM251.933 323.894C253.03 322.669 254.271 318.837 255.528 314.499C253.572 318.567 251.936 322.25 251.933 323.894ZM255.525 314.499C255.663 314.219 255.802 313.936 255.933 313.652C255.885 313.636 255.837 313.613 255.789 313.592C255.702 313.897 255.615 314.201 255.525 314.499ZM253.092 324.695C254.63 324.119 257.512 321.3 260.64 318.045C257.02 320.737 253.856 323.239 253.092 324.695ZM260.64 318.045C260.869 317.873 261.104 317.702 261.338 317.53C261.306 317.489 261.269 317.454 261.242 317.418C261.043 317.624 260.843 317.837 260.64 318.045ZM253.737 325.941C255.37 326.142 259.232 324.986 263.517 323.558C259.058 324.263 255.097 325.007 253.737 325.941ZM263.517 323.56C263.769 323.523 264.032 323.482 264.289 323.441C264.28 323.397 264.268 323.354 264.257 323.31C264.012 323.393 263.76 323.478 263.517 323.56ZM253.735 327.344C255.086 328.287 259.042 329.054 263.492 329.778C259.223 328.329 255.37 327.15 253.735 327.344ZM263.494 329.778C263.712 329.853 263.932 329.931 264.147 330.002C264.158 329.963 264.168 329.927 264.174 329.888C263.952 329.853 263.721 329.817 263.494 329.778ZM253.076 328.587C253.838 330.046 256.986 332.566 260.589 335.281C257.478 332.008 254.616 329.173 253.076 328.587ZM260.592 335.277C260.727 335.419 260.866 335.565 261.001 335.709C261.024 335.682 261.045 335.661 261.07 335.636C260.91 335.517 260.745 335.396 260.592 335.277ZM251.92 329.382C251.913 331.028 253.529 334.718 255.461 338.798C254.227 334.455 253.012 330.613 251.92 329.382ZM255.461 338.8C255.509 338.972 255.56 339.148 255.605 339.324C255.64 339.311 255.663 339.301 255.695 339.292C255.619 339.127 255.539 338.958 255.461 338.8ZM250.525 329.547C249.756 331.005 249.47 335.018 249.285 339.53C250.209 335.112 250.917 331.144 250.525 329.547ZM249.285 339.53C249.246 339.702 249.214 339.876 249.177 340.052C249.209 340.059 249.234 340.059 249.266 340.064C249.271 339.887 249.28 339.704 249.285 339.53ZM249.218 329.043C247.854 329.975 245.736 333.402 243.477 337.307C246.347 333.828 248.82 330.641 249.218 329.043ZM243.477 337.307C243.355 337.452 243.229 337.605 243.106 337.749C243.135 337.768 243.161 337.781 243.193 337.804C243.284 337.639 243.383 337.472 243.477 337.307ZM248.291 327.992C246.652 328.182 243.183 330.231 239.367 332.637C243.529 330.893 247.192 329.224 248.291 327.992ZM239.365 332.642C239.168 332.724 238.967 332.807 238.763 332.894C238.777 332.923 238.797 332.955 238.815 332.985C239.001 332.873 239.184 332.756 239.365 332.642ZM247.954 326.625C246.418 326.037 242.394 326.241 237.893 326.6C242.389 326.985 246.414 327.207 247.954 326.625ZM237.893 326.6C237.648 326.577 237.396 326.554 237.153 326.534C237.153 326.577 237.149 326.621 237.153 326.662C237.403 326.639 237.652 326.618 237.893 326.6ZM248.291 325.265C247.208 324.032 243.554 322.342 239.406 320.57C243.204 322.997 246.661 325.066 248.291 325.265ZM239.406 320.57C239.168 320.417 238.928 320.263 238.685 320.11C238.664 320.153 238.641 320.197 238.619 320.236C238.884 320.348 239.15 320.458 239.406 320.57ZM249.227 324.217C248.84 322.619 246.386 319.423 243.538 315.923C245.773 319.842 247.872 323.278 249.227 324.217ZM243.538 315.923C243.385 315.659 243.236 315.392 243.083 315.124C243.039 315.153 242.993 315.183 242.955 315.213C243.147 315.449 243.348 315.687 243.538 315.923Z" fill="url(#paint6_radial)"/>
<path opacity="0.4" d="M252.894 312.827C252.839 312.82 252.787 312.811 252.734 312.804C252.718 313.12 252.697 313.438 252.679 313.751C252.748 313.445 252.823 313.133 252.894 312.827ZM252.677 313.749C251.665 318.149 250.875 322.103 251.237 323.708C252.036 322.27 252.402 318.259 252.677 313.749ZM251.234 323.708C251.042 324.051 250.832 324.264 250.587 324.289C250.344 324.312 250.092 324.143 249.838 323.843C249.829 324.234 249.742 324.523 249.533 324.658C249.327 324.793 249.028 324.761 248.664 324.61C248.838 324.965 248.895 325.262 248.776 325.475C248.654 325.69 248.373 325.8 247.986 325.837C248.3 326.068 248.49 326.304 248.483 326.551C248.478 326.796 248.279 327.025 247.954 327.243C248.341 327.297 248.618 327.423 248.725 327.641C248.835 327.861 248.767 328.156 248.579 328.499C248.947 328.369 249.247 328.351 249.446 328.495C249.646 328.639 249.721 328.93 249.712 329.326C249.98 329.04 250.236 328.877 250.484 328.916C250.724 328.948 250.928 329.175 251.102 329.53C251.205 329.147 251.36 328.891 251.596 328.808C251.827 328.726 252.111 328.831 252.427 329.063C252.345 328.68 252.361 328.378 252.528 328.197C252.695 328.016 252.997 327.977 253.389 328.032C253.135 327.73 253.004 327.458 253.073 327.22C253.137 326.982 253.384 326.808 253.757 326.677C253.391 326.531 253.155 326.345 253.098 326.105C253.045 325.864 253.183 325.594 253.451 325.306C253.057 325.342 252.761 325.292 252.603 325.104C252.443 324.917 252.439 324.614 252.539 324.237C252.214 324.452 251.926 324.543 251.699 324.45C251.463 324.356 251.321 324.092 251.234 323.708ZM252.535 324.237C253.911 323.335 256.099 319.953 258.437 316.091C255.495 319.514 252.963 322.646 252.535 324.237ZM258.437 316.089C258.64 315.855 258.849 315.617 259.05 315.377C259.007 315.347 258.968 315.313 258.924 315.281C258.762 315.553 258.599 315.826 258.437 316.089ZM253.446 325.308C255.083 325.148 258.597 323.17 262.459 320.837C258.263 322.501 254.561 324.099 253.446 325.308ZM262.457 320.835C262.725 320.729 262.995 320.624 263.267 320.519C263.244 320.471 263.219 320.427 263.203 320.384C262.956 320.535 262.709 320.688 262.457 320.835ZM253.748 326.679C255.273 327.297 259.302 327.178 263.81 326.911C259.32 326.434 255.303 326.128 253.748 326.679ZM263.81 326.908C264.066 326.938 264.327 326.966 264.586 326.993C264.586 326.947 264.588 326.904 264.59 326.86C264.329 326.876 264.066 326.892 263.81 326.908ZM253.384 328.035C254.442 329.296 258.068 331.059 262.18 332.909C258.428 330.402 255.012 328.268 253.384 328.035ZM262.177 332.909C262.367 333.039 262.56 333.17 262.75 333.293C262.77 333.259 262.789 333.225 262.807 333.19C262.601 333.101 262.386 333.005 262.177 332.909ZM252.423 329.065C252.78 330.67 255.17 333.918 257.949 337.476C255.79 333.506 253.76 330.026 252.423 329.065ZM257.949 337.469C258.045 337.641 258.139 337.819 258.235 337.993C258.263 337.973 258.29 337.957 258.32 337.938C258.196 337.783 258.07 337.622 257.949 337.469ZM251.102 329.532C250.671 331.118 251.276 335.102 252.086 339.543C252.015 335.029 251.837 331.004 251.102 329.532ZM252.084 339.543C252.086 339.722 252.091 339.905 252.091 340.088C252.123 340.083 252.152 340.079 252.185 340.079C252.152 339.903 252.118 339.719 252.084 339.543ZM249.712 329.328C248.59 330.537 247.276 334.339 245.93 338.65C247.965 334.623 249.678 330.974 249.712 329.328ZM245.928 338.65C245.848 338.806 245.768 338.966 245.69 339.126C245.717 339.14 245.742 339.147 245.772 339.161C245.822 338.994 245.877 338.817 245.928 338.65ZM248.577 328.504C247.02 329.051 244.085 331.814 240.891 335.001C244.57 332.382 247.78 329.944 248.577 328.504ZM240.894 335.001C240.74 335.109 240.58 335.225 240.424 335.333C240.447 335.358 240.47 335.379 240.491 335.406C240.621 335.271 240.758 335.138 240.894 335.001ZM247.954 327.247C246.322 327.009 242.443 328.09 238.13 329.427C242.606 328.818 246.573 328.154 247.954 327.247ZM238.13 329.431C237.92 329.461 237.702 329.486 237.482 329.52C237.489 329.555 237.501 329.589 237.512 329.621C237.721 329.562 237.927 329.493 238.13 329.431ZM247.984 325.844C246.651 324.875 242.711 324.031 238.272 323.213C242.517 324.749 246.344 326.006 247.984 325.844ZM238.272 323.213C238.041 323.129 237.803 323.042 237.574 322.957C237.563 323 237.549 323.042 237.54 323.081C237.789 323.124 238.034 323.17 238.272 323.213ZM248.664 324.614C247.936 323.142 244.845 320.565 241.294 317.778C244.334 321.109 247.139 324.003 248.664 324.614ZM241.292 317.781C241.102 317.572 240.91 317.362 240.717 317.151C240.685 317.188 240.651 317.222 240.621 317.256C240.848 317.43 241.074 317.604 241.292 317.781ZM249.838 323.845C249.877 322.201 248.336 318.479 246.486 314.363C247.631 318.726 248.771 322.588 249.838 323.845ZM246.486 314.363C246.409 314.07 246.333 313.77 246.255 313.472C246.207 313.488 246.157 313.507 246.111 313.525C246.235 313.804 246.363 314.086 246.486 314.363Z" fill="url(#paint7_radial)"/>
<path d="M256.255 326.366C256.255 329.342 253.844 331.752 250.868 331.752C247.894 331.752 245.479 329.342 245.479 326.366C245.479 323.392 247.894 320.977 250.868 320.977C253.844 320.977 256.255 323.39 256.255 326.366Z" fill="#502825"/>
<path opacity="0.9" d="M256.255 326.366C256.255 329.342 253.844 331.752 250.868 331.752C247.894 331.752 245.479 329.342 245.479 326.366C245.479 323.392 247.894 320.977 250.868 320.977C253.844 320.977 256.255 323.39 256.255 326.366Z" fill="black"/>
<path opacity="0.5" d="M243.35 332.657C244.378 331.965 245.775 332.244 246.464 333.27C247.153 334.298 246.88 335.694 245.85 336.384C244.82 337.077 243.426 336.802 242.737 335.772C242.048 334.744 242.322 333.346 243.35 332.657Z" fill="url(#paint8_linear)"/>
<path opacity="0.5" d="M255.124 325.615C254.549 326.471 252.906 326.373 251.447 325.395C249.987 324.418 249.272 322.927 249.845 322.073V322.071C250.417 321.215 252.063 321.313 253.519 322.293C254.982 323.268 255.696 324.756 255.124 325.615Z" fill="url(#paint9_linear)"/>
<path opacity="0.75" d="M261.662 323.328C260.362 325.326 257.001 325.446 254.165 323.596C251.326 321.746 250.081 318.628 251.383 316.629C252.684 314.633 256.044 314.514 258.881 316.361C261.717 318.214 262.963 321.334 261.662 323.328Z" fill="url(#paint10_linear)"/>
<path d="M202.891 323.504C204.743 348.455 229.532 377.493 249.836 374.409C273.869 374.652 297.6 356.397 297.6 323.346C297.6 290.295 285.954 262.614 249.234 262.614C222.906 262.612 202.891 290.453 202.891 323.504ZM222.254 322.412C221.095 317.181 234.138 313.316 251.354 315.427C268.565 317.54 280.515 328.073 278.945 333.384C278.075 336.328 254.588 340.813 246.315 339.902C237.927 338.975 225.051 335.042 222.254 322.412Z" fill="#ECA170"/>
<path d="M246.315 339.902C254.589 340.813 278.075 336.329 278.945 333.385C280.518 328.073 268.565 317.54 251.354 315.427C236.565 313.614 224.882 316.215 222.609 320.299C224.665 305.647 240.237 294.207 259.208 294.122C279.609 294.038 296.177 307.117 296.232 323.346C296.28 339.573 279.783 352.791 259.385 352.883C238.98 352.967 222.414 339.889 222.359 323.662C222.359 323.421 222.396 323.186 222.403 322.945C225.448 335.14 238.048 338.989 246.315 339.902Z" fill="url(#paint11_radial)"/>
<path d="M222.254 322.412C221.096 317.181 234.138 313.316 251.354 315.427C268.565 317.54 280.515 328.073 278.945 333.385C278.075 336.329 254.589 340.813 246.315 339.902C237.927 338.975 225.052 335.042 222.254 322.412Z" fill="url(#paint12_radial)"/>
<path d="M223.161 310.722C232.794 306.194 244.566 305.777 254.84 308.421C260.344 309.706 266.207 311.363 271.01 314.461C275.463 317.059 279.08 320.184 282.461 324.053C279.389 320.159 276.113 316.915 271.878 314.278C266.667 311.036 260.96 309.026 255.019 307.602C244.52 305.024 232.762 305.61 223.161 310.722Z" fill="#BE5F21"/>
<path d="M224.582 312.103C226.597 311.297 233.888 309.814 237.073 309.662C240.935 309.475 248.687 309.949 252.491 310.633C260.216 312.025 273.67 316.318 279.226 327.08C280.934 330.388 279.396 332.702 278.945 333.204C279.632 327.65 267.869 317.76 251.354 315.796C234.138 313.749 221.096 317.497 222.254 322.567C225.052 334.811 237.927 338.622 246.315 339.52C255.699 340.525 273.063 335.997 275.357 335.507C270.781 337.817 258.132 340.303 252.997 340.779C251.294 340.939 247.869 341.017 246.161 340.974C232.542 340.612 222.881 333.705 219.31 324.353C217.016 318.341 219.525 314.122 224.582 312.103Z" fill="black"/>
<path d="M396.465 322.411C397.623 317.18 384.581 313.316 367.365 315.427C350.154 317.54 338.204 328.073 339.774 333.384C340.644 336.328 364.13 340.813 372.404 339.902C380.792 338.975 393.667 335.042 396.465 322.411Z" fill="url(#paint13_radial)"/>
<path d="M382.502 326.365C382.502 333.949 376.351 340.101 368.769 340.101C361.184 340.101 355.03 333.949 355.03 326.365C355.03 318.778 361.184 312.629 368.769 312.629C376.351 312.627 382.502 318.778 382.502 326.365Z" fill="#502825"/>
<path opacity="0.7" d="M367.228 312.781C367.175 312.788 367.12 312.795 367.065 312.802C367.132 313.111 367.198 313.422 367.26 313.731C367.246 313.418 367.239 313.097 367.228 312.781ZM367.258 313.729C367.416 318.244 367.681 322.266 368.444 323.72C368.842 322.126 368.16 318.157 367.258 313.729ZM368.441 323.722C368.345 324.104 368.194 324.365 367.967 324.452C367.736 324.539 367.45 324.439 367.127 324.216C367.219 324.599 367.21 324.896 367.045 325.082C366.88 325.267 366.585 325.313 366.193 325.26C366.45 325.558 366.585 325.83 366.527 326.069C366.463 326.307 366.221 326.485 365.857 326.623C366.218 326.767 366.463 326.945 366.52 327.183C366.578 327.422 366.447 327.694 366.189 327.989C366.578 327.941 366.875 327.992 367.036 328.177C367.198 328.362 367.207 328.662 367.116 329.045C367.439 328.823 367.725 328.726 367.951 328.816C368.185 328.903 368.331 329.164 368.423 329.548C368.606 329.2 368.817 328.978 369.062 328.953C369.302 328.921 369.558 329.088 369.815 329.383C369.819 328.99 369.9 328.699 370.108 328.559C370.307 328.42 370.609 328.447 370.976 328.589C370.797 328.241 370.737 327.946 370.847 327.726C370.964 327.509 371.246 327.392 371.637 327.346C371.314 327.119 371.115 326.888 371.122 326.641C371.12 326.394 371.314 326.162 371.642 325.94C371.25 325.892 370.976 325.776 370.859 325.558C370.744 325.341 370.808 325.043 370.989 324.695C370.621 324.832 370.323 324.86 370.119 324.72C369.916 324.58 369.835 324.29 369.833 323.896C369.579 324.189 369.32 324.352 369.078 324.319C368.833 324.287 368.624 324.072 368.441 323.722ZM369.833 323.894C370.93 322.669 372.171 318.837 373.425 314.498C371.472 318.566 369.838 322.25 369.833 323.894ZM373.425 314.498C373.562 314.219 373.702 313.935 373.835 313.651C373.787 313.635 373.739 313.612 373.691 313.592C373.601 313.896 373.514 314.201 373.425 314.498ZM370.992 324.695C372.532 324.118 375.415 321.3 378.542 318.044C374.92 320.737 371.758 323.239 370.992 324.695ZM378.542 318.044C378.771 317.873 379.004 317.701 379.24 317.529C379.206 317.488 379.171 317.454 379.144 317.417C378.942 317.623 378.743 317.836 378.542 318.044ZM371.639 325.94C373.272 326.142 377.132 324.986 381.417 323.557C376.958 324.262 372.997 325.006 371.639 325.94ZM381.417 323.559C381.669 323.523 381.932 323.482 382.189 323.44C382.177 323.397 382.168 323.353 382.157 323.31C381.912 323.392 381.66 323.477 381.417 323.559ZM371.635 327.344C372.988 328.287 376.942 329.054 381.394 329.777C377.122 328.328 373.269 327.149 371.635 327.344ZM381.394 329.777C381.612 329.853 381.829 329.931 382.047 330.002C382.058 329.963 382.067 329.926 382.076 329.887C381.852 329.853 381.619 329.816 381.394 329.777ZM370.976 328.587C371.736 330.045 374.886 332.566 378.489 335.281C375.38 332.007 372.516 329.173 370.976 328.587ZM378.491 335.276C378.626 335.418 378.764 335.565 378.899 335.709C378.922 335.681 378.945 335.661 378.97 335.636C378.81 335.517 378.645 335.395 378.491 335.276ZM369.822 329.381C369.815 331.027 371.429 334.718 373.363 338.797C372.127 334.454 370.911 330.613 369.822 329.381ZM373.363 338.8C373.411 338.971 373.462 339.148 373.508 339.324C373.542 339.31 373.567 339.301 373.597 339.292C373.519 339.127 373.439 338.957 373.363 338.8ZM368.425 329.546C367.656 331.004 367.37 335.018 367.184 339.53C368.109 335.111 368.817 331.144 368.425 329.546ZM367.184 339.53C367.145 339.702 367.113 339.875 367.077 340.052C367.109 340.059 367.132 340.059 367.166 340.063C367.171 339.887 367.18 339.704 367.184 339.53ZM367.116 329.042C365.751 329.974 363.634 333.401 361.374 337.307C364.247 333.827 366.717 330.64 367.116 329.042ZM361.374 337.307C361.255 337.451 361.129 337.604 361.005 337.749C361.035 337.767 361.06 337.781 361.09 337.804C361.184 337.639 361.283 337.472 361.374 337.307ZM366.189 327.992C364.549 328.182 361.083 330.231 357.267 332.637C361.429 330.892 365.092 329.223 366.189 327.992ZM357.267 332.641C357.068 332.724 356.866 332.806 356.665 332.893C356.679 332.923 356.697 332.955 356.718 332.985C356.901 332.872 357.084 332.756 357.267 332.641ZM365.857 326.625C364.318 326.036 360.294 326.24 355.793 326.6C360.291 326.984 364.314 327.206 365.857 326.625ZM355.793 326.6C355.55 326.577 355.296 326.554 355.056 326.533C355.053 326.577 355.049 326.62 355.053 326.661C355.303 326.639 355.552 326.618 355.793 326.6ZM366.193 325.265C365.108 324.031 361.456 322.342 357.306 320.57C361.104 322.996 364.561 325.066 366.193 325.265ZM357.306 320.57C357.068 320.416 356.825 320.263 356.585 320.109C356.564 320.153 356.541 320.196 356.521 320.235C356.784 320.347 357.052 320.457 357.306 320.57ZM367.127 324.216C366.74 322.619 364.286 319.423 361.438 315.922C363.673 319.842 365.772 323.278 367.127 324.216ZM361.438 315.922C361.285 315.659 361.134 315.391 360.985 315.123C360.941 315.153 360.896 315.183 360.854 315.213C361.049 315.448 361.248 315.686 361.438 315.922Z" fill="url(#paint14_radial)"/>
<path opacity="0.4" d="M370.795 312.826C370.74 312.819 370.687 312.81 370.635 312.803C370.616 313.119 370.598 313.437 370.58 313.751C370.646 313.444 370.721 313.133 370.795 312.826ZM370.577 313.749C369.563 318.149 368.776 322.102 369.135 323.707C369.936 322.27 370.303 318.259 370.577 313.749ZM369.135 323.707C368.943 324.051 368.73 324.264 368.487 324.289C368.244 324.312 367.993 324.142 367.739 323.842C367.729 324.234 367.642 324.522 367.434 324.657C367.228 324.792 366.928 324.76 366.564 324.609C366.736 324.964 366.795 325.262 366.676 325.475C366.553 325.69 366.273 325.8 365.884 325.836C366.2 326.068 366.388 326.303 366.381 326.551C366.376 326.796 366.177 327.025 365.854 327.242C366.244 327.297 366.516 327.423 366.626 327.64C366.736 327.86 366.667 328.155 366.479 328.499C366.85 328.368 367.15 328.35 367.349 328.494C367.548 328.639 367.624 328.929 367.613 329.325C367.88 329.039 368.137 328.877 368.384 328.916C368.624 328.948 368.828 329.174 369.002 329.529C369.108 329.147 369.261 328.89 369.497 328.808C369.728 328.726 370.014 328.831 370.328 329.062C370.248 328.68 370.264 328.378 370.431 328.197C370.596 328.016 370.898 327.977 371.289 328.032C371.037 327.73 370.905 327.457 370.973 327.219C371.035 326.981 371.285 326.807 371.658 326.677C371.294 326.53 371.056 326.345 370.999 326.104C370.948 325.864 371.085 325.594 371.351 325.305C370.957 325.342 370.66 325.292 370.504 325.104C370.344 324.916 370.339 324.614 370.442 324.236C370.115 324.451 369.826 324.543 369.6 324.449C369.366 324.355 369.22 324.092 369.135 323.707ZM370.435 324.236C371.811 323.334 374 319.953 376.337 316.091C373.395 319.513 370.863 322.645 370.435 324.236ZM376.337 316.088C376.541 315.855 376.749 315.617 376.953 315.376C376.907 315.347 376.868 315.312 376.825 315.28C376.662 315.553 376.5 315.825 376.337 316.088ZM371.346 325.308C372.983 325.147 376.495 323.169 380.36 320.836C376.163 322.501 372.461 324.099 371.346 325.308ZM380.357 320.834C380.623 320.729 380.893 320.624 381.168 320.518C381.145 320.47 381.12 320.427 381.104 320.383C380.856 320.534 380.609 320.688 380.357 320.834ZM371.649 326.679C373.173 327.297 377.203 327.178 381.713 326.91C377.219 326.434 373.203 326.127 371.649 326.679ZM381.71 326.908C381.964 326.938 382.228 326.965 382.486 326.993C382.489 326.947 382.489 326.903 382.491 326.86C382.232 326.876 381.967 326.892 381.71 326.908ZM371.285 328.034C372.345 329.296 375.969 331.058 380.08 332.908C376.328 330.401 372.912 328.268 371.285 328.034ZM380.078 332.908C380.266 333.039 380.46 333.169 380.65 333.293C380.671 333.258 380.692 333.224 380.705 333.19C380.502 333.1 380.286 333.004 380.078 332.908ZM370.325 329.064C370.68 330.669 373.07 333.918 375.85 337.475C373.691 333.506 371.662 330.026 370.325 329.064ZM375.852 337.468C375.946 337.64 376.04 337.819 376.136 337.993C376.163 337.972 376.188 337.956 376.22 337.938C376.097 337.782 375.969 337.622 375.852 337.468ZM369.002 329.531C368.572 331.118 369.176 335.101 369.987 339.543C369.916 335.028 369.737 331.003 369.002 329.531ZM369.984 339.543C369.987 339.721 369.991 339.904 369.991 340.088C370.026 340.083 370.051 340.078 370.083 340.078C370.053 339.902 370.019 339.719 369.984 339.543ZM367.61 329.328C366.491 330.536 365.174 334.339 363.828 338.65C365.866 334.623 367.576 330.974 367.61 329.328ZM363.828 338.65C363.748 338.805 363.67 338.966 363.59 339.126C363.618 339.14 363.641 339.147 363.67 339.16C363.723 338.993 363.778 338.817 363.828 338.65ZM366.477 328.503C364.92 329.051 361.988 331.814 358.794 335.001C362.471 332.382 365.68 329.943 366.477 328.503ZM358.794 335.001C358.641 335.108 358.478 335.225 358.325 335.333C358.348 335.358 358.371 335.378 358.391 335.406C358.522 335.271 358.661 335.138 358.794 335.001ZM365.854 327.247C364.222 327.009 360.346 328.089 356.033 329.426C360.507 328.817 364.476 328.153 365.854 327.247ZM356.033 329.431C355.82 329.46 355.603 329.486 355.385 329.52C355.394 329.554 355.404 329.589 355.415 329.621C355.621 329.561 355.827 329.492 356.033 329.431ZM365.884 325.843C364.552 324.875 360.612 324.03 356.173 323.213C360.417 324.749 364.245 326.006 365.884 325.843ZM356.173 323.213C355.942 323.128 355.703 323.041 355.475 322.956C355.461 323 355.449 323.041 355.44 323.08C355.687 323.124 355.935 323.169 356.173 323.213ZM366.564 324.614C365.836 323.142 362.743 320.564 359.192 317.778C362.235 321.109 365.039 324.003 366.564 324.614ZM359.192 317.78C359.002 317.572 358.81 317.361 358.618 317.151C358.583 317.187 358.554 317.222 358.519 317.256C358.746 317.43 358.977 317.604 359.192 317.78ZM367.739 323.845C367.777 322.201 366.237 318.478 364.387 314.362C365.534 318.726 366.672 322.588 367.739 323.845ZM364.387 314.362C364.309 314.069 364.234 313.769 364.153 313.472C364.105 313.488 364.055 313.506 364.009 313.524C364.135 313.804 364.263 314.085 364.387 314.362Z" fill="url(#paint15_radial)"/>
<path d="M374.155 326.365C374.155 329.341 371.742 331.752 368.768 331.752C365.792 331.752 363.379 329.341 363.379 326.365C363.379 323.391 365.795 320.976 368.768 320.976C371.747 320.976 374.155 323.389 374.155 326.365Z" fill="#502825"/>
<path opacity="0.9" d="M374.155 326.365C374.155 329.341 371.742 331.752 368.768 331.752C365.792 331.752 363.379 329.341 363.379 326.365C363.379 323.391 365.795 320.976 368.768 320.976C371.747 320.976 374.155 323.389 374.155 326.365Z" fill="black"/>
<path opacity="0.5" d="M361.253 332.656C362.278 331.965 363.677 332.244 364.364 333.27C365.055 334.297 364.783 335.694 363.75 336.383C362.72 337.077 361.326 336.802 360.639 335.772C359.948 334.744 360.223 333.345 361.253 332.656Z" fill="url(#paint16_linear)"/>
<path opacity="0.5" d="M373.022 325.614C372.447 326.471 370.804 326.372 369.348 325.395C367.887 324.417 367.173 322.927 367.745 322.073L367.747 322.071C368.32 321.214 369.966 321.313 371.422 322.293C372.882 323.268 373.597 324.756 373.022 325.614Z" fill="url(#paint17_linear)"/>
<path opacity="0.75" d="M379.565 323.327C378.263 325.326 374.904 325.445 372.065 323.595C369.229 321.745 367.981 318.627 369.284 316.629C370.584 314.633 373.943 314.513 376.781 316.361C379.618 318.213 380.863 321.333 379.565 323.327Z" fill="url(#paint18_linear)"/>
<path d="M369.483 262.612C332.762 262.612 321.116 290.292 321.116 323.343C321.116 356.394 344.847 374.652 368.881 374.407C389.185 377.491 413.974 348.453 415.826 323.501C415.828 290.452 395.81 262.612 369.483 262.612ZM372.404 339.902C364.13 340.813 340.644 336.328 339.774 333.384C338.202 328.073 350.154 317.54 367.365 315.427C384.581 313.316 397.623 317.183 396.465 322.411C393.667 335.042 380.792 338.975 372.404 339.902Z" fill="#ECA170"/>
<path d="M372.404 339.902C364.13 340.813 340.644 336.328 339.774 333.384C338.201 328.073 350.154 317.54 367.365 315.427C382.154 313.613 393.837 316.216 396.11 320.298C394.054 305.646 378.482 294.207 359.51 294.122C339.11 294.037 322.542 307.116 322.487 323.345C322.439 339.572 338.936 352.791 359.334 352.882C379.739 352.967 396.305 339.888 396.36 323.661C396.36 323.421 396.323 323.185 396.316 322.945C393.269 335.14 380.668 338.988 372.404 339.902Z" fill="url(#paint19_radial)"/>
<path d="M396.465 322.411C397.623 317.18 384.581 313.316 367.365 315.427C350.154 317.54 338.204 328.073 339.774 333.384C340.644 336.328 364.13 340.813 372.404 339.902C380.792 338.975 393.667 335.042 396.465 322.411Z" fill="url(#paint20_radial)"/>
<path d="M395.556 310.722C385.922 306.194 374.151 305.777 363.876 308.421C358.373 309.706 352.51 311.363 347.707 314.461C343.254 317.059 339.637 320.184 336.255 324.053C339.328 320.159 342.604 316.915 346.839 314.278C352.049 311.036 357.757 309.026 363.698 307.602C374.199 305.024 385.957 305.61 395.556 310.722Z" fill="#BE5F21"/>
<path d="M394.137 312.102C392.122 311.297 384.831 309.813 381.646 309.662C377.784 309.474 370.032 309.948 366.227 310.633C358.503 312.025 345.049 316.317 339.493 327.079C337.785 330.387 339.323 332.702 339.774 333.203C339.087 327.649 350.85 317.759 367.365 315.795C384.581 313.748 397.623 317.496 396.465 322.567C393.667 334.81 380.792 338.622 372.404 339.519C363.02 340.524 345.655 335.996 343.362 335.506C347.938 337.816 360.586 340.302 365.721 340.779C367.425 340.939 370.85 341.017 372.557 340.973C386.177 340.611 395.838 333.705 399.409 324.353C401.703 318.341 399.194 314.122 394.137 312.102Z" fill="black"/>
<path d="M403.679 394.413C403.759 446.203 361.802 488.262 309.958 488.333C258.123 488.418 216.031 446.5 215.951 394.7C215.871 342.915 257.828 300.69 309.67 300.608C361.507 300.528 403.603 342.617 403.679 394.413Z" fill="url(#paint21_radial)"/>
<path d="M395.666 257.111C395.666 304.525 357.231 342.961 309.819 342.961C262.404 342.961 223.966 304.525 223.966 257.111C223.966 209.696 262.404 171.261 309.819 171.261C357.231 171.261 395.666 209.696 395.666 257.111Z" fill="url(#paint22_radial)"/>
<path d="M204.977 307.478C253.728 266.728 304.645 297.169 289.039 304.575C282.921 307.478 259.756 282.293 204.977 307.478Z" fill="#2A232B"/>
<path d="M414.656 307.478C365.905 266.728 314.988 297.169 330.594 304.575C336.711 307.478 359.877 282.293 414.656 307.478Z" fill="#2A232B"/>
<path d="M321.423 403.37C323.834 403.37 324.486 404.011 324.486 404.8C324.486 405.595 323.736 406.813 321.423 406.229C318.885 405.597 314.45 405.89 314.45 405.89C314.45 405.89 319.015 403.37 321.423 403.37ZM298.409 403.37C295.996 403.372 295.348 404.015 295.348 404.807C295.346 405.597 296.074 406.735 298.409 406.236C300.984 405.684 305.382 405.895 305.382 405.895C305.382 405.895 300.822 403.379 298.409 403.37ZM329.525 394.812C329.525 394.812 332.863 398.599 332.167 402.603C331.494 406.492 324.754 408.205 324.754 408.205C324.754 408.205 329.434 405.235 330.002 401.627C330.267 399.945 329.525 394.812 329.525 394.812ZM288.336 390.916C288.336 390.916 285.902 396.218 286.607 399.448C287.885 405.279 294.906 407.609 294.906 407.609C294.906 407.609 290.524 403.61 288.967 400.075C287.264 396.22 288.336 390.916 288.336 390.916Z" fill="#BE5F21"/>
<path d="M321.307 397.632C323.644 395.89 323.88 394.897 323.394 394.247C322.914 393.596 321.51 393.184 319.553 395.284C317.396 397.6 312.706 399.308 312.706 399.308C312.706 399.308 318.967 399.379 321.307 397.632Z" fill="#FBBB90"/>
<path d="M431.112 359.226C420.666 330.759 432.753 287.099 412.328 254.798C403.024 239.318 394.936 228.679 396.417 210.669L395.575 210.385C393.601 213.481 391.01 216.841 389.29 218.993C390.268 216.496 391.861 212.67 393.304 209.783L392.544 209.284C386.626 216.319 381.543 219.927 374.552 221.876C382.107 216.564 390.46 207.322 394.116 202.199L393.496 201.549C367.583 218.222 338.177 218.448 312.234 218.652C288.821 218.826 274.279 218.297 257.397 208.485C245.216 212.524 235.624 212.009 225.081 204.742C192.083 268.722 206.744 236.694 187.016 355.298C175.561 340.028 172.232 330.317 169.521 315.768C168.805 311.128 168.104 303.969 168.539 299.25L168.395 299.102C158.203 276.735 153.393 263.999 155.815 219.634C157.612 201.228 161.614 187.41 173.155 172.937C171.632 165.073 171.486 157.145 172.52 149.562C166.477 138.512 162.317 127.138 160.696 123.075C169.139 129.538 169.837 129.911 176.882 132.134C178.493 127.699 180.842 123.295 182.346 120.996C183.026 126.12 183.566 129.581 185.1 134.56C185.622 134.686 188.106 135.359 188.901 135.572C188.445 132.541 188.028 131.136 188.092 128.418C189.4 131.399 190.503 132.09 194.297 136.719C198.495 137.601 197.488 137.47 198.747 137.47C192.637 127.894 188.514 119.419 187.467 106.53C195.83 111.294 207.531 114.016 219.749 114.016C248.455 114.016 277.827 92.4688 318.578 92.4688C353.891 92.4688 384.444 112.061 397.978 134.37C397.965 128.615 397.72 123.853 399.796 117.938C399.796 117.938 400.037 126.42 400.037 133.029L400.943 133.114C402.363 125.556 405.357 119.114 410.302 113.029C405.911 124.838 407.582 118.533 402.669 132.951L403.466 133.379C406.742 129.169 409.425 126.193 417.245 122.248C411.595 127.91 407.275 131.154 404.604 135.158L405.293 135.751C408.626 132.729 412.095 131.584 415.622 134.348C409.943 132.283 406.589 135.902 402.692 140.471C417.845 142.969 426.066 151.712 436.721 163.399C461.244 191.677 467.702 219.284 454.401 258.42C459.976 270.469 459.117 297.625 446.675 319.513C446.67 332.357 437.884 348.203 431.112 359.226Z" fill="#3B261B"/>
<path d="M223.506 203.019C224.328 203.783 225.15 204.548 225.965 205.317C225.67 205.123 225.374 204.942 225.077 204.738C192.078 268.718 206.739 236.69 187.012 355.294C175.556 340.024 172.228 330.312 169.517 315.764C168.8 311.123 168.1 303.965 168.535 299.246L168.391 299.097C158.199 276.731 153.389 263.995 155.811 219.63C157.608 201.224 161.61 187.405 173.15 172.932C171.653 165.199 171.502 157.406 172.479 149.938C173.846 151.939 175.279 153.887 176.744 155.81C177.731 161.818 178.567 167.676 177.035 172.408C155.197 239.893 167.878 270.849 181.614 318.925C175.973 282.454 165.263 236.086 194.478 209.037C181.998 239.018 185.444 252.613 188.482 273.139C190.581 245.854 200.375 220.475 223.506 203.019ZM436.719 163.388C435.858 162.445 435.02 161.529 434.187 160.625C433.312 161.209 432.415 161.744 431.533 162.312C465.773 232.505 432.893 225.766 440.73 257.111C449.885 280.004 438.019 293.743 438.019 316.636C438.019 282.296 436.46 258.398 417.507 231.53C411.106 222.457 409.309 191.643 404.995 176.417C351.878 209.037 273.192 215.862 190.579 149.934C229.497 163.67 308.821 153.024 336.05 135.474C305.011 141.108 240.214 141.445 211.075 129.451C280.9 124.025 280.055 101.613 339.578 97.4003C310.961 86.716 248.453 114.007 219.75 114.007C207.534 114.007 195.833 111.287 187.468 106.521C188.514 119.41 192.637 127.887 198.747 137.461C197.486 137.461 198.495 137.592 194.297 136.71C190.501 132.081 189.398 131.388 188.093 128.409C188.026 131.127 188.445 132.532 188.901 135.564C188.106 135.351 185.62 134.678 185.1 134.552C183.567 129.572 183.026 126.111 182.346 120.987C180.845 123.286 178.493 127.691 176.882 132.125C169.835 129.902 169.139 129.529 160.696 123.066C162.317 127.13 166.477 138.505 172.521 149.554C172.505 149.68 172.5 149.808 172.484 149.934C186.918 171.076 207.211 187.641 225.97 205.317C236.166 212.011 245.562 212.405 257.4 208.481C274.281 218.293 288.826 218.822 312.236 218.648C338.179 218.447 367.585 218.218 393.498 201.544L394.119 202.195C390.463 207.318 382.109 216.56 374.554 221.871C381.548 219.921 386.628 216.313 392.546 209.28L393.306 209.779C391.864 212.668 390.27 216.491 389.293 218.989C391.012 216.837 393.604 213.476 395.577 210.381L396.42 210.665C394.941 228.678 403.027 239.314 412.33 254.794C432.756 287.094 420.671 330.757 431.114 359.222C437.886 348.199 446.673 332.355 446.673 319.498C459.115 297.609 459.974 270.453 454.399 258.405C467.7 219.273 461.242 191.666 436.719 163.388ZM438.397 222.107C437.641 200.304 423.212 172.63 423.212 172.63C416.467 160.716 410.439 155.032 400.327 152.724C428.775 154.141 439.947 196.631 438.717 218.829C438.601 220.889 438.397 222.107 438.397 222.107ZM373.705 130.039C381.221 136.136 383.016 137.876 390.408 148.146C352.284 79.7198 277.468 131.502 253.81 129.831C277.86 134.801 332.236 99.6301 373.705 130.039ZM393.077 159.782C347.38 197.666 277.603 181.618 220.532 163.731C277.37 189.763 349.731 203.85 393.077 159.782ZM213.365 200.99C198.395 208.831 191.35 228.577 190.7 241.626C193.495 230.365 201.884 209.704 213.365 200.99ZM194.478 190.116C173.052 203.163 168.897 233.089 171.012 258.224C173.265 235.005 177.45 204.711 194.478 190.116ZM348.882 161.74C346.579 162.232 332.263 164.194 324.45 164.476C318.358 164.83 294.604 165.226 273.189 164.366C295.293 169.102 308.569 169.984 324.69 169.047C343.248 168.377 359.854 164.702 373.616 153.489C363.92 158.825 359.788 159.585 348.882 161.74ZM425.677 222.51C425.677 222.51 425.091 221.5 424.331 219.987C422.246 216.491 419.878 206.982 410.737 177.094C417.527 232.485 428.633 222.382 433.61 251.001C433.612 240.708 432.893 235.431 425.677 222.51Z" fill="#2C1910"/>
<path d="M442.261 289.464C443.095 282.033 442.758 285.44 442.85 281.2C443.55 266.905 435.006 254.92 440.208 237.732C444.452 225.248 446.904 223.291 445.045 201.558C444.773 198.422 443.96 190.629 442.522 187.827C444.482 191.236 445.778 197.545 446.471 201.412C450.333 223.259 447.085 226.576 442.989 238.652C437.518 256.898 448.019 264.948 442.261 289.464ZM404.995 176.417C407.553 245.944 421.653 229.795 434.109 272.001C425.652 222.217 417.829 263.492 404.995 176.417ZM191.616 211.865C170.577 238.337 172.701 257.42 177.88 296.57C177.413 256.942 172.582 241.901 191.616 211.865ZM176.513 174.043C164.439 211.403 161.795 228.263 167.592 268.558C166.518 228.16 166.774 219.244 176.513 174.043ZM222.712 203.637C200.666 219.477 189.157 248.453 188.482 273.139C191.875 249.547 204.535 219.791 222.712 203.637ZM375.875 189.794C348.286 199.951 303.379 202.671 270.593 192.82C245.042 185.368 205.146 160.328 183.686 144.581C203.14 160.069 237.419 183.058 261.354 192.145C286.223 201.437 325.196 204.889 355.402 197.284C376.573 191.964 387.546 186.936 404.995 176.419C397.228 180.677 385.786 186.698 375.875 189.794ZM316.256 106.947C344.111 101.716 376.944 119.671 394.224 140.898C376.145 114.987 346.521 102.096 328.836 101.789C299.81 101.286 269.783 126.155 211.075 128.304C266.278 130.736 292.814 110.743 316.256 106.947ZM338.133 136.317C298.553 150.38 267.988 153.746 226.398 155.959C269.353 158.604 300.062 154.437 338.133 136.317ZM379.724 144.337C355.315 155.845 344.628 157.731 294.247 160.799C325.833 162.074 355.34 160.433 379.724 144.337ZM298.938 179.329C323.305 182.161 365.99 179.089 387.354 156.921C361.553 178.656 313.823 177.878 276.596 176.399C290.845 178.622 288.274 178.251 298.938 179.329ZM403.379 158.066C420.845 164.496 425.103 195.137 431.996 219.878C428.912 197.948 423.644 162.823 403.379 158.066Z" fill="#4A3529"/>
<path d="M437.055 163.079C427.101 152.161 418.164 142.543 403.562 140.14C408.356 134.501 411.726 132.404 417.871 135.904C414.231 131.621 410.048 130.808 404.982 135.401C407.891 131.039 412.921 127.48 419.404 120.68C409.718 125.225 406.806 128.327 403.104 133.088C408.336 117.743 406.081 125.927 411.621 110.767C405.831 117.26 402.129 124.32 400.497 133.02C400.497 119.506 400.073 121.253 400.337 115.346C397.161 122.418 397.523 128.647 397.523 132.722C392.411 124.293 384.9 117.155 376.802 111.317C319.445 69.4473 262.246 107.984 231.246 112.645C218.68 114.767 199.851 113.418 186.948 105.685C187.859 118.881 191.946 127.644 197.914 137.003C197.912 137.003 194.548 136.294 194.548 136.294C189.926 130.721 189.48 130.9 187.772 126.381C187.335 130.417 188.003 132.653 188.344 134.943C187.204 134.645 186.153 134.329 185.46 134.164C183.759 128.638 183.267 124.435 182.644 119.765C181.238 121.562 178.244 127.045 176.6 131.555C169.734 129.384 169.242 129.039 159.59 121.642C160.735 123.931 164.876 136.433 172.044 149.64C170.968 157.731 171.293 165.803 172.662 172.808C161.159 187.259 157.164 201.072 155.355 219.602C152.972 263.235 157.34 275.945 168.015 299.317C168.038 299.34 168.038 299.386 168.061 299.408C167.656 303.921 168.333 311.089 169.068 315.846C171.767 330.342 175.078 340.326 187.177 356.253C187.223 356.298 187.246 356.367 187.291 356.413C195.064 309.784 194.262 308.641 195.922 297.142C204.1 238.279 203.745 247.07 225.248 205.408C233.978 211.425 243.643 213.54 257.345 208.98C267.285 214.758 277.436 219.167 305.558 219.167C333.422 218.819 365.484 220.111 393.743 201.929C389.462 207.931 379.737 218.307 372.086 222.945C380.051 221.26 385.765 218.052 392.896 209.575C390.705 213.959 388.128 220.596 387.928 221.388C388.272 220.976 392.85 215.504 395.964 210.628C394.469 228.817 402.589 239.467 411.944 255.041C432.447 287.465 419.981 331.782 431.014 360.259C438.088 348.821 447.131 332.59 447.131 319.623C459.058 298.822 460.766 271.293 454.891 258.384C466.835 222.599 464.422 194.633 437.055 163.079ZM187.999 127.846C189.116 131.026 189.361 130.957 193.699 136.11C191.547 135.664 190.116 135.35 188.823 135.057C188.321 132.64 187.999 130.341 187.999 127.846ZM182.252 121.756C182.468 125.264 183.303 129.865 184.519 133.913C177.96 132.225 180.398 132.759 178.109 132.081C179.993 126.417 180.703 124.984 182.252 121.756ZM186.19 351.193C176.538 333.783 174.004 327.863 171.332 310.237C171.071 308.209 170.252 302.348 170.211 299.546C156.314 267.77 151.09 207.432 172.981 174.228C172.981 174.205 172.981 174.205 172.981 174.205C172.981 174.205 173.894 172.776 175.545 170.725C174.933 167.648 174.329 161.156 174.537 154.059C176.232 157.081 178.155 159.828 179.872 162.461C179.872 162.454 181.222 164.249 181.222 164.292C191.641 177.547 201.263 188.568 224.536 204.928C196.595 250.197 198.328 234.907 186.19 351.193ZM455.507 243.849C454.692 249.247 452.936 256.63 451.984 259.851C458.348 276.032 451.396 306.592 444.976 320.244C442.17 336.482 439.15 339.751 431.217 355.934C425.547 330.752 437.131 286.066 415.742 252.731C401.87 229.737 395.923 226.724 399.19 198.314C399.19 198.314 399.329 196.769 399.373 196.368C370.463 214.044 338.531 216.042 296.422 215.14C284.249 215.14 267.805 213.611 257.549 207.265C236.759 213.178 229.046 203.975 211.739 190.461C193.051 174.58 180.355 160.714 164.693 128.031C173.491 135.169 191.105 138.766 202.215 140.623C194.722 130.634 190.313 121.509 188.319 108.572C196.286 113.883 215.379 119.11 232.206 117.249C263.19 114.339 306.572 82.5262 359.882 106.649C384.616 117.562 397.166 132.921 400.105 140.989C400.128 140.989 400.151 141.012 400.197 141.012C400.334 141.058 400.472 141.081 400.63 141.103C400.669 141.145 401.39 141.309 401.454 141.309C417.424 146.632 418.493 147.626 433.962 165.668C442.657 176.334 463.586 197.627 455.507 243.849Z" fill="#0D0602"/>
</g>
<defs>
<linearGradient id="paint0_linear" x1="300" y1="-75" x2="300" y2="675" gradientUnits="userSpaceOnUse">
<stop stop-color="#151371"/>
<stop offset="0.453125" stop-color="#FF00B8"/>
<stop offset="0.96875" stop-color="#FFC700"/>
</linearGradient>
<linearGradient id="paint1_linear" x1="439" y1="245" x2="439" y2="644" gradientUnits="userSpaceOnUse">
<stop stop-color="#FF00B8"/>
<stop offset="1" stop-color="#F0DB0A" stop-opacity="0"/>
</linearGradient>
<linearGradient id="paint2_linear" x1="194" y1="161" x2="194" y2="560" gradientUnits="userSpaceOnUse">
<stop stop-color="#FF00B8"/>
<stop offset="1" stop-color="#F0DB0A" stop-opacity="0"/>
</linearGradient>
<linearGradient id="paint3_linear" x1="309.817" y1="524.965" x2="309.817" y2="424.234" gradientUnits="userSpaceOnUse">
<stop stop-color="#DD8953" stop-opacity="0.8"/>
<stop offset="0.7" stop-color="#BE5F21"/>
</linearGradient>
<linearGradient id="paint4_linear" x1="309.816" y1="458.574" x2="309.816" y2="451.706" gradientUnits="userSpaceOnUse">
<stop offset="0.1" stop-color="#E49561"/>
<stop offset="1" stop-color="#DD8953"/>
</linearGradient>
<radialGradient id="paint5_radial" cx="0" cy="0" r="1" gradientUnits="userSpaceOnUse" gradientTransform="translate(248.563 326.86) rotate(174.019) scale(34.6059)">
<stop stop-color="white"/>
<stop offset="0.315" stop-color="#FCFDFD"/>
<stop offset="0.504" stop-color="#F4F7F8"/>
<stop offset="0.66" stop-color="#E5ECEF"/>
<stop offset="0.76" stop-color="#D8E2E7"/>
</radialGradient>
<radialGradient id="paint6_radial" cx="0" cy="0" r="1" gradientUnits="userSpaceOnUse" gradientTransform="translate(250.694 326.412) rotate(-14.4847) scale(13.5629 13.5659)">
<stop stop-color="white"/>
<stop offset="1" stop-color="white" stop-opacity="0"/>
</radialGradient>
<radialGradient id="paint7_radial" cx="0" cy="0" r="1" gradientUnits="userSpaceOnUse" gradientTransform="translate(250.695 326.427) rotate(0.512025) scale(13.5551 13.5553)">
<stop stop-color="white"/>
<stop offset="1" stop-color="white" stop-opacity="0"/>
</radialGradient>
<linearGradient id="paint8_linear" x1="243.243" y1="336.136" x2="245.385" y2="333.581" gradientUnits="userSpaceOnUse">
<stop stop-color="white"/>
<stop offset="1" stop-color="white" stop-opacity="0"/>
</linearGradient>
<linearGradient id="paint9_linear" x1="253.641" y1="322.465" x2="251.926" y2="324.509" gradientUnits="userSpaceOnUse">
<stop stop-color="white"/>
<stop offset="1" stop-color="white" stop-opacity="0"/>
</linearGradient>
<linearGradient id="paint10_linear" x1="259.19" y1="316.801" x2="255.239" y2="321.51" gradientUnits="userSpaceOnUse">
<stop stop-color="white"/>
<stop offset="1" stop-color="white" stop-opacity="0"/>
</linearGradient>
<radialGradient id="paint11_radial" cx="0" cy="0" r="1" gradientUnits="userSpaceOnUse" gradientTransform="translate(259.478 322.351) rotate(1.19182) scale(36.6368 29.3079)">
<stop stop-color="#DD8953"/>
<stop offset="0.7" stop-color="#DD8953" stop-opacity="0.3"/>
<stop offset="1" stop-color="#ECA170" stop-opacity="0"/>
</radialGradient>
<radialGradient id="paint12_radial" cx="0" cy="0" r="1" gradientUnits="userSpaceOnUse" gradientTransform="translate(240.146 387.305) scale(69.8613)">
<stop offset="0.95" stop-opacity="0"/>
<stop offset="1" stop-opacity="0.2"/>
</radialGradient>
<radialGradient id="paint13_radial" cx="0" cy="0" r="1" gradientUnits="userSpaceOnUse" gradientTransform="translate(370.158 326.858) rotate(5.98141) scale(34.6036)">
<stop stop-color="white"/>
<stop offset="0.316" stop-color="#FCFDFD"/>
<stop offset="0.505" stop-color="#F4F7F8"/>
<stop offset="0.661" stop-color="#E5ECEF"/>
<stop offset="0.76" stop-color="#D8E2E7"/>
</radialGradient>
<radialGradient id="paint14_radial" cx="0" cy="0" r="1" gradientUnits="userSpaceOnUse" gradientTransform="translate(368.593 326.412) rotate(-14.4847) scale(13.5632 13.5661)">
<stop stop-color="white"/>
<stop offset="1" stop-color="white" stop-opacity="0"/>
</radialGradient>
<radialGradient id="paint15_radial" cx="0" cy="0" r="1" gradientUnits="userSpaceOnUse" gradientTransform="translate(368.594 326.426) rotate(0.512025) scale(13.5555 13.5558)">
<stop stop-color="white"/>
<stop offset="1" stop-color="white" stop-opacity="0"/>
</radialGradient>
<linearGradient id="paint16_linear" x1="361.143" y1="336.136" x2="363.286" y2="333.581" gradientUnits="userSpaceOnUse">
<stop stop-color="white"/>
<stop offset="1" stop-color="white" stop-opacity="0"/>
</linearGradient>
<linearGradient id="paint17_linear" x1="371.541" y1="322.464" x2="369.826" y2="324.509" gradientUnits="userSpaceOnUse">
<stop stop-color="white"/>
<stop offset="1" stop-color="white" stop-opacity="0"/>
</linearGradient>
<linearGradient id="paint18_linear" x1="377.091" y1="316.801" x2="373.139" y2="321.51" gradientUnits="userSpaceOnUse">
<stop stop-color="white"/>
<stop offset="1" stop-color="white" stop-opacity="0"/>
</linearGradient>
<radialGradient id="paint19_radial" cx="0" cy="0" r="1" gradientUnits="userSpaceOnUse" gradientTransform="translate(359.24 322.351) rotate(178.808) scale(36.6368 29.3079)">
<stop stop-color="#DD8953"/>
<stop offset="0.7" stop-color="#DD8953" stop-opacity="0.3"/>
<stop offset="1" stop-color="#ECA170" stop-opacity="0"/>
</radialGradient>
<radialGradient id="paint20_radial" cx="0" cy="0" r="1" gradientUnits="userSpaceOnUse" gradientTransform="translate(378.575 387.305) rotate(180) scale(69.8613)">
<stop offset="0.95" stop-opacity="0"/>
<stop offset="1" stop-opacity="0.2"/>
</radialGradient>
<radialGradient id="paint21_radial" cx="0" cy="0" r="1" gradientUnits="userSpaceOnUse" gradientTransform="translate(309.816 394.473) scale(93.8626)">
<stop stop-color="#FBBB90" stop-opacity="0.5"/>
<stop offset="0.9" stop-color="#ECA170" stop-opacity="0"/>
</radialGradient>
<radialGradient id="paint22_radial" cx="0" cy="0" r="1" gradientUnits="userSpaceOnUse" gradientTransform="translate(309.816 257.113) scale(84.7053)">
<stop stop-color="#FBBB90" stop-opacity="0.5"/>
<stop offset="0.9" stop-color="#ECA170" stop-opacity="0"/>
</radialGradient>
<clipPath id="clip0">
<rect width="600" height="600" fill="white"/>
</clipPath>
</defs>
</svg>
