<svg width="600" height="600" viewBox="0 0 600 600" fill="none" xmlns="http://www.w3.org/2000/svg">
<g clip-path="url(#clip0)">
<path d="M675 675H-75V-75H675V675Z" fill="url(#paint0_linear)"/>
<path d="M360.996 403.874H308.184V356.576H360.996V403.874ZM414.113 320.069H340.054V380.225H414.113V320.069ZM377.082 441.95H442.881V362.639H377.082V441.95ZM400.757 434.192H334.59V491.191H400.757V434.192ZM580.44 284.416H490.23V387.501H580.44V284.416ZM478.458 331.108H456.605V356.576H478.458V331.108ZM544.531 252.277H456.605V304.426H544.531V252.277ZM442.881 270.468H395.532V335.958H442.881V270.468ZM334.59 275.32H308.184V303.213H334.59V275.32ZM299.325 320.069H258.501V382.71H299.325V320.069V320.069ZM347.338 441.95H275.708V521.511H347.338V441.95ZM308.184 576.086H388.617V528.788H308.184V576.086ZM500.311 557.894H443.791V599.129H500.313V557.894H500.311ZM637.361 516.659H585.062V578.511H637.361V516.659ZM551.302 544.718H506.381V585.953H551.302V544.718ZM594.357 463.296H528.843V537.278H594.357V463.296ZM610.791 590.639H528.843V644H610.791V590.639ZM340.054 557.894H251.187V637.937H340.052V557.894H340.054ZM630.216 356.576H569.818V403.874H630.216V356.576ZM594.357 424.49H568.208V451.477H594.357V424.49ZM251.187 474.697H300.975V404.294H251.187V474.697ZM321.764 249.852L232 252.277V320.069H321.764V249.852ZM646 252.277H587.725V326.256H646V252.277ZM371.858 245H347.338V298.361H371.858V245ZM641.143 437.983H581.281V486.494H641.143V437.983Z" fill="url(#paint1_linear)" stroke="#FFC700" stroke-width="1.5"/>
<path d="M115.996 319.874H63.1843V272.576H115.996V319.874ZM169.113 236.069H95.0537V296.225H169.113V236.069ZM132.082 357.95H197.881V278.639H132.082V357.95ZM155.757 350.192H89.5904V407.191H155.757V350.192ZM335.44 200.416H245.23V303.501H335.44V200.416ZM233.458 247.108H211.605V272.576H233.458V247.108ZM299.531 168.277H211.605V220.426H299.531V168.277ZM197.881 186.468H150.532V251.958H197.881V186.468ZM89.5904 191.32H63.1843V219.213H89.5904V191.32ZM54.3246 236.069H13.5008V298.71H54.3246V236.069V236.069ZM102.338 357.95H30.7084V437.511H102.338V357.95ZM63.1843 492.086H143.617V444.788H63.1843V492.086ZM255.311 473.894H198.791V515.129H255.313V473.894H255.311ZM392.361 432.659H340.062V494.511H392.361V432.659ZM306.302 460.718H261.381V501.953H306.302V460.718ZM349.357 379.296H283.843V453.278H349.357V379.296ZM365.791 506.639H283.843V560H365.791V506.639ZM95.0537 473.894H6.18721V553.937H95.0519V473.894H95.0537ZM385.216 272.576H324.818V319.874H385.216V272.576ZM349.357 340.49H323.208V367.477H349.357V340.49ZM6.18721 390.697H55.9745V320.294H6.18721V390.697ZM76.7643 165.852L-13 168.277V236.069H76.7643V165.852ZM401 168.277H342.725V242.256H401V168.277ZM126.858 161H102.338V214.361H126.858V161ZM396.143 353.983H336.281V402.494H396.143V353.983Z" fill="url(#paint2_linear)" stroke="#FFC700" stroke-width="1.5"/>
<rect x="504" y="328.706" width="8.86149" height="25.1423" fill="white"/>
<rect x="521.753" y="328.857" width="8.83104" height="25.1423" fill="white"/>
<rect x="512.861" y="320" width="8.89195" height="8.85765" fill="white"/>
<rect x="539.416" y="328.857" width="8.89195" height="25.1423" fill="white"/>
<rect x="530.584" y="320" width="8.83105" height="8.85765" fill="white"/>
<rect x="548.308" y="320" width="8.86149" height="8.85765" fill="white"/>
<rect x="557.169" y="327.792" width="8.83104" height="8.85766" fill="white"/>
<rect x="548.308" y="336.65" width="8.86149" height="8.82721" fill="white"/>
<rect x="40" y="390.425" width="7.57515" height="21.4449" fill="white"/>
<rect x="55.1763" y="390.555" width="7.54912" height="21.4449" fill="white"/>
<rect x="47.5752" y="383" width="7.60118" height="7.55506" fill="white"/>
<rect x="70.2744" y="390.555" width="7.60118" height="21.4449" fill="white"/>
<rect x="62.7256" y="383" width="7.54912" height="7.55506" fill="white"/>
<rect x="77.876" y="383" width="7.57515" height="7.55506" fill="white"/>
<rect x="85.4507" y="389.646" width="7.54912" height="7.55506" fill="white"/>
<rect x="77.876" y="397.202" width="7.57515" height="7.52909" fill="white"/>
<path d="M164.35 359.229C154.494 335.917 155.946 326.284 158.572 308.06C154.048 312.96 151.34 319.533 143.957 325.613C144.53 321.246 153.251 295.921 153.943 294.061C145.575 301.69 140.949 303.316 136.943 304.886C139.647 300.852 141.441 296.162 145.433 287.615H170.532C171.035 296.935 172.853 308.447 175.566 318.56C174.131 319.511 170.361 325.483 164.35 359.229ZM427.45 291.159C427.348 299.517 424.528 315.181 421.119 325.707C422.872 326.885 424.914 328.261 424.47 327.904C437.425 338.306 439.509 340.102 440.828 357.046C450.241 336.734 442.256 310.659 441.784 291.162H427.45V291.159ZM441.801 291.159H451.469C450.202 295.446 447.255 301.583 444.019 305.6C442.805 300.887 442.136 294.179 441.801 291.159Z" fill="#CEB9B9"/>
<path d="M155.972 291.238C148.573 310.679 148.137 315.533 144.219 325.069C150.423 319.957 155.075 309.871 159.24 307.174C158.522 313.748 155.104 327.028 158.914 341.571C160.35 347.079 162.179 352.413 164.38 357.616C164.946 349.865 166.1 327.289 173.26 320.432C168.34 333.385 165.532 350.323 165.532 363.537C151.577 339.22 154.779 325.874 158.065 308.915C152.97 314.728 151.533 321.999 141.758 327.921C145.089 320.889 146.158 312.529 153.057 295.396C147.332 301.121 143.478 303.407 135.837 305.671C138.706 300.923 141.232 294.904 143.45 290.01H145.806C143.631 294.699 141.384 299.428 138.645 303.516C144.371 301.274 149.855 297.094 155.972 291.238ZM421.119 325.707C421.589 326.031 424.768 328.215 426.196 329.469C432.152 334.698 439.833 339.47 439.297 362.734C449.188 345.649 447.905 320.36 444.825 306.588C449.216 301.866 452.181 296.047 453.694 291.144L451.075 291.12C449.808 295.407 447.472 300.568 444.237 304.585C443.018 299.872 442.354 294.616 442.019 291.597L441.784 291.161C442.256 310.659 448.565 333.805 441.255 355.419C439.935 338.475 436.008 335.388 421.119 325.707Z" fill="#AF7B7B"/>
<path d="M506.928 563.68C502.147 553.348 489.087 538.037 474.577 533.807C456.64 528.575 416.152 522.251 401.139 518.735C389.104 515.913 364.865 494.147 356.37 486.841C354.846 485.535 353.598 482.838 353.568 480.833C353.265 457.181 362.701 394.352 362.701 394.352H299.201H235.703C235.703 394.352 245.138 457.179 244.831 480.833C244.807 482.838 243.553 485.535 242.034 486.841C233.539 494.147 209.3 515.913 197.265 518.735C182.25 522.251 141.761 528.791 123.827 534.022C109.312 538.25 96.2565 553.346 91.4757 563.678C83.4032 581.112 81.4961 612.661 81.4961 639.874H299.201H516.905C516.905 612.663 514.996 581.114 506.928 563.68Z" fill="#D79468"/>
<path d="M427.986 529.457C480.979 537.168 503.281 548.415 510.265 639.879H516.905C516.905 612.666 514.996 581.116 506.927 563.682C502.147 553.35 489.087 538.039 474.577 533.809C456.64 528.578 416.151 522.253 401.138 518.737C389.104 515.916 361.425 492.463 354.021 483.143C361.335 493.383 381.867 517.115 399.856 523.331C408.462 526.305 415.629 527.659 427.986 529.457ZM198.547 523.331C216.536 517.118 237.065 493.383 244.382 483.143C236.98 492.46 209.301 515.916 197.265 518.737C182.252 522.253 141.763 528.793 123.826 534.024C109.316 538.252 96.2562 553.348 91.4754 563.68C83.4073 581.114 81.498 612.664 81.498 639.877H88.138C95.0785 548.998 117.474 537.157 170.417 529.455C182.772 527.659 189.941 526.305 198.547 523.331Z" fill="#E6AC86"/>
<path d="M289.721 558.982C289.721 558.982 278.675 555.479 274.301 553.803C251.553 545.075 177.651 539.419 177.651 539.419C177.651 539.419 255.489 542.508 272.666 545.469C271.669 535.091 266.098 501.919 266.098 501.919C266.098 501.919 277.308 538.526 280.051 547.761C281.518 552.699 289.721 558.982 289.721 558.982ZM313.231 556.06C313.037 556.219 312.815 556.426 312.574 556.644C312.82 556.459 313.042 556.265 313.231 556.06ZM289.721 558.982C289.721 558.982 296.019 565.496 299.185 565.578C303.343 565.689 309.696 559.267 312.576 556.644C309.822 558.727 303.522 559.672 301.016 559.77C298.12 559.881 289.721 558.982 289.721 558.982ZM335.478 542.613C332.115 543.153 325.93 544.33 325.93 544.33L330.909 511.914C329.502 518.6 321.169 547.206 313.231 556.06C317.389 552.542 326.637 550.855 331.353 550.174C353.637 546.943 353.628 546.945 420.747 539.419C420.747 539.419 357.458 539.082 335.478 542.613Z" fill="#C87D4D"/>
<path d="M506.928 563.68C502.147 553.348 489.087 538.037 474.577 533.807C456.64 528.575 416.152 522.251 401.139 518.735C389.104 515.913 364.865 494.147 356.37 486.841C354.846 485.535 353.598 482.838 353.568 480.833C353.265 457.181 362.701 394.352 362.701 394.352H299.201H235.703C235.703 394.352 245.138 457.179 244.831 480.833C244.807 482.838 243.553 485.535 242.034 486.841C233.539 494.147 209.3 515.913 197.265 518.735C182.25 522.251 141.761 528.791 123.827 534.022C109.312 538.25 96.2565 553.346 91.4757 563.678C83.4032 581.112 81.4961 612.661 81.4961 639.874H299.201H516.905C516.905 612.663 514.996 581.114 506.928 563.68Z" stroke="#A9561F" stroke-width="4.5"/>
<path d="M245.9 483.726C261.094 493.609 281.401 502.914 299.205 502.914C316.247 502.914 336.966 493.533 352.451 483.606C352.135 482.674 351.944 481.729 351.931 480.854C351.656 459.351 359.213 406.789 360.804 395.986H237.597C239.186 406.791 246.745 459.351 246.466 480.852C246.455 481.753 246.246 482.748 245.9 483.726Z" fill="url(#paint3_linear)"/>
<path d="M174.608 642.008L177.489 509.53C177.489 509.53 199.681 504.116 213.704 495.787C251.793 543.579 364.902 533.522 384.245 494.437C387.486 495.58 390.169 497.043 393.523 498.166C404.409 505.538 413.58 507.95 413.58 507.95L415.616 642.241C384.515 642.65 174.608 642.008 174.608 642.008Z" fill="#F5F4F5"/>
<path d="M416.792 515.626C407.57 514.061 400.222 511.932 396.214 507.911C384.582 529.736 337.95 543.566 322.51 545.593C367.257 531.93 386.054 522.053 393.478 498.606C397.81 503.794 407.676 506.332 420.283 508.485L416.792 515.626ZM196.161 508.39C199.326 507.71 200.907 505.703 204.048 504.922L200.722 500.857C193.943 505.721 181.192 508.052 166.107 510.488L166.516 518.626C175.129 516.906 183.534 514.734 191.398 511.392C207.688 529.864 233.127 538.951 259.017 542.713C226.54 534.908 207.917 521.735 196.161 508.39Z" fill="white"/>
<path d="M381.626 498.972C368.718 523.705 271.163 552.516 216.151 500.857C212.731 502.196 202.499 505.396 202.499 505.396C242.569 555.642 359.997 555.962 391.253 505.152C391.118 505.1 384.804 500.456 381.626 498.972Z" fill="#DFDDE2"/>
<path d="M384.123 494.152C362.163 534.59 247.888 540.314 213.793 495.513C201.34 498.9 189.369 506.128 177.314 507.937L174.608 642.008L415.614 642.241L413.752 506.424C406.418 504.885 399.599 500.465 393.606 497.946C390.293 496.555 387.48 495.304 384.123 494.152ZM212.968 496.864C243.235 547.124 362.786 537.042 385.867 497.08C388.666 498.166 389.383 498.595 392.629 499.655C368.72 545.826 250.454 560.541 202.083 502.153C202.422 502.065 209.557 498.044 212.968 496.864ZM199.681 504.116C238.788 562.997 367.88 553.875 394.708 501.314C398.563 504.343 404.57 507.822 411.985 509.446L415.599 638.065L175.303 638.1L179.448 511.181C185.509 508.135 195.24 505.888 199.681 504.116Z" fill="#B8B6C9"/>
<path d="M71.6364 641.592C66.0327 611.436 66.6466 537.982 91.2581 538.137C119.856 526.574 154.978 513.31 184.44 504.804C199.479 489.029 213.691 474.027 241.452 458.402C242.299 464.061 245.532 476.997 241.476 484.033C238.527 489.153 228.887 496.172 220.677 502.25C216.26 508.172 212.128 513.95 206.311 522.037C217.562 570.588 227.212 595.578 228.292 637.689C228.292 637.689 225.131 639.189 368.649 638.553C373.471 589.92 379.519 565.489 391.244 520.779C391.244 520.779 381.865 509.863 375.554 501.469C371.082 497.121 357.354 485.071 356.309 482.635C353.751 476.668 355.116 469.164 356.549 457.889C380.045 468.497 393.558 484.059 413.33 504.266C430.157 508.879 480.514 525.965 505.735 537.392C514.367 537.153 519.239 541.744 522.873 549.292C534.64 573.664 531.855 608.719 527.619 642.445C486.057 642.513 190.103 647.261 71.6364 641.592Z" fill="#616161"/>
<path d="M242.325 464.195C242.673 466.525 242.987 468.734 243.22 470.816C242.745 471.395 205.749 521.656 205.479 522.031C214.57 501.351 227.576 479.922 242.325 464.195ZM355.919 464.195C355.573 466.525 355.518 468.734 355.285 470.816C355.76 471.395 392.145 519.732 392.413 520.108C382.779 500.842 370.668 479.922 355.919 464.195ZM440.726 531.843C431.408 545.408 429.418 550.091 419.219 563.534C421.55 563.534 425.312 563.895 427.644 563.895C435.621 550.213 435.636 543.248 440.726 531.843ZM450.274 630.3C458.532 610.924 465.37 593.919 473.654 574.515L470.939 570.13C464.04 590.061 456.718 610.314 450.274 630.3ZM170.859 563.895C173.191 563.895 176.953 563.534 179.287 563.534C169.087 550.091 167.097 549.25 157.782 535.685C162.867 547.091 162.883 550.213 170.859 563.895ZM127.564 570.13L124.85 574.515C133.135 593.919 135.223 610.924 143.483 630.3C137.037 610.314 134.463 590.061 127.564 570.13Z" fill="#524A4A"/>
<path d="M224.393 497.291C226.964 493.708 235.794 481.46 243.118 469.945C245.269 481.825 241.32 488.873 224.393 497.291ZM355.238 469.157C360.796 478.728 367.347 488.254 374.1 497.03C355.804 488.698 354.574 480.18 355.238 469.157Z" fill="#423535"/>
<path d="M356.496 458.269C356.513 458.137 356.533 458.013 356.546 457.891C395.935 479.659 418.757 512.36 445.254 536.737C444.279 538.306 442.58 539.334 441.581 540.884C413.835 519.771 400.648 487.849 356.496 458.269ZM237.668 459.713C204.939 477.593 158.768 532.333 154.248 536.495C155.224 538.071 155.753 537.751 156.752 539.299C184.5 518.188 192.074 497.291 237.668 459.713ZM505.734 537.394C503.557 535.655 452.079 515.539 413.014 504.806C486.376 540.29 512.259 545.179 525.069 557.754C524.235 555.579 522.535 536.926 505.734 537.394ZM184.814 504.414C155.372 512.935 117.676 526.398 91.2554 538.139C79.5778 538.369 71.2092 555.403 69.4175 573.154C85.6626 536.552 77.6358 561.159 184.814 504.414Z" fill="#707070"/>
<path d="M531.273 586.069C530.533 567.27 524.623 535.772 505.822 537.172C504.267 535.844 460.491 515.909 413.765 503.186C397.757 486.956 377.811 464.875 356.354 457.562C354.807 471.556 353.139 480.687 356.825 485.241C361.703 490.551 367.557 495.863 373.301 499.44C383.35 512.798 391.019 520.727 391.019 520.727C379.198 565.798 371.829 588.899 367.131 637.608H231.272C226.576 588.901 219.205 565.8 207.384 520.727C207.384 520.727 215.051 512.796 225.103 499.44C230.848 495.861 236.7 490.551 241.578 485.241C245.262 480.687 243.597 471.556 242.049 457.562C220.592 464.875 200.643 486.956 184.638 503.186C137.912 515.911 94.1359 535.844 92.5815 537.172C73.7783 535.772 67.8676 567.27 67.1296 586.069C66.2349 608.899 70.2537 640.36 70.5802 642.537H527.823C528.149 640.358 532.168 608.899 531.273 586.069ZM240.385 484.035C235.47 488.896 232.422 490.96 226.293 495.534C236.806 481.882 235.744 483.706 243.074 471.088C243.403 476.513 241.363 483.07 240.385 484.035ZM74.5904 638.244C72.2348 610.282 68.2421 585.102 75.5265 557.71C78.3153 547.202 80.9343 540.087 91.7564 539.186C94.0793 551.242 109.46 601.719 122.884 636.136C109.329 583.469 111.321 595.186 104.991 574.195C102.892 567.152 100.954 560.075 98.5052 553.139C96.8006 548.319 94.9131 543.588 93.5807 538.655L181.605 506.293C180.998 506.909 153.532 535.539 152.87 536.345C156.891 542.922 169.886 552.068 176.48 561.943C149.407 564.498 136.188 568.85 126.408 570.303C127.129 572.303 146.135 625.497 148.127 630.511C144.907 613.275 137.642 586.323 129.323 571.271C132.393 570.882 168.678 565.846 180.251 563.702C177.038 557.488 162.741 545.334 155.087 536.23C200.034 496.69 210.431 476.574 241.282 459.045C241.609 462.33 242.247 465.6 242.48 468.883C208.093 520.115 204.057 520.189 204.057 520.189C214.039 558.962 226.986 598.18 226.986 637.908L74.5904 638.244ZM358.016 484.035C357.04 483.07 354.998 476.513 355.327 471.088C362.657 483.708 361.595 481.882 372.108 495.534C365.979 490.96 362.929 488.898 358.016 484.035ZM523.811 638.244L371.417 637.908C371.417 598.18 384.364 558.96 394.346 520.189C394.346 520.189 390.31 520.115 355.923 468.883C356.154 465.6 356.792 462.33 357.121 459.045C387.972 476.574 398.367 496.69 443.316 536.23C435.662 545.336 421.365 557.491 418.152 563.702C429.723 565.844 466.008 570.882 469.08 571.271C460.763 586.323 453.499 613.275 450.277 630.511C452.269 625.495 471.274 572.303 471.995 570.303C462.215 568.85 448.996 564.498 421.923 561.943C428.515 552.068 441.512 542.924 445.533 536.345C444.869 535.539 417.405 506.909 416.798 506.293C416.8 506.293 504.822 538.655 504.822 538.655C503.492 543.59 501.603 548.319 499.898 553.139C497.449 560.075 495.511 567.152 493.412 574.195C487.082 595.188 489.074 583.469 475.519 636.136C488.943 601.717 504.322 551.242 506.647 539.186C517.469 540.087 520.088 547.202 522.877 557.71C530.159 585.102 526.166 610.284 523.811 638.244Z" fill="#332424"/>
<path d="M180.924 312.375C177.691 307.015 167.149 292.348 159.086 294.405C152.528 296.086 152.613 305.227 152.106 310.635C151.366 318.568 151.096 332.388 153.249 337.996C155.319 343.38 161.87 353.784 165.937 357.753C170.942 362.619 178.934 378.126 179.918 379.735C181.466 382.277 184.57 385.917 189.333 385.63C196.019 385.227 201.795 378.91 202.32 375.866C205.152 359.342 189.338 326.321 180.924 312.375Z" fill="#D79468" stroke="#A9561F" stroke-width="4.5"/>
<path d="M177.721 345.024C177.41 343.798 177.736 341.73 178.056 339.736C178.346 337.918 178.618 336.2 178.453 334.986C177.823 330.436 174.284 321.793 171.974 317.108C169.311 311.717 165.009 304.927 159.61 303.177C157.381 302.452 155.911 303.318 155.062 304.196C154.435 304.84 154.294 305.6 154.499 305.691C154.705 305.781 155.167 305.151 155.842 304.561C156.395 304.078 154.736 304.474 155.842 304.561C155.396 306.825 153.959 318.281 154.949 326.643C155.729 333.222 157.235 338.136 157.699 338.872C157.766 339.647 157.88 340.406 158.047 341.142C160.229 350.743 174.414 363.298 177.715 366.875C178.324 367.535 178.964 367.926 179.121 367.765C179.278 367.604 178.901 366.953 178.296 366.289C175.035 362.736 160.943 350.221 158.835 340.959C156.599 331.132 167.352 316.561 169.065 313.479C169.938 314.926 170.681 316.315 171.251 317.473C171.702 318.381 172.196 319.446 172.71 320.597C171.702 322.204 161.567 333.936 164.145 343.328C165.099 346.792 172.466 351.257 175.315 352.478C176.883 353.153 177.471 354.159 178.154 355.321C178.947 356.68 178.226 360.174 180.832 361.284C181.363 361.511 181.842 361.602 182.267 361.602C183.003 361.602 183.56 361.319 183.971 360.984C184.015 361.574 184.013 362.331 183.991 363.032C183.965 363.942 184.093 364.358 184.313 364.376C184.537 364.395 184.77 363.997 184.799 363.098C184.836 361.987 184.829 360.614 184.631 359.954C184.045 358.019 182.262 355.831 180.371 353.517C178.511 351.242 178.204 346.922 177.721 345.024ZM157.625 336.514C152.513 321.442 160.418 307.714 161.565 305.646C163.768 306.514 167.143 310.42 168.578 312.688C167.533 314.502 157.838 326.375 157.625 336.514ZM181.143 360.531C178.783 359.525 179.606 356.212 178.844 354.906C178.152 353.726 177.438 352.506 175.625 351.727C175.233 351.557 174.8 351.3 174.355 351.004C168.517 337.779 174.993 331.999 176.617 330.817C177.116 332.432 177.486 333.914 177.654 335.105C177.802 336.194 177.525 337.931 177.26 339.607C176.926 341.687 176.585 343.84 176.94 345.233C177.471 347.308 177.834 351.699 179.75 354.046C181.45 356.127 183.196 358.273 183.793 360.024C183.536 360.372 182.728 361.208 181.143 360.531Z" fill="#A9561F"/>
<path d="M416.904 312.375C420.139 307.015 430.681 292.348 438.742 294.405C445.3 296.086 445.215 305.227 445.724 310.635C446.464 318.568 446.732 332.388 444.581 337.996C442.511 343.38 435.958 353.784 431.893 357.753C426.888 362.619 418.894 378.126 417.912 379.735C416.364 382.277 413.26 385.917 408.494 385.63C401.811 385.227 396.035 378.91 395.508 375.866C392.678 359.342 408.494 326.321 416.904 312.375Z" fill="#D79468" stroke="#A9561F" stroke-width="4.5"/>
<path d="M417.462 353.519C415.57 355.833 413.787 358.021 413.201 359.956C413.001 360.618 412.996 361.992 413.031 363.1C413.062 363.999 413.295 364.397 413.521 364.378C413.743 364.36 413.869 363.944 413.843 363.034C413.822 362.333 413.817 361.576 413.861 360.986C414.272 361.321 414.829 361.604 415.565 361.604C415.99 361.604 416.471 361.513 417.002 361.286C419.604 360.174 418.885 356.68 419.678 355.323C420.361 354.161 420.949 353.153 422.519 352.48C425.369 351.259 432.736 346.796 433.689 343.33C436.267 333.938 426.133 322.204 425.125 320.599C425.634 319.448 426.133 318.383 426.579 317.475C427.154 316.317 427.894 314.926 428.769 313.48C430.482 316.563 441.233 331.132 438.999 340.961C436.889 350.222 422.8 362.738 419.538 366.291C418.931 366.955 418.552 367.606 418.709 367.767C418.87 367.928 419.508 367.537 420.115 366.877C423.416 363.3 437.599 350.745 439.781 341.144C439.95 340.408 440.066 339.649 440.133 338.874C440.593 338.14 442.101 333.226 442.881 326.645C443.871 318.283 442.434 306.827 441.988 304.563C443.094 304.476 441.435 304.08 441.988 304.563C442.665 305.153 443.127 305.782 443.331 305.693C443.536 305.602 443.395 304.844 442.77 304.198C441.918 303.32 440.449 302.454 438.22 303.179C432.821 304.929 428.517 311.719 425.854 317.11C423.544 321.795 420.006 330.438 419.377 334.988C419.212 336.202 419.484 337.92 419.774 339.738C420.091 341.732 420.42 343.8 420.109 345.026C419.626 346.922 419.321 351.241 417.462 353.519ZM429.252 312.688C430.689 310.42 434.062 306.516 436.265 305.645C437.412 307.713 445.317 321.442 440.207 336.514C439.994 326.375 430.3 314.502 429.252 312.688ZM414.039 360.019C414.634 358.269 416.382 356.122 418.082 354.041C419.996 351.694 420.361 347.303 420.893 345.228C421.245 343.835 420.906 341.682 420.575 339.603C420.307 337.927 420.03 336.189 420.179 335.101C420.344 333.91 420.714 332.427 421.213 330.812C422.837 331.994 429.313 337.776 423.475 351C423.033 351.296 422.599 351.553 422.203 351.722C420.392 352.502 419.678 353.721 418.983 354.901C418.221 356.207 419.046 359.523 416.687 360.526C415.102 361.208 414.294 360.372 414.039 360.019Z" fill="#A9561F"/>
<path d="M299.205 130.642C226.017 130.757 166.579 190.878 166.693 264.95C166.712 276.713 168.225 288.118 171.051 298.986H171.053C171.079 299.104 193.453 367.419 199.242 394.896C204.423 419.492 227.454 439.442 237.819 450.315C249.727 462.815 264.612 481.309 299.205 481.146C333.796 481.309 348.683 462.815 360.591 450.315C370.956 439.442 393.987 419.492 399.168 394.896C404.957 367.419 427.333 299.106 427.355 298.986H427.359C430.185 288.118 431.7 276.713 431.717 264.95C431.833 190.878 372.393 130.757 299.205 130.642Z" fill="#D79468"/>
<path d="M372.066 152.839C403.86 177.215 424.601 217.033 424.533 262.029C424.516 273.791 423.088 285.199 420.414 296.065H420.41C420.386 296.182 399.227 364.493 393.75 391.968C388.849 416.568 367.068 436.514 357.262 447.391C346.001 459.892 331.922 478.386 299.207 478.222C266.491 478.386 252.412 459.892 241.15 447.391C231.349 436.514 209.565 416.568 204.665 391.968C199.187 364.493 178.028 296.182 178.002 296.065H178C175.327 285.197 173.896 273.791 173.879 262.029C173.814 217.033 194.554 177.215 226.348 152.841C190.379 176.878 166.625 218.113 166.697 264.95C166.717 276.713 168.23 288.118 171.055 298.986H171.058C171.084 299.104 193.457 367.419 199.246 394.896C204.427 419.492 227.458 439.443 237.823 450.315C249.732 462.815 264.616 481.309 299.209 481.146C333.8 481.309 348.687 462.815 360.595 450.315C370.96 439.443 393.991 419.492 399.173 394.896C404.961 367.419 427.337 299.106 427.359 298.986H427.363C430.189 288.118 431.704 276.713 431.722 264.95C431.789 218.113 408.035 176.876 372.066 152.839Z" fill="#CF885A"/>
<path d="M299.205 130.642C226.017 130.757 166.579 190.878 166.693 264.95C166.712 276.713 168.225 288.118 171.051 298.986H171.053C171.079 299.104 193.453 367.419 199.242 394.896C204.423 419.492 227.454 439.442 237.819 450.315C249.727 462.815 264.612 481.309 299.205 481.146C333.796 481.309 348.683 462.815 360.591 450.315C370.956 439.442 393.987 419.492 399.168 394.896C404.957 367.419 427.333 299.106 427.355 298.986H427.359C430.185 288.118 431.7 276.713 431.717 264.95C431.833 190.878 372.393 130.757 299.205 130.642Z" stroke="#A9561F" stroke-width="4.5"/>
<path d="M300.048 437.476C292.519 437.476 289.365 431.646 289.365 431.646L310.569 431.237C310.569 431.235 306.674 437.476 300.048 437.476Z" fill="url(#paint4_linear)"/>
<path d="M296.632 431.812C292.754 431.812 289.805 431.439 289.598 431.411C289.28 431.368 289.058 431.093 289.101 430.797C289.145 430.497 289.443 430.303 289.757 430.331C289.844 430.344 303.002 431.42 310.127 429.907C310.467 429.842 310.756 430.031 310.826 430.318C310.894 430.612 310.696 430.904 310.386 430.969C307.319 431.62 299.41 431.812 296.632 431.812ZM265.219 420.095C264.425 418.652 274.139 420.337 280.001 418.895C286.489 417.302 293.284 419.348 299.884 419.938C305.07 420.402 310.417 417.816 315.539 418.989C322.639 420.615 333.47 418.562 332.614 420.282C332.02 421.475 321.962 422.568 316.234 421.597C311.225 420.748 306.039 422.808 300.982 423.186C294.701 423.659 288.427 420.171 282.228 421.155C275.083 422.289 265.894 421.323 265.219 420.095Z" fill="#A9561F"/>
<path d="M265.354 326.356C267.894 326.319 270.215 324.897 271.393 322.646C272.584 320.399 272.453 317.678 271.053 315.558C269.185 312.734 266.558 309.967 262.702 306.599C243.607 304.829 229.951 304.415 211.74 306.016C213.592 315.753 218.397 320.345 230.874 326.846C244.343 327.906 254.112 327.795 265.354 326.356Z" fill="url(#paint5_radial)"/>
<path d="M256.287 316.171C254.395 323.121 247.23 327.216 240.268 325.306C233.313 323.399 229.202 316.211 231.098 309.259C232.988 302.304 240.17 298.209 247.126 300.12C254.077 302.025 258.181 309.214 256.287 316.171Z" fill="#38101C" stroke="#0A0003" stroke-width="1.5"/>
<path d="M242.086 304.905L241.746 304.298C240.553 304.772 239.404 305.266 238.317 305.793L239.123 307.74L239.021 308.865L235.916 307.039C234.902 307.602 233.961 308.19 233.047 308.789L233.055 308.809L231.991 310.006L233.691 311.745L231.401 312.995L232.267 314.425L236.31 314.828L232.52 317.399L236.576 317.175L234.438 320.861L239.439 317.835L238.093 322.981L240.986 318.226L241.544 323.327L242.38 318.816L243.148 318.723L244.237 323.839L244.568 322.304C245.005 322.191 246.131 323.837 246.56 323.721L245.288 318.157L248.079 323.721L246.947 317.95L250.383 322.413C250.507 322.374 250.809 320.562 250.931 320.525L248.793 317.327L252.679 318.501L250.348 315.975L248.475 314.425L256.282 316.173L251.935 313.524L255.007 312.268L248.356 311.595L254.933 308.108L248.981 309.627L247.378 308.758L246.984 307.988L247.097 306.146L247.23 303.122L244.513 307.907L244.274 304.404L243.932 303.488C243.388 303.677 242.854 303.862 242.33 304.065L242.086 304.905Z" fill="#471C29"/>
<path opacity="0.9" d="M256.434 310.004C245.022 310.524 239.22 312.965 230.948 315.732C229.354 308.702 233.774 301.716 240.81 300.136C247.846 298.555 254.843 302.972 256.434 310.004Z" fill="#290812"/>
<path opacity="0.8" d="M245.577 308.356C242.706 307.533 239.773 309.172 239.035 312.035C238.291 314.883 240.019 317.865 242.891 318.688C245.765 319.513 248.697 317.872 249.442 315.022C250.188 312.159 248.453 309.179 245.577 308.356Z" fill="black"/>
<path d="M245.577 308.356C242.706 307.533 239.773 309.172 239.035 312.035C238.291 314.883 240.019 317.865 242.891 318.688C245.765 319.513 248.697 317.872 249.442 315.022C250.188 312.159 248.453 309.179 245.577 308.356Z" stroke="#0A0003" stroke-width="2.25"/>
<path opacity="0.4" d="M234.174 320.465C235.508 322.583 237.278 324.179 239.786 324.71C242.673 325.322 243.002 321.481 240.936 321.042C239.368 320.711 238.376 319.942 237.557 318.642C236.059 316.263 232.972 318.558 234.174 320.465Z" fill="white"/>
<path d="M245.935 307.257C247.957 307.664 249.133 308.929 250.154 310.827C252.03 314.319 257.336 311.214 255.459 307.725C253.811 304.659 251.064 302.036 247.567 301.328C243.089 300.425 242.462 306.556 245.935 307.257Z" fill="url(#paint6_linear)"/>
<path d="M200.798 313.801C200.798 343.859 219.318 368.227 242.162 368.227C265.005 368.227 283.526 343.859 283.526 313.801C283.526 283.742 265.005 259.375 242.162 259.375C219.318 259.375 200.798 283.742 200.798 313.801ZM211.74 306.016C229.951 304.415 243.607 304.829 262.702 306.599C266.558 309.965 269.185 312.734 271.053 315.558C272.455 317.678 272.584 320.401 271.393 322.646C270.215 324.897 267.894 326.321 265.354 326.356C254.112 327.795 244.343 327.904 230.874 326.845C218.397 320.343 213.592 315.753 211.74 306.016Z" fill="#D79468"/>
<path d="M209.282 316.08C209.119 331.11 228.107 343.221 248.551 343.149C268.992 343.062 285.533 330.821 285.478 315.788C285.428 300.76 268.831 288.647 248.382 288.725C227.935 288.808 209.504 295.52 209.282 316.08ZM211.74 306.016C229.951 304.415 243.607 304.829 262.702 306.599C266.558 309.965 269.185 312.734 271.053 315.558C272.455 317.678 272.584 320.401 271.393 322.646C270.215 324.897 267.894 326.321 265.354 326.356C254.112 327.795 244.343 327.904 230.874 326.846C218.397 320.343 213.592 315.753 211.74 306.016Z" fill="url(#paint7_radial)"/>
<path d="M265.354 326.356C267.894 326.319 270.215 324.897 271.393 322.646C272.584 320.399 272.453 317.678 271.053 315.558C269.185 312.734 266.558 309.967 262.702 306.599C243.607 304.829 229.951 304.415 211.74 306.016C213.592 315.753 218.397 320.345 230.874 326.846C244.343 327.906 254.112 327.795 265.354 326.356Z" fill="url(#paint8_radial)"/>
<path d="M268.356 300.741C267.768 300.199 260.148 299.389 254.203 298.337C248.259 297.286 210.189 297.58 210.189 297.58C210.189 297.58 247.443 295.814 254.087 297.138C260.743 298.459 268.356 300.741 268.356 300.741Z" fill="#A9561F"/>
<path d="M274.894 323.889C270.377 316.369 268.583 312.782 261.823 307.452C248.68 305.066 233.434 305.449 213.486 306.222C215.025 314.645 219.297 319.411 232.226 326.09C246.734 327.22 258.39 327.168 271.981 326.09C257.715 328.217 247.524 329.046 229.964 328.228C217.4 323.639 210.203 315.42 205 305.467L201.018 303.551C227.31 301.361 248.804 301.42 268.341 303.455L277.215 311.883L268.977 308.486C272.077 314.728 273.838 319.004 274.894 323.889Z" fill="black"/>
<path d="M332.176 326.356C329.635 326.319 327.315 324.897 326.137 322.646C324.946 320.399 325.077 317.678 326.476 315.558C328.344 312.734 330.972 309.967 334.828 306.599C353.922 304.829 367.579 304.415 385.79 306.016C383.937 315.753 379.133 320.345 366.656 326.846C353.189 327.906 343.42 327.795 332.176 326.356Z" fill="url(#paint9_radial)"/>
<path d="M367.316 316.169C365.424 323.12 358.259 327.215 351.297 325.304C344.342 323.397 340.233 316.208 342.128 309.257C344.015 302.301 351.199 298.206 358.153 300.118C365.108 302.027 369.21 309.216 367.316 316.169Z" fill="#38101C" stroke="#0A0003" stroke-width="1.5"/>
<path d="M353.117 304.905L352.78 304.3C351.587 304.772 350.437 305.269 349.349 305.793L350.154 307.74L350.052 308.865L346.948 307.039C345.931 307.602 344.993 308.19 344.08 308.789L344.089 308.808L343.022 310.008L344.725 311.747L342.435 312.995L343.299 314.425L347.342 314.828L343.551 317.399L347.607 317.175L345.469 320.858L350.468 317.832L349.127 322.979L352.018 318.224L352.577 323.325L353.413 318.812L354.182 318.718L355.273 323.834L355.601 322.302C356.039 322.189 357.167 323.832 357.593 323.719L356.32 318.155L359.113 323.719L357.979 317.948L361.412 322.411C361.536 322.371 361.841 320.56 361.963 320.523L359.825 317.325L363.713 318.496L361.381 315.971L359.511 314.421L367.318 316.167L362.971 313.52L366.042 312.263L359.394 311.593L365.971 308.103L360.019 309.623L358.416 308.754L358.024 307.983L358.138 306.139L358.27 303.118L355.556 307.903L355.316 304.4L354.977 303.481C354.432 303.671 353.899 303.858 353.376 304.058L353.117 304.905Z" fill="#471C29"/>
<path opacity="0.9" d="M367.462 310.004C356.054 310.524 350.25 312.965 341.977 315.732C340.386 308.702 344.803 301.716 351.839 300.135C358.876 298.553 365.875 302.972 367.462 310.004Z" fill="#290812"/>
<path opacity="0.8" d="M356.609 308.356C353.737 307.533 350.805 309.174 350.067 312.035C349.32 314.883 351.049 317.865 353.92 318.688C356.798 319.513 359.729 317.872 360.471 315.022C361.218 312.159 359.48 309.179 356.609 308.356Z" fill="black"/>
<path d="M356.609 308.356C353.737 307.533 350.805 309.174 350.067 312.035C349.32 314.883 351.049 317.865 353.92 318.688C356.798 319.513 359.729 317.872 360.471 315.022C361.218 312.159 359.48 309.179 356.609 308.356Z" stroke="#0A0003" stroke-width="2.25"/>
<path opacity="0.4" d="M345.206 320.465C346.538 322.583 348.31 324.179 350.816 324.71C353.703 325.322 354.034 321.483 351.966 321.042C350.398 320.711 349.403 319.944 348.587 318.642C347.091 316.263 344.002 318.558 345.206 320.465Z" fill="white"/>
<path d="M356.966 307.256C358.989 307.663 360.164 308.926 361.185 310.825C363.062 314.317 368.37 311.212 366.491 307.722C364.843 304.657 362.098 302.034 358.599 301.326C354.121 300.425 353.492 306.555 356.966 307.256Z" fill="url(#paint10_linear)"/>
<path d="M355.37 259.375C332.526 259.375 314.006 283.742 314.006 313.801C314.006 343.859 332.526 368.227 355.37 368.227C378.214 368.227 396.734 343.859 396.734 313.801C396.734 283.742 378.214 259.375 355.37 259.375ZM366.656 326.845C353.187 327.906 343.418 327.795 332.176 326.356C329.635 326.319 327.315 324.897 326.137 322.646C324.946 320.399 325.077 317.678 326.476 315.558C328.344 312.734 330.972 309.967 334.828 306.599C353.922 304.829 367.579 304.415 385.79 306.016C383.94 315.753 379.135 320.343 366.656 326.845Z" fill="#D79468"/>
<path d="M349.148 288.723C328.699 288.645 312.101 300.758 312.051 315.786C311.997 330.821 328.538 343.062 348.978 343.147C369.423 343.221 388.411 331.11 388.248 316.078C388.028 295.52 369.597 288.808 349.148 288.723ZM366.656 326.845C353.187 327.905 343.418 327.794 332.176 326.355C329.635 326.318 327.315 324.897 326.137 322.646C324.946 320.399 325.077 317.678 326.477 315.557C328.344 312.734 330.972 309.967 334.828 306.599C353.923 304.829 367.579 304.415 385.79 306.015C383.94 315.753 379.135 320.342 366.656 326.845Z" fill="url(#paint11_radial)"/>
<path d="M332.176 326.356C329.635 326.319 327.315 324.897 326.137 322.646C324.946 320.399 325.077 317.678 326.476 315.558C328.344 312.734 330.972 309.967 334.828 306.599C353.922 304.829 367.579 304.415 385.79 306.016C383.937 315.753 379.133 320.345 366.656 326.846C353.189 327.906 343.42 327.795 332.176 326.356Z" fill="url(#paint12_radial)"/>
<path d="M330.045 300.741C330.633 300.199 338.252 299.389 344.198 298.337C350.141 297.286 388.211 297.58 388.211 297.58C388.211 297.58 350.958 295.814 344.313 297.138C337.658 298.459 330.045 300.741 330.045 300.741Z" fill="#A9561F"/>
<path d="M322.638 323.889C327.155 316.369 328.949 312.782 335.709 307.452C348.852 305.066 364.098 305.449 384.046 306.222C382.507 314.645 378.236 319.411 365.306 326.09C350.798 327.22 339.142 327.168 325.551 326.09C339.817 328.217 350.008 329.046 367.568 328.228C380.132 323.639 387.329 315.42 392.532 305.467L396.514 303.551C370.222 301.361 348.728 301.42 329.191 303.455L320.317 311.883L328.555 308.486C325.455 314.728 323.694 319.004 322.638 323.889Z" fill="black"/>
<path d="M388.459 376.88C388.536 426.129 348.637 466.126 299.336 466.194C250.043 466.274 210.016 426.412 209.94 377.152C209.863 327.908 249.762 287.754 299.061 287.676C348.356 287.6 388.388 327.625 388.459 376.88Z" fill="url(#paint13_radial)"/>
<path d="M380.839 246.312C380.839 291.401 344.289 327.951 299.202 327.951C254.114 327.951 217.561 291.401 217.561 246.312C217.561 201.223 254.114 164.673 299.202 164.673C344.289 164.673 380.839 201.223 380.839 246.312Z" fill="url(#paint14_radial)"/>
<path d="M197.204 292.024C218.415 259.118 276.646 303.231 279.971 289.431C280.621 286.664 279.084 285.044 276.566 284.006C246.912 272.019 207.666 261.946 197.204 292.024Z" fill="#2A232B"/>
<path d="M401.197 292.024C379.986 259.118 321.755 303.231 318.43 289.431C317.779 286.664 319.316 285.044 321.835 284.006C351.489 272.019 390.734 261.946 401.197 292.024Z" fill="#2A232B"/>
<path d="M320.743 387.45C321.156 386.336 321.411 385.171 321.605 384.002C321.677 383.571 321.106 381.979 321.056 382.484C320.836 384.533 319.724 387.409 317.573 388.038C315.106 388.754 313.691 387.916 313.467 385.487C313.241 383.037 314.114 379.785 313.23 377.508C312.655 376.036 311.366 374.839 310.042 374.011C311.04 378.452 311.834 384.252 307.587 387.431C307.95 387.864 308.281 388.069 308.603 388.156C308.27 388.212 307.933 388.284 307.587 388.439C305.908 389.205 299.78 390.648 297.999 389.869C297.579 389.684 296.645 389.538 295.474 389.425C294.686 388.739 293.247 386.947 292.574 386.534C289.929 384.899 288.544 382.029 288.381 378.975C288.026 372.542 291.37 365.379 298.963 362.586C291.174 360.4 290.116 373.173 285.013 376.023C281.961 377.728 279.046 379.243 279.1 383.053C279.118 384.313 279.27 386.142 279.84 387.672C278.924 386.386 278.319 385.223 278.231 386.251C277.487 394.913 285.899 392.529 289.208 393.126C291.94 393.62 296.636 394.31 298.916 394.351C301.391 394.395 305.138 393.531 307.582 393.126C309.949 392.732 314.081 393.206 317.12 391.841C318.914 391.034 321.487 390.509 321.487 387.028L320.612 387.738C320.656 387.64 320.706 387.548 320.743 387.45Z" fill="#C87D4D"/>
<path d="M278.828 381.992C279.154 380.947 279.636 379.9 280.417 379.11C279.043 381.494 278.852 384.903 280.086 387.38C281.604 390.426 284.31 389.784 286.902 388.606C289.495 387.431 289.489 386.564 292.184 387.461C294.28 388.156 295.966 389.192 298.273 389.187C300.738 389.183 302.577 388.162 304.87 387.45C307.652 386.623 310.001 387.097 312.618 388.273C315.078 389.381 317.899 390.777 319.804 388.018C321.487 385.519 321.306 381.657 319.841 379.11C323.129 382.467 322.334 392.037 316.042 390.831C315.178 390.657 313.652 389.605 312.883 389.81C311.49 390.191 309.738 389.825 308.331 389.693C305.773 389.449 303.553 389.457 301.121 390.071C300.187 390.289 299.229 390.415 298.271 390.407C297.128 390.391 295.97 389.823 294.884 389.891C291.836 390.078 290.564 389.425 287.503 389.621C284.897 389.788 283.247 392.081 280.663 390.006C278.379 388.095 278.029 384.701 278.828 381.992C278.512 383.063 278.995 381.461 278.828 381.992ZM301.837 363.139C303.05 363.389 304.151 363.938 305.17 364.628C302.142 359.819 294.435 361.563 291.37 365.379C294.505 363.714 298.247 362.342 301.837 363.139C300.677 362.88 302.418 363.263 301.837 363.139Z" fill="#A9561F"/>
<path d="M284.134 384.944C283.663 381.491 285.017 378.306 281.967 380.651C280.073 382.108 284.872 390.365 284.134 384.944Z" fill="#E6AC86"/>
<path d="M237.59 408.657C238.156 411.226 237.764 412.184 236.871 414.099C237.546 411.16 237.568 411.117 237.59 408.657ZM296.131 471.965C296.087 469.331 295.173 467.938 292.734 467.132C294.694 468.46 295.63 469.658 296.131 471.965ZM287.88 469.592C287.771 467.328 287.27 465.957 285.485 464.52C286.704 466.24 287.227 467.415 287.88 469.592ZM279.324 466.719C279.498 467.72 280.935 469.571 282.219 469.984C281.153 469.375 279.324 466.719 279.324 466.719ZM271.334 463.083C271.508 463.605 272.814 467.176 273.141 466.719C273.163 466.719 271.073 462.321 271.334 463.083ZM276.777 456.922C276.232 459.099 276.124 460.383 276.407 462.735C276.624 461.385 276.798 457.989 276.777 456.922ZM281.501 450.739C281.305 452.415 281.283 454.157 281.501 455.812C281.697 454.375 281.74 452.698 281.501 450.739ZM284.048 461.276C285.485 459.425 285.986 458.468 286.595 456.203C286.138 456.922 284.375 460.492 284.048 461.276ZM292.016 456.182C291.842 458.968 292.103 460.209 293.105 462.343C292.321 458.663 292.582 459.948 292.016 456.182ZM288.75 452.916C289.665 451.131 289.991 450.108 290.209 448.192C289.817 449.15 288.968 452.023 288.75 452.916ZM297.11 449.651C296.958 451 297.219 453.504 298.569 453.286C297.546 453.46 297.241 450.652 297.11 449.651ZM288.75 444.208C289.447 442.597 289.97 440.768 290.209 439.135C289.491 440.768 289.012 442.532 288.75 444.208ZM273.511 448.214C272.88 450.129 272.662 451.37 272.793 453.656C273.01 452.655 273.446 449.28 273.511 448.214ZM267.35 461.994C268.46 459.817 268.874 458.468 269.157 456.182C268.656 457.401 267.677 460.536 267.35 461.994ZM262.278 456.552C261.102 457.858 262.648 460.187 262.648 460.187C262.604 458.62 261.777 457.858 262.278 456.552ZM264.455 443.99C264.455 443.86 264.193 444.491 264.803 449.651C264.934 444.099 264.433 443.272 264.433 444.208C264.455 444.208 264.455 444.121 264.455 443.99ZM256.095 448.562C256.269 451.762 256.16 453.047 256.813 455.093C256.595 450.456 256.683 450.739 256.095 448.562ZM250.652 448.932C250.26 450.739 250.195 451.849 251.371 453.286C250.587 451.675 250.652 450.783 250.652 448.932ZM241.596 444.208C241.639 443.098 241.574 441.791 241.269 440.55C241.269 440.355 241.117 442.009 241.596 444.208ZM245.34 445.492L246.668 439.135C245.754 440.681 245.34 445.492 245.34 445.492ZM252.829 437.677C251.632 438.809 250.957 441.291 251.022 442.749C251.262 441.791 252.198 438.635 252.829 437.677ZM258.642 443.86C259.186 441.53 259.295 440.159 259.012 437.699C258.773 439.157 258.62 442.662 258.642 443.86ZM258.272 425.355C257.836 426.77 257.749 427.423 257.902 428.99C257.945 428.816 258.272 425.485 258.272 425.355ZM252.481 431.146C253.482 429.774 252.481 426.073 252.481 426.073C252.481 426.073 252.764 430.493 252.481 431.146ZM244.491 428.62C244.861 430.427 245.493 432.408 246.298 434.063C245.95 432.256 245.318 430.34 244.491 428.62ZM237.242 428.62C236.588 432.561 237.111 433.693 237.96 435.87C237.438 432.648 237.285 432.234 237.242 428.62ZM231.799 424.266C230.928 425.66 230.623 428.969 232.169 430.797C231.276 429.121 231.364 425.551 231.799 424.266ZM233.606 413.011C233.606 413.011 232.517 415.057 232.517 418.083C232.909 416.363 233.345 414.382 233.606 413.011ZM240.507 418.453C240.507 418.453 238.7 418.584 239.419 423.896C240.224 417.234 240.507 418.453 240.507 418.453ZM249.564 420.631C250.151 418.802 250.543 416.821 250.652 414.818C250.043 416.69 249.694 418.671 249.564 420.631ZM245.21 407.198C244.208 409.484 244.034 410.355 244.121 412.641L245.21 407.198ZM253.918 403.584C252.459 404.847 252.002 408.178 252.111 410.115C253.112 404.194 253.918 403.584 253.918 403.584ZM263.714 403.933C261.973 405.326 261.276 406.327 260.819 409.005C261.668 406.937 261.864 406.197 263.714 403.933ZM269.897 409.745C271.291 408.374 273.163 402.496 273.163 402.496C272.771 401.734 270.354 408.983 269.897 409.745ZM280.782 402.496C279.563 402.779 277.669 408.243 277.147 409.397C277.8 408.461 280.782 402.496 280.782 402.496ZM287.662 402.126C286.617 404.281 286.051 405.413 285.485 407.938C286.53 405.87 287.031 404.172 287.662 402.126ZM296.37 401.037C294.716 404.76 295.434 403.693 293.475 407.568C294.716 406.023 295.652 404.673 296.37 401.037ZM360.811 408.657C360.245 411.226 360.636 412.184 361.529 414.099C360.854 411.16 360.832 411.117 360.811 408.657ZM306.733 466.719C304.295 467.524 303.489 468.199 303.467 470.833C303.968 468.504 304.774 468.025 306.733 466.719ZM312.959 465.565C311.174 467.002 310.477 468.809 310.369 471.073C311.022 468.896 311.762 467.263 312.959 465.565ZM316.181 469.984C317.466 469.571 318.924 467.72 319.077 466.719C319.077 466.719 317.248 469.375 316.181 469.984ZM325.238 466.719C325.564 467.176 326.871 463.627 327.045 463.083C327.328 462.321 325.238 466.719 325.238 466.719ZM321.972 462.713C322.255 460.362 322.146 459.077 321.602 456.9C321.602 457.989 321.776 461.385 321.972 462.713ZM316.9 455.833C317.117 454.157 317.096 452.415 316.9 450.761C316.66 452.698 316.704 454.375 316.9 455.833ZM311.827 456.182C312.437 458.446 312.937 459.425 314.374 461.254C314.026 460.492 312.263 456.922 311.827 456.182ZM305.296 462.364C306.297 460.209 306.559 458.99 306.385 456.203C305.818 459.948 306.08 458.664 305.296 462.364ZM308.191 448.214C308.409 450.129 308.714 451.153 309.65 452.938C309.432 452.024 308.583 449.15 308.191 448.214ZM302.03 451.109C303.358 451.327 303.641 448.823 303.489 447.473C303.337 448.475 303.032 451.283 302.03 451.109ZM308.191 439.135C308.431 440.768 308.953 442.597 309.65 444.208C309.389 442.532 308.91 440.768 308.191 439.135ZM325.608 453.656C325.738 451.37 325.521 450.129 324.889 448.214C324.955 449.28 325.39 452.655 325.608 453.656ZM329.244 456.182C329.527 458.446 329.962 459.817 331.05 461.994C330.724 460.536 329.744 457.401 329.244 456.182ZM335.775 460.187C335.775 460.187 337.32 457.88 336.145 456.552C336.624 457.858 335.796 458.62 335.775 460.187ZM333.946 444.208C333.946 443.272 333.467 444.099 333.576 449.651C334.185 444.491 333.924 443.86 333.924 443.99C333.946 444.121 333.946 444.208 333.946 444.208ZM341.566 455.093C342.219 453.047 342.11 451.762 342.284 448.562C341.718 450.739 341.805 450.456 341.566 455.093ZM347.008 453.286C348.184 451.849 348.118 450.739 347.727 448.932C347.748 450.783 347.814 451.675 347.008 453.286ZM357.131 440.572C356.827 441.813 356.761 443.119 356.805 444.23C357.284 442.009 357.131 440.355 357.131 440.572ZM351.732 439.135L353.06 445.492C353.06 445.492 352.647 440.681 351.732 439.135ZM347.378 442.771C347.444 441.312 346.747 438.831 345.571 437.699C346.203 438.635 347.139 441.791 347.378 442.771ZM339.389 437.677C339.084 440.137 339.193 441.508 339.759 443.838C339.78 442.662 339.628 439.157 339.389 437.677ZM340.477 428.969C340.629 427.401 340.542 426.748 340.107 425.333C340.129 425.485 340.455 428.816 340.477 428.969ZM345.92 426.073C345.92 426.073 344.918 429.774 345.92 431.146C345.637 430.493 345.92 426.073 345.92 426.073ZM352.102 434.063C352.908 432.408 353.561 430.427 353.909 428.62C353.082 430.34 352.451 432.256 352.102 434.063ZM360.441 435.87C361.311 433.693 361.834 432.539 361.159 428.62C361.115 432.234 360.963 432.648 360.441 435.87ZM366.253 430.797C367.799 428.969 367.494 425.66 366.623 424.266C367.037 425.551 367.124 429.121 366.253 430.797ZM365.883 418.083C365.883 415.035 364.795 413.011 364.795 413.011C365.056 414.382 365.491 416.363 365.883 418.083ZM358.982 423.896C359.7 418.584 357.893 418.453 357.893 418.453C357.893 418.453 358.176 417.234 358.982 423.896ZM347.748 414.818C347.857 416.799 348.249 418.802 348.837 420.631C348.706 418.671 348.358 416.69 347.748 414.818ZM354.28 412.641C354.367 410.355 354.192 409.484 353.191 407.198L354.28 412.641ZM346.29 410.115C346.399 408.178 345.92 404.847 344.483 403.584C344.483 403.584 345.288 404.194 346.29 410.115ZM337.582 409.027C337.124 406.327 336.428 405.326 334.686 403.954C336.537 406.197 336.733 406.937 337.582 409.027ZM325.238 402.496C325.238 402.496 327.11 408.374 328.503 409.745C328.046 408.983 325.63 401.734 325.238 402.496ZM321.254 409.375C320.731 408.221 318.859 402.757 317.618 402.474C317.618 402.496 320.601 408.461 321.254 409.375ZM312.916 407.938C312.35 405.435 311.784 404.281 310.739 402.126C311.37 404.172 311.871 405.87 312.916 407.938ZM304.926 407.568C302.945 403.693 303.685 404.76 302.03 401.037C302.749 404.673 303.663 406.023 304.926 407.568ZM300.311 458.925C298.09 462.364 298.177 463.867 298.242 466.044C298.874 462.93 298.83 462.952 300.311 458.925ZM294.694 439.963C295.804 443.054 295.935 443.381 296.479 445.601C296.414 443.228 295.935 441.966 294.694 439.963ZM300.92 444.6C301.464 442.379 302.618 443.054 303.729 439.963C302.466 441.966 300.964 442.249 300.92 444.6Z" fill="#2A232B"/>
<path opacity="0.1" d="M207.333 191.309C227.443 172.173 304.321 189.652 327.5 191.83C349.579 193.532 378.717 125.78 422.428 299.548C422.33 307.905 419.621 322.696 416.341 333.222C416.025 333.002 415.718 332.769 415.402 332.556C415.402 332.556 416.53 339.647 402.211 363.884C402.971 346.308 399.573 333.638 396.786 317.264C362.587 273.752 330.628 263.548 306.308 255.97C322.636 275.03 338.788 292.522 345.854 311.624C316.146 290.776 275.301 248.742 275.301 248.742C275.301 248.742 278.357 258.983 335.576 311.626C311.753 305.791 267.335 281.844 236.223 235.534C230.244 245.33 263.218 302.574 264.148 304.766C247.465 291.516 224.789 272.903 218.963 251.167C218.963 251.167 215.543 259.969 213.168 269.966C206.902 296.443 206.846 329.358 205.703 337.726C202.078 318.74 201.512 297.49 201.518 297.767C193.017 336.721 200.606 363.936 200.752 373.362C189.436 350.645 177.667 323.515 174.242 298.18C174.247 298.18 199.537 187.826 207.333 191.309Z" fill="#DDDDDD"/>
<path d="M145.462 276.501C145.636 264.767 147.9 246.197 151.821 235.616C144.68 242.997 135.689 251.705 128.353 256.298C138.062 247.895 141.069 240.711 163.013 194.688C176.487 166.43 185.409 136.452 211.731 132.925C220.611 131.706 229.256 135.08 237.375 138.564C258.296 119.427 284.377 111.719 308.501 113.896C382.257 119.36 401.931 166.996 441.379 176.531C435.196 178.338 424.799 175.513 418.877 172.726C427.041 183.742 424.15 182.59 442.154 200.594C449.489 207.866 456.266 216.8 465.107 222.047C453.244 220.564 447.009 211.523 429.66 202.227C432.161 206.233 441.087 219.848 455.63 233.781C461.878 239.746 472.175 248.115 479.355 253.187C474.111 251.097 458.7 245.076 445.378 233.263C452.277 243.127 472.073 261.434 463.11 298.315C461.299 282.192 463.115 262.579 447.764 252.826C449.471 260.012 456.068 275.08 451.256 291.377H427.45C427.348 299.735 424.529 315.181 421.119 325.707C420.791 325.487 420.473 325.254 420.142 325.041C420.142 325.041 419.047 332.131 404.154 356.368C404.944 338.793 403.67 326.123 400.773 309.749C365.187 266.237 331.937 256.033 306.635 248.454C323.625 267.514 336.707 289.463 344.063 308.567C320.015 283.183 270.405 243.763 270.405 243.763C270.405 243.763 271.197 254.356 330.735 306.997C310.164 294.381 266.081 274.329 233.713 228.019C227.491 237.815 257.266 295.058 258.235 297.251C240.875 284.001 226.35 261.033 220.278 239.298C220.278 239.298 212.188 252.454 209.726 262.451C203.206 288.928 205.407 310.957 204.223 319.326C200.452 300.34 197.6 289.975 197.607 290.252C188.755 329.205 198.921 360.775 199.07 370.201C187.3 347.484 172.788 315.78 169.224 290.445H143.977C145.434 281.025 144.354 280.999 145.462 276.501Z" fill="#DDDDDD"/>
<path d="M131.054 209.927C139.351 209.557 143.847 210.143 153.6 209.359C155.058 206.028 159.56 197.276 161.084 193.967C153.467 200.716 137.651 209.252 131.054 209.927Z" fill="#BE9898"/>
<path d="M342.741 141.816C377.633 136.831 410.012 174.302 439.446 176.653C433.191 177.938 423.366 174.428 417.699 171.761C425.863 182.777 423.664 182.843 441.671 200.847C449.005 208.118 454.232 215.912 463.071 221.159C453.597 219.587 445.94 210.371 428.987 201.175C409.069 171.737 378.652 145.807 342.741 141.816ZM220.278 239.298C220.278 239.298 212.188 252.454 209.726 262.451C203.206 288.928 205.407 310.957 204.223 319.326C200.452 300.34 197.6 289.975 197.607 290.251C197.393 291.183 197.204 292.104 197.014 293.027C189.244 330.697 198.926 360.999 199.07 370.201C187.3 347.484 172.788 315.997 169.224 290.665H143.977C145.434 281.243 144.354 280.999 145.462 276.503C145.636 264.769 147.9 246.199 151.821 235.619C144.68 242.999 135.689 251.707 128.353 256.3C137.897 248.041 140.977 240.931 161.916 196.993C168.367 186.955 175.668 177.448 183.817 167.941C168.578 187.534 159.87 211.482 157.693 235.429C162.047 222.367 175.281 213.519 184.261 203.137C174.8 217.921 167.97 232.283 164.224 252.845C166.973 248.13 170.864 245.496 173.698 241.96C169.207 255.038 170.52 262.538 172.514 272.511C174.478 256.995 177.741 231.796 185.994 218.013C185.994 241.96 178.568 264.969 188.182 290.458C188.093 271.59 195.24 254.417 200.212 241.516C199.224 246.201 199.984 257.746 200.247 262.52C203.03 248.004 204.919 233.762 213.381 222.064C209.606 200.363 203.654 177.045 211.675 171.328C198.641 193.965 238.859 213.72 237.658 212.757C260.153 225.254 274.411 226.778 286.075 229.73C278.466 223.606 274.513 215.986 266.83 209.927C288.6 217.438 318.999 240.669 334.506 250.161C338.646 256.222 339.021 257.763 340.255 260.683C331.371 256.485 320.27 252.536 306.637 248.452C338.006 283.644 331.739 276.547 344.065 308.565C322.697 286.008 322.73 285.362 273.479 246.203C279.429 253.967 295.186 275.563 330.737 306.995C322.704 302.068 262.955 269.853 233.715 228.016C232.32 239.387 233.88 246.856 258.237 297.249C253.779 295.883 236.432 280.366 220.278 239.298ZM340.253 260.685C358.764 269.43 379.342 283.546 400.773 309.749C403.67 326.123 404.944 338.793 404.154 356.368C407.478 350.958 410.084 346.445 412.174 342.633C419.45 329.364 420.142 325.041 420.142 325.041C420.473 325.254 420.791 325.487 421.119 325.707C424.529 315.181 427.348 300.39 427.45 292.032H450.817C455.632 275.737 448.533 258.848 446.826 251.661C462.176 261.414 462.588 279.397 463.306 295.55C470.643 259.259 450.353 241.908 443.931 231.524C457.363 241.952 472.365 250.094 477.612 252.184C470.425 247.111 461.48 240.275 455.232 234.31C447.309 226.721 440.824 218.679 436.141 212.27C425.939 207.04 418.342 199.21 408.053 194.065C425.31 205.569 430.746 223.828 436.259 241.405C433.616 237.589 429.342 235.013 427.05 231.582C429.773 238.736 433.775 246.155 432 255.023C421.115 239.783 416.761 218.013 399.345 204.95C416.933 222.539 418.152 268.864 418.078 277.115C400.331 192.043 325.197 111.995 249.128 141.816C325.325 117.869 390.636 198.419 399.345 268.085C384.105 250.668 379.751 228.898 357.981 218.013C368.866 228.898 375.397 246.314 381.928 259.377C357.981 231.075 338.387 202.773 305.732 183.18C320.971 200.596 340.564 215.836 351.45 237.606C357.981 244.137 360.158 252.845 364.512 259.377C349.273 244.137 330.123 228.547 310.371 222.767C332.551 241.869 338.694 256.991 340.253 260.685Z" fill="#CEB9B9"/>
<path d="M337.878 141.444C355.93 141.381 406.505 155.582 431.695 205.012C404.709 167.547 376.951 150.29 337.878 141.444ZM381.591 213.023C353.394 153.964 300.696 135.784 272.453 137.608C292.859 136.298 350.374 157.202 381.591 213.023ZM240.814 160.45C239.488 148.97 223.931 137.179 206.926 143.787C205.466 144.355 204.181 145.391 202.727 145.918C221.293 139.211 238.261 149.181 240.814 160.45ZM235.587 167.867C230.643 160.8 223.953 154.284 215.321 152.197C189.081 145.853 169.449 184.704 164.907 202.092C165.48 199.909 187.975 147.518 216.061 154.054C224.162 155.902 230.436 161.656 235.587 167.867ZM232.962 172.885C230.504 203.218 300.178 224.627 315.461 237.554C288.261 214.545 233.38 200.34 232.962 172.885ZM353.176 240.108C347.405 230.457 323.433 191.675 284.906 168.601C261.009 154.289 251.732 162.932 247.186 165.039C278.118 150.727 334.786 214.617 353.176 240.108Z" fill="#BE9898"/>
<path d="M418.078 194.54C418.078 194.54 389.781 164.02 347.588 149.081C379.124 156.962 397.864 172.476 418.078 194.54ZM348.358 151.711C366.587 157.942 398.099 192.931 402.075 199.756C391.79 182.098 367.625 156.812 348.358 151.711ZM290.934 146.031C326.697 154.237 359.256 194.49 359.256 194.49C344.076 170.995 319.105 148.356 290.934 146.031ZM260.072 166.974C277.384 171.429 316.425 203.692 318.428 206.514C312.794 198.583 279 169.639 260.072 166.974ZM247.635 170.362C266.658 172.824 282.435 188.749 284.788 191.969C274.9 178.443 264.758 170.778 247.635 170.362ZM245.737 176.386C264.322 195.642 292.003 201.267 302.044 214.373C288.174 196.269 262.702 192.089 245.737 176.386ZM268.428 221.997C244.021 208.752 227.138 197.248 223.357 194.02C219.36 190.613 209.162 182.416 216.619 174.098C211.085 177.733 212.243 185.815 219.658 193.528C227.722 201.918 266.247 221.997 268.428 221.997C268.426 221.997 266.316 220.85 268.428 221.997ZM285.618 229.704C266.765 225.176 247.461 218.745 231.279 207.833C220.019 200.242 203.271 182.527 211.99 172.125C214.485 169.141 219.738 167.743 223.522 167.786C219.751 167.741 215.186 168.657 212.271 171.174C203.842 178.454 212.855 197.07 226.936 207.182C243.975 219.419 265.374 225.356 285.618 229.704ZM286.565 154.857C290.179 155.58 293.762 156.059 297.235 157.385C326.71 168.622 354.798 203.27 354.798 203.27C339.615 180.592 314.048 157.45 286.565 154.857ZM289.269 164.503C323.137 177.54 360.156 220.991 362.333 222.55C345.859 197.573 318.062 171.729 289.269 164.503ZM203.659 169.794C181.187 165.344 170.602 203.327 169.307 205.506C176.933 189.877 188.585 168.35 203.659 169.794ZM203.889 195.698C184.816 213.589 188.946 236.239 189.266 246.811C188.907 227.605 193.845 207.644 203.889 195.698Z" fill="#ECECEC"/>
<path d="M150.053 238.619C141.389 262.544 143.805 287.341 143.672 289.518C143.5 289.89 143.154 290.67 142.982 291.048C145.268 290.561 144.757 291.035 145.331 291.035C149.714 281.591 155.222 269.247 169.971 249.375C160.632 260.631 152.206 272.452 145.566 285.558C149.509 260.413 165.53 239.557 167.383 236.901C158.587 248.069 150.358 259.999 145.895 274.76C146.069 263.025 148.767 244.891 152.688 234.31C145.547 241.69 136.556 251.052 129.219 255.645C138.929 247.242 142.368 240.711 164.313 194.688C177.787 166.43 185.406 136.887 211.729 133.361C220.609 132.142 229.254 135.081 237.372 138.564C258.294 119.428 284.375 112.809 308.499 114.986C382.255 120.451 400.825 166.931 440.273 176.466C434.09 178.273 423.619 174.55 417.697 171.764C425.861 182.78 423.662 182.845 441.668 200.849C449.003 208.12 454.23 215.914 463.069 221.161C453.49 219.572 445.783 210.167 428.432 200.871C430.933 204.877 440.687 220.377 455.231 234.31C461.48 240.275 470.425 247.111 477.611 252.184C472.365 250.094 457.363 241.952 443.93 231.524C450.353 241.908 470.645 259.259 463.306 295.551C462.588 279.397 462.174 261.414 446.826 251.661C448.533 258.848 455.632 275.737 450.816 292.032H451.507H453.411C458.075 276.928 451.537 262.096 448.872 254.535C462.825 267.162 462.609 294.397 461.216 307.609C466.704 292.696 468.79 278.33 464.395 263.004C461.935 254.383 456.775 246.763 451.419 239.688C451.049 239.187 450.655 238.686 450.285 238.185C460.496 246.371 473.19 253.599 485.357 255.907C485.357 255.907 448.197 229.303 432.433 205.268C436.352 208.077 441.686 212.54 446.889 216.045C454.4 221.161 460.321 223.752 468.964 222.663C458.689 217.939 451.918 207.881 444.692 200.348C428.648 183.498 435.2 192.903 421.703 174.964C432.588 179.405 438.355 178.97 444.932 176.597C441.229 175.726 437.356 174.703 433.872 173.353C404.678 162.054 371.933 110.262 302.727 110.001C278.997 109.892 253.437 119.079 236.719 137.192C233.824 135.864 230.885 134.732 227.924 133.774C190.348 121.692 177.482 156.241 161.002 191.27C154.732 196.473 142.562 208.556 126.106 210.167C134.096 210.733 142.521 211.43 152.361 210.602C137.949 243.389 137.167 246.959 118.464 262.307C134.466 256.753 139.538 250.396 150.053 238.619ZM159.785 195.709C158.261 199.018 154.625 205.157 153.166 208.488C143.413 209.272 141.084 209.337 132.789 209.707C139.386 209.033 152.165 202.458 159.785 195.709ZM168.443 282.321C168.443 286.348 173.062 307.5 178.048 320.541C175.479 305.715 174.978 290.236 175.372 275.215C175.764 259.692 178.202 244.475 182.644 229.606C172.368 272.319 177.919 327.856 198.382 367.349C194.226 346.646 191.807 325.681 194.441 304.607C195.051 299.73 195.878 294.897 196.966 290.108C196.966 290.108 194.964 271.886 200.21 241.516C196.638 266.705 199.122 291.218 204.042 315.993C203.563 297.967 204.477 279.789 209.093 262.285C211.616 252.706 214.402 249.702 218.889 238.599C216.427 229.673 215.164 220.486 214.296 211.299C218.497 239.23 226.05 255.166 241.182 277.808C245.669 284.491 250.326 290.63 256.77 295.551C252.242 287.626 237.264 253.969 236.371 251.705C233.388 244.15 231.581 236.335 232.955 228.236C228.514 221.27 224.617 213.955 221.068 206.488C232.452 227.605 247.278 246.132 265.35 261.98C274.689 270.188 284.636 277.764 294.87 284.796C305.409 292.045 316.728 297.706 327.591 304.368C313.397 292.481 299.311 279.549 289.689 269.078C283.854 262.721 277.04 256.298 272.338 249.027C267.657 241.778 265.633 233.483 261.932 225.733C265.611 232.068 268.245 238.839 270.966 243.432C271.641 244.564 296.697 263.374 307.737 273.867C321.757 287.169 328.963 291.632 342.245 305.652C336.169 292.198 334.58 285.689 318.012 263.722C307.084 249.223 302.577 248.418 288.015 225.733C291.779 230.892 295.589 235.899 299.923 240.602C302.187 243.062 304.495 245.435 306.824 247.83C320.344 251.879 332.862 254.187 353.977 267.292C390.271 289.825 397.956 306.566 412.694 320.935C410.082 311.857 402.07 296.661 394.886 284.143C388.333 272.713 381.127 260.892 373.137 251.182C383.241 260.239 390.706 271.799 397.368 283.49C404.378 295.855 412.193 309.157 414.564 323.351C409.973 319.825 405.834 315.884 401.787 311.726C404.223 325.507 405.553 339.875 404.92 353.874C424.548 321.91 432.209 276.536 426.362 247.662C441.477 306.704 413.896 343.844 400.982 367.13C401.983 352.892 400.546 319.278 399.436 309.656C394.625 303.649 360.441 267.012 309.546 250.571C318.515 259.54 326.372 268.858 332.579 279.982C338.261 290.215 343.682 300.926 346.947 312.703C335.409 301.165 322.828 290.672 310.506 280.026C297.835 269.075 285.6 257.646 272.974 246.652C276.389 251.768 280.419 256.601 305.148 280.723C318.189 293.458 338.522 311.833 338.958 312.312C336.781 311.484 300.293 292.522 283.182 279.547C265.286 265.984 246.128 248.829 234.024 229.889C232.959 242.973 240.688 256.993 244.692 265.44C249.046 274.605 255.531 290.694 262.607 302.363C251.634 295.918 243.34 286.797 236.656 275.933C229.714 264.656 223.463 253.749 219.588 241.035C216.323 247.523 212.752 254.01 211.228 261.173C209.617 268.705 208.553 276.303 207.81 283.966C206.352 299.358 204.697 315.164 205.59 330.642C201.802 318.734 198.906 306.825 197.665 294.351C193.964 315.076 197.467 345.468 201.538 375.511C190.329 360.226 180.856 338.153 175.435 318.255C171.867 305.106 167.833 290.942 168.443 282.321Z" fill="#AF7B7B"/>
<path opacity="0.2" d="M396.754 328.041C390.941 343.846 375.767 355.167 357.98 355.167C335.165 355.167 316.617 336.618 316.617 313.803C316.617 306.357 318.619 299.391 322.081 293.339C360.201 289.986 382.733 300.675 396.754 328.041ZM204.521 293.339C201.059 299.391 199.056 306.357 199.056 313.803C199.056 336.618 217.605 355.167 240.42 355.167C258.206 355.167 273.38 343.846 279.193 328.041C265.173 300.675 242.641 289.986 204.521 293.339Z" fill="white"/>
<path opacity="0.4" d="M322.081 293.339C329.222 280.864 342.611 272.439 357.98 272.439C380.796 272.439 399.344 290.987 399.344 313.803C399.344 318.81 398.408 323.6 396.754 328.041C382.733 300.675 360.201 289.986 322.081 293.339ZM279.193 328.041C280.848 323.6 281.784 318.81 281.784 313.803C281.784 290.987 263.235 272.439 240.42 272.439C225.05 272.439 211.639 280.886 204.521 293.339C242.641 289.986 265.173 300.675 279.193 328.041Z" fill="white"/>
<path d="M422.617 302.83L401.347 310.319C399.562 287.896 380.861 270.262 357.981 270.262C337.495 270.262 320.361 284.434 315.724 303.483C315.702 303.483 315.702 303.462 315.681 303.44C312.001 299.761 304.861 297.976 299.2 297.976C293.54 297.976 286.399 299.782 282.72 303.44C282.698 303.44 282.698 303.462 282.677 303.483C278.04 284.413 260.906 270.262 240.42 270.262C217.539 270.262 198.839 287.918 197.053 310.319L175.784 302.83V309.1L197.032 316.567C198.468 339.318 217.322 357.344 240.42 357.344C264.477 357.344 283.961 337.859 283.961 313.803C283.961 313.128 283.896 312.453 283.852 311.778C283.874 311.778 283.896 311.778 283.918 311.778C283.918 306.575 291.755 301.589 299.2 301.589C306.646 301.589 314.483 306.597 314.483 311.778C314.505 311.778 314.527 311.778 314.549 311.778C314.505 312.453 314.44 313.128 314.44 313.803C314.44 337.859 333.924 357.344 357.981 357.344C381.079 357.344 399.932 339.339 401.391 316.589L422.639 309.122V302.83H422.617ZM240.42 354.078C218.171 354.078 200.145 336.052 200.145 313.803C200.145 291.553 218.171 273.527 240.42 273.527C262.67 273.527 280.695 291.553 280.695 313.803C280.695 336.052 262.67 354.078 240.42 354.078ZM357.981 354.078C335.731 354.078 317.705 336.052 317.705 313.803C317.705 291.553 335.731 273.527 357.981 273.527C380.23 273.527 398.256 291.553 398.256 313.803C398.256 336.052 380.23 354.078 357.981 354.078Z" fill="#FFD700"/>
</g>
<defs>
<linearGradient id="paint0_linear" x1="300" y1="-75" x2="300" y2="675" gradientUnits="userSpaceOnUse">
<stop stop-color="#151371"/>
<stop offset="0.453125" stop-color="#FF00B8"/>
<stop offset="0.96875" stop-color="#FFC700"/>
</linearGradient>
<linearGradient id="paint1_linear" x1="439" y1="245" x2="439" y2="644" gradientUnits="userSpaceOnUse">
<stop stop-color="#FF00B8"/>
<stop offset="1" stop-color="#F0DB0A" stop-opacity="0"/>
</linearGradient>
<linearGradient id="paint2_linear" x1="194" y1="161" x2="194" y2="560" gradientUnits="userSpaceOnUse">
<stop stop-color="#FF00B8"/>
<stop offset="1" stop-color="#F0DB0A" stop-opacity="0"/>
</linearGradient>
<linearGradient id="paint3_linear" x1="299.201" y1="503.206" x2="299.201" y2="396.531" gradientUnits="userSpaceOnUse">
<stop stop-color="#C87D4D" stop-opacity="0.8"/>
<stop offset="0.7" stop-color="#A9561F"/>
</linearGradient>
<linearGradient id="paint4_linear" x1="299.201" y1="437.894" x2="299.201" y2="431.363" gradientUnits="userSpaceOnUse">
<stop offset="0.1" stop-color="#CF885A"/>
<stop offset="1" stop-color="#C87D4D"/>
</linearGradient>
<radialGradient id="paint5_radial" cx="0" cy="0" r="1" gradientUnits="userSpaceOnUse" gradientTransform="translate(241.972 316.285) rotate(180) scale(22.8133)">
<stop stop-color="white"/>
<stop offset="0.544" stop-color="#FDFEFE"/>
<stop offset="0.74" stop-color="#F6F8F9"/>
<stop offset="0.879" stop-color="#EAEFF2"/>
<stop offset="0.992" stop-color="#D9E3E8"/>
<stop offset="1" stop-color="#D8E2E7"/>
</radialGradient>
<linearGradient id="paint6_linear" x1="261.102" y1="299.652" x2="248.04" y2="312.714" gradientUnits="userSpaceOnUse">
<stop stop-color="white"/>
<stop offset="1" stop-color="white" stop-opacity="0"/>
</linearGradient>
<radialGradient id="paint7_radial" cx="0" cy="0" r="1" gradientUnits="userSpaceOnUse" gradientTransform="translate(247.568 314.869) rotate(1.19182) scale(36.2854 29.0268)">
<stop stop-color="#C87D4D"/>
<stop offset="0.7" stop-color="#C87D4D" stop-opacity="0.3"/>
<stop offset="1" stop-color="#D79468" stop-opacity="0"/>
</radialGradient>
<radialGradient id="paint8_radial" cx="0" cy="0" r="1" gradientUnits="userSpaceOnUse" gradientTransform="translate(249.375 348.079) rotate(-156.001) scale(56.5281 39.0031)">
<stop offset="0.95" stop-opacity="0"/>
<stop offset="1" stop-opacity="0.2"/>
</radialGradient>
<radialGradient id="paint9_radial" cx="0" cy="0" r="1" gradientUnits="userSpaceOnUse" gradientTransform="translate(355.56 316.285) scale(22.8133)">
<stop stop-color="white"/>
<stop offset="0.544" stop-color="#FDFEFE"/>
<stop offset="0.74" stop-color="#F6F8F9"/>
<stop offset="0.879" stop-color="#EAEFF2"/>
<stop offset="0.992" stop-color="#D9E3E8"/>
<stop offset="1" stop-color="#D8E2E7"/>
</radialGradient>
<linearGradient id="paint10_linear" x1="367.778" y1="299.652" x2="354.715" y2="312.714" gradientUnits="userSpaceOnUse">
<stop stop-color="white"/>
<stop offset="1" stop-color="white" stop-opacity="0"/>
</linearGradient>
<radialGradient id="paint11_radial" cx="0" cy="0" r="1" gradientUnits="userSpaceOnUse" gradientTransform="translate(349.964 314.869) rotate(178.808) scale(36.2854 29.0268)">
<stop stop-color="#C87D4D"/>
<stop offset="0.7" stop-color="#C87D4D" stop-opacity="0.3"/>
<stop offset="1" stop-color="#D79468" stop-opacity="0"/>
</radialGradient>
<radialGradient id="paint12_radial" cx="0" cy="0" r="1" gradientUnits="userSpaceOnUse" gradientTransform="translate(348.155 348.08) rotate(-23.9991) scale(56.5281 39.0031)">
<stop offset="0.95" stop-opacity="0"/>
<stop offset="1" stop-opacity="0.2"/>
</radialGradient>
<radialGradient id="paint13_radial" cx="0" cy="0" r="1" gradientUnits="userSpaceOnUse" gradientTransform="translate(299.201 376.937) scale(89.2588)">
<stop stop-color="#E6AC86" stop-opacity="0.5"/>
<stop offset="0.9" stop-color="#D79468" stop-opacity="0"/>
</radialGradient>
<radialGradient id="paint14_radial" cx="0" cy="0" r="1" gradientUnits="userSpaceOnUse" gradientTransform="translate(299.2 246.314) scale(80.5507)">
<stop stop-color="#E6AC86" stop-opacity="0.5"/>
<stop offset="0.9" stop-color="#D79468" stop-opacity="0"/>
</radialGradient>
<clipPath id="clip0">
<rect width="600" height="600" fill="white"/>
</clipPath>
</defs>
</svg>
