<svg width="600" height="600" viewBox="0 0 600 600" fill="none" xmlns="http://www.w3.org/2000/svg">
<g clip-path="url(#clip0)">
<path d="M675 675H-75V-75H675V675Z" fill="url(#paint0_linear)"/>
<path d="M360.996 403.874H308.184V356.576H360.996V403.874ZM414.113 320.069H340.054V380.225H414.113V320.069ZM377.082 441.95H442.881V362.639H377.082V441.95ZM400.757 434.192H334.59V491.191H400.757V434.192ZM580.44 284.416H490.23V387.501H580.44V284.416ZM478.458 331.108H456.605V356.576H478.458V331.108ZM544.531 252.277H456.605V304.426H544.531V252.277ZM442.881 270.468H395.532V335.958H442.881V270.468ZM334.59 275.32H308.184V303.213H334.59V275.32ZM299.325 320.069H258.501V382.71H299.325V320.069ZM347.338 441.95H275.708V521.511H347.338V441.95ZM308.184 576.086H388.617V528.788H308.184V576.086ZM500.311 557.894H443.791V599.129H500.313V557.894H500.311ZM637.361 516.659H585.062V578.511H637.361V516.659ZM551.302 544.718H506.381V585.953H551.302V544.718ZM594.357 463.296H528.843V537.278H594.357V463.296ZM610.791 590.639H528.843V644H610.791V590.639ZM340.054 557.894H251.187V637.937H340.052V557.894H340.054ZM630.216 356.576H569.818V403.874H630.216V356.576ZM594.357 424.49H568.208V451.477H594.357V424.49ZM251.187 474.697H300.975V404.294H251.187V474.697ZM321.764 249.852L232 252.277V320.069H321.764V249.852ZM646 252.277H587.725V326.256H646V252.277ZM371.858 245H347.338V298.361H371.858V245ZM641.143 437.983H581.281V486.494H641.143V437.983Z" fill="url(#paint1_linear)" stroke="#FFC700" stroke-width="1.5"/>
<path d="M115.996 319.874H63.1843V272.576H115.996V319.874ZM169.113 236.069H95.0537V296.225H169.113V236.069ZM132.082 357.95H197.881V278.639H132.082V357.95ZM155.757 350.192H89.5904V407.191H155.757V350.192ZM335.44 200.416H245.23V303.501H335.44V200.416ZM233.458 247.108H211.605V272.576H233.458V247.108ZM299.531 168.277H211.605V220.426H299.531V168.277ZM197.881 186.468H150.532V251.958H197.881V186.468ZM89.5904 191.32H63.1843V219.213H89.5904V191.32ZM54.3246 236.069H13.5008V298.71H54.3246V236.069ZM102.338 357.95H30.7084V437.511H102.338V357.95ZM63.1843 492.086H143.617V444.788H63.1843V492.086ZM255.311 473.894H198.791V515.129H255.313V473.894H255.311ZM392.361 432.659H340.062V494.511H392.361V432.659ZM306.302 460.718H261.381V501.953H306.302V460.718ZM349.357 379.296H283.843V453.278H349.357V379.296ZM365.791 506.639H283.843V560H365.791V506.639ZM95.0537 473.894H6.18721V553.937H95.0519V473.894H95.0537ZM385.216 272.576H324.818V319.874H385.216V272.576ZM349.357 340.49H323.208V367.477H349.357V340.49ZM6.18721 390.697H55.9745V320.294H6.18721V390.697ZM76.7643 165.852L-13 168.277V236.069H76.7643V165.852ZM401 168.277H342.725V242.256H401V168.277ZM126.858 161H102.338V214.361H126.858V161ZM396.143 353.983H336.281V402.494H396.143V353.983Z" fill="url(#paint2_linear)" stroke="#FFC700" stroke-width="1.5"/>
<rect x="504" y="328.705" width="8.86149" height="25.1423" fill="white"/>
<rect x="521.754" y="328.858" width="8.83104" height="25.1423" fill="white"/>
<rect x="512.861" y="320" width="8.89195" height="8.85765" fill="white"/>
<rect x="539.415" y="328.858" width="8.89195" height="25.1423" fill="white"/>
<rect x="530.585" y="320" width="8.83105" height="8.85765" fill="white"/>
<rect x="548.308" y="320" width="8.86149" height="8.85765" fill="white"/>
<rect x="557.169" y="327.792" width="8.83104" height="8.85766" fill="white"/>
<rect x="548.308" y="336.65" width="8.86149" height="8.82721" fill="white"/>
<rect x="40" y="390.425" width="7.57515" height="21.4449" fill="white"/>
<rect x="55.1768" y="390.555" width="7.54912" height="21.4449" fill="white"/>
<rect x="47.5752" y="383" width="7.60118" height="7.55506" fill="white"/>
<rect x="70.2744" y="390.555" width="7.60118" height="21.4449" fill="white"/>
<rect x="62.7256" y="383" width="7.54912" height="7.55506" fill="white"/>
<rect x="77.876" y="383" width="7.57515" height="7.55506" fill="white"/>
<rect x="85.4512" y="389.646" width="7.54912" height="7.55506" fill="white"/>
<rect x="77.876" y="397.201" width="7.57515" height="7.52909" fill="white"/>
<path d="M312.25 355.481H309.884V353.067H312.25V355.481Z" fill="#6B4E40"/>
<path d="M541.452 595.189C536.15 583.729 521.665 566.748 505.572 562.057C485.679 556.255 440.774 549.24 424.124 545.341C410.776 542.212 383.893 518.072 374.472 509.969C372.782 508.52 371.398 505.528 371.364 503.305C371.029 477.073 381.493 407.391 381.493 407.391H311.067H240.643C240.643 407.391 251.107 477.071 250.767 503.305C250.74 505.528 249.35 508.52 247.664 509.969C238.243 518.072 211.36 542.212 198.012 545.341C181.36 549.24 136.455 556.494 116.564 562.296C100.466 566.985 85.9866 583.727 80.6843 595.186C71.7313 614.521 69.6162 649.513 69.6162 679.694H311.067H552.518C552.518 649.515 550.4 614.524 541.452 595.189Z" fill="#F0C7B1"/>
<path d="M453.9 557.233C512.674 565.785 537.408 578.258 545.154 679.699H552.518C552.518 649.517 550.401 614.526 541.452 595.191C536.15 583.732 521.665 566.751 505.573 562.059C485.68 556.257 440.775 549.243 424.124 545.344C410.777 542.214 380.079 516.203 371.867 505.866C379.98 517.224 402.751 543.545 422.702 550.438C432.247 553.736 440.195 555.238 453.9 557.233ZM199.435 550.438C219.386 543.547 242.155 517.224 250.27 505.866C242.061 516.2 211.363 542.214 198.013 545.344C181.363 549.243 136.458 556.496 116.564 562.298C100.472 566.987 85.9871 583.729 80.6848 595.189C71.7367 614.524 69.6191 649.515 69.6191 679.696H76.9834C84.6808 578.905 109.519 565.773 168.237 557.23C181.94 555.238 189.891 553.736 199.435 550.438Z" fill="#FFE4D6"/>
<path d="M300.555 589.978C300.555 589.978 288.304 586.093 283.453 584.234C258.224 574.554 176.261 568.281 176.261 568.281C176.261 568.281 262.589 571.707 281.639 574.991C280.534 563.481 274.355 526.691 274.355 526.691C274.355 526.691 286.787 567.291 289.829 577.534C291.457 583.01 300.555 589.978 300.555 589.978ZM326.629 586.738C326.414 586.914 326.168 587.143 325.9 587.385C326.173 587.18 326.419 586.965 326.629 586.738ZM300.555 589.978C300.555 589.978 307.54 597.202 311.051 597.294C315.662 597.417 322.708 590.294 325.902 587.385C322.848 589.696 315.86 590.743 313.081 590.852C309.87 590.975 300.555 589.978 300.555 589.978ZM351.303 571.823C347.572 572.422 340.713 573.728 340.713 573.728L346.235 537.776C344.675 545.191 335.432 576.918 326.629 586.738C331.241 582.836 341.497 580.965 346.727 580.209C371.442 576.626 371.433 576.628 445.872 568.281C445.872 568.281 375.68 567.907 351.303 571.823Z" fill="#E1AC8F"/>
<path d="M541.452 595.189C536.15 583.729 521.665 566.748 505.572 562.057C485.679 556.255 440.774 549.24 424.124 545.341C410.776 542.212 383.893 518.072 374.472 509.969C372.782 508.52 371.398 505.528 371.364 503.305C371.029 477.073 381.493 407.391 381.493 407.391H311.067H240.643C240.643 407.391 251.107 477.071 250.767 503.305C250.74 505.528 249.35 508.52 247.664 509.969C238.243 518.072 211.36 542.212 198.012 545.341C181.36 549.24 136.455 556.494 116.564 562.296C100.466 566.985 85.9866 583.727 80.6843 595.186C71.7313 614.522 69.6162 649.513 69.6162 679.694H311.067H552.518C552.518 649.515 550.4 614.524 541.452 595.189Z" stroke="#C27B55" stroke-width="4.05"/>
<path d="M251.952 506.513C268.803 517.475 291.325 527.795 311.071 527.795C329.972 527.795 352.951 517.391 370.125 506.381C369.775 505.347 369.563 504.299 369.548 503.329C369.244 479.481 377.625 421.185 379.39 409.204H242.743C244.506 421.187 252.889 479.481 252.58 503.326C252.568 504.326 252.336 505.429 251.952 506.513Z" fill="url(#paint3_linear)"/>
<path d="M380.741 687.423H240.369V551.768C294.092 563.114 329.416 562.24 380.744 551.768V687.423H380.741Z" fill="#F3F1F3"/>
<path d="M329.03 686.773C322.33 686.773 303.13 687.275 289.162 686.218L289.138 685.805C287.163 640.755 291.864 611.634 300.092 590.944L300.208 590.647L299.984 590.422C297.799 588.24 294.129 585.75 290.244 583.118C286.354 580.479 282.336 577.756 279.774 575.281C281.283 573.514 283.143 571.77 285.444 569.967C286.035 569.665 288.249 567.931 299.868 557.964C300.385 557.52 300.701 557.249 300.742 557.216C302.717 556.786 305.904 556.508 309.767 556.508C315.038 556.508 321.19 557.042 325.491 557.868C329.26 561.388 333.823 570.734 335.53 575.18C333.174 580.711 330.392 582.735 326.555 585.523C324.687 586.883 322.567 588.423 320.152 590.623L319.952 590.804L320.002 591.072C329.723 640.11 329.726 651.565 329.726 662.643C329.728 667.522 329.728 678.6 330.544 686.751C330.182 686.768 329.668 686.773 329.03 686.773Z" fill="#131111"/>
<path d="M336.056 575.189C334.236 570.372 329.513 560.871 325.722 557.421C318.778 556.061 306.447 555.385 300.442 556.841C300.181 557.054 285.356 569.839 285.207 569.542C283.019 571.251 280.889 573.173 279.122 575.312C284.098 580.325 295.191 586.313 299.645 590.765C290.832 612.93 286.776 642.894 288.659 685.848C288.684 686.114 288.684 686.404 288.708 686.669C305.02 687.925 328.668 687.469 331.082 687.208C328.281 659.907 334.554 661.964 320.483 590.982C327.89 584.234 332.471 583.749 336.056 575.189ZM323.38 621.161C323.329 621.041 323.283 620.92 323.257 620.847C328.086 646.321 326.589 665.835 330.237 685.972C318.802 685.204 301.229 685.846 289.743 685.846C290.634 668.466 292.612 609.345 301.188 589.894C301.599 589.782 302.007 589.691 302.417 589.592L299.925 673.462L306.558 588.795C306.606 588.79 306.655 588.783 306.703 588.776L311.052 667.501L312.058 588.464C312.121 588.467 312.181 588.462 312.244 588.464L322.383 676.244L316.829 588.99C317.588 589.143 318.348 589.331 319.104 589.553C319.176 589.553 319.273 589.577 319.345 589.626C319.596 592.045 321.605 609.912 323.38 621.161ZM321.253 587.819C314.555 584.799 305.889 585.342 299.211 588.399C295.152 584.021 289.36 580.969 281.03 575.382C282.358 574.226 284.072 572.799 286.366 571.012C286.559 571.012 294.768 564.321 294.913 564.179C297.134 562.151 299.114 559.857 300.998 557.853C308.072 557.563 318.454 557.901 324.708 558.191C328.33 562.721 331.785 569.53 334.39 574.948C329.655 581.88 324.971 584.968 321.253 587.819Z" fill="black"/>
<path d="M258.421 627.299C230.572 530.547 243.149 555.876 235.727 517.874C240.623 506.253 245.283 492.666 247.901 489.87L248.094 489.663C253.628 547.628 269.723 522.587 305.52 556.597C285.057 570.249 266.089 605.689 258.421 627.299ZM386.382 517.876C382.886 508.938 376.538 495.839 373.79 492.932C377.229 542.859 337.22 532.894 314.997 556.192C336.274 569.986 356.462 606.076 363.703 627.311C395.381 522.246 378.31 568.375 386.382 517.876Z" fill="#F3F1F4"/>
<path d="M373.363 491.821C373.363 504.224 372.349 513.943 370.316 516.785C364.417 530.811 338.679 540.575 330.742 544.576C324.718 547.538 318.81 551.358 314.251 556.286C323.457 562.264 328.026 564.454 345.471 591.152C355.723 608.316 361.259 621.207 363.727 628.914C396.028 521.877 378.75 568.605 386.882 517.823C383.052 507.957 375.777 494.038 373.363 491.821ZM382.171 538.972C377.446 582.621 373.742 573.946 363.483 621.502C356.925 600.631 336.742 566.178 316.569 556.09C326.075 548.951 328.716 548.531 340.06 543.344C374.819 527.843 376.241 513.441 374.196 494.4C377.11 497.836 381.741 509.276 385.525 517.388C383.451 524.984 382.509 535.83 382.171 538.972ZM260.842 527.867C250.199 519.057 253.212 508.16 248.313 488.716C246.135 491.131 240.717 504.729 235.227 517.823C236.571 524.574 236.871 535.664 237.062 539.167C238.411 568.629 241.287 569.988 258.382 628.89C265.7 607.389 286.289 570.049 307.251 556.433C290.516 541.159 269.452 535.359 260.842 527.867ZM274.025 589.459C268.663 598.311 263.119 607.519 258.645 621.524C247.92 572.584 244.16 580.564 239.981 539.044C239.208 531.871 238.491 524.492 236.6 517.41C240.555 508.747 246.213 492.587 248.023 490.863C251.322 507.952 248.183 523.367 261.711 531.897C268.04 536.716 288.522 544.742 304.013 556.911C294.619 562.489 289.563 565.775 274.025 589.459Z" fill="#CFC8D7"/>
<path d="M360.127 619.445L357.208 613.037C357.208 613.037 379.296 545.008 383.147 525.571C385.349 545.742 360.127 619.445 360.127 619.445ZM260.07 616.781L263.537 608.913C263.537 608.913 242.838 545.008 238.987 525.571C236.785 545.742 260.07 616.781 260.07 616.781Z" fill="#E1E0E1"/>
<path d="M370.914 585.113C387.973 534.809 377.569 530.663 386.138 513.96C386.461 513.33 389.508 516.485 389.839 517.92C392.992 531.581 518.651 559.782 522.622 562.825C526.138 565.379 536.264 570.399 536.264 570.399C548.185 592.298 555.006 596.229 558.357 654.868C558.671 662.312 558.21 683.362 558.21 689.011L351.627 687.379C352.122 668.568 354.525 634.719 370.914 585.113ZM251.217 585.113C234.159 534.809 244.563 530.663 235.994 513.96C235.67 513.33 232.623 516.485 232.293 517.92C229.139 531.581 103.481 559.782 99.5092 562.825C95.9936 565.379 85.8672 570.399 85.8672 570.399C73.9468 592.298 67.1258 596.229 63.7745 654.868C63.4606 662.312 63.9218 683.362 63.9218 689.011L270.505 687.379C270.01 668.568 267.607 634.719 251.217 585.113Z" fill="#26436D"/>
<path d="M384.243 571.579C373.252 611.146 358.236 646.709 351.632 687.379C349.484 687.362 355.232 632.582 370.915 585.115C387.973 534.811 377.569 530.666 386.138 513.962C386.324 513.6 384.644 518.733 385.6 519.834C385.247 538.491 389.84 552.92 384.243 571.579ZM237.89 571.579C248.881 611.146 263.897 646.709 270.5 687.379C272.649 687.362 266.9 632.582 251.218 585.115C234.159 534.811 244.564 530.666 235.994 513.962C235.809 513.6 237.489 518.733 236.533 519.834C236.885 538.491 232.293 552.92 237.89 571.579Z" fill="#17345E"/>
<path d="M437.674 561.996C437.674 561.996 432.159 568.18 416.822 578.712C429.65 564.503 435.561 558.795 435.561 558.795L437.674 561.996ZM442.925 590.669L439.236 587.368C428.279 620.642 420.956 637.075 408.263 675.782C426.478 641.192 430.824 628.912 442.925 590.669ZM186.572 558.795C186.572 558.795 192.481 564.503 205.311 578.712C189.974 568.18 184.46 561.996 184.46 561.996L186.572 558.795ZM213.871 675.782C201.178 637.075 193.854 620.642 182.897 587.368L179.208 590.669C191.31 628.912 195.656 641.192 213.871 675.782Z" fill="#0C274E"/>
<path d="M502.799 642.409C502.799 614.41 510.309 598.1 526.015 574.46C527.483 575.358 528.263 575.771 529.262 576.573C512.561 597.296 509.244 616.632 502.799 642.409ZM410.814 669.857C425.574 629.528 430.275 613.773 440.046 586.827C437.27 585.98 419.11 579.62 416.338 578.748C417.328 581.163 423.855 583.147 435.225 590.118C435.225 590.12 422.937 627.311 410.814 669.857ZM430.664 558.486C430.664 558.486 422.57 568.482 414.573 578.594C422.754 572.147 428.452 564.966 435.558 558.795C425.914 550.663 410.179 538.213 400.014 529.606C408.04 538.23 430.664 558.486 430.664 558.486ZM557.522 689.007L558.212 689.011C558.212 683.362 558.671 662.312 558.36 654.868C555.006 596.229 548.185 592.298 536.267 570.399C536.267 570.399 526.14 565.379 522.625 562.824C519.404 560.359 428.957 538.868 395.887 524.482C434.546 550.972 507.636 560.765 529.265 576.573C539.724 584.219 553.808 649.657 557.522 689.007ZM92.8258 576.498C94.1345 575.573 94.3204 575.614 95.646 574.738C111.352 598.378 119.33 614.41 119.33 642.407C112.888 616.632 108.44 596.492 92.8258 576.498ZM186.907 590.121C198.277 583.15 204.803 581.165 205.793 578.751C203.021 579.62 184.862 585.982 182.085 586.83C191.859 613.775 196.558 629.53 211.318 669.86C199.194 627.311 186.907 590.121 186.907 590.121ZM222.115 529.606C211.95 538.211 196.215 550.663 186.571 558.795C193.677 564.969 199.378 572.147 207.556 578.594C199.557 568.482 191.466 558.486 191.466 558.486C191.466 558.486 214.092 538.23 222.115 529.606ZM92.8693 576.573C114.498 560.765 187.588 550.969 226.247 524.482C193.178 538.868 102.73 560.357 99.5092 562.824C95.9936 565.379 85.8672 570.399 85.8672 570.399C73.9468 592.298 67.1258 596.229 63.7745 654.868C63.4606 662.312 63.9218 683.362 63.9218 689.011L64.6123 689.007C68.3234 649.657 82.4072 584.219 92.8693 576.573Z" fill="#38547C"/>
<path d="M388.925 514.534C388.806 513.827 387.855 513.004 387.143 512.948C386.428 512.892 386.1 514.054 385.774 514.691C377.205 531.395 386.773 534.811 369.715 585.115C353.325 634.721 351.403 669.29 350.913 688.101L558.215 689.011C558.215 683.362 559.396 662.312 559.082 654.868C555.728 596.229 548.668 591.818 536.748 569.916C536.748 569.916 526.139 564.655 522.623 562.103C510.819 553.067 521.199 562.158 469.431 547.616C426.994 535.217 424.703 531.735 409.313 527.454C406.203 526.563 399.517 525.47 392.532 520.571C391.892 520.124 389.154 515.911 388.925 514.534ZM352.05 685.81C361.054 628.914 366.743 614.027 379.324 571.666C387.828 544.856 383.13 529.635 387.181 517.243C387.394 516.596 388.309 516.563 388.56 517.202C394.437 532.206 410.865 535.688 434.035 558.362C419.999 572.398 416.387 576.182 414.574 578.596C416.66 579.654 428.052 583.978 438.477 588.013C437.886 589.865 406.087 679.812 405.713 681.019C429.858 628.919 432.977 612.904 440.047 586.83C438.086 585.352 420.992 579.074 418.099 578.041C428.419 567.359 431.403 565.012 436.28 558.795C440.197 558.795 397.952 526.638 395.886 524.482C397.001 525.361 402.53 527.841 403.153 528.082C438.603 540.556 410.554 534.913 488.144 557.059C495.561 558.944 505.903 560.842 513.569 561.596C514.095 561.644 526.595 568.18 533.73 571.181C516.372 589.23 505.246 612.549 502.8 642.409C510.572 611.827 514.754 595.833 534.527 572.825C552.925 610.062 550.837 604.685 556.812 688.022C507.045 686.059 430.727 685.609 352.05 685.81ZM229.603 520.573C222.616 525.47 215.932 526.563 212.823 527.457C197.432 531.735 195.141 535.219 152.704 547.618C100.937 562.161 111.314 553.07 99.5121 562.105C95.9966 564.66 85.3873 569.918 85.3873 569.918C73.4668 591.818 66.4068 596.229 63.0531 654.87C62.7392 662.314 63.9199 683.364 63.9199 689.014L271.222 688.104C270.732 669.292 268.81 634.724 252.42 585.118C235.362 534.814 244.928 531.397 236.362 514.694C236.033 514.056 235.707 512.895 234.993 512.95C234.28 513.006 233.329 513.829 233.211 514.537C232.979 515.911 230.241 520.124 229.603 520.573ZM65.3203 688.022C71.2986 604.685 69.2077 610.062 87.6062 572.825C107.376 595.833 111.561 611.827 119.333 642.409C116.887 612.549 105.763 589.23 88.403 571.181C95.5379 568.18 108.038 561.644 108.564 561.596C116.23 560.842 126.572 558.944 133.989 557.059C211.579 534.913 183.532 540.556 218.98 528.082C219.602 527.838 225.132 525.361 226.247 524.482C224.18 526.638 181.934 558.795 185.852 558.795C190.732 565.012 193.714 567.359 204.034 578.041C201.141 579.074 184.046 585.349 182.086 586.83C189.156 612.904 192.275 628.919 216.42 681.019C216.046 679.812 184.247 589.865 183.655 588.013C194.081 583.976 205.473 579.651 207.559 578.596C205.746 576.182 202.133 572.398 188.098 558.362C211.268 535.688 227.696 532.206 233.573 517.202C233.824 516.56 234.739 516.596 234.951 517.243C239.003 529.635 234.302 544.856 242.808 571.666C255.39 614.027 261.079 628.914 270.083 685.81C191.406 685.609 115.088 686.059 65.3203 688.022Z" fill="#031C3F"/>
<path d="M186.721 313.785C183.399 307.862 173.108 293.31 162.625 296.876C155.987 299.134 154.674 306.517 153.606 313.037C152.187 321.707 154.744 338.857 156.96 345.053C159.087 351.009 165.491 362.51 169.67 366.892C174.813 372.264 181.199 389.405 182.211 391.184C183.805 393.99 185.92 398.213 192.164 397.684C199.052 397.095 203.232 393.217 206.303 392.563C213.889 390.955 195.368 329.202 186.721 313.785Z" fill="#F0C7B1" stroke="#C27B55" stroke-width="4.05"/>
<path d="M179.951 349.696C179.633 348.293 179.968 345.929 180.294 343.65C180.594 341.571 180.874 339.606 180.702 338.215C180.058 333.014 176.421 323.127 174.046 317.771C171.312 311.605 166.891 303.84 161.34 301.838C159.047 301.01 157.538 302 156.661 303.007C156.019 303.743 155.876 304.612 156.086 304.714C156.294 304.815 156.775 304.1 157.467 303.422C158.035 302.869 158.866 302.393 160.005 302.492C159.546 305.083 157.187 319.111 158.209 328.678C159.013 336.199 162.055 341.817 162.531 342.66C162.601 343.546 162.717 344.413 162.888 345.256C165.131 356.234 174.891 368.718 178.288 372.803C178.913 373.559 179.57 374.003 179.732 373.824C179.891 373.641 179.505 372.89 178.879 372.134C175.528 368.08 165.863 355.641 163.695 345.048C161.396 333.806 169.291 317.146 171.054 313.618C171.95 315.272 172.713 316.864 173.299 318.189C173.758 319.23 174.27 320.449 174.794 321.76C173.758 323.6 166.503 337.02 169.149 347.757C170.129 351.719 174.545 356.824 177.472 358.219C179.082 358.992 179.691 360.144 180.391 361.476C181.202 363.022 182.124 364.772 184.805 366.045C185.348 366.305 185.84 366.409 186.277 366.409C187.033 366.409 187.608 366.083 188.028 365.702C188.071 366.378 188.069 367.247 188.05 368.044C188.021 369.085 188.151 369.934 188.38 369.954C188.607 369.973 188.854 369.152 188.88 368.119C188.919 366.849 188.912 365.277 188.706 364.526C188.108 362.312 186.273 359.81 184.329 357.166C182.424 354.554 180.449 351.867 179.951 349.696ZM162.453 339.963C157.197 322.726 164.037 307.85 165.216 305.484C167.268 307.469 169.079 310.117 170.552 312.715C169.48 314.787 162.673 328.369 162.453 339.963ZM185.128 365.175C182.704 364.029 181.895 362.483 181.106 360.991C180.398 359.641 179.662 358.248 177.8 357.357C177.394 357.162 176.95 356.867 176.491 356.529C170.489 341.407 177.148 334.796 178.817 333.442C179.326 335.291 179.708 336.986 179.877 338.345C180.029 339.594 179.751 341.578 179.473 343.498C179.13 345.876 178.783 348.337 179.143 349.93C179.688 352.301 181.724 355.076 183.691 357.758C185.437 360.139 187.231 362.594 187.847 364.596C187.586 364.992 186.76 365.95 185.128 365.175Z" fill="#C27B55"/>
<path d="M434.776 313.785C438.101 307.862 448.392 293.31 458.873 296.876C465.513 299.134 466.824 306.517 467.894 313.037C469.313 321.707 466.756 338.857 464.54 345.053C462.413 351.009 456.009 362.51 451.825 366.892C446.685 372.264 440.296 389.405 439.287 391.184C437.698 393.99 435.58 398.213 429.336 397.684C422.445 397.095 418.268 393.217 415.195 392.563C407.608 390.955 426.132 329.202 434.776 313.785Z" fill="#F0C7B1" stroke="#C27B55" stroke-width="4.05"/>
<path d="M437.17 357.162C435.226 359.808 433.393 362.307 432.792 364.521C432.585 365.272 432.58 366.844 432.618 368.114C432.647 369.147 432.891 369.968 433.118 369.949C433.345 369.93 433.476 369.08 433.449 368.039C433.43 367.24 433.43 366.373 433.473 365.697C433.893 366.078 434.468 366.404 435.224 366.404C435.663 366.404 436.153 366.301 436.694 366.04C439.372 364.77 440.297 363.017 441.108 361.472C441.806 360.139 442.419 358.989 444.027 358.214C446.956 356.819 451.369 351.715 452.35 347.752C454.996 337.015 447.743 323.595 446.705 321.755C447.229 320.442 447.743 319.223 448.199 318.184C448.788 316.859 449.549 315.268 450.445 313.614C452.207 317.139 460.103 333.801 457.807 345.043C455.643 355.636 445.975 368.075 442.622 372.129C441.999 372.885 441.612 373.636 441.772 373.819C441.931 373.998 442.588 373.556 443.216 372.798C446.61 368.713 456.372 356.23 458.618 345.251C458.787 344.406 458.9 343.541 458.97 342.655C459.446 341.813 462.493 336.194 463.295 328.673C464.314 319.109 461.955 305.078 461.498 302.488C462.64 302.386 463.464 302.864 464.036 303.417C464.729 304.096 465.209 304.81 465.417 304.709C465.625 304.608 465.482 303.738 464.842 303.002C463.966 301.995 462.457 301.005 460.163 301.833C454.612 303.837 450.189 311.6 447.458 317.767C445.082 323.122 441.446 333.009 440.799 338.21C440.625 339.601 440.907 341.566 441.209 343.645C441.535 345.927 441.868 348.291 441.55 349.691C441.055 351.867 439.08 354.554 437.17 357.162ZM450.949 312.713C452.425 310.117 454.235 307.466 456.288 305.482C457.466 307.848 464.304 322.724 459.052 339.961C458.828 328.369 452.024 314.787 450.949 312.713ZM433.652 364.596C434.265 362.594 436.061 360.139 437.807 357.758C439.777 355.076 441.81 352.301 442.359 349.93C442.716 348.337 442.368 345.876 442.028 343.498C441.75 341.578 441.472 339.594 441.627 338.345C441.791 336.986 442.175 335.289 442.684 333.442C444.353 334.796 451.012 341.407 445.014 356.529C444.553 356.867 444.109 357.164 443.703 357.357C441.842 358.248 441.11 359.641 440.398 360.991C439.611 362.483 438.799 364.029 436.375 365.175C434.741 365.95 433.915 364.992 433.652 364.596Z" fill="#C27B55"/>
<path d="M311.071 114.936C231.524 115.064 166.921 181.736 167.044 263.879C167.065 276.924 168.71 289.572 171.781 301.624H171.784C171.812 301.754 196.13 377.514 202.421 407.984C208.053 435.261 233.085 457.385 244.351 469.442C257.294 483.305 273.472 503.814 311.071 503.633C348.668 503.814 364.848 483.305 377.791 469.442C389.057 457.385 414.089 435.261 419.721 407.984C426.012 377.514 450.332 301.757 450.356 301.624H450.361C453.432 289.572 455.079 276.924 455.098 263.879C455.223 181.736 390.618 115.064 311.071 114.936Z" fill="#F0C7B1"/>
<path d="M390.264 139.552C424.82 166.584 447.363 210.741 447.289 260.639C447.271 273.684 445.718 286.334 442.813 298.384H442.808C442.782 298.514 419.785 374.269 413.831 404.737C408.505 432.018 384.831 454.138 374.173 466.2C361.933 480.062 346.631 500.571 311.073 500.39C275.514 500.571 260.212 480.062 247.971 466.2C237.319 454.138 213.642 432.018 208.316 404.737C202.362 374.269 179.365 298.514 179.337 298.384H179.334C176.429 286.332 174.874 273.684 174.855 260.639C174.784 210.741 197.327 166.584 231.883 139.554C192.789 166.21 166.971 211.939 167.049 263.879C167.07 276.924 168.715 289.572 171.786 301.624H171.789C171.817 301.754 196.135 377.514 202.426 407.984C208.058 435.261 233.09 457.385 244.356 469.442C257.299 483.305 273.477 503.814 311.076 503.633C348.673 503.814 364.853 483.305 377.796 469.442C389.062 457.385 414.094 435.261 419.725 407.984C426.017 377.514 450.337 301.757 450.361 301.624H450.366C453.437 289.572 455.084 276.924 455.103 263.879C455.176 211.939 429.358 166.208 390.264 139.552Z" fill="#E8B9A0"/>
<path d="M311.071 114.936C231.524 115.064 166.921 181.736 167.044 263.879C167.065 276.924 168.71 289.572 171.781 301.624H171.784C171.812 301.754 196.13 377.514 202.421 407.984C208.053 435.261 233.085 457.385 244.351 469.442C257.294 483.305 273.472 503.814 311.071 503.633C348.668 503.814 364.848 483.305 377.791 469.442C389.057 457.385 414.089 435.261 419.721 407.984C426.012 377.514 450.332 301.757 450.356 301.624H450.361C453.432 289.572 455.079 276.924 455.098 263.879C455.223 181.736 390.618 115.064 311.071 114.936Z" stroke="#C27B55" stroke-width="4.00909"/>
<path d="M310.649 459.402C302.044 459.402 298.025 451.96 298.025 451.96C298.025 451.96 310.766 454.034 322.67 451.79C322.673 451.79 318.219 459.402 310.649 459.402Z" fill="url(#paint4_linear)"/>
<path d="M298.394 452.18C298.043 452.076 297.783 451.784 297.842 451.423C297.897 451.059 298.243 450.828 298.601 450.868C308.195 453.144 314.439 452.624 321.883 450.754C322.268 450.661 322.6 450.918 322.672 451.272C322.744 451.625 322.505 451.952 322.16 452.058C314.03 454.459 306.179 454.549 298.394 452.18ZM272.461 437.862C273.293 437.479 274.007 437.633 275.311 437.556C279.08 436.895 283.619 436.698 287.369 435.934C290.949 435.206 294.737 434.175 298.413 434.348C302.365 434.536 306.059 436.125 309.974 436.55C313.695 436.951 317.166 435.942 320.739 435.07C324.834 434.072 328.733 434.308 332.85 435.086C337.997 436.05 342.873 437.362 347.96 437.843C349.505 437.989 348.929 438.94 348.045 439.049C343.495 439.593 338.932 438.868 334.249 438.388C330.465 438 326.632 437.514 322.898 438.443C318.866 439.45 313.769 440.627 310.667 440.589C307.214 440.544 303.972 439.161 300.617 438.446C296.498 437.578 292.408 438.393 288.275 438.826C283.128 439.36 278.522 439.729 273.457 438.951C272.103 438.744 272.087 438.034 272.461 437.862Z" fill="#C27B55"/>
<path d="M259.715 306.909C270.79 308.548 278.864 315.33 285.726 326.08C285.736 326.092 285.758 326.089 285.77 326.099C285.787 326.164 285.821 326.227 285.833 326.292C286.448 328.724 283.862 330.684 280.629 332.179C269.11 333.649 258.032 335.774 246.358 334.279C222.983 331.283 222.563 320.978 221.426 318.274C220.817 315.615 220.641 314.852 220.675 312.303C226.305 309.004 230.437 308.326 234.809 307.461C239.938 306.452 251.351 305.665 259.715 306.909Z" fill="url(#paint5_radial)"/>
<path d="M268.209 320.471C268.209 328.47 261.722 334.958 253.722 334.958C245.723 334.958 239.235 328.47 239.235 320.471C239.235 312.469 245.723 305.984 253.722 305.984C261.722 305.981 268.209 312.469 268.209 320.471Z" fill="#4E60A3"/>
<path opacity="0.7" d="M252.099 306.143C252.044 306.15 251.986 306.158 251.928 306.165C251.998 306.491 252.066 306.819 252.133 307.145C252.119 306.814 252.111 306.476 252.099 306.143ZM252.131 307.143C252.3 311.904 252.577 316.146 253.379 317.68C253.802 315.999 253.082 311.812 252.131 307.143ZM253.381 317.682C253.278 318.085 253.121 318.361 252.879 318.452C252.638 318.544 252.334 318.438 251.991 318.204C252.09 318.607 252.08 318.921 251.904 319.116C251.73 319.312 251.418 319.36 251.003 319.305C251.276 319.618 251.416 319.906 251.356 320.157C251.29 320.408 251.032 320.596 250.648 320.741C251.032 320.893 251.29 321.082 251.351 321.333C251.411 321.584 251.271 321.871 251.001 322.183C251.411 322.132 251.727 322.185 251.897 322.381C252.068 322.576 252.078 322.893 251.981 323.296C252.321 323.062 252.621 322.96 252.862 323.054C253.106 323.146 253.263 323.421 253.36 323.827C253.555 323.46 253.773 323.226 254.036 323.199C254.287 323.165 254.557 323.342 254.83 323.653C254.833 323.238 254.919 322.931 255.137 322.784C255.349 322.637 255.666 322.666 256.052 322.815C255.864 322.448 255.798 322.137 255.919 321.905C256.04 321.676 256.337 321.553 256.75 321.504C256.409 321.265 256.202 321.021 256.206 320.761C256.206 320.5 256.409 320.256 256.754 320.022C256.344 319.971 256.052 319.848 255.929 319.619C255.81 319.389 255.876 319.075 256.069 318.708C255.678 318.853 255.364 318.882 255.151 318.735C254.936 318.588 254.849 318.281 254.849 317.866C254.579 318.175 254.309 318.346 254.053 318.312C253.792 318.278 253.572 318.051 253.381 317.682ZM254.847 317.863C256.004 316.571 257.312 312.53 258.638 307.954C256.576 312.245 254.849 316.13 254.847 317.863ZM258.635 307.954C258.78 307.659 258.928 307.36 259.065 307.061C259.014 307.044 258.964 307.02 258.913 306.998C258.821 307.319 258.73 307.64 258.635 307.954ZM256.069 318.708C257.691 318.1 260.731 315.128 264.029 311.694C260.212 314.534 256.875 317.173 256.069 318.708ZM264.029 311.694C264.271 311.513 264.52 311.332 264.766 311.151C264.732 311.107 264.693 311.071 264.664 311.033C264.454 311.25 264.244 311.474 264.029 311.694ZM256.75 320.022C258.471 320.234 262.544 319.015 267.064 317.508C262.361 318.252 258.184 319.037 256.75 320.022ZM267.064 317.511C267.33 317.472 267.608 317.429 267.878 317.385C267.868 317.339 267.856 317.293 267.844 317.247C267.586 317.334 267.32 317.424 267.064 317.511ZM256.747 321.502C258.172 322.497 262.344 323.305 267.038 324.068C262.535 322.54 258.471 321.297 256.747 321.502ZM267.04 324.068C267.27 324.148 267.501 324.23 267.728 324.305C267.74 324.264 267.75 324.225 267.757 324.184C267.523 324.148 267.279 324.109 267.04 324.068ZM256.052 322.813C256.856 324.351 260.176 327.009 263.976 329.873C260.695 326.42 257.677 323.431 256.052 322.813ZM263.979 329.868C264.121 330.018 264.268 330.172 264.411 330.324C264.435 330.295 264.457 330.274 264.483 330.247C264.314 330.122 264.14 329.994 263.979 329.868ZM254.833 323.651C254.825 325.387 256.53 329.279 258.568 333.582C257.266 329.001 255.984 324.95 254.833 323.651ZM258.568 333.584C258.618 333.765 258.672 333.951 258.72 334.137C258.756 334.122 258.78 334.113 258.814 334.103C258.734 333.929 258.65 333.751 258.568 333.584ZM253.362 323.825C252.551 325.363 252.249 329.595 252.053 334.354C253.029 329.694 253.775 325.51 253.362 323.825ZM252.053 334.354C252.012 334.535 251.979 334.719 251.94 334.905C251.974 334.912 252 334.912 252.034 334.917C252.039 334.731 252.049 334.538 252.053 334.354ZM251.983 323.293C250.544 324.276 248.311 327.891 245.928 332.01C248.956 328.34 251.563 324.979 251.983 323.293ZM245.928 332.01C245.8 332.162 245.667 332.324 245.537 332.476C245.568 332.495 245.595 332.51 245.628 332.534C245.725 332.36 245.829 332.184 245.928 332.01ZM251.006 322.185C249.277 322.386 245.619 324.547 241.594 327.084C245.983 325.244 249.847 323.484 251.006 322.185ZM241.591 327.089C241.384 327.176 241.171 327.263 240.956 327.355C240.971 327.386 240.993 327.42 241.012 327.451C241.207 327.333 241.401 327.21 241.591 327.089ZM250.651 320.744C249.03 320.123 244.786 320.338 240.039 320.717C244.781 321.123 249.026 321.357 250.651 320.744ZM240.039 320.717C239.781 320.693 239.515 320.669 239.259 320.647C239.259 320.693 239.254 320.739 239.259 320.782C239.522 320.758 239.785 320.736 240.039 320.717ZM251.006 319.309C249.863 318.008 246.01 316.226 241.635 314.357C245.641 316.917 249.286 319.099 251.006 319.309ZM241.635 314.357C241.384 314.196 241.13 314.034 240.874 313.872C240.853 313.918 240.828 313.964 240.804 314.005C241.084 314.123 241.364 314.239 241.635 314.357ZM251.993 318.204C251.585 316.518 248.997 313.148 245.993 309.456C248.35 313.589 250.564 317.214 251.993 318.204ZM245.993 309.456C245.831 309.178 245.674 308.896 245.513 308.613C245.467 308.645 245.418 308.676 245.377 308.707C245.58 308.956 245.793 309.207 245.993 309.456Z" fill="url(#paint6_radial)"/>
<path opacity="0.4" d="M255.862 306.191C255.804 306.184 255.748 306.175 255.693 306.167C255.676 306.5 255.654 306.836 255.635 307.167C255.707 306.843 255.787 306.515 255.862 306.191ZM255.633 307.164C254.565 311.805 253.732 315.975 254.114 317.668C254.956 316.151 255.343 311.921 255.633 307.164ZM254.111 317.668C253.909 318.03 253.686 318.254 253.428 318.281C253.172 318.305 252.907 318.126 252.639 317.81C252.629 318.223 252.537 318.527 252.317 318.67C252.1 318.812 251.784 318.778 251.4 318.619C251.583 318.993 251.644 319.307 251.518 319.532C251.39 319.759 251.093 319.874 250.685 319.913C251.016 320.157 251.216 320.406 251.209 320.666C251.204 320.925 250.994 321.166 250.651 321.396C251.059 321.454 251.352 321.586 251.465 321.816C251.581 322.047 251.509 322.359 251.311 322.721C251.699 322.584 252.016 322.564 252.226 322.716C252.436 322.868 252.515 323.175 252.506 323.593C252.788 323.291 253.059 323.12 253.319 323.161C253.573 323.194 253.788 323.433 253.971 323.808C254.08 323.404 254.244 323.134 254.493 323.047C254.737 322.96 255.036 323.071 255.369 323.315C255.282 322.912 255.299 322.593 255.476 322.402C255.652 322.212 255.971 322.171 256.383 322.229C256.115 321.91 255.978 321.623 256.05 321.371C256.118 321.12 256.379 320.937 256.772 320.799C256.386 320.645 256.137 320.449 256.077 320.196C256.021 319.942 256.166 319.657 256.449 319.353C256.033 319.392 255.722 319.338 255.555 319.14C255.386 318.942 255.381 318.624 255.488 318.225C255.145 318.452 254.841 318.549 254.602 318.45C254.353 318.351 254.203 318.073 254.111 317.668ZM255.483 318.225C256.934 317.274 259.242 313.708 261.707 309.635C258.605 313.244 255.934 316.547 255.483 318.225ZM261.707 309.632C261.922 309.386 262.142 309.135 262.354 308.881C262.309 308.85 262.268 308.814 262.222 308.78C262.05 309.067 261.879 309.354 261.707 309.632ZM256.444 319.355C258.17 319.186 261.876 317.1 265.95 314.64C261.524 316.395 257.62 318.08 256.444 319.355ZM265.947 314.637C266.23 314.526 266.515 314.415 266.802 314.304C266.778 314.253 266.751 314.208 266.734 314.162C266.474 314.321 266.213 314.483 265.947 314.637ZM256.762 320.802C258.371 321.454 262.62 321.328 267.374 321.045C262.639 320.543 258.402 320.22 256.762 320.802ZM267.374 321.043C267.645 321.074 267.92 321.103 268.193 321.132C268.193 321.084 268.195 321.038 268.198 320.992C267.922 321.009 267.645 321.026 267.374 321.043ZM256.379 322.231C257.494 323.561 261.319 325.421 265.655 327.371C261.698 324.728 258.095 322.477 256.379 322.231ZM265.653 327.371C265.853 327.509 266.056 327.647 266.256 327.777C266.278 327.741 266.297 327.705 266.317 327.668C266.099 327.574 265.872 327.473 265.653 327.371ZM255.364 323.318C255.741 325.01 258.262 328.436 261.193 332.188C258.916 328.002 256.775 324.332 255.364 323.318ZM261.193 332.181C261.295 332.362 261.394 332.551 261.495 332.734C261.524 332.712 261.553 332.695 261.584 332.676C261.454 332.512 261.321 332.343 261.193 332.181ZM253.971 323.81C253.517 325.483 254.155 329.685 255.01 334.369C254.935 329.607 254.746 325.363 253.971 323.81ZM255.007 334.369C255.01 334.557 255.014 334.75 255.014 334.943C255.048 334.939 255.08 334.934 255.113 334.934C255.08 334.748 255.043 334.555 255.007 334.369ZM252.506 323.595C251.323 324.87 249.937 328.881 248.517 333.427C250.663 329.18 252.47 325.331 252.506 323.595ZM248.515 333.427C248.43 333.591 248.346 333.76 248.263 333.929C248.292 333.944 248.319 333.951 248.35 333.965C248.403 333.789 248.461 333.603 248.515 333.427ZM251.308 322.726C249.666 323.303 246.571 326.217 243.203 329.578C247.083 326.816 250.468 324.245 251.308 322.726ZM243.205 329.578C243.043 329.692 242.874 329.815 242.71 329.928C242.734 329.955 242.758 329.977 242.78 330.006C242.918 329.863 243.063 329.723 243.205 329.578ZM250.651 321.4C248.93 321.149 244.84 322.289 240.291 323.699C245.011 323.057 249.195 322.357 250.651 321.4ZM240.291 323.704C240.069 323.735 239.839 323.762 239.607 323.798C239.615 323.834 239.627 323.87 239.639 323.904C239.859 323.841 240.076 323.769 240.291 323.704ZM250.683 319.92C249.278 318.899 245.122 318.008 240.44 317.146C244.917 318.766 248.954 320.092 250.683 319.92ZM240.44 317.146C240.197 317.057 239.945 316.965 239.704 316.876C239.692 316.922 239.677 316.965 239.668 317.006C239.931 317.052 240.189 317.1 240.44 317.146ZM251.4 318.624C250.632 317.071 247.372 314.352 243.628 311.414C246.834 314.927 249.792 317.979 251.4 318.624ZM243.625 311.416C243.425 311.197 243.222 310.975 243.019 310.752C242.985 310.791 242.949 310.827 242.918 310.864C243.157 311.047 243.396 311.231 243.625 311.416ZM252.639 317.812C252.68 316.079 251.055 312.153 249.104 307.812C250.311 312.414 251.513 316.487 252.639 317.812ZM249.104 307.812C249.022 307.503 248.942 307.186 248.86 306.872C248.809 306.889 248.756 306.909 248.708 306.928C248.838 307.222 248.973 307.519 249.104 307.812Z" fill="url(#paint7_radial)"/>
<path d="M259.406 320.471C259.406 323.61 256.864 326.152 253.725 326.152C250.588 326.152 248.041 323.61 248.041 320.471C248.041 317.334 250.588 314.787 253.725 314.787C256.864 314.787 259.406 317.332 259.406 320.471Z" fill="#4E60A3"/>
<path opacity="0.9" d="M259.406 320.471C259.406 323.61 256.864 326.152 253.725 326.152C250.588 326.152 248.041 323.61 248.041 320.471C248.041 317.334 250.588 314.787 253.725 314.787C256.864 314.787 259.406 317.332 259.406 320.471Z" fill="black"/>
<path opacity="0.5" d="M245.795 327.106C246.879 326.377 248.352 326.671 249.078 327.753C249.805 328.837 249.518 330.31 248.431 331.037C247.345 331.768 245.874 331.479 245.148 330.392C244.421 329.308 244.711 327.833 245.795 327.106Z" fill="url(#paint8_linear)"/>
<path opacity="0.5" d="M258.213 319.679C257.606 320.582 255.873 320.478 254.335 319.447C252.794 318.416 252.041 316.844 252.645 315.944V315.941C253.248 315.038 254.984 315.142 256.52 316.175C258.063 317.204 258.816 318.773 258.213 319.679Z" fill="url(#paint9_linear)"/>
<path opacity="0.75" d="M265.11 317.267C263.738 319.375 260.194 319.5 257.202 317.549C254.208 315.598 252.895 312.31 254.269 310.202C255.64 308.096 259.184 307.971 262.176 309.919C265.168 311.873 266.481 315.164 265.11 317.267Z" fill="url(#paint10_linear)"/>
<path d="M207.513 319.464C215.297 346.784 225.561 375.753 250.213 376.613C274.865 377.473 303.658 359.134 304.033 322.919C304.45 282.435 278.743 266.466 254.091 265.606C229.439 264.746 195.911 278.734 207.513 319.464ZM221.428 318.274C220.819 315.615 220.643 314.852 220.677 312.303C225.571 309.381 230.431 308.567 234.804 307.703C239.93 306.694 251.351 305.663 259.714 306.909C270.79 308.548 278.864 315.33 285.726 326.08C285.736 326.092 285.757 326.089 285.769 326.099C285.786 326.164 285.82 326.227 285.832 326.292C286.448 328.724 283.862 330.684 280.629 332.179C269.109 333.649 258.032 335.774 246.357 334.279C222.983 331.283 222.562 320.978 221.428 318.274Z" fill="#F0C7B1"/>
<path d="M253.661 347.443C276.01 350.826 296.753 340.176 299.986 323.639C303.221 307.102 287.74 290.953 265.389 287.566C243.035 284.188 222.302 294.838 219.066 311.378C215.831 327.912 231.308 344.051 253.661 347.443ZM220.674 312.303C225.805 309.548 230.429 308.567 234.802 307.703C239.928 306.694 251.348 305.663 259.712 306.909C270.787 308.548 278.861 315.33 285.723 326.08C285.733 326.092 285.755 326.089 285.767 326.099C285.784 326.164 285.818 326.227 285.83 326.292C286.445 328.724 283.859 330.684 280.626 332.179C269.107 333.649 258.029 335.774 246.355 334.279C222.98 331.283 222.56 320.978 221.423 318.274C220.817 315.615 220.643 314.85 220.674 312.303Z" fill="url(#paint11_radial)"/>
<path d="M221.428 318.274C220.819 315.615 220.643 314.852 220.677 312.303C225.728 309.466 230.431 308.567 234.804 307.703C239.93 306.694 251.351 305.663 259.715 306.909C270.79 308.548 278.864 315.33 285.726 326.08C285.736 326.092 285.757 326.089 285.77 326.099C285.786 326.164 285.82 326.227 285.832 326.292C286.448 328.724 283.862 330.684 280.629 332.179C269.109 333.649 258.032 335.774 246.358 334.279C222.983 331.283 222.563 320.978 221.428 318.274Z" fill="url(#paint12_radial)"/>
<path d="M258.737 300.546C266.69 301.848 274.443 305.506 281.626 310.072C283.164 311.047 284.925 312.16 287.713 313.575C285.714 313.121 283.865 312.085 282.138 311.134C283.915 312.819 285.572 314.826 286.924 316.769C280.837 309.142 269.305 303.398 259.495 301.44C250.074 299.559 232.962 300.802 220.257 306.37C231.89 299.824 248.862 298.933 258.737 300.546Z" fill="#C27B55"/>
<path d="M285.734 325.969C278.86 315.49 270.781 308.869 259.703 307.263C248.034 305.561 232.489 306.73 223.404 311.713C222.66 312.121 219.524 314.729 220.021 311.996C222.131 309.178 230.456 305.904 234.491 304.926C279.751 293.957 288.327 329.776 285.734 325.969ZM220.876 317.672C219.147 322.654 222.955 333.739 245.371 335.788C261.295 337.242 283.44 331.563 280.705 331.894C269.166 333.316 258.069 335.392 246.373 333.92C219.857 330.588 222.86 318.112 220.876 317.672Z" fill="black"/>
<path d="M361.449 306.909C350.376 308.548 342.3 315.33 335.438 326.08C335.428 326.092 335.409 326.089 335.394 326.099C335.38 326.164 335.346 326.227 335.334 326.292C334.716 328.724 337.302 330.684 340.535 332.179C352.055 333.649 363.132 335.774 374.806 334.279C398.181 331.283 398.601 320.978 399.736 318.274C400.347 315.615 400.521 314.852 400.489 312.303C394.861 309.004 390.728 308.326 386.355 307.461C381.229 306.452 369.816 305.665 361.449 306.909Z" fill="url(#paint13_radial)"/>
<path d="M382.898 320.471C382.898 328.47 376.41 334.958 368.413 334.958C360.414 334.958 353.924 328.47 353.924 320.471C353.924 312.469 360.414 305.984 368.413 305.984C376.41 305.981 382.898 312.469 382.898 320.471Z" fill="#4E60A3"/>
<path opacity="0.7" d="M366.789 306.143C366.733 306.15 366.675 306.158 366.617 306.165C366.687 306.491 366.757 306.819 366.823 307.145C366.808 306.814 366.801 306.476 366.789 306.143ZM366.82 307.143C366.987 311.904 367.267 316.146 368.071 317.68C368.491 315.999 367.771 311.812 366.82 307.143ZM368.068 317.682C367.967 318.085 367.808 318.361 367.569 318.452C367.325 318.544 367.023 318.438 366.682 318.204C366.779 318.607 366.769 318.921 366.596 319.116C366.422 319.312 366.11 319.36 365.697 319.305C365.968 319.618 366.11 319.906 366.05 320.157C365.982 320.408 365.726 320.596 365.342 320.741C365.724 320.893 365.982 321.082 366.043 321.333C366.103 321.584 365.965 321.871 365.693 322.183C366.103 322.132 366.417 322.185 366.586 322.381C366.757 322.576 366.767 322.893 366.67 323.296C367.011 323.062 367.313 322.96 367.552 323.054C367.798 323.146 367.952 323.421 368.049 323.827C368.242 323.46 368.464 323.226 368.723 323.199C368.976 323.165 369.247 323.342 369.517 323.653C369.522 323.238 369.606 322.931 369.826 322.784C370.036 322.637 370.355 322.666 370.741 322.815C370.553 322.448 370.49 322.137 370.606 321.905C370.729 321.676 371.026 321.553 371.439 321.504C371.099 321.265 370.889 321.021 370.896 320.761C370.893 320.5 371.099 320.256 371.444 320.022C371.031 319.971 370.741 319.848 370.618 319.619C370.497 319.389 370.565 319.075 370.756 318.708C370.367 318.853 370.053 318.882 369.838 318.735C369.623 318.588 369.539 318.281 369.536 317.866C369.268 318.175 368.996 318.346 368.74 318.312C368.481 318.278 368.262 318.051 368.068 317.682ZM369.536 317.863C370.693 316.571 372.002 312.53 373.325 307.954C371.265 312.245 369.541 316.13 369.536 317.863ZM373.325 307.954C373.47 307.659 373.617 307.36 373.757 307.061C373.706 307.044 373.656 307.02 373.605 306.998C373.511 307.319 373.419 307.64 373.325 307.954ZM370.758 318.708C372.383 318.1 375.423 315.128 378.721 311.694C374.901 314.534 371.567 317.173 370.758 318.708ZM378.721 311.694C378.963 311.513 379.209 311.332 379.458 311.151C379.421 311.107 379.385 311.071 379.356 311.033C379.144 311.25 378.934 311.474 378.721 311.694ZM371.441 320.022C373.163 320.234 377.234 319.015 381.754 317.508C377.05 318.252 372.873 319.037 371.441 320.022ZM381.754 317.511C382.019 317.472 382.297 317.429 382.568 317.385C382.555 317.339 382.546 317.293 382.534 317.247C382.275 317.334 382.01 317.424 381.754 317.511ZM371.437 321.502C372.864 322.497 377.033 323.305 381.73 324.068C377.224 322.54 373.161 321.297 371.437 321.502ZM381.73 324.068C381.959 324.148 382.188 324.23 382.418 324.305C382.43 324.264 382.44 324.225 382.449 324.184C382.213 324.148 381.966 324.109 381.73 324.068ZM370.741 322.813C371.543 324.351 374.865 327.009 378.666 329.873C375.387 326.42 372.366 323.431 370.741 322.813ZM378.668 329.868C378.811 330.018 378.955 330.172 379.098 330.324C379.122 330.295 379.146 330.274 379.173 330.247C379.004 330.122 378.83 329.994 378.668 329.868ZM369.524 323.651C369.517 325.387 371.219 329.279 373.26 333.582C371.956 329.001 370.674 324.95 369.524 323.651ZM373.26 333.584C373.31 333.765 373.363 333.951 373.412 334.137C373.448 334.122 373.474 334.113 373.506 334.103C373.424 333.929 373.339 333.751 373.26 333.584ZM368.051 323.825C367.24 325.363 366.938 329.595 366.743 334.354C367.718 329.694 368.464 325.51 368.051 323.825ZM366.743 334.354C366.702 334.535 366.668 334.719 366.629 334.905C366.663 334.912 366.687 334.912 366.724 334.917C366.728 334.731 366.738 334.538 366.743 334.354ZM366.67 323.293C365.231 324.276 362.998 327.891 360.615 332.01C363.645 328.34 366.25 324.979 366.67 323.293ZM360.615 332.01C360.489 332.162 360.356 332.324 360.226 332.476C360.257 332.495 360.284 332.51 360.315 332.534C360.414 332.36 360.518 332.184 360.615 332.01ZM365.693 322.185C363.964 322.386 360.308 324.547 356.283 327.084C360.673 325.244 364.536 323.484 365.693 322.185ZM356.283 327.089C356.073 327.176 355.861 327.263 355.648 327.355C355.663 327.386 355.682 327.42 355.704 327.451C355.897 327.333 356.09 327.21 356.283 327.089ZM365.342 320.744C363.72 320.123 359.475 320.338 354.728 320.717C359.473 321.123 363.715 321.357 365.342 320.744ZM354.728 320.717C354.472 320.693 354.204 320.669 353.951 320.647C353.948 320.693 353.944 320.739 353.948 320.782C354.212 320.758 354.475 320.736 354.728 320.717ZM365.697 319.309C364.553 318.008 360.702 316.226 356.324 314.357C360.33 316.917 363.976 319.099 365.697 319.309ZM356.324 314.357C356.073 314.196 355.817 314.034 355.564 313.872C355.542 313.918 355.518 313.964 355.496 314.005C355.774 314.123 356.056 314.239 356.324 314.357ZM366.682 318.204C366.274 316.518 363.686 313.148 360.682 309.456C363.039 313.589 365.253 317.214 366.682 318.204ZM360.682 309.456C360.521 309.178 360.361 308.896 360.204 308.613C360.158 308.645 360.11 308.676 360.067 308.707C360.272 308.956 360.482 309.207 360.682 309.456Z" fill="url(#paint14_radial)"/>
<path opacity="0.4" d="M370.551 306.191C370.493 306.184 370.437 306.175 370.382 306.167C370.363 306.5 370.343 306.836 370.324 307.167C370.394 306.843 370.474 306.515 370.551 306.191ZM370.321 307.164C369.252 311.805 368.421 315.975 368.8 317.668C369.645 316.151 370.032 311.921 370.321 307.164ZM368.8 317.668C368.598 318.03 368.373 318.254 368.117 318.281C367.861 318.305 367.596 318.126 367.328 317.81C367.318 318.223 367.226 318.527 367.006 318.67C366.789 318.812 366.473 318.778 366.089 318.619C366.27 318.993 366.333 319.307 366.207 319.532C366.077 319.759 365.782 319.874 365.372 319.913C365.705 320.157 365.903 320.406 365.896 320.666C365.891 320.925 365.681 321.166 365.34 321.396C365.751 321.454 366.038 321.586 366.154 321.816C366.27 322.047 366.198 322.359 366 322.721C366.391 322.584 366.707 322.564 366.917 322.716C367.127 322.868 367.207 323.175 367.195 323.593C367.477 323.291 367.748 323.12 368.008 323.161C368.262 323.194 368.477 323.433 368.66 323.808C368.771 323.404 368.933 323.134 369.182 323.047C369.426 322.96 369.728 323.071 370.058 323.315C369.974 322.912 369.991 322.593 370.167 322.402C370.341 322.212 370.66 322.171 371.072 322.229C370.807 321.91 370.667 321.623 370.739 321.371C370.804 321.12 371.068 320.937 371.461 320.799C371.077 320.645 370.826 320.449 370.766 320.196C370.713 319.942 370.858 319.657 371.138 319.353C370.722 319.392 370.408 319.338 370.244 319.14C370.075 318.942 370.07 318.624 370.179 318.225C369.834 318.452 369.53 318.549 369.29 318.45C369.044 318.351 368.89 318.073 368.8 317.668ZM370.172 318.225C371.623 317.274 373.931 313.708 376.396 309.635C373.294 313.244 370.623 316.547 370.172 318.225ZM376.396 309.632C376.611 309.386 376.831 309.135 377.046 308.881C376.998 308.85 376.957 308.814 376.911 308.78C376.739 309.067 376.568 309.354 376.396 309.632ZM371.133 319.355C372.859 319.186 376.563 317.1 380.639 314.64C376.213 316.395 372.309 318.08 371.133 319.355ZM380.636 314.637C380.916 314.526 381.201 314.415 381.491 314.304C381.467 314.253 381.44 314.208 381.423 314.162C381.163 314.321 380.902 314.483 380.636 314.637ZM371.451 320.802C373.06 321.454 377.309 321.328 382.066 321.045C377.326 320.543 373.091 320.22 371.451 320.802ZM382.063 321.043C382.331 321.074 382.609 321.103 382.882 321.132C382.884 321.084 382.884 321.038 382.887 320.992C382.614 321.009 382.334 321.026 382.063 321.043ZM371.068 322.231C372.185 323.561 376.008 325.421 380.344 327.371C376.387 324.728 372.784 322.477 371.068 322.231ZM380.342 327.371C380.54 327.509 380.745 327.647 380.945 327.777C380.967 327.741 380.989 327.705 381.003 327.668C380.788 327.574 380.561 327.473 380.342 327.371ZM370.056 323.318C370.43 325.01 372.951 328.436 375.882 332.188C373.605 328.002 371.466 324.332 370.056 323.318ZM375.885 332.181C375.984 332.362 376.082 332.551 376.184 332.734C376.213 332.712 376.239 332.695 376.273 332.676C376.143 332.512 376.008 332.343 375.885 332.181ZM368.66 323.81C368.206 325.483 368.844 329.685 369.699 334.369C369.624 329.607 369.435 325.363 368.66 323.81ZM369.696 334.369C369.699 334.557 369.703 334.75 369.703 334.943C369.74 334.939 369.766 334.934 369.8 334.934C369.769 334.748 369.732 334.555 369.696 334.369ZM367.192 323.595C366.012 324.87 364.623 328.881 363.204 333.427C365.352 329.18 367.156 325.331 367.192 323.595ZM363.204 333.427C363.119 333.591 363.037 333.76 362.952 333.929C362.981 333.944 363.006 333.951 363.037 333.965C363.092 333.789 363.15 333.603 363.204 333.427ZM365.997 322.726C364.355 323.303 361.262 326.217 357.894 329.578C361.772 326.816 365.157 324.245 365.997 322.726ZM357.894 329.578C357.732 329.692 357.561 329.815 357.399 329.928C357.423 329.955 357.447 329.977 357.469 330.006C357.607 329.863 357.754 329.723 357.894 329.578ZM365.34 321.4C363.619 321.149 359.531 322.289 354.982 323.699C359.7 323.057 363.887 322.357 365.34 321.4ZM354.982 323.704C354.758 323.735 354.528 323.762 354.299 323.798C354.308 323.834 354.318 323.87 354.33 323.904C354.548 323.841 354.765 323.769 354.982 323.704ZM365.372 319.92C363.967 318.899 359.811 318.008 355.129 317.146C359.606 318.766 363.643 320.092 365.372 319.92ZM355.129 317.146C354.886 317.057 354.634 316.965 354.393 316.876C354.379 316.922 354.366 316.965 354.357 317.006C354.618 317.052 354.878 317.1 355.129 317.146ZM366.089 318.624C365.321 317.071 362.059 314.352 358.314 311.414C361.523 314.927 364.481 317.979 366.089 318.624ZM358.314 311.416C358.114 311.197 357.911 310.975 357.708 310.752C357.672 310.791 357.641 310.827 357.604 310.864C357.843 311.047 358.087 311.231 358.314 311.416ZM367.328 317.812C367.369 316.079 365.744 312.153 363.793 307.812C365.002 312.414 366.202 316.487 367.328 317.812ZM363.793 307.812C363.711 307.503 363.631 307.186 363.546 306.872C363.496 306.889 363.443 306.909 363.394 306.928C363.527 307.222 363.662 307.519 363.793 307.812Z" fill="url(#paint15_radial)"/>
<path d="M374.095 320.471C374.095 323.61 371.55 326.152 368.413 326.152C365.274 326.152 362.729 323.61 362.729 320.471C362.729 317.334 365.277 314.787 368.413 314.787C371.555 314.787 374.095 317.332 374.095 320.471Z" fill="#4E60A3"/>
<path opacity="0.9" d="M374.095 320.471C374.095 323.61 371.55 326.152 368.413 326.152C365.274 326.152 362.729 323.61 362.729 320.471C362.729 317.334 365.277 314.787 368.413 314.787C371.555 314.787 374.095 317.332 374.095 320.471Z" fill="black"/>
<path opacity="0.5" d="M360.487 327.106C361.568 326.377 363.044 326.671 363.768 327.753C364.497 328.837 364.21 330.31 363.121 331.037C362.034 331.768 360.564 331.479 359.84 330.392C359.111 329.308 359.4 327.833 360.487 327.106Z" fill="url(#paint16_linear)"/>
<path opacity="0.5" d="M372.9 319.679C372.294 320.582 370.56 320.478 369.024 319.447C367.484 318.416 366.73 316.844 367.334 315.944L367.337 315.941C367.94 315.038 369.676 315.142 371.212 316.175C372.752 317.204 373.506 318.773 372.9 319.679Z" fill="url(#paint17_linear)"/>
<path opacity="0.75" d="M379.8 317.267C378.426 319.375 374.884 319.5 371.89 317.549C368.899 315.598 367.583 312.31 368.957 310.202C370.328 308.096 373.87 307.971 376.864 309.919C379.856 311.873 381.169 315.164 379.8 317.267Z" fill="url(#paint18_linear)"/>
<path d="M367.076 265.606C342.421 266.466 316.717 282.435 317.132 322.919C317.504 359.137 346.297 377.475 370.951 376.613C395.603 375.753 410.035 334.786 413.652 319.464C423.382 278.246 391.728 264.746 367.076 265.606ZM374.807 334.279C363.133 335.774 352.055 333.649 340.536 332.179C337.303 330.687 334.717 328.726 335.335 326.292C335.349 326.227 335.383 326.164 335.395 326.099C335.41 326.089 335.429 326.092 335.439 326.08C342.303 315.33 350.38 308.548 361.45 306.909C369.816 305.663 381.237 306.694 386.363 307.703C390.736 308.565 395.596 309.379 400.49 312.303C400.524 314.85 400.348 315.615 399.737 318.274C398.605 320.978 398.182 331.283 374.807 334.279Z" fill="#F0C7B1"/>
<path d="M402.101 311.378C398.865 294.838 378.129 284.188 355.776 287.566C333.425 290.953 317.943 307.102 321.181 323.639C324.414 340.176 345.157 350.826 367.506 347.443C389.859 344.051 405.336 327.912 402.101 311.378ZM399.739 318.274C398.605 320.98 398.182 331.283 374.81 334.279C363.135 335.774 352.058 333.649 340.538 332.179C337.305 330.687 334.719 328.726 335.337 326.292C335.352 326.227 335.385 326.164 335.398 326.099C335.412 326.089 335.431 326.092 335.441 326.08C342.305 315.33 350.382 308.548 361.452 306.909C369.819 305.663 381.239 306.694 386.365 307.703C390.738 308.565 395.364 309.548 400.493 312.303C400.524 314.85 400.35 315.615 399.739 318.274Z" fill="url(#paint19_radial)"/>
<path d="M399.739 318.274C400.35 315.615 400.524 314.852 400.492 312.303C395.441 309.466 390.738 308.567 386.365 307.703C381.239 306.694 369.816 305.663 361.452 306.909C350.379 308.548 342.303 315.33 335.441 326.08C335.431 326.092 335.412 326.089 335.397 326.099C335.383 326.164 335.349 326.227 335.337 326.292C334.719 328.724 337.305 330.684 340.538 332.179C352.057 333.649 363.135 335.774 374.809 334.279C398.182 331.283 398.604 320.978 399.739 318.274Z" fill="url(#paint20_radial)"/>
<path d="M362.431 300.546C354.475 301.848 346.722 305.506 339.541 310.072C338.003 311.047 336.24 312.16 333.454 313.575C335.453 313.121 337.303 312.085 339.029 311.134C337.252 312.819 335.596 314.826 334.244 316.769C340.331 309.142 351.862 303.398 361.67 301.44C371.091 299.559 388.203 300.802 400.911 306.37C389.275 299.824 372.304 298.933 362.431 300.546Z" fill="#C27B55"/>
<path d="M386.674 304.929C390.711 305.907 399.034 309.181 401.147 311.998C401.642 314.732 398.505 312.124 397.762 311.716C388.673 306.732 373.131 305.564 361.464 307.266C350.387 308.872 342.303 315.492 335.434 325.971C332.84 329.776 341.417 293.957 386.674 304.929ZM374.797 333.92C363.101 335.392 352.007 333.316 340.465 331.894C337.727 331.563 359.873 337.242 375.797 335.788C398.213 333.739 402.021 322.654 400.292 317.672C398.305 318.112 401.311 330.588 374.797 333.92Z" fill="black"/>
<path d="M410.06 388.014C410.145 442.635 365.894 486.995 311.215 487.069C256.546 487.159 212.153 442.949 212.068 388.316C211.984 333.7 256.235 289.167 310.911 289.08C365.583 288.995 409.981 333.386 410.06 388.014Z" fill="url(#paint21_radial)"/>
<path d="M401.61 243.204C401.61 293.211 361.073 333.748 311.069 333.748C261.062 333.748 220.522 293.211 220.522 243.204C220.522 193.197 261.062 152.66 311.069 152.66C361.073 152.66 401.61 193.197 401.61 243.204Z" fill="url(#paint22_radial)"/>
<path d="M207.774 306.171C223.288 267.95 292.213 302.212 292.951 287.274C293.083 284.282 291.175 282.907 288.364 282.325C255.317 275.724 212.714 272.983 207.774 306.171Z" fill="#6B4E40"/>
<path d="M414.365 306.17C398.852 267.949 329.926 302.211 329.188 287.273C329.056 284.281 330.965 282.906 333.776 282.324C366.822 275.723 409.425 272.982 414.365 306.17Z" fill="#6B4E40"/>
<path d="M311.104 406.735C303.26 406.497 289.301 398.411 290.967 391.144C292.509 384.389 301.295 393.607 311.387 393.691C321.477 393.773 333.529 387.754 334.947 394.527C337.232 405.465 323.741 407.128 311.104 406.735Z" fill="#E8B9A0"/>
<path d="M328.651 402.625C329.285 403.455 330.377 403.455 331.056 402.619C331.754 401.783 331.79 400.425 331.138 399.598C326.405 393.498 317.888 401.674 318.531 402.522C318.77 402.839 325.074 398.076 328.651 402.625ZM293.378 387.102C294.371 393.585 296.432 402.241 313.017 406.778C296.668 406.292 286.044 403.249 286.131 388.047C286.177 380.354 294.214 364.536 294.214 364.536C294.214 364.536 292.328 380.251 293.378 387.102Z" fill="#C27B55"/>
<path d="M182.763 330.874C175.669 324.833 166.793 309.293 162.832 287.509C161.99 283.045 161.389 278.455 160.75 273.595C158.074 253.204 152.338 229.441 156.306 205.095C161.069 175.311 182.976 143.066 210.814 124.852C253.858 96.4318 362.657 83.7303 385.332 121.142C398.486 120.652 412.679 124.157 422.479 131.936C454.918 156.764 467.461 241.087 458.472 282.97C452.49 311.572 450.921 319.073 438.918 330.287C443.205 199.137 436.575 234.525 431.095 199.306C424.671 194.502 422.276 196.486 412.38 190.755C392.698 175.926 393.652 169.987 384.736 159.615C376.795 169.198 365.378 177.633 356.561 181.53C358.795 177.795 360.7 173.606 361.961 170.912L360.906 170.011C353.502 175.472 338.543 183.237 329.35 184.07C334.288 177.877 333.711 178.657 335.684 174.883C328.311 179.509 320.477 182.65 310.593 183.534C319.904 178.84 324.078 175.629 331.3 169.49L330.639 168.239C280.497 183.78 268.602 187.3 231.838 193.954C201.049 197.882 212.322 194.562 201.153 194.562C183.186 194.562 180.335 249.581 181.111 267.924C183.113 319.203 180.539 309.218 182.763 330.874Z" fill="#6B4E40"/>
<path d="M458.472 282.97C452.49 311.572 450.921 319.073 438.918 330.287C443.205 199.137 436.575 234.525 431.095 199.306C424.671 194.502 422.276 196.486 412.38 190.755C392.698 175.926 393.652 169.987 384.736 159.615C376.795 169.198 365.378 177.633 356.561 181.53C358.795 177.795 360.7 173.606 361.961 170.912L360.906 170.011C353.502 175.472 338.543 183.237 329.35 184.07C334.288 177.877 333.711 178.657 335.684 174.883C328.311 179.509 320.477 182.65 310.593 183.534C319.904 178.84 324.078 175.629 331.3 169.49L330.64 168.239C280.497 183.78 268.602 187.3 231.838 193.954C201.049 197.882 212.322 194.562 201.153 194.562C183.186 194.562 180.335 249.581 181.111 267.924C183.113 319.206 180.539 309.218 182.763 330.876C175.669 324.836 166.793 309.295 162.832 287.511C161.99 283.047 161.389 278.458 160.75 273.598C158.074 253.207 152.338 229.443 156.306 205.098C160.068 181.568 188.787 146.962 208.42 128.496C148.081 185.834 165.828 249.817 175.884 301.116C172.924 255.843 164.361 182.848 204.586 180.434C259.009 180.434 320.221 172.551 358.081 133.923C355.714 150.823 353.658 153.877 341.827 165.948C351.292 158.705 363.123 153.877 367.855 141.805C365.489 151.463 365.489 158.705 358.39 165.948C365.489 161.12 372.588 153.877 379.686 146.634C379.686 153.877 374.954 161.12 372.588 168.362C377.32 156.291 391.518 149.048 393.884 136.977C386.785 168.362 423.151 185.226 434.391 191.865C449.771 213.594 450.363 259.465 446.814 297.489C459.828 254.033 453.912 179.794 415.461 128.491C457.462 159.876 466.29 246.551 458.472 282.97ZM217.291 161.083C246.175 160.217 267.372 155.441 298.334 137.544C268.55 150.861 249.703 157.216 217.291 161.083ZM295.967 150.823C311.253 144.35 321.889 130.309 339.151 126.077C323.243 131.709 312.181 145.837 295.967 150.823ZM204.276 159.876C215.23 139.78 238.634 123.126 268.164 120.644C244.133 125.203 218.398 139.278 204.276 159.876Z" fill="#5C3D2E"/>
<path d="M279.404 112.834C310.366 99.3289 338.55 100.707 368.137 117.627C337.085 104.095 313.35 106.685 313.35 106.685C307.699 107.137 298.665 106.914 279.404 112.834ZM401.264 132.112C411.058 135.961 415.144 141.808 421.1 150.246C429.819 164.62 432.259 170.847 437.339 185.226C432.406 164.574 421.339 137.682 401.264 132.112ZM345.658 131.509C328.822 146.001 316.615 153.809 282.953 165.308C309.554 158.862 326.508 151.26 345.658 131.509ZM400.081 146.598C404.972 163.585 413.985 173.051 427.884 181.605C414.964 171.689 406.517 162.486 400.081 146.598ZM213.15 137.544C213.15 137.544 212 138.413 210.104 139.843C188.465 155.485 171.549 185.376 171.149 223.251C175.87 185.569 190.505 159.051 213.15 137.544ZM224.389 148.408C242.744 138.619 251.22 138.541 281.77 133.319C255.403 135.195 242.361 136.477 224.389 148.408ZM274.193 158.618C263.392 164.147 238.045 170.34 238.045 170.062C229.155 172.076 213.744 175.569 213.744 175.569C219.711 174.799 229.95 173.577 238.395 171.728C238.395 172.054 259.208 166.936 265.32 163.715C272.031 160.485 269.757 161.752 276.448 157.462C276.446 157.462 275.592 157.901 274.193 158.618Z" fill="#7A6155"/>
<path d="M422.917 131.364C412.911 123.423 398.491 119.918 385.718 120.403C374.807 102.407 340.403 97.2309 319.535 97.0088C288.055 96.6756 238.317 105.828 210.429 124.242C184.476 141.219 160.684 173.217 155.603 204.975C152.565 223.615 155.182 242.929 158.277 261.42C159.792 270.353 160.572 279.358 162.134 287.639C166.623 312.33 177.03 327.779 183.643 332.472C181.123 308.679 183.873 320.406 181.821 267.89C180.868 245.363 184.909 193.739 201.91 195.318C213.465 196.151 204.31 198.193 231.961 194.663C268.276 188.092 280.152 184.639 330.845 168.93C322.902 175.685 318.771 178.751 308.13 183.946C308.106 183.922 308.106 183.946 308.106 183.946C307.775 184.115 307.42 184.284 307.089 184.429C315.889 184.371 326.837 181.279 333.824 176.897C332.861 178.736 329.963 182.08 327.817 184.864C336.912 184.864 353.23 176.564 361.322 170.596C360.186 173.01 357.529 178.954 354.671 183.174C357.371 181.798 363.838 180.004 376.748 168.857C379.374 166.612 382.379 163.57 384.745 160.721C392.67 169.939 392.194 176.453 412.028 191.382C421.867 197.08 424.526 195.306 430.437 199.712C435.657 234.593 442.585 197.792 438.151 331.965C451.402 319.99 452.999 312.588 459.163 283.124C467.939 242.244 455.995 156.685 422.917 131.364ZM455.285 282.617C450.041 312.279 449.601 317.286 439.005 329.02C440.931 302.946 442.625 279.626 442.126 253.357C441.076 214.581 436.021 221.855 432.425 198.504C425.615 193.625 422.314 194.509 416.05 191.624C414.962 191.213 414.063 190.513 413.045 189.982C393.188 175.921 393.174 169.21 385.053 160.359C387.351 157.67 389.343 154.587 389.998 153.261C386.428 158.727 371.123 173.152 356.611 181.339C359.117 177.293 361.022 173.36 362.385 169.799C366.49 166.873 369.294 164.106 371.66 161.711C363.57 168.568 342.733 180.929 329.66 183.608C330.072 183.176 334.097 179.2 335.613 176.187C338.82 174.878 347.482 169.478 350.53 166.04C335.613 176.187 318.645 182.264 312.72 183.268C319.97 180.494 329.378 171.846 334.205 167.913C338.869 164.113 339.773 162.587 344.614 157.58C341.434 159.845 336.475 164.806 330.285 167.472C326.624 169.048 226.431 197.645 209.007 193C205.509 192.107 201.555 191.025 198.075 192.058C170.153 204.313 180.42 282.917 180.801 307.05C181.123 327.385 182.552 330.927 182.552 330.927C164.212 313.158 163.412 274.061 161.493 260.479C159.06 242.478 156.943 223.369 160.192 205.506C165.492 174.99 188.378 144.167 212.864 128.105C249.467 103.865 358.608 83.3609 385.692 121.272C452.93 121.272 462.362 234.202 455.285 282.617Z" fill="#3D2012"/>
</g>
<defs>
<linearGradient id="paint0_linear" x1="300" y1="-75" x2="300" y2="675" gradientUnits="userSpaceOnUse">
<stop stop-color="#151371"/>
<stop offset="0.453125" stop-color="#FF00B8"/>
<stop offset="0.96875" stop-color="#FFC700"/>
</linearGradient>
<linearGradient id="paint1_linear" x1="439" y1="245" x2="439" y2="644" gradientUnits="userSpaceOnUse">
<stop stop-color="#FF00B8"/>
<stop offset="1" stop-color="#F0DB0A" stop-opacity="0"/>
</linearGradient>
<linearGradient id="paint2_linear" x1="194" y1="161" x2="194" y2="560" gradientUnits="userSpaceOnUse">
<stop stop-color="#FF00B8"/>
<stop offset="1" stop-color="#F0DB0A" stop-opacity="0"/>
</linearGradient>
<linearGradient id="paint3_linear" x1="311.066" y1="528.118" x2="311.066" y2="409.808" gradientUnits="userSpaceOnUse">
<stop stop-color="#E1AC8F" stop-opacity="0.8"/>
<stop offset="0.7" stop-color="#C27B55"/>
</linearGradient>
<linearGradient id="paint4_linear" x1="311.114" y1="459.221" x2="311.114" y2="451.253" gradientUnits="userSpaceOnUse">
<stop offset="0.1" stop-color="#E8B9A0"/>
<stop offset="1" stop-color="#E1AC8F"/>
</linearGradient>
<radialGradient id="paint5_radial" cx="0" cy="0" r="1" gradientUnits="userSpaceOnUse" gradientTransform="translate(251.934 321.115) rotate(177.797) scale(35.2047 29.5115)">
<stop stop-color="white"/>
<stop offset="0.544" stop-color="#FDFEFE"/>
<stop offset="0.74" stop-color="#F6F8F9"/>
<stop offset="0.879" stop-color="#EAEFF2"/>
<stop offset="0.992" stop-color="#D9E3E8"/>
<stop offset="1" stop-color="#D8E2E7"/>
</radialGradient>
<radialGradient id="paint6_radial" cx="0" cy="0" r="1" gradientUnits="userSpaceOnUse" gradientTransform="translate(253.54 320.519) rotate(-14.4847) scale(14.3045 14.3077)">
<stop stop-color="white"/>
<stop offset="1" stop-color="white" stop-opacity="0"/>
</radialGradient>
<radialGradient id="paint7_radial" cx="0" cy="0" r="1" gradientUnits="userSpaceOnUse" gradientTransform="translate(253.542 320.535) rotate(0.512025) scale(14.2962 14.2965)">
<stop stop-color="white"/>
<stop offset="1" stop-color="white" stop-opacity="0"/>
</radialGradient>
<linearGradient id="paint8_linear" x1="245.681" y1="330.776" x2="247.941" y2="328.081" gradientUnits="userSpaceOnUse">
<stop stop-color="white"/>
<stop offset="1" stop-color="white" stop-opacity="0"/>
</linearGradient>
<linearGradient id="paint9_linear" x1="256.648" y1="316.356" x2="254.839" y2="318.513" gradientUnits="userSpaceOnUse">
<stop stop-color="white"/>
<stop offset="1" stop-color="white" stop-opacity="0"/>
</linearGradient>
<linearGradient id="paint10_linear" x1="262.502" y1="310.383" x2="258.335" y2="315.35" gradientUnits="userSpaceOnUse">
<stop stop-color="white"/>
<stop offset="1" stop-color="white" stop-opacity="0"/>
</linearGradient>
<radialGradient id="paint11_radial" cx="0" cy="0" r="1" gradientUnits="userSpaceOnUse" gradientTransform="translate(259.765 316.299) rotate(7.8743) scale(41.0482 30.7209)">
<stop stop-color="#E1AC8F"/>
<stop offset="0.7" stop-color="#E1AC8F" stop-opacity="0.3"/>
<stop offset="1" stop-color="#F0C7B1" stop-opacity="0"/>
</radialGradient>
<radialGradient id="paint12_radial" cx="0" cy="0" r="1" gradientUnits="userSpaceOnUse" gradientTransform="translate(248.356 345.504) rotate(-4.77486) scale(45.6624 39.2039)">
<stop offset="0.95" stop-opacity="0"/>
<stop offset="1" stop-opacity="0.2"/>
</radialGradient>
<radialGradient id="paint13_radial" cx="0" cy="0" r="1" gradientUnits="userSpaceOnUse" gradientTransform="translate(369.235 321.116) rotate(2.203) scale(35.202 29.5093)">
<stop stop-color="white"/>
<stop offset="0.544" stop-color="#FDFEFE"/>
<stop offset="0.74" stop-color="#F6F8F9"/>
<stop offset="0.879" stop-color="#EAEFF2"/>
<stop offset="0.992" stop-color="#D9E3E8"/>
<stop offset="1" stop-color="#D8E2E7"/>
</radialGradient>
<radialGradient id="paint14_radial" cx="0" cy="0" r="1" gradientUnits="userSpaceOnUse" gradientTransform="translate(368.228 320.519) rotate(-14.4847) scale(14.3048 14.3079)">
<stop stop-color="white"/>
<stop offset="1" stop-color="white" stop-opacity="0"/>
</radialGradient>
<radialGradient id="paint15_radial" cx="0" cy="0" r="1" gradientUnits="userSpaceOnUse" gradientTransform="translate(368.23 320.535) rotate(0.512025) scale(14.2967 14.297)">
<stop stop-color="white"/>
<stop offset="1" stop-color="white" stop-opacity="0"/>
</radialGradient>
<linearGradient id="paint16_linear" x1="360.371" y1="330.776" x2="362.631" y2="328.081" gradientUnits="userSpaceOnUse">
<stop stop-color="white"/>
<stop offset="1" stop-color="white" stop-opacity="0"/>
</linearGradient>
<linearGradient id="paint17_linear" x1="371.337" y1="316.356" x2="369.529" y2="318.513" gradientUnits="userSpaceOnUse">
<stop stop-color="white"/>
<stop offset="1" stop-color="white" stop-opacity="0"/>
</linearGradient>
<linearGradient id="paint18_linear" x1="377.19" y1="310.383" x2="373.023" y2="315.35" gradientUnits="userSpaceOnUse">
<stop stop-color="white"/>
<stop offset="1" stop-color="white" stop-opacity="0"/>
</linearGradient>
<radialGradient id="paint19_radial" cx="0" cy="0" r="1" gradientUnits="userSpaceOnUse" gradientTransform="translate(361.402 316.3) rotate(172.126) scale(41.0458 30.7191)">
<stop stop-color="#E1AC8F"/>
<stop offset="0.7" stop-color="#E1AC8F" stop-opacity="0.3"/>
<stop offset="1" stop-color="#F0C7B1" stop-opacity="0"/>
</radialGradient>
<radialGradient id="paint20_radial" cx="0" cy="0" r="1" gradientUnits="userSpaceOnUse" gradientTransform="translate(372.812 345.505) rotate(-175.225) scale(45.6624 39.2039)">
<stop offset="0.95" stop-opacity="0"/>
<stop offset="1" stop-opacity="0.2"/>
</radialGradient>
<radialGradient id="paint21_radial" cx="0" cy="0" r="1" gradientUnits="userSpaceOnUse" gradientTransform="translate(311.066 388.077) scale(98.9948)">
<stop stop-color="#FFE4D6" stop-opacity="0.5"/>
<stop offset="0.9" stop-color="#F0C7B1" stop-opacity="0"/>
</radialGradient>
<radialGradient id="paint22_radial" cx="0" cy="0" r="1" gradientUnits="userSpaceOnUse" gradientTransform="translate(311.066 243.207) scale(89.3367)">
<stop stop-color="#FFE4D6" stop-opacity="0.5"/>
<stop offset="0.9" stop-color="#F0C7B1" stop-opacity="0"/>
</radialGradient>
<clipPath id="clip0">
<rect width="600" height="600" fill="white"/>
</clipPath>
</defs>
</svg>
