<svg width="600" height="600" viewBox="0 0 600 600" fill="none" xmlns="http://www.w3.org/2000/svg">
<g clip-path="url(#clip0)">
<path d="M675 675H-75V-75H675V675Z" fill="url(#paint0_linear)"/>
<path d="M360.996 403.874H308.184V356.576H360.996V403.874ZM414.113 320.069H340.054V380.225H414.113V320.069ZM377.082 441.95H442.881V362.639H377.082V441.95ZM400.757 434.192H334.59V491.191H400.757V434.192ZM580.44 284.416H490.23V387.501H580.44V284.416ZM478.458 331.108H456.605V356.576H478.458V331.108ZM544.531 252.277H456.605V304.426H544.531V252.277ZM442.881 270.468H395.532V335.958H442.881V270.468ZM334.59 275.32H308.184V303.213H334.59V275.32ZM299.325 320.069H258.501V382.71H299.325V320.069ZM347.338 441.95H275.708V521.511H347.338V441.95ZM308.184 576.086H388.617V528.788H308.184V576.086ZM500.311 557.894H443.791V599.129H500.313V557.894H500.311ZM637.361 516.659H585.062V578.511H637.361V516.659ZM551.302 544.718H506.381V585.953H551.302V544.718ZM594.357 463.296H528.843V537.278H594.357V463.296ZM610.791 590.639H528.843V644H610.791V590.639ZM340.054 557.894H251.187V637.937H340.052V557.894H340.054ZM630.216 356.576H569.818V403.874H630.216V356.576ZM594.357 424.49H568.208V451.477H594.357V424.49ZM251.187 474.697H300.975V404.294H251.187V474.697ZM321.764 249.852L232 252.277V320.069H321.764V249.852ZM646 252.277H587.725V326.256H646V252.277ZM371.858 245H347.338V298.361H371.858V245ZM641.143 437.983H581.281V486.494H641.143V437.983Z" fill="url(#paint1_linear)" stroke="#FFC700" stroke-width="1.5"/>
<path d="M115.996 319.874H63.1843V272.576H115.996V319.874ZM169.113 236.069H95.0537V296.225H169.113V236.069ZM132.082 357.95H197.881V278.639H132.082V357.95ZM155.757 350.192H89.5904V407.191H155.757V350.192ZM335.44 200.416H245.23V303.501H335.44V200.416ZM233.458 247.108H211.605V272.576H233.458V247.108ZM299.531 168.277H211.605V220.426H299.531V168.277ZM197.881 186.468H150.532V251.958H197.881V186.468ZM89.5904 191.32H63.1843V219.213H89.5904V191.32ZM54.3246 236.069H13.5008V298.71H54.3246V236.069ZM102.338 357.95H30.7084V437.511H102.338V357.95ZM63.1843 492.086H143.617V444.788H63.1843V492.086ZM255.311 473.894H198.791V515.129H255.313V473.894H255.311ZM392.361 432.659H340.062V494.511H392.361V432.659ZM306.302 460.718H261.381V501.953H306.302V460.718ZM349.357 379.296H283.843V453.278H349.357V379.296ZM365.791 506.639H283.843V560H365.791V506.639ZM95.0537 473.894H6.18721V553.937H95.0519V473.894H95.0537ZM385.216 272.576H324.818V319.874H385.216V272.576ZM349.357 340.49H323.208V367.477H349.357V340.49ZM6.18721 390.697H55.9745V320.294H6.18721V390.697ZM76.7643 165.852L-13 168.277V236.069H76.7643V165.852ZM401 168.277H342.725V242.256H401V168.277ZM126.858 161H102.338V214.361H126.858V161ZM396.143 353.983H336.281V402.494H396.143V353.983Z" fill="url(#paint2_linear)" stroke="#FFC700" stroke-width="1.5"/>
<rect x="504" y="328.706" width="8.86149" height="25.1423" fill="white"/>
<rect x="521.754" y="328.857" width="8.83104" height="25.1423" fill="white"/>
<rect x="512.861" y="320" width="8.89195" height="8.85765" fill="white"/>
<rect x="539.415" y="328.857" width="8.89195" height="25.1423" fill="white"/>
<rect x="530.585" y="320" width="8.83105" height="8.85765" fill="white"/>
<rect x="548.308" y="320" width="8.86149" height="8.85765" fill="white"/>
<rect x="557.169" y="327.792" width="8.83104" height="8.85766" fill="white"/>
<rect x="548.308" y="336.65" width="8.86149" height="8.82721" fill="white"/>
<rect x="40" y="390.425" width="7.57515" height="21.4449" fill="white"/>
<rect x="55.1763" y="390.555" width="7.54912" height="21.4449" fill="white"/>
<rect x="47.5752" y="383" width="7.60118" height="7.55506" fill="white"/>
<rect x="70.2744" y="390.555" width="7.60118" height="21.4449" fill="white"/>
<rect x="62.7256" y="383" width="7.54912" height="7.55506" fill="white"/>
<rect x="77.876" y="383" width="7.57515" height="7.55506" fill="white"/>
<rect x="85.4507" y="389.646" width="7.54912" height="7.55506" fill="white"/>
<rect x="77.876" y="397.202" width="7.57515" height="7.52909" fill="white"/>
<path d="M309.058 361.488H306.508V358.938H309.058V361.488Z" fill="#2A232B"/>
<path d="M551.096 614.647C545.496 602.545 530.199 584.61 513.203 579.656C492.194 573.528 444.769 566.12 427.184 562.002C413.088 558.697 384.696 533.202 374.746 524.645C372.961 523.115 371.5 519.955 371.464 517.607C371.11 489.904 382.161 416.311 382.161 416.311H307.783H233.407C233.407 416.311 244.459 489.901 244.099 517.607C244.071 519.955 242.603 523.115 240.823 524.645C230.873 533.202 202.481 558.697 188.384 562.002C170.797 566.12 123.372 573.781 102.365 579.908C85.3645 584.86 70.0722 602.542 64.4724 614.644C55.017 635.065 52.7832 672.019 52.7832 703.894H307.783H562.783C562.783 672.022 560.547 635.067 551.096 614.647Z" fill="#F2BAA4"/>
<path d="M458.631 574.561C520.703 583.593 546.825 596.766 555.005 703.899H562.783C562.783 672.024 560.546 635.07 551.096 614.649C545.496 602.547 530.199 584.613 513.203 579.658C492.194 573.531 444.769 566.123 427.184 562.005C413.088 558.7 380.667 531.229 371.994 520.312C380.562 532.307 404.611 560.105 425.682 567.385C435.762 570.868 444.157 572.454 458.631 574.561ZM189.886 567.385C210.957 560.107 235.003 532.307 243.574 520.312C234.904 531.226 202.483 558.7 188.384 562.005C170.8 566.123 123.375 573.783 102.365 579.911C85.3695 584.863 70.0721 602.544 64.4723 614.647C55.022 635.067 52.7856 672.022 52.7856 703.897H60.5631C68.6925 597.449 94.9244 583.58 156.938 574.558C171.409 572.454 179.806 570.868 189.886 567.385Z" fill="#FFD6C6"/>
<path d="M296.68 609.144C296.68 609.144 283.742 605.041 278.619 603.078C251.974 592.855 165.412 586.23 165.412 586.23C165.412 586.23 256.584 589.848 276.704 593.316C275.536 581.16 269.01 542.306 269.01 542.306C269.01 542.306 282.14 585.184 285.353 596.001C287.072 601.785 296.68 609.144 296.68 609.144ZM324.218 605.722C323.991 605.908 323.731 606.15 323.448 606.405C323.736 606.189 323.996 605.962 324.218 605.722ZM296.68 609.144C296.68 609.144 304.058 616.774 307.765 616.871C312.636 617.001 320.077 609.478 323.45 606.405C320.225 608.846 312.845 609.953 309.91 610.067C306.518 610.197 296.68 609.144 296.68 609.144ZM350.276 589.971C346.337 590.603 339.092 591.983 339.092 591.983L344.924 554.013C343.277 561.844 333.515 595.351 324.218 605.722C329.088 601.601 339.921 599.625 345.444 598.827C371.546 595.043 371.536 595.045 450.152 586.23C450.152 586.23 376.021 585.835 350.276 589.971Z" fill="#E39E83"/>
<path d="M551.096 614.647C545.496 602.545 530.199 584.61 513.203 579.656C492.194 573.528 444.769 566.12 427.184 562.002C413.088 558.697 384.696 533.202 374.746 524.645C372.961 523.115 371.5 519.955 371.464 517.607C371.11 489.904 382.161 416.311 382.161 416.311H307.783H233.407C233.407 416.311 244.459 489.901 244.099 517.607C244.071 519.955 242.603 523.115 240.823 524.645C230.873 533.202 202.481 558.697 188.384 562.002C170.797 566.12 123.372 573.781 102.365 579.908C85.3645 584.86 70.0722 602.542 64.4724 614.644C55.017 635.065 52.7832 672.019 52.7832 703.894H307.783H562.783C562.783 672.022 560.547 635.067 551.096 614.647Z" stroke="#C46C4A" stroke-width="3.825"/>
<path d="M307.788 540.921C336.835 540.921 350.192 524.703 369.544 516.344C369.524 496.117 374.744 455.315 377.913 432.431C336.766 427.709 278.792 427.709 237.648 432.434C240.818 455.315 246.037 496.112 246.014 516.336C265.377 524.693 278.734 540.921 307.788 540.921Z" fill="url(#paint3_linear)"/>
<path d="M557.168 619.155C530.449 567.446 479.003 574.775 429.75 560.905C428.556 570.047 395.959 613.127 388.218 637.561C383.87 633.932 378.681 629.082 374.935 624.643C356.605 603.113 329.44 533.455 320.324 587.851C322.305 563.432 333.082 558.052 348.045 578.521C364.13 600.548 364.727 611.921 387.677 635.873C391.732 619.04 400.509 607.162 410.719 592.258C420.6 577.817 427.817 571.304 428.872 558.45C425.188 552.309 426.07 549.56 420.116 545.582C382.745 520.307 409.426 494.659 375.552 488.552C375.287 491.607 374.953 495.029 374.672 497.602C381.917 501.33 384.084 515.839 372.93 526.463C355.205 545.922 326.724 546.888 319.299 576.756L319.281 576.754C316.917 585.62 315.025 599.191 314.127 607.147L307.867 670.637L301.569 608.272C296.461 561.456 289.785 556.876 267.952 542.41C253.486 532.822 229.847 518.356 237.564 502C238.443 500.108 239.515 498.946 240.843 498.071C240.461 494.333 240.236 492.165 239.94 488.692C211.975 489.883 216.274 529.446 195.096 544.002C189.545 547.816 186.714 551.343 184.723 557.08C186.077 573.097 221.708 609.294 227.932 635.873C251.099 611.413 251.278 600.726 267.457 578.602C281.393 559.567 292.774 561.52 295.168 587.28C293.852 579.541 290.736 567.694 283.984 567.694C278.42 567.694 272.621 575.899 269.752 579.86C253.69 601.988 251.109 617.816 227.303 637.574C225.655 632.624 223.722 627.652 221.417 623.023C211.982 603.965 186.434 565.508 183.529 561.78C172.238 564.957 155.028 568.476 144.685 570.195C77.1 581.443 50.9013 603.266 40.9385 705.424C288.803 702.915 389.806 704.006 574.424 704.006C572.116 681.276 567.579 639.336 557.168 619.155Z" fill="#3F82A4"/>
<path d="M409.704 591.71C400.879 604.597 393.892 615.425 389.539 628.993C394.555 600.997 426.35 574.489 422.908 557.749C421.434 550.578 396.067 534.592 394.753 510.829C401.753 532.601 427.883 548.14 427.926 558.572C427.995 575.642 427.485 565.73 409.704 591.71ZM574.222 701.984C575.107 679.845 567.664 636.745 558.438 618.859C531.719 567.151 477.952 573.747 428.702 559.878C428.266 560.434 429.951 564.111 428.77 565.692C543.9 586.908 557.01 612.196 574.222 701.984ZM195.104 544.004C209.249 532.282 213.489 520.927 216.736 510.826C209.468 552.34 198.602 536.64 190.675 557.43C186.141 569.321 221.282 601.808 226.033 628.991C219.806 618.344 213.13 605.242 204.304 592.355C197.435 582.315 193.059 573.135 186.253 565.409C183.009 548.291 189.708 548.477 195.104 544.004ZM186.25 565.411C185.07 563.83 183.971 562.341 183.535 561.785C134.284 575.652 85.1199 567.151 58.4035 618.862C49.1751 636.748 44.5673 673.338 42.0249 695.525C46.9438 668.564 54.2751 634.598 69.9805 614.106C96.6127 577.98 145.756 571.009 186.25 565.411Z" fill="#5794B3"/>
<path d="M358.396 542.262C345.995 549.453 335.494 556.512 328.527 566.439C345.273 567.362 357.651 597.291 360.999 601.361C329.55 557.588 317.649 587.336 313.824 615.213C314.926 606.17 315.831 590.743 317.616 584.121C318.136 581.486 318.695 578.967 319.284 576.754L319.301 576.756C326.727 546.888 355.208 545.922 372.933 526.463C384.087 515.839 381.917 501.33 374.675 497.602C374.953 495.029 375.289 491.607 375.554 488.552C377.413 488.891 379.071 489.296 380.609 489.748C403.454 509.844 373.981 535.288 358.396 542.262ZM254.144 542.262C266.547 549.453 281.715 557.975 288.661 567.041C276.426 564.815 262.827 583.09 256.026 599.24C285.351 561.839 294.276 583.09 303.627 615.215C302.528 606.176 299.74 590.745 297.955 584.123C297.435 581.489 296.879 578.97 296.288 576.756L296.272 576.759C288.847 546.891 261.383 545.924 243.658 526.465C232.505 515.842 234.422 501.332 241.667 497.604C241.389 495.031 241.055 491.609 240.79 488.554C238.931 488.893 237.273 489.299 235.735 489.75C216.59 513.129 240.137 533.766 254.144 542.262Z" fill="#2A7195"/>
<path d="M373.767 521.687C373.846 507.149 373.361 515.215 374.833 498.762C380.504 501.804 381.225 514.292 373.767 521.687ZM241.837 520.312C235.914 512.56 235.182 504.642 240.953 498.663C242.335 511.56 241.633 510.005 241.837 520.312Z" fill="#196185"/>
<path d="M429.224 556.346C428.699 547.314 409.301 539.781 400.695 520.2C394.531 506.252 400.381 490.278 375.029 487.71C373.639 495.837 372.408 513.703 372.777 522.337C359.93 536.166 340.058 539.743 327.426 554.612C313.941 570.483 308.097 604.847 307.875 676.163L311.016 674.12C311.016 674.12 314.515 606.584 314.54 606.385C322.405 538.996 347.405 554.913 373.137 526.664C384.665 515.618 381.911 500.981 374.978 497.434C375.279 494.578 375.559 491.75 375.807 488.891C397.614 492.897 391.385 505.734 398.206 521.411C407.274 542.255 424.463 546.807 425.573 556.915C427.332 572.931 417.775 579.73 408.189 593.722C393.111 615.547 389.625 626.68 387.532 635.307C364.645 611.271 364.633 600.734 348.267 578.345C330.815 554.462 319.352 565.661 314.54 606.385C315.035 599.691 324.154 562.589 335.05 569.025C347.645 576.364 360.017 607.55 374.731 624.834C378.655 629.483 383.709 634.147 388.36 638.048C397.048 607.711 429.16 575.662 430.201 561.025C480.423 575.193 566.47 560.656 574.125 703.731C469.223 704.292 355.297 701.992 41.252 705.144C45.8038 658.129 53.5022 612.048 81.3457 591.279C93.2924 582.336 107.144 577.659 121.411 574.683C141.294 570.562 163.542 567.913 183.256 562.578C185.266 565.128 219.479 616.633 227.178 638.051C254.878 616.368 265.955 575.68 281.207 568.655C291.825 563.777 300.482 599.097 300.977 605.765C296.821 562.693 283.255 548.599 257.566 593.212C244.908 615.203 241.552 621.165 228.088 635.312C222.682 612.377 185.006 569.129 186.643 557.124C188.259 545.277 202.743 548.548 212.393 523.352C217.804 509.225 216.605 493.649 239.698 489.042C239.948 492.017 240.251 494.958 240.555 497.931C234.233 502.09 232.627 516.064 242.727 525.833C251.823 536.25 268.238 542.194 279.078 550.507C291.856 560.368 296.91 570.466 300.977 605.765C301.066 606.535 304.471 674.467 304.471 674.467L307.87 676.168C306.169 605.194 299.365 562.52 285.631 550.56C273.769 539.978 253.055 533.23 243.003 521.416C243.309 512.553 241.562 494.595 240.471 487.83C217.498 490.171 216.847 504.757 211.921 517.492C198.75 551.537 186.079 541.786 183.981 555.892C183.784 557.211 184.088 558.203 184.406 559.957C165.077 563.904 140.954 566.493 121.572 570.037C92.6473 575.318 65.3572 590.585 52.9132 619.64C43.4603 641.69 40.7217 680.97 40.0281 705.174C40 705.348 40 705.549 40 705.723C40.3876 705.753 40.8007 705.753 41.1883 705.753C373.899 709.29 572.733 704.279 575.5 704.279C576.474 568.211 502.098 574.163 429.224 556.346ZM374.022 520.924C374.063 513.445 374.289 504.785 374.833 498.762C378.908 501.669 382.072 511.331 374.022 520.924ZM241.707 519.825C234.945 510.974 237.627 502.393 240.698 499.425C241.338 505.407 241.59 513.784 241.707 519.825Z" fill="#0A5276"/>
<path d="M173.189 313.051C170.723 306.709 152.58 297.746 144.604 299.161C135.582 300.76 132.267 310.269 133.463 317.314C136.275 333.856 143.652 340.823 146.967 353.744C149.762 364.64 155.722 370.91 158.667 375.541C162.288 381.222 165.628 394.261 166.375 396.163C167.556 399.172 171.738 406.472 179.131 406.098C187.63 405.659 198.37 389.043 198.546 385.353C199.52 365.336 179.602 329.559 173.189 313.051Z" fill="#F2BAA4" stroke="#C46C4A" stroke-width="3.825"/>
<path d="M175.063 380.511C175.063 380.511 176.157 377.78 174.823 375.355C173.11 372.236 168.645 366.511 167.63 363.087C166.801 360.287 167.222 354.302 167.087 351.375C166.847 346.198 163.282 342.654 162.173 339.683C154.742 319.811 144.853 307.494 139.223 304.937C135.059 315.108 138.358 322.549 144.17 338.201C140.664 316.929 144.032 310.279 144.032 310.279C144.032 310.279 154.278 319.115 159.335 338.767C160.25 342.314 156.502 349.717 157.218 353.315C158.116 357.834 167.887 366.578 170.624 370.234C172.758 373.083 175.063 380.511 175.063 380.511Z" fill="#C46C4A"/>
<path d="M441.709 313.051C444.175 306.709 462.318 297.746 470.297 299.161C479.321 300.76 482.634 310.269 481.438 317.314C478.623 333.856 471.248 340.823 467.93 353.744C465.136 364.64 459.174 370.91 456.231 375.541C452.61 381.222 449.27 394.261 448.522 396.163C447.342 399.172 443.157 406.472 435.767 406.098C427.271 405.659 416.528 389.043 416.354 385.353C415.375 365.336 435.298 329.559 441.709 313.051Z" fill="#F2BAA4" stroke="#C46C4A" stroke-width="3.825"/>
<path d="M439.835 380.511C439.835 380.511 438.738 377.78 440.074 375.355C441.788 372.236 446.255 366.511 447.265 363.087C448.091 360.287 447.673 354.302 447.813 351.375C448.053 346.198 451.613 342.654 452.725 339.683C460.155 319.811 470.047 307.494 475.675 304.937C479.839 315.108 476.537 322.549 470.73 338.201C474.237 316.929 470.865 310.279 470.865 310.279C470.865 310.279 460.62 319.115 455.56 338.767C454.65 342.314 458.393 349.717 457.677 353.315C456.779 357.834 447.008 366.578 444.274 370.234C442.14 373.083 439.835 380.511 439.835 380.511Z" fill="#C46C4A"/>
<path d="M307.788 107.424C222.062 107.559 152.442 177.98 152.575 264.741C152.598 278.519 154.37 291.881 157.68 304.608H157.683C157.713 304.745 178.389 395.92 187.824 425.789C194.9 448.195 224.258 481.86 244.938 490.36C264.895 498.563 278.188 515.421 307.786 515.421C337.383 515.421 350.677 498.563 370.633 490.36C391.313 481.86 420.674 448.195 427.748 425.789C437.183 395.92 457.861 304.745 457.886 304.608H457.891C461.201 291.878 462.976 278.519 462.996 264.741C463.137 177.98 393.514 107.559 307.788 107.424Z" fill="#F2BAA4"/>
<path d="M411.637 147.892C438.218 176.36 454.648 215.656 454.589 259.036C454.566 272.814 452.891 286.176 449.759 298.903H449.757C449.729 299.041 430.17 390.216 421.248 420.084C414.559 442.493 386.785 476.156 367.229 484.655C348.351 492.856 335.78 509.719 307.788 509.719C279.794 509.719 267.223 492.856 248.35 484.655C228.789 476.156 201.022 442.493 194.331 420.084C185.406 390.216 165.853 299.041 165.822 298.903H165.82C162.686 286.173 161.01 272.814 160.99 259.036C160.926 215.658 177.356 176.368 203.932 147.9C172.36 176.699 152.503 218.382 152.575 264.741C152.598 278.518 154.37 291.88 157.68 304.607H157.683C157.713 304.745 178.389 395.92 187.824 425.788C194.9 448.195 224.258 481.86 244.938 490.359C264.895 498.563 278.188 515.421 307.786 515.421C337.383 515.421 350.677 498.563 370.633 490.359C391.313 481.86 420.674 448.195 427.748 425.788C437.183 395.92 457.861 304.745 457.886 304.607H457.891C461.201 291.878 462.976 278.518 462.996 264.741C463.073 218.377 443.216 176.692 411.637 147.892Z" fill="#EAAC93"/>
<path d="M307.788 107.424C222.062 107.559 152.442 177.98 152.575 264.741C152.598 278.519 154.37 291.881 157.68 304.608H157.683C157.713 304.745 178.389 395.92 187.824 425.789C194.9 448.195 224.258 481.86 244.938 490.36C264.895 498.563 278.188 515.421 307.786 515.421C337.383 515.421 350.677 498.563 370.633 490.36C391.313 481.86 420.674 448.195 427.748 425.789C437.183 395.92 457.861 304.745 457.886 304.608H457.891C461.201 291.878 462.976 278.519 462.996 264.741C463.137 177.98 393.514 107.559 307.788 107.424Z" stroke="#C46C4A" stroke-width="3.825"/>
<path d="M308.65 467.122C304.759 467.122 301.005 466.629 298.705 465.727C298.05 465.467 297.726 464.727 297.983 464.074C298.241 463.419 298.978 463.098 299.636 463.353C303.879 465.018 314.566 465.076 319.281 462.86C319.921 462.562 320.678 462.835 320.977 463.47C321.278 464.107 321.005 464.867 320.367 465.166C317.511 466.507 312.995 467.122 308.65 467.122ZM346.097 445.495C347.112 445.059 347.586 443.883 347.15 442.866C346.714 441.848 345.531 441.379 344.521 441.813C314.773 454.542 271.229 442.675 270.795 442.557C269.732 442.262 268.623 442.881 268.327 443.95C268.031 445.016 268.653 446.12 269.719 446.418C270.9 446.744 289.334 451.773 310.606 451.773C322.387 451.771 335.03 450.23 346.097 445.495Z" fill="#C46C4A"/>
<path d="M211.258 309.619C214.228 306.763 233.281 303.141 244.279 304.592C261.68 306.886 275.771 322.24 275.771 322.24C275.771 322.24 264.056 329.709 242.801 330.864C228.799 331.627 214.717 322.584 211.258 309.619Z" fill="url(#paint4_radial)"/>
<path d="M259.267 316.991C259.267 325.016 252.758 331.523 244.732 331.523C236.706 331.523 230.197 325.016 230.197 316.991C230.197 308.958 236.706 302.453 244.732 302.453C252.758 302.453 259.267 308.96 259.267 316.991Z" fill="#5E4B30"/>
<path d="M236.282 323.786C238.402 323.611 236.525 323.044 236.525 323.044C235.476 322.48 233.501 321.61 233.501 320.813C233.501 318.316 236.927 317.667 233.419 316.683C229.775 313.34 236.246 313.408 236.197 313.296C233.836 307.54 236.922 310.702 238.22 309.001C243.036 302.705 239.562 309.648 242.176 309.001C243.123 308.769 240.287 305.292 242.259 305.779C243.564 306.099 243.862 307.184 243.862 307.184C244.814 306.998 246.304 305.532 246.304 305.532C248.119 306.08 249.393 308.657 248.831 308.175C249.722 308.066 250.972 307.64 251.946 307.349C251.946 307.349 252.116 306.77 252.283 307.269C254.504 313.715 260.238 313.253 253.637 315.118C253.637 315.118 253.211 315.118 254.562 316.189C261.127 321.431 249.47 319.81 255.655 322.221C255.907 321.969 251.949 324.559 251.949 325.276C251.949 326.489 249.424 329.68 247.234 328.425C246.013 327.727 245.827 329.878 245.11 328.885C243.702 326.94 240.89 328.8 241.929 327.013C243.465 325.75 240.345 327.507 239.739 327.507C237.733 327.507 242.363 320.765 249.172 325.775C251.164 327.233 247.079 322.303 250.686 322.303C251.047 322.422 250.938 321.041 250.938 320.651C249.063 320.285 254.306 320.644 254.306 317.594C254.638 317.659 255.539 316.746 250.345 317.594C250.345 317.594 250.18 315.777 250.263 315.448C250.529 314.386 253.203 314.726 252.452 313.631C252.452 313.628 250.517 309.745 250.517 309.745C244.284 308.742 247.847 308.117 243.949 308.919C243.765 309.835 235.604 313.725 235.863 315.53C236.105 317.23 240.987 317.802 236.367 320.816C243.291 334.072 231.256 320.513 236.282 323.786Z" fill="#6D5C43"/>
<path d="M244.732 304.27L245.146 314.912L249.596 305.239L245.907 315.227L253.724 307.996L246.493 315.811L256.483 312.121L246.813 316.576L257.452 316.988L246.813 317.4L256.483 321.855L246.493 318.165L253.724 325.98L245.907 318.749L249.596 328.737L245.146 319.064L244.732 329.706L244.318 319.064L239.865 328.737L243.552 318.749L235.737 325.98L242.968 318.165L232.978 321.855L242.648 317.4L232.014 316.988L242.648 316.576L232.978 312.121L242.968 315.811L235.737 307.996L243.552 315.227L239.865 305.239L244.318 314.912L244.732 304.27Z" fill="#3F2D14"/>
<path d="M246.66 307.463L245.354 315.493L250.153 308.926L245.875 315.847L252.828 311.613L246.226 316.37L254.267 315.123L246.35 316.99L254.262 318.914L246.226 317.611L252.796 322.412L245.873 318.136L250.107 325.086L245.349 318.485L246.599 326.525L244.732 318.604L242.806 326.511L244.112 318.48L239.305 325.048L243.588 318.127L236.638 322.361L243.239 317.603L235.199 318.853L243.118 316.986L235.211 315.065L243.242 316.365L236.672 311.564L243.596 315.84L239.363 308.89L244.121 315.491L242.871 307.453L244.741 315.375L246.66 307.463Z" fill="#30200A"/>
<path opacity="0.9" d="M250.182 316.991C250.182 320.002 247.741 322.441 244.732 322.441C241.723 322.441 239.281 320.002 239.281 316.991C239.281 313.979 241.723 311.54 244.732 311.54C247.741 311.54 250.182 313.979 250.182 316.991Z" fill="black"/>
<path opacity="0.7" d="M239.007 327.434C238.205 328.238 236.621 327.955 235.47 326.802C234.317 325.651 234.034 324.067 234.838 323.263C235.64 322.461 237.224 322.744 238.375 323.895C239.528 325.048 239.811 326.63 239.007 327.434Z" fill="white"/>
<path opacity="0.9" d="M256.374 314.127C255.173 315.329 252.263 314.37 249.877 311.981C247.489 309.592 246.529 306.683 247.731 305.481C248.932 304.28 251.842 305.239 254.228 307.628C256.617 310.019 257.576 312.926 256.374 314.127Z" fill="white"/>
<path d="M198.418 319.413C198.418 352.863 229.107 370.283 242.023 370.283C266.103 370.283 285.628 352.863 285.628 319.413C285.628 285.961 266.103 258.848 242.023 258.848C217.944 258.848 198.418 285.961 198.418 319.413ZM211.258 309.619C214.228 306.763 233.281 303.141 244.279 304.592C261.68 306.886 275.771 322.24 275.771 322.24C275.771 322.24 264.056 329.709 242.801 330.864C228.799 331.627 214.717 322.584 211.258 309.619Z" fill="#F2BAA4"/>
<path d="M244.08 340.227C266.881 345.612 288.777 336.327 293 319.478C297.21 302.627 282.152 284.606 259.347 279.212C236.541 273.824 214.644 283.109 210.424 299.96C206.214 316.814 221.267 334.832 244.08 340.227ZM211.258 309.619C214.228 306.763 233.28 303.141 244.279 304.592C261.679 306.886 275.771 322.24 275.771 322.24C275.771 322.24 264.056 329.709 242.801 330.864C228.799 331.627 214.717 322.584 211.258 309.619Z" fill="url(#paint5_radial)"/>
<path d="M211.258 309.619C214.228 306.763 233.281 303.141 244.279 304.592C261.68 306.886 275.771 322.24 275.771 322.24C275.771 322.24 264.056 329.709 242.801 330.864C228.799 331.627 214.717 322.584 211.258 309.619Z" fill="url(#paint6_radial)"/>
<path d="M274.727 313.255C258.976 302.957 264.906 305.77 235.41 297.017C243.511 298.228 258.598 302.022 263.77 305.06C266.588 306.644 272.305 311.138 274.727 313.255Z" fill="#C46C4A"/>
<path d="M207.433 309.447C212.149 321.38 231.013 343.267 278.375 322.85C270.873 314.711 251.716 300.774 234.385 300.895C219.867 300.995 211.754 305.52 207.433 309.447ZM211.258 309.902C214.228 307.148 233.281 303.652 244.279 305.055C261.68 307.266 275.771 322.075 275.771 322.075C275.771 322.075 264.056 329.28 242.801 330.394C228.799 331.128 214.717 322.407 211.258 309.902Z" fill="#B49986"/>
<path d="M403.291 309.619C400.321 306.763 381.268 303.141 370.27 304.592C352.87 306.886 338.778 322.24 338.778 322.24C338.778 322.24 350.493 329.709 371.748 330.864C385.75 331.627 399.83 322.584 403.291 309.619Z" fill="url(#paint7_radial)"/>
<path d="M385.319 316.988C385.319 325.021 378.817 331.523 370.784 331.523C362.751 331.523 356.249 325.021 356.249 316.988C356.249 308.955 362.751 302.453 370.784 302.453C378.817 302.453 385.319 308.955 385.319 316.988Z" fill="#5E4B30"/>
<path d="M362.325 323.788C364.454 323.604 362.579 323.049 362.579 323.049C361.528 322.482 359.541 321.615 359.541 320.806C359.541 318.308 362.976 317.669 359.486 316.676C355.823 313.34 362.296 313.41 362.24 313.296C359.883 307.533 362.979 310.699 364.284 308.996C369.081 302.708 365.619 309.65 368.231 308.996C369.168 308.769 366.329 305.292 368.316 305.774C369.621 306.102 369.905 307.18 369.905 307.18C370.869 306.995 372.347 305.532 372.347 305.532C374.163 306.072 375.44 308.655 374.873 308.173C375.782 308.059 377.032 307.633 377.996 307.349C377.996 307.349 378.165 306.768 378.337 307.264C380.552 313.708 386.286 313.255 379.701 315.113C379.701 315.113 379.275 315.113 380.61 316.177C387.167 321.429 375.527 319.796 381.717 322.209C381.971 321.966 377.998 324.551 377.998 325.276C377.998 326.482 375.472 329.675 373.286 328.413C372.066 327.717 371.867 329.876 371.157 328.88C369.767 326.935 366.927 328.795 367.976 327.008C369.51 325.746 366.387 327.504 365.791 327.504C363.776 327.504 368.403 320.762 375.217 325.772C377.204 327.221 373.117 322.294 376.751 322.294C377.092 322.407 377.005 321.031 377.005 320.646C375.103 320.278 380.355 320.632 380.355 317.579C380.697 317.65 381.605 316.741 376.409 317.579C376.409 317.579 376.24 315.762 376.324 315.435C376.579 314.372 379.248 314.711 378.509 313.619L376.579 309.73C370.333 308.737 373.909 308.112 369.992 308.907C369.822 309.83 361.646 313.718 361.901 315.52C362.155 317.223 367.039 317.792 362.412 320.801C369.335 334.079 357.3 320.508 362.325 323.788Z" fill="#6D5C43"/>
<path d="M370.784 304.27L371.21 314.917L375.639 305.237L371.949 315.229L379.784 307.991L372.545 315.813L382.538 312.124L372.858 316.581L383.505 316.993L372.858 317.405L382.538 321.862L372.545 318.173L379.784 325.995L371.949 318.757L375.639 328.749L371.21 319.069L370.784 329.706L370.358 319.059L365.9 328.74L369.59 318.747L361.782 325.985L369.02 318.163L359.028 321.853L368.708 317.395L358.061 316.983L368.708 316.571L359.028 312.114L369.02 315.804L361.782 307.981L369.59 315.22L365.9 305.227L370.358 314.907L370.784 304.27Z" fill="#3F2D14"/>
<path d="M372.715 307.463L371.409 315.496L376.206 308.924L371.918 315.85L378.873 311.605L372.286 316.375L380.319 315.125L372.397 316.986L380.319 318.916L372.286 317.611L378.844 322.407L371.918 318.134L376.147 325.089L371.407 318.488L372.657 326.521L370.784 318.606L368.853 326.513L370.159 318.48L365.362 325.053L369.65 318.127L362.695 322.371L369.282 317.601L361.249 318.851L369.171 316.991L361.249 315.06L369.282 316.365L362.724 311.569L369.65 315.842L365.421 308.887L370.161 315.489L368.911 307.456L370.784 315.377L372.715 307.463Z" fill="#30200A"/>
<path opacity="0.9" d="M376.235 316.988C376.235 319.997 373.793 322.439 370.784 322.439C367.775 322.439 365.333 319.997 365.333 316.988C365.333 313.979 367.775 311.538 370.784 311.538C373.793 311.538 376.235 313.979 376.235 316.988Z" fill="black"/>
<path opacity="0.7" d="M365.05 327.436C364.256 328.231 362.666 327.962 361.53 326.797C360.368 325.646 360.082 324.072 360.905 323.262C361.7 322.468 363.289 322.751 364.425 323.902C365.588 325.05 365.874 326.627 365.05 327.436Z" fill="white"/>
<path opacity="0.9" d="M382.424 314.12C381.232 315.326 378.308 314.374 375.922 311.976C373.539 309.592 372.572 306.68 373.793 305.488C374.985 304.282 377.882 305.234 380.266 307.632C382.679 310.018 383.616 312.928 382.424 314.12Z" fill="white"/>
<path d="M372.526 258.848C348.446 258.848 328.921 285.963 328.921 319.413C328.921 352.863 348.446 370.283 372.526 370.283C389.97 370.283 416.131 352.863 416.131 319.413C416.131 285.961 396.605 258.848 372.526 258.848ZM371.748 330.864C350.493 329.711 338.778 322.24 338.778 322.24C338.778 322.24 352.87 306.886 370.271 304.592C381.269 303.139 400.322 306.763 403.292 309.619C399.83 322.584 385.75 331.627 371.748 330.864Z" fill="#F2BAA4"/>
<path d="M404.122 299.963C399.902 283.112 378.005 273.824 355.2 279.214C332.395 284.609 317.336 302.63 321.547 319.481C325.769 336.329 347.666 345.615 370.467 340.229C393.279 334.832 408.335 316.814 404.122 299.963ZM371.748 330.864C350.493 329.711 338.778 322.24 338.778 322.24C338.778 322.24 352.87 306.886 370.27 304.592C381.268 303.139 400.321 306.763 403.291 309.619C399.83 322.584 385.75 331.627 371.748 330.864Z" fill="url(#paint8_radial)"/>
<path d="M403.291 309.619C400.321 306.763 381.268 303.141 370.27 304.592C352.87 306.886 338.778 322.24 338.778 322.24C338.778 322.24 350.493 329.709 371.748 330.864C385.75 331.627 399.83 322.584 403.291 309.619Z" fill="url(#paint9_radial)"/>
<path d="M339.822 313.255C355.573 302.957 349.643 305.77 379.139 297.017C371.038 298.228 355.951 302.022 350.779 305.06C347.959 306.644 342.244 311.138 339.822 313.255Z" fill="#C46C4A"/>
<path d="M380.164 300.893C362.833 300.772 343.674 314.708 336.174 322.848C383.536 343.265 402.4 321.378 407.117 309.444C402.795 305.52 394.68 300.995 380.164 300.893ZM371.748 330.394C350.493 329.282 338.778 322.075 338.778 322.075C338.778 322.075 352.87 307.266 370.27 305.055C381.269 303.652 400.322 307.148 403.292 309.902C399.83 322.407 385.75 331.128 371.748 330.394Z" fill="#B49986"/>
<path d="M412.333 395.847C412.422 453.533 365.688 500.381 307.941 500.46C250.204 500.555 203.32 453.864 203.231 396.165C203.141 338.484 249.875 291.452 307.62 291.36C365.359 291.271 412.249 338.153 412.333 395.847Z" fill="url(#paint10_radial)"/>
<path d="M403.408 242.911C403.408 295.724 360.596 338.536 307.786 338.536C254.973 338.536 212.158 295.724 212.158 242.911C212.158 190.098 254.973 147.286 307.786 147.286C360.596 147.286 403.408 190.098 403.408 242.911Z" fill="url(#paint11_radial)"/>
<path d="M243.499 286.438C232.16 285.968 190.042 299.433 190.042 299.433C190.042 299.433 231.638 279.483 249.548 281.051C262.882 282.216 287.028 291.569 283.102 297.606C279.943 302.467 268.122 287.462 243.499 286.438Z" fill="#2A232B"/>
<path d="M334.702 306.14C329.608 300.916 351.796 287.661 366.684 284.43C384.481 280.57 425.974 287.131 425.974 287.131C425.974 287.131 384.902 285.779 373.757 288.589C349.321 294.751 338.802 310.346 334.702 306.14Z" fill="#2A232B"/>
<path d="M307.117 412.126C304.68 412.126 302.083 412.142 299.831 411.132C297.424 410.048 295.82 409.614 293.328 408.717C290.92 407.85 288.026 409.965 285.616 410.166C283.667 410.326 281.442 409.767 280.253 408.241C276.24 403.108 281.019 399.951 281.019 399.951C281.019 399.951 279.458 403.555 280.451 405.151C281.306 406.514 282.564 407.627 284.117 407.997C286.709 408.626 289.175 406.722 291.718 406.524C294.562 406.302 296.626 406.251 298.685 407.914C300.739 409.571 302.985 409.887 305.598 410.021C308.024 410.152 310.571 410.257 312.849 409.317C314.839 408.506 316.504 407.081 318.37 406.034C322.338 403.809 325.457 406.602 329.6 407.729C332.914 408.634 336.494 405.427 335.196 401.772C334.454 399.691 334.574 398.452 334.574 398.452C334.574 398.452 337.737 399.884 337.546 403.416C337.308 407.812 333.474 410.897 329.147 409.737C327.021 409.175 324.729 407.574 322.472 407.981C320.177 408.391 318.41 408.393 316.504 409.646C313.623 411.542 310.571 412.126 307.117 412.126Z" fill="#C46C4A"/>
<path d="M289.871 385.918C289.871 385.918 298.56 373.821 306.453 373.674C313.762 373.54 323.385 384.298 323.385 384.298C323.385 384.298 314.52 380.585 305.746 381.203C297.914 381.752 289.871 385.918 289.871 385.918Z" fill="#EAAC93"/>
<path d="M442.89 356.653C431.254 324.944 444.718 276.313 421.967 240.335C411.604 223.092 402.595 211.242 404.244 191.181L403.306 190.865C401.108 194.312 398.221 198.056 396.306 200.453C397.395 197.671 399.17 193.41 400.776 190.194L399.93 189.638C393.338 197.474 387.677 201.493 379.889 203.663C388.304 197.747 397.609 187.453 401.682 181.746L400.991 181.022C372.127 199.593 339.372 199.846 310.476 200.073C284.397 200.267 268.199 199.678 249.396 188.748C235.827 193.246 225.143 192.673 213.4 184.579C176.644 255.844 192.975 220.169 171.001 352.277C158.241 335.269 154.533 324.452 151.514 308.246C150.716 303.077 149.936 295.104 150.42 289.848L150.259 289.682C138.907 264.769 133.549 250.583 136.247 201.167C138.249 180.665 142.706 165.273 155.561 149.152C153.865 140.393 153.702 131.562 154.855 123.116C148.123 110.808 143.489 98.1391 141.684 93.6129C151.088 100.812 151.866 101.227 159.712 103.703C161.508 98.7639 164.124 93.8577 165.799 91.2975C166.557 97.0044 167.158 100.86 168.867 106.406C169.448 106.546 172.215 107.296 173.1 107.533C172.592 104.157 172.128 102.591 172.2 99.5646C173.656 102.885 174.885 103.655 179.11 108.811C183.787 109.793 182.665 109.647 184.067 109.647C177.261 98.9806 172.669 89.5406 171.504 75.1841C180.819 80.4906 193.852 83.5226 207.461 83.5226C239.435 83.5226 272.152 59.522 317.542 59.522C356.876 59.522 390.908 81.3449 405.984 106.195C405.968 99.7839 405.695 94.4799 408.008 87.8907C408.008 87.8907 408.276 97.3384 408.276 104.7L409.286 104.795C410.867 96.3771 414.202 89.2014 419.71 82.4235C414.819 95.5764 416.681 88.5537 411.209 104.614L412.096 105.09C415.745 100.401 418.734 97.086 427.444 92.6924C421.151 98.9985 416.339 102.612 413.363 107.072L414.131 107.732C417.844 104.366 421.707 103.091 425.636 106.169C419.31 103.869 415.574 107.901 411.234 112.99C428.112 115.772 437.269 125.511 449.137 138.529C476.453 170.026 483.646 200.777 468.831 244.369C475.04 257.789 474.084 288.038 460.225 312.418C460.219 326.724 450.433 344.375 442.89 356.653Z" fill="#2A232B"/>
<path d="M211.646 182.659C212.561 183.511 213.477 184.362 214.385 185.219C214.056 185.002 213.727 184.801 213.395 184.574C176.639 255.839 192.97 220.164 170.996 352.272C158.236 335.264 154.528 324.447 151.509 308.241C150.711 303.072 149.931 295.099 150.415 289.843L150.255 289.677C138.902 264.764 133.544 250.578 136.242 201.162C138.244 180.66 142.702 165.268 155.556 149.147C153.888 140.533 153.72 131.853 154.809 123.535C156.331 125.763 157.928 127.933 159.56 130.075C160.659 136.767 161.589 143.292 159.883 148.563C135.559 223.732 149.683 258.213 164.983 311.763C158.7 271.139 146.771 219.491 179.312 189.363C165.412 222.758 169.25 237.9 172.633 260.763C174.972 230.372 185.881 202.103 211.646 182.659ZM449.135 138.516C448.176 137.465 447.243 136.445 446.315 135.438C445.34 136.088 444.341 136.685 443.359 137.317C481.497 215.503 444.874 207.996 453.602 242.91C463.8 268.41 450.583 283.713 450.583 309.213C450.583 270.963 448.847 244.343 427.735 214.417C420.605 204.311 418.604 169.988 413.799 153.028C354.634 189.363 266.988 196.964 174.969 123.53C218.319 138.83 306.674 126.972 337.004 107.424C302.431 113.699 230.256 114.074 197.799 100.715C275.574 94.6713 274.633 69.7068 340.933 65.0148C309.058 53.1139 239.433 83.5125 207.461 83.5125C193.854 83.5125 180.821 80.4831 171.504 75.174C172.669 89.5305 177.262 98.9731 184.068 109.637C182.663 109.637 183.787 109.783 179.11 108.801C174.882 103.645 173.653 102.872 172.2 99.5545C172.126 102.581 172.593 104.147 173.1 107.523C172.215 107.286 169.446 106.536 168.867 106.396C167.159 100.85 166.557 96.9943 165.799 91.2874C164.127 93.8476 161.508 98.7538 159.713 103.693C151.864 101.217 151.088 100.801 141.684 93.6028C143.489 98.1291 148.123 110.8 154.855 123.106C154.837 123.247 154.832 123.389 154.814 123.53C170.892 147.079 193.495 165.531 214.39 185.219C225.747 192.675 236.212 193.114 249.399 188.743C268.202 199.673 284.402 200.262 310.479 200.068C339.375 199.843 372.13 199.588 400.993 181.017L401.684 181.741C397.612 187.448 388.307 197.742 379.892 203.658C387.682 201.486 393.341 197.467 399.933 189.633L400.779 190.189C399.173 193.407 397.398 197.666 396.309 200.448C398.224 198.051 401.111 194.307 403.309 190.86L404.247 191.176C402.6 211.239 411.607 223.087 421.97 240.33C444.721 276.308 431.259 324.941 442.892 356.648C450.435 344.37 460.222 326.721 460.222 312.4C474.081 288.02 475.038 257.772 468.828 244.351C483.644 200.764 476.45 170.014 449.135 138.516ZM451.004 203.921C450.162 179.635 434.09 148.81 434.09 148.81C426.578 135.54 419.863 129.208 408.6 126.638C440.286 128.216 452.73 175.544 451.361 200.269C451.231 202.564 451.004 203.921 451.004 203.921ZM378.946 101.37C387.318 108.161 389.317 110.099 397.551 121.538C355.086 45.3212 271.752 103 245.4 101.138C272.188 106.674 332.755 67.4985 378.946 101.37ZM400.524 134.5C349.624 176.697 271.902 158.822 208.333 138.898C271.642 167.894 352.243 183.585 400.524 134.5ZM200.349 180.4C183.675 189.133 175.829 211.127 175.104 225.662C178.218 213.119 187.561 190.105 200.349 180.4ZM179.312 168.287C155.446 182.82 150.818 216.153 153.174 244.15C155.684 218.288 160.345 184.543 179.312 168.287ZM351.296 136.68C348.731 137.228 332.786 139.414 324.083 139.727C317.297 140.122 290.839 140.564 266.986 139.605C291.606 144.881 306.394 145.862 324.351 144.82C345.021 144.072 363.519 139.98 378.847 127.49C368.047 133.434 363.445 134.28 351.296 136.68ZM436.836 204.37C436.836 204.37 436.183 203.245 435.337 201.56C433.014 197.666 430.377 187.073 420.195 153.783C427.758 215.48 440.128 204.227 445.672 236.104C445.674 224.64 444.874 218.762 436.836 204.37Z" fill="#1B141C"/>
<path d="M455.308 278.947C456.237 270.67 455.862 274.464 455.964 269.742C456.744 253.82 447.227 240.47 453.021 221.325C457.749 207.42 460.48 205.24 458.409 181.032C458.106 177.539 457.201 168.859 455.599 165.737C457.782 169.534 459.225 176.562 459.998 180.869C464.3 205.204 460.681 208.899 456.119 222.35C450.025 242.673 461.722 251.639 455.308 278.947ZM413.8 153.028C416.648 230.472 432.353 212.484 446.228 259.496C436.808 204.044 428.095 250.017 413.8 153.028ZM176.124 192.512C152.69 221.998 155.056 243.255 160.824 286.862C160.304 242.722 154.924 225.968 176.124 192.512ZM159.302 150.384C145.853 191.997 142.908 210.778 149.365 255.661C148.169 210.663 148.454 200.731 159.302 150.384ZM210.761 183.348C186.205 200.991 173.386 233.267 172.633 260.763C176.413 234.485 190.514 201.341 210.761 183.348ZM381.364 167.928C350.634 179.242 300.613 182.272 264.094 171.299C235.634 162.999 191.195 135.107 167.291 117.568C188.961 134.819 227.142 160.426 253.802 170.547C281.503 180.897 324.914 184.743 358.559 176.272C382.141 170.345 394.363 164.746 413.8 153.031C405.147 157.774 392.402 164.48 381.364 167.928ZM314.957 75.6486C345.982 69.8218 382.554 89.8215 401.802 113.465C381.664 84.6042 348.667 70.2451 328.969 69.9034C296.637 69.3424 263.192 97.0431 197.799 99.4375C259.287 102.146 288.845 79.8765 314.957 75.6486ZM339.324 108.363C295.237 124.027 261.192 127.776 214.867 130.241C262.712 133.187 296.918 128.546 339.324 108.363ZM385.65 117.295C358.462 130.114 346.559 132.215 290.441 135.632C325.623 137.053 358.49 135.224 385.65 117.295ZM295.666 156.272C322.808 159.426 370.353 156.004 394.149 131.312C365.411 155.522 312.246 154.655 270.78 153.008C286.652 155.484 283.788 155.071 295.666 156.272ZM411.999 132.587C431.453 139.75 436.196 173.88 443.874 201.437C440.439 177.011 434.572 137.886 411.999 132.587Z" fill="#3A353A"/>
<path d="M449.51 138.172C438.422 126.011 428.467 115.298 412.203 112.621C417.543 106.34 421.296 104.004 428.141 107.903C424.086 103.132 419.427 102.227 413.784 107.342C417.025 102.485 422.628 98.5193 429.849 90.9458C419.06 96.0076 415.816 99.4628 411.693 104.767C417.52 87.6742 415.008 96.7904 421.179 79.9043C414.73 87.1361 410.607 95.0003 408.789 104.69C408.789 89.6377 408.317 91.5833 408.61 85.0043C405.073 92.8813 405.476 99.8198 405.476 104.359C399.782 94.9697 391.416 87.0188 382.396 80.5163C318.509 33.8794 254.797 76.8035 220.267 81.9953C206.27 84.3592 185.297 82.8572 170.925 74.2433C171.94 88.9415 176.491 98.7029 183.139 109.127C183.137 109.127 179.391 108.337 179.391 108.337C174.242 102.13 173.745 102.329 171.843 97.2953C171.356 101.791 172.1 104.282 172.48 106.832C171.21 106.501 170.04 106.149 169.267 105.965C167.373 99.8096 166.824 95.1278 166.131 89.9258C164.565 91.9276 161.23 98.0348 159.399 103.058C151.751 100.641 151.203 100.256 140.452 92.0168C141.727 94.5668 146.34 108.492 154.324 123.203C153.126 132.215 153.488 141.206 155.013 149.009C142.199 165.105 137.749 180.492 135.735 201.131C133.08 249.732 137.946 263.889 149.836 289.922C149.862 289.948 149.862 289.999 149.887 290.024C149.436 295.05 150.191 303.034 151.009 308.333C154.016 324.48 157.703 335.6 171.18 353.341C171.231 353.392 171.256 353.468 171.307 353.519C179.965 301.581 179.072 300.308 180.921 287.5C190.029 221.934 189.634 231.726 213.586 185.321C223.309 192.023 234.076 194.379 249.337 189.299C260.409 195.735 271.716 200.647 303.04 200.647C334.076 200.259 369.789 201.697 401.266 181.445C396.498 188.131 385.665 199.688 377.143 204.854C386.015 202.977 392.379 199.405 400.323 189.962C397.882 194.846 395.011 202.238 394.789 203.12C395.172 202.661 400.272 196.567 403.74 191.135C402.075 211.395 411.119 223.258 421.539 240.605C444.376 276.721 430.492 326.084 442.78 357.803C450.66 345.063 460.732 326.984 460.732 312.541C474.018 289.371 475.92 258.708 469.377 244.328C482.68 204.469 479.992 173.318 449.51 138.172ZM172.095 98.9273C173.34 102.469 173.613 102.393 178.445 108.133C176.048 107.636 174.454 107.286 173.013 106.96C172.455 104.267 172.095 101.707 172.095 98.9273ZM165.695 92.1443C165.934 96.0509 166.865 101.176 168.219 105.685C160.914 103.805 163.629 104.4 161.079 103.645C163.178 97.3361 163.968 95.7398 165.695 92.1443ZM170.081 347.705C159.33 328.312 156.507 321.718 153.531 302.086C153.241 299.826 152.328 293.298 152.282 290.177C136.803 254.783 130.984 187.575 155.367 150.59C155.367 150.565 155.367 150.565 155.367 150.565C155.367 150.565 156.385 148.974 158.223 146.689C157.542 143.262 156.869 136.03 157.101 128.125C158.988 131.491 161.13 134.551 163.043 137.483C163.043 137.476 164.547 139.475 164.547 139.523C176.152 154.288 186.87 166.563 212.793 184.786C181.671 235.209 183.601 218.178 170.081 347.705ZM470.063 228.138C469.155 234.151 467.199 242.375 466.138 245.963C473.227 263.986 465.483 298.026 458.333 313.232C455.206 331.319 451.843 334.96 443.007 352.986C436.691 324.936 449.594 275.163 425.769 238.032C410.319 212.42 403.694 209.064 407.333 177.419C407.333 177.419 407.488 175.698 407.537 175.251C375.335 194.94 339.768 197.166 292.863 196.161C279.305 196.161 260.988 194.458 249.564 187.389C226.408 193.976 217.817 183.725 198.539 168.672C177.723 150.983 163.581 135.538 146.136 99.1339C155.936 107.085 175.556 111.091 187.931 113.159C179.585 102.033 174.673 91.8689 172.452 77.4589C181.326 83.3749 202.593 89.1965 221.336 87.1234C255.847 83.8823 304.17 48.4476 363.549 75.3169C391.099 87.4727 405.078 104.581 408.353 113.567C408.378 113.567 408.404 113.592 408.455 113.592C408.608 113.643 408.761 113.669 408.937 113.694C408.98 113.74 409.783 113.924 409.855 113.924C427.643 119.853 428.834 120.959 446.065 141.056C455.749 152.936 479.062 176.654 470.063 228.138Z" fill="black"/>
</g>
<defs>
<linearGradient id="paint0_linear" x1="300" y1="-75" x2="300" y2="675" gradientUnits="userSpaceOnUse">
<stop stop-color="#151371"/>
<stop offset="0.453125" stop-color="#FF00B8"/>
<stop offset="0.96875" stop-color="#FFC700"/>
</linearGradient>
<linearGradient id="paint1_linear" x1="439" y1="245" x2="439" y2="644" gradientUnits="userSpaceOnUse">
<stop stop-color="#FF00B8"/>
<stop offset="1" stop-color="#F0DB0A" stop-opacity="0"/>
</linearGradient>
<linearGradient id="paint2_linear" x1="194" y1="161" x2="194" y2="560" gradientUnits="userSpaceOnUse">
<stop stop-color="#FF00B8"/>
<stop offset="1" stop-color="#F0DB0A" stop-opacity="0"/>
</linearGradient>
<linearGradient id="paint3_linear" x1="307.783" y1="541.263" x2="307.783" y2="429.063" gradientUnits="userSpaceOnUse">
<stop stop-color="#E39E83" stop-opacity="0.8"/>
<stop offset="0.7" stop-color="#C46C4A"/>
</linearGradient>
<radialGradient id="paint4_radial" cx="0" cy="0" r="1" gradientUnits="userSpaceOnUse" gradientTransform="translate(242.133 316.749) rotate(177.003) scale(33.6843 36.7699)">
<stop stop-color="white"/>
<stop offset="0.544" stop-color="#FDFEFE"/>
<stop offset="0.74" stop-color="#F6F8F9"/>
<stop offset="0.879" stop-color="#EAEFF2"/>
<stop offset="0.992" stop-color="#D9E3E8"/>
<stop offset="1" stop-color="#D8E2E7"/>
</radialGradient>
<radialGradient id="paint5_radial" cx="0" cy="0" r="1" gradientUnits="userSpaceOnUse" gradientTransform="translate(251.934 308.448) rotate(8.11147) scale(40.9743 31.4885)">
<stop stop-color="#E39E83"/>
<stop offset="0.7" stop-color="#E39E83" stop-opacity="0.3"/>
<stop offset="1" stop-color="#F2BAA4" stop-opacity="0"/>
</radialGradient>
<radialGradient id="paint6_radial" cx="0" cy="0" r="1" gradientUnits="userSpaceOnUse" gradientTransform="translate(235.554 381.408) scale(73.8899)">
<stop offset="0.95" stop-opacity="0"/>
<stop offset="1" stop-opacity="0.2"/>
</radialGradient>
<radialGradient id="paint7_radial" cx="0" cy="0" r="1" gradientUnits="userSpaceOnUse" gradientTransform="translate(372.416 316.752) rotate(2.99733) scale(33.6843 36.7699)">
<stop stop-color="white"/>
<stop offset="0.544" stop-color="#FDFEFE"/>
<stop offset="0.74" stop-color="#F6F8F9"/>
<stop offset="0.879" stop-color="#EAEFF2"/>
<stop offset="0.992" stop-color="#D9E3E8"/>
<stop offset="1" stop-color="#D8E2E7"/>
</radialGradient>
<radialGradient id="paint8_radial" cx="0" cy="0" r="1" gradientUnits="userSpaceOnUse" gradientTransform="translate(362.613 308.449) rotate(171.889) scale(40.9743 31.4885)">
<stop stop-color="#E39E83"/>
<stop offset="0.7" stop-color="#E39E83" stop-opacity="0.3"/>
<stop offset="1" stop-color="#F2BAA4" stop-opacity="0"/>
</radialGradient>
<radialGradient id="paint9_radial" cx="0" cy="0" r="1" gradientUnits="userSpaceOnUse" gradientTransform="translate(378.993 381.408) rotate(180) scale(73.8899)">
<stop offset="0.95" stop-opacity="0"/>
<stop offset="1" stop-opacity="0.2"/>
</radialGradient>
<radialGradient id="paint10_radial" cx="0" cy="0" r="1" gradientUnits="userSpaceOnUse" gradientTransform="translate(307.783 395.913) scale(104.55)">
<stop stop-color="#FFD6C6" stop-opacity="0.5"/>
<stop offset="0.9" stop-color="#F2BAA4" stop-opacity="0"/>
</radialGradient>
<radialGradient id="paint11_radial" cx="0" cy="0" r="1" gradientUnits="userSpaceOnUse" gradientTransform="translate(307.783 242.913) scale(94.3499)">
<stop stop-color="#FFD6C6" stop-opacity="0.5"/>
<stop offset="0.9" stop-color="#F2BAA4" stop-opacity="0"/>
</radialGradient>
<clipPath id="clip0">
<rect width="600" height="600" fill="white"/>
</clipPath>
</defs>
</svg>
