<svg width="600" height="600" viewBox="0 0 600 600" fill="none" xmlns="http://www.w3.org/2000/svg">
<g clip-path="url(#clip0)">
<path d="M675 675H-75V-75H675V675Z" fill="url(#paint0_linear)"/>
<path d="M360.996 403.874H308.184V356.576H360.996V403.874ZM414.113 320.069H340.054V380.225H414.113V320.069ZM377.082 441.95H442.881V362.639H377.082V441.95ZM400.757 434.192H334.59V491.191H400.757V434.192ZM580.44 284.416H490.23V387.501H580.44V284.416ZM478.458 331.108H456.605V356.576H478.458V331.108ZM544.531 252.277H456.605V304.426H544.531V252.277ZM442.881 270.468H395.532V335.958H442.881V270.468ZM334.59 275.32H308.184V303.213H334.59V275.32ZM299.325 320.069H258.501V382.71H299.325V320.069ZM347.338 441.95H275.708V521.511H347.338V441.95ZM308.184 576.086H388.617V528.788H308.184V576.086ZM500.311 557.894H443.791V599.129H500.313V557.894H500.311ZM637.361 516.659H585.062V578.511H637.361V516.659ZM551.302 544.718H506.381V585.953H551.302V544.718ZM594.357 463.296H528.843V537.278H594.357V463.296ZM610.791 590.639H528.843V644H610.791V590.639ZM340.054 557.894H251.187V637.937H340.052V557.894H340.054ZM630.216 356.576H569.818V403.874H630.216V356.576ZM594.357 424.49H568.208V451.477H594.357V424.49ZM251.187 474.697H300.975V404.294H251.187V474.697ZM321.764 249.852L232 252.277V320.069H321.764V249.852ZM646 252.277H587.725V326.256H646V252.277ZM371.858 245H347.338V298.361H371.858V245ZM641.143 437.983H581.281V486.494H641.143V437.983Z" fill="url(#paint1_linear)" stroke="#FFC700" stroke-width="1.5"/>
<path d="M115.996 319.874H63.1843V272.576H115.996V319.874ZM169.113 236.069H95.0537V296.225H169.113V236.069ZM132.082 357.95H197.881V278.639H132.082V357.95ZM155.757 350.192H89.5904V407.191H155.757V350.192ZM335.44 200.416H245.23V303.501H335.44V200.416ZM233.458 247.108H211.605V272.576H233.458V247.108ZM299.531 168.277H211.605V220.426H299.531V168.277ZM197.881 186.468H150.532V251.958H197.881V186.468ZM89.5904 191.32H63.1843V219.213H89.5904V191.32ZM54.3246 236.069H13.5008V298.71H54.3246V236.069ZM102.338 357.95H30.7084V437.511H102.338V357.95ZM63.1843 492.086H143.617V444.788H63.1843V492.086ZM255.311 473.894H198.791V515.129H255.313V473.894H255.311ZM392.361 432.659H340.062V494.511H392.361V432.659ZM306.302 460.718H261.381V501.953H306.302V460.718ZM349.357 379.296H283.843V453.278H349.357V379.296ZM365.791 506.639H283.843V560H365.791V506.639ZM95.0537 473.894H6.18721V553.937H95.0519V473.894H95.0537ZM385.216 272.576H324.818V319.874H385.216V272.576ZM349.357 340.49H323.208V367.477H349.357V340.49ZM6.18721 390.697H55.9745V320.294H6.18721V390.697ZM76.7643 165.852L-13 168.277V236.069H76.7643V165.852ZM401 168.277H342.725V242.256H401V168.277ZM126.858 161H102.338V214.361H126.858V161ZM396.143 353.983H336.281V402.494H396.143V353.983Z" fill="url(#paint2_linear)" stroke="#FFC700" stroke-width="1.5"/>
<rect x="504" y="328.705" width="8.86149" height="25.1423" fill="white"/>
<rect x="521.754" y="328.858" width="8.83104" height="25.1423" fill="white"/>
<rect x="512.861" y="320" width="8.89195" height="8.85765" fill="white"/>
<rect x="539.415" y="328.858" width="8.89195" height="25.1423" fill="white"/>
<rect x="530.585" y="320" width="8.83105" height="8.85765" fill="white"/>
<rect x="548.308" y="320" width="8.86149" height="8.85765" fill="white"/>
<rect x="557.169" y="327.792" width="8.83104" height="8.85766" fill="white"/>
<rect x="548.308" y="336.65" width="8.86149" height="8.82721" fill="white"/>
<rect x="40" y="390.425" width="7.57515" height="21.4449" fill="white"/>
<rect x="55.1768" y="390.555" width="7.54912" height="21.4449" fill="white"/>
<rect x="47.5752" y="383" width="7.60118" height="7.55506" fill="white"/>
<rect x="70.2744" y="390.555" width="7.60118" height="21.4449" fill="white"/>
<rect x="62.7256" y="383" width="7.54912" height="7.55506" fill="white"/>
<rect x="77.876" y="383" width="7.57515" height="7.55506" fill="white"/>
<rect x="85.4512" y="389.646" width="7.54912" height="7.55506" fill="white"/>
<rect x="77.876" y="397.201" width="7.57515" height="7.52909" fill="white"/>
<path d="M174.312 581.198C174.243 581.107 174.181 581.004 174.115 580.908C182.136 577.971 397.819 596.238 412.418 594.007C412.416 594.231 412.404 594.457 412.404 594.681C412.988 594.548 412.901 594.525 412.93 593.937C413.466 593.87 415.107 593.591 412.986 592.99C420.205 461.509 503.214 482.503 455.514 362.327C444.228 334.285 445.069 307.926 442.345 275.076C438.533 278.798 439.78 298.083 435.117 333.755C470.497 444.642 440.118 439.918 411.287 493.006C401.749 510.547 394.103 528.421 392.454 548.216C345.483 466.991 359.204 468.814 377.991 419.612C374.76 424.172 361.63 433.94 349.591 436.237C379.031 413.87 396.582 413.799 397.198 277.325C370.202 264.833 345.643 241.612 330.491 215.59C310.86 256.298 276.046 273.338 231.57 280.101C220.486 285.736 208.947 290.46 197.284 294.769C196.298 352.11 211.274 391.264 241.327 432.823C230.78 425.272 220.002 412.834 212.407 402.25C221.522 420.503 235.079 435.611 231.383 468.267C227.298 504.133 192.791 528.562 192.791 574.691C159.097 522.096 147.728 544.377 155.545 487.036C142.748 464.65 136.527 449.452 131.348 433.217C130.094 433.206 128.079 433.503 126.929 433.639C112.274 488.863 133.264 529.888 174.312 581.198Z" fill="#1B141C"/>
<path d="M383.982 607.262H197.534V336.69H383.982V607.262Z" fill="#0C080C"/>
<path d="M412.987 592.99C420.207 461.509 503.216 482.503 455.516 362.327C446.573 340.107 445.245 318.934 443.724 294.76C443.283 294.76 442.84 294.76 442.396 294.76C443.105 318.344 443.515 339.326 450.441 359.532C493.833 486.731 413.841 460.73 412.44 592.872C403.278 591.625 182.252 577.865 174.114 580.908C144.985 538.094 123.465 496.321 127.952 449.624C126.568 448.393 125.408 446.937 124.308 445.423C115.429 494.856 136.234 533.604 174.311 581.2C174.243 581.109 174.181 581.006 174.114 580.91C182.136 577.973 397.819 596.24 412.418 594.009C412.416 594.233 412.403 594.459 412.403 594.683C412.987 594.55 412.9 594.527 412.929 593.939C413.468 593.87 415.109 593.591 412.987 592.99Z" fill="black"/>
<path d="M484.186 549.295C471.74 528.251 456.273 524.491 443.524 520.424C430.425 516.248 403.446 513.841 388.731 510.895C374.52 508.051 340.766 498.902 340.381 482.953C339.983 466.243 349.271 399.9 349.271 399.9H242.109C242.109 399.9 251.404 466.241 251.004 482.953C250.623 498.902 216.864 508.051 202.65 510.895C187.933 513.841 160.958 516.248 147.859 520.424C135.106 524.491 119.635 528.249 107.189 549.295C99.6396 562.056 94.7422 582.717 94.7422 605.505H496.641C496.639 582.717 491.75 562.056 484.186 549.295Z" fill="#F3D4CF"/>
<path d="M340.381 482.955C345.55 505.596 378.012 511.332 394.851 514.703C440.238 523.774 464.814 525.338 482.475 555.18C488.489 565.365 493.784 588.045 494.826 605.217C498.628 605.82 495.926 569.104 484.186 549.295C464.004 515.171 423.924 517.941 388.731 510.897C374.52 508.053 340.766 498.904 340.381 482.955ZM251.541 482.955C251.155 498.904 217.402 508.053 203.191 510.897C167.998 517.941 127.917 515.171 107.736 549.295C95.9955 569.106 93.2941 605.82 97.0956 605.217C98.1376 588.045 103.433 565.365 109.447 555.18C127.105 525.338 151.683 523.774 197.071 514.703C213.909 511.332 246.372 505.594 251.541 482.955Z" fill="#FFF4F3"/>
<path d="M194.877 527.847C194.877 527.847 254.211 528.467 264.221 531.752C269.015 533.323 281.565 543.422 281.565 543.422C281.565 543.422 267.983 536.855 263.629 535.637C253.513 532.811 194.877 527.847 194.877 527.847ZM295.536 549.57C299.789 549.486 311.875 541.7 311.875 541.7C311.875 541.7 300.328 545.966 296.665 546.175C293.576 546.353 283.477 543.61 283.477 543.61C283.477 543.61 292.049 549.639 295.536 549.57ZM331.195 534.568C345.179 530.801 392.901 527.876 392.901 527.876C392.901 527.876 343.615 526.807 329.695 531.45C325.03 533.008 314.03 542.139 314.03 542.139C314.03 542.139 326.592 535.804 331.195 534.568Z" fill="#E4B3AB"/>
<path d="M484.186 549.296C464.006 515.174 423.856 517.927 388.731 510.898C374.52 508.054 340.766 498.905 340.381 482.956C339.983 466.246 349.271 399.903 349.271 399.903H242.109C242.109 399.903 251.404 466.244 251.004 482.956C250.623 498.905 216.864 508.054 202.65 510.898C187.933 513.844 160.958 516.251 147.859 520.428C135.106 524.494 119.635 528.252 107.189 549.298C99.6396 562.059 94.7422 582.72 94.7422 605.508H496.641C496.639 582.718 491.75 562.057 484.186 549.296Z" stroke="#C5796D" stroke-width="4.5"/>
<path d="M296.054 491.022C307.641 491.003 323.996 483.547 339.368 473.537C340.296 459.682 342.925 437.816 345.032 421.443C316.122 417.688 275.137 417.775 246.374 421.661C248.462 437.884 251.052 459.419 251.994 473.224C267.6 483.41 284.298 491.04 296.054 491.022Z" fill="url(#paint3_linear)"/>
<path d="M316.965 609.42C279.957 609.42 236.792 609.277 185.003 608.979L139.21 608.73C111.557 608.581 106.061 608.55 102.685 608.55L93.2109 608.563C93.2772 524.613 134.675 518.79 178.501 512.619C193.563 510.499 209.138 508.305 223.215 502.813C240.876 527.621 268.634 530.969 293.468 530.969C294.85 530.969 296.247 530.957 297.645 530.934C323.888 530.344 354.723 521.044 364.594 501.597C365.866 502.082 367.051 502.642 368.195 503.184C369.481 503.791 370.811 504.421 372.284 504.954C381.917 508.442 393.896 510.091 406.574 511.84C448.03 517.557 499.624 524.669 498.924 605.207C498.93 605.526 498.932 607.479 498.899 608.09C474.698 608.09 458.28 608.324 439.273 608.596C413.491 608.965 381.401 609.42 316.99 609.42C316.977 609.42 316.971 609.42 316.965 609.42Z" fill="#09AAC5"/>
<path d="M498.71 605.505C494.511 594.142 496.722 573.521 484.547 555.18C460.406 518.811 415.515 522.142 374.279 510.352C365.57 528.096 348.922 538.4 329.886 544.306L329.853 544.209C348.531 537.584 364.414 527.499 373.364 510.079C372.326 509.776 371.29 509.474 370.258 509.151L372.239 505.347C422.346 520.758 462.788 509.619 486.256 549.295C493.821 562.056 498.71 582.717 498.71 605.505ZM207.363 512.996C209.988 512.387 212.604 511.738 215.21 511.032L212.451 507.375C164.092 519.861 127.747 511.954 105.662 549.295C98.1001 562.056 93.209 582.717 93.209 605.505C97.4082 594.142 95.1978 573.521 107.373 555.18C129.272 522.188 168.248 521.858 206.078 513.281C219.583 529.913 239.312 541.663 260.774 545.046C233.853 538.023 217.11 525.009 207.363 512.996Z" fill="#1FBAD4"/>
<path d="M362.419 505.676C352.069 521.632 324.007 532.515 292.176 532.515C260.724 532.515 234.779 521.73 222.776 503.665L222.685 503.53L225.243 507.375C222.407 508.579 215.264 510.996 215.264 510.996L212.269 507.143L212.453 507.386C213.014 508.119 213.599 508.91 214.216 509.747C223.246 521.978 238.363 542.448 289.408 542.448C293.887 542.448 298.613 542.284 303.454 541.961C337.228 539.542 359.125 528.788 370.252 509.149C370.138 509.101 365.054 507.013 362.419 505.676Z" fill="#009CB6"/>
<path d="M364.489 501.338C354.046 522.223 320.922 530.205 297.637 530.729C267.318 531.201 240.536 526.915 223.286 502.561C168.661 523.99 93 495.13 93 608.772C112.225 608.772 84.0836 608.643 185.002 609.186C424.018 610.56 423.572 608.295 499.084 608.295C499.139 608.024 499.131 605.486 499.127 605.209C500.039 500.375 414.146 519.886 372.353 504.759C369.513 503.729 367.271 502.376 364.489 501.338ZM222.602 503.781C251.209 546.821 347.313 537.986 364.385 502.619C366.706 503.595 369.233 504.566 371.926 505.519C363.838 522.478 346.497 538.667 303.438 541.752C237.116 546.173 221.794 519.287 212.617 507.259C212.898 507.181 219.776 504.84 222.602 503.781ZM93.29 608.418C98.4691 561.025 103.143 527.17 161.012 517.124C180.885 513.458 191.07 513.107 212.451 507.323C228.761 529.681 245.057 545.686 305.053 543.163C349.324 538.239 364.238 523.236 372.301 505.666C427.241 522.958 495.118 505.31 498.423 607.964C393.877 606.603 292.874 603.883 93.29 608.418Z" fill="#008197"/>
<path d="M418.018 294.267H418.008C417.983 294.377 400.363 378.598 383.372 404.655C370.006 425.152 320.464 466.676 296.28 466.713C272.102 466.754 222.453 425.367 209.024 404.91C191.952 378.906 174.045 294.76 174.02 294.648H174.018C171.329 284.475 169.887 273.795 169.87 262.782C169.76 193.436 226.124 137.148 295.768 137.04C365.419 136.932 421.958 193.043 422.062 262.389C422.08 273.402 420.676 284.083 418.018 294.267Z" fill="#F3D4CF"/>
<path d="M349.612 148.962C389.189 170.192 416.06 211.847 415.986 259.745C415.967 270.758 414.527 281.438 411.836 291.611H411.834C411.809 291.721 393.902 375.869 376.828 401.873C364.51 420.644 321.401 463.032 295.965 463.032C270.527 463.032 227.423 420.642 215.103 401.873C198.028 375.869 180.119 291.723 180.096 291.611H180.094C177.405 281.438 175.963 270.758 175.947 259.745C175.87 211.847 202.743 170.192 242.316 148.962C199.445 169.061 169.79 212.475 169.868 262.782C169.885 273.795 171.327 284.475 174.016 294.649H174.018C174.045 294.76 191.952 378.906 209.027 404.91C218.175 418.848 246.571 447.368 268.483 458.321C267.387 457.853 266.283 457.355 265.17 456.835C276.374 462.791 287.262 466.703 295.65 466.713C295.752 466.713 295.864 466.703 295.965 466.703C296.067 466.703 296.179 466.713 296.28 466.713C304.666 466.703 315.555 462.791 326.76 456.835C325.646 457.357 324.541 457.853 323.443 458.321C345.355 447.37 373.753 418.846 382.902 404.91C399.974 378.906 417.885 294.76 417.906 294.649H417.91C420.599 284.475 422.041 273.795 422.058 262.782C422.141 212.475 392.489 169.061 349.612 148.962Z" fill="#EBC3BD"/>
<path d="M418.018 294.267H418.008C417.983 294.377 400.363 378.598 383.372 404.655C370.006 425.152 320.464 466.676 296.28 466.713C272.102 466.754 222.453 425.367 209.024 404.91C191.952 378.906 174.045 294.76 174.02 294.648H174.018C171.329 284.475 169.887 273.795 169.87 262.782C169.76 193.436 226.124 137.148 295.768 137.04C365.419 136.932 421.958 193.043 422.062 262.389C422.08 273.402 420.676 284.083 418.018 294.267Z" stroke="#C5796D" stroke-width="4.5"/>
<path d="M295.965 428.247C287.351 428.247 285.331 421.551 285.331 421.551H306.601C306.601 421.549 303.541 428.247 295.965 428.247Z" fill="url(#paint4_linear)"/>
<path d="M270.14 410.69C275.849 408.719 283.065 403.18 287.608 402.977C289.955 402.871 292.478 404.779 295.012 405.392C296.775 405.821 301.774 402.998 303.568 402.977C308.275 402.931 316.673 408.717 321.734 410.69C322.014 410.804 321.734 410.69 321.734 410.69C321.734 410.69 311.26 423.163 295.938 423.163C278.596 423.161 270.14 410.69 270.14 410.69C270.14 410.69 269.856 410.793 270.14 410.69Z" fill="#F771A9"/>
<path d="M270.14 410.69C275.849 408.719 283.065 403.18 287.608 402.977C289.955 402.871 292.478 404.779 295.012 405.392C296.775 405.821 301.774 402.998 303.568 402.977C308.275 402.931 316.673 408.717 321.734 410.69C322.014 410.804 321.734 410.69 321.734 410.69C321.734 410.69 311.26 423.163 295.938 423.163C278.596 423.161 270.14 410.69 270.14 410.69ZM270.14 410.69C270.14 410.69 269.856 410.793 270.14 410.69Z" stroke="#E85391" stroke-width="2.25"/>
<path d="M322.494 410.569C322.107 410.412 321.239 410.511 320.934 410.526C320.305 410.559 319.803 410.284 318.42 410.259C316.882 410.234 310.247 409.703 308.055 409.558C303.645 409.262 300.133 410.938 295.94 410.938C291.745 410.938 287.927 409.109 283.519 409.405C281.329 409.554 274.998 410.223 273.457 410.259C272.083 410.298 271.544 410.534 270.906 410.507C270.61 410.493 269.674 410.404 269.309 410.611C269.005 410.789 269.123 411.769 269.365 412.026C269.955 412.643 272.259 411.543 273.423 411.57C275.033 411.605 281.385 411.466 283.61 411.319C287.921 411.025 291.764 413.02 295.94 413.02C300.117 413.02 303.657 411.178 307.968 411.468C310.187 411.618 316.837 411.601 318.451 411.57C319.617 411.541 322.105 412.5 322.702 412.026C322.981 411.798 322.834 410.708 322.494 410.569Z" fill="#C92066"/>
<path d="M295.938 419.968C288.957 419.968 282.172 417.578 276.794 413.12C279.502 412.97 282.288 412.546 285 412.666C288.341 412.811 291.513 414.126 294.852 414.35C298.461 414.59 301.809 413.339 305.343 412.91C308.289 412.556 311.415 413.033 314.369 413.14C309.085 417.197 302.681 419.968 295.938 419.968ZM305.863 408.042C308.583 407.876 311.376 408.224 314.096 408.334C311.134 406.859 307.978 405.117 304.672 404.591C301.826 404.139 299.058 406.418 296.292 406.878C293.172 407.396 290.72 404.495 287.674 404.495C284.376 404.64 281.049 406.772 278.194 408.235C280.85 408.077 283.581 407.69 286.241 407.943C289.497 408.247 292.65 409.422 295.94 409.422C299.3 409.422 302.509 408.245 305.863 408.042Z" fill="#FF8EBD"/>
<path d="M295.838 417.994C291.635 417.994 287.537 416.542 284.016 413.849C284.803 413.772 285.598 413.712 286.363 413.712C286.605 413.712 286.848 413.718 287.09 413.731C288.352 413.799 289.595 414.162 290.914 414.547C292.194 414.916 293.516 415.299 294.898 415.415C295.171 415.44 295.445 415.448 295.716 415.448C297.413 415.448 299.023 415.026 300.58 414.622C301.569 414.361 302.503 414.114 303.464 413.973C303.988 413.89 304.556 413.853 305.198 413.853C305.753 413.853 306.325 413.882 306.893 413.923C303.961 416.101 300.166 417.994 295.838 417.994Z" fill="#FFA8CC"/>
<path d="M214.404 309.173C216.944 306.73 233.238 303.633 242.643 304.874C257.523 306.836 269.574 319.966 269.574 319.966C269.574 319.966 259.556 326.353 241.379 327.341C229.405 327.994 217.365 320.26 214.404 309.173Z" fill="url(#paint5_radial)"/>
<path d="M259.707 315.995C259.707 325.719 251.823 333.604 242.1 333.604C232.376 333.604 224.489 325.719 224.489 315.995C224.489 306.27 232.376 298.386 242.1 298.386C251.823 298.384 259.707 306.268 259.707 315.995Z" fill="#340B08"/>
<path d="M240.126 298.583C240.058 298.591 239.989 298.599 239.917 298.607C240.002 299.003 240.085 299.403 240.166 299.799C240.151 299.395 240.141 298.984 240.126 298.583ZM240.163 299.794C240.369 305.581 240.706 310.737 241.68 312.603C242.196 310.561 241.321 305.471 240.163 299.794ZM241.684 312.608C241.558 313.096 241.367 313.43 241.075 313.544C240.781 313.654 240.414 313.527 239.996 313.242C240.116 313.73 240.103 314.116 239.89 314.354C239.679 314.59 239.3 314.648 238.798 314.582C239.13 314.963 239.3 315.313 239.225 315.618C239.144 315.924 238.833 316.152 238.365 316.328C238.831 316.511 239.144 316.741 239.217 317.047C239.291 317.354 239.121 317.7 238.792 318.079C239.291 318.019 239.675 318.081 239.88 318.317C240.089 318.553 240.099 318.941 239.983 319.43C240.395 319.146 240.762 319.021 241.056 319.135C241.353 319.245 241.541 319.583 241.659 320.076C241.895 319.63 242.163 319.345 242.48 319.313C242.786 319.272 243.116 319.488 243.445 319.867C243.449 319.361 243.555 318.99 243.82 318.81C244.077 318.632 244.464 318.667 244.932 318.847C244.704 318.4 244.626 318.023 244.771 317.741C244.918 317.461 245.278 317.312 245.78 317.254C245.367 316.964 245.115 316.668 245.121 316.351C245.119 316.034 245.367 315.738 245.786 315.452C245.287 315.39 244.932 315.239 244.783 314.961C244.638 314.681 244.719 314.3 244.951 313.853C244.477 314.029 244.095 314.064 243.836 313.886C243.575 313.708 243.47 313.333 243.468 312.829C243.14 313.206 242.813 313.413 242.498 313.372C242.183 313.331 241.914 313.053 241.684 312.608ZM243.466 312.827C244.872 311.257 246.461 306.343 248.073 300.785C245.566 305.997 243.47 310.718 243.466 312.827ZM248.071 300.783C248.247 300.426 248.427 300.062 248.595 299.697C248.533 299.674 248.471 299.647 248.409 299.62C248.297 300.01 248.185 300.399 248.071 300.783ZM244.951 313.851C246.925 313.111 250.619 309.498 254.628 305.326C249.987 308.779 245.933 311.986 244.951 313.851ZM254.628 305.328C254.922 305.108 255.222 304.887 255.525 304.669C255.481 304.617 255.436 304.572 255.4 304.524C255.143 304.787 254.889 305.061 254.628 305.328ZM245.78 315.452C247.872 315.711 252.821 314.228 258.317 312.396C252.597 313.297 247.52 314.252 245.78 315.452ZM258.317 312.396C258.64 312.351 258.976 312.297 259.307 312.245C259.293 312.191 259.281 312.133 259.266 312.077C258.951 312.183 258.628 312.291 258.317 312.396ZM245.776 317.25C247.507 318.458 252.579 319.44 258.284 320.368C252.811 318.51 247.87 316.997 245.776 317.25ZM258.284 320.368C258.564 320.465 258.846 320.565 259.121 320.654C259.136 320.604 259.148 320.556 259.158 320.507C258.875 320.465 258.576 320.418 258.284 320.368ZM244.93 318.843C245.906 320.712 249.944 323.944 254.561 327.424C250.576 323.229 246.905 319.593 244.93 318.843ZM254.565 327.418C254.737 327.598 254.918 327.789 255.09 327.973C255.119 327.938 255.146 327.909 255.179 327.878C254.974 327.724 254.762 327.569 254.565 327.418ZM243.449 319.862C243.441 321.973 245.51 326.703 247.988 331.934C246.405 326.365 244.847 321.439 243.449 319.862ZM247.99 331.934C248.052 332.154 248.119 332.379 248.177 332.605C248.22 332.589 248.251 332.574 248.29 332.564C248.191 332.352 248.09 332.139 247.99 331.934ZM241.659 320.072C240.673 321.94 240.306 327.086 240.068 332.87C241.257 327.209 242.163 322.123 241.659 320.072ZM240.07 332.87C240.023 333.09 239.979 333.314 239.933 333.539C239.975 333.548 240.006 333.55 240.047 333.554C240.054 333.33 240.064 333.094 240.07 332.87ZM239.983 319.427C238.235 320.621 235.521 325.015 232.623 330.022C236.306 325.56 239.474 321.474 239.983 319.427ZM232.625 330.022C232.471 330.208 232.31 330.405 232.15 330.589C232.188 330.614 232.221 330.631 232.26 330.66C232.38 330.447 232.505 330.233 232.625 330.022ZM238.794 318.079C236.691 318.325 232.248 320.948 227.354 324.035C232.693 321.797 237.387 319.657 238.794 318.079ZM227.354 324.041C227.102 324.147 226.843 324.252 226.584 324.364C226.602 324.404 226.627 324.443 226.652 324.482C226.888 324.337 227.122 324.186 227.354 324.041ZM238.365 316.328C236.395 315.572 231.237 315.835 225.465 316.295C231.233 316.788 236.389 317.074 238.365 316.328ZM225.467 316.295C225.154 316.266 224.829 316.237 224.52 316.21C224.518 316.266 224.514 316.32 224.518 316.376C224.839 316.345 225.156 316.318 225.467 316.295ZM238.798 314.582C237.41 313.001 232.724 310.834 227.406 308.564C232.277 311.675 236.706 314.329 238.798 314.582ZM227.406 308.564C227.102 308.367 226.791 308.172 226.482 307.973C226.455 308.027 226.428 308.083 226.397 308.135C226.737 308.28 227.079 308.421 227.406 308.564ZM239.996 313.239C239.501 311.191 236.354 307.093 232.701 302.608C235.571 307.632 238.26 312.038 239.996 313.239ZM232.703 302.608C232.507 302.27 232.314 301.926 232.121 301.584C232.067 301.622 232.007 301.661 231.958 301.696C232.204 302.001 232.461 302.307 232.703 302.608Z" fill="url(#paint6_radial)"/>
<path d="M244.699 298.639C244.628 298.63 244.562 298.618 244.491 298.609C244.469 299.016 244.446 299.424 244.421 299.823C244.51 299.43 244.607 299.032 244.699 298.639ZM244.419 299.821C243.12 305.465 242.111 310.532 242.571 312.587C243.598 310.747 244.067 305.603 244.419 299.821ZM242.573 312.589C242.327 313.028 242.055 313.302 241.742 313.335C241.432 313.364 241.108 313.146 240.781 312.763C240.769 313.266 240.657 313.635 240.392 313.809C240.126 313.981 239.743 313.94 239.275 313.747C239.497 314.201 239.571 314.582 239.418 314.857C239.263 315.133 238.902 315.274 238.405 315.321C238.807 315.62 239.051 315.92 239.043 316.235C239.037 316.55 238.782 316.84 238.366 317.122C238.863 317.192 239.215 317.352 239.356 317.633C239.495 317.915 239.408 318.292 239.167 318.736C239.642 318.568 240.025 318.543 240.28 318.729C240.535 318.912 240.632 319.289 240.619 319.794C240.963 319.427 241.293 319.218 241.61 319.27C241.916 319.311 242.177 319.601 242.401 320.055C242.534 319.566 242.733 319.235 243.035 319.129C243.331 319.023 243.694 319.158 244.102 319.454C243.996 318.963 244.017 318.578 244.232 318.344C244.448 318.11 244.833 318.062 245.335 318.133C245.009 317.745 244.841 317.395 244.931 317.089C245.011 316.782 245.328 316.56 245.807 316.392C245.339 316.204 245.036 315.966 244.964 315.659C244.897 315.35 245.074 315.004 245.415 314.634C244.912 314.681 244.531 314.615 244.33 314.375C244.125 314.136 244.118 313.747 244.249 313.26C243.833 313.538 243.462 313.654 243.17 313.534C242.865 313.418 242.681 313.08 242.573 312.589ZM244.239 313.266C246.004 312.11 248.809 307.777 251.804 302.825C248.034 307.211 244.788 311.228 244.239 313.266ZM251.804 302.821C252.065 302.521 252.333 302.216 252.592 301.91C252.536 301.87 252.484 301.827 252.43 301.785C252.221 302.135 252.011 302.481 251.804 302.821ZM245.407 314.638C247.506 314.433 252.009 311.899 256.961 308.906C251.583 311.041 246.836 313.09 245.407 314.638ZM256.959 308.908C257.3 308.773 257.648 308.636 257.996 308.504C257.967 308.444 257.936 308.388 257.914 308.332C257.597 308.52 257.28 308.717 256.959 308.908ZM245.792 316.397C247.746 317.188 252.913 317.037 258.693 316.691C252.935 316.082 247.785 315.69 245.792 316.397ZM258.693 316.691C259.02 316.73 259.355 316.765 259.687 316.801C259.689 316.745 259.691 316.687 259.693 316.629C259.36 316.649 259.02 316.67 258.693 316.691ZM245.326 318.135C246.683 319.751 251.33 322.011 256.6 324.385C251.792 321.172 247.412 318.433 245.326 318.135ZM256.6 324.383C256.843 324.549 257.089 324.716 257.333 324.876C257.36 324.832 257.383 324.789 257.406 324.745C257.143 324.629 256.867 324.507 256.6 324.383ZM244.096 319.454C244.554 321.512 247.615 325.678 251.179 330.237C248.413 325.149 245.809 320.689 244.096 319.454ZM251.181 330.231C251.303 330.451 251.423 330.681 251.545 330.904C251.583 330.877 251.616 330.857 251.655 330.834C251.496 330.631 251.334 330.428 251.181 330.231ZM242.401 320.055C241.848 322.09 242.623 327.196 243.661 332.889C243.572 327.101 243.344 321.94 242.401 320.055ZM243.661 332.889C243.665 333.117 243.669 333.353 243.669 333.587C243.712 333.581 243.748 333.577 243.789 333.577C243.748 333.347 243.704 333.115 243.661 332.889ZM240.617 319.794C239.182 321.344 237.493 326.22 235.768 331.745C238.38 326.581 240.576 321.905 240.617 319.794ZM235.768 331.745C235.664 331.944 235.563 332.149 235.463 332.357C235.498 332.373 235.529 332.383 235.569 332.4C235.633 332.185 235.703 331.961 235.768 331.745ZM239.165 318.738C237.168 319.438 233.408 322.98 229.312 327.068C234.028 323.71 238.144 320.583 239.165 318.738ZM229.312 327.068C229.116 327.206 228.911 327.354 228.712 327.494C228.741 327.528 228.768 327.552 228.797 327.588C228.966 327.412 229.143 327.24 229.312 327.068ZM238.363 317.126C236.271 316.819 231.301 318.205 225.772 319.92C231.51 319.139 236.598 318.286 238.363 317.126ZM225.772 319.925C225.501 319.962 225.223 319.995 224.943 320.036C224.954 320.08 224.966 320.124 224.981 320.167C225.246 320.09 225.511 320.005 225.772 319.925ZM238.405 315.326C236.698 314.085 231.645 313.003 225.954 311.955C231.394 313.923 236.302 315.533 238.405 315.326ZM225.954 311.955C225.658 311.847 225.354 311.735 225.059 311.628C225.043 311.682 225.026 311.733 225.016 311.787C225.333 311.841 225.65 311.897 225.954 311.955ZM239.275 313.751C238.343 311.864 234.38 308.56 229.826 304.988C233.727 309.256 237.319 312.966 239.275 313.751ZM229.826 304.99C229.582 304.721 229.337 304.452 229.091 304.18C229.047 304.226 229.006 304.271 228.964 304.315C229.254 304.541 229.547 304.766 229.826 304.99ZM240.779 312.763C240.829 310.656 238.852 305.883 236.484 300.607C237.953 306.202 239.414 311.153 240.779 312.763ZM236.484 300.607C236.383 300.23 236.286 299.848 236.186 299.467C236.126 299.488 236.058 299.511 236 299.533C236.161 299.892 236.327 300.252 236.484 300.607Z" fill="url(#paint7_radial)"/>
<path d="M249.005 315.995C249.005 319.811 245.914 322.9 242.1 322.9C238.286 322.9 235.191 319.809 235.191 315.995C235.191 312.181 238.286 309.088 242.1 309.088C245.918 309.088 249.005 312.181 249.005 315.995Z" fill="#340B08"/>
<path opacity="0.9" d="M249.005 315.995C249.005 319.811 245.914 322.9 242.1 322.9C238.286 322.9 235.191 319.809 235.191 315.995C235.191 312.181 238.286 309.088 242.1 309.088C245.918 309.088 249.005 312.181 249.005 315.995Z" fill="black"/>
<path opacity="0.5" d="M232.465 324.06C233.782 323.175 235.572 323.531 236.457 324.847C237.341 326.167 236.991 327.954 235.672 328.839C234.35 329.728 232.564 329.373 231.68 328.056C230.795 326.736 231.145 324.944 232.465 324.06Z" fill="url(#paint8_linear)"/>
<path opacity="0.5" d="M247.557 315.033C246.819 316.131 244.712 316.003 242.844 314.752C240.973 313.498 240.055 311.59 240.791 310.495L240.793 310.492C241.526 309.394 243.635 309.521 245.504 310.776C247.374 312.028 248.292 313.933 247.559 315.031C247.557 315.033 247.557 315.033 247.557 315.033Z" fill="url(#paint9_linear)"/>
<path opacity="0.75" d="M255.941 312.102C254.272 314.665 249.967 314.816 246.327 312.446C242.689 310.074 241.092 306.076 242.76 303.515C244.429 300.957 248.734 300.801 252.374 303.171C256.01 305.545 257.605 309.546 255.941 312.102Z" fill="url(#paint10_linear)"/>
<path d="M203.425 317.548C203.425 346.154 220.122 369.337 240.714 369.337C261.307 369.337 278.004 346.154 278.004 317.548C278.004 288.941 261.307 265.755 240.714 265.755C220.122 265.755 203.425 288.941 203.425 317.548ZM214.405 309.173C216.944 306.73 233.238 303.633 242.643 304.874C257.524 306.836 269.574 319.966 269.574 319.966C269.574 319.966 259.556 326.353 241.379 327.341C229.405 327.994 217.365 320.26 214.405 309.173Z" fill="#F3D4CF"/>
<path d="M242.475 335.348C261.974 339.953 280.699 332.013 284.31 317.604C287.911 303.194 275.033 287.783 255.531 283.17C236.029 278.562 217.303 286.503 213.694 300.913C210.092 315.326 222.967 330.734 242.475 335.348ZM214.405 309.173C216.945 306.73 233.238 303.633 242.643 304.874C257.524 306.836 269.575 319.966 269.575 319.966C269.575 319.966 259.556 326.353 241.38 327.341C229.405 327.994 217.365 320.26 214.405 309.173Z" fill="url(#paint11_radial)"/>
<path d="M214.404 309.173C216.944 306.73 233.238 303.633 242.643 304.874C257.523 306.836 269.574 319.966 269.574 319.966C269.574 319.966 259.556 326.353 241.379 327.341C229.405 327.994 217.365 320.26 214.404 309.173Z" fill="url(#paint12_radial)"/>
<path d="M269.926 308.551C256.457 299.745 261.528 302.15 236.304 294.665C243.231 295.701 256.133 298.945 260.556 301.543C262.966 302.898 267.855 306.741 269.926 308.551Z" fill="#C5796D"/>
<path d="M203.441 307.147C203.441 307.147 207.759 309.852 211.133 309.854C211.401 311.441 215.776 318.677 223.3 322.997C234.674 329.531 247.947 327.513 260.619 324.329C266.823 322.784 266.44 321.18 276.722 320.041C268.648 316.788 269.502 314.868 258.303 308.806C263.415 309.782 270.283 313.602 270.283 313.602C267.72 310.594 249.738 299.523 220.924 298.048C220.924 298.048 230.555 300.302 234.18 301.713C217.504 303.985 212.963 301.479 212.078 300.812C212.818 301.437 214.539 303.38 218.301 304.648C214.411 304.945 207.297 302.852 207.297 302.852C207.297 302.852 209.093 304.563 212.741 306.923C209.621 308.423 203.441 307.147 203.441 307.147ZM214.405 309.415C216.944 307.06 233.238 304.07 242.643 305.27C257.524 307.161 269.574 319.825 269.574 319.825C269.574 319.825 259.556 325.986 241.379 326.939C229.405 327.567 217.365 320.109 214.405 309.415Z" fill="black"/>
<path d="M377.517 309.173C374.977 306.73 358.683 303.633 349.278 304.874C334.397 306.836 322.347 319.966 322.347 319.966C322.347 319.966 332.365 326.353 350.542 327.341C362.516 327.994 374.556 320.26 377.517 309.173Z" fill="url(#paint13_radial)"/>
<path d="M367.432 315.995C367.432 325.719 359.547 333.604 349.825 333.604C340.101 333.604 332.214 325.719 332.214 315.995C332.214 306.27 340.101 298.386 349.825 298.386C359.547 298.384 367.432 306.268 367.432 315.995Z" fill="#340B08"/>
<path d="M347.851 298.583C347.782 298.591 347.714 298.599 347.642 298.607C347.726 299.003 347.809 299.403 347.89 299.799C347.876 299.395 347.865 298.984 347.851 298.583ZM347.888 299.794C348.093 305.581 348.431 310.737 349.404 312.603C349.92 310.561 349.046 305.471 347.888 299.794ZM349.409 312.608C349.282 313.096 349.092 313.43 348.8 313.544C348.505 313.654 348.139 313.527 347.72 313.242C347.84 313.73 347.828 314.116 347.615 314.354C347.403 314.59 347.024 314.648 346.523 314.582C346.854 314.963 347.024 315.313 346.95 315.618C346.869 315.924 346.558 316.152 346.09 316.328C346.556 316.511 346.869 316.741 346.941 317.047C347.016 317.354 346.846 317.7 346.517 318.079C347.016 318.019 347.399 318.081 347.604 318.317C347.813 318.553 347.824 318.941 347.708 319.43C348.12 319.146 348.487 319.021 348.781 319.135C349.077 319.245 349.266 319.583 349.384 320.076C349.62 319.63 349.887 319.345 350.204 319.313C350.511 319.272 350.84 319.488 351.17 319.867C351.174 319.361 351.279 318.99 351.544 318.81C351.801 318.632 352.189 318.667 352.657 318.847C352.429 318.4 352.35 318.023 352.495 317.741C352.642 317.461 353.003 317.312 353.504 317.254C353.092 316.964 352.839 316.668 352.845 316.351C352.843 316.034 353.092 315.738 353.51 315.452C353.011 315.39 352.657 315.239 352.508 314.961C352.363 314.681 352.444 314.3 352.676 313.853C352.201 314.029 351.82 314.064 351.561 313.886C351.3 313.708 351.194 313.333 351.192 312.829C350.865 313.206 350.538 313.413 350.223 313.372C349.908 313.331 349.639 313.053 349.409 312.608ZM351.19 312.827C352.597 311.257 354.186 306.343 355.798 300.785C353.291 305.997 351.194 310.718 351.19 312.827ZM355.796 300.783C355.972 300.426 356.152 300.062 356.32 299.697C356.257 299.674 356.195 299.647 356.133 299.62C356.021 300.01 355.909 300.399 355.796 300.783ZM352.676 313.851C354.65 313.111 358.344 309.498 362.352 305.326C357.712 308.779 353.658 311.986 352.676 313.851ZM362.352 305.328C362.646 305.108 362.947 304.887 363.249 304.669C363.206 304.617 363.16 304.572 363.125 304.524C362.868 304.787 362.613 305.061 362.352 305.328ZM353.504 315.452C355.597 315.711 360.546 314.228 366.042 312.396C360.322 313.297 355.244 314.252 353.504 315.452ZM366.042 312.396C366.365 312.351 366.701 312.297 367.032 312.245C367.018 312.191 367.005 312.133 366.991 312.077C366.676 312.183 366.353 312.291 366.042 312.396ZM353.5 317.25C355.232 318.458 360.303 319.44 366.009 320.368C360.535 318.51 355.595 316.997 353.5 317.25ZM366.009 320.368C366.288 320.465 366.57 320.565 366.846 320.654C366.86 320.604 366.873 320.556 366.883 320.507C366.599 320.465 366.301 320.418 366.009 320.368ZM352.655 318.843C353.631 320.712 357.668 323.944 362.286 327.424C358.3 323.229 354.629 319.593 352.655 318.843ZM362.29 327.418C362.462 327.598 362.642 327.789 362.814 327.973C362.843 327.938 362.87 327.909 362.903 327.878C362.698 327.724 362.487 327.569 362.29 327.418ZM351.174 319.862C351.165 321.973 353.235 326.703 355.713 331.934C354.13 326.365 352.572 321.439 351.174 319.862ZM355.715 331.934C355.777 332.154 355.843 332.379 355.901 332.605C355.945 332.589 355.976 332.574 356.015 332.564C355.916 332.352 355.814 332.139 355.715 331.934ZM349.384 320.072C348.398 321.94 348.031 327.086 347.793 332.87C348.982 327.209 349.887 322.123 349.384 320.072ZM347.795 332.87C347.747 333.09 347.704 333.314 347.658 333.539C347.7 333.548 347.731 333.55 347.772 333.554C347.778 333.33 347.789 333.094 347.795 332.87ZM347.708 319.427C345.959 320.621 343.245 325.015 340.347 330.022C344.031 325.56 347.198 321.474 347.708 319.427ZM340.349 330.022C340.196 330.208 340.034 330.405 339.875 330.589C339.912 330.614 339.945 330.631 339.985 330.66C340.105 330.447 340.229 330.233 340.349 330.022ZM346.519 318.079C344.416 318.325 339.972 320.948 335.079 324.035C340.418 321.797 345.112 319.657 346.519 318.079ZM335.079 324.041C334.826 324.147 334.567 324.252 334.308 324.364C334.327 324.404 334.352 324.443 334.377 324.482C334.613 324.337 334.847 324.186 335.079 324.041ZM346.09 316.328C344.12 315.572 338.961 315.835 333.19 316.295C338.957 316.788 344.113 317.074 346.09 316.328ZM333.192 316.295C332.879 316.266 332.554 316.237 332.245 316.21C332.243 316.266 332.239 316.32 332.243 316.376C332.564 316.345 332.881 316.318 333.192 316.295ZM346.523 314.582C345.135 313.001 340.449 310.834 335.131 308.564C340.001 311.675 344.43 314.329 346.523 314.582ZM335.131 308.564C334.826 308.367 334.516 308.172 334.207 307.973C334.18 308.027 334.153 308.083 334.122 308.135C334.462 308.28 334.804 308.421 335.131 308.564ZM347.72 313.239C347.225 311.191 344.078 307.093 340.426 302.608C343.295 307.632 345.984 312.038 347.72 313.239ZM340.428 302.608C340.231 302.27 340.039 301.926 339.846 301.584C339.792 301.622 339.732 301.661 339.682 301.696C339.929 302.001 340.186 302.307 340.428 302.608Z" fill="url(#paint14_radial)"/>
<path d="M352.423 298.639C352.353 298.63 352.286 298.618 352.216 298.61C352.193 299.016 352.17 299.424 352.146 299.823C352.235 299.43 352.332 299.032 352.423 298.639ZM352.143 299.821C350.845 305.465 349.836 310.532 350.296 312.587C351.323 310.747 351.791 305.603 352.143 299.821ZM350.298 312.589C350.051 313.028 349.78 313.302 349.467 313.335C349.156 313.364 348.833 313.146 348.506 312.763C348.493 313.266 348.381 313.635 348.116 313.809C347.851 313.981 347.468 313.94 347 313.747C347.221 314.201 347.296 314.582 347.143 314.857C346.987 315.133 346.627 315.274 346.13 315.321C346.531 315.62 346.776 315.92 346.768 316.235C346.761 316.55 346.507 316.84 346.09 317.122C346.587 317.192 346.94 317.352 347.08 317.633C347.219 317.915 347.132 318.292 346.892 318.736C347.366 318.568 347.75 318.543 348.004 318.729C348.259 318.912 348.357 319.289 348.344 319.794C348.688 319.427 349.017 319.218 349.334 319.27C349.641 319.311 349.902 319.601 350.126 320.055C350.258 319.566 350.457 319.235 350.76 319.129C351.056 319.023 351.418 319.158 351.827 319.454C351.721 318.963 351.742 318.578 351.957 318.344C352.172 318.11 352.558 318.062 353.059 318.133C352.734 317.745 352.566 317.395 352.655 317.089C352.736 316.782 353.053 316.56 353.531 316.392C353.063 316.204 352.761 315.966 352.688 315.659C352.622 315.35 352.798 315.004 353.14 314.634C352.637 314.681 352.255 314.615 352.054 314.375C351.849 314.136 351.843 313.747 351.974 313.26C351.557 313.538 351.186 313.654 350.894 313.534C350.59 313.418 350.405 313.08 350.298 312.589ZM351.963 313.266C353.728 312.11 356.533 307.777 359.529 302.825C355.758 307.211 352.512 311.228 351.963 313.266ZM359.529 302.821C359.79 302.521 360.057 302.216 360.316 301.91C360.26 301.87 360.208 301.827 360.155 301.785C359.945 302.135 359.736 302.481 359.529 302.821ZM353.132 314.638C355.23 314.433 359.734 311.899 364.685 308.906C359.307 311.041 354.561 313.09 353.132 314.638ZM364.683 308.908C365.025 308.773 365.373 308.636 365.721 308.504C365.692 308.444 365.661 308.388 365.638 308.332C365.321 308.52 365.004 308.717 364.683 308.908ZM353.517 316.397C355.471 317.188 360.637 317.037 366.417 316.691C360.66 316.082 355.51 315.69 353.517 316.397ZM366.417 316.691C366.744 316.73 367.08 316.765 367.412 316.801C367.414 316.745 367.416 316.687 367.418 316.629C367.084 316.649 366.744 316.67 366.417 316.691ZM353.051 318.135C354.408 319.751 359.054 322.011 364.325 324.385C359.516 321.172 355.137 318.433 353.051 318.135ZM364.325 324.383C364.567 324.549 364.814 324.716 365.058 324.876C365.085 324.832 365.108 324.789 365.131 324.745C364.868 324.629 364.592 324.507 364.325 324.383ZM351.82 319.454C352.278 321.512 355.34 325.678 358.903 330.237C356.138 325.149 353.534 320.689 351.82 319.454ZM358.905 330.231C359.028 330.451 359.148 330.681 359.27 330.904C359.307 330.877 359.34 330.857 359.38 330.834C359.22 330.631 359.059 330.428 358.905 330.231ZM350.126 320.055C349.573 322.09 350.347 327.196 351.385 332.889C351.296 327.101 351.068 321.94 350.126 320.055ZM351.385 332.889C351.389 333.117 351.394 333.353 351.394 333.587C351.437 333.581 351.472 333.577 351.514 333.577C351.472 333.347 351.429 333.115 351.385 332.889ZM348.342 319.794C346.906 321.344 345.218 326.22 343.492 331.745C346.105 326.581 348.301 321.905 348.342 319.794ZM343.492 331.745C343.389 331.944 343.287 332.149 343.188 332.357C343.223 332.373 343.254 332.384 343.293 332.4C343.358 332.185 343.428 331.961 343.492 331.745ZM346.89 318.738C344.893 319.438 341.133 322.98 337.037 327.068C341.752 323.71 345.868 320.583 346.89 318.738ZM337.037 327.068C336.84 327.206 336.635 327.354 336.436 327.494C336.465 327.528 336.492 327.552 336.521 327.588C336.691 327.412 336.867 327.24 337.037 327.068ZM346.088 317.126C343.996 316.819 339.026 318.205 333.497 319.92C339.235 319.139 344.323 318.286 346.088 317.126ZM333.497 319.925C333.225 319.962 332.948 319.995 332.668 320.036C332.678 320.08 332.691 320.124 332.705 320.167C332.97 320.09 333.236 320.005 333.497 319.925ZM346.13 315.326C344.422 314.085 339.37 313.003 333.679 311.955C339.119 313.923 344.027 315.533 346.13 315.326ZM333.679 311.955C333.383 311.847 333.078 311.735 332.784 311.628C332.767 311.682 332.751 311.733 332.74 311.787C333.057 311.841 333.374 311.897 333.679 311.955ZM347 313.751C346.067 311.864 342.104 308.56 337.551 304.988C341.452 309.256 345.044 312.966 347 313.751ZM337.551 304.99C337.306 304.721 337.062 304.452 336.815 304.18C336.772 304.226 336.73 304.271 336.689 304.315C336.979 304.541 337.271 304.766 337.551 304.99ZM348.504 312.763C348.553 310.656 346.577 305.883 344.209 300.607C345.678 306.202 347.138 311.153 348.504 312.763ZM344.209 300.607C344.108 300.23 344.01 299.848 343.911 299.467C343.851 299.488 343.782 299.511 343.724 299.533C343.886 299.892 344.052 300.252 344.209 300.607Z" fill="url(#paint15_radial)"/>
<path d="M356.73 315.995C356.73 319.811 353.639 322.9 349.825 322.9C346.011 322.9 342.916 319.809 342.916 315.995C342.916 312.181 346.011 309.088 349.825 309.088C353.643 309.088 356.73 312.181 356.73 315.995Z" fill="#340B08"/>
<path opacity="0.9" d="M356.73 315.995C356.73 319.811 353.639 322.9 349.825 322.9C346.011 322.9 342.916 319.809 342.916 315.995C342.916 312.181 346.011 309.088 349.825 309.088C353.643 309.088 356.73 312.181 356.73 315.995Z" fill="black"/>
<path opacity="0.5" d="M340.189 324.06C341.507 323.175 343.297 323.531 344.181 324.847C345.066 326.167 344.716 327.954 343.396 328.839C342.075 329.728 340.289 329.373 339.404 328.056C338.52 326.736 338.87 324.944 340.189 324.06Z" fill="url(#paint16_linear)"/>
<path opacity="0.5" d="M355.281 315.033C354.544 316.131 352.437 316.003 350.568 314.752C348.698 313.498 347.78 311.59 348.515 310.495L348.517 310.492C349.251 309.394 351.36 309.521 353.228 310.776C355.099 312.028 356.017 313.933 355.283 315.031C355.281 315.033 355.281 315.033 355.281 315.033Z" fill="url(#paint17_linear)"/>
<path opacity="0.75" d="M363.666 312.102C361.996 314.665 357.691 314.816 354.052 312.446C350.414 310.074 348.816 306.076 350.484 303.515C352.154 300.957 356.459 300.801 360.099 303.171C363.734 305.545 365.33 309.546 363.666 312.102Z" fill="url(#paint18_linear)"/>
<path d="M351.207 265.755C330.614 265.755 313.917 288.943 313.917 317.548C313.917 346.154 330.614 369.337 351.207 369.337C371.799 369.337 388.496 346.154 388.496 317.548C388.496 288.941 371.799 265.755 351.207 265.755ZM350.544 327.341C332.367 326.355 322.349 319.966 322.349 319.966C322.349 319.966 334.399 306.836 349.28 304.874C358.685 303.631 374.979 306.73 377.519 309.173C374.556 320.26 362.516 327.994 350.544 327.341Z" fill="#F3D4CF"/>
<path d="M378.228 300.915C374.619 286.505 355.893 278.562 336.391 283.172C316.888 287.785 304.011 303.196 307.611 317.606C311.222 332.015 329.948 339.955 349.446 335.35C368.955 330.734 381.83 315.326 378.228 300.915ZM350.544 327.341C332.368 326.355 322.349 319.966 322.349 319.966C322.349 319.966 334.4 306.836 349.28 304.874C358.686 303.631 374.979 306.73 377.519 309.173C374.557 320.26 362.516 327.994 350.544 327.341Z" fill="url(#paint19_radial)"/>
<path d="M377.517 309.173C374.977 306.73 358.683 303.633 349.278 304.874C334.397 306.836 322.347 319.966 322.347 319.966C322.347 319.966 332.365 326.353 350.542 327.341C362.516 327.994 374.556 320.26 377.517 309.173Z" fill="url(#paint20_radial)"/>
<path d="M321.995 308.551C335.465 299.745 330.394 302.15 355.618 294.665C348.69 295.701 335.788 298.945 331.365 301.543C328.956 302.898 324.067 306.741 321.995 308.551Z" fill="#C5796D"/>
<path d="M379.178 306.923C382.826 304.563 384.622 302.852 384.622 302.852C384.622 302.852 377.508 304.943 373.618 304.648C377.378 303.38 379.099 301.437 379.841 300.812C378.956 301.477 374.415 303.983 357.738 301.713C361.364 300.302 370.995 298.048 370.995 298.048C342.18 299.523 324.199 310.594 321.636 313.602C321.636 313.602 328.503 309.782 333.616 308.806C322.419 314.868 323.273 316.79 315.197 320.041C325.481 321.182 325.096 322.786 331.3 324.329C343.97 327.513 357.243 329.531 368.619 322.997C376.143 318.677 380.518 311.439 380.785 309.854C384.16 309.852 388.478 307.147 388.478 307.147C388.478 307.147 382.3 308.423 379.178 306.923ZM350.544 326.939C332.367 325.988 322.349 319.825 322.349 319.825C322.349 319.825 334.399 307.161 349.28 305.27C358.685 304.07 374.979 307.06 377.519 309.415C374.556 320.109 362.516 327.567 350.544 326.939Z" fill="black"/>
<path d="M379.249 369.354C379.322 415.5 341.97 452.976 295.818 453.04C249.674 453.115 212.204 415.765 212.132 369.611C212.061 323.467 249.411 285.997 295.563 285.925C341.709 285.854 379.181 323.204 379.249 369.354Z" fill="url(#paint21_radial)"/>
<path d="M368.468 251.254C368.468 291.297 336.003 323.761 295.961 323.761C255.918 323.761 223.453 291.297 223.453 251.254C223.453 211.211 255.918 178.746 295.961 178.746C336.003 178.746 368.468 211.211 368.468 251.254Z" fill="url(#paint22_radial)"/>
<path d="M237.422 273.422C226.853 274.27 189.319 291.529 189.319 291.529C189.319 291.529 225.634 268.315 242.421 267.741C254.919 267.311 278.371 273.249 275.414 279.293C273.035 284.158 260.372 271.582 237.422 273.422Z" fill="#2A232B"/>
<path d="M316.252 278.035C313.257 271.911 336.819 266.627 350.975 268.108C367.896 269.879 402.804 287.819 402.804 287.819C402.804 287.819 366.748 274.625 356.037 273.864C332.553 272.194 318.663 282.962 316.252 278.035Z" fill="#2A232B"/>
<path d="M290.497 327.082C290.497 327.082 290.611 343.577 289.548 346.788C287.209 353.842 276.864 370.191 278.175 374.726C280.216 381.776 290.226 382.291 295.285 382.538C300.128 382.776 309.975 382.424 311.562 377.842C312.208 375.977 310.814 371.219 310.814 371.219C310.814 371.219 306.329 375.834 295.761 375.32C292.745 375.175 287.839 372.213 287.783 368.034C287.709 362.371 291.523 355.874 292.206 350.254C292.724 345.984 290.497 327.082 290.497 327.082Z" fill="#E4B3AB"/>
<path d="M304.68 377.692C306.505 377.692 306.998 378.177 306.998 378.774C306.998 379.375 306.431 380.296 304.68 379.855C302.758 379.377 299.402 379.598 299.402 379.598C299.402 379.598 302.855 377.692 304.68 377.692ZM287.26 377.692C285.435 377.694 284.941 378.181 284.941 378.78C284.941 379.377 285.49 380.238 287.26 379.859C289.209 379.443 292.538 379.6 292.538 379.6C292.538 379.6 289.087 377.699 287.26 377.692ZM310.812 371.216C310.812 371.216 313.34 374.084 312.813 377.114C312.304 380.058 307.201 381.355 307.201 381.355C307.201 381.355 310.744 379.107 311.173 376.377C311.371 375.101 310.812 371.216 310.812 371.216ZM279.636 368.266C279.636 368.266 277.792 372.281 278.327 374.724C279.294 379.136 284.608 380.901 284.608 380.901C284.608 380.901 281.291 377.873 280.112 375.198C278.826 372.281 279.636 368.266 279.636 368.266Z" fill="#C5796D"/>
<path d="M304.59 373.352C306.359 372.033 306.535 371.281 306.171 370.79C305.806 370.297 304.746 369.984 303.264 371.575C301.632 373.327 298.081 374.62 298.081 374.62C298.081 374.62 302.821 374.672 304.59 373.352Z" fill="#FFF4F3"/>
<path opacity="0.1" d="M195.27 579.363C162.698 527.354 151.101 548.475 158.66 491.407C147.869 471.911 139.238 452.522 133.405 431.694C121.808 387.193 133.678 358.637 144.057 326.148C134.142 190.791 211.729 116.597 297.431 116.597C364.304 116.597 436.563 165.218 437.207 272.428C436.142 292.024 433.205 324.93 430.986 339.063C467.797 453.063 436.167 443.989 408.053 497.247C400.427 511.682 391.455 533.018 389.576 554.368C350.919 485.495 354.441 474.973 367.459 443.763C383.005 406.505 376.879 435.332 346.68 438.746C374.778 417.014 393.742 417.072 394.334 281.668C394.336 281.587 394.291 281.512 394.222 281.479C368.634 269.296 344.426 246.249 329.471 219.827C329.434 219.763 329.374 219.723 329.301 219.723C329.299 219.723 329.295 219.723 329.295 219.723C329.218 219.725 329.15 219.771 329.119 219.841C311.852 256.69 282.246 276.551 233.127 284.236C223.538 289.244 212.954 293.903 199.766 298.914C199.689 298.943 199.635 299.02 199.635 299.105C198.748 352.259 210.959 390.01 241.745 434.161C227.068 427.42 215.34 407.829 215.34 407.829C214.605 407.829 220.486 418.114 220.855 418.769C261.892 491.886 195.749 515.355 195.27 579.363Z" fill="#2A232B"/>
<path d="M192.588 575.025C159.075 523.016 147.142 544.137 154.921 487.069C143.817 467.573 134.936 448.184 128.937 427.356C117.004 382.855 129.216 354.299 139.896 321.81C129.693 186.455 209.522 112.259 297.703 112.259C366.502 112.259 440.852 160.88 441.515 268.09C440.423 287.686 437.404 320.592 435.115 334.724C472.991 448.725 440.446 439.651 411.519 492.909C403.67 507.344 394.445 528.68 392.512 550.03C352.732 481.157 356.36 470.635 369.757 439.425C385.746 402.167 375.875 430.898 348.376 436.892C377.283 415.16 396.796 412.734 397.407 277.33C397.409 277.249 397.362 277.174 397.287 277.141C370.959 264.958 346.057 241.911 330.671 215.489C330.634 215.425 330.566 215.385 330.493 215.385C330.491 215.385 330.487 215.385 330.485 215.385C330.408 215.387 330.34 215.433 330.307 215.503C312.538 252.352 282.077 272.213 231.541 279.898C221.672 284.906 210.783 289.565 197.216 294.576C197.135 294.605 197.083 294.682 197.081 294.767C196.168 347.919 208.732 387.744 240.408 431.895C225.239 420.669 213.242 403.491 213.242 403.491C212.484 403.491 218.537 413.776 218.914 414.431C261.135 487.55 193.079 511.019 192.588 575.025Z" fill="#2A232B"/>
<path d="M145.435 362.82C143.88 346.808 119.175 243.802 180.2 168.371C151.213 224.631 142.775 300.563 145.435 362.82ZM435.84 330.063C444.985 267.019 447.46 199.419 395.562 150.369C421.198 200.484 439.093 237.15 435.84 330.063ZM385.332 182.593C380.397 205.566 388.876 235.735 391.654 256.578C377.174 244.904 368.543 228.468 358.587 205.624C360.772 218.526 365.807 241.728 393.747 270.39C348.589 230.059 338.9 209.709 346.277 161.722C345.867 163.538 345.471 165.254 345.09 166.88C346.078 161.614 346.981 155.925 347.752 149.745C341.121 187.035 291.575 253.429 250.259 267.626C244.023 273.868 238.373 274.16 231.628 279.884C288.041 271.282 323.601 239.06 331.229 215.941C346.633 241.293 374.59 264.719 399.939 276.704C403.767 243.16 391.652 222.547 385.332 182.593ZM299.143 184.07C280.498 215.145 269.407 234.826 240.404 253.47C249.819 245.936 256.328 233.444 260.149 222.547C248.734 239.441 230.839 249.974 215.167 263.686C230.737 246.557 251.721 222.547 264.961 199.608C251.615 217.387 230.13 231.381 211.024 247.256C226.056 234.766 237.955 218.942 246.242 202.369C240.493 210.034 229.954 215.75 217.239 228.468C235.825 203.679 237.706 192.247 242.966 182.053C230.089 203.751 218.821 211.275 206.104 222.025C197.359 258.697 196.862 274.62 195.215 294.767C195.134 295.738 230.667 280.342 231.541 279.898C231.57 279.894 231.599 279.888 231.628 279.884C264.758 251.772 278.356 222.448 299.143 184.07ZM213.095 419.059C218.871 442.16 215.635 462.76 207.991 486.874C206.98 464.581 190.434 441.7 178.124 421.696C180.95 464.633 185.511 484.6 178.296 517.259C174.43 458.016 162.069 437.979 143.942 394.168C136.635 421.914 138.433 458.112 154.919 487.069C147.14 544.137 159.073 523.016 192.586 575.025C193.079 511.019 261.133 487.548 218.91 414.431C218.531 413.776 212.48 403.491 213.238 403.491C213.238 403.491 225.237 420.669 240.404 431.895C194.345 381.738 182.267 318.553 180.948 250.189C170.616 332.533 200.665 377.626 213.095 419.059ZM439.165 345.424C440.957 380.493 450.433 424.497 419.988 453.04C432.418 432.324 426.475 404.557 420.26 383.841C421.039 439.282 397.861 472.578 391.652 508.972C390.708 492.221 386.879 471.975 394.704 444.72C387.115 457.983 378.555 473.409 375.255 491.794C364.398 471.436 370.352 456.025 374.151 436.204C390.264 419.237 401.408 386.818 403.763 365.988C401.826 383.112 390.739 408.877 377.913 419.637C377.911 419.656 376.803 423.385 375.585 427.472C375.676 426.782 375.763 426.088 375.844 425.384C357.348 468.909 348.198 473.303 392.512 550.026C394.263 530.642 402.299 509.861 411.519 492.905C439.393 441.586 470.81 446.979 439.165 345.424Z" fill="#1B141C"/>
<path d="M410.603 300.513C419.447 264.438 405.849 208.916 398.869 198.083C409.752 214.963 424.348 260.506 410.603 300.513ZM419.101 316.925C420.05 312.03 448.301 257.396 400.469 180.375C443.735 259.132 420.062 311.961 419.101 316.925ZM159.41 249.976C161.482 249.05 174.66 152.072 259.738 133.781C170.514 149.503 161.482 249.054 159.41 249.976ZM171.156 341.925C171.107 339.848 154.268 243.765 201.591 182.193C146.794 247.044 171.107 339.854 171.156 341.925ZM177.904 406.952C174.945 403.022 150.753 337.931 162.012 263.731C141.18 341.546 176.346 404.881 177.904 406.952ZM406.576 199.065C404.504 198.454 379.526 126.522 328.17 133.616C373.092 131.069 404.504 198.448 406.576 199.065ZM363.834 236.334C363.834 236.334 344.321 205.734 351.396 155.37C344.866 186.113 345.551 207.364 363.834 236.334ZM369.346 212.52C374.666 227.353 386.135 243.363 388.045 244.629C385.971 243.255 368.033 216.991 363.84 173.723C364.213 186.71 364.913 200.157 369.346 212.52ZM271.395 254.187C287.954 238.091 324.918 222.278 345.918 145.687C323.385 216.438 288.911 237.16 271.395 254.187ZM271.447 191.197C285.93 177.364 291.115 163.184 290.935 149.876C289.451 163.232 282.219 180.909 271.447 191.197ZM250.687 198.093C251.468 198.066 253.448 195.738 254.008 195.249C270.533 180.832 278.09 169.186 279.671 149.184C277.245 171.991 252.763 198.023 250.687 198.093ZM247.905 193.994C247.905 193.994 264.954 173.977 271.078 145.708C264.594 168.262 247.905 193.994 247.905 193.994ZM205.643 453.728C206.847 451.656 209.631 411.727 189.857 395.225C202.297 407.849 206.845 451.654 205.643 453.728ZM205.678 453.707C204.725 437.621 190.037 424.874 187.054 404.719C188.165 430.424 204.031 439.581 205.678 453.707ZM173.93 467.54C171.944 462.897 181.643 441.586 152.565 396.517C176.251 439.15 172.973 465.302 173.93 467.54ZM173.972 464.803C171.515 455.731 175.849 436.322 165.012 404.748C170.676 425.694 170.794 453.053 173.972 464.803ZM399.592 407.228C391.082 423.954 373.649 435.541 378.176 477.198C377.759 473.359 378.507 469.033 378.808 465.203C382.862 413.509 396.773 453.334 412.049 356.976C408.353 371.763 405.54 395.542 399.592 407.228ZM394.838 482.719C395.606 479.702 395.553 476.303 396.087 473.218C400.607 447.086 410.57 433.067 411.44 390.883C409.447 425.025 394.407 453.251 394.838 482.719ZM430.839 427.401C431.811 420.921 444.978 410.949 434.974 359.151C440.663 412.308 431.794 421.029 430.839 427.401ZM430.841 427.466C431.748 425.394 437.282 390.325 423.277 364.04C433.054 385.322 431.75 425.394 430.841 427.466Z" fill="#3A353A"/>
<path d="M127.952 449.622C128.466 444.29 129.297 438.897 130.517 433.428C135.696 449.665 141.917 464.656 154.714 487.042C146.898 544.383 159.098 523.134 192.791 575.729C192.791 529.6 228.129 504.137 232.214 468.273C235.91 435.616 222.355 421.953 213.238 403.7C220.833 414.282 230.783 425.278 241.329 432.829C211.276 391.268 196.302 352.116 197.286 294.775C208.95 290.466 220.489 285.743 231.572 280.108C276.048 273.342 310.862 256.304 330.493 215.597C345.645 241.621 370.204 264.84 397.2 277.332C396.583 413.803 376.96 414.916 347.522 437.281C359.56 434.984 373.937 425.413 377.169 420.853C358.383 470.055 345.695 469.479 392.663 550.704C394.312 530.907 402.164 510.549 411.701 493.008C440.532 439.92 473.314 446.844 435.422 332.891C438.62 313.13 441.278 294.18 441.637 275.237C441.999 281.96 442.208 288.448 442.397 294.762C442.84 294.762 443.284 294.762 443.725 294.762C443.192 286.298 442.637 277.47 441.719 268.09C440.358 47.6506 119.651 56.4116 139.695 321.746C128.866 354.712 116.776 382.826 128.736 427.296C126.817 433.515 125.367 439.537 124.308 445.421C125.411 446.935 126.569 448.391 127.952 449.622ZM140.503 330.569C140.699 332.64 148.209 387.858 143.237 347.411C106.48 48.3778 487.662 27.6613 432.977 346.336C429.261 367.993 431.386 357.832 434.968 335.729C470.723 456.402 427.199 430.119 397.015 516.729C394.177 524.889 392.168 535.373 391.339 543.929C346.544 465.023 368.122 457.888 379.655 418.181C393.326 403.074 401.646 385.302 403.914 363.241C398.546 400.507 374.116 425.493 353.82 433.801C364.418 426.817 375.443 419.351 381.996 408.133C386.21 403.708 406.363 353.912 398.818 258.913C395.352 217.188 381.339 204.828 384.459 187.109C381.567 201.025 389.491 210.43 394.217 239.066C396.402 252.445 397.181 271.896 397.181 275.465C374.553 263.108 345.577 236.332 331.386 213.751C340.627 194.806 345.436 165.948 349.202 147.728C337.982 193.486 330.116 256.52 237.83 276.791C252.813 268.602 285.451 251.428 319.142 182.821C319.184 182.8 319.202 182.78 319.202 182.738C337.249 147.324 320.45 178.525 319.016 181.081C318.989 181.027 318.995 180.868 318.995 181.102C277.239 255.874 243.614 275.016 197.286 294.213C197.307 292.805 197.328 291.396 197.39 289.987C254.321 271.465 289.822 203.654 278.329 220.422C259.939 247.394 228.288 278.459 197.411 289.49C197.446 287.418 197.79 280.541 198.364 274.699C238.17 246.433 246.939 231.53 262.357 204.677C263.508 202.649 264.505 200.921 265.369 199.444C256.082 213.581 231.595 247.506 198.467 273.454C199.379 263.883 200.746 254.353 202.383 244.886C204.29 242.362 220.683 229.241 234.12 201.92C240.53 188.974 242.966 182.053 242.966 182.053C241.162 185.322 230.464 209.821 202.963 241.675C207.499 216.529 213.71 193.869 220.717 169.105C208.792 206.177 197.189 246.319 193.764 286.774C192.754 288.846 190.831 365.47 229.469 419.295C169.868 355.178 179.613 276.379 179.988 250.003C179.802 250.003 178.434 271.444 178.331 272.894C170.32 379.408 231.359 405.175 228.05 460.606C225.622 501.102 192.113 523.629 191.817 572.247C165.638 526.762 150.78 540.033 156.91 490.831C157.069 488.759 159.259 473.734 157.076 459.073C153.562 435.754 148.538 429.038 149.274 424.145C148.717 427.103 150.001 430.124 152.209 438.025C156.164 451.839 156.69 470.558 154.965 485.113C120.735 417.685 125.525 381.856 140.503 330.569Z" fill="black"/>
</g>
<defs>
<linearGradient id="paint0_linear" x1="300" y1="-75" x2="300" y2="675" gradientUnits="userSpaceOnUse">
<stop stop-color="#151371"/>
<stop offset="0.453125" stop-color="#FF00B8"/>
<stop offset="0.96875" stop-color="#FFC700"/>
</linearGradient>
<linearGradient id="paint1_linear" x1="439" y1="245" x2="439" y2="644" gradientUnits="userSpaceOnUse">
<stop stop-color="#FF00B8"/>
<stop offset="1" stop-color="#F0DB0A" stop-opacity="0"/>
</linearGradient>
<linearGradient id="paint2_linear" x1="194" y1="161" x2="194" y2="560" gradientUnits="userSpaceOnUse">
<stop stop-color="#FF00B8"/>
<stop offset="1" stop-color="#F0DB0A" stop-opacity="0"/>
</linearGradient>
<linearGradient id="paint3_linear" x1="295.919" y1="490.054" x2="295.919" y2="417.715" gradientUnits="userSpaceOnUse">
<stop stop-color="#E4B3AB" stop-opacity="0.8"/>
<stop offset="0.7" stop-color="#C5796D"/>
</linearGradient>
<linearGradient id="paint4_linear" x1="295.961" y1="427.346" x2="295.961" y2="421.131" gradientUnits="userSpaceOnUse">
<stop offset="0.1" stop-color="#EBC3BD"/>
<stop offset="1" stop-color="#E4B3AB"/>
</linearGradient>
<radialGradient id="paint5_radial" cx="0" cy="0" r="1" gradientUnits="userSpaceOnUse" gradientTransform="translate(240.809 315.27) rotate(177.003) scale(28.8057 31.4445)">
<stop stop-color="white"/>
<stop offset="0.544" stop-color="#FDFEFE"/>
<stop offset="0.74" stop-color="#F6F8F9"/>
<stop offset="0.879" stop-color="#EAEFF2"/>
<stop offset="0.992" stop-color="#D9E3E8"/>
<stop offset="1" stop-color="#D8E2E7"/>
</radialGradient>
<radialGradient id="paint6_radial" cx="0" cy="0" r="1" gradientUnits="userSpaceOnUse" gradientTransform="translate(241.883 316.064) rotate(-14.4847) scale(17.3869 17.3907)">
<stop stop-color="white" stop-opacity="0.8"/>
<stop offset="1" stop-color="white" stop-opacity="0"/>
</radialGradient>
<radialGradient id="paint7_radial" cx="0" cy="0" r="1" gradientUnits="userSpaceOnUse" gradientTransform="translate(241.88 316.051) rotate(0.512025) scale(17.3781 17.3784)">
<stop stop-color="white" stop-opacity="0.8"/>
<stop offset="1" stop-color="white" stop-opacity="0"/>
</radialGradient>
<linearGradient id="paint8_linear" x1="232.326" y1="328.522" x2="235.075" y2="325.247" gradientUnits="userSpaceOnUse">
<stop stop-color="white"/>
<stop offset="1" stop-color="white" stop-opacity="0"/>
</linearGradient>
<linearGradient id="paint9_linear" x1="246.241" y1="311.851" x2="242.098" y2="315.995" gradientUnits="userSpaceOnUse">
<stop stop-color="white"/>
<stop offset="1" stop-color="white" stop-opacity="0"/>
</linearGradient>
<linearGradient id="paint10_linear" x1="252.457" y1="303.565" x2="244.17" y2="311.851" gradientUnits="userSpaceOnUse">
<stop stop-color="white"/>
<stop offset="1" stop-color="white" stop-opacity="0"/>
</linearGradient>
<radialGradient id="paint11_radial" cx="0" cy="0" r="1" gradientUnits="userSpaceOnUse" gradientTransform="translate(249.191 308.172) rotate(8.11147) scale(35.0399 26.928)">
<stop stop-color="#E4B3AB"/>
<stop offset="0.7" stop-color="#E4B3AB" stop-opacity="0.3"/>
<stop offset="1" stop-color="#F3D4CF" stop-opacity="0"/>
</radialGradient>
<radialGradient id="paint12_radial" cx="0" cy="0" r="1" gradientUnits="userSpaceOnUse" gradientTransform="translate(235.183 370.562) scale(63.1883)">
<stop offset="0.95" stop-opacity="0"/>
<stop offset="1" stop-opacity="0.3"/>
</radialGradient>
<radialGradient id="paint13_radial" cx="0" cy="0" r="1" gradientUnits="userSpaceOnUse" gradientTransform="translate(351.109 315.27) rotate(2.99734) scale(28.8057 31.4445)">
<stop stop-color="white"/>
<stop offset="0.544" stop-color="#FDFEFE"/>
<stop offset="0.74" stop-color="#F6F8F9"/>
<stop offset="0.879" stop-color="#EAEFF2"/>
<stop offset="0.992" stop-color="#D9E3E8"/>
<stop offset="1" stop-color="#D8E2E7"/>
</radialGradient>
<radialGradient id="paint14_radial" cx="0" cy="0" r="1" gradientUnits="userSpaceOnUse" gradientTransform="translate(349.607 316.066) rotate(-14.4847) scale(17.3869 17.3907)">
<stop stop-color="white" stop-opacity="0.8"/>
<stop offset="1" stop-color="white" stop-opacity="0"/>
</radialGradient>
<radialGradient id="paint15_radial" cx="0" cy="0" r="1" gradientUnits="userSpaceOnUse" gradientTransform="translate(349.606 316.05) rotate(0.512025) scale(17.3781 17.3784)">
<stop stop-color="white" stop-opacity="0.8"/>
<stop offset="1" stop-color="white" stop-opacity="0"/>
</radialGradient>
<linearGradient id="paint16_linear" x1="340.053" y1="328.522" x2="342.802" y2="325.249" gradientUnits="userSpaceOnUse">
<stop stop-color="white"/>
<stop offset="1" stop-color="white" stop-opacity="0"/>
</linearGradient>
<linearGradient id="paint17_linear" x1="353.966" y1="311.851" x2="349.823" y2="315.995" gradientUnits="userSpaceOnUse">
<stop stop-color="white"/>
<stop offset="1" stop-color="white" stop-opacity="0"/>
</linearGradient>
<linearGradient id="paint18_linear" x1="360.182" y1="303.565" x2="351.895" y2="311.851" gradientUnits="userSpaceOnUse">
<stop stop-color="white"/>
<stop offset="1" stop-color="white" stop-opacity="0"/>
</linearGradient>
<radialGradient id="paint19_radial" cx="0" cy="0" r="1" gradientUnits="userSpaceOnUse" gradientTransform="translate(342.731 308.172) rotate(171.889) scale(35.0399 26.928)">
<stop stop-color="#E4B3AB"/>
<stop offset="0.7" stop-color="#E4B3AB" stop-opacity="0.3"/>
<stop offset="1" stop-color="#F3D4CF" stop-opacity="0"/>
</radialGradient>
<radialGradient id="paint20_radial" cx="0" cy="0" r="1" gradientUnits="userSpaceOnUse" gradientTransform="translate(356.738 370.562) rotate(180) scale(63.1862)">
<stop offset="0.95" stop-opacity="0"/>
<stop offset="1" stop-opacity="0.3"/>
</radialGradient>
<radialGradient id="paint21_radial" cx="0" cy="0" r="1" gradientUnits="userSpaceOnUse" gradientTransform="translate(295.961 369.34) scale(82.8657)">
<stop stop-color="#FFF4F3" stop-opacity="0.5"/>
<stop offset="0.9" stop-color="#F3D4CF" stop-opacity="0"/>
</radialGradient>
<radialGradient id="paint22_radial" cx="0" cy="0" r="1" gradientUnits="userSpaceOnUse" gradientTransform="translate(295.961 253.328) scale(74.5792)">
<stop stop-color="#FFF4F3" stop-opacity="0.5"/>
<stop offset="0.9" stop-color="#F3D4CF" stop-opacity="0"/>
</radialGradient>
<clipPath id="clip0">
<rect width="600" height="600" fill="white"/>
</clipPath>
</defs>
</svg>
