<svg width="600" height="600" viewBox="0 0 600 600" fill="none" xmlns="http://www.w3.org/2000/svg">
<g clip-path="url(#clip0)">
<path d="M675 675H-75V-75H675V675Z" fill="url(#paint0_linear)"/>
<path d="M360.996 403.874H308.184V356.576H360.996V403.874ZM414.113 320.069H340.054V380.225H414.113V320.069ZM377.082 441.95H442.881V362.639H377.082V441.95ZM400.757 434.192H334.59V491.191H400.757V434.192ZM580.44 284.416H490.23V387.501H580.44V284.416ZM478.458 331.108H456.605V356.576H478.458V331.108ZM544.531 252.277H456.605V304.426H544.531V252.277ZM442.881 270.468H395.532V335.958H442.881V270.468ZM334.59 275.32H308.184V303.213H334.59V275.32ZM299.325 320.069H258.501V382.71H299.325V320.069V320.069ZM347.338 441.95H275.708V521.511H347.338V441.95ZM308.184 576.086H388.617V528.788H308.184V576.086ZM500.311 557.894H443.791V599.129H500.313V557.894H500.311ZM637.361 516.659H585.062V578.511H637.361V516.659ZM551.302 544.718H506.381V585.953H551.302V544.718ZM594.357 463.296H528.843V537.278H594.357V463.296ZM610.791 590.639H528.843V644H610.791V590.639ZM340.054 557.894H251.187V637.937H340.052V557.894H340.054ZM630.216 356.576H569.818V403.874H630.216V356.576ZM594.357 424.49H568.208V451.477H594.357V424.49ZM251.187 474.697H300.975V404.294H251.187V474.697ZM321.764 249.852L232 252.277V320.069H321.764V249.852ZM646 252.277H587.725V326.256H646V252.277ZM371.858 245H347.338V298.361H371.858V245ZM641.143 437.983H581.281V486.494H641.143V437.983Z" fill="url(#paint1_linear)" stroke="#FFC700" stroke-width="1.5"/>
<path d="M115.996 319.874H63.1843V272.576H115.996V319.874ZM169.113 236.069H95.0537V296.225H169.113V236.069ZM132.082 357.95H197.881V278.639H132.082V357.95ZM155.757 350.192H89.5904V407.191H155.757V350.192ZM335.44 200.416H245.23V303.501H335.44V200.416ZM233.458 247.108H211.605V272.576H233.458V247.108ZM299.531 168.277H211.605V220.426H299.531V168.277ZM197.881 186.468H150.532V251.958H197.881V186.468ZM89.5904 191.32H63.1843V219.213H89.5904V191.32ZM54.3246 236.069H13.5008V298.71H54.3246V236.069V236.069ZM102.338 357.95H30.7084V437.511H102.338V357.95ZM63.1843 492.086H143.617V444.788H63.1843V492.086ZM255.311 473.894H198.791V515.129H255.313V473.894H255.311ZM392.361 432.659H340.062V494.511H392.361V432.659ZM306.302 460.718H261.381V501.953H306.302V460.718ZM349.357 379.296H283.843V453.278H349.357V379.296ZM365.791 506.639H283.843V560H365.791V506.639ZM95.0537 473.894H6.18721V553.937H95.0519V473.894H95.0537ZM385.216 272.576H324.818V319.874H385.216V272.576ZM349.357 340.49H323.208V367.477H349.357V340.49ZM6.18721 390.697H55.9745V320.294H6.18721V390.697ZM76.7643 165.852L-13 168.277V236.069H76.7643V165.852ZM401 168.277H342.725V242.256H401V168.277ZM126.858 161H102.338V214.361H126.858V161ZM396.143 353.983H336.281V402.494H396.143V353.983Z" fill="url(#paint2_linear)" stroke="#FFC700" stroke-width="1.5"/>
<rect x="504" y="328.706" width="8.86149" height="25.1423" fill="white"/>
<rect x="521.753" y="328.857" width="8.83104" height="25.1423" fill="white"/>
<rect x="512.861" y="320" width="8.89195" height="8.85765" fill="white"/>
<rect x="539.416" y="328.857" width="8.89195" height="25.1423" fill="white"/>
<rect x="530.584" y="320" width="8.83105" height="8.85765" fill="white"/>
<rect x="548.308" y="320" width="8.86149" height="8.85765" fill="white"/>
<rect x="557.169" y="327.792" width="8.83104" height="8.85766" fill="white"/>
<rect x="548.308" y="336.65" width="8.86149" height="8.82721" fill="white"/>
<rect x="40" y="390.425" width="7.57515" height="21.4449" fill="white"/>
<rect x="55.1763" y="390.555" width="7.54912" height="21.4449" fill="white"/>
<rect x="47.5752" y="383" width="7.60118" height="7.55506" fill="white"/>
<rect x="70.2744" y="390.555" width="7.60118" height="21.4449" fill="white"/>
<rect x="62.7256" y="383" width="7.54912" height="7.55506" fill="white"/>
<rect x="77.876" y="383" width="7.57515" height="7.55506" fill="white"/>
<rect x="85.4507" y="389.646" width="7.54912" height="7.55506" fill="white"/>
<rect x="77.876" y="397.202" width="7.57515" height="7.52909" fill="white"/>
<path d="M416.15 161.96H199.203C168.486 199.227 155.487 252.968 176.213 316.084C193.632 370.763 202.514 387.875 217.362 429.447C217.362 429.447 217.368 421.342 217.167 416.776C223.139 431.953 220.877 426.882 225.321 434.837C225.445 427.628 224.947 420.297 224.25 413.173C228.716 430.995 231.491 434.9 236.649 445.251C237.586 439.402 237.72 434.331 237.72 429.095C237.732 429.138 248.095 460.243 248.095 460.278C248.601 461.779 249.087 463.198 249.516 464.463C250.068 458.417 250.602 450.444 251.02 443.007C252.379 447.155 254.028 451.986 255.779 456.848C256.535 461.923 257.307 467.27 258.02 472.461C258.312 469.833 357.032 469.833 357.325 472.461C358.038 467.268 358.813 461.921 359.566 456.844C361.318 451.982 362.966 447.153 364.325 443.007C364.745 450.444 365.277 458.417 365.83 464.463C366.26 463.198 366.746 461.777 367.251 460.278C367.251 460.243 377.614 429.14 377.625 429.095C377.625 434.329 377.758 439.402 378.696 445.251C383.854 434.9 386.63 430.995 391.095 413.173C390.4 420.297 389.9 427.628 390.024 434.837C394.468 426.882 392.206 431.953 398.178 416.776C397.978 421.342 397.984 429.447 397.984 429.447C412.831 387.875 421.711 370.763 439.132 316.084C459.866 252.968 446.868 199.227 416.15 161.96Z" fill="#1B141C"/>
<path d="M416.156 161.956L418.392 172.039C444.504 208.461 453.736 258.535 435.829 315.814C420.459 367.413 415.184 377.256 399.624 423.668C400.068 407.98 399.136 415.217 405.6 392.544C416.496 355.096 421.594 350.444 423.04 330.081C419.601 352.478 409.372 365.025 402.855 391.746C402.637 392.499 400.056 401.617 399.78 402.335C399.78 403.433 392.008 426.794 391.118 428.768C395.122 369.581 416.364 343.557 427.946 297.692C434.32 270.307 431.28 257.663 427.537 231.181C425.633 217.771 423.046 202.53 417.065 197.721C423.494 204.15 425.02 220.615 426.135 231.239C426.922 238.827 430.953 261.793 427.946 283.541C421.084 323.95 398.359 359.927 393.318 395.775C393.318 395.775 393.337 395.795 393.318 395.814C387.605 417.687 387.149 422.701 379.614 440.624C379.272 432.145 379.258 426.827 379.675 419.532C391.297 389.241 388.228 399.908 395.227 361.208C394.799 362.372 387.558 384.073 380.776 404.719C381.236 399.191 381.818 392.466 382.532 383.884C382.532 383.884 382.532 383.904 382.513 383.943C376.516 424.342 380.239 404.316 369.901 438.483C366.406 409.819 374.367 368.452 375.176 362.027C369.23 385.665 365.829 404.756 366.846 428.071C366.248 430.008 365.833 431.369 365.526 432.392C364.13 409.55 363.986 405.852 363.978 405.26C363.246 438.964 364.588 408.686 358.322 454.061C357.901 455.301 357.462 456.601 356.979 458.028C355.538 446.804 354.785 432.071 354.213 426.516C350.104 425.747 345.417 425.523 341.463 425.523C322.045 426.024 334.012 427.332 307.672 427.968C281.333 427.332 293.298 426.024 273.88 425.523C269.926 425.523 265.241 425.747 261.13 426.516C260.558 432.071 259.807 446.806 258.366 458.028C257.881 456.601 257.442 455.301 257.023 454.061C250.773 408.797 252.095 438.798 251.367 405.26C251.359 405.854 251.213 409.55 249.819 432.394C249.512 431.374 249.097 430.01 248.499 428.071C249.514 404.756 246.115 385.665 240.168 362.027C240.978 368.454 248.939 409.821 245.443 438.483C235.082 404.25 238.835 424.336 232.832 383.943C232.813 383.902 232.813 383.884 232.813 383.884C233.529 392.468 234.109 399.193 234.568 404.721C227.789 384.077 220.546 362.372 220.118 361.21C227.117 399.892 224.05 389.241 235.672 419.536C236.089 426.829 236.075 432.147 235.732 440.626C228.198 422.703 227.742 417.691 222.029 395.816C222.01 395.797 222.029 395.777 222.029 395.777C216.988 359.929 194.263 323.952 187.401 283.543C184.394 261.795 188.423 238.828 189.212 231.241C190.327 220.617 191.853 204.152 198.282 197.723C192.301 202.532 189.714 217.773 187.81 231.183C184.067 257.665 181.027 270.309 187.401 297.694C198.983 343.559 220.225 369.583 224.229 428.77C223.339 426.796 215.567 403.435 215.567 402.337C215.289 401.619 212.709 392.499 212.491 391.748C205.975 365.027 195.744 352.48 192.306 330.083C193.753 350.446 198.85 355.098 209.747 392.546C216.211 415.219 215.281 407.984 215.723 423.67C200.164 377.258 194.889 367.415 179.518 315.816C161.61 258.537 170.843 208.463 196.955 172.041L199.191 161.958C168.48 199.223 155.487 252.97 176.213 316.084C193.632 370.763 202.514 387.874 217.362 429.447C217.362 429.447 217.367 421.342 217.167 416.776C223.139 431.953 220.877 426.882 225.321 434.837C225.445 427.627 224.947 420.297 224.25 413.173C228.715 430.995 231.491 434.9 236.649 445.251C237.585 439.402 237.72 434.331 237.72 429.095C237.731 429.138 248.095 460.243 248.095 460.278C248.601 461.779 249.087 463.197 249.515 464.463C250.068 458.417 250.602 450.444 251.02 443.007C256.634 460.136 255.261 452.365 258.022 472.463C258.314 469.835 258.611 467.454 258.913 465.247C258.952 465.348 258.993 465.452 259.032 465.553C263.374 437.496 263.427 441.348 264.893 429.037C302.119 431.028 312.93 431.045 350.458 429.037C351.932 441.43 351.941 437.231 356.319 465.553C356.36 465.452 356.399 465.348 356.438 465.245C356.739 467.453 357.037 469.835 357.329 472.463C360.091 452.342 358.719 460.134 364.331 443.007C364.751 450.444 365.282 458.417 365.835 464.463C366.265 463.197 366.752 461.777 367.256 460.278C367.256 460.243 377.619 429.14 377.631 429.095C377.631 434.329 377.763 439.402 378.702 445.251C383.86 434.9 386.635 430.995 391.101 413.173C390.406 420.297 389.905 427.627 390.03 434.837C394.474 426.882 392.212 431.953 398.184 416.776C397.983 421.342 397.989 429.447 397.989 429.447C412.837 387.874 421.717 370.763 439.138 316.084C459.866 252.97 446.873 199.223 416.156 161.956ZM248.291 457.049C245.716 446.849 243.507 440.356 241.741 435.248C243.832 440.638 245.375 444.599 246.088 446.481C247.059 441.43 247.898 435.698 248.132 433.751C248.464 434.913 248.92 436.418 249.467 438.162C249.136 443.542 248.749 449.769 248.291 457.049ZM251.33 437.292C251.448 434.937 251.553 432.708 251.639 430.715C251.877 431.877 252.809 437.512 254 445.148C252.497 440.733 251.766 438.596 251.33 437.292ZM264.135 428.318C263.947 429.066 262.816 434.732 261.564 441.228C261.92 435.429 262.057 430.364 261.971 427.034C264.626 426.697 273.064 426.388 285.379 428.258C279.295 428.299 272.28 428.318 264.135 428.318ZM351.217 428.318C343.071 428.318 336.056 428.297 329.971 428.258C340.804 426.613 349.625 426.557 353.38 427.034C353.294 430.364 353.43 435.427 353.789 441.224C352.537 434.728 351.406 429.064 351.217 428.318ZM361.353 445.148C362.542 437.51 363.476 431.877 363.714 430.715C363.799 432.706 363.904 434.935 364.023 437.292C363.587 438.594 362.855 440.733 361.353 445.148ZM367.062 457.049C366.606 449.769 366.217 443.542 365.886 438.16C366.431 436.416 366.888 434.911 367.221 433.749C367.453 435.696 368.294 441.428 369.265 446.479C369.977 444.597 371.521 440.632 373.613 435.236C371.848 440.346 369.639 446.841 367.062 457.049Z" fill="black"/>
<path d="M493.404 528.315C489.13 519.077 477.453 505.388 464.479 501.606C448.442 496.928 412.242 491.274 398.819 488.13C388.058 485.608 366.386 466.147 358.791 459.614C357.429 458.446 356.313 456.035 356.286 454.242C356.015 433.095 364.451 376.92 364.451 376.92H307.677H250.903C250.903 376.92 259.34 433.093 259.065 454.242C259.044 456.035 257.922 458.446 256.564 459.614C248.969 466.147 227.297 485.608 216.536 488.13C203.112 491.274 166.911 497.121 150.876 501.798C137.899 505.578 126.225 519.075 121.951 528.313C114.733 543.901 113.028 572.109 113.028 596.44H307.677H502.325C502.325 572.111 500.618 543.903 493.404 528.315Z" fill="#D79468"/>
<path d="M422.823 497.717C470.204 504.611 490.144 514.667 496.388 596.444H502.325C502.325 572.113 500.618 543.905 493.404 528.317C489.13 519.079 477.453 505.39 464.479 501.608C448.442 496.93 412.242 491.276 398.819 488.132C388.058 485.609 363.311 464.64 356.691 456.307C363.231 465.463 381.588 486.682 397.672 492.239C405.367 494.898 411.774 496.109 422.823 497.717ZM217.683 492.239C233.767 486.684 252.122 465.463 258.664 456.307C252.046 464.638 227.298 485.609 216.536 488.132C203.113 491.276 166.913 497.123 150.876 501.8C137.902 505.58 126.225 519.077 121.951 528.315C114.737 543.903 113.03 572.111 113.03 596.442H118.967C125.172 515.188 145.196 504.601 192.532 497.715C203.579 496.109 209.988 494.898 217.683 492.239Z" fill="#E6AC86"/>
<path d="M299.201 524.115C299.201 524.115 289.325 520.983 285.415 519.484C265.076 511.681 199 506.624 199 506.624C199 506.624 268.595 509.386 283.953 512.033C283.061 502.754 278.08 473.096 278.08 473.096C278.08 473.096 288.103 505.826 290.555 514.083C291.867 518.497 299.201 524.115 299.201 524.115ZM320.222 521.503C320.048 521.645 319.85 521.83 319.634 522.024C319.854 521.859 320.052 521.686 320.222 521.503ZM299.201 524.115C299.201 524.115 304.833 529.939 307.663 530.013C311.381 530.112 317.06 524.37 319.636 522.024C317.173 523.887 311.54 524.732 309.3 524.82C306.711 524.919 299.201 524.115 299.201 524.115ZM340.113 509.479C337.105 509.962 331.575 511.015 331.575 511.015L336.027 482.032C334.77 488.01 327.318 513.586 320.222 521.503C323.939 518.357 332.208 516.849 336.424 516.239C356.348 513.351 356.34 513.353 416.35 506.624C416.35 506.624 359.764 506.322 340.113 509.479Z" fill="#C87D4D"/>
<path d="M493.404 528.315C489.13 519.077 477.453 505.388 464.479 501.606C448.442 496.928 412.242 491.274 398.819 488.13C388.058 485.608 366.386 466.147 358.791 459.614C357.429 458.446 356.313 456.035 356.286 454.242C356.015 433.095 364.451 376.92 364.451 376.92H307.677H250.903C250.903 376.92 259.34 433.093 259.065 454.242C259.044 456.035 257.922 458.446 256.564 459.614C248.969 466.147 227.297 485.608 216.536 488.13C203.112 491.274 166.911 497.121 150.876 501.798C137.899 505.578 126.225 519.075 121.951 528.313C114.733 543.901 113.028 572.109 113.028 596.44H307.677H502.325C502.325 572.111 500.618 543.903 493.404 528.315Z" stroke="#A9561F" stroke-width="3.825"/>
<path d="M354.921 455.264C354.867 454.923 354.828 454.584 354.822 454.261C354.639 439.896 358.363 410.035 360.852 391.822C330.295 387.96 285.062 387.978 254.502 391.853C256.992 410.07 260.712 439.906 260.525 454.261C260.523 454.493 260.498 454.734 260.466 454.976C267.912 461.956 275.39 467.682 281.985 470.841C292.325 475.797 322.929 475.565 333.374 470.841C340.013 467.842 347.494 462.201 354.921 455.264Z" fill="url(#paint3_linear)"/>
<path d="M196.279 598.348L198.854 479.901C198.854 479.901 218.697 475.06 231.234 467.613C265.29 510.344 366.419 501.351 383.714 466.406C386.612 467.428 389.01 468.736 392.01 469.74C401.742 476.331 409.943 478.488 409.943 478.488L411.763 598.556C383.955 598.922 196.279 598.348 196.279 598.348Z" fill="#F5F4F5"/>
<path d="M412.814 485.351C404.568 483.951 397.999 482.048 394.416 478.453C384.015 497.966 342.322 510.332 328.517 512.144C368.525 499.928 385.331 491.097 391.969 470.133C395.842 474.772 404.664 477.041 415.936 478.966L412.814 485.351ZM215.549 478.881C218.38 478.273 219.793 476.479 222.602 475.78L219.627 472.146C213.566 476.494 202.165 478.579 188.678 480.757L189.044 488.033C196.744 486.495 204.26 484.553 211.29 481.565C225.856 498.081 248.601 506.206 271.748 509.569C242.711 502.591 226.06 490.813 215.549 478.881Z" fill="white"/>
<path d="M381.372 470.46C369.831 492.574 282.607 518.334 233.422 472.146C230.364 473.343 221.215 476.204 221.215 476.204C257.042 521.129 362.034 521.415 389.979 475.986C389.859 475.939 384.214 471.787 381.372 470.46Z" fill="#DFDDE2"/>
<path d="M383.605 466.151C363.971 502.307 261.798 507.424 231.314 467.367C220.18 470.396 209.476 476.858 198.699 478.476L196.279 598.348L411.761 598.556L410.096 477.123C403.539 475.747 397.442 471.796 392.084 469.544C389.121 468.3 386.606 467.181 383.605 466.151ZM230.576 468.576C257.638 513.513 364.527 504.499 385.164 468.769C387.667 469.74 388.307 470.124 391.21 471.072C369.833 512.353 264.093 525.509 220.844 473.304C221.148 473.226 227.526 469.631 230.576 468.576ZM218.697 475.06C253.662 527.704 369.082 519.549 393.069 472.555C396.516 475.262 401.886 478.373 408.516 479.825L411.747 594.823L196.9 594.854L200.606 481.376C206.025 478.653 214.726 476.644 218.697 475.06Z" fill="#B8B6C9"/>
<path d="M104.213 597.976C99.2025 571.013 99.7514 505.339 121.756 505.477C147.325 495.14 178.728 483.28 205.07 475.675C218.516 461.57 231.223 448.157 256.044 434.187C256.801 439.246 259.692 450.812 256.066 457.103C253.428 461.681 244.809 467.957 237.469 473.391C233.519 478.686 229.825 483.852 224.624 491.083C234.683 534.492 243.312 556.835 244.278 594.486C244.278 594.486 241.451 595.827 369.769 595.259C374.081 551.776 379.488 529.933 389.972 489.958C389.972 489.958 381.586 480.198 375.944 472.693C371.946 468.806 359.671 458.032 358.737 455.854C356.45 450.518 357.67 443.809 358.951 433.728C379.959 443.213 392.041 457.127 409.719 475.194C424.763 479.319 469.787 494.595 492.337 504.812C500.055 504.597 504.411 508.703 507.66 515.451C518.181 537.242 515.691 568.584 511.903 598.739C474.743 598.799 210.132 603.045 104.213 597.976Z" fill="#39557E"/>
<path d="M256.825 439.367C257.136 441.45 257.416 443.426 257.625 445.286C257.2 445.804 224.122 490.743 223.88 491.077C232.009 472.588 243.637 453.429 256.825 439.367ZM358.388 439.367C358.079 441.45 358.03 443.426 357.822 445.286C358.246 445.804 390.778 489.022 391.017 489.359C382.404 472.132 371.576 453.429 358.388 439.367ZM434.213 499.85C425.882 511.979 424.103 516.166 414.984 528.185C417.069 528.185 420.432 528.508 422.517 528.508C429.649 516.275 429.663 510.048 434.213 499.85ZM442.751 587.88C450.134 570.556 456.248 555.352 463.654 538.003L461.227 534.083C455.058 551.903 448.512 570.011 442.751 587.88ZM192.927 528.508C195.012 528.508 198.376 528.185 200.462 528.185C191.343 516.166 189.564 515.414 181.235 503.286C185.782 513.483 185.796 516.275 192.927 528.508ZM154.218 534.083L151.791 538.003C159.199 555.352 161.066 570.556 168.45 587.88C162.687 570.011 160.386 551.903 154.218 534.083Z" fill="#27446F"/>
<path d="M240.792 468.958C243.09 465.754 250.985 454.803 257.533 444.508C259.456 455.13 255.925 461.431 240.792 468.958ZM357.779 443.803C362.748 452.36 368.605 460.878 374.643 468.724C358.285 461.275 357.185 453.658 357.779 443.803Z" fill="#18355F"/>
<path d="M358.904 434.069C358.919 433.95 358.937 433.839 358.949 433.73C394.166 453.193 414.571 482.431 438.262 504.226C437.39 505.629 435.872 506.548 434.978 507.934C410.17 489.057 398.38 460.516 358.904 434.069ZM252.661 435.359C223.398 451.346 182.117 500.288 178.076 504.01C178.948 505.419 179.421 505.133 180.314 506.517C205.124 487.642 211.896 468.957 252.661 435.359ZM492.337 504.814C490.391 503.258 444.364 485.273 409.436 475.677C475.029 507.402 498.171 511.774 509.624 523.017C508.878 521.073 507.358 504.395 492.337 504.814ZM205.404 475.326C179.08 482.945 145.377 494.982 121.754 505.479C111.313 505.686 103.831 520.915 102.229 536.786C116.754 504.06 109.577 526.061 205.404 475.326Z" fill="#4E688D"/>
<path d="M515.171 548.333C514.509 531.525 509.225 503.363 492.415 504.615C491.025 503.428 451.885 485.604 410.108 474.228C395.795 459.717 377.962 439.974 358.777 433.436C357.393 445.948 355.902 454.112 359.198 458.184C363.56 462.931 368.794 467.681 373.929 470.879C382.914 482.822 389.771 489.911 389.771 489.911C379.202 530.209 372.613 550.863 368.412 594.414H246.942C242.744 550.865 236.153 530.211 225.583 489.911C225.583 489.911 232.439 482.82 241.426 470.879C246.563 467.679 251.795 462.931 256.157 458.184C259.45 454.112 257.961 445.948 256.577 433.436C237.393 439.974 219.557 459.717 205.247 474.228C163.469 485.606 124.329 503.428 122.94 504.615C106.128 503.363 100.843 531.525 100.183 548.333C99.3833 568.746 102.976 596.874 103.268 598.821H512.086C512.378 596.872 515.971 568.746 515.171 548.333ZM255.09 457.105C250.695 461.452 247.97 463.297 242.491 467.387C251.89 455.18 250.94 456.811 257.494 445.53C257.788 450.38 255.964 456.243 255.09 457.105ZM106.854 594.982C104.748 569.982 101.178 547.469 107.691 522.978C110.184 513.582 112.526 507.221 122.202 506.415C124.279 517.195 138.031 562.326 150.033 593.098C137.914 546.009 139.695 556.485 134.035 537.717C132.158 531.42 130.426 525.092 128.236 518.89C126.712 514.581 125.024 510.351 123.833 505.941L202.535 477.006C201.992 477.557 177.435 503.155 176.844 503.875C180.439 509.756 192.057 517.933 197.953 526.762C173.747 529.047 161.928 532.938 153.184 534.237C153.828 536.025 170.821 583.586 172.602 588.068C169.723 572.658 163.228 548.561 155.79 535.103C158.535 534.754 190.977 530.252 201.324 528.335C198.451 522.78 185.669 511.912 178.825 503.772C219.012 468.42 228.309 450.435 255.892 434.762C256.184 437.699 256.754 440.622 256.963 443.558C226.218 489.364 222.609 489.43 222.609 489.43C231.534 524.097 243.11 559.161 243.11 594.683L106.854 594.982ZM360.262 457.105C359.39 456.243 357.565 450.38 357.859 445.53C364.412 456.813 363.462 455.18 372.862 467.387C367.383 463.297 364.656 461.454 360.262 457.105ZM508.499 594.982L372.245 594.683C372.245 559.161 383.821 524.095 392.745 489.43C392.745 489.43 389.137 489.364 358.392 443.558C358.598 440.622 359.169 437.699 359.462 434.762C387.046 450.435 396.34 468.42 436.53 503.772C429.686 511.914 416.903 522.781 414.03 528.335C424.376 530.25 456.818 534.754 459.564 535.103C452.129 548.561 445.633 572.658 442.752 588.068C444.533 583.584 461.526 536.025 462.171 534.237C453.427 532.938 441.608 529.047 417.401 526.762C423.295 517.933 434.916 509.758 438.511 503.875C437.917 503.155 413.362 477.557 412.819 477.006C412.821 477.006 491.522 505.941 491.522 505.941C490.332 510.353 488.643 514.581 487.119 518.89C484.929 525.092 483.196 531.42 481.32 537.717C475.66 556.487 477.441 546.009 465.322 593.098C477.324 562.324 491.074 517.195 493.153 506.415C502.829 507.221 505.17 513.582 507.664 522.978C514.175 547.469 510.605 569.984 508.499 594.982Z" fill="#0C2850"/>
<path d="M201.926 303.625C199.036 298.833 189.611 285.719 182.401 287.559C176.538 289.062 176.614 297.235 176.161 302.07C175.499 309.163 175.258 321.519 177.183 326.533C179.034 331.347 184.891 340.649 188.527 344.198C193.002 348.548 200.147 362.413 201.027 363.851C202.411 366.125 205.187 369.379 209.446 369.122C215.423 368.762 220.587 363.114 221.056 360.392C223.589 345.619 209.449 316.094 201.926 303.625Z" fill="#D79468" stroke="#A9561F" stroke-width="3.825"/>
<path d="M199.062 332.816C198.784 331.72 199.076 329.871 199.362 328.088C199.621 326.463 199.864 324.927 199.716 323.841C199.154 319.773 195.989 312.045 193.924 307.857C191.543 303.037 187.697 296.966 182.87 295.401C180.877 294.753 179.563 295.528 178.803 296.312C178.243 296.888 178.116 297.567 178.299 297.649C178.484 297.729 178.897 297.166 179.5 296.639C179.995 296.207 178.512 296.561 179.5 296.639C179.101 298.663 177.817 308.906 178.702 316.382C179.399 322.264 180.746 326.658 181.161 327.316C181.221 328.009 181.322 328.688 181.472 329.346C183.422 337.93 196.106 349.155 199.057 352.353C199.602 352.943 200.174 353.293 200.314 353.149C200.454 353.005 200.117 352.423 199.576 351.83C196.661 348.653 184.061 337.463 182.177 329.182C180.178 320.396 189.791 307.368 191.323 304.612C192.104 305.906 192.768 307.148 193.278 308.184C193.68 308.995 194.122 309.947 194.582 310.977C193.68 312.413 184.62 322.903 186.924 331.3C187.777 334.397 194.364 338.389 196.912 339.481C198.313 340.084 198.839 340.984 199.45 342.023C200.158 343.238 199.514 346.362 201.844 347.355C202.319 347.557 202.747 347.639 203.127 347.639C203.785 347.639 204.283 347.386 204.651 347.086C204.69 347.613 204.688 348.291 204.668 348.918C204.645 349.731 204.76 350.103 204.956 350.119C205.157 350.136 205.365 349.78 205.39 348.976C205.424 347.983 205.418 346.755 205.241 346.165C204.717 344.435 203.123 342.479 201.431 340.41C199.769 338.375 199.495 334.514 199.062 332.816ZM181.095 325.208C176.524 311.732 183.592 299.458 184.618 297.608C186.587 298.385 189.605 301.877 190.887 303.905C189.953 305.527 181.285 316.143 181.095 325.208ZM202.122 346.681C200.012 345.782 200.748 342.819 200.067 341.651C199.448 340.596 198.809 339.506 197.188 338.81C196.838 338.658 196.45 338.428 196.053 338.163C190.833 326.338 196.624 321.171 198.076 320.114C198.521 321.558 198.852 322.883 199.002 323.948C199.134 324.921 198.887 326.475 198.65 327.973C198.352 329.832 198.046 331.757 198.364 333.003C198.839 334.858 199.164 338.784 200.877 340.883C202.397 342.743 203.958 344.663 204.491 346.228C204.262 346.539 203.539 347.286 202.122 346.681Z" fill="#A9561F"/>
<path d="M412.915 303.625C415.807 298.833 425.232 285.719 432.44 287.559C438.303 289.062 438.227 297.235 438.683 302.07C439.344 309.163 439.584 321.519 437.661 326.533C435.81 331.347 429.951 340.649 426.317 344.198C421.842 348.548 414.694 362.413 413.816 363.851C412.432 366.125 409.657 369.379 405.396 369.122C399.42 368.762 394.256 363.114 393.785 360.392C391.255 345.619 405.396 316.094 412.915 303.625Z" fill="#D79468" stroke="#A9561F" stroke-width="3.825"/>
<path d="M413.413 340.412C411.722 342.481 410.128 344.437 409.604 346.168C409.425 346.759 409.421 347.988 409.452 348.978C409.48 349.782 409.688 350.139 409.89 350.121C410.089 350.105 410.202 349.734 410.178 348.92C410.159 348.293 410.155 347.616 410.194 347.088C410.562 347.388 411.06 347.641 411.718 347.641C412.098 347.641 412.528 347.559 413.003 347.357C415.329 346.362 414.686 343.238 415.395 342.026C416.006 340.986 416.532 340.085 417.935 339.484C420.483 338.392 427.07 334.401 427.923 331.302C430.227 322.905 421.166 312.414 420.265 310.979C420.721 309.95 421.166 308.998 421.565 308.186C422.079 307.15 422.741 305.907 423.523 304.614C425.055 307.37 434.667 320.396 432.67 329.185C430.784 337.465 418.186 348.655 415.27 351.832C414.727 352.426 414.389 353.008 414.529 353.152C414.673 353.296 415.243 352.945 415.786 352.356C418.737 349.158 431.418 337.932 433.369 329.348C433.521 328.69 433.624 328.011 433.684 327.318C434.095 326.662 435.444 322.269 436.141 316.385C437.026 308.908 435.742 298.666 435.342 296.641C436.331 296.564 434.848 296.209 435.342 296.641C435.948 297.169 436.361 297.731 436.543 297.652C436.726 297.57 436.6 296.893 436.041 296.314C435.28 295.53 433.966 294.755 431.973 295.403C427.146 296.968 423.298 303.04 420.917 307.859C418.852 312.048 415.689 319.775 415.126 323.844C414.978 324.93 415.222 326.465 415.481 328.091C415.765 329.874 416.059 331.723 415.78 332.819C415.348 334.514 415.076 338.376 413.413 340.412ZM423.956 303.906C425.24 301.877 428.255 298.387 430.225 297.609C431.251 299.458 438.319 311.733 433.75 325.208C433.56 316.143 424.892 305.527 423.956 303.906ZM410.354 346.224C410.885 344.659 412.448 342.74 413.968 340.879C415.679 338.781 416.006 334.855 416.481 333C416.796 331.754 416.493 329.829 416.197 327.97C415.957 326.471 415.71 324.918 415.843 323.945C415.991 322.88 416.321 321.554 416.767 320.11C418.219 321.167 424.01 326.337 418.79 338.16C418.394 338.425 418.007 338.654 417.653 338.806C416.033 339.503 415.395 340.593 414.774 341.648C414.093 342.816 414.83 345.78 412.72 346.678C411.303 347.287 410.581 346.54 410.354 346.224Z" fill="#A9561F"/>
<path d="M393.33 386.648C383.592 406.551 354.309 442 333.376 451.4C322.931 456.095 292.327 456.325 281.987 451.4C261.265 441.537 231.836 406.52 222.034 386.648C211.108 364.509 193.126 292.141 193.103 292.036C190.573 282.327 189.218 272.133 189.202 261.626C189.101 195.445 242.057 141.726 307.494 141.625C372.937 141.522 426.06 195.07 426.157 261.248C426.175 271.759 424.855 281.955 422.358 291.674C422.327 291.775 404.222 364.384 393.33 386.648Z" fill="#D79468"/>
<path d="M327.437 143.309C379.98 155.645 419.111 203.287 419.023 260.173C419.005 270.682 417.653 280.874 415.122 290.585C415.099 290.69 398.363 363.082 387.618 385.2C378.16 404.672 349.273 438.666 329.094 448.501C324.883 450.555 312.171 451.528 307.68 451.528C303.19 451.528 290.479 450.555 286.269 448.501C266.09 438.666 237.2 404.672 227.744 385.2C216.998 363.082 200.262 290.69 200.24 290.585C197.71 280.876 196.355 270.682 196.34 260.173C196.252 203.287 235.378 155.645 287.925 143.309C231.822 152.837 189.11 202.19 189.202 261.625C189.217 272.133 190.572 282.326 193.103 292.035C193.126 292.14 211.072 364.524 222.033 386.648C231.867 406.5 261.366 441.315 281.987 451.4C287.16 453.932 300.099 455.01 307.201 455.007C314.298 455.012 328.206 453.932 333.376 451.4C353.997 441.313 383.494 406.502 393.329 386.648C404.29 364.524 422.239 292.14 422.258 292.035C424.788 282.326 426.143 272.133 426.159 261.625C426.252 202.19 383.541 152.837 327.437 143.309Z" fill="#CF885A"/>
<path d="M393.33 386.648C383.592 406.551 354.309 442 333.376 451.4C322.931 456.095 292.327 456.325 281.987 451.4C261.265 441.537 231.836 406.52 222.034 386.648C211.108 364.509 193.126 292.141 193.103 292.036C190.573 282.327 189.218 272.133 189.202 261.626C189.101 195.445 242.057 141.726 307.494 141.625C372.937 141.522 426.06 195.07 426.157 261.248C426.175 271.759 424.855 281.955 422.358 291.674C422.327 291.775 404.222 364.384 393.33 386.648Z" stroke="#A9561F" stroke-width="3.825"/>
<path d="M308.066 417.695C302.553 417.975 300.973 412.336 300.973 412.336C300.973 412.336 308.624 413.436 314.581 411.649C314.582 411.651 312.916 417.451 308.066 417.695Z" fill="url(#paint4_linear)"/>
<path d="M308.626 413.438C304.764 413.632 301.298 413.288 301.08 413.264C300.811 413.237 300.616 413 300.644 412.735C300.673 412.466 300.922 412.281 301.177 412.299C301.257 412.305 309.15 413.087 314.292 411.643C314.547 411.581 314.82 411.723 314.894 411.982C314.968 412.241 314.816 412.507 314.557 412.581C312.739 413.091 310.629 413.336 308.626 413.438Z" fill="#A9561F"/>
<path d="M273.613 393.076C273.613 393.076 298.006 395.968 306.154 395.993C315.016 396.017 343.686 393.076 343.686 393.076C335.398 399.955 326.279 406.569 305.623 406.699C287.147 406.818 282.413 400.108 273.613 393.076Z" fill="white"/>
<path d="M273.613 393.076C273.613 393.076 298.006 395.968 306.154 395.993C315.016 396.017 343.686 393.076 343.686 393.076C335.398 399.955 326.279 406.569 305.623 406.699C287.147 406.818 282.413 400.108 273.613 393.076Z" stroke="#A9561F" stroke-width="1.9125"/>
<path d="M231.65 301.305C231.23 306.677 234.924 313.057 255.966 314.86C274.56 316.452 282.477 313.384 283.028 307.265C283.579 301.145 276.396 293.665 257.957 292.701C241.546 291.845 232.129 295.179 231.65 301.305Z" fill="url(#paint5_radial)"/>
<path d="M272.124 308.593C270.008 318.95 261.998 325.052 254.214 322.206C246.436 319.364 241.842 308.651 243.958 298.292C246.072 287.929 254.101 281.828 261.879 284.674C269.652 287.516 274.241 298.229 272.124 308.593Z" fill="#7B5C33" stroke="#4D3009" stroke-width="1.275"/>
<path d="M269.852 308.836C267.789 316.787 261.56 321.428 255.499 319.215C249.903 317.165 246.372 310.004 246.829 302.436C248.908 302.218 251.176 302.152 253.533 302.307C253.51 302.416 253.469 302.51 253.445 302.621C252.704 306.27 254.436 310.097 257.321 311.154C260.215 312.209 263.162 310.093 263.91 306.446C264.001 305.969 264.052 305.492 264.067 305.021C266.045 305.98 267.986 307.222 269.852 308.836Z" fill="#8A6D47"/>
<path opacity="0.9" d="M260.017 297.638C257.095 296.52 254.109 298.745 253.356 302.628C252.599 306.494 254.358 310.537 257.282 311.656C260.211 312.775 263.197 310.549 263.951 306.683C264.712 302.798 262.946 298.753 260.017 297.638ZM260.657 311.366C259.441 311.868 258.183 311.201 257.848 309.865C257.525 308.532 258.247 307.055 259.47 306.56C260.694 306.056 261.948 306.728 262.286 308.053C262.615 309.379 261.891 310.862 260.657 311.366Z" fill="black"/>
<path opacity="0.6" d="M250.283 313.69C249.382 314.41 248.04 313.768 247.27 312.242C246.499 310.73 246.618 308.917 247.521 308.195C248.412 307.487 249.771 308.129 250.536 309.643C251.291 311.158 251.184 312.972 250.283 313.69Z" fill="white"/>
<path opacity="0.9" d="M269.502 302.601C267.443 304.242 264.35 302.763 262.598 299.29C260.846 295.814 261.111 291.66 263.168 290.021C265.224 288.368 268.319 289.852 270.063 293.328C271.811 296.803 271.56 300.952 269.502 302.601Z" fill="white"/>
<path d="M221.587 308.199C223.929 334.971 242.323 355.232 262.67 353.453C283.016 351.672 297.613 328.524 295.272 301.752C292.93 274.98 274.536 254.718 254.189 256.499C233.841 258.28 219.246 281.427 221.587 308.199ZM231.651 301.305C232.13 295.181 241.547 291.845 257.959 292.703C276.398 293.667 283.581 301.147 283.03 307.267C282.479 313.386 274.561 316.454 255.968 314.862C234.925 313.058 231.23 306.677 231.651 301.305Z" fill="#D79468"/>
<path d="M225.531 305.279C226.691 320.289 245.508 331.241 264.231 329.529C282.948 327.806 298.363 316.444 296.998 301.451C295.641 286.465 279.377 275.71 260.651 277.427C241.926 279.152 223.939 284.75 225.531 305.279ZM231.651 301.305C232.13 295.181 241.547 291.845 257.959 292.703C276.398 293.667 283.581 301.147 283.03 307.267C282.479 313.386 274.561 316.454 255.968 314.862C234.925 313.057 231.23 306.677 231.651 301.305Z" fill="url(#paint6_radial)"/>
<path d="M231.65 301.305C231.23 306.677 234.924 313.057 255.966 314.86C274.56 316.452 282.477 313.384 283.028 307.265C283.579 301.145 276.396 293.665 257.957 292.701C241.546 291.845 232.129 295.179 231.65 301.305Z" fill="url(#paint7_radial)"/>
<path d="M279.587 294.169C277.592 292.859 273.192 291.051 273.192 291.051C273.192 291.051 278.197 292.195 280.18 293.54C282.164 294.885 284.233 298.146 284.233 298.146C284.233 298.146 281.582 295.479 279.587 294.169ZM243.481 289.585C243.481 289.585 238.31 289.519 234.633 291.796C231.257 293.887 229.868 297.023 229.868 297.023C229.868 297.023 233.077 293.665 235.343 292.155C237.461 290.741 243.481 289.585 243.481 289.585Z" fill="#A9561F"/>
<path d="M258.543 293.085C246.56 292.664 228.152 293.817 232.443 305.171C226.208 301.406 231 288.022 259.678 290.41C273.57 291.567 290.088 298.732 282.422 309.416C284.85 298.249 270.304 293.499 258.543 293.085ZM279.691 312.711L273.811 314.572C263.506 314.737 257.751 314.027 248.125 313.591C243.689 313.389 239.701 311.205 234.508 308.789C237.499 312.094 242.477 314.747 248.022 315.068C257.344 315.61 263.656 315.734 274.121 315.812L279.691 312.711Z" fill="black"/>
<path d="M383.705 301.305C384.125 306.677 380.431 313.057 359.389 314.86C340.794 316.452 332.878 313.384 332.327 307.265C331.776 301.145 338.959 293.665 357.398 292.701C373.809 291.845 383.226 295.179 383.705 301.305Z" fill="url(#paint8_radial)"/>
<path d="M371.393 308.592C369.275 318.949 361.266 325.052 353.482 322.202C345.707 319.364 341.11 308.649 343.229 298.291C345.345 287.928 353.371 281.828 361.145 284.678C368.925 287.516 373.515 298.231 371.393 308.592Z" fill="#7B5C33" stroke="#4D3009" stroke-width="1.275"/>
<path d="M369.126 308.835C367.058 316.787 360.832 321.425 354.77 319.21C349.174 317.162 345.641 310.003 346.101 302.435C348.177 302.219 350.451 302.151 352.806 302.307C352.785 302.414 352.738 302.507 352.717 302.62C351.975 306.27 353.705 310.095 356.59 311.152C359.488 312.207 362.432 310.087 363.179 306.441C363.274 305.966 363.321 305.487 363.341 305.016C365.312 305.982 367.255 307.224 369.126 308.835Z" fill="#8A6D47"/>
<path opacity="0.9" d="M359.292 297.637C356.364 296.522 353.382 298.745 352.625 302.628C351.872 306.496 353.628 310.537 356.557 311.654C359.485 312.773 362.465 310.545 363.226 306.681C363.983 302.798 362.217 298.753 359.292 297.637ZM359.926 311.366C358.714 311.868 357.452 311.201 357.123 309.865C356.796 308.534 357.521 307.053 358.745 306.562C359.969 306.056 361.221 306.728 361.558 308.053C361.888 309.377 361.162 310.86 359.926 311.366Z" fill="black"/>
<path opacity="0.6" d="M349.553 313.69C348.656 314.407 347.315 313.766 346.542 312.24C345.771 310.73 345.89 308.919 346.791 308.193C347.685 307.485 349.04 308.129 349.803 309.645C350.564 311.158 350.459 312.97 349.553 313.69Z" fill="white"/>
<path opacity="0.9" d="M368.773 302.601C366.71 304.244 363.623 302.762 361.867 299.29C360.121 295.813 360.376 291.662 362.437 290.023C364.493 288.368 367.588 289.851 369.328 293.328C371.082 296.806 370.83 300.954 368.773 302.601Z" fill="white"/>
<path d="M361.164 256.499C340.817 254.718 322.423 274.98 320.082 301.752C317.74 328.524 332.337 351.672 352.683 353.453C373.03 355.232 391.424 334.971 393.766 308.199C396.109 281.427 381.514 258.28 361.164 256.499ZM359.387 314.86C340.792 316.452 332.876 313.385 332.325 307.265C331.774 301.145 338.957 293.665 357.396 292.701C373.808 291.845 383.225 295.179 383.704 301.303C384.123 306.677 380.43 313.058 359.387 314.86Z" fill="#D79468"/>
<path d="M354.702 277.427C335.977 275.71 319.712 286.465 318.355 301.451C316.991 316.444 332.405 327.806 351.122 329.529C369.845 331.241 388.662 320.289 389.822 305.279C391.416 284.75 373.427 279.152 354.702 277.427ZM359.387 314.86C340.792 316.452 332.876 313.384 332.325 307.265C331.774 301.145 338.957 293.665 357.396 292.701C373.808 291.845 383.226 295.179 383.704 301.303C384.123 306.677 380.43 313.057 359.387 314.86Z" fill="url(#paint9_radial)"/>
<path d="M383.705 301.305C384.125 306.677 380.431 313.057 359.389 314.86C340.794 316.452 332.878 313.384 332.327 307.265C331.776 301.145 338.959 293.665 357.398 292.701C373.809 291.845 383.226 295.179 383.705 301.305Z" fill="url(#paint10_radial)"/>
<path d="M331.122 298.146C331.122 298.146 333.191 294.885 335.175 293.54C337.158 292.195 342.163 291.051 342.163 291.051C342.163 291.051 337.763 292.859 335.768 294.169C333.773 295.479 331.122 298.146 331.122 298.146ZM380.01 292.154C382.276 293.665 385.485 297.023 385.485 297.023C385.485 297.023 384.096 293.889 380.72 291.796C377.043 289.521 371.872 289.585 371.872 289.585C371.872 289.585 377.892 290.741 380.01 292.154Z" fill="#A9561F"/>
<path d="M332.932 309.417C325.267 298.733 341.785 291.568 355.677 290.412C384.355 288.024 389.147 301.406 382.912 305.172C387.202 293.818 368.794 292.666 356.812 293.086C345.049 293.499 330.505 298.248 332.932 309.417ZM341.232 315.81C351.697 315.732 358.009 315.607 367.331 315.066C372.878 314.745 377.853 312.092 380.845 308.787C375.652 311.202 371.664 313.386 367.228 313.589C357.602 314.027 351.846 314.735 341.542 314.57L335.661 312.709L341.232 315.81Z" fill="black"/>
<path d="M387.482 361.299C387.55 405.332 351.877 441.093 307.797 441.154C263.724 441.226 227.936 405.586 227.868 361.542C227.8 317.513 263.473 281.612 307.551 281.542C351.626 281.474 387.417 317.26 387.482 361.299Z" fill="url(#paint11_radial)"/>
<path d="M380.669 244.559C380.669 284.873 347.99 317.552 307.678 317.552C267.365 317.552 234.683 284.873 234.683 244.559C234.683 204.245 267.365 171.566 307.678 171.566C347.99 171.566 380.669 204.245 380.669 244.559Z" fill="url(#paint12_radial)"/>
<path d="M217.5 271.789C231.162 278.691 246.835 280.437 279.086 284.314C280.141 284.482 280.894 284.678 281.572 284.686C284.815 284.624 287.573 281.648 287.127 278.991C285.603 268.863 231.144 273.603 217.5 271.789Z" fill="#2A232B"/>
<path d="M397.853 271.789C384.191 278.691 368.518 280.437 336.266 284.314C335.211 284.482 334.458 284.678 333.781 284.686C330.538 284.624 327.778 281.648 328.226 278.991C329.75 268.863 384.206 273.603 397.853 271.789Z" fill="#2A232B"/>
<path d="M290.381 364.268C288.672 368.285 301.932 372.622 306.964 372.889C312.414 373.175 327.686 367.244 325.097 363.172C322.374 358.899 312.166 362.615 307.762 362.615C303.378 362.613 292.671 358.907 290.381 364.268Z" fill="#C87D4D"/>
<path d="M311.291 367.302C310.843 365.825 314.942 364.219 316.463 364.005C318.606 363.694 323.003 365.566 322.61 367.104C322.251 368.462 318.429 366.066 317.043 366.269C315.614 366.477 311.715 368.686 311.291 367.302ZM297.893 366.822C299.777 366.822 302.573 368.034 303.086 366.966C303.7 365.691 298.923 364.122 297.519 364.295C296.359 364.431 292.2 366.855 292.772 367.875C293.305 368.811 295.409 366.822 297.893 366.822Z" fill="#A9561F"/>
<path opacity="0.2" d="M307.849 357.455C309.03 357.455 311.24 356.015 311.337 353.114C311.728 341.42 309.476 306.724 307.849 306.847C306.331 306.961 303.436 341.177 304.057 353.114C304.211 356.038 306.516 357.455 307.849 357.455Z" fill="#F6C7A8"/>
<path d="M271.139 211.991C296.186 208.129 308.649 204.526 323.11 208.076C357.064 199.792 409.526 233.032 408.868 232.353L388.465 157.092L284.597 152.845L271.139 211.991Z" fill="#0C080C"/>
<path d="M210.77 306.473C216.526 315.107 226.953 328.421 234.788 335.104C230.572 324.984 212.491 257.328 223.335 221.982C235.821 259.078 258.179 282.017 279.703 290.432C288.509 302.955 301.21 316.355 312.713 324.764C305.525 310.325 284.705 281.824 286.551 262.85C298.266 283.798 320.005 307.681 330.841 310.564C297.451 254.41 282.675 198.809 304.271 177.289C310.866 182.089 319.228 198.811 323.269 208.563C330.697 195.309 353.441 167.315 365.893 175.27C373.134 175.918 375.096 196.152 380.659 219.471C388.533 252.47 401.827 283.461 372.496 335.088C394.138 320.472 396.718 299.277 401.829 290.728C411.559 310.955 366.547 387.308 360.951 394.411C388.688 378.382 406.991 338.88 412.788 324.367C439.166 258.323 431.392 221.988 416.151 161.96C400.782 143.311 380.978 128.782 358.734 119.276C321.369 102.773 267.991 103.667 230.033 117.426C184.794 134.044 141.612 186.137 144.193 233.865C145.232 229.365 147.48 218.739 150.708 213.038C159.253 198.593 164.496 188.874 187.969 169.61C179.578 185.065 170.283 204.232 164.67 220.646C163.932 222.982 164.477 220.643 162.879 226.856C153.475 265.026 154.116 297.013 170.762 338.973C170.762 337.772 170.529 329.056 170.353 325.659C168.74 265.669 164.362 273.562 179.202 235.179C175.722 258.118 169.024 264.686 186.899 341.289C192.094 362.812 202.307 380.276 204.631 383.392C209.026 389.755 226.27 414.386 232.835 423.45C232.436 421.508 226.36 395.339 226.101 394.234C226.247 394.625 226.391 395.008 226.537 395.402C218.836 367.826 208.802 336.772 210.77 306.473Z" fill="#2A232B"/>
<path d="M416.15 161.96C412.94 158.065 409.526 154.361 405.948 150.834C428.249 191.741 427.478 274.815 407.766 316.577C421.466 259.586 416.327 215.819 400.88 182.312C404.747 214.359 405.234 244.557 397.59 278.593C395.309 224.942 384.321 166.818 365.82 161.954C344.453 156.337 335.573 177.639 325.393 188.568C325.056 172.148 311.645 162.491 303.974 165.909C284.721 174.489 287.102 222.632 291.219 244.557C275.308 204.627 284.599 191.434 287.102 159.247C261.798 188.444 263.571 220.938 272.643 254.291C251.232 217.308 257.072 170.593 286.269 139.449C243.888 160.068 229.301 206.858 249.642 256.032C226.113 222.058 239.137 180.93 243.888 146.507C214.549 207.529 202.189 228.709 211.867 289.33C185.714 229.881 215.691 178.708 230.8 154.733C219.121 162.519 204.485 179.258 196.221 198.813C200.02 185.4 212.538 160.985 227.87 151.13C202.033 159.472 190.319 182.217 184.151 197.246C194.013 154.898 228.994 145.308 242.154 135.089C204.324 138.966 186.377 161.876 172.752 173.555C189.963 145.392 212.314 131.309 247.366 112.321C241.338 113.757 235.51 115.443 230.029 117.428C184.791 134.045 141.608 186.139 144.189 233.867C145.229 229.367 147.477 218.741 150.704 213.04C159.249 198.595 164.493 188.876 187.966 169.612C179.574 185.067 170.28 204.234 164.666 220.648C163.929 222.984 164.474 220.644 162.876 226.858C153.472 265.028 154.112 297.015 170.759 338.975C170.759 337.774 170.525 329.058 170.35 325.661C168.736 265.67 164.359 273.563 179.199 235.181C175.718 258.12 169.021 264.688 186.895 341.291C192.09 362.814 202.303 380.277 204.628 383.394C209.023 389.757 226.267 414.388 232.832 423.452C232.433 421.51 226.356 395.341 226.097 394.236C226.243 394.627 226.387 395.01 226.533 395.404C218.833 367.826 208.801 336.772 210.767 306.473C216.522 315.107 226.95 328.421 234.784 335.103C230.568 324.984 212.487 257.328 223.331 221.982C235.818 259.078 258.175 282.017 279.699 290.432C288.507 302.955 301.208 316.355 312.712 324.764C305.523 310.325 284.704 281.824 286.549 262.85C298.265 283.798 320.003 307.681 330.839 310.564C297.449 254.41 282.674 198.809 304.27 177.289C310.431 181.771 318.131 196.656 322.413 206.546C322.448 204.469 322.448 204.469 322.413 206.546C322.715 207.243 323.003 207.92 323.268 208.563C330.695 195.309 353.44 167.315 365.892 175.27C373.133 175.918 375.095 196.152 380.658 219.471C388.531 252.469 401.826 283.461 372.494 335.088C394.137 320.472 396.716 299.277 401.828 290.728C411.558 310.955 366.546 387.308 360.95 394.411C388.687 378.382 406.99 338.88 412.786 324.367C439.165 258.323 431.391 221.988 416.15 161.96Z" fill="#1B141C"/>
<path d="M219.343 394.897C211.098 382.85 202.161 365.498 194.298 335.53C194.298 335.53 193.649 333.058 192.742 329.336C183.565 292.065 178.804 260.796 187.713 231.393C182.599 254.554 185.365 272.275 189.06 295.019C193.122 319.749 204.086 367.58 219.343 394.897ZM178.467 210.468C167.966 238.581 162.926 258.754 163.868 286.381C164.849 266.7 166.576 250.708 178.467 210.468ZM221.289 215.334C215.884 242.342 212.867 256.076 217.949 280.444C221.583 298.78 224.659 308.01 230.049 325.797C215.524 259.196 215.226 264.777 221.289 215.334ZM254.866 220.687C258.347 259.757 278.399 292.652 307.908 318.984C281.494 291.27 260.918 258.04 254.866 220.687ZM279.684 231.393C289.936 269.31 298.724 285.199 329.533 309.116C300.904 282.98 293.714 271.189 279.684 231.393ZM435.763 203.177C434.585 199.638 423.262 175.98 408.874 160.305C419.301 173.316 426.665 188.806 433.121 202.783C433.123 202.783 433.339 203.21 433.606 204.008C443.26 231.212 444.487 268.382 443.512 281.54C446.449 262.718 445.277 229.878 435.763 203.177ZM410.606 322.877C401.649 340.158 397.232 347.894 395.817 350.51C395.819 350.51 395.688 350.792 395.396 351.245C381.631 373.361 378.836 374.331 364.453 390.596C386.859 368.982 392.689 364.192 410.606 322.877ZM391.957 271.792C392.255 297.976 388.008 311.407 374.404 332.458C388.204 314.319 394.201 299.395 391.957 271.792ZM216.908 367.837C216.908 367.837 216.526 366.381 216.067 364.172C209.803 334.55 209.202 319.561 208.637 306.332C207.802 333.478 210.181 359.576 225.182 405.116C225.182 405.116 221.55 387.97 216.908 367.837ZM169.095 170.748C176.495 160.736 178.94 157.547 188.199 149.156C171.592 162.125 159.44 177.639 149.807 206.943C149.044 209.146 149.133 209.028 148.296 212.903C153.844 194.85 169.095 169.569 169.095 170.748ZM224.813 220.201C232.7 246.867 249.724 272.45 274.781 286.381C251.417 270.681 234.216 244.715 224.813 220.201ZM374.933 167.834C372.471 164.948 369.37 163.478 366.511 162.334C368.457 163.27 369.718 163.79 371.585 165.347C373.738 167.396 376.181 169.942 378.055 173.608C388.967 193.503 396.463 255.202 398.098 276.684C398.034 255.461 392.492 186.205 374.933 167.834ZM303.334 165.175C313.025 165.31 320.486 165.59 326.709 188.866C322.039 163.459 310.767 164.769 303.334 165.175ZM286.917 139.318C269.837 152.171 260.92 175.77 260.556 196.693C262.582 176.313 271.577 152.806 286.917 139.318Z" fill="#3A353A"/>
<path d="M416.35 162.151C400.981 143.5 380.975 128.782 358.731 119.276C321.366 102.773 267.987 103.667 230.029 117.426C184.791 134.044 141.608 186.137 144.189 233.865C149.184 212.405 161.151 193.534 187.966 169.612C179.574 185.067 170.28 204.234 164.666 220.648C163.929 222.984 164.474 220.645 162.876 226.858C153.472 265.028 154.112 297.015 170.759 338.975C170.759 337.774 170.525 329.058 170.35 325.661C168.736 265.671 171.932 262.06 181.712 226.077C174.315 250.365 169.022 264.686 186.895 341.289C192.09 362.812 202.303 380.276 204.628 383.392C209.023 389.755 226.267 414.386 232.832 423.45C232.431 421.504 209.488 334.101 210.856 310.146C217.406 318.774 229.317 332.297 237.835 339.109C233.615 326.689 226.292 293.517 225.182 286.418C225.007 285.153 224.754 283.362 224.443 281.202C222.128 267.01 220.682 240.285 223.937 224.403C226.819 234.25 233.601 249.805 239.898 258.33C253.027 276.586 259.277 280.579 278.263 291.226C289.973 307.242 301.146 317.188 315.499 327.586C292.443 288.635 289.617 279.033 287.295 265.065C297.915 286.911 311.816 303.347 333.405 312.968C316.465 279.792 288.951 226.373 299.421 191.547C301.263 185.549 303.402 181.514 304.424 180.16V180.121C304.556 179.835 304.54 179.87 304.618 179.731C307.904 182.077 319.776 198.346 323.11 210.019C323.131 209.999 323.131 209.98 323.151 209.96C325.617 205.03 331.879 196.006 338.195 189.405C370.536 157.069 370.814 185.435 374.635 203.829C390.367 267.273 396.915 294.033 367.957 339.265C384.689 331.582 398.431 309.895 402.061 291.674C395.912 336.641 380.22 359.17 355.949 400.171C361.613 396.104 360.99 396.507 362.937 395.09C425.859 351.855 445.203 238.595 421.802 194.793C438.883 233.702 422.797 341.924 363.854 391.489C402.696 334.097 403.829 306.844 407.766 263.761C410.394 235.909 408.64 227.294 406.834 218.077C407.891 227.181 408.469 232.575 406.326 251.985C402.486 281.266 396.619 313.326 373.841 333.328C400.572 292.734 393.974 263.269 379.058 204.899C375.206 189.748 374.32 159.358 348.946 177.065C338.902 183.731 329.158 196.771 323.661 207.586C320.62 196.59 314.333 184.662 304.254 174.028C304.215 173.989 304.157 173.892 304.118 173.911C300.572 179.58 283.349 195.802 299.038 246.068C306.551 270.33 317.428 289.052 329.539 309.114C302.783 293.877 274.816 245.935 277.391 208.637C278 198.205 280.081 184.467 279.766 173.795C278.195 199.683 269.36 215.36 277.858 241.143C277.858 241.143 280.311 249.162 283.99 257.785C285.081 283.286 297.498 301.184 311.123 323.284C277.477 293.844 256.92 251.936 252.145 210.583C250.977 193.435 258.89 165.779 266.16 161.629C258.555 166.743 249.021 185.452 248.038 207.333C247.289 228.6 260.686 266.669 275.678 287.664C257.432 275.872 239.668 262.556 224.816 220.199C228.513 202.807 234.171 192.785 235.717 169.765C232.052 194.233 226.185 200.109 220.087 224.481C216.172 238.249 215.341 283.578 233.225 332.18C222.592 320.363 204.947 294.113 200.271 279.041C183.734 234.568 207.125 185.923 212.962 178.213C216.192 173.697 220.922 168.8 222.831 163.751C215.076 177.273 209.611 172.271 195.055 211.556C187.288 234.844 188.875 261.122 195.95 280.54C198.521 287.384 205.408 299.041 209.342 308.18C206.056 334.397 220.96 389.644 228.456 414.263C208.361 382.393 193.848 365.893 185.206 311.061C178.225 266.77 171.027 239.782 208.524 164.802C201.825 176.746 198.473 182.404 190.753 198.145L190.734 198.165C171.463 238.354 164.162 266.759 166.636 315.012C153.046 257.388 167.654 219.239 192.213 166.515C195.526 161.956 219.668 145.8 229.095 139.451C219.748 145.051 159.074 176.788 145.708 223.568C150.251 183.169 187.255 136.603 230.983 121.008C267.6 108.297 320.562 107.186 357.018 123.305C381.911 133.974 403.644 151.432 418.974 172.818L416.35 162.151Z" fill="black"/>
</g>
<defs>
<linearGradient id="paint0_linear" x1="300" y1="-75" x2="300" y2="675" gradientUnits="userSpaceOnUse">
<stop stop-color="#151371"/>
<stop offset="0.453125" stop-color="#FF00B8"/>
<stop offset="0.96875" stop-color="#FFC700"/>
</linearGradient>
<linearGradient id="paint1_linear" x1="439" y1="245" x2="439" y2="644" gradientUnits="userSpaceOnUse">
<stop stop-color="#FF00B8"/>
<stop offset="1" stop-color="#F0DB0A" stop-opacity="0"/>
</linearGradient>
<linearGradient id="paint2_linear" x1="194" y1="161" x2="194" y2="560" gradientUnits="userSpaceOnUse">
<stop stop-color="#FF00B8"/>
<stop offset="1" stop-color="#F0DB0A" stop-opacity="0"/>
</linearGradient>
<linearGradient id="paint3_linear" x1="307.676" y1="472.299" x2="307.676" y2="388.601" gradientUnits="userSpaceOnUse">
<stop stop-color="#C87D4D" stop-opacity="0.8"/>
<stop offset="0.7" stop-color="#A9561F"/>
</linearGradient>
<linearGradient id="paint4_linear" x1="307.676" y1="415.851" x2="307.676" y2="410.012" gradientUnits="userSpaceOnUse">
<stop offset="0.1" stop-color="#CF885A"/>
<stop offset="1" stop-color="#C87D4D"/>
</linearGradient>
<radialGradient id="paint5_radial" cx="0" cy="0" r="1" gradientUnits="userSpaceOnUse" gradientTransform="translate(257.338 303.923) rotate(180) scale(19.8794)">
<stop stop-color="white"/>
<stop offset="0.544" stop-color="#FDFEFE"/>
<stop offset="0.74" stop-color="#F6F8F9"/>
<stop offset="0.879" stop-color="#EAEFF2"/>
<stop offset="0.992" stop-color="#D9E3E8"/>
<stop offset="1" stop-color="#D8E2E7"/>
</radialGradient>
<radialGradient id="paint6_radial" cx="0" cy="0" r="1" gradientUnits="userSpaceOnUse" gradientTransform="translate(261.435 302.449) rotate(1.19182) scale(34.4221 27.5363)">
<stop stop-color="#C87D4D"/>
<stop offset="0.7" stop-color="#C87D4D" stop-opacity="0.3"/>
<stop offset="1" stop-color="#D79468" stop-opacity="0"/>
</radialGradient>
<radialGradient id="paint7_radial" cx="0" cy="0" r="1" gradientUnits="userSpaceOnUse" gradientTransform="translate(263.621 335.972) rotate(-151) scale(50.2648 37.7008)">
<stop offset="0.94" stop-opacity="0"/>
<stop offset="1" stop-opacity="0.2"/>
</radialGradient>
<radialGradient id="paint8_radial" cx="0" cy="0" r="1" gradientUnits="userSpaceOnUse" gradientTransform="translate(358.015 303.923) scale(19.8794)">
<stop stop-color="white"/>
<stop offset="0.544" stop-color="#FDFEFE"/>
<stop offset="0.74" stop-color="#F6F8F9"/>
<stop offset="0.879" stop-color="#EAEFF2"/>
<stop offset="0.992" stop-color="#D9E3E8"/>
<stop offset="1" stop-color="#D8E2E7"/>
</radialGradient>
<radialGradient id="paint9_radial" cx="0" cy="0" r="1" gradientUnits="userSpaceOnUse" gradientTransform="translate(353.919 302.449) rotate(178.808) scale(34.4241 27.5379)">
<stop stop-color="#C87D4D"/>
<stop offset="0.7" stop-color="#C87D4D" stop-opacity="0.3"/>
<stop offset="1" stop-color="#D79468" stop-opacity="0"/>
</radialGradient>
<radialGradient id="paint10_radial" cx="0" cy="0" r="1" gradientUnits="userSpaceOnUse" gradientTransform="translate(351.732 335.972) rotate(-29.0001) scale(50.2649 37.7008)">
<stop offset="0.94" stop-opacity="0"/>
<stop offset="1" stop-opacity="0.2"/>
</radialGradient>
<radialGradient id="paint11_radial" cx="0" cy="0" r="1" gradientUnits="userSpaceOnUse" gradientTransform="translate(307.676 361.35) scale(79.8057)">
<stop stop-color="#E6AC86" stop-opacity="0.5"/>
<stop offset="0.9" stop-color="#D79468" stop-opacity="0"/>
</radialGradient>
<radialGradient id="paint12_radial" cx="0" cy="0" r="1" gradientUnits="userSpaceOnUse" gradientTransform="translate(307.676 244.561) scale(72.0198)">
<stop stop-color="#E6AC86" stop-opacity="0.5"/>
<stop offset="0.9" stop-color="#D79468" stop-opacity="0"/>
</radialGradient>
<clipPath id="clip0">
<rect width="600" height="600" fill="white"/>
</clipPath>
</defs>
</svg>
