<svg width="600" height="600" viewBox="0 0 600 600" fill="none" xmlns="http://www.w3.org/2000/svg">
<g clip-path="url(#clip0)">
<path d="M675 675H-75V-75H675V675Z" fill="url(#paint0_linear)"/>
<path d="M360.996 403.874H308.184V356.576H360.996V403.874ZM414.113 320.069H340.054V380.225H414.113V320.069ZM377.082 441.95H442.881V362.639H377.082V441.95ZM400.757 434.192H334.59V491.191H400.757V434.192ZM580.44 284.416H490.23V387.501H580.44V284.416ZM478.458 331.108H456.605V356.576H478.458V331.108ZM544.531 252.277H456.605V304.426H544.531V252.277ZM442.881 270.468H395.532V335.958H442.881V270.468ZM334.59 275.32H308.184V303.213H334.59V275.32ZM299.325 320.069H258.501V382.71H299.325V320.069V320.069ZM347.338 441.95H275.708V521.511H347.338V441.95ZM308.184 576.086H388.617V528.788H308.184V576.086ZM500.311 557.894H443.791V599.129H500.313V557.894H500.311ZM637.361 516.659H585.062V578.511H637.361V516.659ZM551.302 544.718H506.381V585.953H551.302V544.718ZM594.357 463.296H528.843V537.278H594.357V463.296ZM610.791 590.639H528.843V644H610.791V590.639ZM340.054 557.894H251.187V637.937H340.052V557.894H340.054ZM630.216 356.576H569.818V403.874H630.216V356.576ZM594.357 424.49H568.208V451.477H594.357V424.49ZM251.187 474.697H300.975V404.294H251.187V474.697ZM321.764 249.852L232 252.277V320.069H321.764V249.852ZM646 252.277H587.725V326.256H646V252.277ZM371.858 245H347.338V298.361H371.858V245ZM641.143 437.983H581.281V486.494H641.143V437.983Z" fill="url(#paint1_linear)" stroke="#FFC700" stroke-width="1.5"/>
<path d="M115.996 319.874H63.1843V272.576H115.996V319.874ZM169.113 236.069H95.0537V296.225H169.113V236.069ZM132.082 357.95H197.881V278.639H132.082V357.95ZM155.757 350.192H89.5904V407.191H155.757V350.192ZM335.44 200.416H245.23V303.501H335.44V200.416ZM233.458 247.108H211.605V272.576H233.458V247.108ZM299.531 168.277H211.605V220.426H299.531V168.277ZM197.881 186.468H150.532V251.958H197.881V186.468ZM89.5904 191.32H63.1843V219.213H89.5904V191.32ZM54.3246 236.069H13.5008V298.71H54.3246V236.069V236.069ZM102.338 357.95H30.7084V437.511H102.338V357.95ZM63.1843 492.086H143.617V444.788H63.1843V492.086ZM255.311 473.894H198.791V515.129H255.313V473.894H255.311ZM392.361 432.659H340.062V494.511H392.361V432.659ZM306.302 460.718H261.381V501.953H306.302V460.718ZM349.357 379.296H283.843V453.278H349.357V379.296ZM365.791 506.639H283.843V560H365.791V506.639ZM95.0537 473.894H6.18721V553.937H95.0519V473.894H95.0537ZM385.216 272.576H324.818V319.874H385.216V272.576ZM349.357 340.49H323.208V367.477H349.357V340.49ZM6.18721 390.697H55.9745V320.294H6.18721V390.697ZM76.7643 165.852L-13 168.277V236.069H76.7643V165.852ZM401 168.277H342.725V242.256H401V168.277ZM126.858 161H102.338V214.361H126.858V161ZM396.143 353.983H336.281V402.494H396.143V353.983Z" fill="url(#paint2_linear)" stroke="#FFC700" stroke-width="1.5"/>
<rect x="504" y="328.706" width="8.86149" height="25.1423" fill="white"/>
<rect x="521.753" y="328.857" width="8.83104" height="25.1423" fill="white"/>
<rect x="512.861" y="320" width="8.89195" height="8.85765" fill="white"/>
<rect x="539.416" y="328.857" width="8.89195" height="25.1423" fill="white"/>
<rect x="530.584" y="320" width="8.83105" height="8.85765" fill="white"/>
<rect x="548.307" y="320" width="8.86149" height="8.85765" fill="white"/>
<rect x="557.169" y="327.792" width="8.83104" height="8.85766" fill="white"/>
<rect x="548.307" y="336.65" width="8.86149" height="8.82721" fill="white"/>
<rect x="40" y="390.425" width="7.57515" height="21.4449" fill="white"/>
<rect x="55.1763" y="390.555" width="7.54912" height="21.4449" fill="white"/>
<rect x="47.5751" y="383" width="7.60118" height="7.55506" fill="white"/>
<rect x="70.2746" y="390.555" width="7.60118" height="21.4449" fill="white"/>
<rect x="62.7254" y="383" width="7.54912" height="7.55506" fill="white"/>
<rect x="77.8757" y="383" width="7.57515" height="7.55506" fill="white"/>
<rect x="85.4509" y="389.646" width="7.54912" height="7.55506" fill="white"/>
<rect x="77.8757" y="397.202" width="7.57515" height="7.52909" fill="white"/>
<path d="M301.074 349.164H298.923V347.013H301.074V349.164Z" fill="#2A232B"/>
<path d="M505.246 562.716C500.522 552.507 487.618 537.379 473.281 533.199C455.559 528.03 415.553 521.781 400.72 518.307C388.829 515.52 364.879 494.013 356.486 486.794C354.98 485.504 353.747 482.839 353.717 480.858C353.418 457.489 362.741 395.409 362.741 395.409H299.999H237.259C237.259 395.409 246.582 457.486 246.279 480.858C246.255 482.839 245.016 485.504 243.514 486.794C235.121 494.013 211.171 515.52 199.28 518.307C184.444 521.781 144.439 528.243 126.719 533.412C112.378 537.589 99.478 552.505 94.7543 562.714C86.7782 579.939 84.8939 611.112 84.8939 638H299.999H515.104C515.104 611.114 513.218 579.941 505.246 562.716Z" fill="#EBAA82"/>
<path d="M427.247 528.901C479.607 536.52 501.643 547.632 508.543 638.005H515.104C515.104 611.116 513.218 579.943 505.246 562.718C500.522 552.509 487.618 537.381 473.281 533.201C455.559 528.032 415.553 521.783 400.72 518.309C388.829 515.522 361.48 492.348 354.165 483.14C361.392 493.258 381.679 516.707 399.453 522.848C407.956 525.786 415.037 527.124 427.247 528.901ZM200.547 522.848C218.321 516.709 238.606 493.258 245.835 483.14C238.522 492.346 211.173 515.522 199.28 518.309C184.447 521.783 144.441 528.245 126.719 533.414C112.382 537.591 99.478 552.507 94.7543 562.716C86.7825 579.941 84.896 611.114 84.896 638.002H91.4567C98.3143 548.209 120.442 536.509 172.754 528.899C184.961 527.124 192.044 525.786 200.547 522.848Z" fill="#FAC5A3"/>
<path d="M290.633 558.074C290.633 558.074 279.719 554.613 275.397 552.956C252.921 544.333 179.902 538.744 179.902 538.744C179.902 538.744 256.81 541.797 273.782 544.722C272.797 534.468 267.292 501.692 267.292 501.692C267.292 501.692 278.368 537.862 281.078 546.987C282.528 551.866 290.633 558.074 290.633 558.074ZM313.863 555.187C313.671 555.344 313.452 555.548 313.213 555.763C313.456 555.581 313.675 555.389 313.863 555.187ZM290.633 558.074C290.633 558.074 296.856 564.51 299.984 564.591C304.092 564.701 310.369 558.355 313.215 555.763C310.494 557.822 304.269 558.755 301.793 558.852C298.932 558.962 290.633 558.074 290.633 558.074ZM335.844 541.9C332.521 542.433 326.41 543.597 326.41 543.597L331.329 511.568C329.939 518.174 321.705 546.439 313.863 555.187C317.971 551.711 327.109 550.044 331.768 549.37C353.786 546.178 353.777 546.18 420.094 538.744C420.094 538.744 357.561 538.411 335.844 541.9Z" fill="#DC9164"/>
<path d="M505.246 562.716C500.522 552.507 487.618 537.379 473.281 533.199C455.559 528.03 415.553 521.781 400.72 518.307C388.829 515.52 364.879 494.013 356.486 486.794C354.98 485.504 353.747 482.839 353.717 480.858C353.418 457.489 362.741 395.409 362.741 395.409H299.999H237.259C237.259 395.409 246.582 457.486 246.279 480.858C246.255 482.839 245.016 485.504 243.514 486.794C235.121 494.013 211.171 515.52 199.28 518.307C184.444 521.781 144.439 528.243 126.719 533.412C112.378 537.589 99.478 552.505 94.7543 562.714C86.7782 579.939 84.8939 611.112 84.8939 638H299.999H515.104C515.104 611.114 513.218 579.941 505.246 562.716Z" stroke="#BD6630" stroke-width="4.5"/>
<path d="M300.003 500.525C330.404 500.525 340.873 490.167 352.1 480.649C351.953 466.149 355.313 437.766 357.983 417.67C324.302 412.947 275.692 412.949 242.011 417.67C244.68 437.766 248.038 466.136 247.89 480.636C259.127 490.159 269.59 500.525 300.003 500.525Z" fill="url(#paint3_linear)"/>
<path d="M362.072 644.886H237.016V524.033C284.877 534.141 316.347 533.362 362.074 524.033V644.886H362.072Z" fill="#F3F1F3"/>
<path d="M316.003 644.307C310.034 644.307 292.928 644.755 280.485 643.812L280.463 643.445C278.704 603.31 282.892 577.367 290.222 558.934L290.326 558.67L290.126 558.47C288.179 556.525 284.909 554.307 281.448 551.963C277.983 549.612 274.404 547.185 272.121 544.98C273.466 543.406 275.122 541.853 277.172 540.246C277.699 539.977 279.672 538.432 290.022 529.553C290.483 529.157 290.764 528.916 290.801 528.886C292.561 528.503 295.4 528.256 298.842 528.256C303.537 528.256 309.018 528.731 312.849 529.467C316.207 532.603 320.273 540.93 321.793 544.89C319.694 549.818 317.216 551.621 313.798 554.105C312.133 555.316 310.244 556.688 308.093 558.648L307.915 558.809L307.96 559.048C316.62 602.736 316.622 612.941 316.622 622.81C316.624 627.157 316.624 637.026 317.351 644.288C317.029 644.303 316.571 644.307 316.003 644.307Z" fill="#131111"/>
<path d="M322.262 544.899C320.64 540.607 316.433 532.143 313.056 529.069C306.869 527.858 295.884 527.256 290.534 528.553C290.302 528.742 277.095 540.132 276.961 539.867C275.012 541.39 273.115 543.102 271.54 545.008C275.974 549.474 285.856 554.808 289.824 558.775C281.973 578.522 278.359 605.216 280.037 643.483C280.059 643.72 280.059 643.978 280.08 644.215C294.613 645.333 315.68 644.927 317.831 644.694C315.336 620.373 320.924 622.205 308.388 558.969C314.987 552.956 319.068 552.524 322.262 544.899ZM310.969 585.855C310.924 585.747 310.883 585.639 310.86 585.575C315.162 608.269 313.828 625.653 317.078 643.593C306.891 642.909 291.236 643.481 281.003 643.481C281.797 627.998 283.558 575.327 291.199 557.998C291.565 557.9 291.928 557.818 292.294 557.73L290.074 632.448L295.983 557.02C296.026 557.015 296.069 557.009 296.112 557.003L299.986 627.138L300.883 556.725C300.939 556.727 300.993 556.723 301.049 556.725L310.081 634.927L305.133 557.194C305.809 557.329 306.486 557.497 307.16 557.695C307.224 557.695 307.31 557.717 307.375 557.76C307.599 559.915 309.388 575.833 310.969 585.855ZM309.074 556.151C303.107 553.46 295.387 553.944 289.437 556.667C285.821 552.767 280.661 550.048 273.24 545.071C274.423 544.04 275.95 542.769 277.994 541.177C278.166 541.177 285.479 535.217 285.608 535.09C287.587 533.283 289.351 531.239 291.029 529.454C297.332 529.196 306.581 529.497 312.152 529.755C315.379 533.791 318.457 539.857 320.778 544.683C316.56 550.859 312.387 553.61 309.074 556.151Z" fill="black"/>
<path d="M253.097 591.323C228.287 505.128 239.492 527.692 232.88 493.837C237.242 483.484 241.394 471.38 243.725 468.889L243.897 468.704C248.828 520.344 263.166 498.036 295.058 528.336C276.828 540.498 259.929 572.071 253.097 591.323ZM367.097 493.839C363.982 485.876 358.327 474.206 355.879 471.617C358.942 516.096 323.299 507.219 303.501 527.974C322.456 540.263 340.441 572.415 346.892 591.333C375.114 497.733 359.906 538.828 367.097 493.839Z" fill="#F3F1F4"/>
<path d="M355.498 470.627C355.498 481.677 354.595 490.335 352.784 492.867C347.529 505.362 324.598 514.061 317.528 517.625C312.161 520.265 306.897 523.668 302.836 528.058C311.038 533.384 315.108 535.335 330.649 559.119C339.783 574.411 344.715 585.895 346.913 592.762C375.69 497.403 360.297 539.033 367.542 493.792C364.13 485.003 357.649 472.602 355.498 470.627ZM363.345 512.633C359.136 551.52 355.836 543.791 346.696 586.158C340.854 567.564 322.873 536.871 304.901 527.884C313.37 521.523 315.723 521.149 325.829 516.528C356.795 502.719 358.062 489.888 356.24 472.924C358.837 475.985 362.962 486.177 366.333 493.405C364.485 500.172 363.646 509.834 363.345 512.633ZM255.255 502.74C245.773 494.891 248.458 485.183 244.093 467.861C242.153 470.012 237.326 482.127 232.434 493.792C233.633 499.806 233.899 509.686 234.069 512.807C235.272 539.054 237.834 540.265 253.063 592.74C259.583 573.585 277.925 540.319 296.6 528.189C281.691 514.582 262.926 509.415 255.255 502.74ZM267 557.611C262.222 565.497 257.283 573.701 253.297 586.177C243.742 542.578 240.393 549.687 236.67 512.697C235.981 506.307 235.343 499.733 233.658 493.424C237.182 485.706 242.222 471.309 243.835 469.773C246.773 484.998 243.977 498.731 256.029 506.33C261.667 510.624 279.915 517.774 293.716 528.615C285.346 533.584 280.842 536.512 267 557.611Z" fill="#CFC8D7"/>
<path d="M343.706 584.325L341.106 578.616C341.106 578.616 360.783 518.01 364.214 500.694C366.176 518.664 343.706 584.325 343.706 584.325ZM254.567 581.952L257.656 574.942C257.656 574.942 239.215 518.01 235.784 500.694C233.822 518.664 254.567 581.952 254.567 581.952Z" fill="#E1E0E1"/>
<path d="M353.317 553.739C368.514 508.924 359.245 505.231 366.879 490.35C367.168 489.789 369.882 492.6 370.177 493.878C372.986 506.048 484.933 531.173 488.472 533.883C491.604 536.159 500.625 540.631 500.625 540.631C511.245 560.141 517.322 563.643 520.307 615.883C520.587 622.515 520.176 641.268 520.176 646.301L336.134 644.847C336.575 628.088 338.716 597.933 353.317 553.739ZM246.681 553.739C231.484 508.924 240.753 505.231 233.118 490.35C232.83 489.789 230.116 492.6 229.821 493.878C227.012 506.048 115.064 531.173 111.526 533.883C108.394 536.159 99.3726 540.631 99.3726 540.631C88.7528 560.141 82.6761 563.643 79.6904 615.883C79.4108 622.515 79.8217 641.268 79.8217 646.301L263.863 644.847C263.422 628.088 261.282 597.933 246.681 553.739Z" fill="#880082"/>
<path d="M365.191 541.683C355.399 576.932 342.022 608.615 336.139 644.847C334.224 644.832 339.346 596.029 353.317 553.742C368.514 508.927 359.245 505.233 366.879 490.352C367.045 490.03 365.548 494.603 366.4 495.584C366.086 512.205 370.177 525.059 365.191 541.683ZM234.807 541.683C244.599 576.932 257.976 608.615 263.859 644.847C265.774 644.832 260.652 596.029 246.681 553.742C231.484 508.927 240.753 505.233 233.118 490.352C232.953 490.03 234.45 494.603 233.598 495.584C233.912 512.205 229.821 525.059 234.807 541.683Z" fill="#790073"/>
<path d="M412.791 533.145C412.791 533.145 407.878 538.654 394.215 548.037C405.643 535.378 410.909 530.293 410.909 530.293L412.791 533.145ZM417.47 558.689L414.183 555.749C404.422 585.392 397.898 600.032 386.589 634.516C402.817 603.7 406.689 592.759 417.47 558.689ZM189.089 530.293C189.089 530.293 194.352 535.378 205.783 548.037C192.119 538.654 187.206 533.145 187.206 533.145L189.089 530.293ZM213.408 634.516C202.1 600.032 195.576 585.392 185.815 555.749L182.528 558.689C193.309 592.759 197.181 603.7 213.408 634.516Z" fill="#690065"/>
<path d="M470.812 604.784C470.812 579.84 477.501 565.31 491.494 544.249C492.802 545.049 493.497 545.417 494.387 546.131C479.508 564.593 476.553 581.819 470.812 604.784ZM388.863 629.237C402.012 593.308 406.201 579.272 414.906 555.266C412.432 554.511 396.254 548.845 393.785 548.069C394.667 550.22 400.481 551.988 410.61 558.198C410.61 558.2 399.664 591.333 388.863 629.237ZM406.547 530.017C406.547 530.017 399.337 538.923 392.212 547.931C399.5 542.188 404.577 535.791 410.907 530.293C402.316 523.048 388.297 511.957 379.241 504.289C386.392 511.972 406.547 530.017 406.547 530.017ZM519.563 646.297L520.178 646.301C520.178 641.268 520.587 622.515 520.31 615.883C517.322 563.643 511.245 560.141 500.627 540.631C500.627 540.631 491.606 536.159 488.474 533.883C485.604 531.687 405.026 512.54 375.565 499.724C410.006 523.323 475.12 532.048 494.389 546.131C503.708 552.943 516.255 611.241 519.563 646.297ZM105.572 546.064C106.738 545.24 106.903 545.277 108.084 544.496C122.077 565.557 129.184 579.84 129.184 604.781C123.445 581.819 119.483 563.877 105.572 546.064ZM189.388 558.2C199.517 551.99 205.331 550.222 206.213 548.071C203.744 548.846 187.566 554.514 185.092 555.269C193.799 579.274 197.985 593.31 211.135 629.239C200.334 591.333 189.388 558.2 189.388 558.2ZM220.754 504.289C211.698 511.955 197.68 523.048 189.089 530.293C195.419 535.793 200.498 542.188 207.783 547.931C200.657 538.923 193.449 530.017 193.449 530.017C193.449 530.017 213.606 511.972 220.754 504.289ZM105.611 546.131C124.88 532.048 189.994 523.321 224.435 499.724C194.974 512.54 114.395 531.684 111.526 533.883C108.394 536.159 99.3726 540.631 99.3726 540.631C88.7528 560.141 82.6761 563.643 79.6904 615.883C79.4108 622.515 79.8217 641.268 79.8217 646.301L80.4369 646.297C83.743 611.241 96.2901 552.943 105.611 546.131Z" fill="#970F91"/>
<path d="M369.362 490.862C369.256 490.232 368.409 489.498 367.774 489.449C367.138 489.4 366.845 490.434 366.555 491.002C358.921 505.883 367.445 508.927 352.248 553.742C337.647 597.935 335.934 628.732 335.498 645.491L520.181 646.301C520.181 641.268 521.232 622.515 520.953 615.883C517.965 563.643 511.675 559.713 501.055 540.201C501.055 540.201 491.604 535.514 488.472 533.24C477.955 525.191 487.203 533.29 441.084 520.334C403.277 509.288 401.236 506.186 387.525 502.373C384.755 501.579 378.798 500.604 372.575 496.24C372.005 495.842 369.566 492.088 369.362 490.862ZM336.511 643.449C344.532 592.762 349.6 579.498 360.809 541.76C368.385 517.875 364.199 504.315 367.809 493.276C367.998 492.699 368.813 492.669 369.037 493.239C374.273 506.606 388.908 509.708 409.55 529.908C397.046 542.412 393.828 545.783 392.212 547.934C394.071 548.876 404.219 552.729 413.508 556.323C412.981 557.973 384.651 638.106 384.318 639.181C405.828 592.766 408.608 578.498 414.906 555.269C413.159 553.953 397.93 548.36 395.353 547.439C404.546 537.923 407.205 535.832 411.55 530.293C415.039 530.293 377.404 501.645 375.563 499.725C376.557 500.508 381.483 502.717 382.038 502.932C413.62 514.044 388.631 509.017 457.755 528.747C464.363 530.426 473.576 532.117 480.405 532.788C480.874 532.831 492.01 538.654 498.367 541.328C482.903 557.407 472.991 578.182 470.812 604.784C477.736 577.539 481.462 563.29 499.077 542.793C515.468 575.966 513.607 571.176 518.931 645.42C474.593 643.671 406.603 643.271 336.511 643.449ZM227.425 496.242C221.199 500.604 215.245 501.579 212.475 502.375C198.764 506.186 196.723 509.29 158.916 520.336C112.797 533.292 122.042 525.193 111.528 533.242C108.396 535.518 98.9445 540.203 98.9445 540.203C88.3248 559.713 82.0351 563.643 79.0473 615.886C78.7677 622.517 79.8195 641.27 79.8195 646.304L264.502 645.493C264.066 628.734 262.353 597.937 247.752 553.744C232.555 508.929 241.077 505.885 233.445 491.004C233.153 490.436 232.862 489.402 232.226 489.451C231.591 489.501 230.744 490.234 230.638 490.864C230.432 492.088 227.993 495.842 227.425 496.242ZM81.0671 645.42C86.3931 571.176 84.5303 575.966 100.921 542.793C118.534 563.29 122.262 577.539 129.186 604.784C127.007 578.182 117.097 557.407 101.631 541.328C107.988 538.654 119.124 532.831 119.592 532.788C126.422 532.117 135.635 530.426 142.243 528.747C211.367 509.017 186.38 514.044 217.96 502.932C218.515 502.715 223.441 500.508 224.435 499.725C222.593 501.645 184.956 530.293 188.448 530.293C192.795 535.832 195.451 537.923 204.645 547.439C202.068 548.36 186.839 553.95 185.092 555.269C191.39 578.498 194.169 592.766 215.68 639.181C215.346 638.106 187.017 557.973 186.49 556.323C195.778 552.726 205.927 548.874 207.786 547.934C206.17 545.783 202.952 542.412 190.448 529.908C211.09 509.708 225.725 506.606 230.961 493.239C231.185 492.667 232 492.699 232.189 493.276C235.799 504.315 231.611 517.875 239.189 541.76C250.398 579.498 255.466 592.762 263.487 643.449C193.395 643.271 125.405 643.671 81.0671 645.42Z" fill="#5A0056"/>
<path d="M185.995 312.017C183.036 306.74 173.868 293.776 164.528 296.953C158.615 298.964 157.445 305.542 156.494 311.35C155.229 319.075 157.507 334.353 159.482 339.873C161.377 345.18 167.081 355.425 170.805 359.329C175.386 364.115 181.076 379.386 181.977 380.971C183.397 383.471 185.281 387.233 190.844 386.762C196.981 386.237 200.704 382.782 203.44 382.199C210.199 380.767 193.698 325.751 185.995 312.017Z" fill="#EBAA82" stroke="#BD6630" stroke-width="4.5"/>
<path d="M179.964 344.009C179.68 342.76 179.979 340.654 180.269 338.623C180.536 336.771 180.786 335.02 180.633 333.781C180.059 329.148 176.819 320.339 174.702 315.568C172.267 310.074 168.329 303.157 163.384 301.373C161.34 300.636 159.996 301.517 159.215 302.414C158.643 303.071 158.516 303.845 158.703 303.935C158.888 304.026 159.316 303.389 159.933 302.784C160.439 302.292 161.179 301.868 162.194 301.956C161.785 304.264 159.684 316.762 160.594 325.284C161.31 331.985 164.02 336.99 164.444 337.741C164.506 338.531 164.61 339.303 164.762 340.054C166.761 349.834 175.455 360.955 178.482 364.595C179.039 365.268 179.624 365.664 179.768 365.505C179.91 365.341 179.566 364.672 179.009 363.999C176.023 360.387 167.412 349.305 165.481 339.869C163.433 329.853 170.467 315.011 172.037 311.868C172.835 313.342 173.515 314.759 174.038 315.94C174.446 316.867 174.902 317.954 175.369 319.122C174.446 320.761 167.983 332.716 170.34 342.282C171.213 345.812 175.148 350.359 177.755 351.603C179.189 352.291 179.732 353.317 180.355 354.504C181.078 355.881 181.9 357.441 184.287 358.574C184.771 358.806 185.21 358.899 185.6 358.899C186.273 358.899 186.785 358.609 187.159 358.269C187.198 358.871 187.196 359.645 187.178 360.355C187.153 361.282 187.269 362.039 187.473 362.057C187.675 362.074 187.895 361.343 187.918 360.422C187.953 359.29 187.946 357.89 187.764 357.221C187.23 355.249 185.595 353.02 183.864 350.665C182.167 348.337 180.407 345.943 179.964 344.009ZM164.375 335.338C159.692 319.982 165.786 306.729 166.836 304.621C168.664 306.39 170.278 308.749 171.59 311.064C170.635 312.909 164.571 325.009 164.375 335.338ZM184.576 357.8C182.416 356.778 181.695 355.401 180.992 354.072C180.362 352.87 179.706 351.628 178.047 350.835C177.686 350.66 177.29 350.398 176.881 350.097C171.534 336.625 177.466 330.735 178.953 329.528C179.407 331.176 179.747 332.686 179.897 333.897C180.033 335.009 179.785 336.778 179.538 338.488C179.233 340.606 178.923 342.798 179.243 344.218C179.729 346.33 181.543 348.802 183.296 351.192C184.851 353.313 186.449 355.5 186.998 357.283C186.765 357.636 186.03 358.49 184.576 357.8Z" fill="#BD6630"/>
<path d="M413.437 312.017C416.399 306.74 425.567 293.776 434.904 296.953C440.82 298.964 441.988 305.542 442.941 311.35C444.205 319.075 441.927 334.353 439.953 339.873C438.058 345.18 432.353 355.425 428.625 359.329C424.046 364.115 418.354 379.386 417.455 380.971C416.04 383.471 414.153 387.233 408.59 386.762C402.451 386.237 398.73 382.782 395.992 382.199C389.233 380.767 405.736 325.751 413.437 312.017Z" fill="#EBAA82" stroke="#BD6630" stroke-width="4.5"/>
<path d="M415.569 350.661C413.837 353.018 412.204 355.245 411.669 357.217C411.484 357.886 411.479 359.287 411.514 360.418C411.54 361.339 411.757 362.07 411.959 362.053C412.161 362.036 412.277 361.278 412.254 360.351C412.237 359.639 412.237 358.867 412.275 358.265C412.65 358.605 413.162 358.895 413.835 358.895C414.226 358.895 414.663 358.803 415.145 358.57C417.53 357.439 418.354 355.877 419.077 354.5C419.699 353.313 420.245 352.289 421.678 351.599C424.287 350.355 428.219 345.808 429.092 342.278C431.45 332.712 424.988 320.757 424.063 319.118C424.53 317.948 424.988 316.861 425.395 315.936C425.919 314.755 426.597 313.338 427.395 311.864C428.965 315.005 435.999 329.849 433.954 339.865C432.026 349.301 423.413 360.384 420.426 363.995C419.871 364.668 419.526 365.337 419.668 365.501C419.81 365.66 420.395 365.266 420.955 364.591C423.979 360.951 432.676 349.83 434.676 340.05C434.827 339.297 434.928 338.527 434.99 337.737C435.414 336.987 438.129 331.981 438.843 325.281C439.751 316.76 437.649 304.26 437.242 301.952C438.26 301.862 438.993 302.288 439.503 302.781C440.121 303.385 440.549 304.022 440.734 303.931C440.919 303.841 440.792 303.067 440.222 302.411C439.441 301.514 438.096 300.632 436.053 301.369C431.108 303.155 427.167 310.07 424.734 315.564C422.618 320.335 419.378 329.144 418.802 333.777C418.647 335.016 418.898 336.767 419.167 338.619C419.458 340.652 419.754 342.758 419.471 344.005C419.03 345.944 417.27 348.338 415.569 350.661ZM427.845 311.062C429.159 308.75 430.772 306.388 432.601 304.62C433.65 306.728 439.742 319.98 435.063 335.337C434.863 325.01 428.802 312.91 427.845 311.062ZM412.434 357.284C412.981 355.501 414.581 353.313 416.136 351.192C417.892 348.802 419.703 346.331 420.191 344.218C420.509 342.799 420.2 340.607 419.896 338.488C419.649 336.778 419.402 335.01 419.539 333.898C419.686 332.687 420.028 331.174 420.482 329.529C421.968 330.736 427.9 336.625 422.557 350.097C422.146 350.398 421.751 350.663 421.389 350.835C419.731 351.629 419.079 352.87 418.444 354.072C417.743 355.402 417.02 356.778 414.861 357.8C413.405 358.491 412.669 357.637 412.434 357.284Z" fill="#BD6630"/>
<path d="M300.003 134.848C227.689 134.964 168.961 194.74 169.073 268.388C169.09 280.085 170.587 291.423 173.38 302.23H173.382C173.407 302.346 198.209 385.764 203.539 413.162C206.512 428.443 224.611 442.212 240.677 453.449C255.664 463.937 263.326 479.014 300.003 479.014C336.681 479.014 344.343 463.937 359.329 453.449C375.393 442.21 393.494 428.443 396.467 413.162C401.8 385.764 426.601 302.344 426.625 302.23H426.629C429.421 291.425 430.918 280.085 430.936 268.388C431.047 194.74 372.317 134.964 300.003 134.848Z" fill="#EBAA82"/>
<path d="M400.608 182.965C416.693 205.368 426.242 233.28 426.201 263.545C426.182 275.243 424.741 286.581 422.05 297.388H422.045C422.022 297.504 398.117 380.92 392.98 408.322C390.109 423.603 372.608 437.372 357.127 448.609C342.676 459.095 335.356 474.176 300.001 474.176C264.651 474.176 257.32 459.095 242.876 448.609C227.395 437.37 209.889 423.603 207.028 408.322C201.89 380.922 177.985 297.504 177.961 297.388C175.268 286.583 173.827 275.243 173.808 263.545C173.762 233.289 183.304 205.387 199.381 182.989C180.426 206.142 169.024 235.911 169.073 268.387C169.09 280.085 170.587 291.423 173.379 302.23H173.382C173.407 302.346 198.209 385.764 203.539 413.162C206.512 428.443 224.611 442.212 240.677 453.449C255.664 463.937 263.326 479.014 300.003 479.014C336.681 479.014 344.343 463.937 359.329 453.449C375.393 442.21 393.494 428.443 396.467 413.162C401.8 385.764 426.601 302.344 426.625 302.23H426.629C429.421 291.425 430.918 280.085 430.936 268.387C430.985 235.902 419.574 206.123 400.608 182.965Z" fill="#E39D72"/>
<path d="M300.003 134.848C227.689 134.964 168.961 194.74 169.073 268.388C169.09 280.085 170.587 291.423 173.38 302.23H173.382C173.407 302.346 198.209 385.764 203.539 413.162C206.512 428.443 224.611 442.212 240.677 453.449C255.664 463.937 263.326 479.014 300.003 479.014C336.681 479.014 344.343 463.937 359.329 453.449C375.393 442.21 393.494 428.443 396.467 413.162C401.8 385.764 426.601 302.344 426.625 302.23H426.629C429.421 291.425 430.918 280.085 430.936 268.388C431.047 194.74 372.317 134.964 300.003 134.848Z" stroke="#BD6630" stroke-width="4.5"/>
<path d="M291.883 432.489L309.73 432.043C307.663 441.659 293.296 440.278 291.883 432.489Z" fill="url(#paint4_linear)"/>
<path d="M292.133 433.097C291.335 432.99 291.455 431.852 292.305 431.932C292.397 431.944 301.571 433.106 309.251 431.469C310.081 431.308 310.326 432.448 309.53 432.618C303.514 433.904 295.729 433.603 292.133 433.097ZM300.178 425.418C296.945 425.418 293.81 424.298 290.661 423.749C287.134 423.132 283.619 423.661 280.089 423.973C276.484 424.293 268.617 423.945 266.397 422.54C265.154 421.751 265.386 419.914 266.787 419.423C268.108 418.95 270.166 419.931 271.5 420.17C277.678 421.277 280.93 420.097 286.346 419.916C294.63 419.666 295.51 423.145 305.843 421.056C316.954 418.81 321.957 420.51 329.929 418.109C331.021 417.778 332.321 416.904 333.467 417.494C334.79 418.178 334.726 420.043 333.362 420.643C326.035 423.874 317.93 422.568 309.797 423.925C306.609 424.455 303.432 425.418 300.178 425.418Z" fill="#BD6630"/>
<path d="M254.532 324.921C245.261 326.545 238.064 326.448 231.542 324.482C224.815 322.454 216.08 314.103 213.051 306.209C221.042 305.613 237.464 304.925 245.08 305.878C255.165 307.138 265.46 311.053 271.549 317.141C271.515 317.773 271.435 318.395 271.362 319.016C266.445 322.344 259.486 324.052 254.532 324.921Z" fill="url(#paint5_radial)"/>
<path d="M241.577 313.514L232.032 311.337C231.824 312.262 231.703 313.219 231.703 314.206C231.703 315.194 231.826 316.153 232.034 317.076L244.609 314.206L241.577 313.514Z" fill="#EA2E2E"/>
<path d="M234.528 322.25C235.73 323.755 237.261 324.977 239.015 325.823L244.607 314.209L234.528 322.25Z" fill="#F09330"/>
<path d="M244.609 327.113C246.616 327.113 248.509 326.642 250.202 325.825L244.609 314.209V327.113Z" fill="#64398E"/>
<path d="M244.609 314.209L254.694 322.25C255.885 320.759 256.748 319.002 257.185 317.078L244.609 314.209Z" fill="#393B97"/>
<path d="M244.609 314.207L248.537 313.312L257.185 311.337C256.748 309.414 255.885 307.657 254.694 306.166L244.609 314.207Z" fill="#00AA4F"/>
<path d="M250.202 302.589C248.507 301.771 246.616 301.3 244.609 301.3V314.204L250.202 302.589Z" fill="black"/>
<path d="M239.012 302.591C237.261 303.436 235.728 304.658 234.525 306.166L244.607 314.206L239.012 302.591Z" fill="#9C2D91"/>
<path d="M244.609 314.206L257.185 317.076C257.393 316.153 257.516 315.194 257.516 314.206C257.516 313.219 257.393 312.26 257.185 311.337L248.537 313.312L244.609 314.206Z" fill="#EA2E2E"/>
<path d="M244.609 314.207L250.204 325.824C251.957 324.977 253.491 323.755 254.694 322.249L244.609 314.207Z" fill="#9B328D"/>
<path d="M244.609 314.209L239.017 325.825C240.71 326.642 242.603 327.113 244.609 327.113V314.209Z" fill="#FDE92B"/>
<path d="M244.609 314.209L232.037 317.078C232.473 319.002 233.338 320.761 234.527 322.252L244.609 314.209Z" fill="#00AA4F"/>
<path d="M244.609 314.207V301.3C242.6 301.3 240.71 301.771 239.015 302.589L244.609 314.207Z" fill="#65378F"/>
<path d="M244.609 314.207L254.694 306.164C253.491 304.658 251.957 303.434 250.204 302.589L244.609 314.207Z" fill="#EC9236"/>
<path d="M244.61 314.206L234.525 306.164C233.334 307.654 232.471 309.414 232.034 311.335L241.577 313.514L244.61 314.206Z" fill="#393B97"/>
<path opacity="0.3" d="M244.609 301.3C251.738 301.3 257.516 307.078 257.516 314.207C257.516 321.335 251.738 327.113 244.609 327.113C237.481 327.113 231.703 321.335 231.703 314.207C231.703 307.078 237.481 301.3 244.609 301.3Z" fill="black"/>
<path d="M249.628 314.206C249.628 316.979 247.382 319.225 244.609 319.225C241.837 319.225 239.591 316.977 239.591 314.206C239.591 311.436 241.837 309.188 244.609 309.188C247.382 309.188 249.628 311.434 249.628 314.206Z" fill="black"/>
<path opacity="0.6" d="M239.81 322.968C239.137 323.641 237.808 323.402 236.842 322.439C235.876 321.473 235.637 320.144 236.313 319.47C236.986 318.797 238.313 319.034 239.279 319.999C240.245 320.965 240.484 322.295 239.81 322.968Z" fill="white"/>
<path opacity="0.9" d="M254.373 311.808C253.366 312.817 250.927 312.01 248.924 310.01C246.922 308.009 246.117 305.568 247.124 304.561C248.133 303.552 250.574 304.357 252.573 306.359C254.575 308.36 255.382 310.801 254.373 311.808Z" fill="white"/>
<path d="M204.923 315.824C204.923 345.526 222.26 369.598 243.641 369.598C265.023 369.598 282.36 345.526 282.36 315.824C282.36 286.12 265.023 262.046 243.641 262.046C222.26 262.046 204.923 286.12 204.923 315.824ZM213.053 306.209C221.045 305.613 237.466 304.925 245.083 305.878C255.735 307.209 266.679 311.471 272.59 318.16C267.667 322.075 259.906 323.979 254.532 324.921C245.261 326.545 238.064 326.448 231.542 324.482C224.818 322.454 216.082 314.103 213.053 306.209Z" fill="#EBAA82"/>
<path d="M205.228 313.49C205.286 331.31 223.477 345.674 245.887 345.582C268.288 345.481 286.404 330.963 286.355 313.144C286.297 295.322 268.101 280.958 245.696 281.05C223.29 281.151 205.179 295.669 205.228 313.49ZM213.054 306.209C221.045 305.613 237.466 304.925 245.083 305.878C255.735 307.209 266.679 311.47 272.59 318.16C267.667 322.075 259.906 323.979 254.532 324.921C245.261 326.545 238.064 326.448 231.542 324.482C224.818 322.454 216.082 314.103 213.054 306.209Z" fill="url(#paint6_radial)"/>
<path d="M213.054 306.209C221.045 305.613 237.466 304.925 245.083 305.878C255.735 307.209 266.679 311.47 272.59 318.16C267.667 322.075 259.906 323.979 254.532 324.921C245.261 326.545 238.064 326.448 231.542 324.482C224.818 322.454 216.082 314.103 213.054 306.209Z" fill="url(#paint7_radial)"/>
<path d="M230.225 298.82C253.033 297.788 260.015 302 269.673 308.07C253.627 298.663 233.381 298.704 230.225 298.82ZM213.09 314C219.229 325.818 223.409 324.528 229.29 327.031C229.343 327.051 226.042 325.786 223.559 324.459C217.128 320.761 216.34 319.187 213.09 314Z" fill="#BD6630"/>
<path d="M210.661 304.994C216.807 317.883 220.903 326.345 241.49 326.657C257.156 326.892 266.86 325.444 275.012 319.399C267.71 308.227 258.333 304.835 245.823 303.572C233.134 302.29 210.661 304.994 210.661 304.994ZM215.043 306.846C222.501 306.291 237.823 305.648 244.932 306.536C254.872 307.777 265.085 311.755 270.603 317.997C266.006 321.652 258.763 323.426 253.751 324.306C245.102 325.823 238.382 325.732 232.299 323.897C226.02 322.007 217.87 314.213 215.043 306.846Z" fill="black"/>
<path d="M344.605 324.921C353.876 326.545 361.074 326.448 367.596 324.482C374.322 322.454 383.058 314.103 386.086 306.209C378.095 305.613 361.674 304.925 354.057 305.878C343.973 307.138 333.678 311.053 327.588 317.141C327.623 317.773 327.702 318.395 327.776 319.016C332.693 322.344 339.654 324.052 344.605 324.921Z" fill="url(#paint8_radial)"/>
<path d="M352.358 313.514L342.811 311.337C342.601 312.262 342.482 313.219 342.482 314.206C342.482 315.194 342.605 316.153 342.813 317.076L355.386 314.206L352.358 313.514Z" fill="#EA2E2E"/>
<path d="M345.307 322.25C346.509 323.755 348.043 324.977 349.794 325.823L355.386 314.209L345.307 322.25Z" fill="#F09330"/>
<path d="M355.391 327.113C357.398 327.113 359.29 326.642 360.983 325.825L355.388 314.209L355.391 327.113Z" fill="#64398E"/>
<path d="M355.388 314.209L365.473 322.25C366.662 320.759 367.523 319.002 367.961 317.078L355.388 314.209Z" fill="#393B97"/>
<path d="M355.388 314.207L359.314 313.312L367.964 311.337C367.525 309.414 366.664 307.657 365.475 306.166L355.388 314.207Z" fill="#00AA4F"/>
<path d="M360.983 302.589C359.288 301.771 357.395 301.3 355.388 301.3V314.204L360.983 302.589Z" fill="black"/>
<path d="M349.791 302.591C348.043 303.436 346.507 304.658 345.302 306.166L355.386 314.206L349.791 302.591Z" fill="#9C2D91"/>
<path d="M355.388 314.206L367.964 317.076C368.174 316.151 368.295 315.194 368.295 314.206C368.295 313.219 368.172 312.26 367.964 311.337L359.314 313.312L355.388 314.206Z" fill="#EA2E2E"/>
<path d="M355.388 314.207L360.983 325.824C362.734 324.977 364.272 323.755 365.475 322.249L355.388 314.207Z" fill="#9B328D"/>
<path d="M355.389 314.209L349.794 325.825C351.487 326.642 353.382 327.113 355.389 327.113H355.391L355.389 314.209Z" fill="#FDE92B"/>
<path d="M355.386 314.209L342.813 317.078C343.252 319.002 344.113 320.761 345.304 322.252L355.386 314.209Z" fill="#00AA4F"/>
<path d="M355.389 314.207V301.3C353.379 301.3 351.489 301.771 349.794 302.589L355.389 314.207Z" fill="#65378F"/>
<path d="M355.388 314.207L365.473 306.164C364.27 304.658 362.734 303.434 360.981 302.589L355.388 314.207Z" fill="#EC9236"/>
<path d="M355.386 314.206L345.302 306.164C344.113 307.654 343.252 309.414 342.813 311.335L352.358 313.514L355.386 314.206Z" fill="#393B97"/>
<path opacity="0.3" d="M355.389 301.3C362.515 301.3 368.295 307.078 368.295 314.207C368.295 321.335 362.515 327.113 355.389 327.113C348.262 327.113 342.482 321.335 342.482 314.207C342.482 307.078 348.262 301.3 355.389 301.3Z" fill="black"/>
<path d="M360.407 314.206C360.407 316.979 358.161 319.225 355.389 319.225C352.616 319.225 350.37 316.977 350.37 314.206C350.37 311.436 352.616 309.188 355.389 309.188C358.161 309.188 360.407 311.434 360.407 314.206Z" fill="black"/>
<path opacity="0.6" d="M350.59 322.968C349.916 323.641 348.589 323.402 347.623 322.439C346.657 321.473 346.416 320.144 347.094 319.47C347.767 318.797 349.095 319.034 350.06 319.999C351.024 320.965 351.261 322.295 350.59 322.968Z" fill="white"/>
<path opacity="0.9" d="M365.152 311.808C364.145 312.817 361.704 312.01 359.704 310.01C357.703 308.009 356.896 305.57 357.903 304.561C358.912 303.552 361.353 304.357 363.352 306.359C365.354 308.36 366.161 310.801 365.152 311.808Z" fill="white"/>
<path d="M355.498 262.046C334.117 262.046 316.779 286.123 316.779 315.824C316.779 345.526 334.117 369.598 355.498 369.598C376.88 369.598 394.217 345.526 394.217 315.824C394.217 286.12 376.88 262.046 355.498 262.046ZM367.596 324.482C361.076 326.448 353.876 326.545 344.605 324.921C339.234 323.979 331.473 322.075 326.547 318.16C332.458 311.471 343.403 307.209 354.055 305.878C361.672 304.925 378.093 305.613 386.084 306.209C383.055 314.103 374.322 322.454 367.596 324.482Z" fill="#EBAA82"/>
<path d="M353.444 281.05C331.039 280.958 312.843 295.322 312.785 313.144C312.735 330.963 330.849 345.481 353.253 345.582C375.662 345.674 393.854 331.31 393.912 313.49C393.961 295.669 375.849 281.151 353.444 281.05ZM367.596 324.482C361.076 326.448 353.876 326.545 344.605 324.921C339.234 323.979 331.473 322.075 326.547 318.16C332.458 311.47 343.403 307.209 354.055 305.878C361.672 304.925 378.093 305.613 386.084 306.209C383.055 314.103 374.322 322.454 367.596 324.482Z" fill="url(#paint9_radial)"/>
<path d="M386.086 306.209C378.095 305.613 361.674 304.925 354.057 305.878C343.405 307.209 332.46 311.47 326.549 318.16C331.473 322.075 339.234 323.979 344.607 324.921C353.878 326.545 361.076 326.448 367.598 324.482C374.322 322.454 383.055 314.103 386.086 306.209Z" fill="url(#paint10_radial)"/>
<path d="M329.462 308.07C339.122 302 346.102 297.786 368.912 298.82C365.757 298.704 345.511 298.663 329.462 308.07ZM375.58 324.461C373.098 325.788 369.796 327.053 369.85 327.034C375.731 324.53 379.913 325.82 386.05 314.003C382.797 319.187 382.012 320.761 375.58 324.461Z" fill="#BD6630"/>
<path d="M353.317 303.572C340.807 304.835 331.428 308.229 324.127 319.399C332.28 325.442 341.983 326.892 357.649 326.657C378.235 326.345 382.33 317.883 388.476 304.994C388.476 304.994 366.006 302.29 353.317 303.572ZM366.841 323.897C360.758 325.732 354.04 325.823 345.388 324.306C340.376 323.426 333.134 321.652 328.537 317.997C334.052 311.755 344.268 307.777 354.208 306.536C361.317 305.648 376.639 306.291 384.096 306.846C381.268 314.213 373.117 322.007 366.841 323.897Z" fill="black"/>
<path d="M388.192 378.147C388.267 426.808 348.845 466.327 300.132 466.394C251.428 466.473 211.879 427.087 211.804 378.416C211.728 329.759 251.151 290.085 299.861 290.007C348.567 289.932 388.121 329.479 388.192 378.147Z" fill="url(#paint11_radial)"/>
<path d="M380.663 249.138C380.663 293.688 344.549 329.802 300.001 329.802C255.451 329.802 219.335 293.688 219.335 249.138C219.335 204.587 255.451 168.473 300.001 168.473C344.549 168.473 380.663 204.587 380.663 249.138Z" fill="url(#paint12_radial)"/>
<path d="M201.051 292.567C222.462 271.113 237.104 279.844 266.849 285.546C268.667 285.895 280.444 288.857 278.271 293.008C277.232 294.996 273.892 294.759 272.027 294.725C242.583 294.174 228.266 273.225 201.051 292.567Z" fill="#2A232B"/>
<path d="M398.947 292.567C377.538 271.113 362.894 279.844 333.149 285.546C331.329 285.895 319.554 288.857 321.725 293.008C322.764 294.996 326.104 294.759 327.969 294.725C357.413 294.174 371.732 273.225 398.947 292.567Z" fill="#2A232B"/>
<path d="M301.567 392.912C300.806 393.258 299.018 393.258 298.452 392.69C298.452 392.69 284.909 388.059 286.626 383.624C289.345 376.607 314.002 381.987 313.981 383.624C313.927 387.801 301.567 392.912 301.567 392.912Z" fill="#DC9164"/>
<path d="M283.253 377.362C283.253 377.362 294.972 337.301 296.177 328.727C298.463 342.644 292.944 373.625 292.361 379.947C291.653 387.624 299.792 392.183 299.792 392.183C300.423 392.981 299.661 393.478 298.683 393.163L284.419 387.659C281.04 384.787 281.04 382.053 283.253 377.362ZM306.831 384.465C308.799 384.91 309.21 385.704 309.057 386.523C308.909 387.351 308.063 388.483 306.286 387.448C304.335 386.317 300.653 385.798 300.653 385.798C300.653 385.798 304.862 384.013 306.831 384.465Z" fill="#BD6630"/>
<path d="M409.229 323.867C402.626 327.632 397.829 330.213 393.828 333.009C369.456 349.25 366.983 387.259 362.767 423.074C349.968 400.509 351.947 396.659 335.104 393.239C314.433 388.722 307.549 386.743 299.999 396.724C294.148 390.787 292.019 387.625 277.886 390.701C252.719 395.67 251.471 395.024 243.964 411.136C243.426 412.405 237.877 421.869 237.231 423.095C236.005 414.534 237.339 414.255 233.833 395.39C230.133 375.88 228.563 360.5 218.904 345.249C209.569 332.278 189.263 322.555 179.325 319.221C179.325 335.591 180.895 360.048 181.196 363.189C184.961 401.606 199.954 461.578 226.713 486.767C249.084 506.965 273.993 505.588 300.085 505.588C313.529 505.588 338.933 506.513 354.399 499.006C375.415 490.875 389.977 467.923 398.281 446.972C412.736 411.63 420.673 376.267 420.673 319.221C413.037 322.104 411.552 322.426 409.229 323.867ZM308.582 451.683C308.84 450.199 309.636 448.026 309.958 447.445C312.238 442.605 322.736 428.301 323.962 427.247C310.044 431.399 293.675 431.872 276.531 427.828C280.618 432.711 290.276 445.337 291.416 451.683C276.23 445.079 256.333 442.089 258.398 425.784C259.495 413.867 273.175 413.33 282.188 412.749C318.283 412.061 340.073 410.254 341.622 425.784C343.579 442.046 324.048 445.101 308.582 451.683Z" fill="#2A232B"/>
<path d="M420.673 319.221C420.673 376.267 412.736 411.63 398.281 446.972C389.977 467.923 375.415 490.875 354.399 499.006C338.933 506.513 313.529 505.588 300.085 505.588C273.993 505.588 249.084 506.965 226.713 486.767C199.954 461.578 184.961 401.606 181.196 363.189C180.895 360.027 179.325 335.591 179.325 319.221C181.455 319.931 184.079 320.964 186.94 322.233C201.18 386.485 204.793 475.56 276.337 500.813C274.186 496.511 267.733 487.907 267.733 487.907C267.733 487.907 280.64 496.511 287.093 500.813C287.093 498.662 284.985 490.316 284.985 490.316C284.985 490.316 295.267 497.694 301.72 499.845C301.72 497.694 299.569 491.069 299.569 491.069L310.819 498.49L327.963 483.605C327.963 483.605 322.585 494.898 320.434 499.2C328.178 497.113 340.826 487.799 340.826 487.799C340.826 487.799 338.718 494.36 338.718 496.511C401.55 461.169 401.658 386.377 411.015 322.899C412.757 322.082 415.037 321.351 420.673 319.221ZM276.531 427.828C277.133 428.538 277.843 429.42 278.639 430.431C292.427 439.164 308.044 438.798 321.251 430.603C322.607 428.817 323.639 427.527 323.983 427.247C310.044 431.399 293.653 431.85 276.531 427.828ZM301.591 493.994C300.73 492.381 299.526 490.294 299.182 488.487C299.182 488.466 298.536 485.82 298.536 485.82C298.493 485.626 297.719 480.335 297.869 480.335C297.762 477.431 297.353 473.602 297.138 471.43C295.482 486.057 297.805 489.563 301.591 493.994ZM309.378 439.164C309.356 439.164 309.399 439.379 309.313 439.745C308.646 442.842 303.548 449.102 303.075 452.931C302.903 446.563 309.055 441.315 309.378 439.164ZM354.055 431.42C357.109 438.432 354.657 443.337 351.366 450.242C354.055 440.497 355.496 438.045 354.055 431.42ZM342.224 410.447C345.343 415.158 346.483 416.018 350.291 430.344C346.741 422.493 346.376 420.299 342.224 410.447ZM345.451 404.532C349.71 408.038 352.635 411.222 355.668 422.816C351.818 414.212 349.258 409.157 345.451 404.532ZM308.345 487.347C309.528 474.57 313.314 467.407 321.789 457.77C315.551 467.536 311.572 476.355 308.345 487.347ZM321.789 482.507C326.371 475.388 331.383 464.094 340.611 461.535C337.298 463.127 335.706 464.933 332.695 468.569C332.695 468.569 331.06 470.483 328.651 474.032C326.93 476.528 323.94 480.378 321.789 482.507ZM330.931 491.649C336.137 483.518 335.792 481.088 341.149 476.054C336.158 482.959 336.481 486.035 330.931 491.649ZM327.167 465.299C329.877 456.652 334.115 448.822 342.762 444.326C336.201 449.381 331.125 457.986 327.167 465.299ZM305.118 471.171C303.053 464.912 304.344 459.405 305.656 452.909C305.291 461.298 304.323 465.665 305.118 471.171ZM368.574 460.459C362.444 468.762 356.722 472.677 349.215 475.517C356.292 471.344 359.346 468.59 368.574 460.459ZM377.716 435.184C374.404 450.909 362.229 460.782 348.14 468.526C362.982 456.394 368.51 449.424 368.51 449.424C371.586 445.94 375.393 440.583 377.716 435.184ZM364.81 448.628C364.703 435.12 367.026 427.032 374.49 415.287C369.844 426.795 366.553 438.841 364.81 448.628ZM391.161 393.239C391.053 398.961 391.204 409.651 376.103 430.344C376.146 430.237 386.471 407.629 386.342 407.629C389.246 400.854 389.977 398.186 391.161 393.239ZM374.49 404.532C374.167 392.637 377.2 390.378 382.019 377.106C379.588 389.711 376.49 391.884 374.49 404.532ZM400.302 350.218C397.786 365.232 394.839 368.975 384.707 391.088C388.988 372.739 393.484 367.964 400.302 350.218ZM248.632 450.242C245.169 443.165 242.996 438.691 245.943 431.42C245.384 433.958 244.911 435.12 245.965 440.906C245.965 440.928 248.632 450.242 248.632 450.242ZM249.707 430.344C252.934 416.814 255.666 413.717 257.774 410.447C252.117 423.483 254.784 419.439 249.707 430.344ZM244.33 422.816C246.804 412.62 249.729 408.683 254.547 404.532C250.116 409.759 247.793 415.373 244.33 422.816ZM278.209 457.77C287.609 467.966 290.362 476.076 291.653 487.347C288.598 476.205 284.684 468.44 278.209 457.77ZM259.387 461.535C262.463 462.352 265.238 463.793 268.4 467.644C268.4 467.644 271.218 470.698 276.165 479.195C277.262 481.109 278.209 482.507 278.209 482.507C275.434 479.668 267.238 468.59 267.282 468.59C263.41 463.965 262.184 462.911 259.387 461.535ZM256.698 476.054C262.549 481.583 261.99 484.228 266.916 491.649C261.538 486.229 261.474 482.701 256.698 476.054ZM257.236 444.326C261.302 446.413 263.775 448.607 265.217 450.629C265.217 450.629 266.206 451.92 267.131 453.232C270.422 458.351 271.089 459.9 272.831 465.299C271.261 462.352 270.422 460.717 266.034 453.985C265.109 452.715 264.162 451.468 264.162 451.468C261.56 447.854 259.194 445.832 257.236 444.326ZM294.342 452.931C295.783 460.395 295.224 462.438 293.804 466.912C294.643 461.642 294.578 462.288 294.342 452.931ZM293.266 440.024C295.417 441.53 297.891 443.638 299.461 448.413C299.461 448.413 302.344 455.34 300.257 465.364C300.408 462.18 299.934 447.166 293.266 440.024ZM250.783 475.517C242.458 472.699 236.78 467.45 231.423 460.459C238.5 466.848 243.061 470.87 250.783 475.517ZM251.858 468.526C237.855 460.76 225.831 451.21 222.282 435.184C224.304 440.003 226.799 444.283 231.467 449.446C231.467 449.446 237.274 456.2 251.858 468.526ZM225.508 415.287C231.983 425.462 235.317 433.743 235.188 448.628C233.273 437.895 229.81 425.935 225.508 415.287ZM223.895 430.344C215.592 419.224 209.225 407.307 208.837 393.239C211.526 405.134 216.151 412.706 223.895 430.344ZM217.979 377.106C223.185 391.109 225.831 393.368 225.508 404.532C223.873 392.292 220.41 390.679 217.979 377.106ZM215.291 391.088C207.138 373.342 202.47 366.802 199.695 350.218C207.246 369.9 211.225 373.707 215.291 391.088Z" fill="#1B141C"/>
<path d="M409.229 323.867C402.626 327.632 397.829 330.213 393.828 333.009C369.456 349.25 366.983 387.259 362.767 423.074C349.968 400.509 351.947 396.659 335.104 393.239C314.433 388.722 307.549 386.743 299.999 396.724C294.148 390.787 292.019 387.625 277.886 390.701C252.719 395.67 251.471 395.024 243.964 411.136C243.426 412.405 237.877 421.869 237.231 423.095C236.005 414.534 237.339 414.255 233.833 395.39C230.133 375.88 228.563 360.5 218.904 345.249C209.569 332.278 189.263 322.555 179.325 319.221C179.325 335.591 180.895 360.048 181.196 363.189C184.961 401.606 199.954 461.578 226.713 486.767C249.084 506.965 273.993 505.588 300.085 505.588C313.529 505.588 338.933 506.513 354.399 499.006C375.415 490.875 389.977 467.923 398.281 446.972C412.736 411.63 420.673 376.267 420.673 319.221C413.037 322.104 411.552 322.426 409.229 323.867ZM379.029 475.065C368.79 490.66 345.709 500.899 336.094 501.458C332.759 501.824 316.971 504.62 280.467 503.072C274.186 503.029 256.161 501.179 246.803 496.274C210.386 481.066 193.673 419.761 186.208 380.784C183.993 370.352 181.196 343.076 179.927 320.06C194.21 326.298 211.526 337.182 219.442 351.229C226.304 364.372 227.917 379.859 231.66 395.992C236.414 416.9 234.048 410.447 236.715 424.063C236.801 424.408 236.866 424.752 236.952 425.074C256.806 394.185 246.911 398.875 278.252 392.421C287.953 390.055 293.309 389.582 299.999 397.584C308.324 387.732 313.508 390.55 334.717 395.003C351.517 398.724 347.473 401.262 361.239 422.214C361.777 423.031 362.874 424.773 363.046 425.096C364.272 420.192 364.875 412.254 366.273 404.725C366.682 402.574 373.651 369.47 376.146 362.006C382.707 341.291 393.032 335.784 409.853 324.986C412.069 323.416 414.069 322.792 420.092 320.039C416.995 370.309 408.735 433.765 379.029 475.065ZM321.531 411.179C311.012 411.007 309.012 412.039 282.231 411.114C274.1 411.243 265.991 411.372 260.742 416.492C254.461 422.235 251.192 439.185 273.154 446.671C280.231 448.908 290.663 452.135 292.384 452.866C292.384 445.897 280.08 430.775 278.123 428.559C297.891 433.507 315.637 430.71 322.413 427.978C319.401 431.248 307.614 446.047 307.614 452.866C326.435 446.585 337.191 445.015 342.009 435.378C346.569 427.096 344.182 410.813 321.531 411.179ZM308.582 451.683C308.84 450.199 309.636 448.026 309.958 447.445C312.238 442.605 322.736 428.301 323.962 427.247C310.044 431.399 293.675 431.872 276.531 427.828C280.618 432.711 290.276 445.337 291.416 451.683C276.23 445.079 256.333 442.089 258.398 425.784C259.495 413.867 273.175 413.33 282.188 412.749C318.283 412.061 340.073 410.254 341.622 425.784C343.579 442.046 324.048 445.101 308.582 451.683Z" fill="black"/>
<path d="M413.968 345.085C404.153 318.337 415.51 277.314 396.319 246.965C387.577 232.42 379.977 222.424 381.369 205.501L380.577 205.235C378.723 208.143 376.288 211.301 374.673 213.323C375.591 210.976 377.088 207.381 378.444 204.669L377.729 204.2C372.169 210.81 367.394 214.2 360.824 216.031C367.923 211.04 375.772 202.356 379.207 197.542L378.624 196.932C354.276 212.598 326.646 212.811 302.27 213.002C280.272 213.166 266.608 212.669 250.746 203.449C239.301 207.244 230.288 206.76 220.382 199.932C189.377 260.048 203.152 229.954 184.617 341.394C173.853 327.046 170.725 317.922 168.178 304.252C167.505 299.892 166.847 293.165 167.255 288.732L167.12 288.592C157.543 267.576 153.024 255.61 155.3 213.925C156.989 196.63 160.749 183.647 171.592 170.048C170.162 162.659 170.024 155.21 170.996 148.085C165.317 137.702 161.409 127.016 159.886 123.198C167.819 129.27 168.475 129.621 175.094 131.71C176.608 127.543 178.815 123.404 180.228 121.245C180.867 126.059 181.375 129.311 182.816 133.99C183.307 134.108 185.641 134.74 186.387 134.94C185.959 132.092 185.567 130.772 185.628 128.218C186.856 131.019 187.893 131.669 191.457 136.018C195.402 136.846 194.456 136.724 195.639 136.724C189.897 127.726 186.023 119.763 185.04 107.652C192.898 112.129 203.892 114.686 215.372 114.686C242.344 114.686 269.942 94.4404 308.231 94.4404C341.411 94.4404 370.119 112.849 382.836 133.811C382.823 128.403 382.593 123.929 384.544 118.371C384.544 118.371 384.77 126.341 384.77 132.551L385.622 132.63C386.955 125.53 389.769 119.477 394.415 113.759C390.289 124.854 391.86 118.93 387.243 132.477L387.992 132.88C391.07 128.924 393.591 126.128 400.939 122.421C395.63 127.741 391.571 130.789 389.061 134.551L389.709 135.108C392.84 132.269 396.099 131.193 399.414 133.79C394.077 131.849 390.926 135.25 387.265 139.544C401.503 141.89 409.227 150.105 419.238 161.086C442.28 187.656 448.348 213.596 435.851 250.368C441.089 261.689 440.282 287.205 428.591 307.771C428.587 319.838 420.331 334.728 413.968 345.085Z" fill="#2A232B"/>
<path d="M218.902 198.312C219.674 199.031 220.447 199.749 221.212 200.472C220.935 200.289 220.657 200.119 220.378 199.928C189.373 260.043 203.148 229.95 184.612 341.39C173.848 327.042 170.721 317.917 168.174 304.247C167.501 299.887 166.842 293.161 167.251 288.728L167.116 288.588C157.539 267.572 153.02 255.606 155.296 213.921C156.984 196.626 160.744 183.642 171.588 170.043C170.181 162.777 170.039 155.455 170.957 148.438C172.242 150.318 173.588 152.149 174.965 153.956C175.892 159.6 176.677 165.105 175.238 169.551C154.719 232.959 166.634 262.046 179.54 307.218C174.24 272.95 164.177 229.382 191.627 203.968C179.902 232.138 183.139 244.911 185.993 264.197C187.966 238.561 197.168 214.714 218.902 198.312ZM419.236 161.076C418.427 160.189 417.64 159.329 416.857 158.479C416.035 159.028 415.192 159.531 414.364 160.065C446.535 226.018 415.642 219.685 423.005 249.138C431.607 270.648 420.458 283.556 420.458 305.067C420.458 272.801 418.993 250.346 401.184 225.102C395.17 216.577 393.482 187.624 389.429 173.317C339.52 203.968 265.586 210.38 187.964 148.434C224.532 161.34 299.063 151.338 324.648 134.848C295.484 140.142 234.601 140.458 207.222 129.188C272.829 124.09 272.035 103.032 327.963 99.0738C301.075 89.0348 242.342 114.677 215.372 114.677C203.894 114.677 192.9 112.122 185.04 107.644C186.023 119.754 189.897 127.719 195.639 136.715C194.453 136.715 195.402 136.838 191.457 136.009C187.891 131.66 186.854 131.008 185.628 128.21C185.565 130.763 185.959 132.084 186.387 134.932C185.641 134.732 183.304 134.099 182.816 133.981C181.375 129.302 180.867 126.05 180.228 121.236C178.817 123.396 176.608 127.534 175.094 131.701C168.473 129.612 167.819 129.262 159.886 123.189C161.409 127.007 165.317 137.696 170.996 148.077C170.981 148.195 170.977 148.316 170.962 148.434C184.524 168.299 203.591 183.864 221.217 200.472C230.798 206.762 239.625 207.132 250.749 203.445C266.61 212.664 280.276 213.161 302.273 212.998C326.648 212.808 354.279 212.593 378.626 196.927L379.209 197.538C375.774 202.352 367.925 211.036 360.826 216.026C367.398 214.194 372.171 210.804 377.732 204.196L378.446 204.665C377.091 207.379 375.593 210.971 374.675 213.318C376.29 211.296 378.725 208.138 380.58 205.23L381.371 205.497C379.982 222.421 387.579 232.415 396.321 246.961C415.513 277.31 404.157 318.335 413.97 345.081C420.333 334.724 428.589 319.836 428.589 307.756C440.28 287.19 441.086 261.674 435.849 250.353C448.346 213.585 442.278 187.645 419.236 161.076ZM420.813 216.248C420.103 195.761 406.545 169.759 406.545 169.759C400.208 158.565 394.544 153.224 385.043 151.056C411.772 152.388 422.269 192.311 421.114 213.168C421.004 215.104 420.813 216.248 420.813 216.248ZM360.028 129.741C367.09 135.47 368.777 137.104 375.722 146.754C339.901 82.4612 269.605 131.116 247.376 129.546C269.972 134.215 321.064 101.169 360.028 129.741ZM378.231 157.688C335.293 193.283 269.732 178.204 216.108 161.398C269.512 185.858 337.503 199.093 378.231 157.688ZM209.373 196.407C195.307 203.774 188.689 222.327 188.078 234.588C190.704 224.007 198.586 204.594 209.373 196.407ZM191.627 186.189C171.495 198.448 167.591 226.567 169.579 250.183C171.695 228.367 175.627 199.902 191.627 186.189ZM336.705 159.527C334.541 159.989 321.09 161.833 313.749 162.097C308.025 162.431 285.705 162.803 265.584 161.994C286.353 166.445 298.827 167.273 313.974 166.393C331.411 165.763 347.015 162.31 359.944 151.774C350.835 156.789 346.952 157.503 336.705 159.527ZM408.862 216.627C408.862 216.627 408.311 215.678 407.597 214.256C405.637 210.971 403.413 202.036 394.824 173.954C401.204 225.999 411.639 216.506 416.315 243.396C416.317 233.725 415.642 228.767 408.862 216.627Z" fill="#1B141C"/>
<path d="M424.444 279.536C425.227 272.554 424.911 275.755 424.997 271.771C425.655 258.34 417.627 247.079 422.514 230.929C426.502 219.199 428.806 217.36 427.059 196.94C426.803 193.993 426.04 186.671 424.689 184.038C426.53 187.241 427.748 193.17 428.4 196.803C432.028 217.33 428.976 220.447 425.128 231.794C419.987 248.938 429.854 256.501 424.444 279.536ZM389.429 173.317C391.832 238.645 405.08 223.471 416.784 263.128C408.838 216.351 401.488 255.133 389.429 173.317ZM188.938 206.624C169.17 231.497 171.166 249.428 176.032 286.213C175.593 248.979 171.054 234.846 188.938 206.624ZM174.748 171.087C163.403 206.19 160.918 222.032 166.365 259.893C165.356 221.936 165.597 213.557 174.748 171.087ZM218.156 198.893C197.441 213.777 186.628 241.002 185.993 264.197C189.181 242.031 201.076 214.071 218.156 198.893ZM362.068 185.886C336.145 195.43 293.95 197.986 263.145 188.73C239.137 181.728 201.651 158.2 181.487 143.405C199.766 157.957 231.974 179.558 254.463 188.095C277.83 196.826 314.45 200.07 342.831 192.924C362.724 187.925 373.034 183.202 389.429 173.32C382.13 177.321 371.379 182.978 362.068 185.886ZM306.05 108.044C332.222 103.129 363.072 119.999 379.308 139.944C362.321 115.598 334.487 103.486 317.87 103.198C290.597 102.724 262.384 126.091 207.222 128.111C259.09 130.395 284.023 111.61 306.05 108.044ZM326.605 135.64C289.416 148.854 260.697 152.016 221.619 154.096C261.979 156.58 290.833 152.665 326.605 135.64ZM365.683 143.175C342.749 153.988 332.708 155.761 285.37 158.643C315.048 159.841 342.773 158.299 365.683 143.175ZM289.777 176.054C312.673 178.714 352.779 175.828 372.853 154.999C348.611 175.421 303.763 174.69 268.785 173.3C282.173 175.389 279.758 175.04 289.777 176.054ZM387.91 156.075C404.321 162.117 408.322 190.907 414.798 214.153C411.901 193.548 406.951 160.545 387.91 156.075Z" fill="#3A353A"/>
<path d="M419.552 160.785C410.199 150.527 401.802 141.49 388.082 139.232C392.587 133.934 395.753 131.963 401.526 135.252C398.106 131.228 394.176 130.464 389.416 134.779C392.15 130.681 396.876 127.337 402.968 120.948C393.867 125.218 391.13 128.132 387.652 132.607C392.567 118.188 390.448 125.878 395.654 111.634C390.214 117.734 386.736 124.368 385.202 132.542C385.202 119.844 384.804 121.486 385.051 115.936C382.068 122.581 382.408 128.434 382.408 132.262C377.605 124.342 370.547 117.635 362.939 112.15C309.046 72.8095 255.302 109.018 226.175 113.398C214.368 115.392 196.675 114.125 184.552 106.859C185.408 119.257 189.248 127.491 194.856 136.285C194.853 136.285 191.694 135.618 191.694 135.618C187.351 130.382 186.931 130.55 185.326 126.304C184.916 130.096 185.544 132.198 185.864 134.349C184.793 134.069 183.806 133.772 183.154 133.618C181.556 128.425 181.093 124.476 180.508 120.087C179.187 121.776 176.374 126.928 174.829 131.165C168.378 129.126 167.916 128.801 158.847 121.851C159.923 124.002 163.814 135.749 170.549 148.159C169.538 155.761 169.843 163.345 171.129 169.927C160.32 183.505 156.567 196.484 154.868 213.895C152.628 254.892 156.733 266.834 166.763 288.794C166.784 288.816 166.784 288.859 166.806 288.88C166.425 293.12 167.062 299.855 167.752 304.325C170.288 317.945 173.399 327.326 184.767 342.291C184.81 342.334 184.832 342.399 184.875 342.442C192.178 298.629 191.425 297.556 192.984 286.751C200.668 231.443 200.334 239.703 220.539 200.558C228.741 206.211 237.823 208.199 250.697 203.914C260.037 209.343 269.574 213.486 295.998 213.486C322.178 213.159 352.304 214.372 378.856 197.289C374.834 202.929 365.696 212.677 358.508 217.035C365.991 215.452 371.36 212.439 378.061 204.473C376.002 208.592 373.58 214.828 373.393 215.573C373.715 215.185 378.018 210.044 380.943 205.463C379.538 222.553 387.168 232.559 395.957 247.193C415.222 277.658 403.51 319.298 413.876 346.055C420.522 335.309 429.019 320.058 429.019 307.874C440.226 288.33 441.831 262.463 436.311 250.334C447.533 216.711 445.266 190.433 419.552 160.785ZM185.539 127.681C186.589 130.668 186.819 130.604 190.895 135.446C188.874 135.027 187.529 134.732 186.314 134.457C185.843 132.185 185.539 130.025 185.539 127.681ZM180.14 121.959C180.342 125.254 181.128 129.578 182.27 133.381C176.107 131.796 178.398 132.297 176.247 131.66C178.017 126.338 178.684 124.992 180.14 121.959ZM183.84 337.537C174.771 321.178 172.39 315.616 169.88 299.055C169.635 297.149 168.864 291.642 168.826 289.01C155.769 259.153 150.86 202.46 171.428 171.261C171.428 171.239 171.428 171.239 171.428 171.239C171.428 171.239 172.287 169.897 173.838 167.97C173.263 165.079 172.695 158.978 172.891 152.31C174.483 155.15 176.29 157.731 177.903 160.205C177.903 160.198 179.172 161.885 179.172 161.925C188.962 174.38 198.003 184.735 219.87 200.107C193.617 242.641 195.245 228.275 183.84 337.537ZM436.89 236.677C436.124 241.749 434.474 248.686 433.579 251.712C439.559 266.916 433.026 295.63 426.995 308.457C424.358 323.715 421.52 326.786 414.067 341.992C408.739 318.33 419.623 276.344 399.526 245.023C386.493 223.418 380.904 220.587 383.974 193.892C383.974 193.892 384.105 192.44 384.146 192.064C356.982 208.672 326.98 210.55 287.413 209.702C275.976 209.702 260.525 208.266 250.888 202.303C231.355 207.859 224.108 199.212 207.846 186.514C190.287 171.592 178.357 158.563 163.642 127.855C171.908 134.562 188.458 137.941 198.897 139.686C191.857 130.301 187.714 121.727 185.841 109.571C193.326 114.561 211.266 119.472 227.076 117.723C256.188 114.989 296.951 85.0985 347.04 107.764C370.28 118.018 382.072 132.45 384.834 140.03C384.856 140.03 384.877 140.051 384.92 140.051C385.049 140.094 385.178 140.116 385.327 140.137C385.363 140.176 386.041 140.331 386.101 140.331C401.107 145.332 402.111 146.266 416.646 163.218C424.816 173.24 444.481 193.247 436.89 236.677Z" fill="black"/>
<path d="M372.834 364.286C365.843 364.286 358.594 363.511 352.42 362.135C342.332 359.855 329.748 350.842 321.639 337.398C312.733 322.641 310.776 312.144 313.594 301.69C317.207 288.203 340.288 283.406 360.659 283.406C381.61 283.406 405.874 288.397 411.746 297.926C421.641 313.973 414.801 342.861 409.036 351.702C401.615 363.06 381.244 364.286 372.834 364.286Z" fill="url(#paint13_linear)"/>
<path d="M227.164 364.286C234.155 364.286 241.404 363.511 247.578 362.135C257.666 359.855 270.25 350.842 278.359 337.398C287.265 322.641 289.222 312.144 286.404 301.69C282.791 288.203 259.71 283.406 239.339 283.406C218.388 283.406 194.124 288.397 188.252 297.926C178.357 313.973 185.197 342.861 190.962 351.702C198.383 363.06 218.754 364.286 227.164 364.286Z" fill="url(#paint14_linear)"/>
<path d="M365.111 278.674C337.771 278.674 322.047 285.041 299.999 285.041C277.951 285.041 262.248 278.674 234.887 278.674C202.384 279.384 180.358 285.557 175.238 289.472V304.572C180.895 307.541 177.217 315.973 182.466 340.108C187.219 361.963 202.771 364.909 213.914 366.802C229.681 369.448 248.159 367.942 260.957 360.371C277.413 350.648 287.136 332.902 290.922 316.855C293.03 307.907 298.988 308.487 300.02 308.487C301.053 308.487 307.011 307.907 309.119 316.855C312.884 332.902 322.607 350.648 339.084 360.371C351.882 367.921 370.338 369.448 386.127 366.802C397.248 364.931 412.822 361.984 417.575 340.108C422.824 315.973 419.146 307.541 424.803 304.572V289.472C419.64 285.557 397.614 279.405 365.111 278.674ZM247.341 361.081C229.208 365.168 200.384 364.157 191.866 351.1C186.294 342.56 179.605 313.994 189.177 298.463C199.351 281.965 278.618 276.824 285.372 301.948C290.685 321.716 270.637 355.811 247.341 361.081ZM408.132 351.1C399.614 364.157 370.812 365.168 352.657 361.081C329.361 355.832 309.313 321.716 314.626 301.948C321.38 276.824 400.668 281.965 410.821 298.463C420.393 313.973 413.704 342.56 408.132 351.1Z" fill="#26120B"/>
<path d="M420.415 291.343C421.813 293.107 421.598 295.022 421.383 298.98C421.512 294.441 420.436 292.569 419.167 291.472C417.36 289.364 407.552 285.363 402.174 284.051C409.229 285.32 418.027 288.461 420.415 291.343ZM415.145 332.816C412.714 343.743 411.832 349.766 405.831 355.23C400.109 360.457 390.515 362.5 383.073 363.102C394.688 362.651 401.937 359.553 406.455 355.509C411.961 350.626 413.531 344.259 415.145 332.816ZM179.583 291.343C178.185 293.107 178.4 295.022 178.615 298.98C178.486 294.441 179.562 292.569 180.831 291.472C182.638 289.364 192.446 285.363 197.824 284.051C190.769 285.32 181.971 288.461 179.583 291.343ZM193.522 355.531C198.039 359.553 205.31 362.672 216.904 363.124C209.44 362.522 199.868 360.478 194.146 355.251C188.144 349.787 187.284 343.764 184.832 332.837C186.467 344.259 188.037 350.626 193.522 355.531Z" fill="#351D15"/>
<path d="M352.291 280.287C335.341 281.556 310.926 286.547 299.999 286.547C289.072 286.547 264.657 281.556 247.707 280.287C228.692 278.867 209.375 281.169 198.921 283.686C199.652 283.772 200.298 283.815 201.115 283.922C216.56 280.846 228.713 280.502 242.953 280.975C258.054 281.47 288.641 287.364 299.977 287.149C311.314 287.364 341.923 281.47 357.002 280.975C371.242 280.502 383.417 280.846 398.84 283.922C399.657 283.815 400.303 283.772 401.034 283.686C390.623 281.191 371.306 278.889 352.291 280.287Z" fill="#452B22"/>
</g>
<defs>
<linearGradient id="paint0_linear" x1="300" y1="-75" x2="300" y2="675" gradientUnits="userSpaceOnUse">
<stop stop-color="#151371"/>
<stop offset="0.453125" stop-color="#FF00B8"/>
<stop offset="0.96875" stop-color="#FFC700"/>
</linearGradient>
<linearGradient id="paint1_linear" x1="439" y1="245" x2="439" y2="644" gradientUnits="userSpaceOnUse">
<stop stop-color="#FF00B8"/>
<stop offset="1" stop-color="#F0DB0A" stop-opacity="0"/>
</linearGradient>
<linearGradient id="paint2_linear" x1="194" y1="161" x2="194" y2="560" gradientUnits="userSpaceOnUse">
<stop stop-color="#FF00B8"/>
<stop offset="1" stop-color="#F0DB0A" stop-opacity="0"/>
</linearGradient>
<linearGradient id="paint3_linear" x1="299.999" y1="500.813" x2="299.999" y2="414.771" gradientUnits="userSpaceOnUse">
<stop stop-color="#DC9164" stop-opacity="0.8"/>
<stop offset="0.7" stop-color="#BD6630"/>
</linearGradient>
<linearGradient id="paint4_linear" x1="299.999" y1="438.432" x2="299.999" y2="431.979" gradientUnits="userSpaceOnUse">
<stop offset="0.1" stop-color="#E39D72"/>
<stop offset="1" stop-color="#DC9164"/>
</linearGradient>
<radialGradient id="paint5_radial" cx="0" cy="0" r="1" gradientUnits="userSpaceOnUse" gradientTransform="translate(241.493 315.467) rotate(180) scale(30.1147)">
<stop stop-color="white"/>
<stop offset="0.544" stop-color="#FDFEFE"/>
<stop offset="0.74" stop-color="#F6F8F9"/>
<stop offset="0.879" stop-color="#EAEFF2"/>
<stop offset="0.992" stop-color="#D9E3E8"/>
<stop offset="1" stop-color="#D8E2E7"/>
</radialGradient>
<radialGradient id="paint6_radial" cx="0" cy="0" r="1" gradientUnits="userSpaceOnUse" gradientTransform="translate(245.456 313.55) rotate(1.19182) scale(40.2361 25.2774)">
<stop stop-color="#DC9164"/>
<stop offset="0.7" stop-color="#DC9164" stop-opacity="0.3"/>
<stop offset="1" stop-color="#EBAA82" stop-opacity="0"/>
</radialGradient>
<radialGradient id="paint7_radial" cx="0" cy="0" r="1" gradientUnits="userSpaceOnUse" gradientTransform="translate(234.92 373.97) rotate(-3.00026) scale(65.6003)">
<stop offset="0.95" stop-opacity="0"/>
<stop offset="1" stop-opacity="0.2"/>
</radialGradient>
<radialGradient id="paint8_radial" cx="0" cy="0" r="1" gradientUnits="userSpaceOnUse" gradientTransform="translate(357.649 315.467) scale(30.1147)">
<stop stop-color="white"/>
<stop offset="0.544" stop-color="#FDFEFE"/>
<stop offset="0.74" stop-color="#F6F8F9"/>
<stop offset="0.879" stop-color="#EAEFF2"/>
<stop offset="0.992" stop-color="#D9E3E8"/>
<stop offset="1" stop-color="#D8E2E7"/>
</radialGradient>
<radialGradient id="paint9_radial" cx="0" cy="0" r="1" gradientUnits="userSpaceOnUse" gradientTransform="translate(353.682 313.551) rotate(178.808) scale(40.2361 25.2774)">
<stop stop-color="#DC9164"/>
<stop offset="0.7" stop-color="#DC9164" stop-opacity="0.3"/>
<stop offset="1" stop-color="#EBAA82" stop-opacity="0"/>
</radialGradient>
<radialGradient id="paint10_radial" cx="0" cy="0" r="1" gradientUnits="userSpaceOnUse" gradientTransform="translate(364.219 373.973) rotate(-177) scale(65.6025)">
<stop offset="0.95" stop-opacity="0"/>
<stop offset="1" stop-opacity="0.2"/>
</radialGradient>
<radialGradient id="paint11_radial" cx="0" cy="0" r="1" gradientUnits="userSpaceOnUse" gradientTransform="translate(299.999 378.203) scale(88.1931)">
<stop stop-color="#FAC5A3" stop-opacity="0.5"/>
<stop offset="0.9" stop-color="#EBAA82" stop-opacity="0"/>
</radialGradient>
<radialGradient id="paint12_radial" cx="0" cy="0" r="1" gradientUnits="userSpaceOnUse" gradientTransform="translate(299.999 249.14) scale(79.5889)">
<stop stop-color="#FAC5A3" stop-opacity="0.5"/>
<stop offset="0.9" stop-color="#EBAA82" stop-opacity="0"/>
</radialGradient>
<linearGradient id="paint13_linear" x1="364.531" y1="281.406" x2="364.531" y2="367.448" gradientUnits="userSpaceOnUse">
<stop/>
<stop offset="1" stop-opacity="0.8"/>
</linearGradient>
<linearGradient id="paint14_linear" x1="235.467" y1="281.406" x2="235.467" y2="367.448" gradientUnits="userSpaceOnUse">
<stop/>
<stop offset="1" stop-opacity="0.8"/>
</linearGradient>
<clipPath id="clip0">
<rect width="600" height="600" fill="white"/>
</clipPath>
</defs>
</svg>
