<svg width="600" height="600" viewBox="0 0 600 600" fill="none" xmlns="http://www.w3.org/2000/svg">
<g clip-path="url(#clip0)">
<path d="M675 675H-75V-75H675V675Z" fill="url(#paint0_linear)"/>
<path d="M360.996 403.874H308.184V356.576H360.996V403.874ZM414.113 320.069H340.054V380.225H414.113V320.069ZM377.082 441.95H442.881V362.639H377.082V441.95ZM400.757 434.192H334.59V491.191H400.757V434.192ZM580.44 284.416H490.23V387.501H580.44V284.416ZM478.458 331.108H456.605V356.576H478.458V331.108ZM544.531 252.277H456.605V304.426H544.531V252.277ZM442.881 270.468H395.532V335.958H442.881V270.468ZM334.59 275.32H308.184V303.213H334.59V275.32ZM299.325 320.069H258.501V382.71H299.325V320.069V320.069ZM347.338 441.95H275.708V521.511H347.338V441.95ZM308.184 576.086H388.617V528.788H308.184V576.086ZM500.311 557.894H443.791V599.129H500.313V557.894H500.311ZM637.361 516.659H585.062V578.511H637.361V516.659ZM551.302 544.718H506.381V585.953H551.302V544.718ZM594.357 463.296H528.843V537.278H594.357V463.296ZM610.791 590.639H528.843V644H610.791V590.639ZM340.054 557.894H251.187V637.937H340.052V557.894H340.054ZM630.216 356.576H569.818V403.874H630.216V356.576ZM594.357 424.49H568.208V451.477H594.357V424.49ZM251.187 474.697H300.975V404.294H251.187V474.697ZM321.764 249.852L232 252.277V320.069H321.764V249.852ZM646 252.277H587.725V326.256H646V252.277ZM371.858 245H347.338V298.361H371.858V245ZM641.143 437.983H581.281V486.494H641.143V437.983Z" fill="url(#paint1_linear)" stroke="#FFC700" stroke-width="1.5"/>
<path d="M115.996 319.874H63.1843V272.576H115.996V319.874ZM169.113 236.069H95.0537V296.225H169.113V236.069ZM132.082 357.95H197.881V278.639H132.082V357.95ZM155.757 350.192H89.5904V407.191H155.757V350.192ZM335.44 200.416H245.23V303.501H335.44V200.416ZM233.458 247.108H211.605V272.576H233.458V247.108ZM299.531 168.277H211.605V220.426H299.531V168.277ZM197.881 186.468H150.532V251.958H197.881V186.468ZM89.5904 191.32H63.1843V219.213H89.5904V191.32ZM54.3246 236.069H13.5008V298.71H54.3246V236.069V236.069ZM102.338 357.95H30.7084V437.511H102.338V357.95ZM63.1843 492.086H143.617V444.788H63.1843V492.086ZM255.311 473.894H198.791V515.129H255.313V473.894H255.311ZM392.361 432.659H340.062V494.511H392.361V432.659ZM306.302 460.718H261.381V501.953H306.302V460.718ZM349.357 379.296H283.843V453.278H349.357V379.296ZM365.791 506.639H283.843V560H365.791V506.639ZM95.0537 473.894H6.18721V553.937H95.0519V473.894H95.0537ZM385.216 272.576H324.818V319.874H385.216V272.576ZM349.357 340.49H323.208V367.477H349.357V340.49ZM6.18721 390.697H55.9745V320.294H6.18721V390.697ZM76.7643 165.852L-13 168.277V236.069H76.7643V165.852ZM401 168.277H342.725V242.256H401V168.277ZM126.858 161H102.338V214.361H126.858V161ZM396.143 353.983H336.281V402.494H396.143V353.983Z" fill="url(#paint2_linear)" stroke="#FFC700" stroke-width="1.5"/>
<rect x="504" y="328.706" width="8.86149" height="25.1423" fill="white"/>
<rect x="521.753" y="328.857" width="8.83104" height="25.1423" fill="white"/>
<rect x="512.862" y="320" width="8.89195" height="8.85765" fill="white"/>
<rect x="539.416" y="328.857" width="8.89195" height="25.1423" fill="white"/>
<rect x="530.584" y="320" width="8.83105" height="8.85765" fill="white"/>
<rect x="548.307" y="320" width="8.86149" height="8.85765" fill="white"/>
<rect x="557.169" y="327.792" width="8.83104" height="8.85766" fill="white"/>
<rect x="548.307" y="336.65" width="8.86149" height="8.82721" fill="white"/>
<rect x="40" y="390.425" width="7.57515" height="21.4449" fill="white"/>
<rect x="55.1764" y="390.555" width="7.54912" height="21.4449" fill="white"/>
<rect x="47.5752" y="383" width="7.60118" height="7.55506" fill="white"/>
<rect x="70.2745" y="390.555" width="7.60118" height="21.4449" fill="white"/>
<rect x="62.7255" y="383" width="7.54912" height="7.55506" fill="white"/>
<rect x="77.8757" y="383" width="7.57515" height="7.55506" fill="white"/>
<rect x="85.4509" y="389.646" width="7.54912" height="7.55506" fill="white"/>
<rect x="77.8757" y="397.202" width="7.57515" height="7.52909" fill="white"/>
<path d="M310.259 365.93H308.287V363.958H310.259V365.93Z" fill="#2A232B"/>
<path d="M497.44 561.711C493.109 552.351 481.279 538.482 468.135 534.65C451.887 529.911 415.211 524.182 401.612 520.998C390.711 518.442 368.754 498.725 361.059 492.107C359.678 490.924 358.548 488.481 358.521 486.664C358.247 465.24 366.794 408.327 366.794 408.327H309.273H251.754C251.754 408.327 260.301 465.238 260.023 486.664C260.001 488.481 258.865 490.924 257.489 492.107C249.794 498.725 227.837 518.442 216.936 520.998C203.334 524.182 166.658 530.107 150.413 534.845C137.265 538.675 125.439 552.349 121.108 561.709C113.796 577.501 112.068 606.08 112.068 630.73H309.273H506.478C506.478 606.082 504.748 577.503 497.44 561.711Z" fill="#F0C7B1"/>
<path d="M425.931 530.71C473.935 537.695 494.137 547.883 500.463 630.734H506.478C506.478 606.084 504.748 577.505 497.44 561.713C493.109 552.353 481.279 538.484 468.135 534.652C451.887 529.913 415.211 524.185 401.612 521C390.711 518.444 365.638 497.199 358.931 488.757C365.557 498.033 384.155 519.531 400.45 525.161C408.246 527.855 414.738 529.081 425.931 530.71ZM218.097 525.161C234.392 519.533 252.989 498.033 259.617 488.757C252.912 497.197 227.839 518.444 216.936 521C203.336 524.185 166.66 530.109 150.413 534.848C137.269 538.677 125.439 552.351 121.108 561.711C113.8 577.503 112.07 606.082 112.07 630.732H118.085C124.372 548.411 144.658 537.685 192.616 530.708C203.808 529.081 210.302 527.855 218.097 525.161Z" fill="#FFE4D6"/>
<path d="M300.687 557.455C300.687 557.455 290.68 554.282 286.718 552.763C266.113 544.858 199.169 539.734 199.169 539.734C199.169 539.734 269.678 542.532 285.237 545.214C284.334 535.814 279.288 505.766 279.288 505.766C279.288 505.766 289.442 538.926 291.927 547.291C293.256 551.764 300.687 557.455 300.687 557.455ZM321.983 554.808C321.807 554.952 321.606 555.14 321.387 555.337C321.61 555.169 321.811 554.994 321.983 554.808ZM300.687 557.455C300.687 557.455 306.392 563.355 309.259 563.43C313.026 563.531 318.78 557.713 321.389 555.337C318.894 557.224 313.187 558.08 310.917 558.169C308.295 558.269 300.687 557.455 300.687 557.455ZM342.135 542.627C339.088 543.116 333.486 544.183 333.486 544.183L337.996 514.819C336.722 520.875 329.173 546.788 321.983 554.808C325.749 551.622 334.127 550.093 338.398 549.476C358.584 546.55 358.576 546.552 419.374 539.734C419.374 539.734 362.045 539.428 342.135 542.627Z" fill="#E1AC8F"/>
<path d="M497.44 561.711C493.109 552.351 481.279 538.482 468.135 534.65C451.887 529.911 415.211 524.182 401.612 520.998C390.711 518.442 368.754 498.725 361.059 492.107C359.678 490.924 358.548 488.481 358.521 486.664C358.247 465.24 366.794 408.327 366.794 408.327H309.273H251.754C251.754 408.327 260.301 465.238 260.023 486.664C260.001 488.481 258.865 490.924 257.489 492.107C249.794 498.725 227.837 518.442 216.936 520.998C203.334 524.182 166.658 530.107 150.413 534.845C137.265 538.675 125.439 552.349 121.108 561.709C113.796 577.501 112.068 606.08 112.068 630.73H309.273H506.478C506.478 606.082 504.748 577.503 497.44 561.711Z" stroke="#C27B55" stroke-width="3.825"/>
<path d="M309.314 506.667C325.452 506.667 342.585 496.919 357.036 485.615C357.034 472.399 359.897 447.939 362.266 429.994C331.932 425.563 286.527 425.5 256.237 429.694C258.571 447.364 261.413 471.513 261.504 484.951C275.983 496.612 293.145 506.667 309.314 506.667Z" fill="url(#paint3_linear)"/>
<path d="M332.555 632.921C294.82 632.921 250.804 632.775 197.996 632.47L151.3 632.217C123.104 632.063 121.441 632.032 117.998 632.032L108.337 632.046C99.3227 549.466 136.754 527.783 194.638 520.215C209.998 518.051 225.104 514.107 236.956 506.466C269.153 550.33 364.766 541.099 381.118 505.225C383.86 506.27 386.125 507.621 388.961 508.645C398.163 515.415 410.796 520.153 423.725 520.869C475.014 523.711 511.321 546.498 510.607 628.622C510.613 628.947 510.615 630.939 510.581 631.56C485.905 631.56 476.65 631.799 457.269 632.077C430.98 632.452 398.259 632.919 332.578 632.919C332.569 632.921 332.563 632.921 332.555 632.921Z" fill="#11220C"/>
<path d="M508.558 630.46C507.75 615.896 500.544 575.128 488.128 556.427C463.513 519.343 404.789 532.356 391.237 517.592C381.404 537.626 341.985 550.318 328.932 552.181C366.758 539.639 382.645 530.57 388.922 509.053C401.553 525.48 469.922 512.94 496.826 557.035C504.705 569.946 512.196 611.041 508.558 630.46ZM222.13 518.03C224.806 517.408 226.141 515.566 228.797 514.847L225.985 511.117C208.14 525.024 141.367 516.334 118.471 558.518C111.255 571.811 106.388 603.457 110.204 630.377C111.263 613.843 111.78 578.485 124.196 559.782C146.528 526.139 187.25 535.027 218.103 520.784C231.874 537.744 253.379 546.082 275.261 549.531C247.808 542.37 232.067 530.28 222.13 518.03Z" fill="#1C3116"/>
<path d="M378.906 509.384C367.996 532.09 285.529 558.534 239.028 511.118C236.137 512.344 227.488 515.283 227.488 515.283C261.36 561.401 360.623 561.693 387.044 515.058C386.928 515.012 381.591 510.749 378.906 509.384Z" fill="#081305"/>
<path d="M381.016 504.963C362.453 542.081 265.854 547.332 237.033 506.209C226.508 509.321 216.387 515.953 206.198 517.612C145.222 526.693 100.145 531.256 108.124 632.259C127.726 632.259 95.0867 632.13 197.992 632.683C441.717 634.083 433.774 631.773 510.771 631.773C510.828 631.497 510.8 628.91 510.812 628.626C514.946 517.332 449.97 523.902 406.057 516.229C399.857 514.813 394.094 510.761 389.028 508.449C386.23 507.17 383.852 506.02 381.016 504.963ZM236.335 507.454C261.92 553.584 362.978 544.329 382.489 507.653C384.855 508.647 385.461 509.041 388.204 510.013C367.994 552.391 268.023 565.895 227.133 512.307C227.421 512.226 233.451 508.534 236.335 507.454ZM110.402 630.732C105.627 578.609 113.945 535.989 175.045 525.533C195.31 521.794 207.697 521.664 225.104 514.107C258.161 568.151 367.285 559.776 389.963 511.534C393.221 514.312 398.301 517.509 404.566 518.998C440.256 527.476 512.709 517.235 508.883 630.73C402.28 629.346 313.917 626.108 110.402 630.732Z" fill="black"/>
<path d="M204.756 331.875C202.043 327.037 193.638 315.152 185.075 318.064C179.654 319.908 178.581 325.939 177.709 331.263C176.55 338.345 178.638 352.352 180.449 357.413C182.186 362.278 187.416 371.67 190.829 375.25C195.03 379.638 200.246 393.637 201.072 395.091C202.374 397.382 204.101 400.831 209.201 400.399C214.827 399.918 218.241 396.751 220.749 396.217C226.946 394.903 211.818 344.466 204.756 331.875Z" fill="#F0C7B1" stroke="#C27B55" stroke-width="3.825"/>
<path d="M199.226 361.205C198.966 360.059 199.24 358.129 199.506 356.267C199.751 354.569 199.98 352.964 199.84 351.828C199.313 347.58 196.343 339.505 194.403 335.131C192.17 330.094 188.56 323.752 184.026 322.117C182.152 321.441 180.92 322.249 180.204 323.072C179.679 323.673 179.563 324.383 179.735 324.466C179.904 324.549 180.297 323.965 180.863 323.411C181.326 322.959 182.004 322.571 182.935 322.651C182.561 324.768 180.634 336.225 181.468 344.038C182.125 350.181 184.61 354.77 184.998 355.458C185.055 356.182 185.15 356.89 185.29 357.578C187.122 366.545 195.093 376.741 197.868 380.078C198.378 380.695 198.915 381.058 199.047 380.912C199.177 380.762 198.862 380.149 198.351 379.531C195.614 376.22 187.719 366.06 185.949 357.409C184.071 348.227 190.52 334.62 191.959 331.739C192.691 333.09 193.314 334.389 193.793 335.472C194.168 336.322 194.586 337.318 195.014 338.388C194.168 339.891 188.242 350.852 190.403 359.621C191.204 362.858 194.811 367.027 197.201 368.166C198.516 368.797 199.013 369.738 199.585 370.827C200.248 372.089 201.001 373.518 203.19 374.558C203.634 374.771 204.036 374.856 204.393 374.856C205.01 374.856 205.48 374.589 205.823 374.278C205.858 374.83 205.856 375.54 205.841 376.191C205.817 377.041 205.923 377.735 206.111 377.751C206.296 377.766 206.497 377.096 206.519 376.252C206.551 375.214 206.545 373.931 206.377 373.317C205.888 371.509 204.389 369.466 202.802 367.307C201.246 365.173 199.633 362.978 199.226 361.205ZM184.935 353.256C180.642 339.177 186.229 327.027 187.191 325.095C188.867 326.716 190.346 328.879 191.549 331.001C190.674 332.693 185.114 343.786 184.935 353.256ZM203.454 373.848C201.475 372.911 200.814 371.649 200.169 370.43C199.591 369.328 198.99 368.19 197.469 367.462C197.138 367.303 196.775 367.062 196.4 366.786C191.498 354.435 196.937 349.036 198.3 347.929C198.716 349.44 199.027 350.824 199.165 351.934C199.289 352.954 199.063 354.575 198.836 356.143C198.556 358.085 198.272 360.095 198.566 361.396C199.011 363.333 200.674 365.599 202.281 367.79C203.707 369.734 205.172 371.74 205.675 373.375C205.462 373.698 204.788 374.481 203.454 373.848Z" fill="#C27B55"/>
<path d="M413.271 331.875C415.986 327.037 424.391 315.152 432.952 318.064C438.375 319.908 439.446 325.939 440.319 331.263C441.479 338.345 439.391 352.352 437.58 357.413C435.843 362.278 430.613 371.67 427.195 375.25C422.997 379.638 417.779 393.637 416.955 395.091C415.657 397.382 413.928 400.831 408.828 400.399C403.2 399.918 399.788 396.751 397.278 396.217C391.081 394.903 406.211 344.466 413.271 331.875Z" fill="#F0C7B1" stroke="#C27B55" stroke-width="3.825"/>
<path d="M415.225 367.302C413.638 369.464 412.141 371.505 411.65 373.313C411.48 373.926 411.476 375.21 411.508 376.247C411.532 377.091 411.731 377.762 411.916 377.746C412.102 377.73 412.208 377.036 412.186 376.186C412.171 375.533 412.171 374.826 412.206 374.273C412.549 374.585 413.019 374.851 413.636 374.851C413.995 374.851 414.395 374.766 414.837 374.553C417.024 373.516 417.779 372.084 418.442 370.822C419.012 369.734 419.513 368.795 420.826 368.162C423.218 367.022 426.823 362.853 427.624 359.617C429.785 350.847 423.861 339.887 423.013 338.384C423.441 337.311 423.861 336.315 424.234 335.467C424.715 334.385 425.336 333.085 426.068 331.734C427.507 334.613 433.956 348.223 432.08 357.404C430.313 366.056 422.417 376.216 419.678 379.527C419.169 380.144 418.854 380.757 418.984 380.907C419.114 381.053 419.651 380.692 420.163 380.073C422.936 376.736 430.909 366.541 432.743 357.574C432.881 356.884 432.974 356.178 433.031 355.454C433.419 354.766 435.908 350.177 436.563 344.034C437.395 336.223 435.468 324.763 435.096 322.647C436.028 322.564 436.701 322.955 437.168 323.406C437.734 323.96 438.127 324.544 438.296 324.461C438.466 324.379 438.35 323.669 437.827 323.067C437.111 322.245 435.879 321.436 434.005 322.113C429.471 323.749 425.859 330.09 423.628 335.126C421.688 339.5 418.718 347.576 418.189 351.824C418.047 352.959 418.278 354.565 418.525 356.263C418.791 358.126 419.063 360.057 418.803 361.201C418.398 362.977 416.785 365.172 415.225 367.302ZM426.48 330.999C427.685 328.879 429.164 326.713 430.84 325.092C431.802 327.025 437.387 339.175 433.098 353.253C432.915 343.785 427.357 332.693 426.48 330.999ZM412.352 373.374C412.853 371.739 414.32 369.734 415.746 367.789C417.355 365.598 419.016 363.332 419.463 361.396C419.755 360.094 419.471 358.085 419.193 356.142C418.966 354.575 418.739 352.954 418.866 351.934C419 350.824 419.313 349.437 419.729 347.929C421.092 349.035 426.531 354.435 421.632 366.785C421.256 367.062 420.893 367.304 420.562 367.462C419.041 368.19 418.444 369.327 417.862 370.43C417.219 371.649 416.556 372.911 414.576 373.847C413.241 374.48 412.567 373.698 412.352 373.374Z" fill="#C27B55"/>
<path d="M425.2 321.571H425.19C425.17 321.661 401.137 400.985 393.876 424.941C392.466 429.592 390.068 433.916 386.863 437.535C374.291 451.722 339.991 486.949 309.314 486.949C278.059 486.949 243.071 449.391 231.008 435.253C228.164 431.924 226.064 428.089 224.753 423.884C217.64 401.105 192.952 322.032 192.93 321.941H192.928C190.368 312.097 188.996 301.765 188.98 291.11C188.877 224.013 242.529 169.553 308.825 169.449C375.127 169.344 428.949 223.633 429.049 290.728C429.067 301.383 427.73 311.718 425.2 321.571Z" fill="#F0C7B1"/>
<path d="M372.71 187.972C400.93 209.931 419.39 246.063 419.445 286.985C419.463 297.642 418.232 307.977 415.903 317.83H415.896C415.878 317.92 393.763 397.244 387.088 421.199C385.79 425.849 383.586 430.173 380.637 433.79C369.071 447.979 337.516 483.208 309.293 483.208C280.536 483.208 248.348 445.646 237.252 431.51C234.635 428.18 232.704 424.346 231.497 420.143C224.954 397.362 202.24 318.289 202.22 318.198H202.218C199.864 308.354 198.602 298.022 198.586 287.368C198.529 246.296 217.02 209.986 245.349 187.953C211.443 209.466 188.913 247.623 188.98 291.11C188.996 301.765 190.368 312.099 192.928 321.941H192.93C192.95 322.032 217.64 401.105 224.753 423.884C226.066 428.089 228.164 431.923 231.008 435.253C243.069 449.391 278.057 486.949 309.314 486.949C339.993 486.949 374.291 451.724 386.863 437.535C390.068 433.916 392.466 429.594 393.876 424.941C401.137 400.985 425.17 321.661 425.19 321.571H425.2C427.73 311.716 429.067 301.383 429.049 290.726C428.984 247.388 406.489 209.418 372.71 187.972Z" fill="#E8B9A0"/>
<path d="M425.2 321.571H425.19C425.17 321.661 401.137 400.985 393.876 424.941C392.466 429.592 390.068 433.916 386.863 437.535C374.291 451.722 339.991 486.949 309.314 486.949C278.059 486.949 243.071 449.391 231.008 435.253C228.164 431.924 226.064 428.089 224.753 423.884C217.64 401.105 192.952 322.032 192.93 321.941H192.928C190.368 312.097 188.996 301.765 188.98 291.11C188.877 224.013 242.529 169.553 308.825 169.449C375.127 169.344 428.949 223.633 429.049 290.728C429.067 301.383 427.73 311.718 425.2 321.571Z" stroke="#C27B55" stroke-width="3.825"/>
<path d="M301.833 442.321L318.195 441.913C316.299 450.728 303.128 449.462 301.833 442.321Z" fill="url(#paint4_linear)"/>
<path d="M302.061 442.879C301.329 442.78 301.44 441.737 302.219 441.81C302.304 441.822 310.714 442.887 317.755 441.386C318.516 441.238 318.741 442.284 318.011 442.439C312.495 443.619 305.358 443.343 302.061 442.879ZM309.437 435.839C306.473 435.839 303.599 434.811 300.712 434.309C297.478 433.743 294.256 434.228 291.02 434.514C287.714 434.807 280.503 434.488 278.468 433.2C277.328 432.477 277.541 430.792 278.824 430.343C280.035 429.909 281.923 430.808 283.145 431.027C288.809 432.043 291.791 430.96 296.756 430.794C304.351 430.566 305.157 433.754 314.631 431.84C324.817 429.781 329.404 431.339 336.712 429.138C337.714 428.834 338.905 428.034 339.956 428.574C341.169 429.201 341.11 430.911 339.859 431.461C333.143 434.423 325.712 433.226 318.256 434.47C315.333 434.955 312.42 435.839 309.437 435.839Z" fill="#C27B55"/>
<path d="M262.968 323.474C271.11 324.679 277.045 329.664 282.089 337.566C282.096 337.575 282.112 337.573 282.121 337.58C282.133 337.628 282.158 337.674 282.167 337.722C282.619 339.51 280.719 340.951 278.342 342.049C269.874 343.13 261.731 344.692 253.15 343.593C235.968 341.391 235.659 333.816 234.823 331.828C234.376 329.874 234.246 329.313 234.271 327.439C238.41 325.014 241.447 324.516 244.661 323.88C248.431 323.138 256.82 322.56 262.968 323.474Z" fill="url(#paint5_radial)"/>
<path d="M268.836 336.261C267.294 341.927 261.453 345.265 255.777 343.709C250.106 342.154 246.756 336.293 248.301 330.626C249.842 324.956 255.697 321.617 261.368 323.175C267.035 324.728 270.38 330.589 268.836 336.261Z" fill="#380F0C" stroke="#0A0100" stroke-width="1.1475"/>
<path d="M257.259 327.077L256.982 326.581C256.009 326.968 255.072 327.371 254.187 327.801L254.843 329.387L254.76 330.305L252.229 328.816C251.402 329.276 250.635 329.755 249.89 330.243L249.897 330.259L249.029 331.235L250.415 332.653L248.548 333.672L249.254 334.838L252.55 335.166L249.46 337.262L252.767 337.08L251.024 340.084L255.101 337.617L254.004 341.813L256.362 337.937L256.817 342.095L257.498 338.418L258.125 338.342L259.012 342.512L259.282 341.261C259.639 341.169 260.556 342.511 260.906 342.417L259.87 337.88L262.145 342.417L261.222 337.711L264.023 341.35C264.124 341.318 264.371 339.841 264.47 339.811L262.727 337.204L265.895 338.161L263.994 336.102L262.468 334.838L268.833 336.263L265.288 334.103L267.792 333.079L262.37 332.531L267.732 329.687L262.88 330.926L261.573 330.218L261.252 329.59L261.344 328.088L261.453 325.623L259.238 329.524L259.042 326.668L258.764 325.921C258.32 326.076 257.885 326.226 257.458 326.392L257.259 327.077Z" fill="#471A16"/>
<path opacity="0.9" d="M268.957 331.233C259.653 331.658 254.923 333.647 248.179 335.903C246.88 330.172 250.483 324.477 256.219 323.188C261.955 321.9 267.66 325.501 268.957 331.233Z" fill="#290705"/>
<path opacity="0.8" d="M260.106 329.89C257.765 329.219 255.374 330.555 254.772 332.889C254.165 335.21 255.575 337.642 257.916 338.313C260.258 338.986 262.649 337.647 263.256 335.324C263.865 332.99 262.45 330.56 260.106 329.89Z" fill="black"/>
<path d="M260.106 329.89C257.765 329.219 255.374 330.555 254.772 332.889C254.165 335.21 255.575 337.642 257.916 338.313C260.258 338.986 262.649 337.647 263.256 335.324C263.865 332.99 262.45 330.56 260.106 329.89Z" stroke="#0A0100" stroke-width="1.72125"/>
<path opacity="0.4" d="M250.809 339.761C251.897 341.488 253.34 342.789 255.385 343.222C257.738 343.721 258.006 340.59 256.322 340.232C255.044 339.962 254.235 339.335 253.567 338.276C252.346 336.336 249.829 338.207 250.809 339.761Z" fill="white"/>
<path d="M260.397 328.993C262.046 329.325 263.004 330.356 263.837 331.904C265.366 334.751 269.692 332.22 268.162 329.375C266.818 326.876 264.578 324.737 261.728 324.16C258.077 323.424 257.566 328.422 260.397 328.993Z" fill="url(#paint6_linear)"/>
<path d="M224.597 332.703C230.319 352.785 237.864 374.08 255.985 374.712C274.106 375.343 295.271 361.863 295.546 335.243C295.853 305.484 276.956 293.745 258.835 293.113C240.714 292.481 216.068 302.763 224.597 332.703ZM234.825 331.828C234.378 329.874 234.248 329.313 234.273 327.439C237.871 325.291 241.443 324.693 244.658 324.058C248.426 323.316 256.821 322.558 262.969 323.474C271.11 324.679 277.045 329.664 282.089 337.566C282.096 337.575 282.112 337.573 282.121 337.58C282.133 337.628 282.158 337.674 282.167 337.722C282.62 339.509 280.719 340.95 278.342 342.049C269.875 343.13 261.732 344.692 253.15 343.593C235.968 341.391 235.659 333.816 234.825 331.828Z" fill="#F0C7B1"/>
<path d="M258.519 353.27C274.947 355.756 290.194 347.927 292.571 335.771C294.949 323.616 283.569 311.745 267.139 309.255C250.708 306.772 235.467 314.601 233.089 326.759C230.711 338.913 242.087 350.776 258.519 353.27ZM234.271 327.439C238.043 325.413 241.441 324.693 244.656 324.058C248.424 323.316 256.819 322.558 262.967 323.474C271.108 324.679 277.043 329.664 282.087 337.566C282.094 337.575 282.11 337.573 282.119 337.58C282.131 337.628 282.156 337.674 282.165 337.722C282.618 339.509 280.717 340.95 278.34 342.049C269.873 343.13 261.73 344.692 253.148 343.593C235.966 341.391 235.657 333.816 234.821 331.828C234.376 329.874 234.248 329.311 234.271 327.439Z" fill="url(#paint7_radial)"/>
<path d="M234.825 331.828C234.377 329.874 234.248 329.313 234.273 327.439C237.986 325.353 241.443 324.693 244.657 324.058C248.425 323.316 256.82 322.558 262.968 323.474C271.11 324.679 277.045 329.664 282.089 337.566C282.096 337.575 282.112 337.573 282.121 337.58C282.133 337.628 282.158 337.674 282.167 337.722C282.619 339.51 280.719 340.951 278.342 342.049C269.874 343.13 261.731 344.692 253.15 343.593C235.968 341.391 235.659 333.816 234.825 331.828Z" fill="url(#paint8_radial)"/>
<path d="M262.25 318.797C268.096 319.754 273.795 322.443 279.075 325.799C280.206 326.516 281.5 327.334 283.55 328.374C282.08 328.04 280.721 327.279 279.452 326.58C280.758 327.819 281.975 329.293 282.969 330.722C278.495 325.115 270.018 320.893 262.807 319.454C255.882 318.071 243.303 318.985 233.964 323.078C242.515 318.266 254.991 317.611 262.25 318.797Z" fill="#C27B55"/>
<path d="M282.094 337.484C277.041 329.782 271.103 324.915 262.96 323.735C254.382 322.483 242.955 323.342 236.277 327.006C235.73 327.306 233.424 329.222 233.79 327.213C235.341 325.142 241.461 322.735 244.427 322.017C277.696 313.954 284 340.283 282.094 337.484ZM234.418 331.386C233.148 335.048 235.947 343.196 252.424 344.703C264.129 345.771 280.408 341.597 278.397 341.84C269.915 342.885 261.758 344.412 253.161 343.329C233.669 340.88 235.877 331.709 234.418 331.386Z" fill="black"/>
<path d="M354.763 323.473C346.623 324.678 340.686 329.664 335.642 337.566C335.635 337.574 335.621 337.573 335.61 337.58C335.6 337.628 335.575 337.674 335.566 337.722C335.112 339.509 337.013 340.95 339.389 342.049C347.857 343.13 356 344.692 364.581 343.593C381.763 341.39 382.072 333.815 382.906 331.828C383.355 329.873 383.483 329.313 383.46 327.438C379.323 325.014 376.285 324.515 373.07 323.88C369.302 323.138 360.913 322.559 354.763 323.473Z" fill="url(#paint9_radial)"/>
<path d="M370.152 336.259C368.61 341.926 362.769 345.265 357.093 343.707C351.422 342.152 348.073 336.291 349.617 330.624C351.156 324.954 357.013 321.615 362.682 323.173C368.352 324.73 371.696 330.591 370.152 336.259Z" fill="#380F0C" stroke="#0A0100" stroke-width="1.1475"/>
<path d="M358.577 327.076L358.301 326.583C357.329 326.968 356.392 327.373 355.504 327.8L356.161 329.387L356.078 330.305L353.547 328.816C352.718 329.275 351.953 329.755 351.209 330.243L351.216 330.259L350.347 331.237L351.735 332.655L349.867 333.672L350.572 334.838L353.868 335.166L350.778 337.262L354.084 337.079L352.342 340.082L356.417 337.615L355.323 341.811L357.68 337.935L358.136 342.093L358.818 338.414L359.444 338.338L360.334 342.509L360.602 341.259C360.958 341.167 361.878 342.507 362.226 342.414L361.187 337.878L363.465 342.414L362.54 337.709L365.339 341.348C365.44 341.316 365.688 339.839 365.788 339.809L364.045 337.202L367.215 338.157L365.314 336.098L363.789 334.834L370.154 336.258L366.61 334.099L369.114 333.075L363.693 332.529L369.055 329.684L364.203 330.922L362.897 330.214L362.577 329.586L362.669 328.083L362.778 325.619L360.564 329.52L360.369 326.665L360.092 325.916C359.649 326.07 359.214 326.223 358.788 326.386L358.577 327.076Z" fill="#471A16"/>
<path opacity="0.9" d="M370.271 331.233C360.971 331.657 356.239 333.647 349.495 335.903C348.198 330.172 351.799 324.476 357.535 323.188C363.271 321.897 368.977 325.5 370.271 331.233Z" fill="#290705"/>
<path opacity="0.8" d="M361.424 329.889C359.083 329.218 356.692 330.557 356.09 332.889C355.481 335.21 356.891 337.642 359.232 338.313C361.578 338.985 363.967 337.647 364.572 335.324C365.181 332.99 363.765 330.56 361.424 329.889Z" fill="black"/>
<path d="M361.424 329.889C359.083 329.218 356.692 330.557 356.09 332.889C355.481 335.21 356.891 337.642 359.232 338.313C361.578 338.985 363.967 337.647 364.572 335.324C365.181 332.99 363.765 330.56 361.424 329.889Z" stroke="#0A0100" stroke-width="1.72125"/>
<path opacity="0.4" d="M352.127 339.761C353.213 341.488 354.658 342.789 356.701 343.222C359.054 343.721 359.324 340.592 357.638 340.231C356.36 339.962 355.549 339.337 354.883 338.275C353.664 336.336 351.146 338.206 352.127 339.761Z" fill="white"/>
<path d="M361.715 328.993C363.364 329.325 364.322 330.355 365.154 331.902C366.684 334.749 371.011 332.218 369.48 329.373C368.136 326.874 365.898 324.735 363.046 324.159C359.395 323.424 358.882 328.422 361.715 328.993Z" fill="url(#paint10_linear)"/>
<path d="M358.898 293.113C340.775 293.745 321.88 305.484 322.186 335.243C322.459 361.865 343.624 375.345 361.747 374.711C379.868 374.08 390.476 343.966 393.135 332.703C400.287 302.404 377.019 292.481 358.898 293.113ZM364.581 343.593C356 344.692 347.857 343.13 339.389 342.049C337.013 340.952 335.112 339.511 335.566 337.722C335.577 337.674 335.602 337.628 335.61 337.58C335.621 337.573 335.635 337.575 335.642 337.566C340.688 329.664 346.625 324.679 354.763 323.474C360.913 322.558 369.308 323.316 373.076 324.057C376.29 324.691 379.863 325.289 383.46 327.439C383.485 329.311 383.355 329.874 382.906 331.828C382.074 333.816 381.763 341.391 364.581 343.593Z" fill="#F0C7B1"/>
<path d="M384.644 326.759C382.266 314.601 367.023 306.772 350.592 309.255C334.162 311.745 322.782 323.616 325.162 335.771C327.539 347.927 342.786 355.756 359.214 353.27C375.646 350.776 387.022 338.913 384.644 326.759ZM382.908 331.828C382.074 333.817 381.764 341.391 364.583 343.593C356.002 344.692 347.859 343.13 339.391 342.049C337.014 340.952 335.114 339.511 335.568 337.722C335.579 337.674 335.603 337.628 335.612 337.58C335.623 337.573 335.637 337.575 335.644 337.566C340.69 329.664 346.627 324.679 354.765 323.474C360.914 322.558 369.309 323.316 373.077 324.058C376.292 324.691 379.692 325.413 383.462 327.439C383.485 329.311 383.357 329.874 382.908 331.828Z" fill="url(#paint11_radial)"/>
<path d="M382.908 331.828C383.357 329.873 383.485 329.313 383.462 327.438C379.749 325.353 376.292 324.693 373.077 324.057C369.309 323.315 360.913 322.558 354.764 323.473C346.625 324.678 340.688 329.664 335.644 337.566C335.637 337.574 335.623 337.573 335.612 337.58C335.602 337.628 335.577 337.674 335.568 337.722C335.113 339.509 337.014 340.95 339.391 342.049C347.859 343.13 356.002 344.692 364.583 343.593C381.763 341.39 382.074 333.815 382.908 331.828Z" fill="url(#paint12_radial)"/>
<path d="M355.483 318.797C349.635 319.754 343.936 322.443 338.658 325.799C337.527 326.516 336.232 327.334 334.183 328.374C335.653 328.04 337.012 327.279 338.281 326.58C336.975 327.819 335.758 329.293 334.764 330.722C339.238 325.115 347.715 320.893 354.924 319.454C361.85 318.071 374.428 318.985 383.769 323.078C375.216 318.266 362.741 317.611 355.483 318.797Z" fill="#C27B55"/>
<path d="M373.305 322.018C376.272 322.737 382.39 325.144 383.943 327.215C384.307 329.224 382.001 327.307 381.455 327.007C374.774 323.344 363.35 322.485 354.774 323.736C346.631 324.917 340.688 329.783 335.639 337.486C333.733 340.283 340.037 313.953 373.305 322.018ZM364.574 343.329C355.977 344.411 347.822 342.885 339.338 341.84C337.325 341.597 353.604 345.771 365.309 344.702C381.787 343.196 384.586 335.047 383.315 331.386C381.854 331.709 384.064 340.879 364.574 343.329Z" fill="black"/>
<path d="M390.127 392.501C390.196 437.113 354.054 473.343 309.395 473.404C264.744 473.477 228.486 437.369 228.417 392.748C228.348 348.14 264.49 311.767 309.147 311.696C353.8 311.627 390.062 347.883 390.127 392.501Z" fill="url(#paint13_radial)"/>
<path d="M383.225 274.228C383.225 315.071 350.116 348.179 309.275 348.179C268.432 348.179 235.321 315.071 235.321 274.228C235.321 233.385 268.432 200.276 309.275 200.276C350.116 200.276 383.225 233.385 383.225 274.228Z" fill="url(#paint14_radial)"/>
<path d="M219.187 318.517C232.525 285.657 291.782 315.114 292.417 302.271C292.53 299.699 290.89 298.516 288.473 298.016C260.061 292.341 223.435 289.984 219.187 318.517Z" fill="#2A232B"/>
<path d="M399.358 318.517C386.021 285.658 326.763 315.114 326.129 302.271C326.015 299.699 327.656 298.516 330.073 298.016C358.484 292.341 395.111 289.985 399.358 318.517Z" fill="#2A232B"/>
<path d="M302.45 335.167C302.45 335.167 299.415 359.282 298.055 363.976C295.064 374.285 284.675 388.743 286.69 395.277C290.723 408.34 303.04 405.023 309.519 404.975C315.513 404.928 327.03 408.342 329.394 399.834C330.158 397.088 328.437 390.146 328.437 390.146C328.437 390.146 322.702 396.897 309.185 396.149C305.328 395.934 299.053 391.602 298.981 385.493C298.888 377.213 302.89 370.232 303.764 362.013C304.424 355.77 302.45 335.167 302.45 335.167Z" fill="#E1AC8F"/>
<path d="M320.591 401.209C322.923 401.209 323.555 401.916 323.555 402.791C323.555 403.667 322.828 405.016 320.591 404.374C318.131 403.673 313.839 403.995 313.839 403.995C313.839 403.995 318.255 401.209 320.591 401.209ZM298.309 401.209C295.973 401.211 295.346 401.921 295.346 402.799C295.343 403.673 296.046 404.932 298.309 404.381C300.803 403.769 305.06 404.001 305.06 404.001C305.06 404.001 300.645 401.218 298.309 401.209ZM328.435 390.146C328.435 390.146 331.665 394.339 330.995 398.769C330.342 403.07 323.815 404.975 323.815 404.975C323.815 404.975 328.347 401.686 328.895 397.695C329.151 395.823 328.435 390.146 328.435 390.146ZM288.558 385.838C288.558 385.838 286.202 391.704 286.883 395.278C288.122 401.734 294.918 404.311 294.918 404.311C294.918 404.311 290.677 399.888 289.17 395.977C287.519 391.704 288.558 385.838 288.558 385.838Z" fill="#C27B55"/>
<path d="M320.476 393.275C322.739 391.346 322.967 390.246 322.498 389.524C322.032 388.799 320.674 388.342 318.78 390.669C316.691 393.229 312.151 395.125 312.151 395.125C312.151 395.125 318.214 395.199 320.476 393.275Z" fill="#FFE4D6"/>
<path d="M253.464 421.285C253.977 423.612 253.622 424.48 252.813 426.215C253.425 423.553 253.444 423.513 253.464 421.285ZM306.492 478.632C306.453 476.246 305.625 474.984 303.416 474.254C305.191 475.457 306.039 476.542 306.492 478.632ZM299.018 476.483C298.92 474.432 298.466 473.189 296.849 471.888C297.953 473.446 298.427 474.511 299.018 476.483ZM291.268 473.88C291.426 474.787 292.727 476.463 293.891 476.838C292.925 476.285 291.268 473.88 291.268 473.88ZM284.031 470.586C284.188 471.059 285.372 474.294 285.668 473.88C285.687 473.88 283.794 469.896 284.031 470.586ZM288.961 465.005C288.468 466.977 288.369 468.141 288.626 470.271C288.823 469.048 288.981 465.972 288.961 465.005ZM293.24 459.405C293.063 460.923 293.043 462.501 293.24 464C293.418 462.698 293.457 461.179 293.24 459.405ZM295.547 468.949C296.849 467.273 297.303 466.405 297.855 464.355C297.441 465.005 295.843 468.239 295.547 468.949ZM302.765 464.335C302.607 466.859 302.844 467.983 303.751 469.916C303.041 466.583 303.278 467.746 302.765 464.335ZM299.807 461.377C300.635 459.76 300.931 458.833 301.128 457.097C300.773 457.965 300.004 460.568 299.807 461.377ZM307.38 458.419C307.242 459.641 307.478 461.909 308.701 461.712C307.774 461.87 307.498 459.326 307.38 458.419ZM299.807 453.489C300.438 452.029 300.911 450.373 301.128 448.894C300.478 450.373 300.044 451.97 299.807 453.489ZM286.003 457.117C285.431 458.853 285.234 459.977 285.352 462.047C285.549 461.14 285.944 458.083 286.003 457.117ZM280.422 469.6C281.428 467.628 281.802 466.405 282.059 464.335C281.605 465.439 280.718 468.279 280.422 469.6ZM275.827 464.67C274.762 465.853 276.162 467.963 276.162 467.963C276.123 466.543 275.373 465.853 275.827 464.67ZM277.799 453.291C277.799 453.173 277.562 453.745 278.115 458.419C278.233 453.39 277.779 452.641 277.779 453.489C277.799 453.489 277.799 453.41 277.799 453.291ZM270.226 457.433C270.384 460.332 270.286 461.495 270.877 463.349C270.68 459.148 270.759 459.405 270.226 457.433ZM265.296 457.768C264.941 459.405 264.882 460.41 265.947 461.712C265.237 460.253 265.296 459.444 265.296 457.768ZM257.093 453.489C257.132 452.483 257.073 451.3 256.797 450.175C256.797 449.998 256.659 451.497 257.093 453.489ZM260.484 454.652L261.687 448.894C260.859 450.294 260.484 454.652 260.484 454.652ZM267.268 447.572C266.184 448.598 265.572 450.846 265.632 452.167C265.848 451.3 266.696 448.44 267.268 447.572ZM272.534 453.173C273.027 451.063 273.125 449.821 272.869 447.592C272.652 448.913 272.514 452.088 272.534 453.173ZM272.198 436.411C271.804 437.692 271.725 438.284 271.863 439.704C271.903 439.546 272.198 436.529 272.198 436.411ZM266.953 441.656C267.86 440.414 266.953 437.061 266.953 437.061C266.953 437.061 267.209 441.065 266.953 441.656ZM259.715 439.369C260.051 441.005 260.623 442.8 261.352 444.299C261.037 442.662 260.465 440.927 259.715 439.369ZM253.148 439.369C252.557 442.938 253.03 443.964 253.799 445.936C253.326 443.017 253.188 442.642 253.148 439.369ZM248.218 435.425C247.43 436.687 247.153 439.684 248.554 441.341C247.745 439.822 247.824 436.588 248.218 435.425ZM249.855 425.229C249.855 425.229 248.869 427.083 248.869 429.824C249.224 428.266 249.618 426.471 249.855 425.229ZM256.107 430.159C256.107 430.159 254.47 430.278 255.121 435.089C255.85 429.055 256.107 430.159 256.107 430.159ZM264.31 432.131C264.843 430.475 265.198 428.68 265.296 426.866C264.744 428.562 264.429 430.356 264.31 432.131ZM260.366 419.964C259.459 422.034 259.301 422.823 259.38 424.894L260.366 419.964ZM268.254 416.69C266.933 417.834 266.519 420.851 266.618 422.606C267.525 417.242 268.254 416.69 268.254 416.69ZM277.129 417.006C275.551 418.268 274.92 419.175 274.506 421.6C275.275 419.727 275.452 419.057 277.129 417.006ZM282.729 422.271C283.991 421.029 285.687 415.704 285.687 415.704C285.332 415.014 283.143 421.581 282.729 422.271ZM292.589 415.704C291.485 415.96 289.769 420.91 289.296 421.955C289.888 421.108 292.589 415.704 292.589 415.704ZM298.821 415.369C297.874 417.321 297.362 418.347 296.849 420.634C297.796 418.761 298.249 417.223 298.821 415.369ZM306.709 414.383C305.211 417.755 305.861 416.789 304.086 420.299C305.211 418.899 306.058 417.676 306.709 414.383ZM365.082 421.285C364.569 423.612 364.924 424.48 365.733 426.215C365.121 423.553 365.102 423.513 365.082 421.285ZM316.096 473.88C313.888 474.609 313.158 475.22 313.138 477.607C313.592 475.497 314.321 475.063 316.096 473.88ZM321.736 472.834C320.119 474.136 319.488 475.773 319.39 477.824C319.981 475.852 320.652 474.373 321.736 472.834ZM324.655 476.838C325.818 476.463 327.14 474.787 327.278 473.88C327.278 473.88 325.621 476.285 324.655 476.838ZM332.859 473.88C333.154 474.294 334.338 471.079 334.495 470.586C334.752 469.896 332.859 473.88 332.859 473.88ZM329.901 470.251C330.157 468.121 330.058 466.958 329.565 464.986C329.565 465.972 329.723 469.048 329.901 470.251ZM325.306 464.019C325.503 462.501 325.483 460.923 325.306 459.424C325.089 461.18 325.128 462.698 325.306 464.019ZM320.711 464.335C321.263 466.386 321.717 467.273 323.018 468.93C322.703 468.239 321.105 465.005 320.711 464.335ZM314.795 469.935C315.702 467.983 315.938 466.879 315.781 464.355C315.268 467.746 315.505 466.583 314.795 469.935ZM317.417 457.117C317.615 458.853 317.891 459.779 318.739 461.396C318.542 460.568 317.772 457.965 317.417 457.117ZM311.837 459.74C313.04 459.937 313.296 457.669 313.158 456.447C313.02 457.354 312.744 459.898 311.837 459.74ZM317.417 448.894C317.634 450.373 318.108 452.029 318.739 453.489C318.502 451.97 318.068 450.373 317.417 448.894ZM333.194 462.047C333.312 459.977 333.115 458.853 332.543 457.117C332.602 458.083 332.997 461.14 333.194 462.047ZM336.487 464.335C336.744 466.386 337.138 467.628 338.124 469.6C337.828 468.279 336.941 465.439 336.487 464.335ZM342.403 467.963C342.403 467.963 343.803 465.873 342.739 464.67C343.172 465.853 342.423 466.543 342.403 467.963ZM340.747 453.489C340.747 452.641 340.313 453.39 340.412 458.419C340.964 453.745 340.727 453.173 340.727 453.291C340.747 453.41 340.747 453.489 340.747 453.489ZM347.649 463.349C348.241 461.495 348.142 460.332 348.3 457.433C347.787 459.405 347.866 459.148 347.649 463.349ZM352.579 461.712C353.644 460.41 353.585 459.405 353.23 457.768C353.25 459.444 353.309 460.253 352.579 461.712ZM361.749 450.195C361.473 451.319 361.414 452.503 361.453 453.508C361.887 451.497 361.749 449.998 361.749 450.195ZM356.858 448.894L358.061 454.652C358.061 454.652 357.687 450.294 356.858 448.894ZM352.914 452.187C352.974 450.866 352.342 448.618 351.278 447.592C351.849 448.44 352.697 451.3 352.914 452.187ZM345.677 447.572C345.401 449.801 345.499 451.043 346.012 453.153C346.032 452.088 345.894 448.913 345.677 447.572ZM346.663 439.684C346.801 438.264 346.722 437.673 346.328 436.391C346.347 436.529 346.643 439.546 346.663 439.684ZM351.593 437.061C351.593 437.061 350.686 440.414 351.593 441.656C351.337 441.065 351.593 437.061 351.593 437.061ZM357.194 444.299C357.923 442.8 358.515 441.005 358.83 439.369C358.081 440.927 357.509 442.662 357.194 444.299ZM364.747 445.936C365.535 443.964 366.009 442.918 365.397 439.369C365.358 442.642 365.22 443.017 364.747 445.936ZM370.012 441.341C371.412 439.684 371.136 436.687 370.347 435.425C370.722 436.588 370.801 439.822 370.012 441.341ZM369.677 429.824C369.677 427.063 368.691 425.229 368.691 425.229C368.927 426.471 369.322 428.266 369.677 429.824ZM363.425 435.089C364.076 430.278 362.439 430.159 362.439 430.159C362.439 430.159 362.696 429.055 363.425 435.089ZM353.25 426.866C353.348 428.66 353.703 430.475 354.236 432.131C354.117 430.356 353.802 428.562 353.25 426.866ZM359.166 424.894C359.245 422.823 359.087 422.034 358.18 419.964L359.166 424.894ZM351.928 422.606C352.027 420.851 351.593 417.834 350.292 416.69C350.292 416.69 351.021 417.242 351.928 422.606ZM344.04 421.62C343.626 419.175 342.995 418.268 341.417 417.025C343.094 419.057 343.271 419.727 344.04 421.62ZM332.859 415.704C332.859 415.704 334.555 421.029 335.817 422.271C335.403 421.581 333.214 415.014 332.859 415.704ZM329.25 421.936C328.776 420.891 327.081 415.941 325.956 415.684C325.956 415.704 328.658 421.107 329.25 421.936ZM321.697 420.634C321.184 418.366 320.671 417.321 319.725 415.369C320.297 417.223 320.75 418.761 321.697 420.634ZM314.459 420.299C312.665 416.789 313.335 417.755 311.837 414.383C312.487 417.676 313.316 418.899 314.459 420.299ZM310.279 466.82C308.267 469.935 308.346 471.296 308.405 473.268C308.977 470.448 308.938 470.468 310.279 466.82ZM305.191 449.643C306.197 452.443 306.315 452.739 306.808 454.751C306.749 452.601 306.315 451.457 305.191 449.643ZM310.831 453.843C311.324 451.832 312.369 452.443 313.375 449.643C312.231 451.457 310.87 451.714 310.831 453.843Z" fill="#2A232B"/>
<path d="M413.758 362.191C404.759 337.668 415.172 300.059 397.577 272.236C389.563 258.901 382.595 249.737 383.871 234.223L383.146 233.978C381.446 236.644 379.213 239.539 377.732 241.393C378.574 239.241 379.947 235.946 381.189 233.459L380.535 233.03C375.437 239.09 371.059 242.198 365.036 243.876C371.544 239.301 378.74 231.339 381.889 226.926L381.355 226.366C359.033 240.728 333.702 240.924 311.355 241.099C291.187 241.249 278.661 240.793 264.119 232.341C253.625 235.82 245.363 235.376 236.281 229.117C207.856 284.23 220.485 256.641 203.492 358.807C193.624 345.653 190.757 337.288 188.422 324.755C187.804 320.758 187.201 314.591 187.576 310.527L187.451 310.399C178.672 291.132 174.529 280.161 176.615 241.945C178.163 226.09 181.61 214.187 191.551 201.719C190.24 194.945 190.114 188.116 191.005 181.585C185.799 172.066 182.216 162.268 180.819 158.768C188.092 164.335 188.694 164.657 194.762 166.572C196.15 162.752 198.173 158.957 199.469 156.977C200.055 161.391 200.52 164.373 201.842 168.662C202.291 168.77 204.431 169.35 205.115 169.534C204.723 166.923 204.364 165.712 204.419 163.371C205.545 165.938 206.496 166.534 209.763 170.522C213.38 171.281 212.512 171.168 213.597 171.168C208.333 162.919 204.782 155.619 203.881 144.516C211.084 148.62 221.164 150.965 231.688 150.965C256.416 150.965 281.717 132.404 316.82 132.404C347.239 132.404 373.558 149.281 385.216 168.498C385.204 163.54 384.993 159.439 386.782 154.343C386.782 154.343 386.989 161.649 386.989 167.343L387.77 167.416C388.993 160.906 391.572 155.356 395.832 150.115C392.049 160.287 393.489 154.856 389.257 167.276L389.943 167.644C392.765 164.018 395.077 161.454 401.813 158.056C396.946 162.933 393.225 165.727 390.923 169.177L391.517 169.687C394.388 167.084 397.376 166.098 400.415 168.478C395.522 166.7 392.633 169.817 389.277 173.754C402.33 175.905 409.411 183.436 418.589 193.504C439.714 217.862 445.277 241.643 433.819 275.356C438.621 285.734 437.882 309.127 427.164 327.982C427.16 339.045 419.591 352.695 413.758 362.191Z" fill="#2A232B"/>
<path d="M234.925 227.632C235.633 228.291 236.341 228.95 237.043 229.612C236.788 229.445 236.534 229.289 236.277 229.113C207.852 284.226 220.481 256.637 203.488 358.803C193.62 345.649 190.753 337.284 188.418 324.752C187.801 320.754 187.197 314.588 187.572 310.523L187.448 310.395C178.668 291.128 174.525 280.158 176.611 241.941C178.159 226.086 181.606 214.183 191.547 201.716C190.258 195.054 190.128 188.341 190.97 181.908C192.147 183.632 193.381 185.31 194.644 186.967C195.494 192.141 196.213 197.188 194.894 201.264C176.083 259.396 187.006 286.062 198.838 327.475C193.979 296.058 184.754 256.116 209.919 232.817C199.169 258.643 202.137 270.353 204.754 288.034C206.563 264.531 214.999 242.669 234.925 227.632ZM418.587 193.494C417.846 192.682 417.124 191.893 416.406 191.114C415.653 191.617 414.88 192.078 414.121 192.567C443.615 253.032 415.292 247.226 422.042 274.228C429.929 293.948 419.707 305.782 419.707 325.503C419.707 295.922 418.364 275.336 402.038 252.192C396.524 244.377 394.976 217.833 391.261 204.717C345.505 232.817 277.724 238.695 206.561 181.904C240.085 193.737 308.415 184.567 331.87 169.449C305.133 174.302 249.317 174.592 224.216 164.26C284.364 159.587 283.636 140.28 334.909 136.652C310.259 127.448 256.414 150.957 231.688 150.957C221.166 150.957 211.087 148.614 203.881 144.508C204.782 155.611 208.334 162.914 213.597 171.161C212.51 171.161 213.38 171.273 209.763 170.514C206.494 166.526 205.543 165.929 204.419 163.363C204.362 165.704 204.723 166.915 205.115 169.526C204.431 169.342 202.289 168.763 201.842 168.654C200.52 164.365 200.055 161.383 199.469 156.97C198.176 158.95 196.15 162.744 194.762 166.564C188.692 164.649 188.092 164.328 180.82 158.76C182.216 162.261 185.799 172.06 191.005 181.577C190.991 181.685 190.987 181.796 190.974 181.904C203.407 200.116 220.888 214.386 237.047 229.612C245.83 235.378 253.923 235.718 264.121 232.338C278.663 240.79 291.191 241.245 311.357 241.095C333.704 240.922 359.035 240.725 381.357 226.362L381.891 226.922C378.742 231.336 371.546 239.297 365.038 243.872C371.063 242.192 375.439 239.084 380.537 233.026L381.191 233.456C379.949 235.944 378.576 239.238 377.734 241.389C379.215 239.535 381.448 236.641 383.148 233.974L383.873 234.219C382.599 249.735 389.565 258.897 397.579 272.232C415.174 300.056 404.763 337.667 413.76 362.187C419.593 352.692 427.162 339.043 427.162 327.968C437.88 309.113 438.619 285.721 433.817 275.342C445.275 241.634 439.712 217.853 418.587 193.494ZM420.033 244.075C419.382 225.293 406.952 201.455 406.952 201.455C401.143 191.193 395.95 186.296 387.24 184.308C411.744 185.529 421.368 222.13 420.309 241.251C420.208 243.026 420.033 244.075 420.033 244.075ZM364.307 164.767C370.781 170.019 372.327 171.518 378.695 180.364C345.854 121.422 281.408 166.027 261.029 164.588C281.745 168.869 328.585 138.573 364.307 164.767ZM380.994 190.388C341.63 223.022 281.524 209.198 232.363 193.79C281.323 216.214 343.655 228.348 380.994 190.388ZM226.188 225.885C213.293 232.639 207.225 249.648 206.665 260.889C209.073 251.188 216.299 233.391 226.188 225.885ZM209.919 216.518C191.463 227.756 187.883 253.535 189.706 275.186C191.646 255.186 195.251 229.09 209.919 216.518ZM342.924 192.074C340.94 192.498 328.609 194.188 321.878 194.431C316.631 194.736 296.169 195.078 277.722 194.336C296.762 198.416 308.198 199.176 322.085 198.369C338.071 197.791 352.376 194.626 364.23 184.967C355.878 189.564 352.319 190.219 342.924 192.074ZM409.076 244.422C409.076 244.422 408.571 243.553 407.917 242.249C406.12 239.238 404.081 231.046 396.207 205.301C402.056 253.014 411.622 244.312 415.909 268.964C415.911 260.098 415.292 255.552 409.076 244.422Z" fill="#1B141C"/>
<path d="M423.362 302.097C424.08 295.696 423.79 298.63 423.869 294.978C424.472 282.664 417.112 272.341 421.593 257.534C425.249 246.781 427.361 245.095 425.76 226.374C425.525 223.672 424.825 216.96 423.587 214.546C425.275 217.482 426.391 222.917 426.988 226.248C430.315 245.067 427.517 247.925 423.989 258.327C419.276 274.044 428.322 280.978 423.362 302.097ZM391.261 204.717C393.464 264.608 405.609 250.697 416.339 287.054C409.055 244.17 402.316 279.724 391.261 204.717ZM207.454 235.252C189.331 258.055 191.161 274.494 195.622 308.218C195.22 274.082 191.059 261.126 207.454 235.252ZM194.445 202.672C184.044 234.854 181.766 249.378 186.759 284.088C185.835 249.289 186.055 241.608 194.445 202.672ZM234.24 228.165C215.25 241.809 205.336 266.77 204.754 288.034C207.677 267.712 218.582 242.08 234.24 228.165ZM366.176 216.24C342.411 224.99 303.728 227.333 275.486 218.847C253.476 212.428 219.109 190.858 200.623 177.294C217.381 190.635 246.909 210.438 267.527 218.265C288.949 226.27 322.521 229.243 348.54 222.692C366.778 218.109 376.23 213.779 391.261 204.719C384.57 208.387 374.713 213.574 366.176 216.24ZM314.82 144.875C338.814 140.369 367.097 155.836 381.982 174.121C366.409 151.801 340.891 140.697 325.657 140.432C300.653 139.998 274.788 161.421 224.217 163.273C271.769 165.367 294.627 148.145 314.82 144.875ZM333.665 170.175C299.57 182.289 273.242 185.188 237.415 187.095C274.417 189.373 300.87 185.783 333.665 170.175ZM369.491 177.083C348.465 186.996 339.26 188.621 295.861 191.264C323.069 192.362 348.487 190.948 369.491 177.083ZM299.902 207.226C320.892 209.665 357.661 207.018 376.064 187.923C353.839 206.646 312.724 205.975 280.657 204.701C292.931 206.616 290.716 206.297 299.902 207.226ZM389.869 188.909C404.913 194.449 408.581 220.843 414.519 242.154C411.863 223.264 407.325 193.007 389.869 188.909Z" fill="#3A353A"/>
<path d="M418.877 193.228C410.303 183.823 402.604 175.538 390.026 173.468C394.156 168.611 397.059 166.804 402.351 169.82C399.216 166.13 395.613 165.43 391.249 169.386C393.755 165.629 398.088 162.562 403.673 156.705C395.329 160.62 392.821 163.292 389.632 167.394C394.138 154.175 392.195 161.225 396.968 148.166C391.98 153.759 388.792 159.841 387.386 167.335C387.386 155.694 387.021 157.198 387.248 152.111C384.512 158.202 384.824 163.568 384.824 167.078C380.42 159.817 373.95 153.668 366.975 148.64C317.567 112.573 268.296 145.768 241.592 149.783C230.768 151.612 214.547 150.45 203.433 143.788C204.218 155.155 207.738 162.704 212.879 170.766C212.877 170.766 209.98 170.155 209.98 170.155C205.999 165.355 205.614 165.509 204.143 161.616C203.766 165.093 204.342 167.019 204.636 168.991C203.654 168.735 202.749 168.463 202.151 168.321C200.686 163.56 200.262 159.94 199.726 155.917C198.515 157.465 195.935 162.188 194.519 166.073C188.605 164.203 188.181 163.905 179.867 157.534C180.853 159.506 184.42 170.275 190.595 181.652C189.668 188.621 189.948 195.574 191.127 201.609C181.218 214.056 177.777 225.956 176.219 241.918C174.166 279.503 177.928 290.452 187.124 310.584C187.144 310.604 187.144 310.643 187.164 310.663C186.815 314.55 187.398 320.725 188.031 324.822C190.356 337.309 193.208 345.91 203.63 359.629C203.67 359.669 203.689 359.728 203.729 359.767C210.424 319.6 209.734 318.616 211.163 308.711C218.208 258.006 217.902 265.578 236.425 229.691C243.945 234.873 252.271 236.696 264.073 232.767C272.636 237.745 281.38 241.543 305.605 241.543C329.607 241.243 357.225 242.355 381.568 226.693C377.88 231.864 369.503 240.801 362.912 244.797C369.773 243.345 374.695 240.582 380.838 233.28C378.951 237.056 376.731 242.773 376.559 243.456C376.855 243.101 380.799 238.388 383.481 234.187C382.193 249.855 389.188 259.029 397.246 272.445C414.908 300.375 404.17 338.55 413.673 363.08C419.767 353.228 427.556 339.246 427.556 328.076C437.831 310.158 439.302 286.444 434.241 275.324C444.53 244.499 442.451 220.408 418.877 193.228ZM204.338 162.878C205.301 165.617 205.512 165.558 209.249 169.997C207.395 169.612 206.162 169.342 205.048 169.09C204.616 167.007 204.338 165.027 204.338 162.878ZM199.388 157.632C199.574 160.653 200.293 164.617 201.341 168.104C195.691 166.65 197.791 167.11 195.819 166.526C197.442 161.647 198.053 160.413 199.388 157.632ZM202.78 355.271C194.466 340.273 192.283 335.174 189.982 319.991C189.757 318.244 189.051 313.195 189.015 310.781C177.045 283.409 172.545 231.434 191.402 202.832C191.402 202.812 191.402 202.812 191.402 202.812C191.402 202.812 192.188 201.581 193.61 199.814C193.084 197.164 192.563 191.571 192.743 185.458C194.202 188.061 195.858 190.427 197.337 192.695C197.337 192.689 198.501 194.235 198.501 194.273C207.476 205.691 215.764 215.184 235.812 229.277C211.743 268.272 213.236 255.101 202.78 355.271ZM434.772 262.804C434.07 267.454 432.557 273.813 431.737 276.588C437.219 290.527 431.23 316.851 425.701 328.611C423.283 342.598 420.682 345.415 413.849 359.355C408.964 337.662 418.942 299.17 400.517 270.455C388.569 250.648 383.445 248.053 386.26 223.579C386.26 223.579 386.38 222.248 386.417 221.903C361.514 237.129 334.008 238.851 297.734 238.074C287.249 238.074 273.084 236.757 264.249 231.29C246.341 236.384 239.697 228.456 224.788 216.815C208.69 203.135 197.753 191.191 184.263 163.038C191.841 169.186 207.014 172.285 216.585 173.884C210.13 165.28 206.332 157.419 204.614 146.275C211.477 150.85 227.924 155.353 242.418 153.749C269.108 151.243 306.478 123.839 352.4 144.619C373.706 154.019 384.516 167.25 387.048 174.199C387.068 174.199 387.088 174.219 387.127 174.219C387.246 174.259 387.364 174.278 387.5 174.298C387.534 174.334 388.155 174.476 388.21 174.476C401.967 179.061 402.888 179.916 416.213 195.458C423.703 204.646 441.731 222.988 434.772 262.804Z" fill="black"/>
<path opacity="0.2" d="M395.293 373.029C390.639 377.367 383.008 379.024 368.552 379.024C349.266 379.024 336.645 376.874 328.303 360.27C321.815 347.373 319.192 333.529 322.347 328.756C326.706 322.17 339.248 317.693 353.249 316.372C377.565 327.928 394.643 351.1 395.293 373.029ZM254.075 315.978C239.009 316.392 224.317 320.612 218.046 329.88C213.747 336.211 214.713 354.63 217.612 363.287C221.556 375.1 227.61 379.024 249.993 379.024C269.28 379.024 281.901 376.874 290.242 360.27C291.071 358.613 291.84 356.937 292.55 355.261C286.18 339.208 272.119 324.378 254.075 315.978Z" fill="white"/>
<path opacity="0.4" d="M400.934 363.307C399.533 367.487 397.857 370.662 395.294 373.049C394.643 351.119 377.565 327.948 353.23 316.372C371.708 314.617 392.651 318.324 400.5 329.9C404.799 336.23 403.832 354.63 400.934 363.307ZM296.218 328.756C290.716 320.415 272.119 315.485 254.075 315.997C272.139 324.378 286.18 339.208 292.57 355.28C297.322 343.961 298.959 332.917 296.218 328.756Z" fill="white"/>
<path d="M411.405 320.789C391.33 310.022 340.135 306.965 321.677 321.085C320.099 322.012 313.335 320.04 309.273 320.04C305.427 320.04 298.584 322.111 296.869 321.085C278.41 306.965 227.216 310.022 207.14 320.789C204.261 322.347 203.946 329.683 206.45 330.808C208.245 331.616 209.428 332.74 209.329 334.712C208.698 345.795 211.755 360.191 213.096 364.155C214.812 369.262 217.908 378.768 231.416 381.114C242.913 383.106 263.817 384.033 274.683 380.779C294.384 374.902 302.765 345.203 303.12 335.087L303.14 335.126C303.928 331.577 314.617 331.577 315.426 335.126L315.445 335.087C315.78 345.203 324.181 374.902 343.882 380.779C354.748 384.033 375.652 383.106 387.149 381.114C400.657 378.768 403.754 369.262 405.469 364.155C406.81 360.171 409.867 345.795 409.256 334.712C409.157 332.74 410.36 331.616 412.135 330.808C414.6 329.683 414.284 322.347 411.405 320.789ZM272.612 375.514C262.634 378.492 244.373 378.689 233.743 376.835C224.79 375.277 221.043 370.406 218.559 362.972C215.64 354.295 214.871 336.329 218.874 330.433C232.205 310.752 285.667 314.558 295.39 329.289C299.728 335.895 291.307 369.933 272.612 375.514ZM399.987 362.991C397.502 370.426 393.736 375.297 384.802 376.855C374.173 378.709 355.912 378.511 345.933 375.534C327.238 369.953 318.817 335.915 323.156 329.309C332.878 314.578 386.34 310.771 399.671 330.453C403.675 336.329 402.906 354.314 399.987 362.991Z" fill="#2C2C2C"/>
<path d="M345.914 375.435C351.416 377.072 359.442 377.88 367.31 377.939C342.581 380.345 336.96 371.234 333.549 367.764C326.607 360.684 322.328 350.114 322.012 334.929C322.071 346.919 330.492 370.84 345.914 375.435ZM296.829 321.006C278.371 306.886 227.177 309.923 207.101 320.711C252.931 307.853 279.554 314.499 296.829 321.006ZM233.704 376.776C224.751 375.218 221.004 370.347 218.519 362.912C215.916 355.162 215.029 339.997 217.73 332.641C214.122 340.963 215.522 357.075 218.243 365.18C221.398 374.646 227.196 379.34 252.438 377.92C245.595 378.058 238.772 377.644 233.704 376.776ZM413.732 326.094C413.653 323.866 412.845 321.519 411.366 320.711C391.685 310.14 342.068 307.025 322.762 320.218C348.714 309.825 386.124 308.366 413.732 326.094Z" fill="#3B3B3B"/>
</g>
<defs>
<linearGradient id="paint0_linear" x1="300" y1="-75" x2="300" y2="675" gradientUnits="userSpaceOnUse">
<stop stop-color="#151371"/>
<stop offset="0.453125" stop-color="#FF00B8"/>
<stop offset="0.96875" stop-color="#FFC700"/>
</linearGradient>
<linearGradient id="paint1_linear" x1="439" y1="245" x2="439" y2="644" gradientUnits="userSpaceOnUse">
<stop stop-color="#FF00B8"/>
<stop offset="1" stop-color="#F0DB0A" stop-opacity="0"/>
</linearGradient>
<linearGradient id="paint2_linear" x1="194" y1="161" x2="194" y2="560" gradientUnits="userSpaceOnUse">
<stop stop-color="#FF00B8"/>
<stop offset="1" stop-color="#F0DB0A" stop-opacity="0"/>
</linearGradient>
<linearGradient id="paint3_linear" x1="309.273" y1="504.959" x2="309.273" y2="426.077" gradientUnits="userSpaceOnUse">
<stop stop-color="#E1AC8F" stop-opacity="0.8"/>
<stop offset="0.7" stop-color="#C27B55"/>
</linearGradient>
<linearGradient id="paint4_linear" x1="309.273" y1="447.77" x2="309.273" y2="441.853" gradientUnits="userSpaceOnUse">
<stop offset="0.1" stop-color="#E8B9A0"/>
<stop offset="1" stop-color="#E1AC8F"/>
</linearGradient>
<radialGradient id="paint5_radial" cx="0" cy="0" r="1" gradientUnits="userSpaceOnUse" gradientTransform="translate(257.249 333.917) rotate(177.797) scale(25.878 21.6932)">
<stop stop-color="white"/>
<stop offset="0.544" stop-color="#FDFEFE"/>
<stop offset="0.74" stop-color="#F6F8F9"/>
<stop offset="0.879" stop-color="#EAEFF2"/>
<stop offset="0.992" stop-color="#D9E3E8"/>
<stop offset="1" stop-color="#D8E2E7"/>
</radialGradient>
<linearGradient id="paint6_linear" x1="272.762" y1="322.794" x2="262.113" y2="333.443" gradientUnits="userSpaceOnUse">
<stop stop-color="white"/>
<stop offset="1" stop-color="white" stop-opacity="0"/>
</linearGradient>
<radialGradient id="paint7_radial" cx="0" cy="0" r="1" gradientUnits="userSpaceOnUse" gradientTransform="translate(263.005 330.377) rotate(7.8743) scale(30.1735 22.5821)">
<stop stop-color="#E1AC8F"/>
<stop offset="0.7" stop-color="#E1AC8F" stop-opacity="0.3"/>
<stop offset="1" stop-color="#F0C7B1" stop-opacity="0"/>
</radialGradient>
<radialGradient id="paint8_radial" cx="0" cy="0" r="1" gradientUnits="userSpaceOnUse" gradientTransform="translate(254.619 351.844) rotate(-4.77486) scale(33.5652 28.8178)">
<stop offset="0.95" stop-opacity="0"/>
<stop offset="1" stop-opacity="0.2"/>
</radialGradient>
<radialGradient id="paint9_radial" cx="0" cy="0" r="1" gradientUnits="userSpaceOnUse" gradientTransform="translate(360.486 333.917) rotate(2.203) scale(25.8761 21.6916)">
<stop stop-color="white"/>
<stop offset="0.544" stop-color="#FDFEFE"/>
<stop offset="0.74" stop-color="#F6F8F9"/>
<stop offset="0.879" stop-color="#EAEFF2"/>
<stop offset="0.992" stop-color="#D9E3E8"/>
<stop offset="1" stop-color="#D8E2E7"/>
</radialGradient>
<linearGradient id="paint10_linear" x1="370.529" y1="322.794" x2="359.88" y2="333.443" gradientUnits="userSpaceOnUse">
<stop stop-color="white"/>
<stop offset="1" stop-color="white" stop-opacity="0"/>
</linearGradient>
<radialGradient id="paint11_radial" cx="0" cy="0" r="1" gradientUnits="userSpaceOnUse" gradientTransform="translate(354.728 330.377) rotate(172.126) scale(30.1717 22.5808)">
<stop stop-color="#E1AC8F"/>
<stop offset="0.7" stop-color="#E1AC8F" stop-opacity="0.3"/>
<stop offset="1" stop-color="#F0C7B1" stop-opacity="0"/>
</radialGradient>
<radialGradient id="paint12_radial" cx="0" cy="0" r="1" gradientUnits="userSpaceOnUse" gradientTransform="translate(363.115 351.844) rotate(-175.225) scale(33.5652 28.8178)">
<stop offset="0.95" stop-opacity="0"/>
<stop offset="1" stop-opacity="0.2"/>
</radialGradient>
<radialGradient id="paint13_radial" cx="0" cy="0" r="1" gradientUnits="userSpaceOnUse" gradientTransform="translate(309.273 392.552) scale(80.854)">
<stop stop-color="#FFE4D6" stop-opacity="0.5"/>
<stop offset="0.9" stop-color="#F0C7B1" stop-opacity="0"/>
</radialGradient>
<radialGradient id="paint14_radial" cx="0" cy="0" r="1" gradientUnits="userSpaceOnUse" gradientTransform="translate(309.273 274.23) scale(72.9658)">
<stop stop-color="#FFE4D6" stop-opacity="0.5"/>
<stop offset="0.9" stop-color="#F0C7B1" stop-opacity="0"/>
</radialGradient>
<clipPath id="clip0">
<rect width="600" height="600" fill="white"/>
</clipPath>
</defs>
</svg>
