<svg width="600" height="600" viewBox="0 0 600 600" fill="none" xmlns="http://www.w3.org/2000/svg">
<g clip-path="url(#clip0)">
<path d="M675 675H-75V-75H675V675Z" fill="url(#paint0_linear)"/>
<path d="M360.996 403.874H308.184V356.576H360.996V403.874ZM414.113 320.069H340.054V380.225H414.113V320.069ZM377.082 441.95H442.881V362.639H377.082V441.95ZM400.757 434.192H334.59V491.191H400.757V434.192ZM580.44 284.416H490.23V387.501H580.44V284.416ZM478.458 331.108H456.605V356.576H478.458V331.108ZM544.531 252.277H456.605V304.426H544.531V252.277ZM442.881 270.468H395.532V335.958H442.881V270.468ZM334.59 275.32H308.184V303.213H334.59V275.32ZM299.325 320.069H258.501V382.71H299.325V320.069V320.069ZM347.338 441.95H275.708V521.511H347.338V441.95ZM308.184 576.086H388.617V528.788H308.184V576.086ZM500.311 557.894H443.791V599.129H500.313V557.894H500.311ZM637.361 516.659H585.062V578.511H637.361V516.659ZM551.302 544.718H506.381V585.953H551.302V544.718ZM594.357 463.296H528.843V537.278H594.357V463.296ZM610.791 590.639H528.843V644H610.791V590.639ZM340.054 557.894H251.187V637.937H340.052V557.894H340.054ZM630.216 356.576H569.818V403.874H630.216V356.576ZM594.357 424.49H568.208V451.477H594.357V424.49ZM251.187 474.697H300.975V404.294H251.187V474.697ZM321.764 249.852L232 252.277V320.069H321.764V249.852ZM646 252.277H587.725V326.256H646V252.277ZM371.858 245H347.338V298.361H371.858V245ZM641.143 437.983H581.281V486.494H641.143V437.983Z" fill="url(#paint1_linear)" stroke="#FFC700" stroke-width="1.5"/>
<path d="M115.996 319.874H63.1843V272.576H115.996V319.874ZM169.113 236.069H95.0537V296.225H169.113V236.069ZM132.082 357.95H197.881V278.639H132.082V357.95ZM155.757 350.192H89.5904V407.191H155.757V350.192ZM335.44 200.416H245.23V303.501H335.44V200.416ZM233.458 247.108H211.605V272.576H233.458V247.108ZM299.531 168.277H211.605V220.426H299.531V168.277ZM197.881 186.468H150.532V251.958H197.881V186.468ZM89.5904 191.32H63.1843V219.213H89.5904V191.32ZM54.3246 236.069H13.5008V298.71H54.3246V236.069V236.069ZM102.338 357.95H30.7084V437.511H102.338V357.95ZM63.1843 492.086H143.617V444.788H63.1843V492.086ZM255.311 473.894H198.791V515.129H255.313V473.894H255.311ZM392.361 432.659H340.062V494.511H392.361V432.659ZM306.302 460.718H261.381V501.953H306.302V460.718ZM349.357 379.296H283.843V453.278H349.357V379.296ZM365.791 506.639H283.843V560H365.791V506.639ZM95.0537 473.894H6.18721V553.937H95.0519V473.894H95.0537ZM385.216 272.576H324.818V319.874H385.216V272.576ZM349.357 340.49H323.208V367.477H349.357V340.49ZM6.18721 390.697H55.9745V320.294H6.18721V390.697ZM76.7643 165.852L-13 168.277V236.069H76.7643V165.852ZM401 168.277H342.725V242.256H401V168.277ZM126.858 161H102.338V214.361H126.858V161ZM396.143 353.983H336.281V402.494H396.143V353.983Z" fill="url(#paint2_linear)" stroke="#FFC700" stroke-width="1.5"/>
<rect x="504" y="328.706" width="8.86149" height="25.1423" fill="white"/>
<rect x="521.753" y="328.857" width="8.83104" height="25.1423" fill="white"/>
<rect x="512.861" y="320" width="8.89195" height="8.85765" fill="white"/>
<rect x="539.416" y="328.857" width="8.89195" height="25.1423" fill="white"/>
<rect x="530.584" y="320" width="8.83105" height="8.85765" fill="white"/>
<rect x="548.308" y="320" width="8.86149" height="8.85765" fill="white"/>
<rect x="557.169" y="327.792" width="8.83104" height="8.85766" fill="white"/>
<rect x="548.308" y="336.65" width="8.86149" height="8.82721" fill="white"/>
<rect x="40" y="390.425" width="7.57515" height="21.4449" fill="white"/>
<rect x="55.1763" y="390.555" width="7.54912" height="21.4449" fill="white"/>
<rect x="47.5752" y="383" width="7.60118" height="7.55506" fill="white"/>
<rect x="70.2744" y="390.555" width="7.60118" height="21.4449" fill="white"/>
<rect x="62.7256" y="383" width="7.54912" height="7.55506" fill="white"/>
<rect x="77.876" y="383" width="7.57515" height="7.55506" fill="white"/>
<rect x="85.4507" y="389.646" width="7.54912" height="7.55506" fill="white"/>
<rect x="77.876" y="397.202" width="7.57515" height="7.52909" fill="white"/>
<path d="M303.012 353.608H300.833V351.429H303.012V353.608Z" fill="#2A232B"/>
<path d="M509.884 569.985C505.098 559.641 492.023 544.313 477.497 540.078C459.54 534.841 419.005 528.509 403.975 524.989C391.927 522.165 367.66 500.374 359.156 493.059C357.63 491.752 356.381 489.051 356.351 487.044C356.048 463.366 365.494 400.465 365.494 400.465H301.922H238.353C238.353 400.465 247.799 463.364 247.491 487.044C247.467 489.051 246.212 491.752 244.691 493.059C236.186 500.374 211.92 522.165 199.871 524.989C184.839 528.509 144.305 535.056 126.35 540.294C111.819 544.526 98.7487 559.639 93.9625 569.983C85.8809 587.436 83.9717 619.022 83.9717 646.266H301.922H519.873C519.873 619.024 517.961 587.439 509.884 569.985Z" fill="#875732"/>
<path d="M430.853 535.723C483.907 543.443 506.234 554.702 513.225 646.27H519.873C519.873 619.026 517.962 587.441 509.884 569.987C505.098 559.643 492.023 544.315 477.497 540.08C459.54 534.843 419.005 528.511 403.976 524.991C391.927 522.167 364.217 498.687 356.805 489.356C364.128 499.609 384.683 523.368 402.692 529.59C411.307 532.567 418.482 533.923 430.853 535.723ZM201.155 529.59C219.164 523.37 239.717 499.609 247.043 489.356C239.632 498.685 211.922 522.167 199.871 524.991C184.842 528.511 144.307 535.059 126.35 540.296C111.824 544.528 98.749 559.641 93.9628 569.985C85.8855 587.439 83.9741 619.024 83.9741 646.268H90.6216C97.5699 555.286 119.99 543.432 172.994 535.721C185.363 533.923 192.54 532.567 201.155 529.59Z" fill="#966947"/>
<path d="M292.433 565.282C292.433 565.282 281.374 561.775 276.995 560.097C254.222 551.359 180.236 545.697 180.236 545.697C180.236 545.697 258.162 548.789 275.359 551.754C274.36 541.364 268.783 508.155 268.783 508.155C268.783 508.155 280.005 544.803 282.752 554.049C284.221 558.992 292.433 565.282 292.433 565.282ZM315.969 562.357C315.775 562.516 315.553 562.723 315.311 562.941C315.557 562.756 315.78 562.562 315.969 562.357ZM292.433 565.282C292.433 565.282 298.738 571.803 301.907 571.886C306.07 571.997 312.43 565.567 315.313 562.941C312.556 565.027 306.249 565.973 303.74 566.071C300.841 566.182 292.433 565.282 292.433 565.282ZM338.242 548.894C334.874 549.435 328.682 550.614 328.682 550.614L333.667 518.161C332.259 524.854 323.916 553.493 315.969 562.357C320.132 558.835 329.391 557.146 334.112 556.464C356.421 553.229 356.412 553.231 423.606 545.697C423.606 545.697 360.246 545.359 338.242 548.894Z" fill="#784620"/>
<path d="M509.884 569.985C505.098 559.641 492.023 544.313 477.497 540.078C459.54 534.841 419.005 528.509 403.975 524.989C391.927 522.165 367.66 500.374 359.156 493.059C357.63 491.752 356.381 489.051 356.351 487.044C356.048 463.366 365.494 400.465 365.494 400.465H301.922H238.353C238.353 400.465 247.799 463.364 247.491 487.044C247.467 489.051 246.212 491.752 244.691 493.059C236.186 500.374 211.92 522.165 199.871 524.989C184.839 528.509 144.305 535.056 126.35 540.294C111.819 544.526 98.7487 559.639 93.9625 569.983C85.8809 587.436 83.9717 619.022 83.9717 646.266H301.922H519.873C519.873 619.024 517.961 587.439 509.884 569.985Z" stroke="#592A06" stroke-width="3.825"/>
<path d="M322.706 506.96C332.396 503.338 343.679 494.616 354.727 483.923C355.019 466.762 358.927 435.667 361.547 416.561C327.27 412.603 276.572 412.616 242.302 416.589C244.919 435.695 248.823 466.755 249.113 483.908C260.165 494.607 271.455 503.338 281.149 506.963C290.898 510.607 312.957 510.607 322.706 506.96Z" fill="url(#paint3_linear)"/>
<path d="M364.816 653.242H238.106V530.791C286.6 541.033 318.486 540.244 364.818 530.791V653.242H364.816Z" fill="#F3F1F3"/>
<path d="M318.138 652.656C312.09 652.656 294.759 653.109 282.15 652.155L282.128 651.782C280.346 611.117 284.589 584.83 292.017 566.153L292.121 565.885L291.919 565.683C289.946 563.712 286.633 561.465 283.127 559.09C279.615 556.707 275.989 554.249 273.676 552.015C275.038 550.42 276.717 548.846 278.794 547.218C279.328 546.945 281.326 545.381 291.814 536.384C292.281 535.983 292.566 535.738 292.603 535.708C294.386 535.32 297.263 535.069 300.75 535.069C305.508 535.069 311.061 535.551 314.943 536.296C318.345 539.474 322.464 547.911 324.005 551.923C321.878 556.917 319.367 558.743 315.904 561.26C314.217 562.488 312.304 563.878 310.124 565.864L309.943 566.027L309.989 566.269C318.764 610.535 318.766 620.874 318.766 630.874C318.768 635.279 318.768 645.278 319.505 652.636C319.178 652.651 318.714 652.656 318.138 652.656Z" fill="#131111"/>
<path d="M324.48 551.932C322.837 547.584 318.574 539.008 315.152 535.893C308.884 534.666 297.753 534.056 292.332 535.37C292.097 535.562 278.715 547.102 278.58 546.834C276.605 548.377 274.683 550.112 273.087 552.043C277.579 556.568 287.592 561.973 291.613 565.992C283.658 586 279.996 613.048 281.696 651.821C281.718 652.061 281.718 652.322 281.74 652.562C296.465 653.695 317.811 653.283 319.99 653.048C317.462 628.404 323.124 630.261 310.422 566.188C317.109 560.096 321.244 559.658 324.48 551.932ZM313.038 593.43C312.992 593.321 312.951 593.212 312.927 593.146C317.286 616.14 315.934 633.755 319.228 651.932C308.905 651.239 293.043 651.819 282.675 651.819C283.479 636.131 285.264 582.763 293.006 565.205C293.376 565.105 293.745 565.022 294.115 564.933L291.866 640.64L297.853 564.214C297.897 564.209 297.94 564.203 297.984 564.196L301.909 635.259L302.818 563.915C302.875 563.917 302.929 563.913 302.986 563.915L312.138 643.151L307.125 564.39C307.809 564.527 308.496 564.697 309.178 564.898C309.243 564.898 309.33 564.92 309.396 564.963C309.622 567.147 311.436 583.276 313.038 593.43ZM311.118 563.333C305.072 560.606 297.249 561.097 291.221 563.856C287.557 559.905 282.329 557.15 274.809 552.106C276.008 551.062 277.555 549.774 279.626 548.161C279.8 548.161 287.211 542.122 287.341 541.993C289.347 540.163 291.134 538.092 292.834 536.283C299.22 536.022 308.592 536.327 314.236 536.588C317.506 540.677 320.625 546.823 322.976 551.714C318.702 557.971 314.474 560.759 311.118 563.333Z" fill="black"/>
<path d="M254.4 598.97C229.262 511.636 240.615 534.499 233.915 500.195C238.335 489.705 242.542 477.441 244.904 474.917L245.078 474.73C250.074 527.053 264.602 504.45 296.916 535.15C278.445 547.473 261.322 579.464 254.4 598.97ZM369.907 500.197C366.752 492.129 361.022 480.305 358.541 477.681C361.645 522.749 325.531 513.754 305.47 534.784C324.676 547.236 342.899 579.813 349.435 598.981C378.03 504.142 362.621 545.782 369.907 500.197Z" fill="#F3F1F4"/>
<path d="M358.156 476.678C358.156 487.874 357.24 496.647 355.405 499.212C350.08 511.873 326.847 520.687 319.683 524.298C314.245 526.973 308.912 530.421 304.797 534.869C313.107 540.265 317.231 542.242 332.978 566.341C342.232 581.835 347.23 593.471 349.457 600.428C378.615 503.809 363.018 545.989 370.359 500.149C366.902 491.244 360.335 478.679 358.156 476.678ZM366.106 519.24C361.841 558.641 358.498 550.81 349.237 593.737C343.317 574.898 325.099 543.798 306.889 534.692C315.47 528.248 317.854 527.868 328.094 523.187C359.47 509.194 360.754 496.194 358.907 479.006C361.538 482.107 365.718 492.434 369.134 499.757C367.262 506.614 366.412 516.404 366.106 519.24ZM256.586 509.216C246.979 501.263 249.699 491.427 245.277 473.875C243.311 476.055 238.42 488.33 233.464 500.149C234.678 506.243 234.948 516.254 235.12 519.416C236.339 546.011 238.934 547.238 254.365 600.407C260.971 580.998 279.556 547.292 298.479 535.002C283.372 521.214 264.358 515.979 256.586 509.216ZM268.486 564.813C263.646 572.803 258.642 581.116 254.603 593.757C244.922 549.581 241.528 556.784 237.755 519.305C237.058 512.83 236.411 506.169 234.704 499.777C238.274 491.957 243.381 477.369 245.015 475.813C247.992 491.24 245.159 505.154 257.371 512.854C263.083 517.204 281.572 524.449 295.556 535.433C287.075 540.468 282.511 543.434 268.486 564.813Z" fill="#CFC8D7"/>
<path d="M346.208 591.881L343.573 586.096C343.573 586.096 363.511 524.689 366.987 507.144C368.975 525.351 346.208 591.881 346.208 591.881ZM255.889 589.476L259.019 582.374C259.019 582.374 240.334 524.689 236.858 507.144C234.87 525.351 255.889 589.476 255.889 589.476Z" fill="#E1E0E1"/>
<path d="M355.946 560.89C371.344 515.482 361.953 511.74 369.688 496.662C369.98 496.093 372.73 498.942 373.029 500.236C375.875 512.568 489.303 538.025 492.889 540.771C496.062 543.077 505.203 547.608 505.203 547.608C515.963 567.376 522.12 570.924 525.145 623.856C525.429 630.575 525.012 649.576 525.012 654.676L338.536 653.203C338.983 636.222 341.151 605.668 355.946 560.89ZM247.899 560.89C232.501 515.482 241.892 511.74 234.157 496.662C233.865 496.093 231.115 498.942 230.816 500.236C227.97 512.568 114.542 538.025 110.957 540.771C107.783 543.077 98.6423 547.608 98.6423 547.608C87.8821 567.376 81.725 570.924 78.6999 623.856C78.4165 630.575 78.8328 649.576 78.8328 654.676L265.309 653.203C264.862 636.222 262.694 605.668 247.899 560.89Z" fill="#00A7C3"/>
<path d="M367.977 548.674C358.056 584.39 344.501 616.491 338.54 653.203C336.6 653.188 341.79 603.739 355.946 560.892C371.344 515.484 361.952 511.742 369.688 496.664C369.855 496.338 368.338 500.971 369.202 501.965C368.883 518.806 373.029 531.831 367.977 548.674ZM235.868 548.674C245.789 584.39 259.344 616.491 265.305 653.203C267.244 653.188 262.055 603.739 247.899 560.892C232.501 515.484 241.892 511.742 234.157 496.664C233.989 496.338 235.506 500.971 234.643 501.965C234.961 518.806 230.816 531.831 235.868 548.674Z" fill="#009AB4"/>
<path d="M416.207 540.023C416.207 540.023 411.229 545.605 397.385 555.112C408.964 542.286 414.3 537.133 414.3 537.133L416.207 540.023ZM420.947 565.905L417.617 562.926C407.726 592.961 401.116 607.795 389.658 642.735C406.101 611.511 410.024 600.426 420.947 565.905ZM189.545 537.133C189.545 537.133 194.878 542.286 206.46 555.112C192.616 545.605 187.638 540.023 187.638 540.023L189.545 537.133ZM214.186 642.735C202.729 607.795 196.118 592.961 186.228 562.926L182.897 565.905C193.821 600.426 197.744 611.511 214.186 642.735Z" fill="#008DA4"/>
<path d="M474.995 612.61C474.995 587.336 481.773 572.614 495.951 551.274C497.276 552.085 497.98 552.458 498.882 553.181C483.807 571.888 480.812 589.341 474.995 612.61ZM391.962 637.386C405.286 600.982 409.529 586.761 418.35 562.438C415.843 561.673 399.451 555.932 396.949 555.145C397.843 557.325 403.734 559.116 413.997 565.408C413.997 565.41 402.906 598.981 391.962 637.386ZM409.88 536.855C409.88 536.855 402.574 545.878 395.356 555.006C402.74 549.186 407.884 542.704 414.298 537.134C405.593 529.793 391.389 518.555 382.213 510.786C389.458 518.571 409.88 536.855 409.88 536.855ZM524.391 654.672L525.015 654.676C525.015 649.576 525.429 630.575 525.148 623.856C522.12 570.925 515.963 567.376 505.205 547.608C505.205 547.608 496.064 543.077 492.891 540.771C489.983 538.546 408.339 519.146 378.489 506.161C413.385 530.072 479.36 538.912 498.884 553.181C508.326 560.084 521.039 619.153 524.391 654.672ZM104.924 553.114C106.105 552.279 106.273 552.316 107.469 551.525C121.647 572.864 128.848 587.336 128.848 612.608C123.033 589.341 119.019 571.162 104.924 553.114ZM189.848 565.41C200.111 559.118 206.003 557.327 206.896 555.147C204.394 555.932 188.002 561.675 185.496 562.44C194.318 586.763 198.56 600.984 211.883 637.389C200.94 598.981 189.848 565.41 189.848 565.41ZM221.63 510.786C212.454 518.553 198.25 529.793 189.545 537.134C195.959 542.707 201.105 549.186 208.487 555.006C201.267 545.878 193.963 536.855 193.963 536.855C193.963 536.855 214.387 518.571 221.63 510.786ZM104.963 553.181C124.487 538.912 190.463 530.07 225.359 506.161C195.508 519.146 113.864 538.544 110.957 540.771C107.783 543.077 98.6423 547.608 98.6423 547.608C87.8821 567.376 81.725 570.925 78.6999 623.856C78.4165 630.575 78.8328 649.576 78.8328 654.676L79.4561 654.672C82.806 619.153 95.5191 560.084 104.963 553.181Z" fill="#15B7D2"/>
<path d="M372.203 497.181C372.096 496.542 371.237 495.799 370.594 495.749C369.949 495.699 369.653 496.747 369.358 497.322C361.623 512.4 370.261 515.484 354.862 560.892C340.068 605.67 338.333 636.874 337.891 653.854L525.016 654.676C525.016 649.576 526.082 630.575 525.799 623.856C522.772 570.924 516.399 566.942 505.638 547.172C505.638 547.172 496.062 542.423 492.888 540.119C482.233 531.963 491.602 540.169 444.874 527.042C406.567 515.85 404.499 512.708 390.606 508.843C387.799 508.039 381.764 507.052 375.459 502.629C374.881 502.226 372.41 498.423 372.203 497.181ZM338.917 651.786C347.045 600.428 352.18 586.989 363.537 548.752C371.213 524.551 366.972 510.811 370.629 499.626C370.821 499.042 371.647 499.012 371.874 499.589C377.178 513.133 392.008 516.275 412.922 536.743C400.253 549.413 396.992 552.828 395.356 555.007C397.239 555.962 407.522 559.865 416.933 563.507C416.399 565.179 387.695 646.372 387.357 647.462C409.152 600.433 411.968 585.976 418.349 562.439C416.58 561.106 401.149 555.439 398.538 554.506C407.853 544.864 410.547 542.745 414.949 537.133C418.484 537.133 380.352 508.107 378.486 506.16C379.493 506.954 384.484 509.192 385.046 509.41C417.046 520.669 391.727 515.576 461.765 535.566C468.461 537.268 477.795 538.981 484.715 539.661C485.19 539.705 496.474 545.605 502.914 548.314C487.246 564.606 477.202 585.656 474.995 612.61C482.01 585.004 485.785 570.567 503.633 549.798C520.241 583.411 518.356 578.557 523.75 653.783C478.826 652.011 409.936 651.605 338.917 651.786ZM228.388 502.632C222.081 507.052 216.048 508.039 213.24 508.845C199.348 512.708 197.28 515.853 158.973 527.044C112.244 540.171 121.612 531.966 110.958 540.121C107.785 542.427 98.2083 547.174 98.2083 547.174C87.4481 566.942 81.0752 570.924 78.0479 623.858C77.7646 630.577 78.8304 649.578 78.8304 654.678L265.956 653.857C265.514 636.876 263.779 605.672 248.984 560.894C233.586 515.486 242.221 512.402 234.488 497.325C234.192 496.749 233.898 495.701 233.253 495.751C232.61 495.801 231.751 496.544 231.644 497.183C231.435 498.423 228.963 502.226 228.388 502.632ZM80.0945 653.783C85.4909 578.557 83.6035 583.411 100.211 549.798C118.057 570.567 121.834 585.004 128.85 612.61C126.642 585.656 116.601 564.606 100.931 548.314C107.371 545.605 118.654 539.705 119.129 539.661C126.049 538.981 135.384 537.268 142.08 535.566C212.118 515.576 186.801 520.669 218.798 509.41C219.36 509.19 224.352 506.954 225.358 506.16C223.493 508.107 185.358 537.133 188.895 537.133C193.3 542.745 195.992 544.864 205.307 554.506C202.696 555.439 187.265 561.103 185.495 562.439C191.877 585.976 194.693 600.433 216.488 647.462C216.15 646.372 187.446 565.179 186.912 563.507C196.323 559.863 206.606 555.96 208.489 555.007C206.852 552.828 203.592 549.413 190.922 536.743C211.837 516.275 226.666 513.133 231.971 499.589C232.198 499.009 233.024 499.042 233.216 499.626C236.873 510.811 232.629 524.551 240.308 548.752C251.665 586.989 256.8 600.428 264.927 651.786C193.908 651.605 125.018 652.011 80.0945 653.783Z" fill="#008095"/>
<path d="M187.149 314.39C184.146 309.148 166.655 299.842 161.311 300.221C152.094 300.873 150.115 311.705 149.442 316.89C148.114 327.125 150.847 338.685 152.678 345.662C154.175 351.361 158.942 362.178 161.863 367.202C164.471 371.696 170.897 379.825 174.358 383.603C177.405 386.935 184.667 392.998 190.155 391.518C196.19 389.897 203.264 382.92 203.753 379.941C206.383 363.791 194.965 328.027 187.149 314.39Z" fill="#875732" stroke="#592A06" stroke-width="3.825"/>
<path d="M177.479 351.167C177.169 349.894 177.494 347.747 177.808 345.672C178.093 343.781 178.364 341.998 178.2 340.736C177.581 336.009 174.085 327.027 171.801 322.158C169.173 316.561 164.921 309.51 159.592 307.688C157.388 306.934 155.074 306.55 154.917 307.163C153.585 311.398 153.69 323.163 154.455 331.874C156.606 356.376 177.067 374.026 180.33 377.742C180.931 378.426 181.563 378.834 181.718 378.67C181.875 378.505 181.5 377.825 180.901 377.136C177.682 373.448 162.78 358.209 160.697 348.589C158.491 338.378 167.235 321.593 168.926 318.392C169.792 319.895 170.522 321.338 171.086 322.541C171.531 323.487 172.021 324.592 172.525 325.787C171.531 327.458 164.557 339.648 167.1 349.404C168.039 353.002 172.285 357.638 175.099 358.911C176.646 359.61 177.23 360.657 177.904 361.864C178.686 363.27 179.571 364.859 182.145 366.012C182.668 366.247 183.141 366.341 183.56 366.341C184.285 366.341 184.837 366.046 185.244 365.698C185.286 366.312 184.484 371.19 184.466 371.916C184.44 372.855 184.564 373.631 184.785 373.651C185.005 373.668 185.236 372.923 185.266 371.981C185.301 370.828 186.092 365.31 185.896 364.632C185.321 362.62 183.557 360.351 181.69 357.945C179.857 355.585 177.956 353.137 177.479 351.167ZM159.008 342.527C153.96 326.87 162.181 313.15 163.316 311.003C165.291 312.803 167.03 315.214 168.447 317.574C167.416 319.455 159.221 331.996 159.008 342.527ZM182.457 365.227C180.127 364.183 179.347 362.786 178.59 361.43C177.908 360.205 177.202 358.939 175.413 358.128C175.023 357.95 174.595 357.684 174.157 357.374C168.39 343.635 174.787 337.63 176.391 336.396C176.884 338.077 177.25 339.618 177.411 340.854C177.557 341.989 177.285 343.792 177.021 345.535C176.696 347.697 176.356 349.933 176.707 351.378C177.228 353.534 179.185 356.056 181.077 358.49C182.758 360.654 184.482 362.882 185.07 364.7C184.819 365.066 184.022 365.933 182.457 365.227Z" fill="#592A06"/>
<path d="M416.123 314.39C419.125 309.148 436.615 299.842 441.961 300.221C451.179 300.873 453.158 311.705 453.829 316.89C455.156 327.125 452.423 338.685 450.594 345.662C449.095 351.361 444.328 362.178 441.408 367.202C438.799 371.696 432.374 379.825 428.915 383.603C425.868 386.935 418.606 392.998 413.118 391.518C407.081 389.897 400.006 382.92 399.522 379.941C396.891 363.791 408.31 328.027 416.123 314.39Z" fill="#875732" stroke="#592A06" stroke-width="3.825"/>
<path d="M421.58 357.948C419.717 360.354 417.949 362.625 417.374 364.634C417.178 365.314 417.969 370.831 418.004 371.984C418.034 372.925 418.263 373.668 418.486 373.653C418.708 373.634 418.83 372.858 418.804 371.918C418.782 371.193 417.982 366.317 418.026 365.7C418.435 366.049 418.982 366.343 419.706 366.343C420.127 366.343 420.6 366.249 421.123 366.014C423.699 364.859 424.584 363.27 425.362 361.866C426.04 360.657 426.622 359.613 428.167 358.913C430.981 357.64 435.228 353.005 436.166 349.406C438.711 339.651 431.739 327.459 430.743 325.789C431.244 324.595 431.739 323.488 432.182 322.544C432.748 321.341 433.476 319.898 434.339 318.394C436.033 321.596 444.777 338.38 442.571 348.591C440.49 358.214 425.586 373.45 422.367 377.138C421.768 377.827 421.393 378.507 421.55 378.673C421.707 378.836 422.337 378.431 422.938 377.744C426.203 374.028 446.662 356.378 448.816 331.876C449.578 323.165 449.679 311.4 448.351 307.165C448.194 306.553 445.878 306.939 443.676 307.69C438.347 309.513 434.095 316.563 431.462 322.16C429.18 327.029 425.687 336.009 425.063 340.738C424.898 342 425.17 343.783 425.456 345.675C425.772 347.748 426.094 349.894 425.783 351.169C425.318 353.138 423.416 355.585 421.58 357.948ZM434.825 317.572C436.242 315.212 437.983 312.804 439.958 311.001C441.091 313.15 449.31 326.868 444.267 342.526C444.049 331.996 435.858 319.455 434.825 317.572ZM418.202 364.702C418.793 362.884 420.519 360.657 422.195 358.493C424.089 356.056 426.044 353.536 426.567 351.381C426.916 349.936 426.58 347.7 426.251 345.538C425.987 343.794 425.715 341.992 425.863 340.856C426.024 339.62 426.391 338.081 426.881 336.399C428.485 337.633 434.884 343.637 429.115 357.377C428.677 357.686 428.252 357.952 427.86 358.131C426.072 358.942 425.364 360.208 424.684 361.433C423.926 362.788 423.147 364.185 420.815 365.229C419.253 365.933 418.453 365.066 418.202 364.702Z" fill="#592A06"/>
<path d="M397.828 409.852C382.855 433.491 347.543 475.955 322.705 485.183C312.954 488.807 290.897 488.807 281.149 485.183C256.311 475.952 221.003 433.487 206.028 409.852C191.309 386.625 173.657 304.611 173.634 304.493C170.8 293.68 169.283 282.332 169.266 270.628C169.15 196.932 228.448 137.116 301.719 137C374.996 136.885 434.479 196.514 434.588 270.209C434.607 281.913 433.13 293.266 430.333 304.088C430.296 304.203 412.597 386.532 397.828 409.852Z" fill="#875732"/>
<path d="M324.048 138.879C382.881 152.616 426.696 205.668 426.598 269.013C426.578 280.715 425.064 292.065 422.23 302.876C422.204 302.993 406.152 385.008 391.434 408.235C376.456 431.87 342.746 472.722 317.91 481.953C314.693 483.149 306.954 484.357 301.926 484.357C296.898 484.357 289.161 483.149 285.944 481.953C261.106 472.722 227.396 431.87 212.42 408.235C197.702 385.008 181.648 302.993 181.624 302.876C178.79 292.065 177.274 280.715 177.256 269.013C177.158 205.668 220.968 152.616 279.806 138.879C216.986 149.487 169.161 204.445 169.264 270.628C169.281 282.33 170.798 293.678 173.632 304.493C173.658 304.611 191.307 386.625 206.026 409.852C221.001 433.489 256.311 475.952 281.147 485.183C286.026 486.998 293.982 487.9 301.932 487.894C309.879 487.896 317.825 486.998 322.703 485.183C347.541 475.952 382.849 433.487 397.826 409.852C412.545 386.625 430.196 304.611 430.218 304.493C433.051 293.68 434.568 282.332 434.586 270.628C434.693 204.445 386.868 149.487 324.048 138.879Z" fill="#7F4E29"/>
<path d="M397.828 409.852C382.855 433.491 347.543 475.955 322.705 485.183C312.954 488.807 290.897 488.807 281.149 485.183C256.311 475.952 221.003 433.487 206.028 409.852C191.309 386.625 173.657 304.611 173.634 304.493C170.8 293.68 169.283 282.332 169.266 270.628C169.15 196.932 228.448 137.116 301.719 137C374.996 136.885 434.479 196.514 434.588 270.209C434.607 281.913 433.13 293.266 430.333 304.088C430.296 304.203 412.597 386.532 397.828 409.852Z" stroke="#592A06" stroke-width="3.825"/>
<path d="M301.886 448.785C294.824 448.785 291.526 442.682 291.526 442.682C291.526 442.682 301.981 444.382 311.75 442.536C311.75 442.536 308.095 448.785 301.886 448.785Z" fill="url(#paint4_linear)"/>
<path d="M301.637 436.865C283.172 436.865 274.944 431.181 267.817 423.788H335.458C329.541 431.355 320.904 436.865 301.637 436.865Z" fill="white"/>
<path d="M301.637 436.865C283.172 436.865 274.944 431.181 267.817 423.788H335.458C329.541 431.355 320.904 436.865 301.637 436.865Z" stroke="#592A06" stroke-width="1.9125"/>
<path d="M218.561 314.427C217.458 309.447 229.875 305.768 246.264 307.778C262.65 309.789 274.027 319.817 272.532 324.874C271.704 327.677 249.344 331.946 241.467 331.079C233.482 330.196 221.224 326.452 218.561 314.427Z" fill="url(#paint5_radial)"/>
<path d="M258.877 318.191C258.877 325.412 253.02 331.266 245.8 331.266C238.579 331.266 232.723 325.412 232.723 318.191C232.723 310.964 238.579 305.112 245.8 305.112C253.02 305.112 258.877 310.966 258.877 318.191Z" fill="#7B5C33"/>
<path d="M238.197 324.304C240.104 324.147 238.415 323.637 238.415 323.637C237.472 323.13 235.695 322.347 235.695 321.63C235.695 319.383 238.777 318.799 235.621 317.914C232.343 314.906 238.165 314.967 238.121 314.867C235.996 309.689 238.773 312.533 239.941 311.003C244.274 305.338 241.148 311.585 243.5 311.003C244.352 310.794 241.8 307.666 243.574 308.104C244.749 308.392 245.017 309.368 245.017 309.368C245.874 309.2 247.214 307.882 247.214 307.882C248.846 308.374 249.993 310.693 249.487 310.26C250.289 310.162 251.414 309.778 252.29 309.516C252.29 309.516 252.443 308.996 252.593 309.445C254.592 315.244 259.75 314.828 253.811 316.506C253.811 316.506 253.428 316.506 254.644 317.469C260.55 322.186 250.063 320.728 255.627 322.896C255.854 322.67 252.292 325 252.292 325.645C252.292 326.737 250.021 329.607 248.051 328.478C246.952 327.85 246.785 329.786 246.139 328.892C244.873 327.142 242.343 328.816 243.278 327.208C244.66 326.072 241.852 327.652 241.308 327.652C239.503 327.652 243.668 321.587 249.795 326.094C251.586 327.406 247.911 322.971 251.157 322.971C251.481 323.077 251.383 321.835 251.383 321.484C249.696 321.155 254.413 321.478 254.413 318.734C254.711 318.792 255.522 317.971 250.849 318.734C250.849 318.734 250.701 317.099 250.775 316.803C251.015 315.848 253.421 316.153 252.746 315.168C252.746 315.166 251.004 311.672 251.004 311.672C245.396 310.77 248.602 310.207 245.096 310.929C244.93 311.753 237.587 315.253 237.82 316.877C238.038 318.407 242.43 318.921 238.274 321.632C244.503 333.559 233.675 321.36 238.197 324.304Z" fill="#8A6D47"/>
<path d="M245.8 306.747L246.173 316.321L250.176 307.618L246.857 316.604L253.89 310.099L247.384 317.13L256.373 313.81L247.672 317.818L257.244 318.189L247.672 318.559L256.373 322.568L247.384 319.248L253.89 326.279L246.857 319.773L250.176 328.76L246.173 320.057L245.8 329.631L245.427 320.057L241.421 328.76L244.738 319.773L237.707 326.279L244.213 319.248L235.225 322.568L243.925 318.559L234.357 318.189L243.925 317.818L235.225 313.81L244.213 317.13L237.707 310.099L244.738 316.604L241.421 307.618L245.427 316.321L245.8 306.747Z" fill="#5C3D14"/>
<path d="M247.534 309.619L246.36 316.844L250.677 310.935L246.828 317.162L253.083 313.353L247.144 317.633L254.378 316.511L247.255 318.191L254.374 319.922L247.144 318.749L253.055 323.069L246.826 319.222L250.636 325.475L246.355 319.536L247.48 326.77L245.799 319.643L244.067 326.757L245.242 319.531L240.917 325.44L244.771 319.213L238.518 323.023L244.457 318.742L237.223 319.867L244.348 318.187L237.234 316.458L244.459 317.629L238.548 313.309L244.777 317.156L240.97 310.903L245.25 316.842L244.126 309.61L245.808 316.737L247.534 309.619Z" fill="#4D3009"/>
<path opacity="0.9" d="M250.703 318.191C250.703 320.9 248.506 323.095 245.799 323.095C243.092 323.095 240.896 320.9 240.896 318.191C240.896 315.482 243.092 313.287 245.799 313.287C248.506 313.287 250.703 315.482 250.703 318.191Z" fill="black"/>
<path opacity="0.7" d="M240.649 327.587C239.928 328.31 238.502 328.055 237.467 327.018C236.43 325.983 236.175 324.557 236.898 323.834C237.62 323.112 239.045 323.367 240.08 324.402C241.118 325.44 241.373 326.863 240.649 327.587Z" fill="white"/>
<path opacity="0.9" d="M256.275 315.615C255.194 316.696 252.576 315.833 250.429 313.684C248.28 311.535 247.417 308.917 248.498 307.836C249.579 306.755 252.197 307.618 254.344 309.767C256.493 311.918 257.356 314.534 256.275 315.615Z" fill="white"/>
<path d="M200.126 315.467C201.889 339.221 225.489 366.866 244.819 363.93C267.699 364.161 290.292 346.782 290.292 315.316C290.292 283.851 279.205 257.499 244.246 257.499C219.181 257.496 200.126 284.001 200.126 315.467ZM218.56 314.427C217.457 309.447 229.874 305.768 246.264 307.778C262.649 309.789 274.026 319.817 272.531 324.874C271.703 327.676 249.344 331.946 241.467 331.079C233.481 330.196 221.224 326.452 218.56 314.427Z" fill="#875732"/>
<path d="M241.466 331.079C249.343 331.946 271.703 327.676 272.531 324.874C274.028 319.817 262.649 309.789 246.264 307.777C232.184 306.051 221.062 308.527 218.898 312.415C220.855 298.467 235.68 287.576 253.741 287.495C273.163 287.414 288.936 299.866 288.988 315.316C289.034 330.765 273.329 343.349 253.909 343.436C234.483 343.517 218.712 331.065 218.66 315.617C218.66 315.388 218.695 315.164 218.702 314.935C221.6 326.545 233.596 330.209 241.466 331.079Z" fill="url(#paint6_radial)"/>
<path d="M218.561 314.427C217.458 309.447 229.875 305.768 246.264 307.778C262.65 309.789 274.027 319.817 272.532 324.874C271.704 327.677 249.344 331.946 241.467 331.079C233.482 330.196 221.224 326.452 218.561 314.427Z" fill="url(#paint7_radial)"/>
<path d="M219.423 303.299C228.595 298.988 239.802 298.591 249.583 301.108C254.823 302.331 260.405 303.909 264.977 306.858C269.216 309.332 272.66 312.307 275.879 315.99C272.954 312.283 269.835 309.194 265.803 306.684C260.843 303.597 255.409 301.684 249.753 300.328C239.758 297.874 228.564 298.432 219.423 303.299Z" fill="#592A06"/>
<path d="M220.777 304.613C222.695 303.846 229.637 302.433 232.668 302.289C236.345 302.111 243.725 302.562 247.347 303.213C254.701 304.539 267.51 308.625 272.8 318.871C274.426 322.02 272.961 324.224 272.532 324.701C273.185 319.414 261.987 309.998 246.264 308.128C229.874 306.18 217.458 309.748 218.56 314.575C221.224 326.231 233.481 329.86 241.467 330.714C250.401 331.671 266.932 327.36 269.116 326.894C264.759 329.093 252.718 331.46 247.829 331.913C246.207 332.066 242.947 332.14 241.321 332.098C228.355 331.754 219.158 325.179 215.758 316.275C213.574 310.552 215.963 306.535 220.777 304.613Z" fill="black"/>
<path d="M384.414 314.427C385.517 309.447 373.1 305.768 356.71 307.777C340.325 309.789 328.948 319.817 330.443 324.873C331.271 327.676 353.631 331.946 361.507 331.078C369.493 330.196 381.751 326.451 384.414 314.427Z" fill="url(#paint8_radial)"/>
<path d="M371.121 318.189C371.121 325.416 365.272 331.266 358.044 331.266C350.817 331.266 344.967 325.416 344.967 318.189C344.967 310.962 350.817 305.112 358.044 305.112C365.272 305.112 371.121 310.962 371.121 318.189Z" fill="#7B5C33"/>
<path d="M350.433 324.307C352.349 324.141 350.662 323.642 350.662 323.642C349.716 323.132 347.929 322.352 347.929 321.624C347.929 319.377 351.019 318.801 347.879 317.908C344.583 314.906 350.407 314.97 350.357 314.867C348.236 309.682 351.022 312.531 352.196 310.999C356.512 305.341 353.397 311.587 355.747 310.999C356.59 310.794 354.036 307.666 355.823 308.1C356.998 308.394 357.253 309.364 357.253 309.364C358.12 309.198 359.45 307.882 359.45 307.882C361.084 308.368 362.233 310.691 361.723 310.258C362.54 310.155 363.665 309.771 364.532 309.516C364.532 309.516 364.685 308.993 364.84 309.44C366.832 315.238 371.991 314.83 366.067 316.502C366.067 316.502 365.683 316.502 366.884 317.459C372.784 322.184 362.311 320.715 367.88 322.886C368.109 322.668 364.534 324.993 364.534 325.645C364.534 326.73 362.261 329.603 360.295 328.467C359.197 327.842 359.018 329.784 358.38 328.888C357.129 327.138 354.574 328.812 355.518 327.203C356.898 326.068 354.088 327.65 353.552 327.65C351.739 327.65 355.901 321.584 362.032 326.092C363.82 327.395 360.143 322.962 363.412 322.962C363.719 323.064 363.641 321.826 363.641 321.48C361.93 321.148 366.655 321.467 366.655 318.721C366.962 318.784 367.78 317.966 363.105 318.721C363.105 318.721 362.952 317.086 363.028 316.792C363.257 315.835 365.659 316.14 364.994 315.157L363.257 311.659C357.639 310.765 360.855 310.203 357.331 310.918C357.179 311.748 349.823 315.246 350.052 316.868C350.281 318.4 354.674 318.912 350.512 321.619C356.741 333.565 345.913 321.356 350.433 324.307Z" fill="#8A6D47"/>
<path d="M358.044 306.747L358.428 316.325L362.412 307.616L359.092 316.607L366.141 310.094L359.628 317.132L368.619 313.813L359.91 317.823L369.489 318.193L359.91 318.564L368.619 322.574L359.628 319.255L366.141 326.292L359.092 319.78L362.412 328.77L358.428 320.061L358.044 329.631L357.66 320.052L353.65 328.762L356.969 319.771L349.945 326.284L356.457 319.246L347.467 322.565L356.176 318.555L346.597 318.185L356.176 317.814L347.467 313.804L356.457 317.123L349.945 310.086L356.969 316.598L353.65 307.607L357.66 316.317L358.044 306.747Z" fill="#5C3D14"/>
<path d="M359.781 309.619L358.606 316.846L362.922 310.933L359.064 317.164L365.321 313.346L359.395 317.637L366.622 316.513L359.495 318.186L366.622 319.924L359.395 318.749L365.295 323.064L359.064 319.22L362.869 325.477L358.604 319.538L359.729 326.765L358.044 319.645L356.307 326.758L357.482 319.531L353.166 325.444L357.024 319.213L350.766 323.032L356.693 318.74L349.465 319.865L356.592 318.191L349.465 316.454L356.693 317.629L350.793 313.313L357.024 317.158L353.218 310.9L357.484 316.84L356.359 309.612L358.044 316.739L359.781 309.619Z" fill="#4D3009"/>
<path opacity="0.9" d="M362.948 318.189C362.948 320.896 360.751 323.093 358.044 323.093C355.337 323.093 353.14 320.896 353.14 318.189C353.14 315.482 355.337 313.285 358.044 313.285C360.751 313.285 362.948 315.482 362.948 318.189Z" fill="black"/>
<path opacity="0.7" d="M352.886 327.589C352.171 328.304 350.741 328.062 349.719 327.014C348.673 325.979 348.415 324.562 349.156 323.834C349.871 323.119 351.301 323.374 352.323 324.409C353.369 325.442 353.627 326.861 352.886 327.589Z" fill="white"/>
<path opacity="0.9" d="M368.517 315.608C367.444 316.694 364.814 315.837 362.667 313.679C360.522 311.535 359.653 308.915 360.751 307.843C361.823 306.757 364.43 307.614 366.575 309.771C368.745 311.918 369.589 314.536 368.517 315.608Z" fill="white"/>
<path d="M358.726 257.496C323.767 257.496 312.68 283.848 312.68 315.314C312.68 346.78 335.272 364.161 358.153 363.928C377.483 366.864 401.083 339.219 402.846 315.464C402.848 284.001 383.79 257.496 358.726 257.496ZM361.507 331.078C353.63 331.946 331.271 327.676 330.443 324.873C328.945 319.817 340.325 309.789 356.71 307.777C373.1 305.768 385.517 309.449 384.414 314.427C381.75 326.451 369.493 330.196 361.507 331.078Z" fill="#875732"/>
<path d="M361.507 331.079C353.63 331.946 331.271 327.676 330.442 324.874C328.945 319.817 340.324 309.789 356.71 307.777C370.789 306.051 381.911 308.529 384.076 312.415C382.118 298.467 367.293 287.576 349.232 287.495C329.81 287.414 314.037 299.866 313.985 315.316C313.939 330.765 329.645 343.349 349.064 343.436C368.49 343.517 384.261 331.065 384.313 315.617C384.313 315.388 384.278 315.164 384.272 314.935C381.371 326.545 369.375 330.209 361.507 331.079Z" fill="url(#paint9_radial)"/>
<path d="M384.414 314.427C385.517 309.447 373.1 305.768 356.71 307.777C340.325 309.789 328.948 319.817 330.443 324.873C331.271 327.676 353.631 331.946 361.507 331.078C369.493 330.196 381.751 326.451 384.414 314.427Z" fill="url(#paint10_radial)"/>
<path d="M383.548 303.298C374.377 298.987 363.17 298.591 353.388 301.108C348.149 302.331 342.567 303.909 337.995 306.857C333.756 309.331 330.312 312.306 327.093 315.989C330.018 312.282 333.137 309.194 337.169 306.683C342.129 303.597 347.563 301.683 353.218 300.328C363.216 297.873 374.41 298.431 383.548 303.298Z" fill="#592A06"/>
<path d="M382.197 304.613C380.279 303.846 373.338 302.433 370.306 302.289C366.629 302.111 359.249 302.562 355.627 303.213C348.273 304.539 335.464 308.625 330.175 318.871C328.549 322.02 330.013 324.224 330.443 324.701C329.789 319.414 340.987 309.998 356.71 308.128C373.1 306.18 385.517 309.748 384.414 314.575C381.75 326.231 369.493 329.86 361.507 330.714C352.573 331.671 336.042 327.36 333.858 326.894C338.215 329.093 350.257 331.46 355.145 331.913C356.767 332.066 360.027 332.14 361.653 332.098C374.619 331.754 383.817 325.179 387.217 316.275C389.4 310.552 387.012 306.535 382.197 304.613Z" fill="black"/>
<path d="M391.282 382.975C391.358 432.28 351.414 472.321 302.057 472.389C252.709 472.47 212.636 432.563 212.56 383.247C212.484 333.947 252.428 293.748 301.783 293.67C351.133 293.593 391.21 333.663 391.282 382.975Z" fill="url(#paint11_radial)"/>
<path d="M383.654 252.259C383.654 297.399 347.062 333.99 301.925 333.99C256.785 333.99 220.191 297.399 220.191 252.259C220.191 207.119 256.785 170.527 301.925 170.527C347.062 170.527 383.654 207.119 383.654 252.259Z" fill="url(#paint12_radial)"/>
<path d="M198.369 295.568C214.661 275.118 242.696 278.52 265.668 281.807C271.511 282.643 277.527 283.271 283.257 284.718C287.363 285.754 290.591 290.433 287.291 294.212C285.748 296.01 282.38 295.677 280.301 295.633C252.794 295.078 221.701 279.259 198.369 295.568Z" fill="#2A232B"/>
<path d="M405.616 294.74C400.9 291.584 395.909 289.356 390.266 288.443C369.567 285.087 330.142 298.883 319.778 295.962C313.432 294.171 314.715 287.813 317.523 286.246C319.212 285.302 319.68 285.326 334.76 282.733C360.385 278.33 389.076 274.83 405.616 294.74Z" fill="#2A232B"/>
<path d="M295.016 327.506C295.016 327.506 291.966 351.736 290.6 356.452C287.594 366.809 277.157 381.336 279.181 387.9C283.233 401.025 295.608 397.693 302.119 397.645C308.141 397.597 319.712 401.028 322.087 392.48C322.854 389.72 321.126 382.746 321.126 382.746C321.126 382.746 315.363 389.529 301.783 388.777C297.908 388.561 291.602 384.208 291.531 378.071C291.437 369.752 295.458 362.738 296.336 354.48C296.999 348.207 295.016 327.506 295.016 327.506Z" fill="#784620"/>
<path d="M313.243 393.861C315.586 393.861 316.22 394.572 316.22 395.45C316.22 396.331 315.49 397.686 313.243 397.041C310.771 396.337 306.458 396.66 306.458 396.66C306.458 396.66 310.896 393.861 313.243 393.861ZM290.855 393.861C288.508 393.864 287.878 394.576 287.878 395.459C287.876 396.337 288.582 397.601 290.855 397.048C293.362 396.433 297.638 396.666 297.638 396.666C297.638 396.666 293.202 393.87 290.855 393.861ZM321.124 382.746C321.124 382.746 324.369 386.959 323.696 391.41C323.04 395.731 316.482 397.645 316.482 397.645C316.482 397.645 321.035 394.341 321.586 390.331C321.843 388.45 321.124 382.746 321.124 382.746ZM281.058 378.417C281.058 378.417 278.691 384.311 279.376 387.903C280.62 394.389 287.449 396.978 287.449 396.978C287.449 396.978 283.188 392.534 281.673 388.604C280.014 384.311 281.058 378.417 281.058 378.417Z" fill="#592A06"/>
<path d="M313.127 385.889C315.4 383.951 315.629 382.846 315.158 382.12C314.69 381.392 313.325 380.933 311.423 383.271C309.324 385.843 304.762 387.748 304.762 387.748C304.762 387.748 310.854 387.822 313.127 385.889Z" fill="#966947"/>
<path d="M412.597 327.977C405.906 331.791 401.046 334.407 396.992 337.24C372.298 353.695 369.792 392.207 365.52 428.496C352.552 405.633 354.557 401.732 337.492 398.266C316.547 393.689 309.572 391.684 301.922 401.797C295.994 395.782 293.836 392.578 279.517 395.694C254.017 400.729 252.752 400.075 245.146 416.4C244.601 417.686 238.978 427.276 238.324 428.518C237.082 419.843 238.433 419.56 234.881 400.446C231.132 380.678 229.541 365.094 219.755 349.642C210.296 336.499 189.721 326.648 179.652 323.27C179.652 339.856 181.243 364.637 181.548 367.819C185.362 406.745 200.553 467.509 227.666 493.031C250.333 513.497 275.572 512.102 302.009 512.102C315.631 512.102 341.371 513.039 357.042 505.433C378.336 497.194 393.091 473.939 401.504 452.71C416.15 416.901 424.192 381.07 424.192 323.27C416.455 326.19 414.951 326.517 412.597 327.977ZM310.618 457.483C310.88 455.98 311.686 453.778 312.013 453.19C314.323 448.286 324.959 433.792 326.202 432.724C312.1 436.931 295.514 437.41 278.144 433.313C282.285 438.26 292.071 451.054 293.226 457.483C277.839 450.792 257.678 447.763 259.77 431.242C260.882 419.168 274.744 418.623 283.876 418.034C320.448 417.337 342.526 415.506 344.096 431.242C346.079 447.719 326.289 450.814 310.618 457.483Z" fill="#171717"/>
<path d="M424.192 323.27C424.192 381.07 416.15 416.901 401.504 452.71C393.091 473.939 378.336 497.194 357.042 505.433C341.371 513.039 315.631 512.102 302.009 512.102C275.572 512.102 250.333 513.497 227.666 493.031C200.553 467.509 185.362 406.745 181.548 367.819C181.243 364.615 179.652 339.856 179.652 323.27C181.81 323.989 184.469 325.035 187.367 326.321C201.796 391.423 205.457 481.676 277.948 507.263C275.768 502.904 269.23 494.186 269.23 494.186C269.23 494.186 282.307 502.904 288.845 507.263C288.845 505.084 286.709 496.627 286.709 496.627C286.709 496.627 297.127 504.103 303.666 506.283C303.666 504.103 301.486 497.39 301.486 497.39L312.885 504.909L330.256 489.827C330.256 489.827 324.807 501.27 322.627 505.629C330.474 503.515 343.289 494.077 343.289 494.077C343.289 494.077 341.153 500.725 341.153 502.904C404.817 467.095 404.926 391.314 414.406 326.996C416.172 326.168 418.482 325.427 424.192 323.27ZM278.144 433.313C278.754 434.032 279.473 434.926 280.28 435.95C294.25 444.799 310.073 444.428 323.456 436.124C324.829 434.315 325.875 433.008 326.224 432.724C312.1 436.931 295.493 437.388 278.144 433.313ZM303.535 500.354C302.663 498.72 301.443 496.606 301.094 494.775C301.094 494.753 300.44 492.072 300.44 492.072C300.396 491.876 299.612 486.514 299.764 486.514C299.655 483.572 299.241 479.693 299.023 477.491C297.345 492.312 299.699 495.865 303.535 500.354ZM311.425 444.799C311.403 444.799 311.447 445.017 311.359 445.387C310.684 448.526 305.518 454.868 305.039 458.748C304.864 452.296 311.098 446.978 311.425 444.799ZM356.693 436.953C359.788 444.058 357.303 449.027 353.969 456.023C356.693 446.15 358.153 443.665 356.693 436.953ZM344.706 415.702C347.866 420.475 349.021 421.347 352.879 435.863C349.283 427.908 348.912 425.684 344.706 415.702ZM347.975 409.709C352.29 413.261 355.255 416.487 358.328 428.235C354.426 419.516 351.833 414.395 347.975 409.709ZM310.379 493.62C311.577 480.673 315.413 473.416 324 463.651C317.68 473.546 313.648 482.482 310.379 493.62ZM324 488.716C328.643 481.502 333.721 470.059 343.071 467.466C339.715 469.078 338.102 470.909 335.051 474.593C335.051 474.593 333.394 476.532 330.953 480.129C329.21 482.657 326.18 486.558 324 488.716ZM333.263 497.979C338.538 489.74 338.189 487.277 343.616 482.177C338.56 489.173 338.887 492.29 333.263 497.979ZM329.449 471.28C332.195 462.518 336.489 454.585 345.251 450.03C338.603 455.151 333.46 463.869 329.449 471.28ZM307.109 477.23C305.017 470.887 306.325 465.308 307.654 458.726C307.284 467.226 306.303 471.65 307.109 477.23ZM371.405 466.376C365.193 474.789 359.396 478.755 351.789 481.632C358.96 477.404 362.055 474.614 371.405 466.376ZM380.668 440.767C377.311 456.699 364.975 466.703 350.699 474.549C365.738 462.257 371.339 455.195 371.339 455.195C374.456 451.664 378.314 446.237 380.668 440.767ZM367.591 454.389C367.482 440.701 369.835 432.506 377.398 420.606C372.691 432.267 369.356 444.472 367.591 454.389ZM394.29 398.266C394.181 404.064 394.333 414.896 379.033 435.863C379.077 435.754 389.538 412.847 389.407 412.847C392.35 405.982 393.091 403.279 394.29 398.266ZM377.398 409.709C377.071 397.656 380.145 395.368 385.027 381.92C382.564 394.692 379.425 396.893 377.398 409.709ZM403.552 354.676C401.002 369.889 398.017 373.681 387.751 396.087C392.088 377.496 396.643 372.657 403.552 354.676ZM249.876 456.023C246.367 448.853 244.165 444.319 247.151 436.953C246.584 439.524 246.105 440.701 247.173 446.564C247.173 446.586 249.876 456.023 249.876 456.023ZM250.965 435.863C254.235 422.154 257.003 419.015 259.138 415.702C253.406 428.91 256.109 424.813 250.965 435.863ZM245.517 428.235C248.023 417.904 250.987 413.915 255.869 409.709C251.379 415.005 249.026 420.693 245.517 428.235ZM279.844 463.651C289.368 473.982 292.158 482.199 293.466 493.62C290.371 482.33 286.404 474.462 279.844 463.651ZM260.773 467.466C263.89 468.294 266.701 469.754 269.905 473.655C269.905 473.655 272.76 476.75 277.773 485.359C278.885 487.299 279.844 488.716 279.844 488.716C277.032 485.839 268.728 474.614 268.772 474.614C264.849 469.928 263.606 468.86 260.773 467.466ZM258.049 482.177C263.977 487.779 263.41 490.459 268.401 497.979C262.953 492.486 262.887 488.912 258.049 482.177ZM258.594 450.03C262.713 452.144 265.219 454.367 266.68 456.415C266.68 456.415 267.682 457.723 268.619 459.053C271.954 464.24 272.63 465.809 274.395 471.28C272.804 468.294 271.954 466.637 267.508 459.816C266.571 458.53 265.612 457.265 265.612 457.265C262.974 453.604 260.577 451.555 258.594 450.03ZM296.19 458.748C297.65 466.31 297.084 468.381 295.645 472.914C296.495 467.575 296.43 468.228 296.19 458.748ZM295.1 445.671C297.28 447.196 299.786 449.332 301.377 454.171C301.377 454.171 304.298 461.189 302.184 471.345C302.336 468.119 301.857 452.907 295.1 445.671ZM252.055 481.632C243.62 478.777 237.866 473.459 232.439 466.376C239.61 472.849 244.231 476.925 252.055 481.632ZM253.145 474.549C238.956 466.681 226.773 457.004 223.177 440.767C225.225 445.649 227.754 449.986 232.483 455.217C232.483 455.217 238.368 462.06 253.145 474.549ZM226.446 420.606C233.006 430.915 236.384 439.306 236.254 454.389C234.314 443.513 230.805 431.395 226.446 420.606ZM224.811 435.863C216.398 424.595 209.947 412.52 209.555 398.266C212.279 410.319 216.965 417.991 224.811 435.863ZM218.818 381.92C224.092 396.109 226.773 398.397 226.446 409.709C224.789 397.307 221.28 395.673 218.818 381.92ZM216.093 396.087C207.833 378.106 203.103 371.48 200.292 354.676C207.942 374.619 211.974 378.476 216.093 396.087Z" fill="#080707"/>
<path d="M412.597 327.977C405.906 331.791 401.046 334.407 396.992 337.24C372.298 353.695 369.792 392.207 365.52 428.496C352.552 405.633 354.557 401.732 337.492 398.266C316.547 393.689 309.572 391.684 301.922 401.797C295.994 395.782 293.836 392.578 279.517 395.694C254.017 400.729 252.752 400.075 245.146 416.4C244.601 417.686 238.978 427.276 238.324 428.518C237.082 419.843 238.433 419.56 234.881 400.446C231.132 380.678 229.541 365.094 219.755 349.642C210.296 336.499 189.721 326.648 179.652 323.27C179.652 339.856 181.243 364.637 181.548 367.819C185.362 406.745 200.553 467.509 227.666 493.031C250.333 513.497 275.572 512.102 302.009 512.102C315.631 512.102 341.371 513.039 357.042 505.433C378.336 497.194 393.091 473.939 401.504 452.71C416.15 416.901 424.192 381.07 424.192 323.27C416.455 326.19 414.951 326.517 412.597 327.977ZM381.997 481.175C371.623 496.976 348.237 507.351 338.494 507.917C335.116 508.288 319.118 511.121 282.132 509.552C275.768 509.508 257.504 507.634 248.023 502.665C211.124 487.255 194.189 425.14 186.626 385.647C184.381 375.076 181.548 347.44 180.262 324.12C194.734 330.44 212.279 341.468 220.3 355.701C227.252 369.017 228.887 384.71 232.679 401.056C237.496 422.241 235.098 415.702 237.801 429.499C237.888 429.847 237.954 430.196 238.041 430.523C258.158 399.225 248.132 403.977 279.887 397.438C289.717 395.041 295.144 394.561 301.922 402.669C310.357 392.687 315.609 395.542 337.099 400.053C354.121 403.824 350.024 406.396 363.973 427.624C364.517 428.452 365.629 430.218 365.803 430.545C367.046 425.576 367.656 417.533 369.073 409.905C369.487 407.725 376.548 374.183 379.077 366.62C385.724 345.631 396.186 340.052 413.229 329.111C415.474 327.52 417.501 326.888 423.604 324.098C420.465 375.033 412.096 439.328 381.997 481.175ZM323.739 416.443C313.081 416.269 311.054 417.315 283.919 416.378C275.681 416.509 267.464 416.64 262.146 421.827C255.782 427.646 252.469 444.821 274.722 452.405C281.892 454.672 292.463 457.941 294.207 458.682C294.207 451.621 281.74 436.299 279.757 434.054C299.786 439.067 317.767 436.233 324.633 433.465C321.581 436.778 309.638 451.773 309.638 458.682C328.708 452.318 339.606 450.727 344.488 440.963C349.108 432.572 346.689 416.073 323.739 416.443ZM310.618 457.483C310.88 455.98 311.686 453.778 312.013 453.19C314.323 448.286 324.959 433.792 326.202 432.724C312.1 436.931 295.514 437.41 278.144 433.313C282.285 438.26 292.071 451.054 293.226 457.483C277.839 450.792 257.678 447.763 259.77 431.242C260.882 419.168 274.744 418.623 283.876 418.034C320.448 417.337 342.526 415.506 344.096 431.242C346.079 447.719 326.289 450.814 310.618 457.483Z" fill="black"/>
<path d="M251.423 454.606C254.365 439.437 243.642 437.672 247.478 413.479C247.783 411.321 248.742 406.657 249.658 403.911C252.818 395.825 277.446 392.687 284.116 393.144C291.417 393.733 296.408 397.111 301.922 401.949C312.318 392.926 318.421 390.616 339.693 395.781C353.794 399.421 354.666 401.993 356.366 413.501C360.093 437.933 349.632 438.914 352.356 454.846C350.612 456.437 348.629 457.374 346.646 457.374C344.728 457.374 342.984 456.481 341.611 454.802C338.363 450.836 337.622 443.077 339.54 433.53C342.831 415.746 339.976 424.747 315.217 419.647C309.899 418.492 305.649 416.901 301.922 412.934C295.885 419.342 287.581 420.061 276.073 421.412C274.831 421.565 273.523 421.63 272.085 421.63C264.522 421.63 261.58 419.821 264.326 433.53C265.699 440.592 266.505 447.85 263.301 453.102C259.749 458.878 254.758 458.42 251.423 454.606Z" fill="#2A232B"/>
<path d="M352.573 454.802C345.381 461.908 334.854 455.587 339.322 433.465C342.57 415.942 339.998 424.943 315.173 419.843C309.921 418.688 305.562 417.097 301.922 413.239C295.885 419.603 286.949 420.345 276.095 421.609C265.611 422.807 261.405 417.816 264.543 433.465C265.764 439.829 266.897 447.61 263.497 453.19C259.552 459.663 254.256 458.181 251.27 454.759C254.082 439.284 243.424 437.693 247.282 413.457C247.587 411.191 248.589 406.505 249.461 403.846C250.028 402.364 251.314 401.056 253.035 399.923C247.696 430.654 253.58 432.179 255.498 452.797C266.854 443.469 251.793 422.284 262.691 417.925C277.184 411.714 290.152 416.465 301.922 407.594C311.054 415.593 335.661 413.632 343.332 417.925C349.871 422.284 339.78 445.431 347.691 452.797C347.626 438.631 356.475 432.179 351.157 400.032C354.731 402.691 355.516 406.417 356.584 413.457C360.333 437.933 349.871 438.957 352.573 454.802ZM272.978 409.207C282.459 407.398 291.068 407.093 298.369 403.889C290.588 406.526 281.216 406.069 272.695 407.682C245.974 412.368 255.477 429.15 256.218 439.851C256.544 427.711 248.35 413.501 272.978 409.207ZM347.604 439.851C347.539 436.952 347.364 435.972 348.236 430.741C353.075 403.933 322.998 411.605 305.474 403.889C320.208 408.837 356.344 402.734 349.021 430.828C347.713 436.233 347.822 436.822 347.604 439.851ZM254.06 411.888C257.482 401.753 277.01 395.673 287.123 399.182C278.187 397.59 258.571 403.519 254.06 411.888ZM349.958 410.428C348.476 408.074 349.37 409.425 348.106 408.009C344.684 403.824 324.763 396.588 315.435 400.249C323.978 395.193 345.708 400.01 349.958 410.428Z" fill="#1B141C"/>
<path d="M356.584 413.457C354.84 401.819 353.881 399.225 339.736 395.564C318.508 390.442 312.274 392.687 301.922 401.666C296.146 396.544 291.133 393.471 284.137 392.926C277.577 392.469 252.687 395.607 249.461 403.846C248.589 406.505 247.587 411.191 247.282 413.457C243.424 437.693 254.082 439.285 251.27 454.759C254.256 458.181 259.552 459.663 263.497 453.19C266.897 447.61 265.764 439.829 264.543 433.465C261.405 417.816 265.611 422.807 276.095 421.609C286.949 420.345 295.885 419.604 301.922 413.239C305.562 417.097 309.921 418.688 315.173 419.843C339.998 424.943 342.57 415.942 339.322 433.465C334.854 455.587 345.381 461.908 352.573 454.803C349.871 438.958 360.333 437.933 356.584 413.457ZM353.903 432.79C351.811 440.963 349.588 447.414 351.854 454.497C344.967 460.578 338.668 452.056 340.717 439.982C342.94 424.791 347.255 418.95 331.781 419.233C329.558 419.298 313.626 418.557 306.433 415.136C305.169 414.613 302.859 412.76 301.922 411.823C295.601 418.165 286.905 417.947 275.833 419.124C268.532 420.018 258.964 415.92 261.318 430.065C262.778 437.868 265.088 446.346 261.906 452.427C259.487 457.156 255.564 457.68 251.968 454.519C254.997 444.864 249.875 436.408 249.374 428.888C248.851 421.587 250.42 410.973 252.338 404.936C254.256 399.291 278.318 395.411 283.941 395.498C291.177 395.629 295.405 398.419 301.922 403.083C306.215 400.337 311.032 395.651 319.837 395.498C325.046 395.411 349.544 399.182 351.506 404.936C353.554 411.082 355.69 425.597 353.903 432.79Z" fill="black"/>
</g>
<defs>
<linearGradient id="paint0_linear" x1="300" y1="-75" x2="300" y2="675" gradientUnits="userSpaceOnUse">
<stop stop-color="#151371"/>
<stop offset="0.453125" stop-color="#FF00B8"/>
<stop offset="0.96875" stop-color="#FFC700"/>
</linearGradient>
<linearGradient id="paint1_linear" x1="439" y1="245" x2="439" y2="644" gradientUnits="userSpaceOnUse">
<stop stop-color="#FF00B8"/>
<stop offset="1" stop-color="#F0DB0A" stop-opacity="0"/>
</linearGradient>
<linearGradient id="paint2_linear" x1="194" y1="161" x2="194" y2="560" gradientUnits="userSpaceOnUse">
<stop stop-color="#FF00B8"/>
<stop offset="1" stop-color="#F0DB0A" stop-opacity="0"/>
</linearGradient>
<linearGradient id="paint3_linear" x1="301.922" y1="507.263" x2="301.922" y2="413.545" gradientUnits="userSpaceOnUse">
<stop stop-color="#784620" stop-opacity="0.8"/>
<stop offset="0.7" stop-color="#592A06"/>
</linearGradient>
<linearGradient id="paint4_linear" x1="301.923" y1="448.416" x2="301.923" y2="441.878" gradientUnits="userSpaceOnUse">
<stop offset="0.1" stop-color="#7F4E29"/>
<stop offset="1" stop-color="#784620"/>
</linearGradient>
<radialGradient id="paint5_radial" cx="0" cy="0" r="1" gradientUnits="userSpaceOnUse" gradientTransform="translate(243.607 318.662) rotate(174.019) scale(32.9457)">
<stop stop-color="white"/>
<stop offset="0.315" stop-color="#FCFDFD"/>
<stop offset="0.504" stop-color="#F4F7F8"/>
<stop offset="0.66" stop-color="#E5ECEF"/>
<stop offset="0.76" stop-color="#D8E2E7"/>
</radialGradient>
<radialGradient id="paint6_radial" cx="0" cy="0" r="1" gradientUnits="userSpaceOnUse" gradientTransform="translate(253.998 314.369) rotate(1.19182) scale(34.8792 27.9019)">
<stop stop-color="#784620"/>
<stop offset="0.7" stop-color="#784620" stop-opacity="0.3"/>
<stop offset="1" stop-color="#875732" stop-opacity="0"/>
</radialGradient>
<radialGradient id="paint7_radial" cx="0" cy="0" r="1" gradientUnits="userSpaceOnUse" gradientTransform="translate(235.595 376.208) scale(66.5098)">
<stop offset="0.95" stop-opacity="0"/>
<stop offset="1" stop-opacity="0.2"/>
</radialGradient>
<radialGradient id="paint8_radial" cx="0" cy="0" r="1" gradientUnits="userSpaceOnUse" gradientTransform="translate(359.369 318.66) rotate(5.98141) scale(32.9435)">
<stop stop-color="white"/>
<stop offset="0.316" stop-color="#FCFDFD"/>
<stop offset="0.505" stop-color="#F4F7F8"/>
<stop offset="0.661" stop-color="#E5ECEF"/>
<stop offset="0.76" stop-color="#D8E2E7"/>
</radialGradient>
<radialGradient id="paint9_radial" cx="0" cy="0" r="1" gradientUnits="userSpaceOnUse" gradientTransform="translate(348.974 314.369) rotate(178.808) scale(34.8792 27.9019)">
<stop stop-color="#784620"/>
<stop offset="0.7" stop-color="#784620" stop-opacity="0.3"/>
<stop offset="1" stop-color="#875732" stop-opacity="0"/>
</radialGradient>
<radialGradient id="paint10_radial" cx="0" cy="0" r="1" gradientUnits="userSpaceOnUse" gradientTransform="translate(367.382 376.207) rotate(180) scale(66.5098)">
<stop offset="0.95" stop-opacity="0"/>
<stop offset="1" stop-opacity="0.2"/>
</radialGradient>
<radialGradient id="paint11_radial" cx="0" cy="0" r="1" gradientUnits="userSpaceOnUse" gradientTransform="translate(301.922 383.031) scale(89.3597)">
<stop stop-color="#966947" stop-opacity="0.5"/>
<stop offset="0.9" stop-color="#875732" stop-opacity="0"/>
</radialGradient>
<radialGradient id="paint12_radial" cx="0" cy="0" r="1" gradientUnits="userSpaceOnUse" gradientTransform="translate(301.922 252.261) scale(80.6417)">
<stop stop-color="#966947" stop-opacity="0.5"/>
<stop offset="0.9" stop-color="#875732" stop-opacity="0"/>
</radialGradient>
<clipPath id="clip0">
<rect width="600" height="600" fill="white"/>
</clipPath>
</defs>
</svg>
