<svg width="600" height="600" viewBox="0 0 600 600" fill="none" xmlns="http://www.w3.org/2000/svg">
<g clip-path="url(#clip0)">
<path d="M675 675H-75V-75H675V675Z" fill="url(#paint0_linear)"/>
<path d="M360.996 403.874H308.184V356.576H360.996V403.874ZM414.113 320.069H340.054V380.225H414.113V320.069ZM377.082 441.95H442.881V362.639H377.082V441.95ZM400.757 434.192H334.59V491.191H400.757V434.192ZM580.44 284.416H490.23V387.501H580.44V284.416ZM478.458 331.108H456.605V356.576H478.458V331.108ZM544.531 252.277H456.605V304.426H544.531V252.277ZM442.881 270.468H395.532V335.958H442.881V270.468ZM334.59 275.32H308.184V303.213H334.59V275.32ZM299.325 320.069H258.501V382.71H299.325V320.069ZM347.338 441.95H275.708V521.511H347.338V441.95ZM308.184 576.086H388.617V528.788H308.184V576.086ZM500.311 557.894H443.791V599.129H500.313V557.894H500.311ZM637.361 516.659H585.062V578.511H637.361V516.659ZM551.302 544.718H506.381V585.953H551.302V544.718ZM594.357 463.296H528.843V537.278H594.357V463.296ZM610.791 590.639H528.843V644H610.791V590.639ZM340.054 557.894H251.187V637.937H340.052V557.894H340.054ZM630.216 356.576H569.818V403.874H630.216V356.576ZM594.357 424.49H568.208V451.477H594.357V424.49ZM251.187 474.697H300.975V404.294H251.187V474.697ZM321.764 249.852L232 252.277V320.069H321.764V249.852ZM646 252.277H587.725V326.256H646V252.277ZM371.858 245H347.338V298.361H371.858V245ZM641.143 437.983H581.281V486.494H641.143V437.983Z" fill="url(#paint1_linear)" stroke="#FFC700" stroke-width="1.5"/>
<path d="M115.996 319.874H63.1843V272.576H115.996V319.874ZM169.113 236.069H95.0537V296.225H169.113V236.069ZM132.082 357.95H197.881V278.639H132.082V357.95ZM155.757 350.192H89.5904V407.191H155.757V350.192ZM335.44 200.416H245.23V303.501H335.44V200.416ZM233.458 247.108H211.605V272.576H233.458V247.108ZM299.531 168.277H211.605V220.426H299.531V168.277ZM197.881 186.468H150.532V251.958H197.881V186.468ZM89.5904 191.32H63.1843V219.213H89.5904V191.32ZM54.3246 236.069H13.5008V298.71H54.3246V236.069ZM102.338 357.95H30.7084V437.511H102.338V357.95ZM63.1843 492.086H143.617V444.788H63.1843V492.086ZM255.311 473.894H198.791V515.129H255.313V473.894H255.311ZM392.361 432.659H340.062V494.511H392.361V432.659ZM306.302 460.718H261.381V501.953H306.302V460.718ZM349.357 379.296H283.843V453.278H349.357V379.296ZM365.791 506.639H283.843V560H365.791V506.639ZM95.0537 473.894H6.18721V553.937H95.0519V473.894H95.0537ZM385.216 272.576H324.818V319.874H385.216V272.576ZM349.357 340.49H323.208V367.477H349.357V340.49ZM6.18721 390.697H55.9745V320.294H6.18721V390.697ZM76.7643 165.852L-13 168.277V236.069H76.7643V165.852ZM401 168.277H342.725V242.256H401V168.277ZM126.858 161H102.338V214.361H126.858V161ZM396.143 353.983H336.281V402.494H396.143V353.983Z" fill="url(#paint2_linear)" stroke="#FFC700" stroke-width="1.5"/>
<rect x="504" y="328.705" width="8.86149" height="25.1423" fill="white"/>
<rect x="521.754" y="328.858" width="8.83104" height="25.1423" fill="white"/>
<rect x="512.861" y="320" width="8.89195" height="8.85765" fill="white"/>
<rect x="539.415" y="328.858" width="8.89195" height="25.1423" fill="white"/>
<rect x="530.585" y="320" width="8.83105" height="8.85765" fill="white"/>
<rect x="548.308" y="320" width="8.86149" height="8.85765" fill="white"/>
<rect x="557.169" y="327.792" width="8.83104" height="8.85766" fill="white"/>
<rect x="548.308" y="336.65" width="8.86149" height="8.82721" fill="white"/>
<rect x="40" y="390.425" width="7.57515" height="21.4449" fill="white"/>
<rect x="55.1768" y="390.555" width="7.54912" height="21.4449" fill="white"/>
<rect x="47.5752" y="383" width="7.60118" height="7.55506" fill="white"/>
<rect x="70.2744" y="390.555" width="7.60118" height="21.4449" fill="white"/>
<rect x="62.7256" y="383" width="7.54912" height="7.55506" fill="white"/>
<rect x="77.876" y="383" width="7.57515" height="7.55506" fill="white"/>
<rect x="85.4512" y="389.646" width="7.54912" height="7.55506" fill="white"/>
<rect x="77.876" y="397.201" width="7.57515" height="7.52909" fill="white"/>
<path d="M430.409 171.154L193.265 157.661C193.265 157.661 133.51 593.494 133.51 607.116C133.51 607.116 373.969 608.832 476.464 607.116C474.548 588.244 430.409 171.154 430.409 171.154Z" fill="#351F15"/>
<path d="M359.391 395.269C390.525 463.785 365.44 459.531 368.576 489.733C369.458 496.48 371.331 503.062 372.086 508.165C372.744 512.187 373.302 523.527 372.513 513.479C372.032 510.491 371.846 508.672 370.035 501.918C369.215 498.804 368.238 495.465 367.544 491.885C363.209 473.235 374.372 461.86 372.67 440.967C371.381 429.735 370.13 421.317 359.391 395.269ZM384.891 473.888C390.942 498.692 390.604 504.192 384.169 537.661C382.868 544.291 382.239 548.352 382.372 547.549C384.662 535.042 391.662 516.677 391.621 495.36C391.776 487.045 387.074 468.819 385.937 460.868C385.945 460.933 385.918 460.704 385.952 461.011C384.014 433.886 397.531 414.771 395.086 376.929C396.638 421.815 375.973 438.581 384.891 473.888ZM238.92 375.37C239.185 376.633 239.552 378.151 239.859 379.927C240.09 381.724 240.412 383.744 240.495 385.989C241.601 403.303 236.339 420.998 235.643 440.678C235.891 455.466 240.224 474.743 240.688 485.632C240.941 489.037 241.079 493.327 240.915 498.179C240.819 503.024 240.381 508.436 239.928 514.075C238.98 525.366 238.763 523.817 238.93 548.092C238.889 565.527 238.429 573.757 238.429 573.757C238.396 572.803 239.165 567.098 239.718 558.809C241.124 538.54 239.84 537.79 243.217 512.185C245.552 494.044 245.309 485.837 244.218 476.693C244.23 476.819 244.232 476.838 244.234 476.857C242.147 456.133 236.932 452.072 239.437 424.301C240.538 412.769 241.925 401.111 241.563 391.49C241.458 386.68 240.777 382.429 240.076 379.011C239.299 375.611 238.3 373.065 237.705 371.466C237.707 371.466 238.146 372.877 238.92 375.37ZM214.135 423.107C214.431 441.519 215.243 448.08 214.76 455.89C214.636 457.804 214.526 459.462 214.438 460.823C213.01 484.648 222.297 483.926 223.444 537.88C223.496 543.359 223.749 548.376 223.622 552.561C222.324 592.305 226.659 528.143 223.901 499.113C222.128 485.038 218.94 480.999 218.94 463.499C218.911 464.017 218.932 463.635 218.928 463.747C218.928 444.849 220.389 473.001 217.445 424.992C215.751 400.691 228.012 380.167 225.784 351.512C226.899 379.255 214.056 399.24 214.135 423.107Z" fill="#26130B"/>
<path d="M524.011 549.605C509.693 525.397 491.9 521.072 477.234 516.394C462.166 511.589 431.13 508.82 414.202 505.431C397.854 502.159 359.025 491.635 358.581 473.287C358.124 454.064 368.808 377.746 368.808 377.746H245.531C245.531 377.746 256.225 454.062 255.765 473.287C255.326 491.635 216.49 502.159 200.139 505.431C183.209 508.82 152.178 511.589 137.109 516.394C122.438 521.072 104.641 525.395 90.3229 549.605C81.6387 564.286 76.0049 588.053 76.0049 614.268H538.339C538.336 588.053 532.712 564.286 524.011 549.605Z" fill="#ECB38D"/>
<path d="M358.581 473.289C364.527 499.335 401.871 505.934 421.241 509.811C473.454 520.247 501.725 522.047 522.042 556.376C528.96 568.092 535.052 594.183 536.25 613.937C540.623 614.63 537.516 572.393 524.01 549.605C500.794 510.35 454.686 513.536 414.201 505.434C397.853 502.161 359.024 491.637 358.581 473.289ZM256.381 473.289C255.938 491.637 217.109 502.161 200.76 505.434C160.275 513.536 114.168 510.35 90.9513 549.605C77.446 572.396 74.3383 614.63 78.7114 613.937C79.9101 594.183 86.0015 568.092 92.9198 556.376C113.234 522.047 141.508 520.247 193.721 509.811C213.091 505.934 250.435 499.333 256.381 473.289Z" fill="#FBCEAF"/>
<path d="M191.197 524.933C191.197 524.933 259.453 525.645 270.969 529.425C276.484 531.231 290.921 542.849 290.921 542.849C290.921 542.849 275.297 535.295 270.287 533.893C258.65 530.643 191.197 524.933 191.197 524.933ZM306.993 549.922C311.885 549.825 325.789 540.869 325.789 540.869C325.789 540.869 312.505 545.776 308.292 546.016C304.738 546.221 293.12 543.066 293.12 543.066C293.12 543.066 302.982 550.001 306.993 549.922ZM348.014 532.664C364.101 528.331 418.999 524.966 418.999 524.966C418.999 524.966 362.301 523.736 346.289 529.077C340.922 530.869 328.267 541.374 328.267 541.374C328.267 541.374 342.719 534.086 348.014 532.664Z" fill="#DD9A6E"/>
<path d="M524.011 549.606C500.797 510.353 454.609 513.52 414.202 505.434C397.854 502.162 359.025 491.638 358.581 473.29C358.124 454.067 368.808 377.749 368.808 377.749H245.531C245.531 377.749 256.225 454.065 255.765 473.29C255.326 491.638 216.49 502.162 200.139 505.434C183.209 508.823 152.178 511.592 137.109 516.397C122.438 521.075 104.641 525.398 90.3229 549.609C81.6387 564.289 76.0049 588.056 76.0049 614.271H538.339C538.336 588.054 532.712 564.286 524.011 549.606Z" stroke="#BE6E39" stroke-width="4.5"/>
<path d="M307.588 482.569C320.917 482.548 339.732 473.971 357.415 462.456C358.483 446.517 361.507 421.363 363.931 402.529C330.674 398.208 283.525 398.308 250.438 402.779C252.84 421.441 255.819 446.214 256.903 462.096C274.855 473.814 294.064 482.591 307.588 482.569Z" fill="url(#paint3_linear)"/>
<path d="M331.644 618.772C289.071 618.772 239.415 618.608 179.839 618.264L127.159 617.979C95.3485 617.807 89.0259 617.771 85.1414 617.771L74.2432 617.785C74.3194 521.213 121.942 514.513 172.358 507.414C189.686 504.976 207.603 502.452 223.796 496.134C244.113 524.673 276.045 528.524 304.614 528.524C306.204 528.524 307.81 528.51 309.419 528.484C339.608 527.804 375.079 517.106 386.435 494.736C387.899 495.293 389.262 495.937 390.577 496.561C392.057 497.259 393.587 497.984 395.282 498.596C406.363 502.61 420.143 504.507 434.728 506.518C482.417 513.095 541.77 521.277 540.964 613.925C540.972 614.292 540.974 616.539 540.936 617.242C513.096 617.242 494.209 617.511 472.344 617.824C442.685 618.248 405.77 618.772 331.673 618.772C331.658 618.772 331.651 618.772 331.644 618.772Z" fill="#92002A"/>
<path d="M540.718 614.268C535.888 601.196 538.431 577.474 524.425 556.376C496.654 514.537 445.013 518.369 397.576 504.807C387.557 525.219 368.406 537.072 346.507 543.867L346.469 543.755C367.956 536.133 386.227 524.532 396.523 504.492C395.329 504.144 394.137 503.796 392.95 503.425L395.229 499.049C452.87 516.777 499.394 503.963 526.391 549.606C535.094 564.286 540.718 588.053 540.718 614.268ZM205.56 507.848C208.579 507.147 211.589 506.401 214.587 505.588L211.413 501.382C155.783 515.746 113.972 506.649 88.5654 549.606C79.8669 564.286 74.2402 588.053 74.2402 614.268C79.0709 601.196 76.5281 577.474 90.5339 556.376C115.726 518.422 160.563 518.043 204.082 508.177C219.618 527.309 242.313 540.826 267.002 544.718C236.033 536.639 216.773 521.668 205.56 507.848Z" fill="#A1103A"/>
<path d="M383.932 499.428C372.026 517.783 339.744 530.302 303.127 530.302C266.945 530.302 237.099 517.895 223.291 497.114L223.186 496.959L226.129 501.382C222.866 502.767 214.649 505.548 214.649 505.548L211.203 501.115L211.415 501.394C212.061 502.238 212.733 503.148 213.443 504.111C223.832 518.181 241.221 541.729 299.943 541.729C305.095 541.729 310.531 541.541 316.1 541.169C354.953 538.386 380.143 526.015 392.943 503.422C392.812 503.367 386.964 500.965 383.932 499.428Z" fill="#830026"/>
<path d="M386.314 494.438C374.3 518.462 336.196 527.645 309.409 528.248C274.531 528.791 243.722 523.86 223.877 495.844C161.038 520.495 74 487.295 74 618.026C96.1158 618.026 63.7429 617.878 179.836 618.503C454.794 620.083 454.281 617.478 541.148 617.478C541.212 617.166 541.203 614.246 541.198 613.927C542.246 493.329 443.438 515.774 395.36 498.372C392.093 497.188 389.514 495.632 386.314 494.438ZM223.091 497.247C256 546.76 366.555 536.596 386.194 495.91C388.864 497.033 391.771 498.151 394.869 499.247C385.565 518.755 365.616 537.38 316.082 540.928C239.787 546.014 222.161 515.085 211.604 501.249C211.928 501.158 219.84 498.465 223.091 497.247ZM74.3336 617.619C80.2916 563.099 85.668 524.153 152.239 512.597C175.101 508.379 186.817 507.976 211.413 501.323C230.176 527.042 248.922 545.454 317.941 542.551C368.869 536.887 386.025 519.628 395.301 499.416C458.502 519.308 536.586 499.006 540.388 617.097C420.121 615.531 303.93 612.402 74.3336 617.619Z" fill="#64001D"/>
<path d="M447.891 256.228H447.88C447.851 256.355 427.582 353.24 408.035 383.215C392.659 406.794 335.668 454.563 307.847 454.605C280.033 454.653 222.918 407.042 207.471 383.508C187.831 353.595 167.231 256.796 167.202 256.667H167.2C164.107 244.963 162.448 232.678 162.429 220.009C162.303 140.235 227.141 75.4822 307.259 75.3582C387.383 75.2343 452.424 139.782 452.543 219.556C452.565 232.225 450.949 244.513 447.891 256.228Z" fill="#ECB38D"/>
<path d="M369.2 89.0733C414.728 113.496 445.64 161.414 445.554 216.515C445.533 229.184 443.876 241.47 440.78 253.173H440.778C440.749 253.3 420.149 350.101 400.507 380.015C386.337 401.609 336.746 450.371 307.485 450.371C278.222 450.371 228.636 401.606 214.463 380.015C194.821 350.101 174.219 253.302 174.193 253.173H174.19C171.097 241.47 169.438 229.184 169.419 216.515C169.331 161.414 200.245 113.496 245.769 89.0733C196.451 112.195 162.336 162.136 162.427 220.009C162.446 232.678 164.105 244.963 167.198 256.667H167.2C167.231 256.796 187.831 353.595 207.474 383.508C217.998 399.542 250.664 432.351 275.87 444.951C274.61 444.413 273.339 443.841 272.06 443.242C284.948 450.094 297.474 454.594 307.123 454.605C307.24 454.605 307.369 454.594 307.485 454.594C307.602 454.594 307.731 454.605 307.848 454.605C317.495 454.594 330.021 450.094 342.911 443.242C341.629 443.843 340.359 444.413 339.096 444.951C364.302 432.354 396.971 399.54 407.495 383.508C427.134 353.595 447.739 256.796 447.763 256.667H447.768C450.861 244.963 452.52 232.678 452.539 220.009C452.634 162.136 418.524 112.195 369.2 89.0733Z" fill="#E4A67D"/>
<path d="M447.891 256.228H447.88C447.851 256.355 427.582 353.24 408.035 383.215C392.659 406.794 335.668 454.563 307.847 454.605C280.033 454.653 222.918 407.042 207.471 383.508C187.831 353.595 167.231 256.796 167.202 256.667H167.2C164.107 244.963 162.448 232.678 162.429 220.009C162.303 140.235 227.141 75.4822 307.259 75.3582C387.383 75.2343 452.424 139.782 452.543 219.556C452.565 232.225 450.949 244.513 447.891 256.228Z" stroke="#BE6E39" stroke-width="4.5"/>
<path d="M307.486 409.909C297.577 409.909 295.253 401.797 295.253 401.797C308.36 406.849 319.721 401.449 319.721 401.449C319.721 401.449 316.201 409.909 307.486 409.909Z" fill="url(#paint4_linear)"/>
<path d="M276.031 387.727C282.599 385.46 292.649 381.311 297.875 381.08C300.575 380.956 303.478 383.153 306.392 383.856C308.42 384.347 314.171 381.101 316.235 381.08C321.649 381.023 333.06 385.46 338.88 387.727C339.201 387.855 338.88 387.727 338.88 387.727C338.88 387.727 325.084 404.297 307.458 404.297C287.506 404.299 276.031 387.727 276.031 387.727C276.031 387.727 275.704 387.843 276.031 387.727Z" fill="#B00335"/>
<path d="M276.031 387.727C282.599 385.46 292.649 381.311 297.875 381.08C300.575 380.956 303.478 383.153 306.392 383.856C308.42 384.347 314.171 381.101 316.235 381.08C321.649 381.023 333.06 385.46 338.88 387.727C339.201 387.855 338.88 387.727 338.88 387.727C338.88 387.727 325.084 404.297 307.458 404.297C287.506 404.299 276.031 387.727 276.031 387.727ZM276.031 387.727C276.031 387.727 275.704 387.843 276.031 387.727Z" stroke="#A1002E" stroke-width="2.25"/>
<path d="M339.752 387.241C339.637 386.85 338.603 386.366 338.196 386.385C337.454 386.425 336.594 387.329 335.066 387.362C333.298 387.405 323.916 388.816 321.397 388.649C316.323 388.311 312.283 390.236 307.46 390.236C302.634 390.236 298.242 388.134 293.17 388.475C290.651 388.647 281.619 387.407 279.846 387.362C278.314 387.326 277.72 386.383 277.067 386.256C276.61 386.17 275.487 386.652 275.263 387.062C275.066 387.417 275.483 388.659 275.761 388.954C276.441 389.662 278.469 389.531 279.808 389.564C281.66 389.605 290.716 390.846 293.273 390.675C298.232 390.339 302.653 392.634 307.458 392.634C312.262 392.634 316.335 390.515 321.294 390.851C323.847 391.02 333.246 389.602 335.1 389.564C336.442 389.531 338.355 389.419 339.042 388.868C339.366 388.611 339.869 387.641 339.752 387.241Z" fill="#820026"/>
<path d="M307.455 400.624C299.424 400.624 291.619 397.877 285.433 392.748C288.547 392.576 291.753 392.088 294.872 392.224C298.716 392.391 302.365 393.909 306.207 394.161C310.358 394.438 314.209 393.001 318.275 392.507C321.664 392.102 327.007 390.901 330.408 391.025C324.326 395.686 315.213 400.624 307.455 400.624ZM318.354 387.248C321.485 387.16 326.49 385.98 329.612 386.206C326.263 384.397 320.896 383.964 317.117 383.234C313.861 382.601 310.592 385.12 307.391 385.541C303.783 386.016 301.076 382.589 297.575 382.472C293.778 382.512 289.87 384.834 286.531 386.404C289.591 386.323 292.744 385.985 295.792 386.375C299.524 386.85 303.106 388.322 306.886 388.449C310.754 388.582 314.486 387.35 318.354 387.248Z" fill="#BF1647"/>
<path d="M307.342 398.356C302.506 398.356 297.793 396.683 293.741 393.585C294.647 393.494 295.562 393.425 296.441 393.425C296.72 393.425 296.999 393.434 297.278 393.451C298.729 393.527 300.159 393.944 301.677 394.388C303.15 394.812 304.67 395.253 306.26 395.389C306.575 395.412 306.889 395.424 307.201 395.424C309.153 395.424 311.005 394.938 312.797 394.471C313.934 394.173 315.009 393.892 316.114 393.725C316.717 393.63 317.37 393.585 318.109 393.585C318.748 393.585 319.406 393.62 320.058 393.67C316.686 396.175 312.32 398.356 307.342 398.356Z" fill="#CF2D5C"/>
<path d="M252.489 266.023C263.468 267.496 271.669 275.132 278.809 287.472C278.818 287.486 278.84 287.481 278.852 287.493C278.871 287.569 278.904 287.643 278.921 287.717C279.612 290.548 277.129 292.955 273.993 294.838C262.68 297.04 251.824 299.99 240.259 298.711C217.097 296.151 216.327 284.066 215.114 280.937C214.421 277.841 214.223 274.679 214.168 271.683C218.563 271.76 223.66 269.167 227.945 267.977C232.962 266.586 244.193 264.908 252.489 266.023Z" fill="url(#paint5_radial)"/>
<path d="M268.158 283.01C268.158 294.197 259.088 303.267 247.904 303.267C236.717 303.267 227.645 294.197 227.645 283.01C227.645 271.824 236.717 262.754 247.904 262.754C259.088 262.751 268.158 271.822 268.158 283.01Z" fill="#681711"/>
<path d="M245.632 262.98C245.553 262.99 245.474 262.999 245.391 263.009C245.489 263.464 245.584 263.924 245.677 264.379C245.66 263.914 245.648 263.442 245.632 262.98ZM245.675 264.374C245.91 271.03 246.299 276.962 247.419 279.109C248.012 276.759 247.007 270.904 245.675 264.374ZM247.424 279.114C247.278 279.676 247.059 280.06 246.723 280.191C246.385 280.317 245.963 280.172 245.481 279.843C245.62 280.406 245.605 280.849 245.36 281.123C245.117 281.395 244.681 281.461 244.104 281.385C244.485 281.824 244.681 282.226 244.595 282.577C244.502 282.929 244.145 283.192 243.606 283.394C244.142 283.604 244.502 283.868 244.585 284.221C244.671 284.574 244.476 284.972 244.097 285.408C244.671 285.339 245.112 285.41 245.348 285.682C245.589 285.954 245.601 286.399 245.467 286.962C245.941 286.635 246.363 286.492 246.702 286.623C247.042 286.75 247.259 287.138 247.395 287.705C247.667 287.193 247.974 286.864 248.339 286.828C248.692 286.781 249.071 287.028 249.449 287.465C249.454 286.883 249.576 286.457 249.881 286.249C250.176 286.044 250.622 286.085 251.161 286.292C250.898 285.777 250.808 285.344 250.975 285.019C251.144 284.698 251.559 284.526 252.135 284.459C251.661 284.126 251.37 283.785 251.377 283.42C251.375 283.056 251.661 282.715 252.142 282.386C251.568 282.315 251.161 282.141 250.989 281.821C250.822 281.5 250.915 281.061 251.182 280.546C250.636 280.749 250.198 280.789 249.9 280.584C249.6 280.379 249.478 279.948 249.476 279.369C249.099 279.803 248.723 280.041 248.36 279.993C247.998 279.946 247.688 279.626 247.424 279.114ZM249.473 279.367C251.091 277.56 252.919 271.907 254.773 265.513C251.89 271.509 249.478 276.941 249.473 279.367ZM254.771 265.511C254.974 265.101 255.181 264.682 255.374 264.262C255.302 264.236 255.231 264.205 255.159 264.174C255.031 264.622 254.902 265.07 254.771 265.511ZM251.182 280.544C253.453 279.693 257.702 275.537 262.314 270.737C256.975 274.71 252.312 278.399 251.182 280.544ZM262.314 270.74C262.652 270.487 262.998 270.232 263.346 269.982C263.296 269.922 263.243 269.87 263.203 269.815C262.907 270.118 262.614 270.432 262.314 270.74ZM252.135 282.386C254.542 282.684 260.236 280.978 266.558 278.871C259.978 279.908 254.137 281.006 252.135 282.386ZM266.558 278.871C266.93 278.818 267.316 278.757 267.697 278.697C267.681 278.635 267.666 278.568 267.65 278.504C267.287 278.625 266.916 278.749 266.558 278.871ZM252.13 284.455C254.123 285.844 259.957 286.974 266.52 288.041C260.224 285.904 254.54 284.164 252.13 284.455ZM266.52 288.041C266.842 288.153 267.166 288.268 267.483 288.37C267.5 288.313 267.514 288.258 267.526 288.201C267.199 288.153 266.856 288.099 266.52 288.041ZM251.158 286.287C252.281 288.437 256.925 292.155 262.237 296.158C257.652 291.332 253.429 287.15 251.158 286.287ZM262.242 296.151C262.44 296.359 262.647 296.578 262.845 296.79C262.879 296.749 262.91 296.716 262.948 296.68C262.712 296.504 262.469 296.325 262.242 296.151ZM249.454 287.46C249.445 289.888 251.825 295.329 254.676 301.347C252.855 294.941 251.063 289.273 249.454 287.46ZM254.678 301.347C254.75 301.599 254.826 301.859 254.893 302.119C254.943 302.1 254.978 302.083 255.024 302.071C254.909 301.828 254.792 301.582 254.678 301.347ZM247.395 287.701C246.261 289.85 245.839 295.77 245.565 302.424C246.933 295.911 247.974 290.06 247.395 287.701ZM245.567 302.424C245.512 302.676 245.462 302.934 245.41 303.193C245.458 303.203 245.493 303.205 245.541 303.21C245.548 302.953 245.56 302.681 245.567 302.424ZM245.467 286.959C243.456 288.332 240.334 293.387 237 299.147C241.237 294.014 244.881 289.314 245.467 286.959ZM237.002 299.147C236.826 299.361 236.64 299.588 236.456 299.8C236.499 299.828 236.537 299.848 236.583 299.881C236.721 299.635 236.864 299.39 237.002 299.147ZM244.099 285.408C241.68 285.692 236.568 288.709 230.939 292.26C237.081 289.686 242.481 287.224 244.099 285.408ZM230.939 292.267C230.649 292.388 230.351 292.51 230.053 292.638C230.074 292.684 230.103 292.729 230.132 292.774C230.403 292.607 230.672 292.434 230.939 292.267ZM243.606 283.394C241.34 282.524 235.405 282.827 228.766 283.356C235.401 283.923 241.332 284.252 243.606 283.394ZM228.768 283.356C228.408 283.323 228.034 283.289 227.679 283.258C227.677 283.323 227.672 283.385 227.677 283.449C228.046 283.413 228.411 283.382 228.768 283.356ZM244.104 281.385C242.507 279.567 237.117 277.074 230.999 274.462C236.602 278.042 241.697 281.094 244.104 281.385ZM230.999 274.462C230.649 274.236 230.291 274.012 229.936 273.783C229.905 273.845 229.874 273.909 229.838 273.969C230.229 274.136 230.622 274.298 230.999 274.462ZM245.481 279.841C244.912 277.484 241.292 272.77 237.09 267.61C240.391 273.39 243.484 278.459 245.481 279.841ZM237.093 267.61C236.866 267.222 236.645 266.826 236.423 266.433C236.361 266.476 236.292 266.521 236.235 266.562C236.518 266.912 236.814 267.265 237.093 267.61Z" fill="url(#paint6_radial)"/>
<path d="M250.892 263.044C250.811 263.035 250.735 263.02 250.654 263.011C250.627 263.478 250.601 263.948 250.573 264.407C250.675 263.955 250.787 263.497 250.892 263.044ZM250.57 264.405C249.076 270.897 247.915 276.726 248.444 279.09C249.626 276.974 250.165 271.057 250.57 264.405ZM248.447 279.093C248.163 279.598 247.851 279.912 247.491 279.95C247.134 279.984 246.762 279.734 246.385 279.293C246.371 279.872 246.242 280.296 245.937 280.496C245.632 280.694 245.191 280.646 244.653 280.425C244.908 280.947 244.994 281.385 244.817 281.702C244.638 282.019 244.224 282.181 243.652 282.236C244.114 282.579 244.395 282.925 244.386 283.287C244.379 283.649 244.086 283.983 243.607 284.307C244.178 284.388 244.584 284.571 244.746 284.896C244.905 285.22 244.805 285.653 244.529 286.163C245.075 285.97 245.515 285.942 245.809 286.156C246.102 286.366 246.214 286.8 246.199 287.381C246.595 286.959 246.974 286.719 247.339 286.778C247.691 286.826 247.992 287.16 248.249 287.681C248.401 287.119 248.63 286.738 248.978 286.616C249.319 286.495 249.736 286.65 250.206 286.99C250.084 286.426 250.108 285.982 250.356 285.713C250.603 285.444 251.047 285.389 251.623 285.47C251.249 285.024 251.056 284.621 251.159 284.269C251.252 283.916 251.616 283.661 252.167 283.468C251.628 283.251 251.28 282.977 251.197 282.624C251.121 282.269 251.323 281.871 251.716 281.445C251.137 281.5 250.699 281.423 250.468 281.147C250.232 280.873 250.225 280.425 250.375 279.865C249.896 280.184 249.469 280.317 249.133 280.179C248.783 280.046 248.571 279.657 248.447 279.093ZM250.363 279.872C252.393 278.542 255.62 273.556 259.066 267.861C254.729 272.906 250.994 277.527 250.363 279.872ZM259.066 267.856C259.366 267.51 259.674 267.16 259.972 266.807C259.907 266.762 259.848 266.712 259.786 266.664C259.545 267.067 259.304 267.465 259.066 267.856ZM251.707 281.449C254.121 281.214 259.302 278.299 264.998 274.855C258.811 277.312 253.351 279.669 251.707 281.449ZM264.995 274.858C265.389 274.703 265.789 274.545 266.189 274.393C266.156 274.324 266.12 274.259 266.094 274.195C265.729 274.412 265.365 274.638 264.995 274.858ZM252.15 283.473C254.397 284.383 260.341 284.209 266.99 283.811C260.367 283.111 254.443 282.66 252.15 283.473ZM266.99 283.811C267.367 283.856 267.753 283.897 268.134 283.938C268.136 283.873 268.139 283.806 268.141 283.74C267.758 283.764 267.367 283.787 266.99 283.811ZM251.614 285.472C253.175 287.331 258.52 289.931 264.583 292.662C259.052 288.966 254.014 285.815 251.614 285.472ZM264.583 292.66C264.862 292.851 265.146 293.044 265.427 293.227C265.458 293.177 265.484 293.127 265.51 293.077C265.208 292.943 264.891 292.803 264.583 292.66ZM250.198 286.99C250.725 289.357 254.247 294.149 258.346 299.395C255.165 293.542 252.169 288.411 250.198 286.99ZM258.349 299.388C258.489 299.64 258.628 299.905 258.768 300.162C258.811 300.131 258.849 300.107 258.895 300.081C258.711 299.848 258.525 299.614 258.349 299.388ZM248.249 287.681C247.613 290.022 248.504 295.896 249.698 302.445C249.595 295.787 249.333 289.85 248.249 287.681ZM249.698 302.445C249.703 302.707 249.707 302.979 249.707 303.248C249.757 303.241 249.798 303.236 249.846 303.236C249.798 302.972 249.748 302.705 249.698 302.445ZM246.197 287.381C244.546 289.164 242.603 294.774 240.618 301.13C243.623 295.188 246.149 289.81 246.197 287.381ZM240.618 301.13C240.499 301.358 240.382 301.594 240.268 301.833C240.308 301.852 240.344 301.864 240.389 301.883C240.463 301.635 240.544 301.377 240.618 301.13ZM244.526 286.166C242.229 286.971 237.904 291.046 233.192 295.748C238.616 291.885 243.352 288.289 244.526 286.166ZM233.192 295.748C232.966 295.908 232.73 296.077 232.501 296.239C232.534 296.278 232.565 296.306 232.599 296.347C232.794 296.144 232.997 295.946 233.192 295.748ZM243.604 284.312C241.197 283.959 235.48 285.553 229.119 287.527C235.721 286.628 241.574 285.646 243.604 284.312ZM229.119 287.531C228.807 287.574 228.488 287.612 228.166 287.66C228.178 287.71 228.192 287.76 228.209 287.81C228.514 287.722 228.819 287.624 229.119 287.531ZM243.652 282.241C241.688 280.813 235.876 279.569 229.329 278.363C235.587 280.627 241.233 282.479 243.652 282.241ZM229.329 278.363C228.988 278.239 228.638 278.111 228.299 277.987C228.28 278.049 228.261 278.108 228.249 278.17C228.614 278.232 228.979 278.297 229.329 278.363ZM244.653 280.429C243.58 278.258 239.021 274.457 233.783 270.349C238.271 275.258 242.403 279.526 244.653 280.429ZM233.783 270.351C233.502 270.041 233.221 269.731 232.937 269.419C232.887 269.472 232.839 269.524 232.792 269.574C233.125 269.834 233.461 270.094 233.783 270.351ZM246.383 279.293C246.44 276.869 244.167 271.378 241.443 265.308C243.132 271.745 244.812 277.441 246.383 279.293ZM241.443 265.308C241.326 264.875 241.214 264.436 241.099 263.998C241.03 264.021 240.952 264.048 240.885 264.074C241.071 264.486 241.262 264.901 241.443 265.308Z" fill="url(#paint7_radial)"/>
<path d="M255.847 283.01C255.847 287.4 252.291 290.954 247.904 290.954C243.516 290.954 239.956 287.398 239.956 283.01C239.956 278.623 243.516 275.065 247.904 275.065C252.296 275.065 255.847 278.623 255.847 283.01Z" fill="#681711"/>
<path opacity="0.9" d="M255.847 283.01C255.847 287.4 252.291 290.954 247.904 290.954C243.516 290.954 239.956 287.398 239.956 283.01C239.956 278.623 243.516 275.065 247.904 275.065C252.296 275.065 255.847 278.623 255.847 283.01Z" fill="black"/>
<path opacity="0.5" d="M236.82 292.288C238.336 291.271 240.395 291.68 241.413 293.194C242.43 294.712 242.028 296.768 240.51 297.786C238.989 298.808 236.935 298.401 235.917 296.885C234.9 295.367 235.302 293.306 236.82 292.288Z" fill="url(#paint8_linear)"/>
<path opacity="0.5" d="M254.181 281.905C253.332 283.168 250.909 283.02 248.759 281.581C246.607 280.139 245.551 277.944 246.397 276.683L246.4 276.681C247.243 275.418 249.669 275.563 251.819 277.007C253.971 278.447 255.027 280.639 254.183 281.902C254.181 281.905 254.181 281.905 254.181 281.905Z" fill="url(#paint9_linear)"/>
<path opacity="0.75" d="M263.826 278.533C261.905 281.48 256.953 281.654 252.765 278.928C248.581 276.199 246.743 271.6 248.662 268.654C250.582 265.711 255.535 265.532 259.722 268.259C263.904 270.99 265.739 275.592 263.826 278.533Z" fill="url(#paint10_linear)"/>
<path d="M201.43 283.01C201.43 315.917 221.169 342.587 245.518 342.587C269.867 342.587 289.607 315.917 289.607 283.01C289.607 250.101 269.867 223.429 245.518 223.429C221.169 223.429 201.43 250.101 201.43 283.01ZM215.111 280.942C214.418 277.846 214.22 274.684 214.165 271.688C218.56 271.764 223.657 269.171 227.942 267.982C232.961 266.586 244.193 264.908 252.489 266.023C263.468 267.496 271.669 275.132 278.809 287.472C278.818 287.486 278.84 287.481 278.852 287.493C278.871 287.569 278.904 287.643 278.921 287.717C279.612 290.548 277.129 292.955 273.992 294.838C262.679 297.04 251.824 299.991 240.259 298.711C217.094 296.156 216.324 284.071 215.111 280.942Z" fill="#ECB38D"/>
<path d="M247.913 313.877C270.074 316.93 290.167 303.572 292.788 284.021C295.412 264.467 279.583 246.141 257.417 243.078C235.251 240.028 215.166 253.388 212.545 272.939C209.923 292.488 225.747 310.808 247.913 313.877ZM214.165 271.688C218.56 271.764 223.657 269.171 227.942 267.982C232.961 266.586 244.193 264.908 252.489 266.023C263.468 267.496 271.669 275.132 278.809 287.472C278.818 287.486 278.84 287.481 278.851 287.493C278.87 287.569 278.904 287.643 278.921 287.717C279.612 290.548 277.128 292.955 273.992 294.838C262.679 297.04 251.824 299.99 240.258 298.711C217.097 296.151 216.327 284.066 215.114 280.937C214.418 277.846 214.22 274.684 214.165 271.688Z" fill="url(#paint11_radial)"/>
<path d="M215.111 280.942C214.418 277.846 214.22 274.684 214.165 271.688C218.56 271.764 223.657 269.171 227.942 267.982C232.961 266.586 244.193 264.908 252.489 266.023C263.468 267.496 271.668 275.132 278.808 287.472C278.818 287.486 278.839 287.481 278.851 287.493C278.87 287.569 278.904 287.643 278.92 287.717C279.611 290.548 277.128 292.955 273.992 294.838C262.679 297.04 251.824 299.991 240.258 298.711C217.094 296.156 216.324 284.071 215.111 280.942Z" fill="url(#paint12_radial)"/>
<path d="M251.305 254.298C259.196 255.497 266.967 259.474 274.212 264.541C275.761 265.625 277.539 266.857 280.337 268.406C278.349 267.956 276.49 266.817 274.753 265.771C276.564 267.672 278.268 269.965 279.669 272.191C273.402 263.485 261.831 257.21 252.087 255.313C242.728 253.49 225.893 255.652 213.551 262.711C224.799 254.551 241.508 252.809 251.305 254.298Z" fill="#BE6E39"/>
<path d="M279.011 287.443C278.93 287.45 278.853 287.41 278.811 287.341C271.671 275.32 263.47 267.877 252.489 266.443C244.198 265.356 232.966 266.991 227.942 268.352C223.493 269.555 218.157 272.262 213.653 271.969C209.472 271.695 204.72 268.368 202.211 265.98C204.899 267.989 212.184 268.428 214.363 267.913C213.691 267.739 209.947 265.396 209.222 264.701C210.988 265.706 217.842 266.755 220.047 266.197C219.415 265.864 216.269 263.714 215.54 262.866C215.874 263.156 223.59 264.629 227.537 263.314C251.221 255.425 270.515 262.236 279.638 287.026C279.671 287.109 279.659 287.202 279.611 287.276C279.561 287.35 279.483 287.398 279.394 287.407L279.011 287.443ZM214.546 280.26C213.011 286.178 217.151 299.042 239.331 300.529C255.089 301.582 276.737 294.006 274.049 294.509C262.715 296.654 251.843 299.542 240.253 298.296C213.986 295.467 216.519 280.692 214.546 280.26Z" fill="black"/>
<path d="M362.472 266.023C351.493 267.496 343.292 275.132 336.152 287.472C336.143 287.486 336.121 287.481 336.109 287.493C336.09 287.569 336.057 287.643 336.04 287.717C335.349 290.548 337.832 292.955 340.969 294.838C352.281 297.04 363.137 299.99 374.702 298.711C397.864 296.151 398.634 284.066 399.847 280.937C400.54 277.841 400.738 274.679 400.793 271.683C396.399 271.76 391.301 269.167 387.016 267.977C381.999 266.586 370.768 264.908 362.472 266.023Z" fill="url(#paint13_radial)"/>
<path d="M387.317 283.01C387.317 294.197 378.246 303.267 367.062 303.267C355.875 303.267 346.803 294.197 346.803 283.01C346.803 271.824 355.875 262.754 367.062 262.754C378.246 262.751 387.317 271.822 387.317 283.01Z" fill="#681711"/>
<path d="M364.79 262.98C364.711 262.99 364.633 262.999 364.549 263.009C364.647 263.464 364.742 263.924 364.835 264.379C364.818 263.914 364.806 263.442 364.79 262.98ZM364.833 264.374C365.069 271.03 365.457 276.962 366.577 279.109C367.171 276.759 366.165 270.904 364.833 264.374ZM366.582 279.114C366.437 279.676 366.217 280.06 365.881 280.191C365.543 280.317 365.121 280.172 364.64 279.843C364.778 280.406 364.764 280.849 364.518 281.123C364.275 281.395 363.839 281.461 363.262 281.385C363.643 281.824 363.839 282.226 363.753 282.577C363.66 282.929 363.303 283.192 362.764 283.394C363.3 283.604 363.66 283.868 363.744 284.221C363.829 284.574 363.634 284.972 363.255 285.408C363.829 285.339 364.27 285.41 364.506 285.682C364.747 285.954 364.759 286.399 364.625 286.962C365.1 286.635 365.521 286.492 365.86 286.623C366.201 286.75 366.418 287.138 366.553 287.705C366.825 287.193 367.132 286.864 367.497 286.828C367.85 286.781 368.229 287.028 368.608 287.465C368.612 286.883 368.734 286.457 369.039 286.249C369.335 286.044 369.78 286.085 370.319 286.292C370.057 285.777 369.966 285.344 370.133 285.019C370.302 284.698 370.717 284.526 371.293 284.459C370.819 284.126 370.528 283.785 370.536 283.42C370.533 283.056 370.819 282.715 371.301 282.386C370.726 282.315 370.319 282.141 370.147 281.821C369.98 281.5 370.073 281.061 370.34 280.546C369.794 280.749 369.356 280.789 369.058 280.584C368.758 280.379 368.636 279.948 368.634 279.369C368.257 279.803 367.881 280.041 367.519 279.993C367.156 279.946 366.846 279.626 366.582 279.114ZM368.631 279.367C370.25 277.56 372.078 271.907 373.932 265.513C371.048 271.509 368.636 276.941 368.631 279.367ZM373.929 265.511C374.132 265.101 374.339 264.682 374.532 264.262C374.461 264.236 374.389 264.205 374.318 264.174C374.189 264.622 374.06 265.07 373.929 265.511ZM370.34 280.544C372.611 279.693 376.861 275.537 381.472 270.737C376.134 274.71 371.47 278.399 370.34 280.544ZM381.472 270.74C381.81 270.487 382.156 270.232 382.504 269.982C382.454 269.922 382.401 269.87 382.361 269.815C382.065 270.118 381.772 270.432 381.472 270.74ZM371.293 282.386C373.7 282.684 379.394 280.978 385.716 278.871C379.136 279.908 373.295 281.006 371.293 282.386ZM385.716 278.871C386.088 278.818 386.474 278.757 386.856 278.697C386.839 278.635 386.825 278.568 386.808 278.504C386.446 278.625 386.074 278.749 385.716 278.871ZM371.289 284.455C373.281 285.844 379.115 286.974 385.678 288.041C379.382 285.904 373.698 284.164 371.289 284.455ZM385.678 288.041C386 288.153 386.324 288.268 386.641 288.37C386.658 288.313 386.672 288.258 386.684 288.201C386.357 288.153 386.014 288.099 385.678 288.041ZM370.316 286.287C371.439 288.437 376.084 292.155 381.396 296.158C376.811 291.332 372.588 287.15 370.316 286.287ZM381.4 296.151C381.598 296.359 381.806 296.578 382.003 296.79C382.037 296.749 382.068 296.716 382.106 296.68C381.87 296.504 381.627 296.325 381.4 296.151ZM368.612 287.46C368.603 289.888 370.984 295.329 373.834 301.347C372.013 294.941 370.221 289.273 368.612 287.46ZM373.836 301.347C373.908 301.599 373.984 301.859 374.051 302.119C374.101 302.1 374.137 302.083 374.182 302.071C374.067 301.828 373.951 301.582 373.836 301.347ZM366.553 287.701C365.419 289.85 364.997 295.77 364.723 302.424C366.091 295.911 367.132 290.06 366.553 287.701ZM364.725 302.424C364.671 302.676 364.621 302.934 364.568 303.193C364.616 303.203 364.652 303.205 364.699 303.21C364.706 302.953 364.718 302.681 364.725 302.424ZM364.625 286.959C362.614 288.332 359.492 293.387 356.158 299.147C360.395 294.014 364.039 289.314 364.625 286.959ZM356.16 299.147C355.984 299.361 355.798 299.588 355.615 299.8C355.658 299.828 355.696 299.848 355.741 299.881C355.879 299.635 356.022 299.39 356.16 299.147ZM363.257 285.408C360.839 285.692 355.727 288.709 350.098 292.26C356.239 289.686 361.639 287.224 363.257 285.408ZM350.098 292.267C349.807 292.388 349.509 292.51 349.211 292.638C349.233 292.684 349.261 292.729 349.29 292.774C349.561 292.607 349.831 292.434 350.098 292.267ZM362.764 283.394C360.498 282.524 354.564 282.827 347.924 283.356C354.559 283.923 360.491 284.252 362.764 283.394ZM347.927 283.356C347.567 283.323 347.193 283.289 346.837 283.258C346.835 283.323 346.83 283.385 346.835 283.449C347.204 283.413 347.569 283.382 347.927 283.356ZM363.262 281.385C361.665 279.567 356.275 277.074 350.157 274.462C355.76 278.042 360.855 281.094 363.262 281.385ZM350.157 274.462C349.807 274.236 349.449 274.012 349.094 273.783C349.063 273.845 349.032 273.909 348.997 273.969C349.387 274.136 349.781 274.298 350.157 274.462ZM364.64 279.841C364.07 277.484 360.45 272.77 356.249 267.61C359.549 273.39 362.643 278.459 364.64 279.841ZM356.251 267.61C356.025 267.222 355.803 266.826 355.581 266.433C355.519 266.476 355.45 266.521 355.393 266.562C355.677 266.912 355.972 267.265 356.251 267.61Z" fill="url(#paint14_radial)"/>
<path d="M370.05 263.044C369.969 263.035 369.893 263.02 369.812 263.011C369.786 263.478 369.759 263.948 369.731 264.407C369.833 263.955 369.945 263.497 370.05 263.044ZM369.728 264.405C368.234 270.897 367.073 276.726 367.603 279.09C368.785 276.974 369.323 271.057 369.728 264.405ZM367.605 279.093C367.321 279.598 367.009 279.912 366.649 279.95C366.292 279.984 365.92 279.734 365.544 279.293C365.529 279.872 365.401 280.296 365.095 280.496C364.79 280.694 364.35 280.646 363.811 280.425C364.066 280.947 364.152 281.385 363.975 281.702C363.797 282.019 363.382 282.181 362.81 282.236C363.272 282.579 363.554 282.925 363.544 283.287C363.537 283.649 363.244 283.983 362.765 284.307C363.337 284.388 363.742 284.571 363.904 284.896C364.064 285.22 363.963 285.653 363.687 286.163C364.233 285.97 364.674 285.942 364.967 286.156C365.26 286.366 365.372 286.8 365.358 287.381C365.753 286.959 366.132 286.719 366.497 286.778C366.849 286.826 367.15 287.16 367.407 287.681C367.56 287.119 367.788 286.738 368.136 286.616C368.477 286.495 368.894 286.65 369.364 286.99C369.242 286.426 369.266 285.982 369.514 285.713C369.762 285.444 370.205 285.389 370.782 285.47C370.408 285.024 370.214 284.621 370.317 284.269C370.41 283.916 370.775 283.661 371.325 283.468C370.786 283.251 370.439 282.977 370.355 282.624C370.279 282.269 370.481 281.871 370.875 281.445C370.296 281.5 369.857 281.423 369.626 281.147C369.39 280.873 369.383 280.425 369.533 279.865C369.054 280.184 368.627 280.317 368.291 280.179C367.941 280.046 367.729 279.657 367.605 279.093ZM369.521 279.872C371.551 278.542 374.778 273.556 378.224 267.861C373.887 272.906 370.153 277.527 369.521 279.872ZM378.224 267.856C378.525 267.51 378.832 267.16 379.13 266.807C379.066 266.762 379.006 266.712 378.944 266.664C378.703 267.067 378.463 267.465 378.224 267.856ZM370.865 281.449C373.279 281.214 378.46 278.299 384.156 274.855C377.969 277.312 372.509 279.669 370.865 281.449ZM384.154 274.858C384.547 274.703 384.947 274.545 385.348 274.393C385.314 274.324 385.278 274.259 385.252 274.195C384.888 274.412 384.523 274.638 384.154 274.858ZM371.308 283.473C373.556 284.383 379.499 284.209 386.148 283.811C379.526 283.111 373.601 282.66 371.308 283.473ZM386.148 283.811C386.525 283.856 386.911 283.897 387.292 283.938C387.295 283.873 387.297 283.806 387.299 283.74C386.916 283.764 386.525 283.787 386.148 283.811ZM370.772 285.472C372.333 287.331 377.679 289.931 383.741 292.662C378.21 288.966 373.172 285.815 370.772 285.472ZM383.741 292.66C384.02 292.851 384.304 293.044 384.585 293.227C384.616 293.177 384.642 293.127 384.668 293.077C384.366 292.943 384.049 292.803 383.741 292.66ZM369.357 286.99C369.883 289.357 373.406 294.149 377.505 299.395C374.323 293.542 371.327 288.411 369.357 286.99ZM377.507 299.388C377.648 299.64 377.786 299.905 377.926 300.162C377.969 300.131 378.007 300.107 378.053 300.081C377.869 299.848 377.683 299.614 377.507 299.388ZM367.407 287.681C366.771 290.022 367.662 295.896 368.856 302.445C368.754 295.787 368.491 289.85 367.407 287.681ZM368.856 302.445C368.861 302.707 368.866 302.979 368.866 303.248C368.916 303.241 368.956 303.236 369.004 303.236C368.956 302.972 368.906 302.705 368.856 302.445ZM365.355 287.381C363.704 289.164 361.761 294.774 359.776 301.13C362.781 295.188 365.308 289.81 365.355 287.381ZM359.776 301.13C359.657 301.358 359.54 301.594 359.426 301.833C359.466 301.852 359.502 301.864 359.547 301.883C359.621 301.635 359.702 301.377 359.776 301.13ZM363.685 286.166C361.387 286.971 357.062 291.046 352.35 295.748C357.774 291.885 362.51 288.289 363.685 286.166ZM352.35 295.748C352.124 295.908 351.888 296.077 351.659 296.239C351.693 296.278 351.724 296.306 351.757 296.347C351.952 296.144 352.155 295.946 352.35 295.748ZM362.762 284.312C360.355 283.959 354.638 285.553 348.277 287.527C354.879 286.628 360.732 285.646 362.762 284.312ZM348.277 287.531C347.965 287.574 347.646 287.612 347.324 287.66C347.336 287.71 347.35 287.76 347.367 287.81C347.672 287.722 347.977 287.624 348.277 287.531ZM362.81 282.241C360.846 280.813 355.034 279.569 348.487 278.363C354.745 280.627 360.391 282.479 362.81 282.241ZM348.487 278.363C348.146 278.239 347.796 278.111 347.458 277.987C347.439 278.049 347.42 278.108 347.408 278.17C347.772 278.232 348.137 278.297 348.487 278.363ZM363.811 280.429C362.739 278.258 358.18 274.457 352.941 270.349C357.429 275.258 361.561 279.526 363.811 280.429ZM352.941 270.351C352.66 270.041 352.379 269.731 352.095 269.419C352.045 269.472 351.998 269.524 351.95 269.574C352.284 269.834 352.62 270.094 352.941 270.351ZM365.541 279.293C365.598 276.869 363.325 271.378 360.601 265.308C362.29 271.745 363.971 277.441 365.541 279.293ZM360.601 265.308C360.484 264.875 360.372 264.436 360.258 263.998C360.189 264.021 360.11 264.048 360.043 264.074C360.229 264.486 360.42 264.901 360.601 265.308Z" fill="url(#paint15_radial)"/>
<path d="M375.005 283.01C375.005 287.4 371.45 290.954 367.062 290.954C362.675 290.954 359.114 287.398 359.114 283.01C359.114 278.623 362.675 275.065 367.062 275.065C371.454 275.065 375.005 278.623 375.005 283.01Z" fill="#681711"/>
<path opacity="0.9" d="M375.005 283.01C375.005 287.4 371.45 290.954 367.062 290.954C362.675 290.954 359.114 287.398 359.114 283.01C359.114 278.623 362.675 275.065 367.062 275.065C371.454 275.065 375.005 278.623 375.005 283.01Z" fill="black"/>
<path opacity="0.5" d="M355.979 292.288C357.494 291.271 359.553 291.68 360.571 293.194C361.589 294.712 361.186 296.768 359.668 297.786C358.147 298.808 356.093 298.401 355.075 296.885C354.058 295.367 354.461 293.306 355.979 292.288Z" fill="url(#paint16_linear)"/>
<path opacity="0.5" d="M373.339 281.905C372.491 283.168 370.067 283.02 367.917 281.581C365.765 280.139 364.709 277.944 365.556 276.683L365.558 276.681C366.402 275.418 368.828 275.563 370.977 277.007C373.129 278.447 374.185 280.639 373.341 281.902C373.339 281.905 373.339 281.905 373.339 281.905Z" fill="url(#paint17_linear)"/>
<path opacity="0.75" d="M382.984 278.533C381.063 281.48 376.111 281.654 371.924 278.928C367.739 276.199 365.901 271.6 367.82 268.654C369.741 265.711 374.693 265.532 378.88 268.259C383.063 270.99 384.898 275.592 382.984 278.533Z" fill="url(#paint18_linear)"/>
<path d="M369.443 223.429C345.094 223.429 325.354 250.104 325.354 283.01C325.354 315.917 345.094 342.587 369.443 342.587C393.792 342.587 413.532 315.917 413.532 283.01C413.532 250.101 393.792 223.429 369.443 223.429ZM374.705 298.713C363.137 299.993 352.284 297.04 340.971 294.84C337.835 292.955 335.352 290.551 336.043 287.72C336.06 287.643 336.093 287.569 336.112 287.496C336.124 287.484 336.145 287.488 336.155 287.474C343.295 275.134 351.495 267.498 362.475 266.026C370.768 264.91 382 266.588 387.021 267.985C391.306 269.174 396.406 271.767 400.798 271.69C400.743 274.686 400.546 277.846 399.852 280.944C398.637 284.071 397.867 296.156 374.705 298.713Z" fill="#ECB38D"/>
<path d="M402.416 272.939C399.792 253.385 379.709 240.025 357.543 243.078C335.378 246.141 319.551 264.469 322.173 284.021C324.794 303.572 344.886 316.93 367.048 313.877C389.213 310.808 405.038 292.488 402.416 272.939ZM399.849 280.942C398.636 284.071 397.867 296.156 374.705 298.715C363.137 299.995 352.284 297.043 340.971 294.843C337.835 292.958 335.351 290.553 336.043 287.722C336.059 287.646 336.093 287.572 336.112 287.498C336.124 287.486 336.145 287.491 336.155 287.477C343.295 275.136 351.495 267.501 362.474 266.028C370.768 264.913 382 266.59 387.021 267.987C391.306 269.176 396.406 271.769 400.798 271.693C400.741 274.684 400.543 277.846 399.849 280.942Z" fill="url(#paint19_radial)"/>
<path d="M399.849 280.942C400.543 277.846 400.741 274.684 400.796 271.688C396.401 271.764 391.303 269.171 387.018 267.982C381.999 266.586 370.768 264.908 362.472 266.023C351.493 267.496 343.292 275.132 336.152 287.472C336.143 287.486 336.121 287.481 336.109 287.493C336.09 287.569 336.057 287.643 336.04 287.717C335.349 290.548 337.832 292.955 340.969 294.838C352.281 297.04 363.137 299.991 374.702 298.711C397.867 296.156 398.636 284.071 399.849 280.942Z" fill="url(#paint20_radial)"/>
<path d="M363.657 254.298C355.766 255.497 347.995 259.474 340.75 264.541C339.201 265.625 337.423 266.857 334.625 268.406C336.613 267.956 338.471 266.817 340.209 265.771C338.398 267.672 336.694 269.965 335.292 272.191C341.56 263.485 353.13 257.21 362.875 255.313C372.234 253.49 389.068 255.652 401.411 262.711C390.162 254.551 373.454 252.809 363.657 254.298Z" fill="#BE6E39"/>
<path d="M335.564 287.41C335.476 287.403 335.397 287.353 335.347 287.279C335.299 287.205 335.29 287.112 335.321 287.028C344.443 262.239 363.74 255.428 387.421 263.316C391.368 264.632 399.087 263.156 399.418 262.868C398.689 263.714 395.543 265.866 394.912 266.2C397.116 266.757 403.97 265.709 405.736 264.703C405.009 265.399 401.268 267.742 400.596 267.916C402.774 268.43 410.059 267.992 412.747 265.983C410.238 268.371 405.486 271.698 401.306 271.972C396.801 272.267 391.466 269.56 387.016 268.354C381.995 266.993 370.763 265.361 362.47 266.445C351.488 267.88 343.288 275.322 336.148 287.343C336.105 287.412 336.028 287.453 335.947 287.446L335.564 287.41ZM374.705 298.294C363.118 299.54 352.243 296.654 340.909 294.507C338.221 294.004 359.87 301.582 375.627 300.527C397.81 299.04 401.947 286.178 400.412 280.258C398.441 280.692 400.974 295.467 374.705 298.294Z" fill="black"/>
<path d="M403.293 342.606C403.377 395.691 360.408 438.803 307.316 438.877C254.234 438.962 211.129 395.996 211.046 342.902C210.965 289.819 253.931 246.715 307.023 246.631C360.108 246.55 403.215 289.517 403.293 342.606Z" fill="url(#paint21_radial)"/>
<path d="M390.892 206.747C390.892 252.811 353.545 290.158 307.481 290.158C261.417 290.158 224.07 252.811 224.07 206.747C224.07 160.683 261.417 123.336 307.481 123.336C353.545 123.336 390.892 160.683 390.892 206.747Z" fill="url(#paint22_radial)"/>
<path d="M193.099 259.179C258.121 207.693 302.769 252.077 285.849 251.391C283.197 251.317 253.862 225.917 193.099 259.179Z" fill="#2A232B"/>
<path d="M421.863 259.179C402.08 243.517 381.735 233.374 355.963 234.692C322.721 236.972 320.762 257.039 332.644 249.787C339.272 245.74 348.661 242.685 358.482 242.323C379.662 241.079 401.88 248.247 421.863 259.179Z" fill="#2A232B"/>
<path d="M301.196 293.978C301.196 293.978 301.327 312.953 300.105 316.646C297.414 324.761 285.513 343.569 287.021 348.786C289.369 356.896 300.884 357.489 306.704 357.773C312.276 358.047 323.603 357.642 325.428 352.37C326.172 350.225 324.568 344.751 324.568 344.751C324.568 344.751 319.408 350.061 307.252 349.47C303.782 349.303 298.139 345.895 298.074 341.088C297.989 334.573 302.376 327.099 303.162 320.633C303.758 315.722 301.196 293.978 301.196 293.978Z" fill="#DD9A6E"/>
<path d="M317.512 352.198C319.612 352.198 320.179 352.756 320.179 353.442C320.179 354.134 319.526 355.194 317.512 354.686C315.3 354.136 311.44 354.391 311.44 354.391C311.44 354.391 315.412 352.198 317.512 352.198ZM297.472 352.198C295.372 352.201 294.805 352.761 294.805 353.45C294.805 354.136 295.437 355.127 297.472 354.691C299.715 354.212 303.544 354.393 303.544 354.393C303.544 354.393 299.574 352.206 297.472 352.198ZM324.566 344.749C324.566 344.749 327.474 348.047 326.868 351.534C326.282 354.92 320.412 356.412 320.412 356.412C320.412 356.412 324.488 353.826 324.981 350.685C325.21 349.217 324.566 344.749 324.566 344.749ZM288.702 341.355C288.702 341.355 286.581 345.974 287.196 348.783C288.309 353.86 294.422 355.89 294.422 355.89C294.422 355.89 290.606 352.406 289.25 349.329C287.77 345.974 288.702 341.355 288.702 341.355Z" fill="#BE6E39"/>
<path d="M317.409 347.206C319.444 345.688 319.647 344.823 319.227 344.258C318.808 343.691 317.588 343.331 315.884 345.161C314.006 347.177 309.921 348.664 309.921 348.664C309.921 348.664 315.374 348.724 317.409 347.206Z" fill="#FBCEAF"/>
<path opacity="0.1" d="M427.916 133.832C416.618 125.51 183.651 135.404 175.174 148.192C167.799 159.319 160.987 627.816 162.27 627.94C195.067 630.566 293.143 630.097 363.718 628.707C315.173 626.765 208.72 622.502 207.073 622.399C203.474 590.706 209.168 562.32 212.309 546.662C213.005 543.19 213.555 540.449 213.865 538.338L213.908 537.983C214.799 528.722 213.029 520.741 211.155 512.285C208.622 500.841 205.998 489.006 209.88 471.876C215.295 448.095 211.432 431.689 208.327 418.508C207.109 413.339 206.058 408.875 205.743 404.714C204.978 394.576 209.413 388.642 214.547 381.771C222.559 371.052 227.168 349.451 213.97 331.074C203.42 316.384 205.615 311.952 209.204 304.18C212.845 296.299 217.833 285.506 212.042 264.734C207.771 249.403 201.925 228.41 242.74 202.924C256.049 194.607 269.471 189.488 281.313 184.974C296.342 179.243 316.596 162.577 322.716 151.936C325.407 177.482 342.513 202.738 353.697 214.342C369.04 230.257 381.156 242.828 374.898 288.327C372.25 307.564 376.185 316.635 379.652 327.137C381.18 331.765 383.48 336.551 384.836 342.952C387.071 353.412 384.759 363.29 381.547 373.749C378.728 382.929 378.549 392.348 378.701 403.124C380.77 396.835 387.672 385.263 388.763 377.751C391.649 357.899 395.129 248.686 394.869 236.274C415.383 255.175 419.682 283.113 415.195 300.851C413.088 309.175 408.393 339.234 407.64 348.972C406.129 368.476 408.398 363.983 407.469 376.757C406.57 389.235 402.13 395.698 394.311 408.892C376.211 439.799 383.627 457.649 390.798 474.908C393.472 481.349 396.239 488.01 397.662 495.529C400.445 509.959 394.974 530.585 389.681 550.53C384.593 569.705 379.333 589.531 380.884 605.703C381.259 609.549 385.165 620.59 387.05 628.19C413.396 627.533 433.045 626.756 439.158 626.024C460.134 623.507 449.777 149.939 427.916 133.832Z" fill="#543C32"/>
<path d="M473.99 217.493C473.127 187.253 466.714 161.383 454.903 140.531C451.963 125.352 445.971 106.006 425.588 90.987C414.842 83.0726 393.046 74.6338 372.472 70.4037C344.689 44.7322 342.988 67.5391 313.651 55.7067C306.759 52.9255 301.952 51.0285 290.999 58.3544C276.023 54.5628 259.188 54.2101 248.54 56.262C236.949 58.4926 221.725 66.0758 210.546 75.1795C191.557 80.3033 178.027 88.785 170.335 100.391C163.454 110.772 160.18 122.183 160.578 134.42C157.027 141.713 154.915 149.472 153.884 158.953C147.413 167.958 140.581 179.36 135.657 189.042C131.329 197.512 123.953 236.82 128.017 253.993C99.4711 304.788 118.656 328.079 130.34 370.291C121.782 390.327 121.835 408.551 130.519 429.525C120.734 468.051 109.859 473.592 119.721 568.461C125.083 620.05 122.876 621.556 122.876 635.492L123.112 635.254C149.789 635.054 162.606 626.358 177.632 628.224C179.922 628.362 200.56 630.206 201.23 630.273C391.073 645.475 375.67 627.049 480.561 625.297C478.592 605.989 476.328 552.839 479.712 531.644C484.688 500.388 479.934 463.735 470.825 437.266C481.106 417.917 480.136 408.081 473.597 388.542C486.807 349.908 492.417 330.292 484.202 293.832C493.368 267.382 488.106 241.968 473.99 217.493ZM413.41 339.26C412.533 351.908 415.529 364.577 414.602 377.269C413.556 391.816 408.019 399.688 400.484 412.502C377.565 451.638 399.307 465.694 404.685 494.176C410.569 524.663 384.991 573.606 388.006 605.014C388.578 610.901 391.983 625.452 393.256 630.936C345.099 636.379 228.062 631.141 200.744 629.141C194.469 586.788 205.117 548.693 206.792 537.299C208.732 517.125 195.811 501.623 202.912 470.289C210.076 438.836 199.829 421.246 198.618 405.253C196.247 373.826 234.458 372.982 208.108 335.159C184.51 301.256 216.144 306.051 205.162 266.655C200.841 251.143 193.609 225.181 238.958 196.864C275.02 174.329 309.175 175.306 323.288 147.601C337.997 224.947 391.64 201.804 379.603 289.304C376.066 315 383.246 319.985 387.789 341.46C392.474 363.38 378.046 381.159 378.356 403.101C384.228 385.26 399.557 368.428 400.019 349.82C400.374 335.03 394.223 320.779 394.347 305.951C394.44 294.111 397.941 282.582 399.783 271.073C408.622 216.11 362.41 214.271 351.124 171.936L351.555 171.745C378.292 213.005 399.44 225.517 414.004 252.191C433.443 287.879 415.476 308.553 413.41 339.26Z" fill="#543C32"/>
<path d="M410.884 628.274C405.04 629.182 399.816 629.963 393.942 630.631C387.91 601.199 386.685 597.605 398.827 556.324C416.868 495.1 410.1 492.598 400.376 464C388.029 427.752 410.791 417.719 418.584 393.411C422.993 379.588 421.277 365.554 419.752 351.419C416.225 318.269 434.811 298.444 424.542 266.579C413.246 231.477 385.339 219.754 350.545 168.654C349.479 164.076 348.743 159.246 348.176 154.377C378.988 203.179 433.319 228.126 434.272 264.979C434.942 290.954 420.338 345.211 426.639 380.72C430.476 402.355 409.957 416.468 405.19 437.916C398.041 466.514 426.639 490.346 417.106 516.561C403.017 550.776 400.253 589.011 410.884 628.274ZM183.556 211.516C162.108 237.73 185.939 271.095 171.64 302.076C157.341 328.291 185.939 361.655 169.257 392.636C162.108 409.318 179.152 426.127 174.024 440.299C150.847 504.335 162.534 565.451 164.21 628.026C169.598 627.001 173.216 626.734 177.143 626.887C178.838 591.585 166.631 564.996 165.799 549.196C164.941 532.418 172.83 521.718 175.713 507.609C179.788 487.567 174.808 463.211 182.052 444.265C186.58 431.348 178.883 417.886 177.31 405.515C175.213 389.19 184.007 374.224 184.03 363.785C182.577 346.198 173.521 336.689 174.831 322.032C175.594 313.262 179.169 305.517 182.41 297.462C192.181 273.082 181.29 268.387 179.955 247.368C177.253 205.214 249.005 159.88 304.919 148.295C257.201 144.248 209.571 176.831 183.556 211.516ZM179.736 159.086C158.383 180.732 159.784 206.416 157.611 237.099C155.892 261.34 126.794 282.958 131.496 306.444C140.812 352.964 153.941 383.651 143.324 434.248C140.69 446.808 146.372 461.748 146.372 473.664C138.889 496.008 137.857 518.908 137.871 543.743C137.704 568.464 138.843 593.306 143.989 619.037C144.851 624.22 144.456 629.089 143.61 633.872C146.195 633.481 148.824 632.959 151.827 632.251C159.024 596.053 144.558 537.806 148.371 518.312C152.53 496.242 159.315 492.941 157.451 468.552C156.498 456.803 154.472 441.5 154.329 430.612C153.845 396.285 172.031 381.102 160.12 351.205C157.713 345.151 155.068 339.217 152.685 333.14C140.247 301.482 156.555 284.533 166.507 259.882C172.036 246.226 171.869 241.126 170.201 224.635C168.151 204.259 165.411 175.113 219.223 140.7C250.459 120.724 279.154 119.654 302.347 119.79C252.649 109.171 210.252 128.155 179.736 159.086ZM300.834 88.8684C284.023 84.9195 266.922 82.4767 249.567 83.9114C206.165 87.4647 161.669 113.756 157.611 160.587C178.08 101.611 235.86 75.3582 300.834 88.8684ZM371.431 215.586C357.432 199.767 321.949 166.872 328.762 128.45C328.164 134.687 325.624 143.19 323.779 147.089C337.261 211.063 381.928 206.787 385.792 259.055C387.476 249.756 378.039 223.052 371.431 215.586ZM311.952 154.191C312.049 154.239 312.149 154.274 312.247 154.32C312.149 154.272 312.049 154.236 311.952 154.191C271.164 179.767 202.264 183.478 190.706 240.114C187.689 254.896 202.75 283.082 190.706 304.459C181.273 321.198 200.238 344.973 200.238 359.272C200.238 373.571 190.706 385.487 188.323 402.169C185.939 414.085 193.089 423.617 195.472 435.533C197.855 449.832 188.323 464.131 190.706 476.047C200.651 555.799 172.52 534.608 192.66 628.255C194.945 628.46 197.505 628.667 200.427 628.867C198.186 616.761 196.399 598.768 198.449 574.65C202.119 531.61 208.148 546.243 199.664 509.709C192.753 479.946 199.116 476.13 200.403 457.232C201.594 439.692 196.113 423.963 193.897 413.381C186.318 377.348 217.061 372.129 209.84 350.823C207.814 344.866 203.835 339.694 200.427 334.499C182.362 305.977 203.813 301.316 202.333 279.138C201.237 262.17 185.651 239.267 216.299 210.241C257.646 171.085 309.583 181.75 326.56 142.003C322.726 145.488 316.194 151.531 311.952 154.191ZM445.704 526.093C448.087 504.645 443.009 484.083 435.859 462.634C431.093 438.803 451.588 425.369 455.199 402.819C459.505 375.942 439.163 353.645 455.28 314.809C473.528 270.842 463.859 229.508 435.066 210.312C400.102 186.275 379.336 160.587 361.302 121.763C377.355 205.31 431.248 212.176 445.321 256.665C454.734 286.406 436.05 310.286 438.316 343.197C439.282 357.401 445.325 370.897 443.369 385.355C439.818 411.26 414.485 426.608 420.038 459.114C422.49 473.533 428.117 487.045 429.38 501.725C431.358 524.389 427.092 547.244 429.022 570.861C430.643 590.689 434.074 585.901 429.168 625.509C434.079 624.854 446.162 624.608 451.109 624.556C444.508 591.938 439.689 558.175 445.704 526.093ZM341.481 93.5036C366.18 101.39 371.269 126.575 401.854 151.901C414.771 162.625 439.031 174.612 459.024 196.704C428.178 154.377 368.449 93.5036 341.481 93.5036ZM350.895 83.4515C374.993 83.2989 390.341 86.6306 414.795 100.186C430.952 109.147 442.844 121.158 451.588 134.599C443.895 110.391 396.78 70.1582 350.895 83.4515ZM472.512 384.738C483.833 345.771 487.648 323.062 483.261 297.157C472.563 325.59 458.18 342.327 472.512 384.738ZM153.288 163.507C141.134 183.954 135.056 211.075 133.722 219.988C132.292 229.711 128.813 239.601 130.385 249.324C156.467 204.075 150.492 203.584 153.288 163.507ZM138.276 619.037C113.122 507.974 151.548 466.309 133.951 434.248C119.985 480.584 115.117 483.053 122.044 576.438C123.927 601.914 123.713 621.98 123.141 634.97C129.063 634.835 133.417 634.551 137.897 633.872C138.743 629.089 139.437 624.16 138.276 619.037ZM131.029 373.418C126.498 388.909 127.897 405.288 132.244 421.031C136.153 402.133 135.319 389.526 131.029 373.418ZM477.493 499.938C476.924 471.388 473.728 453.299 469.605 440.001C462.146 453.514 453.209 466.648 455.592 482.448C456.474 488.26 458.357 493.768 459.572 499.485C463.766 519.292 454.853 531.443 458.19 563.116C459.438 574.905 464.279 585.892 462.837 624.914C473.227 625.195 475.663 624.961 479.352 624.961C468.218 537.163 478.02 526.546 477.493 499.938Z" fill="#452C22"/>
<path d="M167.289 161.553C173.824 149.727 180.837 138.626 189.939 128.579C233.007 81.0254 293.866 98.7418 303.952 98.3367C298.106 98.5726 262.635 91.416 228.362 104.967C193.93 118.584 179.179 141.863 167.289 161.553ZM264.832 110.219C286.778 110.121 310.713 117.776 313.096 118.896C309.89 117.39 284.86 108.575 265.861 108.572C248.393 108.57 231.787 115.629 216.33 123.057C231.715 116.315 247.792 110.295 264.832 110.219ZM294.381 131.436C294.96 131.363 310.875 129.62 311.142 130.13C311.032 129.918 307.943 130.147 307.676 130.147C248.35 130.276 189.691 161.696 173.952 209.383C192.846 160.161 255.211 136.434 294.381 131.436ZM273.438 143.624C261.836 146.987 250.168 151.395 239.754 157.592C243.858 155.151 248.619 153.34 253.04 151.584C287.281 137.962 305.868 140.49 309.716 140.662C297.548 139.661 285.253 140.199 273.438 143.624ZM202.133 210.202C220.381 184.993 275.537 170.408 303.916 155.135C272.134 170.804 223.846 180.203 202.133 210.202ZM125.889 288.747C121.301 304.237 129.325 329.349 134.566 344.773C131.105 334.582 124.333 304.547 128.727 290.141C134.78 270.311 147.976 253.607 153.419 233.505C146.01 255.971 130.979 271.581 125.889 288.747ZM186.762 395.915C186.221 397.898 185.168 400.193 185.065 402.252C185.144 400.665 186.373 398.651 186.922 397.193C198.327 366.888 200.315 358.883 185.396 328.553C194.202 350.988 197.091 358.056 186.762 395.915ZM158.986 474.86C158.984 475.27 159.16 482.3 159.358 482.658C159.031 482.069 159.37 480.389 159.382 479.75C159.989 447.852 175.816 436.567 163.083 402.402C172.73 435.535 159.243 438.305 158.986 474.86ZM187.496 512.9C185.985 525.061 179.801 543.142 179.386 567.074C179.331 570.158 179.941 573.242 179.884 576.314C179.951 572.615 179.717 568.952 179.96 565.249C181.109 547.849 185.017 538.841 187.258 526.103C192.024 500.624 187.696 496.942 186.247 470.651C186.323 486.969 189.023 500.62 187.496 512.9ZM166.326 345.609C171.107 363.84 169.972 365.828 170.292 376.078C170.17 372.146 172.542 367.184 167.854 345.075C156.198 290.172 176.626 309.711 171.898 255.385C174.179 310.979 152.337 292.245 166.326 345.609ZM369.184 212.505C406.025 258.714 375.597 301.344 389.591 325.421C378.878 306.999 398.196 270.837 384.753 234.029C376.414 211.218 354.229 197.584 342.027 172.339C335.946 159.753 330.834 147.113 330.007 133.043C331.26 172.696 361.66 203.074 369.184 212.505ZM377.386 187.817C383.554 194.502 390.334 201.206 397.936 206.268C394.972 204.295 392.331 201.563 389.784 199.104C352.02 162.665 350.993 133.343 348.686 116.168C351.648 149.672 356.56 165.242 377.386 187.817ZM389.85 155.804C412.6 186.199 488.447 226.863 472.332 282.381C472.332 282.384 467.334 298.175 467.334 298.175C479.202 269.929 480.337 248.648 458.633 218.365C438.667 190.513 407.879 177.341 387.987 152.115C384.808 148.088 382.115 143.757 379.167 139.57C382.529 145.156 385.94 150.58 389.85 155.804ZM452.337 157.756C442.306 122.747 402.221 95.3411 359.422 94.2996C405.353 97.8219 445.223 132.924 452.337 157.756ZM312.693 148.843C322.34 140.543 329.206 134.442 332.499 102.04C329.98 120.181 325.984 137.406 312.693 148.843ZM460.127 404.061C459.458 422.199 451.922 430.645 446.925 442.709C435.719 469.755 449.251 488.446 451.727 510.915C451.746 511.084 452.444 518.214 452.306 518.312C452.358 518.272 452.263 517.473 452.261 517.404C451.798 487.882 437.428 471.991 449.661 443.095C459.71 419.347 467.944 414.08 454.992 365.456C456.853 374.758 460.676 389.271 460.127 404.061ZM412.803 469.424C422.709 496.604 420.2 495.117 421.346 500.841C421.277 500.496 421.127 494.304 419.595 487.329C416.029 471.083 408.234 456.953 410.172 437.79C412.059 419.151 425.584 406.411 426.78 389.443C427.159 384.073 426.47 379.083 425.507 373.821C431.651 417.142 393.549 416.646 412.803 469.424ZM429.556 310.071C428.97 312.924 428.708 316.129 427.75 318.879C430.107 312.092 431.453 304.621 432.976 297.617C440.888 261.307 432.776 249.587 410.312 220.517C429.802 249.189 440.297 257.897 429.556 310.071Z" fill="#634E45"/>
<path d="M485.381 243.44C482.498 233.741 478.682 225.162 474.226 217.488C473.561 194.157 469.245 165.368 455.136 140.488C451.991 124.258 445.749 105.551 425.728 90.7987C415.147 83.0058 393.675 74.5217 372.631 70.232C357.546 56.2905 351.445 56.219 338.102 58.4592C311.67 62.8681 310.884 44.4939 291.058 58.1256C276.282 54.384 259.386 53.9312 248.495 56.0284C236.722 58.2924 221.541 65.9185 210.507 74.9507C210.483 74.9507 210.483 74.9507 210.483 74.9507C193.348 79.574 178.525 87.6053 170.136 100.26C162.224 112.2 160.008 124.044 160.365 134.315C156.362 142.537 154.55 150.664 153.692 158.814C146.328 169.062 139.536 180.906 135.652 188.532C131.069 197.5 123.684 236.57 127.811 253.879C123.712 261.171 120.042 268.249 117.754 275.16C115.538 281.857 114.132 288.482 113.322 295.489C111.916 308.048 114.18 321.394 118.112 333.31C123.164 348.586 127.263 360.144 130.123 370.199C120.9 391.792 122.211 410.069 130.29 429.468C128.479 436.593 126.095 444.603 123.093 453.895C105.815 507.257 123.116 570.337 123.069 618.524C123.069 623.052 122.878 629.201 122.664 634.992C122.64 635.159 122.64 635.326 122.64 635.492C122.807 635.516 122.95 635.516 123.116 635.492C132.792 635.421 137.821 634.92 145.9 633.205C146.114 633.157 146.328 633.109 146.567 633.062C149.307 632.466 152.429 631.725 156.195 630.843C166.013 628.531 170.184 628.009 177.071 628.412C177.238 628.412 177.429 628.436 177.619 628.46C182.719 628.769 189.368 629.556 200.736 630.462C200.903 630.488 201.046 630.488 201.213 630.512C208.934 631.131 218.8 631.822 231.789 632.442C246.398 633.064 260.959 634.11 275.567 634.875C299.423 636.114 323.3 636.877 347.182 636.043C362.386 635.516 377.948 634.539 393.439 632.683C393.725 632.659 394.011 632.611 394.32 632.587C401.279 631.729 408.214 630.728 415.102 629.463C420.011 628.581 424.205 627.892 427.852 627.342C428.233 627.294 428.593 627.247 428.948 627.199C443.247 625.171 449.562 625.531 461.478 625.671C461.907 625.671 462.36 625.695 462.813 625.695C467.341 625.721 472.658 625.721 479.447 625.552C479.9 625.552 480.353 625.528 480.829 625.528C480.806 625.338 480.779 625.147 480.779 624.933C478.041 593.546 477.109 549.458 479.945 531.679C484.211 504.893 481.518 476.936 475.036 450.676C473.794 445.669 472.462 441.31 471.03 437.378C473.818 432.135 476.249 426.82 477.607 421.22C480.517 409.256 477.464 399.366 473.818 388.618C480.825 368.123 487.903 344.553 488.239 331.78C488.644 316.337 486.475 302.846 484.423 293.909C489.266 279.948 491.628 264.458 485.381 243.44ZM133.722 219.988C135.056 211.075 141.133 183.954 153.287 163.507C152.096 180.594 153.907 197.872 147.043 216.604C142.897 227.971 136.415 238.862 130.385 249.324C128.812 239.601 132.292 229.711 133.722 219.988ZM129.837 378.161C130.171 376.538 130.576 374.965 131.029 373.418C135.318 389.528 136.152 402.135 132.244 421.031C128.645 407.996 126.644 393.125 129.837 378.161ZM339.105 633.419C313.724 633.943 288.081 632.823 262.725 631.536C247.52 630.776 232.339 630.249 217.135 629.725C210.724 629.511 205.41 629.225 200.953 628.915C194.542 586.947 205.672 546.55 207.03 537.33C208.984 517.023 196.044 501.675 203.146 470.339C210.343 438.738 200.071 421.294 198.856 405.231C196.973 380.279 220.304 375.656 217.397 353.829C215.419 338.743 199.118 329.16 199.118 313.553C201.263 298.611 211.272 293.701 206.816 272.134C203.884 257.882 187.941 228.998 239.084 197.064C274.783 174.758 309.435 175.234 323.185 148.328C326.355 165.177 331.836 181.43 344.539 196.564C353.642 207.312 364.676 216.677 372.016 228.855C387.793 255.094 379.023 285.336 378.284 298.682C377.429 313.887 384.483 326.994 387.557 341.508C390.724 356.333 384.933 370.082 380.908 384.095C378.999 390.744 378.213 396.583 378.144 401.563C378.094 402.564 378.117 403.518 378.167 404.423C378.334 403.947 378.477 403.47 378.644 402.993C385.603 383.475 399.807 368.128 400.257 349.822C400.614 334.952 394.466 320.796 394.585 305.948C394.68 294.104 398.16 282.713 400.019 271.107C408.169 220.44 369.633 214.697 354.619 181.214C353.309 178.306 352.236 175.184 351.354 171.872C353.809 175.661 356.335 179.379 358.933 183.072C381.144 214.602 400.614 228.162 413.796 252.303C433.195 287.908 415.247 308.475 413.176 339.241C412.294 351.967 415.297 364.55 414.368 377.25C413.319 391.811 407.623 399.867 400.283 412.378C380.074 446.886 394.204 461.09 403.021 487.879C403.021 487.903 403.021 487.903 403.048 487.927C403.048 487.951 403.048 487.974 403.071 488.022C403.214 488.713 404.022 491.931 404.454 494.218C410.34 524.725 384.743 573.459 387.772 605.036C388.222 609.683 390.51 620.266 392.967 630.726C381.189 632.013 366.557 632.873 339.105 633.419ZM477.493 499.938C478.041 527.75 468.487 532.73 478.971 621.98C479.09 622.838 479.211 623.839 479.352 624.959C478.208 624.959 477.088 624.983 475.968 625.006C471.583 625.102 467.221 625.033 462.836 624.914C463.075 618.479 463.122 611.184 462.86 602.962C461.979 575.296 459.831 578.63 458.189 563.116C454.853 531.443 463.766 519.289 459.572 499.485C458.356 493.768 456.473 488.26 455.592 482.448C453.209 466.648 462.145 453.514 469.605 440.001C473.728 453.299 476.923 471.388 477.493 499.938ZM469.7 421.558C468.985 423.774 468.172 425.967 467.245 428.112C466.936 428.898 466.578 429.709 466.221 430.495C461.669 440.647 455.639 450.106 451.945 460.64C445.392 479.255 452.374 492.479 454.281 500.248C457.903 515 453.518 530.395 453.444 545.29C453.349 571.504 461.643 574.698 461.476 624.863C450.68 624.554 439.86 624.077 429.16 625.509C434.069 585.901 430.635 590.691 429.015 570.861C427.084 547.244 431.35 524.389 429.372 501.725C428.109 487.045 422.482 473.533 420.03 459.114C414.477 426.606 439.81 411.26 443.361 385.355C443.671 383.068 443.79 380.78 443.74 378.516C443.526 366.624 439.119 355.113 438.309 343.197C436.045 310.286 454.729 286.406 445.313 256.665C430.945 211.241 375.036 205.093 360.306 116.439C368.575 177.067 394.506 196.609 419.194 223.682C466.857 276.016 427.845 295.963 432.041 346.534C433.161 359.808 438.905 373.44 435.664 386.785C429.396 408.975 410.712 426.825 412.881 452.203C414.168 467.36 421.055 481.349 423.629 496.268C428.776 526.081 421.005 543.169 428.324 585.78C430.352 597.481 429.491 611.52 428.014 625.65C413.453 627.771 404.828 629.391 393.934 630.631C392.743 624.818 391.551 618.715 390.503 612.998C387.023 593.98 393.508 574.39 398.82 556.326C416.86 495.103 410.092 492.6 400.369 464.002C388.022 427.754 410.783 417.721 418.576 393.413C422.985 379.591 421.269 365.556 419.744 351.422C416.217 318.272 434.803 298.446 424.534 266.581C415.645 238.96 391.98 220.324 373.678 199.114C365.313 189.438 357.71 179.19 350.537 168.657C346.962 153.285 346.817 135.149 345.89 121.851C346.39 135.817 345.795 150.831 348.13 165.034C348.249 165.868 348.39 166.703 348.559 167.537C349.941 174.877 352.181 182.002 355.851 188.604C366.552 207.836 388.742 222.206 394.649 241.605C400.965 265.437 389.144 285.098 390.407 307.524C391.244 322.395 397.867 336.553 397.462 351.541C397.056 366.316 385.286 381.688 378.873 399.349C380.66 381.666 392.171 364.889 390.789 346.538C389.692 332.049 382.305 318.751 381.997 304.142C381.711 290.081 393.436 260.554 378.136 231.908C364.693 206.718 339.074 197.853 327.637 161.891C326.091 157.029 324.825 152.072 323.776 147.091C325.614 143.207 327.041 138.75 327.997 133.603C328.521 130.719 328.926 127.597 329.139 124.237C328.378 133.126 326.446 140.299 323.612 146.186C323.395 146.591 323.207 146.996 323.016 147.377C305.619 180.694 256.738 171.948 216.298 210.245C185.651 239.272 201.237 262.174 202.333 279.143C202.523 282.002 202.285 286.292 201.856 288.222C196.971 304.404 185.77 311.363 200.426 334.504C203.834 339.699 207.814 344.87 209.84 350.828C217.061 372.134 186.318 377.353 193.896 413.386C196.113 423.967 201.594 439.696 200.402 457.236C199.116 476.135 192.753 479.948 199.664 509.714C208.148 546.248 202.118 531.615 198.448 574.655C196.399 598.773 198.186 616.765 200.426 628.872C188.892 628.086 182.934 627.156 177.739 626.92C178.62 615.29 178.239 598.417 173.401 575.632C171.828 568.292 169.612 560.999 168.778 553.516C166.466 532.88 177.524 521.82 180.217 504.328C183.363 483.833 181.051 460.74 186.556 447.277C192.61 432.502 186.318 421.942 184.054 409.12C178.883 379.903 198.663 379.14 184.697 342.868C178.168 325.924 178.859 320.133 183.959 306.763C186.842 299.137 189.702 291.869 190.894 283.742C193.825 263.438 167.539 245.707 200.498 206.289C229.739 171.281 280.381 152.62 305.5 148.188C248.256 157.411 177.369 203.487 179.955 247.375C181.666 276.435 192.333 267.096 182.41 297.469C179.714 305.722 175.594 313.27 174.831 322.04C173.52 336.696 182.576 346.205 184.03 363.793C184.006 374.231 175.212 389.197 177.31 405.522C178.883 417.89 186.58 431.355 182.052 444.272C174.807 463.218 179.788 487.574 175.713 507.617C172.829 521.725 164.941 532.425 165.799 549.203C166.18 556.424 168.182 563.406 169.993 570.365C176.69 596.034 177.739 614.478 177.143 626.894C170.494 626.634 164.774 627.561 149.736 631.377C148.712 631.636 147.735 631.877 146.805 632.092C153.859 600.753 145.042 550.516 145.661 526.896C146.019 513.36 154.121 498.084 156.457 485.908C159.15 471.752 153.645 446.059 155.194 426.208C156.814 405.76 161.39 398.086 164.655 383.716C171.542 353.188 153.192 338.748 149.76 316.87C146.162 294.111 165.87 272.329 170.112 248.092C174.497 222.974 154.908 200 188.534 164.61C230.764 120.116 278.141 120.45 303.76 119.854C279.452 119.64 248.018 118.639 213.51 140.707C159.698 175.12 162.439 204.266 164.488 224.642C166.156 241.134 166.323 246.233 160.794 259.889C155.694 272.52 148.95 283.101 145.232 294.659C141.681 305.717 140.895 317.681 146.972 333.147C149.355 339.225 152 345.159 154.407 351.212C155.48 353.905 156.552 356.765 157.172 359.603C157.339 360.389 158.054 363.869 158.197 364.224C160.341 388.914 148.211 401.783 148.616 430.619C148.759 441.508 150.785 456.81 151.738 468.559C152.143 473.871 152.334 478.447 152.048 481.571C150.952 493.225 145.304 504.283 142.658 518.319C138.845 537.814 153.311 596.058 146.114 632.258C137.916 634.191 132.482 634.763 123.14 634.978C123.712 621.989 123.927 601.923 122.044 576.445C118.851 533.405 114.823 496.108 126.453 458.478C129.051 450.089 131.362 442.823 133.34 436.269C133.984 434.196 134.579 432.168 135.128 430.24C141.705 407.123 143.064 392.086 134.842 363.106C134.699 362.558 134.532 361.986 134.365 361.414C133.245 357.53 131.958 353.407 130.48 348.974C119.637 316.396 113.369 297.331 129.956 263.13C130.576 261.819 131.243 260.485 131.958 259.126C132.363 258.34 132.768 257.554 133.197 256.767C142.206 239.99 153.001 222.688 155.67 203.432C157.958 186.964 156.028 171.331 158.101 155.888C158.244 154.672 158.435 153.457 158.649 152.241C159.245 148.929 160.056 145.616 161.152 142.304C161.533 141.184 161.938 140.064 162.391 138.943C164.679 133.129 167.968 127.337 172.686 121.499C190.989 98.8824 221.041 86.2517 249.567 83.9162C275.806 81.7475 301.472 88.4203 326.424 95.8082C301.02 87.6816 274.9 80.4606 247.947 82.3909C230.192 83.6302 211.913 88.9208 196.113 98.0483C187.152 103.196 178.978 109.583 172.138 117.161C168.277 121.427 165.203 125.645 162.748 129.84C164.035 118.734 168.349 107.986 175.904 99.6689C181.981 92.9484 191.013 87.6339 201.666 83.6064C202.666 83.2251 203.691 82.8437 204.74 82.4863C236.65 71.4046 281.096 71.0947 304.332 78.697C310.29 80.6512 315.914 82.9629 321.61 85.5129C316.298 82.7246 311.007 80.2223 305.429 78.0059C298.017 75.0508 287.817 72.6915 276.259 71.2854C276.163 71.2616 276.068 71.2377 275.973 71.2377C258.123 69.0929 237.032 69.2597 217.943 73.1919C223.948 69.6887 230.287 66.7574 235.769 64.7794C253.571 58.7976 268.513 58.1542 284.623 59.8462C285.767 59.9892 286.935 60.1322 288.103 60.299C288.818 60.3943 289.533 60.5135 290.248 60.6088C300.567 62.2055 311.482 65.3037 318.083 73.5732C313.46 66.6144 304.094 61.7527 293.298 58.7261C301.806 53.8168 305.309 55.3897 318.488 61.2761C324.541 63.9691 330.547 64.6125 337.101 63.7308C349.853 61.9672 353.187 59.3219 366.821 69.1406C347.015 65.8518 328.524 66.7097 320.874 75.8611C320.54 76.2662 320.207 76.6952 319.921 77.1242C328.738 66.4952 350.237 67.4247 372.186 73.2396C373.854 73.6686 375.546 74.1452 377.238 74.6457C396.732 80.3891 415.819 89.6119 425.948 97.5717C441.083 109.511 447.587 121.975 451.59 134.606C442.844 121.165 430.955 109.154 414.797 100.193C406.027 95.3315 398.424 91.7568 391.108 89.2068C390.917 89.1353 390.703 89.0638 390.512 89.0161C376.761 84.2736 363.988 83.1059 346.328 83.511C353.409 83.7732 360.294 84.1783 367.326 85.1316C393.088 88.611 413.893 102.052 432.077 119.378C441.157 128.029 451.452 144.401 459.433 164.586C465.227 179.314 469.802 196.092 471.754 213.37C469.016 209.056 466.059 205.029 462.963 201.287C460.389 180.22 454.24 160.225 432.337 140.635C423.567 132.771 413.679 127.385 403.215 122.166C413.343 128.029 423.066 134.32 431.121 142.947C446.922 159.868 454.739 179.91 459.028 196.711C439.033 174.619 414.775 162.632 401.858 151.908C380.648 134.344 368.732 114.54 357.293 103.959C352.408 99.4782 347.093 96.1656 341.135 93.3297C345.592 95.6413 349.762 98.1198 353.623 101.385C357.508 104.674 360.916 108.582 364.133 112.562C364.583 113.134 365.039 113.706 365.489 114.278C380.503 133.271 390.87 148.905 419.16 168.233C435.506 179.41 450.165 191.945 461.39 207.34C462.272 208.556 463.106 209.771 463.94 211.01C467.229 215.872 470.158 221.02 472.71 226.477C473.258 227.645 473.782 228.813 474.283 230.004C474.664 230.91 475.045 231.815 475.403 232.745C479.028 241.896 481.909 251.953 482.672 261.843C482.888 269.755 482.221 275.904 480.694 281.814C480.574 282.338 480.434 282.863 480.288 283.387C478.31 290.322 475.188 297.162 470.996 306.408C446.638 359.839 462.179 377.879 468.446 398.375C468.756 399.399 469.042 400.424 469.304 401.473C470.82 407.495 471.344 413.882 469.7 421.558ZM472.512 384.738C469.083 374.586 465.696 363.433 466.578 348.919C467.796 328.686 476.992 313.815 483.26 297.157C487.648 323.06 483.832 345.771 472.512 384.738Z" fill="#26130B"/>
</g>
<defs>
<linearGradient id="paint0_linear" x1="300" y1="-75" x2="300" y2="675" gradientUnits="userSpaceOnUse">
<stop stop-color="#151371"/>
<stop offset="0.453125" stop-color="#FF00B8"/>
<stop offset="0.96875" stop-color="#FFC700"/>
</linearGradient>
<linearGradient id="paint1_linear" x1="439" y1="245" x2="439" y2="644" gradientUnits="userSpaceOnUse">
<stop stop-color="#FF00B8"/>
<stop offset="1" stop-color="#F0DB0A" stop-opacity="0"/>
</linearGradient>
<linearGradient id="paint2_linear" x1="194" y1="161" x2="194" y2="560" gradientUnits="userSpaceOnUse">
<stop stop-color="#FF00B8"/>
<stop offset="1" stop-color="#F0DB0A" stop-opacity="0"/>
</linearGradient>
<linearGradient id="paint3_linear" x1="307.433" y1="481.457" x2="307.433" y2="398.239" gradientUnits="userSpaceOnUse">
<stop stop-color="#DD9A6E" stop-opacity="0.8"/>
<stop offset="0.7" stop-color="#BE6E39"/>
</linearGradient>
<linearGradient id="paint4_linear" x1="307.481" y1="409.318" x2="307.481" y2="402.169" gradientUnits="userSpaceOnUse">
<stop offset="0.1" stop-color="#E4A67D"/>
<stop offset="1" stop-color="#DD9A6E"/>
</linearGradient>
<radialGradient id="paint5_radial" cx="0" cy="0" r="1" gradientUnits="userSpaceOnUse" gradientTransform="translate(245.374 283.086) rotate(175.001) scale(34.704 34.5554)">
<stop stop-color="white"/>
<stop offset="0.544" stop-color="#FDFEFE"/>
<stop offset="0.74" stop-color="#F6F8F9"/>
<stop offset="0.879" stop-color="#EAEFF2"/>
<stop offset="0.992" stop-color="#D9E3E8"/>
<stop offset="1" stop-color="#D8E2E7"/>
</radialGradient>
<radialGradient id="paint6_radial" cx="0" cy="0" r="1" gradientUnits="userSpaceOnUse" gradientTransform="translate(247.652 283.09) rotate(-14.4847) scale(20.0014 20.0058)">
<stop stop-color="white" stop-opacity="0.8"/>
<stop offset="1" stop-color="white" stop-opacity="0"/>
</radialGradient>
<radialGradient id="paint7_radial" cx="0" cy="0" r="1" gradientUnits="userSpaceOnUse" gradientTransform="translate(247.649 283.075) rotate(0.512025) scale(19.9913 19.9917)">
<stop stop-color="white" stop-opacity="0.8"/>
<stop offset="1" stop-color="white" stop-opacity="0"/>
</radialGradient>
<linearGradient id="paint8_linear" x1="236.661" y1="297.421" x2="239.823" y2="293.654" gradientUnits="userSpaceOnUse">
<stop stop-color="white"/>
<stop offset="1" stop-color="white" stop-opacity="0"/>
</linearGradient>
<linearGradient id="paint9_linear" x1="252.667" y1="278.244" x2="247.901" y2="283.01" gradientUnits="userSpaceOnUse">
<stop stop-color="white"/>
<stop offset="1" stop-color="white" stop-opacity="0"/>
</linearGradient>
<linearGradient id="paint10_linear" x1="259.817" y1="268.711" x2="250.285" y2="278.244" gradientUnits="userSpaceOnUse">
<stop stop-color="white"/>
<stop offset="1" stop-color="white" stop-opacity="0"/>
</linearGradient>
<radialGradient id="paint11_radial" cx="0" cy="0" r="1" gradientUnits="userSpaceOnUse" gradientTransform="translate(252.88 277.056) rotate(6.98431) scale(40.6052 36.0196)">
<stop stop-color="#DD9A6E"/>
<stop offset="0.7" stop-color="#DD9A6E" stop-opacity="0.3"/>
<stop offset="1" stop-color="#ECB38D" stop-opacity="0"/>
</radialGradient>
<radialGradient id="paint12_radial" cx="0" cy="0" r="1" gradientUnits="userSpaceOnUse" gradientTransform="translate(242.664 311.803) rotate(-8.04716) scale(45.1244 45.8511)">
<stop offset="0.9" stop-opacity="0"/>
<stop offset="1" stop-opacity="0.3"/>
</radialGradient>
<radialGradient id="paint13_radial" cx="0" cy="0" r="1" gradientUnits="userSpaceOnUse" gradientTransform="translate(369.585 283.086) rotate(4.99902) scale(34.704 34.5554)">
<stop stop-color="white"/>
<stop offset="0.544" stop-color="#FDFEFE"/>
<stop offset="0.74" stop-color="#F6F8F9"/>
<stop offset="0.879" stop-color="#EAEFF2"/>
<stop offset="0.992" stop-color="#D9E3E8"/>
<stop offset="1" stop-color="#D8E2E7"/>
</radialGradient>
<radialGradient id="paint14_radial" cx="0" cy="0" r="1" gradientUnits="userSpaceOnUse" gradientTransform="translate(366.81 283.093) rotate(-14.4847) scale(20.0014 20.0058)">
<stop stop-color="white" stop-opacity="0.8"/>
<stop offset="1" stop-color="white" stop-opacity="0"/>
</radialGradient>
<radialGradient id="paint15_radial" cx="0" cy="0" r="1" gradientUnits="userSpaceOnUse" gradientTransform="translate(366.809 283.074) rotate(0.512025) scale(19.9913 19.9917)">
<stop stop-color="white" stop-opacity="0.8"/>
<stop offset="1" stop-color="white" stop-opacity="0"/>
</radialGradient>
<linearGradient id="paint16_linear" x1="355.821" y1="297.421" x2="358.984" y2="293.656" gradientUnits="userSpaceOnUse">
<stop stop-color="white"/>
<stop offset="1" stop-color="white" stop-opacity="0"/>
</linearGradient>
<linearGradient id="paint17_linear" x1="371.826" y1="278.244" x2="367.059" y2="283.01" gradientUnits="userSpaceOnUse">
<stop stop-color="white"/>
<stop offset="1" stop-color="white" stop-opacity="0"/>
</linearGradient>
<linearGradient id="paint18_linear" x1="378.975" y1="268.711" x2="369.443" y2="278.244" gradientUnits="userSpaceOnUse">
<stop stop-color="white"/>
<stop offset="1" stop-color="white" stop-opacity="0"/>
</linearGradient>
<radialGradient id="paint19_radial" cx="0" cy="0" r="1" gradientUnits="userSpaceOnUse" gradientTransform="translate(362.08 277.056) rotate(173.016) scale(40.6052 36.0196)">
<stop stop-color="#DD9A6E"/>
<stop offset="0.7" stop-color="#DD9A6E" stop-opacity="0.3"/>
<stop offset="1" stop-color="#ECB38D" stop-opacity="0"/>
</radialGradient>
<radialGradient id="paint20_radial" cx="0" cy="0" r="1" gradientUnits="userSpaceOnUse" gradientTransform="translate(372.296 311.803) rotate(-171.953) scale(45.1245 45.8511)">
<stop offset="0.9" stop-opacity="0"/>
<stop offset="1" stop-opacity="0.3"/>
</radialGradient>
<radialGradient id="paint21_radial" cx="0" cy="0" r="1" gradientUnits="userSpaceOnUse" gradientTransform="translate(307.481 342.59) scale(95.3266)">
<stop stop-color="#FBCEAF" stop-opacity="0.5"/>
<stop offset="0.9" stop-color="#ECB38D" stop-opacity="0"/>
</radialGradient>
<radialGradient id="paint22_radial" cx="0" cy="0" r="1" gradientUnits="userSpaceOnUse" gradientTransform="translate(307.481 209.132) scale(85.7939)">
<stop stop-color="#FBCEAF" stop-opacity="0.5"/>
<stop offset="0.9" stop-color="#ECB38D" stop-opacity="0"/>
</radialGradient>
<clipPath id="clip0">
<rect width="600" height="600" fill="white"/>
</clipPath>
</defs>
</svg>
