<svg width="66" height="66" viewBox="0 0 66 66" fill="none" xmlns="http://www.w3.org/2000/svg">
<path fill-rule="evenodd" clip-rule="evenodd" d="M60.5 11.0275C57.75 12.375 55.055 12.9223 52.25 13.75C49.1672 10.2713 44.5967 10.0788 40.205 11.7233C35.8132 13.3678 32.9367 17.3883 33 22V24.75C24.0762 24.9783 16.1288 20.9138 11 13.75C11 13.75 -0.5005 34.1908 22 44C16.852 47.4293 11.7177 49.742 5.5 49.5C14.597 54.4583 24.5108 56.1633 33.0935 53.6718C42.9385 50.8118 51.029 43.4335 54.1337 32.3813C55.0599 29.0199 55.5198 25.5471 55.5005 22.0605C55.495 21.3758 59.653 14.4375 60.5 11.0248V11.0275Z" stroke="#1DA1F2" stroke-width="2" stroke-linecap="round" stroke-linejoin="round"/>
</svg>
