<svg width="600" height="600" viewBox="0 0 600 600" fill="none" xmlns="http://www.w3.org/2000/svg">
<g clip-path="url(#clip0)">
<path d="M675 675H-75V-75H675V675Z" fill="url(#paint0_linear)"/>
<path d="M360.996 403.874H308.184V356.576H360.996V403.874ZM414.113 320.069H340.054V380.225H414.113V320.069ZM377.082 441.95H442.881V362.639H377.082V441.95ZM400.757 434.192H334.59V491.191H400.757V434.192ZM580.44 284.416H490.23V387.501H580.44V284.416ZM478.458 331.108H456.605V356.576H478.458V331.108ZM544.531 252.277H456.605V304.426H544.531V252.277ZM442.881 270.468H395.532V335.958H442.881V270.468ZM334.59 275.32H308.184V303.213H334.59V275.32ZM299.325 320.069H258.501V382.71H299.325V320.069ZM347.338 441.95H275.708V521.511H347.338V441.95ZM308.184 576.086H388.617V528.788H308.184V576.086ZM500.311 557.894H443.791V599.129H500.313V557.894H500.311ZM637.361 516.659H585.062V578.511H637.361V516.659ZM551.302 544.718H506.381V585.953H551.302V544.718ZM594.357 463.296H528.843V537.278H594.357V463.296ZM610.791 590.639H528.843V644H610.791V590.639ZM340.054 557.894H251.187V637.937H340.052V557.894H340.054ZM630.216 356.576H569.818V403.874H630.216V356.576ZM594.357 424.49H568.208V451.477H594.357V424.49ZM251.187 474.697H300.975V404.294H251.187V474.697ZM321.764 249.852L232 252.277V320.069H321.764V249.852ZM646 252.277H587.725V326.256H646V252.277ZM371.858 245H347.338V298.361H371.858V245ZM641.143 437.983H581.281V486.494H641.143V437.983Z" fill="url(#paint1_linear)" stroke="#FFC700" stroke-width="1.5"/>
<path d="M115.996 319.874H63.1843V272.576H115.996V319.874ZM169.113 236.069H95.0537V296.225H169.113V236.069ZM132.082 357.95H197.881V278.639H132.082V357.95ZM155.757 350.192H89.5904V407.191H155.757V350.192ZM335.44 200.416H245.23V303.501H335.44V200.416ZM233.458 247.108H211.605V272.576H233.458V247.108ZM299.531 168.277H211.605V220.426H299.531V168.277ZM197.881 186.468H150.532V251.958H197.881V186.468ZM89.5904 191.32H63.1843V219.213H89.5904V191.32ZM54.3246 236.069H13.5008V298.71H54.3246V236.069ZM102.338 357.95H30.7084V437.511H102.338V357.95ZM63.1843 492.086H143.617V444.788H63.1843V492.086ZM255.311 473.894H198.791V515.129H255.313V473.894H255.311ZM392.361 432.659H340.062V494.511H392.361V432.659ZM306.302 460.718H261.381V501.953H306.302V460.718ZM349.357 379.296H283.843V453.278H349.357V379.296ZM365.791 506.639H283.843V560H365.791V506.639ZM95.0537 473.894H6.18721V553.937H95.0519V473.894H95.0537ZM385.216 272.576H324.818V319.874H385.216V272.576ZM349.357 340.49H323.208V367.477H349.357V340.49ZM6.18721 390.697H55.9745V320.294H6.18721V390.697ZM76.7643 165.852L-13 168.277V236.069H76.7643V165.852ZM401 168.277H342.725V242.256H401V168.277ZM126.858 161H102.338V214.361H126.858V161ZM396.143 353.983H336.281V402.494H396.143V353.983Z" fill="url(#paint2_linear)" stroke="#FFC700" stroke-width="1.5"/>
<rect x="504" y="328.706" width="8.86149" height="25.1423" fill="white"/>
<rect x="521.754" y="328.857" width="8.83104" height="25.1423" fill="white"/>
<rect x="512.861" y="320" width="8.89195" height="8.85765" fill="white"/>
<rect x="539.415" y="328.857" width="8.89195" height="25.1423" fill="white"/>
<rect x="530.585" y="320" width="8.83105" height="8.85765" fill="white"/>
<rect x="548.308" y="320" width="8.86149" height="8.85765" fill="white"/>
<rect x="557.169" y="327.792" width="8.83104" height="8.85766" fill="white"/>
<rect x="548.308" y="336.65" width="8.86149" height="8.82721" fill="white"/>
<rect x="40" y="390.425" width="7.57515" height="21.4449" fill="white"/>
<rect x="55.1768" y="390.555" width="7.54912" height="21.4449" fill="white"/>
<rect x="47.5752" y="383" width="7.60118" height="7.55506" fill="white"/>
<rect x="70.2744" y="390.555" width="7.60118" height="21.4449" fill="white"/>
<rect x="62.7256" y="383" width="7.54912" height="7.55506" fill="white"/>
<rect x="77.876" y="383" width="7.57515" height="7.55506" fill="white"/>
<rect x="85.4512" y="389.646" width="7.54912" height="7.55506" fill="white"/>
<rect x="77.876" y="397.202" width="7.57515" height="7.52909" fill="white"/>
<path d="M151.196 372.675C139.939 346.048 141.598 335.044 144.597 314.228C139.429 319.826 136.336 327.333 127.904 334.278C128.558 329.29 138.519 300.363 139.31 298.239C129.751 306.952 124.467 308.81 119.892 310.603C122.98 305.995 125.029 300.639 129.59 290.876H158.258C158.833 301.521 160.909 314.671 164.008 326.222C162.369 327.308 158.062 334.129 151.196 372.675ZM451.716 294.924C451.599 304.471 448.378 322.362 444.484 334.385C446.486 335.731 448.819 337.302 448.311 336.894C463.11 348.776 465.489 350.827 466.996 370.181C477.749 346.98 468.627 317.197 468.088 294.927H451.716V294.924ZM468.108 294.924H479.151C477.704 299.821 474.337 306.83 470.642 311.418C469.254 306.035 468.491 298.373 468.108 294.924Z" fill="#1B141C"/>
<path d="M141.627 295.013C133.175 317.219 132.678 322.765 128.202 333.656C135.289 327.818 140.603 316.297 145.36 313.216C144.539 320.726 140.635 335.894 144.987 352.505C146.628 358.796 148.717 364.889 151.231 370.832C151.877 361.979 153.195 336.193 161.374 328.36C155.754 343.155 152.546 362.502 152.546 377.596C136.607 349.82 140.264 334.576 144.017 315.205C138.198 321.845 136.557 330.15 125.392 336.914C129.196 328.882 130.417 319.333 138.297 299.763C131.758 306.303 127.356 308.914 118.628 311.5C121.905 306.077 124.79 299.201 127.324 293.611H130.014C127.53 298.967 124.964 304.368 121.836 309.038C128.376 306.477 134.64 301.702 141.627 295.013ZM444.484 334.385C445.021 334.755 448.652 337.249 450.283 338.682C457.086 344.655 465.859 350.106 465.248 376.678C476.545 357.163 475.08 328.278 471.561 312.547C476.577 307.153 479.964 300.506 481.692 294.906L478.701 294.879C477.253 299.775 474.585 305.671 470.89 310.259C469.497 304.875 468.739 298.873 468.356 295.424L468.087 294.926C468.627 317.197 475.833 343.635 467.483 368.323C465.976 348.969 461.49 345.443 444.484 334.385Z" fill="black"/>
<path d="M542.496 606.204C537.035 594.402 522.117 576.913 505.544 572.082C485.056 566.106 438.809 558.882 421.661 554.866C407.914 551.644 380.228 526.782 370.525 518.437C368.784 516.945 367.359 513.864 367.324 511.574C366.979 484.558 377.756 412.793 377.756 412.793H305.225H232.696C232.696 412.793 243.473 484.556 243.123 511.574C243.095 513.864 241.663 516.945 239.927 518.437C230.224 526.782 202.538 551.644 188.791 554.866C171.641 558.882 125.394 566.352 104.908 572.328C88.3298 577.157 73.4173 594.4 67.9565 606.201C58.7359 626.115 56.5576 662.151 56.5576 693.235H305.225H553.892C553.892 662.154 551.711 626.117 542.496 606.204Z" fill="#F0C7B1"/>
<path d="M452.326 567.113C512.856 575.921 538.33 588.767 546.307 693.24H553.891C553.891 662.156 551.711 626.12 542.495 606.206C537.034 594.405 522.117 576.916 505.543 572.084C485.055 566.109 438.808 558.885 421.66 554.869C407.914 551.646 376.298 524.857 367.841 514.212C376.196 525.909 399.648 553.016 420.195 560.116C430.025 563.513 438.211 565.059 452.326 567.113ZM190.255 560.116C210.803 553.019 234.252 525.909 242.61 514.212C234.155 524.855 202.54 551.646 188.791 554.869C171.643 558.885 125.396 566.355 104.908 572.33C88.3343 577.16 73.4167 594.402 67.956 606.204C58.7404 626.117 56.5596 662.154 56.5596 693.237H64.1439C72.0714 589.434 97.6518 575.909 158.125 567.111C172.237 565.059 180.426 563.513 190.255 560.116Z" fill="#FFE4D6"/>
<path d="M294.398 600.837C294.398 600.837 281.78 596.836 276.784 594.922C250.801 584.952 166.389 578.492 166.389 578.492C166.389 578.492 255.297 582.021 274.917 585.403C273.778 573.549 267.415 535.659 267.415 535.659C267.415 535.659 280.219 577.473 283.352 588.021C285.028 593.661 294.398 600.837 294.398 600.837ZM321.251 597.5C321.03 597.682 320.776 597.918 320.5 598.167C320.781 597.955 321.035 597.734 321.251 597.5ZM294.398 600.837C294.398 600.837 301.592 608.277 305.207 608.372C309.957 608.499 317.213 601.163 320.503 598.167C317.357 600.546 310.161 601.626 307.298 601.738C303.991 601.864 294.398 600.837 294.398 600.837ZM346.662 582.14C342.821 582.757 335.756 584.102 335.756 584.102L341.443 547.075C339.837 554.712 330.318 587.387 321.251 597.5C326.001 593.482 336.564 591.555 341.95 590.776C367.404 587.086 367.394 587.089 444.058 578.492C444.058 578.492 371.768 578.107 346.662 582.14Z" fill="#E1AC8F"/>
<path d="M542.496 606.204C537.035 594.402 522.117 576.913 505.544 572.082C485.056 566.106 438.809 558.882 421.661 554.866C407.914 551.644 380.228 526.782 370.525 518.437C368.784 516.945 367.359 513.864 367.324 511.574C366.979 484.558 377.756 412.793 377.756 412.793H305.225H232.696C232.696 412.793 243.473 484.556 243.123 511.574C243.095 513.864 241.663 516.945 239.927 518.437C230.224 526.782 202.538 551.644 188.791 554.866C171.641 558.882 125.394 566.352 104.908 572.328C88.3298 577.157 73.4173 594.4 67.9565 606.201C58.7359 626.115 56.5576 662.151 56.5576 693.235H305.225H553.892C553.892 662.154 551.711 626.117 542.496 606.204Z" stroke="#C27B55" stroke-width="4.5"/>
<path d="M305.277 536.796C325.626 536.796 347.23 524.504 365.452 510.25C365.45 493.585 369.061 462.743 372.047 440.114C333.797 434.526 276.544 434.447 238.349 439.736C241.293 462.016 244.876 492.468 244.991 509.412C263.248 524.116 284.889 536.796 305.277 536.796Z" fill="url(#paint3_linear)"/>
<path d="M162.912 695.672L166.202 544.353C166.202 544.353 191.551 538.169 207.568 528.655C251.075 583.244 380.27 571.756 402.364 527.113C406.066 528.418 409.13 530.089 412.962 531.372C425.395 539.792 435.872 542.548 435.872 542.548L438.197 695.938C402.672 696.405 162.912 695.672 162.912 695.672Z" fill="#F5F4F5"/>
<path d="M439.54 551.315C429.006 549.527 420.614 547.095 416.036 542.503C402.75 567.431 349.485 583.229 331.85 585.544C382.961 569.938 404.431 558.656 412.91 531.875C417.859 537.8 429.128 540.7 443.529 543.159L439.54 551.315ZM187.531 543.05C191.146 542.274 192.952 539.981 196.54 539.088L192.74 534.446C184.997 540.001 170.432 542.664 153.202 545.447L153.67 554.742C163.507 552.777 173.108 550.296 182.09 546.479C200.698 567.578 229.754 577.958 259.326 582.255C222.23 573.34 200.959 558.293 187.531 543.05Z" fill="white"/>
<path d="M399.373 532.292C384.629 560.544 273.199 593.452 210.363 534.446C206.457 535.975 194.77 539.631 194.77 539.631C240.539 597.023 374.668 597.389 410.369 539.352C410.215 539.292 403.003 533.988 399.373 532.292Z" fill="#DFDDE2"/>
<path d="M402.224 526.787C377.141 572.977 246.613 579.514 207.67 528.341C193.446 532.21 179.772 540.466 166.003 542.532L162.912 695.671L438.194 695.938L436.068 540.804C427.69 539.046 419.902 533.998 413.056 531.121C409.272 529.532 406.059 528.102 402.224 526.787ZM206.727 529.885C241.299 587.292 377.853 575.777 404.216 530.131C407.414 531.372 408.232 531.862 411.94 533.073C384.631 585.81 249.545 602.618 194.294 535.925C194.682 535.826 202.831 531.233 206.727 529.885ZM191.551 538.168C236.219 605.423 383.671 595.003 414.315 534.968C418.719 538.427 425.579 542.4 434.049 544.255L438.177 691.168L163.705 691.208L168.44 546.237C175.363 542.758 186.478 540.192 191.551 538.168Z" fill="#B8B6C9"/>
<path d="M45.2954 695.197C38.8947 660.751 39.5959 576.851 67.7078 577.027C100.373 563.821 140.49 548.669 174.142 538.954C191.32 520.936 207.553 503.8 239.263 485.953C240.231 492.416 243.923 507.192 239.291 515.229C235.921 521.077 224.91 529.094 215.533 536.037C210.487 542.801 205.768 549.4 199.123 558.638C211.975 614.094 222.998 642.638 224.231 690.738C224.231 690.738 220.621 692.451 384.55 691.725C390.058 636.175 396.966 608.27 410.359 557.201C410.359 557.201 399.646 544.733 392.437 535.144C387.33 530.178 371.649 516.415 370.455 513.632C367.533 506.816 369.092 498.245 370.729 485.366C397.567 497.484 413.002 515.258 435.586 538.34C454.805 543.609 512.325 563.124 541.133 576.177C550.992 575.903 556.558 581.148 560.708 589.769C574.148 617.607 570.968 657.648 566.129 696.171C518.656 696.248 180.61 701.672 45.2954 695.197Z" fill="#386E77"/>
<path d="M240.26 492.57C240.658 495.231 241.016 497.755 241.282 500.132C240.74 500.794 198.482 558.204 198.174 558.631C208.558 535.01 223.413 510.534 240.26 492.57ZM370.01 492.57C369.615 495.231 369.552 497.755 369.286 500.132C369.828 500.794 411.388 556.005 411.694 556.436C400.691 534.428 386.857 510.534 370.01 492.57ZM466.878 569.839C456.235 585.333 453.963 590.682 442.312 606.037C444.976 606.037 449.273 606.45 451.936 606.45C461.047 590.821 461.064 582.866 466.878 569.839ZM477.785 682.298C487.217 660.167 495.027 640.744 504.489 618.58L501.388 613.572C493.508 636.337 485.145 659.471 477.785 682.298ZM158.63 606.45C161.294 606.45 165.591 606.037 168.256 606.037C156.606 590.682 154.334 589.722 143.693 574.228C149.502 587.255 149.519 590.821 158.63 606.45ZM109.178 613.572L106.077 618.58C115.541 640.744 117.926 660.167 127.361 682.298C119.998 659.471 117.058 636.337 109.178 613.572Z" fill="#265E68"/>
<path d="M219.778 530.373C222.715 526.28 232.801 512.289 241.166 499.137C243.623 512.707 239.112 520.757 219.778 530.373ZM369.232 498.237C375.581 509.169 383.063 520.05 390.777 530.074C369.879 520.558 368.474 510.827 369.232 498.237Z" fill="#184F58"/>
<path d="M370.669 485.802C370.689 485.65 370.711 485.508 370.726 485.369C415.718 510.233 441.785 547.586 472.051 575.429C470.937 577.222 468.997 578.396 467.856 580.166C436.163 556.05 421.101 519.588 370.669 485.802ZM234.942 487.45C197.557 507.874 144.82 570.398 139.657 575.153C140.771 576.953 141.376 576.588 142.517 578.356C174.212 554.242 182.863 530.373 234.942 487.45ZM541.133 576.18C538.646 574.193 479.847 551.216 435.226 538.957C519.022 579.487 548.586 585.072 563.217 599.435C562.265 596.951 560.323 575.645 541.133 576.18ZM174.57 538.509C140.94 548.242 97.8838 563.62 67.7055 577.03C54.367 577.294 44.8082 596.75 42.7617 617.026C61.3173 575.218 52.1489 603.324 174.57 538.509Z" fill="#4D7E86"/>
<path d="M570.304 631.776C569.458 610.304 562.707 574.327 541.232 575.926C539.457 574.409 489.455 551.638 436.083 537.106C417.799 518.568 395.016 493.346 370.507 484.993C368.739 500.977 366.835 511.407 371.044 516.609C376.617 522.674 383.304 528.741 389.864 532.827C401.342 548.085 410.103 557.141 410.103 557.141C396.6 608.623 388.183 635.009 382.816 690.646H227.636C222.272 635.012 213.852 608.626 200.349 557.141C200.349 557.141 209.107 548.083 220.588 532.827C227.151 528.739 233.835 522.674 239.408 516.609C243.615 511.407 241.713 500.977 239.945 484.993C215.436 493.346 192.651 518.568 174.369 537.106C120.997 551.641 70.9952 574.409 69.2197 575.926C47.7424 574.327 40.991 610.304 40.1481 631.776C39.126 657.854 43.7164 693.789 44.0894 696.276H566.363C566.736 693.787 571.326 657.854 570.304 631.776ZM238.045 515.231C232.43 520.784 228.949 523.141 221.949 528.366C233.957 512.772 232.743 514.856 241.116 500.443C241.491 506.64 239.161 514.13 238.045 515.231ZM48.6699 691.372C45.9793 659.433 41.4188 630.672 49.7392 599.385C52.9246 587.382 55.916 579.255 68.2773 578.226C70.9306 591.997 88.4989 649.653 103.832 688.965C88.3497 628.807 90.625 642.191 83.3938 618.214C80.9966 610.17 78.7835 602.086 75.986 594.163C74.0389 588.658 71.883 583.254 70.3611 577.619L170.905 540.655C170.211 541.359 138.839 574.061 138.083 574.981C142.676 582.493 157.519 592.94 165.051 604.219C134.127 607.138 119.028 612.109 107.858 613.768C108.681 616.053 130.389 676.813 132.665 682.539C128.987 662.852 120.689 632.067 111.187 614.875C114.694 614.429 156.139 608.678 169.358 606.228C165.688 599.131 149.358 585.248 140.615 574.849C191.954 529.686 203.831 506.709 239.069 486.687C239.442 490.439 240.171 494.174 240.437 497.924C201.16 556.443 196.55 556.527 196.55 556.527C207.951 600.815 222.739 645.61 222.739 690.989L48.6699 691.372ZM372.405 515.231C371.291 514.13 368.958 506.64 369.334 500.443C377.706 514.858 376.493 512.772 388.501 528.366C381.501 523.141 378.017 520.786 372.405 515.231ZM561.78 691.372L387.713 690.989C387.713 645.61 402.501 600.812 413.902 556.527C413.902 556.527 409.292 556.443 370.015 497.924C370.279 494.174 371.007 490.439 371.383 486.687C406.621 506.709 418.495 529.686 469.837 574.849C461.094 585.251 444.764 599.134 441.094 606.228C454.311 608.675 495.756 614.429 499.265 614.875C489.766 632.067 481.468 662.852 477.787 682.539C480.063 676.81 501.771 616.053 502.594 613.768C491.424 612.109 476.325 607.138 445.401 604.219C452.931 592.94 467.776 582.496 472.369 574.981C471.61 574.061 440.241 541.359 439.547 540.655C439.55 540.655 540.091 577.619 540.091 577.619C538.572 583.257 536.413 588.658 534.466 594.163C531.669 602.086 529.455 610.17 527.058 618.214C519.827 642.193 522.102 628.807 506.62 688.965C521.953 649.651 539.519 591.997 542.175 578.226C554.536 579.255 557.527 587.382 560.713 599.385C569.031 630.672 564.47 659.436 561.78 691.372Z" fill="#0C4049"/>
<path d="M173.433 316.39C170.012 310.29 159.413 295.303 148.616 298.976C141.78 301.301 140.428 308.905 139.329 315.619C137.866 324.549 140.5 342.211 142.783 348.592C144.973 354.727 151.568 366.571 155.872 371.084C161.169 376.617 167.746 394.27 168.788 396.103C170.429 398.992 172.608 403.341 179.038 402.797C186.133 402.19 190.437 398.196 193.6 397.522C201.413 395.866 182.338 332.267 173.433 316.39Z" fill="#F0C7B1" stroke="#C27B55" stroke-width="4.5"/>
<path d="M166.461 353.374C166.133 351.929 166.479 349.495 166.814 347.147C167.123 345.006 167.411 342.982 167.235 341.55C166.571 336.194 162.826 326.011 160.379 320.495C157.564 314.144 153.011 306.147 147.294 304.086C144.932 303.233 143.378 304.252 142.475 305.289C141.813 306.048 141.667 306.943 141.883 307.047C142.097 307.152 142.592 306.416 143.305 305.717C143.89 305.148 144.745 304.658 145.919 304.76C145.446 307.428 143.017 321.875 144.069 331.728C144.897 339.474 148.03 345.26 148.52 346.128C148.592 347.041 148.711 347.933 148.888 348.801C151.198 360.108 161.249 372.964 164.748 377.172C165.392 377.95 166.068 378.407 166.235 378.223C166.399 378.034 166.001 377.261 165.357 376.483C161.906 372.308 151.952 359.496 149.719 348.587C147.351 337.009 155.483 319.851 157.298 316.218C158.22 317.922 159.006 319.56 159.611 320.925C160.083 321.997 160.61 323.253 161.15 324.603C160.083 326.498 152.611 340.319 155.336 351.377C156.346 355.458 160.894 360.715 163.907 362.152C165.566 362.948 166.193 364.134 166.914 365.507C167.749 367.098 168.699 368.901 171.46 370.211C172.019 370.48 172.526 370.587 172.976 370.587C173.755 370.587 174.347 370.251 174.779 369.858C174.824 370.554 174.822 371.45 174.802 372.27C174.772 373.342 174.906 374.217 175.142 374.237C175.376 374.257 175.63 373.412 175.657 372.347C175.697 371.039 175.689 369.421 175.478 368.647C174.861 366.367 172.971 363.791 170.97 361.068C169.008 358.377 166.974 355.61 166.461 353.374ZM148.44 343.35C143.027 325.598 150.072 310.278 151.285 307.841C153.399 309.885 155.264 312.613 156.781 315.288C155.677 317.422 148.667 331.409 148.44 343.35ZM171.793 369.316C169.296 368.135 168.463 366.543 167.65 365.007C166.921 363.617 166.163 362.182 164.246 361.264C163.828 361.063 163.37 360.759 162.898 360.411C156.716 344.837 163.574 338.029 165.293 336.634C165.817 338.539 166.21 340.284 166.384 341.684C166.541 342.97 166.255 345.014 165.969 346.991C165.616 349.44 165.258 351.974 165.628 353.615C166.19 356.057 168.287 358.914 170.313 361.677C172.111 364.129 173.959 366.658 174.593 368.719C174.324 369.127 173.474 370.114 171.793 369.316Z" fill="#C27B55"/>
<path d="M436.362 316.39C439.786 310.29 450.384 295.303 461.179 298.976C468.017 301.301 469.368 308.905 470.469 315.619C471.931 324.549 469.298 342.211 467.015 348.592C464.825 354.727 458.23 366.571 453.92 371.084C448.626 376.617 442.047 394.27 441.007 396.103C439.371 398.992 437.19 403.341 430.76 402.797C423.663 402.19 419.361 398.196 416.195 397.522C408.382 395.866 427.46 332.267 436.362 316.39Z" fill="#F0C7B1" stroke="#C27B55" stroke-width="4.5"/>
<path d="M438.827 361.062C436.825 363.788 434.938 366.362 434.318 368.642C434.105 369.415 434.1 371.034 434.139 372.342C434.169 373.406 434.42 374.252 434.654 374.232C434.888 374.212 435.022 373.337 434.995 372.265C434.975 371.442 434.975 370.549 435.02 369.853C435.452 370.246 436.044 370.581 436.823 370.581C437.275 370.581 437.78 370.475 438.337 370.206C441.095 368.898 442.047 367.093 442.883 365.501C443.601 364.129 444.233 362.945 445.889 362.147C448.905 360.709 453.451 355.453 454.461 351.372C457.186 340.314 449.716 326.493 448.647 324.598C449.186 323.245 449.716 321.989 450.186 320.92C450.793 319.555 451.576 317.916 452.499 316.213C454.314 319.843 462.445 337.004 460.08 348.582C457.852 359.491 447.896 372.302 444.442 376.477C443.8 377.256 443.402 378.029 443.566 378.218C443.731 378.402 444.407 377.947 445.053 377.166C448.55 372.959 458.603 360.103 460.916 348.796C461.09 347.925 461.207 347.035 461.279 346.123C461.769 345.255 464.907 339.468 465.733 331.722C466.782 321.873 464.352 307.422 463.883 304.754C465.059 304.65 465.907 305.142 466.496 305.712C467.21 306.41 467.705 307.146 467.918 307.042C468.132 306.938 467.986 306.042 467.327 305.284C466.424 304.247 464.87 303.227 462.507 304.08C456.791 306.144 452.235 314.139 449.423 320.49C446.976 326.005 443.231 336.188 442.564 341.545C442.385 342.977 442.676 345.001 442.987 347.142C443.323 349.492 443.666 351.926 443.338 353.369C442.828 355.609 440.794 358.377 438.827 361.062ZM453.018 315.285C454.538 312.612 456.403 309.882 458.516 307.838C459.73 310.275 466.772 325.595 461.364 343.347C461.132 331.409 454.125 317.421 453.018 315.285ZM435.204 368.719C435.835 366.657 437.685 364.129 439.483 361.677C441.512 358.914 443.606 356.057 444.171 353.615C444.539 351.974 444.181 349.44 443.83 346.99C443.544 345.013 443.258 342.969 443.417 341.684C443.586 340.284 443.982 338.536 444.506 336.633C446.225 338.028 453.083 344.837 446.906 360.411C446.431 360.759 445.974 361.065 445.556 361.264C443.639 362.181 442.885 363.616 442.151 365.006C441.341 366.543 440.505 368.135 438.009 369.316C436.325 370.114 435.475 369.127 435.204 368.719Z" fill="#C27B55"/>
<path d="M451.405 303.397H451.392C451.367 303.511 421.062 403.535 411.906 433.743C410.128 439.607 407.105 445.06 403.064 449.623C387.211 467.512 343.961 511.932 305.278 511.932C265.867 511.932 221.748 464.573 206.537 446.746C202.951 442.548 200.303 437.712 198.649 432.41C189.68 403.687 158.549 303.979 158.522 303.864H158.52C155.292 291.451 153.561 278.423 153.541 264.988C153.412 180.381 221.064 111.709 304.661 111.577C388.266 111.446 456.132 179.901 456.259 264.505C456.281 277.941 454.595 290.973 451.405 303.397Z" fill="#F0C7B1"/>
<path d="M385.216 134.935C420.8 162.624 444.078 208.184 444.148 259.785C444.17 273.223 442.618 286.256 439.682 298.679H439.672C439.649 298.794 411.764 398.818 403.346 429.023C401.71 434.887 398.93 440.34 395.212 444.901C380.628 462.792 340.839 507.214 305.25 507.214C268.989 507.214 228.401 459.851 214.409 442.026C211.109 437.826 208.675 432.992 207.153 427.693C198.902 398.967 170.261 299.259 170.236 299.144H170.233C167.264 286.731 165.673 273.703 165.653 260.268C165.581 208.478 188.898 162.693 224.619 134.91C181.866 162.037 153.456 210.151 153.54 264.987C153.56 278.423 155.291 291.453 158.519 303.864H158.521C158.546 303.978 189.679 403.687 198.648 432.41C200.305 437.712 202.95 442.546 206.536 446.746C221.745 464.573 265.863 511.931 305.277 511.931C343.962 511.931 387.21 467.514 403.063 449.623C407.104 445.06 410.127 439.609 411.905 433.743C421.061 403.535 451.366 303.511 451.391 303.397H451.404C454.594 290.971 456.28 277.941 456.258 264.503C456.176 209.855 427.81 161.977 385.216 134.935Z" fill="#E8B9A0"/>
<path d="M451.405 303.397H451.392C451.367 303.511 421.062 403.535 411.906 433.743C410.128 439.607 407.105 445.06 403.064 449.623C387.211 467.512 343.961 511.932 305.278 511.932C265.867 511.932 221.748 464.573 206.537 446.746C202.951 442.548 200.303 437.712 198.649 432.41C189.68 403.687 158.549 303.979 158.522 303.864H158.52C155.292 291.451 153.561 278.423 153.541 264.988C153.412 180.381 221.064 111.709 304.661 111.577C388.266 111.446 456.132 179.901 456.259 264.505C456.281 277.941 454.595 290.973 451.405 303.397Z" stroke="#C27B55" stroke-width="4.5"/>
<path d="M306.071 462.342C302.277 462.342 298.616 461.862 296.373 460.982C295.734 460.728 295.418 460.007 295.67 459.37C295.921 458.731 296.639 458.418 297.281 458.667C301.419 460.291 311.84 460.348 316.438 458.187C317.062 457.896 317.801 458.162 318.092 458.781C318.385 459.403 318.119 460.144 317.498 460.435C314.712 461.743 310.309 462.342 306.071 462.342ZM342.588 441.253C343.578 440.827 344.04 439.681 343.615 438.689C343.19 437.697 342.036 437.239 341.051 437.662C312.042 450.075 269.579 438.502 269.157 438.388C268.12 438.099 267.038 438.704 266.75 439.746C266.461 440.785 267.068 441.862 268.107 442.153C269.259 442.471 287.235 447.375 307.979 447.375C319.467 447.372 331.796 445.87 342.588 441.253Z" fill="#C27B55"/>
<path d="M210.115 312.143C208.857 306.461 223.023 302.263 241.723 304.556C260.418 306.851 273.398 318.292 271.692 324.061C270.747 327.259 245.237 332.13 236.25 331.141C227.139 330.134 213.154 325.862 210.115 312.143Z" fill="url(#paint4_radial)"/>
<path d="M256.114 316.437C256.114 324.675 249.433 331.354 241.194 331.354C232.956 331.354 226.274 324.675 226.274 316.437C226.274 308.191 232.956 301.514 241.194 301.514C249.433 301.514 256.114 308.193 256.114 316.437Z" fill="#3E4442"/>
<path d="M232.52 323.412C234.696 323.233 232.769 322.651 232.769 322.651C231.692 322.072 229.666 321.179 229.666 320.361C229.666 317.797 233.182 317.131 229.581 316.121C225.841 312.689 232.483 312.759 232.433 312.645C230.009 306.736 233.177 309.981 234.51 308.236C239.453 301.773 235.887 308.9 238.571 308.236C239.543 307.997 236.631 304.429 238.655 304.928C239.995 305.257 240.301 306.371 240.301 306.371C241.278 306.179 242.808 304.675 242.808 304.675C244.67 305.237 245.978 307.883 245.401 307.388C246.317 307.276 247.6 306.838 248.599 306.54C248.599 306.54 248.773 305.946 248.945 306.458C251.225 313.075 257.111 312.6 250.335 314.515C250.335 314.515 249.897 314.515 251.285 315.614C258.024 320.995 246.058 319.331 252.406 321.805C252.665 321.547 248.602 324.205 248.602 324.941C248.602 326.187 246.011 329.462 243.763 328.174C242.509 327.458 242.318 329.666 241.582 328.646C240.137 326.65 237.25 328.559 238.317 326.724C239.893 325.429 236.691 327.231 236.069 327.231C234.01 327.231 238.762 320.311 245.752 325.453C247.796 326.95 243.604 321.89 247.306 321.89C247.677 322.012 247.565 320.594 247.565 320.194C245.64 319.819 251.021 320.187 251.021 317.056C251.362 317.123 252.287 316.186 246.956 317.056C246.956 317.056 246.786 315.191 246.871 314.853C247.145 313.764 249.89 314.112 249.119 312.988C249.119 312.985 247.132 308.999 247.132 308.999C240.734 307.97 244.392 307.328 240.391 308.151C240.202 309.091 231.824 313.085 232.09 314.937C232.339 316.683 237.35 317.27 232.607 320.363C239.714 333.97 227.361 320.052 232.52 323.412Z" fill="#535353"/>
<path d="M241.194 303.379L241.619 314.303L246.187 304.374L242.4 314.627L250.424 307.204L243.002 315.226L253.257 311.439L243.33 316.012L254.251 316.434L243.33 316.857L253.257 321.43L243.002 317.643L250.424 325.665L242.4 318.242L246.187 328.495L241.619 318.566L241.194 329.489L240.768 318.566L236.198 328.495L239.983 318.242L231.961 325.665L239.383 317.643L229.128 321.43L239.055 316.857L228.139 316.434L239.055 316.012L229.128 311.439L239.383 315.226L231.961 307.204L239.983 314.627L236.198 304.374L240.768 314.303L241.194 303.379Z" fill="#1B2522"/>
<path d="M243.174 306.656L241.833 314.9L246.759 308.158L242.368 315.263L249.505 310.916L242.728 315.8L250.982 314.519L242.855 316.437L250.977 318.411L242.728 317.073L249.472 322.002L242.365 317.613L246.712 324.747L241.828 317.971L243.111 326.224L241.194 318.093L239.217 326.209L240.558 317.966L235.624 324.707L240.021 317.603L232.886 321.949L239.662 317.066L231.409 318.349L239.538 316.432L231.422 314.46L239.665 315.795L232.921 310.866L240.028 315.255L235.684 308.121L240.568 314.897L239.284 306.646L241.204 314.778L243.174 306.656Z" fill="#0E1613"/>
<path opacity="0.9" d="M246.789 316.436C246.789 319.527 244.282 322.031 241.194 322.031C238.105 322.031 235.599 319.527 235.599 316.436C235.599 313.345 238.105 310.841 241.194 310.841C244.282 310.841 246.789 313.345 246.789 316.436Z" fill="black"/>
<path opacity="0.7" d="M235.318 327.157C234.495 327.982 232.868 327.691 231.687 326.508C230.504 325.327 230.213 323.7 231.038 322.875C231.861 322.052 233.488 322.343 234.669 323.524C235.852 324.707 236.143 326.331 235.318 327.157Z" fill="white"/>
<path opacity="0.9" d="M253.144 313.498C251.911 314.731 248.925 313.746 246.475 311.294C244.023 308.842 243.039 305.856 244.272 304.623C245.505 303.389 248.492 304.374 250.941 306.826C253.393 309.28 254.378 312.264 253.144 313.498Z" fill="white"/>
<path d="M189.083 313.328C191.095 340.431 218.02 371.972 240.075 368.622C266.18 368.886 291.957 349.057 291.957 313.157C291.957 277.257 279.307 247.19 239.421 247.19C210.824 247.188 189.083 277.428 189.083 313.328ZM210.115 312.142C208.857 306.46 223.024 302.263 241.723 304.555C260.418 306.851 273.399 318.292 271.693 324.061C270.748 327.259 245.237 332.13 236.25 331.14C227.139 330.133 213.154 325.861 210.115 312.142Z" fill="#F0C7B1"/>
<path d="M236.25 331.14C245.237 332.13 270.748 327.259 271.693 324.061C273.401 318.292 260.418 306.851 241.723 304.555C225.659 302.586 212.97 305.411 210.501 309.847C212.734 293.932 229.648 281.507 250.255 281.415C272.414 281.323 290.41 295.529 290.469 313.157C290.522 330.782 272.603 345.14 250.446 345.24C228.283 345.332 210.289 331.126 210.229 313.5C210.229 313.239 210.269 312.983 210.277 312.722C213.584 325.968 227.271 330.148 236.25 331.14Z" fill="url(#paint5_radial)"/>
<path d="M210.115 312.143C208.857 306.461 223.023 302.263 241.723 304.556C260.418 306.851 273.398 318.292 271.692 324.061C270.747 327.259 245.237 332.13 236.25 331.141C227.139 330.134 213.154 325.862 210.115 312.143Z" fill="url(#paint6_radial)"/>
<path d="M211.1 299.446C221.564 294.527 234.35 294.074 245.51 296.947C251.488 298.342 257.857 300.142 263.074 303.506C267.91 306.329 271.839 309.723 275.512 313.925C272.175 309.696 268.616 306.172 264.016 303.307C258.356 299.786 252.157 297.603 245.704 296.056C234.3 293.256 221.529 293.893 211.1 299.446Z" fill="#C27B55"/>
<path d="M212.645 300.945C214.833 300.069 222.753 298.458 226.212 298.294C230.407 298.09 238.827 298.605 242.96 299.348C251.35 300.86 265.964 305.523 271.999 317.213C273.855 320.806 272.183 323.32 271.694 323.864C272.44 317.832 259.663 307.089 241.724 304.956C223.024 302.733 208.858 306.803 210.116 312.311C213.155 325.61 227.14 329.75 236.251 330.725C246.444 331.817 265.305 326.898 267.797 326.366C262.826 328.875 249.087 331.576 243.51 332.093C241.66 332.267 237.94 332.351 236.084 332.304C221.291 331.911 210.797 324.409 206.918 314.251C204.427 307.721 207.152 303.138 212.645 300.945Z" fill="#3C3838"/>
<path d="M399.343 312.143C400.601 306.461 386.435 302.263 367.735 304.556C349.04 306.851 336.06 318.292 337.766 324.061C338.711 327.259 364.221 332.13 373.208 331.141C382.319 330.134 396.304 325.862 399.343 312.143Z" fill="url(#paint7_radial)"/>
<path d="M384.178 316.434C384.178 324.68 377.504 331.354 369.258 331.354C361.012 331.354 354.338 324.68 354.338 316.434C354.338 308.188 361.012 301.514 369.258 301.514C377.504 301.514 384.178 308.188 384.178 316.434Z" fill="#3E4442"/>
<path d="M360.574 323.414C362.76 323.225 360.835 322.656 360.835 322.656C359.756 322.074 357.717 321.184 357.717 320.353C357.717 317.79 361.243 317.133 357.66 316.114C353.9 312.689 360.544 312.761 360.487 312.645C358.068 306.729 361.246 309.979 362.586 308.231C367.51 301.775 363.956 308.902 366.637 308.231C367.599 307.997 364.685 304.429 366.724 304.923C368.064 305.259 368.355 306.366 368.355 306.366C369.345 306.177 370.862 304.675 370.862 304.675C372.727 305.229 374.037 307.88 373.455 307.385C374.388 307.268 375.671 306.831 376.66 306.54C376.66 306.54 376.835 305.943 377.011 306.453C379.284 313.067 385.17 312.602 378.411 314.51C378.411 314.51 377.973 314.51 379.344 315.601C386.075 320.992 374.127 319.316 380.48 321.793C380.741 321.544 376.663 324.198 376.663 324.941C376.663 326.18 374.069 329.457 371.826 328.161C370.573 327.448 370.369 329.663 369.641 328.641C368.213 326.645 365.299 328.554 366.376 326.719C367.95 325.424 364.744 327.229 364.133 327.229C362.064 327.229 366.813 320.309 373.808 325.451C375.847 326.938 371.652 321.88 375.382 321.88C375.733 321.997 375.643 320.585 375.643 320.189C373.691 319.811 379.082 320.174 379.082 317.041C379.433 317.113 380.366 316.181 375.032 317.041C375.032 317.041 374.858 315.176 374.945 314.84C375.206 313.749 377.946 314.097 377.188 312.975L375.206 308.984C368.795 307.965 372.465 307.323 368.444 308.139C368.27 309.086 359.878 313.077 360.139 314.927C360.4 316.675 365.413 317.26 360.664 320.348C367.771 333.978 355.417 320.047 360.574 323.414Z" fill="#535353"/>
<path d="M369.258 303.379L369.696 314.308L374.242 304.372L370.454 314.629L378.496 307.199L371.066 315.228L381.324 311.441L371.387 316.017L382.316 316.439L371.387 316.862L381.324 321.438L371.066 317.65L378.496 325.68L370.454 318.25L374.242 328.507L369.696 318.57L369.258 329.489L368.821 318.561L364.245 328.497L368.032 318.24L360.018 325.67L367.448 317.64L357.19 321.428L367.127 316.852L356.198 316.429L367.127 316.007L357.19 311.431L367.448 315.218L360.018 307.189L368.032 314.619L364.245 304.362L368.821 314.298L369.258 303.379Z" fill="#1B2522"/>
<path d="M371.239 306.657L369.899 314.903L374.822 308.156L370.421 315.266L377.56 310.909L370.799 315.805L379.045 314.522L370.913 316.432L379.045 318.414L370.799 317.074L377.53 321.997L370.421 317.611L374.763 324.75L369.896 317.974L371.179 326.22L369.257 318.096L367.275 326.212L368.616 317.966L363.692 324.713L368.093 317.603L360.954 321.96L367.716 317.064L359.47 318.347L367.601 316.437L359.47 314.455L367.716 315.795L360.984 310.872L368.093 315.258L363.752 308.119L368.618 314.895L367.335 306.649L369.257 314.781L371.239 306.657Z" fill="#0E1613"/>
<path opacity="0.9" d="M374.852 316.434C374.852 319.523 372.346 322.029 369.257 322.029C366.169 322.029 363.662 319.523 363.662 316.434C363.662 313.346 366.169 310.839 369.257 310.839C372.346 310.839 374.852 313.346 374.852 316.434Z" fill="black"/>
<path opacity="0.7" d="M363.371 327.159C362.556 327.975 360.924 327.699 359.758 326.503C358.564 325.322 358.271 323.705 359.117 322.875C359.932 322.059 361.563 322.35 362.73 323.531C363.923 324.71 364.217 326.329 363.371 327.159Z" fill="white"/>
<path opacity="0.9" d="M381.206 313.49C379.983 314.728 376.981 313.751 374.532 311.289C372.085 308.842 371.093 305.853 372.346 304.63C373.569 303.392 376.543 304.369 378.99 306.831C381.467 309.28 382.429 312.267 381.206 313.49Z" fill="white"/>
<path d="M370.036 247.188C330.15 247.188 317.5 277.254 317.5 313.154C317.5 349.055 343.277 368.886 369.382 368.62C391.436 371.969 418.362 340.428 420.374 313.326C420.376 277.428 398.633 247.188 370.036 247.188ZM373.209 331.141C364.222 332.13 338.711 327.259 337.766 324.061C336.058 318.292 349.041 306.851 367.736 304.556C386.436 302.263 400.602 306.463 399.344 312.142C396.305 325.861 382.32 330.133 373.209 331.141Z" fill="#F0C7B1"/>
<path d="M373.209 331.14C364.222 332.13 338.711 327.259 337.766 324.061C336.058 318.292 349.041 306.851 367.736 304.555C383.799 302.586 396.489 305.413 398.958 309.847C396.725 293.932 379.811 281.507 359.204 281.415C337.045 281.323 319.049 295.529 318.989 313.157C318.937 330.782 336.856 345.14 359.012 345.24C381.176 345.332 399.17 331.126 399.229 313.5C399.229 313.239 399.189 312.983 399.182 312.722C395.872 325.968 382.186 330.148 373.209 331.14Z" fill="url(#paint8_radial)"/>
<path d="M399.343 312.143C400.601 306.461 386.435 302.263 367.735 304.556C349.04 306.851 336.06 318.292 337.766 324.061C338.711 327.259 364.221 332.13 373.208 331.141C382.319 330.134 396.304 325.862 399.343 312.143Z" fill="url(#paint9_radial)"/>
<path d="M398.357 299.446C387.893 294.527 375.106 294.074 363.946 296.947C357.968 298.342 351.6 300.142 346.383 303.506C341.546 306.329 337.617 309.723 333.944 313.925C337.281 309.696 340.84 306.172 345.44 303.307C351.1 299.786 357.299 297.603 363.752 296.056C375.158 293.256 387.93 293.893 398.357 299.446Z" fill="#C27B55"/>
<path d="M396.815 300.945C394.627 300.07 386.707 298.459 383.248 298.294C379.053 298.091 370.633 298.605 366.5 299.349C358.11 300.861 343.496 305.523 337.461 317.213C335.606 320.806 337.277 323.32 337.767 323.865C337.021 317.832 349.797 307.09 367.736 304.956C386.436 302.733 400.602 306.804 399.344 312.312C396.305 325.611 382.32 329.751 373.209 330.726C363.016 331.817 344.155 326.899 341.663 326.366C346.634 328.875 360.373 331.576 365.951 332.093C367.801 332.267 371.521 332.352 373.376 332.305C388.169 331.912 398.663 324.409 402.542 314.251C405.034 307.721 402.308 303.138 396.815 300.945Z" fill="#3C3838"/>
<path d="M407.179 392.837C407.266 449.091 361.693 494.776 305.38 494.853C249.077 494.945 203.357 449.414 203.27 393.148C203.183 336.9 248.756 291.035 305.067 290.946C361.372 290.859 407.097 336.576 407.179 392.837Z" fill="url(#paint10_radial)"/>
<path d="M398.476 243.699C398.476 295.2 356.727 336.949 305.228 336.949C253.727 336.949 211.976 295.2 211.976 243.699C211.976 192.197 253.727 150.449 305.228 150.449C356.727 150.449 398.476 192.197 398.476 243.699Z" fill="url(#paint11_radial)"/>
<path d="M190.838 293.905C215.59 269.103 232.517 279.196 266.903 285.789C269.004 286.191 282.618 289.616 280.107 294.415C278.906 296.713 275.044 296.439 272.888 296.399C238.851 295.763 222.299 271.545 190.838 293.905Z" fill="#2A232B"/>
<path d="M419.612 293.905C394.862 269.103 377.933 279.196 343.547 285.789C341.444 286.191 327.832 289.616 330.341 294.415C331.542 296.713 335.403 296.439 337.559 296.399C371.597 295.763 388.151 271.545 419.612 293.905Z" fill="#2A232B"/>
<path d="M297.345 329.552C297.345 329.552 293.866 357.196 292.307 362.577C288.878 374.394 276.969 390.968 279.279 398.457C283.902 413.432 298.021 409.63 305.449 409.575C312.32 409.521 325.522 413.435 328.232 403.682C329.107 400.534 327.135 392.576 327.135 392.576C327.135 392.576 320.561 400.315 305.066 399.457C300.645 399.211 293.451 394.245 293.369 387.243C293.262 377.751 297.85 369.749 298.852 360.327C299.608 353.17 297.345 329.552 297.345 329.552Z" fill="#E1AC8F"/>
<path d="M318.141 405.259C320.815 405.259 321.538 406.069 321.538 407.072C321.538 408.076 320.705 409.623 318.141 408.887C315.322 408.084 310.4 408.452 310.4 408.452C310.4 408.452 315.463 405.259 318.141 405.259ZM292.598 405.259C289.92 405.261 289.202 406.074 289.202 407.081C289.199 408.084 290.005 409.526 292.598 408.894C295.458 408.193 300.337 408.459 300.337 408.459C300.337 408.459 295.277 405.269 292.598 405.259ZM327.133 392.577C327.133 392.577 330.836 397.383 330.068 402.461C329.319 407.392 321.837 409.576 321.837 409.576C321.837 409.576 327.031 405.806 327.66 401.23C327.954 399.084 327.133 392.577 327.133 392.577ZM281.421 387.638C281.421 387.638 278.72 394.362 279.501 398.46C280.921 405.861 288.712 408.815 288.712 408.815C288.712 408.815 283.85 403.744 282.122 399.261C280.23 394.362 281.421 387.638 281.421 387.638Z" fill="#C27B55"/>
<path d="M318.01 396.162C320.603 393.951 320.864 392.691 320.327 391.863C319.793 391.032 318.236 390.507 316.065 393.176C313.67 396.11 308.466 398.283 308.466 398.283C308.466 398.283 315.416 398.368 318.01 396.162Z" fill="#FFE4D6"/>
<path opacity="0.1" d="M200.293 180.874C223.263 159.016 311.075 178.981 337.55 181.468C362.77 183.412 396.052 106.025 445.979 304.506C445.867 314.052 442.774 330.947 439.026 342.97C438.666 342.719 438.315 342.452 437.955 342.209C437.955 342.209 439.243 350.308 422.888 377.992C423.756 357.917 419.874 343.445 416.691 324.742C377.628 275.041 341.124 263.386 313.345 254.73C331.995 276.501 350.444 296.481 358.515 318.299C324.582 294.487 277.927 246.474 277.927 246.474C277.927 246.474 281.419 258.172 346.776 318.302C319.564 311.638 268.829 284.284 233.292 231.388C226.463 242.578 264.126 307.962 265.188 310.466C246.133 295.333 220.232 274.072 213.577 249.245C213.577 249.245 209.671 259.298 206.958 270.717C199.801 300.96 199.736 338.556 198.431 348.115C194.291 326.428 193.644 302.156 193.652 302.472C183.941 346.966 192.61 378.052 192.776 388.819C179.851 362.871 166.408 331.882 162.496 302.944C162.501 302.944 191.389 176.895 200.293 180.874Z" fill="#2A232B"/>
<path d="M129.621 278.181C129.82 264.778 132.406 243.567 136.884 231.482C128.728 239.912 118.458 249.858 110.078 255.105C121.169 245.507 124.603 237.301 149.668 184.732C165.058 152.455 175.249 118.214 205.315 114.185C215.458 112.793 225.333 116.647 234.606 120.626C258.503 98.768 288.293 89.9627 315.848 92.4494C400.094 98.6909 422.566 153.102 467.624 163.993C460.562 166.057 448.686 162.83 441.922 159.647C451.247 172.229 447.945 170.914 468.51 191.479C476.887 199.784 484.628 209.989 494.727 215.982C481.177 214.289 474.055 203.962 454.239 193.344C457.096 197.919 467.291 213.471 483.902 229.385C491.039 236.199 502.801 245.758 511.002 251.552C505.011 249.164 487.408 242.286 472.192 228.794C480.073 240.061 502.684 260.971 492.446 303.098C490.377 284.682 492.451 262.279 474.918 251.139C476.867 259.347 484.402 276.558 478.906 295.173H451.715C451.598 304.719 448.377 322.362 444.483 334.385C444.108 334.134 443.745 333.868 443.367 333.624C443.367 333.624 442.116 341.723 425.105 369.407C426.007 349.333 424.553 334.86 421.243 316.158C380.596 266.457 342.617 254.802 313.717 246.146C333.123 267.916 348.065 292.987 356.468 314.808C329 285.813 272.333 240.787 272.333 240.787C272.333 240.787 273.239 252.887 341.244 313.015C317.748 298.604 267.395 275.7 230.423 222.803C223.316 233.993 257.326 299.378 258.433 301.882C238.604 286.748 222.013 260.514 215.078 235.687C215.078 235.687 205.837 250.714 203.025 262.132C195.577 292.375 198.091 317.538 196.739 327.097C192.432 305.41 189.174 293.571 189.182 293.887C179.071 338.381 190.684 374.44 190.853 385.208C177.41 359.259 160.834 323.046 156.763 294.109H127.925C129.589 283.349 128.355 283.319 129.621 278.181Z" fill="#2A232B"/>
<path d="M113.164 202.139C122.641 201.717 127.776 202.386 138.916 201.49C140.582 197.686 145.725 187.689 147.465 183.91C138.764 191.618 120.699 201.369 113.164 202.139Z" fill="#0C080C"/>
<path d="M354.958 124.341C394.812 118.647 431.796 161.447 465.416 164.133C458.272 165.6 447.05 161.591 440.577 158.545C449.902 171.128 447.39 171.202 467.957 191.767C476.335 200.073 482.306 208.975 492.401 214.968C481.579 213.173 472.834 202.646 453.47 192.143C430.72 158.518 395.976 128.899 354.958 124.341ZM215.078 235.687C215.078 235.687 205.837 250.714 203.025 262.133C195.577 292.375 198.091 317.538 196.739 327.097C192.432 305.411 189.174 293.572 189.182 293.887C188.938 294.952 188.722 296.004 188.505 297.058C179.63 340.085 190.689 374.697 190.853 385.208C177.41 359.259 160.834 323.295 156.763 294.36H127.925C129.589 283.598 128.355 283.319 129.621 278.184C129.82 264.781 132.406 243.57 136.884 231.484C128.728 239.914 118.458 249.861 110.078 255.108C120.98 245.673 124.498 237.552 148.415 187.366C155.783 175.9 164.123 165.04 173.431 154.181C156.024 176.561 146.078 203.915 143.591 231.268C148.564 216.348 163.681 206.242 173.938 194.383C163.131 211.27 155.331 227.675 151.051 251.161C154.192 245.775 158.635 242.766 161.873 238.728C156.743 253.665 158.242 262.232 160.52 273.623C162.763 255.901 166.491 227.118 175.918 211.375C175.918 238.728 167.436 265.01 178.417 294.124C178.315 272.572 186.479 252.957 192.158 238.221C191.029 243.572 191.897 256.759 192.198 262.212C195.376 245.631 197.534 229.363 207.2 216.002C202.888 191.215 196.09 164.58 205.251 158.05C190.363 183.907 236.302 206.471 234.929 205.372C260.624 219.645 276.909 221.386 290.233 224.758C281.542 217.763 277.026 209.06 268.25 202.139C293.117 210.718 327.838 237.253 345.551 248.095C350.281 255.018 350.708 256.779 352.118 260.113C341.97 255.319 329.291 250.808 313.719 246.143C349.55 286.34 342.39 278.234 356.47 314.805C332.063 289.041 332.101 288.302 275.845 243.575C282.641 252.442 300.639 277.11 341.247 313.012C332.071 307.385 263.824 270.587 230.426 222.801C228.832 235.789 230.615 244.321 258.435 301.88C253.343 300.32 233.529 282.595 215.078 235.687ZM352.116 260.116C373.26 270.105 396.764 286.228 421.243 316.158C424.553 334.86 426.007 349.333 425.105 369.408C428.902 363.228 431.878 358.073 434.266 353.719C442.576 338.563 443.367 333.624 443.367 333.624C443.745 333.868 444.108 334.134 444.483 334.385C448.377 322.362 451.598 305.468 451.715 295.921H478.404C483.905 277.309 475.795 258.017 473.846 249.809C491.379 260.949 491.849 281.489 492.67 299.94C501.05 258.487 477.874 238.668 470.539 226.807C485.881 238.718 503.017 248.018 509.01 250.405C500.801 244.611 490.584 236.803 483.447 229.99C474.398 221.321 466.99 212.136 461.641 204.815C449.989 198.842 441.31 189.897 429.558 184.021C449.27 197.161 455.479 218.017 461.776 238.094C458.757 233.735 453.875 230.793 451.257 226.874C454.368 235.045 458.938 243.52 456.912 253.648C444.478 236.241 439.505 211.375 419.612 196.455C439.701 216.544 441.094 269.458 441.009 278.883C420.738 181.711 334.918 90.2787 248.031 124.341C335.065 96.9877 409.665 188.995 419.612 268.568C402.205 248.675 397.232 223.808 372.365 211.375C384.798 223.808 392.258 243.701 399.718 258.621C372.365 226.295 349.985 193.968 312.685 171.588C330.091 191.481 352.471 208.888 364.905 233.755C372.365 241.215 374.851 251.161 379.825 258.621C362.418 241.215 340.545 223.408 317.984 216.806C343.318 238.624 350.335 255.896 352.116 260.116Z" fill="#1B141C"/>
<path d="M349.403 123.916C370.023 123.844 427.79 140.065 456.564 196.525C425.739 153.732 394.034 134.02 349.403 123.916ZM399.333 205.676C367.126 138.217 306.933 117.451 274.674 119.535C297.981 118.038 363.677 141.915 399.333 205.676ZM238.535 145.625C237.02 132.513 219.251 119.045 199.827 126.592C198.159 127.241 196.692 128.425 195.03 129.027C216.237 121.365 235.618 132.754 238.535 145.625ZM232.564 154.097C226.917 146.025 219.276 138.583 209.416 136.198C179.444 128.952 157.019 173.329 151.832 193.19C152.486 190.696 178.181 130.854 210.261 138.319C219.514 140.43 226.681 147.003 232.564 154.097ZM229.565 159.829C226.758 194.476 306.341 218.93 323.798 233.695C292.729 207.414 230.043 191.188 229.565 159.829ZM366.877 236.612C360.285 225.589 332.904 181.291 288.897 154.935C261.601 138.588 251.005 148.46 245.813 150.867C281.144 134.52 345.872 207.496 366.877 236.612Z" fill="#0C080C"/>
<path d="M441.009 184.564C441.009 184.564 408.688 149.703 360.493 132.64C396.515 141.641 417.921 159.361 441.009 184.564ZM361.374 135.643C382.195 142.76 418.189 182.726 422.73 190.522C410.983 170.352 383.381 141.47 361.374 135.643ZM295.783 129.156C336.631 138.528 373.822 184.507 373.822 184.507C356.482 157.67 327.96 131.812 295.783 129.156ZM260.532 153.078C280.306 158.165 324.899 195.018 327.187 198.24C320.751 189.182 282.151 156.121 260.532 153.078ZM246.325 156.947C268.054 159.759 286.075 177.949 288.763 181.627C277.468 166.177 265.883 157.422 246.325 156.947ZM244.157 163.827C265.386 185.822 297.004 192.248 308.472 207.217C292.63 186.538 263.536 181.764 244.157 163.827ZM270.076 215.926C242.198 200.797 222.913 187.657 218.594 183.969C214.029 180.078 202.381 170.716 210.898 161.214C204.577 165.367 205.9 174.597 214.369 183.407C223.58 192.991 267.584 215.926 270.076 215.926C267.664 214.615 270.073 215.926 270.076 215.926ZM289.71 224.729C268.176 219.556 246.126 212.211 227.643 199.747C214.782 191.076 195.652 170.842 205.611 158.961C208.461 155.552 214.461 153.955 218.783 154.005C214.476 153.953 209.262 155 205.932 157.874C196.304 166.19 206.598 187.453 222.682 199.004C242.145 212.981 266.587 219.763 289.71 224.729ZM290.792 139.237C294.92 140.062 299.013 140.609 302.979 142.124C336.646 154.96 368.729 194.535 368.729 194.535C351.387 168.632 322.184 142.198 290.792 139.237ZM293.881 150.255C332.566 165.145 374.849 214.777 377.336 216.557C358.519 188.028 326.769 158.508 293.881 150.255ZM196.095 156.298C170.427 151.215 158.337 194.6 156.857 197.089C165.568 179.237 178.877 154.649 196.095 156.298ZM196.358 185.887C174.572 206.322 179.29 232.194 179.655 244.269C179.245 222.331 184.885 199.531 196.358 185.887Z" fill="#3A353A"/>
<path d="M134.866 234.911C124.969 262.24 127.729 290.563 127.577 293.05C127.381 293.475 126.986 294.365 126.789 294.798C129.4 294.241 128.816 294.783 129.472 294.783C134.478 283.996 140.769 269.896 157.616 247.198C146.949 260.054 137.325 273.557 129.741 288.526C134.244 259.805 152.544 235.983 154.66 232.949C144.614 245.706 135.214 259.333 130.116 276.192C130.315 262.789 133.396 242.075 137.875 229.99C129.718 238.42 119.448 249.113 111.068 254.359C122.159 244.761 126.088 237.301 151.153 184.733C166.544 152.456 175.247 118.711 205.313 114.683C215.456 113.291 225.331 116.648 234.604 120.626C258.501 98.7684 288.291 91.2089 315.846 93.6956C400.092 99.9371 421.303 153.028 466.362 163.919C459.299 165.983 447.338 161.731 440.575 158.548C449.9 171.131 447.388 171.205 467.955 191.77C476.333 200.075 482.304 208.978 492.399 214.971C481.458 213.155 472.655 202.413 452.837 191.795C455.694 196.37 466.834 214.075 483.447 229.99C490.584 236.804 500.802 244.612 509.01 250.406C503.018 248.018 485.882 238.718 470.539 226.807C477.875 238.669 501.053 258.487 492.671 299.94C491.85 281.489 491.377 260.949 473.846 249.809C475.796 258.017 483.905 277.309 478.405 295.922H479.193H481.369C486.695 278.669 479.228 261.727 476.184 253.091C492.121 267.514 491.875 298.622 490.283 313.714C496.552 296.68 498.934 280.271 493.914 262.764C491.104 252.917 485.211 244.214 479.093 236.132C478.671 235.56 478.22 234.988 477.798 234.416C489.46 243.766 503.96 252.022 517.858 254.658C517.858 254.658 475.413 224.271 457.407 196.818C461.883 200.026 467.975 205.123 473.919 209.127C482.498 214.971 489.261 217.93 499.133 216.686C487.396 211.29 479.663 199.802 471.409 191.198C453.083 171.951 460.568 182.694 445.15 162.203C457.584 167.276 464.171 166.779 471.683 164.068C467.453 163.074 463.029 161.905 459.051 160.363C425.704 147.457 388.302 88.2995 309.254 88.0011C282.149 87.8768 252.953 98.3705 233.858 119.06C230.55 117.543 227.193 116.25 223.812 115.156C180.892 101.355 166.195 140.818 147.371 180.829C140.21 186.772 126.309 200.573 107.512 202.413C116.638 203.059 126.262 203.855 137.502 202.91C121.04 240.359 120.147 244.438 98.7842 261.969C117.061 255.625 122.855 248.364 134.866 234.911ZM145.981 185.899C144.241 189.679 140.088 196.691 138.422 200.496C127.281 201.391 124.621 201.465 115.146 201.888C122.681 201.117 137.278 193.608 145.981 185.899ZM155.871 284.829C155.871 289.429 161.147 313.589 166.842 328.485C163.908 311.55 163.336 293.87 163.786 276.712C164.233 258.982 167.018 241.6 172.091 224.616C160.354 273.405 166.695 336.84 190.067 381.951C185.32 358.302 182.558 334.356 185.567 310.285C186.263 304.715 187.208 299.194 188.451 293.723C188.451 293.723 186.163 272.91 192.156 238.221C188.076 266.992 190.913 294.992 196.533 323.29C195.986 302.7 197.03 281.937 202.302 261.944C205.184 251.002 208.367 247.571 213.492 234.889C210.679 224.693 209.237 214.2 208.245 203.706C213.044 235.61 221.671 253.812 238.955 279.674C244.08 287.308 249.399 294.32 256.76 299.94C251.588 290.889 234.479 252.445 233.46 249.859C230.053 241.23 227.989 232.303 229.558 223.052C224.485 215.095 220.034 206.74 215.981 198.21C228.984 222.331 245.918 243.493 266.56 261.596C277.228 270.97 288.589 279.624 300.279 287.656C312.317 295.937 325.245 302.402 337.654 310.011C321.441 296.434 305.352 281.663 294.361 269.702C287.697 262.441 279.913 255.105 274.542 246.8C269.196 238.519 266.883 229.045 262.656 220.193C266.858 227.429 269.867 235.162 272.976 240.409C273.746 241.702 302.366 263.187 314.975 275.173C330.99 290.366 339.22 295.464 354.392 311.478C347.451 296.111 345.636 288.676 326.713 263.585C314.229 247.024 309.082 246.104 292.449 220.193C296.748 226.086 301.1 231.805 306.051 237.177C308.637 239.986 311.273 242.697 313.934 245.432C329.376 250.058 343.674 252.693 367.792 267.663C409.248 293.4 418.026 312.523 434.86 328.935C431.876 318.565 422.725 301.208 414.519 286.91C407.035 273.855 398.804 260.352 389.678 249.262C401.218 259.606 409.745 272.811 417.354 286.164C425.361 300.288 434.288 315.482 436.996 331.695C431.752 327.667 427.025 323.166 422.402 318.416C425.185 334.157 426.704 350.569 425.98 366.558C448.4 330.049 457.151 278.222 450.472 245.241C467.737 312.679 436.233 355.102 421.482 381.699C422.626 365.437 420.985 327.042 419.717 316.051C414.221 309.191 375.175 267.342 317.042 248.563C327.287 258.808 336.261 269.451 343.351 282.158C349.841 293.845 356.033 306.08 359.763 319.533C346.584 306.353 332.213 294.368 318.138 282.208C303.666 269.7 289.691 256.645 275.268 244.087C279.17 249.931 283.773 255.451 312.019 283.003C326.914 297.55 350.139 318.538 350.637 319.085C348.15 318.14 306.473 296.481 286.928 281.661C266.488 266.169 244.605 246.574 230.779 224.94C229.563 239.885 238.391 255.899 242.964 265.547C247.937 276.016 255.345 294.392 263.427 307.721C250.894 300.36 241.42 289.941 233.786 277.533C225.856 264.652 218.716 252.194 214.29 237.671C210.56 245.082 206.482 252.492 204.741 260.673C202.901 269.277 201.685 277.955 200.837 286.709C199.171 304.289 197.281 322.343 198.301 340.023C193.974 326.421 190.667 312.819 189.249 298.57C185.022 322.243 189.023 356.957 193.673 391.273C180.869 373.814 170.05 348.602 163.858 325.874C159.782 310.854 155.174 294.676 155.871 284.829Z" fill="black"/>
</g>
<defs>
<linearGradient id="paint0_linear" x1="300" y1="-75" x2="300" y2="675" gradientUnits="userSpaceOnUse">
<stop stop-color="#151371"/>
<stop offset="0.453125" stop-color="#FF00B8"/>
<stop offset="0.96875" stop-color="#FFC700"/>
</linearGradient>
<linearGradient id="paint1_linear" x1="439" y1="245" x2="439" y2="644" gradientUnits="userSpaceOnUse">
<stop stop-color="#FF00B8"/>
<stop offset="1" stop-color="#F0DB0A" stop-opacity="0"/>
</linearGradient>
<linearGradient id="paint2_linear" x1="194" y1="161" x2="194" y2="560" gradientUnits="userSpaceOnUse">
<stop stop-color="#FF00B8"/>
<stop offset="1" stop-color="#F0DB0A" stop-opacity="0"/>
</linearGradient>
<linearGradient id="paint3_linear" x1="305.225" y1="534.642" x2="305.225" y2="435.175" gradientUnits="userSpaceOnUse">
<stop stop-color="#E1AC8F" stop-opacity="0.8"/>
<stop offset="0.7" stop-color="#C27B55"/>
</linearGradient>
<radialGradient id="paint4_radial" cx="0" cy="0" r="1" gradientUnits="userSpaceOnUse" gradientTransform="translate(238.691 316.974) rotate(174.019) scale(37.5889)">
<stop stop-color="white"/>
<stop offset="0.315" stop-color="#FCFDFD"/>
<stop offset="0.504" stop-color="#F4F7F8"/>
<stop offset="0.66" stop-color="#E5ECEF"/>
<stop offset="0.76" stop-color="#D8E2E7"/>
</radialGradient>
<radialGradient id="paint5_radial" cx="0" cy="0" r="1" gradientUnits="userSpaceOnUse" gradientTransform="translate(250.547 312.076) rotate(1.19182) scale(39.7949 31.8343)">
<stop stop-color="#E1AC8F"/>
<stop offset="0.7" stop-color="#E1AC8F" stop-opacity="0.3"/>
<stop offset="1" stop-color="#F0C7B1" stop-opacity="0"/>
</radialGradient>
<radialGradient id="paint6_radial" cx="0" cy="0" r="1" gradientUnits="userSpaceOnUse" gradientTransform="translate(229.549 382.63) scale(75.8833)">
<stop offset="0.95" stop-opacity="0"/>
<stop offset="1" stop-opacity="0.2"/>
</radialGradient>
<radialGradient id="paint7_radial" cx="0" cy="0" r="1" gradientUnits="userSpaceOnUse" gradientTransform="translate(370.769 316.973) rotate(5.98141) scale(37.5864)">
<stop stop-color="white"/>
<stop offset="0.316" stop-color="#FCFDFD"/>
<stop offset="0.505" stop-color="#F4F7F8"/>
<stop offset="0.661" stop-color="#E5ECEF"/>
<stop offset="0.76" stop-color="#D8E2E7"/>
</radialGradient>
<radialGradient id="paint8_radial" cx="0" cy="0" r="1" gradientUnits="userSpaceOnUse" gradientTransform="translate(358.91 312.076) rotate(178.808) scale(39.7948 31.8343)">
<stop stop-color="#E1AC8F"/>
<stop offset="0.7" stop-color="#E1AC8F" stop-opacity="0.3"/>
<stop offset="1" stop-color="#F0C7B1" stop-opacity="0"/>
</radialGradient>
<radialGradient id="paint9_radial" cx="0" cy="0" r="1" gradientUnits="userSpaceOnUse" gradientTransform="translate(379.911 382.63) rotate(180) scale(75.8833)">
<stop offset="0.95" stop-opacity="0"/>
<stop offset="1" stop-opacity="0.2"/>
</radialGradient>
<radialGradient id="paint10_radial" cx="0" cy="0" r="1" gradientUnits="userSpaceOnUse" gradientTransform="translate(305.226 392.902) scale(101.954)">
<stop stop-color="#FFE4D6" stop-opacity="0.5"/>
<stop offset="0.9" stop-color="#F0C7B1" stop-opacity="0"/>
</radialGradient>
<radialGradient id="paint11_radial" cx="0" cy="0" r="1" gradientUnits="userSpaceOnUse" gradientTransform="translate(305.226 243.701) scale(92.0069)">
<stop stop-color="#FFE4D6" stop-opacity="0.5"/>
<stop offset="0.9" stop-color="#F0C7B1" stop-opacity="0"/>
</radialGradient>
<clipPath id="clip0">
<rect width="600" height="600" fill="white"/>
</clipPath>
</defs>
</svg>
