<svg width="600" height="600" viewBox="0 0 600 600" fill="none" xmlns="http://www.w3.org/2000/svg">
<g clip-path="url(#clip0)">
<path d="M675 675H-75V-75H675V675Z" fill="url(#paint0_linear)"/>
<path d="M360.996 403.874H308.184V356.576H360.996V403.874ZM414.113 320.069H340.054V380.225H414.113V320.069ZM377.082 441.95H442.881V362.639H377.082V441.95ZM400.757 434.192H334.59V491.191H400.757V434.192ZM580.44 284.416H490.23V387.501H580.44V284.416ZM478.458 331.108H456.605V356.576H478.458V331.108ZM544.531 252.277H456.605V304.426H544.531V252.277ZM442.881 270.468H395.532V335.958H442.881V270.468ZM334.59 275.32H308.184V303.213H334.59V275.32ZM299.325 320.069H258.501V382.71H299.325V320.069V320.069ZM347.338 441.95H275.708V521.511H347.338V441.95ZM308.184 576.086H388.617V528.788H308.184V576.086ZM500.311 557.894H443.791V599.129H500.313V557.894H500.311ZM637.361 516.659H585.062V578.511H637.361V516.659ZM551.302 544.718H506.381V585.953H551.302V544.718ZM594.357 463.296H528.843V537.278H594.357V463.296ZM610.791 590.639H528.843V644H610.791V590.639ZM340.054 557.894H251.187V637.937H340.052V557.894H340.054ZM630.216 356.576H569.818V403.874H630.216V356.576ZM594.357 424.49H568.208V451.477H594.357V424.49ZM251.187 474.697H300.975V404.294H251.187V474.697ZM321.764 249.852L232 252.277V320.069H321.764V249.852ZM646 252.277H587.725V326.256H646V252.277ZM371.858 245H347.338V298.361H371.858V245ZM641.143 437.983H581.281V486.494H641.143V437.983Z" fill="url(#paint1_linear)" stroke="#FFC700" stroke-width="1.5"/>
<path d="M115.996 319.874H63.1843V272.576H115.996V319.874ZM169.113 236.069H95.0537V296.225H169.113V236.069ZM132.082 357.95H197.881V278.639H132.082V357.95ZM155.757 350.192H89.5904V407.191H155.757V350.192ZM335.44 200.416H245.23V303.501H335.44V200.416ZM233.458 247.108H211.605V272.576H233.458V247.108ZM299.531 168.277H211.605V220.426H299.531V168.277ZM197.881 186.468H150.532V251.958H197.881V186.468ZM89.5904 191.32H63.1843V219.213H89.5904V191.32ZM54.3246 236.069H13.5008V298.71H54.3246V236.069V236.069ZM102.338 357.95H30.7084V437.511H102.338V357.95ZM63.1843 492.086H143.617V444.788H63.1843V492.086ZM255.311 473.894H198.791V515.129H255.313V473.894H255.311ZM392.361 432.659H340.062V494.511H392.361V432.659ZM306.302 460.718H261.381V501.953H306.302V460.718ZM349.357 379.296H283.843V453.278H349.357V379.296ZM365.791 506.639H283.843V560H365.791V506.639ZM95.0537 473.894H6.18721V553.937H95.0519V473.894H95.0537ZM385.216 272.576H324.818V319.874H385.216V272.576ZM349.357 340.49H323.208V367.477H349.357V340.49ZM6.18721 390.697H55.9745V320.294H6.18721V390.697ZM76.7643 165.852L-13 168.277V236.069H76.7643V165.852ZM401 168.277H342.725V242.256H401V168.277ZM126.858 161H102.338V214.361H126.858V161ZM396.143 353.983H336.281V402.494H396.143V353.983Z" fill="url(#paint2_linear)" stroke="#FFC700" stroke-width="1.5"/>
<rect x="504" y="328.706" width="8.86149" height="25.1423" fill="white"/>
<rect x="521.753" y="328.857" width="8.83104" height="25.1423" fill="white"/>
<rect x="512.861" y="320" width="8.89195" height="8.85765" fill="white"/>
<rect x="539.416" y="328.857" width="8.89195" height="25.1423" fill="white"/>
<rect x="530.584" y="320" width="8.83105" height="8.85765" fill="white"/>
<rect x="548.307" y="320" width="8.86149" height="8.85765" fill="white"/>
<rect x="557.169" y="327.792" width="8.83104" height="8.85766" fill="white"/>
<rect x="548.307" y="336.65" width="8.86149" height="8.82721" fill="white"/>
<rect x="40" y="390.425" width="7.57515" height="21.4449" fill="white"/>
<rect x="55.1763" y="390.555" width="7.54912" height="21.4449" fill="white"/>
<rect x="47.5751" y="383" width="7.60118" height="7.55506" fill="white"/>
<rect x="70.2745" y="390.555" width="7.60118" height="21.4449" fill="white"/>
<rect x="62.7255" y="383" width="7.54912" height="7.55506" fill="white"/>
<rect x="77.8757" y="383" width="7.57515" height="7.55506" fill="white"/>
<rect x="85.4509" y="389.646" width="7.54912" height="7.55506" fill="white"/>
<rect x="77.8757" y="397.202" width="7.57515" height="7.52909" fill="white"/>
<path d="M158.544 364.086C148.061 339.291 149.606 329.045 152.398 309.661C147.587 314.874 144.706 321.864 136.854 328.332C137.463 323.687 146.739 296.75 147.476 294.772C138.575 302.886 133.654 304.616 129.393 306.285C132.269 301.995 134.177 297.007 138.424 287.916H165.12C165.655 297.829 167.589 310.074 170.474 320.829C168.948 321.841 164.937 328.193 158.544 364.086ZM438.384 291.686C438.275 300.575 435.277 317.236 431.651 328.431C433.515 329.684 435.687 331.148 435.214 330.768C448.994 341.832 451.21 343.742 452.613 361.764C462.626 340.16 454.132 312.426 453.63 291.688H438.384V291.686ZM453.648 291.686H463.932C462.584 296.245 459.449 302.773 456.008 307.045C454.716 302.032 454.005 294.897 453.648 291.686Z" fill="#1B141C"/>
<path d="M149.634 291.769C141.763 312.447 141.3 317.611 137.132 327.753C143.731 322.316 148.68 311.588 153.109 308.719C152.345 315.712 148.71 329.837 152.762 345.305C154.29 351.164 156.235 356.837 158.576 362.371C159.178 354.127 160.406 330.115 168.022 322.821C162.788 336.599 159.801 354.614 159.801 368.669C144.959 342.804 148.365 328.61 151.859 310.572C146.441 316.754 144.912 324.488 134.515 330.787C138.058 323.307 139.195 314.416 146.533 296.192C140.443 302.282 136.345 304.713 128.217 307.122C131.269 302.071 133.955 295.669 136.315 290.463H138.82C136.507 295.451 134.117 300.481 131.204 304.829C137.294 302.444 143.127 297.998 149.634 291.769ZM431.651 328.432C432.151 328.777 435.532 331.099 437.051 332.433C443.386 337.995 451.555 343.071 450.986 367.815C461.505 349.642 460.141 322.745 456.865 308.096C461.535 303.074 464.689 296.884 466.298 291.67L463.513 291.644C462.165 296.204 459.681 301.694 456.24 305.966C454.943 300.953 454.237 295.363 453.88 292.151L453.63 291.688C454.132 312.426 460.843 337.046 453.067 360.034C451.664 342.012 447.487 338.729 431.651 328.432Z" fill="black"/>
<path d="M522.919 581.545C517.834 570.556 503.943 554.27 488.509 549.771C469.431 544.207 426.367 537.48 410.398 533.741C397.598 530.74 371.817 507.589 362.781 499.818C361.16 498.428 359.833 495.559 359.801 493.427C359.479 468.271 369.515 401.443 369.515 401.443H301.975H234.437C234.437 401.443 244.472 468.268 244.146 493.427C244.12 495.559 242.786 498.428 241.17 499.818C232.135 507.589 206.353 530.74 193.553 533.741C177.583 537.48 134.518 544.436 115.442 550.001C100.004 554.497 86.1178 570.553 81.0328 581.543C72.4467 600.086 70.4183 633.643 70.4183 662.588H301.975H533.531C533.531 633.646 531.5 600.088 522.919 581.545Z" fill="#E5BCA6"/>
<path d="M438.954 545.145C495.319 553.347 519.04 565.309 526.468 662.593H533.531C533.531 633.648 531.5 600.091 522.919 581.548C517.834 570.558 503.942 554.273 488.509 549.774C469.431 544.21 426.367 537.483 410.398 533.743C397.598 530.742 368.158 505.797 360.283 495.884C368.063 506.776 389.901 532.018 409.035 538.629C418.188 541.792 425.811 543.232 438.954 545.145ZM194.917 538.629C214.05 532.02 235.886 506.776 243.669 495.884C235.796 505.794 206.356 530.742 193.553 533.743C177.585 537.483 134.52 544.439 115.442 550.003C100.009 554.5 86.1178 570.556 81.0328 581.546C72.4513 600.089 70.4206 633.646 70.4206 662.59H77.4831C84.8651 565.93 108.685 553.335 164.997 545.143C178.138 543.232 185.763 541.792 194.917 538.629Z" fill="#F4D8CA"/>
<path d="M291.893 576.549C291.893 576.549 280.143 572.823 275.491 571.04C251.296 561.757 172.692 555.741 172.692 555.741C172.692 555.741 255.483 559.027 273.752 562.176C272.692 551.138 266.766 515.855 266.766 515.855C266.766 515.855 278.689 554.792 281.607 564.614C283.167 569.866 291.893 576.549 291.893 576.549ZM316.898 573.441C316.692 573.61 316.456 573.83 316.199 574.062C316.461 573.865 316.697 573.659 316.898 573.441ZM291.893 576.549C291.893 576.549 298.591 583.477 301.958 583.565C306.381 583.683 313.138 576.852 316.201 574.062C313.272 576.278 306.571 577.283 303.906 577.387C300.826 577.505 291.893 576.549 291.893 576.549ZM340.561 559.138C336.983 559.712 330.405 560.965 330.405 560.965L335.701 526.486C334.205 533.597 325.341 564.024 316.898 573.441C321.321 569.699 331.158 567.905 336.173 567.18C359.875 563.744 359.866 563.746 431.255 555.741C431.255 555.741 363.939 555.382 340.561 559.138Z" fill="#D6A286"/>
<path d="M522.919 581.545C517.834 570.556 503.943 554.27 488.509 549.771C469.431 544.207 426.367 537.48 410.398 533.741C397.598 530.74 371.817 507.589 362.781 499.818C361.16 498.428 359.833 495.559 359.801 493.427C359.479 468.271 369.515 401.443 369.515 401.443H301.975H234.437C234.437 401.443 244.472 468.268 244.146 493.427C244.12 495.559 242.786 498.428 241.17 499.818C232.135 507.589 206.353 530.74 193.553 533.741C177.583 537.48 134.518 544.436 115.442 550.001C100.004 554.497 86.1178 570.553 81.0328 581.543C72.4467 600.086 70.4183 633.643 70.4183 662.588H301.975H533.531C533.531 633.646 531.5 600.088 522.919 581.545Z" stroke="#B7734E" stroke-width="4.5"/>
<path d="M358.178 494.643C358.113 494.237 358.067 493.834 358.06 493.45C357.842 476.361 362.272 440.838 365.233 419.171C328.881 414.577 275.072 414.598 238.718 419.208C241.68 440.88 246.105 476.373 245.882 493.45C245.88 493.726 245.85 494.013 245.813 494.3C254.67 502.603 263.566 509.416 271.411 513.174C283.712 519.069 320.119 518.794 332.545 513.174C340.443 509.606 349.342 502.895 358.178 494.643Z" fill="url(#paint3_linear)"/>
<path d="M169.455 664.857L172.518 523.951C172.518 523.951 196.123 518.192 211.038 509.333C251.551 560.166 371.856 549.468 392.43 507.897C395.878 509.113 398.73 510.669 402.299 511.864C413.876 519.704 423.632 522.27 423.632 522.27L425.797 665.105C392.717 665.54 169.455 664.857 169.455 664.857Z" fill="#F5F4F5"/>
<path d="M427.047 530.434C417.239 528.769 409.424 526.505 405.161 522.228C392.789 545.441 343.189 560.152 326.767 562.308C374.361 547.775 394.354 537.27 402.25 512.331C406.858 517.849 417.352 520.549 430.761 522.839L427.047 530.434ZM192.379 522.737C195.746 522.015 197.427 519.88 200.768 519.049L197.23 514.725C190.019 519.898 176.457 522.378 160.413 524.969L160.848 533.625C170.008 531.796 178.949 529.485 187.312 525.93C204.64 545.578 231.697 555.243 259.234 559.244C224.69 550.943 204.883 536.932 192.379 522.737Z" fill="white"/>
<path d="M389.644 512.72C375.915 539.027 272.152 569.672 213.64 514.726C210.003 516.15 199.12 519.553 199.12 519.553C241.74 572.997 366.639 573.337 399.883 519.294C399.74 519.239 393.025 514.299 389.644 512.72Z" fill="#DFDDE2"/>
<path d="M392.3 507.593C368.943 550.605 247.397 556.692 211.133 509.04C197.888 512.644 185.154 520.331 172.333 522.255L169.455 664.857L425.795 665.105L423.815 520.646C416.014 519.009 408.761 514.308 402.387 511.629C398.862 510.15 395.871 508.818 392.3 507.593ZM210.255 510.478C242.448 563.936 369.605 553.212 394.155 510.708C397.133 511.863 397.894 512.319 401.347 513.447C375.917 562.555 250.127 578.206 198.677 516.103C199.039 516.01 206.627 511.733 210.255 510.478ZM196.123 518.192C237.718 580.818 375.024 571.116 403.558 515.211C407.659 518.432 414.048 522.133 421.935 523.86L425.778 660.664L170.194 660.701L174.602 525.706C181.049 522.466 191.399 520.076 196.123 518.192Z" fill="#B8B6C9"/>
<path d="M59.9311 664.415C53.9708 632.34 54.6238 554.212 80.8012 554.377C111.218 542.079 148.575 527.97 179.912 518.923C195.908 502.145 211.024 486.188 240.552 469.569C241.453 475.588 244.891 489.347 240.577 496.831C237.44 502.277 227.186 509.742 218.454 516.207C213.756 522.505 209.361 528.651 203.174 537.253C215.141 588.893 225.406 615.473 226.554 660.263C226.554 660.263 223.192 661.858 375.841 661.182C380.97 609.455 387.403 583.47 399.874 535.915C399.874 535.915 389.899 524.305 383.186 515.376C378.43 510.752 363.828 497.935 362.716 495.344C359.996 488.997 361.447 481.015 362.971 469.023C387.963 480.307 402.336 496.858 423.366 518.351C441.263 523.258 494.824 541.431 521.65 553.585C530.831 553.33 536.013 558.214 539.878 566.242C552.393 592.165 549.432 629.45 544.926 665.322C500.719 665.394 185.935 670.444 59.9311 664.415Z" fill="#201B1B"/>
<path d="M241.48 475.731C241.851 478.209 242.184 480.559 242.432 482.773C241.927 483.389 202.577 536.848 202.29 537.247C211.959 515.251 225.793 492.459 241.48 475.731ZM362.302 475.731C361.934 478.209 361.876 480.559 361.628 482.773C362.133 483.389 400.833 534.801 401.118 535.202C390.871 514.709 377.99 492.459 362.302 475.731ZM452.505 547.683C442.594 562.111 440.478 567.092 429.629 581.391C432.109 581.391 436.11 581.775 438.59 581.775C447.075 567.222 447.091 559.814 452.505 547.683ZM462.661 652.404C471.444 631.796 478.717 613.709 487.527 593.07L484.64 588.407C477.302 609.606 469.515 631.147 462.661 652.404ZM165.467 581.775C167.947 581.775 171.949 581.391 174.431 581.391C163.583 567.092 161.466 566.198 151.558 551.77C156.967 563.901 156.983 567.222 165.467 581.775ZM119.418 588.407L116.53 593.07C125.343 613.709 127.564 631.796 136.349 652.404C129.493 631.147 126.756 609.606 119.418 588.407Z" fill="#110C0C"/>
<path d="M222.407 510.932C225.142 507.121 234.534 494.094 242.323 481.847C244.611 494.483 240.411 501.978 222.407 510.932ZM361.577 481.008C367.489 491.188 374.456 501.32 381.639 510.654C362.179 501.793 360.871 492.732 361.577 481.008Z" fill="#010101"/>
<path d="M362.915 469.428C362.934 469.287 362.955 469.155 362.969 469.025C404.864 492.179 429.138 526.961 457.321 552.888C456.284 554.558 454.477 555.651 453.415 557.299C423.903 534.843 409.877 500.89 362.915 469.428ZM236.527 470.964C201.715 489.981 152.607 548.204 147.8 552.631C148.837 554.308 149.4 553.967 150.463 555.614C179.977 533.16 188.033 510.932 236.527 470.964ZM521.65 553.587C519.334 551.737 464.58 530.341 423.03 518.926C501.06 556.667 528.589 561.868 542.214 575.243C541.327 572.929 539.519 553.09 521.65 553.587ZM180.31 518.509C148.995 527.572 108.901 541.892 80.7989 554.379C68.3783 554.625 59.4772 572.742 57.5715 591.623C74.8503 552.691 66.3128 578.864 180.31 518.509Z" fill="#2F2D2D"/>
<path d="M548.813 605.359C548.026 585.364 541.739 551.862 521.742 553.351C520.089 551.939 473.528 530.735 423.829 517.203C406.802 499.941 385.587 476.454 362.765 468.676C361.119 483.56 359.345 493.272 363.265 498.116C368.454 503.764 374.681 509.413 380.789 513.218C391.478 527.426 399.636 535.86 399.636 535.86C387.062 583.799 379.224 608.369 374.227 660.177H229.724C224.73 608.371 216.889 583.801 204.316 535.86C204.316 535.86 212.471 527.424 223.162 513.218C229.273 509.411 235.497 503.764 240.686 498.116C244.604 493.272 242.833 483.56 241.186 468.676C218.364 476.454 197.147 499.941 180.123 517.203C130.424 530.737 83.8624 551.939 82.2091 553.351C62.2096 551.862 55.9229 585.364 55.1379 605.359C54.1862 629.642 58.4607 663.104 58.808 665.42H545.143C545.491 663.102 549.765 629.642 548.813 605.359ZM239.417 496.833C234.189 502.004 230.947 504.199 224.429 509.064C235.61 494.543 234.48 496.483 242.277 483.062C242.627 488.833 240.457 495.807 239.417 496.833ZM63.0733 660.854C60.5679 631.112 56.3211 604.331 64.069 575.196C67.0352 564.019 69.8209 556.452 81.3315 555.493C83.8022 568.317 100.162 622.005 114.439 658.612C100.023 602.594 102.141 615.056 95.4078 592.73C93.1756 585.239 91.1148 577.711 88.5098 570.334C86.6967 565.207 84.6891 560.175 83.272 554.928L176.897 520.507C176.251 521.163 147.038 551.615 146.334 552.471C150.611 559.467 164.432 569.194 171.446 579.698C142.65 582.416 128.59 587.045 118.188 588.59C118.955 590.718 139.17 647.296 141.288 652.629C137.864 634.296 130.137 605.63 121.289 589.62C124.554 589.205 163.147 583.85 175.457 581.569C172.039 574.96 156.833 562.032 148.691 552.349C196.498 510.293 207.557 488.898 240.371 470.253C240.719 473.747 241.397 477.225 241.645 480.717C205.071 535.209 200.777 535.288 200.777 535.288C211.394 576.528 225.165 618.24 225.165 660.497L63.0733 660.854ZM364.532 496.833C363.494 495.807 361.322 488.833 361.672 483.062C369.469 496.486 368.338 494.543 379.52 509.064C373.002 504.199 369.758 502.006 364.532 496.833ZM540.876 660.854L378.786 660.497C378.786 618.24 392.557 576.525 403.174 535.288C403.174 535.288 398.881 535.209 362.306 480.717C362.552 477.225 363.23 473.747 363.58 470.253C396.394 488.898 407.451 510.293 455.26 552.349C447.119 562.035 431.912 574.962 428.495 581.569C440.802 583.847 479.395 589.205 482.662 589.62C473.817 605.63 466.09 634.296 462.663 652.629C464.782 647.294 484.997 590.718 485.763 588.59C475.361 587.045 461.301 582.416 432.505 579.698C439.517 569.194 453.34 559.469 457.617 552.471C456.911 551.615 427.7 521.163 427.054 520.507C427.057 520.507 520.679 554.928 520.679 554.928C519.265 560.178 517.255 565.207 515.442 570.334C512.837 577.711 510.776 585.239 508.543 592.73C501.81 615.059 503.929 602.594 489.512 658.612C503.79 622.003 520.147 568.317 522.62 555.493C534.13 556.452 536.916 564.019 539.882 575.196C547.628 604.331 543.381 631.115 540.876 660.854Z" fill="black"/>
<path d="M176.172 314.251C172.734 308.55 161.522 292.95 152.945 295.139C145.97 296.926 146.061 306.649 145.521 312.401C144.734 320.839 144.447 335.538 146.737 341.503C148.939 347.229 155.907 358.296 160.232 362.517C165.555 367.692 174.056 384.186 175.103 385.897C176.749 388.602 180.051 392.473 185.117 392.168C192.228 391.739 198.372 385.019 198.93 381.782C201.942 364.207 185.122 329.085 176.172 314.251Z" fill="#E5BCA6" stroke="#B7734E" stroke-width="4.5"/>
<path d="M172.766 348.978C172.435 347.674 172.782 345.474 173.123 343.353C173.431 341.42 173.72 339.593 173.544 338.301C172.875 333.461 169.11 324.268 166.653 319.285C163.821 313.552 159.246 306.33 153.503 304.468C151.132 303.697 149.569 304.618 148.666 305.552C147.999 306.237 147.848 307.045 148.066 307.142C148.286 307.237 148.777 306.568 149.495 305.941C150.083 305.427 148.318 305.848 149.495 305.941C149.02 308.349 147.492 320.533 148.545 329.427C149.374 336.425 150.977 341.651 151.47 342.434C151.542 343.258 151.662 344.066 151.84 344.849C154.161 355.061 169.249 368.414 172.759 372.219C173.408 372.921 174.088 373.337 174.255 373.166C174.422 372.995 174.021 372.302 173.377 371.596C169.909 367.817 154.92 354.505 152.679 344.654C150.301 334.202 161.737 318.704 163.559 315.425C164.488 316.965 165.278 318.442 165.884 319.674C166.364 320.64 166.889 321.772 167.436 322.997C166.364 324.706 155.585 337.184 158.326 347.174C159.34 350.858 167.176 355.607 170.207 356.906C171.875 357.624 172.5 358.694 173.227 359.93C174.07 361.375 173.303 365.092 176.075 366.273C176.64 366.513 177.149 366.611 177.601 366.611C178.384 366.611 178.976 366.31 179.414 365.953C179.46 366.581 179.458 367.386 179.435 368.132C179.407 369.1 179.544 369.542 179.778 369.561C180.016 369.582 180.264 369.158 180.294 368.201C180.333 367.02 180.326 365.559 180.116 364.858C179.493 362.799 177.596 360.472 175.584 358.011C173.607 355.591 173.28 350.997 172.766 348.978ZM151.391 339.926C145.954 323.895 154.362 309.294 155.582 307.094C157.926 308.018 161.515 312.172 163.041 314.585C161.929 316.513 151.618 329.143 151.391 339.926ZM176.406 365.471C173.896 364.402 174.771 360.877 173.961 359.488C173.225 358.233 172.465 356.936 170.536 356.107C170.119 355.927 169.659 355.653 169.186 355.338C162.976 341.271 169.865 335.124 171.592 333.866C172.122 335.584 172.516 337.161 172.694 338.428C172.852 339.586 172.558 341.434 172.275 343.217C171.921 345.428 171.557 347.718 171.935 349.2C172.5 351.407 172.887 356.077 174.924 358.573C176.733 360.787 178.59 363.07 179.224 364.932C178.951 365.302 178.092 366.192 176.406 365.471Z" fill="#B7734E"/>
<path d="M427.168 314.251C430.609 308.55 441.821 292.95 450.395 295.139C457.37 296.926 457.279 306.649 457.821 312.401C458.608 320.839 458.893 335.538 456.606 341.503C454.403 347.229 447.434 358.296 443.11 362.517C437.787 367.692 429.284 384.186 428.24 385.897C426.594 388.602 423.292 392.473 418.223 392.168C411.114 391.739 404.971 385.019 404.41 381.782C401.4 364.207 418.223 329.085 427.168 314.251Z" fill="#E5BCA6" stroke="#B7734E" stroke-width="4.5"/>
<path d="M427.761 358.013C425.748 360.475 423.852 362.802 423.229 364.86C423.016 365.564 423.011 367.025 423.048 368.204C423.081 369.16 423.329 369.584 423.569 369.563C423.806 369.545 423.94 369.102 423.912 368.134C423.889 367.389 423.884 366.583 423.931 365.955C424.368 366.312 424.961 366.613 425.744 366.613C426.195 366.613 426.707 366.516 427.272 366.275C430.039 365.092 429.275 361.375 430.118 359.933C430.845 358.696 431.47 357.624 433.14 356.909C436.171 355.61 444.007 350.863 445.021 347.176C447.762 337.187 436.983 324.706 435.911 322.999C436.453 321.775 436.983 320.642 437.458 319.677C438.069 318.445 438.857 316.965 439.788 315.428C441.61 318.706 453.044 334.202 450.668 344.657C448.425 354.507 433.438 367.82 429.97 371.599C429.324 372.305 428.921 372.997 429.087 373.168C429.259 373.34 429.937 372.923 430.583 372.221C434.094 368.417 449.18 355.063 451.5 344.851C451.68 344.069 451.803 343.261 451.875 342.436C452.363 341.656 453.968 336.43 454.797 329.43C455.851 320.536 454.322 308.351 453.848 305.943C455.024 305.85 453.26 305.429 453.848 305.943C454.568 306.571 455.059 307.24 455.276 307.145C455.494 307.048 455.344 306.242 454.679 305.554C453.774 304.621 452.211 303.699 449.839 304.47C444.097 306.332 439.519 313.554 436.687 319.288C434.23 324.271 430.467 333.464 429.798 338.303C429.622 339.595 429.912 341.422 430.22 343.356C430.558 345.477 430.907 347.676 430.576 348.98C430.062 350.997 429.738 355.591 427.761 358.013ZM440.302 314.585C441.83 312.172 445.417 308.02 447.76 307.094C448.98 309.294 457.388 323.896 451.954 339.926C451.727 329.143 441.415 316.514 440.302 314.585ZM424.121 364.927C424.753 363.066 426.612 360.783 428.421 358.569C430.456 356.073 430.845 351.402 431.41 349.195C431.785 347.713 431.424 345.423 431.072 343.212C430.787 341.429 430.493 339.581 430.65 338.423C430.826 337.157 431.22 335.58 431.75 333.862C433.478 335.119 440.367 341.269 434.156 355.334C433.686 355.649 433.225 355.922 432.804 356.103C430.877 356.932 430.118 358.228 429.379 359.483C428.569 360.873 429.446 364.399 426.936 365.467C425.251 366.192 424.391 365.302 424.121 364.927Z" fill="#B7734E"/>
<path d="M403.868 413.017C392.284 436.694 357.448 478.865 332.547 490.046C320.122 495.632 283.714 495.905 271.414 490.046C246.762 478.313 211.753 436.656 200.092 413.017C187.095 386.68 165.704 300.589 165.676 300.464C162.666 288.914 161.054 276.788 161.035 264.288C160.915 185.559 223.912 121.654 301.757 121.534C379.608 121.411 442.805 185.112 442.92 263.839C442.941 276.343 441.371 288.472 438.4 300.034C438.363 300.154 416.826 386.531 403.868 413.017Z" fill="#E5BCA6"/>
<path d="M325.482 123.537C387.988 138.213 434.538 194.888 434.434 262.561C434.413 275.062 432.804 287.187 429.794 298.739C429.766 298.864 409.857 384.982 397.075 411.294C385.823 434.459 351.458 474.898 327.453 486.598C322.444 489.041 307.321 490.199 301.979 490.199C296.637 490.199 281.516 489.041 276.508 486.598C252.502 474.898 218.135 434.459 206.886 411.294C194.102 384.982 174.192 298.864 174.167 298.739C171.157 287.189 169.545 275.062 169.527 262.561C169.422 194.888 215.968 138.213 278.478 123.537C211.737 134.871 160.927 193.582 161.035 264.288C161.054 276.787 162.666 288.914 165.676 300.464C165.704 300.589 187.053 386.698 200.092 413.017C211.79 436.633 246.883 478.049 271.414 490.046C277.568 493.059 292.96 494.342 301.409 494.337C309.852 494.344 326.397 493.059 332.547 490.046C357.078 478.047 392.168 436.635 403.868 413.017C416.907 386.698 438.259 300.589 438.282 300.464C441.293 288.914 442.904 276.787 442.923 264.288C443.034 193.582 392.224 134.871 325.482 123.537Z" fill="#DDAF95"/>
<path d="M403.868 413.017C392.284 436.694 357.448 478.865 332.547 490.046C320.122 495.632 283.714 495.905 271.414 490.046C246.762 478.313 211.753 436.656 200.092 413.017C187.095 386.68 165.704 300.589 165.676 300.464C162.666 288.914 161.054 276.788 161.035 264.288C160.915 185.559 223.912 121.654 301.757 121.534C379.608 121.411 442.805 185.112 442.92 263.839C442.941 276.343 441.371 288.472 438.4 300.034C438.363 300.154 416.826 386.531 403.868 413.017Z" stroke="#B7734E" stroke-width="4.5"/>
<path d="M293.238 441.359L312.45 440.88C310.225 451.23 294.759 449.744 293.238 441.359Z" fill="url(#paint4_linear)"/>
<path d="M293.506 442.015C292.647 441.899 292.777 440.674 293.692 440.76C293.791 440.773 303.667 442.024 311.934 440.262C312.828 440.088 313.092 441.315 312.235 441.498C305.758 442.883 297.378 442.559 293.506 442.015ZM302.167 433.748C298.686 433.748 295.313 432.542 291.923 431.951C288.125 431.287 284.342 431.856 280.542 432.192C276.661 432.537 268.193 432.162 265.803 430.65C264.465 429.8 264.715 427.822 266.222 427.295C267.644 426.785 269.86 427.841 271.296 428.098C277.946 429.291 281.447 428.019 287.278 427.825C296.195 427.556 297.142 431.3 308.266 429.052C320.226 426.635 325.612 428.464 334.193 425.88C335.37 425.523 336.768 424.583 338.002 425.217C339.426 425.954 339.357 427.961 337.889 428.607C330.002 432.085 321.277 430.68 312.522 432.141C309.09 432.711 305.67 433.748 302.167 433.748Z" fill="#B7734E"/>
<path d="M262.774 325.322C255.149 323.506 251.268 327.774 240.061 328.022C221.405 328.432 217.049 326.591 214.129 321.913C212.918 319.975 211.76 317.449 211.202 315.891L210.971 306.283C214.046 297.139 256.219 296.206 270.944 310.414C271.608 311.956 271.946 313.394 272.02 314.737C271.58 316.956 270.835 319.086 269.828 321.103C268.193 322.979 265.748 324.405 262.774 325.322Z" fill="url(#paint5_radial)"/>
<path d="M255.751 317.71C253.739 325.102 246.114 329.457 238.706 327.427C231.304 325.398 226.934 317.752 228.949 310.359C230.961 302.96 238.6 298.605 246.003 300.638C253.399 302.664 257.768 310.31 255.751 317.71Z" fill="#211404" stroke="black" stroke-width="1.5"/>
<path d="M255.415 314.893C254.394 323.101 248.302 327.378 241.633 326.931C235.478 326.517 229.977 321.976 229.467 314.138C231.595 313.526 234.423 314.52 236.903 314.14C236.896 314.23 236.863 314.311 236.861 314.402C236.666 317.412 239.079 320.035 242.254 320.249C245.435 320.462 248.172 318.183 248.369 315.175C248.39 314.784 248.367 314.397 248.307 314.027C250.516 314.36 253.216 314.031 255.415 314.893Z" fill="#301F0B"/>
<path opacity="0.9" d="M244.356 309.398C241.302 308.525 238.181 310.268 237.393 313.313C236.604 316.342 238.442 319.515 241.494 320.39C244.556 321.267 247.675 319.521 248.466 316.49C249.263 313.443 247.415 310.273 244.356 309.398Z" fill="black"/>
<path d="M244.356 309.398C241.302 308.525 238.181 310.268 237.393 313.313C236.604 316.342 238.442 319.515 241.494 320.39C244.556 321.267 247.675 319.521 248.466 316.49C249.263 313.443 247.415 310.273 244.356 309.398Z" stroke="black" stroke-width="2.25"/>
<path opacity="0.5" d="M235.773 322.501C235.483 323.513 233.906 323.083 234.196 322.066C234.476 321.087 235.228 320.484 235.708 319.623C236.22 318.701 237.632 319.526 237.118 320.447C236.724 321.161 235.997 321.707 235.773 322.501ZM238.287 320.887C237.852 321.394 237.282 323.272 237.037 323.886C236.643 324.863 238.225 325.285 238.614 324.321C238.748 323.986 239.207 322.323 239.445 322.045C240.126 321.249 238.975 320.086 238.287 320.887ZM241.691 325.722C242.546 324.738 242.46 323.61 242.441 322.386C242.425 321.332 240.79 321.332 240.807 322.386C240.816 323.064 241.02 324.009 240.536 324.567C239.848 325.359 240.999 326.519 241.691 325.722ZM243.361 322.182C243.372 323.196 243.5 324.185 243.798 325.157C244.109 326.162 245.686 325.734 245.375 324.722C245.116 323.884 245.007 323.057 244.995 322.182C244.984 321.128 243.349 321.126 243.361 322.182Z" fill="white"/>
<path opacity="0.8" d="M252.067 311.651C250.458 312.616 248.038 311.748 246.665 309.708C245.294 307.668 245.5 305.23 247.112 304.269C248.719 303.299 251.146 304.169 252.507 306.209C253.878 308.249 253.679 310.685 252.067 311.651Z" fill="white"/>
<path d="M194.831 313.682C193.947 321.332 217.649 364.633 241.307 364.633C264.965 364.633 286.46 352.379 286.46 313.684C286.46 272.492 264.965 262.739 241.307 262.739C217.649 262.739 199.224 275.72 194.831 313.682ZM211.204 315.893L210.973 306.286C214.048 297.142 256.221 296.208 270.946 310.417C274.179 317.898 269.999 323.099 262.774 325.324C255.149 323.509 251.268 327.776 240.061 328.024C221.405 328.434 217.049 326.593 214.129 321.916C212.918 319.975 211.76 317.451 211.204 315.893Z" fill="#E5BCA6"/>
<path d="M208.653 309.778C208.706 327.223 226.358 341.279 248.105 341.191C269.846 341.091 287.435 326.883 287.38 309.437C287.326 291.994 269.672 277.934 247.922 278.024C226.175 278.126 208.595 292.332 208.653 309.778ZM211.204 315.893L210.973 306.286C214.048 297.142 256.221 296.208 270.946 310.417C274.179 317.898 269.999 323.099 262.774 325.324C255.149 323.509 251.268 327.777 240.061 328.024C221.405 328.434 217.049 326.593 214.129 321.916C212.918 319.975 211.76 317.451 211.204 315.893Z" fill="url(#paint6_radial)"/>
<path d="M214.129 321.916C212.918 319.978 211.76 317.451 211.202 315.893L210.971 306.286C214.046 297.142 256.219 296.208 270.944 310.417C274.176 317.898 269.997 323.099 262.772 325.324C255.147 323.509 251.266 327.776 240.059 328.024C221.407 328.434 217.049 326.591 214.129 321.916Z" fill="url(#paint7_radial)"/>
<path d="M277.58 306.955C255.311 293.615 238.908 292.765 212.473 294.465C234.538 290.989 259.952 293.511 277.58 306.955Z" fill="#B7734E"/>
<path d="M274.72 316.425C267.218 297.171 214.648 297.058 211.202 306.744V315.763C208.838 312.2 208.778 311.982 207.768 307.881L202.685 309.608C202.685 309.608 209.044 300.64 214.956 299.464C266.329 289.231 274.28 313.336 274.72 316.425ZM266.646 326.005C255.936 321.42 252.892 326.88 239.871 327.151C221.337 327.54 217.718 325.377 214.11 321.418C215.993 326.26 217.294 328.561 239.292 328.427C251.741 328.351 258.541 323.208 266.646 326.005Z" fill="black"/>
<path d="M340.248 325.322C347.874 323.506 351.754 327.774 362.962 328.022C381.618 328.432 385.974 326.591 388.894 321.913C390.105 319.975 391.263 317.449 391.821 315.891L392.052 306.283C388.977 297.139 346.804 296.206 332.079 310.414C331.415 311.956 331.077 313.394 331.002 314.737C331.442 316.956 332.188 319.086 333.195 321.103C334.83 322.979 337.275 324.405 340.248 325.322Z" fill="url(#paint8_radial)"/>
<path d="M375.003 317.71C372.99 325.102 365.365 329.457 357.956 327.427C350.555 325.398 346.183 317.752 348.198 310.359C350.21 302.96 357.851 298.605 365.252 300.638C372.65 302.664 377.017 310.31 375.003 317.71Z" fill="#211404" stroke="black" stroke-width="1.5"/>
<path d="M374.667 314.893C373.648 323.101 367.554 327.378 360.887 326.931C354.735 326.517 349.23 321.976 348.719 314.138C350.847 313.526 353.676 314.52 356.156 314.14C356.147 314.23 356.117 314.311 356.112 314.402C355.916 317.412 358.331 320.035 361.505 320.249C364.687 320.462 367.422 318.183 367.618 315.175C367.639 314.784 367.616 314.397 367.558 314.027C369.767 314.36 372.467 314.031 374.667 314.893Z" fill="#301F0B"/>
<path opacity="0.9" d="M363.608 309.398C360.554 308.525 357.435 310.268 356.645 313.313C355.855 316.342 357.694 319.515 360.746 320.39C363.807 321.267 366.926 319.521 367.718 316.49C368.515 313.443 366.667 310.273 363.608 309.398Z" fill="black"/>
<path d="M363.608 309.398C360.554 308.525 357.435 310.268 356.645 313.313C355.855 316.342 357.694 319.515 360.746 320.39C363.807 321.267 366.926 319.521 367.718 316.49C368.515 313.443 366.667 310.273 363.608 309.398Z" stroke="black" stroke-width="2.25"/>
<path opacity="0.5" d="M355.024 322.501C354.735 323.513 353.158 323.083 353.445 322.066C353.725 321.087 354.48 320.484 354.959 319.623C355.469 318.701 356.881 319.526 356.369 320.447C355.976 321.161 355.249 321.707 355.024 322.501ZM357.539 320.887C357.103 321.394 356.534 323.272 356.288 323.886C355.892 324.863 357.476 325.285 357.865 324.321C358.002 323.986 358.458 322.323 358.694 322.045C359.377 321.249 358.227 320.086 357.539 320.887ZM360.943 325.722C361.797 324.738 361.711 323.61 361.693 322.386C361.677 321.332 360.042 321.332 360.058 322.386C360.067 323.064 360.271 324.009 359.787 324.567C359.099 325.359 360.253 326.519 360.943 325.722ZM362.615 322.182C362.626 323.196 362.751 324.185 363.05 325.157C363.362 326.162 364.937 325.734 364.627 324.722C364.367 323.884 364.259 323.057 364.247 322.182C364.235 321.128 362.601 321.126 362.615 322.182Z" fill="white"/>
<path opacity="0.8" d="M371.319 311.651C369.709 312.616 367.29 311.748 365.917 309.708C364.546 307.668 364.749 305.23 366.361 304.269C367.97 303.299 370.395 304.169 371.756 306.209C373.129 308.249 372.93 310.685 371.319 311.651Z" fill="white"/>
<path d="M361.718 262.739C338.06 262.739 316.565 272.492 316.565 313.684C316.565 352.379 338.06 364.633 361.718 364.633C385.376 364.633 407.777 322.879 408.192 313.682C409.919 275.505 385.376 262.739 361.718 262.739ZM388.894 321.916C385.974 326.593 381.616 328.434 362.962 328.024C351.754 327.776 347.874 323.509 340.248 325.324C333.024 323.099 328.844 317.898 332.077 310.417C346.801 296.208 388.975 297.142 392.05 306.286L391.818 315.893C391.265 317.451 390.107 319.975 388.894 321.916Z" fill="#E5BCA6"/>
<path d="M355.101 278.024C333.35 277.932 315.699 291.994 315.646 309.437C315.588 326.885 333.179 341.091 354.92 341.191C376.665 341.276 394.317 327.221 394.37 309.778C394.43 292.332 376.851 278.126 355.101 278.024ZM388.894 321.916C385.974 326.593 381.616 328.434 362.962 328.024C351.755 327.777 347.874 323.509 340.249 325.324C333.024 323.099 328.844 317.898 332.077 310.417C346.802 296.209 388.975 297.142 392.05 306.286L391.818 315.893C391.265 317.451 390.107 319.975 388.894 321.916Z" fill="url(#paint9_radial)"/>
<path d="M388.894 321.916C390.105 319.978 391.263 317.451 391.821 315.893L392.052 306.286C388.977 297.142 346.804 296.208 332.079 310.417C328.847 317.898 333.026 323.099 340.251 325.324C347.876 323.509 351.757 327.776 362.964 328.024C381.618 328.434 385.974 326.591 388.894 321.916Z" fill="url(#paint10_radial)"/>
<path d="M325.445 306.955C347.714 293.615 364.117 292.765 390.552 294.465C368.487 290.989 343.073 293.511 325.445 306.955Z" fill="#B7734E"/>
<path d="M388.069 299.462C393.981 300.638 400.34 309.606 400.34 309.606L395.257 307.879C394.245 311.98 394.185 312.198 391.823 315.761V306.742C388.38 297.056 335.81 297.17 328.305 316.423C328.745 313.337 336.694 289.232 388.069 299.462ZM363.731 328.43C385.728 328.564 387.032 326.26 388.912 321.42C385.305 325.38 381.685 327.543 363.152 327.154C350.134 326.883 347.086 321.42 336.377 326.008C344.481 323.208 351.284 328.351 363.731 328.43Z" fill="black"/>
<path d="M396.913 382.861C396.994 435.244 354.556 477.785 302.118 477.857C249.689 477.943 207.115 435.545 207.034 383.151C206.953 330.773 249.39 288.064 301.826 287.981C354.258 287.9 396.836 330.472 396.913 382.861Z" fill="url(#paint11_radial)"/>
<path d="M388.808 243.985C388.808 291.943 349.932 330.819 301.977 330.819C254.019 330.819 215.141 291.943 215.141 243.985C215.141 196.028 254.019 157.152 301.977 157.152C349.932 157.152 388.808 196.028 388.808 243.985Z" fill="url(#paint12_radial)"/>
<path d="M195.459 290.736C218.508 267.641 234.27 277.04 266.289 283.178C268.246 283.553 280.924 286.742 278.585 291.211C277.467 293.351 273.871 293.096 271.863 293.059C240.168 292.466 224.755 269.915 195.459 290.736Z" fill="#2A232B"/>
<path d="M408.49 290.736C385.444 267.641 369.679 277.04 337.66 283.178C335.701 283.553 323.025 286.742 325.362 291.211C326.48 293.351 330.076 293.096 332.084 293.059C363.779 292.466 379.194 269.915 408.49 290.736Z" fill="#2A232B"/>
<path d="M298.809 327.345C298.809 327.345 294.85 353.789 292.992 360.817C291.128 367.872 283.55 379.462 284.05 386.204C284.795 396.194 298.756 396.812 303.929 396.812L295.331 386.457C295.331 386.457 299.349 368.824 299.768 362.079C300.208 354.958 298.809 327.345 298.809 327.345Z" fill="#D6A286"/>
<path d="M297.343 318.22C297.343 318.22 300.513 343.554 297.073 362.989C295.968 369.227 288.021 380.244 289.246 386.457C290.119 390.866 303.931 396.812 303.931 396.812C303.931 396.812 297.976 389.84 297.857 386.457C297.649 380.481 301.479 369.285 301.854 363.313C302.421 354.259 297.343 318.22 297.343 318.22Z" fill="#B7734E"/>
<path opacity="0.1" d="M204.262 185.482C225.651 165.129 307.421 183.72 332.075 186.036C355.559 187.847 386.55 115.784 433.042 300.608C432.938 309.497 430.058 325.229 426.568 336.425C426.232 336.191 425.906 335.943 425.57 335.716C425.57 335.716 426.769 343.258 411.54 369.037C412.348 350.344 408.734 336.867 405.77 319.452C369.394 273.171 335.402 262.317 309.535 254.257C326.902 274.53 344.081 293.135 351.597 313.452C319.999 291.278 276.554 246.569 276.554 246.569C276.554 246.569 279.805 257.462 340.665 313.454C315.326 307.249 268.082 281.777 234.99 232.521C228.631 242.941 263.703 303.826 264.692 306.158C246.947 292.066 222.829 272.267 216.632 249.149C216.632 249.149 212.994 258.511 210.468 269.144C203.804 297.306 203.744 332.315 202.528 341.216C198.673 321.022 198.071 298.419 198.078 298.713C189.035 340.146 197.107 369.093 197.262 379.119C185.226 354.956 172.708 326.1 169.066 299.153C169.07 299.153 195.97 181.778 204.262 185.482Z" fill="#2A232B"/>
<path d="M138.454 276.095C138.639 263.614 141.048 243.862 145.218 232.609C137.623 240.459 128.06 249.721 120.256 254.607C130.584 245.669 133.781 238.027 157.122 189.076C171.453 159.02 180.942 127.135 208.94 123.384C218.385 122.087 227.58 125.676 236.215 129.381C258.467 109.027 286.208 100.828 311.867 103.143C390.316 108.956 411.241 159.622 453.199 169.765C446.623 171.686 435.564 168.681 429.266 165.717C437.949 177.434 434.874 176.209 454.024 195.358C461.825 203.092 469.033 212.595 478.437 218.176C465.819 216.599 459.187 206.983 440.735 197.095C443.395 201.356 452.889 215.837 468.357 230.657C475.003 237.001 485.955 245.903 493.592 251.298C488.014 249.075 471.622 242.67 457.453 230.106C464.791 240.598 485.846 260.069 476.313 299.297C474.387 282.148 476.318 261.287 459.991 250.913C461.806 258.557 468.822 274.583 463.705 291.917H438.384C438.275 300.807 435.277 317.236 431.651 328.431C431.301 328.198 430.963 327.95 430.611 327.723C430.611 327.723 429.446 335.265 413.605 361.044C414.446 342.35 413.091 328.874 410.009 311.458C372.159 265.177 336.794 254.324 309.882 246.264C327.953 266.536 341.867 289.882 349.691 310.201C324.114 283.202 271.347 241.274 271.347 241.274C271.347 241.274 272.189 252.541 335.515 308.532C313.636 295.113 266.748 273.784 232.32 224.528C225.702 234.948 257.372 295.833 258.403 298.165C239.938 284.072 224.489 259.643 218.031 236.524C218.031 236.524 209.426 250.517 206.807 261.15C199.872 289.312 202.213 312.744 200.953 321.645C196.943 301.451 193.91 290.426 193.916 290.72C184.501 332.153 195.315 365.731 195.473 375.757C182.955 351.594 167.519 317.873 163.728 290.926H136.875C138.424 280.907 137.275 280.879 138.454 276.095Z" fill="#2A232B"/>
<path d="M123.13 205.285C131.954 204.892 136.736 205.515 147.11 204.681C148.661 201.138 153.45 191.83 155.071 188.31C146.968 195.488 130.146 204.568 123.13 205.285Z" fill="#0C080C"/>
<path d="M348.286 132.841C385.397 127.538 419.837 167.393 451.143 169.894C444.49 171.26 434.04 167.528 428.013 164.691C436.696 176.408 434.358 176.477 453.51 195.627C461.311 203.361 466.87 211.651 476.272 217.231C466.194 215.559 458.05 205.758 440.019 195.977C418.834 164.666 386.481 137.085 348.286 132.841ZM218.031 236.525C218.031 236.525 209.426 250.517 206.807 261.151C199.872 289.312 202.213 312.744 200.953 321.645C196.943 301.451 193.91 290.426 193.916 290.72C193.69 291.711 193.488 292.691 193.287 293.673C185.022 333.739 195.32 365.969 195.473 375.757C182.955 351.594 167.519 318.104 163.728 291.16H136.875C138.424 281.138 137.275 280.879 138.454 276.097C138.639 263.617 141.048 243.865 145.218 232.611C137.623 240.461 128.06 249.723 120.256 254.609C130.408 245.824 133.684 238.261 155.955 191.529C162.816 180.851 170.583 170.739 179.25 160.627C163.041 181.467 153.778 206.939 151.463 232.41C156.094 218.516 170.17 209.106 179.722 198.063C169.659 213.788 162.395 229.064 158.41 250.934C161.334 245.919 165.472 243.117 168.487 239.356C163.71 253.266 165.106 261.243 167.227 271.851C169.316 255.348 172.787 228.545 181.565 213.885C181.565 239.356 173.667 263.83 183.892 290.94C183.797 270.871 191.399 252.606 196.688 238.884C195.637 243.867 196.445 256.147 196.725 261.225C199.685 245.784 201.694 230.636 210.695 218.195C206.68 195.113 200.349 170.311 208.88 164.23C195.016 188.308 237.794 209.319 236.516 208.295C260.443 221.587 275.607 223.208 288.014 226.348C279.921 219.834 275.716 211.729 267.544 205.285C290.7 213.274 323.032 237.983 339.526 248.079C343.93 254.526 344.328 256.165 345.641 259.27C336.192 254.806 324.384 250.605 309.884 246.261C343.249 283.693 336.583 276.144 349.694 310.199C326.966 286.207 327.001 285.52 274.616 243.869C280.945 252.127 297.705 275.097 335.518 308.529C326.973 303.289 263.423 269.023 232.322 224.525C230.838 236.619 232.498 244.564 258.405 298.162C253.663 296.711 235.212 280.205 218.031 236.525ZM345.639 259.273C365.328 268.574 387.215 283.588 410.009 311.458C413.091 328.874 414.446 342.35 413.605 361.044C417.141 355.29 419.913 350.49 422.136 346.435C429.875 332.322 430.611 327.723 430.611 327.723C430.963 327.95 431.301 328.198 431.651 328.432C435.277 317.236 438.275 301.504 438.384 292.614H463.237C468.359 275.282 460.808 257.318 458.993 249.675C475.32 260.048 475.757 279.175 476.522 296.356C484.325 257.756 462.744 239.301 455.913 228.256C470.2 239.347 486.157 248.007 491.737 250.23C484.093 244.835 474.579 237.564 467.933 231.22C459.507 223.148 452.609 214.594 447.628 207.777C436.777 202.215 428.696 193.886 417.753 188.414C436.108 200.65 441.89 220.07 447.753 238.766C444.942 234.707 440.396 231.967 437.958 228.318C440.855 235.927 445.111 243.819 443.224 253.25C431.646 237.041 427.015 213.885 408.49 199.992C427.198 218.699 428.494 267.972 428.416 276.748C409.539 186.263 329.625 101.122 248.717 132.841C329.761 107.369 399.228 193.045 408.49 267.143C392.281 248.619 387.65 225.463 364.495 213.885C376.072 225.463 383.019 243.988 389.966 257.881C364.495 227.779 343.655 197.676 308.921 176.836C325.13 195.361 345.97 211.57 357.548 234.725C364.495 241.672 366.81 250.934 371.441 257.881C355.232 241.672 334.865 225.09 313.856 218.942C337.447 239.259 343.981 255.343 345.639 259.273Z" fill="#1B141C"/>
<path d="M343.113 132.445C362.313 132.377 416.106 147.482 442.9 200.057C414.196 160.208 384.673 141.853 343.113 132.445ZM389.607 208.578C359.616 145.761 303.565 126.424 273.526 128.365C295.229 126.971 356.404 149.205 389.607 208.578ZM239.873 152.659C238.463 140.449 221.916 127.908 203.829 134.936C202.276 135.541 200.91 136.643 199.363 137.203C219.11 130.069 237.157 140.674 239.873 152.659ZM234.314 160.549C229.055 153.032 221.939 146.102 212.758 143.881C184.849 137.134 163.967 178.457 159.137 196.952C159.746 194.629 183.672 138.905 213.546 145.856C222.162 147.822 228.835 153.942 234.314 160.549ZM231.521 165.886C228.907 198.149 303.014 220.92 319.269 234.67C290.339 210.197 231.966 195.088 231.521 165.886ZM359.384 237.386C353.246 227.121 327.749 185.872 286.771 161.329C261.353 146.106 251.486 155.299 246.651 157.541C279.551 142.318 339.825 210.273 359.384 237.386Z" fill="#0C080C"/>
<path d="M428.416 188.919C428.416 188.919 398.318 156.457 353.44 140.568C386.983 148.95 406.916 165.451 428.416 188.919ZM354.26 143.365C373.648 149.992 407.166 187.208 411.394 194.467C400.455 175.686 374.753 148.79 354.26 143.365ZM293.182 137.324C331.22 146.051 365.852 188.866 365.852 188.866C349.705 163.876 323.146 139.797 293.182 137.324ZM260.357 159.599C278.77 164.337 320.295 198.654 322.426 201.655C316.433 193.219 280.488 162.434 260.357 159.599ZM247.128 163.202C267.362 165.821 284.142 182.76 286.646 186.184C276.128 171.798 265.34 163.645 247.128 163.202ZM245.109 169.61C264.877 190.091 294.319 196.074 304.999 210.014C290.246 190.758 263.154 186.312 245.109 169.61ZM269.244 218.123C243.284 204.035 225.327 191.8 221.305 188.366C217.054 184.742 206.208 176.024 214.138 167.176C208.252 171.043 209.484 179.638 217.371 187.842C225.948 196.767 266.924 218.123 269.244 218.123C269.242 218.123 266.998 216.903 269.244 218.123ZM287.528 226.32C267.475 221.504 246.943 214.664 229.731 203.058C217.755 194.984 199.942 176.142 209.215 165.078C211.869 161.903 217.457 160.417 221.481 160.463C217.47 160.415 212.615 161.389 209.514 164.066C200.548 171.809 210.135 191.61 225.112 202.366C243.236 215.381 265.995 221.696 287.528 226.32ZM288.535 146.711C292.379 147.48 296.19 147.989 299.884 149.399C331.234 161.352 361.109 198.204 361.109 198.204C344.961 174.083 317.767 149.469 288.535 146.711ZM291.411 156.971C327.434 170.837 366.808 217.053 369.124 218.711C351.602 192.145 322.037 164.657 291.411 156.971ZM200.354 162.598C176.453 157.865 165.194 198.265 163.817 200.583C171.928 183.959 184.321 161.063 200.354 162.598ZM200.599 190.151C180.313 209.18 184.705 233.271 185.046 244.516C184.664 224.088 189.915 202.856 200.599 190.151Z" fill="#3A353A"/>
<path d="M143.338 235.802C134.122 261.25 136.692 287.624 136.551 289.94C136.368 290.336 136 291.165 135.817 291.568C138.248 291.049 137.704 291.554 138.315 291.554C142.976 281.509 148.835 268.38 164.523 247.243C154.589 259.215 145.628 271.788 138.565 285.728C142.759 258.983 159.799 236.8 161.77 233.975C152.415 245.854 143.662 258.543 138.915 274.243C139.1 261.762 141.969 242.473 146.139 231.22C138.544 239.069 128.981 249.026 121.178 253.912C131.505 244.974 135.164 238.027 158.505 189.076C172.836 159.02 180.94 127.598 208.938 123.847C218.383 122.55 227.578 125.676 236.213 129.381C258.465 109.027 286.206 101.988 311.864 104.304C390.313 110.116 410.065 159.553 452.023 169.695C445.447 171.617 434.309 167.657 428.011 164.694C436.694 176.41 434.355 176.48 453.507 195.629C461.308 203.363 466.868 211.653 476.269 217.234C466.081 215.543 457.884 205.54 439.429 195.653C442.089 199.913 452.463 216.4 467.933 231.22C474.579 237.564 484.093 244.835 491.737 250.23C486.157 248.007 470.2 239.347 455.913 228.256C462.744 239.301 484.327 257.756 476.522 296.356C475.757 279.175 475.317 260.048 458.993 249.675C460.808 257.318 468.359 275.282 463.237 292.614H463.971H465.997C470.957 276.549 464.004 260.773 461.169 252.731C476.01 266.161 475.781 295.129 474.299 309.182C480.136 293.321 482.354 278.04 477.679 261.739C475.063 252.569 469.575 244.465 463.879 236.939C463.485 236.406 463.066 235.874 462.672 235.341C473.532 244.048 487.034 251.736 499.976 254.19C499.976 254.19 460.452 225.894 443.685 200.33C447.853 203.317 453.526 208.064 459.06 211.792C467.049 217.234 473.347 219.989 482.54 218.831C471.61 213.807 464.409 203.109 456.724 195.097C439.658 177.174 446.628 187.178 432.271 168.097C443.849 172.821 449.983 172.358 456.978 169.834C453.039 168.908 448.92 167.82 445.215 166.384C414.163 154.366 379.335 99.2789 305.726 99.001C280.486 98.8852 253.299 108.657 235.518 127.922C232.438 126.51 229.312 125.306 226.163 124.287C186.196 111.436 172.511 148.184 154.983 185.441C148.314 190.975 135.37 203.827 117.866 205.54C126.365 206.142 135.326 206.883 145.792 206.003C130.463 240.876 129.632 244.673 109.739 260.998C126.758 255.091 132.153 248.329 143.338 235.802ZM153.688 190.162C152.067 193.682 148.2 200.212 146.649 203.755C136.275 204.588 133.798 204.658 124.975 205.051C131.991 204.334 145.584 197.341 153.688 190.162ZM162.897 282.285C162.897 286.569 167.811 309.067 173.113 322.937C170.381 307.168 169.849 290.704 170.268 274.727C170.684 258.217 173.278 242.031 178.002 226.216C167.072 271.647 172.977 330.717 194.741 372.724C190.32 350.703 187.748 328.404 190.55 305.989C191.198 300.802 192.078 295.662 193.236 290.567C193.236 290.567 191.105 271.186 196.686 238.884C192.886 265.675 195.528 291.748 200.761 318.1C200.252 298.927 201.224 279.592 206.133 260.975C208.817 250.786 211.781 247.591 216.553 235.781C213.934 226.287 212.591 216.516 211.668 206.744C216.137 236.453 224.169 253.403 240.265 277.485C245.037 284.593 249.99 291.123 256.844 296.356C252.028 287.928 236.097 252.129 235.147 249.721C231.975 241.686 230.053 233.373 231.514 224.759C226.79 217.349 222.646 209.569 218.871 201.627C230.979 224.088 246.748 243.793 265.97 260.65C275.904 269.38 286.483 277.438 297.369 284.918C308.578 292.628 320.617 298.649 332.172 305.734C317.074 293.091 302.093 279.337 291.858 268.199C285.652 261.438 278.404 254.607 273.403 246.873C268.424 239.162 266.271 230.34 262.334 222.096C266.248 228.835 269.05 236.036 271.944 240.922C272.662 242.126 299.312 262.132 311.054 273.293C325.966 287.441 333.631 292.188 347.758 307.101C341.295 292.79 339.605 285.867 321.983 262.503C310.359 247.081 305.566 246.224 290.077 222.096C294.081 227.584 298.133 232.91 302.743 237.912C305.151 240.528 307.606 243.052 310.084 245.599C324.463 249.906 337.778 252.361 360.236 266.3C398.839 290.266 407.013 308.073 422.689 323.356C419.911 313.7 411.389 297.537 403.748 284.223C396.778 272.066 389.114 259.493 380.616 249.165C391.362 258.798 399.302 271.094 406.388 283.528C413.844 296.681 422.157 310.829 424.678 325.926C419.795 322.175 415.393 317.984 411.088 313.561C413.68 328.219 415.094 343.501 414.421 358.39C435.298 324.393 443.446 276.132 437.226 245.421C453.303 308.219 423.968 347.723 410.232 372.49C411.297 357.346 409.769 321.594 408.588 311.359C403.47 304.97 367.111 266.002 312.978 248.515C322.518 258.055 330.875 267.965 337.477 279.798C343.52 290.681 349.286 302.074 352.759 314.601C340.487 302.328 327.105 291.167 313.999 279.844C300.523 268.197 287.509 256.04 274.079 244.347C277.712 249.788 281.998 254.929 308.301 280.585C322.171 294.131 343.798 313.674 344.261 314.184C341.946 313.304 303.137 293.135 284.937 279.335C265.903 264.909 245.526 246.662 232.651 226.517C231.519 240.433 239.739 255.345 243.997 264.33C248.629 274.078 255.527 291.19 263.052 303.602C251.382 296.748 242.559 287.046 235.451 275.491C228.066 263.496 221.418 251.895 217.297 238.372C213.823 245.273 210.026 252.173 208.405 259.791C206.691 267.803 205.559 275.885 204.77 284.035C203.218 300.406 201.458 317.217 202.408 333.681C198.379 321.015 195.299 308.349 193.979 295.081C190.043 317.125 193.768 349.45 198.098 381.405C186.176 365.147 176.101 341.67 170.335 320.505C166.54 306.519 162.249 291.454 162.897 282.285Z" fill="black"/>
<path opacity="0.2" d="M282.732 325.565C274.141 342.839 250.036 344.437 241.561 344.437H213.497C200.182 344.437 188.35 325.935 188.35 311.347V297.083C188.35 296.551 188.605 296.018 189.021 295.462L282.732 325.565ZM325.987 296.435C321.194 299.746 318.137 304.192 318.137 310.143V311.301C318.137 316.951 319.295 321.651 321.24 325.542C329.831 342.816 353.936 344.413 362.411 344.413H390.475C399.946 344.413 408.652 335.035 412.89 324.361L325.987 296.435Z" fill="white"/>
<path opacity="0.4" d="M282.732 325.565L188.998 295.439C191.291 292.383 199.187 289.187 203.239 288.701C208.287 288.099 218.591 287.103 230.887 287.103C251.403 287.103 285.812 290.09 285.812 310.166V311.324C285.812 316.974 284.654 321.674 282.732 325.565ZM415.599 311.324V297.06C415.599 296.527 415.344 295.995 414.928 295.439C412.635 292.383 404.739 289.187 400.687 288.701C395.639 288.099 385.335 287.103 373.039 287.103C358.613 287.103 337.356 288.585 325.964 296.435L412.867 324.36C414.603 320.053 415.599 315.538 415.599 311.324Z" fill="white"/>
<path d="M417.127 301.136V297.06C417.127 292.197 405.781 287.821 400.895 287.219C379.083 284.626 327.909 282.542 318.23 302.872C311.792 300.742 304.614 299.908 301.975 299.885C299.335 299.908 292.157 300.742 285.719 302.872C276.063 282.565 224.889 284.626 203.054 287.219C198.168 287.798 186.822 292.174 186.822 297.06V301.136H175.776V306.6H186.822V311.324C186.822 325.912 198.747 345.918 213.474 345.918H241.538C260.827 345.918 287.294 338.671 287.294 311.324V310.166C287.294 308.406 287.062 306.785 286.622 305.257C294.634 302.78 299.474 302.27 301.951 302.224C304.429 302.247 309.269 302.78 317.28 305.257C316.84 306.785 316.609 308.406 316.609 310.166V311.324C316.609 338.671 343.099 345.918 362.364 345.918H390.429C405.156 345.918 417.081 325.912 417.081 311.324V306.6H428.126V301.136H417.127ZM285.441 311.324C285.441 341.681 251.866 344.043 241.562 344.043H213.497C200.391 344.043 188.72 325.75 188.72 311.324V297.06C188.72 294.027 198.191 289.697 203.285 289.095C208.31 288.493 218.614 287.497 230.887 287.497C251.264 287.497 285.418 290.438 285.418 310.166V311.324H285.441ZM415.229 311.324C415.229 325.75 403.558 344.043 390.452 344.043H362.388C352.083 344.043 318.508 341.681 318.508 311.324V310.166C318.508 290.438 352.685 287.497 373.039 287.497C385.335 287.497 395.616 288.493 400.641 289.095C405.735 289.697 415.229 294.027 415.229 297.06V311.324Z" fill="#070707"/>
</g>
<defs>
<linearGradient id="paint0_linear" x1="300" y1="-75" x2="300" y2="675" gradientUnits="userSpaceOnUse">
<stop stop-color="#151371"/>
<stop offset="0.453125" stop-color="#FF00B8"/>
<stop offset="0.96875" stop-color="#FFC700"/>
</linearGradient>
<linearGradient id="paint1_linear" x1="439" y1="245" x2="439" y2="644" gradientUnits="userSpaceOnUse">
<stop stop-color="#FF00B8"/>
<stop offset="1" stop-color="#F0DB0A" stop-opacity="0"/>
</linearGradient>
<linearGradient id="paint2_linear" x1="194" y1="161" x2="194" y2="560" gradientUnits="userSpaceOnUse">
<stop stop-color="#FF00B8"/>
<stop offset="1" stop-color="#F0DB0A" stop-opacity="0"/>
</linearGradient>
<linearGradient id="paint3_linear" x1="301.974" y1="514.908" x2="301.974" y2="415.339" gradientUnits="userSpaceOnUse">
<stop stop-color="#D6A286" stop-opacity="0.8"/>
<stop offset="0.7" stop-color="#B7734E"/>
</linearGradient>
<linearGradient id="paint4_linear" x1="301.974" y1="447.757" x2="301.974" y2="440.81" gradientUnits="userSpaceOnUse">
<stop offset="0.1" stop-color="#DDAF95"/>
<stop offset="1" stop-color="#D6A286"/>
</linearGradient>
<radialGradient id="paint5_radial" cx="0" cy="0" r="1" gradientUnits="userSpaceOnUse" gradientTransform="translate(241.021 309.984) rotate(179.978) scale(31.4919 27.7041)">
<stop stop-color="white"/>
<stop offset="0.544" stop-color="#FDFEFE"/>
<stop offset="0.74" stop-color="#F6F8F9"/>
<stop offset="0.879" stop-color="#EAEFF2"/>
<stop offset="0.992" stop-color="#D9E3E8"/>
<stop offset="1" stop-color="#D8E2E7"/>
</radialGradient>
<radialGradient id="paint6_radial" cx="0" cy="0" r="1" gradientUnits="userSpaceOnUse" gradientTransform="translate(248.209 308.372) rotate(1.04861) scale(41.4426 29.1759)">
<stop stop-color="#D6A286"/>
<stop offset="0.7" stop-color="#D6A286" stop-opacity="0.3"/>
<stop offset="1" stop-color="#E5BCA6" stop-opacity="0"/>
</radialGradient>
<radialGradient id="paint7_radial" cx="0" cy="0" r="1" gradientUnits="userSpaceOnUse" gradientTransform="translate(236.551 354.479) rotate(-2.60422) scale(59.0186 51.3714)">
<stop offset="0.9" stop-opacity="0"/>
<stop offset="1" stop-opacity="0.2"/>
</radialGradient>
<radialGradient id="paint8_radial" cx="0" cy="0" r="1" gradientUnits="userSpaceOnUse" gradientTransform="translate(362.001 309.983) rotate(0.0216374) scale(31.4944 27.7063)">
<stop stop-color="white"/>
<stop offset="0.544" stop-color="#FDFEFE"/>
<stop offset="0.74" stop-color="#F6F8F9"/>
<stop offset="0.879" stop-color="#EAEFF2"/>
<stop offset="0.992" stop-color="#D9E3E8"/>
<stop offset="1" stop-color="#D8E2E7"/>
</radialGradient>
<radialGradient id="paint9_radial" cx="0" cy="0" r="1" gradientUnits="userSpaceOnUse" gradientTransform="translate(354.817 308.372) rotate(178.951) scale(41.4426 29.1759)">
<stop stop-color="#D6A286"/>
<stop offset="0.7" stop-color="#D6A286" stop-opacity="0.3"/>
<stop offset="1" stop-color="#E5BCA6" stop-opacity="0"/>
</radialGradient>
<radialGradient id="paint10_radial" cx="0" cy="0" r="1" gradientUnits="userSpaceOnUse" gradientTransform="translate(366.474 354.479) rotate(-177.396) scale(59.0186 51.3714)">
<stop offset="0.9" stop-opacity="0"/>
<stop offset="1" stop-opacity="0.2"/>
</radialGradient>
<radialGradient id="paint11_radial" cx="0" cy="0" r="1" gradientUnits="userSpaceOnUse" gradientTransform="translate(301.974 382.921) scale(94.9381)">
<stop stop-color="#F4D8CA" stop-opacity="0.5"/>
<stop offset="0.9" stop-color="#E5BCA6" stop-opacity="0"/>
</radialGradient>
<radialGradient id="paint12_radial" cx="0" cy="0" r="1" gradientUnits="userSpaceOnUse" gradientTransform="translate(301.974 243.988) scale(85.6758)">
<stop stop-color="#F4D8CA" stop-opacity="0.5"/>
<stop offset="0.9" stop-color="#E5BCA6" stop-opacity="0"/>
</radialGradient>
<clipPath id="clip0">
<rect width="600" height="600" fill="white"/>
</clipPath>
</defs>
</svg>
