<svg width="600" height="600" viewBox="0 0 600 600" fill="none" xmlns="http://www.w3.org/2000/svg">
<g clip-path="url(#clip0)">
<path d="M675 675H-75V-75H675V675Z" fill="url(#paint0_linear)"/>
<path d="M360.996 403.874H308.184V356.576H360.996V403.874ZM414.113 320.069H340.054V380.225H414.113V320.069ZM377.082 441.95H442.881V362.639H377.082V441.95ZM400.757 434.192H334.59V491.191H400.757V434.192ZM580.44 284.416H490.23V387.501H580.44V284.416ZM478.458 331.108H456.605V356.576H478.458V331.108ZM544.531 252.277H456.605V304.426H544.531V252.277ZM442.881 270.468H395.532V335.958H442.881V270.468ZM334.59 275.32H308.184V303.213H334.59V275.32ZM299.325 320.069H258.501V382.71H299.325V320.069V320.069ZM347.338 441.95H275.708V521.511H347.338V441.95ZM308.184 576.086H388.617V528.788H308.184V576.086ZM500.311 557.894H443.791V599.129H500.313V557.894H500.311ZM637.361 516.659H585.062V578.511H637.361V516.659ZM551.302 544.718H506.381V585.953H551.302V544.718ZM594.357 463.296H528.843V537.278H594.357V463.296ZM610.791 590.639H528.843V644H610.791V590.639ZM340.054 557.894H251.187V637.937H340.052V557.894H340.054ZM630.216 356.576H569.818V403.874H630.216V356.576ZM594.357 424.49H568.208V451.477H594.357V424.49ZM251.187 474.697H300.975V404.294H251.187V474.697ZM321.764 249.852L232 252.277V320.069H321.764V249.852ZM646 252.277H587.725V326.256H646V252.277ZM371.858 245H347.338V298.361H371.858V245ZM641.143 437.983H581.281V486.494H641.143V437.983Z" fill="url(#paint1_linear)" stroke="#FFC700" stroke-width="1.5"/>
<path d="M115.996 319.874H63.1843V272.576H115.996V319.874ZM169.113 236.069H95.0537V296.225H169.113V236.069ZM132.082 357.95H197.881V278.639H132.082V357.95ZM155.757 350.192H89.5904V407.191H155.757V350.192ZM335.44 200.416H245.23V303.501H335.44V200.416ZM233.458 247.108H211.605V272.576H233.458V247.108ZM299.531 168.277H211.605V220.426H299.531V168.277ZM197.881 186.468H150.532V251.958H197.881V186.468ZM89.5904 191.32H63.1843V219.213H89.5904V191.32ZM54.3246 236.069H13.5008V298.71H54.3246V236.069V236.069ZM102.338 357.95H30.7084V437.511H102.338V357.95ZM63.1843 492.086H143.617V444.788H63.1843V492.086ZM255.311 473.894H198.791V515.129H255.313V473.894H255.311ZM392.361 432.659H340.062V494.511H392.361V432.659ZM306.302 460.718H261.381V501.953H306.302V460.718ZM349.357 379.296H283.843V453.278H349.357V379.296ZM365.791 506.639H283.843V560H365.791V506.639ZM95.0537 473.894H6.18721V553.937H95.0519V473.894H95.0537ZM385.216 272.576H324.818V319.874H385.216V272.576ZM349.357 340.49H323.208V367.477H349.357V340.49ZM6.18721 390.697H55.9745V320.294H6.18721V390.697ZM76.7643 165.852L-13 168.277V236.069H76.7643V165.852ZM401 168.277H342.725V242.256H401V168.277ZM126.858 161H102.338V214.361H126.858V161ZM396.143 353.983H336.281V402.494H396.143V353.983Z" fill="url(#paint2_linear)" stroke="#FFC700" stroke-width="1.5"/>
<rect x="504" y="328.705" width="8.86149" height="25.1423" fill="white"/>
<rect x="521.754" y="328.858" width="8.83104" height="25.1423" fill="white"/>
<rect x="512.861" y="320" width="8.89195" height="8.85765" fill="white"/>
<rect x="539.415" y="328.858" width="8.89195" height="25.1423" fill="white"/>
<rect x="530.585" y="320" width="8.83105" height="8.85765" fill="white"/>
<rect x="548.308" y="320" width="8.86149" height="8.85765" fill="white"/>
<rect x="557.169" y="327.792" width="8.83104" height="8.85766" fill="white"/>
<rect x="548.308" y="336.65" width="8.86149" height="8.82721" fill="white"/>
<rect x="40" y="390.425" width="7.57515" height="21.4449" fill="white"/>
<rect x="55.1768" y="390.555" width="7.54912" height="21.4449" fill="white"/>
<rect x="47.5752" y="383" width="7.60118" height="7.55506" fill="white"/>
<rect x="70.2744" y="390.555" width="7.60118" height="21.4449" fill="white"/>
<rect x="62.7256" y="383" width="7.54912" height="7.55506" fill="white"/>
<rect x="77.876" y="383" width="7.57515" height="7.55506" fill="white"/>
<rect x="85.4512" y="389.646" width="7.54912" height="7.55506" fill="white"/>
<rect x="77.876" y="397.201" width="7.57515" height="7.52909" fill="white"/>
<path d="M404.054 200.353L193.241 188.358C193.241 188.358 140.12 575.8 140.12 587.91C140.12 587.91 353.88 589.435 444.995 587.91C443.292 571.133 404.054 200.353 404.054 200.353Z" fill="#0C080C"/>
<path d="M487.263 536.785C474.535 515.264 458.718 511.419 445.68 507.26C432.285 502.989 404.695 500.528 389.647 497.515C375.113 494.606 340.596 485.251 340.202 468.94C339.795 451.852 349.292 384.007 349.292 384.007H239.704C239.704 384.007 249.209 451.849 248.801 468.94C248.411 485.251 213.887 494.606 199.351 497.515C184.301 500.528 156.715 502.989 143.32 507.26C130.278 511.419 114.457 515.262 101.728 536.785C94.0083 549.835 89 570.963 89 594.267H500C499.998 570.963 494.998 549.835 487.263 536.785Z" fill="#F3D4CF"/>
<path d="M340.201 468.942C345.487 492.096 378.685 497.962 395.904 501.409C442.32 510.686 467.452 512.286 485.513 542.803C491.663 553.218 497.078 576.412 498.144 593.973C502.031 594.589 499.269 557.042 487.263 536.785C466.624 501.888 425.636 504.72 389.646 497.517C375.113 494.608 340.595 485.253 340.201 468.942ZM249.349 468.942C248.955 485.253 214.437 494.608 199.904 497.517C163.914 504.72 122.926 501.888 102.287 536.785C90.2814 557.044 87.5188 594.589 91.4064 593.973C92.472 576.412 97.8871 553.218 104.037 542.803C122.096 512.286 147.23 510.686 193.646 501.409C210.865 497.962 244.063 492.094 249.349 468.942Z" fill="#FFF4F3"/>
<path d="M191.402 514.851C191.402 514.851 252.08 515.485 262.317 518.845C267.219 520.45 280.053 530.778 280.053 530.778C280.053 530.778 266.164 524.063 261.711 522.817C251.366 519.927 191.402 514.851 191.402 514.851ZM294.341 537.066C298.69 536.979 311.05 529.018 311.05 529.018C311.05 529.018 299.241 533.38 295.496 533.594C292.337 533.776 282.009 530.971 282.009 530.971C282.009 530.971 290.775 537.136 294.341 537.066ZM330.808 521.724C345.108 517.872 393.911 514.881 393.911 514.881C393.911 514.881 343.508 513.788 329.274 518.535C324.503 520.128 313.253 529.467 313.253 529.467C313.253 529.467 326.1 522.988 330.808 521.724Z" fill="#E4B3AB"/>
<path d="M487.263 536.785C466.626 501.891 425.567 504.706 389.647 497.518C375.113 494.609 340.596 485.254 340.202 468.943C339.795 451.855 349.292 384.01 349.292 384.01H239.704C239.704 384.01 249.209 451.852 248.801 468.943C248.411 485.254 213.887 494.609 199.351 497.518C184.301 500.531 156.715 502.992 143.32 507.263C130.278 511.422 114.457 515.265 101.728 536.788C94.0083 549.838 89 570.966 89 594.27H500C499.998 570.964 494.998 549.836 487.263 536.785Z" stroke="#C5796D" stroke-width="4.5"/>
<path d="M266.815 469.914C278.069 475.192 311.379 474.942 322.747 469.914C328.024 467.58 333.577 463.815 339.176 459.139C340.657 437.259 346.225 396.159 347.621 386.028C345.263 385.797 342.841 385.583 340.359 385.386H249.458C246.693 385.604 243.996 385.844 241.384 386.104C242.782 396.237 248.212 436.325 249.769 458.332C255.597 463.313 261.368 467.362 266.815 469.914Z" fill="url(#paint3_linear)"/>
<path d="M485.844 536.321C465.375 498.356 429.06 505.074 391.327 494.89C388.471 498.358 362.332 531.897 356.402 549.833C353.072 547.172 349.095 543.608 346.225 540.348C332.183 524.544 311.368 473.399 304.383 513.338C305.902 495.409 314.158 491.46 325.622 506.487C337.946 522.658 338.403 531.009 355.987 548.593C359.093 536.24 365.04 527.329 372.864 516.389C380.433 505.786 386.496 497.439 395.248 489.924C390.458 487.327 385.403 485.227 380.84 482.306C352.208 463.747 369.326 444.92 343.373 440.435C343.17 442.676 342.914 445.191 342.702 447.081C348.25 449.814 349.329 460.47 340.784 468.27C327.204 482.554 309.29 483.263 303.599 505.195L303.587 505.193C301.778 511.699 300.326 521.666 299.64 527.507L290.017 528.331C286.104 493.96 280.99 490.598 264.262 479.978C253.18 472.942 237.803 462.319 243.716 450.311C244.39 448.922 245.21 448.068 246.229 447.428C245.937 444.682 245.763 443.089 245.538 440.541C219.658 445.439 236.986 465.124 208.144 482.643C203.779 485.285 199.511 487.085 194.282 489.88C204.618 498.886 228.836 529.086 233.604 548.6C251.354 530.643 251.489 522.794 263.887 506.553C274.565 492.577 283.285 494.009 285.117 512.923C284.109 507.241 281.721 498.545 276.548 498.545C272.285 498.545 267.842 504.57 265.643 507.479C253.337 523.722 251.36 535.346 233.119 549.85C231.857 546.214 230.378 542.566 228.611 539.166C221.383 525.175 200.453 497.653 198.227 494.915C189.577 497.25 177.747 499.119 169.821 500.381C118.039 508.637 97.9681 519.046 90.335 594.049C280.24 592.206 357.625 593.011 499.072 593.011C497.297 576.313 493.82 551.14 485.844 536.321Z" fill="#09AAC5"/>
<path d="M285.701 588.638C277.962 588.638 272.383 588.509 269.112 588.261C270.1 583.007 273.044 573.167 274.739 568.268C269.326 561.432 267.803 554.354 266.46 548.104C265.661 544.388 264.966 541.168 263.577 538.638C263.865 538.475 264.615 538.058 264.615 538.058L264.481 537.865C260.911 532.753 256.681 527.19 252.291 524.567L253.011 523.368C256.596 517.393 262.577 507.423 267.718 502.214C276.587 508.926 286.766 521.58 290.736 528.185L290.811 528.306L290.95 528.285C293.696 527.876 296.717 527.63 299.033 527.63C305.232 518.152 313.892 508.462 321.845 502.208C326.01 505.849 332.652 516.944 335.857 522.306C336.478 523.34 336.953 524.135 337.235 524.582C332.243 527.935 327.532 534.31 325.722 536.916L325.608 537.079L325.765 537.204C326.481 537.761 327.858 538.918 328.584 539.64C327.121 550.451 322.496 561.593 316.456 568.548C317.907 573.167 318.47 578.45 319.252 585.763L319.513 588.181C318.981 588.187 317.824 588.21 316.199 588.242C309.962 588.371 296.986 588.638 285.701 588.638C285.703 588.638 285.703 588.638 285.701 588.638Z" fill="#141111"/>
<path d="M324.247 541.884C323.821 551.04 320.641 558.565 315.212 567.451C320.817 560.457 327.192 549.922 328.586 539.64C322.652 533.706 301.524 523.728 279.137 532.181C297.452 528.575 319.097 531.586 324.247 541.884Z" fill="#2C2526"/>
<path d="M387.89 497.083C382.675 502.752 378.126 509.019 372.861 516.389C366.099 525.849 360.745 533.799 357.411 543.761C361.252 523.209 374.186 504.612 390.111 490.46C373.361 487.414 365.366 472.327 361.406 457.004C363.894 464.423 367.09 473.393 380.84 482.306C385.401 485.227 390.458 487.327 395.248 489.924C394.926 490.2 387.89 497.083 387.89 497.083ZM476.972 532.831C489.007 547.877 494.623 567.196 498.39 586.992C496.443 570.703 492.912 549.451 485.842 536.321C465.372 498.356 429.058 505.074 391.325 494.89C390.99 495.295 390.327 496.127 389.424 497.286C420.448 501.398 456.568 506.307 476.972 532.831ZM194.303 489.924C199.093 487.327 204.148 485.227 208.711 482.306C222.461 473.393 225.658 464.423 228.145 457.004C224.185 472.327 216.19 487.416 199.441 490.46C215.366 504.614 228.297 523.209 232.141 543.761C228.806 533.799 223.452 525.849 216.69 516.389C211.427 509.019 206.877 502.75 201.661 497.083C201.661 497.083 194.625 490.2 194.303 489.924ZM200.127 497.288C199.222 496.129 198.561 495.299 198.227 494.892C160.491 505.076 124.179 498.358 103.709 536.323C96.6397 549.453 93.1081 570.705 91.1611 586.994C94.9279 567.196 100.544 547.877 112.58 532.831C132.984 506.307 169.103 501.398 200.127 497.288Z" fill="#545B8E"/>
<path d="M387.89 497.083C382.675 502.752 378.126 509.019 372.861 516.389C366.099 525.849 360.745 533.799 357.411 543.761C361.252 523.209 374.186 504.612 390.111 490.46C373.361 487.414 365.366 472.327 361.406 457.004C363.894 464.423 367.09 473.393 380.84 482.306C385.401 485.227 390.458 487.327 395.248 489.924C394.926 490.2 387.89 497.083 387.89 497.083ZM476.972 532.831C489.007 547.877 494.623 567.196 498.39 586.992C496.443 570.703 492.912 549.451 485.842 536.321C465.372 498.356 429.058 505.074 391.325 494.89C390.99 495.295 390.327 496.127 389.424 497.286C420.448 501.398 456.568 506.307 476.972 532.831ZM194.303 489.924C199.093 487.327 204.148 485.227 208.711 482.306C222.461 473.393 225.658 464.423 228.145 457.004C224.185 472.327 216.19 487.416 199.441 490.46C215.366 504.614 228.297 523.209 232.141 543.761C228.806 533.799 223.452 525.849 216.69 516.389C211.427 509.019 206.877 502.75 201.661 497.083C201.661 497.083 194.625 490.2 194.303 489.924ZM200.127 497.288C199.222 496.129 198.561 495.299 198.227 494.892C160.491 505.076 124.179 498.358 103.709 536.323C96.6397 549.453 93.1081 570.705 91.1611 586.994C94.9279 567.196 100.544 547.877 112.58 532.831C132.984 506.307 169.103 501.398 200.127 497.288Z" fill="#1FBAD4"/>
<path d="M333.551 479.867C324.049 485.147 316.003 490.329 310.666 497.619C312.74 498.218 318.2 499.661 320.766 502.65C312.285 509.307 307.139 515.387 299.76 527.249C300.601 520.611 300.942 515.463 302.309 510.601C302.707 508.665 303.135 506.82 303.588 505.193L303.601 505.195C309.291 483.263 327.206 482.554 340.786 468.27C349.33 460.47 348.252 449.814 342.703 447.081C342.917 445.191 343.174 442.676 343.375 440.435C344.798 440.68 346.067 440.979 347.248 441.31C364.747 456.068 345.491 474.749 333.551 479.867ZM253.677 479.867C263.179 485.147 274.799 491.403 280.121 498.059C278.047 498.659 271.35 499.661 268.785 502.65C278.426 511.644 284.256 517.879 290.534 528.035C289.693 521.397 288.61 515.461 287.242 510.601C286.843 508.665 286.415 506.82 285.962 505.193L285.949 505.195C280.259 483.263 262.344 482.554 248.764 468.27C240.22 460.47 241.298 449.814 246.847 447.081C246.633 445.191 246.377 442.676 246.175 440.435C244.752 440.68 243.483 440.979 242.303 441.31C227.64 458.478 242.947 473.63 253.677 479.867Z" fill="#009CB6"/>
<path d="M345.322 451.871C346.528 456.786 344.602 460.79 341.615 464.201C341.636 460.557 341.954 456.892 342.29 453.29C342.46 451.51 342.653 449.712 342.82 447.932C343.966 448.714 344.856 449.987 345.322 451.871ZM246.703 454.053C246.936 457.167 247.212 460.279 247.275 463.396C244.691 460.154 243.144 456.466 244.225 451.913C244.585 450.345 245.241 449.22 246.11 448.417C246.322 450.303 246.513 452.169 246.703 454.053Z" fill="#008FA6"/>
<path d="M490.87 538.522C472.142 495.634 427.934 500.811 392.442 493.926C393.916 492.14 395.723 490.261 396.126 489.901C390.543 485.96 372.555 478.048 365.96 463.673C361.237 453.43 362.394 441.704 342.971 439.818C341.906 445.784 340.376 458.904 340.662 465.241C320.315 486.229 300.276 476.848 297.812 527.44L299.462 527.401C299.462 527.401 299.931 527.092 299.947 526.946C305.973 477.469 321.22 489.157 340.935 468.417C349.765 460.305 348.242 449.561 342.927 446.956C343.158 444.858 343.372 442.78 343.562 440.683C360.271 443.627 358.822 453.051 364.049 464.561C370.995 479.865 388.084 486.306 394.874 489.962C385.683 497.862 379.042 507.379 371.699 517.65C360.146 533.672 357.475 541.846 355.871 548.178C338.338 530.531 338.327 522.796 325.788 506.358C312.417 488.822 303.824 498.078 303.99 517.734C304.371 512.822 307.314 494.79 315.663 499.515C325.315 504.904 334.791 527.802 346.064 540.488C349.073 543.901 352.945 547.329 356.509 550.191C360.896 535.507 376.881 514.923 386.743 501.189C388.247 499.112 389.793 497.079 391.403 495.129C405.153 498.71 419.496 500.341 433.414 502.883C483.802 512.12 493.077 539.941 498.836 592.795C418.464 593.206 331.177 591.517 90.5684 593.831C94.0556 559.315 99.9557 531.1 121.287 515.847C130.44 509.279 141.054 505.847 151.985 503.665C167.218 500.636 183.043 499.068 198.149 495.149C199.907 497.288 201.581 499.492 203.212 501.78C221.864 527.717 226.728 533.412 233.02 550.189C254.244 534.27 262.731 504.394 274.417 499.237C282.552 495.657 285.179 512.838 285.56 517.73C285.719 496.881 275.987 484.509 256.303 517.264C246.604 533.41 244.032 537.787 233.719 548.174C229.578 531.336 207.534 501.023 194.653 489.914C202.644 485.617 217.093 480.511 224.821 465.974C229.925 456.002 227.658 444.165 245.35 440.784C245.541 442.964 245.774 445.127 246.007 447.309C241.162 450.362 240.323 460.622 248.062 467.796C255.032 475.442 264.481 479.808 272.785 485.909C282.575 493.153 286.448 500.566 289.564 526.48C289.632 527.046 290.359 528.126 290.359 528.126L291.721 527.95C290.918 509.981 288.329 494.729 277.809 485.95C268.72 478.179 255.977 473.228 248.276 464.552C248.509 458.044 246.78 444.862 245.945 439.892C228.345 441.61 228.196 452.305 224.463 461.669C218.813 475.836 204.125 483.397 193.426 489.869C194.136 490.575 195.818 492.384 197.113 493.916C182.304 496.816 166.966 497.644 152.115 500.248C129.955 504.125 109.044 515.332 99.5108 536.666C92.2696 552.856 90.1701 576.077 89.6384 593.846C89.6172 593.973 89.6172 594.121 89.6172 594.246C89.9138 594.267 90.2316 594.267 90.5282 594.267C345.439 596.865 497.776 593.187 499.897 593.187C499.893 591.079 498.958 557.044 490.87 538.522ZM341.615 464.201C341.647 458.711 342.405 452.352 342.821 447.93C345.941 450.066 347.785 457.159 341.615 464.201ZM247.276 463.398C242.094 456.898 243.759 450.597 246.111 448.42C246.602 452.809 247.187 458.957 247.276 463.398Z" fill="#008197"/>
<path d="M388 378.287C377.401 399.612 345.53 437.598 322.747 447.672C311.379 452.701 278.068 452.949 266.815 447.672C244.261 437.102 212.23 399.578 201.561 378.287C189.67 354.561 170.096 277.013 170.073 276.901C167.319 266.495 165.844 255.576 165.827 244.313C165.717 173.395 223.357 115.832 294.578 115.721C365.806 115.611 423.626 172.99 423.732 243.907C423.751 255.169 422.315 266.094 419.597 276.509C419.56 276.619 399.856 354.428 388 378.287Z" fill="#F3D4CF"/>
<path d="M316.283 117.529C373.471 130.748 416.061 181.799 415.965 242.759C415.946 254.019 414.474 264.942 411.72 275.346C411.694 275.458 393.479 353.032 381.785 376.732C371.49 397.597 340.049 434.024 318.086 444.566C313.503 446.763 299.667 447.805 294.78 447.805C289.892 447.805 276.058 446.763 271.476 444.566C249.512 434.024 218.069 397.597 207.777 376.732C196.08 353.029 177.865 275.458 177.842 275.346C175.088 264.942 173.613 254.021 173.596 242.759C173.501 181.801 216.086 130.748 273.278 117.529C212.215 127.738 165.728 180.623 165.827 244.311C165.844 255.572 167.319 266.493 170.073 276.899C170.098 277.011 189.631 354.576 201.561 378.285C212.264 399.557 244.371 436.863 266.815 447.67C272.446 450.381 286.528 451.54 294.258 451.534C301.983 451.54 317.12 450.381 322.747 447.67C345.191 436.861 377.295 399.557 388 378.285C399.93 354.576 419.465 277.011 419.486 276.899C422.24 266.493 423.715 255.574 423.732 244.311C423.834 180.623 377.346 127.738 316.283 117.529Z" fill="#EBC3BD"/>
<path d="M388 378.287C377.401 399.612 345.53 437.598 322.747 447.672C311.379 452.701 278.068 452.949 266.815 447.672C244.261 437.102 212.23 399.578 201.561 378.287C189.67 354.561 170.096 277.013 170.073 276.901C167.319 266.495 165.844 255.576 165.827 244.313C165.717 173.395 223.357 115.832 294.578 115.721C365.806 115.611 423.626 172.99 423.732 243.907C423.751 255.169 422.315 266.094 419.597 276.509C419.56 276.619 399.856 354.428 388 378.287Z" stroke="#C5796D" stroke-width="4.5"/>
<path d="M295.332 413.218C285.335 413.198 281.324 404.301 281.324 404.301C293.364 409.766 308.427 404.892 308.427 404.892C308.427 404.892 305.37 413.237 295.332 413.218Z" fill="url(#paint4_linear)"/>
<path d="M262.104 389.85C268.384 389.598 280.794 388.481 285.347 388.827C287.698 389.002 291.556 391.062 294.092 391.763C295.857 392.254 302.564 389.935 304.367 389.924C309.094 389.888 319.343 392.778 324.849 393.915C325.155 393.977 324.849 393.915 324.849 393.915C324.849 393.915 311.303 408.629 293.957 407.658C274.32 406.561 262.104 389.85 262.104 389.85C261.791 389.86 262.104 389.85 262.104 389.85Z" fill="#F771A9"/>
<path d="M262.104 389.85C268.384 389.598 280.794 388.481 285.347 388.827C287.698 389.002 291.556 391.062 294.092 391.763C295.857 392.254 302.564 389.935 304.367 389.924C309.094 389.888 319.343 392.778 324.849 393.915C325.155 393.977 324.849 393.915 324.849 393.915C324.849 393.915 311.303 408.629 293.957 407.658C274.32 406.561 262.104 389.85 262.104 389.85ZM262.104 389.85C262.104 389.85 261.791 389.86 262.104 389.85Z" stroke="#E85391" stroke-width="2.25"/>
<path d="M325.363 393.475C325.217 393.189 324.24 392.924 323.876 392.979C323.219 393.079 322.746 393.848 321.371 394.004C319.778 394.191 311.351 395.826 309.052 395.754C304.427 395.608 299.118 397.011 294.701 396.765C290.284 396.517 283.331 394.17 278.735 393.754C276.452 393.549 267.083 390.774 265.533 390.382C264.196 390.045 264.09 389.252 263.552 389.022C263.175 388.861 262.088 388.973 261.793 389.227C261.541 389.447 261.618 390.473 261.795 390.752C262.232 391.432 263.848 391.731 265.031 392.026C266.668 392.439 276.176 395.246 278.524 395.458C283.072 395.873 290.116 398.373 294.572 398.621C299.027 398.871 304.438 397.307 309.016 397.453C311.372 397.532 319.92 395.892 321.607 395.697C322.825 395.557 324.344 395.297 324.905 394.803C325.174 394.564 325.513 393.767 325.363 393.475Z" fill="#C92066"/>
<path d="M294.148 404.813C286.388 404.381 274.149 400.534 269.465 395.517C272.331 395.958 278.532 396.595 281.38 397.072C284.89 397.663 289.754 399.316 293.333 399.737C297.197 400.193 302.478 399.208 306.251 398.792C309.398 398.449 314.277 397.314 317.418 397.186C312.13 401.197 301.641 405.231 294.148 404.813ZM306.741 394.434C309.559 394.254 313.952 393.028 316.759 392.924C313.599 391.822 308.845 391.82 305.489 391.363C302.595 390.973 298.178 392.907 295.311 393.163C292.076 393.456 288.233 390.469 285.225 390.18C281.958 389.871 275.138 390.814 271.935 391.538C274.672 391.913 280.628 392.502 283.322 393.06C286.625 393.74 291.366 395.223 294.796 395.413C298.303 395.606 303.266 394.661 306.741 394.434Z" fill="#FF8EBD"/>
<path d="M294.162 403.046C289.542 402.784 281.866 400.674 278.551 397.752C279.4 397.805 281.866 398.078 282.682 398.178C282.94 398.212 283.197 398.246 283.451 398.29C284.784 398.511 286.072 398.968 287.447 399.441C288.781 399.905 291.813 400.491 293.302 400.686C293.595 400.729 293.889 400.748 294.184 400.765C296.02 400.871 299.433 400.629 301.12 400.292C302.19 400.08 303.196 399.862 304.232 399.737C304.798 399.667 305.408 399.633 306.098 399.629C306.692 399.623 307.31 399.64 307.922 399.667C304.815 401.671 298.921 403.313 294.162 403.046Z" fill="#FFA8CC"/>
<path d="M257.91 391.916C257.91 391.916 256.722 389.259 256.889 388.263C257.122 386.875 260.112 384.119 260.112 384.119C260.112 384.119 258.302 387.291 258.023 388.291C257.749 389.259 257.91 391.916 257.91 391.916Z" fill="#C5796D"/>
<path d="M245.89 284.689C255.65 285.998 262.94 292.786 269.287 303.756C269.295 303.769 269.315 303.764 269.325 303.775C269.342 303.843 269.372 303.909 269.387 303.974C270.001 306.491 267.793 308.631 265.005 310.304C254.949 312.262 245.299 314.885 235.017 313.747C214.427 311.472 213.743 300.729 212.664 297.947C212.048 295.195 211.872 292.384 211.823 289.721C215.73 289.788 220.261 287.483 224.071 286.426C228.53 285.189 238.515 283.697 245.89 284.689Z" fill="url(#paint5_radial)"/>
<path d="M237.334 298.767L223.235 295.549C222.923 296.915 222.745 298.33 222.745 299.788C222.745 301.248 222.925 302.663 223.235 304.027L241.81 299.788L237.334 298.767Z" fill="#EA2E2E"/>
<path d="M226.917 311.671C228.692 313.893 230.957 315.7 233.546 316.95L241.808 299.792L226.917 311.671Z" fill="#F09330"/>
<path d="M241.815 318.855C244.778 318.855 247.575 318.158 250.075 316.952L241.812 299.792L241.815 318.855Z" fill="#64398E"/>
<path d="M241.812 299.79L256.71 311.669C258.469 309.468 259.744 306.87 260.388 304.029L241.812 299.79Z" fill="#393B97"/>
<path d="M241.812 299.788L247.613 298.464L260.388 295.549C259.742 292.708 258.469 290.11 256.71 287.909L241.812 299.788Z" fill="#00AA4F"/>
<path d="M250.075 282.623C247.571 281.416 244.776 280.721 241.812 280.721V299.784L250.075 282.623Z" fill="#FAE636"/>
<path d="M233.545 282.626C230.956 283.875 228.692 285.68 226.914 287.905L241.808 299.784L233.545 282.626Z" fill="#9C2D91"/>
<path d="M241.812 299.788L260.39 304.027C260.699 302.663 260.88 301.248 260.88 299.788C260.88 298.328 260.699 296.913 260.39 295.549L247.615 298.464L241.812 299.788Z" fill="#EA2E2E"/>
<path d="M241.812 299.788L241.815 299.79L250.077 316.95C252.668 315.7 254.935 313.893 256.71 311.669L241.812 299.788Z" fill="#9B328D"/>
<path d="M241.812 299.79L233.55 316.95C236.052 318.158 238.848 318.855 241.812 318.855H241.814L241.812 299.79Z" fill="#FDE92B"/>
<path d="M241.81 299.79L223.234 304.029C223.881 306.87 225.156 309.468 226.914 311.671L241.81 299.79Z" fill="#00AA4F"/>
<path d="M241.812 299.786V280.721C238.846 280.721 236.05 281.418 233.548 282.626L241.812 299.786Z" fill="#65378F"/>
<path d="M241.812 299.788L256.71 287.907C254.935 285.683 252.668 283.875 250.077 282.626L241.815 299.786L241.812 299.788Z" fill="#EC9236"/>
<path d="M241.81 299.788L226.914 287.907C225.156 290.11 223.88 292.708 223.236 295.547L237.333 298.765L241.81 299.788Z" fill="#393B97"/>
<path opacity="0.3" d="M241.812 280.721C252.343 280.721 260.879 289.257 260.879 299.788C260.879 310.319 252.343 318.855 241.812 318.855C231.281 318.855 222.745 310.319 222.745 299.788C222.745 289.257 231.281 280.721 241.812 280.721Z" fill="black"/>
<path d="M249.227 299.788C249.227 303.883 245.91 307.203 241.812 307.203C237.715 307.203 234.397 303.883 234.397 299.788C234.397 295.693 237.715 292.373 241.812 292.373C245.91 292.373 249.227 295.693 249.227 299.788Z" fill="black"/>
<path opacity="0.7" d="M234.721 312.73C233.726 313.724 231.764 313.374 230.338 311.948C228.91 310.523 228.558 308.557 229.556 307.563C230.55 306.567 232.512 306.919 233.937 308.345C235.363 309.773 235.715 311.737 234.721 312.73Z" fill="white"/>
<path opacity="0.9" d="M256.238 296.244C254.75 297.733 251.147 296.544 248.187 293.587C245.23 290.629 244.041 287.024 245.526 285.536C247.016 284.047 250.621 285.236 253.577 288.193C256.534 291.151 257.727 294.756 256.238 296.244Z" fill="white"/>
<path d="M200.499 299.79C200.499 329.043 218.047 352.752 239.692 352.752C261.338 352.752 278.886 329.043 278.886 299.79C278.886 270.535 261.338 246.824 239.692 246.824C218.047 246.824 200.499 270.535 200.499 299.79ZM212.662 297.951C212.045 295.199 211.869 292.388 211.821 289.725C215.727 289.793 220.259 287.488 224.068 286.43C228.53 285.189 238.514 283.698 245.889 284.689C255.649 285.998 262.939 292.786 269.286 303.756C269.295 303.769 269.314 303.764 269.325 303.775C269.342 303.843 269.371 303.909 269.386 303.974C270 306.491 267.793 308.631 265.005 310.304C254.948 312.262 245.298 314.885 235.017 313.747C214.424 311.476 213.74 300.733 212.662 297.951Z" fill="#F3D4CF"/>
<path d="M241.822 327.23C261.522 329.943 279.384 318.069 281.714 300.688C284.047 283.306 269.975 267.014 250.271 264.292C230.566 261.58 212.711 273.456 210.38 290.837C208.05 308.216 222.117 324.501 241.822 327.23ZM211.821 289.725C215.728 289.793 220.259 287.488 224.068 286.43C228.53 285.189 238.515 283.697 245.889 284.689C255.65 285.998 262.94 292.786 269.287 303.756C269.295 303.769 269.314 303.764 269.325 303.775C269.342 303.843 269.372 303.909 269.386 303.974C270.001 306.491 267.793 308.631 265.005 310.304C254.948 312.262 245.298 314.885 235.017 313.747C214.427 311.472 213.742 300.729 212.664 297.947C212.046 295.199 211.87 292.388 211.821 289.725Z" fill="url(#paint6_radial)"/>
<path d="M212.663 297.951C212.047 295.199 211.871 292.388 211.822 289.725C215.729 289.793 220.26 287.488 224.07 286.43C228.531 285.189 238.516 283.698 245.891 284.689C255.651 285.998 262.941 292.786 269.288 303.756C269.297 303.769 269.316 303.764 269.326 303.775C269.343 303.843 269.373 303.909 269.388 303.974C270.002 306.491 267.795 308.631 265.007 310.304C254.95 312.262 245.3 314.885 235.018 313.747C214.426 311.476 213.742 300.733 212.663 297.951Z" fill="url(#paint7_radial)"/>
<path d="M244.838 274.266C251.852 275.331 258.761 278.867 265.201 283.371C266.578 284.335 268.159 285.43 270.646 286.808C268.879 286.407 267.226 285.394 265.682 284.464C267.292 286.155 268.807 288.193 270.053 290.172C264.481 282.433 254.195 276.855 245.532 275.168C237.213 273.547 222.247 275.469 211.275 281.744C221.275 274.49 236.128 272.942 244.838 274.266Z" fill="#C5796D"/>
<path d="M269.467 303.731C269.395 303.737 269.327 303.701 269.289 303.639C262.942 292.953 255.652 286.337 245.89 285.062C238.519 284.096 228.534 285.549 224.068 286.759C220.113 287.829 215.37 290.235 211.366 289.975C207.65 289.731 203.425 286.774 201.194 284.651C203.584 286.437 210.06 286.827 211.997 286.369C211.399 286.214 208.071 284.132 207.427 283.513C208.997 284.407 215.09 285.339 217.05 284.844C216.488 284.547 213.692 282.636 213.043 281.882C213.34 282.14 220.2 283.45 223.708 282.28C244.762 275.268 261.914 281.323 270.024 303.36C270.054 303.434 270.043 303.517 270.001 303.582C269.956 303.648 269.886 303.69 269.808 303.699L269.467 303.731ZM212.16 297.345C210.796 302.606 214.476 314.042 234.193 315.364C248.201 316.3 267.446 309.565 265.056 310.012C254.98 311.919 245.315 314.486 235.013 313.378C211.662 310.864 213.914 297.729 212.16 297.345Z" fill="black"/>
<path d="M343.661 284.689C333.901 285.998 326.611 292.786 320.264 303.756C320.255 303.769 320.236 303.764 320.225 303.775C320.208 303.843 320.179 303.909 320.164 303.974C319.55 306.491 321.757 308.631 324.545 310.304C334.602 312.262 344.252 314.885 354.533 313.747C375.124 311.472 375.808 300.729 376.886 297.947C377.503 295.195 377.679 292.384 377.727 289.721C373.821 289.788 369.289 287.483 365.48 286.426C361.02 285.189 351.036 283.698 343.661 284.689Z" fill="url(#paint8_radial)"/>
<path d="M343.26 298.767L329.161 295.549C328.852 296.915 328.674 298.33 328.674 299.788C328.674 301.248 328.854 302.663 329.163 304.027L347.739 299.788L343.26 298.767Z" fill="#EA2E2E"/>
<path d="M332.844 311.671C334.619 313.893 336.884 315.7 339.473 316.95L347.735 299.792L332.844 311.671Z" fill="#F09330"/>
<path d="M347.741 318.855C350.705 318.855 353.502 318.158 356.002 316.952L347.739 299.792L347.741 318.855Z" fill="#64398E"/>
<path d="M347.739 299.79L362.637 311.669C364.395 309.468 365.671 306.87 366.315 304.029L347.739 299.79Z" fill="#393B97"/>
<path d="M347.739 299.788L353.54 298.464L366.315 295.549C365.669 292.708 364.395 290.11 362.637 287.909L347.739 299.788Z" fill="#00AA4F"/>
<path d="M356.002 282.623C353.497 281.416 350.703 280.721 347.739 280.721V299.784L356.002 282.623Z" fill="#FAE636"/>
<path d="M339.473 282.626C336.884 283.875 334.619 285.68 332.842 287.905L347.735 299.784L339.473 282.626Z" fill="#9C2D91"/>
<path d="M347.739 299.788L366.317 304.027C366.626 302.661 366.806 301.246 366.806 299.788C366.806 298.33 366.626 296.913 366.317 295.549L353.542 298.464L347.739 299.788Z" fill="#EA2E2E"/>
<path d="M347.739 299.788L347.741 299.79L356.004 316.95C358.595 315.7 360.862 313.893 362.637 311.669L347.739 299.788Z" fill="#9B328D"/>
<path d="M347.739 299.79L339.477 316.95C341.979 318.158 344.775 318.855 347.739 318.855H347.741L347.739 299.79Z" fill="#FDE92B"/>
<path d="M347.737 299.79L329.161 304.029C329.807 306.87 331.083 309.468 332.841 311.671L347.737 299.79Z" fill="#00AA4F"/>
<path d="M347.739 299.786V280.721C344.773 280.721 341.977 281.418 339.475 282.626L347.739 299.786Z" fill="#65378F"/>
<path d="M347.739 299.788L362.637 287.907C360.862 285.683 358.595 283.875 356.004 282.626L347.741 299.786L347.739 299.788Z" fill="#EC9236"/>
<path d="M347.736 299.788L332.841 287.907C331.082 290.11 329.807 292.708 329.163 295.547L343.26 298.765L347.736 299.788Z" fill="#393B97"/>
<path opacity="0.3" d="M347.739 280.721C358.27 280.721 366.806 289.257 366.806 299.788C366.806 310.319 358.27 318.855 347.739 318.855C337.208 318.855 328.672 310.319 328.672 299.788C328.672 289.257 337.208 280.721 347.739 280.721Z" fill="black"/>
<path d="M355.154 299.788C355.154 303.883 351.836 307.203 347.739 307.203C343.642 307.203 340.324 303.883 340.324 299.788C340.324 295.693 343.642 292.373 347.739 292.373C351.836 292.373 355.154 295.693 355.154 299.788Z" fill="black"/>
<path opacity="0.7" d="M340.648 312.73C339.652 313.724 337.691 313.374 336.265 311.948C334.837 310.523 334.485 308.557 335.483 307.563C336.477 306.567 338.438 306.919 339.864 308.345C341.29 309.773 341.642 311.737 340.648 312.73Z" fill="white"/>
<path opacity="0.9" d="M362.165 296.244C360.677 297.733 357.074 296.544 354.114 293.587C351.156 290.629 349.968 287.024 351.453 285.536C352.942 284.047 356.548 285.236 359.504 288.193C362.461 291.151 363.654 294.756 362.165 296.244Z" fill="white"/>
<path d="M349.858 246.824C328.213 246.824 310.665 270.537 310.665 299.79C310.665 329.043 328.213 352.752 349.858 352.752C371.504 352.752 389.052 329.043 389.052 299.79C389.052 270.535 371.504 246.824 349.858 246.824ZM354.536 313.749C344.253 314.887 334.605 312.262 324.548 310.307C321.76 308.631 319.552 306.493 320.167 303.976C320.182 303.909 320.211 303.843 320.228 303.777C320.239 303.767 320.258 303.771 320.266 303.758C326.614 292.788 333.903 286 343.664 284.691C351.036 283.7 361.021 285.191 365.485 286.433C369.294 287.49 373.828 289.795 377.732 289.727C377.683 292.39 377.508 295.199 376.891 297.953C375.811 300.733 375.126 311.476 354.536 313.749Z" fill="#F3D4CF"/>
<path d="M379.17 290.837C376.838 273.454 358.985 261.578 339.28 264.292C319.575 267.014 305.506 283.308 307.836 300.688C310.167 318.069 328.028 329.943 347.729 327.23C367.433 324.501 381.501 308.216 379.17 290.837ZM376.889 297.951C375.81 300.733 375.126 311.476 354.536 313.751C344.252 314.889 334.604 312.264 324.548 310.309C321.76 308.633 319.552 306.495 320.166 303.978C320.181 303.911 320.211 303.845 320.228 303.779C320.238 303.769 320.257 303.773 320.266 303.76C326.613 292.79 333.903 286.002 343.663 284.693C351.036 283.702 361.021 285.193 365.484 286.435C369.294 287.492 373.827 289.797 377.732 289.729C377.681 292.388 377.505 295.199 376.889 297.951Z" fill="url(#paint9_radial)"/>
<path d="M376.888 297.951C377.505 295.199 377.681 292.388 377.729 289.725C373.823 289.793 369.291 287.488 365.482 286.43C361.02 285.189 351.036 283.698 343.661 284.689C333.901 285.998 326.611 292.786 320.264 303.756C320.255 303.769 320.236 303.764 320.225 303.775C320.208 303.843 320.179 303.909 320.164 303.974C319.55 306.491 321.757 308.631 324.545 310.304C334.602 312.262 344.252 314.885 354.533 313.747C375.126 311.476 375.81 300.733 376.888 297.951Z" fill="url(#paint10_radial)"/>
<path d="M344.714 274.266C337.699 275.331 330.79 278.867 324.35 283.371C322.973 284.335 321.392 285.43 318.905 286.808C320.672 286.407 322.325 285.394 323.869 284.464C322.259 286.155 320.744 288.193 319.498 290.172C325.07 282.433 335.356 276.855 344.019 275.168C352.338 273.548 367.304 275.469 378.276 281.744C368.276 274.49 353.423 272.942 344.714 274.266Z" fill="#C5796D"/>
<path d="M319.741 303.701C319.662 303.695 319.593 303.65 319.548 303.584C319.506 303.519 319.497 303.436 319.525 303.362C327.635 281.325 344.789 275.27 365.841 282.282C369.349 283.452 376.211 282.14 376.505 281.884C375.857 282.636 373.061 284.549 372.499 284.846C374.459 285.342 380.552 284.409 382.122 283.515C381.476 284.134 378.149 286.216 377.552 286.371C379.488 286.829 385.965 286.439 388.354 284.653C386.124 286.776 381.899 289.733 378.183 289.977C374.179 290.24 369.436 287.833 365.48 286.761C361.017 285.551 351.032 284.1 343.659 285.064C333.897 286.339 326.607 292.956 320.26 303.642C320.222 303.703 320.154 303.739 320.082 303.733L319.741 303.701ZM354.536 313.376C344.236 314.484 334.569 311.919 324.493 310.01C322.103 309.563 341.348 316.3 355.356 315.361C375.075 314.039 378.753 302.606 377.389 297.343C375.637 297.729 377.889 310.864 354.536 313.376Z" fill="black"/>
<path d="M379.949 352.769C380.023 399.96 341.825 438.284 294.628 438.35C247.439 438.426 209.121 400.231 209.047 353.031C208.975 305.843 247.17 267.524 294.368 267.45C341.558 267.378 379.879 305.574 379.949 352.769Z" fill="url(#paint11_radial)"/>
<path d="M368.924 231.994C368.924 272.944 335.724 306.144 294.774 306.144C253.825 306.144 220.625 272.944 220.625 231.994C220.625 191.045 253.825 157.845 294.774 157.845C335.724 157.845 368.924 191.045 368.924 231.994Z" fill="url(#paint12_radial)"/>
<path d="M201.798 263.222C269.969 243.292 285.438 284.06 271.291 271.376C256.592 258.199 222.655 259.368 201.798 263.222Z" fill="#2A232B"/>
<path d="M387.756 263.205C368.045 259.601 339.51 258.163 322.195 268.565C320.056 269.848 311.567 277.126 313.825 272.007C317.929 262.686 345.078 250.813 387.756 263.205Z" fill="#2A232B"/>
<path d="M289.188 309.54C289.188 309.54 289.304 326.408 288.218 329.691C285.826 336.905 275.246 353.625 276.587 358.262C278.674 365.472 288.91 365.999 294.084 366.251C299.037 366.495 309.107 366.135 310.729 361.449C311.39 359.542 309.965 354.676 309.965 354.676C309.965 354.676 305.378 359.396 294.571 358.87C291.487 358.722 286.47 355.692 286.413 351.419C286.336 345.627 290.237 338.983 290.936 333.236C291.465 328.869 289.188 309.54 289.188 309.54Z" fill="#E4B3AB"/>
<path d="M303.691 361.296C305.558 361.296 306.062 361.792 306.062 362.402C306.062 363.016 305.481 363.959 303.691 363.508C301.725 363.018 298.293 363.245 298.293 363.245C298.293 363.245 301.825 361.296 303.691 361.296ZM285.876 361.296C284.01 361.298 283.506 361.796 283.506 362.408C283.506 363.018 284.067 363.9 285.876 363.512C287.87 363.086 291.274 363.247 291.274 363.247C291.274 363.247 287.745 361.302 285.876 361.296ZM309.962 354.673C309.962 354.673 312.547 357.605 312.009 360.705C311.487 363.715 306.269 365.042 306.269 365.042C306.269 365.042 309.892 362.743 310.331 359.951C310.534 358.646 309.962 354.673 309.962 354.673ZM278.08 351.657C278.08 351.657 276.194 355.762 276.741 358.26C277.73 362.773 283.164 364.578 283.164 364.578C283.164 364.578 279.773 361.48 278.567 358.745C277.252 355.762 278.08 351.657 278.08 351.657Z" fill="#C5796D"/>
<path d="M303.6 356.858C305.409 355.508 305.589 354.739 305.216 354.237C304.843 353.733 303.759 353.413 302.244 355.04C300.575 356.832 296.943 358.154 296.943 358.154C296.943 358.154 301.791 358.207 303.6 356.858Z" fill="#FFF4F3"/>
<path opacity="0.1" d="M165.234 617.192L186.166 187.721L409.665 190.182L411.836 620.915C411.836 620.915 188.958 619.934 165.234 617.192ZM373.387 611.809C364.402 510.896 375.827 432.204 385.037 368.783C390.206 333.179 394.723 302.078 394.481 274.66C389.096 277.657 347.998 278.691 347.998 278.691C317.251 283.645 294.329 279.511 293.377 279.619C289.178 253.487 288.511 249.417 287.602 243.502C284.778 267.304 286.85 272.463 284.7 275.808C278.613 277.319 236.388 275.454 234.265 275.306C222.66 279.617 215.124 270.658 207.938 272.677C203.739 275.865 196.528 276.213 194.409 275.685C192.242 318.317 199.536 350.434 207.243 384.373C226.31 468.338 225.037 492.149 218.912 606.57C218.914 606.57 350.816 611.078 373.387 611.809Z" fill="#2A232B"/>
<path d="M458.736 557.282C426.731 429.439 466.262 328.327 439.29 237.324C426.445 194.049 400.317 137.829 348.777 115.749C335.042 109.844 322.081 108.955 307.55 110.969C299.349 108.476 290.466 107.213 281.148 107.213C217.1 107.213 175.759 161.942 155.637 223.287C143.046 261.707 140.084 295.11 143.444 360.747C151.141 511.027 136.87 547.962 113.204 608.777C149.694 608.828 190.608 618.722 247.764 618.902C294.966 619.071 465.952 618.915 479.903 617.349C466.329 586.611 464.151 578.95 458.736 557.282ZM378.047 616.205C284.333 612.974 254.368 617.273 214.208 615.235C220.744 492.848 222.532 470.813 203.116 385.312C195.033 349.72 187.493 316.425 190.434 271.088C194.332 270.937 197.222 271.861 200.732 273.681V273.692C200.9 273.783 201.059 273.874 201.22 273.969C201.325 273.401 201.442 272.747 201.563 272.198L201.813 272.009L201.605 271.967C202.957 265.277 205.281 257.732 208.332 250.152L208.736 250.267C207.698 256.36 207.101 262.48 206.961 268.457L206.897 268.569C213.88 266.626 222.072 272.478 228.424 272.478C230.267 272.351 231.788 271.696 233.496 271.075C235.83 237.312 238.423 223.647 243.294 213.109L243.692 213.243C240.877 226.393 239.979 244.907 240.945 269.84L240.919 269.874C246.607 269.323 253.338 271.806 258.23 271.601C258.23 263.306 259.662 252.127 260.221 245.362L260.643 245.366C261.497 258.635 263.107 267.344 264.418 273.45C275.606 270.94 275.098 272.575 280.862 272.242C281.263 272.223 281.661 272.183 282.04 272.107L282.104 272.009L281.892 272.026C280.458 254.964 286.835 218.732 288.464 210.192L288.883 210.232C288.866 227.096 290.404 234.225 296.919 274.95C300.567 274.533 306.887 276.738 311.149 277.24C311.149 268.796 311.122 269.382 311.17 264.847H311.592C311.662 269.124 311.893 273.298 313.149 277.416C319.842 277.556 324.579 274.444 330.824 275.039C331.606 240.25 328.589 221.91 326.805 205.489L327.221 205.41C335.864 237.655 338.771 272.49 339.01 275.524C339.815 275.465 342.735 275.242 344.224 275.003C345.137 268.349 348.764 229.742 346.997 219.397L347.408 219.3C353.008 237.5 352.347 251.614 352.756 273.461C358.162 271.798 366.963 274.187 373.126 273.492C372.278 257.182 371.946 242.417 367.933 228.488L368.333 228.354C373.189 241.004 377.03 256.313 378.897 272.74L378.992 272.687C392.644 273.747 390.288 270.74 398.565 268.154C401.506 346.258 362.448 451.718 378.047 616.205Z" fill="#2A232B"/>
<path d="M464.951 617.963C436.831 618.412 383.124 617.374 378.045 616.207C371.853 550.913 374.285 494.949 379.272 446.276C386.82 372.596 400.235 315.666 398.576 268.664C398.901 265.524 404.587 267.825 405.985 266.344C396.451 204.377 375.872 165.319 343.5 139.422C479.901 235.043 374.395 420.205 392.632 493.593C395.752 454.661 420.198 346.593 426.124 325.431C415.531 401.699 390.108 490.678 432.48 562.709C426.906 531.128 426.221 497.917 426.137 465.931C427.77 519.137 447.833 568.033 464.951 617.963ZM207.224 253.07C207.593 252.097 207.936 251.127 208.33 250.152L208.735 250.267C207.697 256.36 207.099 262.48 206.959 268.457L206.896 268.569C208.652 268.082 210.485 268.086 212.345 268.365C213.319 241.858 218.366 214.662 233.337 194.078C215.097 209.001 211.135 231.714 207.224 253.07ZM296.894 179.248C287.742 196.029 286.276 215.005 284.592 233.808C286.085 223.217 287.74 213.982 288.464 210.194L288.884 210.234C288.867 227.098 290.405 234.227 296.92 274.952C298.15 274.812 299.695 274.982 301.352 275.27C293.896 243.955 289.068 212.506 296.894 179.248ZM309.832 277.026C310.277 277.102 310.739 277.191 311.15 277.24C311.15 268.796 311.122 269.382 311.171 264.847H311.593C311.663 269.124 311.893 273.297 313.15 277.416C313.832 277.431 314.48 277.391 315.126 277.346C313.86 263.531 313.843 250.737 313.843 236.449C309.777 250.676 311.552 262.957 309.832 277.026ZM330.096 275.014C330.342 275.026 330.577 275.014 330.827 275.039C331.609 240.25 328.592 221.91 326.808 205.489L327.223 205.41C335.867 237.655 338.774 272.49 339.013 275.524C339.594 275.482 341.282 275.352 342.735 275.194C340.312 241.138 335.13 207.438 318.08 177.128C326.062 209.059 326.528 242.867 330.096 275.014ZM370.999 273.617C371.734 273.605 372.45 273.573 373.128 273.495C372.281 257.184 371.948 242.42 367.936 228.49L368.336 228.357C373.192 241.006 377.033 256.315 378.899 272.742L378.995 272.689C380.651 272.819 382.064 272.884 383.297 272.901C380.971 244.941 369.448 218.662 356.212 194.078C364.372 220.59 370.55 247.104 370.999 273.617ZM347.4 233.058C347.562 227.208 347.483 222.236 347 219.397L347.411 219.3C353.01 237.5 352.349 251.614 352.758 273.461C353.934 273.1 355.286 272.954 356.72 272.901C356.89 245.964 352.496 219.255 343.502 194.074C344.888 206.561 347.17 219.948 347.4 233.058ZM265.116 219.501C257.105 235.522 258.552 253.436 255.156 271.45C256.235 271.573 257.269 271.639 258.228 271.598C258.228 263.304 259.66 252.125 260.22 245.36L260.641 245.364C261.495 258.633 263.105 267.342 264.417 273.448C265.777 273.143 266.959 272.901 268.005 272.706C264.311 255.656 261.33 238.424 265.116 219.501ZM250.286 198.315C232.435 218.149 233.153 247.269 231.579 271.766C232.208 271.548 232.837 271.315 233.494 271.075C235.829 237.312 238.422 223.647 243.293 213.109L243.691 213.243C240.875 226.393 239.977 244.907 240.943 269.84L240.918 269.874C242.502 269.721 244.167 269.812 245.852 270.007C244.875 245.424 240.824 221.024 250.286 198.315ZM254.523 149.589C201.241 184.513 171.899 249.161 180.373 308.48C190.966 386.867 203.678 463.135 193.085 541.522C199.441 475.846 188.848 410.171 176.136 344.496C186.729 416.527 186.729 488.558 167.662 558.47C174.393 523.13 167.762 489.13 164.747 454.341C165.046 507.58 152.161 560.288 133.295 609.379C168.355 611.171 210.453 616.3 214.207 615.239C220.743 492.852 222.531 470.817 203.114 385.316C195.032 349.724 187.492 316.429 190.432 271.092C190.432 271.09 195.006 209.105 254.523 149.589Z" fill="#1B141C"/>
<path d="M219.93 202.586C240.942 164.711 253.208 154.612 283.402 137.54C283.775 137.32 281.914 138.47 278.853 140.358C249.386 158.495 235.577 176.666 219.93 202.586ZM370.496 191.983C389.908 230.501 391.204 256.932 389.615 244.322C387.921 233.75 386.609 221.325 376.243 197.296C364.869 172.348 346.431 147.443 322.68 132.805C335.952 141.811 351.888 155.957 370.496 191.983ZM276.824 206.014C272.881 233.82 273.648 255.525 273.673 253.83C273.8 232.653 278.514 203.62 283.781 182.846C289.444 162.51 295.643 151.449 297.539 147.368C289.283 162.866 280.366 182.78 276.824 206.014ZM319.021 238.968C319.163 242.21 319.269 244.176 319.252 243.786C318.061 230.996 322.993 208.527 307.612 161.777C313.979 184.142 317.743 203.18 319.021 238.968ZM358.892 248.775C359.589 253.258 360.051 255.978 359.971 255.438C357.454 240.193 357.979 212.838 343.435 181.365C334.427 161.957 324.661 152.529 320.834 148.089C335.137 165.588 348.77 183.541 358.892 248.775ZM250.926 242.195C252.058 224.363 253.305 221.808 254.475 216.421C262.011 186.504 266.909 176.899 276.04 161.669C248.231 204.233 250.926 242.195 250.926 242.195ZM162.375 247.616C162.324 248.614 162.341 253.574 162.358 252.741C163.595 210.275 213.807 136.822 247.799 124.395C214.936 134.947 166.254 195.913 162.375 247.616ZM163.822 332.308C165.277 344.199 167.245 353.43 167.076 352.375C159.025 314.412 169.411 228.295 193.643 197.572C176.018 218.745 157.862 273.971 163.822 332.308ZM155.494 448.769C154.017 457.235 154.193 456.095 155.144 451.71C163.246 412.802 155.593 344.392 152.322 311.11C152.324 308.978 158.498 415.065 155.494 448.769ZM390.457 162.13C395.27 168.906 406.1 182.25 417.797 211.556C426.728 233.905 414.112 199.949 409.661 190.182C393.185 152.004 370.637 133.733 333.061 119.607C365.725 133.666 375.387 143.701 390.457 162.13ZM422.627 326.768C420.14 350.894 425.152 310.586 425.675 305.339C430.457 263.037 422.688 234.456 407.132 207.383C420.343 232.852 428.942 257.794 422.627 326.768ZM435.881 478.747C437.368 486.035 438.376 490.424 438.192 489.551C428.131 437.778 437.128 304.8 437.192 299.968C436.597 313.084 422.169 415.97 435.881 478.747Z" fill="#3A353A"/>
<path d="M458.94 557.231C426.844 429.016 466.567 328.617 439.491 237.265C424.532 186.865 396.781 136.083 348.86 115.554C334.369 109.325 320.958 108.859 307.611 110.766C292.207 106.084 272.74 105.364 252.929 110.914C201.406 125.299 171.153 175.297 155.433 223.219C143.548 259.489 139.692 291.648 143.23 360.756C150.794 508.402 137.309 546.248 112.893 608.987C149.457 608.987 190.43 618.932 247.76 619.112C294.701 619.29 468.509 619.118 480.208 617.523C466.679 586.891 464.423 579.16 458.94 557.231ZM351.995 615.235C292.19 613.434 253.842 616.739 215.073 615.067C214.859 615.057 214.645 615.04 214.431 615.031C215.672 591.75 218.293 560.557 218.886 506.892C219.844 403.296 184.892 360.495 190.633 271.291C191.114 271.274 191.601 271.245 192.067 271.266C192.597 271.287 193.105 271.351 193.593 271.435C196.177 271.795 198.465 272.728 200.52 273.808C200.52 273.872 200.52 273.935 200.499 273.978C200.542 273.935 200.563 273.893 200.584 273.85C200.859 273.999 201.114 274.147 201.389 274.317C201.389 274.211 201.41 274.105 201.431 273.999C201.537 273.427 201.643 272.834 201.77 272.24C201.77 272.156 201.791 272.092 201.813 272.007C203.211 265.08 205.605 257.495 208.528 250.229C207.384 256.944 206.876 263.046 206.749 268.448C206.749 268.575 206.728 268.702 206.749 268.829C207.257 268.681 207.766 268.554 208.274 268.491C214.905 267.558 222.575 272.77 228.57 272.685C229.989 272.579 231.345 272.092 232.701 271.605C233.04 271.456 233.358 271.351 233.697 271.223C234.354 261.669 235.434 251.627 235.921 246.669C237.044 235.25 238.697 223.556 243.485 213.196C241.175 223.98 239.608 240.843 240.731 269.846C240.731 269.931 240.752 270.016 240.752 270.101C241.175 270.058 241.62 270.016 242.065 270.016C243.802 269.952 245.603 270.143 247.404 270.418C247.616 270.44 247.828 270.482 248.018 270.503C251.26 271.033 254.522 271.774 257.7 271.817C257.954 271.817 258.187 271.817 258.442 271.795C258.442 271.711 258.442 271.647 258.442 271.562C258.463 267.219 258.823 261.52 259.692 253.067C259.988 250.504 260.221 247.941 260.433 245.377C261.259 258.216 262.764 266.753 264.225 273.554C264.225 273.596 264.246 273.66 264.246 273.702C264.543 273.639 264.819 273.575 265.073 273.511C269.162 272.473 269.352 272.262 274.712 272.283C277.17 272.283 279.076 272.558 280.877 272.452C281.301 272.431 281.725 272.389 282.127 272.304C282.127 272.198 282.106 272.092 282.106 272.007C281.746 267.728 281.597 263.766 281.725 261.118C282.021 254.55 285.03 229.34 288.673 210.23C288.652 231.267 292.063 243.428 294.817 263.067C295.368 267.008 295.919 270.927 296.682 274.783C296.703 274.91 296.724 275.037 296.743 275.185C297.021 275.143 297.317 275.122 297.612 275.122C301.51 275.058 306.086 276.711 310.556 277.367C310.831 277.41 311.107 277.452 311.361 277.473C311.361 277.155 311.361 276.859 311.361 276.562C311.361 274.338 311.361 272.579 311.361 271.817C311.34 269.126 311.361 266.817 311.382 264.847C311.467 270.122 311.785 273.088 312.717 276.668C312.802 276.965 312.886 277.283 312.994 277.621C313.331 277.621 313.67 277.643 313.99 277.643C314.306 277.621 314.605 277.621 314.901 277.6C318.693 277.367 322.316 276.075 326.045 275.439C327.358 275.206 328.587 275.122 329.752 275.185C330.176 275.185 330.6 275.228 331.026 275.27C331.047 275.1 331.047 274.91 331.026 274.74C331.087 271.435 331.087 267.537 331.047 262.876C330.771 232.517 329.776 230.865 327.021 205.463C336.121 239.409 338.822 275.749 338.822 275.749C338.822 275.749 342.733 275.478 344.419 275.185C345.347 268.613 348.978 229.706 347.211 219.361C352.783 237.475 352.148 251.563 352.552 273.554C352.573 273.617 352.573 273.681 352.573 273.745C352.955 273.617 353.334 273.511 353.717 273.448C359.374 272.283 366.344 274.253 372.784 273.745C372.975 273.723 373.166 273.702 373.356 273.681C373.356 273.617 373.335 273.554 373.335 273.469C372.488 255.843 371.979 241.733 368.145 228.429C372.765 240.462 376.788 255.97 378.632 272.198C378.632 272.24 378.653 272.283 378.653 272.346C378.653 272.452 378.676 272.558 378.676 272.664C378.697 272.728 378.697 272.791 378.718 272.876C378.888 272.897 379.057 272.897 379.248 272.918C381.854 273.151 384.481 273.321 386.981 273.024C391.205 272.501 394.423 269.673 398.377 268.438C399.79 301.345 390.659 359.105 387.108 382.846C385.33 395.043 383.568 406.678 382.227 417.167C372.109 495.074 373.229 567.699 377.82 615.985C369.869 615.764 361.293 615.516 351.995 615.235ZM424.725 617.122C420.912 602.102 416.971 585.874 415.7 579.963C405.573 533.185 401.548 457.722 410.721 411.135C401.165 452.661 398.961 524.965 413.601 582.611C415.613 590.534 419.236 603.352 423.433 617.101C411.503 616.87 396.949 616.519 379.066 616.021C376.96 587.666 375.157 544.363 378.426 496.49C383.203 419.232 401.546 313.919 399.103 268.243C399.684 268.084 400.266 267.925 400.87 267.813C401.379 267.707 401.887 267.622 402.395 267.537C404.429 267.219 406.505 267.008 408.539 266.732C408.794 266.69 409.069 266.647 409.323 266.605C409.279 266.414 409.26 266.224 409.26 266.012C407.692 251.33 403.201 219.065 389.197 190.93C386.803 186.1 384.282 181.164 380.977 176.884C374.536 168.601 352.715 142.797 343.118 139.364C354.58 145.614 371.634 167.435 379.324 178.176C387.587 189.892 403.73 230.823 408.052 263.088C408.181 264.084 408.33 265.101 408.455 266.097C406.4 266.266 404.302 266.308 402.247 266.584C401.739 266.647 401.249 266.711 400.764 266.817C399.874 266.986 399.006 267.198 398.158 267.495C394.07 268.935 390.851 272.092 386.422 272.579C384.072 272.855 381.634 272.791 379.221 272.685C379.221 272.495 379.199 272.304 379.176 272.113C379.199 272.092 379.24 272.092 379.261 272.071C379.24 272.071 379.199 272.071 379.176 272.092C378.585 262.474 377.502 253.449 375.045 243.746C373.818 238.937 369.388 227.136 364.24 217.793C363.393 216.268 362.545 214.827 361.677 213.472C362.312 214.891 362.927 216.332 363.478 217.815C368.607 231.14 370.407 247.602 372.759 273.49C366.848 273.533 359.603 271.732 353.734 273.215C354.222 254.317 354.582 237.793 347.146 217.56C346.955 216.988 346.745 216.438 346.531 215.866C346.531 216.332 346.531 216.777 346.531 217.243C346.569 239.96 345.588 256.646 343.69 275.079C343.686 275.079 339.733 275.52 339.733 275.52C339.137 262.34 337.941 244.953 336.131 235.208C333.335 220.187 329.922 208.62 326.344 199.108C325.729 197.413 325.115 195.824 324.479 194.277C324.522 195.273 324.585 196.269 324.649 197.265C324.691 197.9 324.731 198.515 324.776 199.15C327.678 239.89 329.119 262.092 329.712 274.656C328.801 274.613 327.784 274.634 326.64 274.761C322.551 275.185 318.568 276.266 314.458 276.647C314.247 276.668 314.035 276.689 313.802 276.668C312.444 269.486 312.084 263.215 311.853 256.182C311.829 256.161 311.829 256.118 311.853 256.097C311.829 255.694 311.808 255.313 311.808 254.911C311.639 255.737 311.49 256.584 311.363 257.41C310.601 262.092 310.283 266.859 310.367 271.668C310.389 272.495 310.452 274.253 310.537 276.456C306.361 275.884 301.595 274.338 297.55 274.677C296.682 268.724 296.404 263.766 296.277 262.41C295.218 251.373 291.002 224.785 290.62 200.993C290.599 199.235 290.599 197.498 290.62 195.782C290.557 195.951 290.493 196.142 290.43 196.332C289.921 197.879 289.392 199.553 288.883 201.375C283.735 219.319 278.672 249.741 280.833 272.071C277.485 272.113 276.193 270.503 265.028 273.342C263.63 263.936 262.126 252.75 261.151 237.517C261.045 236.077 260.961 234.572 260.897 233.047C260.622 234.509 260.325 235.992 260.05 237.538C258.249 247.538 256.724 259.084 257.677 271.52C253.503 271.329 250.537 270.715 248.059 270.249C247.868 270.207 247.656 270.164 247.465 270.122C245.538 269.762 243.864 269.507 242.063 269.656C242.148 250.186 243.122 219.997 244.796 211.438C244.902 210.929 245.008 210.421 245.114 209.912C245.199 209.51 245.283 209.107 245.389 208.705C244.881 209.489 244.415 210.251 243.97 211.056C243.97 211.056 243.97 211.056 243.97 211.078C237.89 221.819 235.496 234.572 234.055 246.796C233.504 251.351 232.847 261.605 232.699 271.499C231.301 271.88 229.903 272.219 228.504 272.262C223.483 272.643 217.509 266.69 208.314 268.109C208.865 262.58 209.776 255.631 211.259 246.691C211.535 245.059 211.831 243.428 212.17 241.818C212.424 240.631 212.679 239.445 212.954 238.259C216.196 224.467 221.534 211.374 228.398 198.938C218.145 215.76 212.552 231.267 209.628 244.699C205.179 253.957 201.811 264.084 200.561 273.469C198.527 272.24 196.218 271.202 193.612 270.842C193.124 270.736 192.637 270.694 192.129 270.694C190.709 270.588 189.205 270.715 187.595 271.118C189.841 260.504 193.548 248.407 197.595 236.882C197.701 236.585 197.806 236.31 197.891 236.013C202.785 222.221 208.081 209.362 211.916 201.078C220.496 182.519 231.788 171.588 249.287 152.563C232.678 169.151 219.013 181.418 210.497 198.112C205.539 207.836 200.412 217.709 197.065 228.132C194.268 236.903 188.612 255.25 186.091 271.541C186.048 271.711 186.027 271.88 186.006 272.029C186.515 271.859 187.002 271.753 187.489 271.647C188.514 271.433 189.478 271.34 190.421 271.295C186.807 315.94 192.595 354.756 207.308 417.097C207.308 417.097 210.113 431.526 211.55 442.534C216.227 483.107 215.126 504.127 214.717 577.171C214.736 588.759 213.74 602.568 213.204 614.964C200.656 614.343 188.161 613.205 175.668 611.995C177.595 606.085 179.756 600.153 181.451 594.877C191.557 563.544 198.294 491.174 184.057 411.768C193.019 472.806 190.879 536.003 182.468 583.946C181.049 592.039 177.511 602.165 174.757 611.911C160.986 610.576 147.237 609.218 133.424 608.5C126.665 608.14 120.373 607.991 114.187 607.885C148.868 524.393 153.296 485.433 148.656 343.998C147.215 299.805 145.69 258.112 166.388 204.999C200.645 117.101 263.905 99.3047 305.874 111.041C306.274 111.126 306.679 111.253 307.082 111.359C307.654 111.296 308.226 111.211 308.798 111.147C328.352 108.817 344.644 111.91 365.151 126.253C415.192 161.251 439.746 228.346 443.262 289.318C446.758 349.866 434.513 426.007 445.339 502.974C449.11 529.753 456.016 555.83 464.088 581.615C465.02 584.814 472.202 601.403 478.833 616.633C471.333 617.398 459.3 617.779 424.725 617.122Z" fill="black"/>
<path opacity="0.2" d="M398.033 291.273C397.885 302.226 393.034 313.773 386.805 323.009C380.746 331.992 364.963 335.191 353.289 335.191C343.756 335.191 335.26 333.242 329.943 329.831C319.922 323.391 309.16 307.353 306.787 292.057C328.333 279.113 372.759 279.113 398.033 291.273ZM191.516 289.79C191.22 301.188 196.241 313.37 202.745 323.009C208.804 331.992 224.587 335.191 236.26 335.191C245.794 335.191 254.289 333.242 259.607 329.831C269.331 323.581 279.733 308.307 282.508 293.434C259.607 280.003 215.541 278.541 191.516 289.79Z" fill="white"/>
<path opacity="0.4" d="M398.034 291.273C372.759 279.134 328.333 279.113 306.808 292.036C306.448 289.706 306.279 287.396 306.321 285.13C306.787 267.652 331.786 261.444 353.057 261.444C368.056 261.444 385.767 264.558 391.487 271.486C396.275 277.312 398.139 284.155 398.034 291.273ZM236.494 261.444C221.494 261.444 203.783 264.558 198.063 271.486C193.614 276.888 191.686 283.202 191.517 289.79C215.562 278.541 259.607 280.003 282.487 293.413C283.017 290.617 283.292 287.841 283.208 285.13C282.742 267.652 257.743 261.444 236.494 261.444Z" fill="white"/>
<path d="M410.193 267.715C408.922 262.609 350.853 252.292 320.706 262.652C313.418 265.152 308.376 267.376 305.367 270.533V270.49C304.308 272.355 301.66 272.99 299.774 272.291C296.385 270.999 292.953 271.062 289.775 272.291C287.91 273.011 285.241 272.355 284.182 270.49V270.533C281.173 267.376 276.152 265.173 268.843 262.652C238.696 252.292 180.627 262.63 179.356 267.715C178.868 269.728 178.212 280.553 178.254 284.43C178.296 288.307 180.711 288.011 184.334 289.706C185.732 290.362 188.656 295.362 188.931 297.417C190.266 307.035 194.101 315.955 200.075 324.81C210.286 339.937 246.069 342.331 261.323 332.522C271.873 325.742 282.805 309.79 285.707 293.922C286.279 290.765 286.809 288.307 287.211 286.189L287.232 286.295C287.995 283.689 291.406 282.418 294.796 282.354C298.185 282.418 301.596 283.689 302.359 286.295L302.38 286.189C302.761 288.307 303.312 290.765 303.884 293.922C306.787 309.79 317.718 325.742 328.269 332.522C343.523 342.331 379.305 339.937 389.516 324.81C395.491 315.955 399.325 307.035 400.66 297.417C400.935 295.341 403.859 290.341 405.257 289.706C408.88 288.011 411.316 288.329 411.338 284.43C411.338 280.553 410.681 269.706 410.193 267.715ZM259.013 328.92C245.497 337.606 212.363 335.361 203.613 322.416C193.656 307.629 187.046 286.528 198.867 272.164C210.265 258.33 281.364 256.656 282.148 285.151C282.614 301.887 270.326 321.653 259.013 328.92ZM385.936 322.416C377.186 335.382 344.052 337.606 330.536 328.92C319.223 321.653 306.935 301.887 307.401 285.151C308.185 256.656 379.284 258.33 390.682 272.164C402.503 286.507 395.893 307.629 385.936 322.416Z" fill="#26120B"/>
<path d="M179.037 270.003C179.143 268.944 179.249 268.118 179.355 267.694C180.626 262.588 238.696 252.271 268.843 262.631C276.131 265.13 281.173 267.355 284.181 270.512V270.469C284.181 270.448 237.573 245.852 179.037 270.003ZM409.006 288.138C410.426 287.502 411.273 286.655 411.294 284.388C411.337 280.532 410.68 269.685 410.193 267.673C408.922 262.567 350.852 252.25 320.705 262.609C313.756 265.003 308.862 267.143 305.812 270.067C321.743 257.461 386.677 254.94 404.091 272.228C407.693 275.829 408.837 282.651 409.006 288.138Z" fill="#351D15"/>
</g>
<defs>
<linearGradient id="paint0_linear" x1="300" y1="-75" x2="300" y2="675" gradientUnits="userSpaceOnUse">
<stop stop-color="#151371"/>
<stop offset="0.453125" stop-color="#FF00B8"/>
<stop offset="0.96875" stop-color="#FFC700"/>
</linearGradient>
<linearGradient id="paint1_linear" x1="439" y1="245" x2="439" y2="644" gradientUnits="userSpaceOnUse">
<stop stop-color="#FF00B8"/>
<stop offset="1" stop-color="#F0DB0A" stop-opacity="0"/>
</linearGradient>
<linearGradient id="paint2_linear" x1="194" y1="161" x2="194" y2="560" gradientUnits="userSpaceOnUse">
<stop stop-color="#FF00B8"/>
<stop offset="1" stop-color="#F0DB0A" stop-opacity="0"/>
</linearGradient>
<linearGradient id="paint3_linear" x1="294.733" y1="476.202" x2="294.733" y2="402.224" gradientUnits="userSpaceOnUse">
<stop stop-color="#E4B3AB" stop-opacity="0.8"/>
<stop offset="0.7" stop-color="#C5796D"/>
</linearGradient>
<linearGradient id="paint4_linear" x1="294.775" y1="412.074" x2="294.775" y2="405.718" gradientUnits="userSpaceOnUse">
<stop offset="0.1" stop-color="#EBC3BD"/>
<stop offset="1" stop-color="#E4B3AB"/>
</linearGradient>
<radialGradient id="paint5_radial" cx="0" cy="0" r="1" gradientUnits="userSpaceOnUse" gradientTransform="translate(239.565 299.857) rotate(175.001) scale(30.8507 30.7186)">
<stop stop-color="white"/>
<stop offset="0.544" stop-color="#FDFEFE"/>
<stop offset="0.74" stop-color="#F6F8F9"/>
<stop offset="0.879" stop-color="#EAEFF2"/>
<stop offset="0.992" stop-color="#D9E3E8"/>
<stop offset="1" stop-color="#D8E2E7"/>
</radialGradient>
<radialGradient id="paint6_radial" cx="0" cy="0" r="1" gradientUnits="userSpaceOnUse" gradientTransform="translate(246.237 294.497) rotate(6.98431) scale(36.0967 32.0203)">
<stop stop-color="#E4B3AB"/>
<stop offset="0.7" stop-color="#E4B3AB" stop-opacity="0.3"/>
<stop offset="1" stop-color="#F3D4CF" stop-opacity="0"/>
</radialGradient>
<radialGradient id="paint7_radial" cx="0" cy="0" r="1" gradientUnits="userSpaceOnUse" gradientTransform="translate(237.157 325.386) rotate(-8.04716) scale(40.1142 40.7601)">
<stop offset="0.9" stop-opacity="0"/>
<stop offset="1" stop-opacity="0.3"/>
</radialGradient>
<radialGradient id="paint8_radial" cx="0" cy="0" r="1" gradientUnits="userSpaceOnUse" gradientTransform="translate(349.985 299.857) rotate(4.99903) scale(30.8507 30.7186)">
<stop stop-color="white"/>
<stop offset="0.544" stop-color="#FDFEFE"/>
<stop offset="0.74" stop-color="#F6F8F9"/>
<stop offset="0.879" stop-color="#EAEFF2"/>
<stop offset="0.992" stop-color="#D9E3E8"/>
<stop offset="1" stop-color="#D8E2E7"/>
</radialGradient>
<radialGradient id="paint9_radial" cx="0" cy="0" r="1" gradientUnits="userSpaceOnUse" gradientTransform="translate(343.313 294.497) rotate(173.016) scale(36.0967 32.0203)">
<stop stop-color="#E4B3AB"/>
<stop offset="0.7" stop-color="#E4B3AB" stop-opacity="0.3"/>
<stop offset="1" stop-color="#F3D4CF" stop-opacity="0"/>
</radialGradient>
<radialGradient id="paint10_radial" cx="0" cy="0" r="1" gradientUnits="userSpaceOnUse" gradientTransform="translate(352.395 325.386) rotate(-171.953) scale(40.1142 40.7601)">
<stop offset="0.9" stop-opacity="0"/>
<stop offset="1" stop-opacity="0.3"/>
</radialGradient>
<radialGradient id="paint11_radial" cx="0" cy="0" r="1" gradientUnits="userSpaceOnUse" gradientTransform="translate(294.774 352.754) scale(84.7423)">
<stop stop-color="#FFF4F3" stop-opacity="0.5"/>
<stop offset="0.9" stop-color="#F3D4CF" stop-opacity="0"/>
</radialGradient>
<radialGradient id="paint12_radial" cx="0" cy="0" r="1" gradientUnits="userSpaceOnUse" gradientTransform="translate(294.774 234.115) scale(76.268)">
<stop stop-color="#FFF4F3" stop-opacity="0.5"/>
<stop offset="0.9" stop-color="#F3D4CF" stop-opacity="0"/>
</radialGradient>
<clipPath id="clip0">
<rect width="600" height="600" fill="white"/>
</clipPath>
</defs>
</svg>
