<svg width="600" height="600" viewBox="0 0 600 600" fill="none" xmlns="http://www.w3.org/2000/svg">
<g clip-path="url(#clip0)">
<path d="M675 675H-75V-75H675V675Z" fill="url(#paint0_linear)"/>
<path d="M360.996 403.874H308.184V356.576H360.996V403.874ZM414.113 320.069H340.054V380.225H414.113V320.069ZM377.082 441.95H442.881V362.639H377.082V441.95ZM400.757 434.192H334.59V491.191H400.757V434.192ZM580.44 284.416H490.23V387.501H580.44V284.416ZM478.458 331.108H456.605V356.576H478.458V331.108ZM544.531 252.277H456.605V304.426H544.531V252.277ZM442.881 270.468H395.532V335.958H442.881V270.468ZM334.59 275.32H308.184V303.213H334.59V275.32ZM299.325 320.069H258.501V382.71H299.325V320.069ZM347.338 441.95H275.708V521.511H347.338V441.95ZM308.184 576.086H388.617V528.788H308.184V576.086ZM500.311 557.894H443.791V599.129H500.313V557.894H500.311ZM637.361 516.659H585.062V578.511H637.361V516.659ZM551.302 544.718H506.381V585.953H551.302V544.718ZM594.357 463.296H528.843V537.278H594.357V463.296ZM610.791 590.639H528.843V644H610.791V590.639ZM340.054 557.894H251.187V637.937H340.052V557.894H340.054ZM630.216 356.576H569.818V403.874H630.216V356.576ZM594.357 424.49H568.208V451.477H594.357V424.49ZM251.187 474.697H300.975V404.294H251.187V474.697ZM321.764 249.852L232 252.277V320.069H321.764V249.852ZM646 252.277H587.725V326.256H646V252.277ZM371.858 245H347.338V298.361H371.858V245ZM641.143 437.983H581.281V486.494H641.143V437.983Z" fill="url(#paint1_linear)" stroke="#FFC700" stroke-width="1.5"/>
<path d="M115.996 319.874H63.1843V272.576H115.996V319.874ZM169.113 236.069H95.0537V296.225H169.113V236.069ZM132.082 357.95H197.881V278.639H132.082V357.95ZM155.757 350.192H89.5904V407.191H155.757V350.192ZM335.44 200.416H245.23V303.501H335.44V200.416ZM233.458 247.108H211.605V272.576H233.458V247.108ZM299.531 168.277H211.605V220.426H299.531V168.277ZM197.881 186.468H150.532V251.958H197.881V186.468ZM89.5904 191.32H63.1843V219.213H89.5904V191.32ZM54.3246 236.069H13.5008V298.71H54.3246V236.069ZM102.338 357.95H30.7084V437.511H102.338V357.95ZM63.1843 492.086H143.617V444.788H63.1843V492.086ZM255.311 473.894H198.791V515.129H255.313V473.894H255.311ZM392.361 432.659H340.062V494.511H392.361V432.659ZM306.302 460.718H261.381V501.953H306.302V460.718ZM349.357 379.296H283.843V453.278H349.357V379.296ZM365.791 506.639H283.843V560H365.791V506.639ZM95.0537 473.894H6.18721V553.937H95.0519V473.894H95.0537ZM385.216 272.576H324.818V319.874H385.216V272.576ZM349.357 340.49H323.208V367.477H349.357V340.49ZM6.18721 390.697H55.9745V320.294H6.18721V390.697ZM76.7643 165.852L-13 168.277V236.069H76.7643V165.852ZM401 168.277H342.725V242.256H401V168.277ZM126.858 161H102.338V214.361H126.858V161ZM396.143 353.983H336.281V402.494H396.143V353.983Z" fill="url(#paint2_linear)" stroke="#FFC700" stroke-width="1.5"/>
<rect x="504" y="328.706" width="8.86149" height="25.1423" fill="white"/>
<rect x="521.753" y="328.857" width="8.83104" height="25.1423" fill="white"/>
<rect x="512.861" y="320" width="8.89195" height="8.85765" fill="white"/>
<rect x="539.416" y="328.857" width="8.89195" height="25.1423" fill="white"/>
<rect x="530.584" y="320" width="8.83105" height="8.85765" fill="white"/>
<rect x="548.307" y="320" width="8.86149" height="8.85765" fill="white"/>
<rect x="557.169" y="327.792" width="8.83104" height="8.85766" fill="white"/>
<rect x="548.307" y="336.65" width="8.86149" height="8.82721" fill="white"/>
<rect x="40" y="390.425" width="7.57515" height="21.4449" fill="white"/>
<rect x="55.1763" y="390.555" width="7.54912" height="21.4449" fill="white"/>
<rect x="47.5752" y="383" width="7.60118" height="7.55506" fill="white"/>
<rect x="70.2747" y="390.555" width="7.60118" height="21.4449" fill="white"/>
<rect x="62.7253" y="383" width="7.54912" height="7.55506" fill="white"/>
<rect x="77.8757" y="383" width="7.57515" height="7.55506" fill="white"/>
<rect x="85.4509" y="389.646" width="7.54912" height="7.55506" fill="white"/>
<rect x="77.8757" y="397.202" width="7.57515" height="7.52909" fill="white"/>
<path d="M296.553 340.7H294.034V338.182H296.553V340.7Z" fill="#2A232B"/>
<path d="M535.574 590.704C530.044 578.752 514.938 561.042 498.154 556.149C477.406 550.098 430.572 542.782 413.207 538.715C399.286 535.452 371.248 510.275 361.422 501.823C359.659 500.312 358.216 497.192 358.181 494.873C357.831 467.515 368.745 394.839 368.745 394.839H295.294H221.845C221.845 394.839 232.759 467.513 232.404 494.873C232.376 497.192 230.925 500.312 229.168 501.823C219.342 510.275 191.304 535.452 177.383 538.715C160.015 542.782 113.181 550.347 92.4359 556.398C75.647 561.289 60.5452 578.75 55.0152 590.701C45.6776 610.867 43.4717 647.361 43.4717 678.839H295.294H547.115C547.115 647.364 544.907 610.87 535.574 590.704Z" fill="#F0C7B1"/>
<path d="M444.261 551.118C505.56 560.037 531.356 573.046 539.435 678.844H547.115C547.115 647.366 544.907 610.872 535.574 590.706C530.044 578.755 514.938 561.044 498.154 556.151C477.406 550.1 430.572 542.785 413.207 538.718C399.286 535.454 367.269 508.325 358.705 497.545C367.166 509.391 390.915 536.842 411.723 544.031C421.678 547.471 429.968 549.037 444.261 551.118ZM178.866 544.031C199.674 536.844 223.421 509.391 231.885 497.545C223.323 508.323 191.306 535.454 177.383 538.718C160.017 542.785 113.183 550.349 92.4358 556.401C75.6519 561.291 60.5451 578.752 55.0151 590.704C45.6826 610.87 43.4741 647.364 43.4741 678.842H51.1547C59.1828 573.721 85.0877 560.024 146.328 551.115C160.619 549.037 168.912 547.471 178.866 544.031Z" fill="#FFE4D6"/>
<path d="M284.329 585.27C284.329 585.27 271.552 581.218 266.493 579.279C240.18 569.183 154.696 562.641 154.696 562.641C154.696 562.641 244.733 566.214 264.601 569.639C263.448 557.635 257.004 519.265 257.004 519.265C257.004 519.265 269.97 561.609 273.143 572.291C274.841 578.002 284.329 585.27 284.329 585.27ZM311.523 581.89C311.299 582.074 311.042 582.313 310.763 582.565C311.047 582.351 311.304 582.127 311.523 581.89ZM284.329 585.27C284.329 585.27 291.614 592.804 295.276 592.9C300.086 593.028 307.434 585.6 310.765 582.565C307.58 584.975 300.292 586.068 297.394 586.181C294.044 586.31 284.329 585.27 284.329 585.27ZM337.257 566.335C333.366 566.96 326.212 568.322 326.212 568.322L331.971 530.826C330.345 538.559 320.705 571.649 311.523 581.89C316.333 577.821 327.031 575.869 332.485 575.081C358.262 571.344 358.251 571.346 435.888 562.641C435.888 562.641 362.681 562.251 337.257 566.335Z" fill="#E1AC8F"/>
<path d="M535.574 590.704C530.044 578.752 514.938 561.042 498.154 556.149C477.406 550.098 430.572 542.782 413.207 538.715C399.286 535.452 371.248 510.275 361.422 501.823C359.659 500.312 358.216 497.192 358.181 494.873C357.831 467.515 368.745 394.839 368.745 394.839H295.294H221.845C221.845 394.839 232.759 467.513 232.404 494.873C232.376 497.192 230.925 500.312 229.168 501.823C219.342 510.275 191.304 535.452 177.383 538.715C160.015 542.782 113.181 550.347 92.4359 556.398C75.647 561.289 60.5452 578.75 55.0152 590.701C45.6776 610.867 43.4717 647.361 43.4717 678.839H295.294H547.115C547.115 647.364 544.907 610.87 535.574 590.704Z" stroke="#C27B55" stroke-width="4.5"/>
<path d="M232.552 500.572C249.167 509.572 269.885 515.394 295.551 515.379C321.194 515.394 341.715 509.63 358.101 500.7C357.023 498.905 356.318 496.764 356.287 494.898C355.97 470.026 364.711 409.226 366.552 396.73H224.036C225.874 409.228 234.617 470.026 234.295 494.896C234.272 496.681 233.59 498.791 232.552 500.572Z" fill="url(#paint3_linear)"/>
<path d="M325.024 681.637C276.837 681.637 220.631 681.451 153.198 681.06L93.5691 680.738C57.5636 680.542 55.4407 680.501 51.0439 680.501L38.7072 680.519C27.1964 575.068 74.9947 547.381 148.909 537.716C168.524 534.953 187.813 529.917 202.948 520.159C244.063 576.171 366.156 564.384 387.037 518.575C390.538 519.909 393.431 521.634 397.052 522.941C408.802 531.586 424.934 537.638 441.443 538.552C506.937 542.18 553.3 571.278 552.388 676.147C552.396 676.563 552.398 679.106 552.356 679.899C520.845 679.899 509.027 680.204 484.278 680.559C450.708 681.038 408.926 681.634 325.054 681.634C325.041 681.637 325.034 681.637 325.024 681.637Z" fill="#0087FF"/>
<path d="M549.772 678.494C548.74 659.897 539.538 607.838 523.683 583.958C492.251 536.603 417.263 553.221 399.958 534.367C387.402 559.949 337.066 576.157 320.398 578.536C368.7 562.52 388.986 550.939 397.002 523.463C413.131 544.44 500.435 528.426 534.791 584.734C544.852 601.22 554.418 653.698 549.772 678.494ZM184.016 534.926C187.433 534.133 189.138 531.781 192.53 530.861L188.939 526.099C166.152 543.858 80.8848 532.76 51.6483 586.627C42.4342 603.603 36.2192 644.013 41.092 678.389C42.4442 657.276 43.104 612.124 58.9587 588.242C87.475 545.281 139.476 556.63 178.874 538.444C196.458 560.1 223.92 570.747 251.862 575.152C216.806 566.008 196.705 550.569 184.016 534.926Z" fill="#1993FF"/>
<path d="M384.212 523.886C370.281 552.881 264.974 586.647 205.595 526.099C201.903 527.666 190.858 531.418 190.858 531.418C234.111 590.309 360.865 590.681 394.604 531.131C394.456 531.073 387.642 525.628 384.212 523.886Z" fill="#007FF0"/>
<path d="M386.906 518.24C363.202 565.638 239.85 572.344 203.046 519.831C189.606 523.805 176.683 532.274 163.671 534.392C85.8078 545.988 28.2464 551.815 38.4351 680.791C63.4662 680.791 21.7871 680.627 153.193 681.332C464.419 683.12 454.276 680.171 552.597 680.171C552.67 679.819 552.635 676.515 552.65 676.152C557.929 534.034 474.958 542.425 418.883 532.626C410.965 530.818 403.607 525.643 397.138 522.692C393.564 521.058 390.527 519.59 386.906 518.24ZM202.155 521.42C234.826 580.326 363.872 568.508 388.787 521.675C391.809 522.944 392.582 523.447 396.085 524.689C370.278 578.803 242.62 596.048 190.405 527.618C190.772 527.514 198.473 522.8 202.155 521.42ZM41.3436 678.842C35.247 612.283 45.8689 557.859 123.891 544.507C149.768 539.733 165.585 539.567 187.813 529.917C230.026 598.929 369.372 588.234 398.331 526.63C402.491 530.179 408.978 534.261 416.979 536.162C462.553 546.988 555.073 533.911 550.188 678.839C414.06 677.071 301.224 672.936 41.3436 678.842Z" fill="#006FD1"/>
<path d="M157.907 295.932C154.208 289.805 141.166 276.932 131.944 279.286C124.442 281.205 116.754 287.453 116.754 298.105C116.752 314.607 120.521 321.62 123.052 329.107C125.208 335.478 132.911 347.155 137.56 351.68C143.284 357.24 152.561 375.225 153.686 377.061C155.462 379.967 158.413 384.585 163.868 384.759C172.152 385.021 181.709 379.458 182.308 375.976C185.549 357.092 167.526 311.872 157.907 295.932Z" fill="#F0C7B1" stroke="#C27B55" stroke-width="4.5"/>
<path d="M153.256 337.139C152.898 335.734 153.274 333.375 153.639 331.096C153.969 329.015 154.281 327.054 154.092 325.664C153.374 320.466 149.328 310.585 146.683 305.228C143.641 299.069 136.316 291.308 130.144 289.308C127.593 288.48 125.911 289.469 124.939 290.474C124.223 291.212 124.065 292.078 124.299 292.182C124.533 292.285 125.065 291.567 125.835 290.89C126.465 290.336 127.389 289.862 128.661 289.96C128.149 292.549 120.758 300.592 125.183 316.13C127.253 323.402 130.199 329.26 130.728 330.103C130.809 330.99 130.937 331.856 131.128 332.7C133.624 343.672 149.476 361.76 153.251 365.844C153.949 366.6 154.679 367.046 154.86 366.867C155.041 366.686 154.608 365.94 153.913 365.177C150.186 361.12 134.437 343.075 132.03 332.488C127.613 313.093 136.855 312.765 143.359 301.078C144.359 302.733 145.205 304.322 145.86 305.646C146.371 306.686 146.94 307.903 147.525 309.215C146.371 311.051 134.785 324.463 137.731 335.195C138.822 339.154 147.248 344.256 150.506 345.653C152.299 346.424 152.971 347.575 153.752 348.904C154.656 350.448 155.684 355.945 158.663 357.209C159.269 357.469 159.816 357.577 160.302 357.577C161.143 357.577 161.78 357.255 162.251 356.872C162.299 357.544 162.296 358.413 162.271 359.214C162.244 360.249 162.387 361.098 162.641 361.118C162.896 361.138 163.165 360.319 163.198 359.287C163.238 358.018 163.233 356.446 163.004 355.696C162.337 353.48 160.294 350.984 158.134 348.34C156.006 345.744 153.807 339.307 153.256 337.139ZM130.642 327.411C124.795 310.187 133.143 295.319 134.455 292.952C136.742 294.934 141.158 297.588 142.8 300.179C134.959 313.765 131.133 304.314 130.642 327.411ZM159.018 356.356C156.318 355.21 155.414 349.922 154.54 348.431C153.75 347.081 152.931 345.689 150.861 344.797C150.41 344.603 149.914 344.309 149.406 343.971C139.683 329.471 150.138 322.249 151.992 320.897C152.561 322.745 152.989 324.44 153.175 325.797C153.347 327.046 153.029 329.031 152.725 330.947C152.347 333.324 151.954 335.782 152.36 337.376C152.964 339.746 155.23 346.263 157.421 348.945C159.365 351.324 161.36 353.777 162.042 355.777C161.752 356.174 160.831 357.124 159.018 356.356Z" fill="#C27B55"/>
<path d="M432.02 295.932C435.719 289.805 448.761 276.932 457.986 279.286C465.487 281.205 473.173 287.453 473.173 298.105C473.178 314.607 469.406 321.62 466.877 329.107C464.719 335.478 457.016 347.155 452.367 351.68C446.643 357.24 437.366 375.225 436.241 377.061C434.465 379.967 431.514 384.585 426.06 384.759C417.772 385.021 408.215 379.458 407.616 375.976C404.378 357.092 422.401 311.872 432.02 295.932Z" fill="#F0C7B1" stroke="#C27B55" stroke-width="4.5"/>
<path d="M431.794 348.345C429.635 350.989 427.593 353.485 426.923 355.701C426.697 356.451 426.692 358.023 426.732 359.292C426.767 360.322 427.032 361.14 427.288 361.123C427.545 361.105 427.686 360.254 427.656 359.219C427.631 358.421 427.631 357.549 427.681 356.877C428.15 357.26 428.787 357.582 429.628 357.582C430.114 357.582 430.66 357.474 431.265 357.214C434.246 355.95 435.274 350.45 436.178 348.909C436.961 347.58 437.628 346.429 439.424 345.658C442.68 344.261 451.106 339.159 452.196 335.2C455.143 324.467 443.554 311.055 442.403 309.22C442.987 307.905 443.554 306.691 444.065 305.651C444.72 304.327 445.566 302.738 446.568 301.083C453.07 312.77 462.312 313.098 457.895 332.493C455.485 343.08 439.741 361.125 436.014 365.182C435.322 365.945 434.888 366.69 435.065 366.872C435.246 367.048 435.974 366.605 436.674 365.849C440.451 361.765 456.303 343.676 458.796 332.705C458.988 331.863 459.121 330.995 459.199 330.108C459.726 329.267 462.672 323.407 464.742 316.135C469.169 300.597 461.776 292.554 461.264 289.965C462.533 289.867 463.458 290.341 464.092 290.895C464.86 291.572 465.397 292.287 465.626 292.186C465.863 292.083 465.699 291.217 464.986 290.479C464.012 289.474 462.329 288.485 459.779 289.313C453.606 291.313 446.283 299.074 443.239 305.233C440.597 310.587 436.551 320.469 435.833 325.669C435.646 327.059 435.956 329.02 436.286 331.1C436.651 333.382 437.024 335.742 436.669 337.144C436.122 339.307 433.924 345.744 431.794 348.345ZM447.13 300.179C448.771 297.588 453.188 294.934 455.472 292.952C456.784 295.317 465.132 310.184 459.29 327.411C458.796 304.314 454.969 313.765 447.13 300.179ZM427.883 355.774C428.565 353.774 430.562 351.322 432.506 348.942C434.695 346.26 436.963 339.743 437.568 337.373C437.971 335.782 437.583 333.324 437.203 330.944C436.898 329.028 436.578 327.041 436.749 325.795C436.936 324.437 437.364 322.742 437.936 320.894C439.784 322.246 450.242 329.469 440.517 343.969C440.011 344.306 439.514 344.601 439.061 344.795C436.991 345.686 436.175 347.081 435.382 348.428C434.511 349.919 433.607 355.207 430.907 356.353C429.099 357.124 428.175 356.174 427.883 355.774Z" fill="#C27B55"/>
<path d="M295.553 89.8029C210.886 89.6695 142.403 158.5 142.272 243.57C142.252 257.081 143.956 270.185 147.19 282.678H147.2C147.228 282.814 167.65 354.636 171.898 392.558C175.031 420.516 203.595 495.292 295.551 495.234C387.503 495.289 413.751 421.12 418.684 392.558C425.181 354.964 443.869 282.814 443.899 282.678H443.911C447.142 270.185 448.85 257.081 448.827 243.57C448.701 158.5 380.216 89.6695 295.553 89.8029Z" fill="#F0C7B1"/>
<path d="M385.584 119.082C415.201 147.273 433.992 189.136 434.05 235.947C434.07 249.457 432.534 262.562 429.615 275.055H429.603C429.575 275.191 412.688 347.343 406.813 384.935C402.353 413.499 378.636 487.666 295.548 487.61C212.457 487.663 186.645 412.89 183.817 384.935C179.974 347.013 161.523 275.189 161.498 275.055H161.488C158.562 262.562 157.025 249.457 157.043 235.947C157.109 189.134 175.902 147.268 205.519 119.077C167.244 147.011 142.347 192.332 142.269 243.572C142.249 257.083 143.953 270.187 147.187 282.68H147.197C147.225 282.816 167.647 354.638 171.896 392.56C175.028 420.518 203.592 495.294 295.548 495.236C387.5 495.291 413.748 421.122 418.681 392.56C425.178 354.966 443.866 282.816 443.896 282.68H443.909C447.139 270.187 448.847 257.083 448.824 243.572C448.751 192.334 423.856 147.016 385.584 119.082Z" fill="#E8B9A0"/>
<path d="M295.553 89.8029C210.886 89.6695 142.403 158.5 142.272 243.57C142.252 257.081 143.956 270.185 147.19 282.678H147.2C147.228 282.814 167.65 354.636 171.898 392.558C175.031 420.516 203.595 495.292 295.551 495.234C387.503 495.289 413.751 421.12 418.684 392.558C425.181 354.964 443.869 282.814 443.899 282.678H443.911C447.142 270.185 448.85 257.081 448.827 243.57C448.701 158.5 380.216 89.6695 295.553 89.8029Z" stroke="#C27B55" stroke-width="4.5"/>
<path d="M296.15 445.017C292.307 445.017 288.6 444.531 286.329 443.64C285.681 443.383 285.362 442.653 285.616 442.008C285.87 441.361 286.598 441.044 287.248 441.296C291.438 442.94 301.992 442.998 306.648 440.81C307.28 440.515 308.028 440.784 308.323 441.411C308.62 442.041 308.35 442.791 307.721 443.086C304.9 444.411 300.441 445.017 296.15 445.017ZM333.13 423.66C334.132 423.23 334.6 422.069 334.17 421.064C333.739 420.059 332.571 419.596 331.573 420.024C302.196 432.595 259.195 420.875 258.767 420.759C257.717 420.467 256.621 421.079 256.329 422.134C256.037 423.187 256.651 424.277 257.704 424.572C258.87 424.894 277.074 429.86 298.081 429.86C309.715 429.858 322.201 428.337 333.13 423.66Z" fill="#C27B55"/>
<path d="M242.066 312.32C231.212 314.221 222.786 314.108 215.151 311.806C207.277 309.432 197.05 299.656 193.504 290.414C202.86 289.716 222.084 288.911 231.001 290.026C242.806 291.502 254.858 296.085 261.987 303.212C261.947 303.952 261.854 304.68 261.768 305.407C256.012 309.303 247.865 311.303 242.066 312.32Z" fill="url(#paint4_radial)"/>
<path d="M245.025 303.778C242.836 311.816 234.544 316.553 226.488 314.345C218.437 312.139 213.685 303.824 215.876 295.783C218.065 287.737 226.372 283 234.423 285.211C242.466 287.415 247.218 295.73 245.025 303.778Z" fill="#4E60A3" stroke="#152975" stroke-width="1.5"/>
<path d="M242.675 303.964C240.537 310.139 234.095 313.737 227.82 312.02C222.028 310.431 218.372 304.873 218.848 298.998C220.996 298.83 223.348 298.779 225.788 298.898C225.763 298.981 225.72 299.054 225.697 299.139C224.927 301.972 226.722 304.944 229.706 305.762C232.7 306.583 235.752 304.941 236.523 302.108C236.621 301.738 236.674 301.368 236.687 301.003C238.734 301.748 240.744 302.713 242.675 303.964Z" fill="#6777B2"/>
<path opacity="0.9" d="M232.497 295.271C229.467 294.405 226.38 296.133 225.599 299.149C224.816 302.149 226.637 305.289 229.664 306.158C232.696 307.026 235.783 305.296 236.566 302.295C237.354 299.278 235.526 296.14 232.497 295.271ZM233.156 305.928C231.897 306.321 230.595 305.8 230.25 304.765C229.915 303.73 230.661 302.582 231.93 302.199C233.197 301.806 234.496 302.327 234.844 303.355C235.186 304.39 234.433 305.538 233.156 305.928Z" fill="black"/>
<path opacity="0.6" d="M222.418 307.734C221.487 308.293 220.097 307.792 219.301 306.608C218.505 305.435 218.623 304.03 219.558 303.468C220.484 302.917 221.887 303.415 222.678 304.591C223.464 305.767 223.35 307.177 222.418 307.734Z" fill="white"/>
<path opacity="0.8" d="M242.31 299.124C240.18 300.401 236.979 299.252 235.166 296.555C233.353 293.856 233.625 290.633 235.755 289.361C237.881 288.079 241.089 289.227 242.892 291.927C244.702 294.626 244.44 297.845 242.31 299.124Z" fill="white"/>
<path d="M183.988 301.67C183.988 336.442 204.285 364.623 229.316 364.623C254.347 364.623 274.644 336.442 274.644 301.67C274.644 266.896 254.347 238.712 229.316 238.712C204.285 238.712 183.988 266.896 183.988 301.67ZM193.507 290.414C202.862 289.716 222.086 288.911 231.003 290.026C243.473 291.585 256.286 296.574 263.206 304.405C257.442 308.988 248.356 311.217 242.066 312.32C231.212 314.221 222.786 314.108 215.151 311.806C207.279 309.432 197.053 299.656 193.507 290.414Z" fill="#F0C7B1"/>
<path d="M184.346 298.938C184.414 319.799 205.71 336.616 231.945 336.508C258.17 336.389 279.378 319.394 279.32 298.533C279.252 277.669 257.951 260.853 231.721 260.961C205.491 261.079 184.288 278.075 184.346 298.938ZM193.507 290.414C202.862 289.717 222.086 288.911 231.003 290.026C243.473 291.585 256.286 296.574 263.206 304.405C257.442 308.988 248.356 311.217 242.066 312.32C231.212 314.221 222.786 314.108 215.151 311.806C207.279 309.432 197.053 299.656 193.507 290.414Z" fill="url(#paint5_radial)"/>
<path d="M193.507 290.414C202.862 289.716 222.086 288.911 231.003 290.026C243.474 291.585 256.286 296.573 263.206 304.405C257.442 308.988 248.356 311.217 242.066 312.32C231.212 314.221 222.786 314.108 215.151 311.806C207.279 309.432 197.053 299.656 193.507 290.414Z" fill="url(#paint6_radial)"/>
<path d="M213.61 281.764C240.311 280.555 248.485 285.486 259.792 292.592C241.006 281.58 217.304 281.628 213.61 281.764ZM193.55 299.535C200.737 313.37 205.63 311.859 212.515 314.79C212.577 314.813 208.712 313.332 205.806 311.779C198.276 307.45 197.355 305.606 193.55 299.535Z" fill="#C27B55"/>
<path d="M190.707 288.991C197.901 304.08 202.696 313.987 226.798 314.352C245.138 314.626 256.498 312.931 266.042 305.855C257.492 292.776 246.515 288.804 231.869 287.326C217.014 285.825 190.707 288.991 190.707 288.991ZM195.836 291.159C204.567 290.509 222.504 289.756 230.827 290.796C242.464 292.249 254.42 296.906 260.879 304.213C255.498 308.492 247.019 310.569 241.152 311.599C231.026 313.375 223.159 313.269 216.037 311.121C208.687 308.907 199.145 299.784 195.836 291.159Z" fill="black"/>
<path d="M347.514 312.319C358.367 314.221 366.793 314.107 374.428 311.806C382.303 309.431 392.529 299.655 396.075 290.413C386.72 289.716 367.496 288.91 358.579 290.026C346.773 291.501 334.721 296.084 327.592 303.211C327.632 303.951 327.726 304.679 327.811 305.407C333.568 309.303 341.717 311.302 347.514 312.319Z" fill="url(#paint7_radial)"/>
<path d="M374.713 303.778C372.525 311.816 364.232 316.553 356.174 314.344C348.126 312.138 343.371 303.823 345.562 295.782C347.751 287.737 356.061 283 364.109 285.211C372.155 287.414 376.904 295.729 374.713 303.778Z" fill="#4E60A3" stroke="#152975" stroke-width="1.5"/>
<path d="M372.364 303.964C370.226 310.138 363.782 313.737 357.509 312.02C351.717 310.431 348.058 304.873 348.536 298.998C350.687 298.829 353.036 298.779 355.476 298.897C355.451 298.98 355.408 299.053 355.386 299.139C354.615 301.972 356.411 304.943 359.397 305.762C362.392 306.583 365.444 304.941 366.214 302.108C366.31 301.738 366.365 301.368 366.378 301.002C368.423 301.748 370.435 302.712 372.364 303.964Z" fill="#6777B2"/>
<path opacity="0.9" d="M362.185 295.271C359.158 294.405 356.068 296.132 355.29 299.149C354.504 302.148 356.328 305.288 359.352 306.157C362.384 307.026 365.474 305.296 366.257 302.294C367.04 299.277 365.214 296.14 362.185 295.271ZM362.845 305.928C361.586 306.321 360.281 305.8 359.939 304.765C359.604 303.73 360.349 302.581 361.618 302.198C362.885 301.806 364.184 302.327 364.532 303.354C364.874 304.389 364.121 305.538 362.845 305.928Z" fill="black"/>
<path opacity="0.6" d="M352.109 307.734C351.178 308.293 349.785 307.791 348.992 306.608C348.196 305.434 348.312 304.029 349.249 303.468C350.173 302.916 351.581 303.415 352.369 304.591C353.155 305.767 353.039 307.177 352.109 307.734Z" fill="white"/>
<path opacity="0.8" d="M371.998 299.124C369.868 300.4 366.67 299.252 364.854 296.555C363.041 293.855 363.313 290.632 365.443 289.36C367.571 288.079 370.774 289.227 372.58 291.926C374.391 294.626 374.131 297.844 371.998 299.124Z" fill="white"/>
<path d="M360.266 238.712C335.235 238.712 314.938 266.898 314.938 301.67C314.938 336.441 335.235 364.623 360.266 364.623C385.297 364.623 405.594 336.441 405.594 301.67C405.594 266.896 385.297 238.712 360.266 238.712ZM374.428 311.806C366.796 314.107 358.367 314.221 347.514 312.319C341.226 311.216 332.14 308.988 326.373 304.405C333.293 296.573 346.106 291.584 358.576 290.026C367.493 288.91 386.717 289.716 396.072 290.413C392.527 299.655 382.303 309.431 374.428 311.806Z" fill="#F0C7B1"/>
<path d="M357.861 260.96C331.631 260.852 310.33 277.669 310.262 298.532C310.204 319.393 331.41 336.389 357.637 336.507C383.872 336.615 405.168 319.799 405.236 298.938C405.294 278.074 384.091 261.079 357.861 260.96ZM374.429 311.806C366.796 314.107 358.367 314.221 347.514 312.32C341.226 311.217 332.14 308.988 326.373 304.405C333.293 296.573 346.106 291.585 358.576 290.026C367.493 288.91 386.717 289.716 396.073 290.414C392.527 299.655 382.303 309.431 374.429 311.806Z" fill="url(#paint8_radial)"/>
<path d="M396.075 290.413C386.72 289.716 367.496 288.91 358.579 290.026C346.109 291.584 333.296 296.573 326.376 304.405C332.14 308.988 341.226 311.216 347.516 312.319C358.37 314.221 366.796 314.107 374.431 311.806C382.303 309.431 392.527 299.655 396.075 290.413Z" fill="url(#paint9_radial)"/>
<path d="M329.785 292.592C341.095 285.485 349.266 280.552 375.97 281.763C372.275 281.627 348.574 281.579 329.785 292.592ZM383.776 311.78C380.87 313.334 377.005 314.815 377.067 314.792C383.952 311.861 388.848 313.372 396.032 299.537C392.225 305.606 391.305 307.449 383.776 311.78Z" fill="#C27B55"/>
<path d="M357.713 287.326C343.067 288.804 332.087 292.778 323.54 305.855C333.084 312.928 344.444 314.626 362.784 314.351C386.884 313.986 391.678 304.079 398.873 288.99C398.873 288.99 372.567 285.825 357.713 287.326ZM373.545 311.12C366.423 313.268 358.559 313.374 348.43 311.599C342.563 310.569 334.084 308.491 328.703 304.213C335.159 296.905 347.118 292.249 358.755 290.796C367.078 289.756 385.015 290.509 393.746 291.158C390.434 299.783 380.893 308.907 373.545 311.12Z" fill="black"/>
<path d="M398.54 374.63C398.628 431.598 352.477 477.862 295.449 477.94C238.432 478.034 192.132 431.925 192.044 374.945C191.956 317.983 238.107 271.537 295.132 271.446C352.152 271.358 398.457 317.656 398.54 374.63Z" fill="url(#paint10_radial)"/>
<path d="M389.727 223.6C389.727 275.755 347.448 318.033 295.296 318.033C243.141 318.033 200.86 275.755 200.86 223.6C200.86 171.445 243.141 129.167 295.296 129.167C347.448 129.167 389.727 171.445 389.727 223.6Z" fill="url(#paint11_radial)"/>
<path d="M175.648 273.64C194.471 250.012 226.863 253.943 253.405 257.74C260.157 258.707 267.107 259.432 273.727 261.105C278.472 262.301 282.201 267.707 278.389 272.074C276.606 274.151 272.715 273.766 270.313 273.716C238.53 273.074 202.605 254.796 175.648 273.64Z" fill="#2A232B"/>
<path d="M415.103 272.683C409.653 269.037 403.887 266.463 397.367 265.408C373.451 261.53 327.899 277.471 315.925 274.096C308.592 272.026 310.075 264.681 313.319 262.87C315.27 261.78 315.812 261.807 333.235 258.811C362.842 253.724 395.992 249.679 415.103 272.683Z" fill="#2A232B"/>
<path d="M297.129 391.916C296.238 392.321 294.145 392.321 293.483 391.656C293.483 391.656 277.628 386.234 279.637 381.042C282.821 372.827 311.687 379.126 311.662 381.042C311.599 385.932 297.129 391.916 297.129 391.916Z" fill="#E1AC8F"/>
<path d="M275.689 373.711C275.689 373.711 289.408 326.812 290.819 316.774C293.495 333.067 287.034 369.337 286.351 376.738C285.523 385.726 295.052 391.062 295.052 391.062C295.79 391.996 294.898 392.578 293.752 392.21L277.054 385.766C273.098 382.404 273.098 379.204 275.689 373.711ZM303.291 382.027C305.595 382.548 306.076 383.477 305.898 384.436C305.724 385.406 304.734 386.731 302.654 385.519C300.37 384.195 296.059 383.588 296.059 383.588C296.059 383.588 300.987 381.498 303.291 382.027Z" fill="#C27B55"/>
<path d="M224.028 411.387C224.683 414.358 224.229 415.466 223.197 417.682C223.978 414.282 224.003 414.232 224.028 411.387ZM291.743 484.616C291.692 481.569 290.635 479.958 287.814 479.026C290.081 480.562 291.164 481.947 291.743 484.616ZM282.199 481.871C282.073 479.253 281.494 477.666 279.429 476.004C280.839 477.993 281.443 479.353 282.199 481.871ZM272.302 478.547C272.504 479.706 274.166 481.846 275.651 482.325C274.417 481.62 272.302 478.547 272.302 478.547ZM263.06 474.342C263.262 474.946 264.773 479.076 265.15 478.547C265.176 478.547 262.758 473.461 263.06 474.342ZM269.356 467.215C268.726 469.734 268.6 471.219 268.928 473.939C269.18 472.378 269.381 468.449 269.356 467.215ZM274.82 460.064C274.594 462.003 274.569 464.017 274.82 465.931C275.047 464.269 275.097 462.33 274.82 460.064ZM277.767 472.252C279.429 470.111 280.008 469.003 280.713 466.384C280.184 467.215 278.144 471.345 277.767 472.252ZM286.983 466.359C286.782 469.583 287.084 471.018 288.243 473.486C287.336 469.23 287.638 470.716 286.983 466.359ZM283.206 462.582C284.264 460.517 284.641 459.333 284.893 457.117C284.44 458.225 283.458 461.549 283.206 462.582ZM292.876 458.805C292.7 460.366 293.002 463.262 294.563 463.01C293.38 463.211 293.027 459.963 292.876 458.805ZM283.206 452.509C284.012 450.646 284.616 448.53 284.893 446.642C284.062 448.53 283.508 450.57 283.206 452.509ZM265.579 457.143C264.848 459.359 264.596 460.794 264.748 463.438C264.999 462.28 265.503 458.376 265.579 457.143ZM258.452 473.083C259.736 470.565 260.215 469.003 260.542 466.359C259.963 467.769 258.83 471.396 258.452 473.083ZM252.585 466.787C251.225 468.298 253.013 470.993 253.013 470.993C252.962 469.18 252.005 468.298 252.585 466.787ZM255.103 452.257C255.103 452.106 254.801 452.836 255.506 458.805C255.657 452.383 255.078 451.426 255.078 452.509C255.103 452.509 255.103 452.408 255.103 452.257ZM245.433 457.545C245.634 461.247 245.508 462.733 246.264 465.1C246.012 459.736 246.113 460.064 245.433 457.545ZM239.137 457.974C238.684 460.064 238.608 461.348 239.968 463.01C239.062 461.147 239.137 460.114 239.137 457.974ZM228.661 452.509C228.712 451.225 228.636 449.714 228.284 448.278C228.284 448.052 228.107 449.966 228.661 452.509ZM232.993 453.995L234.529 446.642C233.471 448.43 232.993 453.995 232.993 453.995ZM241.655 444.954C240.27 446.264 239.49 449.135 239.565 450.822C239.842 449.714 240.925 446.062 241.655 444.954ZM248.379 452.106C249.009 449.412 249.135 447.825 248.807 444.98C248.53 446.667 248.354 450.721 248.379 452.106ZM247.951 430.701C247.447 432.338 247.347 433.094 247.523 434.907C247.573 434.705 247.951 430.852 247.951 430.701ZM241.253 437.4C242.411 435.813 241.253 431.532 241.253 431.532C241.253 431.532 241.58 436.644 241.253 437.4ZM232.011 434.479C232.439 436.569 233.169 438.86 234.101 440.774C233.698 438.684 232.968 436.468 232.011 434.479ZM223.625 434.479C222.87 439.037 223.474 440.346 224.456 442.864C223.852 439.137 223.675 438.659 223.625 434.479ZM217.329 429.442C216.322 431.054 215.97 434.882 217.758 436.997C216.725 435.058 216.826 430.928 217.329 429.442ZM219.42 416.423C219.42 416.423 218.16 418.79 218.16 422.29C218.614 420.301 219.117 418.009 219.42 416.423ZM227.402 422.719C227.402 422.719 225.312 422.87 226.143 429.014C227.075 421.308 227.402 422.719 227.402 422.719ZM237.878 425.237C238.558 423.121 239.011 420.83 239.137 418.513C238.432 420.679 238.029 422.97 237.878 425.237ZM232.842 409.699C231.683 412.343 231.482 413.351 231.583 415.995L232.842 409.699ZM242.915 405.519C241.227 406.98 240.699 410.833 240.824 413.074C241.983 406.224 242.915 405.519 242.915 405.519ZM254.247 405.922C252.232 407.534 251.426 408.692 250.897 411.789C251.879 409.397 252.106 408.541 254.247 405.922ZM261.398 412.646C263.01 411.059 265.176 404.26 265.176 404.26C264.722 403.379 261.927 411.764 261.398 412.646ZM273.989 404.26C272.579 404.587 270.388 410.908 269.784 412.243C270.539 411.16 273.989 404.26 273.989 404.26ZM281.947 403.832C280.738 406.325 280.083 407.634 279.429 410.556C280.637 408.163 281.217 406.199 281.947 403.832ZM292.02 402.573C290.106 406.879 290.937 405.645 288.671 410.127C290.106 408.339 291.189 406.778 292.02 402.573ZM366.559 411.387C365.904 414.358 366.358 415.466 367.39 417.682C366.609 414.282 366.584 414.232 366.559 411.387ZM304.007 478.547C301.186 479.479 300.254 480.26 300.229 483.307C300.808 480.612 301.74 480.058 304.007 478.547ZM311.209 477.213C309.144 478.875 308.338 480.965 308.212 483.584C308.967 481.066 309.824 479.177 311.209 477.213ZM314.936 482.325C316.421 481.846 318.109 479.706 318.285 478.547C318.285 478.547 316.17 481.62 314.936 482.325ZM325.411 478.547C325.789 479.076 327.3 474.972 327.502 474.342C327.829 473.461 325.411 478.547 325.411 478.547ZM321.634 473.914C321.961 471.194 321.836 469.708 321.206 467.19C321.206 468.449 321.407 472.378 321.634 473.914ZM315.767 465.956C316.018 464.017 315.993 462.003 315.767 460.089C315.49 462.33 315.54 464.269 315.767 465.956ZM309.899 466.359C310.604 468.978 311.183 470.111 312.846 472.227C312.443 471.345 310.403 467.215 309.899 466.359ZM302.345 473.511C303.503 471.018 303.805 469.608 303.604 466.384C302.949 470.716 303.251 469.23 302.345 473.511ZM305.694 457.143C305.946 459.359 306.298 460.542 307.381 462.607C307.129 461.549 306.147 458.225 305.694 457.143ZM298.567 460.492C300.103 460.744 300.431 457.848 300.254 456.286C300.078 457.445 299.726 460.693 298.567 460.492ZM305.694 446.642C305.971 448.53 306.575 450.646 307.381 452.509C307.079 450.57 306.525 448.53 305.694 446.642ZM325.84 463.438C325.991 460.794 325.739 459.359 325.009 457.143C325.084 458.376 325.588 462.28 325.84 463.438ZM330.045 466.359C330.372 468.978 330.876 470.565 332.135 473.083C331.757 471.396 330.624 467.769 330.045 466.359ZM337.6 470.993C337.6 470.993 339.388 468.323 338.028 466.787C338.582 468.298 337.625 469.18 337.6 470.993ZM335.484 452.509C335.484 451.426 334.93 452.383 335.056 458.805C335.761 452.836 335.459 452.106 335.459 452.257C335.484 452.408 335.484 452.509 335.484 452.509ZM344.298 465.1C345.054 462.733 344.928 461.247 345.129 457.545C344.474 460.064 344.575 459.736 344.298 465.1ZM350.594 463.01C351.953 461.348 351.878 460.064 351.425 457.974C351.45 460.114 351.525 461.147 350.594 463.01ZM362.303 448.304C361.951 449.739 361.875 451.25 361.926 452.534C362.48 449.966 362.303 448.052 362.303 448.304ZM356.058 446.642L357.594 453.995C357.594 453.995 357.116 448.43 356.058 446.642ZM351.022 450.847C351.097 449.16 350.291 446.289 348.932 444.98C349.662 446.062 350.745 449.714 351.022 450.847ZM341.78 444.954C341.427 447.8 341.553 449.386 342.208 452.081C342.233 450.721 342.057 446.667 341.78 444.954ZM343.039 434.881C343.215 433.068 343.114 432.313 342.611 430.676C342.636 430.852 343.014 434.705 343.039 434.881ZM349.334 431.532C349.334 431.532 348.176 435.813 349.334 437.4C349.007 436.644 349.334 431.532 349.334 431.532ZM356.486 440.774C357.418 438.86 358.173 436.569 358.576 434.479C357.619 436.468 356.889 438.684 356.486 440.774ZM366.131 442.864C367.138 440.346 367.743 439.011 366.962 434.479C366.912 438.659 366.735 439.137 366.131 442.864ZM372.855 436.997C374.643 434.882 374.29 431.054 373.283 429.442C373.761 430.928 373.862 435.058 372.855 436.997ZM372.427 422.29C372.427 418.765 371.167 416.423 371.167 416.423C371.47 418.009 371.973 420.301 372.427 422.29ZM364.444 429.014C365.275 422.87 363.185 422.719 363.185 422.719C363.185 422.719 363.512 421.308 364.444 429.014ZM351.45 418.513C351.576 420.805 352.029 423.121 352.709 425.237C352.558 422.97 352.155 420.679 351.45 418.513ZM359.004 415.995C359.105 413.351 358.904 412.343 357.745 409.699L359.004 415.995ZM349.763 413.074C349.888 410.833 349.335 406.98 347.672 405.519C347.672 405.519 348.604 406.224 349.763 413.074ZM339.69 411.815C339.161 408.692 338.355 407.534 336.34 405.947C338.481 408.541 338.708 409.397 339.69 411.815ZM325.411 404.26C325.411 404.26 327.577 411.059 329.189 412.646C328.66 411.764 325.865 403.379 325.411 404.26ZM320.803 412.218C320.199 410.883 318.033 404.562 316.598 404.235C316.598 404.26 320.048 411.16 320.803 412.218ZM311.158 410.556C310.504 407.66 309.849 406.325 308.64 403.832C309.37 406.199 309.95 408.163 311.158 410.556ZM301.916 410.127C299.625 405.645 300.481 406.879 298.567 402.573C299.398 406.778 300.456 408.339 301.916 410.127ZM296.578 469.532C294.009 473.511 294.11 475.249 294.186 477.767C294.916 474.166 294.865 474.191 296.578 469.532ZM290.081 447.598C291.365 451.174 291.516 451.552 292.146 454.121C292.07 451.376 291.516 449.915 290.081 447.598ZM297.283 452.962C297.912 450.394 299.247 451.174 300.531 447.598C299.071 449.915 297.333 450.243 297.283 452.962Z" fill="#2A232B"/>
<path d="M156.726 326.586C150.624 304.388 147.338 284.952 142.775 264.675L142.984 264.628C141.257 260.374 135.021 226.703 134.964 226.341C128.605 181.592 147.537 179.038 147.152 160.368C155.122 164.36 162.87 162.38 169.864 156.931C162.515 153.156 164.835 152.559 155.077 146.619C161.954 145.43 165.97 147.034 171.813 147.762C166.819 142.768 157.018 132.582 150.65 133.932L150.234 133.041C159.453 125.846 171.76 140.824 182.855 136.767C183.19 95.5367 243.461 86.9747 258.13 80.8479C277.658 73.4166 298.058 57.0734 312.405 55.6128C304.284 63.7744 299.31 76.8893 298.94 86.733C310.77 75.4363 311.607 75.7661 329.539 55.8496C329.539 71.8755 325.099 73.8876 319.337 83.2931C334.978 73.0439 354.479 44.2884 384.511 39.8916L384.841 40.8233C374.018 47.1995 365.642 57.9573 359.916 72.8249C365.6 65.9602 373.643 58.5138 382.545 57.1666L382.88 58.0958C377.302 61.4324 366.375 72.5554 363.875 91.1802C374.907 78.8585 392.456 68.6471 404.504 64.7892L404.974 65.6605C393.914 74.6581 389.48 90.4096 386.979 103.801C394.735 92.268 399.248 89.639 409.006 84.794C405.866 89.4904 406.07 88.6695 403.572 93.7739C409.605 109.193 429.542 109.792 432.949 136.732C437.054 133.146 438.683 132.247 443.403 128.946L444.113 129.631C440.567 135.138 437.643 144.891 435.697 151.418C442.697 146.072 453.508 142.134 461.121 139.386L461.652 140.212C455.228 146.742 447.429 156.697 446.135 167.495C448.653 166.004 448.774 166.175 452.053 163.803C452.053 171.562 452.317 170.572 452.372 174.14C455.538 171.307 456.024 170.912 458.104 168.648C457.643 250.143 453.458 233.9 442.196 290.696C440.222 300.676 436.729 318.102 434.488 326.472L419.255 329.089C423.964 272.696 419.021 284.99 422.446 249.503C427.513 197.177 385.166 154.284 329.209 168.323C317.887 171.164 272.7 171.161 261.383 168.323C199.568 152.803 177.297 188.922 170.662 252.125C167.411 283.144 166.615 272.676 171.334 329.089L156.726 326.586Z" fill="#2A232B"/>
<path d="M452.37 174.143C452.317 170.572 452.05 171.564 452.05 163.806C448.771 166.175 448.651 166.006 446.132 167.497C447.427 156.699 455.226 146.745 461.65 140.215L461.118 139.389C453.508 142.139 442.697 146.075 435.694 151.421C437.638 144.894 440.565 135.141 444.11 129.633L443.4 128.948C438.681 132.25 437.052 133.149 432.947 136.735C429.54 109.797 409.603 109.195 403.569 93.7764C406.067 88.6719 405.863 89.4929 409.004 84.7964C399.246 89.6415 394.733 92.2705 386.977 103.804C389.477 90.412 393.915 74.6606 404.972 65.663L404.501 64.7917C392.454 68.6496 374.905 78.861 363.872 91.1826C366.373 72.5579 377.299 61.4349 382.877 58.0982L382.542 57.169C373.64 58.5163 365.597 65.9652 359.914 72.8273C365.64 57.9597 374.018 47.2019 384.839 40.8258L384.509 39.894C354.477 44.2909 334.976 73.0464 319.335 83.2955C325.097 73.89 329.536 71.8754 329.536 55.852C311.604 75.7686 310.768 75.4387 298.937 86.7354C299.305 76.8917 304.281 63.7743 312.402 55.6153C298.059 57.0758 277.658 73.4166 258.127 80.8504C243.461 86.9747 183.19 95.5366 182.855 136.77C171.76 140.827 159.453 125.848 150.234 133.043L150.65 133.934C157.018 132.582 166.819 142.768 171.813 147.764C165.973 147.037 161.954 145.433 155.077 146.621C164.835 152.562 162.515 153.158 169.864 156.933C162.871 162.383 155.122 164.362 147.152 160.371C147.537 179.043 128.603 181.597 134.964 226.343C135.022 226.706 141.257 260.377 142.984 264.63L142.775 264.678C147.338 284.954 150.624 304.393 156.726 326.588L156.792 326.596C155.127 285.191 129.041 226.33 144.349 188.628C146.346 183.704 154.072 170.721 154.072 170.721C154.072 170.721 178.315 167.538 179.455 158.129C179.455 158.129 174.419 155.611 171.901 153.093C176.937 155.611 176.937 148.057 181.974 150.575C181.974 145.538 174.419 148.057 174.419 143.02C179.455 143.02 184.492 143.02 189.528 148.057C187.01 135.465 189.528 122.874 199.601 115.32C224.783 95.174 257.52 97.6922 282.702 77.5464C280.184 90.1375 277.666 102.729 277.666 115.32C292.775 107.765 297.812 92.6558 310.403 82.5829C312.921 92.6558 307.885 105.247 307.885 115.32C315.439 97.6922 325.512 80.0647 348.176 75.0282C338.103 85.1011 338.103 100.21 338.103 112.802C338.103 102.729 348.176 97.6922 350.694 90.1375C350.694 100.21 350.694 110.283 350.694 120.356C355.731 105.247 365.804 97.6922 378.395 92.6558C368.322 102.729 370.84 112.802 368.322 125.393C375.877 117.838 385.949 115.32 393.504 107.765C401.059 122.874 396.022 135.465 396.022 150.575C398.54 137.984 411.132 130.429 418.686 120.356C421.204 132.947 421.204 145.538 418.686 158.129C421.204 150.575 426.241 145.538 428.759 137.984C428.759 150.222 427.077 160.804 423.773 171.078C426.933 167.422 432.093 165.762 433.796 160.648C433.796 171.539 433.796 180.552 433.796 190.934C435.256 187.933 439.562 186.885 441.35 183.312C439.2 191.906 440.711 198.68 441.202 206.736C442.136 201.8 446.888 198.773 448.605 194.228C448.706 192.269 448.809 190.307 448.902 188.348C449.479 190.645 449.242 192.538 448.605 194.228C446.309 238.979 442.075 283.665 432.851 326.757L434.483 326.477C436.724 318.107 440.215 300.681 442.191 290.701C453.455 233.905 457.641 250.148 458.099 168.653C456.021 170.917 455.535 171.312 452.37 174.143Z" fill="#3A353A"/>
<path d="M465.976 137.216C453.513 139.316 444.808 143.355 438.149 147.918C439.119 145.387 443.672 131.122 448.575 125.128C441.045 128.485 436.689 132.086 434.171 133.967C434.171 131.368 433.168 128.367 432.685 126.815C432.209 125.518 431.809 124.003 429.484 120.218C416.463 101.845 415.649 109.53 404.984 95.4635C406.929 90.903 409.741 86.4685 413.269 82.7969C403.428 84.1945 398.248 88.0222 392.016 94.1541C391.915 94.2548 391.839 94.3555 391.764 94.4562C395.67 79.0296 403.322 65.6554 418.356 60.6366C399.762 59.9617 376.743 73.7112 365.171 87.4304C370.168 71.3617 376.871 63.7063 386.831 56.5822C379.664 55.5221 372.641 58.4508 367.085 63.0792C373.484 52.0066 382.993 43.1878 390.633 39.0806C389.548 39.0554 388.266 38.9799 386.856 39.0806C384.899 38.5795 373.059 40.5059 368.825 42.3291C347.851 50.5184 332.591 69.5813 326.041 75.7711C330.866 67.9696 331.102 62.4295 330.221 54.3158C328.572 55.7336 300.972 82.1548 300.632 82.4947C302.589 71.6437 306.285 65.0258 313.273 55.3231C300.816 52.9913 269.628 73.4971 250.293 78.9692C230.036 84.4564 179.773 95.8992 182.074 136.133C171.259 138.195 155.421 120.83 147.121 135.402C153.785 131.449 162.611 140.968 168.753 146.407C166.235 145.997 157.816 144.02 153.744 146.734C158.514 148.585 162.684 154.118 168.577 157.059C168.652 157.084 168.728 157.11 168.803 157.16C163.417 160 157.051 162.282 151.201 160.66C150.32 160.408 149.74 160.257 149.74 160.232C149.06 159.93 148.33 159.628 147.55 159.275H147.524L147.499 159.25C147.172 159.074 146.844 158.897 146.492 158.721C148.242 172.843 126.807 184.294 129.167 214.172C130.136 232.558 141.629 288.48 156.076 326.399L157.293 326.762C151.269 305.04 147.781 284.607 143.269 264.559C142.876 264.559 135.53 226.675 135.462 226.257C129.151 181.859 148.038 178.638 147.675 161.187C155.535 165.117 164.124 162.284 170.793 156.83C162.941 152.924 164.616 151.824 156.489 146.883C161.936 145.941 168.584 148.099 173.16 148.394C167.252 142.486 157.298 132 150.546 133.436C159.531 126.423 171.944 141.673 183.359 137.112C183.359 95.8564 243.098 87.6671 258.326 81.3086C276.636 74.3432 299.33 57.446 311.055 56.2524C304.91 62.4421 298.413 76.1488 298.413 87.9315C310.587 76.252 311.785 76.31 329.035 57.1589C329.035 72.3035 323.377 75.008 317.877 84.7838C334.029 75.4714 353.583 44.9254 384.584 40.3876C371.605 48.0354 363.343 61.3517 358.37 75.5671C364.293 67.8639 372.975 59.1231 382.62 57.6626C377.561 60.6895 365.343 72.2229 363.18 92.7413C374.121 79.8632 392.356 69.2061 404.655 65.2676C393.058 74.7059 388.619 91.384 386.045 106.113C390.293 99.6337 394.499 93.7814 401.079 89.6439C401.106 89.6188 401.154 89.5936 401.179 89.5936C403.771 87.8333 403.093 88.3118 407.528 86.0932C405.843 88.6115 405.687 88.2841 403.02 93.7486C409.129 109.807 429.52 109.898 432.556 137.742C437.233 133.594 438.703 132.846 443.687 129.356C439.804 135.385 436.676 146.4 434.747 152.826C442.063 146.568 455.596 141.922 461.289 139.857C453.735 147.538 446.399 157.726 445.525 168.464C447.072 167.424 449.036 166.601 451.544 164.788C451.544 171.647 451.871 170.731 451.871 175.263C453.196 174.052 456.203 171.461 457.59 169.95C457.097 249.818 452.856 234.326 441.698 290.598C437.522 311.69 435.319 321.446 433.939 326.566L435.017 326.346C444.042 299.273 462.055 238.103 461.242 206.439C461.158 194.603 458.575 169.925 458.446 167.407C458.393 167.452 453.198 172.367 453.133 172.367C453.133 171.081 452.604 165.606 452.604 162.622C451.715 163.304 449.847 164.581 447.341 166.047C450.814 155.563 456.099 149.049 465.976 137.216Z" fill="black"/>
<path opacity="0.2" d="M418.032 299.099C417.855 312.118 412.089 325.843 404.685 336.822C397.483 347.499 378.722 351.302 364.847 351.302C353.515 351.302 343.417 348.985 337.096 344.931C325.185 337.275 312.392 318.213 309.572 300.031C335.182 284.645 387.989 284.645 418.032 299.099ZM172.556 297.337C172.203 310.885 178.171 325.364 185.902 336.822C193.104 347.499 211.865 351.302 225.74 351.302C237.072 351.302 247.17 348.985 253.491 344.931C265.05 337.502 277.414 319.346 280.713 301.668C253.491 285.702 201.112 283.965 172.556 297.337Z" fill="white"/>
<path opacity="0.4" d="M418.032 299.1C387.989 284.67 335.182 284.645 309.597 300.006C309.169 297.236 308.968 294.491 309.018 291.797C309.572 271.021 339.287 263.643 364.57 263.643C382.399 263.643 403.451 267.345 410.25 275.579C415.941 282.505 418.158 290.638 418.032 299.1ZM226.017 263.643C208.188 263.643 187.136 267.345 180.337 275.579C175.049 282.001 172.757 289.505 172.556 297.337C201.137 283.965 253.491 285.703 280.688 301.643C281.318 298.319 281.645 295.02 281.544 291.797C280.99 271.021 251.275 263.643 226.017 263.643Z" fill="white"/>
<path d="M432.486 271.097C430.975 265.028 361.951 252.764 326.117 265.078C317.454 268.05 311.461 270.694 307.885 274.446V274.395C306.626 276.611 303.478 277.367 301.237 276.536C297.208 275 293.128 275.075 289.351 276.536C287.135 277.392 283.962 276.611 282.703 274.395V274.446C279.127 270.694 273.159 268.075 264.471 265.078C228.636 252.764 159.612 265.053 158.101 271.097C157.522 273.489 156.741 286.357 156.792 290.965C156.842 295.574 159.713 295.221 164.019 297.236C165.681 298.016 169.156 303.959 169.483 306.402C171.07 317.835 175.628 328.436 182.729 338.963C194.867 356.943 237.4 359.788 255.531 348.129C268.072 340.071 281.066 321.108 284.516 302.247C285.196 298.495 285.825 295.574 286.304 293.055L286.329 293.181C287.235 290.084 291.29 288.573 295.319 288.497C299.348 288.573 303.402 290.084 304.309 293.181L304.334 293.055C304.787 295.574 305.442 298.495 306.122 302.247C309.572 321.108 322.566 340.071 335.107 348.129C353.238 359.788 395.771 356.943 407.908 338.963C415.01 328.436 419.568 317.835 421.154 306.402C421.482 303.934 424.957 297.991 426.619 297.236C430.925 295.221 433.821 295.599 433.846 290.965C433.846 286.357 433.065 273.464 432.486 271.097ZM252.786 343.848C236.72 354.173 197.335 351.503 186.935 336.117C175.099 318.54 167.242 293.458 181.294 276.385C194.842 259.941 279.353 257.951 280.285 291.822C280.839 311.715 266.233 335.21 252.786 343.848ZM403.653 336.117C393.252 351.528 353.867 354.173 337.801 343.848C324.354 335.21 309.748 311.715 310.302 291.822C311.234 257.951 395.745 259.941 409.293 276.385C423.345 293.433 415.488 318.54 403.653 336.117Z" fill="#26120B"/>
<path d="M157.723 273.816C157.849 272.557 157.975 271.575 158.101 271.071C159.612 265.003 228.636 252.739 264.471 265.053C273.133 268.024 279.127 270.669 282.703 274.421V274.37C282.703 274.345 227.302 245.109 157.723 273.816ZM431.076 295.372C432.763 294.617 433.771 293.61 433.796 290.915C433.846 286.332 433.065 273.439 432.486 271.046C430.975 264.977 361.951 252.714 326.117 265.028C317.857 267.873 312.04 270.417 308.414 273.892C327.351 258.908 404.534 255.912 425.234 276.46C429.515 280.741 430.875 288.85 431.076 295.372Z" fill="#351D15"/>
</g>
<defs>
<linearGradient id="paint0_linear" x1="300" y1="-75" x2="300" y2="675" gradientUnits="userSpaceOnUse">
<stop stop-color="#151371"/>
<stop offset="0.453125" stop-color="#FF00B8"/>
<stop offset="0.96875" stop-color="#FFC700"/>
</linearGradient>
<linearGradient id="paint1_linear" x1="439" y1="245" x2="439" y2="644" gradientUnits="userSpaceOnUse">
<stop stop-color="#FF00B8"/>
<stop offset="1" stop-color="#F0DB0A" stop-opacity="0"/>
</linearGradient>
<linearGradient id="paint2_linear" x1="194" y1="161" x2="194" y2="560" gradientUnits="userSpaceOnUse">
<stop stop-color="#FF00B8"/>
<stop offset="1" stop-color="#F0DB0A" stop-opacity="0"/>
</linearGradient>
<linearGradient id="paint3_linear" x1="295.294" y1="515.716" x2="295.294" y2="394.842" gradientUnits="userSpaceOnUse">
<stop stop-color="#E1AC8F" stop-opacity="0.8"/>
<stop offset="0.7" stop-color="#C27B55"/>
</linearGradient>
<radialGradient id="paint4_radial" cx="0" cy="0" r="1" gradientUnits="userSpaceOnUse" gradientTransform="translate(226.8 301.252) rotate(180) scale(35.2551)">
<stop stop-color="white"/>
<stop offset="0.544" stop-color="#FDFEFE"/>
<stop offset="0.74" stop-color="#F6F8F9"/>
<stop offset="0.879" stop-color="#EAEFF2"/>
<stop offset="0.992" stop-color="#D9E3E8"/>
<stop offset="1" stop-color="#D8E2E7"/>
</radialGradient>
<radialGradient id="paint5_radial" cx="0" cy="0" r="1" gradientUnits="userSpaceOnUse" gradientTransform="translate(231.44 299.009) rotate(1.19182) scale(47.104 29.592)">
<stop stop-color="#E1AC8F"/>
<stop offset="0.7" stop-color="#E1AC8F" stop-opacity="0.3"/>
<stop offset="1" stop-color="#F0C7B1" stop-opacity="0"/>
</radialGradient>
<radialGradient id="paint6_radial" cx="0" cy="0" r="1" gradientUnits="userSpaceOnUse" gradientTransform="translate(219.106 369.742) rotate(-3.00026) scale(76.7978)">
<stop offset="0.95" stop-opacity="0"/>
<stop offset="1" stop-opacity="0.2"/>
</radialGradient>
<radialGradient id="paint7_radial" cx="0" cy="0" r="1" gradientUnits="userSpaceOnUse" gradientTransform="translate(362.784 301.252) scale(35.2551)">
<stop stop-color="white"/>
<stop offset="0.544" stop-color="#FDFEFE"/>
<stop offset="0.74" stop-color="#F6F8F9"/>
<stop offset="0.879" stop-color="#EAEFF2"/>
<stop offset="0.992" stop-color="#D9E3E8"/>
<stop offset="1" stop-color="#D8E2E7"/>
</radialGradient>
<radialGradient id="paint8_radial" cx="0" cy="0" r="1" gradientUnits="userSpaceOnUse" gradientTransform="translate(358.14 299.008) rotate(178.808) scale(47.104 29.592)">
<stop stop-color="#E1AC8F"/>
<stop offset="0.7" stop-color="#E1AC8F" stop-opacity="0.3"/>
<stop offset="1" stop-color="#F0C7B1" stop-opacity="0"/>
</radialGradient>
<radialGradient id="paint9_radial" cx="0" cy="0" r="1" gradientUnits="userSpaceOnUse" gradientTransform="translate(370.475 369.744) rotate(-177) scale(76.8004)">
<stop offset="0.95" stop-opacity="0"/>
<stop offset="1" stop-opacity="0.2"/>
</radialGradient>
<radialGradient id="paint10_radial" cx="0" cy="0" r="1" gradientUnits="userSpaceOnUse" gradientTransform="translate(295.293 374.696) scale(103.247)">
<stop stop-color="#FFE4D6" stop-opacity="0.5"/>
<stop offset="0.9" stop-color="#F0C7B1" stop-opacity="0"/>
</radialGradient>
<radialGradient id="paint11_radial" cx="0" cy="0" r="1" gradientUnits="userSpaceOnUse" gradientTransform="translate(295.293 223.603) scale(93.1741)">
<stop stop-color="#FFE4D6" stop-opacity="0.5"/>
<stop offset="0.9" stop-color="#F0C7B1" stop-opacity="0"/>
</radialGradient>
<clipPath id="clip0">
<rect width="600" height="600" fill="white"/>
</clipPath>
</defs>
</svg>
