<svg width="600" height="600" viewBox="0 0 600 600" fill="none" xmlns="http://www.w3.org/2000/svg">
<g clip-path="url(#clip0)">
<path d="M675 675H-75V-75H675V675Z" fill="url(#paint0_linear)"/>
<path d="M360.996 403.874H308.184V356.576H360.996V403.874ZM414.113 320.069H340.054V380.225H414.113V320.069ZM377.082 441.95H442.881V362.639H377.082V441.95ZM400.757 434.192H334.59V491.191H400.757V434.192ZM580.44 284.416H490.23V387.501H580.44V284.416ZM478.458 331.108H456.605V356.576H478.458V331.108ZM544.531 252.277H456.605V304.426H544.531V252.277ZM442.881 270.468H395.532V335.958H442.881V270.468ZM334.59 275.32H308.184V303.213H334.59V275.32ZM299.325 320.069H258.501V382.71H299.325V320.069V320.069ZM347.338 441.95H275.708V521.511H347.338V441.95ZM308.184 576.086H388.617V528.788H308.184V576.086ZM500.311 557.894H443.791V599.129H500.313V557.894H500.311ZM637.361 516.659H585.062V578.511H637.361V516.659ZM551.302 544.718H506.381V585.953H551.302V544.718ZM594.357 463.296H528.843V537.278H594.357V463.296ZM610.791 590.639H528.843V644H610.791V590.639ZM340.054 557.894H251.187V637.937H340.052V557.894H340.054ZM630.216 356.576H569.818V403.874H630.216V356.576ZM594.357 424.49H568.208V451.477H594.357V424.49ZM251.187 474.697H300.975V404.294H251.187V474.697ZM321.764 249.852L232 252.277V320.069H321.764V249.852ZM646 252.277H587.725V326.256H646V252.277ZM371.858 245H347.338V298.361H371.858V245ZM641.143 437.983H581.281V486.494H641.143V437.983Z" fill="url(#paint1_linear)" stroke="#FFC700" stroke-width="1.5"/>
<path d="M115.996 319.874H63.1843V272.576H115.996V319.874ZM169.113 236.069H95.0537V296.225H169.113V236.069ZM132.082 357.95H197.881V278.639H132.082V357.95ZM155.757 350.192H89.5904V407.191H155.757V350.192ZM335.44 200.416H245.23V303.501H335.44V200.416ZM233.458 247.108H211.605V272.576H233.458V247.108ZM299.531 168.277H211.605V220.426H299.531V168.277ZM197.881 186.468H150.532V251.958H197.881V186.468ZM89.5904 191.32H63.1843V219.213H89.5904V191.32ZM54.3246 236.069H13.5008V298.71H54.3246V236.069V236.069ZM102.338 357.95H30.7084V437.511H102.338V357.95ZM63.1843 492.086H143.617V444.788H63.1843V492.086ZM255.311 473.894H198.791V515.129H255.313V473.894H255.311ZM392.361 432.659H340.062V494.511H392.361V432.659ZM306.302 460.718H261.381V501.953H306.302V460.718ZM349.357 379.296H283.843V453.278H349.357V379.296ZM365.791 506.639H283.843V560H365.791V506.639ZM95.0537 473.894H6.18721V553.937H95.0519V473.894H95.0537ZM385.216 272.576H324.818V319.874H385.216V272.576ZM349.357 340.49H323.208V367.477H349.357V340.49ZM6.18721 390.697H55.9745V320.294H6.18721V390.697ZM76.7643 165.852L-13 168.277V236.069H76.7643V165.852ZM401 168.277H342.725V242.256H401V168.277ZM126.858 161H102.338V214.361H126.858V161ZM396.143 353.983H336.281V402.494H396.143V353.983Z" fill="url(#paint2_linear)" stroke="#FFC700" stroke-width="1.5"/>
<rect x="504" y="328.706" width="8.86149" height="25.1423" fill="white"/>
<rect x="521.753" y="328.857" width="8.83104" height="25.1423" fill="white"/>
<rect x="512.862" y="320" width="8.89195" height="8.85765" fill="white"/>
<rect x="539.416" y="328.857" width="8.89195" height="25.1423" fill="white"/>
<rect x="530.584" y="320" width="8.83105" height="8.85765" fill="white"/>
<rect x="548.307" y="320" width="8.86149" height="8.85765" fill="white"/>
<rect x="557.169" y="327.792" width="8.83104" height="8.85766" fill="white"/>
<rect x="548.307" y="336.65" width="8.86149" height="8.82721" fill="white"/>
<rect x="40" y="390.425" width="7.57515" height="21.4449" fill="white"/>
<rect x="55.1763" y="390.555" width="7.54912" height="21.4449" fill="white"/>
<rect x="47.5752" y="383" width="7.60118" height="7.55506" fill="white"/>
<rect x="70.2747" y="390.555" width="7.60118" height="21.4449" fill="white"/>
<rect x="62.7253" y="383" width="7.54912" height="7.55506" fill="white"/>
<rect x="77.8757" y="383" width="7.57515" height="7.55506" fill="white"/>
<rect x="85.4509" y="389.646" width="7.54912" height="7.55506" fill="white"/>
<rect x="77.8757" y="397.202" width="7.57515" height="7.52909" fill="white"/>
<path d="M309.665 348.132H307.437V345.904H309.665V348.132Z" fill="#2A232B"/>
<path d="M521.116 569.298C516.224 558.726 502.86 543.058 488.012 538.729C469.657 533.376 428.226 526.904 412.863 523.307C400.548 520.419 375.744 498.146 367.052 490.67C365.492 489.333 364.216 486.573 364.185 484.521C363.875 460.319 373.53 396.026 373.53 396.026H308.551H243.574C243.574 396.026 253.229 460.317 252.915 484.521C252.891 486.573 251.607 489.333 250.053 490.67C241.36 498.146 216.556 520.419 204.241 523.307C188.876 526.904 147.445 533.597 129.092 538.95C114.24 543.276 100.88 558.723 95.9881 569.296C87.7276 587.136 85.7761 619.421 85.7761 647.267H308.551H531.326C531.326 619.423 529.372 587.138 521.116 569.298Z" fill="#8B7163"/>
<path d="M440.336 534.278C494.564 542.169 517.385 553.678 524.531 647.272H531.326C531.326 619.425 529.372 587.141 521.116 569.301C516.224 558.728 502.86 543.06 488.012 538.732C469.657 533.378 428.226 526.907 412.863 523.309C400.548 520.422 372.225 496.422 364.648 486.885C372.133 497.365 393.143 521.649 411.551 528.009C420.357 531.053 427.691 532.438 440.336 534.278ZM205.553 528.009C223.961 521.652 244.969 497.365 252.456 486.885C244.882 496.42 216.559 520.422 204.241 523.309C188.879 526.907 147.447 533.599 129.093 538.952C114.245 543.278 100.88 558.726 95.9883 569.299C87.7323 587.138 85.7786 619.423 85.7786 647.27H92.5732C99.6753 554.275 122.592 542.158 176.769 534.276C189.411 532.438 196.747 531.053 205.553 528.009Z" fill="#9A877D"/>
<path d="M298.852 564.491C298.852 564.491 287.548 560.907 283.073 559.191C259.795 550.26 184.172 544.473 184.172 544.473C184.172 544.473 263.823 547.634 281.399 550.663C280.379 540.044 274.678 506.1 274.678 506.1C274.678 506.1 286.149 543.559 288.956 553.009C290.458 558.062 298.852 564.491 298.852 564.491ZM322.909 561.501C322.711 561.664 322.484 561.876 322.236 562.099C322.488 561.909 322.715 561.711 322.909 561.501ZM298.852 564.491C298.852 564.491 305.297 571.157 308.536 571.241C312.791 571.355 319.291 564.783 322.239 562.099C319.42 564.23 312.973 565.197 310.409 565.298C307.446 565.411 298.852 564.491 298.852 564.491ZM345.674 547.741C342.233 548.293 335.904 549.498 335.904 549.498L340.998 516.327C339.559 523.169 331.031 552.441 322.909 561.501C327.164 557.901 336.628 556.175 341.453 555.478C364.256 552.172 364.247 552.174 432.929 544.473C432.929 544.473 368.166 544.127 345.674 547.741Z" fill="#7C5D4C"/>
<path d="M521.116 569.298C516.224 558.726 502.86 543.058 488.012 538.729C469.657 533.376 428.226 526.904 412.863 523.307C400.548 520.419 375.744 498.146 367.052 490.67C365.492 489.333 364.216 486.573 364.185 484.521C363.875 460.319 373.53 396.026 373.53 396.026H308.551H243.574C243.574 396.026 253.229 460.317 252.915 484.521C252.891 486.573 251.607 489.333 250.053 490.67C241.36 498.146 216.556 520.419 204.241 523.307C188.876 526.904 147.445 533.597 129.092 538.95C114.24 543.276 100.88 558.723 95.9881 569.296C87.7276 587.136 85.7761 619.421 85.7761 647.267H308.551H531.326C531.326 619.423 529.372 587.138 521.116 569.298Z" stroke="#5D3A26" stroke-width="4.5"/>
<path d="M252.53 490.371C268.596 500.661 287.871 507.12 308.558 507.12C329.238 507.12 348.508 500.666 364.57 490.38C363.365 488.676 362.541 486.444 362.512 484.546C362.309 468.704 366.261 436.391 369.097 415.408C334.351 408.399 282.749 408.399 248.008 415.408C250.843 436.391 254.796 468.704 254.591 484.544C254.566 486.402 253.731 488.658 252.53 490.371Z" fill="url(#paint3_linear)"/>
<path d="M271.143 649.518C175.896 649.518 108.259 648.758 84.999 647.432C77.8078 555.07 122.98 535.345 142.747 531.151C154.133 528.437 163.106 527.602 171.021 526.867C189.872 525.116 204.794 523.728 238.074 499.628C239.239 501.112 242.084 504.883 247.326 511.992C262.804 532.585 286.055 544.305 311.238 544.305C311.24 544.305 311.242 544.305 311.247 544.305C339.773 544.301 366.526 529.482 384.805 503.602C418.346 524.218 425.415 524.875 442.283 526.437C447.846 526.951 454.767 527.595 464.113 529.132C490.485 532.677 510.506 547.148 522.041 570.983C531.854 591.262 535.454 618.195 532.199 646.92C506.255 648.359 390.149 649.518 271.163 649.518C271.152 649.518 271.15 649.518 271.143 649.518Z" fill="#F3F1F4"/>
<path d="M466.518 530.262C429.181 524.113 428.019 527.499 384.493 502.103C347.786 555.121 281.268 555.293 248.333 511.482C247.636 510.535 239.097 498.946 238.263 498.115C190.284 533.084 180.415 521.888 142.069 530.504C103.756 539.115 77.743 569.267 83.9027 647.709C83.925 647.976 83.925 648.219 83.9696 648.488C142.23 652.042 488.789 650.685 533.195 647.978C536.378 592.431 531.881 540.899 466.518 530.262ZM85.0389 647.689C84.0186 598.533 91.5528 544.789 143.54 534.296C182.06 526.521 190.933 536.747 237.974 499.32C240.447 503.019 243.32 507.608 246.528 512.642C275.975 557.866 345.599 564.999 384.76 503.731C388.884 506.917 393.738 510.459 399.174 513.957C450.826 548.055 534.483 503.466 532.059 647.377C386.344 644.699 232.748 644.748 85.0389 647.689Z" fill="#CFC8D7"/>
<path d="M325.126 653.799C318.944 653.799 301.228 654.262 288.341 653.287L288.319 652.906C286.496 611.34 290.834 584.472 298.426 565.382L298.533 565.108L298.326 564.901C296.31 562.887 292.923 560.59 289.339 558.162C285.75 555.727 282.043 553.214 279.679 550.931C281.072 549.3 282.787 547.691 284.91 546.027C285.456 545.749 287.499 544.149 298.219 534.953C298.695 534.543 298.987 534.294 299.025 534.263C300.848 533.866 303.788 533.61 307.353 533.61C312.216 533.61 317.892 534.102 321.86 534.864C325.337 538.112 329.548 546.736 331.123 550.837C328.948 555.941 326.382 557.808 322.842 560.381C321.118 561.635 319.162 563.056 316.934 565.086L316.749 565.253L316.796 565.5C325.765 610.746 325.767 621.314 325.767 631.535C325.769 636.037 325.769 646.258 326.522 653.779C326.188 653.795 325.714 653.799 325.126 653.799Z" fill="#131111"/>
<path d="M331.608 550.846C329.928 546.402 325.571 537.636 322.073 534.452C315.666 533.198 304.289 532.574 298.749 533.918C298.508 534.114 284.83 545.91 284.692 545.636C282.673 547.213 280.709 548.986 279.078 550.96C283.669 555.585 293.904 561.109 298.014 565.217C289.882 585.668 286.14 613.314 287.877 652.946C287.9 653.191 287.9 653.459 287.922 653.704C302.973 654.862 324.791 654.441 327.019 654.2C324.435 629.011 330.223 630.909 317.239 565.418C324.074 559.191 328.3 558.744 331.608 550.846ZM319.913 593.263C319.866 593.151 319.823 593.04 319.799 592.973C324.254 616.476 322.873 634.48 326.239 653.06C315.689 652.351 299.475 652.944 288.878 652.944C289.7 636.909 291.524 582.36 299.437 564.413C299.816 564.311 300.192 564.226 300.571 564.135L298.272 641.518L304.392 563.4C304.436 563.395 304.481 563.388 304.525 563.382L308.538 636.017L309.467 563.094C309.525 563.097 309.58 563.092 309.638 563.094L318.992 644.084L313.869 563.58C314.568 563.72 315.27 563.894 315.967 564.099C316.034 564.099 316.123 564.121 316.19 564.166C316.422 566.398 318.275 582.883 319.913 593.263ZM317.95 562.5C311.77 559.713 303.775 560.214 297.613 563.034C293.868 558.995 288.524 556.179 280.838 551.024C282.063 549.957 283.645 548.641 285.761 546.992C285.939 546.992 293.514 540.819 293.647 540.688C295.697 538.816 297.524 536.7 299.261 534.851C305.789 534.584 315.368 534.896 321.138 535.163C324.479 539.342 327.667 545.624 330.071 550.623C325.702 557.019 321.381 559.869 317.95 562.5Z" fill="black"/>
<path d="M259.977 598.925C234.282 509.657 237.802 537.878 230.956 502.813C235.474 492.091 247.858 474.704 250.271 472.126L250.449 471.935C255.555 525.416 270.405 502.312 303.434 533.692C284.554 546.288 267.053 578.987 259.977 598.925ZM387.333 503.629C384.107 495.382 368.959 477.633 366.423 474.951C369.596 521.016 332.682 511.822 312.178 533.318C331.809 546.045 350.435 579.343 357.116 598.936C385.749 517.225 379.886 550.222 387.333 503.629Z" fill="#F3F1F4"/>
<path d="M366.029 473.926C366.029 485.37 365.094 494.337 363.218 496.959C357.775 509.9 334.028 518.909 326.705 522.6C321.147 525.334 315.696 528.858 311.49 533.405C319.984 538.921 324.199 540.942 340.294 565.574C349.753 581.411 354.862 593.305 357.138 600.416C385.925 522.106 380.879 549.039 387.866 503.493C384.335 494.39 368.257 475.971 366.029 473.926ZM356.913 593.577C350.863 574.32 332.241 542.532 313.628 533.225C322.399 526.637 324.836 526.25 335.302 521.464C367.373 507.162 368.685 493.874 366.798 476.306C369.487 479.476 383.123 495.607 386.616 503.09C377.687 554.457 368.578 552.637 356.913 593.577ZM262.212 507.184C252.392 499.055 255.172 489.002 250.652 471.062C248.643 473.289 233.407 490.848 228.339 502.929C244.212 557.231 244.769 553.054 259.939 600.393C266.692 580.555 285.688 546.103 305.029 533.541C289.591 519.448 270.156 514.097 262.212 507.184ZM274.375 564.012C269.427 572.179 264.313 580.676 260.185 593.597C257.578 575.886 235.301 521.649 231.402 502.37C235.051 494.377 248.714 474.633 250.385 473.042C253.428 488.81 250.532 503.032 263.014 510.903C268.853 515.349 287.751 522.754 302.044 533.982C293.376 539.128 288.711 542.16 274.375 564.012Z" fill="#CFC8D7"/>
<path d="M196.845 647.559C177.085 647.559 159.276 647.254 145.259 646.677C145.103 645.439 144.914 643.848 144.687 641.952C142.341 622.283 136.145 570.337 123.089 536.072C144.246 527.528 178.827 521.166 204.72 517.987C222.17 554.185 264.265 612.301 293.801 645.49C260.507 646.842 227.033 647.559 196.852 647.559C196.852 647.559 196.849 647.559 196.845 647.559ZM420.257 647.559C440.017 647.559 457.823 647.254 471.843 646.677C471.999 645.439 472.186 643.848 472.413 641.952C474.761 622.283 480.956 570.337 494.011 536.072C472.854 527.528 438.273 521.166 412.38 517.987C394.93 554.185 352.834 612.301 323.299 645.49C356.592 646.842 390.066 647.559 420.248 647.559C420.252 647.559 420.252 647.559 420.257 647.559Z" fill="#030404"/>
<path d="M157.405 596.435L134.058 567.563L139.472 531.745L161.132 560.27L157.405 596.435ZM191.336 553.239L165.514 524.978L161.13 560.267L186.994 587.885L191.336 553.239ZM216.806 543.39L190.723 520.375L191.336 553.239L218.786 578.985L216.806 543.39ZM180.054 622.531L157.405 596.435L146.226 630.631L170.994 659.562L180.054 622.531ZM215.224 613.996L186.996 587.887L180.054 622.531L211.764 647.288L215.224 613.996ZM249.246 599.941L218.786 578.985L215.224 613.996L247.054 638.74L249.246 599.941ZM455.97 560.27L477.633 531.745L483.046 567.563L459.699 596.435L455.97 560.27ZM430.106 587.887L455.968 560.27L451.586 524.98L425.762 553.241L430.106 587.887ZM398.316 578.985L425.764 553.239L426.377 520.375L400.294 543.39L398.316 578.985ZM446.105 659.562L470.876 630.631L459.695 596.435L437.045 622.531L446.105 659.562ZM405.335 647.288L437.045 622.531L430.106 587.887L401.876 613.996L405.335 647.288ZM370.048 638.74L401.876 613.996L398.314 578.985L367.854 599.941L370.048 638.74Z" fill="#101313"/>
<path d="M205.382 516.784C181.318 519.698 144.163 526.105 121.663 535.452C121.663 535.477 121.685 535.499 121.685 535.519C136.567 573.814 142.666 635.561 144.275 647.753C174.71 649.045 229.918 649.263 296.207 646.505C267.676 614.829 223.19 554.136 205.382 516.784ZM145.767 646.129C145.767 626.598 139.877 570.711 123.913 536.234C155.89 526.762 177.615 523.881 204.335 518.566C223.665 564.571 253.53 608.62 289.992 644.322C243.621 643.233 192.118 643.817 145.767 646.129ZM320.895 646.508C387.184 649.263 442.392 649.047 472.825 647.755C474.436 635.563 480.536 573.818 495.417 535.521C495.417 535.499 495.439 535.477 495.439 535.454C472.939 526.107 435.787 519.7 411.72 516.786C393.912 554.136 349.426 614.829 320.895 646.508ZM327.11 644.322C363.572 608.62 393.435 564.571 412.767 518.566C439.485 523.881 461.212 526.762 493.189 536.234C477.225 570.713 471.333 626.598 471.333 646.129C424.987 643.817 373.481 643.233 327.11 644.322Z" fill="black"/>
<path d="M192.018 309.325C188.48 304.032 174.14 291.875 165.946 293.744C156.244 295.956 153.23 303.483 153.464 308.168C154.814 334.957 163.324 334.937 168.412 345.238C172.22 352.944 175.376 356.475 177.706 371.878C179.039 380.684 187.569 387.436 193.784 387.104C202.49 386.636 209.365 378.826 212.254 371.125C218.245 355.134 201.225 323.103 192.018 309.325Z" fill="#8B7163" stroke="#5D3A26" stroke-width="4.5"/>
<path d="M182.18 347.767C181.846 346.532 182.042 344.409 182.233 342.353C182.405 340.482 185.437 333.692 185.236 332.462C184.47 327.855 180.935 319.229 178.667 314.571C176.063 309.218 170.638 302.521 165.768 301.031C163.754 300.411 158.018 301.12 157.345 302.454C154.826 307.447 155.975 312.281 159.796 325.2C161.689 331.6 168.517 339.027 168.702 339.769C171.079 349.444 180.061 364.907 183.156 368.371C183.726 369.013 184.312 369.378 184.446 369.209C184.577 369.037 184.214 368.389 183.641 367.747C180.585 364.301 171.685 348.876 169.393 339.54C166.96 329.635 174.546 314.264 175.92 311.024C176.764 312.455 177.486 313.834 178.045 314.983C178.486 315.888 178.974 316.946 179.482 318.093C178.665 319.786 170.025 332.277 172.741 341.721C173.746 345.202 177.317 351.95 180.387 355.504C181.463 356.749 182.376 357.101 183.038 358.253C183.797 359.587 184.668 361.102 187.03 362.098C187.509 362.3 187.939 362.367 188.315 362.345C188.968 362.3 189.451 361.986 189.801 361.619C189.866 362.222 189.899 362.993 189.915 363.713C189.93 364.633 190.077 365.388 190.276 365.395C190.474 365.401 190.65 364.653 190.634 363.733C190.614 362.599 190.545 361.193 190.34 360.532C189.732 358.587 188.05 356.45 186.266 354.196C184.508 351.977 182.695 349.676 182.18 347.767ZM168.114 335.075C162.885 319.973 164.732 304.626 165.657 302.454C168.653 302.454 174.073 308.012 175.452 310.247C174.606 312.156 167.84 324.718 168.114 335.075ZM187.27 361.307C185.13 360.409 184.368 359.077 183.628 357.787C182.962 356.62 181.36 355.51 180.63 354.717C180.204 354.252 179.447 353.009 179.037 352.73C175.111 335.786 182.033 329.602 183.419 328.305C183.933 329.929 184.334 331.422 184.533 332.625C184.715 333.73 181.681 340.538 181.521 342.264C181.322 344.405 181.115 346.617 181.494 348.018C182.057 350.108 183.929 352.474 185.736 354.764C187.339 356.796 188.986 358.89 189.594 360.643C189.387 361.013 188.707 361.913 187.27 361.307Z" fill="#5D3A26"/>
<path d="M424.503 309.325C428.041 304.032 442.381 291.875 450.57 293.744C460.276 295.956 463.288 303.483 463.054 308.168C461.707 334.957 453.194 334.937 448.108 345.238C444.297 352.944 441.142 356.475 438.81 371.878C437.478 380.684 428.945 387.436 422.732 387.104C414.026 386.636 407.151 378.826 404.262 371.125C398.274 355.134 415.296 323.103 424.503 309.325Z" fill="#8B7163" stroke="#5D3A26" stroke-width="4.5"/>
<path d="M430.26 354.196C428.475 356.453 426.791 358.589 426.183 360.532C425.978 361.193 425.909 362.599 425.891 363.733C425.873 364.653 426.052 365.401 426.248 365.395C426.448 365.388 426.591 364.633 426.608 363.713C426.626 362.993 426.655 362.22 426.722 361.619C427.07 361.986 427.553 362.303 428.206 362.345C428.584 362.367 429.01 362.298 429.493 362.098C431.857 361.104 432.721 359.589 433.483 358.253C434.145 357.101 435.063 356.749 436.137 355.504C439.204 351.953 442.775 345.202 443.782 341.721C446.498 332.277 437.856 319.786 437.039 318.093C437.549 316.946 438.035 315.89 438.476 314.983C439.037 313.834 439.759 312.452 440.603 311.024C441.978 314.264 449.561 329.635 447.13 339.54C444.838 348.876 435.936 364.301 432.882 367.747C432.311 368.389 431.946 369.037 432.078 369.209C432.213 369.378 432.795 369.013 433.365 368.371C436.464 364.905 445.444 349.444 447.823 339.769C448.006 339.027 454.832 331.6 456.725 325.2C460.546 312.281 461.698 307.447 459.18 302.454C458.505 301.12 452.771 300.411 450.753 301.031C445.883 302.521 440.463 309.218 437.856 314.571C435.589 319.227 432.053 327.855 431.287 332.462C431.086 333.692 434.118 340.482 434.29 342.353C434.481 344.407 434.682 346.53 434.345 347.767C433.822 349.676 432.013 351.977 430.26 354.196ZM441.067 310.247C442.446 308.012 447.868 302.454 450.86 302.454C451.786 304.626 453.631 319.973 448.4 335.075C448.681 324.718 441.911 312.156 441.067 310.247ZM426.927 360.643C427.535 358.888 429.182 356.793 430.786 354.764C432.592 352.474 434.461 350.108 435.027 348.018C435.401 346.617 435.196 344.403 434.996 342.264C434.84 340.538 431.801 333.73 431.984 332.625C432.185 331.422 432.586 329.929 433.098 328.305C434.486 329.602 441.405 335.786 437.48 352.73C437.07 353.009 436.315 354.252 435.887 354.717C435.156 355.51 433.555 356.62 432.888 357.787C432.149 359.077 431.387 360.409 429.246 361.307C427.809 361.913 427.134 361.013 426.927 360.643Z" fill="#5D3A26"/>
<path d="M308.556 126.175C233.656 126.055 173.073 187.385 172.957 263.179C172.939 275.216 174.447 286.891 177.308 298.024H177.317C177.341 298.144 197.021 377.659 211.568 418.502C223.995 453.393 262.853 484.842 308.556 484.842C354.256 484.842 393.116 453.393 405.545 418.502C420.09 377.659 439.768 298.144 439.794 298.024H439.806C442.664 286.891 444.174 275.218 444.154 263.179C444.041 187.385 383.455 126.055 308.556 126.175Z" fill="#8B7163"/>
<path d="M412.741 175.464C429.335 198.448 436.981 227.099 437.028 258.196C437.05 272.587 432.82 293.04 432.82 293.04C432.793 293.16 413.835 372.675 399.813 413.519C387.837 448.408 352.605 479.859 308.558 479.859C264.509 479.859 229.284 448.408 217.307 413.519C203.281 372.675 184.316 293.16 184.292 293.04C184.292 293.04 180.07 270.419 180.09 258.196C180.137 227.105 187.772 198.463 204.362 175.484C184.8 199.238 173.013 229.801 172.962 263.179C172.944 275.216 174.452 286.891 177.312 298.023H177.321C177.346 298.144 197.026 377.659 211.573 418.502C223.999 453.393 262.858 484.842 308.56 484.842C354.26 484.842 393.121 453.393 405.55 418.502C420.095 377.659 439.772 298.144 439.799 298.023H439.81C442.668 286.891 444.179 275.218 444.159 263.179C444.105 229.792 432.312 199.221 412.741 175.464Z" fill="#836757"/>
<path d="M308.556 126.175C233.656 126.055 173.073 187.385 172.957 263.179C172.939 275.216 174.447 286.891 177.308 298.024H177.317C177.341 298.144 197.021 377.659 211.568 418.502C223.995 453.393 262.853 484.842 308.556 484.842C354.256 484.842 393.116 453.393 405.545 418.502C420.09 377.659 439.768 298.144 439.794 298.024H439.806C442.664 286.891 444.174 275.218 444.154 263.179C444.041 187.385 383.455 126.055 308.556 126.175Z" stroke="#5D3A26" stroke-width="4.5"/>
<path d="M308.453 441.918C296.96 441.918 287.312 435.164 287.312 435.164C307.373 437.579 331.947 433.729 331.947 433.729C331.947 433.729 322.967 441.918 308.453 441.918Z" fill="#836757"/>
<path opacity="0.5" d="M308.457 435.221C301.026 435.275 283.977 431.73 277.565 428.944C273.771 427.304 267.208 421.612 262.644 418.716C260.891 417.602 261.619 415.45 263.931 415.363C269.554 415.152 276.783 417.455 280.167 417.86C287.26 418.689 296.209 421.779 308.342 421.779C317.355 421.779 327.208 419.322 333.491 418.417C337.269 417.874 346.008 415.479 352.155 415.212C354.474 415.105 355.418 416.871 353.703 418.023C348.9 421.285 341.199 427.268 337.044 428.944C330.327 431.652 315.158 435.175 308.457 435.221Z" fill="black"/>
<path d="M272.506 415.613C272.506 415.613 273.297 420.797 274.502 422.278C276.164 424.317 286.267 428.503 290.301 429.088C293.046 429.481 298.076 430.104 300.843 430.398C303.844 430.717 305.53 430.43 308.553 430.352C311.81 430.269 314.59 430.632 317.769 430.062C320.035 429.654 326.656 428.28 328.819 427.616C330.481 427.101 333.831 426.246 335.351 425.497C336.614 424.882 340.512 422.65 341.285 421.663C342.297 420.369 343.237 415.784 343.237 415.784L272.506 415.613Z" fill="white"/>
<path opacity="0.1" d="M287.18 416.508C287.18 416.508 285.741 427.794 285.61 427.99C285.48 428.186 285.119 416.508 285.119 416.508H287.18ZM293.249 417.765L294.529 429.728L295.358 417.765H293.249ZM307.397 419.529L308.996 430.398L310.03 419.342L307.397 419.529ZM319.81 417.246C322.499 417.433 323.399 428.881 323.399 428.881L323.769 417.246H319.81ZM330.113 415.847C330.113 415.847 331.18 426.772 331.332 426.567C331.472 426.359 331.755 415.847 331.755 415.847H330.113ZM278.084 415.842L278.866 424.776L279.65 415.842H278.084ZM337.487 414.933L337.726 424.29L338.917 414.864L337.487 414.933Z" fill="black"/>
<path d="M355.144 415.181C351.78 414.314 344.727 414.916 341.161 414.555C336.101 414.045 325.847 413.679 320.737 413.793C317.529 413.864 311.206 414.769 308.001 414.826C304.71 414.884 298.161 413.844 294.872 413.822C289.657 413.797 279.153 414.278 274.036 414.965C270.505 415.437 263.287 414.724 260.458 415.978C259.805 416.27 260.198 417.58 260.458 418.075C262.844 422.537 272.036 427.574 279.989 431.86C290.207 437.371 300.952 439.08 309.402 439.082C320.549 439.089 333.68 434.281 344.665 427.037C349.526 423.833 355.677 420.525 356.695 417.435C357.216 415.876 356.015 415.406 355.144 415.181ZM308.312 430.614C301.438 430.657 285.487 427.99 278.752 425.286C274.714 423.664 268.527 419.781 264.314 417.364C262.688 416.437 279.129 419.852 282.268 420.186C288.817 420.879 297.096 421.866 308.31 421.866C316.635 421.866 325.751 421.409 331.561 420.656C335.052 420.202 353.155 416.063 351.582 417.025C347.124 419.743 339.626 423.896 334.845 425.711C328.781 428.024 314.506 430.565 308.312 430.614Z" fill="#DA7C87"/>
<path d="M272.535 425.858C279.689 426.977 295.795 433.573 309.331 433.217C323.439 432.845 344.38 423.08 347.14 424.152C348.183 426.712 319.917 439.073 309.331 439.269C299.83 439.441 269.543 428.766 272.535 425.858ZM307.397 419.529C315.99 419.44 326.487 418.583 333.562 415.956C325.507 413.793 314.392 416.201 307.999 416.315C299.707 416.464 292.774 414.319 285.095 416.439C292.431 418.378 299.972 419.607 307.397 419.529Z" fill="#E28C96"/>
<path d="M302.556 436.326C297.356 435.422 297.18 435.054 302.108 435.431C305.122 435.658 308.134 435.711 311.064 435.493C311.451 435.462 311.837 435.433 312.222 435.388C315.519 435.054 319.073 434.223 322.63 433.145C328.197 431.452 328.298 431.864 322.775 434.098C318.727 435.736 314.953 436.928 312.278 437.175L312.113 437.191C309.827 437.362 306.399 437.001 302.556 436.326Z" fill="#E99CA5"/>
<path d="M257.491 420.984C257.491 420.984 256.012 417.631 256.221 416.384C256.509 414.628 260.236 411.155 260.236 411.155C260.236 411.155 257.981 415.154 257.634 416.415C257.295 417.636 257.491 420.984 257.491 420.984ZM359.497 421.412C359.497 421.412 361.106 417.767 360.883 416.41C360.567 414.506 356.517 410.729 356.517 410.729C356.517 410.729 358.972 415.076 359.348 416.446C359.711 417.771 359.497 421.412 359.497 421.412Z" fill="#5D3A26"/>
<path d="M224.746 324.03C230.155 329.223 239.825 329.786 253.715 329.786C267.592 329.786 275.676 326.754 279.007 320.84C283.028 313.698 270.368 298.972 250.242 298.972C237.31 298.972 209.463 309.365 224.746 324.03Z" fill="url(#paint4_radial)"/>
<path d="M265.11 314.716C265.11 322.096 259.124 328.082 251.744 328.082C244.363 328.082 238.377 322.096 238.377 314.716C238.377 307.333 244.363 301.349 251.744 301.349C259.124 301.347 265.11 307.333 265.11 314.716Z" fill="#422423"/>
<path opacity="0.7" d="M250.247 301.496C250.195 301.503 250.142 301.509 250.088 301.516C250.153 301.817 250.215 302.12 250.278 302.421C250.264 302.115 250.258 301.804 250.247 301.496ZM250.276 302.418C250.432 306.812 250.688 310.726 251.427 312.14C251.817 310.59 251.153 306.727 250.276 302.418ZM251.43 312.143C251.334 312.515 251.189 312.768 250.966 312.853C250.743 312.938 250.463 312.84 250.146 312.624C250.238 312.996 250.229 313.285 250.066 313.466C249.906 313.646 249.618 313.691 249.235 313.64C249.487 313.929 249.616 314.194 249.56 314.426C249.5 314.658 249.262 314.831 248.908 314.965C249.262 315.105 249.5 315.279 249.556 315.511C249.612 315.743 249.482 316.008 249.233 316.295C249.612 316.248 249.904 316.297 250.059 316.478C250.218 316.658 250.227 316.95 250.137 317.322C250.452 317.106 250.728 317.012 250.951 317.099C251.176 317.184 251.32 317.438 251.409 317.812C251.59 317.473 251.79 317.257 252.033 317.233C252.265 317.202 252.514 317.364 252.766 317.652C252.768 317.269 252.849 316.986 253.049 316.85C253.245 316.714 253.537 316.741 253.893 316.879C253.72 316.54 253.66 316.253 253.771 316.039C253.882 315.827 254.156 315.714 254.537 315.669C254.223 315.448 254.032 315.223 254.036 314.983C254.036 314.742 254.223 314.517 254.542 314.301C254.163 314.254 253.893 314.141 253.78 313.929C253.671 313.718 253.731 313.428 253.909 313.089C253.548 313.223 253.259 313.25 253.062 313.114C252.864 312.978 252.784 312.695 252.784 312.312C252.535 312.597 252.285 312.755 252.049 312.724C251.808 312.693 251.606 312.483 251.43 312.143ZM252.782 312.31C253.849 311.118 255.056 307.388 256.279 303.167C254.377 307.126 252.784 310.71 252.782 312.31ZM256.277 303.167C256.411 302.895 256.547 302.619 256.674 302.343C256.627 302.327 256.58 302.305 256.533 302.285C256.449 302.581 256.364 302.877 256.277 303.167ZM253.909 313.089C255.406 312.528 258.211 309.786 261.254 306.618C257.732 309.238 254.653 311.672 253.909 313.089ZM261.254 306.618C261.477 306.451 261.706 306.284 261.933 306.116C261.902 306.076 261.867 306.043 261.84 306.007C261.646 306.208 261.452 306.415 261.254 306.618ZM254.537 314.301C256.126 314.497 259.884 313.372 264.054 311.982C259.715 312.668 255.861 313.392 254.537 314.301ZM264.054 311.984C264.299 311.949 264.555 311.909 264.805 311.868C264.796 311.826 264.785 311.784 264.774 311.742C264.535 311.822 264.29 311.904 264.054 311.984ZM254.535 315.667C255.849 316.585 259.699 317.331 264.03 318.035C259.875 316.625 256.126 315.477 254.535 315.667ZM264.032 318.035C264.244 318.108 264.457 318.184 264.667 318.253C264.678 318.215 264.687 318.18 264.694 318.142C264.477 318.108 264.252 318.073 264.032 318.035ZM253.893 316.876C254.635 318.296 257.698 320.748 261.205 323.39C258.177 320.205 255.393 317.447 253.893 316.876ZM261.207 323.386C261.339 323.524 261.474 323.667 261.606 323.807C261.628 323.78 261.648 323.76 261.673 323.736C261.517 323.62 261.356 323.502 261.207 323.386ZM252.768 317.649C252.762 319.251 254.335 322.842 256.215 326.812C255.014 322.586 253.831 318.848 252.768 317.649ZM256.215 326.814C256.262 326.982 256.311 327.153 256.355 327.325C256.389 327.311 256.411 327.302 256.442 327.293C256.368 327.133 256.29 326.968 256.215 326.814ZM251.412 317.81C250.663 319.229 250.385 323.134 250.204 327.525C251.104 323.226 251.793 319.365 251.412 317.81ZM250.204 327.525C250.166 327.692 250.135 327.861 250.1 328.033C250.131 328.04 250.155 328.04 250.186 328.044C250.191 327.873 250.2 327.694 250.204 327.525ZM250.14 317.32C248.812 318.226 246.751 321.561 244.552 325.362C247.346 321.976 249.752 318.875 250.14 317.32ZM244.552 325.362C244.434 325.502 244.312 325.652 244.192 325.792C244.221 325.81 244.245 325.823 244.276 325.845C244.365 325.685 244.461 325.522 244.552 325.362ZM249.237 316.297C247.642 316.482 244.267 318.476 240.554 320.817C244.604 319.12 248.168 317.496 249.237 316.297ZM240.551 320.822C240.36 320.902 240.164 320.982 239.966 321.067C239.979 321.096 239.999 321.127 240.017 321.156C240.197 321.047 240.375 320.933 240.551 320.822ZM248.91 314.967C247.415 314.395 243.499 314.593 239.119 314.943C243.494 315.317 247.411 315.533 248.91 314.967ZM239.119 314.943C238.881 314.92 238.636 314.898 238.399 314.878C238.399 314.92 238.395 314.963 238.399 315.003C238.642 314.981 238.885 314.961 239.119 314.943ZM249.237 313.644C248.184 312.443 244.628 310.799 240.592 309.075C244.287 311.436 247.651 313.45 249.237 313.644ZM240.592 309.075C240.36 308.926 240.126 308.776 239.89 308.627C239.87 308.669 239.847 308.712 239.825 308.75C240.084 308.859 240.342 308.966 240.592 309.075ZM250.149 312.624C249.772 311.069 247.384 307.959 244.613 304.553C246.787 308.366 248.83 311.71 250.149 312.624ZM244.613 304.553C244.463 304.296 244.319 304.036 244.169 303.775C244.127 303.804 244.082 303.833 244.045 303.862C244.232 304.091 244.428 304.323 244.613 304.553Z" fill="url(#paint5_radial)"/>
<path opacity="0.4" d="M253.718 301.541C253.664 301.534 253.613 301.525 253.562 301.519C253.546 301.826 253.526 302.136 253.508 302.441C253.575 302.142 253.649 301.839 253.718 301.541ZM253.506 302.439C252.521 306.72 251.753 310.568 252.105 312.129C252.882 310.73 253.239 306.827 253.506 302.439ZM252.103 312.129C251.915 312.463 251.71 312.671 251.472 312.695C251.236 312.717 250.991 312.553 250.744 312.261C250.735 312.642 250.65 312.922 250.447 313.054C250.247 313.185 249.955 313.154 249.601 313.007C249.77 313.352 249.826 313.642 249.71 313.849C249.592 314.059 249.318 314.165 248.941 314.201C249.247 314.426 249.431 314.656 249.425 314.896C249.42 315.135 249.227 315.357 248.91 315.569C249.287 315.622 249.556 315.745 249.661 315.957C249.768 316.17 249.701 316.458 249.518 316.792C249.877 316.665 250.169 316.647 250.363 316.788C250.556 316.928 250.63 317.211 250.621 317.596C250.882 317.318 251.131 317.16 251.372 317.197C251.606 317.229 251.804 317.449 251.973 317.795C252.074 317.422 252.225 317.173 252.455 317.093C252.68 317.013 252.956 317.115 253.263 317.34C253.183 316.968 253.199 316.674 253.361 316.498C253.524 316.322 253.818 316.284 254.199 316.338C253.952 316.043 253.825 315.778 253.891 315.547C253.954 315.315 254.194 315.146 254.558 315.019C254.201 314.876 253.972 314.696 253.916 314.462C253.865 314.228 253.998 313.965 254.259 313.684C253.876 313.72 253.588 313.671 253.435 313.488C253.279 313.306 253.274 313.012 253.372 312.644C253.056 312.853 252.775 312.942 252.555 312.851C252.325 312.76 252.187 312.504 252.103 312.129ZM253.368 312.644C254.707 311.766 256.837 308.476 259.111 304.718C256.248 308.048 253.784 311.096 253.368 312.644ZM259.111 304.715C259.309 304.488 259.512 304.256 259.708 304.023C259.666 303.994 259.628 303.96 259.586 303.929C259.427 304.194 259.269 304.459 259.111 304.715ZM254.255 313.687C255.847 313.531 259.267 311.606 263.025 309.336C258.942 310.955 255.339 312.51 254.255 313.687ZM263.023 309.334C263.284 309.231 263.546 309.129 263.812 309.026C263.789 308.979 263.765 308.937 263.749 308.895C263.509 309.042 263.268 309.191 263.023 309.334ZM254.549 315.021C256.032 315.622 259.953 315.507 264.34 315.246C259.971 314.783 256.061 314.484 254.549 315.021ZM264.34 315.244C264.589 315.273 264.843 315.299 265.095 315.326C265.095 315.282 265.097 315.239 265.099 315.197C264.845 315.213 264.589 315.228 264.34 315.244ZM254.194 316.34C255.224 317.567 258.752 319.283 262.753 321.083C259.102 318.643 255.778 316.567 254.194 316.34ZM262.751 321.083C262.936 321.21 263.123 321.337 263.308 321.457C263.328 321.423 263.346 321.39 263.364 321.357C263.163 321.27 262.954 321.176 262.751 321.083ZM253.259 317.342C253.606 318.904 255.932 322.065 258.637 325.527C256.536 321.664 254.56 318.278 253.259 317.342ZM258.637 325.52C258.73 325.687 258.821 325.861 258.915 326.03C258.942 326.01 258.968 325.995 258.997 325.977C258.877 325.826 258.755 325.67 258.637 325.52ZM251.973 317.797C251.555 319.341 252.143 323.217 252.931 327.539C252.862 323.146 252.688 319.229 251.973 317.797ZM252.929 327.539C252.931 327.712 252.936 327.891 252.936 328.069C252.967 328.064 252.996 328.06 253.027 328.06C252.996 327.888 252.962 327.71 252.929 327.539ZM250.621 317.598C249.529 318.775 248.251 322.475 246.941 326.67C248.921 322.751 250.588 319.2 250.621 317.598ZM246.939 326.67C246.861 326.821 246.783 326.977 246.707 327.133C246.734 327.147 246.758 327.153 246.787 327.167C246.836 327.004 246.89 326.832 246.939 326.67ZM249.516 316.796C248.001 317.329 245.145 320.018 242.038 323.119C245.618 320.57 248.741 318.198 249.516 316.796ZM242.04 323.119C241.891 323.224 241.735 323.337 241.583 323.442C241.605 323.466 241.628 323.486 241.648 323.513C241.775 323.382 241.908 323.252 242.04 323.119ZM248.91 315.573C247.322 315.342 243.548 316.393 239.351 317.694C243.706 317.102 247.567 316.456 248.91 315.573ZM239.351 317.699C239.146 317.728 238.934 317.752 238.72 317.786C238.727 317.819 238.738 317.852 238.749 317.884C238.952 317.826 239.153 317.759 239.351 317.699ZM248.939 314.208C247.643 313.265 243.809 312.443 239.489 311.648C243.619 313.143 247.344 314.366 248.939 314.208ZM239.489 311.648C239.264 311.566 239.032 311.481 238.81 311.399C238.798 311.441 238.785 311.481 238.776 311.519C239.019 311.561 239.257 311.606 239.489 311.648ZM249.601 313.012C248.892 311.579 245.885 309.071 242.43 306.359C245.388 309.601 248.117 312.417 249.601 313.012ZM242.427 306.362C242.243 306.159 242.055 305.954 241.868 305.749C241.837 305.785 241.804 305.818 241.775 305.852C241.995 306.021 242.216 306.19 242.427 306.362ZM250.744 312.263C250.781 310.663 249.282 307.041 247.482 303.036C248.596 307.282 249.705 311.04 250.744 312.263ZM247.482 303.036C247.406 302.751 247.333 302.459 247.257 302.169C247.21 302.185 247.161 302.202 247.117 302.22C247.237 302.492 247.362 302.766 247.482 303.036Z" fill="url(#paint6_radial)"/>
<path d="M256.988 314.716C256.988 317.612 254.642 319.958 251.746 319.958C248.852 319.958 246.502 317.612 246.502 314.716C246.502 311.822 248.852 309.472 251.746 309.472C254.642 309.472 256.988 311.82 256.988 314.716Z" fill="#422423"/>
<path opacity="0.9" d="M256.988 314.716C256.988 317.612 254.642 319.958 251.746 319.958C248.852 319.958 246.502 317.612 246.502 314.716C246.502 311.822 248.852 309.472 251.746 309.472C254.642 309.472 256.988 311.82 256.988 314.716Z" fill="black"/>
<path opacity="0.5" d="M244.43 320.838C245.43 320.165 246.789 320.437 247.46 321.435C248.13 322.435 247.865 323.794 246.863 324.464C245.86 325.139 244.504 324.872 243.833 323.87C243.163 322.869 243.43 321.508 244.43 320.838Z" fill="url(#paint7_linear)"/>
<path opacity="0.5" d="M255.887 313.985C255.328 314.818 253.729 314.722 252.31 313.771C250.888 312.82 250.193 311.369 250.75 310.539V310.536C251.307 309.703 252.909 309.799 254.326 310.752C255.749 311.701 256.444 313.149 255.887 313.985Z" fill="url(#paint8_linear)"/>
<path opacity="0.75" d="M262.25 311.759C260.985 313.704 257.714 313.82 254.954 312.02C252.192 310.22 250.98 307.186 252.247 305.241C253.513 303.299 256.783 303.183 259.543 304.98C262.303 306.783 263.515 309.819 262.25 311.759Z" fill="url(#paint9_linear)"/>
<path d="M207.857 302.452C207.857 333.21 226.808 369.293 250.184 369.293C273.56 369.293 292.511 344.358 292.511 313.599C292.511 282.841 273.56 257.906 250.184 257.906C226.808 257.906 207.857 271.693 207.857 302.452ZM224.745 324.03C209.465 309.365 237.312 298.972 250.24 298.972C270.365 298.972 283.026 313.697 279.005 320.84C275.676 326.752 267.592 329.786 253.713 329.786C239.823 329.786 230.154 329.22 224.745 324.03Z" fill="#8B7163"/>
<path d="M216.539 312.599C216.372 329.21 235.802 342.594 256.723 342.514C277.639 342.418 294.566 328.889 294.51 312.276C294.459 295.666 277.474 282.28 256.549 282.367C235.626 282.46 216.766 289.876 216.539 312.599ZM250.24 299.418C270.366 299.418 283.028 313.992 279.005 321.063C275.676 326.915 267.592 329.918 253.713 329.918C239.823 329.918 230.152 329.359 224.741 324.219C209.463 309.703 237.31 299.418 250.24 299.418Z" fill="url(#paint10_radial)"/>
<path d="M224.746 324.03C230.155 329.223 239.825 329.786 253.715 329.786C267.592 329.786 275.676 326.754 279.007 320.84C283.028 313.698 270.368 298.972 250.242 298.972C237.31 298.972 209.463 309.365 224.746 324.03Z" fill="url(#paint11_radial)"/>
<path d="M284.465 308.796C285.233 308.03 273.894 292.024 254.66 291.349C234.32 290.638 217.258 304.753 217.258 304.753C217.258 304.753 235.753 291.367 254.17 292.356C275.58 293.507 283.859 309.4 284.465 308.796Z" fill="#5D3A26"/>
<path d="M278.43 322.241L279.176 317.132C271.782 297.74 244.606 292.304 221.883 312.432C221.083 313.461 220.172 314.261 220.84 316.513L226.88 326.502C221.386 321.256 218.544 317.273 215.926 313.544L213.805 312.434C242.534 284.901 274.177 291.371 284.463 315.858L281.968 315.486L278.43 322.241ZM269.722 327.737C260.125 328.984 252.931 330.138 240.148 329.43C248.297 331.341 261.417 330.751 269.722 327.737Z" fill="#2F1C1C"/>
<path d="M391.468 324.03C386.059 329.223 376.389 329.786 362.498 329.786C348.622 329.786 340.537 326.754 337.207 320.84C333.186 313.698 345.846 298.972 365.972 298.972C378.901 298.972 406.748 309.365 391.468 324.03Z" fill="url(#paint12_radial)"/>
<path d="M378.726 314.716C378.726 322.096 372.74 328.082 365.361 328.082C357.981 328.082 351.993 322.096 351.993 314.716C351.993 307.333 357.981 301.349 365.361 301.349C372.74 301.347 378.726 307.333 378.726 314.716Z" fill="#422423"/>
<path opacity="0.7" d="M363.862 301.496C363.811 301.503 363.757 301.509 363.704 301.516C363.768 301.817 363.833 302.12 363.893 302.421C363.88 302.115 363.873 301.804 363.862 301.496ZM363.891 302.418C364.044 306.812 364.303 310.726 365.045 312.14C365.432 310.59 364.768 306.727 363.891 302.418ZM365.042 312.143C364.949 312.515 364.802 312.768 364.581 312.853C364.356 312.938 364.078 312.84 363.764 312.624C363.853 312.996 363.844 313.285 363.684 313.466C363.523 313.646 363.236 313.691 362.855 313.64C363.104 313.929 363.236 314.194 363.18 314.426C363.118 314.658 362.882 314.831 362.527 314.965C362.879 315.105 363.118 315.279 363.173 315.511C363.229 315.743 363.102 316.008 362.85 316.295C363.229 316.248 363.519 316.297 363.675 316.478C363.833 316.658 363.842 316.95 363.753 317.322C364.067 317.106 364.345 317.012 364.566 317.099C364.793 317.184 364.936 317.438 365.025 317.812C365.203 317.473 365.408 317.257 365.646 317.233C365.88 317.202 366.13 317.364 366.379 317.652C366.384 317.269 366.462 316.986 366.664 316.85C366.858 316.714 367.152 316.741 367.509 316.879C367.335 316.54 367.277 316.253 367.384 316.039C367.497 315.827 367.771 315.714 368.152 315.669C367.838 315.448 367.644 315.223 367.651 314.983C367.649 314.742 367.838 314.517 368.157 314.301C367.776 314.254 367.509 314.141 367.395 313.929C367.284 313.718 367.346 313.428 367.522 313.089C367.163 313.223 366.874 313.25 366.675 313.114C366.477 312.978 366.399 312.695 366.397 312.312C366.15 312.597 365.898 312.755 365.662 312.724C365.423 312.693 365.221 312.483 365.042 312.143ZM366.397 312.31C367.464 311.118 368.671 307.388 369.892 303.167C367.992 307.126 366.401 310.71 366.397 312.31ZM369.892 303.167C370.026 302.895 370.162 302.619 370.291 302.343C370.244 302.327 370.197 302.305 370.151 302.285C370.064 302.581 369.979 302.877 369.892 303.167ZM367.524 313.089C369.023 312.528 371.828 309.786 374.871 306.618C371.347 309.238 368.27 311.672 367.524 313.089ZM374.871 306.618C375.094 306.451 375.321 306.284 375.551 306.116C375.517 306.076 375.484 306.043 375.457 306.007C375.261 306.208 375.067 306.415 374.871 306.618ZM368.155 314.301C369.743 314.497 373.499 313.372 377.669 311.982C373.33 312.668 369.476 313.392 368.155 314.301ZM377.669 311.984C377.914 311.949 378.171 311.909 378.42 311.868C378.409 311.826 378.4 311.784 378.389 311.742C378.151 311.822 377.905 311.904 377.669 311.984ZM368.15 315.667C369.467 316.585 373.314 317.331 377.647 318.035C373.49 316.625 369.741 315.477 368.15 315.667ZM377.647 318.035C377.859 318.108 378.07 318.184 378.282 318.253C378.293 318.215 378.302 318.18 378.311 318.142C378.093 318.108 377.865 318.073 377.647 318.035ZM367.509 316.876C368.248 318.296 371.314 320.748 374.82 323.39C371.795 320.205 369.008 317.447 367.509 316.876ZM374.822 323.386C374.954 323.524 375.087 323.667 375.219 323.807C375.241 323.78 375.263 323.76 375.288 323.736C375.132 323.62 374.972 323.502 374.822 323.386ZM366.386 317.649C366.379 319.251 367.95 322.842 369.832 326.812C368.629 322.586 367.446 318.848 366.386 317.649ZM369.832 326.814C369.879 326.982 369.928 327.153 369.972 327.325C370.006 327.311 370.03 327.302 370.059 327.293C369.984 327.133 369.906 326.968 369.832 326.814ZM365.027 317.81C364.278 319.229 364 323.134 363.819 327.525C364.719 323.226 365.408 319.365 365.027 317.81ZM363.819 327.525C363.782 327.692 363.75 327.861 363.715 328.033C363.746 328.04 363.768 328.04 363.802 328.044C363.806 327.873 363.815 327.694 363.819 327.525ZM363.753 317.32C362.425 318.226 360.364 321.561 358.165 325.362C360.961 321.976 363.365 318.875 363.753 317.32ZM358.165 325.362C358.05 325.502 357.927 325.652 357.807 325.792C357.836 325.81 357.86 325.823 357.889 325.845C357.981 325.685 358.076 325.522 358.165 325.362ZM362.85 316.297C361.255 316.482 357.882 318.476 354.169 320.817C358.219 319.12 361.783 317.496 362.85 316.297ZM354.169 320.822C353.975 320.902 353.779 320.982 353.583 321.067C353.596 321.096 353.614 321.127 353.634 321.156C353.812 321.047 353.991 320.933 354.169 320.822ZM362.527 314.967C361.03 314.395 357.114 314.593 352.734 314.943C357.112 315.317 361.026 315.533 362.527 314.967ZM352.734 314.943C352.498 314.92 352.251 314.898 352.017 314.878C352.015 314.92 352.01 314.963 352.015 315.003C352.257 314.981 352.5 314.961 352.734 314.943ZM362.855 313.644C361.799 312.443 358.246 310.799 354.207 309.075C357.903 311.436 361.266 313.45 362.855 313.644ZM354.207 309.075C353.975 308.926 353.739 308.776 353.505 308.627C353.485 308.669 353.463 308.712 353.443 308.75C353.699 308.859 353.959 308.966 354.207 309.075ZM363.764 312.624C363.387 311.069 360.999 307.959 358.228 304.553C360.402 308.366 362.445 311.71 363.764 312.624ZM358.228 304.553C358.079 304.296 357.931 304.036 357.787 303.775C357.744 303.804 357.7 303.833 357.66 303.862C357.849 304.091 358.043 304.323 358.228 304.553Z" fill="url(#paint13_radial)"/>
<path opacity="0.4" d="M367.333 301.541C367.279 301.534 367.228 301.525 367.177 301.519C367.159 301.826 367.141 302.136 367.123 302.441C367.188 302.142 367.262 301.839 367.333 301.541ZM367.121 302.439C366.134 306.72 365.368 310.568 365.718 312.129C366.497 310.73 366.854 306.827 367.121 302.439ZM365.718 312.129C365.531 312.463 365.323 312.671 365.087 312.695C364.851 312.717 364.606 312.553 364.359 312.261C364.35 312.642 364.265 312.922 364.063 313.054C363.862 313.185 363.57 313.154 363.216 313.007C363.383 313.352 363.441 313.642 363.325 313.849C363.205 314.059 362.933 314.165 362.554 314.201C362.862 314.426 363.044 314.656 363.038 314.896C363.033 315.135 362.839 315.357 362.525 315.569C362.904 315.622 363.169 315.745 363.276 315.957C363.383 316.17 363.316 316.458 363.134 316.792C363.494 316.665 363.786 316.647 363.98 316.788C364.174 316.928 364.247 317.211 364.236 317.596C364.497 317.318 364.746 317.16 364.987 317.197C365.221 317.229 365.419 317.449 365.589 317.795C365.691 317.422 365.84 317.173 366.07 317.093C366.295 317.013 366.573 317.115 366.878 317.34C366.8 316.968 366.816 316.674 366.979 316.498C367.139 316.322 367.433 316.284 367.814 316.338C367.569 316.043 367.44 315.778 367.507 315.547C367.567 315.315 367.81 315.146 368.173 315.019C367.819 314.876 367.587 314.696 367.531 314.462C367.482 314.228 367.616 313.965 367.874 313.684C367.491 313.72 367.201 313.671 367.05 313.488C366.894 313.306 366.89 313.012 366.99 312.644C366.671 312.853 366.391 312.942 366.17 312.851C365.943 312.76 365.8 312.504 365.718 312.129ZM366.983 312.644C368.322 311.766 370.452 308.476 372.726 304.718C369.864 308.048 367.4 311.096 366.983 312.644ZM372.726 304.715C372.925 304.488 373.127 304.256 373.326 304.023C373.281 303.994 373.243 303.96 373.201 303.929C373.043 304.194 372.884 304.459 372.726 304.715ZM367.87 313.687C369.463 313.531 372.88 311.606 376.64 309.336C372.557 310.955 368.955 312.51 367.87 313.687ZM376.638 309.334C376.897 309.231 377.159 309.129 377.427 309.026C377.405 308.979 377.38 308.937 377.364 308.895C377.124 309.042 376.883 309.191 376.638 309.334ZM368.164 315.021C369.648 315.622 373.568 315.507 377.957 315.246C373.584 314.783 369.676 314.484 368.164 315.021ZM377.955 315.244C378.202 315.273 378.458 315.299 378.71 315.326C378.712 315.282 378.712 315.239 378.714 315.197C378.463 315.213 378.204 315.228 377.955 315.244ZM367.81 316.34C368.841 317.567 372.368 319.283 376.369 321.083C372.717 318.643 369.394 316.567 367.81 316.34ZM376.366 321.083C376.549 321.21 376.738 321.337 376.923 321.457C376.943 321.423 376.963 321.39 376.977 321.357C376.779 321.27 376.569 321.176 376.366 321.083ZM366.876 317.342C367.221 318.904 369.547 322.065 372.252 325.527C370.151 321.664 368.177 318.278 366.876 317.342ZM372.254 325.52C372.345 325.687 372.437 325.861 372.53 326.03C372.557 326.01 372.581 325.995 372.613 325.977C372.492 325.826 372.368 325.67 372.254 325.52ZM365.589 317.797C365.17 319.341 365.758 323.217 366.546 327.539C366.477 323.146 366.304 319.229 365.589 317.797ZM366.544 327.539C366.546 327.712 366.551 327.891 366.551 328.069C366.584 328.064 366.609 328.06 366.64 328.06C366.611 327.888 366.578 327.71 366.544 327.539ZM364.234 317.598C363.145 318.775 361.864 322.475 360.554 326.67C362.537 322.751 364.201 319.2 364.234 317.598ZM360.554 326.67C360.476 326.821 360.4 326.977 360.322 327.133C360.349 327.147 360.371 327.153 360.4 327.167C360.451 327.004 360.505 326.832 360.554 326.67ZM363.131 316.796C361.616 317.329 358.763 320.018 355.655 323.119C359.233 320.57 362.356 318.198 363.131 316.796ZM355.655 323.119C355.506 323.224 355.348 323.337 355.198 323.442C355.221 323.466 355.243 323.486 355.263 323.513C355.39 323.382 355.526 323.252 355.655 323.119ZM362.525 315.573C360.937 315.342 357.165 316.393 352.968 317.694C357.321 317.102 361.184 316.456 362.525 315.573ZM352.968 317.699C352.761 317.728 352.55 317.752 352.338 317.786C352.347 317.819 352.356 317.852 352.367 317.884C352.567 317.826 352.768 317.759 352.968 317.699ZM362.554 314.208C361.258 313.265 357.424 312.443 353.104 311.648C357.234 313.143 360.959 314.366 362.554 314.208ZM353.104 311.648C352.879 311.566 352.648 311.481 352.425 311.399C352.411 311.441 352.4 311.481 352.391 311.519C352.632 311.561 352.873 311.606 353.104 311.648ZM363.216 313.012C362.508 311.579 359.498 309.071 356.043 306.359C359.003 309.601 361.732 312.417 363.216 313.012ZM356.043 306.362C355.858 306.159 355.671 305.954 355.483 305.749C355.45 305.785 355.421 305.818 355.388 305.852C355.608 306.021 355.833 306.19 356.043 306.362ZM364.359 312.263C364.397 310.663 362.897 307.041 361.097 303.036C362.213 307.282 363.321 311.04 364.359 312.263ZM361.097 303.036C361.022 302.751 360.948 302.459 360.87 302.169C360.823 302.185 360.774 302.202 360.73 302.22C360.852 302.492 360.977 302.766 361.097 303.036Z" fill="url(#paint14_radial)"/>
<path d="M370.603 314.716C370.603 317.612 368.255 319.958 365.361 319.958C362.465 319.958 360.117 317.612 360.117 314.716C360.117 311.822 362.467 309.472 365.361 309.472C368.259 309.472 370.603 311.82 370.603 314.716Z" fill="#422423"/>
<path opacity="0.9" d="M370.603 314.716C370.603 317.612 368.255 319.958 365.361 319.958C362.465 319.958 360.117 317.612 360.117 314.716C360.117 311.822 362.467 309.472 365.361 309.472C368.259 309.472 370.603 311.82 370.603 314.716Z" fill="black"/>
<path opacity="0.5" d="M358.047 320.838C359.046 320.165 360.407 320.437 361.075 321.435C361.748 322.435 361.483 323.794 360.478 324.464C359.475 325.139 358.119 324.872 357.45 323.87C356.778 322.869 357.045 321.508 358.047 320.838Z" fill="url(#paint15_linear)"/>
<path opacity="0.5" d="M369.5 313.985C368.941 314.818 367.342 314.722 365.925 313.771C364.503 312.82 363.808 311.369 364.365 310.539L364.368 310.536C364.925 309.703 366.526 309.799 367.943 310.752C369.364 311.701 370.06 313.149 369.5 313.985Z" fill="url(#paint16_linear)"/>
<path opacity="0.75" d="M375.867 311.759C374.6 313.704 371.332 313.82 368.569 312.02C365.809 310.22 364.595 307.186 365.863 305.241C367.128 303.299 370.396 303.183 373.158 304.98C375.919 306.783 377.13 309.819 375.867 311.759Z" fill="url(#paint17_linear)"/>
<path d="M366.029 257.906C342.654 257.906 323.702 282.841 323.702 313.599C323.702 344.358 342.654 369.293 366.029 369.293C389.405 369.293 408.357 334.734 408.357 303.978C408.357 273.222 389.405 257.906 366.029 257.906ZM362.498 329.786C348.622 329.786 340.537 326.754 337.207 320.84C333.186 313.697 345.846 298.972 365.971 298.972C378.901 298.972 406.748 309.365 391.466 324.03C386.059 329.22 376.388 329.786 362.498 329.786Z" fill="#8B7163"/>
<path d="M359.662 282.367C338.737 282.28 321.753 295.669 321.702 312.276C321.646 328.891 338.572 342.418 359.489 342.514C380.409 342.596 399.84 329.21 399.673 312.599C399.448 289.876 380.588 282.46 359.662 282.367ZM391.47 324.219C386.059 329.359 376.388 329.918 362.498 329.918C348.622 329.918 340.537 326.915 337.207 321.063C333.183 313.994 345.846 299.418 365.971 299.418C378.901 299.418 406.75 309.703 391.47 324.219Z" fill="url(#paint18_radial)"/>
<path d="M391.468 324.03C386.059 329.223 376.389 329.786 362.498 329.786C348.622 329.786 340.537 326.754 337.207 320.84C333.186 313.698 345.846 298.972 365.972 298.972C378.901 298.972 406.748 309.365 391.468 324.03Z" fill="url(#paint19_radial)"/>
<path d="M331.749 308.796C330.98 308.03 342.32 292.024 361.554 291.349C381.893 290.638 398.956 304.753 398.956 304.753C398.956 304.753 380.461 291.367 362.044 292.356C340.631 293.507 332.355 309.4 331.749 308.796Z" fill="#5D3A26"/>
<path d="M334.244 315.484L331.749 315.856C342.034 291.371 373.675 284.899 402.406 312.432L400.285 313.541C397.668 317.271 394.825 321.254 389.332 326.5L395.371 316.511C396.039 314.261 395.13 313.459 394.328 312.43C371.605 292.302 344.431 297.738 337.035 317.13L337.782 322.238L334.244 315.484ZM376.065 329.427C363.283 330.136 356.087 328.982 346.492 327.734C354.797 330.751 367.914 331.341 376.065 329.427Z" fill="#2F1C1C"/>
<path d="M399.889 378.149C399.967 428.545 359.139 469.473 308.689 469.542C258.248 469.625 217.289 428.835 217.211 378.427C217.133 328.036 257.961 286.947 308.408 286.867C358.851 286.789 399.815 327.746 399.889 378.149Z" fill="url(#paint20_radial)"/>
<path d="M392.091 244.54C392.091 290.678 354.69 328.08 308.553 328.08C262.414 328.08 225.01 290.678 225.01 244.54C225.01 198.401 262.414 160.999 308.553 160.999C354.69 160.999 392.091 198.401 392.091 244.54Z" fill="url(#paint21_radial)"/>
<path d="M202.706 288.807C219.359 267.904 248.014 271.381 271.495 274.741C277.467 275.596 283.616 276.238 289.473 277.717C293.67 278.775 296.969 283.558 293.596 287.421C292.019 289.259 288.577 288.918 286.452 288.874C258.335 288.306 226.554 272.137 202.706 288.807Z" fill="#2A232B"/>
<path d="M414.541 287.96C409.72 284.734 404.618 282.458 398.851 281.524C377.694 278.094 337.396 292.195 326.803 289.21C320.316 287.379 321.628 280.881 324.497 279.279C326.224 278.314 326.703 278.339 342.117 275.688C368.308 271.188 397.634 267.61 414.541 287.96Z" fill="#2A232B"/>
<path d="M308.01 391.571C305.983 391.571 303.822 391.584 301.948 390.744C299.945 389.842 298.611 389.481 296.537 388.735C294.534 388.013 292.126 389.773 290.121 389.94C288.499 390.074 286.648 389.608 285.659 388.338C282.319 384.068 286.296 381.441 286.296 381.441C286.296 381.441 284.997 384.44 285.824 385.768C286.534 386.902 287.581 387.828 288.873 388.136C291.03 388.659 293.082 387.075 295.198 386.911C297.564 386.726 299.281 386.683 300.995 388.067C302.703 389.446 304.572 389.709 306.747 389.82C308.765 389.929 310.884 390.016 312.779 389.234C314.435 388.559 315.82 387.374 317.373 386.503C320.675 384.652 323.27 386.975 326.716 387.913C329.474 388.666 332.453 385.997 331.372 382.956C330.755 381.225 330.855 380.194 330.855 380.194C330.855 380.194 333.486 381.386 333.328 384.324C333.13 387.982 329.94 390.548 326.34 389.584C324.571 389.116 322.664 387.784 320.786 388.122C318.877 388.463 317.406 388.465 315.82 389.508C313.423 391.085 310.884 391.571 308.01 391.571Z" fill="#5D3A26"/>
<path d="M293.661 369.766C293.661 369.766 300.89 359.701 307.457 359.578C313.539 359.467 321.546 368.418 321.546 368.418C321.546 368.418 314.17 365.328 306.869 365.843C300.353 366.299 293.661 369.766 293.661 369.766Z" fill="#836757"/>
<path d="M289.593 506.235C263.707 497.547 265.155 481.975 255.174 470.502C244.793 458.963 224.387 444.861 234.211 431.45C251.944 441.096 257.803 417.905 264.308 409.818C275.647 396.853 292.645 393.088 308.44 398.524C327.665 392.464 347.203 398.212 357.584 417.348C363.577 428.309 369.012 438.2 382.869 431.428C390.688 442.188 379.349 453.215 369.369 462.95C365.537 466.693 361.906 470.213 359.633 473.465C351.747 484.092 352.349 497.636 327.643 506.169C318.42 509.555 299.93 510.067 289.593 506.235ZM280.081 415.945C269.833 419.977 264.999 429.111 267.137 440.383C269.432 452.524 278.632 462.416 287.61 462.416C299.596 462.416 306.167 445.529 308.529 433.9C323.722 506.013 382.379 420.378 327.487 413.427C323.41 412.893 292.289 410.932 280.081 415.945Z" fill="#2A232B"/>
<path d="M234.167 431.16C240.627 448.915 257.001 455.621 262.86 466.225C270.278 479.68 274.712 492.022 287.41 505.701C263.64 496.856 264.642 481.73 255.018 470.658C250.095 465.2 247.088 462.794 241.919 457.514C234.323 449.673 227.372 440.205 234.167 431.16C231.337 431.628 237.976 433.254 234.167 431.16ZM382.936 431.16C376.475 448.915 360.101 455.621 354.242 466.225C346.824 479.68 342.391 492.022 329.692 505.701C353.463 496.856 352.438 481.73 362.084 470.658C367.007 465.2 370.015 462.794 375.183 457.514C382.78 449.673 389.73 440.205 382.936 431.16C385.765 431.628 379.126 433.254 382.936 431.16Z" fill="#1B141C"/>
<path d="M382.958 431.16C368.99 438.066 363.688 428.042 357.628 416.947C347.581 398.034 327.22 392.264 308.529 398.323C293.514 393.155 276.16 395.984 264.152 409.685C257.558 417.861 251.855 440.962 234.167 431.16C227.372 440.205 234.323 449.673 241.919 457.515C247.088 462.794 250.095 465.2 255.018 470.658C264.932 482.064 263.573 497.748 289.526 506.458C300.353 510.468 318.977 509.599 327.732 506.414C352.505 497.859 352.037 484.158 359.834 473.621C368.01 461.881 394.208 446.264 382.958 431.16ZM357.005 471.639C351.925 478.522 348.717 489.906 341.433 495.253C333.569 501.312 323.499 506.08 312.182 506.971C312.004 507.06 305.009 507.104 301.601 506.636C291.464 505.612 278.521 498.438 272.038 491.822C265.645 483.936 264.709 476.339 256.645 467.272C246.33 455.933 227.172 445.886 234.434 432.096C238.065 433.767 245.885 438.178 254.172 429.668C260.944 422.628 269.254 390.214 308.573 399.415C327.197 395.049 346.467 400.752 355.423 418.15C362.953 431.673 369.057 438.957 382.646 432.118C390.978 446.821 366.406 458.072 357.005 471.639ZM345.933 420.111C336.509 410.955 321.584 411.556 308.573 412.759C287.9 410.843 266.291 412.96 265.132 433.967C263.484 460.879 299.417 484.003 308.551 436.017C318.064 484.181 353.596 460.633 351.97 433.967C351.769 430.314 350.923 427.975 350.901 427.975C350.032 425.168 348.339 422.294 345.933 420.111ZM310.846 441.653C309.754 438.178 308.93 434.858 308.551 432.742C307.727 437.443 305.544 444.816 302.67 450.364C283.779 486.676 247.132 429.133 280.17 416.168C292.378 411.155 323.522 413.16 327.487 413.673C378.658 420.133 329.938 498.461 310.846 441.653Z" fill="black"/>
<path d="M438.718 216.305C397.661 113.628 308.551 125.145 308.551 125.145C308.551 125.145 219.441 113.63 178.384 216.305C157.788 267.81 183.191 328.414 183.191 328.414H196.17C184.822 279.956 197.943 289.068 198.79 280.023C199.053 277.227 198.121 272.522 197.852 269.726C196.533 256.11 202.267 229.562 209.536 218.103C213.108 212.475 221.497 203.268 227.746 200.951C249.957 192.722 272.399 202.544 278.659 204.117C288.597 206.612 328.5 206.612 338.443 204.117C345.89 202.248 367.809 193.19 389.356 201.174C395.607 203.491 404.663 212.25 408.234 217.88C415.503 229.339 420.569 253.88 419.25 267.496C418.98 270.292 418.049 277.225 418.31 280.023C418.548 282.578 424.14 288.241 424.766 290.732C427.35 301.006 420.93 328.414 420.93 328.414H433.906C433.909 328.414 459.316 267.81 438.718 216.305Z" fill="#2A232B"/>
<path d="M430.939 193.667C389.146 117.306 312.96 122.838 308.551 123.23C304.142 122.838 227.958 117.306 186.163 193.667C153.878 252.653 178.384 320.59 181.362 328.332C181.531 328.771 184.873 328.416 184.873 328.416C184.86 328.383 184.641 327.543 184.503 327.191C181.81 320.241 157.349 253.274 189.095 195.273C230.827 119.026 307.649 126.487 308.417 126.574L308.551 125.366L308.685 126.574C309.453 126.487 386.275 119.026 428.01 195.271C460.452 254.551 434.187 323.195 432.456 327.561C432.409 327.684 432.218 328.396 432.209 328.414C432.209 328.414 435.564 328.791 435.718 328.39C438.594 320.94 463.306 252.804 430.939 193.667Z" fill="black"/>
</g>
<defs>
<linearGradient id="paint0_linear" x1="300" y1="-75" x2="300" y2="675" gradientUnits="userSpaceOnUse">
<stop stop-color="#151371"/>
<stop offset="0.453125" stop-color="#FF00B8"/>
<stop offset="0.96875" stop-color="#FFC700"/>
</linearGradient>
<linearGradient id="paint1_linear" x1="439" y1="245" x2="439" y2="644" gradientUnits="userSpaceOnUse">
<stop stop-color="#FF00B8"/>
<stop offset="1" stop-color="#F0DB0A" stop-opacity="0"/>
</linearGradient>
<linearGradient id="paint2_linear" x1="194" y1="161" x2="194" y2="560" gradientUnits="userSpaceOnUse">
<stop stop-color="#FF00B8"/>
<stop offset="1" stop-color="#F0DB0A" stop-opacity="0"/>
</linearGradient>
<linearGradient id="paint3_linear" x1="308.551" y1="507.416" x2="308.551" y2="409.395" gradientUnits="userSpaceOnUse">
<stop stop-color="#7C5D4C" stop-opacity="0.8"/>
<stop offset="0.7" stop-color="#5D3A26"/>
</linearGradient>
<radialGradient id="paint4_radial" cx="0" cy="0" r="1" gradientUnits="userSpaceOnUse" gradientTransform="translate(250.017 314.379) rotate(180) scale(23.6787)">
<stop stop-color="white"/>
<stop offset="0.544" stop-color="#FDFEFE"/>
<stop offset="0.74" stop-color="#F6F8F9"/>
<stop offset="0.879" stop-color="#EAEFF2"/>
<stop offset="0.992" stop-color="#D9E3E8"/>
<stop offset="1" stop-color="#D8E2E7"/>
</radialGradient>
<radialGradient id="paint5_radial" cx="0" cy="0" r="1" gradientUnits="userSpaceOnUse" gradientTransform="translate(251.576 314.76) rotate(-14.4847) scale(13.1981 13.201)">
<stop stop-color="white"/>
<stop offset="1" stop-color="white" stop-opacity="0"/>
</radialGradient>
<radialGradient id="paint6_radial" cx="0" cy="0" r="1" gradientUnits="userSpaceOnUse" gradientTransform="translate(251.577 314.775) rotate(0.512025) scale(13.1904 13.1907)">
<stop stop-color="white"/>
<stop offset="1" stop-color="white" stop-opacity="0"/>
</radialGradient>
<linearGradient id="paint7_linear" x1="244.325" y1="324.224" x2="246.411" y2="321.738" gradientUnits="userSpaceOnUse">
<stop stop-color="white"/>
<stop offset="1" stop-color="white" stop-opacity="0"/>
</linearGradient>
<linearGradient id="paint8_linear" x1="254.444" y1="310.919" x2="252.775" y2="312.909" gradientUnits="userSpaceOnUse">
<stop stop-color="white"/>
<stop offset="1" stop-color="white" stop-opacity="0"/>
</linearGradient>
<linearGradient id="paint9_linear" x1="259.844" y1="305.408" x2="255.999" y2="309.991" gradientUnits="userSpaceOnUse">
<stop stop-color="white"/>
<stop offset="1" stop-color="white" stop-opacity="0"/>
</linearGradient>
<radialGradient id="paint10_radial" cx="0" cy="0" r="1" gradientUnits="userSpaceOnUse" gradientTransform="translate(255.717 311.258) rotate(1.18036) scale(38.3601 30.3721)">
<stop stop-color="#7C5D4C"/>
<stop offset="0.7" stop-color="#7C5D4C" stop-opacity="0.3"/>
<stop offset="1" stop-color="#8B7163" stop-opacity="0"/>
</radialGradient>
<radialGradient id="paint11_radial" cx="0" cy="0" r="1" gradientUnits="userSpaceOnUse" gradientTransform="translate(257.271 357.837) rotate(-158.999) scale(61.2582 52.0652)">
<stop offset="0.95" stop-opacity="0"/>
<stop offset="1" stop-opacity="0.2"/>
</radialGradient>
<radialGradient id="paint12_radial" cx="0" cy="0" r="1" gradientUnits="userSpaceOnUse" gradientTransform="translate(366.194 314.379) scale(23.6787)">
<stop stop-color="white"/>
<stop offset="0.544" stop-color="#FDFEFE"/>
<stop offset="0.74" stop-color="#F6F8F9"/>
<stop offset="0.879" stop-color="#EAEFF2"/>
<stop offset="0.992" stop-color="#D9E3E8"/>
<stop offset="1" stop-color="#D8E2E7"/>
</radialGradient>
<radialGradient id="paint13_radial" cx="0" cy="0" r="1" gradientUnits="userSpaceOnUse" gradientTransform="translate(365.19 314.76) rotate(-14.4847) scale(13.1983 13.2012)">
<stop stop-color="white"/>
<stop offset="1" stop-color="white" stop-opacity="0"/>
</radialGradient>
<radialGradient id="paint14_radial" cx="0" cy="0" r="1" gradientUnits="userSpaceOnUse" gradientTransform="translate(365.192 314.775) rotate(0.512025) scale(13.1909 13.1911)">
<stop stop-color="white"/>
<stop offset="1" stop-color="white" stop-opacity="0"/>
</radialGradient>
<linearGradient id="paint15_linear" x1="357.941" y1="324.224" x2="360.026" y2="321.738" gradientUnits="userSpaceOnUse">
<stop stop-color="white"/>
<stop offset="1" stop-color="white" stop-opacity="0"/>
</linearGradient>
<linearGradient id="paint16_linear" x1="368.059" y1="310.919" x2="366.39" y2="312.909" gradientUnits="userSpaceOnUse">
<stop stop-color="white"/>
<stop offset="1" stop-color="white" stop-opacity="0"/>
</linearGradient>
<linearGradient id="paint17_linear" x1="373.459" y1="305.408" x2="369.614" y2="309.991" gradientUnits="userSpaceOnUse">
<stop stop-color="white"/>
<stop offset="1" stop-color="white" stop-opacity="0"/>
</linearGradient>
<radialGradient id="paint18_radial" cx="0" cy="0" r="1" gradientUnits="userSpaceOnUse" gradientTransform="translate(360.497 311.258) rotate(178.82) scale(38.3601 30.3721)">
<stop stop-color="#7C5D4C"/>
<stop offset="0.7" stop-color="#7C5D4C" stop-opacity="0.3"/>
<stop offset="1" stop-color="#8B7163" stop-opacity="0"/>
</radialGradient>
<radialGradient id="paint19_radial" cx="0" cy="0" r="1" gradientUnits="userSpaceOnUse" gradientTransform="translate(358.939 357.837) rotate(-21.0013) scale(61.2604 52.0671)">
<stop offset="0.95" stop-opacity="0"/>
<stop offset="1" stop-opacity="0.2"/>
</radialGradient>
<radialGradient id="paint20_radial" cx="0" cy="0" r="1" gradientUnits="userSpaceOnUse" gradientTransform="translate(308.551 378.207) scale(91.3377)">
<stop stop-color="#9A877D" stop-opacity="0.5"/>
<stop offset="0.9" stop-color="#8B7163" stop-opacity="0"/>
</radialGradient>
<radialGradient id="paint21_radial" cx="0" cy="0" r="1" gradientUnits="userSpaceOnUse" gradientTransform="translate(308.551 244.542) scale(82.4267)">
<stop stop-color="#9A877D" stop-opacity="0.5"/>
<stop offset="0.9" stop-color="#8B7163" stop-opacity="0"/>
</radialGradient>
<clipPath id="clip0">
<rect width="600" height="600" fill="white"/>
</clipPath>
</defs>
</svg>
