<svg width="600" height="600" viewBox="0 0 600 600" fill="none" xmlns="http://www.w3.org/2000/svg">
<g clip-path="url(#clip0)">
<path d="M675 675H-75V-75H675V675Z" fill="url(#paint0_linear)"/>
<path d="M360.996 403.874H308.184V356.576H360.996V403.874ZM414.113 320.069H340.054V380.225H414.113V320.069ZM377.082 441.95H442.881V362.639H377.082V441.95ZM400.757 434.192H334.59V491.191H400.757V434.192ZM580.44 284.416H490.23V387.501H580.44V284.416ZM478.458 331.108H456.605V356.576H478.458V331.108ZM544.531 252.277H456.605V304.426H544.531V252.277ZM442.881 270.468H395.532V335.958H442.881V270.468ZM334.59 275.32H308.184V303.213H334.59V275.32ZM299.325 320.069H258.501V382.71H299.325V320.069ZM347.338 441.95H275.708V521.511H347.338V441.95ZM308.184 576.086H388.617V528.788H308.184V576.086ZM500.311 557.894H443.791V599.129H500.313V557.894H500.311ZM637.361 516.659H585.062V578.511H637.361V516.659ZM551.302 544.718H506.381V585.953H551.302V544.718ZM594.357 463.296H528.843V537.278H594.357V463.296ZM610.791 590.639H528.843V644H610.791V590.639ZM340.054 557.894H251.187V637.937H340.052V557.894H340.054ZM630.216 356.576H569.818V403.874H630.216V356.576ZM594.357 424.49H568.208V451.477H594.357V424.49ZM251.187 474.697H300.975V404.294H251.187V474.697ZM321.764 249.852L232 252.277V320.069H321.764V249.852ZM646 252.277H587.725V326.256H646V252.277ZM371.858 245H347.338V298.361H371.858V245ZM641.143 437.983H581.281V486.494H641.143V437.983Z" fill="url(#paint1_linear)" stroke="#FFC700" stroke-width="1.5"/>
<path d="M115.996 319.874H63.1843V272.576H115.996V319.874ZM169.113 236.069H95.0537V296.225H169.113V236.069ZM132.082 357.95H197.881V278.639H132.082V357.95ZM155.757 350.192H89.5904V407.191H155.757V350.192ZM335.44 200.416H245.23V303.501H335.44V200.416ZM233.458 247.108H211.605V272.576H233.458V247.108ZM299.531 168.277H211.605V220.426H299.531V168.277ZM197.881 186.468H150.532V251.958H197.881V186.468ZM89.5904 191.32H63.1843V219.213H89.5904V191.32ZM54.3246 236.069H13.5008V298.71H54.3246V236.069ZM102.338 357.95H30.7084V437.511H102.338V357.95ZM63.1843 492.086H143.617V444.788H63.1843V492.086ZM255.311 473.894H198.791V515.129H255.313V473.894H255.311ZM392.361 432.659H340.062V494.511H392.361V432.659ZM306.302 460.718H261.381V501.953H306.302V460.718ZM349.357 379.296H283.843V453.278H349.357V379.296ZM365.791 506.639H283.843V560H365.791V506.639ZM95.0537 473.894H6.18721V553.937H95.0519V473.894H95.0537ZM385.216 272.576H324.818V319.874H385.216V272.576ZM349.357 340.49H323.208V367.477H349.357V340.49ZM6.18721 390.697H55.9745V320.294H6.18721V390.697ZM76.7643 165.852L-13 168.277V236.069H76.7643V165.852ZM401 168.277H342.725V242.256H401V168.277ZM126.858 161H102.338V214.361H126.858V161ZM396.143 353.983H336.281V402.494H396.143V353.983Z" fill="url(#paint2_linear)" stroke="#FFC700" stroke-width="1.5"/>
<rect x="504" y="328.706" width="8.86149" height="25.1423" fill="white"/>
<rect x="521.753" y="328.857" width="8.83104" height="25.1423" fill="white"/>
<rect x="512.861" y="320" width="8.89195" height="8.85765" fill="white"/>
<rect x="539.416" y="328.857" width="8.89195" height="25.1423" fill="white"/>
<rect x="530.584" y="320" width="8.83105" height="8.85765" fill="white"/>
<rect x="548.308" y="320" width="8.86149" height="8.85765" fill="white"/>
<rect x="557.169" y="327.792" width="8.83104" height="8.85766" fill="white"/>
<rect x="548.308" y="336.65" width="8.86149" height="8.82721" fill="white"/>
<rect x="40" y="390.425" width="7.57515" height="21.4449" fill="white"/>
<rect x="55.1763" y="390.555" width="7.54912" height="21.4449" fill="white"/>
<rect x="47.5752" y="383" width="7.60118" height="7.55506" fill="white"/>
<rect x="70.2744" y="390.555" width="7.60118" height="21.4449" fill="white"/>
<rect x="62.7256" y="383" width="7.54912" height="7.55506" fill="white"/>
<rect x="77.876" y="383" width="7.57515" height="7.55506" fill="white"/>
<rect x="85.4507" y="389.646" width="7.54912" height="7.55506" fill="white"/>
<rect x="77.876" y="397.202" width="7.57515" height="7.52909" fill="white"/>
<path d="M434.802 139.15L185.348 124.957C185.348 124.957 122.491 583.413 122.491 597.743C122.491 597.743 375.432 599.548 483.247 597.743C481.232 577.891 434.802 139.15 434.802 139.15Z" fill="#331E15"/>
<path d="M533.262 537.247C518.201 511.782 499.484 507.232 484.057 502.311C468.206 497.257 435.559 494.344 417.753 490.779C400.556 487.338 359.711 476.267 359.245 456.967C358.764 436.746 370.002 356.466 370.002 356.466H240.326C240.326 356.466 251.575 436.744 251.091 456.967C250.63 476.267 209.778 487.338 192.578 490.779C174.769 494.344 142.127 497.257 126.276 502.311C110.844 507.232 92.1226 511.78 77.0613 537.247C67.9262 552.689 62 577.69 62 605.266H548.333C548.331 577.69 542.414 552.689 533.262 537.247Z" fill="#FFD5C3"/>
<path d="M359.245 456.969C365.499 484.367 404.782 491.308 425.158 495.387C480.081 506.365 509.82 508.257 531.191 544.369C538.468 556.693 544.876 584.138 546.137 604.917C550.737 605.647 547.468 561.218 533.262 537.247C508.84 495.954 460.339 499.305 417.752 490.782C400.555 487.34 359.711 476.27 359.245 456.969ZM251.74 456.969C251.274 476.27 210.429 487.34 193.232 490.782C150.645 499.305 102.145 495.954 77.7228 537.247C63.5163 561.22 60.2474 605.647 64.8475 604.917C66.1084 584.138 72.516 556.693 79.7935 544.369C101.162 508.257 130.904 506.365 185.827 495.387C206.202 491.308 245.485 484.364 251.74 456.969Z" fill="#FFE7DC"/>
<path d="M183.172 511.293C183.172 511.293 254.971 512.043 267.084 516.019C272.885 517.919 288.072 530.14 288.072 530.14C288.072 530.14 271.637 522.193 266.367 520.719C254.126 517.3 183.172 511.293 183.172 511.293ZM304.978 537.58C310.125 537.477 324.75 528.057 324.75 528.057C324.75 528.057 310.777 533.218 306.345 533.472C302.607 533.687 290.386 530.368 290.386 530.368C290.386 530.368 300.759 537.663 304.978 537.58ZM348.129 519.426C365.05 514.868 422.799 511.328 422.799 511.328C422.799 511.328 363.158 510.035 346.314 515.653C340.669 517.538 327.357 528.588 327.357 528.588C327.357 528.588 342.559 520.922 348.129 519.426Z" fill="#F0B79F"/>
<path d="M533.262 537.247C508.842 495.957 460.257 499.288 417.753 490.782C400.556 487.34 359.711 476.27 359.245 456.97C358.764 436.749 370.002 356.469 370.002 356.469H240.326C240.326 356.469 251.575 436.747 251.091 456.97C250.63 476.27 209.778 487.34 192.578 490.782C174.769 494.347 142.127 497.26 126.276 502.314C110.844 507.235 92.1226 511.783 77.0613 537.25C67.9262 552.692 62 577.693 62 605.269H548.333C548.331 577.691 542.414 552.69 533.262 537.247Z" stroke="#D18361" stroke-width="4.5"/>
<path d="M305.545 465.56C319.601 465.538 339.463 456.468 358.106 444.307C359.322 427.16 362.509 400.835 365.02 381.39C329.994 376.815 280.218 376.915 245.34 381.643C247.834 400.951 250.978 426.929 252.206 444.006C271.093 456.343 291.313 465.583 305.545 465.56Z" fill="url(#paint3_linear)"/>
<path d="M497.674 635.864C485.814 635.787 141.383 632.776 113.602 631.294C117.6 606.145 125.945 593.571 139.011 580.315C140.006 554.892 131.491 518.432 127.522 500.218C131.513 490.047 139.407 501.112 179.492 488.726C189.685 486.187 201.177 470.388 216.962 482.825C211.45 485.089 206.564 486.131 202.114 487.227C195.453 523.855 281.622 589.457 304.492 601.716C332.522 589.018 417.184 518.59 408.209 487.29C407.342 486.894 397.51 484.507 394.294 483.003C399.749 478.192 409.064 476.304 418.332 482.118C429.44 489.064 449.863 495.67 475.609 495.67C478.926 495.67 481.467 496.522 483.094 500.681C480.302 513.454 471.245 557.347 471.395 579.986C491.016 599.52 493.811 611.946 497.674 635.864Z" fill="#C7F2FF"/>
<path d="M431.029 500.331C423.235 521.87 416.913 528.952 411.207 536.592C404.644 545.382 402.546 549.45 405.68 543.574C417.332 520.205 420.445 521.316 431.029 500.331ZM424.589 571.478C424.007 574.163 423.649 575.79 423.727 575.472C430.771 551.471 446.75 509.142 446.75 509.142C441.31 527.041 433.947 527.931 424.589 571.478ZM194.902 537.583C230.108 580.671 189.129 530.739 176.271 505.56C181.656 517.971 185.636 525.394 194.902 537.583ZM190.946 580.179C189.956 577.673 174.849 523.334 161.994 513.487C167.993 518.39 191.879 582.686 190.946 580.179Z" fill="#A3DEF0"/>
<path d="M483.097 500.684C482.746 502.281 482.004 505.304 481.488 507.771C475.584 506.779 466.544 504.725 466.544 506.836C464.373 529.651 463.328 527.393 461.468 547.365C461.651 519.975 466.529 518.212 460.919 504.994C445.745 502.444 431.418 498.523 418.254 494.5C412.862 516.713 387.59 545.292 396.883 533.219C405.264 522.208 412.709 505.906 415.755 493.733C413.401 493.006 411.075 492.276 408.801 491.554C408.748 490.073 408.595 488.634 408.212 487.29C407.344 486.894 397.512 484.507 394.296 483.003C399.751 478.193 409.067 476.305 418.334 482.118C429.442 489.065 449.866 495.671 475.611 495.671C478.928 495.673 481.467 496.525 483.097 500.684ZM127.888 500.684C128.239 502.281 128.981 505.304 129.498 507.771C135.401 506.779 144.276 505.808 144.276 505.808C143.624 518.493 147.66 524.886 149.52 544.858C149.334 517.47 145.088 518.002 147.56 504.994C162.734 502.444 179.567 498.523 192.731 494.5C198.123 516.713 225.902 549.654 216.609 537.583C208.228 526.573 198.276 505.909 195.23 493.735C197.584 493.008 199.911 492.279 202.184 491.557C202.237 490.075 202.39 488.636 202.773 487.293C203.641 486.896 213.473 484.51 216.689 483.006C211.234 478.195 201.919 476.307 192.651 482.121C181.543 489.067 161.119 495.673 135.374 495.673C132.057 495.673 129.518 496.525 127.888 500.684Z" fill="#E1F8FF"/>
<path d="M202.132 487.285C202.132 485.277 203.31 483.146 205.489 483.146C206.682 483.146 208.058 483.765 209.582 484.984L209.948 485.277L209.502 485.42C207.672 485.996 204.533 486.916 202.678 487.458L202.357 487.553L202.132 487.285ZM407.946 487.433C407.906 487.433 407.906 487.433 405.088 486.555L401.827 485.548L402.233 485.249C403.559 484.284 404.627 483.815 405.492 483.815C406.828 483.815 407.71 484.901 408.189 487.132L408.254 487.433H407.946Z" fill="#82CBE0"/>
<path d="M471.646 579.986C471.508 559.227 479.136 520.067 483.328 500.593C480.37 493.03 474.353 496.199 468.211 495.53C428.212 491.827 420.42 482.291 415.266 480.087C408.61 476.934 399.591 477.806 394.01 482.92C393.958 482.945 393.91 482.995 393.858 483.07C396.916 484.637 405.464 486.653 407.971 487.36C416.868 518.39 333.886 588.118 304.613 601.495C281.472 589.093 195.907 524.048 202.333 487.432C202.616 487.365 209.841 485.605 210.104 485.479C210.202 485.479 216.338 483.426 217.424 482.897C217.374 482.872 217.324 482.822 217.299 482.772C201.275 469.957 189.57 485.956 179.42 488.485C139.112 500.944 131.36 489.623 127.277 500.267C127.811 502.774 139.854 551.267 138.833 580.136C126.119 593.037 117.397 605.556 113.364 631.274C113.339 631.374 113.313 631.45 113.313 631.527C138.961 633.001 495.459 636.115 497.968 636.115C494.02 611.628 491.084 599.236 471.646 579.986ZM402.381 485.452C405.384 483.266 407.161 483.532 407.946 487.182C407.944 487.184 402.383 485.452 402.381 485.452ZM202.383 487.284C202.383 484.778 204.451 481.195 209.427 485.179C207.522 485.78 204.198 486.753 202.383 487.284ZM114.717 631.252C124.08 593.237 144.968 572.072 150.992 571.889C147.427 571.889 142.143 576.835 139.636 579.309C141.995 551.307 134.604 522.759 128.029 500.242C131.077 494.256 135.717 496.783 141.892 496.783C198.249 496.783 196.404 465.78 216.948 482.895C215.922 483.303 210.62 484.793 209.678 485.101C201.051 476.886 199.786 491.561 202.383 504.003C214.927 544.489 291.565 603.25 304.437 603.25C344.41 587.321 416.898 523.261 408.698 487.533C408.723 487.482 408.698 487.432 408.673 487.382C408.202 484.005 406.018 482.088 402.105 485.349C399.839 484.635 397.35 483.973 394.359 483.043C407.492 472.06 421.568 486.091 426.372 488.533C437.921 494.89 458.65 497.131 468.189 497.131C474.772 497.347 479.625 494.381 482.576 500.518C475.283 524.905 469.314 553.706 470.869 579.209C468.219 576.692 464.263 573.167 460.716 572.29C477.893 578.522 493.666 615.333 496.815 635.613C327.513 629.655 306.809 630.349 114.717 631.252Z" fill="#64B8D1"/>
<path d="M452.86 228.641H452.847C452.817 228.774 425.981 339.879 405.42 371.408C389.246 396.213 334.811 435.433 305.546 435.478C276.288 435.528 221.724 396.474 205.477 371.721C184.815 340.255 157.631 229.238 157.601 229.102H157.598C154.344 216.791 152.599 203.868 152.579 190.542C152.446 106.627 220.648 38.5124 304.924 38.382C389.208 38.2517 457.626 106.15 457.753 190.065C457.776 203.392 456.076 216.317 452.86 228.641Z" fill="#FFD5C3"/>
<path d="M370.085 52.8091C417.976 78.4995 450.493 128.905 450.403 186.867C450.38 200.193 448.638 213.116 445.382 225.427H445.379C445.349 225.56 418.164 336.579 397.5 368.046C382.594 390.761 335.944 431.021 305.165 431.021C274.383 431.021 227.737 390.758 212.829 368.046C192.167 336.579 164.983 225.563 164.953 225.427H164.95C161.696 213.116 159.952 200.193 159.932 186.867C159.839 128.905 192.358 78.4995 240.244 52.8091C188.364 77.1308 152.481 129.665 152.576 190.542C152.596 203.868 154.341 216.791 157.595 229.102H157.598C157.628 229.235 184.812 340.255 205.474 371.721C216.544 388.587 245.388 412.069 271.906 425.323C270.58 424.756 269.244 424.155 267.898 423.525C281.455 430.733 294.631 435.466 304.781 435.478C304.904 435.478 305.039 435.466 305.162 435.466C305.285 435.466 305.42 435.478 305.543 435.478C315.694 435.466 328.87 430.733 342.429 423.525C341.081 424.16 339.744 424.756 338.416 425.325C364.931 412.071 393.78 388.587 404.85 371.721C425.512 340.255 452.699 229.238 452.727 229.102H452.732C455.986 216.791 457.73 203.868 457.75 190.542C457.848 129.665 421.967 77.1308 370.085 52.8091Z" fill="#F7C6B1"/>
<path d="M452.86 228.641H452.847C452.817 228.774 425.981 339.879 405.42 371.407C389.246 396.213 334.811 435.433 305.546 435.478C276.288 435.528 221.724 396.474 205.477 371.721C184.815 340.255 157.631 229.238 157.601 229.102H157.598C154.344 216.791 152.599 203.868 152.579 190.542C152.446 106.627 220.648 38.5124 304.924 38.382C389.208 38.2517 457.626 106.15 457.753 190.065C457.776 203.392 456.076 216.317 452.86 228.641Z" stroke="#D18361" stroke-width="4.5"/>
<path d="M305.721 385.471C293.307 385.471 290.324 377.868 290.324 377.868C305.982 383.673 319.995 377.557 319.995 377.557C319.995 377.557 316.638 385.471 305.721 385.471Z" fill="url(#paint4_linear)"/>
<path d="M269.381 361.277C276.092 360.946 288.296 358.577 294.691 358.8C297.997 358.915 301.284 361.189 304.736 361.913C307.137 362.42 314.6 359.156 317.057 359.001C323.505 358.594 335.631 360.866 341.552 361.307C341.878 361.334 341.552 361.307 341.552 361.307C341.552 361.307 327.072 380.677 305.295 380.672C280.65 380.667 269.381 361.277 269.381 361.277C269.381 361.277 269.051 361.294 269.381 361.277Z" fill="#C30B37"/>
<path d="M269.381 361.277C276.092 360.946 288.296 358.577 294.691 358.8C297.997 358.915 301.284 361.189 304.736 361.913C307.137 362.42 314.6 359.156 317.057 359.001C323.505 358.594 335.631 360.866 341.552 361.307C341.878 361.334 341.552 361.307 341.552 361.307C341.552 361.307 327.072 380.677 305.295 380.672C280.65 380.667 269.381 361.277 269.381 361.277ZM269.381 361.277C269.381 361.277 269.051 361.294 269.381 361.277Z" stroke="#B4002B" stroke-width="2.25"/>
<path d="M342.442 360.61C342.329 360.282 341.286 360.136 340.878 360.261C340.125 360.497 339.215 361.568 337.586 361.981C335.711 362.46 324.999 365.569 322.061 365.716C316.132 366.012 310.935 368.08 305.114 368.068C299.291 368.055 294.235 365.739 288.278 365.416C285.32 365.253 275.258 362.367 273.37 361.906C271.74 361.505 271.139 360.467 270.457 360.186C269.983 359.993 268.822 360.136 268.594 360.449C268.396 360.718 268.815 361.976 269.096 362.33C269.775 363.172 271.861 363.598 273.275 363.952C275.228 364.45 285.205 367.376 288.188 367.544C293.966 367.87 298.988 370.364 304.764 370.369C310.544 370.377 315.806 368.103 321.632 367.807C324.628 367.652 335.495 364.516 337.506 364.014C338.96 363.648 340.985 363.014 341.697 362.31C342.043 361.976 342.557 360.943 342.442 360.61Z" fill="#950024"/>
<path d="M304.99 377.489C295.178 377.489 285.669 374.365 279.196 368.231C282.606 368.707 286.291 368.75 289.898 369.241C294.343 369.848 298.494 371.55 303.054 371.833C307.988 372.147 312.871 370.592 317.81 369.725C321.931 369 328.364 367.05 332.204 366.461C324.869 372.084 314.46 377.489 304.99 377.489ZM318.669 364.716C322.405 364.343 328.333 362.513 331.77 362.109C328.246 361.074 322.172 361.41 317.792 361.004C314.017 360.655 309.66 363.162 305.716 363.551C301.269 363.989 298.346 360.46 294.167 360.119C289.632 359.75 284.674 361.52 280.791 362.412C284.268 362.884 288.003 363.012 291.593 363.708C295.987 364.563 300.129 366.195 304.686 366.351C309.346 366.506 314.064 365.175 318.669 364.716Z" fill="#D2214B"/>
<path d="M319.769 370.64C318.997 370.665 318.202 370.702 317.438 370.768C316.558 370.838 315.763 370.941 315.029 371.076C313.68 371.324 312.336 371.66 310.922 372.001C308.696 372.543 306.596 372.984 304.249 372.981C303.873 372.981 303.495 372.964 303.116 372.939C301.201 372.801 299.303 372.395 297.623 371.906C295.886 371.394 294.232 370.901 292.562 370.672C292.241 370.63 291.913 370.6 291.592 370.567C290.567 370.477 289.496 370.437 288.446 370.409C292.793 373.909 298.794 375.518 304.66 375.526C310.704 375.528 315.385 373.412 319.769 370.64Z" fill="#E23A62"/>
<path d="M210.112 248.097C208.843 242.368 223.125 238.137 241.976 240.448C260.823 242.762 273.909 254.296 272.189 260.112C271.237 263.336 245.519 268.247 236.459 267.249C227.274 266.234 213.175 261.927 210.112 248.097Z" fill="url(#paint5_radial)"/>
<path d="M262.249 253.055C262.249 264.82 252.708 274.359 240.941 274.359C229.173 274.359 219.632 264.82 219.632 253.055C219.632 241.28 229.173 231.742 240.941 231.742C252.708 231.742 262.249 241.28 262.249 253.055Z" fill="#4D3617" stroke="#1F1200" stroke-width="1.5"/>
<path d="M228.552 263.015C231.663 262.757 228.908 261.927 228.908 261.927C227.371 261.097 224.475 259.824 224.475 258.653C224.475 254.99 229.494 254.043 224.355 252.596C219.015 247.695 228.499 247.798 228.429 247.633C224.967 239.195 229.489 243.827 231.394 241.335C238.454 232.105 233.362 242.283 237.195 241.335C238.584 240.995 234.425 235.898 237.316 236.613C239.228 237.081 239.664 238.671 239.664 238.671C241.061 238.397 243.244 236.249 243.244 236.249C245.904 237.051 247.772 240.829 246.949 240.122C248.258 239.964 250.088 239.337 251.517 238.911C251.517 238.911 251.768 238.064 252.008 238.793C255.267 248.244 263.67 247.568 253.994 250.298C253.994 250.298 253.37 250.298 255.353 251.869C264.976 259.555 247.887 257.176 256.952 260.711C257.32 260.345 251.52 264.14 251.52 265.191C251.52 266.971 247.817 271.649 244.608 269.806C242.818 268.783 242.545 271.937 241.492 270.48C239.429 267.628 235.308 270.358 236.832 267.735C239.083 265.888 234.51 268.46 233.623 268.46C230.685 268.46 237.468 258.578 247.451 265.92C250.371 268.059 244.382 260.831 249.672 260.831C250.201 261.004 250.043 258.979 250.043 258.41C247.29 257.871 254.979 258.397 254.979 253.927C255.463 254.025 256.786 252.687 249.173 253.927C249.173 253.927 248.93 251.263 249.053 250.779C249.444 249.225 253.365 249.721 252.262 248.114C252.259 248.112 249.424 242.418 249.424 242.418C240.286 240.949 245.508 240.032 239.795 241.208C239.524 242.549 227.559 248.254 227.94 250.899C228.296 253.394 235.453 254.228 228.679 258.648C238.827 278.094 221.181 258.217 228.552 263.015Z" fill="#5C4525"/>
<path d="M240.941 234.407L241.55 250.007L248.076 235.828L242.666 250.468L254.127 239.867L243.526 251.323L258.171 245.916L243.994 252.444L259.592 253.05L243.994 253.657L258.171 260.185L243.526 254.778L254.127 266.234L242.666 255.632L248.076 270.273L241.55 256.094L240.941 271.696L240.332 256.096L233.804 270.275L239.209 255.635L227.752 266.237L238.354 254.78L223.709 260.187L237.885 253.66L222.295 253.053L237.885 252.446L223.709 245.918L238.354 251.326L227.752 239.869L239.209 250.471L233.804 235.831L240.332 250.01L240.941 234.407Z" fill="#4D3617" stroke="#3E290C" stroke-width="1.5"/>
<path d="M243.769 239.085L241.853 250.859L248.893 241.23L242.623 251.376L252.813 245.169L243.139 252.145L254.927 250.315L243.315 253.053L254.912 255.873L243.132 253.963L252.763 261.002L242.61 254.735L248.817 264.923L241.841 255.246L243.671 267.034L240.933 255.422L238.111 267.016L240.026 255.241L232.979 264.87L239.256 254.722L229.068 260.929L238.745 253.953L226.958 255.783L238.567 253.043L226.973 250.223L238.747 252.13L229.116 245.091L239.269 251.358L233.064 241.17L240.038 250.847L238.208 239.062L240.953 250.674L243.769 239.085Z" fill="#4D3617" stroke="#2E1D05" stroke-width="1.5"/>
<path opacity="0.9" d="M248.932 253.052C248.932 257.467 245.353 261.042 240.941 261.042C236.528 261.042 232.951 257.465 232.951 253.052C232.951 248.64 236.531 245.061 240.943 245.061C245.355 245.061 248.932 248.638 248.932 253.052Z" fill="black"/>
<path opacity="0.7" d="M232.55 268.365C231.374 269.541 229.05 269.127 227.363 267.437C225.674 265.75 225.258 263.426 226.436 262.251C227.612 261.075 229.935 261.489 231.623 263.178C233.31 264.868 233.728 267.187 232.55 268.365Z" fill="white"/>
<path opacity="0.9" d="M258.01 248.857C256.25 250.619 251.983 249.213 248.484 245.71C244.984 242.211 243.575 237.947 245.338 236.184C247.1 234.422 251.364 235.828 254.864 239.33C258.363 242.83 259.77 247.097 258.01 248.857Z" fill="white"/>
<path d="M193.937 256.813C193.937 291.425 214.142 319.482 239.061 319.482C263.979 319.482 284.184 291.425 284.184 256.813C284.184 222.198 263.979 194.141 239.061 194.141C214.142 194.141 193.937 222.198 193.937 256.813ZM210.111 248.097C208.843 242.368 223.125 238.137 241.976 240.448C260.823 242.762 273.909 254.296 272.189 260.112C271.236 263.336 245.518 268.247 236.459 267.249C227.273 266.234 213.175 261.927 210.111 248.097Z" fill="#FFD5C3"/>
<path d="M236.458 267.25C245.518 268.247 271.236 263.336 272.189 260.112C273.911 254.297 260.823 242.762 241.976 240.449C225.782 238.463 212.989 241.313 210.5 245.783C212.751 229.739 229.803 217.212 250.577 217.12C272.916 217.027 291.058 231.349 291.118 249.12C291.171 266.889 273.106 281.363 250.77 281.463C228.426 281.556 210.287 267.234 210.227 249.466C210.227 249.203 210.267 248.944 210.274 248.681C213.611 262.035 227.409 266.249 236.458 267.25Z" fill="url(#paint6_radial)"/>
<path d="M210.112 248.097C208.843 242.368 223.125 238.137 241.976 240.448C260.823 242.762 273.909 254.296 272.189 260.112C271.237 263.336 245.519 268.247 236.459 267.249C227.274 266.234 213.175 261.927 210.112 248.097Z" fill="url(#paint7_radial)"/>
<path d="M211.106 235.296C221.655 230.338 234.546 229.882 245.797 232.777C251.823 234.183 258.243 235.998 263.503 239.39C268.378 242.235 272.339 245.657 276.042 249.894C272.678 245.63 269.09 242.077 264.453 239.19C258.747 235.64 252.497 233.439 245.992 231.88C234.493 229.057 221.618 229.699 211.106 235.296Z" fill="#D18361"/>
<path d="M198.495 239.194C198.495 239.194 204.331 241.403 207.507 240.749C206.529 239.598 204.759 236.728 204.759 236.728C204.759 236.728 209.404 238.109 212.658 236.808C214.864 235.925 222.849 234.301 226.336 234.136C230.565 233.93 239.053 234.449 243.22 235.199C251.678 236.723 265.744 241.792 272.495 253.208C273.134 254.642 276.022 255.517 276.022 255.517C276.022 255.517 273.465 254.978 273.142 255.622C272.435 257.028 276.396 260.676 276.892 261.13C276.488 260.766 273.661 258.284 272.575 258.705C272.422 258.761 272.232 259.678 272.187 259.914C272.939 253.832 260.058 243.002 241.974 240.852C223.122 238.61 208.84 242.714 210.109 248.267C213.172 261.674 227.271 265.848 236.456 266.83C242.788 267.51 257.258 265.384 265.724 262.977L268.258 262.182C263.247 264.712 249.397 267.685 243.774 268.206C241.909 268.382 238.158 268.467 236.288 268.42C221.375 268.023 210.818 260.45 206.885 250.22C206.572 249.397 205.647 248.668 204.784 248.475C200.763 247.57 192.009 243.935 192.009 243.935C197.825 244.84 200.741 245.625 205.308 244.083C200.849 242.413 198.495 239.194 198.495 239.194Z" fill="black"/>
<path d="M400.874 248.097C402.142 242.368 387.861 238.137 369.009 240.448C350.162 242.762 337.076 254.296 338.796 260.112C339.749 263.336 365.467 268.247 374.527 267.249C383.712 266.234 397.81 261.927 400.874 248.097Z" fill="url(#paint8_radial)"/>
<path d="M391.353 253.055C391.353 264.817 381.812 274.359 370.045 274.359C358.277 274.359 348.736 264.817 348.736 253.055C348.736 241.28 358.277 231.742 370.045 231.742C381.812 231.742 391.353 241.28 391.353 253.055Z" fill="#4D3617" stroke="#1F1200" stroke-width="1.5"/>
<path d="M357.658 263.015C360.767 262.757 358.014 261.927 358.014 261.927C356.478 261.1 353.582 259.826 353.582 258.655C353.582 254.993 358.601 254.043 353.462 252.599C348.12 247.695 357.603 247.798 357.535 247.633C354.071 239.195 358.596 243.827 360.499 241.335C367.558 232.105 362.466 242.283 366.299 241.335C367.691 240.995 363.532 235.898 366.42 236.613C368.333 237.079 368.771 238.671 368.771 238.671C370.168 238.397 372.351 236.249 372.351 236.249C375.011 237.051 376.878 240.832 376.056 240.125C377.362 239.967 379.195 239.34 380.621 238.914C380.621 238.914 380.872 238.067 381.113 238.799C384.372 248.249 392.775 247.57 383.096 250.303C383.096 250.303 382.471 250.303 384.454 251.874C394.081 259.558 376.989 257.181 386.054 260.716C386.425 260.348 380.621 264.143 380.621 265.193C380.621 266.976 376.919 271.651 373.71 269.811C371.92 268.786 371.649 271.942 370.594 270.485C368.531 267.633 364.407 270.363 365.933 267.74C368.185 265.893 363.612 268.462 362.725 268.462C359.787 268.462 366.57 258.58 376.553 265.923C379.473 268.064 373.482 260.836 378.774 260.836C379.305 261.009 379.145 258.984 379.145 258.412C376.395 257.876 384.083 258.402 384.083 253.933C384.567 254.028 385.891 252.689 378.277 253.933C378.277 253.933 378.034 251.265 378.157 250.784C378.548 249.232 382.471 249.726 381.366 248.119C381.363 248.117 378.525 242.426 378.525 242.426C369.388 240.954 374.61 240.037 368.899 241.215C368.628 242.556 356.663 248.262 357.044 250.907C357.4 253.399 364.555 254.236 357.784 258.658C367.931 278.094 350.286 258.217 357.658 263.015Z" fill="#5C4525"/>
<path d="M370.045 234.407L370.651 250.004L377.179 235.826L371.769 250.466L383.228 239.867L372.627 251.323L387.272 245.916L373.095 252.444L388.693 253.05L373.095 253.657L387.272 260.185L372.627 254.778L383.228 266.234L371.769 255.635L377.179 270.275L370.651 256.096L370.045 271.696L369.438 256.099L362.907 270.278L368.315 255.637L356.858 266.237L367.46 254.78L352.815 260.187L366.989 253.66L351.398 253.053L366.989 252.446L352.815 245.918L367.46 251.326L356.858 239.869L368.315 250.468L362.907 235.828L369.438 250.007L370.045 234.407Z" fill="#4D3617" stroke="#3E290C" stroke-width="1.5"/>
<path d="M372.873 239.084L370.957 250.859L377.997 241.23L371.727 251.376L381.915 245.171L372.241 252.145L384.028 250.315L372.416 253.055L384.013 255.875L372.233 253.965L381.867 261.005L371.715 254.737L377.922 264.923L370.945 255.246L372.775 267.034L370.037 255.422L367.215 267.016L369.13 255.241L362.081 264.87L368.36 254.725L358.17 260.929L367.846 253.955L356.059 255.785L367.668 253.043L356.077 250.225L367.849 252.133L358.217 245.093L368.37 251.363L362.163 241.178L369.137 250.854L367.307 239.067L370.052 250.679L372.873 239.084Z" fill="#4D3617" stroke="#2E1D05" stroke-width="1.5"/>
<path opacity="0.9" d="M378.037 253.052C378.037 257.467 374.457 261.042 370.045 261.042C365.633 261.042 362.053 257.467 362.053 253.052C362.053 248.64 365.633 245.061 370.045 245.061C374.457 245.061 378.037 248.638 378.037 253.052Z" fill="black"/>
<path opacity="0.7" d="M361.654 268.365C360.476 269.54 358.155 269.127 356.468 267.44C354.778 265.753 354.362 263.426 355.543 262.25C356.718 261.072 359.04 261.488 360.727 263.175C362.414 264.865 362.83 267.189 361.654 268.365Z" fill="white"/>
<path opacity="0.9" d="M387.114 248.856C385.354 250.618 381.09 249.212 377.588 245.712C374.088 242.213 372.682 237.946 374.439 236.186C376.202 234.424 380.468 235.83 383.966 239.33C387.465 242.83 388.877 247.096 387.114 248.856Z" fill="white"/>
<path d="M371.924 194.141C347.006 194.141 326.801 222.198 326.801 256.813C326.801 291.425 347.006 319.482 371.924 319.482C396.843 319.482 417.048 291.425 417.048 256.813C417.048 222.198 396.843 194.141 371.924 194.141ZM374.527 267.249C365.467 268.247 339.749 263.336 338.796 260.112C337.074 254.296 350.162 242.762 369.009 240.448C387.861 238.137 402.142 242.371 400.874 248.097C397.81 261.927 383.712 266.234 374.527 267.249Z" fill="#FFD5C3"/>
<path d="M374.527 267.25C365.467 268.247 339.749 263.336 338.796 260.112C337.074 254.297 350.162 242.762 369.009 240.449C385.203 238.463 397.996 241.313 400.485 245.783C398.234 229.739 381.182 217.212 360.408 217.12C338.069 217.027 319.927 231.349 319.867 249.12C319.814 266.889 337.879 281.363 360.215 281.463C382.559 281.556 400.698 267.234 400.759 249.466C400.759 249.203 400.718 248.944 400.711 248.681C397.374 262.035 383.576 266.249 374.527 267.25Z" fill="url(#paint9_radial)"/>
<path d="M400.874 248.097C402.142 242.368 387.861 238.137 369.009 240.448C350.162 242.762 337.076 254.296 338.796 260.112C339.749 263.336 365.467 268.247 374.527 267.249C383.712 266.234 397.81 261.927 400.874 248.097Z" fill="url(#paint10_radial)"/>
<path d="M399.878 235.296C389.329 230.338 376.439 229.882 365.188 232.777C359.162 234.183 352.742 235.998 347.482 239.39C342.606 242.235 338.646 245.657 334.943 249.894C338.307 245.63 341.894 242.077 346.532 239.19C352.238 235.64 358.487 233.439 364.993 231.88C376.492 229.057 389.367 229.699 399.878 235.296Z" fill="#D18361"/>
<path d="M412.491 239.194C412.491 239.194 406.655 241.403 403.479 240.749C404.456 239.598 406.226 236.728 406.226 236.728C406.226 236.728 401.581 238.109 398.327 236.808C396.121 235.925 388.136 234.301 384.649 234.136C380.42 233.93 371.932 234.449 367.766 235.199C359.307 236.723 345.241 241.792 338.49 253.208C337.851 254.642 334.963 255.517 334.963 255.517C334.963 255.517 337.52 254.978 337.844 255.622C338.55 257.028 334.59 260.676 334.093 261.13C334.497 260.766 337.325 258.284 338.41 258.705C338.563 258.761 338.754 259.678 338.799 259.914C338.047 253.832 350.927 243.002 369.011 240.852C387.863 238.61 402.145 242.714 400.876 248.267C397.813 261.674 383.714 265.848 374.529 266.83C368.197 267.51 353.727 265.384 345.261 262.977L342.727 262.182C347.738 264.712 361.589 267.685 367.212 268.206C369.077 268.382 372.827 268.467 374.697 268.42C389.61 268.023 400.167 260.45 404.1 250.22C404.414 249.397 405.339 248.668 406.201 248.475C410.222 247.57 418.976 243.935 418.976 243.935C413.16 244.84 410.245 245.625 405.677 244.083C410.137 242.413 412.491 239.194 412.491 239.194Z" fill="black"/>
<path d="M406.279 319.502C406.367 375.343 361.168 420.692 305.32 420.77C249.482 420.86 204.14 375.664 204.052 319.813C203.967 263.975 249.164 218.633 305.012 218.546C360.852 218.46 406.197 263.657 406.279 319.502Z" fill="url(#paint11_radial)"/>
<path d="M393.233 176.591C393.233 225.046 353.948 264.331 305.493 264.331C257.038 264.331 217.752 225.046 217.752 176.591C217.752 128.135 257.038 88.8501 305.493 88.8501C353.948 88.8501 393.233 128.135 393.233 176.591Z" fill="url(#paint12_radial)"/>
<path d="M185.497 224.475C260.378 179.707 300.848 232.126 283.296 229.087C280.54 228.646 253.434 198.129 185.497 224.475Z" fill="#2A232B"/>
<path d="M426.371 225.415C403.589 211.797 380.979 204.013 354.282 208.925C319.926 215.868 320.638 237.065 332.035 227.87C338.391 222.74 347.764 218.264 357.957 216.538C379.874 212.333 404.03 216.758 426.371 225.415Z" fill="#2A232B"/>
<path d="M297.548 251.2C297.548 251.2 294.041 279.069 292.469 284.494C289.013 296.407 277.007 313.117 279.336 320.668C283.996 335.765 298.23 331.932 305.718 331.876C312.645 331.821 325.954 335.767 328.686 325.935C329.569 322.761 327.581 314.739 327.581 314.739C327.581 314.739 320.953 322.541 305.332 321.676C300.875 321.428 293.623 316.421 293.54 309.362C293.432 299.793 298.057 291.724 299.068 282.225C299.83 275.01 297.548 251.2 297.548 251.2Z" fill="#F0B79F"/>
<path d="M318.513 327.524C321.208 327.524 321.938 328.342 321.938 329.352C321.938 330.365 321.098 331.924 318.513 331.182C315.67 330.372 310.709 330.743 310.709 330.743C310.709 330.743 315.813 327.524 318.513 327.524ZM292.763 327.524C290.063 327.527 289.338 328.347 289.338 329.362C289.336 330.372 290.148 331.826 292.763 331.189C295.645 330.483 300.564 330.751 300.564 330.751C300.564 330.751 295.462 327.534 292.763 327.524ZM327.578 314.739C327.578 314.739 331.311 319.585 330.536 324.704C329.782 329.675 322.238 331.876 322.238 331.876C322.238 331.876 327.475 328.076 328.109 323.463C328.405 321.302 327.578 314.739 327.578 314.739ZM281.494 309.761C281.494 309.761 278.772 316.539 279.559 320.671C280.99 328.131 288.844 331.109 288.844 331.109C288.844 331.109 283.943 325.998 282.201 321.478C280.293 316.539 281.494 309.761 281.494 309.761Z" fill="#D18361"/>
<path d="M318.38 318.354C320.995 316.126 321.258 314.855 320.717 314.02C320.178 313.183 318.608 312.654 316.42 315.344C314.006 318.302 308.759 320.493 308.759 320.493C308.759 320.493 315.765 320.581 318.38 318.354Z" fill="#FFE7DC"/>
<path opacity="0.1" d="M206.095 521.76C208.998 485.43 207.286 468.406 204.165 437.509C197.66 373.097 195.867 331.899 194.03 264.637C193.238 236.568 192.423 207.541 202.335 180.391C211.244 155.034 230.665 133.528 254.282 122.859C273.395 114.217 290.998 114.355 310.512 114.355C333.953 114.355 350.331 116.185 364.695 125.561C405.284 152.084 408.904 189.807 413.903 242.023C419.363 298.891 416.7 305.116 416.745 359.164C416.821 483.161 409.192 502.417 424.208 607.896C440.877 608.756 491.052 187.268 435.8 119.003C404.229 79.9585 215.266 100.713 190.109 117.993C147.853 147.002 194.817 605.319 194.817 605.319C194.927 601.197 205.439 529.634 206.095 521.76Z" fill="#523B32"/>
<path d="M201.407 543.494C204.445 505.505 202.648 487.706 199.387 455.395C192.583 388.048 190.708 344.967 188.788 274.64C187.96 245.289 187.105 214.941 197.471 186.551C206.794 160.038 227.108 137.549 251.815 126.393C271.808 117.358 290.221 117.501 310.639 117.501C335.154 117.501 352.283 119.419 367.317 129.221C409.781 156.952 413.551 196.395 418.788 250.992C424.501 310.455 421.721 316.963 421.754 373.475C421.846 503.126 412.844 522.213 428.557 632.508C445.993 633.403 497.825 635.579 514.796 634.333C528.928 489.905 494.877 439.496 488.913 314.15C486.057 252.311 483.22 144.468 425.429 73.087C392.393 32.2651 353.324 20.5179 310.007 30.8086C276.794 24.915 244.726 32.8542 218.411 50.9263C174.208 81.2569 137.304 144.139 132.571 197.192C126.527 265.279 138.422 296.038 126.301 364.195C111.859 445.455 89.0391 507.33 100.643 626.233C113.82 627.206 190.888 630.859 190.888 630.859C190.999 626.554 200.72 551.729 201.407 543.494Z" fill="#523B32"/>
<path d="M447.166 633.352C439.515 633.039 432.942 632.733 428.558 632.507C412.844 522.213 421.847 503.125 421.754 373.475C421.721 316.962 424.504 310.452 418.788 250.992C413.551 196.397 409.781 156.951 367.317 129.22C341.832 112.6 278.135 114.495 251.816 126.395C227.11 137.551 206.795 160.04 197.472 186.552C187.103 214.943 187.96 245.291 188.788 274.641C190.708 344.972 192.583 388.05 199.387 455.397C202.648 487.708 204.448 505.504 201.407 543.496C200.72 551.729 190.999 626.556 190.886 630.86C190.886 630.86 182.36 630.457 170.518 629.88C171.405 601.307 185.175 572.731 187.492 544.158C192.365 423.828 158.239 308.512 185.055 185.675C192.365 155.593 204.553 130.524 231.369 115.483C254.45 102.294 297.253 98.9799 311.732 108.421C311.973 106.889 312.224 105.357 312.457 103.735C316.252 81.4243 309.401 72.7054 315.954 58.0327C310.91 71.9383 316.508 80.7775 315.648 96.2424C315.475 98.9473 314.605 102.998 313.49 107.899C329.263 101.178 364.008 103.146 380.062 115.483C463.235 179.395 423.935 396.252 436.126 539.144C437.773 571.438 443.188 602.58 447.166 633.352ZM188.344 136.255C206.95 111.073 235.802 87.8118 266.072 82.9109C273.492 81.7101 280.379 81.3867 279.938 81.4117C249.284 82.4496 222.796 92.813 199.675 118.433C172.308 147.786 173.558 173.163 173.433 179.157C174.463 163.635 176.409 155.131 188.344 136.255ZM329.932 91.1184C333.234 90.1958 340.659 87.7541 350.491 88.3658C389.505 90.1783 436.938 134.272 442.456 195.043C443.9 209.994 445.504 256.04 443.458 221.679C442.212 200.814 440.026 190.481 437.951 181.318C427.505 135.056 379.889 80.2435 334.066 90.1532C331.426 90.7699 329.932 91.1184 329.932 91.1184ZM160.59 252.661C162.573 320.715 167.492 367.601 166.198 399.947C162.511 440.516 158.369 473.777 158.369 473.777C158.294 474.813 158.57 469.576 159.134 460.967C165.369 372.525 159.377 360.339 160.59 252.661ZM447.926 257.116C448.971 275.877 453.498 355.912 454.178 372.873C454.747 386.14 454.837 474.845 455.133 479.009C455.203 480.488 449.894 408.09 447.926 257.116ZM467.201 280.157C469.52 316.659 484.556 462.867 503.395 531.862C503.759 532.997 501.836 527.297 498.755 517.838C475.1 440.386 469.906 359.685 467.201 280.157ZM152.553 330.502C148.485 345.877 151.952 355.074 152.085 370.401C151.368 406.157 138.941 447.398 134.454 468.062C129.197 489.937 127.317 550.743 127.329 553.255C127.247 555.762 125.198 487.979 135.163 447.367C161.177 346.23 144.99 373.119 151.165 334.884C152.05 332.084 152.553 330.502 152.553 330.502ZM321.807 51.2892C333.74 48.7773 329.885 49.404 339.391 48.3486C379.746 44.1697 406.991 75.8816 413.045 80.6321C413.391 80.958 411.614 79.3411 408.711 76.6662C372.459 46.9272 349.36 46.5061 321.807 51.2892ZM198.153 111.381C214.934 94.1391 234.641 70.6021 274.889 68.9651C290.354 68.2306 297.676 72.565 300.113 73.1817C300.113 73.1817 278.489 61.7052 236.328 81.1611C222.746 87.0773 207.519 102.502 198.153 111.381Z" fill="#432B22"/>
<path d="M517.642 543.374C488.041 439.161 479.896 329.966 470.252 220.77C462.348 149.645 432.641 67.146 367.179 38.3871C360.062 35.261 298.431 31.3152 267.932 40.2748C163.115 65.3435 133.835 187.97 141.177 290.962C146.722 368.728 117.813 460.449 97.7456 546.011C100.007 474.931 115.497 424.984 126.301 364.195C138.422 296.038 126.527 265.279 132.571 197.192C137.304 144.14 174.208 81.2571 218.411 50.9265C244.726 32.8544 276.794 24.9152 310.007 30.8088C341.89 23.2356 371.461 27.6276 398.016 46.73C398.074 46.74 398.137 46.7576 398.197 46.7676C407.575 53.5763 416.825 62.4631 425.426 73.0872C483.22 144.468 486.058 252.309 488.91 314.151C493.425 409.063 514.034 461.038 517.642 543.374ZM193.734 104.666C178.7 123.578 187.68 111.615 202.984 95.8772C247.692 54.6041 276.072 52.1649 301.218 57.9157C259.045 46.2963 221.778 70.7383 193.734 104.666ZM335.522 64.8697C364.153 55.0202 398.934 61.1194 435.461 118.702C462.646 164.247 462.882 221.025 464.466 228.804C464.614 229.915 463.696 224.319 462.475 215.066C459.196 193.908 453.543 140.417 405.951 86.3135C393.323 71.7385 365.998 55.8976 335.522 64.8697ZM450.152 202.189C457.75 276.708 462.403 384.754 462.403 384.754C462.543 386.466 460.62 367.524 458.738 346.875C451.789 271.19 455.035 280.225 450.152 202.189ZM442.265 378.151C443.097 432.267 442.413 421.166 448.111 498.724C453.067 540.621 454.646 548.059 446.955 501.364C439.914 456.594 441.147 425.421 442.265 378.151ZM466.68 397.484C476.644 472.485 475.634 471.946 478.013 512.058C480.951 552.639 481.984 558.999 476.762 514.535C473.671 489.644 471.994 455.546 466.68 397.484ZM177.281 132.984C161.984 163.523 157.738 188.476 154.679 222.682C149.673 272.015 154.233 275.725 151.257 308.214C151.225 308.633 151.275 307.783 151.373 305.961C152.548 265.003 141.478 197.887 177.281 132.984ZM205.461 129.163C190.061 144.14 181.886 172.061 176.69 193.793C165.559 241.787 171.257 404.167 167.81 285.71C166.233 241.228 164.774 204.503 187.464 154.999C192.365 144.257 197.627 135.879 205.461 129.163ZM171.51 380.377C171.904 408.928 174.86 412.107 177.572 445.245C180.781 477.308 171.809 528.506 171.5 533.968C171.014 537.831 178.076 476.257 174.514 432.242C170.776 391.107 171.059 398.918 171.51 380.377ZM154.912 418.935C147.71 448.506 150.134 451.976 141.897 570.37C141.711 572.877 141.187 467.11 154.912 418.935ZM222.172 111.367C224.608 109.986 259.479 83.6462 294.445 96.0351C297.661 97.0705 299.772 98.1309 300.15 98.2086C302.587 99.1788 287.07 92.1946 270.306 94.4182C244.756 96.6869 226.233 109.236 222.172 111.367ZM321.958 84.2253C327.202 81.7761 332.241 78.8982 344.532 77.3765C379.23 73.1299 400.894 102.2 403.331 104.22C405.695 106.802 392.464 90.1315 371.128 82.5657C367.435 81.3073 371.082 82.3852 364.715 80.5352C363.682 80.1742 359.521 79.1739 355.234 78.6751C340.677 77.3289 333.805 79.2892 321.958 84.2253Z" fill="#614D45"/>
<path d="M489.164 314.138C486.211 251.867 483.847 144.849 425.612 72.9265C390.192 29.1565 349.802 21.0342 310.048 30.5604C279.797 25.1956 247.331 30.7609 218.274 50.7156C174.837 80.5223 137.156 143.069 132.328 197.167C126.284 265.279 138.179 296.013 126.066 364.15C110.854 449.709 89.6936 502.253 100.275 624.965C100.325 625.466 100.373 625.968 100.421 626.469C100.664 626.497 100.884 626.497 101.13 626.522C127.455 628.001 157.8 629.603 190.292 631.084C190.487 631.084 190.683 631.084 190.878 631.109C266.639 634.544 354.023 637.376 429.129 637C429.292 636.975 429.47 636.975 429.633 637C460.643 636.8 489.552 636.073 514.684 634.594C514.801 634.594 514.927 634.569 515.027 634.569C515.1 633.817 515.167 633.065 515.24 632.338C529.231 491.8 495.082 438.707 489.164 314.138ZM191.219 628.502C195.07 597.718 201.259 548.182 201.651 543.519C207.767 467.009 194.12 470.669 189.221 281.601C188.394 249.588 186.542 217.2 197.702 186.641C206.965 160.294 226.93 137.907 251.916 126.626C262.786 121.713 274.365 119.281 286.135 118.128C325.548 117.251 347.927 116.874 367.182 129.434C408.716 156.558 413.088 194.011 418.54 251.017C424.266 310.606 421.466 316.747 421.516 373.478C421.568 444.976 421.002 379.271 419.177 515.091C418.954 531.185 419.27 547.229 420.473 563.298C422.105 585.406 425.875 614.288 428.635 633.616C354.434 633.516 267.15 631.209 191.219 628.502ZM291.522 117.727C296.032 117.401 300.564 117.251 305.099 117.225C300.86 117.373 296.353 117.549 291.522 117.727ZM514.849 632.363C489.941 633.263 460.793 633.641 429.217 633.616C427.492 618.675 425.487 601.152 425.442 600.45C423.278 579.016 421.882 557.46 421.932 535.898C421.932 533.391 432.195 334.27 425.301 269.368C418.33 203.763 413.504 145.277 358.092 122.64C346.422 117.852 333.738 116.724 315.315 116.975C315.239 116.975 315.172 116.975 315.102 116.975C301.737 116.574 288.845 116.524 276.315 118.354C276.29 118.354 276.265 118.354 276.22 118.354C262.542 120.359 249.331 124.546 236.514 132.893C176.767 171.7 183.787 246.204 184.346 291.052C186.394 457.834 205.551 462.773 198.437 552.97C198.362 553.822 193.583 599.172 190.563 628.477C157.973 627.349 127.48 626.143 101.055 624.99C100.764 620.152 100.593 617.469 100.593 617.269C93.306 473.099 126.186 425.794 135.94 340.234C143.373 275.156 128.312 223.966 142.716 168.438C162.824 90.9509 225.348 20.1318 307.057 31.3124C309.664 31.6634 312.299 32.1146 314.926 32.6411C315.829 32.4405 316.756 32.2901 317.664 32.1397C347.418 26.9254 376.207 29.9086 402.265 52.8214C478.364 119.705 479.146 249.135 481.555 295.211C489.189 441.437 522.553 479.519 515.997 617.043C515.995 617.296 515.463 624.541 514.849 632.363Z" fill="#24120B"/>
</g>
<defs>
<linearGradient id="paint0_linear" x1="300" y1="-75" x2="300" y2="675" gradientUnits="userSpaceOnUse">
<stop stop-color="#151371"/>
<stop offset="0.453125" stop-color="#FF00B8"/>
<stop offset="0.96875" stop-color="#FFC700"/>
</linearGradient>
<linearGradient id="paint1_linear" x1="439" y1="245" x2="439" y2="644" gradientUnits="userSpaceOnUse">
<stop stop-color="#FF00B8"/>
<stop offset="1" stop-color="#F0DB0A" stop-opacity="0"/>
</linearGradient>
<linearGradient id="paint2_linear" x1="194" y1="161" x2="194" y2="560" gradientUnits="userSpaceOnUse">
<stop stop-color="#FF00B8"/>
<stop offset="1" stop-color="#F0DB0A" stop-opacity="0"/>
</linearGradient>
<linearGradient id="paint3_linear" x1="305.442" y1="465.56" x2="305.442" y2="378.023" gradientUnits="userSpaceOnUse">
<stop stop-color="#F0B79F" stop-opacity="0.8"/>
<stop offset="0.7" stop-color="#D18361"/>
</linearGradient>
<linearGradient id="paint4_linear" x1="305.493" y1="389.677" x2="305.493" y2="382.157" gradientUnits="userSpaceOnUse">
<stop offset="0.1" stop-color="#F7C6B1"/>
<stop offset="1" stop-color="#F0B79F"/>
</linearGradient>
<radialGradient id="paint5_radial" cx="0" cy="0" r="1" gradientUnits="userSpaceOnUse" gradientTransform="translate(238.92 252.969) rotate(174.019) scale(37.8943)">
<stop stop-color="white"/>
<stop offset="0.316" stop-color="#FCFDFD"/>
<stop offset="0.505" stop-color="#F4F7F8"/>
<stop offset="0.661" stop-color="#E5ECEF"/>
<stop offset="0.76" stop-color="#D8E2E7"/>
</radialGradient>
<radialGradient id="paint6_radial" cx="0" cy="0" r="1" gradientUnits="userSpaceOnUse" gradientTransform="translate(250.873 248.031) rotate(1.19182) scale(40.1181 32.0929)">
<stop stop-color="#F0B79F"/>
<stop offset="0.7" stop-color="#F0B79F" stop-opacity="0.3"/>
<stop offset="1" stop-color="#FFD5C3" stop-opacity="0"/>
</radialGradient>
<radialGradient id="paint7_radial" cx="0" cy="0" r="1" gradientUnits="userSpaceOnUse" gradientTransform="translate(229.704 319.159) scale(76.5023)">
<stop offset="0.95" stop-opacity="0"/>
<stop offset="1" stop-opacity="0.3"/>
</radialGradient>
<radialGradient id="paint8_radial" cx="0" cy="0" r="1" gradientUnits="userSpaceOnUse" gradientTransform="translate(372.065 252.969) rotate(5.98141) scale(37.8943)">
<stop stop-color="white"/>
<stop offset="0.316" stop-color="#FCFDFD"/>
<stop offset="0.505" stop-color="#F4F7F8"/>
<stop offset="0.661" stop-color="#E5ECEF"/>
<stop offset="0.76" stop-color="#D8E2E7"/>
</radialGradient>
<radialGradient id="paint9_radial" cx="0" cy="0" r="1" gradientUnits="userSpaceOnUse" gradientTransform="translate(360.113 248.031) rotate(178.808) scale(40.1181 32.0929)">
<stop stop-color="#F0B79F"/>
<stop offset="0.7" stop-color="#F0B79F" stop-opacity="0.3"/>
<stop offset="1" stop-color="#FFD5C3" stop-opacity="0"/>
</radialGradient>
<radialGradient id="paint10_radial" cx="0" cy="0" r="1" gradientUnits="userSpaceOnUse" gradientTransform="translate(381.282 319.159) rotate(180) scale(76.5023)">
<stop offset="0.95" stop-opacity="0"/>
<stop offset="1" stop-opacity="0.3"/>
</radialGradient>
<radialGradient id="paint11_radial" cx="0" cy="0" r="1" gradientUnits="userSpaceOnUse" gradientTransform="translate(305.493 319.485) scale(100.275)">
<stop stop-color="#FFE7DC" stop-opacity="0.5"/>
<stop offset="0.9" stop-color="#FFD5C3" stop-opacity="0"/>
</radialGradient>
<radialGradient id="paint12_radial" cx="0" cy="0" r="1" gradientUnits="userSpaceOnUse" gradientTransform="translate(305.493 179.1) scale(90.2474)">
<stop stop-color="#FFE7DC" stop-opacity="0.5"/>
<stop offset="0.9" stop-color="#FFD5C3" stop-opacity="0"/>
</radialGradient>
<clipPath id="clip0">
<rect width="600" height="600" fill="white"/>
</clipPath>
</defs>
</svg>
