<svg width="30" height="30" viewBox="0 0 30 30" fill="none" xmlns="http://www.w3.org/2000/svg">
<path d="M11.5596 24.7009C12.0847 24.5299 12.3719 23.9656 12.2009 23.4404C12.0299 22.9153 11.4656 22.6281 10.9404 22.7991L11.5596 24.7009ZM4.03217 19.0406C3.50232 18.8848 2.94647 19.188 2.79063 19.7178C2.6348 20.2477 2.93799 20.8035 3.46783 20.9594L4.03217 19.0406ZM17.75 26.25C17.75 26.8023 18.1977 27.25 18.75 27.25C19.3023 27.25 19.75 26.8023 19.75 26.25H17.75ZM18.125 19.375L18.0185 18.3807C17.6355 18.4217 17.3102 18.679 17.182 19.0421C17.0538 19.4053 17.1456 19.8098 17.4179 20.0821L18.125 19.375ZM25 11.875L26 11.875L26 11.874L25 11.875ZM23.375 7.875L22.439 7.52292C22.3027 7.88534 22.3879 8.29389 22.6576 8.57167L23.375 7.875ZM23.25 3.875L24.1622 3.46517C24.0396 3.19247 23.8015 2.9889 23.5131 2.91024L23.25 3.875ZM18.875 5.5L18.623 6.46772C18.8989 6.53959 19.1924 6.49023 19.4297 6.33205L18.875 5.5ZM11.125 5.5L10.5703 6.33205C10.8076 6.49023 11.1011 6.53959 11.377 6.46772L11.125 5.5ZM6.75 3.875L6.48688 2.91024C6.19846 2.9889 5.96036 3.19247 5.83784 3.46517L6.75 3.875ZM6.625 7.875L7.34239 8.57167C7.61215 8.29389 7.6973 7.88534 7.56097 7.52292L6.625 7.875ZM5 11.875L4 11.874V11.875H5ZM11.875 19.375L12.5821 20.0821C12.8544 19.8098 12.9462 19.4053 12.818 19.0421C12.6898 18.679 12.3645 18.4217 11.9815 18.3807L11.875 19.375ZM11.25 21.875H12.25C12.25 21.8335 12.2474 21.7921 12.2423 21.751L11.25 21.875ZM10.25 26.25C10.25 26.8023 10.6977 27.25 11.25 27.25C11.8023 27.25 12.25 26.8023 12.25 26.25H10.25ZM10.9404 22.7991C9.72405 23.1952 8.92489 23.18 8.37874 23.0272C7.8391 22.8763 7.42555 22.5576 7.03586 22.1094C6.59184 21.5988 6.33659 21.1367 5.86649 20.5011C5.46717 19.9612 4.90123 19.2962 4.03217 19.0406L3.46783 20.9594C3.66127 21.0163 3.89221 21.1951 4.25851 21.6903C4.55403 22.0899 5.03316 22.8543 5.52664 23.4218C6.07445 24.0518 6.80153 24.6628 7.84001 24.9533C8.87198 25.2419 10.0884 25.1798 11.5596 24.7009L10.9404 22.7991ZM19.75 26.25V21.875H17.75V26.25H19.75ZM19.75 21.875C19.75 21.3603 19.7858 20.7569 19.7051 20.2731C19.603 19.6605 19.3298 19.1655 18.8321 18.6679L17.4179 20.0821C17.6702 20.3345 17.7095 20.4645 17.7324 20.6019C17.7497 20.7061 17.7578 20.8429 17.7578 21.0625C17.7578 21.1708 17.756 21.2873 17.754 21.425C17.7521 21.56 17.75 21.7109 17.75 21.875H19.75ZM18.2315 20.3693C20.0481 20.1747 22.0158 19.7074 23.5296 18.3966C25.0863 17.0487 26 14.9567 26 11.875H24C24 14.5433 23.2262 16.0138 22.2204 16.8846C21.1717 17.7926 19.7019 18.2003 18.0185 18.3807L18.2315 20.3693ZM26 11.874C25.9982 10.1204 25.3141 8.43634 24.0924 7.17833L22.6576 8.57167C23.5173 9.45693 23.9987 10.642 24 11.876L26 11.874ZM24.311 8.22707C24.892 6.68238 24.8385 4.97057 24.1622 3.46517L22.3378 4.28483C22.7978 5.3085 22.8341 6.47253 22.439 7.52292L24.311 8.22707ZM23.25 3.875C23.5131 2.91024 23.5122 2.90999 23.5113 2.90974C23.511 2.90966 23.5101 2.90941 23.5095 2.90924C23.5082 2.90891 23.5069 2.90857 23.5057 2.90823C23.5031 2.90755 23.5004 2.90686 23.4977 2.90615C23.4922 2.90473 23.4863 2.90327 23.4801 2.90177C23.4676 2.89878 23.4537 2.89563 23.4384 2.89243C23.4078 2.88603 23.3716 2.87942 23.3296 2.87329C23.2456 2.86102 23.1393 2.85076 23.0105 2.8479C22.7524 2.84217 22.408 2.86621 21.9751 2.96032C21.11 3.14837 19.9016 3.61376 18.3203 4.66795L19.4297 6.33205C20.8484 5.38624 21.8275 5.03913 22.3999 4.91468C22.6858 4.85253 22.8726 4.84533 22.9661 4.84741C23.013 4.84845 23.0376 4.85187 23.0405 4.85229C23.042 4.85251 23.0382 4.852 23.0292 4.85012C23.0247 4.84918 23.0189 4.8479 23.0119 4.8462C23.0083 4.84535 23.0045 4.84439 23.0003 4.84332C22.9982 4.84279 22.9961 4.84223 22.9938 4.84163C22.9927 4.84134 22.9916 4.84103 22.9904 4.84072C22.9898 4.84056 22.989 4.84033 22.9887 4.84025C22.9878 4.84001 22.9869 4.83976 23.25 3.875ZM19.127 4.53228C16.4208 3.82747 13.5792 3.82747 10.873 4.53228L11.377 6.46772C13.7527 5.84899 16.2473 5.84899 18.623 6.46772L19.127 4.53228ZM11.6797 4.66795C10.0984 3.61376 8.88996 3.14837 8.02493 2.96032C7.59203 2.86621 7.24765 2.84217 6.9895 2.8479C6.8607 2.85076 6.75442 2.86102 6.67041 2.87329C6.62844 2.87942 6.59217 2.88603 6.56156 2.89243C6.54626 2.89563 6.53238 2.89878 6.51993 2.90177C6.51371 2.90327 6.50784 2.90473 6.50234 2.90615C6.49958 2.90685 6.49692 2.90755 6.49434 2.90823C6.49305 2.90857 6.49179 2.90891 6.49054 2.90924C6.48992 2.90941 6.48901 2.90966 6.4887 2.90974C6.48779 2.90999 6.48688 2.91024 6.75 3.875C7.01312 4.83976 7.01222 4.84001 7.01133 4.84025C7.01105 4.84033 7.01016 4.84056 7.00958 4.84072C7.00842 4.84103 7.00728 4.84134 7.00616 4.84163C7.00392 4.84223 7.00176 4.84279 6.99968 4.84332C6.99552 4.84439 6.99167 4.84535 6.98814 4.8462C6.98108 4.8479 6.97529 4.84918 6.97079 4.85012C6.96178 4.852 6.95798 4.85251 6.95948 4.85229C6.96237 4.85187 6.98695 4.84845 7.03394 4.84741C7.12735 4.84533 7.31422 4.85253 7.60007 4.91468C8.17254 5.03913 9.15158 5.38624 10.5703 6.33205L11.6797 4.66795ZM5.83784 3.46517C5.16147 4.97057 5.10798 6.68238 5.68903 8.22707L7.56097 7.52292C7.16586 6.47253 7.20223 5.3085 7.66216 4.28483L5.83784 3.46517ZM5.90761 7.17833C4.68594 8.43634 4.00179 10.1204 4 11.874L6 11.876C6.00126 10.642 6.4827 9.45693 7.34239 8.57167L5.90761 7.17833ZM4 11.875C4 14.9567 4.91371 17.0487 6.47042 18.3966C7.98425 19.7074 9.95194 20.1747 11.7685 20.3693L11.9815 18.3807C10.2981 18.2003 8.82825 17.7926 7.77958 16.8846C6.77379 16.0138 6 14.5433 6 11.875H4ZM11.1679 18.6679C10.6596 19.1762 10.3704 19.7289 10.2524 20.3424C10.1422 20.9155 10.1939 21.4888 10.2577 21.999L12.2423 21.751C12.1811 21.2612 12.1703 20.9595 12.2164 20.7201C12.2546 20.5211 12.3404 20.3238 12.5821 20.0821L11.1679 18.6679ZM10.25 21.875V26.25H12.25V21.875H10.25Z" fill="white"/>
</svg>
