<svg width="30" height="30" viewBox="0 0 30 30" fill="none" xmlns="http://www.w3.org/2000/svg">
<path d="M12.5 17.5C13.3229 18.3398 14.4492 18.8131 15.625 18.8131C16.8008 18.8131 17.9271 18.3398 18.75 17.5L23.75 12.5C25.4759 10.7741 25.4759 7.97587 23.75 6.24998C22.0241 4.52409 19.2259 4.52409 17.5 6.24998L16.875 6.87498" stroke="white" stroke-width="2" stroke-linecap="round" stroke-linejoin="round"/>
<path d="M17.5 12.5001C16.6771 11.6603 15.5508 11.187 14.375 11.187C13.1992 11.187 12.0729 11.6603 11.25 12.5001L6.24998 17.5001C4.52409 19.226 4.52409 22.0243 6.24998 23.7501C7.97587 25.476 10.7741 25.476 12.5 23.7501L13.125 23.1251" stroke="white" stroke-width="2" stroke-linecap="round" stroke-linejoin="round"/>
</svg>
