<svg width="69" height="66" viewBox="0 0 69 66" fill="none" xmlns="http://www.w3.org/2000/svg">
<g opacity="0.2" filter="url(#filter0_d_2082_6345)">
<rect x="10" y="10.5903" width="48.4252" height="45.1968" rx="10" fill="#FFCC40"/>
</g>
<path d="M18.0708 25.0471C18.0708 20.6288 21.6525 17.0471 26.0708 17.0471H42.3543C46.7725 17.0471 50.3543 20.6288 50.3543 25.0471V41.3306C50.3543 45.7489 46.7725 49.3306 42.3543 49.3306H26.0708C21.6525 49.3306 18.0708 45.7489 18.0708 41.3306V25.0471Z" fill="#311D05"/>
<path fill-rule="evenodd" clip-rule="evenodd" d="M30.7185 31.7523L34.2146 28.2578L37.712 31.7552L39.7451 29.7208L34.2146 24.189L28.684 29.7193L30.7185 31.7523ZM25.2129 33.1895L27.2466 31.1558L29.2804 33.1895L27.2466 35.2231L25.2129 33.1895ZM34.2145 38.1214L30.7185 34.6254L28.6812 36.657L28.684 36.6599L34.2145 42.1888L39.7451 36.657L39.7465 36.6556L37.712 34.624L34.2145 38.1214ZM39.145 33.1899L41.1788 31.1562L43.2125 33.1899L41.1788 35.2236L39.145 33.1899ZM34.2142 31.1235L36.2772 33.1878H36.2786L36.2772 33.1892L34.2142 35.2535L32.1513 33.1921L32.1484 33.1878L32.1513 33.185L32.5124 32.8239L32.6887 32.649L34.2142 31.1235Z" fill="#F3BA2F"/>
<defs>
<filter id="filter0_d_2082_6345" x="0" y="0.590332" width="68.4253" height="65.1968" filterUnits="userSpaceOnUse" color-interpolation-filters="sRGB">
<feFlood flood-opacity="0" result="BackgroundImageFix"/>
<feColorMatrix in="SourceAlpha" type="matrix" values="0 0 0 0 0 0 0 0 0 0 0 0 0 0 0 0 0 0 127 0" result="hardAlpha"/>
<feOffset/>
<feGaussianBlur stdDeviation="5"/>
<feComposite in2="hardAlpha" operator="out"/>
<feColorMatrix type="matrix" values="0 0 0 0 0 0 0 0 0 0 0 0 0 0 0 0 0 0 0.05 0"/>
<feBlend mode="normal" in2="BackgroundImageFix" result="effect1_dropShadow_2082_6345"/>
<feBlend mode="normal" in="SourceGraphic" in2="effect1_dropShadow_2082_6345" result="shape"/>
</filter>
</defs>
</svg>
