<svg width="69" height="66" viewBox="0 0 69 66" fill="none" xmlns="http://www.w3.org/2000/svg">
<g opacity="0.2" filter="url(#filter0_d_2082_6336)">
<rect x="10" y="10" width="48.4252" height="45.1968" rx="10" fill="#FFCC40"/>
</g>
<path d="M18.0708 24.4565C18.0708 20.0383 21.6525 16.4565 26.0708 16.4565H42.3543C46.7725 16.4565 50.3543 20.0383 50.3543 24.4565V40.74C50.3543 45.1583 46.7725 48.74 42.3543 48.74H26.0708C21.6525 48.74 18.0708 45.1583 18.0708 40.74V24.4565Z" fill="#FFCC40"/>
<path fill-rule="evenodd" clip-rule="evenodd" d="M42.4655 28.0952C42.2187 25.535 40.0086 24.6767 37.2182 24.4323L37.2181 20.8809L35.0559 20.8813L35.056 24.339C34.4883 24.339 33.9074 24.3502 33.3303 24.3617L33.3306 20.881L31.1701 20.881L31.1693 24.4313C30.7013 24.4409 30.2416 24.4496 29.7935 24.4499L29.7932 24.4389L26.8117 24.4379L26.8123 26.7466C26.8123 26.7466 28.4086 26.7162 28.3821 26.7456C29.2577 26.7458 29.5432 27.254 29.6255 27.6928L29.6257 31.7386C29.6861 31.7389 29.765 31.7414 29.8542 31.7537L29.6264 31.7538L29.6253 37.4217C29.5869 37.6972 29.4249 38.1366 28.8132 38.1377C28.8408 38.1622 27.2418 38.1372 27.2418 38.1372L26.8124 40.7194L29.6261 40.7192C29.9439 40.7196 30.2585 40.723 30.5696 40.7264L30.5697 40.7264C30.7712 40.7286 30.9713 40.7307 31.1698 40.7321L31.1709 44.3244L33.3303 44.3248L33.3308 40.7708C33.9231 40.7832 34.4969 40.7879 35.057 40.7874L35.0561 44.3249L37.2178 44.3246L37.2185 40.7392C40.8527 40.5307 43.3969 39.615 43.7118 36.203C43.9668 33.455 42.6747 32.2286 40.6115 31.7326C41.8646 31.0933 42.6481 29.9688 42.4649 28.0954L42.4655 28.0952ZM39.4402 35.7757C39.4408 38.2394 35.5698 38.185 33.8003 38.1602L33.8 38.1602C33.6416 38.158 33.5001 38.156 33.3798 38.1561L33.3803 33.3971C33.5276 33.3972 33.7064 33.3929 33.9091 33.3882L33.9091 33.3882C35.7227 33.3453 39.4394 33.2576 39.4408 35.7755L39.4402 35.7757ZM33.7361 31.2229C35.2135 31.2471 38.4338 31.2998 38.4344 29.0614C38.4347 26.7716 35.3366 26.8539 33.8235 26.8941C33.6534 26.8986 33.5033 26.9026 33.38 26.9026L33.3798 31.2188C33.4817 31.2188 33.6017 31.2207 33.7361 31.2229Z" fill="#F4FFFC"/>
<defs>
<filter id="filter0_d_2082_6336" x="0" y="0" width="68.4253" height="65.1968" filterUnits="userSpaceOnUse" color-interpolation-filters="sRGB">
<feFlood flood-opacity="0" result="BackgroundImageFix"/>
<feColorMatrix in="SourceAlpha" type="matrix" values="0 0 0 0 0 0 0 0 0 0 0 0 0 0 0 0 0 0 127 0" result="hardAlpha"/>
<feOffset/>
<feGaussianBlur stdDeviation="5"/>
<feComposite in2="hardAlpha" operator="out"/>
<feColorMatrix type="matrix" values="0 0 0 0 0 0 0 0 0 0 0 0 0 0 0 0 0 0 0.05 0"/>
<feBlend mode="normal" in2="BackgroundImageFix" result="effect1_dropShadow_2082_6336"/>
<feBlend mode="normal" in="SourceGraphic" in2="effect1_dropShadow_2082_6336" result="shape"/>
</filter>
</defs>
</svg>
