<svg width="69" height="66" viewBox="0 0 69 66" fill="none" xmlns="http://www.w3.org/2000/svg">
<g opacity="0.2" filter="url(#filter0_d_2082_6339)">
<rect x="10" y="10.1968" width="48.4252" height="45.1968" rx="10" fill="#FE8F66"/>
</g>
<path d="M18.0708 24.6533C18.0708 20.235 21.6525 16.6533 26.0708 16.6533H42.3543C46.7725 16.6533 50.3543 20.235 50.3543 24.6533V40.9368C50.3543 45.3551 46.7725 48.9368 42.3543 48.9368H26.0708C21.6525 48.9368 18.0708 45.3551 18.0708 40.9368V24.6533Z" fill="#FE8F66"/>
<path fill-rule="evenodd" clip-rule="evenodd" d="M28.2131 32.5274L34.2108 20.7949V20.7959L34.211 20.7949L40.2086 32.5272L40.2092 32.5275L40.2089 32.5277L40.2089 32.5277L34.2114 36.7072L34.211 36.7075L34.2108 36.7072V36.7076L28.2129 32.5277L28.213 32.5276L28.2129 32.5275L28.2131 32.5274ZM34.2108 44.7936V44.7951L28.2129 34.8306L34.2107 39.0082L34.211 39.0077L40.2125 34.8301L34.211 44.7945L34.2108 44.7936Z" fill="#F4FFFC"/>
<defs>
<filter id="filter0_d_2082_6339" x="0" y="0.196777" width="68.4253" height="65.1968" filterUnits="userSpaceOnUse" color-interpolation-filters="sRGB">
<feFlood flood-opacity="0" result="BackgroundImageFix"/>
<feColorMatrix in="SourceAlpha" type="matrix" values="0 0 0 0 0 0 0 0 0 0 0 0 0 0 0 0 0 0 127 0" result="hardAlpha"/>
<feOffset/>
<feGaussianBlur stdDeviation="5"/>
<feComposite in2="hardAlpha" operator="out"/>
<feColorMatrix type="matrix" values="0 0 0 0 0 0 0 0 0 0 0 0 0 0 0 0 0 0 0.05 0"/>
<feBlend mode="normal" in2="BackgroundImageFix" result="effect1_dropShadow_2082_6339"/>
<feBlend mode="normal" in="SourceGraphic" in2="effect1_dropShadow_2082_6339" result="shape"/>
</filter>
</defs>
</svg>
