<svg width="69" height="66" viewBox="0 0 69 66" fill="none" xmlns="http://www.w3.org/2000/svg">
<g opacity="0.2" filter="url(#filter0_d_2082_6342)">
<rect x="10" y="10.3936" width="48.4252" height="45.1968" rx="10" fill="#783EFD"/>
</g>
<path d="M18.0708 24.8503C18.0708 20.4321 21.6525 16.8503 26.0708 16.8503H42.3543C46.7725 16.8503 50.3543 20.4321 50.3543 24.8503V41.1338C50.3543 45.5521 46.7725 49.1338 42.3543 49.1338H26.0708C21.6525 49.1338 18.0708 45.5521 18.0708 41.1338V24.8503Z" fill="#783EFD"/>
<path d="M33.1859 38.4538L34.3268 34.0515L37.0279 33.0402L37.6997 30.453L37.6768 30.3888L35.018 31.3842L36.9337 23.9922H31.5006L28.9953 33.639L26.9036 34.422L26.2124 37.0893L28.3026 36.3069L26.826 41.9922H41.2854L42.2124 38.4538H33.1859Z" fill="#F4FFFC"/>
<defs>
<filter id="filter0_d_2082_6342" x="0" y="0.393555" width="68.4253" height="65.1968" filterUnits="userSpaceOnUse" color-interpolation-filters="sRGB">
<feFlood flood-opacity="0" result="BackgroundImageFix"/>
<feColorMatrix in="SourceAlpha" type="matrix" values="0 0 0 0 0 0 0 0 0 0 0 0 0 0 0 0 0 0 127 0" result="hardAlpha"/>
<feOffset/>
<feGaussianBlur stdDeviation="5"/>
<feComposite in2="hardAlpha" operator="out"/>
<feColorMatrix type="matrix" values="0 0 0 0 0 0 0 0 0 0 0 0 0 0 0 0 0 0 0.05 0"/>
<feBlend mode="normal" in2="BackgroundImageFix" result="effect1_dropShadow_2082_6342"/>
<feBlend mode="normal" in="SourceGraphic" in2="effect1_dropShadow_2082_6342" result="shape"/>
</filter>
</defs>
</svg>
