<svg width="56" height="59" viewBox="0 0 56 59" fill="none" xmlns="http://www.w3.org/2000/svg">
<path d="M54.9001 48.4333C54.4148 48.4333 54.0211 48.8195 54.0211 49.2956V55.3613C54.0211 56.3431 53.2072 57.1416 52.2066 57.1416H31.5926C30.5919 57.1416 29.778 56.3431 29.778 55.3613V49.2956C29.778 48.8195 29.3843 48.4333 28.8991 48.4333C28.4138 48.4333 28.0202 48.8195 28.0202 49.2956V55.3613C28.0202 56.0107 28.201 56.6197 28.5164 57.1416H26.1337L24.2834 42.3891L25.1038 40.2469L26.4656 41.0589C26.7563 41.2322 27.0804 41.3153 27.4013 41.3153C27.9703 41.3153 28.5306 41.0544 28.8812 40.5734L32.3122 35.8653C33.902 36.3508 35.462 36.945 36.9681 37.6384C36.8793 37.8643 36.8312 38.1073 36.8312 38.3606V40.0304H31.5926C29.6645 40.0304 28.0632 41.57 28.0234 43.4621C28.0229 43.4737 28.0229 43.4854 28.0234 43.4966C28.0568 45.1844 28.7517 46.7657 29.9794 47.9496C31.2099 49.1353 32.8372 49.7883 34.5616 49.7883H38.1999V49.8534C38.1999 50.5864 38.8078 51.1828 39.5549 51.1828H44.2442C44.9913 51.1828 45.5992 50.5864 45.5992 49.8534V49.7883H49.2375C50.9624 49.7883 52.5897 49.1353 53.8197 47.9496C55.0479 46.7657 55.7428 45.1844 55.7758 43.4966C55.7762 43.4854 55.7762 43.4737 55.7758 43.4625C55.7364 41.57 54.1351 40.0304 52.2066 40.0304H46.9679V38.3606C46.9679 37.1848 45.9261 36.2282 44.6452 36.2282H39.1539C38.8637 36.2282 38.5854 36.2771 38.329 36.367C36.4128 35.4427 34.4073 34.6734 32.3589 34.0765L29.2598 31.8363C28.532 31.3104 27.605 31.2228 26.8158 31.561V30.1198C27.6668 29.5234 28.4267 28.8385 29.1193 28.1603C31.0222 26.2965 32.7905 24.1318 32.8441 20.939C32.8445 20.9336 32.8445 20.9278 32.8445 20.9224L32.8432 20.5092C34.6935 20.5092 36.199 19.0316 36.199 17.215V16.0648C36.199 15.3974 35.9953 14.7754 35.6465 14.2558V7.99512C35.6465 7.12384 35.3412 6.28175 34.7942 5.60853C35.078 4.83111 35.2322 3.99352 35.2322 3.12179V1.1641C35.2327 0.522319 34.7003 0 34.0462 0H15.4889C12.8668 0 10.687 1.84271 10.247 4.3079C8.57712 4.7615 7.35443 6.26289 7.35443 7.99512V14.2553C7.00516 14.7749 6.80145 15.397 6.80145 16.0648V17.215C6.80145 19.0312 8.3075 20.5092 10.1578 20.5092H10.1953L10.1967 20.9979C10.1967 21.0037 10.1971 21.0095 10.1971 21.0154C10.2731 24.2054 12.057 26.358 13.9728 28.2088C14.6416 28.8551 15.3722 29.5068 16.1847 30.0798V31.5597C15.396 31.2228 14.4704 31.3104 13.7434 31.8359L10.6462 34.0747C8.44025 34.7178 6.28418 35.5599 4.23615 36.5803C1.62323 37.8814 0 40.4759 0 43.3507V46.1231C0 46.5996 0.393677 46.9854 0.878906 46.9854C1.36414 46.9854 1.75781 46.5996 1.75781 46.1231V43.3507C1.75781 41.1289 3.01208 39.1236 5.03174 38.1181C6.84402 37.2153 8.74466 36.4586 10.6906 35.8644L14.122 40.5729C14.4722 41.0544 15.0325 41.3153 15.6015 41.3153C15.9229 41.3153 16.2469 41.2318 16.5376 41.0589L17.9045 40.2442L18.7175 42.3878L16.8672 57.1416H8.26813V50.2953C8.26813 49.8188 7.87445 49.433 7.38922 49.433C6.90399 49.433 6.51031 49.8188 6.51031 50.2953V57.1416H2.26639C1.98578 57.1416 1.75781 56.918 1.75781 56.6427V50.144C1.75781 49.6679 1.36414 49.2817 0.878906 49.2817C0.393677 49.2817 0 49.6679 0 50.144V56.6427C0 57.8687 1.01669 58.8662 2.26639 58.8662H52.2066C54.1763 58.8662 55.779 57.2939 55.779 55.3613V49.2956C55.779 48.8195 55.3853 48.4333 54.9001 48.4333ZM43.8414 49.4582H39.9577V48.3933H43.8414V49.4582ZM44.6452 37.9528C44.9515 37.9528 45.2101 38.1396 45.2101 38.3606V40.0304H42.2209C41.8364 39.2543 41.3228 38.5528 40.7043 37.9528H44.6452ZM38.589 38.4742C39.2212 38.8892 39.765 39.4178 40.193 40.0304H38.589V38.4742ZM52.2066 41.755C53.1802 41.755 53.9891 42.5279 54.0179 43.4814C53.958 46.0099 51.8175 48.0637 49.2375 48.0637H45.5992V47.9981C45.5992 47.2652 44.9913 46.6687 44.2442 46.6687H39.5549C38.8078 46.6687 38.1999 47.2652 38.1999 47.9981V48.0637H34.5616C31.9817 48.0637 29.8412 46.0099 29.7812 43.4818C29.81 42.5279 30.6194 41.755 31.5926 41.755H52.2066ZM27.3294 33.2596C27.5826 33.044 27.9474 33.0296 28.217 33.2245L30.7443 35.0515L27.4516 39.57C27.4347 39.593 27.4026 39.5992 27.3784 39.5849L22.9852 36.9665L27.3294 33.2596ZM21.5016 38.1001L23.567 39.3311L22.7742 41.4222H20.2267L19.4344 39.3325L21.5016 38.1001ZM21.5016 35.9466L17.9425 32.9101V31.1047C19.0091 31.5956 20.2011 31.91 21.5488 31.9212H21.5561H21.5694C22.8703 31.9014 24.0239 31.601 25.058 31.1326V32.9124L21.5016 35.9466ZM34.4412 16.0648V17.215C34.4412 18.0804 33.7244 18.7846 32.8432 18.7846H32.8377L32.8244 14.4947H32.8432C33.7244 14.4951 34.4412 15.1989 34.4412 16.0648ZM33.8887 7.99512V12.934C33.5596 12.828 33.208 12.7705 32.8432 12.7705H32.6591C32.3607 11.6159 31.6713 10.6067 30.7347 9.89307C31.9693 9.35593 33.0309 8.50352 33.8123 7.44001C33.8626 7.61921 33.8887 7.80604 33.8887 7.99512ZM10.1578 18.7846C9.27658 18.7846 8.55927 18.0804 8.55927 17.215V16.0648C8.55927 15.1994 9.27658 14.4951 10.1578 14.4951H10.1765L10.1898 18.7846H10.1578ZM9.11224 12.934V7.99512C9.11224 6.91006 9.99435 5.98983 11.1205 5.89956C11.5627 5.86408 11.9087 5.51062 11.927 5.07543C12.0062 3.19679 13.5709 1.7246 15.4889 1.7246H33.4749V3.12179C33.4749 6.25211 30.8789 8.79858 27.6888 8.79858H15.5397C14.4699 8.79858 13.5928 9.6254 13.5379 10.662C13.26 11.8687 12.2031 12.7701 11.0522 12.7701C11.0522 12.7705 9.44138 12.828 9.11224 12.934ZM15.206 26.98C13.5553 25.3852 12.0195 23.5551 11.9545 20.9835L11.9339 14.395C13.5585 14.024 14.9107 12.6574 15.2756 10.935C15.3456 10.6063 15.4037 10.5232 15.5397 10.5232H27.6883H27.735C29.6004 10.666 31.0593 12.206 31.0648 14.0483L31.0867 20.9188C31.04 23.4936 29.5166 25.334 27.8773 26.9396C26.1768 28.6054 24.234 30.1521 21.5529 30.1966C18.8741 30.1701 16.9194 28.6355 15.206 26.98ZM15.6253 39.5849C15.6006 39.5992 15.5685 39.593 15.5521 39.57L12.2589 35.0515L14.7862 33.2245C15.0558 33.0296 15.4211 33.044 15.6738 33.2596L20.018 36.9661L15.6253 39.5849ZM18.6383 57.1416L20.3934 43.1468H22.6076L24.3626 57.1416H18.6383Z" fill="#151371"/>
</svg>
