<svg width="60" height="48" viewBox="0 0 60 48" fill="none" xmlns="http://www.w3.org/2000/svg">
<path d="M34.0808 22.2656C34.0808 25.5396 35.3785 29.0314 37.501 31.4868L32.9324 33.6575V9.72847H40.1914V13.2996C36.4304 14.5818 34.0808 17.862 34.0808 22.2656ZM28.7886 34.3624V16.4678H21.5249V34.3624H28.7886ZM17.3765 34.3624V23.7314H10.1159V34.3624H17.3765ZM4.66817 4.66817H45.6438V12.825C47.4582 13.074 49.0422 13.7135 50.312 14.6876V2.33409C50.312 1.04567 49.2648 0 47.9779 0H2.33409C1.04567 0 0 1.04567 0 2.33409V41.7552C0 43.0437 1.04567 44.0893 2.33409 44.0893H26.3145V41.8408C26.3145 41.0519 26.5059 40.2303 26.8218 39.4212H4.66817V4.66817ZM43.9368 33.2C48.5179 33.2 52.2337 27.4955 52.2337 22.2672C52.2337 17.0342 48.5179 14.2597 43.9368 14.2597C39.3511 14.2597 35.6368 17.0342 35.6368 22.2672C35.6368 27.4955 39.3511 33.2 43.9368 33.2ZM55.7349 35.7613L50.3525 33.2L46.8031 40.5835L45.0432 35.8018C44.6791 35.8749 44.3165 35.9636 43.9368 35.9636C43.5571 35.9636 43.1899 35.8702 42.8274 35.8018L40.9741 40.8278L37.3547 33.2778L32.1341 35.7613C29.7907 36.8739 27.8736 39.6141 27.8736 41.8362V47.8332H60V41.8362C59.9984 39.6141 58.0814 36.8739 55.7349 35.7613Z" fill="#151371"/>
</svg>
