<svg width="51" height="60" viewBox="0 0 51 60" fill="none" xmlns="http://www.w3.org/2000/svg">
<path fill-rule="evenodd" clip-rule="evenodd" d="M15.2596 18.0677C14.7128 18.0872 14.3027 18.1995 14.0196 18.3899C13.8585 18.4973 13.7413 18.634 13.6632 18.8C13.5802 18.9806 13.5411 19.2052 13.546 19.4591C13.5655 20.206 13.961 21.1824 14.7177 22.3053L14.7275 22.32L17.1832 26.2257C18.1693 27.7928 19.1995 29.3893 20.4835 30.561C21.7186 31.6887 23.2126 32.4503 25.1947 32.4552C27.3379 32.4601 28.9051 31.6692 30.1793 30.478C31.5023 29.2379 32.5471 27.5389 33.5772 25.8449L36.3454 21.2899C36.8629 20.1133 37.0484 19.3273 36.9312 18.8635C36.8629 18.5901 36.5602 18.4534 36.0427 18.4289C35.9353 18.4241 35.8181 18.4241 35.7058 18.4241C35.5838 18.4289 35.452 18.4338 35.3201 18.4485C35.2469 18.4534 35.1737 18.4485 35.1053 18.4338C34.8612 18.4485 34.6074 18.4289 34.3486 18.3948L35.2957 14.201C28.2655 15.3093 23.0075 10.0903 15.577 13.1563L16.114 18.097C15.8015 18.1165 15.5184 18.1067 15.2596 18.0677ZM33.2355 51.1536V53.5117L28.3876 56.2603V53.5117L31.5072 52.3253L28.3876 51.1536V48.405L33.2355 51.1536ZM24.8383 57.0366H22.7732L25.3216 47.1064H27.3867L24.8383 57.0366ZM21.3915 51.1536L18.2719 52.3253L21.3915 53.5117V56.2603L16.5436 53.5117V51.1536L21.3915 48.405V51.1536ZM36.9752 17.184C37.0777 12.9024 37.8637 8.57687 34.8173 5.06665C32.6448 2.56213 26.9913 0.204078 23.3248 0.00391156C21.7772 -0.0790841 22.3679 1.1805 20.8399 1.70776C17.686 2.79647 14.9276 5.11059 14.0244 8.323C13.878 8.85027 13.7755 9.38242 13.7218 9.91457C13.6192 12.1506 13.6778 14.8162 13.8389 16.935C13.6192 17.018 13.4191 17.1205 13.2433 17.2377C12.8625 17.4916 12.5842 17.8236 12.3987 18.219C12.223 18.5949 12.1448 19.0246 12.1595 19.4981C12.1888 20.5038 12.6526 21.7244 13.5509 23.0669L16.0066 26.9726C16.8658 28.3396 17.7641 29.731 18.8577 30.9076C18.804 31.0638 18.8626 30.8929 18.8284 30.9955C18.5257 31.9133 18.018 33.4463 17.564 34.3055C14.581 36.2584 7.75095 36.7612 5.09998 38.2405C-2.13529 42.2731 0.476632 50.5873 0.388754 57.4564C0.530335 58.9894 1.39935 59.8682 3.10808 60H4.9584L2.93233 44.6214C2.7761 43.4253 3.62558 42.444 4.67035 42.444H14.1758H25.3948C25.0092 39.9541 18.5697 37.5521 18.3402 35.6774C18.4037 35.6335 18.4623 35.5749 18.5111 35.5065C19.0579 34.7449 19.6242 33.1582 20.0148 32.0012C21.3964 33.1192 23.0563 33.8515 25.1898 33.8564C27.1036 33.8613 28.6317 33.3291 29.9157 32.465C30.0426 32.6456 30.1695 32.836 30.3062 33.0362C30.9165 33.9345 31.6293 34.9744 32.2932 35.7164C32.1517 37.8499 26.5666 37.8743 25.9319 42.444H45.8215C46.8663 42.444 47.7207 43.4253 47.5596 44.6214L45.5335 60H47.3838C49.0925 59.8682 49.9616 58.9894 50.108 57.4564C49.6247 50.9681 52.056 41.9509 45.3968 38.2405C42.78 36.7807 36.0915 36.273 33.05 34.3836C32.5374 33.749 31.9857 32.9385 31.4975 32.2257C31.3412 31.9914 31.1899 31.7717 31.0483 31.5715L31.1215 31.5081C32.5813 30.1411 33.6798 28.3591 34.7587 26.582L37.5561 21.9733C37.5708 21.9489 37.5854 21.9196 37.6001 21.8952C38.2543 20.4062 38.4691 19.3126 38.2738 18.5412C38.0932 17.8236 37.6587 17.3939 36.9752 17.184Z" fill="#151371"/>
</svg>
