<svg width="60" height="60" viewBox="0 0 60 60" fill="none" xmlns="http://www.w3.org/2000/svg">
<path d="M47.2575 23.5003C40.477 23.5505 34.9608 29.1729 34.9608 36.0343L34.9612 37.7759L32.7759 40.8312C32.3758 41.3907 32.3224 42.1177 32.6369 42.7292C33.213 43.8504 34.2879 43.7203 35.0264 43.7203C35.4061 47.2707 37.3277 52.8434 40.3275 52.8434H42.4966C42.4926 52.9775 42.4936 58.1044 42.4936 58.2389C42.4936 59.142 43.2281 59.8763 44.1307 59.8763H56.3501C57.6986 59.8763 58.469 58.3353 57.66 57.2567C55.9835 55.021 54.5979 53.6222 54.5979 50.9246C54.5979 49.099 56.3927 45.0814 58.1716 41.9096C62.7865 33.6795 56.7691 23.4314 47.2575 23.5003ZM56.5364 40.9925C55.8994 42.128 52.7229 47.9429 52.7229 50.9246C52.7229 54.21 54.3386 55.9529 55.8747 58.0011H44.3686L44.369 52.6057C44.3695 51.702 43.6385 50.9679 42.7317 50.9679H40.3275C39.0492 50.9679 36.9534 46.5619 36.8358 42.7533C36.8203 42.2473 36.4052 41.8449 35.8987 41.8449H34.3556C36.7033 38.5625 36.8362 38.5388 36.8362 37.8516C36.8362 37.8155 36.8362 36.0696 36.8348 36.0336H36.8358C36.8358 30.1988 41.5172 25.4175 47.2711 25.3749C55.3254 25.3123 60.4537 34.0062 56.5364 40.9925Z" fill="#151371"/>
<path d="M27.2224 40.8311L25.0368 37.7758L25.0371 36.0339C25.0371 29.1538 19.4847 23.5 12.6452 23.5C3.17949 23.5 -2.76918 33.7148 1.82644 41.9097C7.32441 51.7148 5.58371 52.9281 2.33761 57.2566C1.52879 58.3354 2.29918 59.8762 3.64754 59.8762H15.8669C16.7697 59.8762 17.5043 59.1416 17.5043 58.2388C17.5043 58.098 17.5057 52.9832 17.5012 52.8433H19.6703C22.6699 52.8433 24.592 47.2708 24.9717 43.7202H25.7367C27.2214 43.7202 28.0863 42.0393 27.2224 40.8311ZM24.0996 41.8452C23.5931 41.8452 23.1782 42.2474 23.1625 42.7537C23.0446 46.5623 20.9489 50.9683 19.6706 50.9683H17.2661C16.3593 50.9683 15.6286 51.7021 15.6288 52.6059L15.6293 58.0014H4.12308C5.57902 56.0603 7.27519 54.2549 7.27519 50.9249C7.27519 47.9441 4.09871 42.1286 3.46191 40.993C1.62324 37.7144 1.67644 33.8088 3.60418 30.5451C9.07402 21.2852 23.1621 25.281 23.1621 36.0341H23.163C23.1614 36.0749 23.1618 37.8116 23.1618 37.8527C23.1618 38.541 23.2982 38.5684 25.6425 41.8455H24.0996V41.8452Z" fill="#151371"/>
<path d="M35.3795 26.8385C35.3795 20.9318 35.1352 19.6896 36.4126 17.8472C37.2664 16.6195 37.7363 15.1875 37.7907 13.6908H45.6406C46.4162 13.6908 47.0469 14.3215 47.0469 15.097V19.7845C47.0469 20.3022 47.4666 20.722 47.9844 20.722C48.5021 20.722 48.9219 20.3022 48.9219 19.7845V15.097C48.9219 13.2876 47.45 11.8158 45.6406 11.8158H37.637C37.3098 10.2494 36.5052 8.80052 35.3213 7.6952C30.8743 3.54372 23.5813 5.87505 22.3522 11.8158H14.3516C12.5422 11.8158 11.0703 13.2876 11.0703 15.097V19.7845C11.0703 20.3022 11.4901 20.722 12.0078 20.722C12.5255 20.722 12.9453 20.3022 12.9453 19.7845V15.097C12.9453 14.3215 13.576 13.6908 14.3516 13.6908H22.1994C22.3288 17.2214 24.2734 17.6372 24.2734 20.7243C24.2734 27.2958 24.2616 26.8802 24.294 27.033C24.507 29.6873 26.7191 31.747 29.3991 31.747H30.2429C33.2684 31.7468 35.3795 29.1588 35.3795 26.8385ZM30.2429 29.8718H29.3991C28.0149 29.8718 26.8257 29.0067 26.3586 27.7765H33.2858C32.8184 29.0065 31.6283 29.8718 30.2429 29.8718ZM33.5045 25.901H26.1481V23.8439H33.5045V25.901ZM30.7637 21.9684V17.9294L33.2101 15.483C33.5764 15.1169 33.5764 14.5233 33.2101 14.1574C32.8438 13.7911 32.2501 13.7911 31.8845 14.1574L30.7646 15.2772V13.6936C30.7646 13.1758 30.3451 12.7561 29.8271 12.7561C29.3094 12.7561 28.8896 13.1758 28.8896 13.6936V15.2768L27.7702 14.1574C27.4041 13.7913 26.8107 13.7913 26.4444 14.1574C26.078 14.5235 26.078 15.1172 26.4444 15.483L28.8887 17.9276V21.9684H26.1481V20.7241C26.1481 16.8715 23.8843 16.3818 24.0746 13.049C24.3666 8.03692 30.3945 5.662 34.0416 9.06559C36.2663 11.1424 36.4967 14.4419 34.8723 16.7777C33.672 18.5088 33.5052 20.0726 33.5052 21.9682H30.7637V21.9684Z" fill="#151371"/>
<path d="M29.8164 4.51904C30.3341 4.51904 30.7539 4.09928 30.7539 3.58154V1.06201C30.7539 0.544277 30.3341 0.124512 29.8164 0.124512C29.2987 0.124512 28.8789 0.544277 28.8789 1.06201V3.58154C28.8789 4.09928 29.2987 4.51904 29.8164 4.51904Z" fill="#151371"/>
<path d="M34.6299 5.87627C35.1348 5.87627 35.1643 5.73002 37.0745 3.8201C37.4408 3.454 37.4408 2.86033 37.0745 2.49447C36.7086 2.12814 36.1145 2.12814 35.7488 2.49447L33.9671 4.27619C33.3746 4.86822 33.8024 5.87627 34.6299 5.87627Z" fill="#151371"/>
<path d="M25.7269 5.66117C26.5545 5.66117 26.9822 4.65289 26.39 4.06086L24.6082 2.27914C24.2419 1.91281 23.6485 1.91281 23.2824 2.27914C22.9163 2.64523 22.9163 3.23891 23.2824 3.60477C25.1902 5.51305 25.2209 5.66117 25.7269 5.66117Z" fill="#151371"/>
</svg>
