<svg width="37" height="60" viewBox="0 0 37 60" fill="none" xmlns="http://www.w3.org/2000/svg">
<path d="M23.2303 43.7311L33.3001 27.5395C33.333 27.4871 33.3605 27.432 33.382 27.3749C35.1209 24.5393 36.039 21.3001 36.039 17.9929C36.039 8.07164 27.9673 0 18.046 0C8.1247 0 0.0523865 8.07164 0.0523865 17.9929C0.0523865 21.3007 0.971848 24.5413 2.71204 27.379C2.73219 27.4287 2.7557 27.477 2.7839 27.524L12.4923 43.7714C4.95596 44.8366 0 47.9355 0 51.6946C0 56.3524 7.91515 60 18.0191 60C28.1231 60 36.0383 56.3517 36.0383 51.6946C36.039 47.9181 30.852 44.75 23.2303 43.7311ZM4.52074 26.4716C2.91554 23.9167 2.06728 20.9851 2.06728 17.9929C2.06728 9.18252 9.23491 2.01489 18.046 2.01489C26.8565 2.01489 34.0241 9.18252 34.0241 17.9929C34.0241 20.9864 33.1758 23.9181 31.5713 26.4716C31.5377 26.5253 31.5102 26.5811 31.488 26.6388L20.8494 43.7432C20.6896 43.9884 20.658 44.0441 20.4625 44.3651L17.776 48.6851L4.61074 26.6529C4.58723 26.5905 4.55701 26.5294 4.52074 26.4716ZM18.0198 57.9851C8.58813 57.9851 2.01556 54.6693 2.01556 51.6946C2.01556 48.9947 6.96547 46.4506 13.6233 45.6627L16.8942 51.1372C17.0748 51.4387 17.3986 51.6248 17.7498 51.6275C17.7525 51.6275 17.7559 51.6275 17.7586 51.6275C18.1065 51.6275 18.4302 51.4475 18.6142 51.152L22.053 45.6231C28.8169 46.3559 34.0234 48.9645 34.0234 51.6946C34.0241 54.67 27.4515 57.9851 18.0198 57.9851Z" fill="#151371"/>
<path d="M24.5612 17.9935C24.5612 14.3862 21.6262 11.4512 18.0189 11.4512C14.4116 11.4512 11.4766 14.3862 11.4766 17.9935C11.4766 21.6009 14.4116 24.5359 18.0189 24.5359C21.6262 24.5359 24.5612 21.6009 24.5612 17.9935ZM13.4914 17.9935C13.4914 15.4971 15.5225 13.4661 18.0189 13.4661C20.5153 13.4661 22.5463 15.4971 22.5463 17.9935C22.5463 20.49 20.516 22.521 18.0189 22.521C15.5218 22.521 13.4914 20.49 13.4914 17.9935Z" fill="#151371"/>
</svg>
